<?xml version="1.0" encoding="utf-8" standalone="no"?>
<!DOCTYPE svg PUBLIC "-//W3C//DTD SVG 1.1//EN"
  "http://www.w3.org/Graphics/SVG/1.1/DTD/svg11.dtd">
<svg xmlns:xlink="http://www.w3.org/1999/xlink" width="720pt" height="720pt" viewBox="0 0 720 720" xmlns="http://www.w3.org/2000/svg" version="1.1">
 <metadata>
  <rdf:RDF xmlns:dc="http://purl.org/dc/elements/1.1/" xmlns:cc="http://creativecommons.org/ns#" xmlns:rdf="http://www.w3.org/1999/02/22-rdf-syntax-ns#">
   <cc:Work>
    <dc:type rdf:resource="http://purl.org/dc/dcmitype/StillImage"/>
    <dc:date>2025-02-05T15:06:58.319088</dc:date>
    <dc:format>image/svg+xml</dc:format>
    <dc:creator>
     <cc:Agent>
      <dc:title>Matplotlib v3.9.3, https://matplotlib.org/</dc:title>
     </cc:Agent>
    </dc:creator>
   </cc:Work>
  </rdf:RDF>
 </metadata>
 <defs>
  <style type="text/css">*{stroke-linejoin: round; stroke-linecap: butt}</style>
 </defs>
 <g id="figure_1">
  <g id="patch_1">
   <path d="M 0 720 
L 720 720 
L 720 0 
L 0 0 
z
" style="fill: #ffffff"/>
  </g>
  <g id="axes_1">
   <g id="patch_2">
    <path d="M 60.05 468.12 
L 669.312353 468.12 
L 669.312353 29.76 
L 60.05 29.76 
z
" style="fill: #ffffff"/>
   </g>
   <g id="PolyCollection_1">
    <path d="M 60.05 128.234277 
L 60.05 468.12 
L 62.439264 468.12 
L 64.828528 468.12 
L 67.217792 468.12 
L 69.607057 468.12 
L 71.996321 468.12 
L 74.385585 468.12 
L 76.774849 468.12 
L 79.164113 468.12 
L 81.553377 468.12 
L 83.942641 468.12 
L 86.331905 468.12 
L 88.72117 468.12 
L 91.110434 468.12 
L 93.499698 468.12 
L 95.888962 468.12 
L 98.278226 468.12 
L 100.66749 468.12 
L 103.056754 468.12 
L 105.446018 468.12 
L 107.835283 468.12 
L 110.224547 468.12 
L 112.613811 468.12 
L 115.003075 468.12 
L 117.392339 468.12 
L 119.781603 468.12 
L 122.170867 468.12 
L 124.560131 468.12 
L 126.949396 468.12 
L 129.33866 468.12 
L 131.727924 468.12 
L 134.117188 468.12 
L 136.506452 468.12 
L 138.895716 468.12 
L 141.28498 468.12 
L 143.674245 468.12 
L 146.063509 468.12 
L 148.452773 468.12 
L 150.842037 468.12 
L 153.231301 468.12 
L 155.620565 468.12 
L 158.009829 468.12 
L 160.399093 468.12 
L 162.788358 468.12 
L 165.177622 468.12 
L 167.566886 468.12 
L 169.95615 468.12 
L 172.345414 468.12 
L 174.734678 468.12 
L 177.123942 468.12 
L 179.513206 468.12 
L 181.902471 468.12 
L 184.291735 468.12 
L 186.680999 468.12 
L 189.070263 468.12 
L 191.459527 468.12 
L 193.848791 468.12 
L 196.238055 468.12 
L 198.627319 468.12 
L 201.016584 468.12 
L 203.405848 468.12 
L 205.795112 468.12 
L 208.184376 468.12 
L 210.57364 468.12 
L 212.962904 468.12 
L 215.352168 468.12 
L 217.741433 468.12 
L 220.130697 468.12 
L 222.519961 468.12 
L 224.909225 468.12 
L 227.298489 468.12 
L 229.687753 468.12 
L 232.077017 468.12 
L 234.466281 468.12 
L 236.855546 468.12 
L 239.24481 468.12 
L 241.634074 468.12 
L 244.023338 468.12 
L 246.412602 468.12 
L 248.801866 468.12 
L 251.19113 468.12 
L 253.580394 468.12 
L 255.969659 468.12 
L 258.358923 468.12 
L 260.748187 468.12 
L 263.137451 468.12 
L 265.526715 468.12 
L 267.915979 468.12 
L 270.305243 468.12 
L 272.694507 468.12 
L 275.083772 468.12 
L 277.473036 468.12 
L 279.8623 468.12 
L 282.251564 468.12 
L 284.640828 468.12 
L 287.030092 468.12 
L 289.419356 468.12 
L 291.808621 468.12 
L 294.197885 468.12 
L 296.587149 468.12 
L 298.976413 468.12 
L 301.365677 468.12 
L 303.754941 468.12 
L 306.144205 468.12 
L 308.533469 468.12 
L 310.922734 468.12 
L 313.311998 468.12 
L 315.701262 468.12 
L 318.090526 468.12 
L 320.47979 468.12 
L 322.869054 468.12 
L 325.258318 468.12 
L 327.647582 468.12 
L 330.036847 468.12 
L 332.426111 468.12 
L 334.815375 468.12 
L 337.204639 468.12 
L 339.593903 468.12 
L 341.983167 468.12 
L 344.372431 468.12 
L 346.761696 468.12 
L 349.15096 468.12 
L 351.540224 468.12 
L 353.929488 468.12 
L 356.318752 468.12 
L 358.708016 468.12 
L 361.09728 468.12 
L 363.486544 468.12 
L 365.875809 468.12 
L 368.265073 468.12 
L 370.654337 468.12 
L 373.043601 468.12 
L 375.432865 468.12 
L 377.822129 468.12 
L 380.211393 468.12 
L 382.600657 468.12 
L 384.989922 468.12 
L 387.379186 468.12 
L 389.76845 468.12 
L 392.157714 468.12 
L 394.546978 468.12 
L 396.936242 468.12 
L 399.325506 468.12 
L 401.71477 468.12 
L 404.104035 468.12 
L 406.493299 468.12 
L 408.882563 468.12 
L 411.271827 468.12 
L 413.661091 468.12 
L 416.050355 468.12 
L 418.439619 468.12 
L 420.828884 468.12 
L 423.218148 468.12 
L 425.607412 468.12 
L 427.996676 468.12 
L 430.38594 468.12 
L 432.775204 468.12 
L 435.164468 468.12 
L 437.553732 468.12 
L 439.942997 468.12 
L 442.332261 468.12 
L 444.721525 468.12 
L 447.110789 468.12 
L 449.500053 468.12 
L 451.889317 468.12 
L 454.278581 468.12 
L 456.667845 468.12 
L 459.05711 468.12 
L 461.446374 468.12 
L 463.835638 468.12 
L 466.224902 468.12 
L 468.614166 468.12 
L 471.00343 468.12 
L 473.392694 468.12 
L 475.781958 468.12 
L 478.171223 468.12 
L 480.560487 468.12 
L 482.949751 468.12 
L 485.339015 468.12 
L 487.728279 468.12 
L 490.117543 468.12 
L 492.506807 468.12 
L 494.896072 468.12 
L 497.285336 468.12 
L 499.6746 468.12 
L 502.063864 468.12 
L 504.453128 468.12 
L 506.842392 468.12 
L 509.231656 468.12 
L 511.62092 468.12 
L 514.010185 468.12 
L 516.399449 468.12 
L 518.788713 468.12 
L 521.177977 468.12 
L 523.567241 468.12 
L 525.956505 468.12 
L 528.345769 468.12 
L 530.735033 468.12 
L 533.124298 468.12 
L 535.513562 468.12 
L 537.902826 468.12 
L 540.29209 468.12 
L 542.681354 468.12 
L 545.070618 468.12 
L 547.459882 468.12 
L 549.849146 468.12 
L 552.238411 468.12 
L 554.627675 468.12 
L 557.016939 468.12 
L 559.406203 468.12 
L 561.795467 468.12 
L 564.184731 468.12 
L 566.573995 468.12 
L 568.96326 468.12 
L 571.352524 468.12 
L 573.741788 468.12 
L 576.131052 468.12 
L 578.520316 468.12 
L 580.90958 468.12 
L 583.298844 468.12 
L 585.688108 468.12 
L 588.077373 468.12 
L 590.466637 468.12 
L 592.855901 468.12 
L 595.245165 468.12 
L 597.634429 468.12 
L 600.023693 468.12 
L 602.412957 468.12 
L 604.802221 468.12 
L 607.191486 468.12 
L 609.58075 468.12 
L 611.970014 468.12 
L 614.359278 468.12 
L 616.748542 468.12 
L 619.137806 468.12 
L 621.52707 468.12 
L 623.916334 468.12 
L 626.305599 468.12 
L 628.694863 468.12 
L 631.084127 468.12 
L 633.473391 468.12 
L 635.862655 468.12 
L 638.251919 468.12 
L 640.641183 468.12 
L 643.030448 468.12 
L 645.419712 468.12 
L 647.808976 468.12 
L 650.19824 468.12 
L 652.587504 468.12 
L 654.976768 468.12 
L 657.366032 468.12 
L 659.755296 468.12 
L 662.144561 468.12 
L 664.533825 468.12 
L 666.923089 468.12 
L 669.312353 468.12 
L 669.312353 225.978286 
L 669.312353 225.978286 
L 666.923089 224.586667 
L 664.533825 225.317267 
L 662.144561 226.778467 
L 659.755296 229.085625 
L 657.366032 243.697625 
L 654.976768 230.546825 
L 652.587504 236.391625 
L 650.19824 238.01518 
L 647.808976 245.32118 
L 645.419712 245.32118 
L 643.030448 240.20698 
L 640.641183 225.59498 
L 638.251919 214.114123 
L 635.862655 201.693923 
L 633.473391 203.885723 
L 631.084127 190.004323 
L 628.694863 176.853523 
L 626.305599 162.241523 
L 623.916334 157.857923 
L 621.52707 157.857923 
L 619.137806 146.898923 
L 616.748542 150.551923 
L 614.359278 157.857923 
L 611.970014 159.481479 
L 609.58075 160.212079 
L 607.191486 160.942679 
L 604.802221 147.791879 
L 602.412957 134.641079 
L 600.023693 134.641079 
L 597.634429 121.855579 
L 595.245165 119.176712 
L 592.855901 122.620969 
L 590.466637 121.159769 
L 588.077373 122.505611 
L 585.688108 109.354811 
L 583.298844 107.893611 
L 580.90958 104.705538 
L 578.520316 103.081983 
L 576.131052 96.506583 
L 573.741788 100.159583 
L 571.352524 99.428983 
L 568.96326 99.428983 
L 566.573995 96.29784 
L 564.184731 96.29784 
L 561.795467 94.83664 
L 559.406203 95.56724 
L 557.016939 97.02844 
L 554.627675 99.22024 
L 552.238411 99.22024 
L 549.849146 85.936604 
L 547.459882 83.907159 
L 545.070618 81.228292 
L 542.681354 76.844692 
L 540.29209 76.682337 
L 537.902826 75.951737 
L 535.513562 79.604737 
L 533.124298 82.318394 
L 530.735033 83.292527 
L 528.345769 86.214927 
L 525.956505 84.388427 
L 523.567241 85.849627 
L 521.177977 81.67477 
L 518.788713 86.545437 
L 516.399449 82.892437 
L 514.010185 93.607904 
L 511.62092 100.913904 
L 509.231656 105.563176 
L 506.842392 106.374954 
L 504.453128 107.966498 
L 502.063864 109.186198 
L 499.6746 115.040755 
L 497.285336 129.677149 
L 494.896072 130.408969 
L 492.506807 129.677149 
L 490.117543 136.263527 
L 487.728279 138.052419 
L 485.339015 137.216054 
L 482.949751 135.020595 
L 480.560487 133.719582 
L 478.171223 136.779919 
L 475.781958 135.153653 
L 473.392694 136.007443 
L 471.00343 134.543803 
L 468.614166 134.543803 
L 466.224902 135.66968 
L 463.835638 133.369675 
L 461.446374 131.383307 
L 459.05711 131.139367 
L 456.667845 129.54267 
L 454.278581 144.179064 
L 451.889317 150.277561 
L 449.500053 150.277561 
L 447.110789 147.350282 
L 444.721525 147.350282 
L 442.332261 137.464297 
L 439.942997 144.782494 
L 437.553732 138.755743 
L 435.164468 147.700206 
L 432.775204 150.182506 
L 430.38594 147.030898 
L 427.996676 139.724898 
L 425.607412 130.957698 
L 423.218148 131.201232 
L 420.828884 131.566532 
L 418.439619 127.182932 
L 416.050355 128.806487 
L 413.661091 129.154392 
L 411.271827 136.460392 
L 408.882563 136.663336 
L 406.493299 135.202136 
L 404.104035 135.202136 
L 401.71477 133.375636 
L 399.325506 137.393936 
L 396.936242 140.803403 
L 394.546978 141.986561 
L 392.157714 154.511132 
L 389.76845 155.241732 
L 387.379186 153.049932 
L 384.989922 151.721569 
L 382.600657 140.762569 
L 380.211393 131.021235 
L 377.822129 131.583235 
L 375.432865 131.722397 
L 373.043601 133.914197 
L 370.654337 135.260039 
L 368.265073 122.474539 
L 365.875809 128.491245 
L 363.486544 118.749912 
L 361.09728 113.879245 
L 358.708016 115.082586 
L 356.318752 116.543786 
L 353.929488 111.429586 
L 351.540224 112.447999 
L 349.15096 111.433276 
L 346.761696 109.972076 
L 344.372431 105.83201 
L 341.983167 103.519609 
L 339.593903 97.665051 
L 337.204639 97.926416 
L 334.815375 94.999137 
L 332.426111 97.926416 
L 330.036847 99.390055 
L 327.647582 96.828686 
L 325.258318 99.268085 
L 322.869054 99.396474 
L 320.47979 86.95554 
L 318.090526 86.772585 
L 315.701262 86.772585 
L 313.311998 86.772585 
L 310.922734 84.739752 
L 308.533469 87.667031 
L 306.144205 89.055612 
L 303.754941 92.819256 
L 301.365677 93.063196 
L 298.976413 90.449554 
L 296.587149 91.547284 
L 294.197885 84.229087 
L 291.808621 84.394924 
L 289.419356 88.065163 
L 287.030092 85.128971 
L 284.640828 86.788058 
L 282.251564 89.324941 
L 279.8623 89.994499 
L 277.473036 89.912664 
L 275.083772 91.624563 
L 272.694507 95.798144 
L 270.305243 97.157934 
L 267.915979 95.687376 
L 265.526715 95.687376 
L 263.137451 110.392957 
L 260.748187 110.719748 
L 258.358923 109.24919 
L 255.969659 107.778631 
L 253.580394 100.425841 
L 251.19113 97.974911 
L 248.801866 98.364176 
L 246.412602 95.60688 
L 244.023338 95.60688 
L 241.634074 98.547996 
L 239.24481 101.239213 
L 236.855546 100.503934 
L 234.466281 99.880061 
L 232.077017 95.631782 
L 229.687753 96.121968 
L 227.298489 97.172367 
L 224.909225 94.231251 
L 222.519961 97.907646 
L 220.130697 100.632621 
L 217.741433 96.967404 
L 215.352168 96.967404 
L 212.962904 93.820979 
L 210.57364 93.496268 
L 208.184376 91.570141 
L 205.795112 93.031341 
L 203.405848 89.871989 
L 201.016584 86.539428 
L 198.627319 89.948895 
L 196.238055 93.196006 
L 193.848791 99.458291 
L 191.459527 85.576891 
L 189.070263 82.32978 
L 186.680999 82.32978 
L 184.291735 80.86858 
L 181.902471 82.587639 
L 179.513206 97.199639 
L 177.123942 97.543451 
L 174.734678 97.543451 
L 172.345414 97.543451 
L 169.95615 94.621051 
L 167.566886 92.758737 
L 165.177622 96.411737 
L 162.788358 97.098822 
L 160.399093 98.032366 
L 158.009829 97.197395 
L 155.620565 97.357966 
L 153.231301 98.628575 
L 150.842037 97.554163 
L 148.452773 94.631763 
L 146.063509 101.937763 
L 143.674245 102.283111 
L 141.28498 105.95359 
L 138.895716 110.358164 
L 136.506452 109.624068 
L 134.117188 111.826355 
L 131.727924 114.028643 
L 129.33866 117.768667 
L 126.949396 116.02082 
L 124.560131 118.492802 
L 122.170867 112.29554 
L 119.781603 115.396455 
L 117.392339 119.991882 
L 115.003075 121.462419 
L 112.613811 123.30059 
L 110.224547 121.570546 
L 107.835283 113.167479 
L 105.446018 110.226406 
L 103.056754 111.066712 
L 100.66749 111.801981 
L 98.278226 114.743054 
L 95.888962 114.188807 
L 93.499698 108.29503 
L 91.110434 111.419748 
L 88.72117 111.419748 
L 86.331905 110.05155 
L 83.942641 113.67849 
L 81.553377 117.308715 
L 79.164113 117.98284 
L 76.774849 132.717283 
L 74.385585 128.624382 
L 71.996321 133.284333 
L 69.607057 131.903353 
L 67.217792 125.299016 
L 64.828528 131.169538 
L 62.439264 130.435723 
L 60.05 128.234277 
z
" clip-path="url(#ped9bb38e9f)" style="fill: #5386b6"/>
   </g>
   <g id="PolyCollection_2">
    <path d="M 60.05 94.675072 
L 60.05 128.234277 
L 62.439264 130.435723 
L 64.828528 131.169538 
L 67.217792 125.299016 
L 69.607057 131.903353 
L 71.996321 133.284333 
L 74.385585 128.624382 
L 76.774849 132.717283 
L 79.164113 117.98284 
L 81.553377 117.308715 
L 83.942641 113.67849 
L 86.331905 110.05155 
L 88.72117 111.419748 
L 91.110434 111.419748 
L 93.499698 108.29503 
L 95.888962 114.188807 
L 98.278226 114.743054 
L 100.66749 111.801981 
L 103.056754 111.066712 
L 105.446018 110.226406 
L 107.835283 113.167479 
L 110.224547 121.570546 
L 112.613811 123.30059 
L 115.003075 121.462419 
L 117.392339 119.991882 
L 119.781603 115.396455 
L 122.170867 112.29554 
L 124.560131 118.492802 
L 126.949396 116.02082 
L 129.33866 117.768667 
L 131.727924 114.028643 
L 134.117188 111.826355 
L 136.506452 109.624068 
L 138.895716 110.358164 
L 141.28498 105.95359 
L 143.674245 102.283111 
L 146.063509 101.937763 
L 148.452773 94.631763 
L 150.842037 97.554163 
L 153.231301 98.628575 
L 155.620565 97.357966 
L 158.009829 97.197395 
L 160.399093 98.032366 
L 162.788358 97.098822 
L 165.177622 96.411737 
L 167.566886 92.758737 
L 169.95615 94.621051 
L 172.345414 97.543451 
L 174.734678 97.543451 
L 177.123942 97.543451 
L 179.513206 97.199639 
L 181.902471 82.587639 
L 184.291735 80.86858 
L 186.680999 82.32978 
L 189.070263 82.32978 
L 191.459527 85.576891 
L 193.848791 99.458291 
L 196.238055 93.196006 
L 198.627319 89.948895 
L 201.016584 86.539428 
L 203.405848 89.871989 
L 205.795112 93.031341 
L 208.184376 91.570141 
L 210.57364 93.496268 
L 212.962904 93.820979 
L 215.352168 96.967404 
L 217.741433 96.967404 
L 220.130697 100.632621 
L 222.519961 97.907646 
L 224.909225 94.231251 
L 227.298489 97.172367 
L 229.687753 96.121968 
L 232.077017 95.631782 
L 234.466281 99.880061 
L 236.855546 100.503934 
L 239.24481 101.239213 
L 241.634074 98.547996 
L 244.023338 95.60688 
L 246.412602 95.60688 
L 248.801866 98.364176 
L 251.19113 97.974911 
L 253.580394 100.425841 
L 255.969659 107.778631 
L 258.358923 109.24919 
L 260.748187 110.719748 
L 263.137451 110.392957 
L 265.526715 95.687376 
L 267.915979 95.687376 
L 270.305243 97.157934 
L 272.694507 95.798144 
L 275.083772 91.624563 
L 277.473036 89.912664 
L 279.8623 89.994499 
L 282.251564 89.324941 
L 284.640828 86.788058 
L 287.030092 85.128971 
L 289.419356 88.065163 
L 291.808621 84.394924 
L 294.197885 84.229087 
L 296.587149 91.547284 
L 298.976413 90.449554 
L 301.365677 93.063196 
L 303.754941 92.819256 
L 306.144205 89.055612 
L 308.533469 87.667031 
L 310.922734 84.739752 
L 313.311998 86.772585 
L 315.701262 86.772585 
L 318.090526 86.772585 
L 320.47979 86.95554 
L 322.869054 99.396474 
L 325.258318 99.268085 
L 327.647582 96.828686 
L 330.036847 99.390055 
L 332.426111 97.926416 
L 334.815375 94.999137 
L 337.204639 97.926416 
L 339.593903 97.665051 
L 341.983167 103.519609 
L 344.372431 105.83201 
L 346.761696 109.972076 
L 349.15096 111.433276 
L 351.540224 112.447999 
L 353.929488 111.429586 
L 356.318752 116.543786 
L 358.708016 115.082586 
L 361.09728 113.879245 
L 363.486544 118.749912 
L 365.875809 128.491245 
L 368.265073 122.474539 
L 370.654337 135.260039 
L 373.043601 133.914197 
L 375.432865 131.722397 
L 377.822129 131.583235 
L 380.211393 131.021235 
L 382.600657 140.762569 
L 384.989922 151.721569 
L 387.379186 153.049932 
L 389.76845 155.241732 
L 392.157714 154.511132 
L 394.546978 141.986561 
L 396.936242 140.803403 
L 399.325506 137.393936 
L 401.71477 133.375636 
L 404.104035 135.202136 
L 406.493299 135.202136 
L 408.882563 136.663336 
L 411.271827 136.460392 
L 413.661091 129.154392 
L 416.050355 128.806487 
L 418.439619 127.182932 
L 420.828884 131.566532 
L 423.218148 131.201232 
L 425.607412 130.957698 
L 427.996676 139.724898 
L 430.38594 147.030898 
L 432.775204 150.182506 
L 435.164468 147.700206 
L 437.553732 138.755743 
L 439.942997 144.782494 
L 442.332261 137.464297 
L 444.721525 147.350282 
L 447.110789 147.350282 
L 449.500053 150.277561 
L 451.889317 150.277561 
L 454.278581 144.179064 
L 456.667845 129.54267 
L 459.05711 131.139367 
L 461.446374 131.383307 
L 463.835638 133.369675 
L 466.224902 135.66968 
L 468.614166 134.543803 
L 471.00343 134.543803 
L 473.392694 136.007443 
L 475.781958 135.153653 
L 478.171223 136.779919 
L 480.560487 133.719582 
L 482.949751 135.020595 
L 485.339015 137.216054 
L 487.728279 138.052419 
L 490.117543 136.263527 
L 492.506807 129.677149 
L 494.896072 130.408969 
L 497.285336 129.677149 
L 499.6746 115.040755 
L 502.063864 109.186198 
L 504.453128 107.966498 
L 506.842392 106.374954 
L 509.231656 105.563176 
L 511.62092 100.913904 
L 514.010185 93.607904 
L 516.399449 82.892437 
L 518.788713 86.545437 
L 521.177977 81.67477 
L 523.567241 85.849627 
L 525.956505 84.388427 
L 528.345769 86.214927 
L 530.735033 83.292527 
L 533.124298 82.318394 
L 535.513562 79.604737 
L 537.902826 75.951737 
L 540.29209 76.682337 
L 542.681354 76.844692 
L 545.070618 81.228292 
L 547.459882 83.907159 
L 549.849146 85.936604 
L 552.238411 99.22024 
L 554.627675 99.22024 
L 557.016939 97.02844 
L 559.406203 95.56724 
L 561.795467 94.83664 
L 564.184731 96.29784 
L 566.573995 96.29784 
L 568.96326 99.428983 
L 571.352524 99.428983 
L 573.741788 100.159583 
L 576.131052 96.506583 
L 578.520316 103.081983 
L 580.90958 104.705538 
L 583.298844 107.893611 
L 585.688108 109.354811 
L 588.077373 122.505611 
L 590.466637 121.159769 
L 592.855901 122.620969 
L 595.245165 119.176712 
L 597.634429 121.855579 
L 600.023693 134.641079 
L 602.412957 134.641079 
L 604.802221 147.791879 
L 607.191486 160.942679 
L 609.58075 160.212079 
L 611.970014 159.481479 
L 614.359278 157.857923 
L 616.748542 150.551923 
L 619.137806 146.898923 
L 621.52707 157.857923 
L 623.916334 157.857923 
L 626.305599 162.241523 
L 628.694863 176.853523 
L 631.084127 190.004323 
L 633.473391 203.885723 
L 635.862655 201.693923 
L 638.251919 214.114123 
L 640.641183 225.59498 
L 643.030448 240.20698 
L 645.419712 245.32118 
L 647.808976 245.32118 
L 650.19824 238.01518 
L 652.587504 236.391625 
L 654.976768 230.546825 
L 657.366032 243.697625 
L 659.755296 229.085625 
L 662.144561 226.778467 
L 664.533825 225.317267 
L 666.923089 224.586667 
L 669.312353 225.978286 
L 669.312353 196.754286 
L 669.312353 196.754286 
L 666.923089 195.362667 
L 664.533825 195.362667 
L 662.144561 196.093267 
L 659.755296 196.093267 
L 657.366032 210.705267 
L 654.976768 196.823867 
L 652.587504 199.015667 
L 650.19824 199.015667 
L 647.808976 206.321667 
L 645.419712 206.321667 
L 643.030448 199.746267 
L 640.641183 185.134267 
L 638.251919 171.565981 
L 635.862655 157.684581 
L 633.473391 158.415181 
L 631.084127 144.533781 
L 628.694863 131.382981 
L 626.305599 116.770981 
L 623.916334 109.464981 
L 621.52707 109.464981 
L 619.137806 94.852981 
L 616.748542 96.679481 
L 614.359278 103.985481 
L 611.970014 103.985481 
L 609.58075 103.985481 
L 607.191486 103.985481 
L 604.802221 89.373481 
L 602.412957 89.373481 
L 600.023693 89.373481 
L 597.634429 89.373481 
L 595.245165 85.964014 
L 592.855901 90.138871 
L 590.466637 89.408271 
L 588.077373 91.843605 
L 585.688108 78.692805 
L 583.298844 77.962205 
L 580.90958 78.427132 
L 578.520316 78.427132 
L 576.131052 71.121132 
L 573.741788 73.312932 
L 571.352524 72.582332 
L 568.96326 72.582332 
L 566.573995 71.538618 
L 564.184731 72.269218 
L 561.795467 72.269218 
L 559.406203 72.269218 
L 557.016939 73.730418 
L 554.627675 75.191618 
L 552.238411 76.652818 
L 549.849146 63.369181 
L 547.459882 64.992737 
L 545.070618 64.14037 
L 542.681354 59.75677 
L 540.29209 61.21797 
L 537.902826 61.21797 
L 535.513562 64.87097 
L 533.124298 69.045827 
L 530.735033 71.481161 
L 528.345769 73.429427 
L 525.956505 73.429427 
L 523.567241 74.890627 
L 521.177977 70.71577 
L 518.788713 75.586437 
L 516.399449 73.151104 
L 514.010185 81.431237 
L 511.62092 88.737237 
L 509.231656 86.08051 
L 506.842392 86.892287 
L 504.453128 88.451306 
L 502.063864 90.158886 
L 499.6746 97.477083 
L 497.285336 97.477083 
L 494.896072 97.477083 
L 492.506807 96.745263 
L 490.117543 103.33164 
L 487.728279 104.226086 
L 485.339015 103.389721 
L 482.949751 101.926082 
L 480.560487 102.088708 
L 478.171223 103.685406 
L 475.781958 102.05914 
L 473.392694 102.912929 
L 471.00343 100.71747 
L 468.614166 99.253831 
L 466.224902 100.379707 
L 463.835638 98.811522 
L 461.446374 96.093335 
L 459.05711 94.385756 
L 456.667845 93.764818 
L 454.278581 108.401212 
L 451.889317 115.231529 
L 449.500053 115.231529 
L 447.110789 111.32849 
L 444.721525 111.32849 
L 442.332261 102.341231 
L 439.942997 109.659428 
L 437.553732 110.08991 
L 435.164468 114.155575 
L 432.775204 117.424383 
L 430.38594 114.817143 
L 427.996676 107.511143 
L 425.607412 113.355943 
L 423.218148 113.355943 
L 420.828884 114.086543 
L 418.439619 108.972343 
L 416.050355 110.595899 
L 413.661091 110.943804 
L 411.271827 118.249804 
L 408.882563 116.626248 
L 406.493299 116.626248 
L 404.104035 116.626248 
L 401.71477 114.799748 
L 399.325506 117.722148 
L 396.936242 118.939815 
L 394.546978 118.584867 
L 392.157714 116.497439 
L 389.76845 117.228039 
L 387.379186 116.497439 
L 384.989922 115.169075 
L 382.600657 104.210075 
L 380.211393 94.468742 
L 377.822129 95.030742 
L 375.432865 96.144037 
L 373.043601 98.335837 
L 370.654337 100.489184 
L 368.265073 86.790434 
L 365.875809 86.36067 
L 363.486544 81.490003 
L 361.09728 76.619336 
L 358.708016 76.791242 
L 356.318752 77.156542 
L 353.929488 71.311742 
L 351.540224 72.640106 
L 349.15096 71.990684 
L 346.761696 71.260084 
L 344.372431 68.743573 
L 341.983167 66.369255 
L 339.593903 59.782877 
L 337.204639 61.037425 
L 334.815375 58.110147 
L 332.426111 59.573786 
L 330.036847 59.573786 
L 327.647582 55.914688 
L 325.258318 62.013185 
L 322.869054 62.462548 
L 320.47979 63.194368 
L 318.090526 63.743233 
L 315.701262 63.743233 
L 313.311998 63.743233 
L 310.922734 60.897267 
L 308.533469 63.092726 
L 306.144205 62.529788 
L 303.754941 66.293432 
L 301.365677 64.097973 
L 298.976413 61.170694 
L 296.587149 63.183198 
L 294.197885 63.183198 
L 291.808621 63.284959 
L 289.419356 64.753054 
L 287.030092 63.284959 
L 284.640828 64.502385 
L 282.251564 67.775782 
L 279.8623 69.1149 
L 277.473036 69.033065 
L 275.083772 69.948731 
L 272.694507 74.122313 
L 270.305243 74.783181 
L 267.915979 74.047902 
L 265.526715 74.888221 
L 263.137451 89.593802 
L 260.748187 91.391151 
L 258.358923 91.391151 
L 255.969659 92.861709 
L 253.580394 85.508919 
L 251.19113 84.283453 
L 248.801866 86.143277 
L 246.412602 83.38598 
L 244.023338 83.38598 
L 241.634074 86.327097 
L 239.24481 88.970257 
L 236.855546 87.499699 
L 234.466281 88.83657 
L 232.077017 84.588291 
L 229.687753 86.058849 
L 227.298489 88.159646 
L 224.909225 85.21853 
L 222.519961 87.66946 
L 220.130697 90.425564 
L 217.741433 88.959477 
L 215.352168 88.959477 
L 212.962904 87.300945 
L 210.57364 86.976234 
L 208.184376 85.050107 
L 205.795112 85.780707 
L 203.405848 83.411193 
L 201.016584 79.309579 
L 198.627319 83.449646 
L 196.238055 86.696757 
L 193.848791 90.871614 
L 191.459527 76.990214 
L 189.070263 73.743103 
L 186.680999 73.743103 
L 184.291735 72.281903 
L 181.902471 74.000962 
L 179.513206 81.306962 
L 177.123942 81.650774 
L 174.734678 81.650774 
L 172.345414 81.650774 
L 169.95615 78.728374 
L 167.566886 77.725589 
L 165.177622 82.839789 
L 162.788358 82.51915 
L 160.399093 81.991494 
L 158.009829 80.530294 
L 155.620565 80.690866 
L 153.231301 81.961474 
L 150.842037 80.385671 
L 148.452773 77.463271 
L 146.063509 84.769271 
L 143.674245 85.032473 
L 141.28498 88.702951 
L 138.895716 93.107525 
L 136.506452 92.37343 
L 134.117188 93.107525 
L 131.727924 95.309812 
L 129.33866 95.711633 
L 126.949396 92.915078 
L 124.560131 94.649895 
L 122.170867 89.082863 
L 119.781603 90.265686 
L 117.392339 93.942028 
L 115.003075 94.677296 
L 112.613811 95.412564 
L 110.224547 93.682521 
L 107.835283 92.632138 
L 105.446018 89.691064 
L 103.056754 89.691064 
L 100.66749 90.426333 
L 98.278226 92.632138 
L 95.888962 92.034173 
L 93.499698 86.140396 
L 91.110434 88.071116 
L 88.72117 88.807838 
L 86.331905 89.54456 
L 83.942641 93.1715 
L 81.553377 93.854836 
L 79.164113 96.262425 
L 76.774849 103.629647 
L 74.385585 99.536746 
L 71.996321 100.669695 
L 69.607057 98.527601 
L 67.217792 91.18945 
L 64.828528 96.326156 
L 62.439264 96.876517 
L 60.05 94.675072 
z
" clip-path="url(#ped9bb38e9f)" style="fill: #d57459"/>
   </g>
   <g id="PolyCollection_3">
    <path d="M 60.05 45.142369 
L 60.05 94.675072 
L 62.439264 96.876517 
L 64.828528 96.326156 
L 67.217792 91.18945 
L 69.607057 98.527601 
L 71.996321 100.669695 
L 74.385585 99.536746 
L 76.774849 103.629647 
L 79.164113 96.262425 
L 81.553377 93.854836 
L 83.942641 93.1715 
L 86.331905 89.54456 
L 88.72117 88.807838 
L 91.110434 88.071116 
L 93.499698 86.140396 
L 95.888962 92.034173 
L 98.278226 92.632138 
L 100.66749 90.426333 
L 103.056754 89.691064 
L 105.446018 89.691064 
L 107.835283 92.632138 
L 110.224547 93.682521 
L 112.613811 95.412564 
L 115.003075 94.677296 
L 117.392339 93.942028 
L 119.781603 90.265686 
L 122.170867 89.082863 
L 124.560131 94.649895 
L 126.949396 92.915078 
L 129.33866 95.711633 
L 131.727924 95.309812 
L 134.117188 93.107525 
L 136.506452 92.37343 
L 138.895716 93.107525 
L 141.28498 88.702951 
L 143.674245 85.032473 
L 146.063509 84.769271 
L 148.452773 77.463271 
L 150.842037 80.385671 
L 153.231301 81.961474 
L 155.620565 80.690866 
L 158.009829 80.530294 
L 160.399093 81.991494 
L 162.788358 82.51915 
L 165.177622 82.839789 
L 167.566886 77.725589 
L 169.95615 78.728374 
L 172.345414 81.650774 
L 174.734678 81.650774 
L 177.123942 81.650774 
L 179.513206 81.306962 
L 181.902471 74.000962 
L 184.291735 72.281903 
L 186.680999 73.743103 
L 189.070263 73.743103 
L 191.459527 76.990214 
L 193.848791 90.871614 
L 196.238055 86.696757 
L 198.627319 83.449646 
L 201.016584 79.309579 
L 203.405848 83.411193 
L 205.795112 85.780707 
L 208.184376 85.050107 
L 210.57364 86.976234 
L 212.962904 87.300945 
L 215.352168 88.959477 
L 217.741433 88.959477 
L 220.130697 90.425564 
L 222.519961 87.66946 
L 224.909225 85.21853 
L 227.298489 88.159646 
L 229.687753 86.058849 
L 232.077017 84.588291 
L 234.466281 88.83657 
L 236.855546 87.499699 
L 239.24481 88.970257 
L 241.634074 86.327097 
L 244.023338 83.38598 
L 246.412602 83.38598 
L 248.801866 86.143277 
L 251.19113 84.283453 
L 253.580394 85.508919 
L 255.969659 92.861709 
L 258.358923 91.391151 
L 260.748187 91.391151 
L 263.137451 89.593802 
L 265.526715 74.888221 
L 267.915979 74.047902 
L 270.305243 74.783181 
L 272.694507 74.122313 
L 275.083772 69.948731 
L 277.473036 69.033065 
L 279.8623 69.1149 
L 282.251564 67.775782 
L 284.640828 64.502385 
L 287.030092 63.284959 
L 289.419356 64.753054 
L 291.808621 63.284959 
L 294.197885 63.183198 
L 296.587149 63.183198 
L 298.976413 61.170694 
L 301.365677 64.097973 
L 303.754941 66.293432 
L 306.144205 62.529788 
L 308.533469 63.092726 
L 310.922734 60.897267 
L 313.311998 63.743233 
L 315.701262 63.743233 
L 318.090526 63.743233 
L 320.47979 63.194368 
L 322.869054 62.462548 
L 325.258318 62.013185 
L 327.647582 55.914688 
L 330.036847 59.573786 
L 332.426111 59.573786 
L 334.815375 58.110147 
L 337.204639 61.037425 
L 339.593903 59.782877 
L 341.983167 66.369255 
L 344.372431 68.743573 
L 346.761696 71.260084 
L 349.15096 71.990684 
L 351.540224 72.640106 
L 353.929488 71.311742 
L 356.318752 77.156542 
L 358.708016 76.791242 
L 361.09728 76.619336 
L 363.486544 81.490003 
L 365.875809 86.36067 
L 368.265073 86.790434 
L 370.654337 100.489184 
L 373.043601 98.335837 
L 375.432865 96.144037 
L 377.822129 95.030742 
L 380.211393 94.468742 
L 382.600657 104.210075 
L 384.989922 115.169075 
L 387.379186 116.497439 
L 389.76845 117.228039 
L 392.157714 116.497439 
L 394.546978 118.584867 
L 396.936242 118.939815 
L 399.325506 117.722148 
L 401.71477 114.799748 
L 404.104035 116.626248 
L 406.493299 116.626248 
L 408.882563 116.626248 
L 411.271827 118.249804 
L 413.661091 110.943804 
L 416.050355 110.595899 
L 418.439619 108.972343 
L 420.828884 114.086543 
L 423.218148 113.355943 
L 425.607412 113.355943 
L 427.996676 107.511143 
L 430.38594 114.817143 
L 432.775204 117.424383 
L 435.164468 114.155575 
L 437.553732 110.08991 
L 439.942997 109.659428 
L 442.332261 102.341231 
L 444.721525 111.32849 
L 447.110789 111.32849 
L 449.500053 115.231529 
L 451.889317 115.231529 
L 454.278581 108.401212 
L 456.667845 93.764818 
L 459.05711 94.385756 
L 461.446374 96.093335 
L 463.835638 98.811522 
L 466.224902 100.379707 
L 468.614166 99.253831 
L 471.00343 100.71747 
L 473.392694 102.912929 
L 475.781958 102.05914 
L 478.171223 103.685406 
L 480.560487 102.088708 
L 482.949751 101.926082 
L 485.339015 103.389721 
L 487.728279 104.226086 
L 490.117543 103.33164 
L 492.506807 96.745263 
L 494.896072 97.477083 
L 497.285336 97.477083 
L 499.6746 97.477083 
L 502.063864 90.158886 
L 504.453128 88.451306 
L 506.842392 86.892287 
L 509.231656 86.08051 
L 511.62092 88.737237 
L 514.010185 81.431237 
L 516.399449 73.151104 
L 518.788713 75.586437 
L 521.177977 70.71577 
L 523.567241 74.890627 
L 525.956505 73.429427 
L 528.345769 73.429427 
L 530.735033 71.481161 
L 533.124298 69.045827 
L 535.513562 64.87097 
L 537.902826 61.21797 
L 540.29209 61.21797 
L 542.681354 59.75677 
L 545.070618 64.14037 
L 547.459882 64.992737 
L 549.849146 63.369181 
L 552.238411 76.652818 
L 554.627675 75.191618 
L 557.016939 73.730418 
L 559.406203 72.269218 
L 561.795467 72.269218 
L 564.184731 72.269218 
L 566.573995 71.538618 
L 568.96326 72.582332 
L 571.352524 72.582332 
L 573.741788 73.312932 
L 576.131052 71.121132 
L 578.520316 78.427132 
L 580.90958 78.427132 
L 583.298844 77.962205 
L 585.688108 78.692805 
L 588.077373 91.843605 
L 590.466637 89.408271 
L 592.855901 90.138871 
L 595.245165 85.964014 
L 597.634429 89.373481 
L 600.023693 89.373481 
L 602.412957 89.373481 
L 604.802221 89.373481 
L 607.191486 103.985481 
L 609.58075 103.985481 
L 611.970014 103.985481 
L 614.359278 103.985481 
L 616.748542 96.679481 
L 619.137806 94.852981 
L 621.52707 109.464981 
L 623.916334 109.464981 
L 626.305599 116.770981 
L 628.694863 131.382981 
L 631.084127 144.533781 
L 633.473391 158.415181 
L 635.862655 157.684581 
L 638.251919 171.565981 
L 640.641183 185.134267 
L 643.030448 199.746267 
L 645.419712 206.321667 
L 647.808976 206.321667 
L 650.19824 199.015667 
L 652.587504 199.015667 
L 654.976768 196.823867 
L 657.366032 210.705267 
L 659.755296 196.093267 
L 662.144561 196.093267 
L 664.533825 195.362667 
L 666.923089 195.362667 
L 669.312353 196.754286 
L 669.312353 80.902 
L 669.312353 80.902 
L 666.923089 80.902 
L 664.533825 80.902 
L 662.144561 81.6326 
L 659.755296 81.6326 
L 657.366032 81.6326 
L 654.976768 67.0206 
L 652.587504 67.7512 
L 650.19824 67.7512 
L 647.808976 67.7512 
L 645.419712 67.7512 
L 643.030448 67.7512 
L 640.641183 53.1392 
L 638.251919 53.1392 
L 635.862655 53.1392 
L 633.473391 53.1392 
L 631.084127 45.8332 
L 628.694863 45.8332 
L 626.305599 45.8332 
L 623.916334 45.8332 
L 621.52707 50.703867 
L 619.137806 36.091867 
L 616.748542 37.918367 
L 614.359278 45.224367 
L 611.970014 45.224367 
L 609.58075 45.224367 
L 607.191486 45.224367 
L 604.802221 45.224367 
L 602.412957 45.224367 
L 600.023693 45.224367 
L 597.634429 45.224367 
L 595.245165 45.224367 
L 592.855901 45.224367 
L 590.466637 44.493767 
L 588.077373 46.9291 
L 585.688108 48.3903 
L 583.298844 48.3903 
L 580.90958 47.6597 
L 578.520316 47.6597 
L 576.131052 47.6597 
L 573.741788 49.8515 
L 571.352524 49.8515 
L 568.96326 49.8515 
L 566.573995 49.8515 
L 564.184731 51.3127 
L 561.795467 52.0433 
L 559.406203 52.7739 
L 557.016939 54.9657 
L 554.627675 56.4269 
L 552.238411 57.8881 
L 549.849146 54.345797 
L 547.459882 55.969353 
L 545.070618 55.116986 
L 542.681354 50.733386 
L 540.29209 52.194586 
L 537.902826 52.194586 
L 535.513562 54.386386 
L 533.124298 56.473814 
L 530.735033 56.473814 
L 528.345769 56.473814 
L 525.956505 56.473814 
L 523.567241 57.935014 
L 521.177977 57.935014 
L 518.788713 57.935014 
L 516.399449 55.499681 
L 514.010185 54.038481 
L 511.62092 57.691481 
L 509.231656 57.691481 
L 506.842392 57.691481 
L 504.453128 59.201751 
L 502.063864 57.006292 
L 499.6746 60.66539 
L 497.285336 60.66539 
L 494.896072 60.66539 
L 492.506807 59.93357 
L 490.117543 59.201751 
L 487.728279 58.469931 
L 485.339015 56.274472 
L 482.949751 54.810832 
L 480.560487 54.973459 
L 478.171223 53.642878 
L 475.781958 52.016612 
L 473.392694 52.870401 
L 471.00343 49.943123 
L 468.614166 48.479483 
L 466.224902 48.479483 
L 463.835638 46.284024 
L 461.446374 45.65675 
L 459.05711 45.65675 
L 456.667845 46.987331 
L 454.278581 61.623725 
L 451.889317 65.038884 
L 449.500053 65.038884 
L 447.110789 66.014644 
L 444.721525 66.014644 
L 442.332261 66.78498 
L 439.942997 77.762276 
L 437.553732 77.762276 
L 435.164468 82.641074 
L 432.775204 85.962405 
L 430.38594 86.39217 
L 427.996676 82.73917 
L 425.607412 85.66157 
L 423.218148 85.66157 
L 420.828884 85.66157 
L 418.439619 87.12277 
L 416.050355 88.746325 
L 413.661091 88.746325 
L 411.271827 88.746325 
L 408.882563 87.12277 
L 406.493299 90.04517 
L 404.104035 90.04517 
L 401.71477 88.21867 
L 399.325506 90.04517 
L 396.936242 90.04517 
L 394.546978 90.814222 
L 392.157714 90.814222 
L 389.76845 90.814222 
L 387.379186 90.814222 
L 384.989922 89.485859 
L 382.600657 78.526859 
L 380.211393 73.656192 
L 377.822129 73.656192 
L 375.432865 74.769487 
L 373.043601 76.230687 
L 370.654337 76.922835 
L 368.265073 62.310835 
L 365.875809 62.310835 
L 363.486544 57.440168 
L 361.09728 52.569501 
L 358.708016 53.600937 
L 356.318752 53.600937 
L 353.929488 50.678537 
L 351.540224 50.678537 
L 349.15096 49.947937 
L 346.761696 48.486737 
L 344.372431 47.593781 
L 341.983167 47.623554 
L 339.593903 48.355373 
L 337.204639 48.773556 
L 334.815375 45.846277 
L 332.426111 45.846277 
L 330.036847 45.846277 
L 327.647582 44.016728 
L 325.258318 51.334925 
L 322.869054 50.564589 
L 320.47979 50.564589 
L 318.090526 49.100949 
L 315.701262 49.100949 
L 313.311998 49.100949 
L 310.922734 45.441851 
L 308.533469 46.17367 
L 306.144205 46.17367 
L 303.754941 49.937315 
L 301.365677 48.473675 
L 298.976413 47.010036 
L 296.587149 49.205495 
L 294.197885 49.205495 
L 291.808621 49.264699 
L 289.419356 49.264699 
L 287.030092 47.796603 
L 284.640828 47.857212 
L 282.251564 47.857212 
L 279.8623 50.535446 
L 277.473036 51.271961 
L 275.083772 52.864424 
L 272.694507 57.038006 
L 270.305243 57.727531 
L 267.915979 56.992251 
L 265.526715 58.672889 
L 263.137451 58.672889 
L 260.748187 60.306843 
L 258.358923 60.306843 
L 255.969659 60.306843 
L 253.580394 52.954052 
L 251.19113 52.954052 
L 248.801866 54.684121 
L 246.412602 54.684121 
L 244.023338 54.684121 
L 241.634074 57.625237 
L 239.24481 61.085373 
L 236.855546 61.085373 
L 234.466281 61.085373 
L 232.077017 56.837095 
L 229.687753 58.307653 
L 227.298489 58.307653 
L 224.909225 56.101816 
L 222.519961 56.101816 
L 220.130697 56.021725 
L 217.741433 56.021725 
L 215.352168 56.021725 
L 212.962904 55.934186 
L 210.57364 55.934186 
L 208.184376 54.008058 
L 205.795112 54.008058 
L 203.405848 52.428383 
L 201.016584 47.557716 
L 198.627319 46.827116 
L 196.238055 50.074227 
L 193.848791 50.074227 
L 191.459527 50.074227 
L 189.070263 48.450672 
L 186.680999 48.450672 
L 184.291735 48.450672 
L 181.902471 48.450672 
L 179.513206 48.450672 
L 177.123942 48.192813 
L 174.734678 48.192813 
L 172.345414 48.192813 
L 169.95615 45.270413 
L 167.566886 41.832295 
L 165.177622 46.946495 
L 162.788358 47.954219 
L 160.399093 47.426564 
L 158.009829 45.965364 
L 155.620565 45.965364 
L 153.231301 46.600668 
L 150.842037 46.600668 
L 148.452773 46.600668 
L 146.063509 48.427168 
L 143.674245 48.516485 
L 141.28498 52.186963 
L 138.895716 59.52792 
L 136.506452 58.793824 
L 134.117188 58.793824 
L 131.727924 59.52792 
L 129.33866 59.52792 
L 126.949396 60.576628 
L 124.560131 57.357997 
L 122.170867 55.25723 
L 119.781603 55.25723 
L 117.392339 56.176315 
L 115.003075 56.176315 
L 112.613811 56.54395 
L 110.224547 56.54395 
L 107.835283 58.644716 
L 105.446018 57.17418 
L 103.056754 57.17418 
L 100.66749 57.17418 
L 98.278226 57.17418 
L 95.888962 58.095115 
L 93.499698 52.201338 
L 91.110434 52.658614 
L 88.72117 52.658614 
L 86.331905 53.395336 
L 83.942641 59.289113 
L 81.553377 58.648485 
L 79.164113 58.648485 
L 76.774849 58.648485 
L 74.385585 56.80668 
L 71.996321 56.677428 
L 69.607057 53.030882 
L 67.217792 45.69273 
L 64.828528 45.69273 
L 62.439264 45.876184 
L 60.05 45.142369 
z
" clip-path="url(#ped9bb38e9f)" style="fill: #e8bc60"/>
   </g>
   <g id="PolyCollection_4">
    <path d="M 60.05 29.76 
L 60.05 45.142369 
L 62.439264 45.876184 
L 64.828528 45.69273 
L 67.217792 45.69273 
L 69.607057 53.030882 
L 71.996321 56.677428 
L 74.385585 56.80668 
L 76.774849 58.648485 
L 79.164113 58.648485 
L 81.553377 58.648485 
L 83.942641 59.289113 
L 86.331905 53.395336 
L 88.72117 52.658614 
L 91.110434 52.658614 
L 93.499698 52.201338 
L 95.888962 58.095115 
L 98.278226 57.17418 
L 100.66749 57.17418 
L 103.056754 57.17418 
L 105.446018 57.17418 
L 107.835283 58.644716 
L 110.224547 56.54395 
L 112.613811 56.54395 
L 115.003075 56.176315 
L 117.392339 56.176315 
L 119.781603 55.25723 
L 122.170867 55.25723 
L 124.560131 57.357997 
L 126.949396 60.576628 
L 129.33866 59.52792 
L 131.727924 59.52792 
L 134.117188 58.793824 
L 136.506452 58.793824 
L 138.895716 59.52792 
L 141.28498 52.186963 
L 143.674245 48.516485 
L 146.063509 48.427168 
L 148.452773 46.600668 
L 150.842037 46.600668 
L 153.231301 46.600668 
L 155.620565 45.965364 
L 158.009829 45.965364 
L 160.399093 47.426564 
L 162.788358 47.954219 
L 165.177622 46.946495 
L 167.566886 41.832295 
L 169.95615 45.270413 
L 172.345414 48.192813 
L 174.734678 48.192813 
L 177.123942 48.192813 
L 179.513206 48.450672 
L 181.902471 48.450672 
L 184.291735 48.450672 
L 186.680999 48.450672 
L 189.070263 48.450672 
L 191.459527 50.074227 
L 193.848791 50.074227 
L 196.238055 50.074227 
L 198.627319 46.827116 
L 201.016584 47.557716 
L 203.405848 52.428383 
L 205.795112 54.008058 
L 208.184376 54.008058 
L 210.57364 55.934186 
L 212.962904 55.934186 
L 215.352168 56.021725 
L 217.741433 56.021725 
L 220.130697 56.021725 
L 222.519961 56.101816 
L 224.909225 56.101816 
L 227.298489 58.307653 
L 229.687753 58.307653 
L 232.077017 56.837095 
L 234.466281 61.085373 
L 236.855546 61.085373 
L 239.24481 61.085373 
L 241.634074 57.625237 
L 244.023338 54.684121 
L 246.412602 54.684121 
L 248.801866 54.684121 
L 251.19113 52.954052 
L 253.580394 52.954052 
L 255.969659 60.306843 
L 258.358923 60.306843 
L 260.748187 60.306843 
L 263.137451 58.672889 
L 265.526715 58.672889 
L 267.915979 56.992251 
L 270.305243 57.727531 
L 272.694507 57.038006 
L 275.083772 52.864424 
L 277.473036 51.271961 
L 279.8623 50.535446 
L 282.251564 47.857212 
L 284.640828 47.857212 
L 287.030092 47.796603 
L 289.419356 49.264699 
L 291.808621 49.264699 
L 294.197885 49.205495 
L 296.587149 49.205495 
L 298.976413 47.010036 
L 301.365677 48.473675 
L 303.754941 49.937315 
L 306.144205 46.17367 
L 308.533469 46.17367 
L 310.922734 45.441851 
L 313.311998 49.100949 
L 315.701262 49.100949 
L 318.090526 49.100949 
L 320.47979 50.564589 
L 322.869054 50.564589 
L 325.258318 51.334925 
L 327.647582 44.016728 
L 330.036847 45.846277 
L 332.426111 45.846277 
L 334.815375 45.846277 
L 337.204639 48.773556 
L 339.593903 48.355373 
L 341.983167 47.623554 
L 344.372431 47.593781 
L 346.761696 48.486737 
L 349.15096 49.947937 
L 351.540224 50.678537 
L 353.929488 50.678537 
L 356.318752 53.600937 
L 358.708016 53.600937 
L 361.09728 52.569501 
L 363.486544 57.440168 
L 365.875809 62.310835 
L 368.265073 62.310835 
L 370.654337 76.922835 
L 373.043601 76.230687 
L 375.432865 74.769487 
L 377.822129 73.656192 
L 380.211393 73.656192 
L 382.600657 78.526859 
L 384.989922 89.485859 
L 387.379186 90.814222 
L 389.76845 90.814222 
L 392.157714 90.814222 
L 394.546978 90.814222 
L 396.936242 90.04517 
L 399.325506 90.04517 
L 401.71477 88.21867 
L 404.104035 90.04517 
L 406.493299 90.04517 
L 408.882563 87.12277 
L 411.271827 88.746325 
L 413.661091 88.746325 
L 416.050355 88.746325 
L 418.439619 87.12277 
L 420.828884 85.66157 
L 423.218148 85.66157 
L 425.607412 85.66157 
L 427.996676 82.73917 
L 430.38594 86.39217 
L 432.775204 85.962405 
L 435.164468 82.641074 
L 437.553732 77.762276 
L 439.942997 77.762276 
L 442.332261 66.78498 
L 444.721525 66.014644 
L 447.110789 66.014644 
L 449.500053 65.038884 
L 451.889317 65.038884 
L 454.278581 61.623725 
L 456.667845 46.987331 
L 459.05711 45.65675 
L 461.446374 45.65675 
L 463.835638 46.284024 
L 466.224902 48.479483 
L 468.614166 48.479483 
L 471.00343 49.943123 
L 473.392694 52.870401 
L 475.781958 52.016612 
L 478.171223 53.642878 
L 480.560487 54.973459 
L 482.949751 54.810832 
L 485.339015 56.274472 
L 487.728279 58.469931 
L 490.117543 59.201751 
L 492.506807 59.93357 
L 494.896072 60.66539 
L 497.285336 60.66539 
L 499.6746 60.66539 
L 502.063864 57.006292 
L 504.453128 59.201751 
L 506.842392 57.691481 
L 509.231656 57.691481 
L 511.62092 57.691481 
L 514.010185 54.038481 
L 516.399449 55.499681 
L 518.788713 57.935014 
L 521.177977 57.935014 
L 523.567241 57.935014 
L 525.956505 56.473814 
L 528.345769 56.473814 
L 530.735033 56.473814 
L 533.124298 56.473814 
L 535.513562 54.386386 
L 537.902826 52.194586 
L 540.29209 52.194586 
L 542.681354 50.733386 
L 545.070618 55.116986 
L 547.459882 55.969353 
L 549.849146 54.345797 
L 552.238411 57.8881 
L 554.627675 56.4269 
L 557.016939 54.9657 
L 559.406203 52.7739 
L 561.795467 52.0433 
L 564.184731 51.3127 
L 566.573995 49.8515 
L 568.96326 49.8515 
L 571.352524 49.8515 
L 573.741788 49.8515 
L 576.131052 47.6597 
L 578.520316 47.6597 
L 580.90958 47.6597 
L 583.298844 48.3903 
L 585.688108 48.3903 
L 588.077373 46.9291 
L 590.466637 44.493767 
L 592.855901 45.224367 
L 595.245165 45.224367 
L 597.634429 45.224367 
L 600.023693 45.224367 
L 602.412957 45.224367 
L 604.802221 45.224367 
L 607.191486 45.224367 
L 609.58075 45.224367 
L 611.970014 45.224367 
L 614.359278 45.224367 
L 616.748542 37.918367 
L 619.137806 36.091867 
L 621.52707 50.703867 
L 623.916334 45.8332 
L 626.305599 45.8332 
L 628.694863 45.8332 
L 631.084127 45.8332 
L 633.473391 53.1392 
L 635.862655 53.1392 
L 638.251919 53.1392 
L 640.641183 53.1392 
L 643.030448 67.7512 
L 645.419712 67.7512 
L 647.808976 67.7512 
L 650.19824 67.7512 
L 652.587504 67.7512 
L 654.976768 67.0206 
L 657.366032 81.6326 
L 659.755296 81.6326 
L 662.144561 81.6326 
L 664.533825 80.902 
L 666.923089 80.902 
L 669.312353 80.902 
L 669.312353 29.76 
L 669.312353 29.76 
L 666.923089 29.76 
L 664.533825 29.76 
L 662.144561 29.76 
L 659.755296 29.76 
L 657.366032 29.76 
L 654.976768 29.76 
L 652.587504 29.76 
L 650.19824 29.76 
L 647.808976 29.76 
L 645.419712 29.76 
L 643.030448 29.76 
L 640.641183 29.76 
L 638.251919 29.76 
L 635.862655 29.76 
L 633.473391 29.76 
L 631.084127 29.76 
L 628.694863 29.76 
L 626.305599 29.76 
L 623.916334 29.76 
L 621.52707 29.76 
L 619.137806 29.76 
L 616.748542 29.76 
L 614.359278 29.76 
L 611.970014 29.76 
L 609.58075 29.76 
L 607.191486 29.76 
L 604.802221 29.76 
L 602.412957 29.76 
L 600.023693 29.76 
L 597.634429 29.76 
L 595.245165 29.76 
L 592.855901 29.76 
L 590.466637 29.76 
L 588.077373 29.76 
L 585.688108 29.76 
L 583.298844 29.76 
L 580.90958 29.76 
L 578.520316 29.76 
L 576.131052 29.76 
L 573.741788 29.76 
L 571.352524 29.76 
L 568.96326 29.76 
L 566.573995 29.76 
L 564.184731 29.76 
L 561.795467 29.76 
L 559.406203 29.76 
L 557.016939 29.76 
L 554.627675 29.76 
L 552.238411 29.76 
L 549.849146 29.76 
L 547.459882 29.76 
L 545.070618 29.76 
L 542.681354 29.76 
L 540.29209 29.76 
L 537.902826 29.76 
L 535.513562 29.76 
L 533.124298 29.76 
L 530.735033 29.76 
L 528.345769 29.76 
L 525.956505 29.76 
L 523.567241 29.76 
L 521.177977 29.76 
L 518.788713 29.76 
L 516.399449 29.76 
L 514.010185 29.76 
L 511.62092 29.76 
L 509.231656 29.76 
L 506.842392 29.76 
L 504.453128 29.76 
L 502.063864 29.76 
L 499.6746 29.76 
L 497.285336 29.76 
L 494.896072 29.76 
L 492.506807 29.76 
L 490.117543 29.76 
L 487.728279 29.76 
L 485.339015 29.76 
L 482.949751 29.76 
L 480.560487 29.76 
L 478.171223 29.76 
L 475.781958 29.76 
L 473.392694 29.76 
L 471.00343 29.76 
L 468.614166 29.76 
L 466.224902 29.76 
L 463.835638 29.76 
L 461.446374 29.76 
L 459.05711 29.76 
L 456.667845 29.76 
L 454.278581 29.76 
L 451.889317 29.76 
L 449.500053 29.76 
L 447.110789 29.76 
L 444.721525 29.76 
L 442.332261 29.76 
L 439.942997 29.76 
L 437.553732 29.76 
L 435.164468 29.76 
L 432.775204 29.76 
L 430.38594 29.76 
L 427.996676 29.76 
L 425.607412 29.76 
L 423.218148 29.76 
L 420.828884 29.76 
L 418.439619 29.76 
L 416.050355 29.76 
L 413.661091 29.76 
L 411.271827 29.76 
L 408.882563 29.76 
L 406.493299 29.76 
L 404.104035 29.76 
L 401.71477 29.76 
L 399.325506 29.76 
L 396.936242 29.76 
L 394.546978 29.76 
L 392.157714 29.76 
L 389.76845 29.76 
L 387.379186 29.76 
L 384.989922 29.76 
L 382.600657 29.76 
L 380.211393 29.76 
L 377.822129 29.76 
L 375.432865 29.76 
L 373.043601 29.76 
L 370.654337 29.76 
L 368.265073 29.76 
L 365.875809 29.76 
L 363.486544 29.76 
L 361.09728 29.76 
L 358.708016 29.76 
L 356.318752 29.76 
L 353.929488 29.76 
L 351.540224 29.76 
L 349.15096 29.76 
L 346.761696 29.76 
L 344.372431 29.76 
L 341.983167 29.76 
L 339.593903 29.76 
L 337.204639 29.76 
L 334.815375 29.76 
L 332.426111 29.76 
L 330.036847 29.76 
L 327.647582 29.76 
L 325.258318 29.76 
L 322.869054 29.76 
L 320.47979 29.76 
L 318.090526 29.76 
L 315.701262 29.76 
L 313.311998 29.76 
L 310.922734 29.76 
L 308.533469 29.76 
L 306.144205 29.76 
L 303.754941 29.76 
L 301.365677 29.76 
L 298.976413 29.76 
L 296.587149 29.76 
L 294.197885 29.76 
L 291.808621 29.76 
L 289.419356 29.76 
L 287.030092 29.76 
L 284.640828 29.76 
L 282.251564 29.76 
L 279.8623 29.76 
L 277.473036 29.76 
L 275.083772 29.76 
L 272.694507 29.76 
L 270.305243 29.76 
L 267.915979 29.76 
L 265.526715 29.76 
L 263.137451 29.76 
L 260.748187 29.76 
L 258.358923 29.76 
L 255.969659 29.76 
L 253.580394 29.76 
L 251.19113 29.76 
L 248.801866 29.76 
L 246.412602 29.76 
L 244.023338 29.76 
L 241.634074 29.76 
L 239.24481 29.76 
L 236.855546 29.76 
L 234.466281 29.76 
L 232.077017 29.76 
L 229.687753 29.76 
L 227.298489 29.76 
L 224.909225 29.76 
L 222.519961 29.76 
L 220.130697 29.76 
L 217.741433 29.76 
L 215.352168 29.76 
L 212.962904 29.76 
L 210.57364 29.76 
L 208.184376 29.76 
L 205.795112 29.76 
L 203.405848 29.76 
L 201.016584 29.76 
L 198.627319 29.76 
L 196.238055 29.76 
L 193.848791 29.76 
L 191.459527 29.76 
L 189.070263 29.76 
L 186.680999 29.76 
L 184.291735 29.76 
L 181.902471 29.76 
L 179.513206 29.76 
L 177.123942 29.76 
L 174.734678 29.76 
L 172.345414 29.76 
L 169.95615 29.76 
L 167.566886 29.76 
L 165.177622 29.76 
L 162.788358 29.76 
L 160.399093 29.76 
L 158.009829 29.76 
L 155.620565 29.76 
L 153.231301 29.76 
L 150.842037 29.76 
L 148.452773 29.76 
L 146.063509 29.76 
L 143.674245 29.76 
L 141.28498 29.76 
L 138.895716 29.76 
L 136.506452 29.76 
L 134.117188 29.76 
L 131.727924 29.76 
L 129.33866 29.76 
L 126.949396 29.76 
L 124.560131 29.76 
L 122.170867 29.76 
L 119.781603 29.76 
L 117.392339 29.76 
L 115.003075 29.76 
L 112.613811 29.76 
L 110.224547 29.76 
L 107.835283 29.76 
L 105.446018 29.76 
L 103.056754 29.76 
L 100.66749 29.76 
L 98.278226 29.76 
L 95.888962 29.76 
L 93.499698 29.76 
L 91.110434 29.76 
L 88.72117 29.76 
L 86.331905 29.76 
L 83.942641 29.76 
L 81.553377 29.76 
L 79.164113 29.76 
L 76.774849 29.76 
L 74.385585 29.76 
L 71.996321 29.76 
L 69.607057 29.76 
L 67.217792 29.76 
L 64.828528 29.76 
L 62.439264 29.76 
L 60.05 29.76 
z
" clip-path="url(#ped9bb38e9f)" style="fill: #8d5993"/>
   </g>
   <g id="matplotlib.axis_1">
    <g id="xtick_1">
     <g id="line2d_1">
      <defs>
       <path id="md61fbd2ad1" d="M 0 0 
L 0 3.5 
" style="stroke: #000000; stroke-width: 0.8"/>
      </defs>
      <g>
       <use xlink:href="#md61fbd2ad1" x="177.123942" y="468.12" style="stroke: #000000; stroke-width: 0.8"/>
      </g>
     </g>
     <g id="text_1">
      <!-- 50 -->
      <g transform="translate(170.761442 482.718438) scale(0.1 -0.1)">
       <defs>
        <path id="DejaVuSans-35" d="M 691 4666 
L 3169 4666 
L 3169 4134 
L 1269 4134 
L 1269 2991 
Q 1406 3038 1543 3061 
Q 1681 3084 1819 3084 
Q 2600 3084 3056 2656 
Q 3513 2228 3513 1497 
Q 3513 744 3044 326 
Q 2575 -91 1722 -91 
Q 1428 -91 1123 -41 
Q 819 9 494 109 
L 494 744 
Q 775 591 1075 516 
Q 1375 441 1709 441 
Q 2250 441 2565 725 
Q 2881 1009 2881 1497 
Q 2881 1984 2565 2268 
Q 2250 2553 1709 2553 
Q 1456 2553 1204 2497 
Q 953 2441 691 2322 
L 691 4666 
z
" transform="scale(0.015625)"/>
        <path id="DejaVuSans-30" d="M 2034 4250 
Q 1547 4250 1301 3770 
Q 1056 3291 1056 2328 
Q 1056 1369 1301 889 
Q 1547 409 2034 409 
Q 2525 409 2770 889 
Q 3016 1369 3016 2328 
Q 3016 3291 2770 3770 
Q 2525 4250 2034 4250 
z
M 2034 4750 
Q 2819 4750 3233 4129 
Q 3647 3509 3647 2328 
Q 3647 1150 3233 529 
Q 2819 -91 2034 -91 
Q 1250 -91 836 529 
Q 422 1150 422 2328 
Q 422 3509 836 4129 
Q 1250 4750 2034 4750 
z
" transform="scale(0.015625)"/>
       </defs>
       <use xlink:href="#DejaVuSans-35"/>
       <use xlink:href="#DejaVuSans-30" x="63.623047"/>
      </g>
     </g>
    </g>
    <g id="xtick_2">
     <g id="line2d_2">
      <g>
       <use xlink:href="#md61fbd2ad1" x="296.587149" y="468.12" style="stroke: #000000; stroke-width: 0.8"/>
      </g>
     </g>
     <g id="text_2">
      <!-- 100 -->
      <g transform="translate(287.043399 482.718438) scale(0.1 -0.1)">
       <defs>
        <path id="DejaVuSans-31" d="M 794 531 
L 1825 531 
L 1825 4091 
L 703 3866 
L 703 4441 
L 1819 4666 
L 2450 4666 
L 2450 531 
L 3481 531 
L 3481 0 
L 794 0 
L 794 531 
z
" transform="scale(0.015625)"/>
       </defs>
       <use xlink:href="#DejaVuSans-31"/>
       <use xlink:href="#DejaVuSans-30" x="63.623047"/>
       <use xlink:href="#DejaVuSans-30" x="127.246094"/>
      </g>
     </g>
    </g>
    <g id="xtick_3">
     <g id="line2d_3">
      <g>
       <use xlink:href="#md61fbd2ad1" x="416.050355" y="468.12" style="stroke: #000000; stroke-width: 0.8"/>
      </g>
     </g>
     <g id="text_3">
      <!-- 150 -->
      <g transform="translate(406.506605 482.718438) scale(0.1 -0.1)">
       <use xlink:href="#DejaVuSans-31"/>
       <use xlink:href="#DejaVuSans-35" x="63.623047"/>
       <use xlink:href="#DejaVuSans-30" x="127.246094"/>
      </g>
     </g>
    </g>
    <g id="xtick_4">
     <g id="line2d_4">
      <g>
       <use xlink:href="#md61fbd2ad1" x="535.513562" y="468.12" style="stroke: #000000; stroke-width: 0.8"/>
      </g>
     </g>
     <g id="text_4">
      <!-- 200 -->
      <g transform="translate(525.969812 482.718438) scale(0.1 -0.1)">
       <defs>
        <path id="DejaVuSans-32" d="M 1228 531 
L 3431 531 
L 3431 0 
L 469 0 
L 469 531 
Q 828 903 1448 1529 
Q 2069 2156 2228 2338 
Q 2531 2678 2651 2914 
Q 2772 3150 2772 3378 
Q 2772 3750 2511 3984 
Q 2250 4219 1831 4219 
Q 1534 4219 1204 4116 
Q 875 4013 500 3803 
L 500 4441 
Q 881 4594 1212 4672 
Q 1544 4750 1819 4750 
Q 2544 4750 2975 4387 
Q 3406 4025 3406 3419 
Q 3406 3131 3298 2873 
Q 3191 2616 2906 2266 
Q 2828 2175 2409 1742 
Q 1991 1309 1228 531 
z
" transform="scale(0.015625)"/>
       </defs>
       <use xlink:href="#DejaVuSans-32"/>
       <use xlink:href="#DejaVuSans-30" x="63.623047"/>
       <use xlink:href="#DejaVuSans-30" x="127.246094"/>
      </g>
     </g>
    </g>
    <g id="xtick_5">
     <g id="line2d_5">
      <g>
       <use xlink:href="#md61fbd2ad1" x="654.976768" y="468.12" style="stroke: #000000; stroke-width: 0.8"/>
      </g>
     </g>
     <g id="text_5">
      <!-- 250 -->
      <g transform="translate(645.433018 482.718438) scale(0.1 -0.1)">
       <use xlink:href="#DejaVuSans-32"/>
       <use xlink:href="#DejaVuSans-35" x="63.623047"/>
       <use xlink:href="#DejaVuSans-30" x="127.246094"/>
      </g>
     </g>
    </g>
    <g id="text_6">
     <!-- Session Count -->
     <g transform="translate(324.42352 498.519375) scale(0.14 -0.14)">
      <defs>
       <path id="TimesNewRomanPSMT-53" d="M 2934 4334 
L 2934 2869 
L 2819 2869 
Q 2763 3291 2617 3541 
Q 2472 3791 2203 3937 
Q 1934 4084 1647 4084 
Q 1322 4084 1109 3886 
Q 897 3688 897 3434 
Q 897 3241 1031 3081 
Q 1225 2847 1953 2456 
Q 2547 2138 2764 1967 
Q 2981 1797 3098 1565 
Q 3216 1334 3216 1081 
Q 3216 600 2842 251 
Q 2469 -97 1881 -97 
Q 1697 -97 1534 -69 
Q 1438 -53 1133 45 
Q 828 144 747 144 
Q 669 144 623 97 
Q 578 50 556 -97 
L 441 -97 
L 441 1356 
L 556 1356 
Q 638 900 775 673 
Q 913 447 1195 297 
Q 1478 147 1816 147 
Q 2206 147 2432 353 
Q 2659 559 2659 841 
Q 2659 997 2573 1156 
Q 2488 1316 2306 1453 
Q 2184 1547 1640 1851 
Q 1097 2156 867 2337 
Q 638 2519 519 2737 
Q 400 2956 400 3219 
Q 400 3675 750 4004 
Q 1100 4334 1641 4334 
Q 1978 4334 2356 4169 
Q 2531 4091 2603 4091 
Q 2684 4091 2736 4139 
Q 2788 4188 2819 4334 
L 2934 4334 
z
" transform="scale(0.015625)"/>
       <path id="TimesNewRomanPSMT-65" d="M 681 1784 
Q 678 1147 991 784 
Q 1303 422 1725 422 
Q 2006 422 2214 576 
Q 2422 731 2563 1106 
L 2659 1044 
Q 2594 616 2278 264 
Q 1963 -88 1488 -88 
Q 972 -88 605 314 
Q 238 716 238 1394 
Q 238 2128 614 2539 
Q 991 2950 1559 2950 
Q 2041 2950 2350 2633 
Q 2659 2316 2659 1784 
L 681 1784 
z
M 681 1966 
L 2006 1966 
Q 1991 2241 1941 2353 
Q 1863 2528 1708 2628 
Q 1553 2728 1384 2728 
Q 1125 2728 920 2526 
Q 716 2325 681 1966 
z
" transform="scale(0.015625)"/>
       <path id="TimesNewRomanPSMT-73" d="M 2050 2947 
L 2050 1972 
L 1947 1972 
Q 1828 2431 1642 2597 
Q 1456 2763 1169 2763 
Q 950 2763 815 2647 
Q 681 2531 681 2391 
Q 681 2216 781 2091 
Q 878 1963 1175 1819 
L 1631 1597 
Q 2266 1288 2266 781 
Q 2266 391 1970 151 
Q 1675 -88 1309 -88 
Q 1047 -88 709 6 
Q 606 38 541 38 
Q 469 38 428 -44 
L 325 -44 
L 325 978 
L 428 978 
Q 516 541 762 319 
Q 1009 97 1316 97 
Q 1531 97 1667 223 
Q 1803 350 1803 528 
Q 1803 744 1651 891 
Q 1500 1038 1047 1263 
Q 594 1488 453 1669 
Q 313 1847 313 2119 
Q 313 2472 555 2709 
Q 797 2947 1181 2947 
Q 1350 2947 1591 2875 
Q 1750 2828 1803 2828 
Q 1853 2828 1881 2850 
Q 1909 2872 1947 2947 
L 2050 2947 
z
" transform="scale(0.015625)"/>
       <path id="TimesNewRomanPSMT-69" d="M 928 4444 
Q 1059 4444 1151 4351 
Q 1244 4259 1244 4128 
Q 1244 3997 1151 3903 
Q 1059 3809 928 3809 
Q 797 3809 703 3903 
Q 609 3997 609 4128 
Q 609 4259 701 4351 
Q 794 4444 928 4444 
z
M 1188 2947 
L 1188 647 
Q 1188 378 1227 289 
Q 1266 200 1342 156 
Q 1419 113 1622 113 
L 1622 0 
L 231 0 
L 231 113 
Q 441 113 512 153 
Q 584 194 626 287 
Q 669 381 669 647 
L 669 1750 
Q 669 2216 641 2353 
Q 619 2453 572 2492 
Q 525 2531 444 2531 
Q 356 2531 231 2484 
L 188 2597 
L 1050 2947 
L 1188 2947 
z
" transform="scale(0.015625)"/>
       <path id="TimesNewRomanPSMT-6f" d="M 1600 2947 
Q 2250 2947 2644 2453 
Q 2978 2031 2978 1484 
Q 2978 1100 2793 706 
Q 2609 313 2286 112 
Q 1963 -88 1566 -88 
Q 919 -88 538 428 
Q 216 863 216 1403 
Q 216 1797 411 2186 
Q 606 2575 925 2761 
Q 1244 2947 1600 2947 
z
M 1503 2744 
Q 1338 2744 1170 2645 
Q 1003 2547 900 2300 
Q 797 2053 797 1666 
Q 797 1041 1045 587 
Q 1294 134 1700 134 
Q 2003 134 2200 384 
Q 2397 634 2397 1244 
Q 2397 2006 2069 2444 
Q 1847 2744 1503 2744 
z
" transform="scale(0.015625)"/>
       <path id="TimesNewRomanPSMT-6e" d="M 1034 2341 
Q 1538 2947 1994 2947 
Q 2228 2947 2397 2830 
Q 2566 2713 2666 2444 
Q 2734 2256 2734 1869 
L 2734 647 
Q 2734 375 2778 278 
Q 2813 200 2889 156 
Q 2966 113 3172 113 
L 3172 0 
L 1756 0 
L 1756 113 
L 1816 113 
Q 2016 113 2095 173 
Q 2175 234 2206 353 
Q 2219 400 2219 647 
L 2219 1819 
Q 2219 2209 2117 2386 
Q 2016 2563 1775 2563 
Q 1403 2563 1034 2156 
L 1034 647 
Q 1034 356 1069 288 
Q 1113 197 1189 155 
Q 1266 113 1500 113 
L 1500 0 
L 84 0 
L 84 113 
L 147 113 
Q 366 113 442 223 
Q 519 334 519 647 
L 519 1709 
Q 519 2225 495 2337 
Q 472 2450 423 2490 
Q 375 2531 294 2531 
Q 206 2531 84 2484 
L 38 2597 
L 900 2947 
L 1034 2947 
L 1034 2341 
z
" transform="scale(0.015625)"/>
       <path id="TimesNewRomanPSMT-20" transform="scale(0.015625)"/>
       <path id="TimesNewRomanPSMT-43" d="M 3853 4334 
L 3950 2894 
L 3853 2894 
Q 3659 3541 3300 3825 
Q 2941 4109 2438 4109 
Q 2016 4109 1675 3895 
Q 1334 3681 1139 3212 
Q 944 2744 944 2047 
Q 944 1472 1128 1050 
Q 1313 628 1683 403 
Q 2053 178 2528 178 
Q 2941 178 3256 354 
Q 3572 531 3950 1056 
L 4047 994 
Q 3728 428 3303 165 
Q 2878 -97 2294 -97 
Q 1241 -97 663 684 
Q 231 1266 231 2053 
Q 231 2688 515 3219 
Q 800 3750 1298 4042 
Q 1797 4334 2388 4334 
Q 2847 4334 3294 4109 
Q 3425 4041 3481 4041 
Q 3566 4041 3628 4100 
Q 3709 4184 3744 4334 
L 3853 4334 
z
" transform="scale(0.015625)"/>
       <path id="TimesNewRomanPSMT-75" d="M 2709 2863 
L 2709 1128 
Q 2709 631 2732 520 
Q 2756 409 2807 365 
Q 2859 322 2928 322 
Q 3025 322 3147 375 
L 3191 266 
L 2334 -88 
L 2194 -88 
L 2194 519 
Q 1825 119 1631 15 
Q 1438 -88 1222 -88 
Q 981 -88 804 51 
Q 628 191 559 409 
Q 491 628 491 1028 
L 491 2306 
Q 491 2509 447 2587 
Q 403 2666 317 2708 
Q 231 2750 6 2747 
L 6 2863 
L 1009 2863 
L 1009 947 
Q 1009 547 1148 422 
Q 1288 297 1484 297 
Q 1619 297 1789 381 
Q 1959 466 2194 703 
L 2194 2325 
Q 2194 2569 2105 2655 
Q 2016 2741 1734 2747 
L 1734 2863 
L 2709 2863 
z
" transform="scale(0.015625)"/>
       <path id="TimesNewRomanPSMT-74" d="M 1031 3803 
L 1031 2863 
L 1700 2863 
L 1700 2644 
L 1031 2644 
L 1031 788 
Q 1031 509 1111 412 
Q 1191 316 1316 316 
Q 1419 316 1516 380 
Q 1613 444 1666 569 
L 1788 569 
Q 1678 263 1478 108 
Q 1278 -47 1066 -47 
Q 922 -47 784 33 
Q 647 113 581 261 
Q 516 409 516 719 
L 516 2644 
L 63 2644 
L 63 2747 
Q 234 2816 414 2980 
Q 594 3144 734 3369 
Q 806 3488 934 3803 
L 1031 3803 
z
" transform="scale(0.015625)"/>
      </defs>
      <use xlink:href="#TimesNewRomanPSMT-53"/>
      <use xlink:href="#TimesNewRomanPSMT-65" x="55.615234"/>
      <use xlink:href="#TimesNewRomanPSMT-73" x="100"/>
      <use xlink:href="#TimesNewRomanPSMT-73" x="138.916016"/>
      <use xlink:href="#TimesNewRomanPSMT-69" x="177.832031"/>
      <use xlink:href="#TimesNewRomanPSMT-6f" x="205.615234"/>
      <use xlink:href="#TimesNewRomanPSMT-6e" x="255.615234"/>
      <use xlink:href="#TimesNewRomanPSMT-20" x="305.615234"/>
      <use xlink:href="#TimesNewRomanPSMT-43" x="330.615234"/>
      <use xlink:href="#TimesNewRomanPSMT-6f" x="397.314453"/>
      <use xlink:href="#TimesNewRomanPSMT-75" x="447.314453"/>
      <use xlink:href="#TimesNewRomanPSMT-6e" x="497.314453"/>
      <use xlink:href="#TimesNewRomanPSMT-74" x="547.314453"/>
     </g>
    </g>
   </g>
   <g id="matplotlib.axis_2">
    <g id="ytick_1">
     <g id="line2d_6">
      <defs>
       <path id="mdbf0345bca" d="M 0 0 
L -3.5 0 
" style="stroke: #000000; stroke-width: 0.8"/>
      </defs>
      <g>
       <use xlink:href="#mdbf0345bca" x="60.05" y="468.12" style="stroke: #000000; stroke-width: 0.8"/>
      </g>
     </g>
     <g id="text_7">
      <!-- 0 -->
      <g transform="translate(46.6875 471.919219) scale(0.1 -0.1)">
       <use xlink:href="#DejaVuSans-30"/>
      </g>
     </g>
    </g>
    <g id="ytick_2">
     <g id="line2d_7">
      <g>
       <use xlink:href="#mdbf0345bca" x="60.05" y="29.76" style="stroke: #000000; stroke-width: 0.8"/>
      </g>
     </g>
     <g id="text_8">
      <!-- 1 -->
      <g transform="translate(46.6875 33.559219) scale(0.1 -0.1)">
       <use xlink:href="#DejaVuSans-31"/>
      </g>
     </g>
    </g>
    <g id="text_9">
     <!-- Stacked Proportion -->
     <g transform="translate(39.692812 302.792969) rotate(-90) scale(0.14 -0.14)">
      <defs>
       <path id="TimesNewRomanPSMT-61" d="M 1822 413 
Q 1381 72 1269 19 
Q 1100 -59 909 -59 
Q 613 -59 420 144 
Q 228 347 228 678 
Q 228 888 322 1041 
Q 450 1253 767 1440 
Q 1084 1628 1822 1897 
L 1822 2009 
Q 1822 2438 1686 2597 
Q 1550 2756 1291 2756 
Q 1094 2756 978 2650 
Q 859 2544 859 2406 
L 866 2225 
Q 866 2081 792 2003 
Q 719 1925 600 1925 
Q 484 1925 411 2006 
Q 338 2088 338 2228 
Q 338 2497 613 2722 
Q 888 2947 1384 2947 
Q 1766 2947 2009 2819 
Q 2194 2722 2281 2516 
Q 2338 2381 2338 1966 
L 2338 994 
Q 2338 584 2353 492 
Q 2369 400 2405 369 
Q 2441 338 2488 338 
Q 2538 338 2575 359 
Q 2641 400 2828 588 
L 2828 413 
Q 2478 -56 2159 -56 
Q 2006 -56 1915 50 
Q 1825 156 1822 413 
z
M 1822 616 
L 1822 1706 
Q 1350 1519 1213 1441 
Q 966 1303 859 1153 
Q 753 1003 753 825 
Q 753 600 887 451 
Q 1022 303 1197 303 
Q 1434 303 1822 616 
z
" transform="scale(0.015625)"/>
       <path id="TimesNewRomanPSMT-63" d="M 2631 1088 
Q 2516 522 2178 217 
Q 1841 -88 1431 -88 
Q 944 -88 581 321 
Q 219 731 219 1428 
Q 219 2103 620 2525 
Q 1022 2947 1584 2947 
Q 2006 2947 2278 2723 
Q 2550 2500 2550 2259 
Q 2550 2141 2473 2067 
Q 2397 1994 2259 1994 
Q 2075 1994 1981 2113 
Q 1928 2178 1911 2362 
Q 1894 2547 1784 2644 
Q 1675 2738 1481 2738 
Q 1169 2738 978 2506 
Q 725 2200 725 1697 
Q 725 1184 976 792 
Q 1228 400 1656 400 
Q 1963 400 2206 609 
Q 2378 753 2541 1131 
L 2631 1088 
z
" transform="scale(0.015625)"/>
       <path id="TimesNewRomanPSMT-6b" d="M 1047 4444 
L 1047 1594 
L 1775 2259 
Q 2006 2472 2044 2528 
Q 2069 2566 2069 2603 
Q 2069 2666 2017 2711 
Q 1966 2756 1847 2763 
L 1847 2863 
L 3091 2863 
L 3091 2763 
Q 2834 2756 2664 2684 
Q 2494 2613 2291 2428 
L 1556 1750 
L 2291 822 
Q 2597 438 2703 334 
Q 2853 188 2966 144 
Q 3044 113 3238 113 
L 3238 0 
L 1847 0 
L 1847 113 
Q 1966 116 2008 148 
Q 2050 181 2050 241 
Q 2050 313 1925 472 
L 1047 1594 
L 1047 644 
Q 1047 366 1086 278 
Q 1125 191 1197 153 
Q 1269 116 1509 113 
L 1509 0 
L 53 0 
L 53 113 
Q 272 113 381 166 
Q 447 200 481 272 
Q 528 375 528 628 
L 528 3234 
Q 528 3731 506 3842 
Q 484 3953 434 3995 
Q 384 4038 303 4038 
Q 238 4038 106 3984 
L 53 4094 
L 903 4444 
L 1047 4444 
z
" transform="scale(0.015625)"/>
       <path id="TimesNewRomanPSMT-64" d="M 2222 322 
Q 2013 103 1813 7 
Q 1613 -88 1381 -88 
Q 913 -88 563 304 
Q 213 697 213 1313 
Q 213 1928 600 2439 
Q 988 2950 1597 2950 
Q 1975 2950 2222 2709 
L 2222 3238 
Q 2222 3728 2198 3840 
Q 2175 3953 2125 3993 
Q 2075 4034 2000 4034 
Q 1919 4034 1784 3984 
L 1744 4094 
L 2597 4444 
L 2738 4444 
L 2738 1134 
Q 2738 631 2761 520 
Q 2784 409 2836 365 
Q 2888 322 2956 322 
Q 3041 322 3181 375 
L 3216 266 
L 2366 -88 
L 2222 -88 
L 2222 322 
z
M 2222 541 
L 2222 2016 
Q 2203 2228 2109 2403 
Q 2016 2578 1861 2667 
Q 1706 2756 1559 2756 
Q 1284 2756 1069 2509 
Q 784 2184 784 1559 
Q 784 928 1059 592 
Q 1334 256 1672 256 
Q 1956 256 2222 541 
z
" transform="scale(0.015625)"/>
       <path id="TimesNewRomanPSMT-50" d="M 1313 1984 
L 1313 750 
Q 1313 350 1400 253 
Q 1519 116 1759 116 
L 1922 116 
L 1922 0 
L 106 0 
L 106 116 
L 266 116 
Q 534 116 650 291 
Q 713 388 713 750 
L 713 3488 
Q 713 3888 628 3984 
Q 506 4122 266 4122 
L 106 4122 
L 106 4238 
L 1659 4238 
Q 2228 4238 2556 4120 
Q 2884 4003 3109 3725 
Q 3334 3447 3334 3066 
Q 3334 2547 2992 2222 
Q 2650 1897 2025 1897 
Q 1872 1897 1694 1919 
Q 1516 1941 1313 1984 
z
M 1313 2163 
Q 1478 2131 1606 2115 
Q 1734 2100 1825 2100 
Q 2150 2100 2386 2351 
Q 2622 2603 2622 3003 
Q 2622 3278 2509 3514 
Q 2397 3750 2190 3867 
Q 1984 3984 1722 3984 
Q 1563 3984 1313 3925 
L 1313 2163 
z
" transform="scale(0.015625)"/>
       <path id="TimesNewRomanPSMT-72" d="M 1038 2947 
L 1038 2303 
Q 1397 2947 1775 2947 
Q 1947 2947 2059 2842 
Q 2172 2738 2172 2600 
Q 2172 2478 2090 2393 
Q 2009 2309 1897 2309 
Q 1788 2309 1652 2417 
Q 1516 2525 1450 2525 
Q 1394 2525 1328 2463 
Q 1188 2334 1038 2041 
L 1038 669 
Q 1038 431 1097 309 
Q 1138 225 1241 169 
Q 1344 113 1538 113 
L 1538 0 
L 72 0 
L 72 113 
Q 291 113 397 181 
Q 475 231 506 341 
Q 522 394 522 644 
L 522 1753 
Q 522 2253 501 2348 
Q 481 2444 426 2487 
Q 372 2531 291 2531 
Q 194 2531 72 2484 
L 41 2597 
L 906 2947 
L 1038 2947 
z
" transform="scale(0.015625)"/>
       <path id="TimesNewRomanPSMT-70" d="M -6 2578 
L 875 2934 
L 994 2934 
L 994 2266 
Q 1216 2644 1439 2795 
Q 1663 2947 1909 2947 
Q 2341 2947 2628 2609 
Q 2981 2197 2981 1534 
Q 2981 794 2556 309 
Q 2206 -88 1675 -88 
Q 1444 -88 1275 -22 
Q 1150 25 994 166 
L 994 -706 
Q 994 -1000 1030 -1079 
Q 1066 -1159 1155 -1206 
Q 1244 -1253 1478 -1253 
L 1478 -1369 
L -22 -1369 
L -22 -1253 
L 56 -1253 
Q 228 -1256 350 -1188 
Q 409 -1153 442 -1076 
Q 475 -1000 475 -688 
L 475 2019 
Q 475 2297 450 2372 
Q 425 2447 370 2484 
Q 316 2522 222 2522 
Q 147 2522 31 2478 
L -6 2578 
z
M 994 2081 
L 994 1013 
Q 994 666 1022 556 
Q 1066 375 1236 237 
Q 1406 100 1666 100 
Q 1978 100 2172 344 
Q 2425 663 2425 1241 
Q 2425 1897 2138 2250 
Q 1938 2494 1663 2494 
Q 1513 2494 1366 2419 
Q 1253 2363 994 2081 
z
" transform="scale(0.015625)"/>
      </defs>
      <use xlink:href="#TimesNewRomanPSMT-53"/>
      <use xlink:href="#TimesNewRomanPSMT-74" x="55.615234"/>
      <use xlink:href="#TimesNewRomanPSMT-61" x="83.398438"/>
      <use xlink:href="#TimesNewRomanPSMT-63" x="127.783203"/>
      <use xlink:href="#TimesNewRomanPSMT-6b" x="172.167969"/>
      <use xlink:href="#TimesNewRomanPSMT-65" x="222.167969"/>
      <use xlink:href="#TimesNewRomanPSMT-64" x="266.552734"/>
      <use xlink:href="#TimesNewRomanPSMT-20" x="316.552734"/>
      <use xlink:href="#TimesNewRomanPSMT-50" x="341.552734"/>
      <use xlink:href="#TimesNewRomanPSMT-72" x="397.167969"/>
      <use xlink:href="#TimesNewRomanPSMT-6f" x="430.46875"/>
      <use xlink:href="#TimesNewRomanPSMT-70" x="480.46875"/>
      <use xlink:href="#TimesNewRomanPSMT-6f" x="530.46875"/>
      <use xlink:href="#TimesNewRomanPSMT-72" x="580.46875"/>
      <use xlink:href="#TimesNewRomanPSMT-74" x="613.769531"/>
      <use xlink:href="#TimesNewRomanPSMT-69" x="641.552734"/>
      <use xlink:href="#TimesNewRomanPSMT-6f" x="669.335938"/>
      <use xlink:href="#TimesNewRomanPSMT-6e" x="719.335938"/>
     </g>
    </g>
   </g>
   <g id="line2d_8">
    <path d="M 60.05 100.522516 
L 669.312353 100.522516 
" clip-path="url(#ped9bb38e9f)" style="fill: none; stroke-dasharray: 7.5,15; stroke-dashoffset: 0; stroke: #000000; stroke-width: 1.5"/>
   </g>
   <g id="patch_3">
    <path d="M 60.05 468.12 
L 60.05 29.76 
" style="fill: none; stroke: #000000; stroke-width: 0.8; stroke-linejoin: miter; stroke-linecap: square"/>
   </g>
   <g id="patch_4">
    <path d="M 669.312353 468.12 
L 669.312353 29.76 
" style="fill: none; stroke: #000000; stroke-width: 0.8; stroke-linejoin: miter; stroke-linecap: square"/>
   </g>
   <g id="patch_5">
    <path d="M 60.05 468.12 
L 669.312353 468.12 
" style="fill: none; stroke: #000000; stroke-width: 0.8; stroke-linejoin: miter; stroke-linecap: square"/>
   </g>
   <g id="patch_6">
    <path d="M 60.05 29.76 
L 669.312353 29.76 
" style="fill: none; stroke: #000000; stroke-width: 0.8; stroke-linejoin: miter; stroke-linecap: square"/>
   </g>
   <g id="text_10">
    <!-- 0.84 -->
    <g transform="translate(686.037202 103.885797) scale(0.14 -0.14)">
     <defs>
      <path id="TimesNewRomanPSMT-30" d="M 231 2094 
Q 231 2819 450 3342 
Q 669 3866 1031 4122 
Q 1313 4325 1613 4325 
Q 2100 4325 2488 3828 
Q 2972 3213 2972 2159 
Q 2972 1422 2759 906 
Q 2547 391 2217 158 
Q 1888 -75 1581 -75 
Q 975 -75 572 641 
Q 231 1244 231 2094 
z
M 844 2016 
Q 844 1141 1059 588 
Q 1238 122 1591 122 
Q 1759 122 1940 273 
Q 2122 425 2216 781 
Q 2359 1319 2359 2297 
Q 2359 3022 2209 3506 
Q 2097 3866 1919 4016 
Q 1791 4119 1609 4119 
Q 1397 4119 1231 3928 
Q 1006 3669 925 3112 
Q 844 2556 844 2016 
z
" transform="scale(0.015625)"/>
      <path id="TimesNewRomanPSMT-2e" d="M 800 606 
Q 947 606 1047 504 
Q 1147 403 1147 259 
Q 1147 116 1045 14 
Q 944 -88 800 -88 
Q 656 -88 554 14 
Q 453 116 453 259 
Q 453 406 554 506 
Q 656 606 800 606 
z
" transform="scale(0.015625)"/>
      <path id="TimesNewRomanPSMT-38" d="M 1228 2134 
Q 725 2547 579 2797 
Q 434 3047 434 3316 
Q 434 3728 753 4026 
Q 1072 4325 1600 4325 
Q 2113 4325 2425 4047 
Q 2738 3769 2738 3413 
Q 2738 3175 2569 2928 
Q 2400 2681 1866 2347 
Q 2416 1922 2594 1678 
Q 2831 1359 2831 1006 
Q 2831 559 2490 242 
Q 2150 -75 1597 -75 
Q 994 -75 656 303 
Q 388 606 388 966 
Q 388 1247 577 1523 
Q 766 1800 1228 2134 
z
M 1719 2469 
Q 2094 2806 2194 3001 
Q 2294 3197 2294 3444 
Q 2294 3772 2109 3958 
Q 1925 4144 1606 4144 
Q 1288 4144 1088 3959 
Q 888 3775 888 3528 
Q 888 3366 970 3203 
Q 1053 3041 1206 2894 
L 1719 2469 
z
M 1375 2016 
Q 1116 1797 991 1539 
Q 866 1281 866 981 
Q 866 578 1086 336 
Q 1306 94 1647 94 
Q 1984 94 2187 284 
Q 2391 475 2391 747 
Q 2391 972 2272 1150 
Q 2050 1481 1375 2016 
z
" transform="scale(0.015625)"/>
      <path id="TimesNewRomanPSMT-34" d="M 2978 1563 
L 2978 1119 
L 2409 1119 
L 2409 0 
L 1894 0 
L 1894 1119 
L 100 1119 
L 100 1519 
L 2066 4325 
L 2409 4325 
L 2409 1563 
L 2978 1563 
z
M 1894 1563 
L 1894 3666 
L 406 1563 
L 1894 1563 
z
" transform="scale(0.015625)"/>
     </defs>
     <use xlink:href="#TimesNewRomanPSMT-30"/>
     <use xlink:href="#TimesNewRomanPSMT-2e" x="50"/>
     <use xlink:href="#TimesNewRomanPSMT-38" x="75"/>
     <use xlink:href="#TimesNewRomanPSMT-34" x="125"/>
    </g>
   </g>
   <g id="text_11">
    <!-- Havanna -->
    <g transform="translate(325.781176 23.76) scale(0.2 -0.2)">
     <defs>
      <path id="TimesNewRomanPS-BoldMT-48" d="M 1750 2038 
L 1750 725 
Q 1750 400 1786 319 
Q 1822 238 1926 177 
Q 2031 116 2209 116 
L 2350 116 
L 2350 0 
L 134 0 
L 134 116 
L 275 116 
Q 459 116 572 181 
Q 653 225 697 331 
Q 731 406 731 725 
L 731 3513 
Q 731 3838 697 3919 
Q 663 4000 558 4061 
Q 453 4122 275 4122 
L 134 4122 
L 134 4238 
L 2350 4238 
L 2350 4122 
L 2209 4122 
Q 2025 4122 1913 4056 
Q 1831 4013 1784 3906 
Q 1750 3831 1750 3513 
L 1750 2313 
L 3247 2313 
L 3247 3513 
Q 3247 3838 3212 3919 
Q 3178 4000 3072 4061 
Q 2966 4122 2788 4122 
L 2650 4122 
L 2650 4238 
L 4863 4238 
L 4863 4122 
L 4725 4122 
Q 4538 4122 4428 4056 
Q 4347 4013 4300 3906 
Q 4266 3831 4266 3513 
L 4266 725 
Q 4266 400 4300 319 
Q 4334 238 4440 177 
Q 4547 116 4725 116 
L 4863 116 
L 4863 0 
L 2650 0 
L 2650 116 
L 2788 116 
Q 2975 116 3084 181 
Q 3166 225 3213 331 
Q 3247 406 3247 725 
L 3247 2038 
L 1750 2038 
z
" transform="scale(0.015625)"/>
      <path id="TimesNewRomanPS-BoldMT-61" d="M 1828 431 
Q 1294 -41 869 -41 
Q 619 -41 453 123 
Q 288 288 288 534 
Q 288 869 575 1136 
Q 863 1403 1828 1847 
L 1828 2141 
Q 1828 2472 1792 2558 
Q 1756 2644 1656 2708 
Q 1556 2772 1431 2772 
Q 1228 2772 1097 2681 
Q 1016 2625 1016 2550 
Q 1016 2484 1103 2388 
Q 1222 2253 1222 2128 
Q 1222 1975 1108 1867 
Q 994 1759 809 1759 
Q 613 1759 480 1878 
Q 347 1997 347 2156 
Q 347 2381 525 2586 
Q 703 2791 1022 2900 
Q 1341 3009 1684 3009 
Q 2100 3009 2342 2832 
Q 2584 2656 2656 2450 
Q 2700 2319 2700 1847 
L 2700 713 
Q 2700 513 2715 461 
Q 2731 409 2762 384 
Q 2794 359 2834 359 
Q 2916 359 3000 475 
L 3094 400 
Q 2938 169 2770 64 
Q 2603 -41 2391 -41 
Q 2141 -41 2000 76 
Q 1859 194 1828 431 
z
M 1828 659 
L 1828 1638 
Q 1450 1416 1266 1163 
Q 1144 994 1144 822 
Q 1144 678 1247 569 
Q 1325 484 1466 484 
Q 1622 484 1828 659 
z
" transform="scale(0.015625)"/>
      <path id="TimesNewRomanPS-BoldMT-76" d="M 1534 -88 
L 550 2178 
Q 372 2588 272 2697 
Q 200 2778 59 2806 
L 59 2922 
L 1613 2922 
L 1613 2806 
Q 1466 2806 1413 2753 
Q 1338 2684 1338 2591 
Q 1338 2475 1475 2156 
L 1956 1059 
L 2341 2006 
Q 2506 2413 2506 2581 
Q 2506 2678 2436 2739 
Q 2366 2800 2188 2806 
L 2188 2922 
L 3144 2922 
L 3144 2806 
Q 3006 2788 2918 2703 
Q 2831 2619 2656 2206 
L 1681 -88 
L 1534 -88 
z
" transform="scale(0.015625)"/>
      <path id="TimesNewRomanPS-BoldMT-6e" d="M 1409 2922 
L 1409 2544 
Q 1634 2788 1840 2898 
Q 2047 3009 2284 3009 
Q 2569 3009 2756 2851 
Q 2944 2694 3006 2459 
Q 3056 2281 3056 1775 
L 3056 638 
Q 3056 300 3117 217 
Q 3178 134 3372 113 
L 3372 0 
L 1894 0 
L 1894 113 
Q 2059 134 2131 250 
Q 2181 328 2181 638 
L 2181 1938 
Q 2181 2297 2153 2390 
Q 2125 2484 2058 2536 
Q 1991 2588 1909 2588 
Q 1641 2588 1409 2203 
L 1409 638 
Q 1409 309 1470 221 
Q 1531 134 1697 113 
L 1697 0 
L 219 0 
L 219 113 
Q 403 131 481 231 
Q 534 300 534 638 
L 534 2288 
Q 534 2619 473 2700 
Q 413 2781 219 2806 
L 219 2922 
L 1409 2922 
z
" transform="scale(0.015625)"/>
     </defs>
     <use xlink:href="#TimesNewRomanPS-BoldMT-48"/>
     <use xlink:href="#TimesNewRomanPS-BoldMT-61" x="77.783203"/>
     <use xlink:href="#TimesNewRomanPS-BoldMT-76" x="127.783203"/>
     <use xlink:href="#TimesNewRomanPS-BoldMT-61" x="177.783203"/>
     <use xlink:href="#TimesNewRomanPS-BoldMT-6e" x="227.783203"/>
     <use xlink:href="#TimesNewRomanPS-BoldMT-6e" x="283.398438"/>
     <use xlink:href="#TimesNewRomanPS-BoldMT-61" x="339.013672"/>
    </g>
   </g>
   <g id="legend_1">
    <g id="patch_7">
     <path d="M 67.05 94.31625 
L 152.946875 94.31625 
Q 154.946875 94.31625 154.946875 92.31625 
L 154.946875 36.76 
Q 154.946875 34.76 152.946875 34.76 
L 67.05 34.76 
Q 65.05 34.76 65.05 36.76 
L 65.05 92.31625 
Q 65.05 94.31625 67.05 94.31625 
z
" style="fill: #ffffff; opacity: 0.8; stroke: #cccccc; stroke-linejoin: miter"/>
    </g>
    <g id="patch_8">
     <path d="M 69.05 45.76 
L 89.05 45.76 
L 89.05 38.76 
L 69.05 38.76 
z
" style="fill: #5386b6"/>
    </g>
    <g id="text_12">
     <!-- Success -->
     <g transform="translate(97.05 45.76) scale(0.1 -0.1)">
      <use xlink:href="#TimesNewRomanPSMT-53"/>
      <use xlink:href="#TimesNewRomanPSMT-75" x="55.615234"/>
      <use xlink:href="#TimesNewRomanPSMT-63" x="105.615234"/>
      <use xlink:href="#TimesNewRomanPSMT-63" x="150"/>
      <use xlink:href="#TimesNewRomanPSMT-65" x="194.384766"/>
      <use xlink:href="#TimesNewRomanPSMT-73" x="238.769531"/>
      <use xlink:href="#TimesNewRomanPSMT-73" x="277.685547"/>
     </g>
    </g>
    <g id="patch_9">
     <path d="M 69.05 59.899063 
L 89.05 59.899063 
L 89.05 52.899063 
L 69.05 52.899063 
z
" style="fill: #d57459"/>
    </g>
    <g id="text_13">
     <!-- Error -->
     <g transform="translate(97.05 59.899063) scale(0.1 -0.1)">
      <defs>
       <path id="TimesNewRomanPSMT-45" d="M 1338 4006 
L 1338 2331 
L 2269 2331 
Q 2631 2331 2753 2441 
Q 2916 2584 2934 2947 
L 3050 2947 
L 3050 1472 
L 2934 1472 
Q 2891 1781 2847 1869 
Q 2791 1978 2662 2040 
Q 2534 2103 2269 2103 
L 1338 2103 
L 1338 706 
Q 1338 425 1363 364 
Q 1388 303 1450 267 
Q 1513 231 1688 231 
L 2406 231 
Q 2766 231 2928 281 
Q 3091 331 3241 478 
Q 3434 672 3638 1063 
L 3763 1063 
L 3397 0 
L 131 0 
L 131 116 
L 281 116 
Q 431 116 566 188 
Q 666 238 702 338 
Q 738 438 738 747 
L 738 3500 
Q 738 3903 656 3997 
Q 544 4122 281 4122 
L 131 4122 
L 131 4238 
L 3397 4238 
L 3444 3309 
L 3322 3309 
Q 3256 3644 3176 3769 
Q 3097 3894 2941 3959 
Q 2816 4006 2500 4006 
L 1338 4006 
z
" transform="scale(0.015625)"/>
      </defs>
      <use xlink:href="#TimesNewRomanPSMT-45"/>
      <use xlink:href="#TimesNewRomanPSMT-72" x="61.083984"/>
      <use xlink:href="#TimesNewRomanPSMT-72" x="94.384766"/>
      <use xlink:href="#TimesNewRomanPSMT-6f" x="127.685547"/>
      <use xlink:href="#TimesNewRomanPSMT-72" x="177.685547"/>
     </g>
    </g>
    <g id="patch_10">
     <path d="M 69.05 74.038125 
L 89.05 74.038125 
L 89.05 67.038125 
L 69.05 67.038125 
z
" style="fill: #e8bc60"/>
    </g>
    <g id="text_14">
     <!-- Premature -->
     <g transform="translate(97.05 74.038125) scale(0.1 -0.1)">
      <defs>
       <path id="TimesNewRomanPSMT-6d" d="M 1050 2338 
Q 1363 2650 1419 2697 
Q 1559 2816 1721 2881 
Q 1884 2947 2044 2947 
Q 2313 2947 2506 2790 
Q 2700 2634 2766 2338 
Q 3088 2713 3309 2830 
Q 3531 2947 3766 2947 
Q 3994 2947 4170 2830 
Q 4347 2713 4450 2447 
Q 4519 2266 4519 1878 
L 4519 647 
Q 4519 378 4559 278 
Q 4591 209 4675 161 
Q 4759 113 4950 113 
L 4950 0 
L 3538 0 
L 3538 113 
L 3597 113 
Q 3781 113 3884 184 
Q 3956 234 3988 344 
Q 4000 397 4000 647 
L 4000 1878 
Q 4000 2228 3916 2372 
Q 3794 2572 3525 2572 
Q 3359 2572 3192 2489 
Q 3025 2406 2788 2181 
L 2781 2147 
L 2788 2013 
L 2788 647 
Q 2788 353 2820 281 
Q 2853 209 2943 161 
Q 3034 113 3253 113 
L 3253 0 
L 1806 0 
L 1806 113 
Q 2044 113 2133 169 
Q 2222 225 2256 338 
Q 2272 391 2272 647 
L 2272 1878 
Q 2272 2228 2169 2381 
Q 2031 2581 1784 2581 
Q 1616 2581 1450 2491 
Q 1191 2353 1050 2181 
L 1050 647 
Q 1050 366 1089 281 
Q 1128 197 1204 155 
Q 1281 113 1516 113 
L 1516 0 
L 100 0 
L 100 113 
Q 297 113 375 155 
Q 453 197 493 289 
Q 534 381 534 647 
L 534 1741 
Q 534 2213 506 2350 
Q 484 2453 437 2492 
Q 391 2531 309 2531 
Q 222 2531 100 2484 
L 53 2597 
L 916 2947 
L 1050 2947 
L 1050 2338 
z
" transform="scale(0.015625)"/>
      </defs>
      <use xlink:href="#TimesNewRomanPSMT-50"/>
      <use xlink:href="#TimesNewRomanPSMT-72" x="55.615234"/>
      <use xlink:href="#TimesNewRomanPSMT-65" x="88.916016"/>
      <use xlink:href="#TimesNewRomanPSMT-6d" x="133.300781"/>
      <use xlink:href="#TimesNewRomanPSMT-61" x="211.083984"/>
      <use xlink:href="#TimesNewRomanPSMT-74" x="255.46875"/>
      <use xlink:href="#TimesNewRomanPSMT-75" x="283.251953"/>
      <use xlink:href="#TimesNewRomanPSMT-72" x="333.251953"/>
      <use xlink:href="#TimesNewRomanPSMT-65" x="366.552734"/>
     </g>
    </g>
    <g id="patch_11">
     <path d="M 69.05 88.177187 
L 89.05 88.177187 
L 89.05 81.177187 
L 69.05 81.177187 
z
" style="fill: #8d5993"/>
    </g>
    <g id="text_15">
     <!-- Stepomission -->
     <g transform="translate(97.05 88.177187) scale(0.1 -0.1)">
      <use xlink:href="#TimesNewRomanPSMT-53"/>
      <use xlink:href="#TimesNewRomanPSMT-74" x="55.615234"/>
      <use xlink:href="#TimesNewRomanPSMT-65" x="83.398438"/>
      <use xlink:href="#TimesNewRomanPSMT-70" x="127.783203"/>
      <use xlink:href="#TimesNewRomanPSMT-6f" x="177.783203"/>
      <use xlink:href="#TimesNewRomanPSMT-6d" x="227.783203"/>
      <use xlink:href="#TimesNewRomanPSMT-69" x="305.566406"/>
      <use xlink:href="#TimesNewRomanPSMT-73" x="333.349609"/>
      <use xlink:href="#TimesNewRomanPSMT-73" x="372.265625"/>
      <use xlink:href="#TimesNewRomanPSMT-69" x="411.181641"/>
      <use xlink:href="#TimesNewRomanPSMT-6f" x="438.964844"/>
      <use xlink:href="#TimesNewRomanPSMT-6e" x="488.964844"/>
     </g>
    </g>
   </g>
  </g>
  <g id="axes_2">
   <g id="patch_12">
    <path d="M 60.05 675.16 
L 669.312353 675.16 
L 669.312353 529.04 
L 60.05 529.04 
z
" style="fill: #ffffff"/>
   </g>
   <g id="matplotlib.axis_3">
    <g id="xtick_6">
     <g id="line2d_9">
      <g>
       <use xlink:href="#md61fbd2ad1" x="224.082172" y="675.16" style="stroke: #000000; stroke-width: 0.8"/>
      </g>
     </g>
     <g id="text_16">
      <!-- 2023-09 -->
      <g transform="translate(203.190766 689.758438) scale(0.1 -0.1)">
       <defs>
        <path id="DejaVuSans-33" d="M 2597 2516 
Q 3050 2419 3304 2112 
Q 3559 1806 3559 1356 
Q 3559 666 3084 287 
Q 2609 -91 1734 -91 
Q 1441 -91 1130 -33 
Q 819 25 488 141 
L 488 750 
Q 750 597 1062 519 
Q 1375 441 1716 441 
Q 2309 441 2620 675 
Q 2931 909 2931 1356 
Q 2931 1769 2642 2001 
Q 2353 2234 1838 2234 
L 1294 2234 
L 1294 2753 
L 1863 2753 
Q 2328 2753 2575 2939 
Q 2822 3125 2822 3475 
Q 2822 3834 2567 4026 
Q 2313 4219 1838 4219 
Q 1578 4219 1281 4162 
Q 984 4106 628 3988 
L 628 4550 
Q 988 4650 1302 4700 
Q 1616 4750 1894 4750 
Q 2613 4750 3031 4423 
Q 3450 4097 3450 3541 
Q 3450 3153 3228 2886 
Q 3006 2619 2597 2516 
z
" transform="scale(0.015625)"/>
        <path id="DejaVuSans-2d" d="M 313 2009 
L 1997 2009 
L 1997 1497 
L 313 1497 
L 313 2009 
z
" transform="scale(0.015625)"/>
        <path id="DejaVuSans-39" d="M 703 97 
L 703 672 
Q 941 559 1184 500 
Q 1428 441 1663 441 
Q 2288 441 2617 861 
Q 2947 1281 2994 2138 
Q 2813 1869 2534 1725 
Q 2256 1581 1919 1581 
Q 1219 1581 811 2004 
Q 403 2428 403 3163 
Q 403 3881 828 4315 
Q 1253 4750 1959 4750 
Q 2769 4750 3195 4129 
Q 3622 3509 3622 2328 
Q 3622 1225 3098 567 
Q 2575 -91 1691 -91 
Q 1453 -91 1209 -44 
Q 966 3 703 97 
z
M 1959 2075 
Q 2384 2075 2632 2365 
Q 2881 2656 2881 3163 
Q 2881 3666 2632 3958 
Q 2384 4250 1959 4250 
Q 1534 4250 1286 3958 
Q 1038 3666 1038 3163 
Q 1038 2656 1286 2365 
Q 1534 2075 1959 2075 
z
" transform="scale(0.015625)"/>
       </defs>
       <use xlink:href="#DejaVuSans-32"/>
       <use xlink:href="#DejaVuSans-30" x="63.623047"/>
       <use xlink:href="#DejaVuSans-32" x="127.246094"/>
       <use xlink:href="#DejaVuSans-33" x="190.869141"/>
       <use xlink:href="#DejaVuSans-2d" x="254.492188"/>
       <use xlink:href="#DejaVuSans-30" x="290.576172"/>
       <use xlink:href="#DejaVuSans-39" x="354.199219"/>
      </g>
     </g>
    </g>
    <g id="xtick_7">
     <g id="line2d_10">
      <g>
       <use xlink:href="#md61fbd2ad1" x="402.760074" y="675.16" style="stroke: #000000; stroke-width: 0.8"/>
      </g>
     </g>
     <g id="text_17">
      <!-- 2023-11 -->
      <g transform="translate(381.868667 689.758438) scale(0.1 -0.1)">
       <use xlink:href="#DejaVuSans-32"/>
       <use xlink:href="#DejaVuSans-30" x="63.623047"/>
       <use xlink:href="#DejaVuSans-32" x="127.246094"/>
       <use xlink:href="#DejaVuSans-33" x="190.869141"/>
       <use xlink:href="#DejaVuSans-2d" x="254.492188"/>
       <use xlink:href="#DejaVuSans-31" x="290.576172"/>
       <use xlink:href="#DejaVuSans-31" x="354.199219"/>
      </g>
     </g>
    </g>
    <g id="xtick_8">
     <g id="line2d_11">
      <g>
       <use xlink:href="#md61fbd2ad1" x="581.437975" y="675.16" style="stroke: #000000; stroke-width: 0.8"/>
      </g>
     </g>
     <g id="text_18">
      <!-- 2024-01 -->
      <g transform="translate(560.546569 689.758438) scale(0.1 -0.1)">
       <defs>
        <path id="DejaVuSans-34" d="M 2419 4116 
L 825 1625 
L 2419 1625 
L 2419 4116 
z
M 2253 4666 
L 3047 4666 
L 3047 1625 
L 3713 1625 
L 3713 1100 
L 3047 1100 
L 3047 0 
L 2419 0 
L 2419 1100 
L 313 1100 
L 313 1709 
L 2253 4666 
z
" transform="scale(0.015625)"/>
       </defs>
       <use xlink:href="#DejaVuSans-32"/>
       <use xlink:href="#DejaVuSans-30" x="63.623047"/>
       <use xlink:href="#DejaVuSans-32" x="127.246094"/>
       <use xlink:href="#DejaVuSans-34" x="190.869141"/>
       <use xlink:href="#DejaVuSans-2d" x="254.492188"/>
       <use xlink:href="#DejaVuSans-30" x="290.576172"/>
       <use xlink:href="#DejaVuSans-31" x="354.199219"/>
      </g>
     </g>
    </g>
    <g id="text_19">
     <!-- Date -->
     <g transform="translate(351.466489 705.559375) scale(0.14 -0.14)">
      <defs>
       <path id="TimesNewRomanPSMT-44" d="M 109 0 
L 109 116 
L 269 116 
Q 538 116 650 288 
Q 719 391 719 750 
L 719 3488 
Q 719 3884 631 3984 
Q 509 4122 269 4122 
L 109 4122 
L 109 4238 
L 1834 4238 
Q 2784 4238 3279 4022 
Q 3775 3806 4076 3303 
Q 4378 2800 4378 2141 
Q 4378 1256 3841 663 
Q 3238 0 2003 0 
L 109 0 
z
M 1319 306 
Q 1716 219 1984 219 
Q 2709 219 3187 728 
Q 3666 1238 3666 2109 
Q 3666 2988 3187 3494 
Q 2709 4000 1959 4000 
Q 1678 4000 1319 3909 
L 1319 306 
z
" transform="scale(0.015625)"/>
      </defs>
      <use xlink:href="#TimesNewRomanPSMT-44"/>
      <use xlink:href="#TimesNewRomanPSMT-61" x="72.216797"/>
      <use xlink:href="#TimesNewRomanPSMT-74" x="116.601562"/>
      <use xlink:href="#TimesNewRomanPSMT-65" x="144.384766"/>
     </g>
    </g>
   </g>
   <g id="matplotlib.axis_4">
    <g id="ytick_3">
     <g id="line2d_12">
      <g>
       <use xlink:href="#mdbf0345bca" x="60.05" y="675.16" style="stroke: #000000; stroke-width: 0.8"/>
      </g>
     </g>
     <g id="text_20">
      <!-- 700 -->
      <g transform="translate(33.9625 678.959219) scale(0.1 -0.1)">
       <defs>
        <path id="DejaVuSans-37" d="M 525 4666 
L 3525 4666 
L 3525 4397 
L 1831 0 
L 1172 0 
L 2766 4134 
L 525 4134 
L 525 4666 
z
" transform="scale(0.015625)"/>
       </defs>
       <use xlink:href="#DejaVuSans-37"/>
       <use xlink:href="#DejaVuSans-30" x="63.623047"/>
       <use xlink:href="#DejaVuSans-30" x="127.246094"/>
      </g>
     </g>
    </g>
    <g id="ytick_4">
     <g id="line2d_13">
      <g>
       <use xlink:href="#mdbf0345bca" x="60.05" y="602.1" style="stroke: #000000; stroke-width: 0.8"/>
      </g>
     </g>
     <g id="text_21">
      <!-- 1000 -->
      <g transform="translate(27.6 605.899219) scale(0.1 -0.1)">
       <use xlink:href="#DejaVuSans-31"/>
       <use xlink:href="#DejaVuSans-30" x="63.623047"/>
       <use xlink:href="#DejaVuSans-30" x="127.246094"/>
       <use xlink:href="#DejaVuSans-30" x="190.869141"/>
      </g>
     </g>
    </g>
    <g id="ytick_5">
     <g id="line2d_14">
      <g>
       <use xlink:href="#mdbf0345bca" x="60.05" y="529.04" style="stroke: #000000; stroke-width: 0.8"/>
      </g>
     </g>
     <g id="text_22">
      <!-- 1300 -->
      <g transform="translate(27.6 532.839219) scale(0.1 -0.1)">
       <use xlink:href="#DejaVuSans-31"/>
       <use xlink:href="#DejaVuSans-33" x="63.623047"/>
       <use xlink:href="#DejaVuSans-30" x="127.246094"/>
       <use xlink:href="#DejaVuSans-30" x="190.869141"/>
      </g>
     </g>
    </g>
    <g id="text_23">
     <!-- Elo -->
     <g transform="translate(20.605313 611.820156) rotate(-90) scale(0.14 -0.14)">
      <defs>
       <path id="TimesNewRomanPSMT-6c" d="M 1184 4444 
L 1184 647 
Q 1184 378 1223 290 
Q 1263 203 1344 158 
Q 1425 113 1647 113 
L 1647 0 
L 244 0 
L 244 113 
Q 441 113 512 153 
Q 584 194 625 287 
Q 666 381 666 647 
L 666 3247 
Q 666 3731 644 3842 
Q 622 3953 573 3993 
Q 525 4034 450 4034 
Q 369 4034 244 3984 
L 191 4094 
L 1044 4444 
L 1184 4444 
z
" transform="scale(0.015625)"/>
      </defs>
      <use xlink:href="#TimesNewRomanPSMT-45"/>
      <use xlink:href="#TimesNewRomanPSMT-6c" x="61.083984"/>
      <use xlink:href="#TimesNewRomanPSMT-6f" x="88.867188"/>
     </g>
    </g>
   </g>
   <g id="line2d_15">
    <path d="M 60.05 633.5158 
L 65.908292 633.678156 
L 68.837438 633.33315 
L 74.69573 632.988144 
L 80.554021 633.546242 
L 89.341459 634.002867 
L 95.199751 634.096533 
L 101.058043 634.376284 
L 118.632919 636.902073 
L 124.49121 637.69822 
L 144.995232 640.0912 
L 153.78267 641.674167 
L 165.499253 643.914673 
L 177.215837 645.781762 
L 183.074129 646.37436 
L 188.932421 646.764013 
L 191.861567 646.73966 
L 215.294734 645.651878 
L 229.940464 645.668113 
L 241.657048 645.992824 
L 247.515339 645.895411 
L 265.090215 645.067398 
L 268.019361 645.075516 
L 270.948507 645.2054 
L 276.806799 645.270342 
L 282.66509 645.530111 
L 288.523382 645.757409 
L 300.239966 645.64376 
L 306.098258 645.172929 
L 320.743988 643.541256 
L 326.602279 642.615829 
L 332.460571 641.69852 
L 341.248009 641.073451 
L 350.035447 641.178982 
L 361.752031 641.641696 
L 367.610322 641.722873 
L 376.39776 642.096291 
L 388.114344 642.6483 
L 393.972636 642.623947 
L 399.830928 642.591476 
L 405.689219 642.299236 
L 411.547511 642.161233 
L 420.334949 642.20994 
L 426.193241 642.112527 
L 429.122387 642.047584 
L 437.909825 641.211453 
L 452.555554 639.57978 
L 461.342992 638.77612 
L 470.13043 637.907518 
L 478.917868 637.249978 
L 511.138473 636.787264 
L 537.500786 636.227138 
L 555.075662 635.951133 
L 651.737477 635.991722 
L 660.524915 636.4382 
L 669.312353 636.892796 
L 669.312353 636.892796 
" clip-path="url(#pf8445c0475)" style="fill: none; stroke: #ffd700; stroke-width: 2; stroke-linecap: square"/>
   </g>
   <g id="patch_13">
    <path d="M 60.05 675.16 
L 60.05 529.04 
" style="fill: none; stroke: #000000; stroke-width: 0.8; stroke-linejoin: miter; stroke-linecap: square"/>
   </g>
   <g id="patch_14">
    <path d="M 669.312353 675.16 
L 669.312353 529.04 
" style="fill: none; stroke: #000000; stroke-width: 0.8; stroke-linejoin: miter; stroke-linecap: square"/>
   </g>
   <g id="patch_15">
    <path d="M 60.05 675.16 
L 669.312353 675.16 
" style="fill: none; stroke: #000000; stroke-width: 0.8; stroke-linejoin: miter; stroke-linecap: square"/>
   </g>
   <g id="patch_16">
    <path d="M 60.05 529.04 
L 669.312353 529.04 
" style="fill: none; stroke: #000000; stroke-width: 0.8; stroke-linejoin: miter; stroke-linecap: square"/>
   </g>
   <g id="text_24">
    <!-- Hierarchy -->
    <g transform="translate(329.722426 523.04) scale(0.16 -0.16)">
     <defs>
      <path id="TimesNewRomanPS-BoldMT-69" d="M 919 4338 
Q 1122 4338 1262 4195 
Q 1403 4053 1403 3853 
Q 1403 3653 1261 3512 
Q 1119 3372 919 3372 
Q 719 3372 578 3512 
Q 438 3653 438 3853 
Q 438 4053 578 4195 
Q 719 4338 919 4338 
z
M 1356 2922 
L 1356 606 
Q 1356 297 1428 211 
Q 1500 125 1709 113 
L 1709 0 
L 131 0 
L 131 113 
Q 325 119 419 225 
Q 481 297 481 606 
L 481 2313 
Q 481 2622 409 2708 
Q 338 2794 131 2806 
L 131 2922 
L 1356 2922 
z
" transform="scale(0.015625)"/>
      <path id="TimesNewRomanPS-BoldMT-65" d="M 2691 1566 
L 1088 1566 
Q 1116 984 1397 647 
Q 1613 388 1916 388 
Q 2103 388 2256 492 
Q 2409 597 2584 869 
L 2691 800 
Q 2453 316 2165 114 
Q 1878 -88 1500 -88 
Q 850 -88 516 413 
Q 247 816 247 1413 
Q 247 2144 642 2576 
Q 1038 3009 1569 3009 
Q 2013 3009 2339 2645 
Q 2666 2281 2691 1566 
z
M 1922 1775 
Q 1922 2278 1867 2465 
Q 1813 2653 1697 2750 
Q 1631 2806 1522 2806 
Q 1359 2806 1256 2647 
Q 1072 2369 1072 1884 
L 1072 1775 
L 1922 1775 
z
" transform="scale(0.015625)"/>
      <path id="TimesNewRomanPS-BoldMT-72" d="M 1428 2922 
L 1428 2259 
Q 1719 2713 1937 2861 
Q 2156 3009 2359 3009 
Q 2534 3009 2639 2901 
Q 2744 2794 2744 2597 
Q 2744 2388 2642 2272 
Q 2541 2156 2397 2156 
Q 2231 2156 2109 2262 
Q 1988 2369 1966 2381 
Q 1934 2400 1894 2400 
Q 1803 2400 1722 2331 
Q 1594 2225 1528 2028 
Q 1428 1725 1428 1359 
L 1428 688 
L 1431 513 
Q 1431 334 1453 284 
Q 1491 200 1564 161 
Q 1638 122 1813 113 
L 1813 0 
L 234 0 
L 234 113 
Q 425 128 492 217 
Q 559 306 559 688 
L 559 2303 
Q 559 2553 534 2622 
Q 503 2709 443 2750 
Q 384 2791 234 2806 
L 234 2922 
L 1428 2922 
z
" transform="scale(0.015625)"/>
      <path id="TimesNewRomanPS-BoldMT-63" d="M 2600 753 
L 2697 678 
Q 2491 291 2183 101 
Q 1875 -88 1528 -88 
Q 944 -88 594 353 
Q 244 794 244 1413 
Q 244 2009 563 2463 
Q 947 3009 1622 3009 
Q 2075 3009 2342 2781 
Q 2609 2553 2609 2272 
Q 2609 2094 2501 1987 
Q 2394 1881 2219 1881 
Q 2034 1881 1914 2003 
Q 1794 2125 1766 2438 
Q 1747 2634 1675 2713 
Q 1603 2791 1506 2791 
Q 1356 2791 1250 2631 
Q 1088 2391 1088 1894 
Q 1088 1481 1219 1104 
Q 1350 728 1578 544 
Q 1750 409 1984 409 
Q 2138 409 2275 481 
Q 2413 553 2600 753 
z
" transform="scale(0.015625)"/>
      <path id="TimesNewRomanPS-BoldMT-68" d="M 1409 4238 
L 1409 2547 
Q 1650 2800 1850 2904 
Q 2050 3009 2266 3009 
Q 2541 3009 2736 2853 
Q 2931 2697 2995 2486 
Q 3059 2275 3059 1775 
L 3059 634 
Q 3059 300 3121 217 
Q 3184 134 3375 113 
L 3375 0 
L 1894 0 
L 1894 113 
Q 2050 134 2128 238 
Q 2184 319 2184 634 
L 2184 1938 
Q 2184 2300 2156 2392 
Q 2128 2484 2061 2536 
Q 1994 2588 1909 2588 
Q 1784 2588 1665 2502 
Q 1547 2416 1409 2200 
L 1409 634 
Q 1409 322 1456 244 
Q 1516 138 1700 113 
L 1700 0 
L 219 0 
L 219 113 
Q 403 131 481 231 
Q 534 300 534 634 
L 534 3603 
Q 534 3934 473 4015 
Q 413 4097 219 4122 
L 219 4238 
L 1409 4238 
z
" transform="scale(0.015625)"/>
      <path id="TimesNewRomanPS-BoldMT-79" d="M 1556 -119 
L 613 2047 
Q 400 2538 298 2650 
Q 197 2763 53 2806 
L 53 2922 
L 1606 2922 
L 1606 2806 
Q 1453 2800 1390 2747 
Q 1328 2694 1328 2619 
Q 1328 2500 1484 2150 
L 1984 1006 
L 2325 1891 
Q 2509 2363 2509 2547 
Q 2509 2663 2432 2731 
Q 2356 2800 2163 2806 
L 2163 2922 
L 3141 2922 
L 3141 2806 
Q 2997 2791 2906 2695 
Q 2816 2600 2603 2047 
L 1769 -119 
Q 1453 -931 1300 -1119 
Q 1084 -1381 759 -1381 
Q 500 -1381 339 -1232 
Q 178 -1084 178 -875 
Q 178 -694 289 -575 
Q 400 -456 563 -456 
Q 719 -456 814 -556 
Q 909 -656 913 -866 
Q 916 -984 941 -1019 
Q 966 -1053 1013 -1053 
Q 1088 -1053 1172 -963 
Q 1297 -831 1466 -363 
L 1556 -119 
z
" transform="scale(0.015625)"/>
     </defs>
     <use xlink:href="#TimesNewRomanPS-BoldMT-48"/>
     <use xlink:href="#TimesNewRomanPS-BoldMT-69" x="77.783203"/>
     <use xlink:href="#TimesNewRomanPS-BoldMT-65" x="105.566406"/>
     <use xlink:href="#TimesNewRomanPS-BoldMT-72" x="149.951172"/>
     <use xlink:href="#TimesNewRomanPS-BoldMT-61" x="194.335938"/>
     <use xlink:href="#TimesNewRomanPS-BoldMT-72" x="244.335938"/>
     <use xlink:href="#TimesNewRomanPS-BoldMT-63" x="286.970703"/>
     <use xlink:href="#TimesNewRomanPS-BoldMT-68" x="331.355469"/>
     <use xlink:href="#TimesNewRomanPS-BoldMT-79" x="386.970703"/>
    </g>
   </g>
  </g>
 </g>
 <defs>
  <clipPath id="ped9bb38e9f">
   <rect x="60.05" y="29.76" width="609.262353" height="438.36"/>
  </clipPath>
  <clipPath id="pf8445c0475">
   <rect x="60.05" y="529.04" width="609.262353" height="146.12"/>
  </clipPath>
 </defs>
</svg>
