<?xml version="1.0" encoding="utf-8" standalone="no"?>
<!DOCTYPE svg PUBLIC "-//W3C//DTD SVG 1.1//EN"
  "http://www.w3.org/Graphics/SVG/1.1/DTD/svg11.dtd">
<svg xmlns:xlink="http://www.w3.org/1999/xlink" width="720pt" height="720pt" viewBox="0 0 720 720" xmlns="http://www.w3.org/2000/svg" version="1.1">
 <metadata>
  <rdf:RDF xmlns:dc="http://purl.org/dc/elements/1.1/" xmlns:cc="http://creativecommons.org/ns#" xmlns:rdf="http://www.w3.org/1999/02/22-rdf-syntax-ns#">
   <cc:Work>
    <dc:type rdf:resource="http://purl.org/dc/dcmitype/StillImage"/>
    <dc:date>2025-02-05T15:06:58.669364</dc:date>
    <dc:format>image/svg+xml</dc:format>
    <dc:creator>
     <cc:Agent>
      <dc:title>Matplotlib v3.9.3, https://matplotlib.org/</dc:title>
     </cc:Agent>
    </dc:creator>
   </cc:Work>
  </rdf:RDF>
 </metadata>
 <defs>
  <style type="text/css">*{stroke-linejoin: round; stroke-linecap: butt}</style>
 </defs>
 <g id="figure_1">
  <g id="patch_1">
   <path d="M 0 720 
L 720 720 
L 720 0 
L 0 0 
z
" style="fill: #ffffff"/>
  </g>
  <g id="axes_1">
   <g id="patch_2">
    <path d="M 60.05 468.12 
L 661.00988 468.12 
L 661.00988 29.76 
L 60.05 29.76 
z
" style="fill: #ffffff"/>
   </g>
   <g id="PolyCollection_1">
    <path d="M 60.05 101.39359 
L 60.05 468.12 
L 63.67024 468.12 
L 67.29048 468.12 
L 70.910721 468.12 
L 74.530961 468.12 
L 78.151201 468.12 
L 81.771441 468.12 
L 85.391682 468.12 
L 89.011922 468.12 
L 92.632162 468.12 
L 96.252402 468.12 
L 99.872643 468.12 
L 103.492883 468.12 
L 107.113123 468.12 
L 110.733363 468.12 
L 114.353604 468.12 
L 117.973844 468.12 
L 121.594084 468.12 
L 125.214324 468.12 
L 128.834565 468.12 
L 132.454805 468.12 
L 136.075045 468.12 
L 139.695285 468.12 
L 143.315525 468.12 
L 146.935766 468.12 
L 150.556006 468.12 
L 154.176246 468.12 
L 157.796486 468.12 
L 161.416727 468.12 
L 165.036967 468.12 
L 168.657207 468.12 
L 172.277447 468.12 
L 175.897688 468.12 
L 179.517928 468.12 
L 183.138168 468.12 
L 186.758408 468.12 
L 190.378649 468.12 
L 193.998889 468.12 
L 197.619129 468.12 
L 201.239369 468.12 
L 204.85961 468.12 
L 208.47985 468.12 
L 212.10009 468.12 
L 215.72033 468.12 
L 219.34057 468.12 
L 222.960811 468.12 
L 226.581051 468.12 
L 230.201291 468.12 
L 233.821531 468.12 
L 237.441772 468.12 
L 241.062012 468.12 
L 244.682252 468.12 
L 248.302492 468.12 
L 251.922733 468.12 
L 255.542973 468.12 
L 259.163213 468.12 
L 262.783453 468.12 
L 266.403694 468.12 
L 270.023934 468.12 
L 273.644174 468.12 
L 277.264414 468.12 
L 280.884655 468.12 
L 284.504895 468.12 
L 288.125135 468.12 
L 291.745375 468.12 
L 295.365615 468.12 
L 298.985856 468.12 
L 302.606096 468.12 
L 306.226336 468.12 
L 309.846576 468.12 
L 313.466817 468.12 
L 317.087057 468.12 
L 320.707297 468.12 
L 324.327537 468.12 
L 327.947778 468.12 
L 331.568018 468.12 
L 335.188258 468.12 
L 338.808498 468.12 
L 342.428739 468.12 
L 346.048979 468.12 
L 349.669219 468.12 
L 353.289459 468.12 
L 356.9097 468.12 
L 360.52994 468.12 
L 364.15018 468.12 
L 367.77042 468.12 
L 371.39066 468.12 
L 375.010901 468.12 
L 378.631141 468.12 
L 382.251381 468.12 
L 385.871621 468.12 
L 389.491862 468.12 
L 393.112102 468.12 
L 396.732342 468.12 
L 400.352582 468.12 
L 403.972823 468.12 
L 407.593063 468.12 
L 411.213303 468.12 
L 414.833543 468.12 
L 418.453784 468.12 
L 422.074024 468.12 
L 425.694264 468.12 
L 429.314504 468.12 
L 432.934745 468.12 
L 436.554985 468.12 
L 440.175225 468.12 
L 443.795465 468.12 
L 447.415705 468.12 
L 451.035946 468.12 
L 454.656186 468.12 
L 458.276426 468.12 
L 461.896666 468.12 
L 465.516907 468.12 
L 469.137147 468.12 
L 472.757387 468.12 
L 476.377627 468.12 
L 479.997868 468.12 
L 483.618108 468.12 
L 487.238348 468.12 
L 490.858588 468.12 
L 494.478829 468.12 
L 498.099069 468.12 
L 501.719309 468.12 
L 505.339549 468.12 
L 508.95979 468.12 
L 512.58003 468.12 
L 516.20027 468.12 
L 519.82051 468.12 
L 523.44075 468.12 
L 527.060991 468.12 
L 530.681231 468.12 
L 534.301471 468.12 
L 537.921711 468.12 
L 541.541952 468.12 
L 545.162192 468.12 
L 548.782432 468.12 
L 552.402672 468.12 
L 556.022913 468.12 
L 559.643153 468.12 
L 563.263393 468.12 
L 566.883633 468.12 
L 570.503874 468.12 
L 574.124114 468.12 
L 577.744354 468.12 
L 581.364594 468.12 
L 584.984835 468.12 
L 588.605075 468.12 
L 592.225315 468.12 
L 595.845555 468.12 
L 599.465795 468.12 
L 603.086036 468.12 
L 606.706276 468.12 
L 610.326516 468.12 
L 613.946756 468.12 
L 617.566997 468.12 
L 621.187237 468.12 
L 624.807477 468.12 
L 628.427717 468.12 
L 632.047958 468.12 
L 635.668198 468.12 
L 639.288438 468.12 
L 642.908678 468.12 
L 646.528919 468.12 
L 650.149159 468.12 
L 653.769399 468.12 
L 657.389639 468.12 
L 661.00988 468.12 
L 661.00988 69.587559 
L 661.00988 69.587559 
L 657.389639 68.856959 
L 653.769399 68.856959 
L 650.149159 70.318159 
L 646.528919 71.048759 
L 642.908678 71.617003 
L 639.288438 72.347603 
L 635.668198 74.539403 
L 632.047958 74.539403 
L 628.427717 72.347603 
L 624.807477 73.443503 
L 621.187237 74.904703 
L 617.566997 76.064386 
L 613.946756 74.116119 
L 610.326516 73.385519 
L 606.706276 74.846719 
L 603.086036 74.453319 
L 599.465795 75.549219 
L 595.845555 77.010419 
L 592.225315 78.471619 
L 588.605075 81.843619 
L 584.984835 83.304819 
L 581.364594 79.651819 
L 577.744354 80.625952 
L 574.124114 79.895352 
L 570.503874 79.895352 
L 566.883633 79.315511 
L 563.263393 80.263119 
L 559.643153 80.889018 
L 556.022913 73.570821 
L 552.402672 79.348345 
L 548.782432 79.348345 
L 545.162192 79.348345 
L 541.541952 80.811984 
L 537.921711 80.080164 
L 534.301471 81.543804 
L 530.681231 80.080164 
L 527.060991 77.884705 
L 523.44075 77.751647 
L 519.82051 87.509243 
L 516.20027 89.460762 
L 512.58003 87.997123 
L 508.95979 87.67187 
L 505.339549 99.380985 
L 501.719309 101.730511 
L 498.099069 104.16991 
L 494.478829 103.438091 
L 490.858588 102.340361 
L 487.238348 101.608541 
L 483.618108 102.096421 
L 479.997868 98.718792 
L 476.377627 97.255152 
L 472.757387 97.255152 
L 469.137147 96.279393 
L 465.516907 94.892787 
L 461.896666 94.892787 
L 458.276426 97.506429 
L 454.656186 95.201718 
L 451.035946 93.663613 
L 447.415705 100.969613 
L 443.795465 94.576863 
L 440.175225 99.447529 
L 436.554985 102.369929 
L 432.934745 106.753529 
L 429.314504 121.365529 
L 425.694264 117.712529 
L 422.074024 132.324529 
L 418.453784 133.785729 
L 414.833543 135.379766 
L 411.213303 135.379766 
L 407.593063 132.944432 
L 403.972823 132.944432 
L 400.352582 130.022032 
L 396.732342 118.332432 
L 393.112102 115.256222 
L 389.491862 112.983244 
L 385.871621 112.983244 
L 382.251381 112.252644 
L 378.631141 111.522044 
L 375.010901 108.599644 
L 371.39066 108.599644 
L 367.77042 111.256371 
L 364.15018 111.256371 
L 360.52994 111.256371 
L 356.9097 109.718266 
L 353.289459 109.718266 
L 349.669219 106.065266 
L 346.048979 108.152695 
L 342.428739 108.152695 
L 338.808498 100.846695 
L 335.188258 101.151111 
L 331.568018 96.280445 
L 327.947778 95.659678 
L 324.327537 89.80512 
L 320.707297 78.096005 
L 317.087057 79.071764 
L 313.466817 67.813 
L 309.846576 71.228158 
L 306.226336 68.30088 
L 302.606096 58.543284 
L 298.985856 59.031163 
L 295.365615 59.031163 
L 291.745375 73.667557 
L 288.125135 73.323172 
L 284.504895 75.518631 
L 280.884655 77.551463 
L 277.264414 79.990862 
L 273.644174 81.036319 
L 270.023934 82.865868 
L 266.403694 82.865868 
L 262.783453 86.524967 
L 259.163213 83.863804 
L 255.542973 87.241433 
L 251.922733 90.168712 
L 248.302492 97.486909 
L 244.682252 100.414188 
L 241.062012 101.877827 
L 237.441772 101.250553 
L 233.821531 104.668799 
L 230.201291 106.134885 
L 226.581051 105.64619 
L 222.960811 107.84532 
L 219.34057 106.983141 
L 215.72033 107.060175 
L 212.10009 106.384649 
L 208.47985 105.408889 
L 204.85961 102.03126 
L 201.239369 97.152462 
L 197.619129 97.152462 
L 193.998889 99.464289 
L 190.378649 96.532115 
L 186.758408 98.626525 
L 183.138168 91.29609 
L 179.517928 88.708878 
L 175.897688 90.174965 
L 172.277447 86.509747 
L 168.657207 86.360048 
L 165.036967 85.311089 
L 161.416727 83.475411 
L 157.796486 83.475411 
L 154.176246 79.804054 
L 150.556006 87.146768 
L 146.935766 89.631994 
L 143.315525 91.590051 
L 139.695285 91.590051 
L 136.075045 88.652965 
L 132.454805 87.184423 
L 128.834565 85.71588 
L 125.214324 86.512432 
L 121.594084 92.37678 
L 117.973844 91.643737 
L 114.353604 89.444606 
L 110.733363 87.978519 
L 107.113123 86.43527 
L 103.492883 84.179752 
L 99.872643 84.179752 
L 96.252402 87.111925 
L 92.632162 87.111925 
L 89.011922 87.111925 
L 85.391682 84.82072 
L 81.771441 93.602557 
L 78.151201 91.511643 
L 74.530961 89.072244 
L 70.910721 93.951042 
L 67.29048 100.04954 
L 63.67024 100.04954 
L 60.05 101.39359 
z
" clip-path="url(#p73fc243d2c)" style="fill: #5386b6"/>
   </g>
   <g id="PolyCollection_2">
    <path d="M 60.05 62.231111 
L 60.05 101.39359 
L 63.67024 100.04954 
L 67.29048 100.04954 
L 70.910721 93.951042 
L 74.530961 89.072244 
L 78.151201 91.511643 
L 81.771441 93.602557 
L 85.391682 84.82072 
L 89.011922 87.111925 
L 92.632162 87.111925 
L 96.252402 87.111925 
L 99.872643 84.179752 
L 103.492883 84.179752 
L 107.113123 86.43527 
L 110.733363 87.978519 
L 114.353604 89.444606 
L 117.973844 91.643737 
L 121.594084 92.37678 
L 125.214324 86.512432 
L 128.834565 85.71588 
L 132.454805 87.184423 
L 136.075045 88.652965 
L 139.695285 91.590051 
L 143.315525 91.590051 
L 146.935766 89.631994 
L 150.556006 87.146768 
L 154.176246 79.804054 
L 157.796486 83.475411 
L 161.416727 83.475411 
L 165.036967 85.311089 
L 168.657207 86.360048 
L 172.277447 86.509747 
L 175.897688 90.174965 
L 179.517928 88.708878 
L 183.138168 91.29609 
L 186.758408 98.626525 
L 190.378649 96.532115 
L 193.998889 99.464289 
L 197.619129 97.152462 
L 201.239369 97.152462 
L 204.85961 102.03126 
L 208.47985 105.408889 
L 212.10009 106.384649 
L 215.72033 107.060175 
L 219.34057 106.983141 
L 222.960811 107.84532 
L 226.581051 105.64619 
L 230.201291 106.134885 
L 233.821531 104.668799 
L 237.441772 101.250553 
L 241.062012 101.877827 
L 244.682252 100.414188 
L 248.302492 97.486909 
L 251.922733 90.168712 
L 255.542973 87.241433 
L 259.163213 83.863804 
L 262.783453 86.524967 
L 266.403694 82.865868 
L 270.023934 82.865868 
L 273.644174 81.036319 
L 277.264414 79.990862 
L 280.884655 77.551463 
L 284.504895 75.518631 
L 288.125135 73.323172 
L 291.745375 73.667557 
L 295.365615 59.031163 
L 298.985856 59.031163 
L 302.606096 58.543284 
L 306.226336 68.30088 
L 309.846576 71.228158 
L 313.466817 67.813 
L 317.087057 79.071764 
L 320.707297 78.096005 
L 324.327537 89.80512 
L 327.947778 95.659678 
L 331.568018 96.280445 
L 335.188258 101.151111 
L 338.808498 100.846695 
L 342.428739 108.152695 
L 346.048979 108.152695 
L 349.669219 106.065266 
L 353.289459 109.718266 
L 356.9097 109.718266 
L 360.52994 111.256371 
L 364.15018 111.256371 
L 367.77042 111.256371 
L 371.39066 108.599644 
L 375.010901 108.599644 
L 378.631141 111.522044 
L 382.251381 112.252644 
L 385.871621 112.983244 
L 389.491862 112.983244 
L 393.112102 115.256222 
L 396.732342 118.332432 
L 400.352582 130.022032 
L 403.972823 132.944432 
L 407.593063 132.944432 
L 411.213303 135.379766 
L 414.833543 135.379766 
L 418.453784 133.785729 
L 422.074024 132.324529 
L 425.694264 117.712529 
L 429.314504 121.365529 
L 432.934745 106.753529 
L 436.554985 102.369929 
L 440.175225 99.447529 
L 443.795465 94.576863 
L 447.415705 100.969613 
L 451.035946 93.663613 
L 454.656186 95.201718 
L 458.276426 97.506429 
L 461.896666 94.892787 
L 465.516907 94.892787 
L 469.137147 96.279393 
L 472.757387 97.255152 
L 476.377627 97.255152 
L 479.997868 98.718792 
L 483.618108 102.096421 
L 487.238348 101.608541 
L 490.858588 102.340361 
L 494.478829 103.438091 
L 498.099069 104.16991 
L 501.719309 101.730511 
L 505.339549 99.380985 
L 508.95979 87.67187 
L 512.58003 87.997123 
L 516.20027 89.460762 
L 519.82051 87.509243 
L 523.44075 77.751647 
L 527.060991 77.884705 
L 530.681231 80.080164 
L 534.301471 81.543804 
L 537.921711 80.080164 
L 541.541952 80.811984 
L 545.162192 79.348345 
L 548.782432 79.348345 
L 552.402672 79.348345 
L 556.022913 73.570821 
L 559.643153 80.889018 
L 563.263393 80.263119 
L 566.883633 79.315511 
L 570.503874 79.895352 
L 574.124114 79.895352 
L 577.744354 80.625952 
L 581.364594 79.651819 
L 584.984835 83.304819 
L 588.605075 81.843619 
L 592.225315 78.471619 
L 595.845555 77.010419 
L 599.465795 75.549219 
L 603.086036 74.453319 
L 606.706276 74.846719 
L 610.326516 73.385519 
L 613.946756 74.116119 
L 617.566997 76.064386 
L 621.187237 74.904703 
L 624.807477 73.443503 
L 628.427717 72.347603 
L 632.047958 74.539403 
L 635.668198 74.539403 
L 639.288438 72.347603 
L 642.908678 71.617003 
L 646.528919 71.048759 
L 650.149159 70.318159 
L 653.769399 68.856959 
L 657.389639 68.856959 
L 661.00988 69.587559 
L 661.00988 59.537383 
L 661.00988 59.537383 
L 657.389639 58.806783 
L 653.769399 58.806783 
L 650.149159 60.267983 
L 646.528919 60.998583 
L 642.908678 61.566828 
L 639.288438 62.297428 
L 635.668198 64.489228 
L 632.047958 65.219828 
L 628.427717 63.028028 
L 624.807477 64.123928 
L 621.187237 65.585128 
L 617.566997 66.164969 
L 613.946756 64.216703 
L 610.326516 63.486103 
L 606.706276 64.216703 
L 603.086036 63.092703 
L 599.465795 64.188603 
L 595.845555 65.649803 
L 592.225315 64.675669 
L 588.605075 66.923669 
L 584.984835 68.384869 
L 581.364594 66.193069 
L 577.744354 66.193069 
L 574.124114 69.115469 
L 570.503874 69.115469 
L 566.883633 70.159183 
L 563.263393 70.359686 
L 559.643153 70.215248 
L 556.022913 62.897051 
L 552.402672 70.215248 
L 548.782432 70.215248 
L 545.162192 70.215248 
L 541.541952 71.678887 
L 537.921711 70.947068 
L 534.301471 72.410707 
L 530.681231 70.947068 
L 527.060991 68.751608 
L 523.44075 68.61855 
L 519.82051 78.376146 
L 516.20027 80.327666 
L 512.58003 78.864026 
L 508.95979 78.7014 
L 505.339549 90.410515 
L 501.719309 92.760041 
L 498.099069 95.93126 
L 494.478829 95.93126 
L 490.858588 94.101711 
L 487.238348 92.638071 
L 483.618108 95.56535 
L 479.997868 93.313597 
L 476.377627 91.849958 
L 472.757387 91.849958 
L 469.137147 91.849958 
L 465.516907 90.463352 
L 461.896666 90.463352 
L 458.276426 89.417895 
L 454.656186 87.857265 
L 451.035946 87.088213 
L 447.415705 87.088213 
L 443.795465 79.782213 
L 440.175225 84.652879 
L 436.554985 86.114079 
L 432.934745 90.497679 
L 429.314504 105.109679 
L 425.694264 101.456679 
L 422.074024 116.068679 
L 418.453784 116.799279 
L 414.833543 118.393316 
L 411.213303 111.899094 
L 407.593063 109.46376 
L 403.972823 109.46376 
L 400.352582 108.00256 
L 396.732342 96.31296 
L 393.112102 93.23675 
L 389.491862 90.963772 
L 385.871621 90.963772 
L 382.251381 90.963772 
L 378.631141 90.963772 
L 375.010901 88.041372 
L 371.39066 88.041372 
L 367.77042 88.041372 
L 364.15018 88.041372 
L 360.52994 88.041372 
L 356.9097 86.503267 
L 353.289459 86.503267 
L 349.669219 86.503267 
L 346.048979 88.590695 
L 342.428739 88.590695 
L 338.808498 88.590695 
L 335.188258 88.590695 
L 331.568018 83.720029 
L 327.947778 83.810112 
L 324.327537 76.491915 
L 320.707297 64.7828 
L 317.087057 64.7828 
L 313.466817 50.146406 
L 309.846576 51.853985 
L 306.226336 48.926706 
L 302.606096 45.674174 
L 298.985856 43.966595 
L 295.365615 43.966595 
L 291.745375 58.602989 
L 288.125135 56.536675 
L 284.504895 56.536675 
L 280.884655 57.105868 
L 277.264414 59.545267 
L 273.644174 59.545267 
L 270.023934 61.374816 
L 266.403694 61.374816 
L 262.783453 61.374816 
L 259.163213 61.374816 
L 255.542973 63.626569 
L 251.922733 63.626569 
L 248.302492 67.285667 
L 244.682252 67.285667 
L 241.062012 67.285667 
L 237.441772 65.926574 
L 233.821531 67.086618 
L 230.201291 67.819662 
L 226.581051 67.819662 
L 222.960811 68.552705 
L 219.34057 67.024303 
L 215.72033 67.79464 
L 212.10009 64.867361 
L 208.47985 64.867361 
L 204.85961 64.867361 
L 201.239369 62.427962 
L 197.619129 62.427962 
L 193.998889 63.215634 
L 190.378649 62.482591 
L 186.758408 62.482591 
L 183.138168 55.152156 
L 179.517928 54.289752 
L 175.897688 54.289752 
L 172.277447 52.090621 
L 168.657207 49.680455 
L 165.036967 49.680455 
L 161.416727 47.844777 
L 157.796486 47.844777 
L 154.176246 47.844777 
L 150.556006 55.18749 
L 146.935766 52.928194 
L 143.315525 56.191622 
L 139.695285 59.862979 
L 136.075045 59.862979 
L 132.454805 59.862979 
L 128.834565 59.128707 
L 125.214324 57.980031 
L 121.594084 64.577422 
L 117.973844 64.577422 
L 114.353604 63.844378 
L 110.733363 63.844378 
L 107.113123 63.072754 
L 103.492883 63.072754 
L 99.872643 63.072754 
L 96.252402 63.072754 
L 92.632162 63.072754 
L 89.011922 63.072754 
L 85.391682 62.28532 
L 81.771441 62.28532 
L 78.151201 62.28532 
L 74.530961 57.406522 
L 70.910721 57.406522 
L 67.29048 62.28532 
L 63.67024 62.28532 
L 60.05 62.231111 
z
" clip-path="url(#p73fc243d2c)" style="fill: #d57459"/>
   </g>
   <g id="PolyCollection_3">
    <path d="M 60.05 54.925111 
L 60.05 62.231111 
L 63.67024 62.28532 
L 67.29048 62.28532 
L 70.910721 57.406522 
L 74.530961 57.406522 
L 78.151201 62.28532 
L 81.771441 62.28532 
L 85.391682 62.28532 
L 89.011922 63.072754 
L 92.632162 63.072754 
L 96.252402 63.072754 
L 99.872643 63.072754 
L 103.492883 63.072754 
L 107.113123 63.072754 
L 110.733363 63.844378 
L 114.353604 63.844378 
L 117.973844 64.577422 
L 121.594084 64.577422 
L 125.214324 57.980031 
L 128.834565 59.128707 
L 132.454805 59.862979 
L 136.075045 59.862979 
L 139.695285 59.862979 
L 143.315525 56.191622 
L 146.935766 52.928194 
L 150.556006 55.18749 
L 154.176246 47.844777 
L 157.796486 47.844777 
L 161.416727 47.844777 
L 165.036967 49.680455 
L 168.657207 49.680455 
L 172.277447 52.090621 
L 175.897688 54.289752 
L 179.517928 54.289752 
L 183.138168 55.152156 
L 186.758408 62.482591 
L 190.378649 62.482591 
L 193.998889 63.215634 
L 197.619129 62.427962 
L 201.239369 62.427962 
L 204.85961 64.867361 
L 208.47985 64.867361 
L 212.10009 64.867361 
L 215.72033 67.79464 
L 219.34057 67.024303 
L 222.960811 68.552705 
L 226.581051 67.819662 
L 230.201291 67.819662 
L 233.821531 67.086618 
L 237.441772 65.926574 
L 241.062012 67.285667 
L 244.682252 67.285667 
L 248.302492 67.285667 
L 251.922733 63.626569 
L 255.542973 63.626569 
L 259.163213 61.374816 
L 262.783453 61.374816 
L 266.403694 61.374816 
L 270.023934 61.374816 
L 273.644174 59.545267 
L 277.264414 59.545267 
L 280.884655 57.105868 
L 284.504895 56.536675 
L 288.125135 56.536675 
L 291.745375 58.602989 
L 295.365615 43.966595 
L 298.985856 43.966595 
L 302.606096 45.674174 
L 306.226336 48.926706 
L 309.846576 51.853985 
L 313.466817 50.146406 
L 317.087057 64.7828 
L 320.707297 64.7828 
L 324.327537 76.491915 
L 327.947778 83.810112 
L 331.568018 83.720029 
L 335.188258 88.590695 
L 338.808498 88.590695 
L 342.428739 88.590695 
L 346.048979 88.590695 
L 349.669219 86.503267 
L 353.289459 86.503267 
L 356.9097 86.503267 
L 360.52994 88.041372 
L 364.15018 88.041372 
L 367.77042 88.041372 
L 371.39066 88.041372 
L 375.010901 88.041372 
L 378.631141 90.963772 
L 382.251381 90.963772 
L 385.871621 90.963772 
L 389.491862 90.963772 
L 393.112102 93.23675 
L 396.732342 96.31296 
L 400.352582 108.00256 
L 403.972823 109.46376 
L 407.593063 109.46376 
L 411.213303 111.899094 
L 414.833543 118.393316 
L 418.453784 116.799279 
L 422.074024 116.068679 
L 425.694264 101.456679 
L 429.314504 105.109679 
L 432.934745 90.497679 
L 436.554985 86.114079 
L 440.175225 84.652879 
L 443.795465 79.782213 
L 447.415705 87.088213 
L 451.035946 87.088213 
L 454.656186 87.857265 
L 458.276426 89.417895 
L 461.896666 90.463352 
L 465.516907 90.463352 
L 469.137147 91.849958 
L 472.757387 91.849958 
L 476.377627 91.849958 
L 479.997868 93.313597 
L 483.618108 95.56535 
L 487.238348 92.638071 
L 490.858588 94.101711 
L 494.478829 95.93126 
L 498.099069 95.93126 
L 501.719309 92.760041 
L 505.339549 90.410515 
L 508.95979 78.7014 
L 512.58003 78.864026 
L 516.20027 80.327666 
L 519.82051 78.376146 
L 523.44075 68.61855 
L 527.060991 68.751608 
L 530.681231 70.947068 
L 534.301471 72.410707 
L 537.921711 70.947068 
L 541.541952 71.678887 
L 545.162192 70.215248 
L 548.782432 70.215248 
L 552.402672 70.215248 
L 556.022913 62.897051 
L 559.643153 70.215248 
L 563.263393 70.359686 
L 566.883633 70.159183 
L 570.503874 69.115469 
L 574.124114 69.115469 
L 577.744354 66.193069 
L 581.364594 66.193069 
L 584.984835 68.384869 
L 588.605075 66.923669 
L 592.225315 64.675669 
L 595.845555 65.649803 
L 599.465795 64.188603 
L 603.086036 63.092703 
L 606.706276 64.216703 
L 610.326516 63.486103 
L 613.946756 64.216703 
L 617.566997 66.164969 
L 621.187237 65.585128 
L 624.807477 64.123928 
L 628.427717 63.028028 
L 632.047958 65.219828 
L 635.668198 64.489228 
L 639.288438 62.297428 
L 642.908678 61.566828 
L 646.528919 60.998583 
L 650.149159 60.267983 
L 653.769399 58.806783 
L 657.389639 58.806783 
L 661.00988 59.537383 
L 661.00988 59.537383 
L 661.00988 59.537383 
L 657.389639 58.806783 
L 653.769399 58.806783 
L 650.149159 60.267983 
L 646.528919 60.998583 
L 642.908678 61.566828 
L 639.288438 62.297428 
L 635.668198 64.489228 
L 632.047958 65.219828 
L 628.427717 63.028028 
L 624.807477 64.123928 
L 621.187237 65.585128 
L 617.566997 66.164969 
L 613.946756 64.216703 
L 610.326516 63.486103 
L 606.706276 64.216703 
L 603.086036 63.092703 
L 599.465795 64.188603 
L 595.845555 64.188603 
L 592.225315 63.214469 
L 588.605075 65.462469 
L 584.984835 66.193069 
L 581.364594 64.001269 
L 577.744354 64.001269 
L 574.124114 66.193069 
L 570.503874 66.193069 
L 566.883633 67.236783 
L 563.263393 67.432407 
L 559.643153 67.287969 
L 556.022913 59.969772 
L 552.402672 67.287969 
L 548.782432 67.287969 
L 545.162192 67.287969 
L 541.541952 68.751608 
L 537.921711 68.019789 
L 534.301471 69.483428 
L 530.681231 68.019789 
L 527.060991 65.82433 
L 523.44075 65.691272 
L 519.82051 75.448868 
L 516.20027 77.400387 
L 512.58003 75.936747 
L 508.95979 75.042301 
L 505.339549 86.751416 
L 501.719309 88.330606 
L 498.099069 91.501825 
L 494.478829 91.501825 
L 490.858588 89.672276 
L 487.238348 89.672276 
L 483.618108 90.404095 
L 479.997868 88.152342 
L 476.377627 87.420523 
L 472.757387 87.420523 
L 469.137147 87.420523 
L 465.516907 85.9954 
L 461.896666 85.9954 
L 458.276426 84.949943 
L 454.656186 83.39676 
L 451.035946 82.627707 
L 447.415705 82.627707 
L 443.795465 75.321707 
L 440.175225 75.321707 
L 436.554985 76.782907 
L 432.934745 81.166507 
L 429.314504 95.778507 
L 425.694264 92.125507 
L 422.074024 92.125507 
L 418.453784 92.125507 
L 414.833543 93.719544 
L 411.213303 85.601766 
L 407.593063 83.166433 
L 403.972823 83.166433 
L 400.352582 82.435833 
L 396.732342 70.746233 
L 393.112102 68.439075 
L 389.491862 66.166097 
L 385.871621 66.166097 
L 382.251381 66.166097 
L 378.631141 66.166097 
L 375.010901 65.435497 
L 371.39066 65.435497 
L 367.77042 65.435497 
L 364.15018 65.435497 
L 360.52994 65.435497 
L 356.9097 64.666444 
L 353.289459 64.666444 
L 349.669219 64.666444 
L 346.048979 66.753873 
L 342.428739 66.753873 
L 338.808498 66.753873 
L 335.188258 66.753873 
L 331.568018 66.753873 
L 327.947778 66.083813 
L 324.327537 58.765616 
L 320.707297 47.056501 
L 317.087057 47.056501 
L 313.466817 47.056501 
L 309.846576 47.056501 
L 306.226336 44.129222 
L 302.606096 42.502956 
L 298.985856 40.063557 
L 295.365615 40.063557 
L 291.745375 40.063557 
L 288.125135 37.997242 
L 284.504895 37.997242 
L 280.884655 37.102796 
L 277.264414 39.542195 
L 273.644174 39.542195 
L 270.023934 41.371744 
L 266.403694 41.371744 
L 262.783453 41.371744 
L 259.163213 41.371744 
L 255.542973 43.623497 
L 251.922733 43.623497 
L 248.302492 47.282596 
L 244.682252 47.282596 
L 241.062012 47.282596 
L 237.441772 45.191682 
L 233.821531 45.217488 
L 230.201291 45.950531 
L 226.581051 45.950531 
L 222.960811 46.683575 
L 219.34057 45.923502 
L 215.72033 46.693838 
L 212.10009 43.76656 
L 208.47985 43.76656 
L 204.85961 43.76656 
L 201.239369 43.76656 
L 197.619129 43.76656 
L 193.998889 43.789982 
L 190.378649 43.789982 
L 186.758408 43.789982 
L 183.138168 51.120417 
L 179.517928 50.258013 
L 175.897688 50.258013 
L 172.277447 49.524969 
L 168.657207 47.110505 
L 165.036967 47.110505 
L 161.416727 45.274827 
L 157.796486 45.274827 
L 154.176246 45.274827 
L 150.556006 52.61754 
L 146.935766 50.358244 
L 143.315525 53.621672 
L 139.695285 57.293029 
L 136.075045 57.293029 
L 132.454805 57.293029 
L 128.834565 57.293029 
L 125.214324 57.246987 
L 121.594084 63.844378 
L 117.973844 63.844378 
L 114.353604 63.111335 
L 110.733363 63.111335 
L 107.113123 62.33971 
L 103.492883 62.33971 
L 99.872643 62.33971 
L 96.252402 62.33971 
L 92.632162 62.33971 
L 89.011922 62.33971 
L 85.391682 62.28532 
L 81.771441 62.28532 
L 78.151201 62.28532 
L 74.530961 54.967123 
L 70.910721 54.967123 
L 67.29048 54.967123 
L 63.67024 54.967123 
L 60.05 54.925111 
z
" clip-path="url(#p73fc243d2c)" style="fill: #e8bc60"/>
   </g>
   <g id="PolyCollection_4">
    <path d="M 60.05 29.76 
L 60.05 54.925111 
L 63.67024 54.967123 
L 67.29048 54.967123 
L 70.910721 54.967123 
L 74.530961 54.967123 
L 78.151201 62.28532 
L 81.771441 62.28532 
L 85.391682 62.28532 
L 89.011922 62.33971 
L 92.632162 62.33971 
L 96.252402 62.33971 
L 99.872643 62.33971 
L 103.492883 62.33971 
L 107.113123 62.33971 
L 110.733363 63.111335 
L 114.353604 63.111335 
L 117.973844 63.844378 
L 121.594084 63.844378 
L 125.214324 57.246987 
L 128.834565 57.293029 
L 132.454805 57.293029 
L 136.075045 57.293029 
L 139.695285 57.293029 
L 143.315525 53.621672 
L 146.935766 50.358244 
L 150.556006 52.61754 
L 154.176246 45.274827 
L 157.796486 45.274827 
L 161.416727 45.274827 
L 165.036967 47.110505 
L 168.657207 47.110505 
L 172.277447 49.524969 
L 175.897688 50.258013 
L 179.517928 50.258013 
L 183.138168 51.120417 
L 186.758408 43.789982 
L 190.378649 43.789982 
L 193.998889 43.789982 
L 197.619129 43.76656 
L 201.239369 43.76656 
L 204.85961 43.76656 
L 208.47985 43.76656 
L 212.10009 43.76656 
L 215.72033 46.693838 
L 219.34057 45.923502 
L 222.960811 46.683575 
L 226.581051 45.950531 
L 230.201291 45.950531 
L 233.821531 45.217488 
L 237.441772 45.191682 
L 241.062012 47.282596 
L 244.682252 47.282596 
L 248.302492 47.282596 
L 251.922733 43.623497 
L 255.542973 43.623497 
L 259.163213 41.371744 
L 262.783453 41.371744 
L 266.403694 41.371744 
L 270.023934 41.371744 
L 273.644174 39.542195 
L 277.264414 39.542195 
L 280.884655 37.102796 
L 284.504895 37.997242 
L 288.125135 37.997242 
L 291.745375 40.063557 
L 295.365615 40.063557 
L 298.985856 40.063557 
L 302.606096 42.502956 
L 306.226336 44.129222 
L 309.846576 47.056501 
L 313.466817 47.056501 
L 317.087057 47.056501 
L 320.707297 47.056501 
L 324.327537 58.765616 
L 327.947778 66.083813 
L 331.568018 66.753873 
L 335.188258 66.753873 
L 338.808498 66.753873 
L 342.428739 66.753873 
L 346.048979 66.753873 
L 349.669219 64.666444 
L 353.289459 64.666444 
L 356.9097 64.666444 
L 360.52994 65.435497 
L 364.15018 65.435497 
L 367.77042 65.435497 
L 371.39066 65.435497 
L 375.010901 65.435497 
L 378.631141 66.166097 
L 382.251381 66.166097 
L 385.871621 66.166097 
L 389.491862 66.166097 
L 393.112102 68.439075 
L 396.732342 70.746233 
L 400.352582 82.435833 
L 403.972823 83.166433 
L 407.593063 83.166433 
L 411.213303 85.601766 
L 414.833543 93.719544 
L 418.453784 92.125507 
L 422.074024 92.125507 
L 425.694264 92.125507 
L 429.314504 95.778507 
L 432.934745 81.166507 
L 436.554985 76.782907 
L 440.175225 75.321707 
L 443.795465 75.321707 
L 447.415705 82.627707 
L 451.035946 82.627707 
L 454.656186 83.39676 
L 458.276426 84.949943 
L 461.896666 85.9954 
L 465.516907 85.9954 
L 469.137147 87.420523 
L 472.757387 87.420523 
L 476.377627 87.420523 
L 479.997868 88.152342 
L 483.618108 90.404095 
L 487.238348 89.672276 
L 490.858588 89.672276 
L 494.478829 91.501825 
L 498.099069 91.501825 
L 501.719309 88.330606 
L 505.339549 86.751416 
L 508.95979 75.042301 
L 512.58003 75.936747 
L 516.20027 77.400387 
L 519.82051 75.448868 
L 523.44075 65.691272 
L 527.060991 65.82433 
L 530.681231 68.019789 
L 534.301471 69.483428 
L 537.921711 68.019789 
L 541.541952 68.751608 
L 545.162192 67.287969 
L 548.782432 67.287969 
L 552.402672 67.287969 
L 556.022913 59.969772 
L 559.643153 67.287969 
L 563.263393 67.432407 
L 566.883633 67.236783 
L 570.503874 66.193069 
L 574.124114 66.193069 
L 577.744354 64.001269 
L 581.364594 64.001269 
L 584.984835 66.193069 
L 588.605075 65.462469 
L 592.225315 63.214469 
L 595.845555 64.188603 
L 599.465795 64.188603 
L 603.086036 63.092703 
L 606.706276 64.216703 
L 610.326516 63.486103 
L 613.946756 64.216703 
L 617.566997 66.164969 
L 621.187237 65.585128 
L 624.807477 64.123928 
L 628.427717 63.028028 
L 632.047958 65.219828 
L 635.668198 64.489228 
L 639.288438 62.297428 
L 642.908678 61.566828 
L 646.528919 60.998583 
L 650.149159 60.267983 
L 653.769399 58.806783 
L 657.389639 58.806783 
L 661.00988 59.537383 
L 661.00988 29.76 
L 661.00988 29.76 
L 657.389639 29.76 
L 653.769399 29.76 
L 650.149159 29.76 
L 646.528919 29.76 
L 642.908678 29.76 
L 639.288438 29.76 
L 635.668198 29.76 
L 632.047958 29.76 
L 628.427717 29.76 
L 624.807477 29.76 
L 621.187237 29.76 
L 617.566997 29.76 
L 613.946756 29.76 
L 610.326516 29.76 
L 606.706276 29.76 
L 603.086036 29.76 
L 599.465795 29.76 
L 595.845555 29.76 
L 592.225315 29.76 
L 588.605075 29.76 
L 584.984835 29.76 
L 581.364594 29.76 
L 577.744354 29.76 
L 574.124114 29.76 
L 570.503874 29.76 
L 566.883633 29.76 
L 563.263393 29.76 
L 559.643153 29.76 
L 556.022913 29.76 
L 552.402672 29.76 
L 548.782432 29.76 
L 545.162192 29.76 
L 541.541952 29.76 
L 537.921711 29.76 
L 534.301471 29.76 
L 530.681231 29.76 
L 527.060991 29.76 
L 523.44075 29.76 
L 519.82051 29.76 
L 516.20027 29.76 
L 512.58003 29.76 
L 508.95979 29.76 
L 505.339549 29.76 
L 501.719309 29.76 
L 498.099069 29.76 
L 494.478829 29.76 
L 490.858588 29.76 
L 487.238348 29.76 
L 483.618108 29.76 
L 479.997868 29.76 
L 476.377627 29.76 
L 472.757387 29.76 
L 469.137147 29.76 
L 465.516907 29.76 
L 461.896666 29.76 
L 458.276426 29.76 
L 454.656186 29.76 
L 451.035946 29.76 
L 447.415705 29.76 
L 443.795465 29.76 
L 440.175225 29.76 
L 436.554985 29.76 
L 432.934745 29.76 
L 429.314504 29.76 
L 425.694264 29.76 
L 422.074024 29.76 
L 418.453784 29.76 
L 414.833543 29.76 
L 411.213303 29.76 
L 407.593063 29.76 
L 403.972823 29.76 
L 400.352582 29.76 
L 396.732342 29.76 
L 393.112102 29.76 
L 389.491862 29.76 
L 385.871621 29.76 
L 382.251381 29.76 
L 378.631141 29.76 
L 375.010901 29.76 
L 371.39066 29.76 
L 367.77042 29.76 
L 364.15018 29.76 
L 360.52994 29.76 
L 356.9097 29.76 
L 353.289459 29.76 
L 349.669219 29.76 
L 346.048979 29.76 
L 342.428739 29.76 
L 338.808498 29.76 
L 335.188258 29.76 
L 331.568018 29.76 
L 327.947778 29.76 
L 324.327537 29.76 
L 320.707297 29.76 
L 317.087057 29.76 
L 313.466817 29.76 
L 309.846576 29.76 
L 306.226336 29.76 
L 302.606096 29.76 
L 298.985856 29.76 
L 295.365615 29.76 
L 291.745375 29.76 
L 288.125135 29.76 
L 284.504895 29.76 
L 280.884655 29.76 
L 277.264414 29.76 
L 273.644174 29.76 
L 270.023934 29.76 
L 266.403694 29.76 
L 262.783453 29.76 
L 259.163213 29.76 
L 255.542973 29.76 
L 251.922733 29.76 
L 248.302492 29.76 
L 244.682252 29.76 
L 241.062012 29.76 
L 237.441772 29.76 
L 233.821531 29.76 
L 230.201291 29.76 
L 226.581051 29.76 
L 222.960811 29.76 
L 219.34057 29.76 
L 215.72033 29.76 
L 212.10009 29.76 
L 208.47985 29.76 
L 204.85961 29.76 
L 201.239369 29.76 
L 197.619129 29.76 
L 193.998889 29.76 
L 190.378649 29.76 
L 186.758408 29.76 
L 183.138168 29.76 
L 179.517928 29.76 
L 175.897688 29.76 
L 172.277447 29.76 
L 168.657207 29.76 
L 165.036967 29.76 
L 161.416727 29.76 
L 157.796486 29.76 
L 154.176246 29.76 
L 150.556006 29.76 
L 146.935766 29.76 
L 143.315525 29.76 
L 139.695285 29.76 
L 136.075045 29.76 
L 132.454805 29.76 
L 128.834565 29.76 
L 125.214324 29.76 
L 121.594084 29.76 
L 117.973844 29.76 
L 114.353604 29.76 
L 110.733363 29.76 
L 107.113123 29.76 
L 103.492883 29.76 
L 99.872643 29.76 
L 96.252402 29.76 
L 92.632162 29.76 
L 89.011922 29.76 
L 85.391682 29.76 
L 81.771441 29.76 
L 78.151201 29.76 
L 74.530961 29.76 
L 70.910721 29.76 
L 67.29048 29.76 
L 63.67024 29.76 
L 60.05 29.76 
z
" clip-path="url(#p73fc243d2c)" style="fill: #8d5993"/>
   </g>
   <g id="matplotlib.axis_1">
    <g id="xtick_1">
     <g id="line2d_1">
      <defs>
       <path id="m67771996db" d="M 0 0 
L 0 3.5 
" style="stroke: #000000; stroke-width: 0.8"/>
      </defs>
      <g>
       <use xlink:href="#m67771996db" x="128.834565" y="468.12" style="stroke: #000000; stroke-width: 0.8"/>
      </g>
     </g>
     <g id="text_1">
      <!-- 20 -->
      <g transform="translate(122.472065 482.718438) scale(0.1 -0.1)">
       <defs>
        <path id="DejaVuSans-32" d="M 1228 531 
L 3431 531 
L 3431 0 
L 469 0 
L 469 531 
Q 828 903 1448 1529 
Q 2069 2156 2228 2338 
Q 2531 2678 2651 2914 
Q 2772 3150 2772 3378 
Q 2772 3750 2511 3984 
Q 2250 4219 1831 4219 
Q 1534 4219 1204 4116 
Q 875 4013 500 3803 
L 500 4441 
Q 881 4594 1212 4672 
Q 1544 4750 1819 4750 
Q 2544 4750 2975 4387 
Q 3406 4025 3406 3419 
Q 3406 3131 3298 2873 
Q 3191 2616 2906 2266 
Q 2828 2175 2409 1742 
Q 1991 1309 1228 531 
z
" transform="scale(0.015625)"/>
        <path id="DejaVuSans-30" d="M 2034 4250 
Q 1547 4250 1301 3770 
Q 1056 3291 1056 2328 
Q 1056 1369 1301 889 
Q 1547 409 2034 409 
Q 2525 409 2770 889 
Q 3016 1369 3016 2328 
Q 3016 3291 2770 3770 
Q 2525 4250 2034 4250 
z
M 2034 4750 
Q 2819 4750 3233 4129 
Q 3647 3509 3647 2328 
Q 3647 1150 3233 529 
Q 2819 -91 2034 -91 
Q 1250 -91 836 529 
Q 422 1150 422 2328 
Q 422 3509 836 4129 
Q 1250 4750 2034 4750 
z
" transform="scale(0.015625)"/>
       </defs>
       <use xlink:href="#DejaVuSans-32"/>
       <use xlink:href="#DejaVuSans-30" x="63.623047"/>
      </g>
     </g>
    </g>
    <g id="xtick_2">
     <g id="line2d_2">
      <g>
       <use xlink:href="#m67771996db" x="201.239369" y="468.12" style="stroke: #000000; stroke-width: 0.8"/>
      </g>
     </g>
     <g id="text_2">
      <!-- 40 -->
      <g transform="translate(194.876869 482.718438) scale(0.1 -0.1)">
       <defs>
        <path id="DejaVuSans-34" d="M 2419 4116 
L 825 1625 
L 2419 1625 
L 2419 4116 
z
M 2253 4666 
L 3047 4666 
L 3047 1625 
L 3713 1625 
L 3713 1100 
L 3047 1100 
L 3047 0 
L 2419 0 
L 2419 1100 
L 313 1100 
L 313 1709 
L 2253 4666 
z
" transform="scale(0.015625)"/>
       </defs>
       <use xlink:href="#DejaVuSans-34"/>
       <use xlink:href="#DejaVuSans-30" x="63.623047"/>
      </g>
     </g>
    </g>
    <g id="xtick_3">
     <g id="line2d_3">
      <g>
       <use xlink:href="#m67771996db" x="273.644174" y="468.12" style="stroke: #000000; stroke-width: 0.8"/>
      </g>
     </g>
     <g id="text_3">
      <!-- 60 -->
      <g transform="translate(267.281674 482.718438) scale(0.1 -0.1)">
       <defs>
        <path id="DejaVuSans-36" d="M 2113 2584 
Q 1688 2584 1439 2293 
Q 1191 2003 1191 1497 
Q 1191 994 1439 701 
Q 1688 409 2113 409 
Q 2538 409 2786 701 
Q 3034 994 3034 1497 
Q 3034 2003 2786 2293 
Q 2538 2584 2113 2584 
z
M 3366 4563 
L 3366 3988 
Q 3128 4100 2886 4159 
Q 2644 4219 2406 4219 
Q 1781 4219 1451 3797 
Q 1122 3375 1075 2522 
Q 1259 2794 1537 2939 
Q 1816 3084 2150 3084 
Q 2853 3084 3261 2657 
Q 3669 2231 3669 1497 
Q 3669 778 3244 343 
Q 2819 -91 2113 -91 
Q 1303 -91 875 529 
Q 447 1150 447 2328 
Q 447 3434 972 4092 
Q 1497 4750 2381 4750 
Q 2619 4750 2861 4703 
Q 3103 4656 3366 4563 
z
" transform="scale(0.015625)"/>
       </defs>
       <use xlink:href="#DejaVuSans-36"/>
       <use xlink:href="#DejaVuSans-30" x="63.623047"/>
      </g>
     </g>
    </g>
    <g id="xtick_4">
     <g id="line2d_4">
      <g>
       <use xlink:href="#m67771996db" x="346.048979" y="468.12" style="stroke: #000000; stroke-width: 0.8"/>
      </g>
     </g>
     <g id="text_4">
      <!-- 80 -->
      <g transform="translate(339.686479 482.718438) scale(0.1 -0.1)">
       <defs>
        <path id="DejaVuSans-38" d="M 2034 2216 
Q 1584 2216 1326 1975 
Q 1069 1734 1069 1313 
Q 1069 891 1326 650 
Q 1584 409 2034 409 
Q 2484 409 2743 651 
Q 3003 894 3003 1313 
Q 3003 1734 2745 1975 
Q 2488 2216 2034 2216 
z
M 1403 2484 
Q 997 2584 770 2862 
Q 544 3141 544 3541 
Q 544 4100 942 4425 
Q 1341 4750 2034 4750 
Q 2731 4750 3128 4425 
Q 3525 4100 3525 3541 
Q 3525 3141 3298 2862 
Q 3072 2584 2669 2484 
Q 3125 2378 3379 2068 
Q 3634 1759 3634 1313 
Q 3634 634 3220 271 
Q 2806 -91 2034 -91 
Q 1263 -91 848 271 
Q 434 634 434 1313 
Q 434 1759 690 2068 
Q 947 2378 1403 2484 
z
M 1172 3481 
Q 1172 3119 1398 2916 
Q 1625 2713 2034 2713 
Q 2441 2713 2670 2916 
Q 2900 3119 2900 3481 
Q 2900 3844 2670 4047 
Q 2441 4250 2034 4250 
Q 1625 4250 1398 4047 
Q 1172 3844 1172 3481 
z
" transform="scale(0.015625)"/>
       </defs>
       <use xlink:href="#DejaVuSans-38"/>
       <use xlink:href="#DejaVuSans-30" x="63.623047"/>
      </g>
     </g>
    </g>
    <g id="xtick_5">
     <g id="line2d_5">
      <g>
       <use xlink:href="#m67771996db" x="418.453784" y="468.12" style="stroke: #000000; stroke-width: 0.8"/>
      </g>
     </g>
     <g id="text_5">
      <!-- 100 -->
      <g transform="translate(408.910034 482.718438) scale(0.1 -0.1)">
       <defs>
        <path id="DejaVuSans-31" d="M 794 531 
L 1825 531 
L 1825 4091 
L 703 3866 
L 703 4441 
L 1819 4666 
L 2450 4666 
L 2450 531 
L 3481 531 
L 3481 0 
L 794 0 
L 794 531 
z
" transform="scale(0.015625)"/>
       </defs>
       <use xlink:href="#DejaVuSans-31"/>
       <use xlink:href="#DejaVuSans-30" x="63.623047"/>
       <use xlink:href="#DejaVuSans-30" x="127.246094"/>
      </g>
     </g>
    </g>
    <g id="xtick_6">
     <g id="line2d_6">
      <g>
       <use xlink:href="#m67771996db" x="490.858588" y="468.12" style="stroke: #000000; stroke-width: 0.8"/>
      </g>
     </g>
     <g id="text_6">
      <!-- 120 -->
      <g transform="translate(481.314838 482.718438) scale(0.1 -0.1)">
       <use xlink:href="#DejaVuSans-31"/>
       <use xlink:href="#DejaVuSans-32" x="63.623047"/>
       <use xlink:href="#DejaVuSans-30" x="127.246094"/>
      </g>
     </g>
    </g>
    <g id="xtick_7">
     <g id="line2d_7">
      <g>
       <use xlink:href="#m67771996db" x="563.263393" y="468.12" style="stroke: #000000; stroke-width: 0.8"/>
      </g>
     </g>
     <g id="text_7">
      <!-- 140 -->
      <g transform="translate(553.719643 482.718438) scale(0.1 -0.1)">
       <use xlink:href="#DejaVuSans-31"/>
       <use xlink:href="#DejaVuSans-34" x="63.623047"/>
       <use xlink:href="#DejaVuSans-30" x="127.246094"/>
      </g>
     </g>
    </g>
    <g id="xtick_8">
     <g id="line2d_8">
      <g>
       <use xlink:href="#m67771996db" x="635.668198" y="468.12" style="stroke: #000000; stroke-width: 0.8"/>
      </g>
     </g>
     <g id="text_8">
      <!-- 160 -->
      <g transform="translate(626.124448 482.718438) scale(0.1 -0.1)">
       <use xlink:href="#DejaVuSans-31"/>
       <use xlink:href="#DejaVuSans-36" x="63.623047"/>
       <use xlink:href="#DejaVuSans-30" x="127.246094"/>
      </g>
     </g>
    </g>
    <g id="text_9">
     <!-- Session Count -->
     <g transform="translate(320.272284 498.519375) scale(0.14 -0.14)">
      <defs>
       <path id="TimesNewRomanPSMT-53" d="M 2934 4334 
L 2934 2869 
L 2819 2869 
Q 2763 3291 2617 3541 
Q 2472 3791 2203 3937 
Q 1934 4084 1647 4084 
Q 1322 4084 1109 3886 
Q 897 3688 897 3434 
Q 897 3241 1031 3081 
Q 1225 2847 1953 2456 
Q 2547 2138 2764 1967 
Q 2981 1797 3098 1565 
Q 3216 1334 3216 1081 
Q 3216 600 2842 251 
Q 2469 -97 1881 -97 
Q 1697 -97 1534 -69 
Q 1438 -53 1133 45 
Q 828 144 747 144 
Q 669 144 623 97 
Q 578 50 556 -97 
L 441 -97 
L 441 1356 
L 556 1356 
Q 638 900 775 673 
Q 913 447 1195 297 
Q 1478 147 1816 147 
Q 2206 147 2432 353 
Q 2659 559 2659 841 
Q 2659 997 2573 1156 
Q 2488 1316 2306 1453 
Q 2184 1547 1640 1851 
Q 1097 2156 867 2337 
Q 638 2519 519 2737 
Q 400 2956 400 3219 
Q 400 3675 750 4004 
Q 1100 4334 1641 4334 
Q 1978 4334 2356 4169 
Q 2531 4091 2603 4091 
Q 2684 4091 2736 4139 
Q 2788 4188 2819 4334 
L 2934 4334 
z
" transform="scale(0.015625)"/>
       <path id="TimesNewRomanPSMT-65" d="M 681 1784 
Q 678 1147 991 784 
Q 1303 422 1725 422 
Q 2006 422 2214 576 
Q 2422 731 2563 1106 
L 2659 1044 
Q 2594 616 2278 264 
Q 1963 -88 1488 -88 
Q 972 -88 605 314 
Q 238 716 238 1394 
Q 238 2128 614 2539 
Q 991 2950 1559 2950 
Q 2041 2950 2350 2633 
Q 2659 2316 2659 1784 
L 681 1784 
z
M 681 1966 
L 2006 1966 
Q 1991 2241 1941 2353 
Q 1863 2528 1708 2628 
Q 1553 2728 1384 2728 
Q 1125 2728 920 2526 
Q 716 2325 681 1966 
z
" transform="scale(0.015625)"/>
       <path id="TimesNewRomanPSMT-73" d="M 2050 2947 
L 2050 1972 
L 1947 1972 
Q 1828 2431 1642 2597 
Q 1456 2763 1169 2763 
Q 950 2763 815 2647 
Q 681 2531 681 2391 
Q 681 2216 781 2091 
Q 878 1963 1175 1819 
L 1631 1597 
Q 2266 1288 2266 781 
Q 2266 391 1970 151 
Q 1675 -88 1309 -88 
Q 1047 -88 709 6 
Q 606 38 541 38 
Q 469 38 428 -44 
L 325 -44 
L 325 978 
L 428 978 
Q 516 541 762 319 
Q 1009 97 1316 97 
Q 1531 97 1667 223 
Q 1803 350 1803 528 
Q 1803 744 1651 891 
Q 1500 1038 1047 1263 
Q 594 1488 453 1669 
Q 313 1847 313 2119 
Q 313 2472 555 2709 
Q 797 2947 1181 2947 
Q 1350 2947 1591 2875 
Q 1750 2828 1803 2828 
Q 1853 2828 1881 2850 
Q 1909 2872 1947 2947 
L 2050 2947 
z
" transform="scale(0.015625)"/>
       <path id="TimesNewRomanPSMT-69" d="M 928 4444 
Q 1059 4444 1151 4351 
Q 1244 4259 1244 4128 
Q 1244 3997 1151 3903 
Q 1059 3809 928 3809 
Q 797 3809 703 3903 
Q 609 3997 609 4128 
Q 609 4259 701 4351 
Q 794 4444 928 4444 
z
M 1188 2947 
L 1188 647 
Q 1188 378 1227 289 
Q 1266 200 1342 156 
Q 1419 113 1622 113 
L 1622 0 
L 231 0 
L 231 113 
Q 441 113 512 153 
Q 584 194 626 287 
Q 669 381 669 647 
L 669 1750 
Q 669 2216 641 2353 
Q 619 2453 572 2492 
Q 525 2531 444 2531 
Q 356 2531 231 2484 
L 188 2597 
L 1050 2947 
L 1188 2947 
z
" transform="scale(0.015625)"/>
       <path id="TimesNewRomanPSMT-6f" d="M 1600 2947 
Q 2250 2947 2644 2453 
Q 2978 2031 2978 1484 
Q 2978 1100 2793 706 
Q 2609 313 2286 112 
Q 1963 -88 1566 -88 
Q 919 -88 538 428 
Q 216 863 216 1403 
Q 216 1797 411 2186 
Q 606 2575 925 2761 
Q 1244 2947 1600 2947 
z
M 1503 2744 
Q 1338 2744 1170 2645 
Q 1003 2547 900 2300 
Q 797 2053 797 1666 
Q 797 1041 1045 587 
Q 1294 134 1700 134 
Q 2003 134 2200 384 
Q 2397 634 2397 1244 
Q 2397 2006 2069 2444 
Q 1847 2744 1503 2744 
z
" transform="scale(0.015625)"/>
       <path id="TimesNewRomanPSMT-6e" d="M 1034 2341 
Q 1538 2947 1994 2947 
Q 2228 2947 2397 2830 
Q 2566 2713 2666 2444 
Q 2734 2256 2734 1869 
L 2734 647 
Q 2734 375 2778 278 
Q 2813 200 2889 156 
Q 2966 113 3172 113 
L 3172 0 
L 1756 0 
L 1756 113 
L 1816 113 
Q 2016 113 2095 173 
Q 2175 234 2206 353 
Q 2219 400 2219 647 
L 2219 1819 
Q 2219 2209 2117 2386 
Q 2016 2563 1775 2563 
Q 1403 2563 1034 2156 
L 1034 647 
Q 1034 356 1069 288 
Q 1113 197 1189 155 
Q 1266 113 1500 113 
L 1500 0 
L 84 0 
L 84 113 
L 147 113 
Q 366 113 442 223 
Q 519 334 519 647 
L 519 1709 
Q 519 2225 495 2337 
Q 472 2450 423 2490 
Q 375 2531 294 2531 
Q 206 2531 84 2484 
L 38 2597 
L 900 2947 
L 1034 2947 
L 1034 2341 
z
" transform="scale(0.015625)"/>
       <path id="TimesNewRomanPSMT-20" transform="scale(0.015625)"/>
       <path id="TimesNewRomanPSMT-43" d="M 3853 4334 
L 3950 2894 
L 3853 2894 
Q 3659 3541 3300 3825 
Q 2941 4109 2438 4109 
Q 2016 4109 1675 3895 
Q 1334 3681 1139 3212 
Q 944 2744 944 2047 
Q 944 1472 1128 1050 
Q 1313 628 1683 403 
Q 2053 178 2528 178 
Q 2941 178 3256 354 
Q 3572 531 3950 1056 
L 4047 994 
Q 3728 428 3303 165 
Q 2878 -97 2294 -97 
Q 1241 -97 663 684 
Q 231 1266 231 2053 
Q 231 2688 515 3219 
Q 800 3750 1298 4042 
Q 1797 4334 2388 4334 
Q 2847 4334 3294 4109 
Q 3425 4041 3481 4041 
Q 3566 4041 3628 4100 
Q 3709 4184 3744 4334 
L 3853 4334 
z
" transform="scale(0.015625)"/>
       <path id="TimesNewRomanPSMT-75" d="M 2709 2863 
L 2709 1128 
Q 2709 631 2732 520 
Q 2756 409 2807 365 
Q 2859 322 2928 322 
Q 3025 322 3147 375 
L 3191 266 
L 2334 -88 
L 2194 -88 
L 2194 519 
Q 1825 119 1631 15 
Q 1438 -88 1222 -88 
Q 981 -88 804 51 
Q 628 191 559 409 
Q 491 628 491 1028 
L 491 2306 
Q 491 2509 447 2587 
Q 403 2666 317 2708 
Q 231 2750 6 2747 
L 6 2863 
L 1009 2863 
L 1009 947 
Q 1009 547 1148 422 
Q 1288 297 1484 297 
Q 1619 297 1789 381 
Q 1959 466 2194 703 
L 2194 2325 
Q 2194 2569 2105 2655 
Q 2016 2741 1734 2747 
L 1734 2863 
L 2709 2863 
z
" transform="scale(0.015625)"/>
       <path id="TimesNewRomanPSMT-74" d="M 1031 3803 
L 1031 2863 
L 1700 2863 
L 1700 2644 
L 1031 2644 
L 1031 788 
Q 1031 509 1111 412 
Q 1191 316 1316 316 
Q 1419 316 1516 380 
Q 1613 444 1666 569 
L 1788 569 
Q 1678 263 1478 108 
Q 1278 -47 1066 -47 
Q 922 -47 784 33 
Q 647 113 581 261 
Q 516 409 516 719 
L 516 2644 
L 63 2644 
L 63 2747 
Q 234 2816 414 2980 
Q 594 3144 734 3369 
Q 806 3488 934 3803 
L 1031 3803 
z
" transform="scale(0.015625)"/>
      </defs>
      <use xlink:href="#TimesNewRomanPSMT-53"/>
      <use xlink:href="#TimesNewRomanPSMT-65" x="55.615234"/>
      <use xlink:href="#TimesNewRomanPSMT-73" x="100"/>
      <use xlink:href="#TimesNewRomanPSMT-73" x="138.916016"/>
      <use xlink:href="#TimesNewRomanPSMT-69" x="177.832031"/>
      <use xlink:href="#TimesNewRomanPSMT-6f" x="205.615234"/>
      <use xlink:href="#TimesNewRomanPSMT-6e" x="255.615234"/>
      <use xlink:href="#TimesNewRomanPSMT-20" x="305.615234"/>
      <use xlink:href="#TimesNewRomanPSMT-43" x="330.615234"/>
      <use xlink:href="#TimesNewRomanPSMT-6f" x="397.314453"/>
      <use xlink:href="#TimesNewRomanPSMT-75" x="447.314453"/>
      <use xlink:href="#TimesNewRomanPSMT-6e" x="497.314453"/>
      <use xlink:href="#TimesNewRomanPSMT-74" x="547.314453"/>
     </g>
    </g>
   </g>
   <g id="matplotlib.axis_2">
    <g id="ytick_1">
     <g id="line2d_9">
      <defs>
       <path id="ma53e3d54b2" d="M 0 0 
L -3.5 0 
" style="stroke: #000000; stroke-width: 0.8"/>
      </defs>
      <g>
       <use xlink:href="#ma53e3d54b2" x="60.05" y="468.12" style="stroke: #000000; stroke-width: 0.8"/>
      </g>
     </g>
     <g id="text_10">
      <!-- 0 -->
      <g transform="translate(46.6875 471.919219) scale(0.1 -0.1)">
       <use xlink:href="#DejaVuSans-30"/>
      </g>
     </g>
    </g>
    <g id="ytick_2">
     <g id="line2d_10">
      <g>
       <use xlink:href="#ma53e3d54b2" x="60.05" y="29.76" style="stroke: #000000; stroke-width: 0.8"/>
      </g>
     </g>
     <g id="text_11">
      <!-- 1 -->
      <g transform="translate(46.6875 33.559219) scale(0.1 -0.1)">
       <use xlink:href="#DejaVuSans-31"/>
      </g>
     </g>
    </g>
    <g id="text_12">
     <!-- Stacked Proportion -->
     <g transform="translate(39.692812 302.792969) rotate(-90) scale(0.14 -0.14)">
      <defs>
       <path id="TimesNewRomanPSMT-61" d="M 1822 413 
Q 1381 72 1269 19 
Q 1100 -59 909 -59 
Q 613 -59 420 144 
Q 228 347 228 678 
Q 228 888 322 1041 
Q 450 1253 767 1440 
Q 1084 1628 1822 1897 
L 1822 2009 
Q 1822 2438 1686 2597 
Q 1550 2756 1291 2756 
Q 1094 2756 978 2650 
Q 859 2544 859 2406 
L 866 2225 
Q 866 2081 792 2003 
Q 719 1925 600 1925 
Q 484 1925 411 2006 
Q 338 2088 338 2228 
Q 338 2497 613 2722 
Q 888 2947 1384 2947 
Q 1766 2947 2009 2819 
Q 2194 2722 2281 2516 
Q 2338 2381 2338 1966 
L 2338 994 
Q 2338 584 2353 492 
Q 2369 400 2405 369 
Q 2441 338 2488 338 
Q 2538 338 2575 359 
Q 2641 400 2828 588 
L 2828 413 
Q 2478 -56 2159 -56 
Q 2006 -56 1915 50 
Q 1825 156 1822 413 
z
M 1822 616 
L 1822 1706 
Q 1350 1519 1213 1441 
Q 966 1303 859 1153 
Q 753 1003 753 825 
Q 753 600 887 451 
Q 1022 303 1197 303 
Q 1434 303 1822 616 
z
" transform="scale(0.015625)"/>
       <path id="TimesNewRomanPSMT-63" d="M 2631 1088 
Q 2516 522 2178 217 
Q 1841 -88 1431 -88 
Q 944 -88 581 321 
Q 219 731 219 1428 
Q 219 2103 620 2525 
Q 1022 2947 1584 2947 
Q 2006 2947 2278 2723 
Q 2550 2500 2550 2259 
Q 2550 2141 2473 2067 
Q 2397 1994 2259 1994 
Q 2075 1994 1981 2113 
Q 1928 2178 1911 2362 
Q 1894 2547 1784 2644 
Q 1675 2738 1481 2738 
Q 1169 2738 978 2506 
Q 725 2200 725 1697 
Q 725 1184 976 792 
Q 1228 400 1656 400 
Q 1963 400 2206 609 
Q 2378 753 2541 1131 
L 2631 1088 
z
" transform="scale(0.015625)"/>
       <path id="TimesNewRomanPSMT-6b" d="M 1047 4444 
L 1047 1594 
L 1775 2259 
Q 2006 2472 2044 2528 
Q 2069 2566 2069 2603 
Q 2069 2666 2017 2711 
Q 1966 2756 1847 2763 
L 1847 2863 
L 3091 2863 
L 3091 2763 
Q 2834 2756 2664 2684 
Q 2494 2613 2291 2428 
L 1556 1750 
L 2291 822 
Q 2597 438 2703 334 
Q 2853 188 2966 144 
Q 3044 113 3238 113 
L 3238 0 
L 1847 0 
L 1847 113 
Q 1966 116 2008 148 
Q 2050 181 2050 241 
Q 2050 313 1925 472 
L 1047 1594 
L 1047 644 
Q 1047 366 1086 278 
Q 1125 191 1197 153 
Q 1269 116 1509 113 
L 1509 0 
L 53 0 
L 53 113 
Q 272 113 381 166 
Q 447 200 481 272 
Q 528 375 528 628 
L 528 3234 
Q 528 3731 506 3842 
Q 484 3953 434 3995 
Q 384 4038 303 4038 
Q 238 4038 106 3984 
L 53 4094 
L 903 4444 
L 1047 4444 
z
" transform="scale(0.015625)"/>
       <path id="TimesNewRomanPSMT-64" d="M 2222 322 
Q 2013 103 1813 7 
Q 1613 -88 1381 -88 
Q 913 -88 563 304 
Q 213 697 213 1313 
Q 213 1928 600 2439 
Q 988 2950 1597 2950 
Q 1975 2950 2222 2709 
L 2222 3238 
Q 2222 3728 2198 3840 
Q 2175 3953 2125 3993 
Q 2075 4034 2000 4034 
Q 1919 4034 1784 3984 
L 1744 4094 
L 2597 4444 
L 2738 4444 
L 2738 1134 
Q 2738 631 2761 520 
Q 2784 409 2836 365 
Q 2888 322 2956 322 
Q 3041 322 3181 375 
L 3216 266 
L 2366 -88 
L 2222 -88 
L 2222 322 
z
M 2222 541 
L 2222 2016 
Q 2203 2228 2109 2403 
Q 2016 2578 1861 2667 
Q 1706 2756 1559 2756 
Q 1284 2756 1069 2509 
Q 784 2184 784 1559 
Q 784 928 1059 592 
Q 1334 256 1672 256 
Q 1956 256 2222 541 
z
" transform="scale(0.015625)"/>
       <path id="TimesNewRomanPSMT-50" d="M 1313 1984 
L 1313 750 
Q 1313 350 1400 253 
Q 1519 116 1759 116 
L 1922 116 
L 1922 0 
L 106 0 
L 106 116 
L 266 116 
Q 534 116 650 291 
Q 713 388 713 750 
L 713 3488 
Q 713 3888 628 3984 
Q 506 4122 266 4122 
L 106 4122 
L 106 4238 
L 1659 4238 
Q 2228 4238 2556 4120 
Q 2884 4003 3109 3725 
Q 3334 3447 3334 3066 
Q 3334 2547 2992 2222 
Q 2650 1897 2025 1897 
Q 1872 1897 1694 1919 
Q 1516 1941 1313 1984 
z
M 1313 2163 
Q 1478 2131 1606 2115 
Q 1734 2100 1825 2100 
Q 2150 2100 2386 2351 
Q 2622 2603 2622 3003 
Q 2622 3278 2509 3514 
Q 2397 3750 2190 3867 
Q 1984 3984 1722 3984 
Q 1563 3984 1313 3925 
L 1313 2163 
z
" transform="scale(0.015625)"/>
       <path id="TimesNewRomanPSMT-72" d="M 1038 2947 
L 1038 2303 
Q 1397 2947 1775 2947 
Q 1947 2947 2059 2842 
Q 2172 2738 2172 2600 
Q 2172 2478 2090 2393 
Q 2009 2309 1897 2309 
Q 1788 2309 1652 2417 
Q 1516 2525 1450 2525 
Q 1394 2525 1328 2463 
Q 1188 2334 1038 2041 
L 1038 669 
Q 1038 431 1097 309 
Q 1138 225 1241 169 
Q 1344 113 1538 113 
L 1538 0 
L 72 0 
L 72 113 
Q 291 113 397 181 
Q 475 231 506 341 
Q 522 394 522 644 
L 522 1753 
Q 522 2253 501 2348 
Q 481 2444 426 2487 
Q 372 2531 291 2531 
Q 194 2531 72 2484 
L 41 2597 
L 906 2947 
L 1038 2947 
z
" transform="scale(0.015625)"/>
       <path id="TimesNewRomanPSMT-70" d="M -6 2578 
L 875 2934 
L 994 2934 
L 994 2266 
Q 1216 2644 1439 2795 
Q 1663 2947 1909 2947 
Q 2341 2947 2628 2609 
Q 2981 2197 2981 1534 
Q 2981 794 2556 309 
Q 2206 -88 1675 -88 
Q 1444 -88 1275 -22 
Q 1150 25 994 166 
L 994 -706 
Q 994 -1000 1030 -1079 
Q 1066 -1159 1155 -1206 
Q 1244 -1253 1478 -1253 
L 1478 -1369 
L -22 -1369 
L -22 -1253 
L 56 -1253 
Q 228 -1256 350 -1188 
Q 409 -1153 442 -1076 
Q 475 -1000 475 -688 
L 475 2019 
Q 475 2297 450 2372 
Q 425 2447 370 2484 
Q 316 2522 222 2522 
Q 147 2522 31 2478 
L -6 2578 
z
M 994 2081 
L 994 1013 
Q 994 666 1022 556 
Q 1066 375 1236 237 
Q 1406 100 1666 100 
Q 1978 100 2172 344 
Q 2425 663 2425 1241 
Q 2425 1897 2138 2250 
Q 1938 2494 1663 2494 
Q 1513 2494 1366 2419 
Q 1253 2363 994 2081 
z
" transform="scale(0.015625)"/>
      </defs>
      <use xlink:href="#TimesNewRomanPSMT-53"/>
      <use xlink:href="#TimesNewRomanPSMT-74" x="55.615234"/>
      <use xlink:href="#TimesNewRomanPSMT-61" x="83.398438"/>
      <use xlink:href="#TimesNewRomanPSMT-63" x="127.783203"/>
      <use xlink:href="#TimesNewRomanPSMT-6b" x="172.167969"/>
      <use xlink:href="#TimesNewRomanPSMT-65" x="222.167969"/>
      <use xlink:href="#TimesNewRomanPSMT-64" x="266.552734"/>
      <use xlink:href="#TimesNewRomanPSMT-20" x="316.552734"/>
      <use xlink:href="#TimesNewRomanPSMT-50" x="341.552734"/>
      <use xlink:href="#TimesNewRomanPSMT-72" x="397.167969"/>
      <use xlink:href="#TimesNewRomanPSMT-6f" x="430.46875"/>
      <use xlink:href="#TimesNewRomanPSMT-70" x="480.46875"/>
      <use xlink:href="#TimesNewRomanPSMT-6f" x="530.46875"/>
      <use xlink:href="#TimesNewRomanPSMT-72" x="580.46875"/>
      <use xlink:href="#TimesNewRomanPSMT-74" x="613.769531"/>
      <use xlink:href="#TimesNewRomanPSMT-69" x="641.552734"/>
      <use xlink:href="#TimesNewRomanPSMT-6f" x="669.335938"/>
      <use xlink:href="#TimesNewRomanPSMT-6e" x="719.335938"/>
     </g>
    </g>
   </g>
   <g id="line2d_11">
    <path d="M 60.05 81.956246 
L 661.00988 81.956246 
" clip-path="url(#p73fc243d2c)" style="fill: none; stroke-dasharray: 7.5,15; stroke-dashoffset: 0; stroke: #000000; stroke-width: 1.5"/>
   </g>
   <g id="patch_3">
    <path d="M 60.05 468.12 
L 60.05 29.76 
" style="fill: none; stroke: #000000; stroke-width: 0.8; stroke-linejoin: miter; stroke-linecap: square"/>
   </g>
   <g id="patch_4">
    <path d="M 661.00988 468.12 
L 661.00988 29.76 
" style="fill: none; stroke: #000000; stroke-width: 0.8; stroke-linejoin: miter; stroke-linecap: square"/>
   </g>
   <g id="patch_5">
    <path d="M 60.05 468.12 
L 661.00988 468.12 
" style="fill: none; stroke: #000000; stroke-width: 0.8; stroke-linejoin: miter; stroke-linecap: square"/>
   </g>
   <g id="patch_6">
    <path d="M 60.05 29.76 
L 661.00988 29.76 
" style="fill: none; stroke: #000000; stroke-width: 0.8; stroke-linejoin: miter; stroke-linecap: square"/>
   </g>
   <g id="text_13">
    <!-- 0.88 -->
    <g transform="translate(686.351561 85.319527) scale(0.14 -0.14)">
     <defs>
      <path id="TimesNewRomanPSMT-30" d="M 231 2094 
Q 231 2819 450 3342 
Q 669 3866 1031 4122 
Q 1313 4325 1613 4325 
Q 2100 4325 2488 3828 
Q 2972 3213 2972 2159 
Q 2972 1422 2759 906 
Q 2547 391 2217 158 
Q 1888 -75 1581 -75 
Q 975 -75 572 641 
Q 231 1244 231 2094 
z
M 844 2016 
Q 844 1141 1059 588 
Q 1238 122 1591 122 
Q 1759 122 1940 273 
Q 2122 425 2216 781 
Q 2359 1319 2359 2297 
Q 2359 3022 2209 3506 
Q 2097 3866 1919 4016 
Q 1791 4119 1609 4119 
Q 1397 4119 1231 3928 
Q 1006 3669 925 3112 
Q 844 2556 844 2016 
z
" transform="scale(0.015625)"/>
      <path id="TimesNewRomanPSMT-2e" d="M 800 606 
Q 947 606 1047 504 
Q 1147 403 1147 259 
Q 1147 116 1045 14 
Q 944 -88 800 -88 
Q 656 -88 554 14 
Q 453 116 453 259 
Q 453 406 554 506 
Q 656 606 800 606 
z
" transform="scale(0.015625)"/>
      <path id="TimesNewRomanPSMT-38" d="M 1228 2134 
Q 725 2547 579 2797 
Q 434 3047 434 3316 
Q 434 3728 753 4026 
Q 1072 4325 1600 4325 
Q 2113 4325 2425 4047 
Q 2738 3769 2738 3413 
Q 2738 3175 2569 2928 
Q 2400 2681 1866 2347 
Q 2416 1922 2594 1678 
Q 2831 1359 2831 1006 
Q 2831 559 2490 242 
Q 2150 -75 1597 -75 
Q 994 -75 656 303 
Q 388 606 388 966 
Q 388 1247 577 1523 
Q 766 1800 1228 2134 
z
M 1719 2469 
Q 2094 2806 2194 3001 
Q 2294 3197 2294 3444 
Q 2294 3772 2109 3958 
Q 1925 4144 1606 4144 
Q 1288 4144 1088 3959 
Q 888 3775 888 3528 
Q 888 3366 970 3203 
Q 1053 3041 1206 2894 
L 1719 2469 
z
M 1375 2016 
Q 1116 1797 991 1539 
Q 866 1281 866 981 
Q 866 578 1086 336 
Q 1306 94 1647 94 
Q 1984 94 2187 284 
Q 2391 475 2391 747 
Q 2391 972 2272 1150 
Q 2050 1481 1375 2016 
z
" transform="scale(0.015625)"/>
     </defs>
     <use xlink:href="#TimesNewRomanPSMT-30"/>
     <use xlink:href="#TimesNewRomanPSMT-2e" x="50"/>
     <use xlink:href="#TimesNewRomanPSMT-38" x="75"/>
     <use xlink:href="#TimesNewRomanPSMT-38" x="125"/>
    </g>
   </g>
   <g id="text_14">
    <!-- Jipsy -->
    <g transform="translate(338.29869 23.76) scale(0.2 -0.2)">
     <defs>
      <path id="TimesNewRomanPS-BoldMT-4a" d="M 909 4122 
L 909 4238 
L 3163 4238 
L 3163 4122 
L 3025 4122 
Q 2838 4122 2725 4056 
Q 2647 4013 2600 3906 
Q 2566 3831 2566 3513 
L 2566 1438 
Q 2566 828 2444 551 
Q 2322 275 2011 89 
Q 1700 -97 1263 -97 
Q 728 -97 398 184 
Q 69 466 69 806 
Q 69 1025 203 1161 
Q 338 1297 531 1297 
Q 722 1297 851 1175 
Q 981 1053 981 875 
Q 981 788 959 722 
Q 947 691 861 564 
Q 775 438 775 384 
Q 775 303 856 244 
Q 975 156 1166 156 
Q 1300 156 1387 225 
Q 1475 294 1511 439 
Q 1547 584 1547 1247 
L 1547 3513 
Q 1547 3838 1511 3919 
Q 1475 4000 1370 4061 
Q 1266 4122 1088 4122 
L 909 4122 
z
" transform="scale(0.015625)"/>
      <path id="TimesNewRomanPS-BoldMT-69" d="M 919 4338 
Q 1122 4338 1262 4195 
Q 1403 4053 1403 3853 
Q 1403 3653 1261 3512 
Q 1119 3372 919 3372 
Q 719 3372 578 3512 
Q 438 3653 438 3853 
Q 438 4053 578 4195 
Q 719 4338 919 4338 
z
M 1356 2922 
L 1356 606 
Q 1356 297 1428 211 
Q 1500 125 1709 113 
L 1709 0 
L 131 0 
L 131 113 
Q 325 119 419 225 
Q 481 297 481 606 
L 481 2313 
Q 481 2622 409 2708 
Q 338 2794 131 2806 
L 131 2922 
L 1356 2922 
z
" transform="scale(0.015625)"/>
      <path id="TimesNewRomanPS-BoldMT-70" d="M 1347 297 
L 1347 -791 
Q 1347 -1016 1383 -1097 
Q 1419 -1178 1494 -1215 
Q 1569 -1253 1788 -1253 
L 1788 -1369 
L 122 -1369 
L 122 -1253 
Q 316 -1247 409 -1144 
Q 472 -1072 472 -772 
L 472 2313 
Q 472 2622 400 2708 
Q 328 2794 122 2806 
L 122 2922 
L 1347 2922 
L 1347 2538 
Q 1500 2763 1659 2863 
Q 1888 3009 2156 3009 
Q 2478 3009 2742 2806 
Q 3006 2603 3143 2245 
Q 3281 1888 3281 1475 
Q 3281 1031 3139 664 
Q 2997 297 2726 104 
Q 2456 -88 2125 -88 
Q 1884 -88 1675 19 
Q 1519 100 1347 297 
z
M 1347 613 
Q 1616 231 1922 231 
Q 2091 231 2200 409 
Q 2363 672 2363 1409 
Q 2363 2166 2184 2444 
Q 2066 2628 1866 2628 
Q 1550 2628 1347 2172 
L 1347 613 
z
" transform="scale(0.015625)"/>
      <path id="TimesNewRomanPS-BoldMT-73" d="M 2063 3003 
L 2109 2006 
L 2003 2006 
Q 1813 2450 1608 2612 
Q 1403 2775 1200 2775 
Q 1072 2775 981 2689 
Q 891 2603 891 2491 
Q 891 2406 953 2328 
Q 1053 2200 1512 1889 
Q 1972 1578 2117 1361 
Q 2263 1144 2263 875 
Q 2263 631 2141 397 
Q 2019 163 1797 37 
Q 1575 -88 1306 -88 
Q 1097 -88 747 44 
Q 653 78 619 78 
Q 516 78 447 -78 
L 344 -78 
L 294 972 
L 400 972 
Q 541 559 786 353 
Q 1031 147 1250 147 
Q 1400 147 1495 239 
Q 1591 331 1591 463 
Q 1591 613 1497 722 
Q 1403 831 1078 1053 
Q 600 1384 459 1559 
Q 253 1816 253 2125 
Q 253 2463 486 2736 
Q 719 3009 1159 3009 
Q 1397 3009 1619 2894 
Q 1703 2847 1756 2847 
Q 1813 2847 1847 2870 
Q 1881 2894 1956 3003 
L 2063 3003 
z
" transform="scale(0.015625)"/>
      <path id="TimesNewRomanPS-BoldMT-79" d="M 1556 -119 
L 613 2047 
Q 400 2538 298 2650 
Q 197 2763 53 2806 
L 53 2922 
L 1606 2922 
L 1606 2806 
Q 1453 2800 1390 2747 
Q 1328 2694 1328 2619 
Q 1328 2500 1484 2150 
L 1984 1006 
L 2325 1891 
Q 2509 2363 2509 2547 
Q 2509 2663 2432 2731 
Q 2356 2800 2163 2806 
L 2163 2922 
L 3141 2922 
L 3141 2806 
Q 2997 2791 2906 2695 
Q 2816 2600 2603 2047 
L 1769 -119 
Q 1453 -931 1300 -1119 
Q 1084 -1381 759 -1381 
Q 500 -1381 339 -1232 
Q 178 -1084 178 -875 
Q 178 -694 289 -575 
Q 400 -456 563 -456 
Q 719 -456 814 -556 
Q 909 -656 913 -866 
Q 916 -984 941 -1019 
Q 966 -1053 1013 -1053 
Q 1088 -1053 1172 -963 
Q 1297 -831 1466 -363 
L 1556 -119 
z
" transform="scale(0.015625)"/>
     </defs>
     <use xlink:href="#TimesNewRomanPS-BoldMT-4a"/>
     <use xlink:href="#TimesNewRomanPS-BoldMT-69" x="50"/>
     <use xlink:href="#TimesNewRomanPS-BoldMT-70" x="77.783203"/>
     <use xlink:href="#TimesNewRomanPS-BoldMT-73" x="133.398438"/>
     <use xlink:href="#TimesNewRomanPS-BoldMT-79" x="172.314453"/>
    </g>
   </g>
   <g id="legend_1">
    <g id="patch_7">
     <path d="M 67.05 94.31625 
L 152.946875 94.31625 
Q 154.946875 94.31625 154.946875 92.31625 
L 154.946875 36.76 
Q 154.946875 34.76 152.946875 34.76 
L 67.05 34.76 
Q 65.05 34.76 65.05 36.76 
L 65.05 92.31625 
Q 65.05 94.31625 67.05 94.31625 
z
" style="fill: #ffffff; opacity: 0.8; stroke: #cccccc; stroke-linejoin: miter"/>
    </g>
    <g id="patch_8">
     <path d="M 69.05 45.76 
L 89.05 45.76 
L 89.05 38.76 
L 69.05 38.76 
z
" style="fill: #5386b6"/>
    </g>
    <g id="text_15">
     <!-- Success -->
     <g transform="translate(97.05 45.76) scale(0.1 -0.1)">
      <use xlink:href="#TimesNewRomanPSMT-53"/>
      <use xlink:href="#TimesNewRomanPSMT-75" x="55.615234"/>
      <use xlink:href="#TimesNewRomanPSMT-63" x="105.615234"/>
      <use xlink:href="#TimesNewRomanPSMT-63" x="150"/>
      <use xlink:href="#TimesNewRomanPSMT-65" x="194.384766"/>
      <use xlink:href="#TimesNewRomanPSMT-73" x="238.769531"/>
      <use xlink:href="#TimesNewRomanPSMT-73" x="277.685547"/>
     </g>
    </g>
    <g id="patch_9">
     <path d="M 69.05 59.899063 
L 89.05 59.899063 
L 89.05 52.899063 
L 69.05 52.899063 
z
" style="fill: #d57459"/>
    </g>
    <g id="text_16">
     <!-- Error -->
     <g transform="translate(97.05 59.899063) scale(0.1 -0.1)">
      <defs>
       <path id="TimesNewRomanPSMT-45" d="M 1338 4006 
L 1338 2331 
L 2269 2331 
Q 2631 2331 2753 2441 
Q 2916 2584 2934 2947 
L 3050 2947 
L 3050 1472 
L 2934 1472 
Q 2891 1781 2847 1869 
Q 2791 1978 2662 2040 
Q 2534 2103 2269 2103 
L 1338 2103 
L 1338 706 
Q 1338 425 1363 364 
Q 1388 303 1450 267 
Q 1513 231 1688 231 
L 2406 231 
Q 2766 231 2928 281 
Q 3091 331 3241 478 
Q 3434 672 3638 1063 
L 3763 1063 
L 3397 0 
L 131 0 
L 131 116 
L 281 116 
Q 431 116 566 188 
Q 666 238 702 338 
Q 738 438 738 747 
L 738 3500 
Q 738 3903 656 3997 
Q 544 4122 281 4122 
L 131 4122 
L 131 4238 
L 3397 4238 
L 3444 3309 
L 3322 3309 
Q 3256 3644 3176 3769 
Q 3097 3894 2941 3959 
Q 2816 4006 2500 4006 
L 1338 4006 
z
" transform="scale(0.015625)"/>
      </defs>
      <use xlink:href="#TimesNewRomanPSMT-45"/>
      <use xlink:href="#TimesNewRomanPSMT-72" x="61.083984"/>
      <use xlink:href="#TimesNewRomanPSMT-72" x="94.384766"/>
      <use xlink:href="#TimesNewRomanPSMT-6f" x="127.685547"/>
      <use xlink:href="#TimesNewRomanPSMT-72" x="177.685547"/>
     </g>
    </g>
    <g id="patch_10">
     <path d="M 69.05 74.038125 
L 89.05 74.038125 
L 89.05 67.038125 
L 69.05 67.038125 
z
" style="fill: #e8bc60"/>
    </g>
    <g id="text_17">
     <!-- Premature -->
     <g transform="translate(97.05 74.038125) scale(0.1 -0.1)">
      <defs>
       <path id="TimesNewRomanPSMT-6d" d="M 1050 2338 
Q 1363 2650 1419 2697 
Q 1559 2816 1721 2881 
Q 1884 2947 2044 2947 
Q 2313 2947 2506 2790 
Q 2700 2634 2766 2338 
Q 3088 2713 3309 2830 
Q 3531 2947 3766 2947 
Q 3994 2947 4170 2830 
Q 4347 2713 4450 2447 
Q 4519 2266 4519 1878 
L 4519 647 
Q 4519 378 4559 278 
Q 4591 209 4675 161 
Q 4759 113 4950 113 
L 4950 0 
L 3538 0 
L 3538 113 
L 3597 113 
Q 3781 113 3884 184 
Q 3956 234 3988 344 
Q 4000 397 4000 647 
L 4000 1878 
Q 4000 2228 3916 2372 
Q 3794 2572 3525 2572 
Q 3359 2572 3192 2489 
Q 3025 2406 2788 2181 
L 2781 2147 
L 2788 2013 
L 2788 647 
Q 2788 353 2820 281 
Q 2853 209 2943 161 
Q 3034 113 3253 113 
L 3253 0 
L 1806 0 
L 1806 113 
Q 2044 113 2133 169 
Q 2222 225 2256 338 
Q 2272 391 2272 647 
L 2272 1878 
Q 2272 2228 2169 2381 
Q 2031 2581 1784 2581 
Q 1616 2581 1450 2491 
Q 1191 2353 1050 2181 
L 1050 647 
Q 1050 366 1089 281 
Q 1128 197 1204 155 
Q 1281 113 1516 113 
L 1516 0 
L 100 0 
L 100 113 
Q 297 113 375 155 
Q 453 197 493 289 
Q 534 381 534 647 
L 534 1741 
Q 534 2213 506 2350 
Q 484 2453 437 2492 
Q 391 2531 309 2531 
Q 222 2531 100 2484 
L 53 2597 
L 916 2947 
L 1050 2947 
L 1050 2338 
z
" transform="scale(0.015625)"/>
      </defs>
      <use xlink:href="#TimesNewRomanPSMT-50"/>
      <use xlink:href="#TimesNewRomanPSMT-72" x="55.615234"/>
      <use xlink:href="#TimesNewRomanPSMT-65" x="88.916016"/>
      <use xlink:href="#TimesNewRomanPSMT-6d" x="133.300781"/>
      <use xlink:href="#TimesNewRomanPSMT-61" x="211.083984"/>
      <use xlink:href="#TimesNewRomanPSMT-74" x="255.46875"/>
      <use xlink:href="#TimesNewRomanPSMT-75" x="283.251953"/>
      <use xlink:href="#TimesNewRomanPSMT-72" x="333.251953"/>
      <use xlink:href="#TimesNewRomanPSMT-65" x="366.552734"/>
     </g>
    </g>
    <g id="patch_11">
     <path d="M 69.05 88.177187 
L 89.05 88.177187 
L 89.05 81.177187 
L 69.05 81.177187 
z
" style="fill: #8d5993"/>
    </g>
    <g id="text_18">
     <!-- Stepomission -->
     <g transform="translate(97.05 88.177187) scale(0.1 -0.1)">
      <use xlink:href="#TimesNewRomanPSMT-53"/>
      <use xlink:href="#TimesNewRomanPSMT-74" x="55.615234"/>
      <use xlink:href="#TimesNewRomanPSMT-65" x="83.398438"/>
      <use xlink:href="#TimesNewRomanPSMT-70" x="127.783203"/>
      <use xlink:href="#TimesNewRomanPSMT-6f" x="177.783203"/>
      <use xlink:href="#TimesNewRomanPSMT-6d" x="227.783203"/>
      <use xlink:href="#TimesNewRomanPSMT-69" x="305.566406"/>
      <use xlink:href="#TimesNewRomanPSMT-73" x="333.349609"/>
      <use xlink:href="#TimesNewRomanPSMT-73" x="372.265625"/>
      <use xlink:href="#TimesNewRomanPSMT-69" x="411.181641"/>
      <use xlink:href="#TimesNewRomanPSMT-6f" x="438.964844"/>
      <use xlink:href="#TimesNewRomanPSMT-6e" x="488.964844"/>
     </g>
    </g>
   </g>
  </g>
  <g id="axes_2">
   <g id="patch_12">
    <path d="M 60.05 675.16 
L 661.00988 675.16 
L 661.00988 529.04 
L 60.05 529.04 
z
" style="fill: #ffffff"/>
   </g>
   <g id="matplotlib.axis_3">
    <g id="xtick_9">
     <g id="line2d_12">
      <g>
       <use xlink:href="#m67771996db" x="88.667137" y="675.16" style="stroke: #000000; stroke-width: 0.8"/>
      </g>
     </g>
     <g id="text_19">
      <!-- 2023-10 -->
      <g transform="translate(67.775731 689.758438) scale(0.1 -0.1)">
       <defs>
        <path id="DejaVuSans-33" d="M 2597 2516 
Q 3050 2419 3304 2112 
Q 3559 1806 3559 1356 
Q 3559 666 3084 287 
Q 2609 -91 1734 -91 
Q 1441 -91 1130 -33 
Q 819 25 488 141 
L 488 750 
Q 750 597 1062 519 
Q 1375 441 1716 441 
Q 2309 441 2620 675 
Q 2931 909 2931 1356 
Q 2931 1769 2642 2001 
Q 2353 2234 1838 2234 
L 1294 2234 
L 1294 2753 
L 1863 2753 
Q 2328 2753 2575 2939 
Q 2822 3125 2822 3475 
Q 2822 3834 2567 4026 
Q 2313 4219 1838 4219 
Q 1578 4219 1281 4162 
Q 984 4106 628 3988 
L 628 4550 
Q 988 4650 1302 4700 
Q 1616 4750 1894 4750 
Q 2613 4750 3031 4423 
Q 3450 4097 3450 3541 
Q 3450 3153 3228 2886 
Q 3006 2619 2597 2516 
z
" transform="scale(0.015625)"/>
        <path id="DejaVuSans-2d" d="M 313 2009 
L 1997 2009 
L 1997 1497 
L 313 1497 
L 313 2009 
z
" transform="scale(0.015625)"/>
       </defs>
       <use xlink:href="#DejaVuSans-32"/>
       <use xlink:href="#DejaVuSans-30" x="63.623047"/>
       <use xlink:href="#DejaVuSans-32" x="127.246094"/>
       <use xlink:href="#DejaVuSans-33" x="190.869141"/>
       <use xlink:href="#DejaVuSans-2d" x="254.492188"/>
       <use xlink:href="#DejaVuSans-31" x="290.576172"/>
       <use xlink:href="#DejaVuSans-30" x="354.199219"/>
      </g>
     </g>
    </g>
    <g id="xtick_10">
     <g id="line2d_13">
      <g>
       <use xlink:href="#m67771996db" x="331.912803" y="675.16" style="stroke: #000000; stroke-width: 0.8"/>
      </g>
     </g>
     <g id="text_20">
      <!-- 2023-11 -->
      <g transform="translate(311.021396 689.758438) scale(0.1 -0.1)">
       <use xlink:href="#DejaVuSans-32"/>
       <use xlink:href="#DejaVuSans-30" x="63.623047"/>
       <use xlink:href="#DejaVuSans-32" x="127.246094"/>
       <use xlink:href="#DejaVuSans-33" x="190.869141"/>
       <use xlink:href="#DejaVuSans-2d" x="254.492188"/>
       <use xlink:href="#DejaVuSans-31" x="290.576172"/>
       <use xlink:href="#DejaVuSans-31" x="354.199219"/>
      </g>
     </g>
    </g>
    <g id="xtick_11">
     <g id="line2d_14">
      <g>
       <use xlink:href="#m67771996db" x="532.232762" y="675.16" style="stroke: #000000; stroke-width: 0.8"/>
      </g>
     </g>
     <g id="text_21">
      <!-- 2023-11 -->
      <g transform="translate(511.341356 689.758438) scale(0.1 -0.1)">
       <use xlink:href="#DejaVuSans-32"/>
       <use xlink:href="#DejaVuSans-30" x="63.623047"/>
       <use xlink:href="#DejaVuSans-32" x="127.246094"/>
       <use xlink:href="#DejaVuSans-33" x="190.869141"/>
       <use xlink:href="#DejaVuSans-2d" x="254.492188"/>
       <use xlink:href="#DejaVuSans-31" x="290.576172"/>
       <use xlink:href="#DejaVuSans-31" x="354.199219"/>
      </g>
     </g>
    </g>
    <g id="text_22">
     <!-- Date -->
     <g transform="translate(347.315252 705.559375) scale(0.14 -0.14)">
      <defs>
       <path id="TimesNewRomanPSMT-44" d="M 109 0 
L 109 116 
L 269 116 
Q 538 116 650 288 
Q 719 391 719 750 
L 719 3488 
Q 719 3884 631 3984 
Q 509 4122 269 4122 
L 109 4122 
L 109 4238 
L 1834 4238 
Q 2784 4238 3279 4022 
Q 3775 3806 4076 3303 
Q 4378 2800 4378 2141 
Q 4378 1256 3841 663 
Q 3238 0 2003 0 
L 109 0 
z
M 1319 306 
Q 1716 219 1984 219 
Q 2709 219 3187 728 
Q 3666 1238 3666 2109 
Q 3666 2988 3187 3494 
Q 2709 4000 1959 4000 
Q 1678 4000 1319 3909 
L 1319 306 
z
" transform="scale(0.015625)"/>
      </defs>
      <use xlink:href="#TimesNewRomanPSMT-44"/>
      <use xlink:href="#TimesNewRomanPSMT-61" x="72.216797"/>
      <use xlink:href="#TimesNewRomanPSMT-74" x="116.601562"/>
      <use xlink:href="#TimesNewRomanPSMT-65" x="144.384766"/>
     </g>
    </g>
   </g>
   <g id="matplotlib.axis_4">
    <g id="ytick_3">
     <g id="line2d_15">
      <g>
       <use xlink:href="#ma53e3d54b2" x="60.05" y="675.16" style="stroke: #000000; stroke-width: 0.8"/>
      </g>
     </g>
     <g id="text_23">
      <!-- 700 -->
      <g transform="translate(33.9625 678.959219) scale(0.1 -0.1)">
       <defs>
        <path id="DejaVuSans-37" d="M 525 4666 
L 3525 4666 
L 3525 4397 
L 1831 0 
L 1172 0 
L 2766 4134 
L 525 4134 
L 525 4666 
z
" transform="scale(0.015625)"/>
       </defs>
       <use xlink:href="#DejaVuSans-37"/>
       <use xlink:href="#DejaVuSans-30" x="63.623047"/>
       <use xlink:href="#DejaVuSans-30" x="127.246094"/>
      </g>
     </g>
    </g>
    <g id="ytick_4">
     <g id="line2d_16">
      <g>
       <use xlink:href="#ma53e3d54b2" x="60.05" y="602.1" style="stroke: #000000; stroke-width: 0.8"/>
      </g>
     </g>
     <g id="text_24">
      <!-- 1000 -->
      <g transform="translate(27.6 605.899219) scale(0.1 -0.1)">
       <use xlink:href="#DejaVuSans-31"/>
       <use xlink:href="#DejaVuSans-30" x="63.623047"/>
       <use xlink:href="#DejaVuSans-30" x="127.246094"/>
       <use xlink:href="#DejaVuSans-30" x="190.869141"/>
      </g>
     </g>
    </g>
    <g id="ytick_5">
     <g id="line2d_17">
      <g>
       <use xlink:href="#ma53e3d54b2" x="60.05" y="529.04" style="stroke: #000000; stroke-width: 0.8"/>
      </g>
     </g>
     <g id="text_25">
      <!-- 1300 -->
      <g transform="translate(27.6 532.839219) scale(0.1 -0.1)">
       <use xlink:href="#DejaVuSans-31"/>
       <use xlink:href="#DejaVuSans-33" x="63.623047"/>
       <use xlink:href="#DejaVuSans-30" x="127.246094"/>
       <use xlink:href="#DejaVuSans-30" x="190.869141"/>
      </g>
     </g>
    </g>
    <g id="text_26">
     <!-- Elo -->
     <g transform="translate(20.605313 611.820156) rotate(-90) scale(0.14 -0.14)">
      <defs>
       <path id="TimesNewRomanPSMT-6c" d="M 1184 4444 
L 1184 647 
Q 1184 378 1223 290 
Q 1263 203 1344 158 
Q 1425 113 1647 113 
L 1647 0 
L 244 0 
L 244 113 
Q 441 113 512 153 
Q 584 194 625 287 
Q 666 381 666 647 
L 666 3247 
Q 666 3731 644 3842 
Q 622 3953 573 3993 
Q 525 4034 450 4034 
Q 369 4034 244 3984 
L 191 4094 
L 1044 4444 
L 1184 4444 
z
" transform="scale(0.015625)"/>
      </defs>
      <use xlink:href="#TimesNewRomanPSMT-45"/>
      <use xlink:href="#TimesNewRomanPSMT-6c" x="61.083984"/>
      <use xlink:href="#TimesNewRomanPSMT-6f" x="88.867188"/>
     </g>
    </g>
   </g>
   <g id="line2d_18">
    <path d="M 60.05 662.983333 
L 74.358569 661.156833 
L 88.667137 660.304467 
L 102.975706 658.7215 
L 117.284274 656.700173 
L 131.592843 654.013189 
L 145.901411 653.242 
L 160.20998 652.754933 
L 174.518548 652.646696 
L 188.827117 653.144587 
L 203.135686 653.485533 
L 217.444254 653.78995 
L 231.752823 654.159933 
L 246.061391 654.424876 
L 260.36996 654.605787 
L 274.678528 654.977175 
L 288.987097 655.233243 
L 303.295666 655.460859 
L 317.604234 655.664516 
L 331.912803 655.87216 
L 346.221371 656.060029 
L 360.52994 656.275097 
L 374.838508 656.482052 
L 389.147077 656.671761 
L 403.455645 656.904741 
L 417.764214 657.0636 
L 432.072783 657.210691 
L 446.381351 657.382067 
L 460.68992 657.541623 
L 474.998488 657.690542 
L 489.307057 657.658071 
L 503.615625 657.747367 
L 517.924194 657.861016 
L 532.232762 658.242551 
L 546.541331 658.843267 
L 560.8499 659.711869 
L 575.158468 660.312584 
L 589.467037 660.897064 
L 603.775605 661.457191 
L 618.084174 661.822491 
L 632.392742 662.244616 
L 646.701311 662.658622 
L 661.00988 663.023922 
" clip-path="url(#pb161fd2b2e)" style="fill: none; stroke: #ffd700; stroke-width: 2; stroke-linecap: square"/>
   </g>
   <g id="patch_13">
    <path d="M 60.05 675.16 
L 60.05 529.04 
" style="fill: none; stroke: #000000; stroke-width: 0.8; stroke-linejoin: miter; stroke-linecap: square"/>
   </g>
   <g id="patch_14">
    <path d="M 661.00988 675.16 
L 661.00988 529.04 
" style="fill: none; stroke: #000000; stroke-width: 0.8; stroke-linejoin: miter; stroke-linecap: square"/>
   </g>
   <g id="patch_15">
    <path d="M 60.05 675.16 
L 661.00988 675.16 
" style="fill: none; stroke: #000000; stroke-width: 0.8; stroke-linejoin: miter; stroke-linecap: square"/>
   </g>
   <g id="patch_16">
    <path d="M 60.05 529.04 
L 661.00988 529.04 
" style="fill: none; stroke: #000000; stroke-width: 0.8; stroke-linejoin: miter; stroke-linecap: square"/>
   </g>
   <g id="text_27">
    <!-- Hierarchy -->
    <g transform="translate(325.57119 523.04) scale(0.16 -0.16)">
     <defs>
      <path id="TimesNewRomanPS-BoldMT-48" d="M 1750 2038 
L 1750 725 
Q 1750 400 1786 319 
Q 1822 238 1926 177 
Q 2031 116 2209 116 
L 2350 116 
L 2350 0 
L 134 0 
L 134 116 
L 275 116 
Q 459 116 572 181 
Q 653 225 697 331 
Q 731 406 731 725 
L 731 3513 
Q 731 3838 697 3919 
Q 663 4000 558 4061 
Q 453 4122 275 4122 
L 134 4122 
L 134 4238 
L 2350 4238 
L 2350 4122 
L 2209 4122 
Q 2025 4122 1913 4056 
Q 1831 4013 1784 3906 
Q 1750 3831 1750 3513 
L 1750 2313 
L 3247 2313 
L 3247 3513 
Q 3247 3838 3212 3919 
Q 3178 4000 3072 4061 
Q 2966 4122 2788 4122 
L 2650 4122 
L 2650 4238 
L 4863 4238 
L 4863 4122 
L 4725 4122 
Q 4538 4122 4428 4056 
Q 4347 4013 4300 3906 
Q 4266 3831 4266 3513 
L 4266 725 
Q 4266 400 4300 319 
Q 4334 238 4440 177 
Q 4547 116 4725 116 
L 4863 116 
L 4863 0 
L 2650 0 
L 2650 116 
L 2788 116 
Q 2975 116 3084 181 
Q 3166 225 3213 331 
Q 3247 406 3247 725 
L 3247 2038 
L 1750 2038 
z
" transform="scale(0.015625)"/>
      <path id="TimesNewRomanPS-BoldMT-65" d="M 2691 1566 
L 1088 1566 
Q 1116 984 1397 647 
Q 1613 388 1916 388 
Q 2103 388 2256 492 
Q 2409 597 2584 869 
L 2691 800 
Q 2453 316 2165 114 
Q 1878 -88 1500 -88 
Q 850 -88 516 413 
Q 247 816 247 1413 
Q 247 2144 642 2576 
Q 1038 3009 1569 3009 
Q 2013 3009 2339 2645 
Q 2666 2281 2691 1566 
z
M 1922 1775 
Q 1922 2278 1867 2465 
Q 1813 2653 1697 2750 
Q 1631 2806 1522 2806 
Q 1359 2806 1256 2647 
Q 1072 2369 1072 1884 
L 1072 1775 
L 1922 1775 
z
" transform="scale(0.015625)"/>
      <path id="TimesNewRomanPS-BoldMT-72" d="M 1428 2922 
L 1428 2259 
Q 1719 2713 1937 2861 
Q 2156 3009 2359 3009 
Q 2534 3009 2639 2901 
Q 2744 2794 2744 2597 
Q 2744 2388 2642 2272 
Q 2541 2156 2397 2156 
Q 2231 2156 2109 2262 
Q 1988 2369 1966 2381 
Q 1934 2400 1894 2400 
Q 1803 2400 1722 2331 
Q 1594 2225 1528 2028 
Q 1428 1725 1428 1359 
L 1428 688 
L 1431 513 
Q 1431 334 1453 284 
Q 1491 200 1564 161 
Q 1638 122 1813 113 
L 1813 0 
L 234 0 
L 234 113 
Q 425 128 492 217 
Q 559 306 559 688 
L 559 2303 
Q 559 2553 534 2622 
Q 503 2709 443 2750 
Q 384 2791 234 2806 
L 234 2922 
L 1428 2922 
z
" transform="scale(0.015625)"/>
      <path id="TimesNewRomanPS-BoldMT-61" d="M 1828 431 
Q 1294 -41 869 -41 
Q 619 -41 453 123 
Q 288 288 288 534 
Q 288 869 575 1136 
Q 863 1403 1828 1847 
L 1828 2141 
Q 1828 2472 1792 2558 
Q 1756 2644 1656 2708 
Q 1556 2772 1431 2772 
Q 1228 2772 1097 2681 
Q 1016 2625 1016 2550 
Q 1016 2484 1103 2388 
Q 1222 2253 1222 2128 
Q 1222 1975 1108 1867 
Q 994 1759 809 1759 
Q 613 1759 480 1878 
Q 347 1997 347 2156 
Q 347 2381 525 2586 
Q 703 2791 1022 2900 
Q 1341 3009 1684 3009 
Q 2100 3009 2342 2832 
Q 2584 2656 2656 2450 
Q 2700 2319 2700 1847 
L 2700 713 
Q 2700 513 2715 461 
Q 2731 409 2762 384 
Q 2794 359 2834 359 
Q 2916 359 3000 475 
L 3094 400 
Q 2938 169 2770 64 
Q 2603 -41 2391 -41 
Q 2141 -41 2000 76 
Q 1859 194 1828 431 
z
M 1828 659 
L 1828 1638 
Q 1450 1416 1266 1163 
Q 1144 994 1144 822 
Q 1144 678 1247 569 
Q 1325 484 1466 484 
Q 1622 484 1828 659 
z
" transform="scale(0.015625)"/>
      <path id="TimesNewRomanPS-BoldMT-63" d="M 2600 753 
L 2697 678 
Q 2491 291 2183 101 
Q 1875 -88 1528 -88 
Q 944 -88 594 353 
Q 244 794 244 1413 
Q 244 2009 563 2463 
Q 947 3009 1622 3009 
Q 2075 3009 2342 2781 
Q 2609 2553 2609 2272 
Q 2609 2094 2501 1987 
Q 2394 1881 2219 1881 
Q 2034 1881 1914 2003 
Q 1794 2125 1766 2438 
Q 1747 2634 1675 2713 
Q 1603 2791 1506 2791 
Q 1356 2791 1250 2631 
Q 1088 2391 1088 1894 
Q 1088 1481 1219 1104 
Q 1350 728 1578 544 
Q 1750 409 1984 409 
Q 2138 409 2275 481 
Q 2413 553 2600 753 
z
" transform="scale(0.015625)"/>
      <path id="TimesNewRomanPS-BoldMT-68" d="M 1409 4238 
L 1409 2547 
Q 1650 2800 1850 2904 
Q 2050 3009 2266 3009 
Q 2541 3009 2736 2853 
Q 2931 2697 2995 2486 
Q 3059 2275 3059 1775 
L 3059 634 
Q 3059 300 3121 217 
Q 3184 134 3375 113 
L 3375 0 
L 1894 0 
L 1894 113 
Q 2050 134 2128 238 
Q 2184 319 2184 634 
L 2184 1938 
Q 2184 2300 2156 2392 
Q 2128 2484 2061 2536 
Q 1994 2588 1909 2588 
Q 1784 2588 1665 2502 
Q 1547 2416 1409 2200 
L 1409 634 
Q 1409 322 1456 244 
Q 1516 138 1700 113 
L 1700 0 
L 219 0 
L 219 113 
Q 403 131 481 231 
Q 534 300 534 634 
L 534 3603 
Q 534 3934 473 4015 
Q 413 4097 219 4122 
L 219 4238 
L 1409 4238 
z
" transform="scale(0.015625)"/>
     </defs>
     <use xlink:href="#TimesNewRomanPS-BoldMT-48"/>
     <use xlink:href="#TimesNewRomanPS-BoldMT-69" x="77.783203"/>
     <use xlink:href="#TimesNewRomanPS-BoldMT-65" x="105.566406"/>
     <use xlink:href="#TimesNewRomanPS-BoldMT-72" x="149.951172"/>
     <use xlink:href="#TimesNewRomanPS-BoldMT-61" x="194.335938"/>
     <use xlink:href="#TimesNewRomanPS-BoldMT-72" x="244.335938"/>
     <use xlink:href="#TimesNewRomanPS-BoldMT-63" x="286.970703"/>
     <use xlink:href="#TimesNewRomanPS-BoldMT-68" x="331.355469"/>
     <use xlink:href="#TimesNewRomanPS-BoldMT-79" x="386.970703"/>
    </g>
   </g>
  </g>
 </g>
 <defs>
  <clipPath id="p73fc243d2c">
   <rect x="60.05" y="29.76" width="600.95988" height="438.36"/>
  </clipPath>
  <clipPath id="pb161fd2b2e">
   <rect x="60.05" y="529.04" width="600.95988" height="146.12"/>
  </clipPath>
 </defs>
</svg>
