<?xml version="1.0" encoding="utf-8" standalone="no"?>
<!DOCTYPE svg PUBLIC "-//W3C//DTD SVG 1.1//EN"
  "http://www.w3.org/Graphics/SVG/1.1/DTD/svg11.dtd">
<svg xmlns:xlink="http://www.w3.org/1999/xlink" width="720pt" height="720pt" viewBox="0 0 720 720" xmlns="http://www.w3.org/2000/svg" version="1.1">
 <metadata>
  <rdf:RDF xmlns:dc="http://purl.org/dc/elements/1.1/" xmlns:cc="http://creativecommons.org/ns#" xmlns:rdf="http://www.w3.org/1999/02/22-rdf-syntax-ns#">
   <cc:Work>
    <dc:type rdf:resource="http://purl.org/dc/dcmitype/StillImage"/>
    <dc:date>2025-02-05T15:06:56.755982</dc:date>
    <dc:format>image/svg+xml</dc:format>
    <dc:creator>
     <cc:Agent>
      <dc:title>Matplotlib v3.9.3, https://matplotlib.org/</dc:title>
     </cc:Agent>
    </dc:creator>
   </cc:Work>
  </rdf:RDF>
 </metadata>
 <defs>
  <style type="text/css">*{stroke-linejoin: round; stroke-linecap: butt}</style>
 </defs>
 <g id="figure_1">
  <g id="patch_1">
   <path d="M 0 720 
L 720 720 
L 720 0 
L 0 0 
z
" style="fill: #ffffff"/>
  </g>
  <g id="axes_1">
   <g id="patch_2">
    <path d="M 60.05 468.12 
L 667.847692 468.12 
L 667.847692 29.76 
L 60.05 29.76 
z
" style="fill: #ffffff"/>
   </g>
   <g id="PolyCollection_1">
    <path d="M 60.05 73.872354 
L 60.05 468.12 
L 62.647426 468.12 
L 65.244852 468.12 
L 67.842278 468.12 
L 70.439704 468.12 
L 73.03713 468.12 
L 75.634556 468.12 
L 78.231982 468.12 
L 80.829408 468.12 
L 83.426834 468.12 
L 86.02426 468.12 
L 88.621686 468.12 
L 91.219112 468.12 
L 93.816538 468.12 
L 96.413964 468.12 
L 99.011391 468.12 
L 101.608817 468.12 
L 104.206243 468.12 
L 106.803669 468.12 
L 109.401095 468.12 
L 111.998521 468.12 
L 114.595947 468.12 
L 117.193373 468.12 
L 119.790799 468.12 
L 122.388225 468.12 
L 124.985651 468.12 
L 127.583077 468.12 
L 130.180503 468.12 
L 132.777929 468.12 
L 135.375355 468.12 
L 137.972781 468.12 
L 140.570207 468.12 
L 143.167633 468.12 
L 145.765059 468.12 
L 148.362485 468.12 
L 150.959911 468.12 
L 153.557337 468.12 
L 156.154763 468.12 
L 158.752189 468.12 
L 161.349615 468.12 
L 163.947041 468.12 
L 166.544467 468.12 
L 169.141893 468.12 
L 171.73932 468.12 
L 174.336746 468.12 
L 176.934172 468.12 
L 179.531598 468.12 
L 182.129024 468.12 
L 184.72645 468.12 
L 187.323876 468.12 
L 189.921302 468.12 
L 192.518728 468.12 
L 195.116154 468.12 
L 197.71358 468.12 
L 200.311006 468.12 
L 202.908432 468.12 
L 205.505858 468.12 
L 208.103284 468.12 
L 210.70071 468.12 
L 213.298136 468.12 
L 215.895562 468.12 
L 218.492988 468.12 
L 221.090414 468.12 
L 223.68784 468.12 
L 226.285266 468.12 
L 228.882692 468.12 
L 231.480118 468.12 
L 234.077544 468.12 
L 236.67497 468.12 
L 239.272396 468.12 
L 241.869822 468.12 
L 244.467249 468.12 
L 247.064675 468.12 
L 249.662101 468.12 
L 252.259527 468.12 
L 254.856953 468.12 
L 257.454379 468.12 
L 260.051805 468.12 
L 262.649231 468.12 
L 265.246657 468.12 
L 267.844083 468.12 
L 270.441509 468.12 
L 273.038935 468.12 
L 275.636361 468.12 
L 278.233787 468.12 
L 280.831213 468.12 
L 283.428639 468.12 
L 286.026065 468.12 
L 288.623491 468.12 
L 291.220917 468.12 
L 293.818343 468.12 
L 296.415769 468.12 
L 299.013195 468.12 
L 301.610621 468.12 
L 304.208047 468.12 
L 306.805473 468.12 
L 309.402899 468.12 
L 312.000325 468.12 
L 314.597751 468.12 
L 317.195178 468.12 
L 319.792604 468.12 
L 322.39003 468.12 
L 324.987456 468.12 
L 327.584882 468.12 
L 330.182308 468.12 
L 332.779734 468.12 
L 335.37716 468.12 
L 337.974586 468.12 
L 340.572012 468.12 
L 343.169438 468.12 
L 345.766864 468.12 
L 348.36429 468.12 
L 350.961716 468.12 
L 353.559142 468.12 
L 356.156568 468.12 
L 358.753994 468.12 
L 361.35142 468.12 
L 363.948846 468.12 
L 366.546272 468.12 
L 369.143698 468.12 
L 371.741124 468.12 
L 374.33855 468.12 
L 376.935976 468.12 
L 379.533402 468.12 
L 382.130828 468.12 
L 384.728254 468.12 
L 387.32568 468.12 
L 389.923107 468.12 
L 392.520533 468.12 
L 395.117959 468.12 
L 397.715385 468.12 
L 400.312811 468.12 
L 402.910237 468.12 
L 405.507663 468.12 
L 408.105089 468.12 
L 410.702515 468.12 
L 413.299941 468.12 
L 415.897367 468.12 
L 418.494793 468.12 
L 421.092219 468.12 
L 423.689645 468.12 
L 426.287071 468.12 
L 428.884497 468.12 
L 431.481923 468.12 
L 434.079349 468.12 
L 436.676775 468.12 
L 439.274201 468.12 
L 441.871627 468.12 
L 444.469053 468.12 
L 447.066479 468.12 
L 449.663905 468.12 
L 452.261331 468.12 
L 454.858757 468.12 
L 457.456183 468.12 
L 460.053609 468.12 
L 462.651036 468.12 
L 465.248462 468.12 
L 467.845888 468.12 
L 470.443314 468.12 
L 473.04074 468.12 
L 475.638166 468.12 
L 478.235592 468.12 
L 480.833018 468.12 
L 483.430444 468.12 
L 486.02787 468.12 
L 488.625296 468.12 
L 491.222722 468.12 
L 493.820148 468.12 
L 496.417574 468.12 
L 499.015 468.12 
L 501.612426 468.12 
L 504.209852 468.12 
L 506.807278 468.12 
L 509.404704 468.12 
L 512.00213 468.12 
L 514.599556 468.12 
L 517.196982 468.12 
L 519.794408 468.12 
L 522.391834 468.12 
L 524.98926 468.12 
L 527.586686 468.12 
L 530.184112 468.12 
L 532.781538 468.12 
L 535.378964 468.12 
L 537.976391 468.12 
L 540.573817 468.12 
L 543.171243 468.12 
L 545.768669 468.12 
L 548.366095 468.12 
L 550.963521 468.12 
L 553.560947 468.12 
L 556.158373 468.12 
L 558.755799 468.12 
L 561.353225 468.12 
L 563.950651 468.12 
L 566.548077 468.12 
L 569.145503 468.12 
L 571.742929 468.12 
L 574.340355 468.12 
L 576.937781 468.12 
L 579.535207 468.12 
L 582.132633 468.12 
L 584.730059 468.12 
L 587.327485 468.12 
L 589.924911 468.12 
L 592.522337 468.12 
L 595.119763 468.12 
L 597.717189 468.12 
L 600.314615 468.12 
L 602.912041 468.12 
L 605.509467 468.12 
L 608.106893 468.12 
L 610.70432 468.12 
L 613.301746 468.12 
L 615.899172 468.12 
L 618.496598 468.12 
L 621.094024 468.12 
L 623.69145 468.12 
L 626.288876 468.12 
L 628.886302 468.12 
L 631.483728 468.12 
L 634.081154 468.12 
L 636.67858 468.12 
L 639.276006 468.12 
L 641.873432 468.12 
L 644.470858 468.12 
L 647.068284 468.12 
L 649.66571 468.12 
L 652.263136 468.12 
L 654.860562 468.12 
L 657.457988 468.12 
L 660.055414 468.12 
L 662.65284 468.12 
L 665.250266 468.12 
L 667.847692 468.12 
L 667.847692 66.21829 
L 667.847692 66.21829 
L 665.250266 69.14069 
L 662.65284 70.026266 
L 660.055414 70.026266 
L 657.457988 69.496846 
L 654.860562 69.496846 
L 652.263136 70.227446 
L 649.66571 72.475446 
L 647.068284 70.040112 
L 644.470858 70.040112 
L 641.873432 79.781446 
L 639.276006 79.781446 
L 636.67858 77.954946 
L 634.081154 81.031156 
L 631.483728 81.031156 
L 628.886302 81.553013 
L 626.288876 81.065947 
L 623.69145 82.77068 
L 621.094024 81.85743 
L 618.496598 81.933337 
L 615.899172 79.010937 
L 613.301746 79.341446 
L 610.70432 76.094335 
L 608.106893 70.696013 
L 605.509467 68.504213 
L 602.912041 71.426613 
L 600.314615 72.67907 
L 597.717189 72.67907 
L 595.119763 72.321434 
L 592.522337 71.316375 
L 589.924911 74.360542 
L 587.327485 71.438142 
L 584.730059 70.109778 
L 582.132633 71.438142 
L 579.535207 71.480496 
L 576.937781 72.064976 
L 574.340355 70.603776 
L 571.742929 82.967776 
L 569.145503 82.967776 
L 566.548077 84.428976 
L 563.950651 74.687642 
L 561.353225 74.687642 
L 558.755799 74.687642 
L 556.158373 74.046765 
L 553.560947 76.482098 
L 550.963521 75.960241 
L 548.366095 78.882641 
L 545.768669 75.960241 
L 543.171243 76.690841 
L 540.573817 75.362478 
L 537.976391 76.580144 
L 535.378964 75.884335 
L 532.781538 76.468815 
L 530.184112 76.834115 
L 527.586686 76.141967 
L 524.98926 73.219567 
L 522.391834 71.96711 
L 519.794408 72.423735 
L 517.196982 71.460672 
L 514.599556 70.378301 
L 512.00213 63.736483 
L 509.404704 63.736483 
L 506.807278 63.736483 
L 504.209852 64.094119 
L 501.612426 62.145853 
L 499.015 62.373151 
L 496.417574 65.295551 
L 493.820148 55.554217 
L 491.222722 55.554217 
L 488.625296 54.093017 
L 486.02787 54.093017 
L 483.430444 59.406472 
L 480.833018 60.266001 
L 478.235592 59.454223 
L 475.638166 57.01889 
L 473.04074 57.01889 
L 470.443314 54.65849 
L 467.845888 55.876157 
L 465.248462 56.606757 
L 462.651036 60.259757 
L 460.053609 59.04209 
L 457.456183 60.964722 
L 454.858757 65.250908 
L 452.261331 78.401708 
L 449.663905 77.632656 
L 447.066479 77.632656 
L 444.469053 77.632656 
L 441.871627 77.176031 
L 439.274201 78.271931 
L 436.676775 78.271931 
L 434.079349 92.219749 
L 431.481923 99.525749 
L 428.884497 100.649749 
L 426.287071 100.587304 
L 423.689645 101.171784 
L 421.092219 100.360007 
L 418.494793 97.437607 
L 415.897367 92.984426 
L 413.299941 93.958559 
L 410.702515 95.419759 
L 408.105089 95.419759 
L 405.507663 91.230304 
L 402.910237 92.458204 
L 400.312811 90.834648 
L 397.715385 90.834648 
L 395.117959 91.66962 
L 392.520533 91.10762 
L 389.923107 89.889953 
L 387.32568 90.052308 
L 384.728254 91.269975 
L 382.130828 93.517975 
L 379.533402 91.960643 
L 376.935976 87.089977 
L 374.33855 72.477977 
L 371.741124 74.101532 
L 369.143698 76.007445 
L 366.546272 78.586034 
L 363.948846 79.316634 
L 361.35142 78.951334 
L 358.753994 78.951334 
L 356.156568 66.426762 
L 353.559142 66.426762 
L 350.961716 65.302762 
L 348.36429 64.896873 
L 345.766864 66.747727 
L 343.169438 76.48906 
L 340.572012 76.48906 
L 337.974586 76.071574 
L 335.37716 75.540229 
L 332.779734 81.385029 
L 330.182308 81.385029 
L 327.584882 90.002362 
L 324.987456 87.914934 
L 322.39003 87.914934 
L 319.792604 87.914934 
L 317.195178 88.906462 
L 314.597751 88.906462 
L 312.000325 88.906462 
L 309.402899 87.282907 
L 306.805473 82.77754 
L 304.208047 81.278873 
L 301.610621 83.001002 
L 299.013195 83.001002 
L 296.415769 83.731602 
L 293.818343 82.108046 
L 291.220917 82.028633 
L 288.623491 80.335621 
L 286.026065 79.605021 
L 283.428639 83.379787 
L 280.831213 84.959463 
L 278.233787 82.872035 
L 275.636361 78.001368 
L 273.038935 78.001368 
L 270.441509 76.783701 
L 267.844083 74.348368 
L 265.246657 64.607035 
L 262.649231 64.607035 
L 260.051805 64.607035 
L 257.454379 67.817247 
L 254.856953 60.967872 
L 252.259527 60.967872 
L 249.662101 51.226538 
L 247.064675 51.957138 
L 244.467249 51.957138 
L 241.869822 52.687738 
L 239.272396 53.296572 
L 236.67497 53.296572 
L 234.077544 53.661872 
L 231.480118 54.297176 
L 228.882692 55.650935 
L 226.285266 56.362802 
L 223.68784 54.275373 
L 221.090414 54.640673 
L 218.492988 54.795649 
L 215.895562 58.970506 
L 213.298136 58.605206 
L 210.70071 57.71963 
L 208.103284 61.37263 
L 205.505858 57.336935 
L 202.908432 55.757259 
L 200.311006 56.213884 
L 197.71358 59.258051 
L 195.116154 59.258051 
L 192.518728 59.820051 
L 189.921302 61.907479 
L 187.323876 63.178088 
L 184.72645 65.004588 
L 182.129024 68.251699 
L 179.531598 65.207533 
L 176.934172 64.750908 
L 174.336746 65.794622 
L 171.73932 65.794622 
L 169.141893 65.064022 
L 166.544467 74.805355 
L 163.947041 75.535955 
L 161.349615 74.013872 
L 158.752189 74.013872 
L 156.154763 73.648572 
L 153.557337 73.013267 
L 150.959911 71.294209 
L 148.362485 72.024809 
L 145.765059 73.486009 
L 143.167633 74.806709 
L 140.570207 74.964847 
L 137.972781 71.15529 
L 135.375355 69.69409 
L 132.777929 70.358272 
L 130.180503 66.705272 
L 127.583077 66.755876 
L 124.985651 68.474935 
L 122.388225 75.32431 
L 119.790799 76.107096 
L 117.193373 78.194524 
L 114.595947 77.997824 
L 111.998521 76.381751 
L 109.401095 75.111142 
L 106.803669 78.155309 
L 104.206243 75.273497 
L 101.608817 74.664664 
L 99.011391 77.447902 
L 96.413964 76.404188 
L 93.816538 76.404188 
L 91.219112 77.732552 
L 88.621686 69.502804 
L 86.02426 69.868104 
L 83.426834 70.050754 
L 80.829408 71.174754 
L 78.231982 72.218469 
L 75.634556 73.314369 
L 73.03713 73.679669 
L 70.439704 72.583769 
L 67.842278 72.949069 
L 65.244852 73.089569 
L 62.647426 72.045854 
L 60.05 73.872354 
z
" clip-path="url(#p543715ddfe)" style="fill: #5386b6"/>
   </g>
   <g id="PolyCollection_2">
    <path d="M 60.05 45.15186 
L 60.05 73.872354 
L 62.647426 72.045854 
L 65.244852 73.089569 
L 67.842278 72.949069 
L 70.439704 72.583769 
L 73.03713 73.679669 
L 75.634556 73.314369 
L 78.231982 72.218469 
L 80.829408 71.174754 
L 83.426834 70.050754 
L 86.02426 69.868104 
L 88.621686 69.502804 
L 91.219112 77.732552 
L 93.816538 76.404188 
L 96.413964 76.404188 
L 99.011391 77.447902 
L 101.608817 74.664664 
L 104.206243 75.273497 
L 106.803669 78.155309 
L 109.401095 75.111142 
L 111.998521 76.381751 
L 114.595947 77.997824 
L 117.193373 78.194524 
L 119.790799 76.107096 
L 122.388225 75.32431 
L 124.985651 68.474935 
L 127.583077 66.755876 
L 130.180503 66.705272 
L 132.777929 70.358272 
L 135.375355 69.69409 
L 137.972781 71.15529 
L 140.570207 74.964847 
L 143.167633 74.806709 
L 145.765059 73.486009 
L 148.362485 72.024809 
L 150.959911 71.294209 
L 153.557337 73.013267 
L 156.154763 73.648572 
L 158.752189 74.013872 
L 161.349615 74.013872 
L 163.947041 75.535955 
L 166.544467 74.805355 
L 169.141893 65.064022 
L 171.73932 65.794622 
L 174.336746 65.794622 
L 176.934172 64.750908 
L 179.531598 65.207533 
L 182.129024 68.251699 
L 184.72645 65.004588 
L 187.323876 63.178088 
L 189.921302 61.907479 
L 192.518728 59.820051 
L 195.116154 59.258051 
L 197.71358 59.258051 
L 200.311006 56.213884 
L 202.908432 55.757259 
L 205.505858 57.336935 
L 208.103284 61.37263 
L 210.70071 57.71963 
L 213.298136 58.605206 
L 215.895562 58.970506 
L 218.492988 54.795649 
L 221.090414 54.640673 
L 223.68784 54.275373 
L 226.285266 56.362802 
L 228.882692 55.650935 
L 231.480118 54.297176 
L 234.077544 53.661872 
L 236.67497 53.296572 
L 239.272396 53.296572 
L 241.869822 52.687738 
L 244.467249 51.957138 
L 247.064675 51.957138 
L 249.662101 51.226538 
L 252.259527 60.967872 
L 254.856953 60.967872 
L 257.454379 67.817247 
L 260.051805 64.607035 
L 262.649231 64.607035 
L 265.246657 64.607035 
L 267.844083 74.348368 
L 270.441509 76.783701 
L 273.038935 78.001368 
L 275.636361 78.001368 
L 278.233787 82.872035 
L 280.831213 84.959463 
L 283.428639 83.379787 
L 286.026065 79.605021 
L 288.623491 80.335621 
L 291.220917 82.028633 
L 293.818343 82.108046 
L 296.415769 83.731602 
L 299.013195 83.001002 
L 301.610621 83.001002 
L 304.208047 81.278873 
L 306.805473 82.77754 
L 309.402899 87.282907 
L 312.000325 88.906462 
L 314.597751 88.906462 
L 317.195178 88.906462 
L 319.792604 87.914934 
L 322.39003 87.914934 
L 324.987456 87.914934 
L 327.584882 90.002362 
L 330.182308 81.385029 
L 332.779734 81.385029 
L 335.37716 75.540229 
L 337.974586 76.071574 
L 340.572012 76.48906 
L 343.169438 76.48906 
L 345.766864 66.747727 
L 348.36429 64.896873 
L 350.961716 65.302762 
L 353.559142 66.426762 
L 356.156568 66.426762 
L 358.753994 78.951334 
L 361.35142 78.951334 
L 363.948846 79.316634 
L 366.546272 78.586034 
L 369.143698 76.007445 
L 371.741124 74.101532 
L 374.33855 72.477977 
L 376.935976 87.089977 
L 379.533402 91.960643 
L 382.130828 93.517975 
L 384.728254 91.269975 
L 387.32568 90.052308 
L 389.923107 89.889953 
L 392.520533 91.10762 
L 395.117959 91.66962 
L 397.715385 90.834648 
L 400.312811 90.834648 
L 402.910237 92.458204 
L 405.507663 91.230304 
L 408.105089 95.419759 
L 410.702515 95.419759 
L 413.299941 93.958559 
L 415.897367 92.984426 
L 418.494793 97.437607 
L 421.092219 100.360007 
L 423.689645 101.171784 
L 426.287071 100.587304 
L 428.884497 100.649749 
L 431.481923 99.525749 
L 434.079349 92.219749 
L 436.676775 78.271931 
L 439.274201 78.271931 
L 441.871627 77.176031 
L 444.469053 77.632656 
L 447.066479 77.632656 
L 449.663905 77.632656 
L 452.261331 78.401708 
L 454.858757 65.250908 
L 457.456183 60.964722 
L 460.053609 59.04209 
L 462.651036 60.259757 
L 465.248462 56.606757 
L 467.845888 55.876157 
L 470.443314 54.65849 
L 473.04074 57.01889 
L 475.638166 57.01889 
L 478.235592 59.454223 
L 480.833018 60.266001 
L 483.430444 59.406472 
L 486.02787 54.093017 
L 488.625296 54.093017 
L 491.222722 55.554217 
L 493.820148 55.554217 
L 496.417574 65.295551 
L 499.015 62.373151 
L 501.612426 62.145853 
L 504.209852 64.094119 
L 506.807278 63.736483 
L 509.404704 63.736483 
L 512.00213 63.736483 
L 514.599556 70.378301 
L 517.196982 71.460672 
L 519.794408 72.423735 
L 522.391834 71.96711 
L 524.98926 73.219567 
L 527.586686 76.141967 
L 530.184112 76.834115 
L 532.781538 76.468815 
L 535.378964 75.884335 
L 537.976391 76.580144 
L 540.573817 75.362478 
L 543.171243 76.690841 
L 545.768669 75.960241 
L 548.366095 78.882641 
L 550.963521 75.960241 
L 553.560947 76.482098 
L 556.158373 74.046765 
L 558.755799 74.687642 
L 561.353225 74.687642 
L 563.950651 74.687642 
L 566.548077 84.428976 
L 569.145503 82.967776 
L 571.742929 82.967776 
L 574.340355 70.603776 
L 576.937781 72.064976 
L 579.535207 71.480496 
L 582.132633 71.438142 
L 584.730059 70.109778 
L 587.327485 71.438142 
L 589.924911 74.360542 
L 592.522337 71.316375 
L 595.119763 72.321434 
L 597.717189 72.67907 
L 600.314615 72.67907 
L 602.912041 71.426613 
L 605.509467 68.504213 
L 608.106893 70.696013 
L 610.70432 76.094335 
L 613.301746 79.341446 
L 615.899172 79.010937 
L 618.496598 81.933337 
L 621.094024 81.85743 
L 623.69145 82.77068 
L 626.288876 81.065947 
L 628.886302 81.553013 
L 631.483728 81.031156 
L 634.081154 81.031156 
L 636.67858 77.954946 
L 639.276006 79.781446 
L 641.873432 79.781446 
L 644.470858 70.040112 
L 647.068284 70.040112 
L 649.66571 72.475446 
L 652.263136 70.227446 
L 654.860562 69.496846 
L 657.457988 69.496846 
L 660.055414 70.026266 
L 662.65284 70.026266 
L 665.250266 69.14069 
L 667.847692 66.21829 
L 667.847692 46.223356 
L 667.847692 46.223356 
L 665.250266 49.145756 
L 662.65284 50.031332 
L 660.055414 50.031332 
L 657.457988 51.937245 
L 654.860562 51.937245 
L 652.263136 51.937245 
L 649.66571 54.185245 
L 647.068284 52.967578 
L 644.470858 52.967578 
L 641.873432 62.708912 
L 639.276006 62.708912 
L 636.67858 62.708912 
L 634.081154 65.016069 
L 631.483728 65.016069 
L 628.886302 65.016069 
L 626.288876 65.016069 
L 623.69145 65.016069 
L 621.094024 65.016069 
L 618.496598 63.763612 
L 615.899172 63.763612 
L 613.301746 64.459422 
L 610.70432 61.212311 
L 608.106893 56.341644 
L 605.509467 52.688644 
L 602.912041 52.688644 
L 600.314615 52.688644 
L 597.717189 52.688644 
L 595.119763 52.126644 
L 592.522337 52.667829 
L 589.924911 58.756163 
L 587.327485 55.833763 
L 584.730059 54.505399 
L 582.132633 55.833763 
L 579.535207 53.92785 
L 576.937781 54.51233 
L 574.340355 54.51233 
L 571.742929 59.57033 
L 569.145503 59.57033 
L 566.548077 59.57033 
L 563.950651 49.828996 
L 561.353225 49.828996 
L 558.755799 49.828996 
L 556.158373 47.521838 
L 553.560947 47.521838 
L 550.963521 47.521838 
L 548.366095 47.521838 
L 545.768669 47.521838 
L 543.171243 47.521838 
L 540.573817 47.521838 
L 537.976391 47.521838 
L 535.378964 46.826029 
L 532.781538 46.826029 
L 530.184112 46.826029 
L 527.586686 46.826029 
L 524.98926 46.826029 
L 522.391834 46.826029 
L 519.794408 46.826029 
L 517.196982 46.826029 
L 514.599556 46.284844 
L 512.00213 39.643025 
L 509.404704 39.643025 
L 506.807278 39.643025 
L 504.209852 38.314662 
L 501.612426 38.314662 
L 499.015 37.730182 
L 496.417574 40.652582 
L 493.820148 38.217248 
L 491.222722 38.217248 
L 488.625296 38.217248 
L 486.02787 38.217248 
L 483.430444 38.217248 
L 480.833018 38.217248 
L 478.235592 38.217248 
L 475.638166 38.217248 
L 473.04074 38.217248 
L 470.443314 38.779248 
L 467.845888 38.779248 
L 465.248462 38.779248 
L 462.651036 40.605748 
L 460.053609 40.605748 
L 457.456183 40.605748 
L 454.858757 45.476415 
L 452.261331 60.088415 
L 449.663905 60.088415 
L 447.066479 60.088415 
L 444.469053 60.088415 
L 441.871627 60.088415 
L 439.274201 60.088415 
L 436.676775 60.088415 
L 434.079349 74.036233 
L 431.481923 81.342233 
L 428.884497 81.342233 
L 426.287071 81.342233 
L 423.689645 81.342233 
L 421.092219 81.342233 
L 418.494793 78.419833 
L 415.897367 73.549167 
L 413.299941 73.549167 
L 410.702515 74.279767 
L 408.105089 74.279767 
L 405.507663 74.279767 
L 402.910237 75.323481 
L 400.312811 75.323481 
L 397.715385 75.323481 
L 395.117959 75.323481 
L 392.520533 74.761481 
L 389.923107 74.761481 
L 387.32568 76.385037 
L 384.728254 79.429203 
L 382.130828 79.429203 
L 379.533402 79.429203 
L 376.935976 74.558537 
L 374.33855 59.946537 
L 371.741124 61.570092 
L 369.143698 62.205396 
L 366.546272 63.064926 
L 363.948846 63.064926 
L 361.35142 63.064926 
L 358.753994 63.064926 
L 356.156568 48.452926 
L 353.559142 48.452926 
L 350.961716 48.452926 
L 348.36429 48.452926 
L 345.766864 48.452926 
L 343.169438 48.452926 
L 340.572012 48.452926 
L 337.974586 48.452926 
L 335.37716 48.452926 
L 332.779734 55.028326 
L 330.182308 55.028326 
L 327.584882 64.769659 
L 324.987456 63.725945 
L 322.39003 63.725945 
L 319.792604 63.725945 
L 317.195178 63.725945 
L 314.597751 63.725945 
L 312.000325 63.725945 
L 309.402899 62.102389 
L 306.805473 57.231723 
L 304.208047 57.231723 
L 301.610621 57.231723 
L 299.013195 57.231723 
L 296.415769 57.231723 
L 293.818343 55.608167 
L 291.220917 54.972863 
L 288.623491 54.113333 
L 286.026065 54.113333 
L 283.428639 54.113333 
L 280.831213 54.113333 
L 278.233787 54.113333 
L 275.636361 48.025 
L 273.038935 48.025 
L 270.441509 48.025 
L 267.844083 48.025 
L 265.246657 48.025 
L 262.649231 48.025 
L 260.051805 48.025 
L 257.454379 48.025 
L 254.856953 40.719 
L 252.259527 40.719 
L 249.662101 30.977667 
L 247.064675 30.977667 
L 244.467249 30.977667 
L 241.869822 30.977667 
L 239.272396 30.977667 
L 236.67497 30.977667 
L 234.077544 31.342967 
L 231.480118 31.342967 
L 228.882692 32.202496 
L 226.285266 32.567796 
L 223.68784 32.567796 
L 221.090414 32.933096 
L 218.492988 32.933096 
L 215.895562 37.107953 
L 213.298136 37.107953 
L 210.70071 37.107953 
L 208.103284 40.760953 
L 205.505858 41.178439 
L 202.908432 41.178439 
L 200.311006 41.178439 
L 197.71358 41.787272 
L 195.116154 41.787272 
L 192.518728 41.787272 
L 189.921302 43.874701 
L 187.323876 43.874701 
L 184.72645 43.874701 
L 182.129024 45.498256 
L 179.531598 45.498256 
L 176.934172 45.498256 
L 174.336746 45.498256 
L 171.73932 45.498256 
L 169.141893 45.498256 
L 166.544467 50.368923 
L 163.947041 50.368923 
L 161.349615 51.282173 
L 158.752189 51.282173 
L 156.154763 50.916873 
L 153.557337 50.916873 
L 150.959911 50.057344 
L 148.362485 50.422644 
L 145.765059 51.153244 
L 143.167633 51.911944 
L 140.570207 51.911944 
L 137.972781 47.737087 
L 135.375355 47.737087 
L 132.777929 47.737087 
L 130.180503 44.084087 
L 127.583077 44.109389 
L 124.985651 44.968918 
L 122.388225 52.274918 
L 119.790799 55.66699 
L 117.193373 55.66699 
L 114.595947 55.66699 
L 111.998521 53.579561 
L 109.401095 53.579561 
L 106.803669 53.579561 
L 104.206243 51.956005 
L 101.608817 51.956005 
L 99.011391 52.651815 
L 96.413964 52.651815 
L 93.816538 52.651815 
L 91.219112 52.651815 
L 88.621686 48.28501 
L 86.02426 48.28501 
L 83.426834 47.37176 
L 80.829408 47.37176 
L 78.231982 47.37176 
L 75.634556 47.73706 
L 73.03713 47.73706 
L 70.439704 47.00646 
L 67.842278 46.27586 
L 65.244852 45.15186 
L 62.647426 45.15186 
L 60.05 45.15186 
z
" clip-path="url(#p543715ddfe)" style="fill: #d57459"/>
   </g>
   <g id="PolyCollection_3">
    <path d="M 60.05 42.020717 
L 60.05 45.15186 
L 62.647426 45.15186 
L 65.244852 45.15186 
L 67.842278 46.27586 
L 70.439704 47.00646 
L 73.03713 47.73706 
L 75.634556 47.73706 
L 78.231982 47.37176 
L 80.829408 47.37176 
L 83.426834 47.37176 
L 86.02426 48.28501 
L 88.621686 48.28501 
L 91.219112 52.651815 
L 93.816538 52.651815 
L 96.413964 52.651815 
L 99.011391 52.651815 
L 101.608817 51.956005 
L 104.206243 51.956005 
L 106.803669 53.579561 
L 109.401095 53.579561 
L 111.998521 53.579561 
L 114.595947 55.66699 
L 117.193373 55.66699 
L 119.790799 55.66699 
L 122.388225 52.274918 
L 124.985651 44.968918 
L 127.583077 44.109389 
L 130.180503 44.084087 
L 132.777929 47.737087 
L 135.375355 47.737087 
L 137.972781 47.737087 
L 140.570207 51.911944 
L 143.167633 51.911944 
L 145.765059 51.153244 
L 148.362485 50.422644 
L 150.959911 50.057344 
L 153.557337 50.916873 
L 156.154763 50.916873 
L 158.752189 51.282173 
L 161.349615 51.282173 
L 163.947041 50.368923 
L 166.544467 50.368923 
L 169.141893 45.498256 
L 171.73932 45.498256 
L 174.336746 45.498256 
L 176.934172 45.498256 
L 179.531598 45.498256 
L 182.129024 45.498256 
L 184.72645 43.874701 
L 187.323876 43.874701 
L 189.921302 43.874701 
L 192.518728 41.787272 
L 195.116154 41.787272 
L 197.71358 41.787272 
L 200.311006 41.178439 
L 202.908432 41.178439 
L 205.505858 41.178439 
L 208.103284 40.760953 
L 210.70071 37.107953 
L 213.298136 37.107953 
L 215.895562 37.107953 
L 218.492988 32.933096 
L 221.090414 32.933096 
L 223.68784 32.567796 
L 226.285266 32.567796 
L 228.882692 32.202496 
L 231.480118 31.342967 
L 234.077544 31.342967 
L 236.67497 30.977667 
L 239.272396 30.977667 
L 241.869822 30.977667 
L 244.467249 30.977667 
L 247.064675 30.977667 
L 249.662101 30.977667 
L 252.259527 40.719 
L 254.856953 40.719 
L 257.454379 48.025 
L 260.051805 48.025 
L 262.649231 48.025 
L 265.246657 48.025 
L 267.844083 48.025 
L 270.441509 48.025 
L 273.038935 48.025 
L 275.636361 48.025 
L 278.233787 54.113333 
L 280.831213 54.113333 
L 283.428639 54.113333 
L 286.026065 54.113333 
L 288.623491 54.113333 
L 291.220917 54.972863 
L 293.818343 55.608167 
L 296.415769 57.231723 
L 299.013195 57.231723 
L 301.610621 57.231723 
L 304.208047 57.231723 
L 306.805473 57.231723 
L 309.402899 62.102389 
L 312.000325 63.725945 
L 314.597751 63.725945 
L 317.195178 63.725945 
L 319.792604 63.725945 
L 322.39003 63.725945 
L 324.987456 63.725945 
L 327.584882 64.769659 
L 330.182308 55.028326 
L 332.779734 55.028326 
L 335.37716 48.452926 
L 337.974586 48.452926 
L 340.572012 48.452926 
L 343.169438 48.452926 
L 345.766864 48.452926 
L 348.36429 48.452926 
L 350.961716 48.452926 
L 353.559142 48.452926 
L 356.156568 48.452926 
L 358.753994 63.064926 
L 361.35142 63.064926 
L 363.948846 63.064926 
L 366.546272 63.064926 
L 369.143698 62.205396 
L 371.741124 61.570092 
L 374.33855 59.946537 
L 376.935976 74.558537 
L 379.533402 79.429203 
L 382.130828 79.429203 
L 384.728254 79.429203 
L 387.32568 76.385037 
L 389.923107 74.761481 
L 392.520533 74.761481 
L 395.117959 75.323481 
L 397.715385 75.323481 
L 400.312811 75.323481 
L 402.910237 75.323481 
L 405.507663 74.279767 
L 408.105089 74.279767 
L 410.702515 74.279767 
L 413.299941 73.549167 
L 415.897367 73.549167 
L 418.494793 78.419833 
L 421.092219 81.342233 
L 423.689645 81.342233 
L 426.287071 81.342233 
L 428.884497 81.342233 
L 431.481923 81.342233 
L 434.079349 74.036233 
L 436.676775 60.088415 
L 439.274201 60.088415 
L 441.871627 60.088415 
L 444.469053 60.088415 
L 447.066479 60.088415 
L 449.663905 60.088415 
L 452.261331 60.088415 
L 454.858757 45.476415 
L 457.456183 40.605748 
L 460.053609 40.605748 
L 462.651036 40.605748 
L 465.248462 38.779248 
L 467.845888 38.779248 
L 470.443314 38.779248 
L 473.04074 38.217248 
L 475.638166 38.217248 
L 478.235592 38.217248 
L 480.833018 38.217248 
L 483.430444 38.217248 
L 486.02787 38.217248 
L 488.625296 38.217248 
L 491.222722 38.217248 
L 493.820148 38.217248 
L 496.417574 40.652582 
L 499.015 37.730182 
L 501.612426 38.314662 
L 504.209852 38.314662 
L 506.807278 39.643025 
L 509.404704 39.643025 
L 512.00213 39.643025 
L 514.599556 46.284844 
L 517.196982 46.826029 
L 519.794408 46.826029 
L 522.391834 46.826029 
L 524.98926 46.826029 
L 527.586686 46.826029 
L 530.184112 46.826029 
L 532.781538 46.826029 
L 535.378964 46.826029 
L 537.976391 47.521838 
L 540.573817 47.521838 
L 543.171243 47.521838 
L 545.768669 47.521838 
L 548.366095 47.521838 
L 550.963521 47.521838 
L 553.560947 47.521838 
L 556.158373 47.521838 
L 558.755799 49.828996 
L 561.353225 49.828996 
L 563.950651 49.828996 
L 566.548077 59.57033 
L 569.145503 59.57033 
L 571.742929 59.57033 
L 574.340355 54.51233 
L 576.937781 54.51233 
L 579.535207 53.92785 
L 582.132633 55.833763 
L 584.730059 54.505399 
L 587.327485 55.833763 
L 589.924911 58.756163 
L 592.522337 52.667829 
L 595.119763 52.126644 
L 597.717189 52.688644 
L 600.314615 52.688644 
L 602.912041 52.688644 
L 605.509467 52.688644 
L 608.106893 56.341644 
L 610.70432 61.212311 
L 613.301746 64.459422 
L 615.899172 63.763612 
L 618.496598 63.763612 
L 621.094024 65.016069 
L 623.69145 65.016069 
L 626.288876 65.016069 
L 628.886302 65.016069 
L 631.483728 65.016069 
L 634.081154 65.016069 
L 636.67858 62.708912 
L 639.276006 62.708912 
L 641.873432 62.708912 
L 644.470858 52.967578 
L 647.068284 52.967578 
L 649.66571 54.185245 
L 652.263136 51.937245 
L 654.860562 51.937245 
L 657.457988 51.937245 
L 660.055414 50.031332 
L 662.65284 50.031332 
L 665.250266 49.145756 
L 667.847692 46.223356 
L 667.847692 37.688093 
L 667.847692 37.688093 
L 665.250266 40.610493 
L 662.65284 41.496068 
L 660.055414 41.496068 
L 657.457988 42.131373 
L 654.860562 42.131373 
L 652.263136 42.131373 
L 649.66571 43.255373 
L 647.068284 42.037706 
L 644.470858 42.037706 
L 641.873432 46.908373 
L 639.276006 46.908373 
L 636.67858 46.908373 
L 634.081154 46.908373 
L 631.483728 46.908373 
L 628.886302 46.908373 
L 626.288876 46.908373 
L 623.69145 46.908373 
L 621.094024 46.908373 
L 618.496598 46.073401 
L 615.899172 46.073401 
L 613.301746 46.073401 
L 610.70432 46.073401 
L 608.106893 46.073401 
L 605.509467 42.420401 
L 602.912041 42.420401 
L 600.314615 42.420401 
L 597.717189 42.420401 
L 595.119763 41.858401 
L 592.522337 41.858401 
L 589.924911 40.640735 
L 587.327485 37.718335 
L 584.730059 36.389971 
L 582.132633 37.718335 
L 579.535207 37.08303 
L 576.937781 37.66751 
L 574.340355 37.66751 
L 571.742929 43.84951 
L 569.145503 43.84951 
L 566.548077 43.84951 
L 563.950651 38.978844 
L 561.353225 38.978844 
L 558.755799 38.978844 
L 556.158373 38.978844 
L 553.560947 38.978844 
L 550.963521 38.978844 
L 548.366095 38.978844 
L 545.768669 38.978844 
L 543.171243 38.978844 
L 540.573817 38.978844 
L 537.976391 38.978844 
L 535.378964 38.978844 
L 532.781538 38.978844 
L 530.184112 38.978844 
L 527.586686 38.978844 
L 524.98926 38.978844 
L 522.391834 38.978844 
L 519.794408 38.978844 
L 517.196982 38.978844 
L 514.599556 38.978844 
L 512.00213 39.643025 
L 509.404704 39.643025 
L 506.807278 39.643025 
L 504.209852 38.314662 
L 501.612426 38.314662 
L 499.015 37.730182 
L 496.417574 37.730182 
L 493.820148 35.294848 
L 491.222722 35.294848 
L 488.625296 35.294848 
L 486.02787 35.294848 
L 483.430444 35.294848 
L 480.833018 35.294848 
L 478.235592 35.294848 
L 475.638166 35.294848 
L 473.04074 35.294848 
L 470.443314 35.856848 
L 467.845888 35.856848 
L 465.248462 35.856848 
L 462.651036 37.683348 
L 460.053609 37.683348 
L 457.456183 37.683348 
L 454.858757 37.683348 
L 452.261331 52.295348 
L 449.663905 52.295348 
L 447.066479 52.295348 
L 444.469053 52.295348 
L 441.871627 52.295348 
L 439.274201 52.295348 
L 436.676775 52.295348 
L 434.079349 66.243167 
L 431.481923 73.549167 
L 428.884497 73.549167 
L 426.287071 73.549167 
L 423.689645 73.549167 
L 421.092219 73.549167 
L 418.494793 73.549167 
L 415.897367 68.6785 
L 413.299941 68.6785 
L 410.702515 69.4091 
L 408.105089 69.4091 
L 405.507663 69.4091 
L 402.910237 70.452814 
L 400.312811 70.452814 
L 397.715385 70.452814 
L 395.117959 70.452814 
L 392.520533 69.890814 
L 389.923107 69.890814 
L 387.32568 71.51437 
L 384.728254 72.123203 
L 382.130828 72.123203 
L 379.533402 72.123203 
L 376.935976 72.123203 
L 374.33855 57.511203 
L 371.741124 59.134759 
L 369.143698 59.770063 
L 366.546272 60.629592 
L 363.948846 60.629592 
L 361.35142 60.629592 
L 358.753994 60.629592 
L 356.156568 46.017592 
L 353.559142 46.017592 
L 350.961716 46.017592 
L 348.36429 46.017592 
L 345.766864 46.017592 
L 343.169438 46.017592 
L 340.572012 46.017592 
L 337.974586 46.017592 
L 335.37716 46.017592 
L 332.779734 52.592992 
L 330.182308 52.592992 
L 327.584882 52.592992 
L 324.987456 51.549278 
L 322.39003 51.549278 
L 319.792604 51.549278 
L 317.195178 51.549278 
L 314.597751 51.549278 
L 312.000325 51.549278 
L 309.402899 49.925723 
L 306.805473 47.490389 
L 304.208047 47.490389 
L 301.610621 47.490389 
L 299.013195 47.490389 
L 296.415769 47.490389 
L 293.818343 45.866834 
L 291.220917 45.231529 
L 288.623491 44.372 
L 286.026065 44.372 
L 283.428639 44.372 
L 280.831213 44.372 
L 278.233787 44.372 
L 275.636361 38.283667 
L 273.038935 38.283667 
L 270.441509 38.283667 
L 267.844083 38.283667 
L 265.246657 38.283667 
L 262.649231 38.283667 
L 260.051805 38.283667 
L 257.454379 38.283667 
L 254.856953 30.977667 
L 252.259527 30.977667 
L 249.662101 30.977667 
L 247.064675 30.977667 
L 244.467249 30.977667 
L 241.869822 30.977667 
L 239.272396 30.977667 
L 236.67497 30.977667 
L 234.077544 31.342967 
L 231.480118 31.342967 
L 228.882692 32.202496 
L 226.285266 32.567796 
L 223.68784 32.567796 
L 221.090414 32.933096 
L 218.492988 32.933096 
L 215.895562 37.107953 
L 213.298136 37.107953 
L 210.70071 37.107953 
L 208.103284 40.760953 
L 205.505858 41.178439 
L 202.908432 41.178439 
L 200.311006 41.178439 
L 197.71358 41.787272 
L 195.116154 41.787272 
L 192.518728 41.787272 
L 189.921302 43.874701 
L 187.323876 43.874701 
L 184.72645 43.874701 
L 182.129024 45.498256 
L 179.531598 45.498256 
L 176.934172 45.498256 
L 174.336746 45.498256 
L 171.73932 45.498256 
L 169.141893 45.498256 
L 166.544467 50.368923 
L 163.947041 50.368923 
L 161.349615 51.282173 
L 158.752189 51.282173 
L 156.154763 50.916873 
L 153.557337 50.916873 
L 150.959911 50.057344 
L 148.362485 50.057344 
L 145.765059 50.787944 
L 143.167633 51.546644 
L 140.570207 51.546644 
L 137.972781 47.371787 
L 135.375355 47.371787 
L 132.777929 47.371787 
L 130.180503 43.718787 
L 127.583077 43.744089 
L 124.985651 44.603618 
L 122.388225 51.909618 
L 119.790799 52.170547 
L 117.193373 52.170547 
L 114.595947 52.170547 
L 111.998521 50.083118 
L 109.401095 50.083118 
L 106.803669 50.083118 
L 104.206243 48.459563 
L 101.608817 48.459563 
L 99.011391 49.155372 
L 96.413964 49.155372 
L 93.816538 49.155372 
L 91.219112 49.155372 
L 88.621686 44.788567 
L 86.02426 44.788567 
L 83.426834 43.875317 
L 80.829408 43.875317 
L 78.231982 43.875317 
L 75.634556 44.240617 
L 73.03713 44.240617 
L 70.439704 43.875317 
L 67.842278 43.144717 
L 65.244852 42.020717 
L 62.647426 42.020717 
L 60.05 42.020717 
z
" clip-path="url(#p543715ddfe)" style="fill: #e8bc60"/>
   </g>
   <g id="PolyCollection_4">
    <path d="M 60.05 29.76 
L 60.05 42.020717 
L 62.647426 42.020717 
L 65.244852 42.020717 
L 67.842278 43.144717 
L 70.439704 43.875317 
L 73.03713 44.240617 
L 75.634556 44.240617 
L 78.231982 43.875317 
L 80.829408 43.875317 
L 83.426834 43.875317 
L 86.02426 44.788567 
L 88.621686 44.788567 
L 91.219112 49.155372 
L 93.816538 49.155372 
L 96.413964 49.155372 
L 99.011391 49.155372 
L 101.608817 48.459563 
L 104.206243 48.459563 
L 106.803669 50.083118 
L 109.401095 50.083118 
L 111.998521 50.083118 
L 114.595947 52.170547 
L 117.193373 52.170547 
L 119.790799 52.170547 
L 122.388225 51.909618 
L 124.985651 44.603618 
L 127.583077 43.744089 
L 130.180503 43.718787 
L 132.777929 47.371787 
L 135.375355 47.371787 
L 137.972781 47.371787 
L 140.570207 51.546644 
L 143.167633 51.546644 
L 145.765059 50.787944 
L 148.362485 50.057344 
L 150.959911 50.057344 
L 153.557337 50.916873 
L 156.154763 50.916873 
L 158.752189 51.282173 
L 161.349615 51.282173 
L 163.947041 50.368923 
L 166.544467 50.368923 
L 169.141893 45.498256 
L 171.73932 45.498256 
L 174.336746 45.498256 
L 176.934172 45.498256 
L 179.531598 45.498256 
L 182.129024 45.498256 
L 184.72645 43.874701 
L 187.323876 43.874701 
L 189.921302 43.874701 
L 192.518728 41.787272 
L 195.116154 41.787272 
L 197.71358 41.787272 
L 200.311006 41.178439 
L 202.908432 41.178439 
L 205.505858 41.178439 
L 208.103284 40.760953 
L 210.70071 37.107953 
L 213.298136 37.107953 
L 215.895562 37.107953 
L 218.492988 32.933096 
L 221.090414 32.933096 
L 223.68784 32.567796 
L 226.285266 32.567796 
L 228.882692 32.202496 
L 231.480118 31.342967 
L 234.077544 31.342967 
L 236.67497 30.977667 
L 239.272396 30.977667 
L 241.869822 30.977667 
L 244.467249 30.977667 
L 247.064675 30.977667 
L 249.662101 30.977667 
L 252.259527 30.977667 
L 254.856953 30.977667 
L 257.454379 38.283667 
L 260.051805 38.283667 
L 262.649231 38.283667 
L 265.246657 38.283667 
L 267.844083 38.283667 
L 270.441509 38.283667 
L 273.038935 38.283667 
L 275.636361 38.283667 
L 278.233787 44.372 
L 280.831213 44.372 
L 283.428639 44.372 
L 286.026065 44.372 
L 288.623491 44.372 
L 291.220917 45.231529 
L 293.818343 45.866834 
L 296.415769 47.490389 
L 299.013195 47.490389 
L 301.610621 47.490389 
L 304.208047 47.490389 
L 306.805473 47.490389 
L 309.402899 49.925723 
L 312.000325 51.549278 
L 314.597751 51.549278 
L 317.195178 51.549278 
L 319.792604 51.549278 
L 322.39003 51.549278 
L 324.987456 51.549278 
L 327.584882 52.592992 
L 330.182308 52.592992 
L 332.779734 52.592992 
L 335.37716 46.017592 
L 337.974586 46.017592 
L 340.572012 46.017592 
L 343.169438 46.017592 
L 345.766864 46.017592 
L 348.36429 46.017592 
L 350.961716 46.017592 
L 353.559142 46.017592 
L 356.156568 46.017592 
L 358.753994 60.629592 
L 361.35142 60.629592 
L 363.948846 60.629592 
L 366.546272 60.629592 
L 369.143698 59.770063 
L 371.741124 59.134759 
L 374.33855 57.511203 
L 376.935976 72.123203 
L 379.533402 72.123203 
L 382.130828 72.123203 
L 384.728254 72.123203 
L 387.32568 71.51437 
L 389.923107 69.890814 
L 392.520533 69.890814 
L 395.117959 70.452814 
L 397.715385 70.452814 
L 400.312811 70.452814 
L 402.910237 70.452814 
L 405.507663 69.4091 
L 408.105089 69.4091 
L 410.702515 69.4091 
L 413.299941 68.6785 
L 415.897367 68.6785 
L 418.494793 73.549167 
L 421.092219 73.549167 
L 423.689645 73.549167 
L 426.287071 73.549167 
L 428.884497 73.549167 
L 431.481923 73.549167 
L 434.079349 66.243167 
L 436.676775 52.295348 
L 439.274201 52.295348 
L 441.871627 52.295348 
L 444.469053 52.295348 
L 447.066479 52.295348 
L 449.663905 52.295348 
L 452.261331 52.295348 
L 454.858757 37.683348 
L 457.456183 37.683348 
L 460.053609 37.683348 
L 462.651036 37.683348 
L 465.248462 35.856848 
L 467.845888 35.856848 
L 470.443314 35.856848 
L 473.04074 35.294848 
L 475.638166 35.294848 
L 478.235592 35.294848 
L 480.833018 35.294848 
L 483.430444 35.294848 
L 486.02787 35.294848 
L 488.625296 35.294848 
L 491.222722 35.294848 
L 493.820148 35.294848 
L 496.417574 37.730182 
L 499.015 37.730182 
L 501.612426 38.314662 
L 504.209852 38.314662 
L 506.807278 39.643025 
L 509.404704 39.643025 
L 512.00213 39.643025 
L 514.599556 38.978844 
L 517.196982 38.978844 
L 519.794408 38.978844 
L 522.391834 38.978844 
L 524.98926 38.978844 
L 527.586686 38.978844 
L 530.184112 38.978844 
L 532.781538 38.978844 
L 535.378964 38.978844 
L 537.976391 38.978844 
L 540.573817 38.978844 
L 543.171243 38.978844 
L 545.768669 38.978844 
L 548.366095 38.978844 
L 550.963521 38.978844 
L 553.560947 38.978844 
L 556.158373 38.978844 
L 558.755799 38.978844 
L 561.353225 38.978844 
L 563.950651 38.978844 
L 566.548077 43.84951 
L 569.145503 43.84951 
L 571.742929 43.84951 
L 574.340355 37.66751 
L 576.937781 37.66751 
L 579.535207 37.08303 
L 582.132633 37.718335 
L 584.730059 36.389971 
L 587.327485 37.718335 
L 589.924911 40.640735 
L 592.522337 41.858401 
L 595.119763 41.858401 
L 597.717189 42.420401 
L 600.314615 42.420401 
L 602.912041 42.420401 
L 605.509467 42.420401 
L 608.106893 46.073401 
L 610.70432 46.073401 
L 613.301746 46.073401 
L 615.899172 46.073401 
L 618.496598 46.073401 
L 621.094024 46.908373 
L 623.69145 46.908373 
L 626.288876 46.908373 
L 628.886302 46.908373 
L 631.483728 46.908373 
L 634.081154 46.908373 
L 636.67858 46.908373 
L 639.276006 46.908373 
L 641.873432 46.908373 
L 644.470858 42.037706 
L 647.068284 42.037706 
L 649.66571 43.255373 
L 652.263136 42.131373 
L 654.860562 42.131373 
L 657.457988 42.131373 
L 660.055414 41.496068 
L 662.65284 41.496068 
L 665.250266 40.610493 
L 667.847692 37.688093 
L 667.847692 29.76 
L 667.847692 29.76 
L 665.250266 29.76 
L 662.65284 29.76 
L 660.055414 29.76 
L 657.457988 29.76 
L 654.860562 29.76 
L 652.263136 29.76 
L 649.66571 29.76 
L 647.068284 29.76 
L 644.470858 29.76 
L 641.873432 29.76 
L 639.276006 29.76 
L 636.67858 29.76 
L 634.081154 29.76 
L 631.483728 29.76 
L 628.886302 29.76 
L 626.288876 29.76 
L 623.69145 29.76 
L 621.094024 29.76 
L 618.496598 29.76 
L 615.899172 29.76 
L 613.301746 29.76 
L 610.70432 29.76 
L 608.106893 29.76 
L 605.509467 29.76 
L 602.912041 29.76 
L 600.314615 29.76 
L 597.717189 29.76 
L 595.119763 29.76 
L 592.522337 29.76 
L 589.924911 29.76 
L 587.327485 29.76 
L 584.730059 29.76 
L 582.132633 29.76 
L 579.535207 29.76 
L 576.937781 29.76 
L 574.340355 29.76 
L 571.742929 29.76 
L 569.145503 29.76 
L 566.548077 29.76 
L 563.950651 29.76 
L 561.353225 29.76 
L 558.755799 29.76 
L 556.158373 29.76 
L 553.560947 29.76 
L 550.963521 29.76 
L 548.366095 29.76 
L 545.768669 29.76 
L 543.171243 29.76 
L 540.573817 29.76 
L 537.976391 29.76 
L 535.378964 29.76 
L 532.781538 29.76 
L 530.184112 29.76 
L 527.586686 29.76 
L 524.98926 29.76 
L 522.391834 29.76 
L 519.794408 29.76 
L 517.196982 29.76 
L 514.599556 29.76 
L 512.00213 29.76 
L 509.404704 29.76 
L 506.807278 29.76 
L 504.209852 29.76 
L 501.612426 29.76 
L 499.015 29.76 
L 496.417574 29.76 
L 493.820148 29.76 
L 491.222722 29.76 
L 488.625296 29.76 
L 486.02787 29.76 
L 483.430444 29.76 
L 480.833018 29.76 
L 478.235592 29.76 
L 475.638166 29.76 
L 473.04074 29.76 
L 470.443314 29.76 
L 467.845888 29.76 
L 465.248462 29.76 
L 462.651036 29.76 
L 460.053609 29.76 
L 457.456183 29.76 
L 454.858757 29.76 
L 452.261331 29.76 
L 449.663905 29.76 
L 447.066479 29.76 
L 444.469053 29.76 
L 441.871627 29.76 
L 439.274201 29.76 
L 436.676775 29.76 
L 434.079349 29.76 
L 431.481923 29.76 
L 428.884497 29.76 
L 426.287071 29.76 
L 423.689645 29.76 
L 421.092219 29.76 
L 418.494793 29.76 
L 415.897367 29.76 
L 413.299941 29.76 
L 410.702515 29.76 
L 408.105089 29.76 
L 405.507663 29.76 
L 402.910237 29.76 
L 400.312811 29.76 
L 397.715385 29.76 
L 395.117959 29.76 
L 392.520533 29.76 
L 389.923107 29.76 
L 387.32568 29.76 
L 384.728254 29.76 
L 382.130828 29.76 
L 379.533402 29.76 
L 376.935976 29.76 
L 374.33855 29.76 
L 371.741124 29.76 
L 369.143698 29.76 
L 366.546272 29.76 
L 363.948846 29.76 
L 361.35142 29.76 
L 358.753994 29.76 
L 356.156568 29.76 
L 353.559142 29.76 
L 350.961716 29.76 
L 348.36429 29.76 
L 345.766864 29.76 
L 343.169438 29.76 
L 340.572012 29.76 
L 337.974586 29.76 
L 335.37716 29.76 
L 332.779734 29.76 
L 330.182308 29.76 
L 327.584882 29.76 
L 324.987456 29.76 
L 322.39003 29.76 
L 319.792604 29.76 
L 317.195178 29.76 
L 314.597751 29.76 
L 312.000325 29.76 
L 309.402899 29.76 
L 306.805473 29.76 
L 304.208047 29.76 
L 301.610621 29.76 
L 299.013195 29.76 
L 296.415769 29.76 
L 293.818343 29.76 
L 291.220917 29.76 
L 288.623491 29.76 
L 286.026065 29.76 
L 283.428639 29.76 
L 280.831213 29.76 
L 278.233787 29.76 
L 275.636361 29.76 
L 273.038935 29.76 
L 270.441509 29.76 
L 267.844083 29.76 
L 265.246657 29.76 
L 262.649231 29.76 
L 260.051805 29.76 
L 257.454379 29.76 
L 254.856953 29.76 
L 252.259527 29.76 
L 249.662101 29.76 
L 247.064675 29.76 
L 244.467249 29.76 
L 241.869822 29.76 
L 239.272396 29.76 
L 236.67497 29.76 
L 234.077544 29.76 
L 231.480118 29.76 
L 228.882692 29.76 
L 226.285266 29.76 
L 223.68784 29.76 
L 221.090414 29.76 
L 218.492988 29.76 
L 215.895562 29.76 
L 213.298136 29.76 
L 210.70071 29.76 
L 208.103284 29.76 
L 205.505858 29.76 
L 202.908432 29.76 
L 200.311006 29.76 
L 197.71358 29.76 
L 195.116154 29.76 
L 192.518728 29.76 
L 189.921302 29.76 
L 187.323876 29.76 
L 184.72645 29.76 
L 182.129024 29.76 
L 179.531598 29.76 
L 176.934172 29.76 
L 174.336746 29.76 
L 171.73932 29.76 
L 169.141893 29.76 
L 166.544467 29.76 
L 163.947041 29.76 
L 161.349615 29.76 
L 158.752189 29.76 
L 156.154763 29.76 
L 153.557337 29.76 
L 150.959911 29.76 
L 148.362485 29.76 
L 145.765059 29.76 
L 143.167633 29.76 
L 140.570207 29.76 
L 137.972781 29.76 
L 135.375355 29.76 
L 132.777929 29.76 
L 130.180503 29.76 
L 127.583077 29.76 
L 124.985651 29.76 
L 122.388225 29.76 
L 119.790799 29.76 
L 117.193373 29.76 
L 114.595947 29.76 
L 111.998521 29.76 
L 109.401095 29.76 
L 106.803669 29.76 
L 104.206243 29.76 
L 101.608817 29.76 
L 99.011391 29.76 
L 96.413964 29.76 
L 93.816538 29.76 
L 91.219112 29.76 
L 88.621686 29.76 
L 86.02426 29.76 
L 83.426834 29.76 
L 80.829408 29.76 
L 78.231982 29.76 
L 75.634556 29.76 
L 73.03713 29.76 
L 70.439704 29.76 
L 67.842278 29.76 
L 65.244852 29.76 
L 62.647426 29.76 
L 60.05 29.76 
z
" clip-path="url(#p543715ddfe)" style="fill: #8d5993"/>
   </g>
   <g id="matplotlib.axis_1">
    <g id="xtick_1">
     <g id="line2d_1">
      <defs>
       <path id="m0ffd11ebf1" d="M 0 0 
L 0 3.5 
" style="stroke: #000000; stroke-width: 0.8"/>
      </defs>
      <g>
       <use xlink:href="#m0ffd11ebf1" x="187.323876" y="468.12" style="stroke: #000000; stroke-width: 0.8"/>
      </g>
     </g>
     <g id="text_1">
      <!-- 50 -->
      <g transform="translate(180.961376 482.718438) scale(0.1 -0.1)">
       <defs>
        <path id="DejaVuSans-35" d="M 691 4666 
L 3169 4666 
L 3169 4134 
L 1269 4134 
L 1269 2991 
Q 1406 3038 1543 3061 
Q 1681 3084 1819 3084 
Q 2600 3084 3056 2656 
Q 3513 2228 3513 1497 
Q 3513 744 3044 326 
Q 2575 -91 1722 -91 
Q 1428 -91 1123 -41 
Q 819 9 494 109 
L 494 744 
Q 775 591 1075 516 
Q 1375 441 1709 441 
Q 2250 441 2565 725 
Q 2881 1009 2881 1497 
Q 2881 1984 2565 2268 
Q 2250 2553 1709 2553 
Q 1456 2553 1204 2497 
Q 953 2441 691 2322 
L 691 4666 
z
" transform="scale(0.015625)"/>
        <path id="DejaVuSans-30" d="M 2034 4250 
Q 1547 4250 1301 3770 
Q 1056 3291 1056 2328 
Q 1056 1369 1301 889 
Q 1547 409 2034 409 
Q 2525 409 2770 889 
Q 3016 1369 3016 2328 
Q 3016 3291 2770 3770 
Q 2525 4250 2034 4250 
z
M 2034 4750 
Q 2819 4750 3233 4129 
Q 3647 3509 3647 2328 
Q 3647 1150 3233 529 
Q 2819 -91 2034 -91 
Q 1250 -91 836 529 
Q 422 1150 422 2328 
Q 422 3509 836 4129 
Q 1250 4750 2034 4750 
z
" transform="scale(0.015625)"/>
       </defs>
       <use xlink:href="#DejaVuSans-35"/>
       <use xlink:href="#DejaVuSans-30" x="63.623047"/>
      </g>
     </g>
    </g>
    <g id="xtick_2">
     <g id="line2d_2">
      <g>
       <use xlink:href="#m0ffd11ebf1" x="317.195178" y="468.12" style="stroke: #000000; stroke-width: 0.8"/>
      </g>
     </g>
     <g id="text_2">
      <!-- 100 -->
      <g transform="translate(307.651428 482.718438) scale(0.1 -0.1)">
       <defs>
        <path id="DejaVuSans-31" d="M 794 531 
L 1825 531 
L 1825 4091 
L 703 3866 
L 703 4441 
L 1819 4666 
L 2450 4666 
L 2450 531 
L 3481 531 
L 3481 0 
L 794 0 
L 794 531 
z
" transform="scale(0.015625)"/>
       </defs>
       <use xlink:href="#DejaVuSans-31"/>
       <use xlink:href="#DejaVuSans-30" x="63.623047"/>
       <use xlink:href="#DejaVuSans-30" x="127.246094"/>
      </g>
     </g>
    </g>
    <g id="xtick_3">
     <g id="line2d_3">
      <g>
       <use xlink:href="#m0ffd11ebf1" x="447.066479" y="468.12" style="stroke: #000000; stroke-width: 0.8"/>
      </g>
     </g>
     <g id="text_3">
      <!-- 150 -->
      <g transform="translate(437.522729 482.718438) scale(0.1 -0.1)">
       <use xlink:href="#DejaVuSans-31"/>
       <use xlink:href="#DejaVuSans-35" x="63.623047"/>
       <use xlink:href="#DejaVuSans-30" x="127.246094"/>
      </g>
     </g>
    </g>
    <g id="xtick_4">
     <g id="line2d_4">
      <g>
       <use xlink:href="#m0ffd11ebf1" x="576.937781" y="468.12" style="stroke: #000000; stroke-width: 0.8"/>
      </g>
     </g>
     <g id="text_4">
      <!-- 200 -->
      <g transform="translate(567.394031 482.718438) scale(0.1 -0.1)">
       <defs>
        <path id="DejaVuSans-32" d="M 1228 531 
L 3431 531 
L 3431 0 
L 469 0 
L 469 531 
Q 828 903 1448 1529 
Q 2069 2156 2228 2338 
Q 2531 2678 2651 2914 
Q 2772 3150 2772 3378 
Q 2772 3750 2511 3984 
Q 2250 4219 1831 4219 
Q 1534 4219 1204 4116 
Q 875 4013 500 3803 
L 500 4441 
Q 881 4594 1212 4672 
Q 1544 4750 1819 4750 
Q 2544 4750 2975 4387 
Q 3406 4025 3406 3419 
Q 3406 3131 3298 2873 
Q 3191 2616 2906 2266 
Q 2828 2175 2409 1742 
Q 1991 1309 1228 531 
z
" transform="scale(0.015625)"/>
       </defs>
       <use xlink:href="#DejaVuSans-32"/>
       <use xlink:href="#DejaVuSans-30" x="63.623047"/>
       <use xlink:href="#DejaVuSans-30" x="127.246094"/>
      </g>
     </g>
    </g>
    <g id="text_5">
     <!-- Session Count -->
     <g transform="translate(323.69119 498.519375) scale(0.14 -0.14)">
      <defs>
       <path id="TimesNewRomanPSMT-53" d="M 2934 4334 
L 2934 2869 
L 2819 2869 
Q 2763 3291 2617 3541 
Q 2472 3791 2203 3937 
Q 1934 4084 1647 4084 
Q 1322 4084 1109 3886 
Q 897 3688 897 3434 
Q 897 3241 1031 3081 
Q 1225 2847 1953 2456 
Q 2547 2138 2764 1967 
Q 2981 1797 3098 1565 
Q 3216 1334 3216 1081 
Q 3216 600 2842 251 
Q 2469 -97 1881 -97 
Q 1697 -97 1534 -69 
Q 1438 -53 1133 45 
Q 828 144 747 144 
Q 669 144 623 97 
Q 578 50 556 -97 
L 441 -97 
L 441 1356 
L 556 1356 
Q 638 900 775 673 
Q 913 447 1195 297 
Q 1478 147 1816 147 
Q 2206 147 2432 353 
Q 2659 559 2659 841 
Q 2659 997 2573 1156 
Q 2488 1316 2306 1453 
Q 2184 1547 1640 1851 
Q 1097 2156 867 2337 
Q 638 2519 519 2737 
Q 400 2956 400 3219 
Q 400 3675 750 4004 
Q 1100 4334 1641 4334 
Q 1978 4334 2356 4169 
Q 2531 4091 2603 4091 
Q 2684 4091 2736 4139 
Q 2788 4188 2819 4334 
L 2934 4334 
z
" transform="scale(0.015625)"/>
       <path id="TimesNewRomanPSMT-65" d="M 681 1784 
Q 678 1147 991 784 
Q 1303 422 1725 422 
Q 2006 422 2214 576 
Q 2422 731 2563 1106 
L 2659 1044 
Q 2594 616 2278 264 
Q 1963 -88 1488 -88 
Q 972 -88 605 314 
Q 238 716 238 1394 
Q 238 2128 614 2539 
Q 991 2950 1559 2950 
Q 2041 2950 2350 2633 
Q 2659 2316 2659 1784 
L 681 1784 
z
M 681 1966 
L 2006 1966 
Q 1991 2241 1941 2353 
Q 1863 2528 1708 2628 
Q 1553 2728 1384 2728 
Q 1125 2728 920 2526 
Q 716 2325 681 1966 
z
" transform="scale(0.015625)"/>
       <path id="TimesNewRomanPSMT-73" d="M 2050 2947 
L 2050 1972 
L 1947 1972 
Q 1828 2431 1642 2597 
Q 1456 2763 1169 2763 
Q 950 2763 815 2647 
Q 681 2531 681 2391 
Q 681 2216 781 2091 
Q 878 1963 1175 1819 
L 1631 1597 
Q 2266 1288 2266 781 
Q 2266 391 1970 151 
Q 1675 -88 1309 -88 
Q 1047 -88 709 6 
Q 606 38 541 38 
Q 469 38 428 -44 
L 325 -44 
L 325 978 
L 428 978 
Q 516 541 762 319 
Q 1009 97 1316 97 
Q 1531 97 1667 223 
Q 1803 350 1803 528 
Q 1803 744 1651 891 
Q 1500 1038 1047 1263 
Q 594 1488 453 1669 
Q 313 1847 313 2119 
Q 313 2472 555 2709 
Q 797 2947 1181 2947 
Q 1350 2947 1591 2875 
Q 1750 2828 1803 2828 
Q 1853 2828 1881 2850 
Q 1909 2872 1947 2947 
L 2050 2947 
z
" transform="scale(0.015625)"/>
       <path id="TimesNewRomanPSMT-69" d="M 928 4444 
Q 1059 4444 1151 4351 
Q 1244 4259 1244 4128 
Q 1244 3997 1151 3903 
Q 1059 3809 928 3809 
Q 797 3809 703 3903 
Q 609 3997 609 4128 
Q 609 4259 701 4351 
Q 794 4444 928 4444 
z
M 1188 2947 
L 1188 647 
Q 1188 378 1227 289 
Q 1266 200 1342 156 
Q 1419 113 1622 113 
L 1622 0 
L 231 0 
L 231 113 
Q 441 113 512 153 
Q 584 194 626 287 
Q 669 381 669 647 
L 669 1750 
Q 669 2216 641 2353 
Q 619 2453 572 2492 
Q 525 2531 444 2531 
Q 356 2531 231 2484 
L 188 2597 
L 1050 2947 
L 1188 2947 
z
" transform="scale(0.015625)"/>
       <path id="TimesNewRomanPSMT-6f" d="M 1600 2947 
Q 2250 2947 2644 2453 
Q 2978 2031 2978 1484 
Q 2978 1100 2793 706 
Q 2609 313 2286 112 
Q 1963 -88 1566 -88 
Q 919 -88 538 428 
Q 216 863 216 1403 
Q 216 1797 411 2186 
Q 606 2575 925 2761 
Q 1244 2947 1600 2947 
z
M 1503 2744 
Q 1338 2744 1170 2645 
Q 1003 2547 900 2300 
Q 797 2053 797 1666 
Q 797 1041 1045 587 
Q 1294 134 1700 134 
Q 2003 134 2200 384 
Q 2397 634 2397 1244 
Q 2397 2006 2069 2444 
Q 1847 2744 1503 2744 
z
" transform="scale(0.015625)"/>
       <path id="TimesNewRomanPSMT-6e" d="M 1034 2341 
Q 1538 2947 1994 2947 
Q 2228 2947 2397 2830 
Q 2566 2713 2666 2444 
Q 2734 2256 2734 1869 
L 2734 647 
Q 2734 375 2778 278 
Q 2813 200 2889 156 
Q 2966 113 3172 113 
L 3172 0 
L 1756 0 
L 1756 113 
L 1816 113 
Q 2016 113 2095 173 
Q 2175 234 2206 353 
Q 2219 400 2219 647 
L 2219 1819 
Q 2219 2209 2117 2386 
Q 2016 2563 1775 2563 
Q 1403 2563 1034 2156 
L 1034 647 
Q 1034 356 1069 288 
Q 1113 197 1189 155 
Q 1266 113 1500 113 
L 1500 0 
L 84 0 
L 84 113 
L 147 113 
Q 366 113 442 223 
Q 519 334 519 647 
L 519 1709 
Q 519 2225 495 2337 
Q 472 2450 423 2490 
Q 375 2531 294 2531 
Q 206 2531 84 2484 
L 38 2597 
L 900 2947 
L 1034 2947 
L 1034 2341 
z
" transform="scale(0.015625)"/>
       <path id="TimesNewRomanPSMT-20" transform="scale(0.015625)"/>
       <path id="TimesNewRomanPSMT-43" d="M 3853 4334 
L 3950 2894 
L 3853 2894 
Q 3659 3541 3300 3825 
Q 2941 4109 2438 4109 
Q 2016 4109 1675 3895 
Q 1334 3681 1139 3212 
Q 944 2744 944 2047 
Q 944 1472 1128 1050 
Q 1313 628 1683 403 
Q 2053 178 2528 178 
Q 2941 178 3256 354 
Q 3572 531 3950 1056 
L 4047 994 
Q 3728 428 3303 165 
Q 2878 -97 2294 -97 
Q 1241 -97 663 684 
Q 231 1266 231 2053 
Q 231 2688 515 3219 
Q 800 3750 1298 4042 
Q 1797 4334 2388 4334 
Q 2847 4334 3294 4109 
Q 3425 4041 3481 4041 
Q 3566 4041 3628 4100 
Q 3709 4184 3744 4334 
L 3853 4334 
z
" transform="scale(0.015625)"/>
       <path id="TimesNewRomanPSMT-75" d="M 2709 2863 
L 2709 1128 
Q 2709 631 2732 520 
Q 2756 409 2807 365 
Q 2859 322 2928 322 
Q 3025 322 3147 375 
L 3191 266 
L 2334 -88 
L 2194 -88 
L 2194 519 
Q 1825 119 1631 15 
Q 1438 -88 1222 -88 
Q 981 -88 804 51 
Q 628 191 559 409 
Q 491 628 491 1028 
L 491 2306 
Q 491 2509 447 2587 
Q 403 2666 317 2708 
Q 231 2750 6 2747 
L 6 2863 
L 1009 2863 
L 1009 947 
Q 1009 547 1148 422 
Q 1288 297 1484 297 
Q 1619 297 1789 381 
Q 1959 466 2194 703 
L 2194 2325 
Q 2194 2569 2105 2655 
Q 2016 2741 1734 2747 
L 1734 2863 
L 2709 2863 
z
" transform="scale(0.015625)"/>
       <path id="TimesNewRomanPSMT-74" d="M 1031 3803 
L 1031 2863 
L 1700 2863 
L 1700 2644 
L 1031 2644 
L 1031 788 
Q 1031 509 1111 412 
Q 1191 316 1316 316 
Q 1419 316 1516 380 
Q 1613 444 1666 569 
L 1788 569 
Q 1678 263 1478 108 
Q 1278 -47 1066 -47 
Q 922 -47 784 33 
Q 647 113 581 261 
Q 516 409 516 719 
L 516 2644 
L 63 2644 
L 63 2747 
Q 234 2816 414 2980 
Q 594 3144 734 3369 
Q 806 3488 934 3803 
L 1031 3803 
z
" transform="scale(0.015625)"/>
      </defs>
      <use xlink:href="#TimesNewRomanPSMT-53"/>
      <use xlink:href="#TimesNewRomanPSMT-65" x="55.615234"/>
      <use xlink:href="#TimesNewRomanPSMT-73" x="100"/>
      <use xlink:href="#TimesNewRomanPSMT-73" x="138.916016"/>
      <use xlink:href="#TimesNewRomanPSMT-69" x="177.832031"/>
      <use xlink:href="#TimesNewRomanPSMT-6f" x="205.615234"/>
      <use xlink:href="#TimesNewRomanPSMT-6e" x="255.615234"/>
      <use xlink:href="#TimesNewRomanPSMT-20" x="305.615234"/>
      <use xlink:href="#TimesNewRomanPSMT-43" x="330.615234"/>
      <use xlink:href="#TimesNewRomanPSMT-6f" x="397.314453"/>
      <use xlink:href="#TimesNewRomanPSMT-75" x="447.314453"/>
      <use xlink:href="#TimesNewRomanPSMT-6e" x="497.314453"/>
      <use xlink:href="#TimesNewRomanPSMT-74" x="547.314453"/>
     </g>
    </g>
   </g>
   <g id="matplotlib.axis_2">
    <g id="ytick_1">
     <g id="line2d_5">
      <defs>
       <path id="me794ed6cf3" d="M 0 0 
L -3.5 0 
" style="stroke: #000000; stroke-width: 0.8"/>
      </defs>
      <g>
       <use xlink:href="#me794ed6cf3" x="60.05" y="468.12" style="stroke: #000000; stroke-width: 0.8"/>
      </g>
     </g>
     <g id="text_6">
      <!-- 0 -->
      <g transform="translate(46.6875 471.919219) scale(0.1 -0.1)">
       <use xlink:href="#DejaVuSans-30"/>
      </g>
     </g>
    </g>
    <g id="ytick_2">
     <g id="line2d_6">
      <g>
       <use xlink:href="#me794ed6cf3" x="60.05" y="29.76" style="stroke: #000000; stroke-width: 0.8"/>
      </g>
     </g>
     <g id="text_7">
      <!-- 1 -->
      <g transform="translate(46.6875 33.559219) scale(0.1 -0.1)">
       <use xlink:href="#DejaVuSans-31"/>
      </g>
     </g>
    </g>
    <g id="text_8">
     <!-- Stacked Proportion -->
     <g transform="translate(39.692812 302.792969) rotate(-90) scale(0.14 -0.14)">
      <defs>
       <path id="TimesNewRomanPSMT-61" d="M 1822 413 
Q 1381 72 1269 19 
Q 1100 -59 909 -59 
Q 613 -59 420 144 
Q 228 347 228 678 
Q 228 888 322 1041 
Q 450 1253 767 1440 
Q 1084 1628 1822 1897 
L 1822 2009 
Q 1822 2438 1686 2597 
Q 1550 2756 1291 2756 
Q 1094 2756 978 2650 
Q 859 2544 859 2406 
L 866 2225 
Q 866 2081 792 2003 
Q 719 1925 600 1925 
Q 484 1925 411 2006 
Q 338 2088 338 2228 
Q 338 2497 613 2722 
Q 888 2947 1384 2947 
Q 1766 2947 2009 2819 
Q 2194 2722 2281 2516 
Q 2338 2381 2338 1966 
L 2338 994 
Q 2338 584 2353 492 
Q 2369 400 2405 369 
Q 2441 338 2488 338 
Q 2538 338 2575 359 
Q 2641 400 2828 588 
L 2828 413 
Q 2478 -56 2159 -56 
Q 2006 -56 1915 50 
Q 1825 156 1822 413 
z
M 1822 616 
L 1822 1706 
Q 1350 1519 1213 1441 
Q 966 1303 859 1153 
Q 753 1003 753 825 
Q 753 600 887 451 
Q 1022 303 1197 303 
Q 1434 303 1822 616 
z
" transform="scale(0.015625)"/>
       <path id="TimesNewRomanPSMT-63" d="M 2631 1088 
Q 2516 522 2178 217 
Q 1841 -88 1431 -88 
Q 944 -88 581 321 
Q 219 731 219 1428 
Q 219 2103 620 2525 
Q 1022 2947 1584 2947 
Q 2006 2947 2278 2723 
Q 2550 2500 2550 2259 
Q 2550 2141 2473 2067 
Q 2397 1994 2259 1994 
Q 2075 1994 1981 2113 
Q 1928 2178 1911 2362 
Q 1894 2547 1784 2644 
Q 1675 2738 1481 2738 
Q 1169 2738 978 2506 
Q 725 2200 725 1697 
Q 725 1184 976 792 
Q 1228 400 1656 400 
Q 1963 400 2206 609 
Q 2378 753 2541 1131 
L 2631 1088 
z
" transform="scale(0.015625)"/>
       <path id="TimesNewRomanPSMT-6b" d="M 1047 4444 
L 1047 1594 
L 1775 2259 
Q 2006 2472 2044 2528 
Q 2069 2566 2069 2603 
Q 2069 2666 2017 2711 
Q 1966 2756 1847 2763 
L 1847 2863 
L 3091 2863 
L 3091 2763 
Q 2834 2756 2664 2684 
Q 2494 2613 2291 2428 
L 1556 1750 
L 2291 822 
Q 2597 438 2703 334 
Q 2853 188 2966 144 
Q 3044 113 3238 113 
L 3238 0 
L 1847 0 
L 1847 113 
Q 1966 116 2008 148 
Q 2050 181 2050 241 
Q 2050 313 1925 472 
L 1047 1594 
L 1047 644 
Q 1047 366 1086 278 
Q 1125 191 1197 153 
Q 1269 116 1509 113 
L 1509 0 
L 53 0 
L 53 113 
Q 272 113 381 166 
Q 447 200 481 272 
Q 528 375 528 628 
L 528 3234 
Q 528 3731 506 3842 
Q 484 3953 434 3995 
Q 384 4038 303 4038 
Q 238 4038 106 3984 
L 53 4094 
L 903 4444 
L 1047 4444 
z
" transform="scale(0.015625)"/>
       <path id="TimesNewRomanPSMT-64" d="M 2222 322 
Q 2013 103 1813 7 
Q 1613 -88 1381 -88 
Q 913 -88 563 304 
Q 213 697 213 1313 
Q 213 1928 600 2439 
Q 988 2950 1597 2950 
Q 1975 2950 2222 2709 
L 2222 3238 
Q 2222 3728 2198 3840 
Q 2175 3953 2125 3993 
Q 2075 4034 2000 4034 
Q 1919 4034 1784 3984 
L 1744 4094 
L 2597 4444 
L 2738 4444 
L 2738 1134 
Q 2738 631 2761 520 
Q 2784 409 2836 365 
Q 2888 322 2956 322 
Q 3041 322 3181 375 
L 3216 266 
L 2366 -88 
L 2222 -88 
L 2222 322 
z
M 2222 541 
L 2222 2016 
Q 2203 2228 2109 2403 
Q 2016 2578 1861 2667 
Q 1706 2756 1559 2756 
Q 1284 2756 1069 2509 
Q 784 2184 784 1559 
Q 784 928 1059 592 
Q 1334 256 1672 256 
Q 1956 256 2222 541 
z
" transform="scale(0.015625)"/>
       <path id="TimesNewRomanPSMT-50" d="M 1313 1984 
L 1313 750 
Q 1313 350 1400 253 
Q 1519 116 1759 116 
L 1922 116 
L 1922 0 
L 106 0 
L 106 116 
L 266 116 
Q 534 116 650 291 
Q 713 388 713 750 
L 713 3488 
Q 713 3888 628 3984 
Q 506 4122 266 4122 
L 106 4122 
L 106 4238 
L 1659 4238 
Q 2228 4238 2556 4120 
Q 2884 4003 3109 3725 
Q 3334 3447 3334 3066 
Q 3334 2547 2992 2222 
Q 2650 1897 2025 1897 
Q 1872 1897 1694 1919 
Q 1516 1941 1313 1984 
z
M 1313 2163 
Q 1478 2131 1606 2115 
Q 1734 2100 1825 2100 
Q 2150 2100 2386 2351 
Q 2622 2603 2622 3003 
Q 2622 3278 2509 3514 
Q 2397 3750 2190 3867 
Q 1984 3984 1722 3984 
Q 1563 3984 1313 3925 
L 1313 2163 
z
" transform="scale(0.015625)"/>
       <path id="TimesNewRomanPSMT-72" d="M 1038 2947 
L 1038 2303 
Q 1397 2947 1775 2947 
Q 1947 2947 2059 2842 
Q 2172 2738 2172 2600 
Q 2172 2478 2090 2393 
Q 2009 2309 1897 2309 
Q 1788 2309 1652 2417 
Q 1516 2525 1450 2525 
Q 1394 2525 1328 2463 
Q 1188 2334 1038 2041 
L 1038 669 
Q 1038 431 1097 309 
Q 1138 225 1241 169 
Q 1344 113 1538 113 
L 1538 0 
L 72 0 
L 72 113 
Q 291 113 397 181 
Q 475 231 506 341 
Q 522 394 522 644 
L 522 1753 
Q 522 2253 501 2348 
Q 481 2444 426 2487 
Q 372 2531 291 2531 
Q 194 2531 72 2484 
L 41 2597 
L 906 2947 
L 1038 2947 
z
" transform="scale(0.015625)"/>
       <path id="TimesNewRomanPSMT-70" d="M -6 2578 
L 875 2934 
L 994 2934 
L 994 2266 
Q 1216 2644 1439 2795 
Q 1663 2947 1909 2947 
Q 2341 2947 2628 2609 
Q 2981 2197 2981 1534 
Q 2981 794 2556 309 
Q 2206 -88 1675 -88 
Q 1444 -88 1275 -22 
Q 1150 25 994 166 
L 994 -706 
Q 994 -1000 1030 -1079 
Q 1066 -1159 1155 -1206 
Q 1244 -1253 1478 -1253 
L 1478 -1369 
L -22 -1369 
L -22 -1253 
L 56 -1253 
Q 228 -1256 350 -1188 
Q 409 -1153 442 -1076 
Q 475 -1000 475 -688 
L 475 2019 
Q 475 2297 450 2372 
Q 425 2447 370 2484 
Q 316 2522 222 2522 
Q 147 2522 31 2478 
L -6 2578 
z
M 994 2081 
L 994 1013 
Q 994 666 1022 556 
Q 1066 375 1236 237 
Q 1406 100 1666 100 
Q 1978 100 2172 344 
Q 2425 663 2425 1241 
Q 2425 1897 2138 2250 
Q 1938 2494 1663 2494 
Q 1513 2494 1366 2419 
Q 1253 2363 994 2081 
z
" transform="scale(0.015625)"/>
      </defs>
      <use xlink:href="#TimesNewRomanPSMT-53"/>
      <use xlink:href="#TimesNewRomanPSMT-74" x="55.615234"/>
      <use xlink:href="#TimesNewRomanPSMT-61" x="83.398438"/>
      <use xlink:href="#TimesNewRomanPSMT-63" x="127.783203"/>
      <use xlink:href="#TimesNewRomanPSMT-6b" x="172.167969"/>
      <use xlink:href="#TimesNewRomanPSMT-65" x="222.167969"/>
      <use xlink:href="#TimesNewRomanPSMT-64" x="266.552734"/>
      <use xlink:href="#TimesNewRomanPSMT-20" x="316.552734"/>
      <use xlink:href="#TimesNewRomanPSMT-50" x="341.552734"/>
      <use xlink:href="#TimesNewRomanPSMT-72" x="397.167969"/>
      <use xlink:href="#TimesNewRomanPSMT-6f" x="430.46875"/>
      <use xlink:href="#TimesNewRomanPSMT-70" x="480.46875"/>
      <use xlink:href="#TimesNewRomanPSMT-6f" x="530.46875"/>
      <use xlink:href="#TimesNewRomanPSMT-72" x="580.46875"/>
      <use xlink:href="#TimesNewRomanPSMT-74" x="613.769531"/>
      <use xlink:href="#TimesNewRomanPSMT-69" x="641.552734"/>
      <use xlink:href="#TimesNewRomanPSMT-6f" x="669.335938"/>
      <use xlink:href="#TimesNewRomanPSMT-6e" x="719.335938"/>
     </g>
    </g>
   </g>
   <g id="line2d_7">
    <path d="M 60.05 58.67799 
L 667.847692 58.67799 
" clip-path="url(#p543715ddfe)" style="fill: none; stroke-dasharray: 7.5,15; stroke-dashoffset: 0; stroke: #000000; stroke-width: 1.5"/>
   </g>
   <g id="patch_3">
    <path d="M 60.05 468.12 
L 60.05 29.76 
" style="fill: none; stroke: #000000; stroke-width: 0.8; stroke-linejoin: miter; stroke-linecap: square"/>
   </g>
   <g id="patch_4">
    <path d="M 667.847692 468.12 
L 667.847692 29.76 
" style="fill: none; stroke: #000000; stroke-width: 0.8; stroke-linejoin: miter; stroke-linecap: square"/>
   </g>
   <g id="patch_5">
    <path d="M 60.05 468.12 
L 667.847692 468.12 
" style="fill: none; stroke: #000000; stroke-width: 0.8; stroke-linejoin: miter; stroke-linecap: square"/>
   </g>
   <g id="patch_6">
    <path d="M 60.05 29.76 
L 667.847692 29.76 
" style="fill: none; stroke: #000000; stroke-width: 0.8; stroke-linejoin: miter; stroke-linecap: square"/>
   </g>
   <g id="text_9">
    <!-- 0.93 -->
    <g transform="translate(686.029675 62.041271) scale(0.14 -0.14)">
     <defs>
      <path id="TimesNewRomanPSMT-30" d="M 231 2094 
Q 231 2819 450 3342 
Q 669 3866 1031 4122 
Q 1313 4325 1613 4325 
Q 2100 4325 2488 3828 
Q 2972 3213 2972 2159 
Q 2972 1422 2759 906 
Q 2547 391 2217 158 
Q 1888 -75 1581 -75 
Q 975 -75 572 641 
Q 231 1244 231 2094 
z
M 844 2016 
Q 844 1141 1059 588 
Q 1238 122 1591 122 
Q 1759 122 1940 273 
Q 2122 425 2216 781 
Q 2359 1319 2359 2297 
Q 2359 3022 2209 3506 
Q 2097 3866 1919 4016 
Q 1791 4119 1609 4119 
Q 1397 4119 1231 3928 
Q 1006 3669 925 3112 
Q 844 2556 844 2016 
z
" transform="scale(0.015625)"/>
      <path id="TimesNewRomanPSMT-2e" d="M 800 606 
Q 947 606 1047 504 
Q 1147 403 1147 259 
Q 1147 116 1045 14 
Q 944 -88 800 -88 
Q 656 -88 554 14 
Q 453 116 453 259 
Q 453 406 554 506 
Q 656 606 800 606 
z
" transform="scale(0.015625)"/>
      <path id="TimesNewRomanPSMT-39" d="M 338 -88 
L 338 28 
Q 744 34 1094 217 
Q 1444 400 1770 856 
Q 2097 1313 2225 1859 
Q 1734 1544 1338 1544 
Q 891 1544 572 1889 
Q 253 2234 253 2806 
Q 253 3363 572 3797 
Q 956 4325 1575 4325 
Q 2097 4325 2469 3894 
Q 2925 3359 2925 2575 
Q 2925 1869 2578 1258 
Q 2231 647 1613 244 
Q 1109 -88 516 -88 
L 338 -88 
z
M 2275 2091 
Q 2331 2497 2331 2741 
Q 2331 3044 2228 3395 
Q 2125 3747 1936 3934 
Q 1747 4122 1506 4122 
Q 1228 4122 1018 3872 
Q 809 3622 809 3128 
Q 809 2469 1088 2097 
Q 1291 1828 1588 1828 
Q 1731 1828 1928 1897 
Q 2125 1966 2275 2091 
z
" transform="scale(0.015625)"/>
      <path id="TimesNewRomanPSMT-33" d="M 325 3431 
Q 506 3859 782 4092 
Q 1059 4325 1472 4325 
Q 1981 4325 2253 3994 
Q 2459 3747 2459 3466 
Q 2459 3003 1878 2509 
Q 2269 2356 2469 2072 
Q 2669 1788 2669 1403 
Q 2669 853 2319 450 
Q 1863 -75 997 -75 
Q 569 -75 414 31 
Q 259 138 259 259 
Q 259 350 332 419 
Q 406 488 509 488 
Q 588 488 669 463 
Q 722 447 909 348 
Q 1097 250 1169 231 
Q 1284 197 1416 197 
Q 1734 197 1970 444 
Q 2206 691 2206 1028 
Q 2206 1275 2097 1509 
Q 2016 1684 1919 1775 
Q 1784 1900 1550 2001 
Q 1316 2103 1072 2103 
L 972 2103 
L 972 2197 
Q 1219 2228 1467 2375 
Q 1716 2522 1828 2728 
Q 1941 2934 1941 3181 
Q 1941 3503 1739 3701 
Q 1538 3900 1238 3900 
Q 753 3900 428 3381 
L 325 3431 
z
" transform="scale(0.015625)"/>
     </defs>
     <use xlink:href="#TimesNewRomanPSMT-30"/>
     <use xlink:href="#TimesNewRomanPSMT-2e" x="50"/>
     <use xlink:href="#TimesNewRomanPSMT-39" x="75"/>
     <use xlink:href="#TimesNewRomanPSMT-33" x="125"/>
    </g>
   </g>
   <g id="text_10">
    <!-- Nenno -->
    <g transform="translate(336.166034 23.76) scale(0.2 -0.2)">
     <defs>
      <path id="TimesNewRomanPS-BoldMT-4e" d="M 1594 4238 
L 3684 1609 
L 3684 3431 
Q 3684 3813 3575 3947 
Q 3425 4128 3072 4122 
L 3072 4238 
L 4472 4238 
L 4472 4122 
Q 4203 4088 4111 4033 
Q 4019 3978 3967 3854 
Q 3916 3731 3916 3431 
L 3916 -97 
L 3809 -97 
L 944 3431 
L 944 738 
Q 944 372 1111 244 
Q 1278 116 1494 116 
L 1594 116 
L 1594 0 
L 91 0 
L 91 116 
Q 441 119 578 259 
Q 716 400 716 738 
L 716 3728 
L 625 3841 
Q 491 4009 387 4062 
Q 284 4116 91 4122 
L 91 4238 
L 1594 4238 
z
" transform="scale(0.015625)"/>
      <path id="TimesNewRomanPS-BoldMT-65" d="M 2691 1566 
L 1088 1566 
Q 1116 984 1397 647 
Q 1613 388 1916 388 
Q 2103 388 2256 492 
Q 2409 597 2584 869 
L 2691 800 
Q 2453 316 2165 114 
Q 1878 -88 1500 -88 
Q 850 -88 516 413 
Q 247 816 247 1413 
Q 247 2144 642 2576 
Q 1038 3009 1569 3009 
Q 2013 3009 2339 2645 
Q 2666 2281 2691 1566 
z
M 1922 1775 
Q 1922 2278 1867 2465 
Q 1813 2653 1697 2750 
Q 1631 2806 1522 2806 
Q 1359 2806 1256 2647 
Q 1072 2369 1072 1884 
L 1072 1775 
L 1922 1775 
z
" transform="scale(0.015625)"/>
      <path id="TimesNewRomanPS-BoldMT-6e" d="M 1409 2922 
L 1409 2544 
Q 1634 2788 1840 2898 
Q 2047 3009 2284 3009 
Q 2569 3009 2756 2851 
Q 2944 2694 3006 2459 
Q 3056 2281 3056 1775 
L 3056 638 
Q 3056 300 3117 217 
Q 3178 134 3372 113 
L 3372 0 
L 1894 0 
L 1894 113 
Q 2059 134 2131 250 
Q 2181 328 2181 638 
L 2181 1938 
Q 2181 2297 2153 2390 
Q 2125 2484 2058 2536 
Q 1991 2588 1909 2588 
Q 1641 2588 1409 2203 
L 1409 638 
Q 1409 309 1470 221 
Q 1531 134 1697 113 
L 1697 0 
L 219 0 
L 219 113 
Q 403 131 481 231 
Q 534 300 534 638 
L 534 2288 
Q 534 2619 473 2700 
Q 413 2781 219 2806 
L 219 2922 
L 1409 2922 
z
" transform="scale(0.015625)"/>
      <path id="TimesNewRomanPS-BoldMT-6f" d="M 1594 3009 
Q 1975 3009 2303 2812 
Q 2631 2616 2801 2253 
Q 2972 1891 2972 1459 
Q 2972 838 2656 419 
Q 2275 -88 1603 -88 
Q 944 -88 587 375 
Q 231 838 231 1447 
Q 231 2075 595 2542 
Q 959 3009 1594 3009 
z
M 1606 2788 
Q 1447 2788 1333 2667 
Q 1219 2547 1183 2192 
Q 1147 1838 1147 1206 
Q 1147 872 1191 581 
Q 1225 359 1337 243 
Q 1450 128 1594 128 
Q 1734 128 1828 206 
Q 1950 313 1991 503 
Q 2053 800 2053 1703 
Q 2053 2234 1993 2432 
Q 1934 2631 1819 2722 
Q 1738 2788 1606 2788 
z
" transform="scale(0.015625)"/>
     </defs>
     <use xlink:href="#TimesNewRomanPS-BoldMT-4e"/>
     <use xlink:href="#TimesNewRomanPS-BoldMT-65" x="72.216797"/>
     <use xlink:href="#TimesNewRomanPS-BoldMT-6e" x="116.601562"/>
     <use xlink:href="#TimesNewRomanPS-BoldMT-6e" x="172.216797"/>
     <use xlink:href="#TimesNewRomanPS-BoldMT-6f" x="227.832031"/>
    </g>
   </g>
   <g id="legend_1">
    <g id="patch_7">
     <path d="M 67.05 94.31625 
L 152.946875 94.31625 
Q 154.946875 94.31625 154.946875 92.31625 
L 154.946875 36.76 
Q 154.946875 34.76 152.946875 34.76 
L 67.05 34.76 
Q 65.05 34.76 65.05 36.76 
L 65.05 92.31625 
Q 65.05 94.31625 67.05 94.31625 
z
" style="fill: #ffffff; opacity: 0.8; stroke: #cccccc; stroke-linejoin: miter"/>
    </g>
    <g id="patch_8">
     <path d="M 69.05 45.76 
L 89.05 45.76 
L 89.05 38.76 
L 69.05 38.76 
z
" style="fill: #5386b6"/>
    </g>
    <g id="text_11">
     <!-- Success -->
     <g transform="translate(97.05 45.76) scale(0.1 -0.1)">
      <use xlink:href="#TimesNewRomanPSMT-53"/>
      <use xlink:href="#TimesNewRomanPSMT-75" x="55.615234"/>
      <use xlink:href="#TimesNewRomanPSMT-63" x="105.615234"/>
      <use xlink:href="#TimesNewRomanPSMT-63" x="150"/>
      <use xlink:href="#TimesNewRomanPSMT-65" x="194.384766"/>
      <use xlink:href="#TimesNewRomanPSMT-73" x="238.769531"/>
      <use xlink:href="#TimesNewRomanPSMT-73" x="277.685547"/>
     </g>
    </g>
    <g id="patch_9">
     <path d="M 69.05 59.899063 
L 89.05 59.899063 
L 89.05 52.899063 
L 69.05 52.899063 
z
" style="fill: #d57459"/>
    </g>
    <g id="text_12">
     <!-- Error -->
     <g transform="translate(97.05 59.899063) scale(0.1 -0.1)">
      <defs>
       <path id="TimesNewRomanPSMT-45" d="M 1338 4006 
L 1338 2331 
L 2269 2331 
Q 2631 2331 2753 2441 
Q 2916 2584 2934 2947 
L 3050 2947 
L 3050 1472 
L 2934 1472 
Q 2891 1781 2847 1869 
Q 2791 1978 2662 2040 
Q 2534 2103 2269 2103 
L 1338 2103 
L 1338 706 
Q 1338 425 1363 364 
Q 1388 303 1450 267 
Q 1513 231 1688 231 
L 2406 231 
Q 2766 231 2928 281 
Q 3091 331 3241 478 
Q 3434 672 3638 1063 
L 3763 1063 
L 3397 0 
L 131 0 
L 131 116 
L 281 116 
Q 431 116 566 188 
Q 666 238 702 338 
Q 738 438 738 747 
L 738 3500 
Q 738 3903 656 3997 
Q 544 4122 281 4122 
L 131 4122 
L 131 4238 
L 3397 4238 
L 3444 3309 
L 3322 3309 
Q 3256 3644 3176 3769 
Q 3097 3894 2941 3959 
Q 2816 4006 2500 4006 
L 1338 4006 
z
" transform="scale(0.015625)"/>
      </defs>
      <use xlink:href="#TimesNewRomanPSMT-45"/>
      <use xlink:href="#TimesNewRomanPSMT-72" x="61.083984"/>
      <use xlink:href="#TimesNewRomanPSMT-72" x="94.384766"/>
      <use xlink:href="#TimesNewRomanPSMT-6f" x="127.685547"/>
      <use xlink:href="#TimesNewRomanPSMT-72" x="177.685547"/>
     </g>
    </g>
    <g id="patch_10">
     <path d="M 69.05 74.038125 
L 89.05 74.038125 
L 89.05 67.038125 
L 69.05 67.038125 
z
" style="fill: #e8bc60"/>
    </g>
    <g id="text_13">
     <!-- Premature -->
     <g transform="translate(97.05 74.038125) scale(0.1 -0.1)">
      <defs>
       <path id="TimesNewRomanPSMT-6d" d="M 1050 2338 
Q 1363 2650 1419 2697 
Q 1559 2816 1721 2881 
Q 1884 2947 2044 2947 
Q 2313 2947 2506 2790 
Q 2700 2634 2766 2338 
Q 3088 2713 3309 2830 
Q 3531 2947 3766 2947 
Q 3994 2947 4170 2830 
Q 4347 2713 4450 2447 
Q 4519 2266 4519 1878 
L 4519 647 
Q 4519 378 4559 278 
Q 4591 209 4675 161 
Q 4759 113 4950 113 
L 4950 0 
L 3538 0 
L 3538 113 
L 3597 113 
Q 3781 113 3884 184 
Q 3956 234 3988 344 
Q 4000 397 4000 647 
L 4000 1878 
Q 4000 2228 3916 2372 
Q 3794 2572 3525 2572 
Q 3359 2572 3192 2489 
Q 3025 2406 2788 2181 
L 2781 2147 
L 2788 2013 
L 2788 647 
Q 2788 353 2820 281 
Q 2853 209 2943 161 
Q 3034 113 3253 113 
L 3253 0 
L 1806 0 
L 1806 113 
Q 2044 113 2133 169 
Q 2222 225 2256 338 
Q 2272 391 2272 647 
L 2272 1878 
Q 2272 2228 2169 2381 
Q 2031 2581 1784 2581 
Q 1616 2581 1450 2491 
Q 1191 2353 1050 2181 
L 1050 647 
Q 1050 366 1089 281 
Q 1128 197 1204 155 
Q 1281 113 1516 113 
L 1516 0 
L 100 0 
L 100 113 
Q 297 113 375 155 
Q 453 197 493 289 
Q 534 381 534 647 
L 534 1741 
Q 534 2213 506 2350 
Q 484 2453 437 2492 
Q 391 2531 309 2531 
Q 222 2531 100 2484 
L 53 2597 
L 916 2947 
L 1050 2947 
L 1050 2338 
z
" transform="scale(0.015625)"/>
      </defs>
      <use xlink:href="#TimesNewRomanPSMT-50"/>
      <use xlink:href="#TimesNewRomanPSMT-72" x="55.615234"/>
      <use xlink:href="#TimesNewRomanPSMT-65" x="88.916016"/>
      <use xlink:href="#TimesNewRomanPSMT-6d" x="133.300781"/>
      <use xlink:href="#TimesNewRomanPSMT-61" x="211.083984"/>
      <use xlink:href="#TimesNewRomanPSMT-74" x="255.46875"/>
      <use xlink:href="#TimesNewRomanPSMT-75" x="283.251953"/>
      <use xlink:href="#TimesNewRomanPSMT-72" x="333.251953"/>
      <use xlink:href="#TimesNewRomanPSMT-65" x="366.552734"/>
     </g>
    </g>
    <g id="patch_11">
     <path d="M 69.05 88.177187 
L 89.05 88.177187 
L 89.05 81.177187 
L 69.05 81.177187 
z
" style="fill: #8d5993"/>
    </g>
    <g id="text_14">
     <!-- Stepomission -->
     <g transform="translate(97.05 88.177187) scale(0.1 -0.1)">
      <use xlink:href="#TimesNewRomanPSMT-53"/>
      <use xlink:href="#TimesNewRomanPSMT-74" x="55.615234"/>
      <use xlink:href="#TimesNewRomanPSMT-65" x="83.398438"/>
      <use xlink:href="#TimesNewRomanPSMT-70" x="127.783203"/>
      <use xlink:href="#TimesNewRomanPSMT-6f" x="177.783203"/>
      <use xlink:href="#TimesNewRomanPSMT-6d" x="227.783203"/>
      <use xlink:href="#TimesNewRomanPSMT-69" x="305.566406"/>
      <use xlink:href="#TimesNewRomanPSMT-73" x="333.349609"/>
      <use xlink:href="#TimesNewRomanPSMT-73" x="372.265625"/>
      <use xlink:href="#TimesNewRomanPSMT-69" x="411.181641"/>
      <use xlink:href="#TimesNewRomanPSMT-6f" x="438.964844"/>
      <use xlink:href="#TimesNewRomanPSMT-6e" x="488.964844"/>
     </g>
    </g>
   </g>
  </g>
  <g id="axes_2">
   <g id="patch_12">
    <path d="M 60.05 675.16 
L 667.847692 675.16 
L 667.847692 529.04 
L 60.05 529.04 
z
" style="fill: #ffffff"/>
   </g>
   <g id="matplotlib.axis_3">
    <g id="xtick_5">
     <g id="line2d_8">
      <g>
       <use xlink:href="#m0ffd11ebf1" x="110.103928" y="675.16" style="stroke: #000000; stroke-width: 0.8"/>
      </g>
     </g>
     <g id="text_15">
      <!-- 2016-11 -->
      <g transform="translate(89.212521 689.758438) scale(0.1 -0.1)">
       <defs>
        <path id="DejaVuSans-36" d="M 2113 2584 
Q 1688 2584 1439 2293 
Q 1191 2003 1191 1497 
Q 1191 994 1439 701 
Q 1688 409 2113 409 
Q 2538 409 2786 701 
Q 3034 994 3034 1497 
Q 3034 2003 2786 2293 
Q 2538 2584 2113 2584 
z
M 3366 4563 
L 3366 3988 
Q 3128 4100 2886 4159 
Q 2644 4219 2406 4219 
Q 1781 4219 1451 3797 
Q 1122 3375 1075 2522 
Q 1259 2794 1537 2939 
Q 1816 3084 2150 3084 
Q 2853 3084 3261 2657 
Q 3669 2231 3669 1497 
Q 3669 778 3244 343 
Q 2819 -91 2113 -91 
Q 1303 -91 875 529 
Q 447 1150 447 2328 
Q 447 3434 972 4092 
Q 1497 4750 2381 4750 
Q 2619 4750 2861 4703 
Q 3103 4656 3366 4563 
z
" transform="scale(0.015625)"/>
        <path id="DejaVuSans-2d" d="M 313 2009 
L 1997 2009 
L 1997 1497 
L 313 1497 
L 313 2009 
z
" transform="scale(0.015625)"/>
       </defs>
       <use xlink:href="#DejaVuSans-32"/>
       <use xlink:href="#DejaVuSans-30" x="63.623047"/>
       <use xlink:href="#DejaVuSans-31" x="127.246094"/>
       <use xlink:href="#DejaVuSans-36" x="190.869141"/>
       <use xlink:href="#DejaVuSans-2d" x="254.492188"/>
       <use xlink:href="#DejaVuSans-31" x="290.576172"/>
       <use xlink:href="#DejaVuSans-31" x="354.199219"/>
      </g>
     </g>
    </g>
    <g id="xtick_6">
     <g id="line2d_9">
      <g>
       <use xlink:href="#m0ffd11ebf1" x="210.211783" y="675.16" style="stroke: #000000; stroke-width: 0.8"/>
      </g>
     </g>
     <g id="text_16">
      <!-- 2016-11 -->
      <g transform="translate(189.320377 689.758438) scale(0.1 -0.1)">
       <use xlink:href="#DejaVuSans-32"/>
       <use xlink:href="#DejaVuSans-30" x="63.623047"/>
       <use xlink:href="#DejaVuSans-31" x="127.246094"/>
       <use xlink:href="#DejaVuSans-36" x="190.869141"/>
       <use xlink:href="#DejaVuSans-2d" x="254.492188"/>
       <use xlink:href="#DejaVuSans-31" x="290.576172"/>
       <use xlink:href="#DejaVuSans-31" x="354.199219"/>
      </g>
     </g>
    </g>
    <g id="xtick_7">
     <g id="line2d_10">
      <g>
       <use xlink:href="#m0ffd11ebf1" x="324.62076" y="675.16" style="stroke: #000000; stroke-width: 0.8"/>
      </g>
     </g>
     <g id="text_17">
      <!-- 2016-12 -->
      <g transform="translate(303.729354 689.758438) scale(0.1 -0.1)">
       <use xlink:href="#DejaVuSans-32"/>
       <use xlink:href="#DejaVuSans-30" x="63.623047"/>
       <use xlink:href="#DejaVuSans-31" x="127.246094"/>
       <use xlink:href="#DejaVuSans-36" x="190.869141"/>
       <use xlink:href="#DejaVuSans-2d" x="254.492188"/>
       <use xlink:href="#DejaVuSans-31" x="290.576172"/>
       <use xlink:href="#DejaVuSans-32" x="354.199219"/>
      </g>
     </g>
    </g>
    <g id="xtick_8">
     <g id="line2d_11">
      <g>
       <use xlink:href="#m0ffd11ebf1" x="424.728615" y="675.16" style="stroke: #000000; stroke-width: 0.8"/>
      </g>
     </g>
     <g id="text_18">
      <!-- 2016-12 -->
      <g transform="translate(403.837209 689.758438) scale(0.1 -0.1)">
       <use xlink:href="#DejaVuSans-32"/>
       <use xlink:href="#DejaVuSans-30" x="63.623047"/>
       <use xlink:href="#DejaVuSans-31" x="127.246094"/>
       <use xlink:href="#DejaVuSans-36" x="190.869141"/>
       <use xlink:href="#DejaVuSans-2d" x="254.492188"/>
       <use xlink:href="#DejaVuSans-31" x="290.576172"/>
       <use xlink:href="#DejaVuSans-32" x="354.199219"/>
      </g>
     </g>
    </g>
    <g id="xtick_9">
     <g id="line2d_12">
      <g>
       <use xlink:href="#m0ffd11ebf1" x="546.288154" y="675.16" style="stroke: #000000; stroke-width: 0.8"/>
      </g>
     </g>
     <g id="text_19">
      <!-- 2017-01 -->
      <g transform="translate(525.396748 689.758438) scale(0.1 -0.1)">
       <defs>
        <path id="DejaVuSans-37" d="M 525 4666 
L 3525 4666 
L 3525 4397 
L 1831 0 
L 1172 0 
L 2766 4134 
L 525 4134 
L 525 4666 
z
" transform="scale(0.015625)"/>
       </defs>
       <use xlink:href="#DejaVuSans-32"/>
       <use xlink:href="#DejaVuSans-30" x="63.623047"/>
       <use xlink:href="#DejaVuSans-31" x="127.246094"/>
       <use xlink:href="#DejaVuSans-37" x="190.869141"/>
       <use xlink:href="#DejaVuSans-2d" x="254.492188"/>
       <use xlink:href="#DejaVuSans-30" x="290.576172"/>
       <use xlink:href="#DejaVuSans-31" x="354.199219"/>
      </g>
     </g>
    </g>
    <g id="xtick_10">
     <g id="line2d_13">
      <g>
       <use xlink:href="#m0ffd11ebf1" x="646.396009" y="675.16" style="stroke: #000000; stroke-width: 0.8"/>
      </g>
     </g>
     <g id="text_20">
      <!-- 2017-01 -->
      <g transform="translate(625.504603 689.758438) scale(0.1 -0.1)">
       <use xlink:href="#DejaVuSans-32"/>
       <use xlink:href="#DejaVuSans-30" x="63.623047"/>
       <use xlink:href="#DejaVuSans-31" x="127.246094"/>
       <use xlink:href="#DejaVuSans-37" x="190.869141"/>
       <use xlink:href="#DejaVuSans-2d" x="254.492188"/>
       <use xlink:href="#DejaVuSans-30" x="290.576172"/>
       <use xlink:href="#DejaVuSans-31" x="354.199219"/>
      </g>
     </g>
    </g>
    <g id="text_21">
     <!-- Date -->
     <g transform="translate(350.734159 705.559375) scale(0.14 -0.14)">
      <defs>
       <path id="TimesNewRomanPSMT-44" d="M 109 0 
L 109 116 
L 269 116 
Q 538 116 650 288 
Q 719 391 719 750 
L 719 3488 
Q 719 3884 631 3984 
Q 509 4122 269 4122 
L 109 4122 
L 109 4238 
L 1834 4238 
Q 2784 4238 3279 4022 
Q 3775 3806 4076 3303 
Q 4378 2800 4378 2141 
Q 4378 1256 3841 663 
Q 3238 0 2003 0 
L 109 0 
z
M 1319 306 
Q 1716 219 1984 219 
Q 2709 219 3187 728 
Q 3666 1238 3666 2109 
Q 3666 2988 3187 3494 
Q 2709 4000 1959 4000 
Q 1678 4000 1319 3909 
L 1319 306 
z
" transform="scale(0.015625)"/>
      </defs>
      <use xlink:href="#TimesNewRomanPSMT-44"/>
      <use xlink:href="#TimesNewRomanPSMT-61" x="72.216797"/>
      <use xlink:href="#TimesNewRomanPSMT-74" x="116.601562"/>
      <use xlink:href="#TimesNewRomanPSMT-65" x="144.384766"/>
     </g>
    </g>
   </g>
   <g id="matplotlib.axis_4">
    <g id="ytick_3">
     <g id="line2d_14">
      <g>
       <use xlink:href="#me794ed6cf3" x="60.05" y="675.16" style="stroke: #000000; stroke-width: 0.8"/>
      </g>
     </g>
     <g id="text_22">
      <!-- 700 -->
      <g transform="translate(33.9625 678.959219) scale(0.1 -0.1)">
       <use xlink:href="#DejaVuSans-37"/>
       <use xlink:href="#DejaVuSans-30" x="63.623047"/>
       <use xlink:href="#DejaVuSans-30" x="127.246094"/>
      </g>
     </g>
    </g>
    <g id="ytick_4">
     <g id="line2d_15">
      <g>
       <use xlink:href="#me794ed6cf3" x="60.05" y="602.1" style="stroke: #000000; stroke-width: 0.8"/>
      </g>
     </g>
     <g id="text_23">
      <!-- 1000 -->
      <g transform="translate(27.6 605.899219) scale(0.1 -0.1)">
       <use xlink:href="#DejaVuSans-31"/>
       <use xlink:href="#DejaVuSans-30" x="63.623047"/>
       <use xlink:href="#DejaVuSans-30" x="127.246094"/>
       <use xlink:href="#DejaVuSans-30" x="190.869141"/>
      </g>
     </g>
    </g>
    <g id="ytick_5">
     <g id="line2d_16">
      <g>
       <use xlink:href="#me794ed6cf3" x="60.05" y="529.04" style="stroke: #000000; stroke-width: 0.8"/>
      </g>
     </g>
     <g id="text_24">
      <!-- 1300 -->
      <g transform="translate(27.6 532.839219) scale(0.1 -0.1)">
       <defs>
        <path id="DejaVuSans-33" d="M 2597 2516 
Q 3050 2419 3304 2112 
Q 3559 1806 3559 1356 
Q 3559 666 3084 287 
Q 2609 -91 1734 -91 
Q 1441 -91 1130 -33 
Q 819 25 488 141 
L 488 750 
Q 750 597 1062 519 
Q 1375 441 1716 441 
Q 2309 441 2620 675 
Q 2931 909 2931 1356 
Q 2931 1769 2642 2001 
Q 2353 2234 1838 2234 
L 1294 2234 
L 1294 2753 
L 1863 2753 
Q 2328 2753 2575 2939 
Q 2822 3125 2822 3475 
Q 2822 3834 2567 4026 
Q 2313 4219 1838 4219 
Q 1578 4219 1281 4162 
Q 984 4106 628 3988 
L 628 4550 
Q 988 4650 1302 4700 
Q 1616 4750 1894 4750 
Q 2613 4750 3031 4423 
Q 3450 4097 3450 3541 
Q 3450 3153 3228 2886 
Q 3006 2619 2597 2516 
z
" transform="scale(0.015625)"/>
       </defs>
       <use xlink:href="#DejaVuSans-31"/>
       <use xlink:href="#DejaVuSans-33" x="63.623047"/>
       <use xlink:href="#DejaVuSans-30" x="127.246094"/>
       <use xlink:href="#DejaVuSans-30" x="190.869141"/>
      </g>
     </g>
    </g>
    <g id="text_25">
     <!-- Elo -->
     <g transform="translate(20.605313 611.820156) rotate(-90) scale(0.14 -0.14)">
      <defs>
       <path id="TimesNewRomanPSMT-6c" d="M 1184 4444 
L 1184 647 
Q 1184 378 1223 290 
Q 1263 203 1344 158 
Q 1425 113 1647 113 
L 1647 0 
L 244 0 
L 244 113 
Q 441 113 512 153 
Q 584 194 625 287 
Q 666 381 666 647 
L 666 3247 
Q 666 3731 644 3842 
Q 622 3953 573 3993 
Q 525 4034 450 4034 
Q 369 4034 244 3984 
L 191 4094 
L 1044 4444 
L 1184 4444 
z
" transform="scale(0.015625)"/>
      </defs>
      <use xlink:href="#TimesNewRomanPSMT-45"/>
      <use xlink:href="#TimesNewRomanPSMT-6c" x="61.083984"/>
      <use xlink:href="#TimesNewRomanPSMT-6f" x="88.867188"/>
     </g>
    </g>
   </g>
   <g id="line2d_17">
    <path d="M 60.05 603.5612 
L 67.200561 603.5612 
L 74.351122 603.5612 
L 81.501683 603.5612 
L 88.652244 603.5612 
L 95.802805 603.317667 
L 102.953367 602.969762 
L 110.103928 602.982808 
L 117.254489 602.992956 
L 124.40505 603.001073 
L 131.555611 602.897018 
L 138.706172 602.708833 
L 145.856733 602.3248 
L 153.007294 601.995629 
L 160.157855 601.710347 
L 167.308416 601.384621 
L 174.458977 601.097216 
L 181.609538 600.841744 
L 188.7601 600.613165 
L 195.910661 600.41962 
L 203.061222 600.38367 
L 210.211783 600.350988 
L 217.362344 600.384678 
L 224.512905 600.415561 
L 231.663466 600.668024 
L 238.814027 600.854233 
L 245.964588 601.026649 
L 253.115149 601.204145 
L 260.26571 601.344207 
L 267.416271 601.507402 
L 274.566833 601.596698 
L 281.717394 601.621051 
L 288.867955 601.539873 
L 296.018516 601.604816 
L 303.169077 601.726582 
L 310.319638 601.872702 
L 317.470199 602.059411 
L 324.62076 602.091882 
L 331.771321 602.043176 
L 338.921882 601.961998 
L 346.072443 601.961998 
L 353.223005 602.002587 
L 360.373566 602.181178 
L 367.524127 602.359769 
L 374.674688 602.53836 
L 381.825249 602.75754 
L 388.97581 602.992956 
L 396.126371 603.260842 
L 403.276932 603.423198 
L 410.427493 603.5612 
L 417.578054 603.642378 
L 424.728615 603.723556 
L 431.879176 603.756027 
L 439.029738 603.788498 
L 446.180299 603.666731 
L 453.33086 603.715438 
L 460.481421 603.764144 
L 467.631982 603.731673 
L 474.782543 603.650496 
L 481.933104 603.577436 
L 489.083665 603.358256 
L 496.234226 603.033544 
L 503.384787 602.814364 
L 510.535348 602.432829 
L 517.68591 601.994469 
L 524.836471 601.580462 
L 531.987032 601.166456 
L 539.137593 600.833627 
L 546.288154 600.581976 
L 553.438715 600.379031 
L 560.589276 600.135498 
L 567.739837 599.83514 
L 574.890398 599.526664 
L 582.040959 599.218189 
L 589.19152 598.909713 
L 596.342081 598.560649 
L 603.492643 598.138524 
L 610.643204 597.683929 
L 617.793765 597.3511 
L 624.944326 597.050742 
L 632.094887 596.823444 
L 639.245448 596.661089 
L 646.396009 596.523087 
L 653.54657 596.263318 
L 660.697131 595.971078 
L 667.847692 595.548953 
" clip-path="url(#p9188dbc214)" style="fill: none; stroke: #ffd700; stroke-width: 2; stroke-linecap: square"/>
   </g>
   <g id="patch_13">
    <path d="M 60.05 675.16 
L 60.05 529.04 
" style="fill: none; stroke: #000000; stroke-width: 0.8; stroke-linejoin: miter; stroke-linecap: square"/>
   </g>
   <g id="patch_14">
    <path d="M 667.847692 675.16 
L 667.847692 529.04 
" style="fill: none; stroke: #000000; stroke-width: 0.8; stroke-linejoin: miter; stroke-linecap: square"/>
   </g>
   <g id="patch_15">
    <path d="M 60.05 675.16 
L 667.847692 675.16 
" style="fill: none; stroke: #000000; stroke-width: 0.8; stroke-linejoin: miter; stroke-linecap: square"/>
   </g>
   <g id="patch_16">
    <path d="M 60.05 529.04 
L 667.847692 529.04 
" style="fill: none; stroke: #000000; stroke-width: 0.8; stroke-linejoin: miter; stroke-linecap: square"/>
   </g>
   <g id="text_26">
    <!-- Hierarchy -->
    <g transform="translate(328.990096 523.04) scale(0.16 -0.16)">
     <defs>
      <path id="TimesNewRomanPS-BoldMT-48" d="M 1750 2038 
L 1750 725 
Q 1750 400 1786 319 
Q 1822 238 1926 177 
Q 2031 116 2209 116 
L 2350 116 
L 2350 0 
L 134 0 
L 134 116 
L 275 116 
Q 459 116 572 181 
Q 653 225 697 331 
Q 731 406 731 725 
L 731 3513 
Q 731 3838 697 3919 
Q 663 4000 558 4061 
Q 453 4122 275 4122 
L 134 4122 
L 134 4238 
L 2350 4238 
L 2350 4122 
L 2209 4122 
Q 2025 4122 1913 4056 
Q 1831 4013 1784 3906 
Q 1750 3831 1750 3513 
L 1750 2313 
L 3247 2313 
L 3247 3513 
Q 3247 3838 3212 3919 
Q 3178 4000 3072 4061 
Q 2966 4122 2788 4122 
L 2650 4122 
L 2650 4238 
L 4863 4238 
L 4863 4122 
L 4725 4122 
Q 4538 4122 4428 4056 
Q 4347 4013 4300 3906 
Q 4266 3831 4266 3513 
L 4266 725 
Q 4266 400 4300 319 
Q 4334 238 4440 177 
Q 4547 116 4725 116 
L 4863 116 
L 4863 0 
L 2650 0 
L 2650 116 
L 2788 116 
Q 2975 116 3084 181 
Q 3166 225 3213 331 
Q 3247 406 3247 725 
L 3247 2038 
L 1750 2038 
z
" transform="scale(0.015625)"/>
      <path id="TimesNewRomanPS-BoldMT-69" d="M 919 4338 
Q 1122 4338 1262 4195 
Q 1403 4053 1403 3853 
Q 1403 3653 1261 3512 
Q 1119 3372 919 3372 
Q 719 3372 578 3512 
Q 438 3653 438 3853 
Q 438 4053 578 4195 
Q 719 4338 919 4338 
z
M 1356 2922 
L 1356 606 
Q 1356 297 1428 211 
Q 1500 125 1709 113 
L 1709 0 
L 131 0 
L 131 113 
Q 325 119 419 225 
Q 481 297 481 606 
L 481 2313 
Q 481 2622 409 2708 
Q 338 2794 131 2806 
L 131 2922 
L 1356 2922 
z
" transform="scale(0.015625)"/>
      <path id="TimesNewRomanPS-BoldMT-72" d="M 1428 2922 
L 1428 2259 
Q 1719 2713 1937 2861 
Q 2156 3009 2359 3009 
Q 2534 3009 2639 2901 
Q 2744 2794 2744 2597 
Q 2744 2388 2642 2272 
Q 2541 2156 2397 2156 
Q 2231 2156 2109 2262 
Q 1988 2369 1966 2381 
Q 1934 2400 1894 2400 
Q 1803 2400 1722 2331 
Q 1594 2225 1528 2028 
Q 1428 1725 1428 1359 
L 1428 688 
L 1431 513 
Q 1431 334 1453 284 
Q 1491 200 1564 161 
Q 1638 122 1813 113 
L 1813 0 
L 234 0 
L 234 113 
Q 425 128 492 217 
Q 559 306 559 688 
L 559 2303 
Q 559 2553 534 2622 
Q 503 2709 443 2750 
Q 384 2791 234 2806 
L 234 2922 
L 1428 2922 
z
" transform="scale(0.015625)"/>
      <path id="TimesNewRomanPS-BoldMT-61" d="M 1828 431 
Q 1294 -41 869 -41 
Q 619 -41 453 123 
Q 288 288 288 534 
Q 288 869 575 1136 
Q 863 1403 1828 1847 
L 1828 2141 
Q 1828 2472 1792 2558 
Q 1756 2644 1656 2708 
Q 1556 2772 1431 2772 
Q 1228 2772 1097 2681 
Q 1016 2625 1016 2550 
Q 1016 2484 1103 2388 
Q 1222 2253 1222 2128 
Q 1222 1975 1108 1867 
Q 994 1759 809 1759 
Q 613 1759 480 1878 
Q 347 1997 347 2156 
Q 347 2381 525 2586 
Q 703 2791 1022 2900 
Q 1341 3009 1684 3009 
Q 2100 3009 2342 2832 
Q 2584 2656 2656 2450 
Q 2700 2319 2700 1847 
L 2700 713 
Q 2700 513 2715 461 
Q 2731 409 2762 384 
Q 2794 359 2834 359 
Q 2916 359 3000 475 
L 3094 400 
Q 2938 169 2770 64 
Q 2603 -41 2391 -41 
Q 2141 -41 2000 76 
Q 1859 194 1828 431 
z
M 1828 659 
L 1828 1638 
Q 1450 1416 1266 1163 
Q 1144 994 1144 822 
Q 1144 678 1247 569 
Q 1325 484 1466 484 
Q 1622 484 1828 659 
z
" transform="scale(0.015625)"/>
      <path id="TimesNewRomanPS-BoldMT-63" d="M 2600 753 
L 2697 678 
Q 2491 291 2183 101 
Q 1875 -88 1528 -88 
Q 944 -88 594 353 
Q 244 794 244 1413 
Q 244 2009 563 2463 
Q 947 3009 1622 3009 
Q 2075 3009 2342 2781 
Q 2609 2553 2609 2272 
Q 2609 2094 2501 1987 
Q 2394 1881 2219 1881 
Q 2034 1881 1914 2003 
Q 1794 2125 1766 2438 
Q 1747 2634 1675 2713 
Q 1603 2791 1506 2791 
Q 1356 2791 1250 2631 
Q 1088 2391 1088 1894 
Q 1088 1481 1219 1104 
Q 1350 728 1578 544 
Q 1750 409 1984 409 
Q 2138 409 2275 481 
Q 2413 553 2600 753 
z
" transform="scale(0.015625)"/>
      <path id="TimesNewRomanPS-BoldMT-68" d="M 1409 4238 
L 1409 2547 
Q 1650 2800 1850 2904 
Q 2050 3009 2266 3009 
Q 2541 3009 2736 2853 
Q 2931 2697 2995 2486 
Q 3059 2275 3059 1775 
L 3059 634 
Q 3059 300 3121 217 
Q 3184 134 3375 113 
L 3375 0 
L 1894 0 
L 1894 113 
Q 2050 134 2128 238 
Q 2184 319 2184 634 
L 2184 1938 
Q 2184 2300 2156 2392 
Q 2128 2484 2061 2536 
Q 1994 2588 1909 2588 
Q 1784 2588 1665 2502 
Q 1547 2416 1409 2200 
L 1409 634 
Q 1409 322 1456 244 
Q 1516 138 1700 113 
L 1700 0 
L 219 0 
L 219 113 
Q 403 131 481 231 
Q 534 300 534 634 
L 534 3603 
Q 534 3934 473 4015 
Q 413 4097 219 4122 
L 219 4238 
L 1409 4238 
z
" transform="scale(0.015625)"/>
      <path id="TimesNewRomanPS-BoldMT-79" d="M 1556 -119 
L 613 2047 
Q 400 2538 298 2650 
Q 197 2763 53 2806 
L 53 2922 
L 1606 2922 
L 1606 2806 
Q 1453 2800 1390 2747 
Q 1328 2694 1328 2619 
Q 1328 2500 1484 2150 
L 1984 1006 
L 2325 1891 
Q 2509 2363 2509 2547 
Q 2509 2663 2432 2731 
Q 2356 2800 2163 2806 
L 2163 2922 
L 3141 2922 
L 3141 2806 
Q 2997 2791 2906 2695 
Q 2816 2600 2603 2047 
L 1769 -119 
Q 1453 -931 1300 -1119 
Q 1084 -1381 759 -1381 
Q 500 -1381 339 -1232 
Q 178 -1084 178 -875 
Q 178 -694 289 -575 
Q 400 -456 563 -456 
Q 719 -456 814 -556 
Q 909 -656 913 -866 
Q 916 -984 941 -1019 
Q 966 -1053 1013 -1053 
Q 1088 -1053 1172 -963 
Q 1297 -831 1466 -363 
L 1556 -119 
z
" transform="scale(0.015625)"/>
     </defs>
     <use xlink:href="#TimesNewRomanPS-BoldMT-48"/>
     <use xlink:href="#TimesNewRomanPS-BoldMT-69" x="77.783203"/>
     <use xlink:href="#TimesNewRomanPS-BoldMT-65" x="105.566406"/>
     <use xlink:href="#TimesNewRomanPS-BoldMT-72" x="149.951172"/>
     <use xlink:href="#TimesNewRomanPS-BoldMT-61" x="194.335938"/>
     <use xlink:href="#TimesNewRomanPS-BoldMT-72" x="244.335938"/>
     <use xlink:href="#TimesNewRomanPS-BoldMT-63" x="286.970703"/>
     <use xlink:href="#TimesNewRomanPS-BoldMT-68" x="331.355469"/>
     <use xlink:href="#TimesNewRomanPS-BoldMT-79" x="386.970703"/>
    </g>
   </g>
  </g>
 </g>
 <defs>
  <clipPath id="p543715ddfe">
   <rect x="60.05" y="29.76" width="607.797692" height="438.36"/>
  </clipPath>
  <clipPath id="p9188dbc214">
   <rect x="60.05" y="529.04" width="607.797692" height="146.12"/>
  </clipPath>
 </defs>
</svg>
