<?xml version="1.0" encoding="utf-8" standalone="no"?>
<!DOCTYPE svg PUBLIC "-//W3C//DTD SVG 1.1//EN"
  "http://www.w3.org/Graphics/SVG/1.1/DTD/svg11.dtd">
<svg xmlns:xlink="http://www.w3.org/1999/xlink" width="720pt" height="720pt" viewBox="0 0 720 720" xmlns="http://www.w3.org/2000/svg" version="1.1">
 <metadata>
  <rdf:RDF xmlns:dc="http://purl.org/dc/elements/1.1/" xmlns:cc="http://creativecommons.org/ns#" xmlns:rdf="http://www.w3.org/1999/02/22-rdf-syntax-ns#">
   <cc:Work>
    <dc:type rdf:resource="http://purl.org/dc/dcmitype/StillImage"/>
    <dc:date>2025-06-27T15:15:19.693337</dc:date>
    <dc:format>image/svg+xml</dc:format>
    <dc:creator>
     <cc:Agent>
      <dc:title>Matplotlib v3.10.3, https://matplotlib.org/</dc:title>
     </cc:Agent>
    </dc:creator>
   </cc:Work>
  </rdf:RDF>
 </metadata>
 <defs>
  <style type="text/css">*{stroke-linejoin: round; stroke-linecap: butt}</style>
 </defs>
 <g id="figure_1">
  <g id="patch_1">
   <path d="M 0 720 
L 720 720 
L 720 0 
L 0 0 
z
" style="fill: #ffffff"/>
  </g>
  <g id="axes_1">
   <g id="patch_2">
    <path d="M 59.915 468.115781 
L 661.832895 468.115781 
L 661.832895 30.283125 
L 59.915 30.283125 
z
" style="fill: #ffffff"/>
   </g>
   <g id="FillBetweenPolyCollection_1">
    <path d="M 59.915 249.199453 
L 59.915 468.115781 
L 63.434988 468.115781 
L 66.954975 468.115781 
L 70.474963 468.115781 
L 73.994951 468.115781 
L 77.514938 468.115781 
L 81.034926 468.115781 
L 84.554914 468.115781 
L 88.074902 468.115781 
L 91.594889 468.115781 
L 95.114877 468.115781 
L 98.634865 468.115781 
L 102.154852 468.115781 
L 105.67484 468.115781 
L 109.194828 468.115781 
L 112.714815 468.115781 
L 116.234803 468.115781 
L 119.754791 468.115781 
L 123.274778 468.115781 
L 126.794766 468.115781 
L 130.314754 468.115781 
L 133.834741 468.115781 
L 137.354729 468.115781 
L 140.874717 468.115781 
L 144.394705 468.115781 
L 147.914692 468.115781 
L 151.43468 468.115781 
L 154.954668 468.115781 
L 158.474655 468.115781 
L 161.994643 468.115781 
L 165.514631 468.115781 
L 169.034618 468.115781 
L 172.554606 468.115781 
L 176.074594 468.115781 
L 179.594581 468.115781 
L 183.114569 468.115781 
L 186.634557 468.115781 
L 190.154544 468.115781 
L 193.674532 468.115781 
L 197.19452 468.115781 
L 200.714508 468.115781 
L 204.234495 468.115781 
L 207.754483 468.115781 
L 211.274471 468.115781 
L 214.794458 468.115781 
L 218.314446 468.115781 
L 221.834434 468.115781 
L 225.354421 468.115781 
L 228.874409 468.115781 
L 232.394397 468.115781 
L 235.914384 468.115781 
L 239.434372 468.115781 
L 242.95436 468.115781 
L 246.474347 468.115781 
L 249.994335 468.115781 
L 253.514323 468.115781 
L 257.034311 468.115781 
L 260.554298 468.115781 
L 264.074286 468.115781 
L 267.594274 468.115781 
L 271.114261 468.115781 
L 274.634249 468.115781 
L 278.154237 468.115781 
L 281.674224 468.115781 
L 285.194212 468.115781 
L 288.7142 468.115781 
L 292.234187 468.115781 
L 295.754175 468.115781 
L 299.274163 468.115781 
L 302.794151 468.115781 
L 306.314138 468.115781 
L 309.834126 468.115781 
L 313.354114 468.115781 
L 316.874101 468.115781 
L 320.394089 468.115781 
L 323.914077 468.115781 
L 327.434064 468.115781 
L 330.954052 468.115781 
L 334.47404 468.115781 
L 337.994027 468.115781 
L 341.514015 468.115781 
L 345.034003 468.115781 
L 348.55399 468.115781 
L 352.073978 468.115781 
L 355.593966 468.115781 
L 359.113954 468.115781 
L 362.633941 468.115781 
L 366.153929 468.115781 
L 369.673917 468.115781 
L 373.193904 468.115781 
L 376.713892 468.115781 
L 380.23388 468.115781 
L 383.753867 468.115781 
L 387.273855 468.115781 
L 390.793843 468.115781 
L 394.31383 468.115781 
L 397.833818 468.115781 
L 401.353806 468.115781 
L 404.873793 468.115781 
L 408.393781 468.115781 
L 411.913769 468.115781 
L 415.433757 468.115781 
L 418.953744 468.115781 
L 422.473732 468.115781 
L 425.99372 468.115781 
L 429.513707 468.115781 
L 433.033695 468.115781 
L 436.553683 468.115781 
L 440.07367 468.115781 
L 443.593658 468.115781 
L 447.113646 468.115781 
L 450.633633 468.115781 
L 454.153621 468.115781 
L 457.673609 468.115781 
L 461.193596 468.115781 
L 464.713584 468.115781 
L 468.233572 468.115781 
L 471.75356 468.115781 
L 475.273547 468.115781 
L 478.793535 468.115781 
L 482.313523 468.115781 
L 485.83351 468.115781 
L 489.353498 468.115781 
L 492.873486 468.115781 
L 496.393473 468.115781 
L 499.913461 468.115781 
L 503.433449 468.115781 
L 506.953436 468.115781 
L 510.473424 468.115781 
L 513.993412 468.115781 
L 517.5134 468.115781 
L 521.033387 468.115781 
L 524.553375 468.115781 
L 528.073363 468.115781 
L 531.59335 468.115781 
L 535.113338 468.115781 
L 538.633326 468.115781 
L 542.153313 468.115781 
L 545.673301 468.115781 
L 549.193289 468.115781 
L 552.713276 468.115781 
L 556.233264 468.115781 
L 559.753252 468.115781 
L 563.273239 468.115781 
L 566.793227 468.115781 
L 570.313215 468.115781 
L 573.833203 468.115781 
L 577.35319 468.115781 
L 580.873178 468.115781 
L 584.393166 468.115781 
L 587.913153 468.115781 
L 591.433141 468.115781 
L 594.953129 468.115781 
L 598.473116 468.115781 
L 601.993104 468.115781 
L 605.513092 468.115781 
L 609.033079 468.115781 
L 612.553067 468.115781 
L 616.073055 468.115781 
L 619.593042 468.115781 
L 623.11303 468.115781 
L 626.633018 468.115781 
L 630.153006 468.115781 
L 633.672993 468.115781 
L 637.192981 468.115781 
L 640.712969 468.115781 
L 644.232956 468.115781 
L 647.752944 468.115781 
L 651.272932 468.115781 
L 654.792919 468.115781 
L 658.312907 468.115781 
L 661.832895 468.115781 
L 661.832895 117.849656 
L 661.832895 117.849656 
L 658.312907 161.632922 
L 654.792919 30.283125 
L 651.272932 30.283125 
L 647.752944 468.115781 
L 644.232956 468.115781 
L 640.712969 125.464137 
L 637.192981 280.473214 
L 633.672993 176.227344 
L 630.153006 468.115781 
L 626.633018 139.741289 
L 623.11303 224.875417 
L 619.593042 30.283125 
L 616.073055 117.849656 
L 612.553067 322.171563 
L 609.033079 165.000865 
L 605.513092 176.227344 
L 601.993104 468.115781 
L 598.473116 292.982719 
L 594.953129 468.115781 
L 591.433141 155.37817 
L 587.913153 249.199453 
L 584.393166 30.283125 
L 580.873178 249.199453 
L 577.35319 30.283125 
L 573.833203 189.495 
L 570.313215 30.283125 
L 566.793227 468.115781 
L 563.273239 165.000865 
L 559.753252 30.283125 
L 556.233264 176.227344 
L 552.713276 30.283125 
L 549.193289 468.115781 
L 545.673301 109.889062 
L 542.153313 217.925692 
L 538.633326 224.875417 
L 535.113338 249.199453 
L 531.59335 139.741289 
L 528.073363 229.297969 
L 524.553375 358.657617 
L 521.033387 30.283125 
L 517.5134 187.902881 
L 513.993412 30.283125 
L 510.473424 30.283125 
L 506.953436 205.416187 
L 503.433449 30.283125 
L 499.913461 117.849656 
L 496.393473 176.227344 
L 492.873486 468.115781 
L 489.353498 30.283125 
L 485.83351 468.115781 
L 482.313523 249.199453 
L 478.793535 30.283125 
L 475.273547 30.283125 
L 471.75356 30.283125 
L 468.233572 117.849656 
L 464.713584 145.502245 
L 461.193596 30.283125 
L 457.673609 117.849656 
L 454.153621 117.849656 
L 450.633633 176.227344 
L 447.113646 127.579271 
L 443.593658 468.115781 
L 440.07367 176.227344 
L 436.553683 30.283125 
L 433.033695 30.283125 
L 429.513707 30.283125 
L 425.99372 176.227344 
L 422.473732 249.199453 
L 418.953744 194.470371 
L 415.433757 292.982719 
L 411.913769 30.283125 
L 408.393781 103.255234 
L 404.873793 194.470371 
L 401.353806 249.199453 
L 397.833818 468.115781 
L 394.31383 292.982719 
L 390.793843 249.199453 
L 387.273855 468.115781 
L 383.753867 249.199453 
L 380.23388 292.982719 
L 376.713892 30.283125 
L 373.193904 229.297969 
L 369.673917 205.416187 
L 366.153929 176.227344 
L 362.633941 249.199453 
L 359.113954 161.632922 
L 355.593966 117.849656 
L 352.073978 127.579271 
L 348.55399 124.104408 
L 345.034003 187.902881 
L 341.514015 30.283125 
L 337.994027 30.283125 
L 334.47404 468.115781 
L 330.954052 189.495 
L 327.434064 198.6803 
L 323.914077 117.849656 
L 320.394089 92.830647 
L 316.874101 139.741289 
L 313.354114 468.115781 
L 309.834126 468.115781 
L 306.314138 30.283125 
L 302.794151 205.416187 
L 299.274163 380.54925 
L 295.754175 176.227344 
L 292.234187 139.741289 
L 288.7142 159.057436 
L 285.194212 238.253637 
L 281.674224 117.849656 
L 278.154237 249.199453 
L 274.634249 30.283125 
L 271.114261 197.350849 
L 267.594274 160.011319 
L 264.074286 207.782851 
L 260.554298 322.171563 
L 257.034311 271.091086 
L 253.514323 176.227344 
L 249.994335 205.416187 
L 246.474347 149.692031 
L 242.95436 322.171563 
L 239.434372 236.322022 
L 235.914384 176.227344 
L 232.394397 165.000865 
L 228.874409 241.091441 
L 225.354421 468.115781 
L 221.834434 205.416187 
L 218.314446 74.066391 
L 214.794458 266.573765 
L 211.274471 351.360406 
L 207.754483 205.416187 
L 204.234495 322.171562 
L 200.714508 194.470371 
L 197.19452 220.010609 
L 193.674532 249.199453 
L 190.154544 176.227344 
L 186.634557 302.449371 
L 183.114569 271.091086 
L 179.594581 30.283125 
L 176.074594 249.199453 
L 172.554606 395.143672 
L 169.034618 249.199453 
L 165.514631 322.171563 
L 161.994643 176.227344 
L 158.474655 322.171563 
L 154.954668 285.685508 
L 151.43468 249.199453 
L 147.914692 249.199453 
L 144.394705 388.509844 
L 140.874717 188.648128 
L 137.354729 468.115781 
L 133.834741 183.524555 
L 130.314754 273.52349 
L 126.794766 249.199453 
L 123.274778 230.956426 
L 119.754791 239.248711 
L 116.234803 292.982719 
L 112.714815 322.171563 
L 109.194828 176.227344 
L 105.67484 238.572447 
L 102.154852 343.020737 
L 98.634865 343.020737 
L 95.114877 292.982719 
L 91.594889 205.416187 
L 88.074902 380.54925 
L 84.554914 343.020737 
L 81.034926 468.115781 
L 77.514938 468.115781 
L 73.994951 322.171563 
L 70.474963 217.925692 
L 66.954975 214.633717 
L 63.434988 280.473214 
L 59.915 249.199453 
z
" clip-path="url(#p12a9ccb67c)" style="fill: #5386b6"/>
   </g>
   <g id="FillBetweenPolyCollection_2">
    <path d="M 59.915 52.174758 
L 59.915 249.199453 
L 63.434988 280.473214 
L 66.954975 214.633717 
L 70.474963 217.925692 
L 73.994951 322.171563 
L 77.514938 468.115781 
L 81.034926 468.115781 
L 84.554914 343.020737 
L 88.074902 380.54925 
L 91.594889 205.416187 
L 95.114877 292.982719 
L 98.634865 343.020737 
L 102.154852 343.020737 
L 105.67484 238.572447 
L 109.194828 176.227344 
L 112.714815 322.171563 
L 116.234803 292.982719 
L 119.754791 239.248711 
L 123.274778 230.956426 
L 126.794766 249.199453 
L 130.314754 273.52349 
L 133.834741 183.524555 
L 137.354729 468.115781 
L 140.874717 188.648128 
L 144.394705 388.509844 
L 147.914692 249.199453 
L 151.43468 249.199453 
L 154.954668 285.685508 
L 158.474655 322.171563 
L 161.994643 176.227344 
L 165.514631 322.171563 
L 169.034618 249.199453 
L 172.554606 395.143672 
L 176.074594 249.199453 
L 179.594581 30.283125 
L 183.114569 271.091086 
L 186.634557 302.449371 
L 190.154544 176.227344 
L 193.674532 249.199453 
L 197.19452 220.010609 
L 200.714508 194.470371 
L 204.234495 322.171562 
L 207.754483 205.416187 
L 211.274471 351.360406 
L 214.794458 266.573765 
L 218.314446 74.066391 
L 221.834434 205.416187 
L 225.354421 468.115781 
L 228.874409 241.091441 
L 232.394397 165.000865 
L 235.914384 176.227344 
L 239.434372 236.322022 
L 242.95436 322.171563 
L 246.474347 149.692031 
L 249.994335 205.416187 
L 253.514323 176.227344 
L 257.034311 271.091086 
L 260.554298 322.171563 
L 264.074286 207.782851 
L 267.594274 160.011319 
L 271.114261 197.350849 
L 274.634249 30.283125 
L 278.154237 249.199453 
L 281.674224 117.849656 
L 285.194212 238.253637 
L 288.7142 159.057436 
L 292.234187 139.741289 
L 295.754175 176.227344 
L 299.274163 380.54925 
L 302.794151 205.416187 
L 306.314138 30.283125 
L 309.834126 468.115781 
L 313.354114 468.115781 
L 316.874101 139.741289 
L 320.394089 92.830647 
L 323.914077 117.849656 
L 327.434064 198.6803 
L 330.954052 189.495 
L 334.47404 468.115781 
L 337.994027 30.283125 
L 341.514015 30.283125 
L 345.034003 187.902881 
L 348.55399 124.104408 
L 352.073978 127.579271 
L 355.593966 117.849656 
L 359.113954 161.632922 
L 362.633941 249.199453 
L 366.153929 176.227344 
L 369.673917 205.416187 
L 373.193904 229.297969 
L 376.713892 30.283125 
L 380.23388 292.982719 
L 383.753867 249.199453 
L 387.273855 468.115781 
L 390.793843 249.199453 
L 394.31383 292.982719 
L 397.833818 468.115781 
L 401.353806 249.199453 
L 404.873793 194.470371 
L 408.393781 103.255234 
L 411.913769 30.283125 
L 415.433757 292.982719 
L 418.953744 194.470371 
L 422.473732 249.199453 
L 425.99372 176.227344 
L 429.513707 30.283125 
L 433.033695 30.283125 
L 436.553683 30.283125 
L 440.07367 176.227344 
L 443.593658 468.115781 
L 447.113646 127.579271 
L 450.633633 176.227344 
L 454.153621 117.849656 
L 457.673609 117.849656 
L 461.193596 30.283125 
L 464.713584 145.502245 
L 468.233572 117.849656 
L 471.75356 30.283125 
L 475.273547 30.283125 
L 478.793535 30.283125 
L 482.313523 249.199453 
L 485.83351 468.115781 
L 489.353498 30.283125 
L 492.873486 468.115781 
L 496.393473 176.227344 
L 499.913461 117.849656 
L 503.433449 30.283125 
L 506.953436 205.416187 
L 510.473424 30.283125 
L 513.993412 30.283125 
L 517.5134 187.902881 
L 521.033387 30.283125 
L 524.553375 358.657617 
L 528.073363 229.297969 
L 531.59335 139.741289 
L 535.113338 249.199453 
L 538.633326 224.875417 
L 542.153313 217.925692 
L 545.673301 109.889062 
L 549.193289 468.115781 
L 552.713276 30.283125 
L 556.233264 176.227344 
L 559.753252 30.283125 
L 563.273239 165.000865 
L 566.793227 468.115781 
L 570.313215 30.283125 
L 573.833203 189.495 
L 577.35319 30.283125 
L 580.873178 249.199453 
L 584.393166 30.283125 
L 587.913153 249.199453 
L 591.433141 155.37817 
L 594.953129 468.115781 
L 598.473116 292.982719 
L 601.993104 468.115781 
L 605.513092 176.227344 
L 609.033079 165.000865 
L 612.553067 322.171563 
L 616.073055 117.849656 
L 619.593042 30.283125 
L 623.11303 224.875417 
L 626.633018 139.741289 
L 630.153006 468.115781 
L 633.672993 176.227344 
L 637.192981 280.473214 
L 640.712969 125.464137 
L 644.232956 468.115781 
L 647.752944 468.115781 
L 651.272932 30.283125 
L 654.792919 30.283125 
L 658.312907 161.632922 
L 661.832895 117.849656 
L 661.832895 30.283125 
L 661.832895 30.283125 
L 658.312907 30.283125 
L 654.792919 30.283125 
L 651.272932 30.283125 
L 647.752944 30.283125 
L 644.232956 30.283125 
L 640.712969 87.391732 
L 637.192981 30.283125 
L 633.672993 30.283125 
L 630.153006 30.283125 
L 626.633018 139.741289 
L 623.11303 127.579271 
L 619.593042 30.283125 
L 616.073055 117.849656 
L 612.553067 30.283125 
L 609.033079 97.641995 
L 605.513092 30.283125 
L 601.993104 30.283125 
L 598.473116 117.849656 
L 594.953129 468.115781 
L 591.433141 61.556886 
L 587.913153 249.199453 
L 584.393166 30.283125 
L 580.873178 30.283125 
L 577.35319 30.283125 
L 573.833203 30.283125 
L 570.313215 30.283125 
L 566.793227 468.115781 
L 563.273239 97.641995 
L 559.753252 30.283125 
L 556.233264 30.283125 
L 552.713276 30.283125 
L 549.193289 249.199453 
L 545.673301 30.283125 
L 542.153313 61.556886 
L 538.633326 30.283125 
L 535.113338 30.283125 
L 531.59335 85.012207 
L 528.073363 30.283125 
L 524.553375 139.741289 
L 521.033387 30.283125 
L 517.5134 30.283125 
L 513.993412 30.283125 
L 510.473424 30.283125 
L 506.953436 30.283125 
L 503.433449 30.283125 
L 499.913461 30.283125 
L 496.393473 30.283125 
L 492.873486 468.115781 
L 489.353498 30.283125 
L 485.83351 30.283125 
L 482.313523 30.283125 
L 478.793535 30.283125 
L 475.273547 30.283125 
L 471.75356 30.283125 
L 468.233572 74.066391 
L 464.713584 53.326949 
L 461.193596 30.283125 
L 457.673609 30.283125 
L 454.153621 117.849656 
L 450.633633 30.283125 
L 447.113646 30.283125 
L 443.593658 30.283125 
L 440.07367 30.283125 
L 436.553683 30.283125 
L 433.033695 30.283125 
L 429.513707 30.283125 
L 425.99372 30.283125 
L 422.473732 249.199453 
L 418.953744 30.283125 
L 415.433757 117.849656 
L 411.913769 30.283125 
L 408.393781 103.255234 
L 404.873793 30.283125 
L 401.353806 30.283125 
L 397.833818 30.283125 
L 394.31383 30.283125 
L 390.793843 103.255234 
L 387.273855 468.115781 
L 383.753867 30.283125 
L 380.23388 117.849656 
L 376.713892 30.283125 
L 373.193904 149.692031 
L 369.673917 117.849656 
L 366.153929 30.283125 
L 362.633941 30.283125 
L 359.113954 74.066391 
L 355.593966 52.174758 
L 352.073978 30.283125 
L 348.55399 61.556886 
L 345.034003 65.309737 
L 341.514015 30.283125 
L 337.994027 30.283125 
L 334.47404 30.283125 
L 330.954052 109.889062 
L 327.434064 63.96256 
L 323.914077 30.283125 
L 320.394089 51.132299 
L 316.874101 30.283125 
L 313.354114 30.283125 
L 309.834126 30.283125 
L 306.314138 30.283125 
L 302.794151 30.283125 
L 299.274163 292.982719 
L 295.754175 176.227344 
L 292.234187 30.283125 
L 288.7142 81.792849 
L 285.194212 106.90384 
L 281.674224 30.283125 
L 278.154237 30.283125 
L 274.634249 30.283125 
L 271.114261 53.326949 
L 267.594274 46.499149 
L 264.074286 89.4497 
L 260.554298 30.283125 
L 257.034311 74.066391 
L 253.514323 78.931198 
L 249.994335 117.849656 
L 246.474347 30.283125 
L 242.95436 103.255234 
L 239.434372 30.283125 
L 235.914384 103.255234 
L 232.394397 63.96256 
L 228.874409 78.931198 
L 225.354421 468.115781 
L 221.834434 30.283125 
L 218.314446 30.283125 
L 214.794458 51.132299 
L 211.274471 88.660812 
L 207.754483 117.849656 
L 204.234495 103.255234 
L 200.714508 30.283125 
L 197.19452 74.066391 
L 193.674532 30.283125 
L 190.154544 176.227344 
L 186.634557 65.78307 
L 183.114569 74.066391 
L 179.594581 30.283125 
L 176.074594 74.066391 
L 172.554606 30.283125 
L 169.034618 30.283125 
L 165.514631 30.283125 
L 161.994643 30.283125 
L 158.474655 176.227344 
L 154.954668 30.283125 
L 151.43468 30.283125 
L 147.914692 30.283125 
L 144.394705 70.086094 
L 140.874717 48.914302 
L 137.354729 30.283125 
L 133.834741 74.066391 
L 130.314754 78.931198 
L 126.794766 30.283125 
L 123.274778 48.526152 
L 119.754791 60.135352 
L 116.234803 59.471969 
L 112.714815 30.283125 
L 109.194828 30.283125 
L 105.67484 34.533927 
L 102.154852 92.830647 
L 98.634865 124.104408 
L 95.114877 74.066391 
L 91.594889 30.283125 
L 88.074902 30.283125 
L 84.554914 30.283125 
L 81.034926 30.283125 
L 77.514938 249.199453 
L 73.994951 30.283125 
L 70.474963 30.283125 
L 66.954975 30.283125 
L 63.434988 30.283125 
L 59.915 52.174758 
z
" clip-path="url(#p12a9ccb67c)" style="fill: #d57459"/>
   </g>
   <g id="FillBetweenPolyCollection_3">
    <path d="M 59.915 30.283125 
L 59.915 52.174758 
L 63.434988 30.283125 
L 66.954975 30.283125 
L 70.474963 30.283125 
L 73.994951 30.283125 
L 77.514938 249.199453 
L 81.034926 30.283125 
L 84.554914 30.283125 
L 88.074902 30.283125 
L 91.594889 30.283125 
L 95.114877 74.066391 
L 98.634865 124.104408 
L 102.154852 92.830647 
L 105.67484 34.533927 
L 109.194828 30.283125 
L 112.714815 30.283125 
L 116.234803 59.471969 
L 119.754791 60.135352 
L 123.274778 48.526152 
L 126.794766 30.283125 
L 130.314754 78.931198 
L 133.834741 74.066391 
L 137.354729 30.283125 
L 140.874717 48.914302 
L 144.394705 70.086094 
L 147.914692 30.283125 
L 151.43468 30.283125 
L 154.954668 30.283125 
L 158.474655 176.227344 
L 161.994643 30.283125 
L 165.514631 30.283125 
L 169.034618 30.283125 
L 172.554606 30.283125 
L 176.074594 74.066391 
L 179.594581 30.283125 
L 183.114569 74.066391 
L 186.634557 65.78307 
L 190.154544 176.227344 
L 193.674532 30.283125 
L 197.19452 74.066391 
L 200.714508 30.283125 
L 204.234495 103.255234 
L 207.754483 117.849656 
L 211.274471 88.660812 
L 214.794458 51.132299 
L 218.314446 30.283125 
L 221.834434 30.283125 
L 225.354421 468.115781 
L 228.874409 78.931198 
L 232.394397 63.96256 
L 235.914384 103.255234 
L 239.434372 30.283125 
L 242.95436 103.255234 
L 246.474347 30.283125 
L 249.994335 117.849656 
L 253.514323 78.931198 
L 257.034311 74.066391 
L 260.554298 30.283125 
L 264.074286 89.4497 
L 267.594274 46.499149 
L 271.114261 53.326949 
L 274.634249 30.283125 
L 278.154237 30.283125 
L 281.674224 30.283125 
L 285.194212 106.90384 
L 288.7142 81.792849 
L 292.234187 30.283125 
L 295.754175 176.227344 
L 299.274163 292.982719 
L 302.794151 30.283125 
L 306.314138 30.283125 
L 309.834126 30.283125 
L 313.354114 30.283125 
L 316.874101 30.283125 
L 320.394089 51.132299 
L 323.914077 30.283125 
L 327.434064 63.96256 
L 330.954052 109.889062 
L 334.47404 30.283125 
L 337.994027 30.283125 
L 341.514015 30.283125 
L 345.034003 65.309737 
L 348.55399 61.556886 
L 352.073978 30.283125 
L 355.593966 52.174758 
L 359.113954 74.066391 
L 362.633941 30.283125 
L 366.153929 30.283125 
L 369.673917 117.849656 
L 373.193904 149.692031 
L 376.713892 30.283125 
L 380.23388 117.849656 
L 383.753867 30.283125 
L 387.273855 468.115781 
L 390.793843 103.255234 
L 394.31383 30.283125 
L 397.833818 30.283125 
L 401.353806 30.283125 
L 404.873793 30.283125 
L 408.393781 103.255234 
L 411.913769 30.283125 
L 415.433757 117.849656 
L 418.953744 30.283125 
L 422.473732 249.199453 
L 425.99372 30.283125 
L 429.513707 30.283125 
L 433.033695 30.283125 
L 436.553683 30.283125 
L 440.07367 30.283125 
L 443.593658 30.283125 
L 447.113646 30.283125 
L 450.633633 30.283125 
L 454.153621 117.849656 
L 457.673609 30.283125 
L 461.193596 30.283125 
L 464.713584 53.326949 
L 468.233572 74.066391 
L 471.75356 30.283125 
L 475.273547 30.283125 
L 478.793535 30.283125 
L 482.313523 30.283125 
L 485.83351 30.283125 
L 489.353498 30.283125 
L 492.873486 468.115781 
L 496.393473 30.283125 
L 499.913461 30.283125 
L 503.433449 30.283125 
L 506.953436 30.283125 
L 510.473424 30.283125 
L 513.993412 30.283125 
L 517.5134 30.283125 
L 521.033387 30.283125 
L 524.553375 139.741289 
L 528.073363 30.283125 
L 531.59335 85.012207 
L 535.113338 30.283125 
L 538.633326 30.283125 
L 542.153313 61.556886 
L 545.673301 30.283125 
L 549.193289 249.199453 
L 552.713276 30.283125 
L 556.233264 30.283125 
L 559.753252 30.283125 
L 563.273239 97.641995 
L 566.793227 468.115781 
L 570.313215 30.283125 
L 573.833203 30.283125 
L 577.35319 30.283125 
L 580.873178 30.283125 
L 584.393166 30.283125 
L 587.913153 249.199453 
L 591.433141 61.556886 
L 594.953129 468.115781 
L 598.473116 117.849656 
L 601.993104 30.283125 
L 605.513092 30.283125 
L 609.033079 97.641995 
L 612.553067 30.283125 
L 616.073055 117.849656 
L 619.593042 30.283125 
L 623.11303 127.579271 
L 626.633018 139.741289 
L 630.153006 30.283125 
L 633.672993 30.283125 
L 637.192981 30.283125 
L 640.712969 87.391732 
L 644.232956 30.283125 
L 647.752944 30.283125 
L 651.272932 30.283125 
L 654.792919 30.283125 
L 658.312907 30.283125 
L 661.832895 30.283125 
L 661.832895 30.283125 
L 661.832895 30.283125 
L 658.312907 30.283125 
L 654.792919 30.283125 
L 651.272932 30.283125 
L 647.752944 30.283125 
L 644.232956 30.283125 
L 640.712969 30.283125 
L 637.192981 30.283125 
L 633.672993 30.283125 
L 630.153006 30.283125 
L 626.633018 30.283125 
L 623.11303 78.931198 
L 619.593042 30.283125 
L 616.073055 117.849656 
L 612.553067 30.283125 
L 609.033079 30.283125 
L 605.513092 30.283125 
L 601.993104 30.283125 
L 598.473116 30.283125 
L 594.953129 30.283125 
L 591.433141 30.283125 
L 587.913153 30.283125 
L 584.393166 30.283125 
L 580.873178 30.283125 
L 577.35319 30.283125 
L 573.833203 30.283125 
L 570.313215 30.283125 
L 566.793227 30.283125 
L 563.273239 30.283125 
L 559.753252 30.283125 
L 556.233264 30.283125 
L 552.713276 30.283125 
L 549.193289 30.283125 
L 545.673301 30.283125 
L 542.153313 30.283125 
L 538.633326 30.283125 
L 535.113338 30.283125 
L 531.59335 30.283125 
L 528.073363 30.283125 
L 524.553375 30.283125 
L 521.033387 30.283125 
L 517.5134 30.283125 
L 513.993412 30.283125 
L 510.473424 30.283125 
L 506.953436 30.283125 
L 503.433449 30.283125 
L 499.913461 30.283125 
L 496.393473 30.283125 
L 492.873486 30.283125 
L 489.353498 30.283125 
L 485.83351 30.283125 
L 482.313523 30.283125 
L 478.793535 30.283125 
L 475.273547 30.283125 
L 471.75356 30.283125 
L 468.233572 30.283125 
L 464.713584 30.283125 
L 461.193596 30.283125 
L 457.673609 30.283125 
L 454.153621 30.283125 
L 450.633633 30.283125 
L 447.113646 30.283125 
L 443.593658 30.283125 
L 440.07367 30.283125 
L 436.553683 30.283125 
L 433.033695 30.283125 
L 429.513707 30.283125 
L 425.99372 30.283125 
L 422.473732 30.283125 
L 418.953744 30.283125 
L 415.433757 30.283125 
L 411.913769 30.283125 
L 408.393781 30.283125 
L 404.873793 30.283125 
L 401.353806 30.283125 
L 397.833818 30.283125 
L 394.31383 30.283125 
L 390.793843 30.283125 
L 387.273855 30.283125 
L 383.753867 30.283125 
L 380.23388 30.283125 
L 376.713892 30.283125 
L 373.193904 30.283125 
L 369.673917 30.283125 
L 366.153929 30.283125 
L 362.633941 30.283125 
L 359.113954 30.283125 
L 355.593966 30.283125 
L 352.073978 30.283125 
L 348.55399 30.283125 
L 345.034003 47.796431 
L 341.514015 30.283125 
L 337.994027 30.283125 
L 334.47404 30.283125 
L 330.954052 30.283125 
L 327.434064 41.509603 
L 323.914077 30.283125 
L 320.394089 30.283125 
L 316.874101 30.283125 
L 313.354114 30.283125 
L 309.834126 30.283125 
L 306.314138 30.283125 
L 302.794151 30.283125 
L 299.274163 30.283125 
L 295.754175 30.283125 
L 292.234187 30.283125 
L 288.7142 30.283125 
L 285.194212 30.283125 
L 281.674224 30.283125 
L 278.154237 30.283125 
L 274.634249 30.283125 
L 271.114261 30.283125 
L 267.594274 30.283125 
L 264.074286 30.283125 
L 260.554298 30.283125 
L 257.034311 30.283125 
L 253.514323 30.283125 
L 249.994335 30.283125 
L 246.474347 30.283125 
L 242.95436 66.76918 
L 239.434372 30.283125 
L 235.914384 30.283125 
L 232.394397 30.283125 
L 228.874409 46.499149 
L 225.354421 30.283125 
L 221.834434 30.283125 
L 218.314446 30.283125 
L 214.794458 37.23285 
L 211.274471 30.283125 
L 207.754483 30.283125 
L 204.234495 30.283125 
L 200.714508 30.283125 
L 197.19452 30.283125 
L 193.674532 30.283125 
L 190.154544 30.283125 
L 186.634557 30.283125 
L 183.114569 30.283125 
L 179.594581 30.283125 
L 176.074594 30.283125 
L 172.554606 30.283125 
L 169.034618 30.283125 
L 165.514631 30.283125 
L 161.994643 30.283125 
L 158.474655 176.227344 
L 154.954668 30.283125 
L 151.43468 30.283125 
L 147.914692 30.283125 
L 144.394705 30.283125 
L 140.874717 39.598713 
L 137.354729 30.283125 
L 133.834741 30.283125 
L 130.314754 30.283125 
L 126.794766 30.283125 
L 123.274778 30.283125 
L 119.754791 30.283125 
L 116.234803 30.283125 
L 112.714815 30.283125 
L 109.194828 30.283125 
L 105.67484 30.283125 
L 102.154852 30.283125 
L 98.634865 30.283125 
L 95.114877 30.283125 
L 91.594889 30.283125 
L 88.074902 30.283125 
L 84.554914 30.283125 
L 81.034926 30.283125 
L 77.514938 30.283125 
L 73.994951 30.283125 
L 70.474963 30.283125 
L 66.954975 30.283125 
L 63.434988 30.283125 
L 59.915 30.283125 
z
" clip-path="url(#p12a9ccb67c)" style="fill: #e8bc60"/>
   </g>
   <g id="FillBetweenPolyCollection_4">
    <path d="M 59.915 30.283125 
L 59.915 30.283125 
L 63.434988 30.283125 
L 66.954975 30.283125 
L 70.474963 30.283125 
L 73.994951 30.283125 
L 77.514938 30.283125 
L 81.034926 30.283125 
L 84.554914 30.283125 
L 88.074902 30.283125 
L 91.594889 30.283125 
L 95.114877 30.283125 
L 98.634865 30.283125 
L 102.154852 30.283125 
L 105.67484 30.283125 
L 109.194828 30.283125 
L 112.714815 30.283125 
L 116.234803 30.283125 
L 119.754791 30.283125 
L 123.274778 30.283125 
L 126.794766 30.283125 
L 130.314754 30.283125 
L 133.834741 30.283125 
L 137.354729 30.283125 
L 140.874717 39.598713 
L 144.394705 30.283125 
L 147.914692 30.283125 
L 151.43468 30.283125 
L 154.954668 30.283125 
L 158.474655 176.227344 
L 161.994643 30.283125 
L 165.514631 30.283125 
L 169.034618 30.283125 
L 172.554606 30.283125 
L 176.074594 30.283125 
L 179.594581 30.283125 
L 183.114569 30.283125 
L 186.634557 30.283125 
L 190.154544 30.283125 
L 193.674532 30.283125 
L 197.19452 30.283125 
L 200.714508 30.283125 
L 204.234495 30.283125 
L 207.754483 30.283125 
L 211.274471 30.283125 
L 214.794458 37.23285 
L 218.314446 30.283125 
L 221.834434 30.283125 
L 225.354421 30.283125 
L 228.874409 46.499149 
L 232.394397 30.283125 
L 235.914384 30.283125 
L 239.434372 30.283125 
L 242.95436 66.76918 
L 246.474347 30.283125 
L 249.994335 30.283125 
L 253.514323 30.283125 
L 257.034311 30.283125 
L 260.554298 30.283125 
L 264.074286 30.283125 
L 267.594274 30.283125 
L 271.114261 30.283125 
L 274.634249 30.283125 
L 278.154237 30.283125 
L 281.674224 30.283125 
L 285.194212 30.283125 
L 288.7142 30.283125 
L 292.234187 30.283125 
L 295.754175 30.283125 
L 299.274163 30.283125 
L 302.794151 30.283125 
L 306.314138 30.283125 
L 309.834126 30.283125 
L 313.354114 30.283125 
L 316.874101 30.283125 
L 320.394089 30.283125 
L 323.914077 30.283125 
L 327.434064 41.509603 
L 330.954052 30.283125 
L 334.47404 30.283125 
L 337.994027 30.283125 
L 341.514015 30.283125 
L 345.034003 47.796431 
L 348.55399 30.283125 
L 352.073978 30.283125 
L 355.593966 30.283125 
L 359.113954 30.283125 
L 362.633941 30.283125 
L 366.153929 30.283125 
L 369.673917 30.283125 
L 373.193904 30.283125 
L 376.713892 30.283125 
L 380.23388 30.283125 
L 383.753867 30.283125 
L 387.273855 30.283125 
L 390.793843 30.283125 
L 394.31383 30.283125 
L 397.833818 30.283125 
L 401.353806 30.283125 
L 404.873793 30.283125 
L 408.393781 30.283125 
L 411.913769 30.283125 
L 415.433757 30.283125 
L 418.953744 30.283125 
L 422.473732 30.283125 
L 425.99372 30.283125 
L 429.513707 30.283125 
L 433.033695 30.283125 
L 436.553683 30.283125 
L 440.07367 30.283125 
L 443.593658 30.283125 
L 447.113646 30.283125 
L 450.633633 30.283125 
L 454.153621 30.283125 
L 457.673609 30.283125 
L 461.193596 30.283125 
L 464.713584 30.283125 
L 468.233572 30.283125 
L 471.75356 30.283125 
L 475.273547 30.283125 
L 478.793535 30.283125 
L 482.313523 30.283125 
L 485.83351 30.283125 
L 489.353498 30.283125 
L 492.873486 30.283125 
L 496.393473 30.283125 
L 499.913461 30.283125 
L 503.433449 30.283125 
L 506.953436 30.283125 
L 510.473424 30.283125 
L 513.993412 30.283125 
L 517.5134 30.283125 
L 521.033387 30.283125 
L 524.553375 30.283125 
L 528.073363 30.283125 
L 531.59335 30.283125 
L 535.113338 30.283125 
L 538.633326 30.283125 
L 542.153313 30.283125 
L 545.673301 30.283125 
L 549.193289 30.283125 
L 552.713276 30.283125 
L 556.233264 30.283125 
L 559.753252 30.283125 
L 563.273239 30.283125 
L 566.793227 30.283125 
L 570.313215 30.283125 
L 573.833203 30.283125 
L 577.35319 30.283125 
L 580.873178 30.283125 
L 584.393166 30.283125 
L 587.913153 30.283125 
L 591.433141 30.283125 
L 594.953129 30.283125 
L 598.473116 30.283125 
L 601.993104 30.283125 
L 605.513092 30.283125 
L 609.033079 30.283125 
L 612.553067 30.283125 
L 616.073055 117.849656 
L 619.593042 30.283125 
L 623.11303 78.931198 
L 626.633018 30.283125 
L 630.153006 30.283125 
L 633.672993 30.283125 
L 637.192981 30.283125 
L 640.712969 30.283125 
L 644.232956 30.283125 
L 647.752944 30.283125 
L 651.272932 30.283125 
L 654.792919 30.283125 
L 658.312907 30.283125 
L 661.832895 30.283125 
L 661.832895 30.283125 
L 661.832895 30.283125 
L 658.312907 30.283125 
L 654.792919 30.283125 
L 651.272932 30.283125 
L 647.752944 30.283125 
L 644.232956 30.283125 
L 640.712969 30.283125 
L 637.192981 30.283125 
L 633.672993 30.283125 
L 630.153006 30.283125 
L 626.633018 30.283125 
L 623.11303 30.283125 
L 619.593042 30.283125 
L 616.073055 30.283125 
L 612.553067 30.283125 
L 609.033079 30.283125 
L 605.513092 30.283125 
L 601.993104 30.283125 
L 598.473116 30.283125 
L 594.953129 30.283125 
L 591.433141 30.283125 
L 587.913153 30.283125 
L 584.393166 30.283125 
L 580.873178 30.283125 
L 577.35319 30.283125 
L 573.833203 30.283125 
L 570.313215 30.283125 
L 566.793227 30.283125 
L 563.273239 30.283125 
L 559.753252 30.283125 
L 556.233264 30.283125 
L 552.713276 30.283125 
L 549.193289 30.283125 
L 545.673301 30.283125 
L 542.153313 30.283125 
L 538.633326 30.283125 
L 535.113338 30.283125 
L 531.59335 30.283125 
L 528.073363 30.283125 
L 524.553375 30.283125 
L 521.033387 30.283125 
L 517.5134 30.283125 
L 513.993412 30.283125 
L 510.473424 30.283125 
L 506.953436 30.283125 
L 503.433449 30.283125 
L 499.913461 30.283125 
L 496.393473 30.283125 
L 492.873486 30.283125 
L 489.353498 30.283125 
L 485.83351 30.283125 
L 482.313523 30.283125 
L 478.793535 30.283125 
L 475.273547 30.283125 
L 471.75356 30.283125 
L 468.233572 30.283125 
L 464.713584 30.283125 
L 461.193596 30.283125 
L 457.673609 30.283125 
L 454.153621 30.283125 
L 450.633633 30.283125 
L 447.113646 30.283125 
L 443.593658 30.283125 
L 440.07367 30.283125 
L 436.553683 30.283125 
L 433.033695 30.283125 
L 429.513707 30.283125 
L 425.99372 30.283125 
L 422.473732 30.283125 
L 418.953744 30.283125 
L 415.433757 30.283125 
L 411.913769 30.283125 
L 408.393781 30.283125 
L 404.873793 30.283125 
L 401.353806 30.283125 
L 397.833818 30.283125 
L 394.31383 30.283125 
L 390.793843 30.283125 
L 387.273855 30.283125 
L 383.753867 30.283125 
L 380.23388 30.283125 
L 376.713892 30.283125 
L 373.193904 30.283125 
L 369.673917 30.283125 
L 366.153929 30.283125 
L 362.633941 30.283125 
L 359.113954 30.283125 
L 355.593966 30.283125 
L 352.073978 30.283125 
L 348.55399 30.283125 
L 345.034003 30.283125 
L 341.514015 30.283125 
L 337.994027 30.283125 
L 334.47404 30.283125 
L 330.954052 30.283125 
L 327.434064 30.283125 
L 323.914077 30.283125 
L 320.394089 30.283125 
L 316.874101 30.283125 
L 313.354114 30.283125 
L 309.834126 30.283125 
L 306.314138 30.283125 
L 302.794151 30.283125 
L 299.274163 30.283125 
L 295.754175 30.283125 
L 292.234187 30.283125 
L 288.7142 30.283125 
L 285.194212 30.283125 
L 281.674224 30.283125 
L 278.154237 30.283125 
L 274.634249 30.283125 
L 271.114261 30.283125 
L 267.594274 30.283125 
L 264.074286 30.283125 
L 260.554298 30.283125 
L 257.034311 30.283125 
L 253.514323 30.283125 
L 249.994335 30.283125 
L 246.474347 30.283125 
L 242.95436 30.283125 
L 239.434372 30.283125 
L 235.914384 30.283125 
L 232.394397 30.283125 
L 228.874409 30.283125 
L 225.354421 30.283125 
L 221.834434 30.283125 
L 218.314446 30.283125 
L 214.794458 30.283125 
L 211.274471 30.283125 
L 207.754483 30.283125 
L 204.234495 30.283125 
L 200.714508 30.283125 
L 197.19452 30.283125 
L 193.674532 30.283125 
L 190.154544 30.283125 
L 186.634557 30.283125 
L 183.114569 30.283125 
L 179.594581 30.283125 
L 176.074594 30.283125 
L 172.554606 30.283125 
L 169.034618 30.283125 
L 165.514631 30.283125 
L 161.994643 30.283125 
L 158.474655 30.283125 
L 154.954668 30.283125 
L 151.43468 30.283125 
L 147.914692 30.283125 
L 144.394705 30.283125 
L 140.874717 30.283125 
L 137.354729 30.283125 
L 133.834741 30.283125 
L 130.314754 30.283125 
L 126.794766 30.283125 
L 123.274778 30.283125 
L 119.754791 30.283125 
L 116.234803 30.283125 
L 112.714815 30.283125 
L 109.194828 30.283125 
L 105.67484 30.283125 
L 102.154852 30.283125 
L 98.634865 30.283125 
L 95.114877 30.283125 
L 91.594889 30.283125 
L 88.074902 30.283125 
L 84.554914 30.283125 
L 81.034926 30.283125 
L 77.514938 30.283125 
L 73.994951 30.283125 
L 70.474963 30.283125 
L 66.954975 30.283125 
L 63.434988 30.283125 
L 59.915 30.283125 
z
" clip-path="url(#p12a9ccb67c)" style="fill: #8d5993"/>
   </g>
   <g id="matplotlib.axis_1">
    <g id="xtick_1">
     <g id="line2d_1">
      <path d="M 126.794766 468.115781 
L 126.794766 30.283125 
" clip-path="url(#p12a9ccb67c)" style="fill: none; stroke-dasharray: 2.96,1.28; stroke-dashoffset: 0; stroke: #b0b0b0; stroke-opacity: 0.5; stroke-width: 0.8"/>
     </g>
     <g id="line2d_2">
      <defs>
       <path id="m343cf8ef38" d="M 0 0 
L 0 3.5 
" style="stroke: #000000; stroke-width: 0.8"/>
      </defs>
      <g>
       <use xlink:href="#m343cf8ef38" x="126.794766" y="468.115781" style="stroke: #000000; stroke-width: 0.8"/>
      </g>
     </g>
     <g id="text_1">
      <!-- 20 -->
      <g transform="translate(120.432266 482.714219) scale(0.1 -0.1)">
       <defs>
        <path id="DejaVuSans-32" d="M 1228 531 
L 3431 531 
L 3431 0 
L 469 0 
L 469 531 
Q 828 903 1448 1529 
Q 2069 2156 2228 2338 
Q 2531 2678 2651 2914 
Q 2772 3150 2772 3378 
Q 2772 3750 2511 3984 
Q 2250 4219 1831 4219 
Q 1534 4219 1204 4116 
Q 875 4013 500 3803 
L 500 4441 
Q 881 4594 1212 4672 
Q 1544 4750 1819 4750 
Q 2544 4750 2975 4387 
Q 3406 4025 3406 3419 
Q 3406 3131 3298 2873 
Q 3191 2616 2906 2266 
Q 2828 2175 2409 1742 
Q 1991 1309 1228 531 
z
" transform="scale(0.015625)"/>
        <path id="DejaVuSans-30" d="M 2034 4250 
Q 1547 4250 1301 3770 
Q 1056 3291 1056 2328 
Q 1056 1369 1301 889 
Q 1547 409 2034 409 
Q 2525 409 2770 889 
Q 3016 1369 3016 2328 
Q 3016 3291 2770 3770 
Q 2525 4250 2034 4250 
z
M 2034 4750 
Q 2819 4750 3233 4129 
Q 3647 3509 3647 2328 
Q 3647 1150 3233 529 
Q 2819 -91 2034 -91 
Q 1250 -91 836 529 
Q 422 1150 422 2328 
Q 422 3509 836 4129 
Q 1250 4750 2034 4750 
z
" transform="scale(0.015625)"/>
       </defs>
       <use xlink:href="#DejaVuSans-32"/>
       <use xlink:href="#DejaVuSans-30" transform="translate(63.623047 0)"/>
      </g>
     </g>
    </g>
    <g id="xtick_2">
     <g id="line2d_3">
      <path d="M 197.19452 468.115781 
L 197.19452 30.283125 
" clip-path="url(#p12a9ccb67c)" style="fill: none; stroke-dasharray: 2.96,1.28; stroke-dashoffset: 0; stroke: #b0b0b0; stroke-opacity: 0.5; stroke-width: 0.8"/>
     </g>
     <g id="line2d_4">
      <g>
       <use xlink:href="#m343cf8ef38" x="197.19452" y="468.115781" style="stroke: #000000; stroke-width: 0.8"/>
      </g>
     </g>
     <g id="text_2">
      <!-- 40 -->
      <g transform="translate(190.83202 482.714219) scale(0.1 -0.1)">
       <defs>
        <path id="DejaVuSans-34" d="M 2419 4116 
L 825 1625 
L 2419 1625 
L 2419 4116 
z
M 2253 4666 
L 3047 4666 
L 3047 1625 
L 3713 1625 
L 3713 1100 
L 3047 1100 
L 3047 0 
L 2419 0 
L 2419 1100 
L 313 1100 
L 313 1709 
L 2253 4666 
z
" transform="scale(0.015625)"/>
       </defs>
       <use xlink:href="#DejaVuSans-34"/>
       <use xlink:href="#DejaVuSans-30" transform="translate(63.623047 0)"/>
      </g>
     </g>
    </g>
    <g id="xtick_3">
     <g id="line2d_5">
      <path d="M 267.594274 468.115781 
L 267.594274 30.283125 
" clip-path="url(#p12a9ccb67c)" style="fill: none; stroke-dasharray: 2.96,1.28; stroke-dashoffset: 0; stroke: #b0b0b0; stroke-opacity: 0.5; stroke-width: 0.8"/>
     </g>
     <g id="line2d_6">
      <g>
       <use xlink:href="#m343cf8ef38" x="267.594274" y="468.115781" style="stroke: #000000; stroke-width: 0.8"/>
      </g>
     </g>
     <g id="text_3">
      <!-- 60 -->
      <g transform="translate(261.231774 482.714219) scale(0.1 -0.1)">
       <defs>
        <path id="DejaVuSans-36" d="M 2113 2584 
Q 1688 2584 1439 2293 
Q 1191 2003 1191 1497 
Q 1191 994 1439 701 
Q 1688 409 2113 409 
Q 2538 409 2786 701 
Q 3034 994 3034 1497 
Q 3034 2003 2786 2293 
Q 2538 2584 2113 2584 
z
M 3366 4563 
L 3366 3988 
Q 3128 4100 2886 4159 
Q 2644 4219 2406 4219 
Q 1781 4219 1451 3797 
Q 1122 3375 1075 2522 
Q 1259 2794 1537 2939 
Q 1816 3084 2150 3084 
Q 2853 3084 3261 2657 
Q 3669 2231 3669 1497 
Q 3669 778 3244 343 
Q 2819 -91 2113 -91 
Q 1303 -91 875 529 
Q 447 1150 447 2328 
Q 447 3434 972 4092 
Q 1497 4750 2381 4750 
Q 2619 4750 2861 4703 
Q 3103 4656 3366 4563 
z
" transform="scale(0.015625)"/>
       </defs>
       <use xlink:href="#DejaVuSans-36"/>
       <use xlink:href="#DejaVuSans-30" transform="translate(63.623047 0)"/>
      </g>
     </g>
    </g>
    <g id="xtick_4">
     <g id="line2d_7">
      <path d="M 337.994027 468.115781 
L 337.994027 30.283125 
" clip-path="url(#p12a9ccb67c)" style="fill: none; stroke-dasharray: 2.96,1.28; stroke-dashoffset: 0; stroke: #b0b0b0; stroke-opacity: 0.5; stroke-width: 0.8"/>
     </g>
     <g id="line2d_8">
      <g>
       <use xlink:href="#m343cf8ef38" x="337.994027" y="468.115781" style="stroke: #000000; stroke-width: 0.8"/>
      </g>
     </g>
     <g id="text_4">
      <!-- 80 -->
      <g transform="translate(331.631527 482.714219) scale(0.1 -0.1)">
       <defs>
        <path id="DejaVuSans-38" d="M 2034 2216 
Q 1584 2216 1326 1975 
Q 1069 1734 1069 1313 
Q 1069 891 1326 650 
Q 1584 409 2034 409 
Q 2484 409 2743 651 
Q 3003 894 3003 1313 
Q 3003 1734 2745 1975 
Q 2488 2216 2034 2216 
z
M 1403 2484 
Q 997 2584 770 2862 
Q 544 3141 544 3541 
Q 544 4100 942 4425 
Q 1341 4750 2034 4750 
Q 2731 4750 3128 4425 
Q 3525 4100 3525 3541 
Q 3525 3141 3298 2862 
Q 3072 2584 2669 2484 
Q 3125 2378 3379 2068 
Q 3634 1759 3634 1313 
Q 3634 634 3220 271 
Q 2806 -91 2034 -91 
Q 1263 -91 848 271 
Q 434 634 434 1313 
Q 434 1759 690 2068 
Q 947 2378 1403 2484 
z
M 1172 3481 
Q 1172 3119 1398 2916 
Q 1625 2713 2034 2713 
Q 2441 2713 2670 2916 
Q 2900 3119 2900 3481 
Q 2900 3844 2670 4047 
Q 2441 4250 2034 4250 
Q 1625 4250 1398 4047 
Q 1172 3844 1172 3481 
z
" transform="scale(0.015625)"/>
       </defs>
       <use xlink:href="#DejaVuSans-38"/>
       <use xlink:href="#DejaVuSans-30" transform="translate(63.623047 0)"/>
      </g>
     </g>
    </g>
    <g id="xtick_5">
     <g id="line2d_9">
      <path d="M 408.393781 468.115781 
L 408.393781 30.283125 
" clip-path="url(#p12a9ccb67c)" style="fill: none; stroke-dasharray: 2.96,1.28; stroke-dashoffset: 0; stroke: #b0b0b0; stroke-opacity: 0.5; stroke-width: 0.8"/>
     </g>
     <g id="line2d_10">
      <g>
       <use xlink:href="#m343cf8ef38" x="408.393781" y="468.115781" style="stroke: #000000; stroke-width: 0.8"/>
      </g>
     </g>
     <g id="text_5">
      <!-- 100 -->
      <g transform="translate(398.850031 482.714219) scale(0.1 -0.1)">
       <defs>
        <path id="DejaVuSans-31" d="M 794 531 
L 1825 531 
L 1825 4091 
L 703 3866 
L 703 4441 
L 1819 4666 
L 2450 4666 
L 2450 531 
L 3481 531 
L 3481 0 
L 794 0 
L 794 531 
z
" transform="scale(0.015625)"/>
       </defs>
       <use xlink:href="#DejaVuSans-31"/>
       <use xlink:href="#DejaVuSans-30" transform="translate(63.623047 0)"/>
       <use xlink:href="#DejaVuSans-30" transform="translate(127.246094 0)"/>
      </g>
     </g>
    </g>
    <g id="xtick_6">
     <g id="line2d_11">
      <path d="M 478.793535 468.115781 
L 478.793535 30.283125 
" clip-path="url(#p12a9ccb67c)" style="fill: none; stroke-dasharray: 2.96,1.28; stroke-dashoffset: 0; stroke: #b0b0b0; stroke-opacity: 0.5; stroke-width: 0.8"/>
     </g>
     <g id="line2d_12">
      <g>
       <use xlink:href="#m343cf8ef38" x="478.793535" y="468.115781" style="stroke: #000000; stroke-width: 0.8"/>
      </g>
     </g>
     <g id="text_6">
      <!-- 120 -->
      <g transform="translate(469.249785 482.714219) scale(0.1 -0.1)">
       <use xlink:href="#DejaVuSans-31"/>
       <use xlink:href="#DejaVuSans-32" transform="translate(63.623047 0)"/>
       <use xlink:href="#DejaVuSans-30" transform="translate(127.246094 0)"/>
      </g>
     </g>
    </g>
    <g id="xtick_7">
     <g id="line2d_13">
      <path d="M 549.193289 468.115781 
L 549.193289 30.283125 
" clip-path="url(#p12a9ccb67c)" style="fill: none; stroke-dasharray: 2.96,1.28; stroke-dashoffset: 0; stroke: #b0b0b0; stroke-opacity: 0.5; stroke-width: 0.8"/>
     </g>
     <g id="line2d_14">
      <g>
       <use xlink:href="#m343cf8ef38" x="549.193289" y="468.115781" style="stroke: #000000; stroke-width: 0.8"/>
      </g>
     </g>
     <g id="text_7">
      <!-- 140 -->
      <g transform="translate(539.649539 482.714219) scale(0.1 -0.1)">
       <use xlink:href="#DejaVuSans-31"/>
       <use xlink:href="#DejaVuSans-34" transform="translate(63.623047 0)"/>
       <use xlink:href="#DejaVuSans-30" transform="translate(127.246094 0)"/>
      </g>
     </g>
    </g>
    <g id="xtick_8">
     <g id="line2d_15">
      <path d="M 619.593042 468.115781 
L 619.593042 30.283125 
" clip-path="url(#p12a9ccb67c)" style="fill: none; stroke-dasharray: 2.96,1.28; stroke-dashoffset: 0; stroke: #b0b0b0; stroke-opacity: 0.5; stroke-width: 0.8"/>
     </g>
     <g id="line2d_16">
      <g>
       <use xlink:href="#m343cf8ef38" x="619.593042" y="468.115781" style="stroke: #000000; stroke-width: 0.8"/>
      </g>
     </g>
     <g id="text_8">
      <!-- 160 -->
      <g transform="translate(610.049292 482.714219) scale(0.1 -0.1)">
       <use xlink:href="#DejaVuSans-31"/>
       <use xlink:href="#DejaVuSans-36" transform="translate(63.623047 0)"/>
       <use xlink:href="#DejaVuSans-30" transform="translate(127.246094 0)"/>
      </g>
     </g>
    </g>
    <g id="text_9">
     <!-- Session Count -->
     <g transform="translate(320.616291 498.515156) scale(0.14 -0.14)">
      <defs>
       <path id="TimesNewRomanPSMT-53" d="M 2934 4334 
L 2934 2869 
L 2819 2869 
Q 2763 3291 2617 3541 
Q 2472 3791 2203 3937 
Q 1934 4084 1647 4084 
Q 1322 4084 1109 3886 
Q 897 3688 897 3434 
Q 897 3241 1031 3081 
Q 1225 2847 1953 2456 
Q 2547 2138 2764 1967 
Q 2981 1797 3098 1565 
Q 3216 1334 3216 1081 
Q 3216 600 2842 251 
Q 2469 -97 1881 -97 
Q 1697 -97 1534 -69 
Q 1438 -53 1133 45 
Q 828 144 747 144 
Q 669 144 623 97 
Q 578 50 556 -97 
L 441 -97 
L 441 1356 
L 556 1356 
Q 638 900 775 673 
Q 913 447 1195 297 
Q 1478 147 1816 147 
Q 2206 147 2432 353 
Q 2659 559 2659 841 
Q 2659 997 2573 1156 
Q 2488 1316 2306 1453 
Q 2184 1547 1640 1851 
Q 1097 2156 867 2337 
Q 638 2519 519 2737 
Q 400 2956 400 3219 
Q 400 3675 750 4004 
Q 1100 4334 1641 4334 
Q 1978 4334 2356 4169 
Q 2531 4091 2603 4091 
Q 2684 4091 2736 4139 
Q 2788 4188 2819 4334 
L 2934 4334 
z
" transform="scale(0.015625)"/>
       <path id="TimesNewRomanPSMT-65" d="M 681 1784 
Q 678 1147 991 784 
Q 1303 422 1725 422 
Q 2006 422 2214 576 
Q 2422 731 2563 1106 
L 2659 1044 
Q 2594 616 2278 264 
Q 1963 -88 1488 -88 
Q 972 -88 605 314 
Q 238 716 238 1394 
Q 238 2128 614 2539 
Q 991 2950 1559 2950 
Q 2041 2950 2350 2633 
Q 2659 2316 2659 1784 
L 681 1784 
z
M 681 1966 
L 2006 1966 
Q 1991 2241 1941 2353 
Q 1863 2528 1708 2628 
Q 1553 2728 1384 2728 
Q 1125 2728 920 2526 
Q 716 2325 681 1966 
z
" transform="scale(0.015625)"/>
       <path id="TimesNewRomanPSMT-73" d="M 2050 2947 
L 2050 1972 
L 1947 1972 
Q 1828 2431 1642 2597 
Q 1456 2763 1169 2763 
Q 950 2763 815 2647 
Q 681 2531 681 2391 
Q 681 2216 781 2091 
Q 878 1963 1175 1819 
L 1631 1597 
Q 2266 1288 2266 781 
Q 2266 391 1970 151 
Q 1675 -88 1309 -88 
Q 1047 -88 709 6 
Q 606 38 541 38 
Q 469 38 428 -44 
L 325 -44 
L 325 978 
L 428 978 
Q 516 541 762 319 
Q 1009 97 1316 97 
Q 1531 97 1667 223 
Q 1803 350 1803 528 
Q 1803 744 1651 891 
Q 1500 1038 1047 1263 
Q 594 1488 453 1669 
Q 313 1847 313 2119 
Q 313 2472 555 2709 
Q 797 2947 1181 2947 
Q 1350 2947 1591 2875 
Q 1750 2828 1803 2828 
Q 1853 2828 1881 2850 
Q 1909 2872 1947 2947 
L 2050 2947 
z
" transform="scale(0.015625)"/>
       <path id="TimesNewRomanPSMT-69" d="M 928 4444 
Q 1059 4444 1151 4351 
Q 1244 4259 1244 4128 
Q 1244 3997 1151 3903 
Q 1059 3809 928 3809 
Q 797 3809 703 3903 
Q 609 3997 609 4128 
Q 609 4259 701 4351 
Q 794 4444 928 4444 
z
M 1188 2947 
L 1188 647 
Q 1188 378 1227 289 
Q 1266 200 1342 156 
Q 1419 113 1622 113 
L 1622 0 
L 231 0 
L 231 113 
Q 441 113 512 153 
Q 584 194 626 287 
Q 669 381 669 647 
L 669 1750 
Q 669 2216 641 2353 
Q 619 2453 572 2492 
Q 525 2531 444 2531 
Q 356 2531 231 2484 
L 188 2597 
L 1050 2947 
L 1188 2947 
z
" transform="scale(0.015625)"/>
       <path id="TimesNewRomanPSMT-6f" d="M 1600 2947 
Q 2250 2947 2644 2453 
Q 2978 2031 2978 1484 
Q 2978 1100 2793 706 
Q 2609 313 2286 112 
Q 1963 -88 1566 -88 
Q 919 -88 538 428 
Q 216 863 216 1403 
Q 216 1797 411 2186 
Q 606 2575 925 2761 
Q 1244 2947 1600 2947 
z
M 1503 2744 
Q 1338 2744 1170 2645 
Q 1003 2547 900 2300 
Q 797 2053 797 1666 
Q 797 1041 1045 587 
Q 1294 134 1700 134 
Q 2003 134 2200 384 
Q 2397 634 2397 1244 
Q 2397 2006 2069 2444 
Q 1847 2744 1503 2744 
z
" transform="scale(0.015625)"/>
       <path id="TimesNewRomanPSMT-6e" d="M 1034 2341 
Q 1538 2947 1994 2947 
Q 2228 2947 2397 2830 
Q 2566 2713 2666 2444 
Q 2734 2256 2734 1869 
L 2734 647 
Q 2734 375 2778 278 
Q 2813 200 2889 156 
Q 2966 113 3172 113 
L 3172 0 
L 1756 0 
L 1756 113 
L 1816 113 
Q 2016 113 2095 173 
Q 2175 234 2206 353 
Q 2219 400 2219 647 
L 2219 1819 
Q 2219 2209 2117 2386 
Q 2016 2563 1775 2563 
Q 1403 2563 1034 2156 
L 1034 647 
Q 1034 356 1069 288 
Q 1113 197 1189 155 
Q 1266 113 1500 113 
L 1500 0 
L 84 0 
L 84 113 
L 147 113 
Q 366 113 442 223 
Q 519 334 519 647 
L 519 1709 
Q 519 2225 495 2337 
Q 472 2450 423 2490 
Q 375 2531 294 2531 
Q 206 2531 84 2484 
L 38 2597 
L 900 2947 
L 1034 2947 
L 1034 2341 
z
" transform="scale(0.015625)"/>
       <path id="TimesNewRomanPSMT-20" transform="scale(0.015625)"/>
       <path id="TimesNewRomanPSMT-43" d="M 3853 4334 
L 3950 2894 
L 3853 2894 
Q 3659 3541 3300 3825 
Q 2941 4109 2438 4109 
Q 2016 4109 1675 3895 
Q 1334 3681 1139 3212 
Q 944 2744 944 2047 
Q 944 1472 1128 1050 
Q 1313 628 1683 403 
Q 2053 178 2528 178 
Q 2941 178 3256 354 
Q 3572 531 3950 1056 
L 4047 994 
Q 3728 428 3303 165 
Q 2878 -97 2294 -97 
Q 1241 -97 663 684 
Q 231 1266 231 2053 
Q 231 2688 515 3219 
Q 800 3750 1298 4042 
Q 1797 4334 2388 4334 
Q 2847 4334 3294 4109 
Q 3425 4041 3481 4041 
Q 3566 4041 3628 4100 
Q 3709 4184 3744 4334 
L 3853 4334 
z
" transform="scale(0.015625)"/>
       <path id="TimesNewRomanPSMT-75" d="M 2709 2863 
L 2709 1128 
Q 2709 631 2732 520 
Q 2756 409 2807 365 
Q 2859 322 2928 322 
Q 3025 322 3147 375 
L 3191 266 
L 2334 -88 
L 2194 -88 
L 2194 519 
Q 1825 119 1631 15 
Q 1438 -88 1222 -88 
Q 981 -88 804 51 
Q 628 191 559 409 
Q 491 628 491 1028 
L 491 2306 
Q 491 2509 447 2587 
Q 403 2666 317 2708 
Q 231 2750 6 2747 
L 6 2863 
L 1009 2863 
L 1009 947 
Q 1009 547 1148 422 
Q 1288 297 1484 297 
Q 1619 297 1789 381 
Q 1959 466 2194 703 
L 2194 2325 
Q 2194 2569 2105 2655 
Q 2016 2741 1734 2747 
L 1734 2863 
L 2709 2863 
z
" transform="scale(0.015625)"/>
       <path id="TimesNewRomanPSMT-74" d="M 1031 3803 
L 1031 2863 
L 1700 2863 
L 1700 2644 
L 1031 2644 
L 1031 788 
Q 1031 509 1111 412 
Q 1191 316 1316 316 
Q 1419 316 1516 380 
Q 1613 444 1666 569 
L 1788 569 
Q 1678 263 1478 108 
Q 1278 -47 1066 -47 
Q 922 -47 784 33 
Q 647 113 581 261 
Q 516 409 516 719 
L 516 2644 
L 63 2644 
L 63 2747 
Q 234 2816 414 2980 
Q 594 3144 734 3369 
Q 806 3488 934 3803 
L 1031 3803 
z
" transform="scale(0.015625)"/>
      </defs>
      <use xlink:href="#TimesNewRomanPSMT-53"/>
      <use xlink:href="#TimesNewRomanPSMT-65" transform="translate(55.615234 0)"/>
      <use xlink:href="#TimesNewRomanPSMT-73" transform="translate(100 0)"/>
      <use xlink:href="#TimesNewRomanPSMT-73" transform="translate(138.916016 0)"/>
      <use xlink:href="#TimesNewRomanPSMT-69" transform="translate(177.832031 0)"/>
      <use xlink:href="#TimesNewRomanPSMT-6f" transform="translate(205.615234 0)"/>
      <use xlink:href="#TimesNewRomanPSMT-6e" transform="translate(255.615234 0)"/>
      <use xlink:href="#TimesNewRomanPSMT-20" transform="translate(305.615234 0)"/>
      <use xlink:href="#TimesNewRomanPSMT-43" transform="translate(330.615234 0)"/>
      <use xlink:href="#TimesNewRomanPSMT-6f" transform="translate(397.314453 0)"/>
      <use xlink:href="#TimesNewRomanPSMT-75" transform="translate(447.314453 0)"/>
      <use xlink:href="#TimesNewRomanPSMT-6e" transform="translate(497.314453 0)"/>
      <use xlink:href="#TimesNewRomanPSMT-74" transform="translate(547.314453 0)"/>
     </g>
    </g>
   </g>
   <g id="matplotlib.axis_2">
    <g id="ytick_1">
     <g id="line2d_17">
      <path d="M 59.915 468.115781 
L 661.832895 468.115781 
" clip-path="url(#p12a9ccb67c)" style="fill: none; stroke-dasharray: 2.96,1.28; stroke-dashoffset: 0; stroke: #b0b0b0; stroke-opacity: 0.5; stroke-width: 0.8"/>
     </g>
     <g id="line2d_18">
      <defs>
       <path id="m4fa12e93b9" d="M 0 0 
L -3.5 0 
" style="stroke: #000000; stroke-width: 0.8"/>
      </defs>
      <g>
       <use xlink:href="#m4fa12e93b9" x="59.915" y="468.115781" style="stroke: #000000; stroke-width: 0.8"/>
      </g>
     </g>
     <g id="text_10">
      <!-- 0 -->
      <g transform="translate(46.5525 471.915) scale(0.1 -0.1)">
       <use xlink:href="#DejaVuSans-30"/>
      </g>
     </g>
    </g>
    <g id="ytick_2">
     <g id="line2d_19">
      <path d="M 59.915 30.283125 
L 661.832895 30.283125 
" clip-path="url(#p12a9ccb67c)" style="fill: none; stroke-dasharray: 2.96,1.28; stroke-dashoffset: 0; stroke: #b0b0b0; stroke-opacity: 0.5; stroke-width: 0.8"/>
     </g>
     <g id="line2d_20">
      <g>
       <use xlink:href="#m4fa12e93b9" x="59.915" y="30.283125" style="stroke: #000000; stroke-width: 0.8"/>
      </g>
     </g>
     <g id="text_11">
      <!-- 1 -->
      <g transform="translate(46.5525 34.082344) scale(0.1 -0.1)">
       <use xlink:href="#DejaVuSans-31"/>
      </g>
     </g>
    </g>
    <g id="text_12">
     <!-- Stacked Proportion -->
     <g transform="translate(39.557812 303.052422) rotate(-90) scale(0.14 -0.14)">
      <defs>
       <path id="TimesNewRomanPSMT-61" d="M 1822 413 
Q 1381 72 1269 19 
Q 1100 -59 909 -59 
Q 613 -59 420 144 
Q 228 347 228 678 
Q 228 888 322 1041 
Q 450 1253 767 1440 
Q 1084 1628 1822 1897 
L 1822 2009 
Q 1822 2438 1686 2597 
Q 1550 2756 1291 2756 
Q 1094 2756 978 2650 
Q 859 2544 859 2406 
L 866 2225 
Q 866 2081 792 2003 
Q 719 1925 600 1925 
Q 484 1925 411 2006 
Q 338 2088 338 2228 
Q 338 2497 613 2722 
Q 888 2947 1384 2947 
Q 1766 2947 2009 2819 
Q 2194 2722 2281 2516 
Q 2338 2381 2338 1966 
L 2338 994 
Q 2338 584 2353 492 
Q 2369 400 2405 369 
Q 2441 338 2488 338 
Q 2538 338 2575 359 
Q 2641 400 2828 588 
L 2828 413 
Q 2478 -56 2159 -56 
Q 2006 -56 1915 50 
Q 1825 156 1822 413 
z
M 1822 616 
L 1822 1706 
Q 1350 1519 1213 1441 
Q 966 1303 859 1153 
Q 753 1003 753 825 
Q 753 600 887 451 
Q 1022 303 1197 303 
Q 1434 303 1822 616 
z
" transform="scale(0.015625)"/>
       <path id="TimesNewRomanPSMT-63" d="M 2631 1088 
Q 2516 522 2178 217 
Q 1841 -88 1431 -88 
Q 944 -88 581 321 
Q 219 731 219 1428 
Q 219 2103 620 2525 
Q 1022 2947 1584 2947 
Q 2006 2947 2278 2723 
Q 2550 2500 2550 2259 
Q 2550 2141 2473 2067 
Q 2397 1994 2259 1994 
Q 2075 1994 1981 2113 
Q 1928 2178 1911 2362 
Q 1894 2547 1784 2644 
Q 1675 2738 1481 2738 
Q 1169 2738 978 2506 
Q 725 2200 725 1697 
Q 725 1184 976 792 
Q 1228 400 1656 400 
Q 1963 400 2206 609 
Q 2378 753 2541 1131 
L 2631 1088 
z
" transform="scale(0.015625)"/>
       <path id="TimesNewRomanPSMT-6b" d="M 1047 4444 
L 1047 1594 
L 1775 2259 
Q 2006 2472 2044 2528 
Q 2069 2566 2069 2603 
Q 2069 2666 2017 2711 
Q 1966 2756 1847 2763 
L 1847 2863 
L 3091 2863 
L 3091 2763 
Q 2834 2756 2664 2684 
Q 2494 2613 2291 2428 
L 1556 1750 
L 2291 822 
Q 2597 438 2703 334 
Q 2853 188 2966 144 
Q 3044 113 3238 113 
L 3238 0 
L 1847 0 
L 1847 113 
Q 1966 116 2008 148 
Q 2050 181 2050 241 
Q 2050 313 1925 472 
L 1047 1594 
L 1047 644 
Q 1047 366 1086 278 
Q 1125 191 1197 153 
Q 1269 116 1509 113 
L 1509 0 
L 53 0 
L 53 113 
Q 272 113 381 166 
Q 447 200 481 272 
Q 528 375 528 628 
L 528 3234 
Q 528 3731 506 3842 
Q 484 3953 434 3995 
Q 384 4038 303 4038 
Q 238 4038 106 3984 
L 53 4094 
L 903 4444 
L 1047 4444 
z
" transform="scale(0.015625)"/>
       <path id="TimesNewRomanPSMT-64" d="M 2222 322 
Q 2013 103 1813 7 
Q 1613 -88 1381 -88 
Q 913 -88 563 304 
Q 213 697 213 1313 
Q 213 1928 600 2439 
Q 988 2950 1597 2950 
Q 1975 2950 2222 2709 
L 2222 3238 
Q 2222 3728 2198 3840 
Q 2175 3953 2125 3993 
Q 2075 4034 2000 4034 
Q 1919 4034 1784 3984 
L 1744 4094 
L 2597 4444 
L 2738 4444 
L 2738 1134 
Q 2738 631 2761 520 
Q 2784 409 2836 365 
Q 2888 322 2956 322 
Q 3041 322 3181 375 
L 3216 266 
L 2366 -88 
L 2222 -88 
L 2222 322 
z
M 2222 541 
L 2222 2016 
Q 2203 2228 2109 2403 
Q 2016 2578 1861 2667 
Q 1706 2756 1559 2756 
Q 1284 2756 1069 2509 
Q 784 2184 784 1559 
Q 784 928 1059 592 
Q 1334 256 1672 256 
Q 1956 256 2222 541 
z
" transform="scale(0.015625)"/>
       <path id="TimesNewRomanPSMT-50" d="M 1313 1984 
L 1313 750 
Q 1313 350 1400 253 
Q 1519 116 1759 116 
L 1922 116 
L 1922 0 
L 106 0 
L 106 116 
L 266 116 
Q 534 116 650 291 
Q 713 388 713 750 
L 713 3488 
Q 713 3888 628 3984 
Q 506 4122 266 4122 
L 106 4122 
L 106 4238 
L 1659 4238 
Q 2228 4238 2556 4120 
Q 2884 4003 3109 3725 
Q 3334 3447 3334 3066 
Q 3334 2547 2992 2222 
Q 2650 1897 2025 1897 
Q 1872 1897 1694 1919 
Q 1516 1941 1313 1984 
z
M 1313 2163 
Q 1478 2131 1606 2115 
Q 1734 2100 1825 2100 
Q 2150 2100 2386 2351 
Q 2622 2603 2622 3003 
Q 2622 3278 2509 3514 
Q 2397 3750 2190 3867 
Q 1984 3984 1722 3984 
Q 1563 3984 1313 3925 
L 1313 2163 
z
" transform="scale(0.015625)"/>
       <path id="TimesNewRomanPSMT-72" d="M 1038 2947 
L 1038 2303 
Q 1397 2947 1775 2947 
Q 1947 2947 2059 2842 
Q 2172 2738 2172 2600 
Q 2172 2478 2090 2393 
Q 2009 2309 1897 2309 
Q 1788 2309 1652 2417 
Q 1516 2525 1450 2525 
Q 1394 2525 1328 2463 
Q 1188 2334 1038 2041 
L 1038 669 
Q 1038 431 1097 309 
Q 1138 225 1241 169 
Q 1344 113 1538 113 
L 1538 0 
L 72 0 
L 72 113 
Q 291 113 397 181 
Q 475 231 506 341 
Q 522 394 522 644 
L 522 1753 
Q 522 2253 501 2348 
Q 481 2444 426 2487 
Q 372 2531 291 2531 
Q 194 2531 72 2484 
L 41 2597 
L 906 2947 
L 1038 2947 
z
" transform="scale(0.015625)"/>
       <path id="TimesNewRomanPSMT-70" d="M -6 2578 
L 875 2934 
L 994 2934 
L 994 2266 
Q 1216 2644 1439 2795 
Q 1663 2947 1909 2947 
Q 2341 2947 2628 2609 
Q 2981 2197 2981 1534 
Q 2981 794 2556 309 
Q 2206 -88 1675 -88 
Q 1444 -88 1275 -22 
Q 1150 25 994 166 
L 994 -706 
Q 994 -1000 1030 -1079 
Q 1066 -1159 1155 -1206 
Q 1244 -1253 1478 -1253 
L 1478 -1369 
L -22 -1369 
L -22 -1253 
L 56 -1253 
Q 228 -1256 350 -1188 
Q 409 -1153 442 -1076 
Q 475 -1000 475 -688 
L 475 2019 
Q 475 2297 450 2372 
Q 425 2447 370 2484 
Q 316 2522 222 2522 
Q 147 2522 31 2478 
L -6 2578 
z
M 994 2081 
L 994 1013 
Q 994 666 1022 556 
Q 1066 375 1236 237 
Q 1406 100 1666 100 
Q 1978 100 2172 344 
Q 2425 663 2425 1241 
Q 2425 1897 2138 2250 
Q 1938 2494 1663 2494 
Q 1513 2494 1366 2419 
Q 1253 2363 994 2081 
z
" transform="scale(0.015625)"/>
      </defs>
      <use xlink:href="#TimesNewRomanPSMT-53"/>
      <use xlink:href="#TimesNewRomanPSMT-74" transform="translate(55.615234 0)"/>
      <use xlink:href="#TimesNewRomanPSMT-61" transform="translate(83.398438 0)"/>
      <use xlink:href="#TimesNewRomanPSMT-63" transform="translate(127.783203 0)"/>
      <use xlink:href="#TimesNewRomanPSMT-6b" transform="translate(172.167969 0)"/>
      <use xlink:href="#TimesNewRomanPSMT-65" transform="translate(222.167969 0)"/>
      <use xlink:href="#TimesNewRomanPSMT-64" transform="translate(266.552734 0)"/>
      <use xlink:href="#TimesNewRomanPSMT-20" transform="translate(316.552734 0)"/>
      <use xlink:href="#TimesNewRomanPSMT-50" transform="translate(341.552734 0)"/>
      <use xlink:href="#TimesNewRomanPSMT-72" transform="translate(397.167969 0)"/>
      <use xlink:href="#TimesNewRomanPSMT-6f" transform="translate(430.46875 0)"/>
      <use xlink:href="#TimesNewRomanPSMT-70" transform="translate(480.46875 0)"/>
      <use xlink:href="#TimesNewRomanPSMT-6f" transform="translate(530.46875 0)"/>
      <use xlink:href="#TimesNewRomanPSMT-72" transform="translate(580.46875 0)"/>
      <use xlink:href="#TimesNewRomanPSMT-74" transform="translate(613.769531 0)"/>
      <use xlink:href="#TimesNewRomanPSMT-69" transform="translate(641.552734 0)"/>
      <use xlink:href="#TimesNewRomanPSMT-6f" transform="translate(669.335938 0)"/>
      <use xlink:href="#TimesNewRomanPSMT-6e" transform="translate(719.335938 0)"/>
     </g>
    </g>
   </g>
   <g id="line2d_21">
    <path d="M 59.915 213.482805 
L 661.832895 213.482805 
" clip-path="url(#p12a9ccb67c)" style="fill: none; stroke-dasharray: 7.5,15; stroke-dashoffset: 0; stroke: #000000; stroke-width: 1.5"/>
   </g>
   <g id="patch_3">
    <path d="M 59.915 468.115781 
L 59.915 30.283125 
" style="fill: none; stroke: #000000; stroke-width: 0.8; stroke-linejoin: miter; stroke-linecap: square"/>
   </g>
   <g id="patch_4">
    <path d="M 661.832895 468.115781 
L 661.832895 30.283125 
" style="fill: none; stroke: #000000; stroke-width: 0.8; stroke-linejoin: miter; stroke-linecap: square"/>
   </g>
   <g id="patch_5">
    <path d="M 59.915 468.115781 
L 661.832895 468.115781 
" style="fill: none; stroke: #000000; stroke-width: 0.8; stroke-linejoin: miter; stroke-linecap: square"/>
   </g>
   <g id="patch_6">
    <path d="M 59.915 30.283125 
L 661.832895 30.283125 
" style="fill: none; stroke: #000000; stroke-width: 0.8; stroke-linejoin: miter; stroke-linecap: square"/>
   </g>
   <g id="text_13">
    <!-- 0.58 -->
    <g transform="translate(686.472809 216.846086) scale(0.14 -0.14)">
     <defs>
      <path id="TimesNewRomanPSMT-30" d="M 231 2094 
Q 231 2819 450 3342 
Q 669 3866 1031 4122 
Q 1313 4325 1613 4325 
Q 2100 4325 2488 3828 
Q 2972 3213 2972 2159 
Q 2972 1422 2759 906 
Q 2547 391 2217 158 
Q 1888 -75 1581 -75 
Q 975 -75 572 641 
Q 231 1244 231 2094 
z
M 844 2016 
Q 844 1141 1059 588 
Q 1238 122 1591 122 
Q 1759 122 1940 273 
Q 2122 425 2216 781 
Q 2359 1319 2359 2297 
Q 2359 3022 2209 3506 
Q 2097 3866 1919 4016 
Q 1791 4119 1609 4119 
Q 1397 4119 1231 3928 
Q 1006 3669 925 3112 
Q 844 2556 844 2016 
z
" transform="scale(0.015625)"/>
      <path id="TimesNewRomanPSMT-2e" d="M 800 606 
Q 947 606 1047 504 
Q 1147 403 1147 259 
Q 1147 116 1045 14 
Q 944 -88 800 -88 
Q 656 -88 554 14 
Q 453 116 453 259 
Q 453 406 554 506 
Q 656 606 800 606 
z
" transform="scale(0.015625)"/>
      <path id="TimesNewRomanPSMT-35" d="M 2778 4238 
L 2534 3706 
L 1259 3706 
L 981 3138 
Q 1809 3016 2294 2522 
Q 2709 2097 2709 1522 
Q 2709 1188 2573 903 
Q 2438 619 2231 419 
Q 2025 219 1772 97 
Q 1413 -75 1034 -75 
Q 653 -75 479 54 
Q 306 184 306 341 
Q 306 428 378 495 
Q 450 563 559 563 
Q 641 563 702 538 
Q 763 513 909 409 
Q 1144 247 1384 247 
Q 1750 247 2026 523 
Q 2303 800 2303 1197 
Q 2303 1581 2056 1914 
Q 1809 2247 1375 2428 
Q 1034 2569 447 2591 
L 1259 4238 
L 2778 4238 
z
" transform="scale(0.015625)"/>
      <path id="TimesNewRomanPSMT-38" d="M 1228 2134 
Q 725 2547 579 2797 
Q 434 3047 434 3316 
Q 434 3728 753 4026 
Q 1072 4325 1600 4325 
Q 2113 4325 2425 4047 
Q 2738 3769 2738 3413 
Q 2738 3175 2569 2928 
Q 2400 2681 1866 2347 
Q 2416 1922 2594 1678 
Q 2831 1359 2831 1006 
Q 2831 559 2490 242 
Q 2150 -75 1597 -75 
Q 994 -75 656 303 
Q 388 606 388 966 
Q 388 1247 577 1523 
Q 766 1800 1228 2134 
z
M 1719 2469 
Q 2094 2806 2194 3001 
Q 2294 3197 2294 3444 
Q 2294 3772 2109 3958 
Q 1925 4144 1606 4144 
Q 1288 4144 1088 3959 
Q 888 3775 888 3528 
Q 888 3366 970 3203 
Q 1053 3041 1206 2894 
L 1719 2469 
z
M 1375 2016 
Q 1116 1797 991 1539 
Q 866 1281 866 981 
Q 866 578 1086 336 
Q 1306 94 1647 94 
Q 1984 94 2187 284 
Q 2391 475 2391 747 
Q 2391 972 2272 1150 
Q 2050 1481 1375 2016 
z
" transform="scale(0.015625)"/>
     </defs>
     <use xlink:href="#TimesNewRomanPSMT-30"/>
     <use xlink:href="#TimesNewRomanPSMT-2e" transform="translate(50 0)"/>
     <use xlink:href="#TimesNewRomanPSMT-35" transform="translate(75 0)"/>
     <use xlink:href="#TimesNewRomanPSMT-38" transform="translate(125 0)"/>
    </g>
   </g>
   <g id="text_14">
    <!-- Anyanka (Rhesus) -->
    <g transform="translate(282.242697 24.283125) scale(0.2 -0.2)">
     <defs>
      <path id="TimesNewRomanPS-BoldMT-41" d="M 2663 1206 
L 1166 1206 
L 988 794 
Q 900 588 900 453 
Q 900 275 1044 191 
Q 1128 141 1459 116 
L 1459 0 
L 50 0 
L 50 116 
Q 278 150 425 304 
Q 572 459 788 944 
L 2303 4325 
L 2363 4325 
L 3891 850 
Q 4109 356 4250 228 
Q 4356 131 4550 116 
L 4550 0 
L 2500 0 
L 2500 116 
L 2584 116 
Q 2831 116 2931 184 
Q 3000 234 3000 328 
Q 3000 384 2981 444 
Q 2975 472 2888 678 
L 2663 1206 
z
M 2556 1438 
L 1925 2897 
L 1275 1438 
L 2556 1438 
z
" transform="scale(0.015625)"/>
      <path id="TimesNewRomanPS-BoldMT-6e" d="M 1409 2922 
L 1409 2544 
Q 1634 2788 1840 2898 
Q 2047 3009 2284 3009 
Q 2569 3009 2756 2851 
Q 2944 2694 3006 2459 
Q 3056 2281 3056 1775 
L 3056 638 
Q 3056 300 3117 217 
Q 3178 134 3372 113 
L 3372 0 
L 1894 0 
L 1894 113 
Q 2059 134 2131 250 
Q 2181 328 2181 638 
L 2181 1938 
Q 2181 2297 2153 2390 
Q 2125 2484 2058 2536 
Q 1991 2588 1909 2588 
Q 1641 2588 1409 2203 
L 1409 638 
Q 1409 309 1470 221 
Q 1531 134 1697 113 
L 1697 0 
L 219 0 
L 219 113 
Q 403 131 481 231 
Q 534 300 534 638 
L 534 2288 
Q 534 2619 473 2700 
Q 413 2781 219 2806 
L 219 2922 
L 1409 2922 
z
" transform="scale(0.015625)"/>
      <path id="TimesNewRomanPS-BoldMT-79" d="M 1556 -119 
L 613 2047 
Q 400 2538 298 2650 
Q 197 2763 53 2806 
L 53 2922 
L 1606 2922 
L 1606 2806 
Q 1453 2800 1390 2747 
Q 1328 2694 1328 2619 
Q 1328 2500 1484 2150 
L 1984 1006 
L 2325 1891 
Q 2509 2363 2509 2547 
Q 2509 2663 2432 2731 
Q 2356 2800 2163 2806 
L 2163 2922 
L 3141 2922 
L 3141 2806 
Q 2997 2791 2906 2695 
Q 2816 2600 2603 2047 
L 1769 -119 
Q 1453 -931 1300 -1119 
Q 1084 -1381 759 -1381 
Q 500 -1381 339 -1232 
Q 178 -1084 178 -875 
Q 178 -694 289 -575 
Q 400 -456 563 -456 
Q 719 -456 814 -556 
Q 909 -656 913 -866 
Q 916 -984 941 -1019 
Q 966 -1053 1013 -1053 
Q 1088 -1053 1172 -963 
Q 1297 -831 1466 -363 
L 1556 -119 
z
" transform="scale(0.015625)"/>
      <path id="TimesNewRomanPS-BoldMT-61" d="M 1828 431 
Q 1294 -41 869 -41 
Q 619 -41 453 123 
Q 288 288 288 534 
Q 288 869 575 1136 
Q 863 1403 1828 1847 
L 1828 2141 
Q 1828 2472 1792 2558 
Q 1756 2644 1656 2708 
Q 1556 2772 1431 2772 
Q 1228 2772 1097 2681 
Q 1016 2625 1016 2550 
Q 1016 2484 1103 2388 
Q 1222 2253 1222 2128 
Q 1222 1975 1108 1867 
Q 994 1759 809 1759 
Q 613 1759 480 1878 
Q 347 1997 347 2156 
Q 347 2381 525 2586 
Q 703 2791 1022 2900 
Q 1341 3009 1684 3009 
Q 2100 3009 2342 2832 
Q 2584 2656 2656 2450 
Q 2700 2319 2700 1847 
L 2700 713 
Q 2700 513 2715 461 
Q 2731 409 2762 384 
Q 2794 359 2834 359 
Q 2916 359 3000 475 
L 3094 400 
Q 2938 169 2770 64 
Q 2603 -41 2391 -41 
Q 2141 -41 2000 76 
Q 1859 194 1828 431 
z
M 1828 659 
L 1828 1638 
Q 1450 1416 1266 1163 
Q 1144 994 1144 822 
Q 1144 678 1247 569 
Q 1325 484 1466 484 
Q 1622 484 1828 659 
z
" transform="scale(0.015625)"/>
      <path id="TimesNewRomanPS-BoldMT-6b" d="M 1403 4238 
L 1403 1450 
L 2081 2116 
Q 2291 2319 2342 2409 
Q 2394 2500 2394 2584 
Q 2394 2669 2325 2725 
Q 2256 2781 2056 2806 
L 2056 2922 
L 3366 2922 
L 3366 2806 
Q 3178 2797 3037 2717 
Q 2897 2638 2488 2238 
L 2169 1925 
L 2856 919 
Q 3272 306 3350 231 
Q 3456 125 3619 113 
L 3619 0 
L 2109 0 
L 2109 113 
Q 2209 113 2254 150 
Q 2300 188 2300 231 
Q 2300 303 2169 497 
L 1591 1344 
L 1403 1159 
L 1403 634 
Q 1403 300 1465 217 
Q 1528 134 1722 113 
L 1722 0 
L 213 0 
L 213 113 
Q 397 131 475 231 
Q 528 300 528 634 
L 528 3603 
Q 528 3934 467 4015 
Q 406 4097 213 4122 
L 213 4238 
L 1403 4238 
z
" transform="scale(0.015625)"/>
      <path id="TimesNewRomanPS-BoldMT-20" transform="scale(0.015625)"/>
      <path id="TimesNewRomanPS-BoldMT-28" d="M 2056 4334 
L 2056 4191 
Q 1731 3978 1578 3775 
Q 1366 3494 1247 3053 
Q 1097 2506 1097 1525 
Q 1097 600 1233 87 
Q 1369 -425 1603 -741 
Q 1766 -959 2056 -1125 
L 2056 -1281 
Q 1303 -1028 779 -248 
Q 256 531 256 1544 
Q 256 2544 778 3314 
Q 1300 4084 2056 4334 
z
" transform="scale(0.015625)"/>
      <path id="TimesNewRomanPS-BoldMT-52" d="M 1700 1931 
L 1700 744 
Q 1700 400 1742 311 
Q 1784 222 1890 169 
Q 1997 116 2288 116 
L 2288 0 
L 119 0 
L 119 116 
Q 413 116 517 170 
Q 622 225 664 312 
Q 706 400 706 744 
L 706 3494 
Q 706 3838 664 3927 
Q 622 4016 515 4069 
Q 409 4122 119 4122 
L 119 4238 
L 2088 4238 
Q 2856 4238 3212 4131 
Q 3569 4025 3794 3739 
Q 4019 3453 4019 3069 
Q 4019 2600 3681 2294 
Q 3466 2100 3078 2003 
L 4097 569 
Q 4297 291 4381 222 
Q 4509 125 4678 116 
L 4678 0 
L 3344 0 
L 1978 1931 
L 1700 1931 
z
M 1700 4009 
L 1700 2153 
L 1878 2153 
Q 2313 2153 2528 2233 
Q 2744 2313 2867 2520 
Q 2991 2728 2991 3063 
Q 2991 3547 2764 3778 
Q 2538 4009 2034 4009 
L 1700 4009 
z
" transform="scale(0.015625)"/>
      <path id="TimesNewRomanPS-BoldMT-68" d="M 1409 4238 
L 1409 2547 
Q 1650 2800 1850 2904 
Q 2050 3009 2266 3009 
Q 2541 3009 2736 2853 
Q 2931 2697 2995 2486 
Q 3059 2275 3059 1775 
L 3059 634 
Q 3059 300 3121 217 
Q 3184 134 3375 113 
L 3375 0 
L 1894 0 
L 1894 113 
Q 2050 134 2128 238 
Q 2184 319 2184 634 
L 2184 1938 
Q 2184 2300 2156 2392 
Q 2128 2484 2061 2536 
Q 1994 2588 1909 2588 
Q 1784 2588 1665 2502 
Q 1547 2416 1409 2200 
L 1409 634 
Q 1409 322 1456 244 
Q 1516 138 1700 113 
L 1700 0 
L 219 0 
L 219 113 
Q 403 131 481 231 
Q 534 300 534 634 
L 534 3603 
Q 534 3934 473 4015 
Q 413 4097 219 4122 
L 219 4238 
L 1409 4238 
z
" transform="scale(0.015625)"/>
      <path id="TimesNewRomanPS-BoldMT-65" d="M 2691 1566 
L 1088 1566 
Q 1116 984 1397 647 
Q 1613 388 1916 388 
Q 2103 388 2256 492 
Q 2409 597 2584 869 
L 2691 800 
Q 2453 316 2165 114 
Q 1878 -88 1500 -88 
Q 850 -88 516 413 
Q 247 816 247 1413 
Q 247 2144 642 2576 
Q 1038 3009 1569 3009 
Q 2013 3009 2339 2645 
Q 2666 2281 2691 1566 
z
M 1922 1775 
Q 1922 2278 1867 2465 
Q 1813 2653 1697 2750 
Q 1631 2806 1522 2806 
Q 1359 2806 1256 2647 
Q 1072 2369 1072 1884 
L 1072 1775 
L 1922 1775 
z
" transform="scale(0.015625)"/>
      <path id="TimesNewRomanPS-BoldMT-73" d="M 2063 3003 
L 2109 2006 
L 2003 2006 
Q 1813 2450 1608 2612 
Q 1403 2775 1200 2775 
Q 1072 2775 981 2689 
Q 891 2603 891 2491 
Q 891 2406 953 2328 
Q 1053 2200 1512 1889 
Q 1972 1578 2117 1361 
Q 2263 1144 2263 875 
Q 2263 631 2141 397 
Q 2019 163 1797 37 
Q 1575 -88 1306 -88 
Q 1097 -88 747 44 
Q 653 78 619 78 
Q 516 78 447 -78 
L 344 -78 
L 294 972 
L 400 972 
Q 541 559 786 353 
Q 1031 147 1250 147 
Q 1400 147 1495 239 
Q 1591 331 1591 463 
Q 1591 613 1497 722 
Q 1403 831 1078 1053 
Q 600 1384 459 1559 
Q 253 1816 253 2125 
Q 253 2463 486 2736 
Q 719 3009 1159 3009 
Q 1397 3009 1619 2894 
Q 1703 2847 1756 2847 
Q 1813 2847 1847 2870 
Q 1881 2894 1956 3003 
L 2063 3003 
z
" transform="scale(0.015625)"/>
      <path id="TimesNewRomanPS-BoldMT-75" d="M 3038 2922 
L 3038 634 
Q 3038 300 3100 217 
Q 3163 134 3353 113 
L 3353 0 
L 2163 0 
L 2163 391 
Q 1953 141 1743 26 
Q 1534 -88 1275 -88 
Q 1028 -88 836 64 
Q 644 216 578 419 
Q 513 622 513 1128 
L 513 2288 
Q 513 2619 452 2700 
Q 391 2781 197 2806 
L 197 2922 
L 1388 2922 
L 1388 925 
Q 1388 613 1417 522 
Q 1447 431 1511 384 
Q 1575 338 1659 338 
Q 1772 338 1863 397 
Q 1988 478 2163 725 
L 2163 2288 
Q 2163 2619 2102 2700 
Q 2041 2781 1847 2806 
L 1847 2922 
L 3038 2922 
z
" transform="scale(0.015625)"/>
      <path id="TimesNewRomanPS-BoldMT-29" d="M 78 -1281 
L 78 -1138 
Q 403 -922 556 -719 
Q 766 -438 888 0 
Q 1038 550 1038 1531 
Q 1038 2456 902 2967 
Q 766 3478 531 3794 
Q 369 4013 78 4178 
L 78 4334 
Q 831 4081 1354 3301 
Q 1878 2522 1878 1509 
Q 1878 513 1354 -257 
Q 831 -1028 78 -1281 
z
" transform="scale(0.015625)"/>
     </defs>
     <use xlink:href="#TimesNewRomanPS-BoldMT-41"/>
     <use xlink:href="#TimesNewRomanPS-BoldMT-6e" transform="translate(72.216797 0)"/>
     <use xlink:href="#TimesNewRomanPS-BoldMT-79" transform="translate(127.832031 0)"/>
     <use xlink:href="#TimesNewRomanPS-BoldMT-61" transform="translate(177.832031 0)"/>
     <use xlink:href="#TimesNewRomanPS-BoldMT-6e" transform="translate(227.832031 0)"/>
     <use xlink:href="#TimesNewRomanPS-BoldMT-6b" transform="translate(283.447266 0)"/>
     <use xlink:href="#TimesNewRomanPS-BoldMT-61" transform="translate(339.0625 0)"/>
     <use xlink:href="#TimesNewRomanPS-BoldMT-20" transform="translate(389.0625 0)"/>
     <use xlink:href="#TimesNewRomanPS-BoldMT-28" transform="translate(414.0625 0)"/>
     <use xlink:href="#TimesNewRomanPS-BoldMT-52" transform="translate(447.363281 0)"/>
     <use xlink:href="#TimesNewRomanPS-BoldMT-68" transform="translate(519.580078 0)"/>
     <use xlink:href="#TimesNewRomanPS-BoldMT-65" transform="translate(575.195312 0)"/>
     <use xlink:href="#TimesNewRomanPS-BoldMT-73" transform="translate(619.580078 0)"/>
     <use xlink:href="#TimesNewRomanPS-BoldMT-75" transform="translate(658.496094 0)"/>
     <use xlink:href="#TimesNewRomanPS-BoldMT-73" transform="translate(714.111328 0)"/>
     <use xlink:href="#TimesNewRomanPS-BoldMT-29" transform="translate(753.027344 0)"/>
    </g>
   </g>
   <g id="legend_1">
    <g id="patch_7">
     <path d="M 66.915 94.839375 
L 152.811875 94.839375 
Q 154.811875 94.839375 154.811875 92.839375 
L 154.811875 37.283125 
Q 154.811875 35.283125 152.811875 35.283125 
L 66.915 35.283125 
Q 64.915 35.283125 64.915 37.283125 
L 64.915 92.839375 
Q 64.915 94.839375 66.915 94.839375 
z
" style="fill: #ffffff; opacity: 0.8; stroke: #cccccc; stroke-linejoin: miter"/>
    </g>
    <g id="patch_8">
     <path d="M 68.915 46.283125 
L 88.915 46.283125 
L 88.915 39.283125 
L 68.915 39.283125 
z
" style="fill: #5386b6"/>
    </g>
    <g id="text_15">
     <!-- Success -->
     <g transform="translate(96.915 46.283125) scale(0.1 -0.1)">
      <use xlink:href="#TimesNewRomanPSMT-53"/>
      <use xlink:href="#TimesNewRomanPSMT-75" transform="translate(55.615234 0)"/>
      <use xlink:href="#TimesNewRomanPSMT-63" transform="translate(105.615234 0)"/>
      <use xlink:href="#TimesNewRomanPSMT-63" transform="translate(150 0)"/>
      <use xlink:href="#TimesNewRomanPSMT-65" transform="translate(194.384766 0)"/>
      <use xlink:href="#TimesNewRomanPSMT-73" transform="translate(238.769531 0)"/>
      <use xlink:href="#TimesNewRomanPSMT-73" transform="translate(277.685547 0)"/>
     </g>
    </g>
    <g id="patch_9">
     <path d="M 68.915 60.422187 
L 88.915 60.422187 
L 88.915 53.422187 
L 68.915 53.422187 
z
" style="fill: #d57459"/>
    </g>
    <g id="text_16">
     <!-- Error -->
     <g transform="translate(96.915 60.422187) scale(0.1 -0.1)">
      <defs>
       <path id="TimesNewRomanPSMT-45" d="M 1338 4006 
L 1338 2331 
L 2269 2331 
Q 2631 2331 2753 2441 
Q 2916 2584 2934 2947 
L 3050 2947 
L 3050 1472 
L 2934 1472 
Q 2891 1781 2847 1869 
Q 2791 1978 2662 2040 
Q 2534 2103 2269 2103 
L 1338 2103 
L 1338 706 
Q 1338 425 1363 364 
Q 1388 303 1450 267 
Q 1513 231 1688 231 
L 2406 231 
Q 2766 231 2928 281 
Q 3091 331 3241 478 
Q 3434 672 3638 1063 
L 3763 1063 
L 3397 0 
L 131 0 
L 131 116 
L 281 116 
Q 431 116 566 188 
Q 666 238 702 338 
Q 738 438 738 747 
L 738 3500 
Q 738 3903 656 3997 
Q 544 4122 281 4122 
L 131 4122 
L 131 4238 
L 3397 4238 
L 3444 3309 
L 3322 3309 
Q 3256 3644 3176 3769 
Q 3097 3894 2941 3959 
Q 2816 4006 2500 4006 
L 1338 4006 
z
" transform="scale(0.015625)"/>
      </defs>
      <use xlink:href="#TimesNewRomanPSMT-45"/>
      <use xlink:href="#TimesNewRomanPSMT-72" transform="translate(61.083984 0)"/>
      <use xlink:href="#TimesNewRomanPSMT-72" transform="translate(94.384766 0)"/>
      <use xlink:href="#TimesNewRomanPSMT-6f" transform="translate(127.685547 0)"/>
      <use xlink:href="#TimesNewRomanPSMT-72" transform="translate(177.685547 0)"/>
     </g>
    </g>
    <g id="patch_10">
     <path d="M 68.915 74.56125 
L 88.915 74.56125 
L 88.915 67.56125 
L 68.915 67.56125 
z
" style="fill: #e8bc60"/>
    </g>
    <g id="text_17">
     <!-- Premature -->
     <g transform="translate(96.915 74.56125) scale(0.1 -0.1)">
      <defs>
       <path id="TimesNewRomanPSMT-6d" d="M 1050 2338 
Q 1363 2650 1419 2697 
Q 1559 2816 1721 2881 
Q 1884 2947 2044 2947 
Q 2313 2947 2506 2790 
Q 2700 2634 2766 2338 
Q 3088 2713 3309 2830 
Q 3531 2947 3766 2947 
Q 3994 2947 4170 2830 
Q 4347 2713 4450 2447 
Q 4519 2266 4519 1878 
L 4519 647 
Q 4519 378 4559 278 
Q 4591 209 4675 161 
Q 4759 113 4950 113 
L 4950 0 
L 3538 0 
L 3538 113 
L 3597 113 
Q 3781 113 3884 184 
Q 3956 234 3988 344 
Q 4000 397 4000 647 
L 4000 1878 
Q 4000 2228 3916 2372 
Q 3794 2572 3525 2572 
Q 3359 2572 3192 2489 
Q 3025 2406 2788 2181 
L 2781 2147 
L 2788 2013 
L 2788 647 
Q 2788 353 2820 281 
Q 2853 209 2943 161 
Q 3034 113 3253 113 
L 3253 0 
L 1806 0 
L 1806 113 
Q 2044 113 2133 169 
Q 2222 225 2256 338 
Q 2272 391 2272 647 
L 2272 1878 
Q 2272 2228 2169 2381 
Q 2031 2581 1784 2581 
Q 1616 2581 1450 2491 
Q 1191 2353 1050 2181 
L 1050 647 
Q 1050 366 1089 281 
Q 1128 197 1204 155 
Q 1281 113 1516 113 
L 1516 0 
L 100 0 
L 100 113 
Q 297 113 375 155 
Q 453 197 493 289 
Q 534 381 534 647 
L 534 1741 
Q 534 2213 506 2350 
Q 484 2453 437 2492 
Q 391 2531 309 2531 
Q 222 2531 100 2484 
L 53 2597 
L 916 2947 
L 1050 2947 
L 1050 2338 
z
" transform="scale(0.015625)"/>
      </defs>
      <use xlink:href="#TimesNewRomanPSMT-50"/>
      <use xlink:href="#TimesNewRomanPSMT-72" transform="translate(55.615234 0)"/>
      <use xlink:href="#TimesNewRomanPSMT-65" transform="translate(88.916016 0)"/>
      <use xlink:href="#TimesNewRomanPSMT-6d" transform="translate(133.300781 0)"/>
      <use xlink:href="#TimesNewRomanPSMT-61" transform="translate(211.083984 0)"/>
      <use xlink:href="#TimesNewRomanPSMT-74" transform="translate(255.46875 0)"/>
      <use xlink:href="#TimesNewRomanPSMT-75" transform="translate(283.251953 0)"/>
      <use xlink:href="#TimesNewRomanPSMT-72" transform="translate(333.251953 0)"/>
      <use xlink:href="#TimesNewRomanPSMT-65" transform="translate(366.552734 0)"/>
     </g>
    </g>
    <g id="patch_11">
     <path d="M 68.915 88.700312 
L 88.915 88.700312 
L 88.915 81.700312 
L 68.915 81.700312 
z
" style="fill: #8d5993"/>
    </g>
    <g id="text_18">
     <!-- Stepomission -->
     <g transform="translate(96.915 88.700312) scale(0.1 -0.1)">
      <use xlink:href="#TimesNewRomanPSMT-53"/>
      <use xlink:href="#TimesNewRomanPSMT-74" transform="translate(55.615234 0)"/>
      <use xlink:href="#TimesNewRomanPSMT-65" transform="translate(83.398438 0)"/>
      <use xlink:href="#TimesNewRomanPSMT-70" transform="translate(127.783203 0)"/>
      <use xlink:href="#TimesNewRomanPSMT-6f" transform="translate(177.783203 0)"/>
      <use xlink:href="#TimesNewRomanPSMT-6d" transform="translate(227.783203 0)"/>
      <use xlink:href="#TimesNewRomanPSMT-69" transform="translate(305.566406 0)"/>
      <use xlink:href="#TimesNewRomanPSMT-73" transform="translate(333.349609 0)"/>
      <use xlink:href="#TimesNewRomanPSMT-73" transform="translate(372.265625 0)"/>
      <use xlink:href="#TimesNewRomanPSMT-69" transform="translate(411.181641 0)"/>
      <use xlink:href="#TimesNewRomanPSMT-6f" transform="translate(438.964844 0)"/>
      <use xlink:href="#TimesNewRomanPSMT-6e" transform="translate(488.964844 0)"/>
     </g>
    </g>
   </g>
  </g>
  <g id="axes_2">
   <g id="patch_12">
    <path d="M 59.915 675.52 
L 661.832895 675.52 
L 661.832895 529.575781 
L 59.915 529.575781 
z
" style="fill: #ffffff"/>
   </g>
   <g id="matplotlib.axis_3">
    <g id="xtick_9">
     <g id="line2d_22">
      <path d="M 117.240514 675.52 
L 117.240514 529.575781 
" clip-path="url(#p0068795612)" style="fill: none; stroke-dasharray: 2.96,1.28; stroke-dashoffset: 0; stroke: #b0b0b0; stroke-opacity: 0.5; stroke-width: 0.8"/>
     </g>
     <g id="line2d_23">
      <g>
       <use xlink:href="#m343cf8ef38" x="117.240514" y="675.52" style="stroke: #000000; stroke-width: 0.8"/>
      </g>
     </g>
     <g id="text_19">
      <!-- 2023-05 -->
      <g transform="translate(96.349108 690.118438) scale(0.1 -0.1)">
       <defs>
        <path id="DejaVuSans-33" d="M 2597 2516 
Q 3050 2419 3304 2112 
Q 3559 1806 3559 1356 
Q 3559 666 3084 287 
Q 2609 -91 1734 -91 
Q 1441 -91 1130 -33 
Q 819 25 488 141 
L 488 750 
Q 750 597 1062 519 
Q 1375 441 1716 441 
Q 2309 441 2620 675 
Q 2931 909 2931 1356 
Q 2931 1769 2642 2001 
Q 2353 2234 1838 2234 
L 1294 2234 
L 1294 2753 
L 1863 2753 
Q 2328 2753 2575 2939 
Q 2822 3125 2822 3475 
Q 2822 3834 2567 4026 
Q 2313 4219 1838 4219 
Q 1578 4219 1281 4162 
Q 984 4106 628 3988 
L 628 4550 
Q 988 4650 1302 4700 
Q 1616 4750 1894 4750 
Q 2613 4750 3031 4423 
Q 3450 4097 3450 3541 
Q 3450 3153 3228 2886 
Q 3006 2619 2597 2516 
z
" transform="scale(0.015625)"/>
        <path id="DejaVuSans-2d" d="M 313 2009 
L 1997 2009 
L 1997 1497 
L 313 1497 
L 313 2009 
z
" transform="scale(0.015625)"/>
        <path id="DejaVuSans-35" d="M 691 4666 
L 3169 4666 
L 3169 4134 
L 1269 4134 
L 1269 2991 
Q 1406 3038 1543 3061 
Q 1681 3084 1819 3084 
Q 2600 3084 3056 2656 
Q 3513 2228 3513 1497 
Q 3513 744 3044 326 
Q 2575 -91 1722 -91 
Q 1428 -91 1123 -41 
Q 819 9 494 109 
L 494 744 
Q 775 591 1075 516 
Q 1375 441 1709 441 
Q 2250 441 2565 725 
Q 2881 1009 2881 1497 
Q 2881 1984 2565 2268 
Q 2250 2553 1709 2553 
Q 1456 2553 1204 2497 
Q 953 2441 691 2322 
L 691 4666 
z
" transform="scale(0.015625)"/>
       </defs>
       <use xlink:href="#DejaVuSans-32"/>
       <use xlink:href="#DejaVuSans-30" transform="translate(63.623047 0)"/>
       <use xlink:href="#DejaVuSans-32" transform="translate(127.246094 0)"/>
       <use xlink:href="#DejaVuSans-33" transform="translate(190.869141 0)"/>
       <use xlink:href="#DejaVuSans-2d" transform="translate(254.492188 0)"/>
       <use xlink:href="#DejaVuSans-30" transform="translate(290.576172 0)"/>
       <use xlink:href="#DejaVuSans-35" transform="translate(354.199219 0)"/>
      </g>
     </g>
    </g>
    <g id="xtick_10">
     <g id="line2d_24">
      <path d="M 317.879812 675.52 
L 317.879812 529.575781 
" clip-path="url(#p0068795612)" style="fill: none; stroke-dasharray: 2.96,1.28; stroke-dashoffset: 0; stroke: #b0b0b0; stroke-opacity: 0.5; stroke-width: 0.8"/>
     </g>
     <g id="line2d_25">
      <g>
       <use xlink:href="#m343cf8ef38" x="317.879812" y="675.52" style="stroke: #000000; stroke-width: 0.8"/>
      </g>
     </g>
     <g id="text_20">
      <!-- 2023-05 -->
      <g transform="translate(296.988406 690.118438) scale(0.1 -0.1)">
       <use xlink:href="#DejaVuSans-32"/>
       <use xlink:href="#DejaVuSans-30" transform="translate(63.623047 0)"/>
       <use xlink:href="#DejaVuSans-32" transform="translate(127.246094 0)"/>
       <use xlink:href="#DejaVuSans-33" transform="translate(190.869141 0)"/>
       <use xlink:href="#DejaVuSans-2d" transform="translate(254.492188 0)"/>
       <use xlink:href="#DejaVuSans-30" transform="translate(290.576172 0)"/>
       <use xlink:href="#DejaVuSans-35" transform="translate(354.199219 0)"/>
      </g>
     </g>
    </g>
    <g id="xtick_11">
     <g id="line2d_26">
      <path d="M 604.507381 675.52 
L 604.507381 529.575781 
" clip-path="url(#p0068795612)" style="fill: none; stroke-dasharray: 2.96,1.28; stroke-dashoffset: 0; stroke: #b0b0b0; stroke-opacity: 0.5; stroke-width: 0.8"/>
     </g>
     <g id="line2d_27">
      <g>
       <use xlink:href="#m343cf8ef38" x="604.507381" y="675.52" style="stroke: #000000; stroke-width: 0.8"/>
      </g>
     </g>
     <g id="text_21">
      <!-- 2023-06 -->
      <g transform="translate(583.615975 690.118438) scale(0.1 -0.1)">
       <use xlink:href="#DejaVuSans-32"/>
       <use xlink:href="#DejaVuSans-30" transform="translate(63.623047 0)"/>
       <use xlink:href="#DejaVuSans-32" transform="translate(127.246094 0)"/>
       <use xlink:href="#DejaVuSans-33" transform="translate(190.869141 0)"/>
       <use xlink:href="#DejaVuSans-2d" transform="translate(254.492188 0)"/>
       <use xlink:href="#DejaVuSans-30" transform="translate(290.576172 0)"/>
       <use xlink:href="#DejaVuSans-36" transform="translate(354.199219 0)"/>
      </g>
     </g>
    </g>
    <g id="text_22">
     <!-- Date -->
     <g transform="translate(347.65926 705.919375) scale(0.14 -0.14)">
      <defs>
       <path id="TimesNewRomanPSMT-44" d="M 109 0 
L 109 116 
L 269 116 
Q 538 116 650 288 
Q 719 391 719 750 
L 719 3488 
Q 719 3884 631 3984 
Q 509 4122 269 4122 
L 109 4122 
L 109 4238 
L 1834 4238 
Q 2784 4238 3279 4022 
Q 3775 3806 4076 3303 
Q 4378 2800 4378 2141 
Q 4378 1256 3841 663 
Q 3238 0 2003 0 
L 109 0 
z
M 1319 306 
Q 1716 219 1984 219 
Q 2709 219 3187 728 
Q 3666 1238 3666 2109 
Q 3666 2988 3187 3494 
Q 2709 4000 1959 4000 
Q 1678 4000 1319 3909 
L 1319 306 
z
" transform="scale(0.015625)"/>
      </defs>
      <use xlink:href="#TimesNewRomanPSMT-44"/>
      <use xlink:href="#TimesNewRomanPSMT-61" transform="translate(72.216797 0)"/>
      <use xlink:href="#TimesNewRomanPSMT-74" transform="translate(116.601562 0)"/>
      <use xlink:href="#TimesNewRomanPSMT-65" transform="translate(144.384766 0)"/>
     </g>
    </g>
   </g>
   <g id="matplotlib.axis_4">
    <g id="ytick_3">
     <g id="line2d_28">
      <path d="M 59.915 675.52 
L 661.832895 675.52 
" clip-path="url(#p0068795612)" style="fill: none; stroke-dasharray: 2.96,1.28; stroke-dashoffset: 0; stroke: #b0b0b0; stroke-opacity: 0.5; stroke-width: 0.8"/>
     </g>
     <g id="line2d_29">
      <g>
       <use xlink:href="#m4fa12e93b9" x="59.915" y="675.52" style="stroke: #000000; stroke-width: 0.8"/>
      </g>
     </g>
     <g id="text_23">
      <!-- 700 -->
      <g transform="translate(33.8275 679.319219) scale(0.1 -0.1)">
       <defs>
        <path id="DejaVuSans-37" d="M 525 4666 
L 3525 4666 
L 3525 4397 
L 1831 0 
L 1172 0 
L 2766 4134 
L 525 4134 
L 525 4666 
z
" transform="scale(0.015625)"/>
       </defs>
       <use xlink:href="#DejaVuSans-37"/>
       <use xlink:href="#DejaVuSans-30" transform="translate(63.623047 0)"/>
       <use xlink:href="#DejaVuSans-30" transform="translate(127.246094 0)"/>
      </g>
     </g>
    </g>
    <g id="ytick_4">
     <g id="line2d_30">
      <path d="M 59.915 602.547891 
L 661.832895 602.547891 
" clip-path="url(#p0068795612)" style="fill: none; stroke-dasharray: 2.96,1.28; stroke-dashoffset: 0; stroke: #b0b0b0; stroke-opacity: 0.5; stroke-width: 0.8"/>
     </g>
     <g id="line2d_31">
      <g>
       <use xlink:href="#m4fa12e93b9" x="59.915" y="602.547891" style="stroke: #000000; stroke-width: 0.8"/>
      </g>
     </g>
     <g id="text_24">
      <!-- 1000 -->
      <g transform="translate(27.465 606.347109) scale(0.1 -0.1)">
       <use xlink:href="#DejaVuSans-31"/>
       <use xlink:href="#DejaVuSans-30" transform="translate(63.623047 0)"/>
       <use xlink:href="#DejaVuSans-30" transform="translate(127.246094 0)"/>
       <use xlink:href="#DejaVuSans-30" transform="translate(190.869141 0)"/>
      </g>
     </g>
    </g>
    <g id="ytick_5">
     <g id="line2d_32">
      <path d="M 59.915 529.575781 
L 661.832895 529.575781 
" clip-path="url(#p0068795612)" style="fill: none; stroke-dasharray: 2.96,1.28; stroke-dashoffset: 0; stroke: #b0b0b0; stroke-opacity: 0.5; stroke-width: 0.8"/>
     </g>
     <g id="line2d_33">
      <g>
       <use xlink:href="#m4fa12e93b9" x="59.915" y="529.575781" style="stroke: #000000; stroke-width: 0.8"/>
      </g>
     </g>
     <g id="text_25">
      <!-- 1300 -->
      <g transform="translate(27.465 533.375) scale(0.1 -0.1)">
       <use xlink:href="#DejaVuSans-31"/>
       <use xlink:href="#DejaVuSans-33" transform="translate(63.623047 0)"/>
       <use xlink:href="#DejaVuSans-30" transform="translate(127.246094 0)"/>
       <use xlink:href="#DejaVuSans-30" transform="translate(190.869141 0)"/>
      </g>
     </g>
    </g>
    <g id="text_26">
     <!-- Elo -->
     <g transform="translate(20.470312 612.268047) rotate(-90) scale(0.14 -0.14)">
      <defs>
       <path id="TimesNewRomanPSMT-6c" d="M 1184 4444 
L 1184 647 
Q 1184 378 1223 290 
Q 1263 203 1344 158 
Q 1425 113 1647 113 
L 1647 0 
L 244 0 
L 244 113 
Q 441 113 512 153 
Q 584 194 625 287 
Q 666 381 666 647 
L 666 3247 
Q 666 3731 644 3842 
Q 622 3953 573 3993 
Q 525 4034 450 4034 
Q 369 4034 244 3984 
L 191 4094 
L 1044 4444 
L 1184 4444 
z
" transform="scale(0.015625)"/>
      </defs>
      <use xlink:href="#TimesNewRomanPSMT-45"/>
      <use xlink:href="#TimesNewRomanPSMT-6c" transform="translate(61.083984 0)"/>
      <use xlink:href="#TimesNewRomanPSMT-6f" transform="translate(88.867188 0)"/>
     </g>
    </g>
   </g>
   <g id="line2d_34">
    <path d="M 59.915 627.601648 
L 88.577757 627.601648 
L 117.240514 628.57461 
L 145.903271 630.763773 
L 174.566028 631.736734 
L 203.228784 632.466455 
L 231.891541 632.223215 
L 260.554298 632.952936 
L 289.217055 634.169138 
L 317.879812 633.682657 
L 346.542569 633.682657 
L 375.205326 633.682657 
L 403.868083 634.412378 
L 432.53084 635.142099 
L 461.193596 637.574503 
L 489.856353 640.250147 
L 518.51911 641.709589 
L 547.181867 642.19607 
L 575.844624 641.709589 
L 604.507381 640.979868 
L 633.170138 640.006907 
L 661.832895 639.277186 
" clip-path="url(#p0068795612)" style="fill: none; stroke: #ffd700; stroke-width: 2; stroke-linecap: square"/>
   </g>
   <g id="patch_13">
    <path d="M 59.915 675.52 
L 59.915 529.575781 
" style="fill: none; stroke: #000000; stroke-width: 0.8; stroke-linejoin: miter; stroke-linecap: square"/>
   </g>
   <g id="patch_14">
    <path d="M 661.832895 675.52 
L 661.832895 529.575781 
" style="fill: none; stroke: #000000; stroke-width: 0.8; stroke-linejoin: miter; stroke-linecap: square"/>
   </g>
   <g id="patch_15">
    <path d="M 59.915 675.52 
L 661.832895 675.52 
" style="fill: none; stroke: #000000; stroke-width: 0.8; stroke-linejoin: miter; stroke-linecap: square"/>
   </g>
   <g id="patch_16">
    <path d="M 59.915 529.575781 
L 661.832895 529.575781 
" style="fill: none; stroke: #000000; stroke-width: 0.8; stroke-linejoin: miter; stroke-linecap: square"/>
   </g>
   <g id="text_27">
    <!-- Hierarchy -->
    <g transform="translate(325.915197 523.575781) scale(0.16 -0.16)">
     <defs>
      <path id="TimesNewRomanPS-BoldMT-48" d="M 1750 2038 
L 1750 725 
Q 1750 400 1786 319 
Q 1822 238 1926 177 
Q 2031 116 2209 116 
L 2350 116 
L 2350 0 
L 134 0 
L 134 116 
L 275 116 
Q 459 116 572 181 
Q 653 225 697 331 
Q 731 406 731 725 
L 731 3513 
Q 731 3838 697 3919 
Q 663 4000 558 4061 
Q 453 4122 275 4122 
L 134 4122 
L 134 4238 
L 2350 4238 
L 2350 4122 
L 2209 4122 
Q 2025 4122 1913 4056 
Q 1831 4013 1784 3906 
Q 1750 3831 1750 3513 
L 1750 2313 
L 3247 2313 
L 3247 3513 
Q 3247 3838 3212 3919 
Q 3178 4000 3072 4061 
Q 2966 4122 2788 4122 
L 2650 4122 
L 2650 4238 
L 4863 4238 
L 4863 4122 
L 4725 4122 
Q 4538 4122 4428 4056 
Q 4347 4013 4300 3906 
Q 4266 3831 4266 3513 
L 4266 725 
Q 4266 400 4300 319 
Q 4334 238 4440 177 
Q 4547 116 4725 116 
L 4863 116 
L 4863 0 
L 2650 0 
L 2650 116 
L 2788 116 
Q 2975 116 3084 181 
Q 3166 225 3213 331 
Q 3247 406 3247 725 
L 3247 2038 
L 1750 2038 
z
" transform="scale(0.015625)"/>
      <path id="TimesNewRomanPS-BoldMT-69" d="M 919 4338 
Q 1122 4338 1262 4195 
Q 1403 4053 1403 3853 
Q 1403 3653 1261 3512 
Q 1119 3372 919 3372 
Q 719 3372 578 3512 
Q 438 3653 438 3853 
Q 438 4053 578 4195 
Q 719 4338 919 4338 
z
M 1356 2922 
L 1356 606 
Q 1356 297 1428 211 
Q 1500 125 1709 113 
L 1709 0 
L 131 0 
L 131 113 
Q 325 119 419 225 
Q 481 297 481 606 
L 481 2313 
Q 481 2622 409 2708 
Q 338 2794 131 2806 
L 131 2922 
L 1356 2922 
z
" transform="scale(0.015625)"/>
      <path id="TimesNewRomanPS-BoldMT-72" d="M 1428 2922 
L 1428 2259 
Q 1719 2713 1937 2861 
Q 2156 3009 2359 3009 
Q 2534 3009 2639 2901 
Q 2744 2794 2744 2597 
Q 2744 2388 2642 2272 
Q 2541 2156 2397 2156 
Q 2231 2156 2109 2262 
Q 1988 2369 1966 2381 
Q 1934 2400 1894 2400 
Q 1803 2400 1722 2331 
Q 1594 2225 1528 2028 
Q 1428 1725 1428 1359 
L 1428 688 
L 1431 513 
Q 1431 334 1453 284 
Q 1491 200 1564 161 
Q 1638 122 1813 113 
L 1813 0 
L 234 0 
L 234 113 
Q 425 128 492 217 
Q 559 306 559 688 
L 559 2303 
Q 559 2553 534 2622 
Q 503 2709 443 2750 
Q 384 2791 234 2806 
L 234 2922 
L 1428 2922 
z
" transform="scale(0.015625)"/>
      <path id="TimesNewRomanPS-BoldMT-63" d="M 2600 753 
L 2697 678 
Q 2491 291 2183 101 
Q 1875 -88 1528 -88 
Q 944 -88 594 353 
Q 244 794 244 1413 
Q 244 2009 563 2463 
Q 947 3009 1622 3009 
Q 2075 3009 2342 2781 
Q 2609 2553 2609 2272 
Q 2609 2094 2501 1987 
Q 2394 1881 2219 1881 
Q 2034 1881 1914 2003 
Q 1794 2125 1766 2438 
Q 1747 2634 1675 2713 
Q 1603 2791 1506 2791 
Q 1356 2791 1250 2631 
Q 1088 2391 1088 1894 
Q 1088 1481 1219 1104 
Q 1350 728 1578 544 
Q 1750 409 1984 409 
Q 2138 409 2275 481 
Q 2413 553 2600 753 
z
" transform="scale(0.015625)"/>
     </defs>
     <use xlink:href="#TimesNewRomanPS-BoldMT-48"/>
     <use xlink:href="#TimesNewRomanPS-BoldMT-69" transform="translate(77.783203 0)"/>
     <use xlink:href="#TimesNewRomanPS-BoldMT-65" transform="translate(105.566406 0)"/>
     <use xlink:href="#TimesNewRomanPS-BoldMT-72" transform="translate(149.951172 0)"/>
     <use xlink:href="#TimesNewRomanPS-BoldMT-61" transform="translate(194.335938 0)"/>
     <use xlink:href="#TimesNewRomanPS-BoldMT-72" transform="translate(244.335938 0)"/>
     <use xlink:href="#TimesNewRomanPS-BoldMT-63" transform="translate(286.970703 0)"/>
     <use xlink:href="#TimesNewRomanPS-BoldMT-68" transform="translate(331.355469 0)"/>
     <use xlink:href="#TimesNewRomanPS-BoldMT-79" transform="translate(386.970703 0)"/>
    </g>
   </g>
  </g>
 </g>
 <defs>
  <clipPath id="p12a9ccb67c">
   <rect x="59.915" y="30.283125" width="601.917895" height="437.832656"/>
  </clipPath>
  <clipPath id="p0068795612">
   <rect x="59.915" y="529.575781" width="601.917895" height="145.944219"/>
  </clipPath>
 </defs>
</svg>
