<?xml version="1.0" encoding="utf-8" standalone="no"?>
<!DOCTYPE svg PUBLIC "-//W3C//DTD SVG 1.1//EN"
  "http://www.w3.org/Graphics/SVG/1.1/DTD/svg11.dtd">
<svg xmlns:xlink="http://www.w3.org/1999/xlink" width="720pt" height="720pt" viewBox="0 0 720 720" xmlns="http://www.w3.org/2000/svg" version="1.1">
 <metadata>
  <rdf:RDF xmlns:dc="http://purl.org/dc/elements/1.1/" xmlns:cc="http://creativecommons.org/ns#" xmlns:rdf="http://www.w3.org/1999/02/22-rdf-syntax-ns#">
   <cc:Work>
    <dc:type rdf:resource="http://purl.org/dc/dcmitype/StillImage"/>
    <dc:date>2025-06-26T16:47:20.190610</dc:date>
    <dc:format>image/svg+xml</dc:format>
    <dc:creator>
     <cc:Agent>
      <dc:title>Matplotlib v3.10.3, https://matplotlib.org/</dc:title>
     </cc:Agent>
    </dc:creator>
   </cc:Work>
  </rdf:RDF>
 </metadata>
 <defs>
  <style type="text/css">*{stroke-linejoin: round; stroke-linecap: butt}</style>
 </defs>
 <g id="figure_1">
  <g id="patch_1">
   <path d="M 0 720 
L 720 720 
L 720 0 
L 0 0 
z
" style="fill: #ffffff"/>
  </g>
  <g id="axes_1">
   <g id="patch_2">
    <path d="M 60.05 468.165 
L 669.251556 468.165 
L 669.251556 29.94 
L 60.05 29.94 
z
" style="fill: #ffffff"/>
   </g>
   <g id="FillBetweenPolyCollection_1">
    <path d="M 60.05 358.60875 
L 60.05 468.165 
L 62.420434 468.165 
L 64.790868 468.165 
L 67.161302 468.165 
L 69.531736 468.165 
L 71.90217 468.165 
L 74.272604 468.165 
L 76.643039 468.165 
L 79.013473 468.165 
L 81.383907 468.165 
L 83.754341 468.165 
L 86.124775 468.165 
L 88.495209 468.165 
L 90.865643 468.165 
L 93.236077 468.165 
L 95.606511 468.165 
L 97.976945 468.165 
L 100.347379 468.165 
L 102.717813 468.165 
L 105.088247 468.165 
L 107.458681 468.165 
L 109.829116 468.165 
L 112.19955 468.165 
L 114.569984 468.165 
L 116.940418 468.165 
L 119.310852 468.165 
L 121.681286 468.165 
L 124.05172 468.165 
L 126.422154 468.165 
L 128.792588 468.165 
L 131.163022 468.165 
L 133.533456 468.165 
L 135.90389 468.165 
L 138.274324 468.165 
L 140.644758 468.165 
L 143.015193 468.165 
L 145.385627 468.165 
L 147.756061 468.165 
L 150.126495 468.165 
L 152.496929 468.165 
L 154.867363 468.165 
L 157.237797 468.165 
L 159.608231 468.165 
L 161.978665 468.165 
L 164.349099 468.165 
L 166.719533 468.165 
L 169.089967 468.165 
L 171.460401 468.165 
L 173.830835 468.165 
L 176.20127 468.165 
L 178.571704 468.165 
L 180.942138 468.165 
L 183.312572 468.165 
L 185.683006 468.165 
L 188.05344 468.165 
L 190.423874 468.165 
L 192.794308 468.165 
L 195.164742 468.165 
L 197.535176 468.165 
L 199.90561 468.165 
L 202.276044 468.165 
L 204.646478 468.165 
L 207.016912 468.165 
L 209.387347 468.165 
L 211.757781 468.165 
L 214.128215 468.165 
L 216.498649 468.165 
L 218.869083 468.165 
L 221.239517 468.165 
L 223.609951 468.165 
L 225.980385 468.165 
L 228.350819 468.165 
L 230.721253 468.165 
L 233.091687 468.165 
L 235.462121 468.165 
L 237.832555 468.165 
L 240.202989 468.165 
L 242.573424 468.165 
L 244.943858 468.165 
L 247.314292 468.165 
L 249.684726 468.165 
L 252.05516 468.165 
L 254.425594 468.165 
L 256.796028 468.165 
L 259.166462 468.165 
L 261.536896 468.165 
L 263.90733 468.165 
L 266.277764 468.165 
L 268.648198 468.165 
L 271.018632 468.165 
L 273.389066 468.165 
L 275.759501 468.165 
L 278.129935 468.165 
L 280.500369 468.165 
L 282.870803 468.165 
L 285.241237 468.165 
L 287.611671 468.165 
L 289.982105 468.165 
L 292.352539 468.165 
L 294.722973 468.165 
L 297.093407 468.165 
L 299.463841 468.165 
L 301.834275 468.165 
L 304.204709 468.165 
L 306.575143 468.165 
L 308.945578 468.165 
L 311.316012 468.165 
L 313.686446 468.165 
L 316.05688 468.165 
L 318.427314 468.165 
L 320.797748 468.165 
L 323.168182 468.165 
L 325.538616 468.165 
L 327.90905 468.165 
L 330.279484 468.165 
L 332.649918 468.165 
L 335.020352 468.165 
L 337.390786 468.165 
L 339.76122 468.165 
L 342.131655 468.165 
L 344.502089 468.165 
L 346.872523 468.165 
L 349.242957 468.165 
L 351.613391 468.165 
L 353.983825 468.165 
L 356.354259 468.165 
L 358.724693 468.165 
L 361.095127 468.165 
L 363.465561 468.165 
L 365.835995 468.165 
L 368.206429 468.165 
L 370.576863 468.165 
L 372.947297 468.165 
L 375.317732 468.165 
L 377.688166 468.165 
L 380.0586 468.165 
L 382.429034 468.165 
L 384.799468 468.165 
L 387.169902 468.165 
L 389.540336 468.165 
L 391.91077 468.165 
L 394.281204 468.165 
L 396.651638 468.165 
L 399.022072 468.165 
L 401.392506 468.165 
L 403.76294 468.165 
L 406.133374 468.165 
L 408.503809 468.165 
L 410.874243 468.165 
L 413.244677 468.165 
L 415.615111 468.165 
L 417.985545 468.165 
L 420.355979 468.165 
L 422.726413 468.165 
L 425.096847 468.165 
L 427.467281 468.165 
L 429.837715 468.165 
L 432.208149 468.165 
L 434.578583 468.165 
L 436.949017 468.165 
L 439.319451 468.165 
L 441.689886 468.165 
L 444.06032 468.165 
L 446.430754 468.165 
L 448.801188 468.165 
L 451.171622 468.165 
L 453.542056 468.165 
L 455.91249 468.165 
L 458.282924 468.165 
L 460.653358 468.165 
L 463.023792 468.165 
L 465.394226 468.165 
L 467.76466 468.165 
L 470.135094 468.165 
L 472.505528 468.165 
L 474.875963 468.165 
L 477.246397 468.165 
L 479.616831 468.165 
L 481.987265 468.165 
L 484.357699 468.165 
L 486.728133 468.165 
L 489.098567 468.165 
L 491.469001 468.165 
L 493.839435 468.165 
L 496.209869 468.165 
L 498.580303 468.165 
L 500.950737 468.165 
L 503.321171 468.165 
L 505.691605 468.165 
L 508.06204 468.165 
L 510.432474 468.165 
L 512.802908 468.165 
L 515.173342 468.165 
L 517.543776 468.165 
L 519.91421 468.165 
L 522.284644 468.165 
L 524.655078 468.165 
L 527.025512 468.165 
L 529.395946 468.165 
L 531.76638 468.165 
L 534.136814 468.165 
L 536.507248 468.165 
L 538.877682 468.165 
L 541.248117 468.165 
L 543.618551 468.165 
L 545.988985 468.165 
L 548.359419 468.165 
L 550.729853 468.165 
L 553.100287 468.165 
L 555.470721 468.165 
L 557.841155 468.165 
L 560.211589 468.165 
L 562.582023 468.165 
L 564.952457 468.165 
L 567.322891 468.165 
L 569.693325 468.165 
L 572.063759 468.165 
L 574.434194 468.165 
L 576.804628 468.165 
L 579.175062 468.165 
L 581.545496 468.165 
L 583.91593 468.165 
L 586.286364 468.165 
L 588.656798 468.165 
L 591.027232 468.165 
L 593.397666 468.165 
L 595.7681 468.165 
L 598.138534 468.165 
L 600.508968 468.165 
L 602.879402 468.165 
L 605.249836 468.165 
L 607.620271 468.165 
L 609.990705 468.165 
L 612.361139 468.165 
L 614.731573 468.165 
L 617.102007 468.165 
L 619.472441 468.165 
L 621.842875 468.165 
L 624.213309 468.165 
L 626.583743 468.165 
L 628.954177 468.165 
L 631.324611 468.165 
L 633.695045 468.165 
L 636.065479 468.165 
L 638.435913 468.165 
L 640.806348 468.165 
L 643.176782 468.165 
L 645.547216 468.165 
L 647.91765 468.165 
L 650.288084 468.165 
L 652.658518 468.165 
L 655.028952 468.165 
L 657.399386 468.165 
L 659.76982 468.165 
L 662.140254 468.165 
L 664.510688 468.165 
L 666.881122 468.165 
L 669.251556 468.165 
L 669.251556 249.0525 
L 669.251556 249.0525 
L 666.881122 468.165 
L 664.510688 29.94 
L 662.140254 29.94 
L 659.76982 84.718125 
L 657.399386 29.94 
L 655.028952 176.015 
L 652.658518 249.0525 
L 650.288084 102.9775 
L 647.91765 176.015 
L 645.547216 92.543571 
L 643.176782 176.015 
L 640.806348 29.94 
L 638.435913 29.94 
L 636.065479 87.099783 
L 633.695045 29.94 
L 631.324611 29.94 
L 628.954177 29.94 
L 626.583743 122.197895 
L 624.213309 29.94 
L 621.842875 29.94 
L 619.472441 127.323333 
L 617.102007 29.94 
L 614.731573 29.94 
L 612.361139 468.165 
L 609.990705 139.49625 
L 607.620271 29.94 
L 605.249836 66.45875 
L 602.879402 29.94 
L 600.508968 29.94 
L 598.138534 139.49625 
L 595.7681 176.015 
L 593.397666 29.94 
L 591.027232 29.94 
L 588.656798 29.94 
L 586.286364 29.94 
L 583.91593 176.015 
L 581.545496 29.94 
L 579.175062 69.778636 
L 576.804628 155.147143 
L 574.434194 92.543571 
L 572.063759 468.165 
L 569.693325 92.543571 
L 567.322891 249.0525 
L 564.952457 29.94 
L 562.582023 249.0525 
L 560.211589 29.94 
L 557.841155 164.778462 
L 555.470721 249.0525 
L 553.100287 29.94 
L 550.729853 29.94 
L 548.359419 249.0525 
L 545.988985 29.94 
L 543.618551 29.94 
L 541.248117 29.94 
L 538.877682 176.015 
L 536.507248 217.750714 
L 534.136814 292.875 
L 531.76638 249.0525 
L 529.395946 29.94 
L 527.025512 131.068846 
L 524.655078 468.165 
L 522.284644 102.9775 
L 519.91421 82.527 
L 517.543776 61.241786 
L 515.173342 468.165 
L 512.802908 205.23 
L 510.432474 29.94 
L 508.06204 468.165 
L 505.691605 249.0525 
L 503.321171 29.94 
L 500.950737 29.94 
L 498.580303 29.94 
L 496.209869 29.94 
L 493.839435 29.94 
L 491.469001 342.957857 
L 489.098567 29.94 
L 486.728133 117.585 
L 484.357699 29.94 
L 481.987265 155.147143 
L 479.616831 29.94 
L 477.246397 176.015 
L 474.875963 102.9775 
L 472.505528 205.23 
L 470.135094 468.165 
L 467.76466 249.0525 
L 465.394226 29.94 
L 463.023792 139.49625 
L 460.653358 29.94 
L 458.282924 29.94 
L 455.91249 249.0525 
L 453.542056 176.015 
L 451.171622 29.94 
L 448.801188 73.7625 
L 446.430754 29.94 
L 444.06032 29.94 
L 441.689886 29.94 
L 439.319451 152.235349 
L 436.949017 161.4075 
L 434.578583 129.536591 
L 432.208149 249.0525 
L 429.837715 322.09 
L 427.467281 249.0525 
L 425.096847 249.0525 
L 422.726413 249.0525 
L 420.355979 73.7625 
L 417.985545 249.0525 
L 415.615111 191.391316 
L 413.244677 249.0525 
L 410.874243 217.750714 
L 408.503809 127.323333 
L 406.133374 29.94 
L 403.76294 29.94 
L 401.392506 176.015 
L 399.022072 139.49625 
L 396.651638 176.015 
L 394.281204 173.033878 
L 391.91077 194.274375 
L 389.540336 197.496618 
L 387.169902 176.015 
L 384.799468 161.4075 
L 382.429034 289.628889 
L 380.0586 29.94 
L 377.688166 176.015 
L 375.317732 92.543571 
L 372.947297 84.718125 
L 370.576863 205.23 
L 368.206429 155.147143 
L 365.835995 176.015 
L 363.465561 170.798036 
L 361.095127 311.656071 
L 358.724693 205.23 
L 356.354259 205.23 
L 353.983825 163.842083 
L 351.613391 168.326842 
L 349.242957 155.147143 
L 346.872523 231.5235 
L 344.502089 195.754865 
L 342.131655 237.520263 
L 339.76122 133.051765 
L 337.390786 292.875 
L 335.020352 249.0525 
L 332.649918 176.015 
L 330.279484 107.273824 
L 327.90905 84.718125 
L 325.538616 205.23 
L 323.168182 234.445 
L 320.797748 249.0525 
L 318.427314 29.94 
L 316.05688 196.882857 
L 313.686446 139.49625 
L 311.316012 156.794605 
L 308.945578 358.60875 
L 306.575143 224.706667 
L 304.204709 212.53375 
L 301.834275 234.445 
L 299.463841 117.585 
L 297.093407 468.165 
L 294.722973 29.94 
L 292.352539 205.23 
L 289.982105 261.941471 
L 287.611671 155.147143 
L 285.241237 176.015 
L 282.870803 194.274375 
L 280.500369 322.09 
L 278.129935 131.068846 
L 275.759501 232.197692 
L 273.389066 29.94 
L 271.018632 380.52 
L 268.648198 468.165 
L 266.277764 176.015 
L 263.90733 209.213864 
L 261.536896 280.354286 
L 259.166462 144.259565 
L 256.796028 112.107187 
L 254.425594 239.52587 
L 252.05516 200.360833 
L 249.684726 189.294545 
L 247.314292 29.94 
L 244.943858 395.1275 
L 242.573424 176.015 
L 240.202989 468.165 
L 237.832555 29.94 
L 235.462121 249.0525 
L 233.091687 192.245556 
L 230.721253 202.923553 
L 228.350819 229.133182 
L 225.980385 273.398333 
L 223.609951 292.875 
L 221.239517 380.52 
L 218.869083 273.398333 
L 216.498649 273.398333 
L 214.128215 176.015 
L 211.757781 188.187917 
L 209.387347 149.455909 
L 207.016912 29.94 
L 204.646478 280.354286 
L 202.276044 322.09 
L 199.90561 292.875 
L 197.535176 249.0525 
L 195.164742 230.793125 
L 192.794308 249.0525 
L 190.423874 205.23 
L 188.05344 292.875 
L 185.683006 223.056102 
L 183.312572 194.274375 
L 180.942138 176.015 
L 178.571704 292.875 
L 176.20127 249.0525 
L 173.830835 322.09 
L 171.460401 194.274375 
L 169.089967 468.165 
L 166.719533 303.830625 
L 164.349099 395.1275 
L 161.978665 273.398333 
L 159.608231 380.52 
L 157.237797 388.487727 
L 154.867363 380.52 
L 152.496929 240.288 
L 150.126495 249.0525 
L 147.756061 249.0525 
L 145.385627 260.584737 
L 143.015193 249.0525 
L 140.644758 468.165 
L 138.274324 468.165 
L 135.90389 468.165 
L 133.533456 468.165 
L 131.163022 468.165 
L 128.792588 468.165 
L 126.422154 273.398333 
L 124.05172 249.0525 
L 121.681286 468.165 
L 119.310852 468.165 
L 116.940418 468.165 
L 114.569984 358.60875 
L 112.19955 468.165 
L 109.829116 164.778462 
L 107.458681 468.165 
L 105.088247 249.0525 
L 102.717813 358.60875 
L 100.347379 299.616923 
L 97.976945 292.875 
L 95.606511 308.810455 
L 93.236077 224.706667 
L 90.865643 348.649091 
L 88.495209 468.165 
L 86.124775 292.875 
L 83.754341 375.907105 
L 81.383907 358.60875 
L 79.013473 358.60875 
L 76.643039 336.6975 
L 74.272604 313.497353 
L 71.90217 358.60875 
L 69.531736 395.1275 
L 67.161302 468.165 
L 64.790868 222.759 
L 62.420434 176.015 
L 60.05 358.60875 
z
" clip-path="url(#p6d5a5b94dd)" style="fill: #5386b6"/>
   </g>
   <g id="FillBetweenPolyCollection_2">
    <path d="M 60.05 29.94 
L 60.05 358.60875 
L 62.420434 176.015 
L 64.790868 222.759 
L 67.161302 468.165 
L 69.531736 395.1275 
L 71.90217 358.60875 
L 74.272604 313.497353 
L 76.643039 336.6975 
L 79.013473 358.60875 
L 81.383907 358.60875 
L 83.754341 375.907105 
L 86.124775 292.875 
L 88.495209 468.165 
L 90.865643 348.649091 
L 93.236077 224.706667 
L 95.606511 308.810455 
L 97.976945 292.875 
L 100.347379 299.616923 
L 102.717813 358.60875 
L 105.088247 249.0525 
L 107.458681 468.165 
L 109.829116 164.778462 
L 112.19955 468.165 
L 114.569984 358.60875 
L 116.940418 468.165 
L 119.310852 468.165 
L 121.681286 468.165 
L 124.05172 249.0525 
L 126.422154 273.398333 
L 128.792588 468.165 
L 131.163022 468.165 
L 133.533456 468.165 
L 135.90389 468.165 
L 138.274324 468.165 
L 140.644758 468.165 
L 143.015193 249.0525 
L 145.385627 260.584737 
L 147.756061 249.0525 
L 150.126495 249.0525 
L 152.496929 240.288 
L 154.867363 380.52 
L 157.237797 388.487727 
L 159.608231 380.52 
L 161.978665 273.398333 
L 164.349099 395.1275 
L 166.719533 303.830625 
L 169.089967 468.165 
L 171.460401 194.274375 
L 173.830835 322.09 
L 176.20127 249.0525 
L 178.571704 292.875 
L 180.942138 176.015 
L 183.312572 194.274375 
L 185.683006 223.056102 
L 188.05344 292.875 
L 190.423874 205.23 
L 192.794308 249.0525 
L 195.164742 230.793125 
L 197.535176 249.0525 
L 199.90561 292.875 
L 202.276044 322.09 
L 204.646478 280.354286 
L 207.016912 29.94 
L 209.387347 149.455909 
L 211.757781 188.187917 
L 214.128215 176.015 
L 216.498649 273.398333 
L 218.869083 273.398333 
L 221.239517 380.52 
L 223.609951 292.875 
L 225.980385 273.398333 
L 228.350819 229.133182 
L 230.721253 202.923553 
L 233.091687 192.245556 
L 235.462121 249.0525 
L 237.832555 29.94 
L 240.202989 468.165 
L 242.573424 176.015 
L 244.943858 395.1275 
L 247.314292 29.94 
L 249.684726 189.294545 
L 252.05516 200.360833 
L 254.425594 239.52587 
L 256.796028 112.107187 
L 259.166462 144.259565 
L 261.536896 280.354286 
L 263.90733 209.213864 
L 266.277764 176.015 
L 268.648198 468.165 
L 271.018632 380.52 
L 273.389066 29.94 
L 275.759501 232.197692 
L 278.129935 131.068846 
L 280.500369 322.09 
L 282.870803 194.274375 
L 285.241237 176.015 
L 287.611671 155.147143 
L 289.982105 261.941471 
L 292.352539 205.23 
L 294.722973 29.94 
L 297.093407 468.165 
L 299.463841 117.585 
L 301.834275 234.445 
L 304.204709 212.53375 
L 306.575143 224.706667 
L 308.945578 358.60875 
L 311.316012 156.794605 
L 313.686446 139.49625 
L 316.05688 196.882857 
L 318.427314 29.94 
L 320.797748 249.0525 
L 323.168182 234.445 
L 325.538616 205.23 
L 327.90905 84.718125 
L 330.279484 107.273824 
L 332.649918 176.015 
L 335.020352 249.0525 
L 337.390786 292.875 
L 339.76122 133.051765 
L 342.131655 237.520263 
L 344.502089 195.754865 
L 346.872523 231.5235 
L 349.242957 155.147143 
L 351.613391 168.326842 
L 353.983825 163.842083 
L 356.354259 205.23 
L 358.724693 205.23 
L 361.095127 311.656071 
L 363.465561 170.798036 
L 365.835995 176.015 
L 368.206429 155.147143 
L 370.576863 205.23 
L 372.947297 84.718125 
L 375.317732 92.543571 
L 377.688166 176.015 
L 380.0586 29.94 
L 382.429034 289.628889 
L 384.799468 161.4075 
L 387.169902 176.015 
L 389.540336 197.496618 
L 391.91077 194.274375 
L 394.281204 173.033878 
L 396.651638 176.015 
L 399.022072 139.49625 
L 401.392506 176.015 
L 403.76294 29.94 
L 406.133374 29.94 
L 408.503809 127.323333 
L 410.874243 217.750714 
L 413.244677 249.0525 
L 415.615111 191.391316 
L 417.985545 249.0525 
L 420.355979 73.7625 
L 422.726413 249.0525 
L 425.096847 249.0525 
L 427.467281 249.0525 
L 429.837715 322.09 
L 432.208149 249.0525 
L 434.578583 129.536591 
L 436.949017 161.4075 
L 439.319451 152.235349 
L 441.689886 29.94 
L 444.06032 29.94 
L 446.430754 29.94 
L 448.801188 73.7625 
L 451.171622 29.94 
L 453.542056 176.015 
L 455.91249 249.0525 
L 458.282924 29.94 
L 460.653358 29.94 
L 463.023792 139.49625 
L 465.394226 29.94 
L 467.76466 249.0525 
L 470.135094 468.165 
L 472.505528 205.23 
L 474.875963 102.9775 
L 477.246397 176.015 
L 479.616831 29.94 
L 481.987265 155.147143 
L 484.357699 29.94 
L 486.728133 117.585 
L 489.098567 29.94 
L 491.469001 342.957857 
L 493.839435 29.94 
L 496.209869 29.94 
L 498.580303 29.94 
L 500.950737 29.94 
L 503.321171 29.94 
L 505.691605 249.0525 
L 508.06204 468.165 
L 510.432474 29.94 
L 512.802908 205.23 
L 515.173342 468.165 
L 517.543776 61.241786 
L 519.91421 82.527 
L 522.284644 102.9775 
L 524.655078 468.165 
L 527.025512 131.068846 
L 529.395946 29.94 
L 531.76638 249.0525 
L 534.136814 292.875 
L 536.507248 217.750714 
L 538.877682 176.015 
L 541.248117 29.94 
L 543.618551 29.94 
L 545.988985 29.94 
L 548.359419 249.0525 
L 550.729853 29.94 
L 553.100287 29.94 
L 555.470721 249.0525 
L 557.841155 164.778462 
L 560.211589 29.94 
L 562.582023 249.0525 
L 564.952457 29.94 
L 567.322891 249.0525 
L 569.693325 92.543571 
L 572.063759 468.165 
L 574.434194 92.543571 
L 576.804628 155.147143 
L 579.175062 69.778636 
L 581.545496 29.94 
L 583.91593 176.015 
L 586.286364 29.94 
L 588.656798 29.94 
L 591.027232 29.94 
L 593.397666 29.94 
L 595.7681 176.015 
L 598.138534 139.49625 
L 600.508968 29.94 
L 602.879402 29.94 
L 605.249836 66.45875 
L 607.620271 29.94 
L 609.990705 139.49625 
L 612.361139 468.165 
L 614.731573 29.94 
L 617.102007 29.94 
L 619.472441 127.323333 
L 621.842875 29.94 
L 624.213309 29.94 
L 626.583743 122.197895 
L 628.954177 29.94 
L 631.324611 29.94 
L 633.695045 29.94 
L 636.065479 87.099783 
L 638.435913 29.94 
L 640.806348 29.94 
L 643.176782 176.015 
L 645.547216 92.543571 
L 647.91765 176.015 
L 650.288084 102.9775 
L 652.658518 249.0525 
L 655.028952 176.015 
L 657.399386 29.94 
L 659.76982 84.718125 
L 662.140254 29.94 
L 664.510688 29.94 
L 666.881122 468.165 
L 669.251556 249.0525 
L 669.251556 29.94 
L 669.251556 29.94 
L 666.881122 468.165 
L 664.510688 29.94 
L 662.140254 29.94 
L 659.76982 29.94 
L 657.399386 29.94 
L 655.028952 29.94 
L 652.658518 29.94 
L 650.288084 29.94 
L 647.91765 29.94 
L 645.547216 29.94 
L 643.176782 102.9775 
L 640.806348 29.94 
L 638.435913 29.94 
L 636.065479 48.993261 
L 633.695045 29.94 
L 631.324611 29.94 
L 628.954177 29.94 
L 626.583743 29.94 
L 624.213309 29.94 
L 621.842875 29.94 
L 619.472441 29.94 
L 617.102007 29.94 
L 614.731573 29.94 
L 612.361139 468.165 
L 609.990705 29.94 
L 607.620271 29.94 
L 605.249836 29.94 
L 602.879402 29.94 
L 600.508968 29.94 
L 598.138534 29.94 
L 595.7681 29.94 
L 593.397666 29.94 
L 591.027232 29.94 
L 588.656798 29.94 
L 586.286364 29.94 
L 583.91593 29.94 
L 581.545496 29.94 
L 579.175062 29.94 
L 576.804628 29.94 
L 574.434194 29.94 
L 572.063759 29.94 
L 569.693325 29.94 
L 567.322891 29.94 
L 564.952457 29.94 
L 562.582023 29.94 
L 560.211589 29.94 
L 557.841155 29.94 
L 555.470721 249.0525 
L 553.100287 29.94 
L 550.729853 29.94 
L 548.359419 29.94 
L 545.988985 29.94 
L 543.618551 29.94 
L 541.248117 29.94 
L 538.877682 29.94 
L 536.507248 92.543571 
L 534.136814 29.94 
L 531.76638 29.94 
L 529.395946 29.94 
L 527.025512 63.649615 
L 524.655078 29.94 
L 522.284644 29.94 
L 519.91421 47.469 
L 517.543776 29.94 
L 515.173342 468.165 
L 512.802908 29.94 
L 510.432474 29.94 
L 508.06204 29.94 
L 505.691605 29.94 
L 503.321171 29.94 
L 500.950737 29.94 
L 498.580303 29.94 
L 496.209869 29.94 
L 493.839435 29.94 
L 491.469001 29.94 
L 489.098567 29.94 
L 486.728133 117.585 
L 484.357699 29.94 
L 481.987265 29.94 
L 479.616831 29.94 
L 477.246397 78.631667 
L 474.875963 29.94 
L 472.505528 117.585 
L 470.135094 29.94 
L 467.76466 29.94 
L 465.394226 29.94 
L 463.023792 84.718125 
L 460.653358 29.94 
L 458.282924 29.94 
L 455.91249 29.94 
L 453.542056 29.94 
L 451.171622 29.94 
L 448.801188 29.94 
L 446.430754 29.94 
L 444.06032 29.94 
L 441.689886 29.94 
L 439.319451 70.705116 
L 436.949017 29.94 
L 434.578583 36.579773 
L 432.208149 29.94 
L 429.837715 29.94 
L 427.467281 29.94 
L 425.096847 29.94 
L 422.726413 249.0525 
L 420.355979 29.94 
L 417.985545 29.94 
L 415.615111 76.068947 
L 413.244677 29.94 
L 410.874243 29.94 
L 408.503809 78.631667 
L 406.133374 29.94 
L 403.76294 29.94 
L 401.392506 50.807857 
L 399.022072 29.94 
L 396.651638 117.585 
L 394.281204 38.883367 
L 391.91077 37.765446 
L 389.540336 29.94 
L 387.169902 29.94 
L 384.799468 29.94 
L 382.429034 46.170556 
L 380.0586 29.94 
L 377.688166 29.94 
L 375.317732 29.94 
L 372.947297 29.94 
L 370.576863 54.981429 
L 368.206429 29.94 
L 365.835995 59.155 
L 363.465561 29.94 
L 361.095127 61.241786 
L 358.724693 29.94 
L 356.354259 29.94 
L 353.983825 42.112917 
L 351.613391 29.94 
L 349.242957 29.94 
L 346.872523 29.94 
L 344.502089 29.94 
L 342.131655 53.004474 
L 339.76122 29.94 
L 337.390786 29.94 
L 335.020352 29.94 
L 332.649918 29.94 
L 330.279484 29.94 
L 327.90905 29.94 
L 325.538616 29.94 
L 323.168182 29.94 
L 320.797748 29.94 
L 318.427314 29.94 
L 316.05688 71.675714 
L 313.686446 29.94 
L 311.316012 41.472237 
L 308.945578 139.49625 
L 306.575143 78.631667 
L 304.204709 29.94 
L 301.834275 88.37 
L 299.463841 29.94 
L 297.093407 468.165 
L 294.722973 29.94 
L 292.352539 29.94 
L 289.982105 55.717941 
L 287.611671 29.94 
L 285.241237 29.94 
L 282.870803 57.329062 
L 280.500369 29.94 
L 278.129935 29.94 
L 275.759501 29.94 
L 273.389066 29.94 
L 271.018632 29.94 
L 268.648198 29.94 
L 266.277764 29.94 
L 263.90733 29.94 
L 261.536896 92.543571 
L 259.166462 29.94 
L 256.796028 29.94 
L 254.425594 42.642174 
L 252.05516 29.94 
L 249.684726 69.778636 
L 247.314292 29.94 
L 244.943858 29.94 
L 242.573424 29.94 
L 240.202989 29.94 
L 237.832555 29.94 
L 235.462121 29.94 
L 233.091687 46.170556 
L 230.721253 41.472237 
L 228.350819 29.94 
L 225.980385 29.94 
L 223.609951 29.94 
L 221.239517 29.94 
L 218.869083 29.94 
L 216.498649 29.94 
L 214.128215 102.9775 
L 211.757781 29.94 
L 209.387347 29.94 
L 207.016912 29.94 
L 204.646478 29.94 
L 202.276044 29.94 
L 199.90561 29.94 
L 197.535176 57.329062 
L 195.164742 29.94 
L 192.794308 29.94 
L 190.423874 29.94 
L 188.05344 29.94 
L 185.683006 37.367542 
L 183.312572 29.94 
L 180.942138 29.94 
L 178.571704 29.94 
L 176.20127 29.94 
L 173.830835 29.94 
L 171.460401 29.94 
L 169.089967 29.94 
L 166.719533 29.94 
L 164.349099 102.9775 
L 161.978665 29.94 
L 159.608231 117.585 
L 157.237797 109.617273 
L 154.867363 29.94 
L 152.496929 29.94 
L 150.126495 29.94 
L 147.756061 29.94 
L 145.385627 29.94 
L 143.015193 117.585 
L 140.644758 139.49625 
L 138.274324 29.94 
L 135.90389 29.94 
L 133.533456 29.94 
L 131.163022 29.94 
L 128.792588 29.94 
L 126.422154 29.94 
L 124.05172 29.94 
L 121.681286 29.94 
L 119.310852 29.94 
L 116.940418 468.165 
L 114.569984 29.94 
L 112.19955 468.165 
L 109.829116 29.94 
L 107.458681 29.94 
L 105.088247 29.94 
L 102.717813 29.94 
L 100.347379 46.794808 
L 97.976945 29.94 
L 95.606511 109.617273 
L 93.236077 78.631667 
L 90.865643 109.617273 
L 88.495209 29.94 
L 86.124775 117.585 
L 83.754341 53.004474 
L 81.383907 29.94 
L 79.013473 29.94 
L 76.643039 73.7625 
L 74.272604 29.94 
L 71.90217 29.94 
L 69.531736 29.94 
L 67.161302 29.94 
L 64.790868 29.94 
L 62.420434 29.94 
L 60.05 29.94 
z
" clip-path="url(#p6d5a5b94dd)" style="fill: #d57459"/>
   </g>
   <g id="FillBetweenPolyCollection_3">
    <path d="M 60.05 29.94 
L 60.05 29.94 
L 62.420434 29.94 
L 64.790868 29.94 
L 67.161302 29.94 
L 69.531736 29.94 
L 71.90217 29.94 
L 74.272604 29.94 
L 76.643039 73.7625 
L 79.013473 29.94 
L 81.383907 29.94 
L 83.754341 53.004474 
L 86.124775 117.585 
L 88.495209 29.94 
L 90.865643 109.617273 
L 93.236077 78.631667 
L 95.606511 109.617273 
L 97.976945 29.94 
L 100.347379 46.794808 
L 102.717813 29.94 
L 105.088247 29.94 
L 107.458681 29.94 
L 109.829116 29.94 
L 112.19955 468.165 
L 114.569984 29.94 
L 116.940418 468.165 
L 119.310852 29.94 
L 121.681286 29.94 
L 124.05172 29.94 
L 126.422154 29.94 
L 128.792588 29.94 
L 131.163022 29.94 
L 133.533456 29.94 
L 135.90389 29.94 
L 138.274324 29.94 
L 140.644758 139.49625 
L 143.015193 117.585 
L 145.385627 29.94 
L 147.756061 29.94 
L 150.126495 29.94 
L 152.496929 29.94 
L 154.867363 29.94 
L 157.237797 109.617273 
L 159.608231 117.585 
L 161.978665 29.94 
L 164.349099 102.9775 
L 166.719533 29.94 
L 169.089967 29.94 
L 171.460401 29.94 
L 173.830835 29.94 
L 176.20127 29.94 
L 178.571704 29.94 
L 180.942138 29.94 
L 183.312572 29.94 
L 185.683006 37.367542 
L 188.05344 29.94 
L 190.423874 29.94 
L 192.794308 29.94 
L 195.164742 29.94 
L 197.535176 57.329062 
L 199.90561 29.94 
L 202.276044 29.94 
L 204.646478 29.94 
L 207.016912 29.94 
L 209.387347 29.94 
L 211.757781 29.94 
L 214.128215 102.9775 
L 216.498649 29.94 
L 218.869083 29.94 
L 221.239517 29.94 
L 223.609951 29.94 
L 225.980385 29.94 
L 228.350819 29.94 
L 230.721253 41.472237 
L 233.091687 46.170556 
L 235.462121 29.94 
L 237.832555 29.94 
L 240.202989 29.94 
L 242.573424 29.94 
L 244.943858 29.94 
L 247.314292 29.94 
L 249.684726 69.778636 
L 252.05516 29.94 
L 254.425594 42.642174 
L 256.796028 29.94 
L 259.166462 29.94 
L 261.536896 92.543571 
L 263.90733 29.94 
L 266.277764 29.94 
L 268.648198 29.94 
L 271.018632 29.94 
L 273.389066 29.94 
L 275.759501 29.94 
L 278.129935 29.94 
L 280.500369 29.94 
L 282.870803 57.329062 
L 285.241237 29.94 
L 287.611671 29.94 
L 289.982105 55.717941 
L 292.352539 29.94 
L 294.722973 29.94 
L 297.093407 468.165 
L 299.463841 29.94 
L 301.834275 88.37 
L 304.204709 29.94 
L 306.575143 78.631667 
L 308.945578 139.49625 
L 311.316012 41.472237 
L 313.686446 29.94 
L 316.05688 71.675714 
L 318.427314 29.94 
L 320.797748 29.94 
L 323.168182 29.94 
L 325.538616 29.94 
L 327.90905 29.94 
L 330.279484 29.94 
L 332.649918 29.94 
L 335.020352 29.94 
L 337.390786 29.94 
L 339.76122 29.94 
L 342.131655 53.004474 
L 344.502089 29.94 
L 346.872523 29.94 
L 349.242957 29.94 
L 351.613391 29.94 
L 353.983825 42.112917 
L 356.354259 29.94 
L 358.724693 29.94 
L 361.095127 61.241786 
L 363.465561 29.94 
L 365.835995 59.155 
L 368.206429 29.94 
L 370.576863 54.981429 
L 372.947297 29.94 
L 375.317732 29.94 
L 377.688166 29.94 
L 380.0586 29.94 
L 382.429034 46.170556 
L 384.799468 29.94 
L 387.169902 29.94 
L 389.540336 29.94 
L 391.91077 37.765446 
L 394.281204 38.883367 
L 396.651638 117.585 
L 399.022072 29.94 
L 401.392506 50.807857 
L 403.76294 29.94 
L 406.133374 29.94 
L 408.503809 78.631667 
L 410.874243 29.94 
L 413.244677 29.94 
L 415.615111 76.068947 
L 417.985545 29.94 
L 420.355979 29.94 
L 422.726413 249.0525 
L 425.096847 29.94 
L 427.467281 29.94 
L 429.837715 29.94 
L 432.208149 29.94 
L 434.578583 36.579773 
L 436.949017 29.94 
L 439.319451 70.705116 
L 441.689886 29.94 
L 444.06032 29.94 
L 446.430754 29.94 
L 448.801188 29.94 
L 451.171622 29.94 
L 453.542056 29.94 
L 455.91249 29.94 
L 458.282924 29.94 
L 460.653358 29.94 
L 463.023792 84.718125 
L 465.394226 29.94 
L 467.76466 29.94 
L 470.135094 29.94 
L 472.505528 117.585 
L 474.875963 29.94 
L 477.246397 78.631667 
L 479.616831 29.94 
L 481.987265 29.94 
L 484.357699 29.94 
L 486.728133 117.585 
L 489.098567 29.94 
L 491.469001 29.94 
L 493.839435 29.94 
L 496.209869 29.94 
L 498.580303 29.94 
L 500.950737 29.94 
L 503.321171 29.94 
L 505.691605 29.94 
L 508.06204 29.94 
L 510.432474 29.94 
L 512.802908 29.94 
L 515.173342 468.165 
L 517.543776 29.94 
L 519.91421 47.469 
L 522.284644 29.94 
L 524.655078 29.94 
L 527.025512 63.649615 
L 529.395946 29.94 
L 531.76638 29.94 
L 534.136814 29.94 
L 536.507248 92.543571 
L 538.877682 29.94 
L 541.248117 29.94 
L 543.618551 29.94 
L 545.988985 29.94 
L 548.359419 29.94 
L 550.729853 29.94 
L 553.100287 29.94 
L 555.470721 249.0525 
L 557.841155 29.94 
L 560.211589 29.94 
L 562.582023 29.94 
L 564.952457 29.94 
L 567.322891 29.94 
L 569.693325 29.94 
L 572.063759 29.94 
L 574.434194 29.94 
L 576.804628 29.94 
L 579.175062 29.94 
L 581.545496 29.94 
L 583.91593 29.94 
L 586.286364 29.94 
L 588.656798 29.94 
L 591.027232 29.94 
L 593.397666 29.94 
L 595.7681 29.94 
L 598.138534 29.94 
L 600.508968 29.94 
L 602.879402 29.94 
L 605.249836 29.94 
L 607.620271 29.94 
L 609.990705 29.94 
L 612.361139 468.165 
L 614.731573 29.94 
L 617.102007 29.94 
L 619.472441 29.94 
L 621.842875 29.94 
L 624.213309 29.94 
L 626.583743 29.94 
L 628.954177 29.94 
L 631.324611 29.94 
L 633.695045 29.94 
L 636.065479 48.993261 
L 638.435913 29.94 
L 640.806348 29.94 
L 643.176782 102.9775 
L 645.547216 29.94 
L 647.91765 29.94 
L 650.288084 29.94 
L 652.658518 29.94 
L 655.028952 29.94 
L 657.399386 29.94 
L 659.76982 29.94 
L 662.140254 29.94 
L 664.510688 29.94 
L 666.881122 468.165 
L 669.251556 29.94 
L 669.251556 29.94 
L 669.251556 29.94 
L 666.881122 29.94 
L 664.510688 29.94 
L 662.140254 29.94 
L 659.76982 29.94 
L 657.399386 29.94 
L 655.028952 29.94 
L 652.658518 29.94 
L 650.288084 29.94 
L 647.91765 29.94 
L 645.547216 29.94 
L 643.176782 102.9775 
L 640.806348 29.94 
L 638.435913 29.94 
L 636.065479 29.94 
L 633.695045 29.94 
L 631.324611 29.94 
L 628.954177 29.94 
L 626.583743 29.94 
L 624.213309 29.94 
L 621.842875 29.94 
L 619.472441 29.94 
L 617.102007 29.94 
L 614.731573 29.94 
L 612.361139 468.165 
L 609.990705 29.94 
L 607.620271 29.94 
L 605.249836 29.94 
L 602.879402 29.94 
L 600.508968 29.94 
L 598.138534 29.94 
L 595.7681 29.94 
L 593.397666 29.94 
L 591.027232 29.94 
L 588.656798 29.94 
L 586.286364 29.94 
L 583.91593 29.94 
L 581.545496 29.94 
L 579.175062 29.94 
L 576.804628 29.94 
L 574.434194 29.94 
L 572.063759 29.94 
L 569.693325 29.94 
L 567.322891 29.94 
L 564.952457 29.94 
L 562.582023 29.94 
L 560.211589 29.94 
L 557.841155 29.94 
L 555.470721 29.94 
L 553.100287 29.94 
L 550.729853 29.94 
L 548.359419 29.94 
L 545.988985 29.94 
L 543.618551 29.94 
L 541.248117 29.94 
L 538.877682 29.94 
L 536.507248 29.94 
L 534.136814 29.94 
L 531.76638 29.94 
L 529.395946 29.94 
L 527.025512 63.649615 
L 524.655078 29.94 
L 522.284644 29.94 
L 519.91421 47.469 
L 517.543776 29.94 
L 515.173342 468.165 
L 512.802908 29.94 
L 510.432474 29.94 
L 508.06204 29.94 
L 505.691605 29.94 
L 503.321171 29.94 
L 500.950737 29.94 
L 498.580303 29.94 
L 496.209869 29.94 
L 493.839435 29.94 
L 491.469001 29.94 
L 489.098567 29.94 
L 486.728133 29.94 
L 484.357699 29.94 
L 481.987265 29.94 
L 479.616831 29.94 
L 477.246397 78.631667 
L 474.875963 29.94 
L 472.505528 29.94 
L 470.135094 29.94 
L 467.76466 29.94 
L 465.394226 29.94 
L 463.023792 29.94 
L 460.653358 29.94 
L 458.282924 29.94 
L 455.91249 29.94 
L 453.542056 29.94 
L 451.171622 29.94 
L 448.801188 29.94 
L 446.430754 29.94 
L 444.06032 29.94 
L 441.689886 29.94 
L 439.319451 29.94 
L 436.949017 29.94 
L 434.578583 29.94 
L 432.208149 29.94 
L 429.837715 29.94 
L 427.467281 29.94 
L 425.096847 29.94 
L 422.726413 249.0525 
L 420.355979 29.94 
L 417.985545 29.94 
L 415.615111 53.004474 
L 413.244677 29.94 
L 410.874243 29.94 
L 408.503809 78.631667 
L 406.133374 29.94 
L 403.76294 29.94 
L 401.392506 29.94 
L 399.022072 29.94 
L 396.651638 117.585 
L 394.281204 29.94 
L 391.91077 29.94 
L 389.540336 29.94 
L 387.169902 29.94 
L 384.799468 29.94 
L 382.429034 46.170556 
L 380.0586 29.94 
L 377.688166 29.94 
L 375.317732 29.94 
L 372.947297 29.94 
L 370.576863 29.94 
L 368.206429 29.94 
L 365.835995 59.155 
L 363.465561 29.94 
L 361.095127 29.94 
L 358.724693 29.94 
L 356.354259 29.94 
L 353.983825 29.94 
L 351.613391 29.94 
L 349.242957 29.94 
L 346.872523 29.94 
L 344.502089 29.94 
L 342.131655 29.94 
L 339.76122 29.94 
L 337.390786 29.94 
L 335.020352 29.94 
L 332.649918 29.94 
L 330.279484 29.94 
L 327.90905 29.94 
L 325.538616 29.94 
L 323.168182 29.94 
L 320.797748 29.94 
L 318.427314 29.94 
L 316.05688 29.94 
L 313.686446 29.94 
L 311.316012 29.94 
L 308.945578 139.49625 
L 306.575143 78.631667 
L 304.204709 29.94 
L 301.834275 29.94 
L 299.463841 29.94 
L 297.093407 468.165 
L 294.722973 29.94 
L 292.352539 29.94 
L 289.982105 29.94 
L 287.611671 29.94 
L 285.241237 29.94 
L 282.870803 57.329062 
L 280.500369 29.94 
L 278.129935 29.94 
L 275.759501 29.94 
L 273.389066 29.94 
L 271.018632 29.94 
L 268.648198 29.94 
L 266.277764 29.94 
L 263.90733 29.94 
L 261.536896 92.543571 
L 259.166462 29.94 
L 256.796028 29.94 
L 254.425594 36.291087 
L 252.05516 29.94 
L 249.684726 29.94 
L 247.314292 29.94 
L 244.943858 29.94 
L 242.573424 29.94 
L 240.202989 29.94 
L 237.832555 29.94 
L 235.462121 29.94 
L 233.091687 29.94 
L 230.721253 29.94 
L 228.350819 29.94 
L 225.980385 29.94 
L 223.609951 29.94 
L 221.239517 29.94 
L 218.869083 29.94 
L 216.498649 29.94 
L 214.128215 29.94 
L 211.757781 29.94 
L 209.387347 29.94 
L 207.016912 29.94 
L 204.646478 29.94 
L 202.276044 29.94 
L 199.90561 29.94 
L 197.535176 29.94 
L 195.164742 29.94 
L 192.794308 29.94 
L 190.423874 29.94 
L 188.05344 29.94 
L 185.683006 29.94 
L 183.312572 29.94 
L 180.942138 29.94 
L 178.571704 29.94 
L 176.20127 29.94 
L 173.830835 29.94 
L 171.460401 29.94 
L 169.089967 29.94 
L 166.719533 29.94 
L 164.349099 102.9775 
L 161.978665 29.94 
L 159.608231 117.585 
L 157.237797 29.94 
L 154.867363 29.94 
L 152.496929 29.94 
L 150.126495 29.94 
L 147.756061 29.94 
L 145.385627 29.94 
L 143.015193 73.7625 
L 140.644758 29.94 
L 138.274324 29.94 
L 135.90389 29.94 
L 133.533456 29.94 
L 131.163022 29.94 
L 128.792588 29.94 
L 126.422154 29.94 
L 124.05172 29.94 
L 121.681286 29.94 
L 119.310852 29.94 
L 116.940418 29.94 
L 114.569984 29.94 
L 112.19955 468.165 
L 109.829116 29.94 
L 107.458681 29.94 
L 105.088247 29.94 
L 102.717813 29.94 
L 100.347379 29.94 
L 97.976945 29.94 
L 95.606511 69.778636 
L 93.236077 29.94 
L 90.865643 29.94 
L 88.495209 29.94 
L 86.124775 29.94 
L 83.754341 53.004474 
L 81.383907 29.94 
L 79.013473 29.94 
L 76.643039 73.7625 
L 74.272604 29.94 
L 71.90217 29.94 
L 69.531736 29.94 
L 67.161302 29.94 
L 64.790868 29.94 
L 62.420434 29.94 
L 60.05 29.94 
z
" clip-path="url(#p6d5a5b94dd)" style="fill: #e8bc60"/>
   </g>
   <g id="FillBetweenPolyCollection_4">
    <path d="M 60.05 29.94 
L 60.05 29.94 
L 62.420434 29.94 
L 64.790868 29.94 
L 67.161302 29.94 
L 69.531736 29.94 
L 71.90217 29.94 
L 74.272604 29.94 
L 76.643039 73.7625 
L 79.013473 29.94 
L 81.383907 29.94 
L 83.754341 53.004474 
L 86.124775 29.94 
L 88.495209 29.94 
L 90.865643 29.94 
L 93.236077 29.94 
L 95.606511 69.778636 
L 97.976945 29.94 
L 100.347379 29.94 
L 102.717813 29.94 
L 105.088247 29.94 
L 107.458681 29.94 
L 109.829116 29.94 
L 112.19955 468.165 
L 114.569984 29.94 
L 116.940418 29.94 
L 119.310852 29.94 
L 121.681286 29.94 
L 124.05172 29.94 
L 126.422154 29.94 
L 128.792588 29.94 
L 131.163022 29.94 
L 133.533456 29.94 
L 135.90389 29.94 
L 138.274324 29.94 
L 140.644758 29.94 
L 143.015193 73.7625 
L 145.385627 29.94 
L 147.756061 29.94 
L 150.126495 29.94 
L 152.496929 29.94 
L 154.867363 29.94 
L 157.237797 29.94 
L 159.608231 117.585 
L 161.978665 29.94 
L 164.349099 102.9775 
L 166.719533 29.94 
L 169.089967 29.94 
L 171.460401 29.94 
L 173.830835 29.94 
L 176.20127 29.94 
L 178.571704 29.94 
L 180.942138 29.94 
L 183.312572 29.94 
L 185.683006 29.94 
L 188.05344 29.94 
L 190.423874 29.94 
L 192.794308 29.94 
L 195.164742 29.94 
L 197.535176 29.94 
L 199.90561 29.94 
L 202.276044 29.94 
L 204.646478 29.94 
L 207.016912 29.94 
L 209.387347 29.94 
L 211.757781 29.94 
L 214.128215 29.94 
L 216.498649 29.94 
L 218.869083 29.94 
L 221.239517 29.94 
L 223.609951 29.94 
L 225.980385 29.94 
L 228.350819 29.94 
L 230.721253 29.94 
L 233.091687 29.94 
L 235.462121 29.94 
L 237.832555 29.94 
L 240.202989 29.94 
L 242.573424 29.94 
L 244.943858 29.94 
L 247.314292 29.94 
L 249.684726 29.94 
L 252.05516 29.94 
L 254.425594 36.291087 
L 256.796028 29.94 
L 259.166462 29.94 
L 261.536896 92.543571 
L 263.90733 29.94 
L 266.277764 29.94 
L 268.648198 29.94 
L 271.018632 29.94 
L 273.389066 29.94 
L 275.759501 29.94 
L 278.129935 29.94 
L 280.500369 29.94 
L 282.870803 57.329062 
L 285.241237 29.94 
L 287.611671 29.94 
L 289.982105 29.94 
L 292.352539 29.94 
L 294.722973 29.94 
L 297.093407 468.165 
L 299.463841 29.94 
L 301.834275 29.94 
L 304.204709 29.94 
L 306.575143 78.631667 
L 308.945578 139.49625 
L 311.316012 29.94 
L 313.686446 29.94 
L 316.05688 29.94 
L 318.427314 29.94 
L 320.797748 29.94 
L 323.168182 29.94 
L 325.538616 29.94 
L 327.90905 29.94 
L 330.279484 29.94 
L 332.649918 29.94 
L 335.020352 29.94 
L 337.390786 29.94 
L 339.76122 29.94 
L 342.131655 29.94 
L 344.502089 29.94 
L 346.872523 29.94 
L 349.242957 29.94 
L 351.613391 29.94 
L 353.983825 29.94 
L 356.354259 29.94 
L 358.724693 29.94 
L 361.095127 29.94 
L 363.465561 29.94 
L 365.835995 59.155 
L 368.206429 29.94 
L 370.576863 29.94 
L 372.947297 29.94 
L 375.317732 29.94 
L 377.688166 29.94 
L 380.0586 29.94 
L 382.429034 46.170556 
L 384.799468 29.94 
L 387.169902 29.94 
L 389.540336 29.94 
L 391.91077 29.94 
L 394.281204 29.94 
L 396.651638 117.585 
L 399.022072 29.94 
L 401.392506 29.94 
L 403.76294 29.94 
L 406.133374 29.94 
L 408.503809 78.631667 
L 410.874243 29.94 
L 413.244677 29.94 
L 415.615111 53.004474 
L 417.985545 29.94 
L 420.355979 29.94 
L 422.726413 249.0525 
L 425.096847 29.94 
L 427.467281 29.94 
L 429.837715 29.94 
L 432.208149 29.94 
L 434.578583 29.94 
L 436.949017 29.94 
L 439.319451 29.94 
L 441.689886 29.94 
L 444.06032 29.94 
L 446.430754 29.94 
L 448.801188 29.94 
L 451.171622 29.94 
L 453.542056 29.94 
L 455.91249 29.94 
L 458.282924 29.94 
L 460.653358 29.94 
L 463.023792 29.94 
L 465.394226 29.94 
L 467.76466 29.94 
L 470.135094 29.94 
L 472.505528 29.94 
L 474.875963 29.94 
L 477.246397 78.631667 
L 479.616831 29.94 
L 481.987265 29.94 
L 484.357699 29.94 
L 486.728133 29.94 
L 489.098567 29.94 
L 491.469001 29.94 
L 493.839435 29.94 
L 496.209869 29.94 
L 498.580303 29.94 
L 500.950737 29.94 
L 503.321171 29.94 
L 505.691605 29.94 
L 508.06204 29.94 
L 510.432474 29.94 
L 512.802908 29.94 
L 515.173342 468.165 
L 517.543776 29.94 
L 519.91421 47.469 
L 522.284644 29.94 
L 524.655078 29.94 
L 527.025512 63.649615 
L 529.395946 29.94 
L 531.76638 29.94 
L 534.136814 29.94 
L 536.507248 29.94 
L 538.877682 29.94 
L 541.248117 29.94 
L 543.618551 29.94 
L 545.988985 29.94 
L 548.359419 29.94 
L 550.729853 29.94 
L 553.100287 29.94 
L 555.470721 29.94 
L 557.841155 29.94 
L 560.211589 29.94 
L 562.582023 29.94 
L 564.952457 29.94 
L 567.322891 29.94 
L 569.693325 29.94 
L 572.063759 29.94 
L 574.434194 29.94 
L 576.804628 29.94 
L 579.175062 29.94 
L 581.545496 29.94 
L 583.91593 29.94 
L 586.286364 29.94 
L 588.656798 29.94 
L 591.027232 29.94 
L 593.397666 29.94 
L 595.7681 29.94 
L 598.138534 29.94 
L 600.508968 29.94 
L 602.879402 29.94 
L 605.249836 29.94 
L 607.620271 29.94 
L 609.990705 29.94 
L 612.361139 468.165 
L 614.731573 29.94 
L 617.102007 29.94 
L 619.472441 29.94 
L 621.842875 29.94 
L 624.213309 29.94 
L 626.583743 29.94 
L 628.954177 29.94 
L 631.324611 29.94 
L 633.695045 29.94 
L 636.065479 29.94 
L 638.435913 29.94 
L 640.806348 29.94 
L 643.176782 102.9775 
L 645.547216 29.94 
L 647.91765 29.94 
L 650.288084 29.94 
L 652.658518 29.94 
L 655.028952 29.94 
L 657.399386 29.94 
L 659.76982 29.94 
L 662.140254 29.94 
L 664.510688 29.94 
L 666.881122 29.94 
L 669.251556 29.94 
L 669.251556 29.94 
L 669.251556 29.94 
L 666.881122 29.94 
L 664.510688 29.94 
L 662.140254 29.94 
L 659.76982 29.94 
L 657.399386 29.94 
L 655.028952 29.94 
L 652.658518 29.94 
L 650.288084 29.94 
L 647.91765 29.94 
L 645.547216 29.94 
L 643.176782 29.94 
L 640.806348 29.94 
L 638.435913 29.94 
L 636.065479 29.94 
L 633.695045 29.94 
L 631.324611 29.94 
L 628.954177 29.94 
L 626.583743 29.94 
L 624.213309 29.94 
L 621.842875 29.94 
L 619.472441 29.94 
L 617.102007 29.94 
L 614.731573 29.94 
L 612.361139 29.94 
L 609.990705 29.94 
L 607.620271 29.94 
L 605.249836 29.94 
L 602.879402 29.94 
L 600.508968 29.94 
L 598.138534 29.94 
L 595.7681 29.94 
L 593.397666 29.94 
L 591.027232 29.94 
L 588.656798 29.94 
L 586.286364 29.94 
L 583.91593 29.94 
L 581.545496 29.94 
L 579.175062 29.94 
L 576.804628 29.94 
L 574.434194 29.94 
L 572.063759 29.94 
L 569.693325 29.94 
L 567.322891 29.94 
L 564.952457 29.94 
L 562.582023 29.94 
L 560.211589 29.94 
L 557.841155 29.94 
L 555.470721 29.94 
L 553.100287 29.94 
L 550.729853 29.94 
L 548.359419 29.94 
L 545.988985 29.94 
L 543.618551 29.94 
L 541.248117 29.94 
L 538.877682 29.94 
L 536.507248 29.94 
L 534.136814 29.94 
L 531.76638 29.94 
L 529.395946 29.94 
L 527.025512 29.94 
L 524.655078 29.94 
L 522.284644 29.94 
L 519.91421 29.94 
L 517.543776 29.94 
L 515.173342 29.94 
L 512.802908 29.94 
L 510.432474 29.94 
L 508.06204 29.94 
L 505.691605 29.94 
L 503.321171 29.94 
L 500.950737 29.94 
L 498.580303 29.94 
L 496.209869 29.94 
L 493.839435 29.94 
L 491.469001 29.94 
L 489.098567 29.94 
L 486.728133 29.94 
L 484.357699 29.94 
L 481.987265 29.94 
L 479.616831 29.94 
L 477.246397 29.94 
L 474.875963 29.94 
L 472.505528 29.94 
L 470.135094 29.94 
L 467.76466 29.94 
L 465.394226 29.94 
L 463.023792 29.94 
L 460.653358 29.94 
L 458.282924 29.94 
L 455.91249 29.94 
L 453.542056 29.94 
L 451.171622 29.94 
L 448.801188 29.94 
L 446.430754 29.94 
L 444.06032 29.94 
L 441.689886 29.94 
L 439.319451 29.94 
L 436.949017 29.94 
L 434.578583 29.94 
L 432.208149 29.94 
L 429.837715 29.94 
L 427.467281 29.94 
L 425.096847 29.94 
L 422.726413 29.94 
L 420.355979 29.94 
L 417.985545 29.94 
L 415.615111 29.94 
L 413.244677 29.94 
L 410.874243 29.94 
L 408.503809 29.94 
L 406.133374 29.94 
L 403.76294 29.94 
L 401.392506 29.94 
L 399.022072 29.94 
L 396.651638 29.94 
L 394.281204 29.94 
L 391.91077 29.94 
L 389.540336 29.94 
L 387.169902 29.94 
L 384.799468 29.94 
L 382.429034 29.94 
L 380.0586 29.94 
L 377.688166 29.94 
L 375.317732 29.94 
L 372.947297 29.94 
L 370.576863 29.94 
L 368.206429 29.94 
L 365.835995 29.94 
L 363.465561 29.94 
L 361.095127 29.94 
L 358.724693 29.94 
L 356.354259 29.94 
L 353.983825 29.94 
L 351.613391 29.94 
L 349.242957 29.94 
L 346.872523 29.94 
L 344.502089 29.94 
L 342.131655 29.94 
L 339.76122 29.94 
L 337.390786 29.94 
L 335.020352 29.94 
L 332.649918 29.94 
L 330.279484 29.94 
L 327.90905 29.94 
L 325.538616 29.94 
L 323.168182 29.94 
L 320.797748 29.94 
L 318.427314 29.94 
L 316.05688 29.94 
L 313.686446 29.94 
L 311.316012 29.94 
L 308.945578 29.94 
L 306.575143 29.94 
L 304.204709 29.94 
L 301.834275 29.94 
L 299.463841 29.94 
L 297.093407 29.94 
L 294.722973 29.94 
L 292.352539 29.94 
L 289.982105 29.94 
L 287.611671 29.94 
L 285.241237 29.94 
L 282.870803 29.94 
L 280.500369 29.94 
L 278.129935 29.94 
L 275.759501 29.94 
L 273.389066 29.94 
L 271.018632 29.94 
L 268.648198 29.94 
L 266.277764 29.94 
L 263.90733 29.94 
L 261.536896 29.94 
L 259.166462 29.94 
L 256.796028 29.94 
L 254.425594 29.94 
L 252.05516 29.94 
L 249.684726 29.94 
L 247.314292 29.94 
L 244.943858 29.94 
L 242.573424 29.94 
L 240.202989 29.94 
L 237.832555 29.94 
L 235.462121 29.94 
L 233.091687 29.94 
L 230.721253 29.94 
L 228.350819 29.94 
L 225.980385 29.94 
L 223.609951 29.94 
L 221.239517 29.94 
L 218.869083 29.94 
L 216.498649 29.94 
L 214.128215 29.94 
L 211.757781 29.94 
L 209.387347 29.94 
L 207.016912 29.94 
L 204.646478 29.94 
L 202.276044 29.94 
L 199.90561 29.94 
L 197.535176 29.94 
L 195.164742 29.94 
L 192.794308 29.94 
L 190.423874 29.94 
L 188.05344 29.94 
L 185.683006 29.94 
L 183.312572 29.94 
L 180.942138 29.94 
L 178.571704 29.94 
L 176.20127 29.94 
L 173.830835 29.94 
L 171.460401 29.94 
L 169.089967 29.94 
L 166.719533 29.94 
L 164.349099 29.94 
L 161.978665 29.94 
L 159.608231 29.94 
L 157.237797 29.94 
L 154.867363 29.94 
L 152.496929 29.94 
L 150.126495 29.94 
L 147.756061 29.94 
L 145.385627 29.94 
L 143.015193 29.94 
L 140.644758 29.94 
L 138.274324 29.94 
L 135.90389 29.94 
L 133.533456 29.94 
L 131.163022 29.94 
L 128.792588 29.94 
L 126.422154 29.94 
L 124.05172 29.94 
L 121.681286 29.94 
L 119.310852 29.94 
L 116.940418 29.94 
L 114.569984 29.94 
L 112.19955 29.94 
L 109.829116 29.94 
L 107.458681 29.94 
L 105.088247 29.94 
L 102.717813 29.94 
L 100.347379 29.94 
L 97.976945 29.94 
L 95.606511 29.94 
L 93.236077 29.94 
L 90.865643 29.94 
L 88.495209 29.94 
L 86.124775 29.94 
L 83.754341 29.94 
L 81.383907 29.94 
L 79.013473 29.94 
L 76.643039 29.94 
L 74.272604 29.94 
L 71.90217 29.94 
L 69.531736 29.94 
L 67.161302 29.94 
L 64.790868 29.94 
L 62.420434 29.94 
L 60.05 29.94 
z
" clip-path="url(#p6d5a5b94dd)" style="fill: #8d5993"/>
   </g>
   <g id="matplotlib.axis_1">
    <g id="xtick_1">
     <g id="line2d_1">
      <path d="M 176.20127 468.165 
L 176.20127 29.94 
" clip-path="url(#p6d5a5b94dd)" style="fill: none; stroke-dasharray: 2.96,1.28; stroke-dashoffset: 0; stroke: #b0b0b0; stroke-opacity: 0.5; stroke-width: 0.8"/>
     </g>
     <g id="line2d_2">
      <defs>
       <path id="m2ebf5afe94" d="M 0 0 
L 0 3.5 
" style="stroke: #000000; stroke-width: 0.8"/>
      </defs>
      <g>
       <use xlink:href="#m2ebf5afe94" x="176.20127" y="468.165" style="stroke: #000000; stroke-width: 0.8"/>
      </g>
     </g>
     <g id="text_1">
      <!-- 50 -->
      <g transform="translate(169.83877 482.763437) scale(0.1 -0.1)">
       <defs>
        <path id="DejaVuSans-35" d="M 691 4666 
L 3169 4666 
L 3169 4134 
L 1269 4134 
L 1269 2991 
Q 1406 3038 1543 3061 
Q 1681 3084 1819 3084 
Q 2600 3084 3056 2656 
Q 3513 2228 3513 1497 
Q 3513 744 3044 326 
Q 2575 -91 1722 -91 
Q 1428 -91 1123 -41 
Q 819 9 494 109 
L 494 744 
Q 775 591 1075 516 
Q 1375 441 1709 441 
Q 2250 441 2565 725 
Q 2881 1009 2881 1497 
Q 2881 1984 2565 2268 
Q 2250 2553 1709 2553 
Q 1456 2553 1204 2497 
Q 953 2441 691 2322 
L 691 4666 
z
" transform="scale(0.015625)"/>
        <path id="DejaVuSans-30" d="M 2034 4250 
Q 1547 4250 1301 3770 
Q 1056 3291 1056 2328 
Q 1056 1369 1301 889 
Q 1547 409 2034 409 
Q 2525 409 2770 889 
Q 3016 1369 3016 2328 
Q 3016 3291 2770 3770 
Q 2525 4250 2034 4250 
z
M 2034 4750 
Q 2819 4750 3233 4129 
Q 3647 3509 3647 2328 
Q 3647 1150 3233 529 
Q 2819 -91 2034 -91 
Q 1250 -91 836 529 
Q 422 1150 422 2328 
Q 422 3509 836 4129 
Q 1250 4750 2034 4750 
z
" transform="scale(0.015625)"/>
       </defs>
       <use xlink:href="#DejaVuSans-35"/>
       <use xlink:href="#DejaVuSans-30" transform="translate(63.623047 0)"/>
      </g>
     </g>
    </g>
    <g id="xtick_2">
     <g id="line2d_3">
      <path d="M 294.722973 468.165 
L 294.722973 29.94 
" clip-path="url(#p6d5a5b94dd)" style="fill: none; stroke-dasharray: 2.96,1.28; stroke-dashoffset: 0; stroke: #b0b0b0; stroke-opacity: 0.5; stroke-width: 0.8"/>
     </g>
     <g id="line2d_4">
      <g>
       <use xlink:href="#m2ebf5afe94" x="294.722973" y="468.165" style="stroke: #000000; stroke-width: 0.8"/>
      </g>
     </g>
     <g id="text_2">
      <!-- 100 -->
      <g transform="translate(285.179223 482.763437) scale(0.1 -0.1)">
       <defs>
        <path id="DejaVuSans-31" d="M 794 531 
L 1825 531 
L 1825 4091 
L 703 3866 
L 703 4441 
L 1819 4666 
L 2450 4666 
L 2450 531 
L 3481 531 
L 3481 0 
L 794 0 
L 794 531 
z
" transform="scale(0.015625)"/>
       </defs>
       <use xlink:href="#DejaVuSans-31"/>
       <use xlink:href="#DejaVuSans-30" transform="translate(63.623047 0)"/>
       <use xlink:href="#DejaVuSans-30" transform="translate(127.246094 0)"/>
      </g>
     </g>
    </g>
    <g id="xtick_3">
     <g id="line2d_5">
      <path d="M 413.244677 468.165 
L 413.244677 29.94 
" clip-path="url(#p6d5a5b94dd)" style="fill: none; stroke-dasharray: 2.96,1.28; stroke-dashoffset: 0; stroke: #b0b0b0; stroke-opacity: 0.5; stroke-width: 0.8"/>
     </g>
     <g id="line2d_6">
      <g>
       <use xlink:href="#m2ebf5afe94" x="413.244677" y="468.165" style="stroke: #000000; stroke-width: 0.8"/>
      </g>
     </g>
     <g id="text_3">
      <!-- 150 -->
      <g transform="translate(403.700927 482.763437) scale(0.1 -0.1)">
       <use xlink:href="#DejaVuSans-31"/>
       <use xlink:href="#DejaVuSans-35" transform="translate(63.623047 0)"/>
       <use xlink:href="#DejaVuSans-30" transform="translate(127.246094 0)"/>
      </g>
     </g>
    </g>
    <g id="xtick_4">
     <g id="line2d_7">
      <path d="M 531.76638 468.165 
L 531.76638 29.94 
" clip-path="url(#p6d5a5b94dd)" style="fill: none; stroke-dasharray: 2.96,1.28; stroke-dashoffset: 0; stroke: #b0b0b0; stroke-opacity: 0.5; stroke-width: 0.8"/>
     </g>
     <g id="line2d_8">
      <g>
       <use xlink:href="#m2ebf5afe94" x="531.76638" y="468.165" style="stroke: #000000; stroke-width: 0.8"/>
      </g>
     </g>
     <g id="text_4">
      <!-- 200 -->
      <g transform="translate(522.22263 482.763437) scale(0.1 -0.1)">
       <defs>
        <path id="DejaVuSans-32" d="M 1228 531 
L 3431 531 
L 3431 0 
L 469 0 
L 469 531 
Q 828 903 1448 1529 
Q 2069 2156 2228 2338 
Q 2531 2678 2651 2914 
Q 2772 3150 2772 3378 
Q 2772 3750 2511 3984 
Q 2250 4219 1831 4219 
Q 1534 4219 1204 4116 
Q 875 4013 500 3803 
L 500 4441 
Q 881 4594 1212 4672 
Q 1544 4750 1819 4750 
Q 2544 4750 2975 4387 
Q 3406 4025 3406 3419 
Q 3406 3131 3298 2873 
Q 3191 2616 2906 2266 
Q 2828 2175 2409 1742 
Q 1991 1309 1228 531 
z
" transform="scale(0.015625)"/>
       </defs>
       <use xlink:href="#DejaVuSans-32"/>
       <use xlink:href="#DejaVuSans-30" transform="translate(63.623047 0)"/>
       <use xlink:href="#DejaVuSans-30" transform="translate(127.246094 0)"/>
      </g>
     </g>
    </g>
    <g id="xtick_5">
     <g id="line2d_9">
      <path d="M 650.288084 468.165 
L 650.288084 29.94 
" clip-path="url(#p6d5a5b94dd)" style="fill: none; stroke-dasharray: 2.96,1.28; stroke-dashoffset: 0; stroke: #b0b0b0; stroke-opacity: 0.5; stroke-width: 0.8"/>
     </g>
     <g id="line2d_10">
      <g>
       <use xlink:href="#m2ebf5afe94" x="650.288084" y="468.165" style="stroke: #000000; stroke-width: 0.8"/>
      </g>
     </g>
     <g id="text_5">
      <!-- 250 -->
      <g transform="translate(640.744334 482.763437) scale(0.1 -0.1)">
       <use xlink:href="#DejaVuSans-32"/>
       <use xlink:href="#DejaVuSans-35" transform="translate(63.623047 0)"/>
       <use xlink:href="#DejaVuSans-30" transform="translate(127.246094 0)"/>
      </g>
     </g>
    </g>
    <g id="text_6">
     <!-- Session Count -->
     <g transform="translate(324.393122 498.564375) scale(0.14 -0.14)">
      <defs>
       <path id="TimesNewRomanPSMT-53" d="M 2934 4334 
L 2934 2869 
L 2819 2869 
Q 2763 3291 2617 3541 
Q 2472 3791 2203 3937 
Q 1934 4084 1647 4084 
Q 1322 4084 1109 3886 
Q 897 3688 897 3434 
Q 897 3241 1031 3081 
Q 1225 2847 1953 2456 
Q 2547 2138 2764 1967 
Q 2981 1797 3098 1565 
Q 3216 1334 3216 1081 
Q 3216 600 2842 251 
Q 2469 -97 1881 -97 
Q 1697 -97 1534 -69 
Q 1438 -53 1133 45 
Q 828 144 747 144 
Q 669 144 623 97 
Q 578 50 556 -97 
L 441 -97 
L 441 1356 
L 556 1356 
Q 638 900 775 673 
Q 913 447 1195 297 
Q 1478 147 1816 147 
Q 2206 147 2432 353 
Q 2659 559 2659 841 
Q 2659 997 2573 1156 
Q 2488 1316 2306 1453 
Q 2184 1547 1640 1851 
Q 1097 2156 867 2337 
Q 638 2519 519 2737 
Q 400 2956 400 3219 
Q 400 3675 750 4004 
Q 1100 4334 1641 4334 
Q 1978 4334 2356 4169 
Q 2531 4091 2603 4091 
Q 2684 4091 2736 4139 
Q 2788 4188 2819 4334 
L 2934 4334 
z
" transform="scale(0.015625)"/>
       <path id="TimesNewRomanPSMT-65" d="M 681 1784 
Q 678 1147 991 784 
Q 1303 422 1725 422 
Q 2006 422 2214 576 
Q 2422 731 2563 1106 
L 2659 1044 
Q 2594 616 2278 264 
Q 1963 -88 1488 -88 
Q 972 -88 605 314 
Q 238 716 238 1394 
Q 238 2128 614 2539 
Q 991 2950 1559 2950 
Q 2041 2950 2350 2633 
Q 2659 2316 2659 1784 
L 681 1784 
z
M 681 1966 
L 2006 1966 
Q 1991 2241 1941 2353 
Q 1863 2528 1708 2628 
Q 1553 2728 1384 2728 
Q 1125 2728 920 2526 
Q 716 2325 681 1966 
z
" transform="scale(0.015625)"/>
       <path id="TimesNewRomanPSMT-73" d="M 2050 2947 
L 2050 1972 
L 1947 1972 
Q 1828 2431 1642 2597 
Q 1456 2763 1169 2763 
Q 950 2763 815 2647 
Q 681 2531 681 2391 
Q 681 2216 781 2091 
Q 878 1963 1175 1819 
L 1631 1597 
Q 2266 1288 2266 781 
Q 2266 391 1970 151 
Q 1675 -88 1309 -88 
Q 1047 -88 709 6 
Q 606 38 541 38 
Q 469 38 428 -44 
L 325 -44 
L 325 978 
L 428 978 
Q 516 541 762 319 
Q 1009 97 1316 97 
Q 1531 97 1667 223 
Q 1803 350 1803 528 
Q 1803 744 1651 891 
Q 1500 1038 1047 1263 
Q 594 1488 453 1669 
Q 313 1847 313 2119 
Q 313 2472 555 2709 
Q 797 2947 1181 2947 
Q 1350 2947 1591 2875 
Q 1750 2828 1803 2828 
Q 1853 2828 1881 2850 
Q 1909 2872 1947 2947 
L 2050 2947 
z
" transform="scale(0.015625)"/>
       <path id="TimesNewRomanPSMT-69" d="M 928 4444 
Q 1059 4444 1151 4351 
Q 1244 4259 1244 4128 
Q 1244 3997 1151 3903 
Q 1059 3809 928 3809 
Q 797 3809 703 3903 
Q 609 3997 609 4128 
Q 609 4259 701 4351 
Q 794 4444 928 4444 
z
M 1188 2947 
L 1188 647 
Q 1188 378 1227 289 
Q 1266 200 1342 156 
Q 1419 113 1622 113 
L 1622 0 
L 231 0 
L 231 113 
Q 441 113 512 153 
Q 584 194 626 287 
Q 669 381 669 647 
L 669 1750 
Q 669 2216 641 2353 
Q 619 2453 572 2492 
Q 525 2531 444 2531 
Q 356 2531 231 2484 
L 188 2597 
L 1050 2947 
L 1188 2947 
z
" transform="scale(0.015625)"/>
       <path id="TimesNewRomanPSMT-6f" d="M 1600 2947 
Q 2250 2947 2644 2453 
Q 2978 2031 2978 1484 
Q 2978 1100 2793 706 
Q 2609 313 2286 112 
Q 1963 -88 1566 -88 
Q 919 -88 538 428 
Q 216 863 216 1403 
Q 216 1797 411 2186 
Q 606 2575 925 2761 
Q 1244 2947 1600 2947 
z
M 1503 2744 
Q 1338 2744 1170 2645 
Q 1003 2547 900 2300 
Q 797 2053 797 1666 
Q 797 1041 1045 587 
Q 1294 134 1700 134 
Q 2003 134 2200 384 
Q 2397 634 2397 1244 
Q 2397 2006 2069 2444 
Q 1847 2744 1503 2744 
z
" transform="scale(0.015625)"/>
       <path id="TimesNewRomanPSMT-6e" d="M 1034 2341 
Q 1538 2947 1994 2947 
Q 2228 2947 2397 2830 
Q 2566 2713 2666 2444 
Q 2734 2256 2734 1869 
L 2734 647 
Q 2734 375 2778 278 
Q 2813 200 2889 156 
Q 2966 113 3172 113 
L 3172 0 
L 1756 0 
L 1756 113 
L 1816 113 
Q 2016 113 2095 173 
Q 2175 234 2206 353 
Q 2219 400 2219 647 
L 2219 1819 
Q 2219 2209 2117 2386 
Q 2016 2563 1775 2563 
Q 1403 2563 1034 2156 
L 1034 647 
Q 1034 356 1069 288 
Q 1113 197 1189 155 
Q 1266 113 1500 113 
L 1500 0 
L 84 0 
L 84 113 
L 147 113 
Q 366 113 442 223 
Q 519 334 519 647 
L 519 1709 
Q 519 2225 495 2337 
Q 472 2450 423 2490 
Q 375 2531 294 2531 
Q 206 2531 84 2484 
L 38 2597 
L 900 2947 
L 1034 2947 
L 1034 2341 
z
" transform="scale(0.015625)"/>
       <path id="TimesNewRomanPSMT-20" transform="scale(0.015625)"/>
       <path id="TimesNewRomanPSMT-43" d="M 3853 4334 
L 3950 2894 
L 3853 2894 
Q 3659 3541 3300 3825 
Q 2941 4109 2438 4109 
Q 2016 4109 1675 3895 
Q 1334 3681 1139 3212 
Q 944 2744 944 2047 
Q 944 1472 1128 1050 
Q 1313 628 1683 403 
Q 2053 178 2528 178 
Q 2941 178 3256 354 
Q 3572 531 3950 1056 
L 4047 994 
Q 3728 428 3303 165 
Q 2878 -97 2294 -97 
Q 1241 -97 663 684 
Q 231 1266 231 2053 
Q 231 2688 515 3219 
Q 800 3750 1298 4042 
Q 1797 4334 2388 4334 
Q 2847 4334 3294 4109 
Q 3425 4041 3481 4041 
Q 3566 4041 3628 4100 
Q 3709 4184 3744 4334 
L 3853 4334 
z
" transform="scale(0.015625)"/>
       <path id="TimesNewRomanPSMT-75" d="M 2709 2863 
L 2709 1128 
Q 2709 631 2732 520 
Q 2756 409 2807 365 
Q 2859 322 2928 322 
Q 3025 322 3147 375 
L 3191 266 
L 2334 -88 
L 2194 -88 
L 2194 519 
Q 1825 119 1631 15 
Q 1438 -88 1222 -88 
Q 981 -88 804 51 
Q 628 191 559 409 
Q 491 628 491 1028 
L 491 2306 
Q 491 2509 447 2587 
Q 403 2666 317 2708 
Q 231 2750 6 2747 
L 6 2863 
L 1009 2863 
L 1009 947 
Q 1009 547 1148 422 
Q 1288 297 1484 297 
Q 1619 297 1789 381 
Q 1959 466 2194 703 
L 2194 2325 
Q 2194 2569 2105 2655 
Q 2016 2741 1734 2747 
L 1734 2863 
L 2709 2863 
z
" transform="scale(0.015625)"/>
       <path id="TimesNewRomanPSMT-74" d="M 1031 3803 
L 1031 2863 
L 1700 2863 
L 1700 2644 
L 1031 2644 
L 1031 788 
Q 1031 509 1111 412 
Q 1191 316 1316 316 
Q 1419 316 1516 380 
Q 1613 444 1666 569 
L 1788 569 
Q 1678 263 1478 108 
Q 1278 -47 1066 -47 
Q 922 -47 784 33 
Q 647 113 581 261 
Q 516 409 516 719 
L 516 2644 
L 63 2644 
L 63 2747 
Q 234 2816 414 2980 
Q 594 3144 734 3369 
Q 806 3488 934 3803 
L 1031 3803 
z
" transform="scale(0.015625)"/>
      </defs>
      <use xlink:href="#TimesNewRomanPSMT-53"/>
      <use xlink:href="#TimesNewRomanPSMT-65" transform="translate(55.615234 0)"/>
      <use xlink:href="#TimesNewRomanPSMT-73" transform="translate(100 0)"/>
      <use xlink:href="#TimesNewRomanPSMT-73" transform="translate(138.916016 0)"/>
      <use xlink:href="#TimesNewRomanPSMT-69" transform="translate(177.832031 0)"/>
      <use xlink:href="#TimesNewRomanPSMT-6f" transform="translate(205.615234 0)"/>
      <use xlink:href="#TimesNewRomanPSMT-6e" transform="translate(255.615234 0)"/>
      <use xlink:href="#TimesNewRomanPSMT-20" transform="translate(305.615234 0)"/>
      <use xlink:href="#TimesNewRomanPSMT-43" transform="translate(330.615234 0)"/>
      <use xlink:href="#TimesNewRomanPSMT-6f" transform="translate(397.314453 0)"/>
      <use xlink:href="#TimesNewRomanPSMT-75" transform="translate(447.314453 0)"/>
      <use xlink:href="#TimesNewRomanPSMT-6e" transform="translate(497.314453 0)"/>
      <use xlink:href="#TimesNewRomanPSMT-74" transform="translate(547.314453 0)"/>
     </g>
    </g>
   </g>
   <g id="matplotlib.axis_2">
    <g id="ytick_1">
     <g id="line2d_11">
      <path d="M 60.05 468.165 
L 669.251556 468.165 
" clip-path="url(#p6d5a5b94dd)" style="fill: none; stroke-dasharray: 2.96,1.28; stroke-dashoffset: 0; stroke: #b0b0b0; stroke-opacity: 0.5; stroke-width: 0.8"/>
     </g>
     <g id="line2d_12">
      <defs>
       <path id="ma4ebcaaf5c" d="M 0 0 
L -3.5 0 
" style="stroke: #000000; stroke-width: 0.8"/>
      </defs>
      <g>
       <use xlink:href="#ma4ebcaaf5c" x="60.05" y="468.165" style="stroke: #000000; stroke-width: 0.8"/>
      </g>
     </g>
     <g id="text_7">
      <!-- 0 -->
      <g transform="translate(46.6875 471.964219) scale(0.1 -0.1)">
       <use xlink:href="#DejaVuSans-30"/>
      </g>
     </g>
    </g>
    <g id="ytick_2">
     <g id="line2d_13">
      <path d="M 60.05 29.94 
L 669.251556 29.94 
" clip-path="url(#p6d5a5b94dd)" style="fill: none; stroke-dasharray: 2.96,1.28; stroke-dashoffset: 0; stroke: #b0b0b0; stroke-opacity: 0.5; stroke-width: 0.8"/>
     </g>
     <g id="line2d_14">
      <g>
       <use xlink:href="#ma4ebcaaf5c" x="60.05" y="29.94" style="stroke: #000000; stroke-width: 0.8"/>
      </g>
     </g>
     <g id="text_8">
      <!-- 1 -->
      <g transform="translate(46.6875 33.739219) scale(0.1 -0.1)">
       <use xlink:href="#DejaVuSans-31"/>
      </g>
     </g>
    </g>
    <g id="text_9">
     <!-- Stacked Proportion -->
     <g transform="translate(39.692812 302.905469) rotate(-90) scale(0.14 -0.14)">
      <defs>
       <path id="TimesNewRomanPSMT-61" d="M 1822 413 
Q 1381 72 1269 19 
Q 1100 -59 909 -59 
Q 613 -59 420 144 
Q 228 347 228 678 
Q 228 888 322 1041 
Q 450 1253 767 1440 
Q 1084 1628 1822 1897 
L 1822 2009 
Q 1822 2438 1686 2597 
Q 1550 2756 1291 2756 
Q 1094 2756 978 2650 
Q 859 2544 859 2406 
L 866 2225 
Q 866 2081 792 2003 
Q 719 1925 600 1925 
Q 484 1925 411 2006 
Q 338 2088 338 2228 
Q 338 2497 613 2722 
Q 888 2947 1384 2947 
Q 1766 2947 2009 2819 
Q 2194 2722 2281 2516 
Q 2338 2381 2338 1966 
L 2338 994 
Q 2338 584 2353 492 
Q 2369 400 2405 369 
Q 2441 338 2488 338 
Q 2538 338 2575 359 
Q 2641 400 2828 588 
L 2828 413 
Q 2478 -56 2159 -56 
Q 2006 -56 1915 50 
Q 1825 156 1822 413 
z
M 1822 616 
L 1822 1706 
Q 1350 1519 1213 1441 
Q 966 1303 859 1153 
Q 753 1003 753 825 
Q 753 600 887 451 
Q 1022 303 1197 303 
Q 1434 303 1822 616 
z
" transform="scale(0.015625)"/>
       <path id="TimesNewRomanPSMT-63" d="M 2631 1088 
Q 2516 522 2178 217 
Q 1841 -88 1431 -88 
Q 944 -88 581 321 
Q 219 731 219 1428 
Q 219 2103 620 2525 
Q 1022 2947 1584 2947 
Q 2006 2947 2278 2723 
Q 2550 2500 2550 2259 
Q 2550 2141 2473 2067 
Q 2397 1994 2259 1994 
Q 2075 1994 1981 2113 
Q 1928 2178 1911 2362 
Q 1894 2547 1784 2644 
Q 1675 2738 1481 2738 
Q 1169 2738 978 2506 
Q 725 2200 725 1697 
Q 725 1184 976 792 
Q 1228 400 1656 400 
Q 1963 400 2206 609 
Q 2378 753 2541 1131 
L 2631 1088 
z
" transform="scale(0.015625)"/>
       <path id="TimesNewRomanPSMT-6b" d="M 1047 4444 
L 1047 1594 
L 1775 2259 
Q 2006 2472 2044 2528 
Q 2069 2566 2069 2603 
Q 2069 2666 2017 2711 
Q 1966 2756 1847 2763 
L 1847 2863 
L 3091 2863 
L 3091 2763 
Q 2834 2756 2664 2684 
Q 2494 2613 2291 2428 
L 1556 1750 
L 2291 822 
Q 2597 438 2703 334 
Q 2853 188 2966 144 
Q 3044 113 3238 113 
L 3238 0 
L 1847 0 
L 1847 113 
Q 1966 116 2008 148 
Q 2050 181 2050 241 
Q 2050 313 1925 472 
L 1047 1594 
L 1047 644 
Q 1047 366 1086 278 
Q 1125 191 1197 153 
Q 1269 116 1509 113 
L 1509 0 
L 53 0 
L 53 113 
Q 272 113 381 166 
Q 447 200 481 272 
Q 528 375 528 628 
L 528 3234 
Q 528 3731 506 3842 
Q 484 3953 434 3995 
Q 384 4038 303 4038 
Q 238 4038 106 3984 
L 53 4094 
L 903 4444 
L 1047 4444 
z
" transform="scale(0.015625)"/>
       <path id="TimesNewRomanPSMT-64" d="M 2222 322 
Q 2013 103 1813 7 
Q 1613 -88 1381 -88 
Q 913 -88 563 304 
Q 213 697 213 1313 
Q 213 1928 600 2439 
Q 988 2950 1597 2950 
Q 1975 2950 2222 2709 
L 2222 3238 
Q 2222 3728 2198 3840 
Q 2175 3953 2125 3993 
Q 2075 4034 2000 4034 
Q 1919 4034 1784 3984 
L 1744 4094 
L 2597 4444 
L 2738 4444 
L 2738 1134 
Q 2738 631 2761 520 
Q 2784 409 2836 365 
Q 2888 322 2956 322 
Q 3041 322 3181 375 
L 3216 266 
L 2366 -88 
L 2222 -88 
L 2222 322 
z
M 2222 541 
L 2222 2016 
Q 2203 2228 2109 2403 
Q 2016 2578 1861 2667 
Q 1706 2756 1559 2756 
Q 1284 2756 1069 2509 
Q 784 2184 784 1559 
Q 784 928 1059 592 
Q 1334 256 1672 256 
Q 1956 256 2222 541 
z
" transform="scale(0.015625)"/>
       <path id="TimesNewRomanPSMT-50" d="M 1313 1984 
L 1313 750 
Q 1313 350 1400 253 
Q 1519 116 1759 116 
L 1922 116 
L 1922 0 
L 106 0 
L 106 116 
L 266 116 
Q 534 116 650 291 
Q 713 388 713 750 
L 713 3488 
Q 713 3888 628 3984 
Q 506 4122 266 4122 
L 106 4122 
L 106 4238 
L 1659 4238 
Q 2228 4238 2556 4120 
Q 2884 4003 3109 3725 
Q 3334 3447 3334 3066 
Q 3334 2547 2992 2222 
Q 2650 1897 2025 1897 
Q 1872 1897 1694 1919 
Q 1516 1941 1313 1984 
z
M 1313 2163 
Q 1478 2131 1606 2115 
Q 1734 2100 1825 2100 
Q 2150 2100 2386 2351 
Q 2622 2603 2622 3003 
Q 2622 3278 2509 3514 
Q 2397 3750 2190 3867 
Q 1984 3984 1722 3984 
Q 1563 3984 1313 3925 
L 1313 2163 
z
" transform="scale(0.015625)"/>
       <path id="TimesNewRomanPSMT-72" d="M 1038 2947 
L 1038 2303 
Q 1397 2947 1775 2947 
Q 1947 2947 2059 2842 
Q 2172 2738 2172 2600 
Q 2172 2478 2090 2393 
Q 2009 2309 1897 2309 
Q 1788 2309 1652 2417 
Q 1516 2525 1450 2525 
Q 1394 2525 1328 2463 
Q 1188 2334 1038 2041 
L 1038 669 
Q 1038 431 1097 309 
Q 1138 225 1241 169 
Q 1344 113 1538 113 
L 1538 0 
L 72 0 
L 72 113 
Q 291 113 397 181 
Q 475 231 506 341 
Q 522 394 522 644 
L 522 1753 
Q 522 2253 501 2348 
Q 481 2444 426 2487 
Q 372 2531 291 2531 
Q 194 2531 72 2484 
L 41 2597 
L 906 2947 
L 1038 2947 
z
" transform="scale(0.015625)"/>
       <path id="TimesNewRomanPSMT-70" d="M -6 2578 
L 875 2934 
L 994 2934 
L 994 2266 
Q 1216 2644 1439 2795 
Q 1663 2947 1909 2947 
Q 2341 2947 2628 2609 
Q 2981 2197 2981 1534 
Q 2981 794 2556 309 
Q 2206 -88 1675 -88 
Q 1444 -88 1275 -22 
Q 1150 25 994 166 
L 994 -706 
Q 994 -1000 1030 -1079 
Q 1066 -1159 1155 -1206 
Q 1244 -1253 1478 -1253 
L 1478 -1369 
L -22 -1369 
L -22 -1253 
L 56 -1253 
Q 228 -1256 350 -1188 
Q 409 -1153 442 -1076 
Q 475 -1000 475 -688 
L 475 2019 
Q 475 2297 450 2372 
Q 425 2447 370 2484 
Q 316 2522 222 2522 
Q 147 2522 31 2478 
L -6 2578 
z
M 994 2081 
L 994 1013 
Q 994 666 1022 556 
Q 1066 375 1236 237 
Q 1406 100 1666 100 
Q 1978 100 2172 344 
Q 2425 663 2425 1241 
Q 2425 1897 2138 2250 
Q 1938 2494 1663 2494 
Q 1513 2494 1366 2419 
Q 1253 2363 994 2081 
z
" transform="scale(0.015625)"/>
      </defs>
      <use xlink:href="#TimesNewRomanPSMT-53"/>
      <use xlink:href="#TimesNewRomanPSMT-74" transform="translate(55.615234 0)"/>
      <use xlink:href="#TimesNewRomanPSMT-61" transform="translate(83.398438 0)"/>
      <use xlink:href="#TimesNewRomanPSMT-63" transform="translate(127.783203 0)"/>
      <use xlink:href="#TimesNewRomanPSMT-6b" transform="translate(172.167969 0)"/>
      <use xlink:href="#TimesNewRomanPSMT-65" transform="translate(222.167969 0)"/>
      <use xlink:href="#TimesNewRomanPSMT-64" transform="translate(266.552734 0)"/>
      <use xlink:href="#TimesNewRomanPSMT-20" transform="translate(316.552734 0)"/>
      <use xlink:href="#TimesNewRomanPSMT-50" transform="translate(341.552734 0)"/>
      <use xlink:href="#TimesNewRomanPSMT-72" transform="translate(397.167969 0)"/>
      <use xlink:href="#TimesNewRomanPSMT-6f" transform="translate(430.46875 0)"/>
      <use xlink:href="#TimesNewRomanPSMT-70" transform="translate(480.46875 0)"/>
      <use xlink:href="#TimesNewRomanPSMT-6f" transform="translate(530.46875 0)"/>
      <use xlink:href="#TimesNewRomanPSMT-72" transform="translate(580.46875 0)"/>
      <use xlink:href="#TimesNewRomanPSMT-74" transform="translate(613.769531 0)"/>
      <use xlink:href="#TimesNewRomanPSMT-69" transform="translate(641.552734 0)"/>
      <use xlink:href="#TimesNewRomanPSMT-6f" transform="translate(669.335938 0)"/>
      <use xlink:href="#TimesNewRomanPSMT-6e" transform="translate(719.335938 0)"/>
     </g>
    </g>
   </g>
   <g id="line2d_15">
    <path d="M 60.05 197.551337 
L 669.251556 197.551337 
" clip-path="url(#p6d5a5b94dd)" style="fill: none; stroke-dasharray: 7.5,15; stroke-dashoffset: 0; stroke: #000000; stroke-width: 1.5"/>
   </g>
   <g id="patch_3">
    <path d="M 60.05 468.165 
L 60.05 29.94 
" style="fill: none; stroke: #000000; stroke-width: 0.8; stroke-linejoin: miter; stroke-linecap: square"/>
   </g>
   <g id="patch_4">
    <path d="M 669.251556 468.165 
L 669.251556 29.94 
" style="fill: none; stroke: #000000; stroke-width: 0.8; stroke-linejoin: miter; stroke-linecap: square"/>
   </g>
   <g id="patch_5">
    <path d="M 60.05 468.165 
L 669.251556 468.165 
" style="fill: none; stroke: #000000; stroke-width: 0.8; stroke-linejoin: miter; stroke-linecap: square"/>
   </g>
   <g id="patch_6">
    <path d="M 60.05 29.94 
L 669.251556 29.94 
" style="fill: none; stroke: #000000; stroke-width: 0.8; stroke-linejoin: miter; stroke-linecap: square"/>
   </g>
   <g id="text_10">
    <!-- 0.62 -->
    <g transform="translate(685.844595 200.914619) scale(0.14 -0.14)">
     <defs>
      <path id="TimesNewRomanPSMT-30" d="M 231 2094 
Q 231 2819 450 3342 
Q 669 3866 1031 4122 
Q 1313 4325 1613 4325 
Q 2100 4325 2488 3828 
Q 2972 3213 2972 2159 
Q 2972 1422 2759 906 
Q 2547 391 2217 158 
Q 1888 -75 1581 -75 
Q 975 -75 572 641 
Q 231 1244 231 2094 
z
M 844 2016 
Q 844 1141 1059 588 
Q 1238 122 1591 122 
Q 1759 122 1940 273 
Q 2122 425 2216 781 
Q 2359 1319 2359 2297 
Q 2359 3022 2209 3506 
Q 2097 3866 1919 4016 
Q 1791 4119 1609 4119 
Q 1397 4119 1231 3928 
Q 1006 3669 925 3112 
Q 844 2556 844 2016 
z
" transform="scale(0.015625)"/>
      <path id="TimesNewRomanPSMT-2e" d="M 800 606 
Q 947 606 1047 504 
Q 1147 403 1147 259 
Q 1147 116 1045 14 
Q 944 -88 800 -88 
Q 656 -88 554 14 
Q 453 116 453 259 
Q 453 406 554 506 
Q 656 606 800 606 
z
" transform="scale(0.015625)"/>
      <path id="TimesNewRomanPSMT-36" d="M 2869 4325 
L 2869 4209 
Q 2456 4169 2195 4045 
Q 1934 3922 1679 3669 
Q 1425 3416 1258 3105 
Q 1091 2794 978 2366 
Q 1428 2675 1881 2675 
Q 2316 2675 2634 2325 
Q 2953 1975 2953 1425 
Q 2953 894 2631 456 
Q 2244 -75 1606 -75 
Q 1172 -75 869 213 
Q 275 772 275 1663 
Q 275 2231 503 2743 
Q 731 3256 1154 3653 
Q 1578 4050 1965 4187 
Q 2353 4325 2688 4325 
L 2869 4325 
z
M 925 2138 
Q 869 1716 869 1456 
Q 869 1156 980 804 
Q 1091 453 1309 247 
Q 1469 100 1697 100 
Q 1969 100 2183 356 
Q 2397 613 2397 1088 
Q 2397 1622 2184 2012 
Q 1972 2403 1581 2403 
Q 1463 2403 1327 2353 
Q 1191 2303 925 2138 
z
" transform="scale(0.015625)"/>
      <path id="TimesNewRomanPSMT-32" d="M 2934 816 
L 2638 0 
L 138 0 
L 138 116 
Q 1241 1122 1691 1759 
Q 2141 2397 2141 2925 
Q 2141 3328 1894 3587 
Q 1647 3847 1303 3847 
Q 991 3847 742 3664 
Q 494 3481 375 3128 
L 259 3128 
Q 338 3706 661 4015 
Q 984 4325 1469 4325 
Q 1984 4325 2329 3994 
Q 2675 3663 2675 3213 
Q 2675 2891 2525 2569 
Q 2294 2063 1775 1497 
Q 997 647 803 472 
L 1909 472 
Q 2247 472 2383 497 
Q 2519 522 2628 598 
Q 2738 675 2819 816 
L 2934 816 
z
" transform="scale(0.015625)"/>
     </defs>
     <use xlink:href="#TimesNewRomanPSMT-30"/>
     <use xlink:href="#TimesNewRomanPSMT-2e" transform="translate(50 0)"/>
     <use xlink:href="#TimesNewRomanPSMT-36" transform="translate(75 0)"/>
     <use xlink:href="#TimesNewRomanPSMT-32" transform="translate(125 0)"/>
    </g>
   </g>
   <g id="text_11">
    <!-- Eric (Tonkean) -->
    <g transform="translate(300.285153 23.94) scale(0.2 -0.2)">
     <defs>
      <path id="TimesNewRomanPS-BoldMT-45" d="M 1744 3994 
L 1744 2269 
L 1828 2269 
Q 2231 2269 2412 2522 
Q 2594 2775 2644 3269 
L 2763 3269 
L 2763 1050 
L 2644 1050 
Q 2606 1413 2486 1644 
Q 2366 1875 2206 1954 
Q 2047 2034 1744 2034 
L 1744 841 
Q 1744 491 1773 412 
Q 1803 334 1884 284 
Q 1966 234 2147 234 
L 2400 234 
Q 2994 234 3351 509 
Q 3709 784 3866 1347 
L 3981 1347 
L 3791 0 
L 128 0 
L 128 116 
L 269 116 
Q 453 116 566 181 
Q 647 225 691 331 
Q 725 406 725 725 
L 725 3513 
Q 725 3800 709 3866 
Q 678 3975 594 4034 
Q 475 4122 269 4122 
L 128 4122 
L 128 4238 
L 3675 4238 
L 3675 2984 
L 3556 2984 
Q 3466 3444 3302 3644 
Q 3138 3844 2838 3938 
Q 2663 3994 2181 3994 
L 1744 3994 
z
" transform="scale(0.015625)"/>
      <path id="TimesNewRomanPS-BoldMT-72" d="M 1428 2922 
L 1428 2259 
Q 1719 2713 1937 2861 
Q 2156 3009 2359 3009 
Q 2534 3009 2639 2901 
Q 2744 2794 2744 2597 
Q 2744 2388 2642 2272 
Q 2541 2156 2397 2156 
Q 2231 2156 2109 2262 
Q 1988 2369 1966 2381 
Q 1934 2400 1894 2400 
Q 1803 2400 1722 2331 
Q 1594 2225 1528 2028 
Q 1428 1725 1428 1359 
L 1428 688 
L 1431 513 
Q 1431 334 1453 284 
Q 1491 200 1564 161 
Q 1638 122 1813 113 
L 1813 0 
L 234 0 
L 234 113 
Q 425 128 492 217 
Q 559 306 559 688 
L 559 2303 
Q 559 2553 534 2622 
Q 503 2709 443 2750 
Q 384 2791 234 2806 
L 234 2922 
L 1428 2922 
z
" transform="scale(0.015625)"/>
      <path id="TimesNewRomanPS-BoldMT-69" d="M 919 4338 
Q 1122 4338 1262 4195 
Q 1403 4053 1403 3853 
Q 1403 3653 1261 3512 
Q 1119 3372 919 3372 
Q 719 3372 578 3512 
Q 438 3653 438 3853 
Q 438 4053 578 4195 
Q 719 4338 919 4338 
z
M 1356 2922 
L 1356 606 
Q 1356 297 1428 211 
Q 1500 125 1709 113 
L 1709 0 
L 131 0 
L 131 113 
Q 325 119 419 225 
Q 481 297 481 606 
L 481 2313 
Q 481 2622 409 2708 
Q 338 2794 131 2806 
L 131 2922 
L 1356 2922 
z
" transform="scale(0.015625)"/>
      <path id="TimesNewRomanPS-BoldMT-63" d="M 2600 753 
L 2697 678 
Q 2491 291 2183 101 
Q 1875 -88 1528 -88 
Q 944 -88 594 353 
Q 244 794 244 1413 
Q 244 2009 563 2463 
Q 947 3009 1622 3009 
Q 2075 3009 2342 2781 
Q 2609 2553 2609 2272 
Q 2609 2094 2501 1987 
Q 2394 1881 2219 1881 
Q 2034 1881 1914 2003 
Q 1794 2125 1766 2438 
Q 1747 2634 1675 2713 
Q 1603 2791 1506 2791 
Q 1356 2791 1250 2631 
Q 1088 2391 1088 1894 
Q 1088 1481 1219 1104 
Q 1350 728 1578 544 
Q 1750 409 1984 409 
Q 2138 409 2275 481 
Q 2413 553 2600 753 
z
" transform="scale(0.015625)"/>
      <path id="TimesNewRomanPS-BoldMT-20" transform="scale(0.015625)"/>
      <path id="TimesNewRomanPS-BoldMT-28" d="M 2056 4334 
L 2056 4191 
Q 1731 3978 1578 3775 
Q 1366 3494 1247 3053 
Q 1097 2506 1097 1525 
Q 1097 600 1233 87 
Q 1369 -425 1603 -741 
Q 1766 -959 2056 -1125 
L 2056 -1281 
Q 1303 -1028 779 -248 
Q 256 531 256 1544 
Q 256 2544 778 3314 
Q 1300 4084 2056 4334 
z
" transform="scale(0.015625)"/>
      <path id="TimesNewRomanPS-BoldMT-54" d="M 4038 4238 
L 4038 3091 
L 3925 3091 
Q 3825 3488 3703 3661 
Q 3581 3834 3369 3938 
Q 3250 3994 2953 3994 
L 2638 3994 
L 2638 725 
Q 2638 400 2673 319 
Q 2709 238 2814 177 
Q 2919 116 3100 116 
L 3241 116 
L 3241 0 
L 1022 0 
L 1022 116 
L 1163 116 
Q 1347 116 1459 181 
Q 1541 225 1588 331 
Q 1622 406 1622 725 
L 1622 3994 
L 1316 3994 
Q 888 3994 694 3813 
Q 422 3559 350 3091 
L 231 3091 
L 231 4238 
L 4038 4238 
z
" transform="scale(0.015625)"/>
      <path id="TimesNewRomanPS-BoldMT-6f" d="M 1594 3009 
Q 1975 3009 2303 2812 
Q 2631 2616 2801 2253 
Q 2972 1891 2972 1459 
Q 2972 838 2656 419 
Q 2275 -88 1603 -88 
Q 944 -88 587 375 
Q 231 838 231 1447 
Q 231 2075 595 2542 
Q 959 3009 1594 3009 
z
M 1606 2788 
Q 1447 2788 1333 2667 
Q 1219 2547 1183 2192 
Q 1147 1838 1147 1206 
Q 1147 872 1191 581 
Q 1225 359 1337 243 
Q 1450 128 1594 128 
Q 1734 128 1828 206 
Q 1950 313 1991 503 
Q 2053 800 2053 1703 
Q 2053 2234 1993 2432 
Q 1934 2631 1819 2722 
Q 1738 2788 1606 2788 
z
" transform="scale(0.015625)"/>
      <path id="TimesNewRomanPS-BoldMT-6e" d="M 1409 2922 
L 1409 2544 
Q 1634 2788 1840 2898 
Q 2047 3009 2284 3009 
Q 2569 3009 2756 2851 
Q 2944 2694 3006 2459 
Q 3056 2281 3056 1775 
L 3056 638 
Q 3056 300 3117 217 
Q 3178 134 3372 113 
L 3372 0 
L 1894 0 
L 1894 113 
Q 2059 134 2131 250 
Q 2181 328 2181 638 
L 2181 1938 
Q 2181 2297 2153 2390 
Q 2125 2484 2058 2536 
Q 1991 2588 1909 2588 
Q 1641 2588 1409 2203 
L 1409 638 
Q 1409 309 1470 221 
Q 1531 134 1697 113 
L 1697 0 
L 219 0 
L 219 113 
Q 403 131 481 231 
Q 534 300 534 638 
L 534 2288 
Q 534 2619 473 2700 
Q 413 2781 219 2806 
L 219 2922 
L 1409 2922 
z
" transform="scale(0.015625)"/>
      <path id="TimesNewRomanPS-BoldMT-6b" d="M 1403 4238 
L 1403 1450 
L 2081 2116 
Q 2291 2319 2342 2409 
Q 2394 2500 2394 2584 
Q 2394 2669 2325 2725 
Q 2256 2781 2056 2806 
L 2056 2922 
L 3366 2922 
L 3366 2806 
Q 3178 2797 3037 2717 
Q 2897 2638 2488 2238 
L 2169 1925 
L 2856 919 
Q 3272 306 3350 231 
Q 3456 125 3619 113 
L 3619 0 
L 2109 0 
L 2109 113 
Q 2209 113 2254 150 
Q 2300 188 2300 231 
Q 2300 303 2169 497 
L 1591 1344 
L 1403 1159 
L 1403 634 
Q 1403 300 1465 217 
Q 1528 134 1722 113 
L 1722 0 
L 213 0 
L 213 113 
Q 397 131 475 231 
Q 528 300 528 634 
L 528 3603 
Q 528 3934 467 4015 
Q 406 4097 213 4122 
L 213 4238 
L 1403 4238 
z
" transform="scale(0.015625)"/>
      <path id="TimesNewRomanPS-BoldMT-65" d="M 2691 1566 
L 1088 1566 
Q 1116 984 1397 647 
Q 1613 388 1916 388 
Q 2103 388 2256 492 
Q 2409 597 2584 869 
L 2691 800 
Q 2453 316 2165 114 
Q 1878 -88 1500 -88 
Q 850 -88 516 413 
Q 247 816 247 1413 
Q 247 2144 642 2576 
Q 1038 3009 1569 3009 
Q 2013 3009 2339 2645 
Q 2666 2281 2691 1566 
z
M 1922 1775 
Q 1922 2278 1867 2465 
Q 1813 2653 1697 2750 
Q 1631 2806 1522 2806 
Q 1359 2806 1256 2647 
Q 1072 2369 1072 1884 
L 1072 1775 
L 1922 1775 
z
" transform="scale(0.015625)"/>
      <path id="TimesNewRomanPS-BoldMT-61" d="M 1828 431 
Q 1294 -41 869 -41 
Q 619 -41 453 123 
Q 288 288 288 534 
Q 288 869 575 1136 
Q 863 1403 1828 1847 
L 1828 2141 
Q 1828 2472 1792 2558 
Q 1756 2644 1656 2708 
Q 1556 2772 1431 2772 
Q 1228 2772 1097 2681 
Q 1016 2625 1016 2550 
Q 1016 2484 1103 2388 
Q 1222 2253 1222 2128 
Q 1222 1975 1108 1867 
Q 994 1759 809 1759 
Q 613 1759 480 1878 
Q 347 1997 347 2156 
Q 347 2381 525 2586 
Q 703 2791 1022 2900 
Q 1341 3009 1684 3009 
Q 2100 3009 2342 2832 
Q 2584 2656 2656 2450 
Q 2700 2319 2700 1847 
L 2700 713 
Q 2700 513 2715 461 
Q 2731 409 2762 384 
Q 2794 359 2834 359 
Q 2916 359 3000 475 
L 3094 400 
Q 2938 169 2770 64 
Q 2603 -41 2391 -41 
Q 2141 -41 2000 76 
Q 1859 194 1828 431 
z
M 1828 659 
L 1828 1638 
Q 1450 1416 1266 1163 
Q 1144 994 1144 822 
Q 1144 678 1247 569 
Q 1325 484 1466 484 
Q 1622 484 1828 659 
z
" transform="scale(0.015625)"/>
      <path id="TimesNewRomanPS-BoldMT-29" d="M 78 -1281 
L 78 -1138 
Q 403 -922 556 -719 
Q 766 -438 888 0 
Q 1038 550 1038 1531 
Q 1038 2456 902 2967 
Q 766 3478 531 3794 
Q 369 4013 78 4178 
L 78 4334 
Q 831 4081 1354 3301 
Q 1878 2522 1878 1509 
Q 1878 513 1354 -257 
Q 831 -1028 78 -1281 
z
" transform="scale(0.015625)"/>
     </defs>
     <use xlink:href="#TimesNewRomanPS-BoldMT-45"/>
     <use xlink:href="#TimesNewRomanPS-BoldMT-72" transform="translate(66.699219 0)"/>
     <use xlink:href="#TimesNewRomanPS-BoldMT-69" transform="translate(111.083984 0)"/>
     <use xlink:href="#TimesNewRomanPS-BoldMT-63" transform="translate(138.867188 0)"/>
     <use xlink:href="#TimesNewRomanPS-BoldMT-20" transform="translate(183.251953 0)"/>
     <use xlink:href="#TimesNewRomanPS-BoldMT-28" transform="translate(208.251953 0)"/>
     <use xlink:href="#TimesNewRomanPS-BoldMT-54" transform="translate(241.552734 0)"/>
     <use xlink:href="#TimesNewRomanPS-BoldMT-6f" transform="translate(299.126953 0)"/>
     <use xlink:href="#TimesNewRomanPS-BoldMT-6e" transform="translate(349.126953 0)"/>
     <use xlink:href="#TimesNewRomanPS-BoldMT-6b" transform="translate(404.742188 0)"/>
     <use xlink:href="#TimesNewRomanPS-BoldMT-65" transform="translate(460.357422 0)"/>
     <use xlink:href="#TimesNewRomanPS-BoldMT-61" transform="translate(504.742188 0)"/>
     <use xlink:href="#TimesNewRomanPS-BoldMT-6e" transform="translate(554.742188 0)"/>
     <use xlink:href="#TimesNewRomanPS-BoldMT-29" transform="translate(610.357422 0)"/>
    </g>
   </g>
   <g id="legend_1">
    <g id="patch_7">
     <path d="M 67.05 94.49625 
L 152.946875 94.49625 
Q 154.946875 94.49625 154.946875 92.49625 
L 154.946875 36.94 
Q 154.946875 34.94 152.946875 34.94 
L 67.05 34.94 
Q 65.05 34.94 65.05 36.94 
L 65.05 92.49625 
Q 65.05 94.49625 67.05 94.49625 
z
" style="fill: #ffffff; opacity: 0.8; stroke: #cccccc; stroke-linejoin: miter"/>
    </g>
    <g id="patch_8">
     <path d="M 69.05 45.94 
L 89.05 45.94 
L 89.05 38.94 
L 69.05 38.94 
z
" style="fill: #5386b6"/>
    </g>
    <g id="text_12">
     <!-- Success -->
     <g transform="translate(97.05 45.94) scale(0.1 -0.1)">
      <use xlink:href="#TimesNewRomanPSMT-53"/>
      <use xlink:href="#TimesNewRomanPSMT-75" transform="translate(55.615234 0)"/>
      <use xlink:href="#TimesNewRomanPSMT-63" transform="translate(105.615234 0)"/>
      <use xlink:href="#TimesNewRomanPSMT-63" transform="translate(150 0)"/>
      <use xlink:href="#TimesNewRomanPSMT-65" transform="translate(194.384766 0)"/>
      <use xlink:href="#TimesNewRomanPSMT-73" transform="translate(238.769531 0)"/>
      <use xlink:href="#TimesNewRomanPSMT-73" transform="translate(277.685547 0)"/>
     </g>
    </g>
    <g id="patch_9">
     <path d="M 69.05 60.079062 
L 89.05 60.079062 
L 89.05 53.079062 
L 69.05 53.079062 
z
" style="fill: #d57459"/>
    </g>
    <g id="text_13">
     <!-- Error -->
     <g transform="translate(97.05 60.079062) scale(0.1 -0.1)">
      <defs>
       <path id="TimesNewRomanPSMT-45" d="M 1338 4006 
L 1338 2331 
L 2269 2331 
Q 2631 2331 2753 2441 
Q 2916 2584 2934 2947 
L 3050 2947 
L 3050 1472 
L 2934 1472 
Q 2891 1781 2847 1869 
Q 2791 1978 2662 2040 
Q 2534 2103 2269 2103 
L 1338 2103 
L 1338 706 
Q 1338 425 1363 364 
Q 1388 303 1450 267 
Q 1513 231 1688 231 
L 2406 231 
Q 2766 231 2928 281 
Q 3091 331 3241 478 
Q 3434 672 3638 1063 
L 3763 1063 
L 3397 0 
L 131 0 
L 131 116 
L 281 116 
Q 431 116 566 188 
Q 666 238 702 338 
Q 738 438 738 747 
L 738 3500 
Q 738 3903 656 3997 
Q 544 4122 281 4122 
L 131 4122 
L 131 4238 
L 3397 4238 
L 3444 3309 
L 3322 3309 
Q 3256 3644 3176 3769 
Q 3097 3894 2941 3959 
Q 2816 4006 2500 4006 
L 1338 4006 
z
" transform="scale(0.015625)"/>
      </defs>
      <use xlink:href="#TimesNewRomanPSMT-45"/>
      <use xlink:href="#TimesNewRomanPSMT-72" transform="translate(61.083984 0)"/>
      <use xlink:href="#TimesNewRomanPSMT-72" transform="translate(94.384766 0)"/>
      <use xlink:href="#TimesNewRomanPSMT-6f" transform="translate(127.685547 0)"/>
      <use xlink:href="#TimesNewRomanPSMT-72" transform="translate(177.685547 0)"/>
     </g>
    </g>
    <g id="patch_10">
     <path d="M 69.05 74.218125 
L 89.05 74.218125 
L 89.05 67.218125 
L 69.05 67.218125 
z
" style="fill: #e8bc60"/>
    </g>
    <g id="text_14">
     <!-- Premature -->
     <g transform="translate(97.05 74.218125) scale(0.1 -0.1)">
      <defs>
       <path id="TimesNewRomanPSMT-6d" d="M 1050 2338 
Q 1363 2650 1419 2697 
Q 1559 2816 1721 2881 
Q 1884 2947 2044 2947 
Q 2313 2947 2506 2790 
Q 2700 2634 2766 2338 
Q 3088 2713 3309 2830 
Q 3531 2947 3766 2947 
Q 3994 2947 4170 2830 
Q 4347 2713 4450 2447 
Q 4519 2266 4519 1878 
L 4519 647 
Q 4519 378 4559 278 
Q 4591 209 4675 161 
Q 4759 113 4950 113 
L 4950 0 
L 3538 0 
L 3538 113 
L 3597 113 
Q 3781 113 3884 184 
Q 3956 234 3988 344 
Q 4000 397 4000 647 
L 4000 1878 
Q 4000 2228 3916 2372 
Q 3794 2572 3525 2572 
Q 3359 2572 3192 2489 
Q 3025 2406 2788 2181 
L 2781 2147 
L 2788 2013 
L 2788 647 
Q 2788 353 2820 281 
Q 2853 209 2943 161 
Q 3034 113 3253 113 
L 3253 0 
L 1806 0 
L 1806 113 
Q 2044 113 2133 169 
Q 2222 225 2256 338 
Q 2272 391 2272 647 
L 2272 1878 
Q 2272 2228 2169 2381 
Q 2031 2581 1784 2581 
Q 1616 2581 1450 2491 
Q 1191 2353 1050 2181 
L 1050 647 
Q 1050 366 1089 281 
Q 1128 197 1204 155 
Q 1281 113 1516 113 
L 1516 0 
L 100 0 
L 100 113 
Q 297 113 375 155 
Q 453 197 493 289 
Q 534 381 534 647 
L 534 1741 
Q 534 2213 506 2350 
Q 484 2453 437 2492 
Q 391 2531 309 2531 
Q 222 2531 100 2484 
L 53 2597 
L 916 2947 
L 1050 2947 
L 1050 2338 
z
" transform="scale(0.015625)"/>
      </defs>
      <use xlink:href="#TimesNewRomanPSMT-50"/>
      <use xlink:href="#TimesNewRomanPSMT-72" transform="translate(55.615234 0)"/>
      <use xlink:href="#TimesNewRomanPSMT-65" transform="translate(88.916016 0)"/>
      <use xlink:href="#TimesNewRomanPSMT-6d" transform="translate(133.300781 0)"/>
      <use xlink:href="#TimesNewRomanPSMT-61" transform="translate(211.083984 0)"/>
      <use xlink:href="#TimesNewRomanPSMT-74" transform="translate(255.46875 0)"/>
      <use xlink:href="#TimesNewRomanPSMT-75" transform="translate(283.251953 0)"/>
      <use xlink:href="#TimesNewRomanPSMT-72" transform="translate(333.251953 0)"/>
      <use xlink:href="#TimesNewRomanPSMT-65" transform="translate(366.552734 0)"/>
     </g>
    </g>
    <g id="patch_11">
     <path d="M 69.05 88.357187 
L 89.05 88.357187 
L 89.05 81.357187 
L 69.05 81.357187 
z
" style="fill: #8d5993"/>
    </g>
    <g id="text_15">
     <!-- Stepomission -->
     <g transform="translate(97.05 88.357187) scale(0.1 -0.1)">
      <use xlink:href="#TimesNewRomanPSMT-53"/>
      <use xlink:href="#TimesNewRomanPSMT-74" transform="translate(55.615234 0)"/>
      <use xlink:href="#TimesNewRomanPSMT-65" transform="translate(83.398438 0)"/>
      <use xlink:href="#TimesNewRomanPSMT-70" transform="translate(127.783203 0)"/>
      <use xlink:href="#TimesNewRomanPSMT-6f" transform="translate(177.783203 0)"/>
      <use xlink:href="#TimesNewRomanPSMT-6d" transform="translate(227.783203 0)"/>
      <use xlink:href="#TimesNewRomanPSMT-69" transform="translate(305.566406 0)"/>
      <use xlink:href="#TimesNewRomanPSMT-73" transform="translate(333.349609 0)"/>
      <use xlink:href="#TimesNewRomanPSMT-73" transform="translate(372.265625 0)"/>
      <use xlink:href="#TimesNewRomanPSMT-69" transform="translate(411.181641 0)"/>
      <use xlink:href="#TimesNewRomanPSMT-6f" transform="translate(438.964844 0)"/>
      <use xlink:href="#TimesNewRomanPSMT-6e" transform="translate(488.964844 0)"/>
     </g>
    </g>
   </g>
  </g>
  <g id="axes_2">
   <g id="patch_12">
    <path d="M 60.05 675.16 
L 669.251556 675.16 
L 669.251556 529.085 
L 60.05 529.085 
z
" style="fill: #ffffff"/>
   </g>
   <g id="matplotlib.axis_3">
    <g id="xtick_6">
     <g id="line2d_16">
      <path d="M 115.43196 675.16 
L 115.43196 529.085 
" clip-path="url(#pc9616c6f0c)" style="fill: none; stroke-dasharray: 2.96,1.28; stroke-dashoffset: 0; stroke: #b0b0b0; stroke-opacity: 0.5; stroke-width: 0.8"/>
     </g>
     <g id="line2d_17">
      <g>
       <use xlink:href="#m2ebf5afe94" x="115.43196" y="675.16" style="stroke: #000000; stroke-width: 0.8"/>
      </g>
     </g>
     <g id="text_16">
      <!-- 2020-05 -->
      <g transform="translate(94.540553 689.758437) scale(0.1 -0.1)">
       <defs>
        <path id="DejaVuSans-2d" d="M 313 2009 
L 1997 2009 
L 1997 1497 
L 313 1497 
L 313 2009 
z
" transform="scale(0.015625)"/>
       </defs>
       <use xlink:href="#DejaVuSans-32"/>
       <use xlink:href="#DejaVuSans-30" transform="translate(63.623047 0)"/>
       <use xlink:href="#DejaVuSans-32" transform="translate(127.246094 0)"/>
       <use xlink:href="#DejaVuSans-30" transform="translate(190.869141 0)"/>
       <use xlink:href="#DejaVuSans-2d" transform="translate(254.492188 0)"/>
       <use xlink:href="#DejaVuSans-30" transform="translate(290.576172 0)"/>
       <use xlink:href="#DejaVuSans-35" transform="translate(354.199219 0)"/>
      </g>
     </g>
    </g>
    <g id="xtick_7">
     <g id="line2d_18">
      <path d="M 336.959798 675.16 
L 336.959798 529.085 
" clip-path="url(#pc9616c6f0c)" style="fill: none; stroke-dasharray: 2.96,1.28; stroke-dashoffset: 0; stroke: #b0b0b0; stroke-opacity: 0.5; stroke-width: 0.8"/>
     </g>
     <g id="line2d_19">
      <g>
       <use xlink:href="#m2ebf5afe94" x="336.959798" y="675.16" style="stroke: #000000; stroke-width: 0.8"/>
      </g>
     </g>
     <g id="text_17">
      <!-- 2020-05 -->
      <g transform="translate(316.068392 689.758437) scale(0.1 -0.1)">
       <use xlink:href="#DejaVuSans-32"/>
       <use xlink:href="#DejaVuSans-30" transform="translate(63.623047 0)"/>
       <use xlink:href="#DejaVuSans-32" transform="translate(127.246094 0)"/>
       <use xlink:href="#DejaVuSans-30" transform="translate(190.869141 0)"/>
       <use xlink:href="#DejaVuSans-2d" transform="translate(254.492188 0)"/>
       <use xlink:href="#DejaVuSans-30" transform="translate(290.576172 0)"/>
       <use xlink:href="#DejaVuSans-35" transform="translate(354.199219 0)"/>
      </g>
     </g>
    </g>
    <g id="xtick_8">
     <g id="line2d_20">
      <path d="M 558.487637 675.16 
L 558.487637 529.085 
" clip-path="url(#pc9616c6f0c)" style="fill: none; stroke-dasharray: 2.96,1.28; stroke-dashoffset: 0; stroke: #b0b0b0; stroke-opacity: 0.5; stroke-width: 0.8"/>
     </g>
     <g id="line2d_21">
      <g>
       <use xlink:href="#m2ebf5afe94" x="558.487637" y="675.16" style="stroke: #000000; stroke-width: 0.8"/>
      </g>
     </g>
     <g id="text_18">
      <!-- 2020-05 -->
      <g transform="translate(537.596231 689.758437) scale(0.1 -0.1)">
       <use xlink:href="#DejaVuSans-32"/>
       <use xlink:href="#DejaVuSans-30" transform="translate(63.623047 0)"/>
       <use xlink:href="#DejaVuSans-32" transform="translate(127.246094 0)"/>
       <use xlink:href="#DejaVuSans-30" transform="translate(190.869141 0)"/>
       <use xlink:href="#DejaVuSans-2d" transform="translate(254.492188 0)"/>
       <use xlink:href="#DejaVuSans-30" transform="translate(290.576172 0)"/>
       <use xlink:href="#DejaVuSans-35" transform="translate(354.199219 0)"/>
      </g>
     </g>
    </g>
    <g id="text_19">
     <!-- Date -->
     <g transform="translate(351.436091 705.559375) scale(0.14 -0.14)">
      <defs>
       <path id="TimesNewRomanPSMT-44" d="M 109 0 
L 109 116 
L 269 116 
Q 538 116 650 288 
Q 719 391 719 750 
L 719 3488 
Q 719 3884 631 3984 
Q 509 4122 269 4122 
L 109 4122 
L 109 4238 
L 1834 4238 
Q 2784 4238 3279 4022 
Q 3775 3806 4076 3303 
Q 4378 2800 4378 2141 
Q 4378 1256 3841 663 
Q 3238 0 2003 0 
L 109 0 
z
M 1319 306 
Q 1716 219 1984 219 
Q 2709 219 3187 728 
Q 3666 1238 3666 2109 
Q 3666 2988 3187 3494 
Q 2709 4000 1959 4000 
Q 1678 4000 1319 3909 
L 1319 306 
z
" transform="scale(0.015625)"/>
      </defs>
      <use xlink:href="#TimesNewRomanPSMT-44"/>
      <use xlink:href="#TimesNewRomanPSMT-61" transform="translate(72.216797 0)"/>
      <use xlink:href="#TimesNewRomanPSMT-74" transform="translate(116.601562 0)"/>
      <use xlink:href="#TimesNewRomanPSMT-65" transform="translate(144.384766 0)"/>
     </g>
    </g>
   </g>
   <g id="matplotlib.axis_4">
    <g id="ytick_3">
     <g id="line2d_22">
      <path d="M 60.05 657.453939 
L 669.251556 657.453939 
" clip-path="url(#pc9616c6f0c)" style="fill: none; stroke-dasharray: 2.96,1.28; stroke-dashoffset: 0; stroke: #b0b0b0; stroke-opacity: 0.5; stroke-width: 0.8"/>
     </g>
     <g id="line2d_23">
      <g>
       <use xlink:href="#ma4ebcaaf5c" x="60.05" y="657.453939" style="stroke: #000000; stroke-width: 0.8"/>
      </g>
     </g>
     <g id="text_20">
      <!-- 700 -->
      <g transform="translate(33.9625 661.253158) scale(0.1 -0.1)">
       <defs>
        <path id="DejaVuSans-37" d="M 525 4666 
L 3525 4666 
L 3525 4397 
L 1831 0 
L 1172 0 
L 2766 4134 
L 525 4134 
L 525 4666 
z
" transform="scale(0.015625)"/>
       </defs>
       <use xlink:href="#DejaVuSans-37"/>
       <use xlink:href="#DejaVuSans-30" transform="translate(63.623047 0)"/>
       <use xlink:href="#DejaVuSans-30" transform="translate(127.246094 0)"/>
      </g>
     </g>
    </g>
    <g id="ytick_4">
     <g id="line2d_24">
      <path d="M 60.05 602.1225 
L 669.251556 602.1225 
" clip-path="url(#pc9616c6f0c)" style="fill: none; stroke-dasharray: 2.96,1.28; stroke-dashoffset: 0; stroke: #b0b0b0; stroke-opacity: 0.5; stroke-width: 0.8"/>
     </g>
     <g id="line2d_25">
      <g>
       <use xlink:href="#ma4ebcaaf5c" x="60.05" y="602.1225" style="stroke: #000000; stroke-width: 0.8"/>
      </g>
     </g>
     <g id="text_21">
      <!-- 1000 -->
      <g transform="translate(27.6 605.921719) scale(0.1 -0.1)">
       <use xlink:href="#DejaVuSans-31"/>
       <use xlink:href="#DejaVuSans-30" transform="translate(63.623047 0)"/>
       <use xlink:href="#DejaVuSans-30" transform="translate(127.246094 0)"/>
       <use xlink:href="#DejaVuSans-30" transform="translate(190.869141 0)"/>
      </g>
     </g>
    </g>
    <g id="ytick_5">
     <g id="line2d_26">
      <path d="M 60.05 546.791061 
L 669.251556 546.791061 
" clip-path="url(#pc9616c6f0c)" style="fill: none; stroke-dasharray: 2.96,1.28; stroke-dashoffset: 0; stroke: #b0b0b0; stroke-opacity: 0.5; stroke-width: 0.8"/>
     </g>
     <g id="line2d_27">
      <g>
       <use xlink:href="#ma4ebcaaf5c" x="60.05" y="546.791061" style="stroke: #000000; stroke-width: 0.8"/>
      </g>
     </g>
     <g id="text_22">
      <!-- 1300 -->
      <g transform="translate(27.6 550.590279) scale(0.1 -0.1)">
       <defs>
        <path id="DejaVuSans-33" d="M 2597 2516 
Q 3050 2419 3304 2112 
Q 3559 1806 3559 1356 
Q 3559 666 3084 287 
Q 2609 -91 1734 -91 
Q 1441 -91 1130 -33 
Q 819 25 488 141 
L 488 750 
Q 750 597 1062 519 
Q 1375 441 1716 441 
Q 2309 441 2620 675 
Q 2931 909 2931 1356 
Q 2931 1769 2642 2001 
Q 2353 2234 1838 2234 
L 1294 2234 
L 1294 2753 
L 1863 2753 
Q 2328 2753 2575 2939 
Q 2822 3125 2822 3475 
Q 2822 3834 2567 4026 
Q 2313 4219 1838 4219 
Q 1578 4219 1281 4162 
Q 984 4106 628 3988 
L 628 4550 
Q 988 4650 1302 4700 
Q 1616 4750 1894 4750 
Q 2613 4750 3031 4423 
Q 3450 4097 3450 3541 
Q 3450 3153 3228 2886 
Q 3006 2619 2597 2516 
z
" transform="scale(0.015625)"/>
       </defs>
       <use xlink:href="#DejaVuSans-31"/>
       <use xlink:href="#DejaVuSans-33" transform="translate(63.623047 0)"/>
       <use xlink:href="#DejaVuSans-30" transform="translate(127.246094 0)"/>
       <use xlink:href="#DejaVuSans-30" transform="translate(190.869141 0)"/>
      </g>
     </g>
    </g>
    <g id="text_23">
     <!-- Elo -->
     <g transform="translate(20.605313 611.842656) rotate(-90) scale(0.14 -0.14)">
      <defs>
       <path id="TimesNewRomanPSMT-6c" d="M 1184 4444 
L 1184 647 
Q 1184 378 1223 290 
Q 1263 203 1344 158 
Q 1425 113 1647 113 
L 1647 0 
L 244 0 
L 244 113 
Q 441 113 512 153 
Q 584 194 625 287 
Q 666 381 666 647 
L 666 3247 
Q 666 3731 644 3842 
Q 622 3953 573 3993 
Q 525 4034 450 4034 
Q 369 4034 244 3984 
L 191 4094 
L 1044 4444 
L 1184 4444 
z
" transform="scale(0.015625)"/>
      </defs>
      <use xlink:href="#TimesNewRomanPSMT-45"/>
      <use xlink:href="#TimesNewRomanPSMT-6c" transform="translate(61.083984 0)"/>
      <use xlink:href="#TimesNewRomanPSMT-6f" transform="translate(88.867188 0)"/>
     </g>
    </g>
   </g>
   <g id="line2d_28">
    <path d="M 60.05 667.044722 
L 115.43196 666.491408 
L 170.813919 668.335789 
L 226.195879 667.782475 
L 281.577839 667.598037 
L 336.959798 668.151351 
L 392.341758 668.520227 
L 447.723718 667.782475 
L 503.105677 668.335789 
L 558.487637 670.917923 
L 613.869597 671.471237 
L 669.251556 671.471237 
" clip-path="url(#pc9616c6f0c)" style="fill: none; stroke: #ffd700; stroke-width: 2; stroke-linecap: square"/>
   </g>
   <g id="patch_13">
    <path d="M 60.05 675.16 
L 60.05 529.085 
" style="fill: none; stroke: #000000; stroke-width: 0.8; stroke-linejoin: miter; stroke-linecap: square"/>
   </g>
   <g id="patch_14">
    <path d="M 669.251556 675.16 
L 669.251556 529.085 
" style="fill: none; stroke: #000000; stroke-width: 0.8; stroke-linejoin: miter; stroke-linecap: square"/>
   </g>
   <g id="patch_15">
    <path d="M 60.05 675.16 
L 669.251556 675.16 
" style="fill: none; stroke: #000000; stroke-width: 0.8; stroke-linejoin: miter; stroke-linecap: square"/>
   </g>
   <g id="patch_16">
    <path d="M 60.05 529.085 
L 669.251556 529.085 
" style="fill: none; stroke: #000000; stroke-width: 0.8; stroke-linejoin: miter; stroke-linecap: square"/>
   </g>
   <g id="text_24">
    <!-- Hierarchy -->
    <g transform="translate(329.692028 523.085) scale(0.16 -0.16)">
     <defs>
      <path id="TimesNewRomanPS-BoldMT-48" d="M 1750 2038 
L 1750 725 
Q 1750 400 1786 319 
Q 1822 238 1926 177 
Q 2031 116 2209 116 
L 2350 116 
L 2350 0 
L 134 0 
L 134 116 
L 275 116 
Q 459 116 572 181 
Q 653 225 697 331 
Q 731 406 731 725 
L 731 3513 
Q 731 3838 697 3919 
Q 663 4000 558 4061 
Q 453 4122 275 4122 
L 134 4122 
L 134 4238 
L 2350 4238 
L 2350 4122 
L 2209 4122 
Q 2025 4122 1913 4056 
Q 1831 4013 1784 3906 
Q 1750 3831 1750 3513 
L 1750 2313 
L 3247 2313 
L 3247 3513 
Q 3247 3838 3212 3919 
Q 3178 4000 3072 4061 
Q 2966 4122 2788 4122 
L 2650 4122 
L 2650 4238 
L 4863 4238 
L 4863 4122 
L 4725 4122 
Q 4538 4122 4428 4056 
Q 4347 4013 4300 3906 
Q 4266 3831 4266 3513 
L 4266 725 
Q 4266 400 4300 319 
Q 4334 238 4440 177 
Q 4547 116 4725 116 
L 4863 116 
L 4863 0 
L 2650 0 
L 2650 116 
L 2788 116 
Q 2975 116 3084 181 
Q 3166 225 3213 331 
Q 3247 406 3247 725 
L 3247 2038 
L 1750 2038 
z
" transform="scale(0.015625)"/>
      <path id="TimesNewRomanPS-BoldMT-68" d="M 1409 4238 
L 1409 2547 
Q 1650 2800 1850 2904 
Q 2050 3009 2266 3009 
Q 2541 3009 2736 2853 
Q 2931 2697 2995 2486 
Q 3059 2275 3059 1775 
L 3059 634 
Q 3059 300 3121 217 
Q 3184 134 3375 113 
L 3375 0 
L 1894 0 
L 1894 113 
Q 2050 134 2128 238 
Q 2184 319 2184 634 
L 2184 1938 
Q 2184 2300 2156 2392 
Q 2128 2484 2061 2536 
Q 1994 2588 1909 2588 
Q 1784 2588 1665 2502 
Q 1547 2416 1409 2200 
L 1409 634 
Q 1409 322 1456 244 
Q 1516 138 1700 113 
L 1700 0 
L 219 0 
L 219 113 
Q 403 131 481 231 
Q 534 300 534 634 
L 534 3603 
Q 534 3934 473 4015 
Q 413 4097 219 4122 
L 219 4238 
L 1409 4238 
z
" transform="scale(0.015625)"/>
      <path id="TimesNewRomanPS-BoldMT-79" d="M 1556 -119 
L 613 2047 
Q 400 2538 298 2650 
Q 197 2763 53 2806 
L 53 2922 
L 1606 2922 
L 1606 2806 
Q 1453 2800 1390 2747 
Q 1328 2694 1328 2619 
Q 1328 2500 1484 2150 
L 1984 1006 
L 2325 1891 
Q 2509 2363 2509 2547 
Q 2509 2663 2432 2731 
Q 2356 2800 2163 2806 
L 2163 2922 
L 3141 2922 
L 3141 2806 
Q 2997 2791 2906 2695 
Q 2816 2600 2603 2047 
L 1769 -119 
Q 1453 -931 1300 -1119 
Q 1084 -1381 759 -1381 
Q 500 -1381 339 -1232 
Q 178 -1084 178 -875 
Q 178 -694 289 -575 
Q 400 -456 563 -456 
Q 719 -456 814 -556 
Q 909 -656 913 -866 
Q 916 -984 941 -1019 
Q 966 -1053 1013 -1053 
Q 1088 -1053 1172 -963 
Q 1297 -831 1466 -363 
L 1556 -119 
z
" transform="scale(0.015625)"/>
     </defs>
     <use xlink:href="#TimesNewRomanPS-BoldMT-48"/>
     <use xlink:href="#TimesNewRomanPS-BoldMT-69" transform="translate(77.783203 0)"/>
     <use xlink:href="#TimesNewRomanPS-BoldMT-65" transform="translate(105.566406 0)"/>
     <use xlink:href="#TimesNewRomanPS-BoldMT-72" transform="translate(149.951172 0)"/>
     <use xlink:href="#TimesNewRomanPS-BoldMT-61" transform="translate(194.335938 0)"/>
     <use xlink:href="#TimesNewRomanPS-BoldMT-72" transform="translate(244.335938 0)"/>
     <use xlink:href="#TimesNewRomanPS-BoldMT-63" transform="translate(286.970703 0)"/>
     <use xlink:href="#TimesNewRomanPS-BoldMT-68" transform="translate(331.355469 0)"/>
     <use xlink:href="#TimesNewRomanPS-BoldMT-79" transform="translate(386.970703 0)"/>
    </g>
   </g>
  </g>
 </g>
 <defs>
  <clipPath id="p6d5a5b94dd">
   <rect x="60.05" y="29.94" width="609.201556" height="438.225"/>
  </clipPath>
  <clipPath id="pc9616c6f0c">
   <rect x="60.05" y="529.085" width="609.201556" height="146.075"/>
  </clipPath>
 </defs>
</svg>
