<?xml version="1.0" encoding="utf-8" standalone="no"?>
<!DOCTYPE svg PUBLIC "-//W3C//DTD SVG 1.1//EN"
  "http://www.w3.org/Graphics/SVG/1.1/DTD/svg11.dtd">
<svg xmlns:xlink="http://www.w3.org/1999/xlink" width="1152pt" height="504pt" viewBox="0 0 1152 504" xmlns="http://www.w3.org/2000/svg" version="1.1">
 <metadata>
  <rdf:RDF xmlns:dc="http://purl.org/dc/elements/1.1/" xmlns:cc="http://creativecommons.org/ns#" xmlns:rdf="http://www.w3.org/1999/02/22-rdf-syntax-ns#">
   <cc:Work>
    <dc:type rdf:resource="http://purl.org/dc/dcmitype/StillImage"/>
    <dc:date>2025-02-05T13:13:00.341094</dc:date>
    <dc:format>image/svg+xml</dc:format>
    <dc:creator>
     <cc:Agent>
      <dc:title>Matplotlib v3.9.3, https://matplotlib.org/</dc:title>
     </cc:Agent>
    </dc:creator>
   </cc:Work>
  </rdf:RDF>
 </metadata>
 <defs>
  <style type="text/css">*{stroke-linejoin: round; stroke-linecap: butt}</style>
 </defs>
 <g id="figure_1">
  <g id="patch_1">
   <path d="M 0 504 
L 1152 504 
L 1152 0 
L 0 0 
z
" style="fill: #ffffff"/>
  </g>
  <g id="axes_1">
   <g id="patch_2">
    <path d="M 71.352 449.028 
L 560.934 449.028 
L 560.934 98.664 
L 71.352 98.664 
z
" style="fill: #ffffff"/>
   </g>
   <g id="matplotlib.axis_1">
    <g id="xtick_1">
     <g id="line2d_1">
      <path d="M 71.352 449.028 
L 71.352 98.664 
" clip-path="url(#p76f3fd059a)" style="fill: none; stroke-dasharray: 3.7,1.6; stroke-dashoffset: 0; stroke: #cccccc"/>
     </g>
     <g id="text_1">
      <!-- 0 -->
      <g style="fill: #262626" transform="translate(67.681781 467.976313) scale(0.132 -0.132)">
       <defs>
        <path id="ArialMT-30" d="M 266 2259 
Q 266 3072 433 3567 
Q 600 4063 929 4331 
Q 1259 4600 1759 4600 
Q 2128 4600 2406 4451 
Q 2684 4303 2865 4023 
Q 3047 3744 3150 3342 
Q 3253 2941 3253 2259 
Q 3253 1453 3087 958 
Q 2922 463 2592 192 
Q 2263 -78 1759 -78 
Q 1097 -78 719 397 
Q 266 969 266 2259 
z
M 844 2259 
Q 844 1131 1108 757 
Q 1372 384 1759 384 
Q 2147 384 2411 759 
Q 2675 1134 2675 2259 
Q 2675 3391 2411 3762 
Q 2147 4134 1753 4134 
Q 1366 4134 1134 3806 
Q 844 3388 844 2259 
z
" transform="scale(0.015625)"/>
       </defs>
       <use xlink:href="#ArialMT-30"/>
      </g>
     </g>
    </g>
    <g id="xtick_2">
     <g id="line2d_2">
      <path d="M 169.2684 449.028 
L 169.2684 98.664 
" clip-path="url(#p76f3fd059a)" style="fill: none; stroke-dasharray: 3.7,1.6; stroke-dashoffset: 0; stroke: #cccccc"/>
     </g>
     <g id="text_2">
      <!-- 5 -->
      <g style="fill: #262626" transform="translate(165.598181 467.976313) scale(0.132 -0.132)">
       <defs>
        <path id="ArialMT-35" d="M 266 1200 
L 856 1250 
Q 922 819 1161 601 
Q 1400 384 1738 384 
Q 2144 384 2425 690 
Q 2706 997 2706 1503 
Q 2706 1984 2436 2262 
Q 2166 2541 1728 2541 
Q 1456 2541 1237 2417 
Q 1019 2294 894 2097 
L 366 2166 
L 809 4519 
L 3088 4519 
L 3088 3981 
L 1259 3981 
L 1013 2750 
Q 1425 3038 1878 3038 
Q 2478 3038 2890 2622 
Q 3303 2206 3303 1553 
Q 3303 931 2941 478 
Q 2500 -78 1738 -78 
Q 1113 -78 717 272 
Q 322 622 266 1200 
z
" transform="scale(0.015625)"/>
       </defs>
       <use xlink:href="#ArialMT-35"/>
      </g>
     </g>
    </g>
    <g id="xtick_3">
     <g id="line2d_3">
      <path d="M 267.1848 449.028 
L 267.1848 98.664 
" clip-path="url(#p76f3fd059a)" style="fill: none; stroke-dasharray: 3.7,1.6; stroke-dashoffset: 0; stroke: #cccccc"/>
     </g>
     <g id="text_3">
      <!-- 10 -->
      <g style="fill: #262626" transform="translate(259.844362 467.976313) scale(0.132 -0.132)">
       <defs>
        <path id="ArialMT-31" d="M 2384 0 
L 1822 0 
L 1822 3584 
Q 1619 3391 1289 3197 
Q 959 3003 697 2906 
L 697 3450 
Q 1169 3672 1522 3987 
Q 1875 4303 2022 4600 
L 2384 4600 
L 2384 0 
z
" transform="scale(0.015625)"/>
       </defs>
       <use xlink:href="#ArialMT-31"/>
       <use xlink:href="#ArialMT-30" x="55.615234"/>
      </g>
     </g>
    </g>
    <g id="xtick_4">
     <g id="line2d_4">
      <path d="M 365.1012 449.028 
L 365.1012 98.664 
" clip-path="url(#p76f3fd059a)" style="fill: none; stroke-dasharray: 3.7,1.6; stroke-dashoffset: 0; stroke: #cccccc"/>
     </g>
     <g id="text_4">
      <!-- 15 -->
      <g style="fill: #262626" transform="translate(357.760762 467.976313) scale(0.132 -0.132)">
       <use xlink:href="#ArialMT-31"/>
       <use xlink:href="#ArialMT-35" x="55.615234"/>
      </g>
     </g>
    </g>
    <g id="xtick_5">
     <g id="line2d_5">
      <path d="M 463.0176 449.028 
L 463.0176 98.664 
" clip-path="url(#p76f3fd059a)" style="fill: none; stroke-dasharray: 3.7,1.6; stroke-dashoffset: 0; stroke: #cccccc"/>
     </g>
     <g id="text_5">
      <!-- 20 -->
      <g style="fill: #262626" transform="translate(455.677162 467.976313) scale(0.132 -0.132)">
       <defs>
        <path id="ArialMT-32" d="M 3222 541 
L 3222 0 
L 194 0 
Q 188 203 259 391 
Q 375 700 629 1000 
Q 884 1300 1366 1694 
Q 2113 2306 2375 2664 
Q 2638 3022 2638 3341 
Q 2638 3675 2398 3904 
Q 2159 4134 1775 4134 
Q 1369 4134 1125 3890 
Q 881 3647 878 3216 
L 300 3275 
Q 359 3922 746 4261 
Q 1134 4600 1788 4600 
Q 2447 4600 2831 4234 
Q 3216 3869 3216 3328 
Q 3216 3053 3103 2787 
Q 2991 2522 2730 2228 
Q 2469 1934 1863 1422 
Q 1356 997 1212 845 
Q 1069 694 975 541 
L 3222 541 
z
" transform="scale(0.015625)"/>
       </defs>
       <use xlink:href="#ArialMT-32"/>
       <use xlink:href="#ArialMT-30" x="55.615234"/>
      </g>
     </g>
    </g>
    <g id="xtick_6">
     <g id="line2d_6">
      <path d="M 560.934 449.028 
L 560.934 98.664 
" clip-path="url(#p76f3fd059a)" style="fill: none; stroke-dasharray: 3.7,1.6; stroke-dashoffset: 0; stroke: #cccccc"/>
     </g>
     <g id="text_6">
      <!-- 25 -->
      <g style="fill: #262626" transform="translate(553.593562 467.976313) scale(0.132 -0.132)">
       <use xlink:href="#ArialMT-32"/>
       <use xlink:href="#ArialMT-35" x="55.615234"/>
      </g>
     </g>
    </g>
    <g id="text_7">
     <!-- Age -->
     <g style="fill: #262626" transform="translate(303.688469 484.62075) scale(0.14 -0.14)">
      <defs>
       <path id="ArialMT-41" d="M -9 0 
L 1750 4581 
L 2403 4581 
L 4278 0 
L 3588 0 
L 3053 1388 
L 1138 1388 
L 634 0 
L -9 0 
z
M 1313 1881 
L 2866 1881 
L 2388 3150 
Q 2169 3728 2063 4100 
Q 1975 3659 1816 3225 
L 1313 1881 
z
" transform="scale(0.015625)"/>
       <path id="ArialMT-67" d="M 319 -275 
L 866 -356 
Q 900 -609 1056 -725 
Q 1266 -881 1628 -881 
Q 2019 -881 2231 -725 
Q 2444 -569 2519 -288 
Q 2563 -116 2559 434 
Q 2191 0 1641 0 
Q 956 0 581 494 
Q 206 988 206 1678 
Q 206 2153 378 2554 
Q 550 2956 876 3175 
Q 1203 3394 1644 3394 
Q 2231 3394 2613 2919 
L 2613 3319 
L 3131 3319 
L 3131 450 
Q 3131 -325 2973 -648 
Q 2816 -972 2473 -1159 
Q 2131 -1347 1631 -1347 
Q 1038 -1347 672 -1080 
Q 306 -813 319 -275 
z
M 784 1719 
Q 784 1066 1043 766 
Q 1303 466 1694 466 
Q 2081 466 2343 764 
Q 2606 1063 2606 1700 
Q 2606 2309 2336 2618 
Q 2066 2928 1684 2928 
Q 1309 2928 1046 2623 
Q 784 2319 784 1719 
z
" transform="scale(0.015625)"/>
       <path id="ArialMT-65" d="M 2694 1069 
L 3275 997 
Q 3138 488 2766 206 
Q 2394 -75 1816 -75 
Q 1088 -75 661 373 
Q 234 822 234 1631 
Q 234 2469 665 2931 
Q 1097 3394 1784 3394 
Q 2450 3394 2872 2941 
Q 3294 2488 3294 1666 
Q 3294 1616 3291 1516 
L 816 1516 
Q 847 969 1125 678 
Q 1403 388 1819 388 
Q 2128 388 2347 550 
Q 2566 713 2694 1069 
z
M 847 1978 
L 2700 1978 
Q 2663 2397 2488 2606 
Q 2219 2931 1791 2931 
Q 1403 2931 1139 2672 
Q 875 2413 847 1978 
z
" transform="scale(0.015625)"/>
      </defs>
      <use xlink:href="#ArialMT-41"/>
      <use xlink:href="#ArialMT-67" x="66.699219"/>
      <use xlink:href="#ArialMT-65" x="122.314453"/>
     </g>
    </g>
   </g>
   <g id="matplotlib.axis_2">
    <g id="ytick_1">
     <g id="line2d_7">
      <path d="M 71.352 391.653829 
L 560.934 391.653829 
" clip-path="url(#p76f3fd059a)" style="fill: none; stroke-dasharray: 3.7,1.6; stroke-dashoffset: 0; stroke: #cccccc"/>
     </g>
     <g id="text_8">
      <!-- 600 -->
      <g style="fill: #262626" transform="translate(39.830687 396.377985) scale(0.132 -0.132)">
       <defs>
        <path id="ArialMT-36" d="M 3184 3459 
L 2625 3416 
Q 2550 3747 2413 3897 
Q 2184 4138 1850 4138 
Q 1581 4138 1378 3988 
Q 1113 3794 959 3422 
Q 806 3050 800 2363 
Q 1003 2672 1297 2822 
Q 1591 2972 1913 2972 
Q 2475 2972 2870 2558 
Q 3266 2144 3266 1488 
Q 3266 1056 3080 686 
Q 2894 316 2569 119 
Q 2244 -78 1831 -78 
Q 1128 -78 684 439 
Q 241 956 241 2144 
Q 241 3472 731 4075 
Q 1159 4600 1884 4600 
Q 2425 4600 2770 4297 
Q 3116 3994 3184 3459 
z
M 888 1484 
Q 888 1194 1011 928 
Q 1134 663 1356 523 
Q 1578 384 1822 384 
Q 2178 384 2434 671 
Q 2691 959 2691 1453 
Q 2691 1928 2437 2201 
Q 2184 2475 1800 2475 
Q 1419 2475 1153 2201 
Q 888 1928 888 1484 
z
" transform="scale(0.015625)"/>
       </defs>
       <use xlink:href="#ArialMT-36"/>
       <use xlink:href="#ArialMT-30" x="55.615234"/>
       <use xlink:href="#ArialMT-30" x="111.230469"/>
      </g>
     </g>
    </g>
    <g id="ytick_2">
     <g id="line2d_8">
      <path d="M 71.352 329.299239 
L 560.934 329.299239 
" clip-path="url(#p76f3fd059a)" style="fill: none; stroke-dasharray: 3.7,1.6; stroke-dashoffset: 0; stroke: #cccccc"/>
     </g>
     <g id="text_9">
      <!-- 800 -->
      <g style="fill: #262626" transform="translate(39.830687 334.023395) scale(0.132 -0.132)">
       <defs>
        <path id="ArialMT-38" d="M 1131 2484 
Q 781 2613 612 2850 
Q 444 3088 444 3419 
Q 444 3919 803 4259 
Q 1163 4600 1759 4600 
Q 2359 4600 2725 4251 
Q 3091 3903 3091 3403 
Q 3091 3084 2923 2848 
Q 2756 2613 2416 2484 
Q 2838 2347 3058 2040 
Q 3278 1734 3278 1309 
Q 3278 722 2862 322 
Q 2447 -78 1769 -78 
Q 1091 -78 675 323 
Q 259 725 259 1325 
Q 259 1772 486 2073 
Q 713 2375 1131 2484 
z
M 1019 3438 
Q 1019 3113 1228 2906 
Q 1438 2700 1772 2700 
Q 2097 2700 2305 2904 
Q 2513 3109 2513 3406 
Q 2513 3716 2298 3927 
Q 2084 4138 1766 4138 
Q 1444 4138 1231 3931 
Q 1019 3725 1019 3438 
z
M 838 1322 
Q 838 1081 952 856 
Q 1066 631 1291 507 
Q 1516 384 1775 384 
Q 2178 384 2440 643 
Q 2703 903 2703 1303 
Q 2703 1709 2433 1975 
Q 2163 2241 1756 2241 
Q 1359 2241 1098 1978 
Q 838 1716 838 1322 
z
" transform="scale(0.015625)"/>
       </defs>
       <use xlink:href="#ArialMT-38"/>
       <use xlink:href="#ArialMT-30" x="55.615234"/>
       <use xlink:href="#ArialMT-30" x="111.230469"/>
      </g>
     </g>
    </g>
    <g id="ytick_3">
     <g id="line2d_9">
      <path d="M 71.352 266.944649 
L 560.934 266.944649 
" clip-path="url(#p76f3fd059a)" style="fill: none; stroke-dasharray: 3.7,1.6; stroke-dashoffset: 0; stroke: #cccccc"/>
     </g>
     <g id="text_10">
      <!-- 1000 -->
      <g style="fill: #262626" transform="translate(32.49025 271.668805) scale(0.132 -0.132)">
       <use xlink:href="#ArialMT-31"/>
       <use xlink:href="#ArialMT-30" x="55.615234"/>
       <use xlink:href="#ArialMT-30" x="111.230469"/>
       <use xlink:href="#ArialMT-30" x="166.845703"/>
      </g>
     </g>
    </g>
    <g id="ytick_4">
     <g id="line2d_10">
      <path d="M 71.352 204.590059 
L 560.934 204.590059 
" clip-path="url(#p76f3fd059a)" style="fill: none; stroke-dasharray: 3.7,1.6; stroke-dashoffset: 0; stroke: #cccccc"/>
     </g>
     <g id="text_11">
      <!-- 1200 -->
      <g style="fill: #262626" transform="translate(32.49025 209.314215) scale(0.132 -0.132)">
       <use xlink:href="#ArialMT-31"/>
       <use xlink:href="#ArialMT-32" x="55.615234"/>
       <use xlink:href="#ArialMT-30" x="111.230469"/>
       <use xlink:href="#ArialMT-30" x="166.845703"/>
      </g>
     </g>
    </g>
    <g id="ytick_5">
     <g id="line2d_11">
      <path d="M 71.352 142.235469 
L 560.934 142.235469 
" clip-path="url(#p76f3fd059a)" style="fill: none; stroke-dasharray: 3.7,1.6; stroke-dashoffset: 0; stroke: #cccccc"/>
     </g>
     <g id="text_12">
      <!-- 1400 -->
      <g style="fill: #262626" transform="translate(32.49025 146.959625) scale(0.132 -0.132)">
       <defs>
        <path id="ArialMT-34" d="M 2069 0 
L 2069 1097 
L 81 1097 
L 81 1613 
L 2172 4581 
L 2631 4581 
L 2631 1613 
L 3250 1613 
L 3250 1097 
L 2631 1097 
L 2631 0 
L 2069 0 
z
M 2069 1613 
L 2069 3678 
L 634 1613 
L 2069 1613 
z
" transform="scale(0.015625)"/>
       </defs>
       <use xlink:href="#ArialMT-31"/>
       <use xlink:href="#ArialMT-34" x="55.615234"/>
       <use xlink:href="#ArialMT-30" x="111.230469"/>
       <use xlink:href="#ArialMT-30" x="166.845703"/>
      </g>
     </g>
    </g>
    <g id="text_13">
     <!-- RTs -->
     <g style="fill: #262626" transform="translate(25.70775 285.775531) rotate(-90) scale(0.14 -0.14)">
      <defs>
       <path id="ArialMT-52" d="M 503 0 
L 503 4581 
L 2534 4581 
Q 3147 4581 3465 4457 
Q 3784 4334 3975 4021 
Q 4166 3709 4166 3331 
Q 4166 2844 3850 2509 
Q 3534 2175 2875 2084 
Q 3116 1969 3241 1856 
Q 3506 1613 3744 1247 
L 4541 0 
L 3778 0 
L 3172 953 
Q 2906 1366 2734 1584 
Q 2563 1803 2427 1890 
Q 2291 1978 2150 2013 
Q 2047 2034 1813 2034 
L 1109 2034 
L 1109 0 
L 503 0 
z
M 1109 2559 
L 2413 2559 
Q 2828 2559 3062 2645 
Q 3297 2731 3419 2920 
Q 3541 3109 3541 3331 
Q 3541 3656 3305 3865 
Q 3069 4075 2559 4075 
L 1109 4075 
L 1109 2559 
z
" transform="scale(0.015625)"/>
       <path id="ArialMT-54" d="M 1659 0 
L 1659 4041 
L 150 4041 
L 150 4581 
L 3781 4581 
L 3781 4041 
L 2266 4041 
L 2266 0 
L 1659 0 
z
" transform="scale(0.015625)"/>
       <path id="ArialMT-73" d="M 197 991 
L 753 1078 
Q 800 744 1014 566 
Q 1228 388 1613 388 
Q 2000 388 2187 545 
Q 2375 703 2375 916 
Q 2375 1106 2209 1216 
Q 2094 1291 1634 1406 
Q 1016 1563 777 1677 
Q 538 1791 414 1992 
Q 291 2194 291 2438 
Q 291 2659 392 2848 
Q 494 3038 669 3163 
Q 800 3259 1026 3326 
Q 1253 3394 1513 3394 
Q 1903 3394 2198 3281 
Q 2494 3169 2634 2976 
Q 2775 2784 2828 2463 
L 2278 2388 
Q 2241 2644 2061 2787 
Q 1881 2931 1553 2931 
Q 1166 2931 1000 2803 
Q 834 2675 834 2503 
Q 834 2394 903 2306 
Q 972 2216 1119 2156 
Q 1203 2125 1616 2013 
Q 2213 1853 2448 1751 
Q 2684 1650 2818 1456 
Q 2953 1263 2953 975 
Q 2953 694 2789 445 
Q 2625 197 2315 61 
Q 2006 -75 1616 -75 
Q 969 -75 630 194 
Q 291 463 197 991 
z
" transform="scale(0.015625)"/>
      </defs>
      <use xlink:href="#ArialMT-52"/>
      <use xlink:href="#ArialMT-54" x="70.466797"/>
      <use xlink:href="#ArialMT-73" x="120.425781"/>
     </g>
    </g>
   </g>
   <g id="PathCollection_1">
    <path d="M 131.228549 338.869963 
C 132.976289 338.869963 134.652681 338.175578 135.88852 336.939739 
C 137.124359 335.703901 137.818743 334.027508 137.818743 332.279769 
C 137.818743 330.532029 137.124359 328.855636 135.88852 327.619798 
C 134.652681 326.383959 132.976289 325.689575 131.228549 325.689575 
C 129.480809 325.689575 127.804417 326.383959 126.568578 327.619798 
C 125.33274 328.855636 124.638355 330.532029 124.638355 332.279769 
C 124.638355 334.027508 125.33274 335.703901 126.568578 336.939739 
C 127.804417 338.175578 129.480809 338.869963 131.228549 338.869963 
L 131.228549 338.869963 
z
" clip-path="url(#p76f3fd059a)" style="fill: none; stroke: #ae63ae; stroke-width: 1.5"/>
    <path d="M 147.59266 316.140874 
C 148.982474 316.140874 150.315551 315.588695 151.298298 314.605948 
C 152.281044 313.623202 152.833223 312.290124 152.833223 310.90031 
C 152.833223 309.510497 152.281044 308.177419 151.298298 307.194673 
C 150.315551 306.211926 148.982474 305.659747 147.59266 305.659747 
C 146.202846 305.659747 144.869769 306.211926 143.887022 307.194673 
C 142.904275 308.177419 142.352097 309.510497 142.352097 310.90031 
C 142.352097 312.290124 142.904275 313.623202 143.887022 314.605948 
C 144.869769 315.588695 146.202846 316.140874 147.59266 316.140874 
L 147.59266 316.140874 
z
" clip-path="url(#p76f3fd059a)" style="fill: none; stroke: #dfcae0; stroke-width: 1.5"/>
    <path d="M 248.030743 367.345245 
C 250.010874 367.345245 251.91017 366.558531 253.310334 365.158367 
C 254.710498 363.758203 255.497213 361.858906 255.497213 359.878775 
C 255.497213 357.898644 254.710498 355.999348 253.310334 354.599184 
C 251.91017 353.19902 250.010874 352.412305 248.030743 352.412305 
C 246.050612 352.412305 244.151315 353.19902 242.751151 354.599184 
C 241.350987 355.999348 240.564273 357.898644 240.564273 359.878775 
C 240.564273 361.858906 241.350987 363.758203 242.751151 365.158367 
C 244.151315 366.558531 246.050612 367.345245 248.030743 367.345245 
L 248.030743 367.345245 
z
" clip-path="url(#p76f3fd059a)" style="fill: none; stroke: #820486; stroke-width: 1.5"/>
    <path d="M 130.799327 336.897479 
C 132.118063 336.897479 133.382965 336.373539 134.315452 335.441052 
C 135.24794 334.508564 135.771879 333.243663 135.771879 331.924926 
C 135.771879 330.60619 135.24794 329.341288 134.315452 328.408801 
C 133.382965 327.476313 132.118063 326.952374 130.799327 326.952374 
C 129.48059 326.952374 128.215689 327.476313 127.283201 328.408801 
C 126.350714 329.341288 125.826774 330.60619 125.826774 331.924926 
C 125.826774 333.243663 126.350714 334.508564 127.283201 335.441052 
C 128.215689 336.373539 129.48059 336.897479 130.799327 336.897479 
L 130.799327 336.897479 
z
" clip-path="url(#p76f3fd059a)" style="fill: none; stroke: #e2cfe4; stroke-width: 1.5"/>
    <path d="M 207.844779 388.364705 
C 210.056095 388.364705 212.177139 387.486139 213.740775 385.922503 
C 215.304412 384.358866 216.182977 382.237822 216.182977 380.026507 
C 216.182977 377.815191 215.304412 375.694147 213.740775 374.13051 
C 212.177139 372.566874 210.056095 371.688308 207.844779 371.688308 
C 205.633463 371.688308 203.512419 372.566874 201.948783 374.13051 
C 200.385146 375.694147 199.506581 377.815191 199.506581 380.026507 
C 199.506581 382.237822 200.385146 384.358866 201.948783 385.922503 
C 203.512419 387.486139 205.633463 388.364705 207.844779 388.364705 
L 207.844779 388.364705 
z
" clip-path="url(#p76f3fd059a)" style="fill: none; stroke: #9325b8; stroke-width: 1.5"/>
    <path d="M 112.557367 326.231965 
C 113.643999 326.231965 114.686271 325.800242 115.454635 325.031877 
C 116.222999 324.263513 116.654723 323.221241 116.654723 322.134609 
C 116.654723 321.047978 116.222999 320.005706 115.454635 319.237342 
C 114.686271 318.468977 113.643999 318.037254 112.557367 318.037254 
C 111.470736 318.037254 110.428464 318.468977 109.660099 319.237342 
C 108.891735 320.005706 108.460012 321.047978 108.460012 322.134609 
C 108.460012 323.221241 108.891735 324.263513 109.660099 325.031877 
C 110.428464 325.800242 111.470736 326.231965 112.557367 326.231965 
L 112.557367 326.231965 
z
" clip-path="url(#p76f3fd059a)" style="fill: none; stroke: #ebdef0; stroke-width: 1.5"/>
    <path d="M 198.133618 391.090228 
C 200.257601 391.090228 202.294877 390.24636 203.796759 388.744478 
C 205.298642 387.242595 206.142509 385.205319 206.142509 383.081336 
C 206.142509 380.957354 205.298642 378.920078 203.796759 377.418195 
C 202.294877 375.916313 200.257601 375.072445 198.133618 375.072445 
C 196.009635 375.072445 193.97236 375.916313 192.470477 377.418195 
C 190.968594 378.920078 190.124727 380.957354 190.124727 383.081336 
C 190.124727 385.205319 190.968594 387.242595 192.470477 388.744478 
C 193.97236 390.24636 196.009635 391.090228 198.133618 391.090228 
L 198.133618 391.090228 
z
" clip-path="url(#p76f3fd059a)" style="fill: none; stroke: #8c18a5; stroke-width: 1.5"/>
    <path d="M 132.623523 362.003161 
C 134.400394 362.003161 136.104728 361.297202 137.361165 360.040765 
C 138.617602 358.784328 139.323561 357.079993 139.323561 355.303123 
C 139.323561 353.526252 138.617602 351.821918 137.361165 350.56548 
C 136.104728 349.309043 134.400394 348.603084 132.623523 348.603084 
C 130.846652 348.603084 129.142318 349.309043 127.88588 350.56548 
C 126.629443 351.821918 125.923484 353.526252 125.923484 355.303123 
C 125.923484 357.079993 126.629443 358.784328 127.88588 360.040765 
C 129.142318 361.297202 130.846652 362.003161 132.623523 362.003161 
L 132.623523 362.003161 
z
" clip-path="url(#p76f3fd059a)" style="fill: none; stroke: #a755a7; stroke-width: 1.5"/>
    <path d="M 153.279859 345.731392 
C 155.027599 345.731392 156.703991 345.037007 157.93983 343.801169 
C 159.175669 342.56533 159.870053 340.888938 159.870053 339.141198 
C 159.870053 337.393458 159.175669 335.717066 157.93983 334.481227 
C 156.703991 333.245388 155.027599 332.551004 153.279859 332.551004 
C 151.532119 332.551004 149.855727 333.245388 148.619888 334.481227 
C 147.384049 335.717066 146.689665 337.393458 146.689665 339.141198 
C 146.689665 340.888938 147.384049 342.56533 148.619888 343.801169 
C 149.855727 345.037007 151.532119 345.731392 153.279859 345.731392 
L 153.279859 345.731392 
z
" clip-path="url(#p76f3fd059a)" style="fill: none; stroke: #ae63ae; stroke-width: 1.5"/>
    <path d="M 105.260583 385.231573 
C 106.483372 385.231573 107.656242 384.745754 108.520884 383.881113 
C 109.385526 383.016471 109.871345 381.8436 109.871345 380.620812 
C 109.871345 379.398023 109.385526 378.225153 108.520884 377.360511 
C 107.656242 376.495869 106.483372 376.01005 105.260583 376.01005 
C 104.037795 376.01005 102.864924 376.495869 102.000283 377.360511 
C 101.135641 378.225153 100.649822 379.398023 100.649822 380.620812 
C 100.649822 381.8436 101.135641 383.016471 102.000283 383.881113 
C 102.864924 384.745754 104.037795 385.231573 105.260583 385.231573 
L 105.260583 385.231573 
z
" clip-path="url(#p76f3fd059a)" style="fill: none; stroke: #e6d6ea; stroke-width: 1.5"/>
    <path d="M 136.057303 341.830411 
C 137.627084 341.830411 139.132781 341.206731 140.242784 340.096728 
C 141.352786 338.986726 141.976467 337.481028 141.976467 335.911247 
C 141.976467 334.341467 141.352786 332.835769 140.242784 331.725767 
C 139.132781 330.615764 137.627084 329.992084 136.057303 329.992084 
C 134.487523 329.992084 132.981825 330.615764 131.871823 331.725767 
C 130.76182 332.835769 130.13814 334.341467 130.13814 335.911247 
C 130.13814 337.481028 130.76182 338.986726 131.871823 340.096728 
C 132.981825 341.206731 134.487523 341.830411 136.057303 341.830411 
L 136.057303 341.830411 
z
" clip-path="url(#p76f3fd059a)" style="fill: none; stroke: #d1afd1; stroke-width: 1.5"/>
    <path d="M 242.343543 440.850686 
C 244.398423 440.850686 246.369416 440.034274 247.822435 438.581255 
C 249.275454 437.128236 250.091866 435.157243 250.091866 433.102364 
C 250.091866 431.047485 249.275454 429.076491 247.822435 427.623472 
C 246.369416 426.170454 244.398423 425.354041 242.343543 425.354041 
C 240.288664 425.354041 238.317671 426.170454 236.864652 427.623472 
C 235.411633 429.076491 234.595221 431.047485 234.595221 433.102364 
C 234.595221 435.157243 235.411633 437.128236 236.864652 438.581255 
C 238.317671 440.034274 240.288664 440.850686 242.343543 440.850686 
L 242.343543 440.850686 
z
" clip-path="url(#p76f3fd059a)" style="fill: none; stroke: #870e95; stroke-width: 1.5"/>
    <path d="M 152.314108 410.281676 
C 154.246676 410.281676 156.100352 409.513859 157.466884 408.147327 
C 158.833416 406.780795 159.601233 404.927119 159.601233 402.994551 
C 159.601233 401.061983 158.833416 399.208308 157.466884 397.841776 
C 156.100352 396.475244 154.246676 395.707426 152.314108 395.707426 
C 150.38154 395.707426 148.527865 396.475244 147.161333 397.841776 
C 145.794801 399.208308 145.026983 401.061983 145.026983 402.994551 
C 145.026983 404.927119 145.794801 406.780795 147.161333 408.147327 
C 148.527865 409.513859 150.38154 410.281676 152.314108 410.281676 
L 152.314108 410.281676 
z
" clip-path="url(#p76f3fd059a)" style="fill: none; stroke: #840984; stroke-width: 1.5"/>
    <path d="M 106.119029 332.924913 
C 107.380563 332.924913 108.590598 332.4237 109.482638 331.53166 
C 110.374678 330.639621 110.875891 329.429586 110.875891 328.168051 
C 110.875891 326.906516 110.374678 325.696481 109.482638 324.804442 
C 108.590598 323.912402 107.380563 323.411189 106.119029 323.411189 
C 104.857494 323.411189 103.647459 323.912402 102.755419 324.804442 
C 101.863379 325.696481 101.362166 326.906516 101.362166 328.168051 
C 101.362166 329.429586 101.863379 330.639621 102.755419 331.53166 
C 103.647459 332.4237 104.857494 332.924913 106.119029 332.924913 
L 106.119029 332.924913 
z
" clip-path="url(#p76f3fd059a)" style="fill: none; stroke: #e4d3e8; stroke-width: 1.5"/>
    <path d="M 105.421542 119.150658 
C 106.631139 119.150658 107.791357 118.67008 108.646671 117.814766 
C 109.501986 116.959451 109.982564 115.799233 109.982564 114.589636 
C 109.982564 113.380039 109.501986 112.219821 108.646671 111.364507 
C 107.791357 110.509193 106.631139 110.028615 105.421542 110.028615 
C 104.211945 110.028615 103.051727 110.509193 102.196412 111.364507 
C 101.341098 112.219821 100.86052 113.380039 100.86052 114.589636 
C 100.86052 115.799233 101.341098 116.959451 102.196412 117.814766 
C 103.051727 118.67008 104.211945 119.150658 105.421542 119.150658 
L 105.421542 119.150658 
z
" clip-path="url(#p76f3fd059a)" style="fill: none; stroke: #e6d6ea; stroke-width: 1.5"/>
    <path d="M 133.052745 373.843018 
C 134.860053 373.843018 136.593582 373.124967 137.871542 371.847007 
C 139.149502 370.569047 139.867553 368.835518 139.867553 367.02821 
C 139.867553 365.220902 139.149502 363.487373 137.871542 362.209413 
C 136.593582 360.931454 134.860053 360.213402 133.052745 360.213402 
C 131.245437 360.213402 129.511908 360.931454 128.233948 362.209413 
C 126.955989 363.487373 126.237937 365.220902 126.237937 367.02821 
C 126.237937 368.835518 126.955989 370.569047 128.233948 371.847007 
C 129.511908 373.124967 131.245437 373.843018 133.052745 373.843018 
L 133.052745 373.843018 
z
" clip-path="url(#p76f3fd059a)" style="fill: none; stroke: #a046a0; stroke-width: 1.5"/>
    <path d="M 173.82889 419.691298 
C 175.897774 419.691298 177.882201 418.869321 179.345123 417.406399 
C 180.808046 415.943477 181.630022 413.95905 181.630022 411.890165 
C 181.630022 409.821281 180.808046 407.836854 179.345123 406.373932 
C 177.882201 404.91101 175.897774 404.089033 173.82889 404.089033 
C 171.760005 404.089033 169.775579 404.91101 168.312656 406.373932 
C 166.849734 407.836854 166.027758 409.821281 166.027758 411.890165 
C 166.027758 413.95905 166.849734 415.943477 168.312656 417.406399 
C 169.775579 418.869321 171.760005 419.691298 173.82889 419.691298 
L 173.82889 419.691298 
z
" clip-path="url(#p76f3fd059a)" style="fill: none; stroke: #881099; stroke-width: 1.5"/>
    <path d="M 250.06955 353.742718 
C 252.366276 353.742718 254.569243 352.830219 256.193274 351.206189 
C 257.817305 349.582158 258.729804 347.379191 258.729804 345.082464 
C 258.729804 342.785738 257.817305 340.582771 256.193274 338.95874 
C 254.569243 337.334709 252.366276 336.42221 250.06955 336.42221 
C 247.772824 336.42221 245.569856 337.334709 243.945825 338.95874 
C 242.321795 340.582771 241.409296 342.785738 241.409296 345.082464 
C 241.409296 347.379191 242.321795 349.582158 243.945825 351.206189 
C 245.569856 352.830219 247.772824 353.742718 250.06955 353.742718 
L 250.06955 353.742718 
z
" clip-path="url(#p76f3fd059a)" style="fill: none; stroke: #9932cc; stroke-width: 1.5"/>
    <path d="M 113.201201 329.157787 
C 114.827206 329.157787 116.386833 328.511768 117.536593 327.362009 
C 118.686352 326.212249 119.332371 324.652622 119.332371 323.026617 
C 119.332371 321.400612 118.686352 319.840985 117.536593 318.691225 
C 116.386833 317.541466 114.827206 316.895447 113.201201 316.895447 
C 111.575196 316.895447 110.015569 317.541466 108.865809 318.691225 
C 107.71605 319.840985 107.070031 321.400612 107.070031 323.026617 
C 107.070031 324.652622 107.71605 326.212249 108.865809 327.362009 
C 110.015569 328.511768 111.575196 329.157787 113.201201 329.157787 
L 113.201201 329.157787 
z
" clip-path="url(#p76f3fd059a)" style="fill: none; stroke: #c699c6; stroke-width: 1.5"/>
    <path d="M 99.68069 284.292633 
C 101.035431 284.292633 102.334868 283.754388 103.292815 282.796442 
C 104.250761 281.838495 104.789006 280.539058 104.789006 279.184317 
C 104.789006 277.829576 104.250761 276.530139 103.292815 275.572192 
C 102.334868 274.614245 101.035431 274.076001 99.68069 274.076001 
C 98.325949 274.076001 97.026512 274.614245 96.068565 275.572192 
C 95.110619 276.530139 94.572374 277.829576 94.572374 279.184317 
C 94.572374 280.539058 95.110619 281.838495 96.068565 282.796442 
C 97.026512 283.754388 98.325949 284.292633 99.68069 284.292633 
L 99.68069 284.292633 
z
" clip-path="url(#p76f3fd059a)" style="fill: none; stroke: #e0cde3; stroke-width: 1.5"/>
    <path d="M 168.839177 349.62119 
C 170.817687 349.62119 172.715429 348.83512 174.114447 347.436102 
C 175.513465 346.037084 176.299535 344.139343 176.299535 342.160833 
C 176.299535 340.182323 175.513465 338.284581 174.114447 336.885563 
C 172.715429 335.486546 170.817687 334.700475 168.839177 334.700475 
C 166.860667 334.700475 164.962926 335.486546 163.563908 336.885563 
C 162.16489 338.284581 161.37882 340.182323 161.37882 342.160833 
C 161.37882 344.139343 162.16489 346.037084 163.563908 347.436102 
C 164.962926 348.83512 166.860667 349.62119 168.839177 349.62119 
L 168.839177 349.62119 
z
" clip-path="url(#p76f3fd059a)" style="fill: none; stroke: #820485; stroke-width: 1.5"/>
   </g>
   <g id="PathCollection_2">
    <path d="M 447.458282 230.019198 
C 448.691521 230.019198 449.874417 229.529227 450.746449 228.657195 
C 451.618481 227.785163 452.108452 226.602267 452.108452 225.369028 
C 452.108452 224.135788 451.618481 222.952892 450.746449 222.08086 
C 449.874417 221.208828 448.691521 220.718857 447.458282 220.718857 
C 446.225042 220.718857 445.042147 221.208828 444.170114 222.08086 
C 443.298082 222.952892 442.808111 224.135788 442.808111 225.369028 
C 442.808111 226.602267 443.298082 227.785163 444.170114 228.657195 
C 445.042147 229.529227 446.225042 230.019198 447.458282 230.019198 
z
" clip-path="url(#p76f3fd059a)" style="fill: #e0cde3; stroke: #e0cde3"/>
    <path d="M 113.093895 321.354996 
C 114.43913 321.354996 115.729447 320.820528 116.680672 319.869304 
C 117.631896 318.91808 118.166363 317.627762 118.166363 316.282528 
C 118.166363 314.937294 117.631896 313.646976 116.680672 312.695752 
C 115.729447 311.744528 114.43913 311.210061 113.093895 311.210061 
C 111.748661 311.210061 110.458343 311.744528 109.507119 312.695752 
C 108.555895 313.646976 108.021428 314.937294 108.021428 316.282528 
C 108.021428 317.627762 108.555895 318.91808 109.507119 319.869304 
C 110.458343 320.820528 111.748661 321.354996 113.093895 321.354996 
z
" clip-path="url(#p76f3fd059a)" style="fill: #d9c1da; stroke: #d9c1da"/>
    <path d="M 390.908207 363.526071 
C 392.643049 363.526071 394.307069 362.836812 395.533787 361.610094 
C 396.760505 360.383376 397.449765 358.719356 397.449765 356.984514 
C 397.449765 355.249673 396.760505 353.585653 395.533787 352.358935 
C 394.307069 351.132217 392.643049 350.442957 390.908207 350.442957 
C 389.173366 350.442957 387.509346 351.132217 386.282628 352.358935 
C 385.05591 353.585653 384.36665 355.249673 384.36665 356.984514 
C 384.36665 358.719356 385.05591 360.383376 386.282628 361.610094 
C 387.509346 362.836812 389.173366 363.526071 390.908207 363.526071 
z
" clip-path="url(#p76f3fd059a)" style="fill: #84088d; stroke: #84088d"/>
    <path d="M 179.140519 356.767649 
C 180.87351 356.767649 182.535755 356.079124 183.761165 354.853715 
C 184.986574 353.628305 185.675099 351.96606 185.675099 350.233069 
C 185.675099 348.500079 184.986574 346.837833 183.761165 345.612424 
C 182.535755 344.387014 180.87351 343.69849 179.140519 343.69849 
C 177.407528 343.69849 175.745283 344.387014 174.519874 345.612424 
C 173.294464 346.837833 172.60594 348.500079 172.60594 350.233069 
C 172.60594 351.96606 173.294464 353.628305 174.519874 354.853715 
C 175.745283 356.079124 177.407528 356.767649 179.140519 356.767649 
z
" clip-path="url(#p76f3fd059a)" style="fill: #84088d; stroke: #84088d"/>
    <path d="M 474.23104 235.901569 
C 475.59051 235.901569 476.894482 235.361446 477.855772 234.400156 
C 478.817063 233.438866 479.357186 232.134893 479.357186 230.775423 
C 479.357186 229.415954 478.817063 228.111981 477.855772 227.150691 
C 476.894482 226.189401 475.59051 225.649278 474.23104 225.649278 
C 472.87157 225.649278 471.567598 226.189401 470.606307 227.150691 
C 469.645017 228.111981 469.104894 229.415954 469.104894 230.775423 
C 469.104894 232.134893 469.645017 233.438866 470.606307 234.400156 
C 471.567598 235.361446 472.87157 235.901569 474.23104 235.901569 
z
" clip-path="url(#p76f3fd059a)" style="fill: #d8bfd8; stroke: #d8bfd8"/>
    <path d="M 208.220349 249.726463 
C 210.000827 249.726463 211.708622 249.019071 212.967611 247.760082 
C 214.226599 246.501094 214.933991 244.793299 214.933991 243.01282 
C 214.933991 241.232342 214.226599 239.524547 212.967611 238.265558 
C 211.708622 237.00657 210.000827 236.299178 208.220349 236.299178 
C 206.43987 236.299178 204.732075 237.00657 203.473087 238.265558 
C 202.214098 239.524547 201.506706 241.232342 201.506706 243.01282 
C 201.506706 244.793299 202.214098 246.501094 203.473087 247.760082 
C 204.732075 249.019071 206.43987 249.726463 208.220349 249.726463 
z
" clip-path="url(#p76f3fd059a)" style="fill: #881099; stroke: #881099"/>
    <path d="M 413.710657 355.218378 
C 415.667971 355.218378 417.545381 354.440729 418.929411 353.056699 
C 420.313441 351.672669 421.09109 349.795258 421.09109 347.837944 
C 421.09109 345.88063 420.313441 344.003219 418.929411 342.619189 
C 417.545381 341.23516 415.667971 340.45751 413.710657 340.45751 
C 411.753343 340.45751 409.875932 341.23516 408.491902 342.619189 
C 407.107872 344.003219 406.330223 345.88063 406.330223 347.837944 
C 406.330223 349.795258 407.107872 351.672669 408.491902 353.056699 
C 409.875932 354.440729 411.753343 355.218378 413.710657 355.218378 
z
" clip-path="url(#p76f3fd059a)" style="fill: #9932cc; stroke: #9932cc"/>
    <path d="M 140.832404 334.030119 
C 141.970946 334.030119 143.06301 333.577772 143.86808 332.772701 
C 144.673151 331.967631 145.125498 330.875567 145.125498 329.737025 
C 145.125498 328.598483 144.673151 327.50642 143.86808 326.701349 
C 143.06301 325.896279 141.970946 325.443931 140.832404 325.443931 
C 139.693863 325.443931 138.601799 325.896279 137.796728 326.701349 
C 136.991658 327.50642 136.53931 328.598483 136.53931 329.737025 
C 136.53931 330.875567 136.991658 331.967631 137.796728 332.772701 
C 138.601799 333.577772 139.693863 334.030119 140.832404 334.030119 
z
" clip-path="url(#p76f3fd059a)" style="fill: #e6d5e9; stroke: #e6d5e9"/>
    <path d="M 134.394066 344.559121 
C 135.804504 344.559121 137.157365 343.998748 138.154695 343.001417 
C 139.152026 342.004086 139.712399 340.651226 139.712399 339.240787 
C 139.712399 337.830349 139.152026 336.477488 138.154695 335.480158 
C 137.157365 334.482827 135.804504 333.922454 134.394066 333.922454 
C 132.983627 333.922454 131.630767 334.482827 130.633436 335.480158 
C 129.636105 336.477488 129.075732 337.830349 129.075732 339.240787 
C 129.075732 340.651226 129.636105 342.004086 130.633436 343.001417 
C 131.630767 343.998748 132.983627 344.559121 134.394066 344.559121 
z
" clip-path="url(#p76f3fd059a)" style="fill: #cda6cd; stroke: #cda6cd"/>
    <path d="M 176.511531 349.121197 
C 177.449166 349.121197 178.348523 348.748671 179.011531 348.085664 
C 179.674539 347.422656 180.047065 346.523298 180.047065 345.585664 
C 180.047065 344.648029 179.674539 343.748671 179.011531 343.085664 
C 178.348523 342.422656 177.449166 342.05013 176.511531 342.05013 
C 175.573896 342.05013 174.674539 342.422656 174.011531 343.085664 
C 173.348523 343.748671 172.975997 344.648029 172.975997 345.585664 
C 172.975997 346.523298 173.348523 347.422656 174.011531 348.085664 
C 174.674539 348.748671 175.573896 349.121197 176.511531 349.121197 
z
" clip-path="url(#p76f3fd059a)" style="fill: #f0e6f6; stroke: #f0e6f6"/>
    <path d="M 371.163969 338.77575 
C 372.666919 338.77575 374.108515 338.178622 375.171261 337.115875 
C 376.234008 336.053129 376.831136 334.611533 376.831136 333.108583 
C 376.831136 331.605632 376.234008 330.164037 375.171261 329.10129 
C 374.108515 328.038544 372.666919 327.441415 371.163969 327.441415 
C 369.661018 327.441415 368.219423 328.038544 367.156676 329.10129 
C 366.09393 330.164037 365.496801 331.605632 365.496801 333.108583 
C 365.496801 334.611533 366.09393 336.053129 367.156676 337.115875 
C 368.219423 338.178622 369.661018 338.77575 371.163969 338.77575 
z
" clip-path="url(#p76f3fd059a)" style="fill: #b573b5; stroke: #b573b5"/>
    <path d="M 130.692021 400.271301 
C 131.830563 400.271301 132.922626 399.818954 133.727697 399.013883 
C 134.532768 398.208812 134.985115 397.116749 134.985115 395.978207 
C 134.985115 394.839665 134.532768 393.747602 133.727697 392.942531 
C 132.922626 392.13746 131.830563 391.685113 130.692021 391.685113 
C 129.553479 391.685113 128.461416 392.13746 127.656345 392.942531 
C 126.851274 393.747602 126.398927 394.839665 126.398927 395.978207 
C 126.398927 397.116749 126.851274 398.208812 127.656345 399.013883 
C 128.461416 399.818954 129.553479 400.271301 130.692021 400.271301 
z
" clip-path="url(#p76f3fd059a)" style="fill: #e6d5e9; stroke: #e6d5e9"/>
    <path d="M 212.99545 341.70349 
C 214.419472 341.70349 215.785362 341.13772 216.792298 340.130784 
C 217.799234 339.123848 218.365004 337.757958 218.365004 336.333935 
C 218.365004 334.909913 217.799234 333.544023 216.792298 332.537087 
C 215.785362 331.530151 214.419472 330.964381 212.99545 330.964381 
C 211.571427 330.964381 210.205537 331.530151 209.198601 332.537087 
C 208.191665 333.544023 207.625895 334.909913 207.625895 336.333935 
C 207.625895 337.757958 208.191665 339.123848 209.198601 340.130784 
C 210.205537 341.13772 211.571427 341.70349 212.99545 341.70349 
z
" clip-path="url(#p76f3fd059a)" style="fill: #caa0ca; stroke: #caa0ca"/>
    <path d="M 166.961329 201.189964 
C 168.512604 201.189964 170.000552 200.573636 171.09747 199.476719 
C 172.194387 198.379801 172.810716 196.891853 172.810716 195.340577 
C 172.810716 193.789302 172.194387 192.301354 171.09747 191.204436 
C 170.000552 190.107519 168.512604 189.49119 166.961329 189.49119 
C 165.410053 189.49119 163.922105 190.107519 162.825187 191.204436 
C 161.72827 192.301354 161.111942 193.789302 161.111942 195.340577 
C 161.111942 196.891853 161.72827 198.379801 162.825187 199.476719 
C 163.922105 200.573636 165.410053 201.189964 166.961329 201.189964 
z
" clip-path="url(#p76f3fd059a)" style="fill: #a755a7; stroke: #a755a7"/>
   </g>
   <g id="line2d_12">
    <path d="M 99.68069 298.998429 
L 103.464027 302.302795 
L 107.247364 305.527555 
L 111.030701 308.672708 
L 114.814037 311.738254 
L 118.597374 314.724193 
L 122.380711 317.630525 
L 126.164048 320.457249 
L 129.947385 323.204367 
L 133.730722 325.871878 
L 137.514059 328.459782 
L 141.297396 330.968078 
L 145.080732 333.396768 
L 148.864069 335.745851 
L 152.647406 338.015326 
L 156.430743 340.205195 
L 160.21408 342.315456 
L 163.997417 344.346111 
L 167.780754 346.297158 
L 171.56409 348.168599 
L 175.347427 349.960433 
L 179.130764 351.672659 
L 182.914101 353.305278 
L 186.697438 354.858291 
L 190.480775 356.331696 
L 194.264112 357.725495 
L 198.047449 359.039686 
L 201.830785 360.27427 
L 205.614122 361.429248 
L 209.397459 362.504618 
L 213.180796 363.500381 
L 216.964133 364.416538 
L 220.74747 365.253087 
L 224.530807 366.010029 
L 228.314143 366.687364 
L 232.09748 367.285092 
L 235.880817 367.803214 
L 239.664154 368.241728 
L 243.447491 368.600635 
L 247.230828 368.879935 
L 251.014165 369.079628 
L 254.797502 369.199714 
L 258.580838 369.240193 
L 262.364175 369.201065 
L 266.147512 369.08233 
L 269.930849 368.883988 
L 273.714186 368.606039 
L 277.497523 368.248483 
L 281.28086 367.81132 
L 285.064196 367.29455 
L 288.847533 366.698173 
L 292.63087 366.022189 
L 296.414207 365.266597 
L 300.197544 364.431399 
L 303.980881 363.516594 
L 307.764218 362.522182 
L 311.547555 361.448163 
L 315.330891 360.294536 
L 319.114228 359.061303 
L 322.897565 357.748463 
L 326.680902 356.356015 
L 330.464239 354.883961 
L 334.247576 353.3323 
L 338.030913 351.701031 
L 341.814249 349.990156 
L 345.597586 348.199673 
L 349.380923 346.329584 
L 353.16426 344.379887 
L 356.947597 342.350584 
L 360.730934 340.241673 
L 364.514271 338.053156 
L 368.297608 335.785031 
L 372.080944 333.4373 
L 375.864281 331.009961 
L 379.647618 328.503016 
L 383.430955 325.916463 
L 387.214292 323.250303 
L 390.997629 320.504537 
L 394.780966 317.679163 
L 398.564302 314.774182 
L 402.347639 311.789594 
L 406.130976 308.7254 
L 409.914313 305.581598 
L 413.69765 302.358189 
L 417.480987 299.055173 
L 421.264324 295.67255 
L 425.047661 292.21032 
L 428.830997 288.668483 
L 432.614334 285.04704 
L 436.397671 281.345989 
L 440.181008 277.565331 
L 443.964345 273.705066 
L 447.747682 269.765194 
L 451.531019 265.745715 
L 455.314355 261.646629 
L 459.097692 257.467936 
L 462.881029 253.209635 
L 466.664366 248.871728 
L 470.447703 244.454214 
L 474.23104 239.957093 
" clip-path="url(#p76f3fd059a)" style="fill: none; stroke-dasharray: 8.325,3.6; stroke-dashoffset: 0; stroke: #800080; stroke-width: 2.25"/>
   </g>
   <g id="patch_3">
    <path d="M 71.352 449.028 
L 71.352 98.664 
" style="fill: none; stroke: #cccccc; stroke-width: 1.25; stroke-linejoin: miter; stroke-linecap: square"/>
   </g>
   <g id="patch_4">
    <path d="M 560.934 449.028 
L 560.934 98.664 
" style="fill: none; stroke: #cccccc; stroke-width: 1.25; stroke-linejoin: miter; stroke-linecap: square"/>
   </g>
   <g id="patch_5">
    <path d="M 71.352 449.028 
L 560.934 449.028 
" style="fill: none; stroke: #cccccc; stroke-width: 1.25; stroke-linejoin: miter; stroke-linecap: square"/>
   </g>
   <g id="patch_6">
    <path d="M 71.352 98.664 
L 560.934 98.664 
" style="fill: none; stroke: #cccccc; stroke-width: 1.25; stroke-linejoin: miter; stroke-linecap: square"/>
   </g>
   <g id="text_14">
    <!-- Hits -->
    <g style="fill: #262626" transform="translate(298.364875 92.664) scale(0.2 -0.2)">
     <defs>
      <path id="TimesNewRomanPS-BoldMT-48" d="M 1750 2038 
L 1750 725 
Q 1750 400 1786 319 
Q 1822 238 1926 177 
Q 2031 116 2209 116 
L 2350 116 
L 2350 0 
L 134 0 
L 134 116 
L 275 116 
Q 459 116 572 181 
Q 653 225 697 331 
Q 731 406 731 725 
L 731 3513 
Q 731 3838 697 3919 
Q 663 4000 558 4061 
Q 453 4122 275 4122 
L 134 4122 
L 134 4238 
L 2350 4238 
L 2350 4122 
L 2209 4122 
Q 2025 4122 1913 4056 
Q 1831 4013 1784 3906 
Q 1750 3831 1750 3513 
L 1750 2313 
L 3247 2313 
L 3247 3513 
Q 3247 3838 3212 3919 
Q 3178 4000 3072 4061 
Q 2966 4122 2788 4122 
L 2650 4122 
L 2650 4238 
L 4863 4238 
L 4863 4122 
L 4725 4122 
Q 4538 4122 4428 4056 
Q 4347 4013 4300 3906 
Q 4266 3831 4266 3513 
L 4266 725 
Q 4266 400 4300 319 
Q 4334 238 4440 177 
Q 4547 116 4725 116 
L 4863 116 
L 4863 0 
L 2650 0 
L 2650 116 
L 2788 116 
Q 2975 116 3084 181 
Q 3166 225 3213 331 
Q 3247 406 3247 725 
L 3247 2038 
L 1750 2038 
z
" transform="scale(0.015625)"/>
      <path id="TimesNewRomanPS-BoldMT-69" d="M 919 4338 
Q 1122 4338 1262 4195 
Q 1403 4053 1403 3853 
Q 1403 3653 1261 3512 
Q 1119 3372 919 3372 
Q 719 3372 578 3512 
Q 438 3653 438 3853 
Q 438 4053 578 4195 
Q 719 4338 919 4338 
z
M 1356 2922 
L 1356 606 
Q 1356 297 1428 211 
Q 1500 125 1709 113 
L 1709 0 
L 131 0 
L 131 113 
Q 325 119 419 225 
Q 481 297 481 606 
L 481 2313 
Q 481 2622 409 2708 
Q 338 2794 131 2806 
L 131 2922 
L 1356 2922 
z
" transform="scale(0.015625)"/>
      <path id="TimesNewRomanPS-BoldMT-74" d="M 1375 3991 
L 1375 2922 
L 2069 2922 
L 2069 2613 
L 1375 2613 
L 1375 809 
Q 1375 556 1398 482 
Q 1422 409 1481 364 
Q 1541 319 1591 319 
Q 1794 319 1975 628 
L 2069 559 
Q 1816 -41 1247 -41 
Q 969 -41 776 114 
Q 584 269 531 459 
Q 500 566 500 1034 
L 500 2613 
L 119 2613 
L 119 2722 
Q 513 3000 789 3306 
Q 1066 3613 1272 3991 
L 1375 3991 
z
" transform="scale(0.015625)"/>
      <path id="TimesNewRomanPS-BoldMT-73" d="M 2063 3003 
L 2109 2006 
L 2003 2006 
Q 1813 2450 1608 2612 
Q 1403 2775 1200 2775 
Q 1072 2775 981 2689 
Q 891 2603 891 2491 
Q 891 2406 953 2328 
Q 1053 2200 1512 1889 
Q 1972 1578 2117 1361 
Q 2263 1144 2263 875 
Q 2263 631 2141 397 
Q 2019 163 1797 37 
Q 1575 -88 1306 -88 
Q 1097 -88 747 44 
Q 653 78 619 78 
Q 516 78 447 -78 
L 344 -78 
L 294 972 
L 400 972 
Q 541 559 786 353 
Q 1031 147 1250 147 
Q 1400 147 1495 239 
Q 1591 331 1591 463 
Q 1591 613 1497 722 
Q 1403 831 1078 1053 
Q 600 1384 459 1559 
Q 253 1816 253 2125 
Q 253 2463 486 2736 
Q 719 3009 1159 3009 
Q 1397 3009 1619 2894 
Q 1703 2847 1756 2847 
Q 1813 2847 1847 2870 
Q 1881 2894 1956 3003 
L 2063 3003 
z
" transform="scale(0.015625)"/>
     </defs>
     <use xlink:href="#TimesNewRomanPS-BoldMT-48"/>
     <use xlink:href="#TimesNewRomanPS-BoldMT-69" x="77.783203"/>
     <use xlink:href="#TimesNewRomanPS-BoldMT-74" x="105.566406"/>
     <use xlink:href="#TimesNewRomanPS-BoldMT-73" x="138.867188"/>
    </g>
   </g>
  </g>
  <g id="axes_2">
   <g id="patch_7">
    <path d="M 639.531 449.028 
L 1129.113 449.028 
L 1129.113 98.664 
L 639.531 98.664 
z
" style="fill: #ffffff"/>
   </g>
   <g id="matplotlib.axis_3">
    <g id="xtick_7">
     <g id="line2d_13">
      <path d="M 639.531 449.028 
L 639.531 98.664 
" clip-path="url(#pb209f211df)" style="fill: none; stroke-dasharray: 3.7,1.6; stroke-dashoffset: 0; stroke: #cccccc"/>
     </g>
     <g id="text_15">
      <!-- 0 -->
      <g style="fill: #262626" transform="translate(635.860781 467.976313) scale(0.132 -0.132)">
       <use xlink:href="#ArialMT-30"/>
      </g>
     </g>
    </g>
    <g id="xtick_8">
     <g id="line2d_14">
      <path d="M 737.4474 449.028 
L 737.4474 98.664 
" clip-path="url(#pb209f211df)" style="fill: none; stroke-dasharray: 3.7,1.6; stroke-dashoffset: 0; stroke: #cccccc"/>
     </g>
     <g id="text_16">
      <!-- 5 -->
      <g style="fill: #262626" transform="translate(733.777181 467.976313) scale(0.132 -0.132)">
       <use xlink:href="#ArialMT-35"/>
      </g>
     </g>
    </g>
    <g id="xtick_9">
     <g id="line2d_15">
      <path d="M 835.3638 449.028 
L 835.3638 98.664 
" clip-path="url(#pb209f211df)" style="fill: none; stroke-dasharray: 3.7,1.6; stroke-dashoffset: 0; stroke: #cccccc"/>
     </g>
     <g id="text_17">
      <!-- 10 -->
      <g style="fill: #262626" transform="translate(828.023363 467.976313) scale(0.132 -0.132)">
       <use xlink:href="#ArialMT-31"/>
       <use xlink:href="#ArialMT-30" x="55.615234"/>
      </g>
     </g>
    </g>
    <g id="xtick_10">
     <g id="line2d_16">
      <path d="M 933.2802 449.028 
L 933.2802 98.664 
" clip-path="url(#pb209f211df)" style="fill: none; stroke-dasharray: 3.7,1.6; stroke-dashoffset: 0; stroke: #cccccc"/>
     </g>
     <g id="text_18">
      <!-- 15 -->
      <g style="fill: #262626" transform="translate(925.939763 467.976313) scale(0.132 -0.132)">
       <use xlink:href="#ArialMT-31"/>
       <use xlink:href="#ArialMT-35" x="55.615234"/>
      </g>
     </g>
    </g>
    <g id="xtick_11">
     <g id="line2d_17">
      <path d="M 1031.1966 449.028 
L 1031.1966 98.664 
" clip-path="url(#pb209f211df)" style="fill: none; stroke-dasharray: 3.7,1.6; stroke-dashoffset: 0; stroke: #cccccc"/>
     </g>
     <g id="text_19">
      <!-- 20 -->
      <g style="fill: #262626" transform="translate(1023.856163 467.976313) scale(0.132 -0.132)">
       <use xlink:href="#ArialMT-32"/>
       <use xlink:href="#ArialMT-30" x="55.615234"/>
      </g>
     </g>
    </g>
    <g id="xtick_12">
     <g id="line2d_18">
      <path d="M 1129.113 449.028 
L 1129.113 98.664 
" clip-path="url(#pb209f211df)" style="fill: none; stroke-dasharray: 3.7,1.6; stroke-dashoffset: 0; stroke: #cccccc"/>
     </g>
     <g id="text_20">
      <!-- 25 -->
      <g style="fill: #262626" transform="translate(1121.772563 467.976313) scale(0.132 -0.132)">
       <use xlink:href="#ArialMT-32"/>
       <use xlink:href="#ArialMT-35" x="55.615234"/>
      </g>
     </g>
    </g>
    <g id="text_21">
     <!-- Age -->
     <g style="fill: #262626" transform="translate(871.867469 484.62075) scale(0.14 -0.14)">
      <use xlink:href="#ArialMT-41"/>
      <use xlink:href="#ArialMT-67" x="66.699219"/>
      <use xlink:href="#ArialMT-65" x="122.314453"/>
     </g>
    </g>
   </g>
   <g id="matplotlib.axis_4">
    <g id="ytick_6">
     <g id="line2d_19">
      <path d="M 639.531 417.348458 
L 1129.113 417.348458 
" clip-path="url(#pb209f211df)" style="fill: none; stroke-dasharray: 3.7,1.6; stroke-dashoffset: 0; stroke: #cccccc"/>
     </g>
     <g id="text_22">
      <!-- 1000 -->
      <g style="fill: #262626" transform="translate(600.66925 422.072614) scale(0.132 -0.132)">
       <use xlink:href="#ArialMT-31"/>
       <use xlink:href="#ArialMT-30" x="55.615234"/>
       <use xlink:href="#ArialMT-30" x="111.230469"/>
       <use xlink:href="#ArialMT-30" x="166.845703"/>
      </g>
     </g>
    </g>
    <g id="ytick_7">
     <g id="line2d_20">
      <path d="M 639.531 349.254014 
L 1129.113 349.254014 
" clip-path="url(#pb209f211df)" style="fill: none; stroke-dasharray: 3.7,1.6; stroke-dashoffset: 0; stroke: #cccccc"/>
     </g>
     <g id="text_23">
      <!-- 1500 -->
      <g style="fill: #262626" transform="translate(600.66925 353.97817) scale(0.132 -0.132)">
       <use xlink:href="#ArialMT-31"/>
       <use xlink:href="#ArialMT-35" x="55.615234"/>
       <use xlink:href="#ArialMT-30" x="111.230469"/>
       <use xlink:href="#ArialMT-30" x="166.845703"/>
      </g>
     </g>
    </g>
    <g id="ytick_8">
     <g id="line2d_21">
      <path d="M 639.531 281.15957 
L 1129.113 281.15957 
" clip-path="url(#pb209f211df)" style="fill: none; stroke-dasharray: 3.7,1.6; stroke-dashoffset: 0; stroke: #cccccc"/>
     </g>
     <g id="text_24">
      <!-- 2000 -->
      <g style="fill: #262626" transform="translate(600.66925 285.883727) scale(0.132 -0.132)">
       <use xlink:href="#ArialMT-32"/>
       <use xlink:href="#ArialMT-30" x="55.615234"/>
       <use xlink:href="#ArialMT-30" x="111.230469"/>
       <use xlink:href="#ArialMT-30" x="166.845703"/>
      </g>
     </g>
    </g>
    <g id="ytick_9">
     <g id="line2d_22">
      <path d="M 639.531 213.065127 
L 1129.113 213.065127 
" clip-path="url(#pb209f211df)" style="fill: none; stroke-dasharray: 3.7,1.6; stroke-dashoffset: 0; stroke: #cccccc"/>
     </g>
     <g id="text_25">
      <!-- 2500 -->
      <g style="fill: #262626" transform="translate(600.66925 217.789283) scale(0.132 -0.132)">
       <use xlink:href="#ArialMT-32"/>
       <use xlink:href="#ArialMT-35" x="55.615234"/>
       <use xlink:href="#ArialMT-30" x="111.230469"/>
       <use xlink:href="#ArialMT-30" x="166.845703"/>
      </g>
     </g>
    </g>
    <g id="ytick_10">
     <g id="line2d_23">
      <path d="M 639.531 144.970683 
L 1129.113 144.970683 
" clip-path="url(#pb209f211df)" style="fill: none; stroke-dasharray: 3.7,1.6; stroke-dashoffset: 0; stroke: #cccccc"/>
     </g>
     <g id="text_26">
      <!-- 3000 -->
      <g style="fill: #262626" transform="translate(600.66925 149.694839) scale(0.132 -0.132)">
       <defs>
        <path id="ArialMT-33" d="M 269 1209 
L 831 1284 
Q 928 806 1161 595 
Q 1394 384 1728 384 
Q 2125 384 2398 659 
Q 2672 934 2672 1341 
Q 2672 1728 2419 1979 
Q 2166 2231 1775 2231 
Q 1616 2231 1378 2169 
L 1441 2663 
Q 1497 2656 1531 2656 
Q 1891 2656 2178 2843 
Q 2466 3031 2466 3422 
Q 2466 3731 2256 3934 
Q 2047 4138 1716 4138 
Q 1388 4138 1169 3931 
Q 950 3725 888 3313 
L 325 3413 
Q 428 3978 793 4289 
Q 1159 4600 1703 4600 
Q 2078 4600 2393 4439 
Q 2709 4278 2876 4000 
Q 3044 3722 3044 3409 
Q 3044 3113 2884 2869 
Q 2725 2625 2413 2481 
Q 2819 2388 3044 2092 
Q 3269 1797 3269 1353 
Q 3269 753 2831 336 
Q 2394 -81 1725 -81 
Q 1122 -81 723 278 
Q 325 638 269 1209 
z
" transform="scale(0.015625)"/>
       </defs>
       <use xlink:href="#ArialMT-33"/>
       <use xlink:href="#ArialMT-30" x="55.615234"/>
       <use xlink:href="#ArialMT-30" x="111.230469"/>
       <use xlink:href="#ArialMT-30" x="166.845703"/>
      </g>
     </g>
    </g>
    <g id="text_27">
     <!-- RTs -->
     <g style="fill: #262626" transform="translate(593.88675 285.775531) rotate(-90) scale(0.14 -0.14)">
      <use xlink:href="#ArialMT-52"/>
      <use xlink:href="#ArialMT-54" x="70.466797"/>
      <use xlink:href="#ArialMT-73" x="120.425781"/>
     </g>
    </g>
   </g>
   <g id="PathCollection_3">
    <path d="M 699.407549 209.161837 
C 701.155289 209.161837 702.831681 208.467452 704.06752 207.231614 
C 705.303359 205.995775 705.997743 204.319383 705.997743 202.571643 
C 705.997743 200.823903 705.303359 199.147511 704.06752 197.911672 
C 702.831681 196.675833 701.155289 195.981449 699.407549 195.981449 
C 697.659809 195.981449 695.983417 196.675833 694.747578 197.911672 
C 693.51174 199.147511 692.817355 200.823903 692.817355 202.571643 
C 692.817355 204.319383 693.51174 205.995775 694.747578 207.231614 
C 695.983417 208.467452 697.659809 209.161837 699.407549 209.161837 
L 699.407549 209.161837 
z
" clip-path="url(#pb209f211df)" style="fill: none; stroke: #ae63ae; stroke-width: 1.5"/>
    <path d="M 715.77166 174.187876 
C 717.161474 174.187876 718.494551 173.635697 719.477298 172.652951 
C 720.460044 171.670204 721.012223 170.337126 721.012223 168.947313 
C 721.012223 167.557499 720.460044 166.224422 719.477298 165.241675 
C 718.494551 164.258928 717.161474 163.706749 715.77166 163.706749 
C 714.381846 163.706749 713.048769 164.258928 712.066022 165.241675 
C 711.083275 166.224422 710.531097 167.557499 710.531097 168.947313 
C 710.531097 170.337126 711.083275 171.670204 712.066022 172.652951 
C 713.048769 173.635697 714.381846 174.187876 715.77166 174.187876 
L 715.77166 174.187876 
z
" clip-path="url(#pb209f211df)" style="fill: none; stroke: #dfcae0; stroke-width: 1.5"/>
    <path d="M 816.209743 133.10604 
C 818.189874 133.10604 820.08917 132.319325 821.489334 130.919161 
C 822.889498 129.518997 823.676213 127.619701 823.676213 125.63957 
C 823.676213 123.659439 822.889498 121.760142 821.489334 120.359978 
C 820.08917 118.959814 818.189874 118.1731 816.209743 118.1731 
C 814.229612 118.1731 812.330315 118.959814 810.930151 120.359978 
C 809.529987 121.760142 808.743273 123.659439 808.743273 125.63957 
C 808.743273 127.619701 809.529987 129.518997 810.930151 130.919161 
C 812.330315 132.319325 814.229612 133.10604 816.209743 133.10604 
L 816.209743 133.10604 
z
" clip-path="url(#pb209f211df)" style="fill: none; stroke: #820486; stroke-width: 1.5"/>
    <path d="M 698.978327 177.309773 
C 700.297063 177.309773 701.561965 176.785834 702.494452 175.853346 
C 703.42694 174.920859 703.950879 173.655957 703.950879 172.337221 
C 703.950879 171.018484 703.42694 169.753583 702.494452 168.821095 
C 701.561965 167.888608 700.297063 167.364668 698.978327 167.364668 
C 697.65959 167.364668 696.394689 167.888608 695.462201 168.821095 
C 694.529714 169.753583 694.005774 171.018484 694.005774 172.337221 
C 694.005774 173.655957 694.529714 174.920859 695.462201 175.853346 
C 696.394689 176.785834 697.65959 177.309773 698.978327 177.309773 
L 698.978327 177.309773 
z
" clip-path="url(#pb209f211df)" style="fill: none; stroke: #e2cfe4; stroke-width: 1.5"/>
    <path d="M 776.023779 222.378094 
C 778.235095 222.378094 780.356139 221.499529 781.919775 219.935892 
C 783.483412 218.372256 784.361977 216.251212 784.361977 214.039896 
C 784.361977 211.82858 783.483412 209.707536 781.919775 208.143899 
C 780.356139 206.580263 778.235095 205.701698 776.023779 205.701698 
C 773.812463 205.701698 771.691419 206.580263 770.127783 208.143899 
C 768.564146 209.707536 767.685581 211.82858 767.685581 214.039896 
C 767.685581 216.251212 768.564146 218.372256 770.127783 219.935892 
C 771.691419 221.499529 773.812463 222.378094 776.023779 222.378094 
L 776.023779 222.378094 
z
" clip-path="url(#pb209f211df)" style="fill: none; stroke: #9325b8; stroke-width: 1.5"/>
    <path d="M 680.736367 137.759821 
C 681.822999 137.759821 682.865271 137.328098 683.633635 136.559733 
C 684.401999 135.791369 684.833723 134.749097 684.833723 133.662466 
C 684.833723 132.575834 684.401999 131.533562 683.633635 130.765198 
C 682.865271 129.996833 681.822999 129.56511 680.736367 129.56511 
C 679.649736 129.56511 678.607464 129.996833 677.839099 130.765198 
C 677.070735 131.533562 676.639012 132.575834 676.639012 133.662466 
C 676.639012 134.749097 677.070735 135.791369 677.839099 136.559733 
C 678.607464 137.328098 679.649736 137.759821 680.736367 137.759821 
L 680.736367 137.759821 
z
" clip-path="url(#pb209f211df)" style="fill: none; stroke: #ebdef0; stroke-width: 1.5"/>
    <path d="M 766.312618 165.598143 
C 768.436601 165.598143 770.473877 164.754275 771.975759 163.252393 
C 773.477642 161.75051 774.321509 159.713234 774.321509 157.589252 
C 774.321509 155.465269 773.477642 153.427993 771.975759 151.926111 
C 770.473877 150.424228 768.436601 149.580361 766.312618 149.580361 
C 764.188635 149.580361 762.15136 150.424228 760.649477 151.926111 
C 759.147594 153.427993 758.303727 155.465269 758.303727 157.589252 
C 758.303727 159.713234 759.147594 161.75051 760.649477 163.252393 
C 762.15136 164.754275 764.188635 165.598143 766.312618 165.598143 
L 766.312618 165.598143 
z
" clip-path="url(#pb209f211df)" style="fill: none; stroke: #8c18a5; stroke-width: 1.5"/>
    <path d="M 700.802523 268.121691 
C 702.579394 268.121691 704.283728 267.415733 705.540165 266.159295 
C 706.796602 264.902858 707.502561 263.198524 707.502561 261.421653 
C 707.502561 259.644782 706.796602 257.940448 705.540165 256.68401 
C 704.283728 255.427573 702.579394 254.721615 700.802523 254.721615 
C 699.025652 254.721615 697.321318 255.427573 696.06488 256.68401 
C 694.808443 257.940448 694.102484 259.644782 694.102484 261.421653 
C 694.102484 263.198524 694.808443 264.902858 696.06488 266.159295 
C 697.321318 267.415733 699.025652 268.121691 700.802523 268.121691 
L 700.802523 268.121691 
z
" clip-path="url(#pb209f211df)" style="fill: none; stroke: #a755a7; stroke-width: 1.5"/>
    <path d="M 721.458859 148.371581 
C 723.206599 148.371581 724.882991 147.677196 726.11883 146.441358 
C 727.354669 145.205519 728.049053 143.529127 728.049053 141.781387 
C 728.049053 140.033647 727.354669 138.357255 726.11883 137.121416 
C 724.882991 135.885577 723.206599 135.191193 721.458859 135.191193 
C 719.711119 135.191193 718.034727 135.885577 716.798888 137.121416 
C 715.563049 138.357255 714.868665 140.033647 714.868665 141.781387 
C 714.868665 143.529127 715.563049 145.205519 716.798888 146.441358 
C 718.034727 147.677196 719.711119 148.371581 721.458859 148.371581 
L 721.458859 148.371581 
z
" clip-path="url(#pb209f211df)" style="fill: none; stroke: #ae63ae; stroke-width: 1.5"/>
    <path d="M 673.439583 206.716466 
C 674.662372 206.716466 675.835242 206.230647 676.699884 205.366005 
C 677.564526 204.501363 678.050345 203.328493 678.050345 202.105704 
C 678.050345 200.882916 677.564526 199.710045 676.699884 198.845403 
C 675.835242 197.980761 674.662372 197.494942 673.439583 197.494942 
C 672.216795 197.494942 671.043924 197.980761 670.179283 198.845403 
C 669.314641 199.710045 668.828822 200.882916 668.828822 202.105704 
C 668.828822 203.328493 669.314641 204.501363 670.179283 205.366005 
C 671.043924 206.230647 672.216795 206.716466 673.439583 206.716466 
L 673.439583 206.716466 
z
" clip-path="url(#pb209f211df)" style="fill: none; stroke: #e6d6ea; stroke-width: 1.5"/>
    <path d="M 704.236303 126.943602 
C 705.806084 126.943602 707.311781 126.319922 708.421784 125.209919 
C 709.531786 124.099917 710.155467 122.594219 710.155467 121.024439 
C 710.155467 119.454658 709.531786 117.948961 708.421784 116.838958 
C 707.311781 115.728956 705.806084 115.105275 704.236303 115.105275 
C 702.666523 115.105275 701.160825 115.728956 700.050823 116.838958 
C 698.94082 117.948961 698.31714 119.454658 698.31714 121.024439 
C 698.31714 122.594219 698.94082 124.099917 700.050823 125.209919 
C 701.160825 126.319922 702.666523 126.943602 704.236303 126.943602 
L 704.236303 126.943602 
z
" clip-path="url(#pb209f211df)" style="fill: none; stroke: #d1afd1; stroke-width: 1.5"/>
    <path d="M 810.522543 440.850686 
C 812.577423 440.850686 814.548416 440.034274 816.001435 438.581255 
C 817.454454 437.128236 818.270866 435.157243 818.270866 433.102364 
C 818.270866 431.047485 817.454454 429.076491 816.001435 427.623472 
C 814.548416 426.170454 812.577423 425.354041 810.522543 425.354041 
C 808.467664 425.354041 806.496671 426.170454 805.043652 427.623472 
C 803.590633 429.076491 802.774221 431.047485 802.774221 433.102364 
C 802.774221 435.157243 803.590633 437.128236 805.043652 438.581255 
C 806.496671 440.034274 808.467664 440.850686 810.522543 440.850686 
L 810.522543 440.850686 
z
" clip-path="url(#pb209f211df)" style="fill: none; stroke: #870e95; stroke-width: 1.5"/>
    <path d="M 720.493108 194.171377 
C 722.425676 194.171377 724.279352 193.403559 725.645884 192.037027 
C 727.012416 190.670495 727.780233 188.81682 727.780233 186.884252 
C 727.780233 184.951683 727.012416 183.098008 725.645884 181.731476 
C 724.279352 180.364944 722.425676 179.597127 720.493108 179.597127 
C 718.56054 179.597127 716.706865 180.364944 715.340333 181.731476 
C 713.973801 183.098008 713.205983 184.951683 713.205983 186.884252 
C 713.205983 188.81682 713.973801 190.670495 715.340333 192.037027 
C 716.706865 193.403559 718.56054 194.171377 720.493108 194.171377 
L 720.493108 194.171377 
z
" clip-path="url(#pb209f211df)" style="fill: none; stroke: #840984; stroke-width: 1.5"/>
    <path d="M 674.298029 202.258323 
C 675.559563 202.258323 676.769598 201.75711 677.661638 200.86507 
C 678.553678 199.97303 679.054891 198.762995 679.054891 197.501461 
C 679.054891 196.239926 678.553678 195.029891 677.661638 194.137851 
C 676.769598 193.245811 675.559563 192.744598 674.298029 192.744598 
C 673.036494 192.744598 671.826459 193.245811 670.934419 194.137851 
C 670.042379 195.029891 669.541166 196.239926 669.541166 197.501461 
C 669.541166 198.762995 670.042379 199.97303 670.934419 200.86507 
C 671.826459 201.75711 673.036494 202.258323 674.298029 202.258323 
L 674.298029 202.258323 
z
" clip-path="url(#pb209f211df)" style="fill: none; stroke: #e4d3e8; stroke-width: 1.5"/>
    <path d="M 673.600542 208.391708 
C 674.810139 208.391708 675.970357 207.91113 676.825671 207.055816 
C 677.680986 206.200501 678.161564 205.040283 678.161564 203.830686 
C 678.161564 202.621089 677.680986 201.460871 676.825671 200.605557 
C 675.970357 199.750242 674.810139 199.269664 673.600542 199.269664 
C 672.390945 199.269664 671.230727 199.750242 670.375412 200.605557 
C 669.520098 201.460871 669.03952 202.621089 669.03952 203.830686 
C 669.03952 205.040283 669.520098 206.200501 670.375412 207.055816 
C 671.230727 207.91113 672.390945 208.391708 673.600542 208.391708 
L 673.600542 208.391708 
z
" clip-path="url(#pb209f211df)" style="fill: none; stroke: #e6d6ea; stroke-width: 1.5"/>
    <path d="M 701.231745 222.99447 
C 703.039053 222.99447 704.772582 222.276419 706.050542 220.998459 
C 707.328502 219.720499 708.046553 217.98697 708.046553 216.179662 
C 708.046553 214.372354 707.328502 212.638825 706.050542 211.360865 
C 704.772582 210.082905 703.039053 209.364854 701.231745 209.364854 
C 699.424437 209.364854 697.690908 210.082905 696.412948 211.360865 
C 695.134989 212.638825 694.416937 214.372354 694.416937 216.179662 
C 694.416937 217.98697 695.134989 219.720499 696.412948 220.998459 
C 697.690908 222.276419 699.424437 222.99447 701.231745 222.99447 
L 701.231745 222.99447 
z
" clip-path="url(#pb209f211df)" style="fill: none; stroke: #a046a0; stroke-width: 1.5"/>
    <path d="M 742.00789 144.603425 
C 744.076774 144.603425 746.061201 143.781448 747.524123 142.318526 
C 748.987046 140.855604 749.809022 138.871177 749.809022 136.802293 
C 749.809022 134.733408 748.987046 132.748981 747.524123 131.286059 
C 746.061201 129.823137 744.076774 129.001161 742.00789 129.001161 
C 739.939005 129.001161 737.954579 129.823137 736.491656 131.286059 
C 735.028734 132.748981 734.206758 134.733408 734.206758 136.802293 
C 734.206758 138.871177 735.028734 140.855604 736.491656 142.318526 
C 737.954579 143.781448 739.939005 144.603425 742.00789 144.603425 
L 742.00789 144.603425 
z
" clip-path="url(#pb209f211df)" style="fill: none; stroke: #881099; stroke-width: 1.5"/>
    <path d="M 818.24855 193.169679 
C 820.545276 193.169679 822.748243 192.25718 824.372274 190.633149 
C 825.996305 189.009119 826.908804 186.806151 826.908804 184.509425 
C 826.908804 182.212699 825.996305 180.009731 824.372274 178.385701 
C 822.748243 176.76167 820.545276 175.849171 818.24855 175.849171 
C 815.951824 175.849171 813.748856 176.76167 812.124825 178.385701 
C 810.500795 180.009731 809.588296 182.212699 809.588296 184.509425 
C 809.588296 186.806151 810.500795 189.009119 812.124825 190.633149 
C 813.748856 192.25718 815.951824 193.169679 818.24855 193.169679 
L 818.24855 193.169679 
z
" clip-path="url(#pb209f211df)" style="fill: none; stroke: #9932cc; stroke-width: 1.5"/>
    <path d="M 681.380201 151.537214 
C 683.006206 151.537214 684.565833 150.891195 685.715593 149.741436 
C 686.865352 148.591676 687.511371 147.032049 687.511371 145.406044 
C 687.511371 143.780039 686.865352 142.220412 685.715593 141.070652 
C 684.565833 139.920893 683.006206 139.274874 681.380201 139.274874 
C 679.754196 139.274874 678.194569 139.920893 677.044809 141.070652 
C 675.89505 142.220412 675.249031 143.780039 675.249031 145.406044 
C 675.249031 147.032049 675.89505 148.591676 677.044809 149.741436 
C 678.194569 150.891195 679.754196 151.537214 681.380201 151.537214 
L 681.380201 151.537214 
z
" clip-path="url(#pb209f211df)" style="fill: none; stroke: #c699c6; stroke-width: 1.5"/>
    <path d="M 667.85969 208.745884 
C 669.214431 208.745884 670.513868 208.20764 671.471815 207.249693 
C 672.429761 206.291746 672.968006 204.992309 672.968006 203.637568 
C 672.968006 202.282827 672.429761 200.98339 671.471815 200.025444 
C 670.513868 199.067497 669.214431 198.529252 667.85969 198.529252 
C 666.504949 198.529252 665.205512 199.067497 664.247565 200.025444 
C 663.289619 200.98339 662.751374 202.282827 662.751374 203.637568 
C 662.751374 204.992309 663.289619 206.291746 664.247565 207.249693 
C 665.205512 208.20764 666.504949 208.745884 667.85969 208.745884 
L 667.85969 208.745884 
z
" clip-path="url(#pb209f211df)" style="fill: none; stroke: #e0cde3; stroke-width: 1.5"/>
    <path d="M 737.018177 182.636943 
C 738.996687 182.636943 740.894429 181.850872 742.293447 180.451854 
C 743.692465 179.052837 744.478535 177.155095 744.478535 175.176585 
C 744.478535 173.198075 743.692465 171.300333 742.293447 169.901316 
C 740.894429 168.502298 738.996687 167.716228 737.018177 167.716228 
C 735.039667 167.716228 733.141926 168.502298 731.742908 169.901316 
C 730.34389 171.300333 729.55782 173.198075 729.55782 175.176585 
C 729.55782 177.155095 730.34389 179.052837 731.742908 180.451854 
C 733.141926 181.850872 735.039667 182.636943 737.018177 182.636943 
L 737.018177 182.636943 
z
" clip-path="url(#pb209f211df)" style="fill: none; stroke: #820485; stroke-width: 1.5"/>
   </g>
   <g id="PathCollection_4">
    <path d="M 1015.637282 265.050335 
C 1016.870521 265.050335 1018.053417 264.560363 1018.925449 263.688331 
C 1019.797481 262.816299 1020.287452 261.633404 1020.287452 260.400164 
C 1020.287452 259.166924 1019.797481 257.984029 1018.925449 257.111997 
C 1018.053417 256.239965 1016.870521 255.749993 1015.637282 255.749993 
C 1014.404042 255.749993 1013.221147 256.239965 1012.349114 257.111997 
C 1011.477082 257.984029 1010.987111 259.166924 1010.987111 260.400164 
C 1010.987111 261.633404 1011.477082 262.816299 1012.349114 263.688331 
C 1013.221147 264.560363 1014.404042 265.050335 1015.637282 265.050335 
z
" clip-path="url(#pb209f211df)" style="fill: #e0cde3; stroke: #e0cde3"/>
    <path d="M 681.272895 214.367701 
C 682.61813 214.367701 683.908447 213.833234 684.859672 212.88201 
C 685.810896 211.930786 686.345363 210.640468 686.345363 209.295234 
C 686.345363 207.949999 685.810896 206.659682 684.859672 205.708457 
C 683.908447 204.757233 682.61813 204.222766 681.272895 204.222766 
C 679.927661 204.222766 678.637343 204.757233 677.686119 205.708457 
C 676.734895 206.659682 676.200428 207.949999 676.200428 209.295234 
C 676.200428 210.640468 676.734895 211.930786 677.686119 212.88201 
C 678.637343 213.833234 679.927661 214.367701 681.272895 214.367701 
z
" clip-path="url(#pb209f211df)" style="fill: #d9c1da; stroke: #d9c1da"/>
    <path d="M 959.087207 379.592894 
C 960.822049 379.592894 962.486069 378.903634 963.712787 377.676916 
C 964.939505 376.450198 965.628765 374.786178 965.628765 373.051337 
C 965.628765 371.316496 964.939505 369.652475 963.712787 368.425757 
C 962.486069 367.199039 960.822049 366.50978 959.087207 366.50978 
C 957.352366 366.50978 955.688346 367.199039 954.461628 368.425757 
C 953.23491 369.652475 952.54565 371.316496 952.54565 373.051337 
C 952.54565 374.786178 953.23491 376.450198 954.461628 377.676916 
C 955.688346 378.903634 957.352366 379.592894 959.087207 379.592894 
z
" clip-path="url(#pb209f211df)" style="fill: #84088d; stroke: #84088d"/>
    <path d="M 747.319519 164.200757 
C 749.05251 164.200757 750.714755 163.512233 751.940165 162.286823 
C 753.165574 161.061414 753.854099 159.399168 753.854099 157.666178 
C 753.854099 155.933187 753.165574 154.270942 751.940165 153.045532 
C 750.714755 151.820123 749.05251 151.131598 747.319519 151.131598 
C 745.586528 151.131598 743.924283 151.820123 742.698874 153.045532 
C 741.473464 154.270942 740.78494 155.933187 740.78494 157.666178 
C 740.78494 159.399168 741.473464 161.061414 742.698874 162.286823 
C 743.924283 163.512233 745.586528 164.200757 747.319519 164.200757 
z
" clip-path="url(#pb209f211df)" style="fill: #84088d; stroke: #84088d"/>
    <path d="M 1042.41004 330.121857 
C 1043.76951 330.121857 1045.073482 329.581734 1046.034772 328.620444 
C 1046.996063 327.659153 1047.536186 326.355181 1047.536186 324.995711 
C 1047.536186 323.636241 1046.996063 322.332269 1046.034772 321.370978 
C 1045.073482 320.409688 1043.76951 319.869565 1042.41004 319.869565 
C 1041.05057 319.869565 1039.746598 320.409688 1038.785307 321.370978 
C 1037.824017 322.332269 1037.283894 323.636241 1037.283894 324.995711 
C 1037.283894 326.355181 1037.824017 327.659153 1038.785307 328.620444 
C 1039.746598 329.581734 1041.05057 330.121857 1042.41004 330.121857 
z
" clip-path="url(#pb209f211df)" style="fill: #d8bfd8; stroke: #d8bfd8"/>
    <path d="M 776.399349 145.663057 
C 778.179827 145.663057 779.887622 144.955665 781.146611 143.696677 
C 782.405599 142.437688 783.112991 140.729893 783.112991 138.949415 
C 783.112991 137.168936 782.405599 135.461141 781.146611 134.202153 
C 779.887622 132.943164 778.179827 132.235772 776.399349 132.235772 
C 774.61887 132.235772 772.911075 132.943164 771.652087 134.202153 
C 770.393098 135.461141 769.685706 137.168936 769.685706 138.949415 
C 769.685706 140.729893 770.393098 142.437688 771.652087 143.696677 
C 772.911075 144.955665 774.61887 145.663057 776.399349 145.663057 
z
" clip-path="url(#pb209f211df)" style="fill: #881099; stroke: #881099"/>
    <path d="M 981.889657 246.696135 
C 983.846971 246.696135 985.724381 245.918486 987.108411 244.534456 
C 988.492441 243.150426 989.27009 241.273015 989.27009 239.315701 
C 989.27009 237.358387 988.492441 235.480976 987.108411 234.096946 
C 985.724381 232.712916 983.846971 231.935267 981.889657 231.935267 
C 979.932343 231.935267 978.054932 232.712916 976.670902 234.096946 
C 975.286872 235.480976 974.509223 237.358387 974.509223 239.315701 
C 974.509223 241.273015 975.286872 243.150426 976.670902 244.534456 
C 978.054932 245.918486 979.932343 246.696135 981.889657 246.696135 
z
" clip-path="url(#pb209f211df)" style="fill: #9932cc; stroke: #9932cc"/>
    <path d="M 709.011404 222.131402 
C 710.149946 222.131402 711.24201 221.679055 712.04708 220.873984 
C 712.852151 220.068913 713.304498 218.97685 713.304498 217.838308 
C 713.304498 216.699766 712.852151 215.607703 712.04708 214.802632 
C 711.24201 213.997562 710.149946 213.545214 709.011404 213.545214 
C 707.872863 213.545214 706.780799 213.997562 705.975728 214.802632 
C 705.170658 215.607703 704.71831 216.699766 704.71831 217.838308 
C 704.71831 218.97685 705.170658 220.068913 705.975728 220.873984 
C 706.780799 221.679055 707.872863 222.131402 709.011404 222.131402 
z
" clip-path="url(#pb209f211df)" style="fill: #e6d5e9; stroke: #e6d5e9"/>
    <path d="M 702.573066 213.995319 
C 703.983504 213.995319 705.336365 213.434946 706.333695 212.437615 
C 707.331026 211.440284 707.891399 210.087424 707.891399 208.676985 
C 707.891399 207.266547 707.331026 205.913686 706.333695 204.916356 
C 705.336365 203.919025 703.983504 203.358652 702.573066 203.358652 
C 701.162627 203.358652 699.809767 203.919025 698.812436 204.916356 
C 697.815105 205.913686 697.254732 207.266547 697.254732 208.676985 
C 697.254732 210.087424 697.815105 211.440284 698.812436 212.437615 
C 699.809767 213.434946 701.162627 213.995319 702.573066 213.995319 
z
" clip-path="url(#pb209f211df)" style="fill: #cda6cd; stroke: #cda6cd"/>
    <path d="M 744.690531 118.12517 
C 745.628166 118.12517 746.527523 117.752644 747.190531 117.089636 
C 747.853539 116.426629 748.226065 115.527271 748.226065 114.589636 
C 748.226065 113.652002 747.853539 112.752644 747.190531 112.089636 
C 746.527523 111.426629 745.628166 111.054102 744.690531 111.054102 
C 743.752896 111.054102 742.853539 111.426629 742.190531 112.089636 
C 741.527523 112.752644 741.154997 113.652002 741.154997 114.589636 
C 741.154997 115.527271 741.527523 116.426629 742.190531 117.089636 
C 742.853539 117.752644 743.752896 118.12517 744.690531 118.12517 
z
" clip-path="url(#pb209f211df)" style="fill: #f0e6f6; stroke: #f0e6f6"/>
    <path d="M 939.342969 236.775454 
C 940.845919 236.775454 942.287515 236.178326 943.350261 235.115579 
C 944.413008 234.052833 945.010136 232.611237 945.010136 231.108287 
C 945.010136 229.605336 944.413008 228.16374 943.350261 227.100994 
C 942.287515 226.038248 940.845919 225.441119 939.342969 225.441119 
C 937.840018 225.441119 936.398423 226.038248 935.335676 227.100994 
C 934.27293 228.16374 933.675801 229.605336 933.675801 231.108287 
C 933.675801 232.611237 934.27293 234.052833 935.335676 235.115579 
C 936.398423 236.178326 937.840018 236.775454 939.342969 236.775454 
z
" clip-path="url(#pb209f211df)" style="fill: #b573b5; stroke: #b573b5"/>
    <path d="M 698.871021 167.342398 
C 700.009563 167.342398 701.101626 166.89005 701.906697 166.08498 
C 702.711768 165.279909 703.164115 164.187846 703.164115 163.049304 
C 703.164115 161.910762 702.711768 160.818698 701.906697 160.013628 
C 701.101626 159.208557 700.009563 158.75621 698.871021 158.75621 
C 697.732479 158.75621 696.640416 159.208557 695.835345 160.013628 
C 695.030274 160.818698 694.577927 161.910762 694.577927 163.049304 
C 694.577927 164.187846 695.030274 165.279909 695.835345 166.08498 
C 696.640416 166.89005 697.732479 167.342398 698.871021 167.342398 
z
" clip-path="url(#pb209f211df)" style="fill: #e6d5e9; stroke: #e6d5e9"/>
    <path d="M 781.17445 177.617039 
C 782.598472 177.617039 783.964362 177.051269 784.971298 176.044333 
C 785.978234 175.037397 786.544004 173.671507 786.544004 172.247484 
C 786.544004 170.823462 785.978234 169.457572 784.971298 168.450636 
C 783.964362 167.4437 782.598472 166.877929 781.17445 166.877929 
C 779.750427 166.877929 778.384537 167.4437 777.377601 168.450636 
C 776.370665 169.457572 775.804895 170.823462 775.804895 172.247484 
C 775.804895 173.671507 776.370665 175.037397 777.377601 176.044333 
C 778.384537 177.051269 779.750427 177.617039 781.17445 177.617039 
z
" clip-path="url(#pb209f211df)" style="fill: #caa0ca; stroke: #caa0ca"/>
    <path d="M 735.140329 131.659159 
C 736.691604 131.659159 738.179552 131.042831 739.27647 129.945914 
C 740.373387 128.848996 740.989716 127.361048 740.989716 125.809772 
C 740.989716 124.258497 740.373387 122.770549 739.27647 121.673631 
C 738.179552 120.576714 736.691604 119.960385 735.140329 119.960385 
C 733.589053 119.960385 732.101105 120.576714 731.004187 121.673631 
C 729.90727 122.770549 729.290942 124.258497 729.290942 125.809772 
C 729.290942 127.361048 729.90727 128.848996 731.004187 129.945914 
C 732.101105 131.042831 733.589053 131.659159 735.140329 131.659159 
z
" clip-path="url(#pb209f211df)" style="fill: #a755a7; stroke: #a755a7"/>
   </g>
   <g id="line2d_24">
    <path d="M 667.85969 180.472637 
L 671.643027 180.278639 
L 675.426364 180.118161 
L 679.209701 179.991202 
L 682.993037 179.897762 
L 686.776374 179.837842 
L 690.559711 179.811441 
L 694.343048 179.81856 
L 698.126385 179.859199 
L 701.909722 179.933356 
L 705.693059 180.041034 
L 709.476396 180.18223 
L 713.259732 180.356947 
L 717.043069 180.565182 
L 720.826406 180.806937 
L 724.609743 181.082212 
L 728.39308 181.391006 
L 732.176417 181.733319 
L 735.959754 182.109152 
L 739.74309 182.518505 
L 743.526427 182.961376 
L 747.309764 183.437768 
L 751.093101 183.947679 
L 754.876438 184.491109 
L 758.659775 185.068058 
L 762.443112 185.678528 
L 766.226449 186.322516 
L 770.009785 187.000024 
L 773.793122 187.711052 
L 777.576459 188.455599 
L 781.359796 189.233665 
L 785.143133 190.045251 
L 788.92647 190.890356 
L 792.709807 191.768981 
L 796.493143 192.681125 
L 800.27648 193.626789 
L 804.059817 194.605972 
L 807.843154 195.618675 
L 811.626491 196.664897 
L 815.409828 197.744639 
L 819.193165 198.8579 
L 822.976502 200.00468 
L 826.759838 201.18498 
L 830.543175 202.3988 
L 834.326512 203.646138 
L 838.109849 204.926997 
L 841.893186 206.241375 
L 845.676523 207.589272 
L 849.45986 208.970688 
L 853.243196 210.385625 
L 857.026533 211.83408 
L 860.80987 213.316055 
L 864.593207 214.83155 
L 868.376544 216.380564 
L 872.159881 217.963097 
L 875.943218 219.57915 
L 879.726555 221.228723 
L 883.509891 222.911814 
L 887.293228 224.628426 
L 891.076565 226.378556 
L 894.859902 228.162207 
L 898.643239 229.979376 
L 902.426576 231.830065 
L 906.209913 233.714274 
L 909.993249 235.632002 
L 913.776586 237.58325 
L 917.559923 239.568017 
L 921.34326 241.586303 
L 925.126597 243.638109 
L 928.909934 245.723434 
L 932.693271 247.842279 
L 936.476608 249.994643 
L 940.259944 252.180527 
L 944.043281 254.39993 
L 947.826618 256.652853 
L 951.609955 258.939295 
L 955.393292 261.259256 
L 959.176629 263.612738 
L 962.959966 265.999738 
L 966.743302 268.420258 
L 970.526639 270.874297 
L 974.309976 273.361856 
L 978.093313 275.882934 
L 981.87665 278.437532 
L 985.659987 281.025649 
L 989.443324 283.647286 
L 993.226661 286.302442 
L 997.009997 288.991118 
L 1000.793334 291.713313 
L 1004.576671 294.469028 
L 1008.360008 297.258262 
L 1012.143345 300.081015 
L 1015.926682 302.937288 
L 1019.710019 305.82708 
L 1023.493355 308.750392 
L 1027.276692 311.707223 
L 1031.060029 314.697574 
L 1034.843366 317.721444 
L 1038.626703 320.778834 
L 1042.41004 323.869743 
" clip-path="url(#pb209f211df)" style="fill: none; stroke-dasharray: 8.325,3.6; stroke-dashoffset: 0; stroke: #800080; stroke-width: 2.25"/>
   </g>
   <g id="patch_8">
    <path d="M 639.531 449.028 
L 639.531 98.664 
" style="fill: none; stroke: #cccccc; stroke-width: 1.25; stroke-linejoin: miter; stroke-linecap: square"/>
   </g>
   <g id="patch_9">
    <path d="M 1129.113 449.028 
L 1129.113 98.664 
" style="fill: none; stroke: #cccccc; stroke-width: 1.25; stroke-linejoin: miter; stroke-linecap: square"/>
   </g>
   <g id="patch_10">
    <path d="M 639.531 449.028 
L 1129.113 449.028 
" style="fill: none; stroke: #cccccc; stroke-width: 1.25; stroke-linejoin: miter; stroke-linecap: square"/>
   </g>
   <g id="patch_11">
    <path d="M 639.531 98.664 
L 1129.113 98.664 
" style="fill: none; stroke: #cccccc; stroke-width: 1.25; stroke-linejoin: miter; stroke-linecap: square"/>
   </g>
   <g id="text_28">
    <!-- Errors -->
    <g style="fill: #262626" transform="translate(855.617313 92.664) scale(0.2 -0.2)">
     <defs>
      <path id="TimesNewRomanPS-BoldMT-45" d="M 1744 3994 
L 1744 2269 
L 1828 2269 
Q 2231 2269 2412 2522 
Q 2594 2775 2644 3269 
L 2763 3269 
L 2763 1050 
L 2644 1050 
Q 2606 1413 2486 1644 
Q 2366 1875 2206 1954 
Q 2047 2034 1744 2034 
L 1744 841 
Q 1744 491 1773 412 
Q 1803 334 1884 284 
Q 1966 234 2147 234 
L 2400 234 
Q 2994 234 3351 509 
Q 3709 784 3866 1347 
L 3981 1347 
L 3791 0 
L 128 0 
L 128 116 
L 269 116 
Q 453 116 566 181 
Q 647 225 691 331 
Q 725 406 725 725 
L 725 3513 
Q 725 3800 709 3866 
Q 678 3975 594 4034 
Q 475 4122 269 4122 
L 128 4122 
L 128 4238 
L 3675 4238 
L 3675 2984 
L 3556 2984 
Q 3466 3444 3302 3644 
Q 3138 3844 2838 3938 
Q 2663 3994 2181 3994 
L 1744 3994 
z
" transform="scale(0.015625)"/>
      <path id="TimesNewRomanPS-BoldMT-72" d="M 1428 2922 
L 1428 2259 
Q 1719 2713 1937 2861 
Q 2156 3009 2359 3009 
Q 2534 3009 2639 2901 
Q 2744 2794 2744 2597 
Q 2744 2388 2642 2272 
Q 2541 2156 2397 2156 
Q 2231 2156 2109 2262 
Q 1988 2369 1966 2381 
Q 1934 2400 1894 2400 
Q 1803 2400 1722 2331 
Q 1594 2225 1528 2028 
Q 1428 1725 1428 1359 
L 1428 688 
L 1431 513 
Q 1431 334 1453 284 
Q 1491 200 1564 161 
Q 1638 122 1813 113 
L 1813 0 
L 234 0 
L 234 113 
Q 425 128 492 217 
Q 559 306 559 688 
L 559 2303 
Q 559 2553 534 2622 
Q 503 2709 443 2750 
Q 384 2791 234 2806 
L 234 2922 
L 1428 2922 
z
" transform="scale(0.015625)"/>
      <path id="TimesNewRomanPS-BoldMT-6f" d="M 1594 3009 
Q 1975 3009 2303 2812 
Q 2631 2616 2801 2253 
Q 2972 1891 2972 1459 
Q 2972 838 2656 419 
Q 2275 -88 1603 -88 
Q 944 -88 587 375 
Q 231 838 231 1447 
Q 231 2075 595 2542 
Q 959 3009 1594 3009 
z
M 1606 2788 
Q 1447 2788 1333 2667 
Q 1219 2547 1183 2192 
Q 1147 1838 1147 1206 
Q 1147 872 1191 581 
Q 1225 359 1337 243 
Q 1450 128 1594 128 
Q 1734 128 1828 206 
Q 1950 313 1991 503 
Q 2053 800 2053 1703 
Q 2053 2234 1993 2432 
Q 1934 2631 1819 2722 
Q 1738 2788 1606 2788 
z
" transform="scale(0.015625)"/>
     </defs>
     <use xlink:href="#TimesNewRomanPS-BoldMT-45"/>
     <use xlink:href="#TimesNewRomanPS-BoldMT-72" x="66.699219"/>
     <use xlink:href="#TimesNewRomanPS-BoldMT-72" x="111.083984"/>
     <use xlink:href="#TimesNewRomanPS-BoldMT-6f" x="153.71875"/>
     <use xlink:href="#TimesNewRomanPS-BoldMT-72" x="203.71875"/>
     <use xlink:href="#TimesNewRomanPS-BoldMT-73" x="248.103516"/>
    </g>
   </g>
  </g>
  <g id="text_29">
   <!-- How Fast Are They? (Incl. Elo-Score) -->
   <g style="fill: #800080" transform="translate(375.986328 27.009687) scale(0.25 -0.25)">
    <defs>
     <path id="TimesNewRomanPS-BoldMT-77" d="M 3113 -88 
L 2313 2056 
L 1528 -88 
L 1366 -88 
L 588 2031 
Q 413 2516 291 2663 
Q 213 2763 53 2806 
L 53 2922 
L 1528 2922 
L 1528 2806 
Q 1378 2806 1322 2762 
Q 1266 2719 1266 2663 
Q 1266 2609 1366 2344 
L 1794 1203 
L 2206 2344 
L 2175 2419 
Q 2081 2653 2011 2717 
Q 1941 2781 1794 2806 
L 1794 2922 
L 3291 2922 
L 3291 2806 
Q 3116 2797 3069 2758 
Q 3022 2719 3022 2647 
Q 3022 2578 3113 2344 
L 3525 1203 
L 3900 2253 
Q 3981 2478 3981 2559 
Q 3981 2681 3922 2737 
Q 3863 2794 3691 2806 
L 3691 2922 
L 4556 2922 
L 4556 2806 
Q 4413 2788 4328 2705 
Q 4244 2622 4109 2234 
L 3291 -88 
L 3113 -88 
z
" transform="scale(0.015625)"/>
     <path id="TimesNewRomanPS-BoldMT-20" transform="scale(0.015625)"/>
     <path id="TimesNewRomanPS-BoldMT-46" d="M 1759 3994 
L 1759 2253 
L 1881 2253 
Q 2163 2253 2341 2337 
Q 2519 2422 2642 2622 
Q 2766 2822 2803 3163 
L 2913 3163 
L 2913 1034 
L 2803 1034 
Q 2744 1638 2480 1830 
Q 2216 2022 1881 2022 
L 1759 2022 
L 1759 725 
Q 1759 400 1795 319 
Q 1831 238 1936 177 
Q 2041 116 2219 116 
L 2359 116 
L 2359 0 
L 144 0 
L 144 116 
L 284 116 
Q 469 116 581 181 
Q 663 225 706 331 
Q 741 406 741 725 
L 741 3513 
Q 741 3838 706 3919 
Q 672 4000 567 4061 
Q 463 4122 284 4122 
L 144 4122 
L 144 4238 
L 3719 4238 
L 3719 3022 
L 3591 3022 
Q 3547 3450 3367 3656 
Q 3188 3863 2847 3947 
Q 2659 3994 2153 3994 
L 1759 3994 
z
" transform="scale(0.015625)"/>
     <path id="TimesNewRomanPS-BoldMT-61" d="M 1828 431 
Q 1294 -41 869 -41 
Q 619 -41 453 123 
Q 288 288 288 534 
Q 288 869 575 1136 
Q 863 1403 1828 1847 
L 1828 2141 
Q 1828 2472 1792 2558 
Q 1756 2644 1656 2708 
Q 1556 2772 1431 2772 
Q 1228 2772 1097 2681 
Q 1016 2625 1016 2550 
Q 1016 2484 1103 2388 
Q 1222 2253 1222 2128 
Q 1222 1975 1108 1867 
Q 994 1759 809 1759 
Q 613 1759 480 1878 
Q 347 1997 347 2156 
Q 347 2381 525 2586 
Q 703 2791 1022 2900 
Q 1341 3009 1684 3009 
Q 2100 3009 2342 2832 
Q 2584 2656 2656 2450 
Q 2700 2319 2700 1847 
L 2700 713 
Q 2700 513 2715 461 
Q 2731 409 2762 384 
Q 2794 359 2834 359 
Q 2916 359 3000 475 
L 3094 400 
Q 2938 169 2770 64 
Q 2603 -41 2391 -41 
Q 2141 -41 2000 76 
Q 1859 194 1828 431 
z
M 1828 659 
L 1828 1638 
Q 1450 1416 1266 1163 
Q 1144 994 1144 822 
Q 1144 678 1247 569 
Q 1325 484 1466 484 
Q 1622 484 1828 659 
z
" transform="scale(0.015625)"/>
     <path id="TimesNewRomanPS-BoldMT-41" d="M 2663 1206 
L 1166 1206 
L 988 794 
Q 900 588 900 453 
Q 900 275 1044 191 
Q 1128 141 1459 116 
L 1459 0 
L 50 0 
L 50 116 
Q 278 150 425 304 
Q 572 459 788 944 
L 2303 4325 
L 2363 4325 
L 3891 850 
Q 4109 356 4250 228 
Q 4356 131 4550 116 
L 4550 0 
L 2500 0 
L 2500 116 
L 2584 116 
Q 2831 116 2931 184 
Q 3000 234 3000 328 
Q 3000 384 2981 444 
Q 2975 472 2888 678 
L 2663 1206 
z
M 2556 1438 
L 1925 2897 
L 1275 1438 
L 2556 1438 
z
" transform="scale(0.015625)"/>
     <path id="TimesNewRomanPS-BoldMT-65" d="M 2691 1566 
L 1088 1566 
Q 1116 984 1397 647 
Q 1613 388 1916 388 
Q 2103 388 2256 492 
Q 2409 597 2584 869 
L 2691 800 
Q 2453 316 2165 114 
Q 1878 -88 1500 -88 
Q 850 -88 516 413 
Q 247 816 247 1413 
Q 247 2144 642 2576 
Q 1038 3009 1569 3009 
Q 2013 3009 2339 2645 
Q 2666 2281 2691 1566 
z
M 1922 1775 
Q 1922 2278 1867 2465 
Q 1813 2653 1697 2750 
Q 1631 2806 1522 2806 
Q 1359 2806 1256 2647 
Q 1072 2369 1072 1884 
L 1072 1775 
L 1922 1775 
z
" transform="scale(0.015625)"/>
     <path id="TimesNewRomanPS-BoldMT-54" d="M 4038 4238 
L 4038 3091 
L 3925 3091 
Q 3825 3488 3703 3661 
Q 3581 3834 3369 3938 
Q 3250 3994 2953 3994 
L 2638 3994 
L 2638 725 
Q 2638 400 2673 319 
Q 2709 238 2814 177 
Q 2919 116 3100 116 
L 3241 116 
L 3241 0 
L 1022 0 
L 1022 116 
L 1163 116 
Q 1347 116 1459 181 
Q 1541 225 1588 331 
Q 1622 406 1622 725 
L 1622 3994 
L 1316 3994 
Q 888 3994 694 3813 
Q 422 3559 350 3091 
L 231 3091 
L 231 4238 
L 4038 4238 
z
" transform="scale(0.015625)"/>
     <path id="TimesNewRomanPS-BoldMT-68" d="M 1409 4238 
L 1409 2547 
Q 1650 2800 1850 2904 
Q 2050 3009 2266 3009 
Q 2541 3009 2736 2853 
Q 2931 2697 2995 2486 
Q 3059 2275 3059 1775 
L 3059 634 
Q 3059 300 3121 217 
Q 3184 134 3375 113 
L 3375 0 
L 1894 0 
L 1894 113 
Q 2050 134 2128 238 
Q 2184 319 2184 634 
L 2184 1938 
Q 2184 2300 2156 2392 
Q 2128 2484 2061 2536 
Q 1994 2588 1909 2588 
Q 1784 2588 1665 2502 
Q 1547 2416 1409 2200 
L 1409 634 
Q 1409 322 1456 244 
Q 1516 138 1700 113 
L 1700 0 
L 219 0 
L 219 113 
Q 403 131 481 231 
Q 534 300 534 634 
L 534 3603 
Q 534 3934 473 4015 
Q 413 4097 219 4122 
L 219 4238 
L 1409 4238 
z
" transform="scale(0.015625)"/>
     <path id="TimesNewRomanPS-BoldMT-79" d="M 1556 -119 
L 613 2047 
Q 400 2538 298 2650 
Q 197 2763 53 2806 
L 53 2922 
L 1606 2922 
L 1606 2806 
Q 1453 2800 1390 2747 
Q 1328 2694 1328 2619 
Q 1328 2500 1484 2150 
L 1984 1006 
L 2325 1891 
Q 2509 2363 2509 2547 
Q 2509 2663 2432 2731 
Q 2356 2800 2163 2806 
L 2163 2922 
L 3141 2922 
L 3141 2806 
Q 2997 2791 2906 2695 
Q 2816 2600 2603 2047 
L 1769 -119 
Q 1453 -931 1300 -1119 
Q 1084 -1381 759 -1381 
Q 500 -1381 339 -1232 
Q 178 -1084 178 -875 
Q 178 -694 289 -575 
Q 400 -456 563 -456 
Q 719 -456 814 -556 
Q 909 -656 913 -866 
Q 916 -984 941 -1019 
Q 966 -1053 1013 -1053 
Q 1088 -1053 1172 -963 
Q 1297 -831 1466 -363 
L 1556 -119 
z
" transform="scale(0.015625)"/>
     <path id="TimesNewRomanPS-BoldMT-3f" d="M 1519 1381 
L 1391 1381 
Q 1384 1728 1423 1900 
Q 1463 2072 1627 2373 
Q 1791 2675 1842 2858 
Q 1894 3041 1894 3309 
Q 1894 3725 1731 3922 
Q 1569 4119 1347 4119 
Q 1178 4119 1063 4028 
Q 975 3959 975 3884 
Q 975 3834 1034 3728 
Q 1169 3488 1169 3319 
Q 1169 3166 1064 3062 
Q 959 2959 803 2959 
Q 628 2959 509 3082 
Q 391 3206 391 3409 
Q 391 3778 709 4056 
Q 1028 4334 1600 4334 
Q 2206 4334 2523 4045 
Q 2841 3756 2841 3347 
Q 2841 3050 2678 2798 
Q 2516 2547 2050 2241 
Q 1738 2034 1639 1873 
Q 1541 1713 1519 1381 
z
M 1484 925 
Q 1694 925 1841 778 
Q 1988 631 1988 422 
Q 1988 213 1841 64 
Q 1694 -84 1484 -84 
Q 1275 -84 1128 64 
Q 981 213 981 422 
Q 981 631 1128 778 
Q 1275 925 1484 925 
z
" transform="scale(0.015625)"/>
     <path id="TimesNewRomanPS-BoldMT-28" d="M 2056 4334 
L 2056 4191 
Q 1731 3978 1578 3775 
Q 1366 3494 1247 3053 
Q 1097 2506 1097 1525 
Q 1097 600 1233 87 
Q 1369 -425 1603 -741 
Q 1766 -959 2056 -1125 
L 2056 -1281 
Q 1303 -1028 779 -248 
Q 256 531 256 1544 
Q 256 2544 778 3314 
Q 1300 4084 2056 4334 
z
" transform="scale(0.015625)"/>
     <path id="TimesNewRomanPS-BoldMT-49" d="M 2344 116 
L 2344 0 
L 128 0 
L 128 116 
L 269 116 
Q 453 116 566 181 
Q 647 225 691 331 
Q 725 406 725 725 
L 725 3513 
Q 725 3838 690 3919 
Q 656 4000 551 4061 
Q 447 4122 269 4122 
L 128 4122 
L 128 4238 
L 2344 4238 
L 2344 4122 
L 2203 4122 
Q 2019 4122 1906 4056 
Q 1825 4013 1778 3906 
Q 1744 3831 1744 3513 
L 1744 725 
Q 1744 400 1780 319 
Q 1816 238 1920 177 
Q 2025 116 2203 116 
L 2344 116 
z
" transform="scale(0.015625)"/>
     <path id="TimesNewRomanPS-BoldMT-6e" d="M 1409 2922 
L 1409 2544 
Q 1634 2788 1840 2898 
Q 2047 3009 2284 3009 
Q 2569 3009 2756 2851 
Q 2944 2694 3006 2459 
Q 3056 2281 3056 1775 
L 3056 638 
Q 3056 300 3117 217 
Q 3178 134 3372 113 
L 3372 0 
L 1894 0 
L 1894 113 
Q 2059 134 2131 250 
Q 2181 328 2181 638 
L 2181 1938 
Q 2181 2297 2153 2390 
Q 2125 2484 2058 2536 
Q 1991 2588 1909 2588 
Q 1641 2588 1409 2203 
L 1409 638 
Q 1409 309 1470 221 
Q 1531 134 1697 113 
L 1697 0 
L 219 0 
L 219 113 
Q 403 131 481 231 
Q 534 300 534 638 
L 534 2288 
Q 534 2619 473 2700 
Q 413 2781 219 2806 
L 219 2922 
L 1409 2922 
z
" transform="scale(0.015625)"/>
     <path id="TimesNewRomanPS-BoldMT-63" d="M 2600 753 
L 2697 678 
Q 2491 291 2183 101 
Q 1875 -88 1528 -88 
Q 944 -88 594 353 
Q 244 794 244 1413 
Q 244 2009 563 2463 
Q 947 3009 1622 3009 
Q 2075 3009 2342 2781 
Q 2609 2553 2609 2272 
Q 2609 2094 2501 1987 
Q 2394 1881 2219 1881 
Q 2034 1881 1914 2003 
Q 1794 2125 1766 2438 
Q 1747 2634 1675 2713 
Q 1603 2791 1506 2791 
Q 1356 2791 1250 2631 
Q 1088 2391 1088 1894 
Q 1088 1481 1219 1104 
Q 1350 728 1578 544 
Q 1750 409 1984 409 
Q 2138 409 2275 481 
Q 2413 553 2600 753 
z
" transform="scale(0.015625)"/>
     <path id="TimesNewRomanPS-BoldMT-6c" d="M 1359 4238 
L 1359 606 
Q 1359 297 1431 211 
Q 1503 125 1713 113 
L 1713 0 
L 134 0 
L 134 113 
Q 328 119 422 225 
Q 484 297 484 606 
L 484 3631 
Q 484 3938 412 4023 
Q 341 4109 134 4122 
L 134 4238 
L 1359 4238 
z
" transform="scale(0.015625)"/>
     <path id="TimesNewRomanPS-BoldMT-2e" d="M 800 963 
Q 1019 963 1170 809 
Q 1322 656 1322 441 
Q 1322 225 1169 73 
Q 1016 -78 800 -78 
Q 584 -78 432 73 
Q 281 225 281 441 
Q 281 656 432 809 
Q 584 963 800 963 
z
" transform="scale(0.015625)"/>
     <path id="TimesNewRomanPS-BoldMT-2d" d="M 1978 1147 
L 156 1147 
L 156 1794 
L 1978 1794 
L 1978 1147 
z
" transform="scale(0.015625)"/>
     <path id="TimesNewRomanPS-BoldMT-53" d="M 3006 4334 
L 3041 2922 
L 2913 2922 
Q 2822 3453 2467 3776 
Q 2113 4100 1700 4100 
Q 1381 4100 1195 3929 
Q 1009 3759 1009 3538 
Q 1009 3397 1075 3288 
Q 1166 3141 1366 2997 
Q 1513 2894 2044 2631 
Q 2788 2266 3047 1941 
Q 3303 1616 3303 1197 
Q 3303 666 2889 283 
Q 2475 -100 1838 -100 
Q 1638 -100 1459 -59 
Q 1281 -19 1013 94 
Q 863 156 766 156 
Q 684 156 593 93 
Q 503 31 447 -97 
L 331 -97 
L 331 1503 
L 447 1503 
Q 584 828 976 473 
Q 1369 119 1822 119 
Q 2172 119 2380 309 
Q 2588 500 2588 753 
Q 2588 903 2508 1043 
Q 2428 1184 2265 1311 
Q 2103 1438 1691 1641 
Q 1113 1925 859 2125 
Q 606 2325 470 2572 
Q 334 2819 334 3116 
Q 334 3622 706 3978 
Q 1078 4334 1644 4334 
Q 1850 4334 2044 4284 
Q 2191 4247 2402 4145 
Q 2613 4044 2697 4044 
Q 2778 4044 2825 4094 
Q 2872 4144 2913 4334 
L 3006 4334 
z
" transform="scale(0.015625)"/>
     <path id="TimesNewRomanPS-BoldMT-29" d="M 78 -1281 
L 78 -1138 
Q 403 -922 556 -719 
Q 766 -438 888 0 
Q 1038 550 1038 1531 
Q 1038 2456 902 2967 
Q 766 3478 531 3794 
Q 369 4013 78 4178 
L 78 4334 
Q 831 4081 1354 3301 
Q 1878 2522 1878 1509 
Q 1878 513 1354 -257 
Q 831 -1028 78 -1281 
z
" transform="scale(0.015625)"/>
    </defs>
    <use xlink:href="#TimesNewRomanPS-BoldMT-48"/>
    <use xlink:href="#TimesNewRomanPS-BoldMT-6f" x="77.783203"/>
    <use xlink:href="#TimesNewRomanPS-BoldMT-77" x="127.783203"/>
    <use xlink:href="#TimesNewRomanPS-BoldMT-20" x="200"/>
    <use xlink:href="#TimesNewRomanPS-BoldMT-46" x="225"/>
    <use xlink:href="#TimesNewRomanPS-BoldMT-61" x="286.083984"/>
    <use xlink:href="#TimesNewRomanPS-BoldMT-73" x="336.083984"/>
    <use xlink:href="#TimesNewRomanPS-BoldMT-74" x="375"/>
    <use xlink:href="#TimesNewRomanPS-BoldMT-20" x="408.300781"/>
    <use xlink:href="#TimesNewRomanPS-BoldMT-41" x="427.800781"/>
    <use xlink:href="#TimesNewRomanPS-BoldMT-72" x="500.017578"/>
    <use xlink:href="#TimesNewRomanPS-BoldMT-65" x="542.652344"/>
    <use xlink:href="#TimesNewRomanPS-BoldMT-20" x="587.037109"/>
    <use xlink:href="#TimesNewRomanPS-BoldMT-54" x="610.287109"/>
    <use xlink:href="#TimesNewRomanPS-BoldMT-68" x="676.986328"/>
    <use xlink:href="#TimesNewRomanPS-BoldMT-65" x="732.601562"/>
    <use xlink:href="#TimesNewRomanPS-BoldMT-79" x="776.986328"/>
    <use xlink:href="#TimesNewRomanPS-BoldMT-3f" x="826.986328"/>
    <use xlink:href="#TimesNewRomanPS-BoldMT-20" x="876.986328"/>
    <use xlink:href="#TimesNewRomanPS-BoldMT-28" x="901.986328"/>
    <use xlink:href="#TimesNewRomanPS-BoldMT-49" x="935.287109"/>
    <use xlink:href="#TimesNewRomanPS-BoldMT-6e" x="974.203125"/>
    <use xlink:href="#TimesNewRomanPS-BoldMT-63" x="1029.818359"/>
    <use xlink:href="#TimesNewRomanPS-BoldMT-6c" x="1074.203125"/>
    <use xlink:href="#TimesNewRomanPS-BoldMT-2e" x="1101.986328"/>
    <use xlink:href="#TimesNewRomanPS-BoldMT-20" x="1126.986328"/>
    <use xlink:href="#TimesNewRomanPS-BoldMT-45" x="1151.986328"/>
    <use xlink:href="#TimesNewRomanPS-BoldMT-6c" x="1218.685547"/>
    <use xlink:href="#TimesNewRomanPS-BoldMT-6f" x="1246.46875"/>
    <use xlink:href="#TimesNewRomanPS-BoldMT-2d" x="1296.46875"/>
    <use xlink:href="#TimesNewRomanPS-BoldMT-53" x="1329.769531"/>
    <use xlink:href="#TimesNewRomanPS-BoldMT-63" x="1385.384766"/>
    <use xlink:href="#TimesNewRomanPS-BoldMT-6f" x="1429.769531"/>
    <use xlink:href="#TimesNewRomanPS-BoldMT-72" x="1479.769531"/>
    <use xlink:href="#TimesNewRomanPS-BoldMT-65" x="1522.404297"/>
    <use xlink:href="#TimesNewRomanPS-BoldMT-29" x="1566.789062"/>
   </g>
  </g>
 </g>
 <defs>
  <clipPath id="p76f3fd059a">
   <rect x="71.352" y="98.664" width="489.582" height="350.364"/>
  </clipPath>
  <clipPath id="pb209f211df">
   <rect x="639.531" y="98.664" width="489.582" height="350.364"/>
  </clipPath>
 </defs>
</svg>
