<?xml version="1.0" encoding="utf-8" standalone="no"?>
<!DOCTYPE svg PUBLIC "-//W3C//DTD SVG 1.1//EN"
  "http://www.w3.org/Graphics/SVG/1.1/DTD/svg11.dtd">
<svg xmlns:xlink="http://www.w3.org/1999/xlink" width="720pt" height="576pt" viewBox="0 0 720 576" xmlns="http://www.w3.org/2000/svg" version="1.1">
 <metadata>
  <rdf:RDF xmlns:dc="http://purl.org/dc/elements/1.1/" xmlns:cc="http://creativecommons.org/ns#" xmlns:rdf="http://www.w3.org/1999/02/22-rdf-syntax-ns#">
   <cc:Work>
    <dc:type rdf:resource="http://purl.org/dc/dcmitype/StillImage"/>
    <dc:date>2025-07-03T15:55:08.628418</dc:date>
    <dc:format>image/svg+xml</dc:format>
    <dc:creator>
     <cc:Agent>
      <dc:title>Matplotlib v3.10.3, https://matplotlib.org/</dc:title>
     </cc:Agent>
    </dc:creator>
   </cc:Work>
  </rdf:RDF>
 </metadata>
 <defs>
  <style type="text/css">*{stroke-linejoin: round; stroke-linecap: butt}</style>
 </defs>
 <g id="figure_1">
  <g id="patch_1">
   <path d="M 0 576 
L 720 576 
L 720 0 
L 0 0 
z
" style="fill: #ffffff"/>
  </g>
  <g id="axes_1">
   <g id="patch_2">
    <path d="M 40.34 531.16 
L 666.532569 531.16 
L 666.532569 29.94 
L 40.34 29.94 
z
" style="fill: #ffffff"/>
   </g>
   <g id="matplotlib.axis_1">
    <g id="xtick_1">
     <g id="line2d_1">
      <path d="M 109.278631 531.16 
L 109.278631 29.94 
" clip-path="url(#p5590af68d3)" style="fill: none; stroke-dasharray: 2.96,1.28; stroke-dashoffset: 0; stroke: #cccccc; stroke-opacity: 0.5; stroke-width: 0.8"/>
     </g>
     <g id="text_1">
      <!-- 25 -->
      <g style="fill: #262626" transform="translate(103.717694 545.317812) scale(0.1 -0.1)">
       <defs>
        <path id="ArialMT-32" d="M 3222 541 
L 3222 0 
L 194 0 
Q 188 203 259 391 
Q 375 700 629 1000 
Q 884 1300 1366 1694 
Q 2113 2306 2375 2664 
Q 2638 3022 2638 3341 
Q 2638 3675 2398 3904 
Q 2159 4134 1775 4134 
Q 1369 4134 1125 3890 
Q 881 3647 878 3216 
L 300 3275 
Q 359 3922 746 4261 
Q 1134 4600 1788 4600 
Q 2447 4600 2831 4234 
Q 3216 3869 3216 3328 
Q 3216 3053 3103 2787 
Q 2991 2522 2730 2228 
Q 2469 1934 1863 1422 
Q 1356 997 1212 845 
Q 1069 694 975 541 
L 3222 541 
z
" transform="scale(0.015625)"/>
        <path id="ArialMT-35" d="M 266 1200 
L 856 1250 
Q 922 819 1161 601 
Q 1400 384 1738 384 
Q 2144 384 2425 690 
Q 2706 997 2706 1503 
Q 2706 1984 2436 2262 
Q 2166 2541 1728 2541 
Q 1456 2541 1237 2417 
Q 1019 2294 894 2097 
L 366 2166 
L 809 4519 
L 3088 4519 
L 3088 3981 
L 1259 3981 
L 1013 2750 
Q 1425 3038 1878 3038 
Q 2478 3038 2890 2622 
Q 3303 2206 3303 1553 
Q 3303 931 2941 478 
Q 2500 -78 1738 -78 
Q 1113 -78 717 272 
Q 322 622 266 1200 
z
" transform="scale(0.015625)"/>
       </defs>
       <use xlink:href="#ArialMT-32"/>
       <use xlink:href="#ArialMT-35" transform="translate(55.615234 0)"/>
      </g>
     </g>
    </g>
    <g id="xtick_2">
     <g id="line2d_2">
      <path d="M 181.089706 531.16 
L 181.089706 29.94 
" clip-path="url(#p5590af68d3)" style="fill: none; stroke-dasharray: 2.96,1.28; stroke-dashoffset: 0; stroke: #cccccc; stroke-opacity: 0.5; stroke-width: 0.8"/>
     </g>
     <g id="text_2">
      <!-- 50 -->
      <g style="fill: #262626" transform="translate(175.528768 545.317812) scale(0.1 -0.1)">
       <defs>
        <path id="ArialMT-30" d="M 266 2259 
Q 266 3072 433 3567 
Q 600 4063 929 4331 
Q 1259 4600 1759 4600 
Q 2128 4600 2406 4451 
Q 2684 4303 2865 4023 
Q 3047 3744 3150 3342 
Q 3253 2941 3253 2259 
Q 3253 1453 3087 958 
Q 2922 463 2592 192 
Q 2263 -78 1759 -78 
Q 1097 -78 719 397 
Q 266 969 266 2259 
z
M 844 2259 
Q 844 1131 1108 757 
Q 1372 384 1759 384 
Q 2147 384 2411 759 
Q 2675 1134 2675 2259 
Q 2675 3391 2411 3762 
Q 2147 4134 1753 4134 
Q 1366 4134 1134 3806 
Q 844 3388 844 2259 
z
" transform="scale(0.015625)"/>
       </defs>
       <use xlink:href="#ArialMT-35"/>
       <use xlink:href="#ArialMT-30" transform="translate(55.615234 0)"/>
      </g>
     </g>
    </g>
    <g id="xtick_3">
     <g id="line2d_3">
      <path d="M 252.90078 531.16 
L 252.90078 29.94 
" clip-path="url(#p5590af68d3)" style="fill: none; stroke-dasharray: 2.96,1.28; stroke-dashoffset: 0; stroke: #cccccc; stroke-opacity: 0.5; stroke-width: 0.8"/>
     </g>
     <g id="text_3">
      <!-- 75 -->
      <g style="fill: #262626" transform="translate(247.339843 545.317812) scale(0.1 -0.1)">
       <defs>
        <path id="ArialMT-37" d="M 303 3981 
L 303 4522 
L 3269 4522 
L 3269 4084 
Q 2831 3619 2401 2847 
Q 1972 2075 1738 1259 
Q 1569 684 1522 0 
L 944 0 
Q 953 541 1156 1306 
Q 1359 2072 1739 2783 
Q 2119 3494 2547 3981 
L 303 3981 
z
" transform="scale(0.015625)"/>
       </defs>
       <use xlink:href="#ArialMT-37"/>
       <use xlink:href="#ArialMT-35" transform="translate(55.615234 0)"/>
      </g>
     </g>
    </g>
    <g id="xtick_4">
     <g id="line2d_4">
      <path d="M 324.711855 531.16 
L 324.711855 29.94 
" clip-path="url(#p5590af68d3)" style="fill: none; stroke-dasharray: 2.96,1.28; stroke-dashoffset: 0; stroke: #cccccc; stroke-opacity: 0.5; stroke-width: 0.8"/>
     </g>
     <g id="text_4">
      <!-- 100 -->
      <g style="fill: #262626" transform="translate(316.370448 545.317812) scale(0.1 -0.1)">
       <defs>
        <path id="ArialMT-31" d="M 2384 0 
L 1822 0 
L 1822 3584 
Q 1619 3391 1289 3197 
Q 959 3003 697 2906 
L 697 3450 
Q 1169 3672 1522 3987 
Q 1875 4303 2022 4600 
L 2384 4600 
L 2384 0 
z
" transform="scale(0.015625)"/>
       </defs>
       <use xlink:href="#ArialMT-31"/>
       <use xlink:href="#ArialMT-30" transform="translate(55.615234 0)"/>
       <use xlink:href="#ArialMT-30" transform="translate(111.230469 0)"/>
      </g>
     </g>
    </g>
    <g id="xtick_5">
     <g id="line2d_5">
      <path d="M 396.522929 531.16 
L 396.522929 29.94 
" clip-path="url(#p5590af68d3)" style="fill: none; stroke-dasharray: 2.96,1.28; stroke-dashoffset: 0; stroke: #cccccc; stroke-opacity: 0.5; stroke-width: 0.8"/>
     </g>
     <g id="text_5">
      <!-- 125 -->
      <g style="fill: #262626" transform="translate(388.181523 545.317812) scale(0.1 -0.1)">
       <use xlink:href="#ArialMT-31"/>
       <use xlink:href="#ArialMT-32" transform="translate(55.615234 0)"/>
       <use xlink:href="#ArialMT-35" transform="translate(111.230469 0)"/>
      </g>
     </g>
    </g>
    <g id="xtick_6">
     <g id="line2d_6">
      <path d="M 468.334003 531.16 
L 468.334003 29.94 
" clip-path="url(#p5590af68d3)" style="fill: none; stroke-dasharray: 2.96,1.28; stroke-dashoffset: 0; stroke: #cccccc; stroke-opacity: 0.5; stroke-width: 0.8"/>
     </g>
     <g id="text_6">
      <!-- 150 -->
      <g style="fill: #262626" transform="translate(459.992597 545.317812) scale(0.1 -0.1)">
       <use xlink:href="#ArialMT-31"/>
       <use xlink:href="#ArialMT-35" transform="translate(55.615234 0)"/>
       <use xlink:href="#ArialMT-30" transform="translate(111.230469 0)"/>
      </g>
     </g>
    </g>
    <g id="xtick_7">
     <g id="line2d_7">
      <path d="M 540.145078 531.16 
L 540.145078 29.94 
" clip-path="url(#p5590af68d3)" style="fill: none; stroke-dasharray: 2.96,1.28; stroke-dashoffset: 0; stroke: #cccccc; stroke-opacity: 0.5; stroke-width: 0.8"/>
     </g>
     <g id="text_7">
      <!-- 175 -->
      <g style="fill: #262626" transform="translate(531.803672 545.317812) scale(0.1 -0.1)">
       <use xlink:href="#ArialMT-31"/>
       <use xlink:href="#ArialMT-37" transform="translate(55.615234 0)"/>
       <use xlink:href="#ArialMT-35" transform="translate(111.230469 0)"/>
      </g>
     </g>
    </g>
    <g id="xtick_8">
     <g id="line2d_8">
      <path d="M 611.956152 531.16 
L 611.956152 29.94 
" clip-path="url(#p5590af68d3)" style="fill: none; stroke-dasharray: 2.96,1.28; stroke-dashoffset: 0; stroke: #cccccc; stroke-opacity: 0.5; stroke-width: 0.8"/>
     </g>
     <g id="text_8">
      <!-- 200 -->
      <g style="fill: #262626" transform="translate(603.614746 545.317812) scale(0.1 -0.1)">
       <use xlink:href="#ArialMT-32"/>
       <use xlink:href="#ArialMT-30" transform="translate(55.615234 0)"/>
       <use xlink:href="#ArialMT-30" transform="translate(111.230469 0)"/>
      </g>
     </g>
    </g>
    <g id="text_9">
     <!-- Session Count -->
     <g style="fill: #262626" transform="translate(313.178628 561.026562) scale(0.14 -0.14)">
      <defs>
       <path id="TimesNewRomanPSMT-53" d="M 2934 4334 
L 2934 2869 
L 2819 2869 
Q 2763 3291 2617 3541 
Q 2472 3791 2203 3937 
Q 1934 4084 1647 4084 
Q 1322 4084 1109 3886 
Q 897 3688 897 3434 
Q 897 3241 1031 3081 
Q 1225 2847 1953 2456 
Q 2547 2138 2764 1967 
Q 2981 1797 3098 1565 
Q 3216 1334 3216 1081 
Q 3216 600 2842 251 
Q 2469 -97 1881 -97 
Q 1697 -97 1534 -69 
Q 1438 -53 1133 45 
Q 828 144 747 144 
Q 669 144 623 97 
Q 578 50 556 -97 
L 441 -97 
L 441 1356 
L 556 1356 
Q 638 900 775 673 
Q 913 447 1195 297 
Q 1478 147 1816 147 
Q 2206 147 2432 353 
Q 2659 559 2659 841 
Q 2659 997 2573 1156 
Q 2488 1316 2306 1453 
Q 2184 1547 1640 1851 
Q 1097 2156 867 2337 
Q 638 2519 519 2737 
Q 400 2956 400 3219 
Q 400 3675 750 4004 
Q 1100 4334 1641 4334 
Q 1978 4334 2356 4169 
Q 2531 4091 2603 4091 
Q 2684 4091 2736 4139 
Q 2788 4188 2819 4334 
L 2934 4334 
z
" transform="scale(0.015625)"/>
       <path id="TimesNewRomanPSMT-65" d="M 681 1784 
Q 678 1147 991 784 
Q 1303 422 1725 422 
Q 2006 422 2214 576 
Q 2422 731 2563 1106 
L 2659 1044 
Q 2594 616 2278 264 
Q 1963 -88 1488 -88 
Q 972 -88 605 314 
Q 238 716 238 1394 
Q 238 2128 614 2539 
Q 991 2950 1559 2950 
Q 2041 2950 2350 2633 
Q 2659 2316 2659 1784 
L 681 1784 
z
M 681 1966 
L 2006 1966 
Q 1991 2241 1941 2353 
Q 1863 2528 1708 2628 
Q 1553 2728 1384 2728 
Q 1125 2728 920 2526 
Q 716 2325 681 1966 
z
" transform="scale(0.015625)"/>
       <path id="TimesNewRomanPSMT-73" d="M 2050 2947 
L 2050 1972 
L 1947 1972 
Q 1828 2431 1642 2597 
Q 1456 2763 1169 2763 
Q 950 2763 815 2647 
Q 681 2531 681 2391 
Q 681 2216 781 2091 
Q 878 1963 1175 1819 
L 1631 1597 
Q 2266 1288 2266 781 
Q 2266 391 1970 151 
Q 1675 -88 1309 -88 
Q 1047 -88 709 6 
Q 606 38 541 38 
Q 469 38 428 -44 
L 325 -44 
L 325 978 
L 428 978 
Q 516 541 762 319 
Q 1009 97 1316 97 
Q 1531 97 1667 223 
Q 1803 350 1803 528 
Q 1803 744 1651 891 
Q 1500 1038 1047 1263 
Q 594 1488 453 1669 
Q 313 1847 313 2119 
Q 313 2472 555 2709 
Q 797 2947 1181 2947 
Q 1350 2947 1591 2875 
Q 1750 2828 1803 2828 
Q 1853 2828 1881 2850 
Q 1909 2872 1947 2947 
L 2050 2947 
z
" transform="scale(0.015625)"/>
       <path id="TimesNewRomanPSMT-69" d="M 928 4444 
Q 1059 4444 1151 4351 
Q 1244 4259 1244 4128 
Q 1244 3997 1151 3903 
Q 1059 3809 928 3809 
Q 797 3809 703 3903 
Q 609 3997 609 4128 
Q 609 4259 701 4351 
Q 794 4444 928 4444 
z
M 1188 2947 
L 1188 647 
Q 1188 378 1227 289 
Q 1266 200 1342 156 
Q 1419 113 1622 113 
L 1622 0 
L 231 0 
L 231 113 
Q 441 113 512 153 
Q 584 194 626 287 
Q 669 381 669 647 
L 669 1750 
Q 669 2216 641 2353 
Q 619 2453 572 2492 
Q 525 2531 444 2531 
Q 356 2531 231 2484 
L 188 2597 
L 1050 2947 
L 1188 2947 
z
" transform="scale(0.015625)"/>
       <path id="TimesNewRomanPSMT-6f" d="M 1600 2947 
Q 2250 2947 2644 2453 
Q 2978 2031 2978 1484 
Q 2978 1100 2793 706 
Q 2609 313 2286 112 
Q 1963 -88 1566 -88 
Q 919 -88 538 428 
Q 216 863 216 1403 
Q 216 1797 411 2186 
Q 606 2575 925 2761 
Q 1244 2947 1600 2947 
z
M 1503 2744 
Q 1338 2744 1170 2645 
Q 1003 2547 900 2300 
Q 797 2053 797 1666 
Q 797 1041 1045 587 
Q 1294 134 1700 134 
Q 2003 134 2200 384 
Q 2397 634 2397 1244 
Q 2397 2006 2069 2444 
Q 1847 2744 1503 2744 
z
" transform="scale(0.015625)"/>
       <path id="TimesNewRomanPSMT-6e" d="M 1034 2341 
Q 1538 2947 1994 2947 
Q 2228 2947 2397 2830 
Q 2566 2713 2666 2444 
Q 2734 2256 2734 1869 
L 2734 647 
Q 2734 375 2778 278 
Q 2813 200 2889 156 
Q 2966 113 3172 113 
L 3172 0 
L 1756 0 
L 1756 113 
L 1816 113 
Q 2016 113 2095 173 
Q 2175 234 2206 353 
Q 2219 400 2219 647 
L 2219 1819 
Q 2219 2209 2117 2386 
Q 2016 2563 1775 2563 
Q 1403 2563 1034 2156 
L 1034 647 
Q 1034 356 1069 288 
Q 1113 197 1189 155 
Q 1266 113 1500 113 
L 1500 0 
L 84 0 
L 84 113 
L 147 113 
Q 366 113 442 223 
Q 519 334 519 647 
L 519 1709 
Q 519 2225 495 2337 
Q 472 2450 423 2490 
Q 375 2531 294 2531 
Q 206 2531 84 2484 
L 38 2597 
L 900 2947 
L 1034 2947 
L 1034 2341 
z
" transform="scale(0.015625)"/>
       <path id="TimesNewRomanPSMT-20" transform="scale(0.015625)"/>
       <path id="TimesNewRomanPSMT-43" d="M 3853 4334 
L 3950 2894 
L 3853 2894 
Q 3659 3541 3300 3825 
Q 2941 4109 2438 4109 
Q 2016 4109 1675 3895 
Q 1334 3681 1139 3212 
Q 944 2744 944 2047 
Q 944 1472 1128 1050 
Q 1313 628 1683 403 
Q 2053 178 2528 178 
Q 2941 178 3256 354 
Q 3572 531 3950 1056 
L 4047 994 
Q 3728 428 3303 165 
Q 2878 -97 2294 -97 
Q 1241 -97 663 684 
Q 231 1266 231 2053 
Q 231 2688 515 3219 
Q 800 3750 1298 4042 
Q 1797 4334 2388 4334 
Q 2847 4334 3294 4109 
Q 3425 4041 3481 4041 
Q 3566 4041 3628 4100 
Q 3709 4184 3744 4334 
L 3853 4334 
z
" transform="scale(0.015625)"/>
       <path id="TimesNewRomanPSMT-75" d="M 2709 2863 
L 2709 1128 
Q 2709 631 2732 520 
Q 2756 409 2807 365 
Q 2859 322 2928 322 
Q 3025 322 3147 375 
L 3191 266 
L 2334 -88 
L 2194 -88 
L 2194 519 
Q 1825 119 1631 15 
Q 1438 -88 1222 -88 
Q 981 -88 804 51 
Q 628 191 559 409 
Q 491 628 491 1028 
L 491 2306 
Q 491 2509 447 2587 
Q 403 2666 317 2708 
Q 231 2750 6 2747 
L 6 2863 
L 1009 2863 
L 1009 947 
Q 1009 547 1148 422 
Q 1288 297 1484 297 
Q 1619 297 1789 381 
Q 1959 466 2194 703 
L 2194 2325 
Q 2194 2569 2105 2655 
Q 2016 2741 1734 2747 
L 1734 2863 
L 2709 2863 
z
" transform="scale(0.015625)"/>
       <path id="TimesNewRomanPSMT-74" d="M 1031 3803 
L 1031 2863 
L 1700 2863 
L 1700 2644 
L 1031 2644 
L 1031 788 
Q 1031 509 1111 412 
Q 1191 316 1316 316 
Q 1419 316 1516 380 
Q 1613 444 1666 569 
L 1788 569 
Q 1678 263 1478 108 
Q 1278 -47 1066 -47 
Q 922 -47 784 33 
Q 647 113 581 261 
Q 516 409 516 719 
L 516 2644 
L 63 2644 
L 63 2747 
Q 234 2816 414 2980 
Q 594 3144 734 3369 
Q 806 3488 934 3803 
L 1031 3803 
z
" transform="scale(0.015625)"/>
      </defs>
      <use xlink:href="#TimesNewRomanPSMT-53"/>
      <use xlink:href="#TimesNewRomanPSMT-65" transform="translate(55.615234 0)"/>
      <use xlink:href="#TimesNewRomanPSMT-73" transform="translate(100 0)"/>
      <use xlink:href="#TimesNewRomanPSMT-73" transform="translate(138.916016 0)"/>
      <use xlink:href="#TimesNewRomanPSMT-69" transform="translate(177.832031 0)"/>
      <use xlink:href="#TimesNewRomanPSMT-6f" transform="translate(205.615234 0)"/>
      <use xlink:href="#TimesNewRomanPSMT-6e" transform="translate(255.615234 0)"/>
      <use xlink:href="#TimesNewRomanPSMT-20" transform="translate(305.615234 0)"/>
      <use xlink:href="#TimesNewRomanPSMT-43" transform="translate(330.615234 0)"/>
      <use xlink:href="#TimesNewRomanPSMT-6f" transform="translate(397.314453 0)"/>
      <use xlink:href="#TimesNewRomanPSMT-75" transform="translate(447.314453 0)"/>
      <use xlink:href="#TimesNewRomanPSMT-6e" transform="translate(497.314453 0)"/>
      <use xlink:href="#TimesNewRomanPSMT-74" transform="translate(547.314453 0)"/>
     </g>
    </g>
   </g>
   <g id="matplotlib.axis_2">
    <g id="ytick_1">
     <g id="line2d_9">
      <path d="M 40.34 531.16 
L 666.532569 531.16 
" clip-path="url(#p5590af68d3)" style="fill: none; stroke-dasharray: 2.96,1.28; stroke-dashoffset: 0; stroke: #cccccc; stroke-opacity: 0.5; stroke-width: 0.8"/>
     </g>
     <g id="text_10">
      <!-- 0 -->
      <g style="fill: #262626" transform="translate(27.779063 534.738906) scale(0.1 -0.1)">
       <use xlink:href="#ArialMT-30"/>
      </g>
     </g>
    </g>
    <g id="ytick_2">
     <g id="line2d_10">
      <path d="M 40.34 29.94 
L 666.532569 29.94 
" clip-path="url(#p5590af68d3)" style="fill: none; stroke-dasharray: 2.96,1.28; stroke-dashoffset: 0; stroke: #cccccc; stroke-opacity: 0.5; stroke-width: 0.8"/>
     </g>
     <g id="text_11">
      <!-- 1 -->
      <g style="fill: #262626" transform="translate(27.779063 33.518906) scale(0.1 -0.1)">
       <use xlink:href="#ArialMT-31"/>
      </g>
     </g>
    </g>
    <g id="text_12">
     <!-- Stacked Proportion -->
     <g style="fill: #262626" transform="translate(20.784375 334.402969) rotate(-90) scale(0.14 -0.14)">
      <defs>
       <path id="TimesNewRomanPSMT-61" d="M 1822 413 
Q 1381 72 1269 19 
Q 1100 -59 909 -59 
Q 613 -59 420 144 
Q 228 347 228 678 
Q 228 888 322 1041 
Q 450 1253 767 1440 
Q 1084 1628 1822 1897 
L 1822 2009 
Q 1822 2438 1686 2597 
Q 1550 2756 1291 2756 
Q 1094 2756 978 2650 
Q 859 2544 859 2406 
L 866 2225 
Q 866 2081 792 2003 
Q 719 1925 600 1925 
Q 484 1925 411 2006 
Q 338 2088 338 2228 
Q 338 2497 613 2722 
Q 888 2947 1384 2947 
Q 1766 2947 2009 2819 
Q 2194 2722 2281 2516 
Q 2338 2381 2338 1966 
L 2338 994 
Q 2338 584 2353 492 
Q 2369 400 2405 369 
Q 2441 338 2488 338 
Q 2538 338 2575 359 
Q 2641 400 2828 588 
L 2828 413 
Q 2478 -56 2159 -56 
Q 2006 -56 1915 50 
Q 1825 156 1822 413 
z
M 1822 616 
L 1822 1706 
Q 1350 1519 1213 1441 
Q 966 1303 859 1153 
Q 753 1003 753 825 
Q 753 600 887 451 
Q 1022 303 1197 303 
Q 1434 303 1822 616 
z
" transform="scale(0.015625)"/>
       <path id="TimesNewRomanPSMT-63" d="M 2631 1088 
Q 2516 522 2178 217 
Q 1841 -88 1431 -88 
Q 944 -88 581 321 
Q 219 731 219 1428 
Q 219 2103 620 2525 
Q 1022 2947 1584 2947 
Q 2006 2947 2278 2723 
Q 2550 2500 2550 2259 
Q 2550 2141 2473 2067 
Q 2397 1994 2259 1994 
Q 2075 1994 1981 2113 
Q 1928 2178 1911 2362 
Q 1894 2547 1784 2644 
Q 1675 2738 1481 2738 
Q 1169 2738 978 2506 
Q 725 2200 725 1697 
Q 725 1184 976 792 
Q 1228 400 1656 400 
Q 1963 400 2206 609 
Q 2378 753 2541 1131 
L 2631 1088 
z
" transform="scale(0.015625)"/>
       <path id="TimesNewRomanPSMT-6b" d="M 1047 4444 
L 1047 1594 
L 1775 2259 
Q 2006 2472 2044 2528 
Q 2069 2566 2069 2603 
Q 2069 2666 2017 2711 
Q 1966 2756 1847 2763 
L 1847 2863 
L 3091 2863 
L 3091 2763 
Q 2834 2756 2664 2684 
Q 2494 2613 2291 2428 
L 1556 1750 
L 2291 822 
Q 2597 438 2703 334 
Q 2853 188 2966 144 
Q 3044 113 3238 113 
L 3238 0 
L 1847 0 
L 1847 113 
Q 1966 116 2008 148 
Q 2050 181 2050 241 
Q 2050 313 1925 472 
L 1047 1594 
L 1047 644 
Q 1047 366 1086 278 
Q 1125 191 1197 153 
Q 1269 116 1509 113 
L 1509 0 
L 53 0 
L 53 113 
Q 272 113 381 166 
Q 447 200 481 272 
Q 528 375 528 628 
L 528 3234 
Q 528 3731 506 3842 
Q 484 3953 434 3995 
Q 384 4038 303 4038 
Q 238 4038 106 3984 
L 53 4094 
L 903 4444 
L 1047 4444 
z
" transform="scale(0.015625)"/>
       <path id="TimesNewRomanPSMT-64" d="M 2222 322 
Q 2013 103 1813 7 
Q 1613 -88 1381 -88 
Q 913 -88 563 304 
Q 213 697 213 1313 
Q 213 1928 600 2439 
Q 988 2950 1597 2950 
Q 1975 2950 2222 2709 
L 2222 3238 
Q 2222 3728 2198 3840 
Q 2175 3953 2125 3993 
Q 2075 4034 2000 4034 
Q 1919 4034 1784 3984 
L 1744 4094 
L 2597 4444 
L 2738 4444 
L 2738 1134 
Q 2738 631 2761 520 
Q 2784 409 2836 365 
Q 2888 322 2956 322 
Q 3041 322 3181 375 
L 3216 266 
L 2366 -88 
L 2222 -88 
L 2222 322 
z
M 2222 541 
L 2222 2016 
Q 2203 2228 2109 2403 
Q 2016 2578 1861 2667 
Q 1706 2756 1559 2756 
Q 1284 2756 1069 2509 
Q 784 2184 784 1559 
Q 784 928 1059 592 
Q 1334 256 1672 256 
Q 1956 256 2222 541 
z
" transform="scale(0.015625)"/>
       <path id="TimesNewRomanPSMT-50" d="M 1313 1984 
L 1313 750 
Q 1313 350 1400 253 
Q 1519 116 1759 116 
L 1922 116 
L 1922 0 
L 106 0 
L 106 116 
L 266 116 
Q 534 116 650 291 
Q 713 388 713 750 
L 713 3488 
Q 713 3888 628 3984 
Q 506 4122 266 4122 
L 106 4122 
L 106 4238 
L 1659 4238 
Q 2228 4238 2556 4120 
Q 2884 4003 3109 3725 
Q 3334 3447 3334 3066 
Q 3334 2547 2992 2222 
Q 2650 1897 2025 1897 
Q 1872 1897 1694 1919 
Q 1516 1941 1313 1984 
z
M 1313 2163 
Q 1478 2131 1606 2115 
Q 1734 2100 1825 2100 
Q 2150 2100 2386 2351 
Q 2622 2603 2622 3003 
Q 2622 3278 2509 3514 
Q 2397 3750 2190 3867 
Q 1984 3984 1722 3984 
Q 1563 3984 1313 3925 
L 1313 2163 
z
" transform="scale(0.015625)"/>
       <path id="TimesNewRomanPSMT-72" d="M 1038 2947 
L 1038 2303 
Q 1397 2947 1775 2947 
Q 1947 2947 2059 2842 
Q 2172 2738 2172 2600 
Q 2172 2478 2090 2393 
Q 2009 2309 1897 2309 
Q 1788 2309 1652 2417 
Q 1516 2525 1450 2525 
Q 1394 2525 1328 2463 
Q 1188 2334 1038 2041 
L 1038 669 
Q 1038 431 1097 309 
Q 1138 225 1241 169 
Q 1344 113 1538 113 
L 1538 0 
L 72 0 
L 72 113 
Q 291 113 397 181 
Q 475 231 506 341 
Q 522 394 522 644 
L 522 1753 
Q 522 2253 501 2348 
Q 481 2444 426 2487 
Q 372 2531 291 2531 
Q 194 2531 72 2484 
L 41 2597 
L 906 2947 
L 1038 2947 
z
" transform="scale(0.015625)"/>
       <path id="TimesNewRomanPSMT-70" d="M -6 2578 
L 875 2934 
L 994 2934 
L 994 2266 
Q 1216 2644 1439 2795 
Q 1663 2947 1909 2947 
Q 2341 2947 2628 2609 
Q 2981 2197 2981 1534 
Q 2981 794 2556 309 
Q 2206 -88 1675 -88 
Q 1444 -88 1275 -22 
Q 1150 25 994 166 
L 994 -706 
Q 994 -1000 1030 -1079 
Q 1066 -1159 1155 -1206 
Q 1244 -1253 1478 -1253 
L 1478 -1369 
L -22 -1369 
L -22 -1253 
L 56 -1253 
Q 228 -1256 350 -1188 
Q 409 -1153 442 -1076 
Q 475 -1000 475 -688 
L 475 2019 
Q 475 2297 450 2372 
Q 425 2447 370 2484 
Q 316 2522 222 2522 
Q 147 2522 31 2478 
L -6 2578 
z
M 994 2081 
L 994 1013 
Q 994 666 1022 556 
Q 1066 375 1236 237 
Q 1406 100 1666 100 
Q 1978 100 2172 344 
Q 2425 663 2425 1241 
Q 2425 1897 2138 2250 
Q 1938 2494 1663 2494 
Q 1513 2494 1366 2419 
Q 1253 2363 994 2081 
z
" transform="scale(0.015625)"/>
      </defs>
      <use xlink:href="#TimesNewRomanPSMT-53"/>
      <use xlink:href="#TimesNewRomanPSMT-74" transform="translate(55.615234 0)"/>
      <use xlink:href="#TimesNewRomanPSMT-61" transform="translate(83.398438 0)"/>
      <use xlink:href="#TimesNewRomanPSMT-63" transform="translate(127.783203 0)"/>
      <use xlink:href="#TimesNewRomanPSMT-6b" transform="translate(172.167969 0)"/>
      <use xlink:href="#TimesNewRomanPSMT-65" transform="translate(222.167969 0)"/>
      <use xlink:href="#TimesNewRomanPSMT-64" transform="translate(266.552734 0)"/>
      <use xlink:href="#TimesNewRomanPSMT-20" transform="translate(316.552734 0)"/>
      <use xlink:href="#TimesNewRomanPSMT-50" transform="translate(341.552734 0)"/>
      <use xlink:href="#TimesNewRomanPSMT-72" transform="translate(397.167969 0)"/>
      <use xlink:href="#TimesNewRomanPSMT-6f" transform="translate(430.46875 0)"/>
      <use xlink:href="#TimesNewRomanPSMT-70" transform="translate(480.46875 0)"/>
      <use xlink:href="#TimesNewRomanPSMT-6f" transform="translate(530.46875 0)"/>
      <use xlink:href="#TimesNewRomanPSMT-72" transform="translate(580.46875 0)"/>
      <use xlink:href="#TimesNewRomanPSMT-74" transform="translate(613.769531 0)"/>
      <use xlink:href="#TimesNewRomanPSMT-69" transform="translate(641.552734 0)"/>
      <use xlink:href="#TimesNewRomanPSMT-6f" transform="translate(669.335938 0)"/>
      <use xlink:href="#TimesNewRomanPSMT-6e" transform="translate(719.335938 0)"/>
     </g>
    </g>
   </g>
   <g id="FillBetweenPolyCollection_1">
    <path d="M 40.34 188.22 
L 40.34 531.16 
L 40.34 188.22 
L 40.34 188.22 
z
" clip-path="url(#p5590af68d3)" style="fill: #5386b6; stroke: #ffffff"/>
    <path d="M 46.084886 299.827692 
L 46.084886 531.16 
L 48.957329 531.16 
L 51.829772 531.16 
L 54.702215 531.16 
L 57.574658 531.16 
L 60.447101 531.16 
L 63.319544 531.16 
L 66.191987 531.16 
L 69.06443 531.16 
L 71.936873 531.16 
L 74.809316 531.16 
L 77.681759 531.16 
L 80.554202 531.16 
L 83.426645 531.16 
L 86.299088 531.16 
L 89.171531 531.16 
L 92.043974 531.16 
L 94.916417 531.16 
L 97.78886 531.16 
L 100.661302 531.16 
L 103.533745 531.16 
L 106.406188 531.16 
L 109.278631 531.16 
L 112.151074 531.16 
L 115.023517 531.16 
L 117.89596 531.16 
L 120.768403 531.16 
L 123.640846 531.16 
L 126.513289 531.16 
L 129.385732 531.16 
L 132.258175 531.16 
L 135.130618 531.16 
L 138.003061 531.16 
L 140.875504 531.16 
L 143.747947 531.16 
L 146.62039 531.16 
L 149.492833 531.16 
L 152.365276 531.16 
L 155.237719 531.16 
L 158.110162 531.16 
L 160.982605 531.16 
L 163.855048 531.16 
L 166.727491 531.16 
L 169.599934 531.16 
L 172.472377 531.16 
L 175.34482 531.16 
L 178.217263 531.16 
L 181.089706 531.16 
L 183.962149 531.16 
L 186.834592 531.16 
L 189.707035 531.16 
L 192.579478 531.16 
L 195.451921 531.16 
L 198.324364 531.16 
L 201.196807 531.16 
L 204.06925 531.16 
L 206.941693 531.16 
L 209.814136 531.16 
L 212.686579 531.16 
L 215.559022 531.16 
L 218.431465 531.16 
L 221.303907 531.16 
L 224.17635 531.16 
L 227.048793 531.16 
L 229.921236 531.16 
L 232.793679 531.16 
L 235.666122 531.16 
L 238.538565 531.16 
L 241.411008 531.16 
L 244.283451 531.16 
L 247.155894 531.16 
L 250.028337 531.16 
L 252.90078 531.16 
L 255.773223 531.16 
L 258.645666 531.16 
L 261.518109 531.16 
L 264.390552 531.16 
L 267.262995 531.16 
L 270.135438 531.16 
L 273.007881 531.16 
L 275.880324 531.16 
L 278.752767 531.16 
L 281.62521 531.16 
L 284.497653 531.16 
L 287.370096 531.16 
L 290.242539 531.16 
L 293.114982 531.16 
L 295.987425 531.16 
L 298.859868 531.16 
L 301.732311 531.16 
L 304.604754 531.16 
L 307.477197 531.16 
L 310.34964 531.16 
L 313.222083 531.16 
L 316.094526 531.16 
L 318.966969 531.16 
L 321.839412 531.16 
L 324.711855 531.16 
L 327.584298 531.16 
L 330.456741 531.16 
L 333.329184 531.16 
L 336.201627 531.16 
L 339.07407 531.16 
L 341.946512 531.16 
L 344.818955 531.16 
L 347.691398 531.16 
L 350.563841 531.16 
L 353.436284 531.16 
L 356.308727 531.16 
L 359.18117 531.16 
L 362.053613 531.16 
L 364.926056 531.16 
L 367.798499 531.16 
L 370.670942 531.16 
L 373.543385 531.16 
L 376.415828 531.16 
L 379.288271 531.16 
L 382.160714 531.16 
L 385.033157 531.16 
L 387.9056 531.16 
L 390.778043 531.16 
L 393.650486 531.16 
L 396.522929 531.16 
L 399.395372 531.16 
L 402.267815 531.16 
L 405.140258 531.16 
L 408.012701 531.16 
L 410.885144 531.16 
L 413.757587 531.16 
L 416.63003 531.16 
L 419.502473 531.16 
L 422.374916 531.16 
L 425.247359 531.16 
L 428.119802 531.16 
L 430.992245 531.16 
L 433.864688 531.16 
L 436.737131 531.16 
L 439.609574 531.16 
L 442.482017 531.16 
L 445.35446 531.16 
L 448.226903 531.16 
L 451.099346 531.16 
L 453.971789 531.16 
L 456.844232 531.16 
L 459.716675 531.16 
L 462.589117 531.16 
L 465.46156 531.16 
L 468.334003 531.16 
L 471.206446 531.16 
L 474.078889 531.16 
L 476.951332 531.16 
L 479.823775 531.16 
L 482.696218 531.16 
L 485.568661 531.16 
L 488.441104 531.16 
L 491.313547 531.16 
L 494.18599 531.16 
L 497.058433 531.16 
L 499.930876 531.16 
L 502.803319 531.16 
L 505.675762 531.16 
L 508.548205 531.16 
L 511.420648 531.16 
L 514.293091 531.16 
L 517.165534 531.16 
L 520.037977 531.16 
L 522.91042 531.16 
L 525.782863 531.16 
L 528.655306 531.16 
L 531.527749 531.16 
L 534.400192 531.16 
L 537.272635 531.16 
L 540.145078 531.16 
L 543.017521 531.16 
L 545.889964 531.16 
L 548.762407 531.16 
L 551.63485 531.16 
L 554.507293 531.16 
L 557.379736 531.16 
L 560.252179 531.16 
L 563.124622 531.16 
L 565.997065 531.16 
L 568.869508 531.16 
L 571.741951 531.16 
L 574.614394 531.16 
L 577.486837 531.16 
L 580.35928 531.16 
L 583.231722 531.16 
L 586.104165 531.16 
L 588.976608 531.16 
L 591.849051 531.16 
L 594.721494 531.16 
L 597.593937 531.16 
L 600.46638 531.16 
L 603.338823 531.16 
L 606.211266 531.16 
L 609.083709 531.16 
L 611.956152 531.16 
L 614.828595 531.16 
L 617.701038 531.16 
L 620.573481 531.16 
L 623.445924 531.16 
L 626.318367 531.16 
L 629.19081 531.16 
L 632.063253 531.16 
L 634.935696 531.16 
L 637.808139 531.16 
L 640.680582 531.16 
L 643.553025 531.16 
L 646.425468 531.16 
L 649.297911 531.16 
L 652.170354 531.16 
L 655.042797 531.16 
L 657.91524 531.16 
L 660.787683 531.16 
L 663.660126 531.16 
L 666.532569 531.16 
L 666.532569 29.94 
L 666.532569 29.94 
L 663.660126 280.55 
L 660.787683 531.16 
L 657.91524 29.94 
L 655.042797 29.94 
L 652.170354 29.94 
L 649.297911 29.94 
L 646.425468 531.16 
L 643.553025 364.086667 
L 640.680582 29.94 
L 637.808139 531.16 
L 634.935696 280.55 
L 632.063253 130.184 
L 629.19081 280.55 
L 626.318367 29.94 
L 623.445924 130.184 
L 620.573481 531.16 
L 617.701038 280.55 
L 614.828595 29.94 
L 611.956152 197.013333 
L 609.083709 29.94 
L 606.211266 101.542857 
L 603.338823 155.245 
L 600.46638 364.086667 
L 597.593937 29.94 
L 594.721494 197.013333 
L 591.849051 280.55 
L 588.976608 29.94 
L 586.104165 531.16 
L 583.231722 531.16 
L 580.35928 29.94 
L 577.486837 29.94 
L 574.614394 155.245 
L 571.741951 29.94 
L 568.869508 29.94 
L 565.997065 29.94 
L 563.124622 280.55 
L 560.252179 29.94 
L 557.379736 531.16 
L 554.507293 29.94 
L 551.63485 29.94 
L 548.762407 29.94 
L 545.889964 155.245 
L 543.017521 29.94 
L 540.145078 29.94 
L 537.272635 29.94 
L 534.400192 29.94 
L 531.527749 29.94 
L 528.655306 280.55 
L 525.782863 29.94 
L 522.91042 230.428 
L 520.037977 29.94 
L 517.165534 29.94 
L 514.293091 130.184 
L 511.420648 126.950323 
L 508.548205 155.245 
L 505.675762 85.631111 
L 502.803319 75.505455 
L 499.930876 29.94 
L 497.058433 109.08 
L 494.18599 29.94 
L 491.313547 80.062 
L 488.441104 130.184 
L 485.568661 29.94 
L 482.696218 29.94 
L 479.823775 121.070909 
L 476.951332 80.062 
L 474.078889 155.245 
L 471.206446 29.94 
L 468.334003 80.062 
L 465.46156 29.94 
L 462.589117 75.505455 
L 459.716675 29.94 
L 456.844232 29.94 
L 453.971789 29.94 
L 451.099346 155.245 
L 448.226903 155.245 
L 445.35446 92.5925 
L 442.482017 29.94 
L 439.609574 130.184 
L 436.737131 147.874118 
L 433.864688 197.013333 
L 430.992245 155.245 
L 428.119802 75.505455 
L 425.247359 130.184 
L 422.374916 180.306 
L 419.502473 137.344286 
L 416.63003 280.55 
L 413.757587 280.55 
L 410.885144 109.08 
L 408.012701 531.16 
L 405.140258 29.94 
L 402.267815 130.184 
L 399.395372 212.201818 
L 396.522929 85.631111 
L 393.650486 55.001 
L 390.778043 101.542857 
L 387.9056 330.672 
L 385.033157 308.395556 
L 382.160714 166.636364 
L 379.288271 130.184 
L 376.415828 531.16 
L 373.543385 29.94 
L 370.670942 29.94 
L 367.798499 147.874118 
L 364.926056 105.123 
L 362.053613 249.22375 
L 359.18117 405.855 
L 356.308727 197.013333 
L 353.436284 121.070909 
L 350.563841 29.94 
L 347.691398 29.94 
L 344.818955 29.94 
L 341.946512 85.631111 
L 339.07407 92.5925 
L 336.201627 29.94 
L 333.329184 197.013333 
L 330.456741 29.94 
L 327.584298 85.631111 
L 324.711855 29.94 
L 321.839412 29.94 
L 318.966969 96.769333 
L 316.094526 197.013333 
L 313.222083 107.050769 
L 310.34964 101.542857 
L 307.477197 29.94 
L 304.604754 29.94 
L 301.732311 208.947143 
L 298.859868 29.94 
L 295.987425 135.46 
L 293.114982 155.245 
L 290.242539 109.08 
L 287.370096 197.013333 
L 284.497653 29.94 
L 281.62521 113.476667 
L 278.752767 29.94 
L 275.880324 155.245 
L 273.007881 197.013333 
L 270.135438 113.476667 
L 267.262995 101.542857 
L 264.390552 230.428 
L 261.518109 92.5925 
L 258.645666 141.322222 
L 255.773223 141.322222 
L 252.90078 130.184 
L 250.028337 230.428 
L 247.155894 92.5925 
L 244.283451 155.245 
L 241.411008 113.476667 
L 238.538565 29.94 
L 235.666122 531.16 
L 232.793679 29.94 
L 229.921236 217.8975 
L 227.048793 468.5075 
L 224.17635 244.748571 
L 221.303907 29.94 
L 218.431465 113.476667 
L 215.559022 29.94 
L 212.686579 280.55 
L 209.814136 29.94 
L 206.941693 113.476667 
L 204.06925 155.245 
L 201.196807 405.855 
L 198.324364 29.94 
L 195.451921 197.013333 
L 192.579478 184.161538 
L 189.707035 197.013333 
L 186.834592 92.5925 
L 183.962149 280.55 
L 181.089706 255.489 
L 178.217263 109.08 
L 175.34482 205.367 
L 172.472377 113.476667 
L 169.599934 137.344286 
L 166.727491 531.16 
L 163.855048 163.598667 
L 160.982605 166.636364 
L 158.110162 141.322222 
L 155.237719 29.94 
L 152.365276 244.748571 
L 149.492833 419.777778 
L 146.62039 85.631111 
L 143.747947 125.410476 
L 140.875504 85.631111 
L 138.003061 29.94 
L 135.130618 197.013333 
L 132.258175 150.924138 
L 129.385732 217.8975 
L 126.513289 29.94 
L 123.640846 130.184 
L 120.768403 531.16 
L 117.89596 531.16 
L 115.023517 531.16 
L 112.151074 166.636364 
L 109.278631 155.245 
L 106.406188 280.55 
L 103.533745 29.94 
L 100.661302 230.428 
L 97.78886 29.94 
L 94.916417 212.201818 
L 92.043974 92.5925 
L 89.171531 280.55 
L 86.299088 255.489 
L 83.426645 155.245 
L 80.554202 217.8975 
L 77.681759 184.161538 
L 74.809316 387.954286 
L 71.936873 101.542857 
L 69.06443 141.322222 
L 66.191987 280.55 
L 63.319544 214.6 
L 60.447101 255.489 
L 57.574658 173.145714 
L 54.702215 238.781667 
L 51.829772 230.428 
L 48.957329 531.16 
L 46.084886 299.827692 
z
" clip-path="url(#p5590af68d3)" style="fill: #5386b6; stroke: #ffffff"/>
   </g>
   <g id="FillBetweenPolyCollection_2">
    <path d="M 40.34 161.84 
L 40.34 188.22 
L 40.34 161.84 
L 40.34 161.84 
z
" clip-path="url(#p5590af68d3)" style="fill: #d57459; stroke: #ffffff"/>
    <path d="M 46.084886 261.272308 
L 46.084886 299.827692 
L 48.957329 531.16 
L 51.829772 230.428 
L 54.702215 238.781667 
L 57.574658 173.145714 
L 60.447101 255.489 
L 63.319544 214.6 
L 66.191987 280.55 
L 69.06443 141.322222 
L 71.936873 101.542857 
L 74.809316 387.954286 
L 77.681759 184.161538 
L 80.554202 217.8975 
L 83.426645 155.245 
L 86.299088 255.489 
L 89.171531 280.55 
L 92.043974 92.5925 
L 94.916417 212.201818 
L 97.78886 29.94 
L 100.661302 230.428 
L 103.533745 29.94 
L 106.406188 280.55 
L 109.278631 155.245 
L 112.151074 166.636364 
L 115.023517 531.16 
L 117.89596 531.16 
L 120.768403 531.16 
L 123.640846 130.184 
L 126.513289 29.94 
L 129.385732 217.8975 
L 132.258175 150.924138 
L 135.130618 197.013333 
L 138.003061 29.94 
L 140.875504 85.631111 
L 143.747947 125.410476 
L 146.62039 85.631111 
L 149.492833 419.777778 
L 152.365276 244.748571 
L 155.237719 29.94 
L 158.110162 141.322222 
L 160.982605 166.636364 
L 163.855048 163.598667 
L 166.727491 531.16 
L 169.599934 137.344286 
L 172.472377 113.476667 
L 175.34482 205.367 
L 178.217263 109.08 
L 181.089706 255.489 
L 183.962149 280.55 
L 186.834592 92.5925 
L 189.707035 197.013333 
L 192.579478 184.161538 
L 195.451921 197.013333 
L 198.324364 29.94 
L 201.196807 405.855 
L 204.06925 155.245 
L 206.941693 113.476667 
L 209.814136 29.94 
L 212.686579 280.55 
L 215.559022 29.94 
L 218.431465 113.476667 
L 221.303907 29.94 
L 224.17635 244.748571 
L 227.048793 468.5075 
L 229.921236 217.8975 
L 232.793679 29.94 
L 235.666122 531.16 
L 238.538565 29.94 
L 241.411008 113.476667 
L 244.283451 155.245 
L 247.155894 92.5925 
L 250.028337 230.428 
L 252.90078 130.184 
L 255.773223 141.322222 
L 258.645666 141.322222 
L 261.518109 92.5925 
L 264.390552 230.428 
L 267.262995 101.542857 
L 270.135438 113.476667 
L 273.007881 197.013333 
L 275.880324 155.245 
L 278.752767 29.94 
L 281.62521 113.476667 
L 284.497653 29.94 
L 287.370096 197.013333 
L 290.242539 109.08 
L 293.114982 155.245 
L 295.987425 135.46 
L 298.859868 29.94 
L 301.732311 208.947143 
L 304.604754 29.94 
L 307.477197 29.94 
L 310.34964 101.542857 
L 313.222083 107.050769 
L 316.094526 197.013333 
L 318.966969 96.769333 
L 321.839412 29.94 
L 324.711855 29.94 
L 327.584298 85.631111 
L 330.456741 29.94 
L 333.329184 197.013333 
L 336.201627 29.94 
L 339.07407 92.5925 
L 341.946512 85.631111 
L 344.818955 29.94 
L 347.691398 29.94 
L 350.563841 29.94 
L 353.436284 121.070909 
L 356.308727 197.013333 
L 359.18117 405.855 
L 362.053613 249.22375 
L 364.926056 105.123 
L 367.798499 147.874118 
L 370.670942 29.94 
L 373.543385 29.94 
L 376.415828 531.16 
L 379.288271 130.184 
L 382.160714 166.636364 
L 385.033157 308.395556 
L 387.9056 330.672 
L 390.778043 101.542857 
L 393.650486 55.001 
L 396.522929 85.631111 
L 399.395372 212.201818 
L 402.267815 130.184 
L 405.140258 29.94 
L 408.012701 531.16 
L 410.885144 109.08 
L 413.757587 280.55 
L 416.63003 280.55 
L 419.502473 137.344286 
L 422.374916 180.306 
L 425.247359 130.184 
L 428.119802 75.505455 
L 430.992245 155.245 
L 433.864688 197.013333 
L 436.737131 147.874118 
L 439.609574 130.184 
L 442.482017 29.94 
L 445.35446 92.5925 
L 448.226903 155.245 
L 451.099346 155.245 
L 453.971789 29.94 
L 456.844232 29.94 
L 459.716675 29.94 
L 462.589117 75.505455 
L 465.46156 29.94 
L 468.334003 80.062 
L 471.206446 29.94 
L 474.078889 155.245 
L 476.951332 80.062 
L 479.823775 121.070909 
L 482.696218 29.94 
L 485.568661 29.94 
L 488.441104 130.184 
L 491.313547 80.062 
L 494.18599 29.94 
L 497.058433 109.08 
L 499.930876 29.94 
L 502.803319 75.505455 
L 505.675762 85.631111 
L 508.548205 155.245 
L 511.420648 126.950323 
L 514.293091 130.184 
L 517.165534 29.94 
L 520.037977 29.94 
L 522.91042 230.428 
L 525.782863 29.94 
L 528.655306 280.55 
L 531.527749 29.94 
L 534.400192 29.94 
L 537.272635 29.94 
L 540.145078 29.94 
L 543.017521 29.94 
L 545.889964 155.245 
L 548.762407 29.94 
L 551.63485 29.94 
L 554.507293 29.94 
L 557.379736 531.16 
L 560.252179 29.94 
L 563.124622 280.55 
L 565.997065 29.94 
L 568.869508 29.94 
L 571.741951 29.94 
L 574.614394 155.245 
L 577.486837 29.94 
L 580.35928 29.94 
L 583.231722 531.16 
L 586.104165 531.16 
L 588.976608 29.94 
L 591.849051 280.55 
L 594.721494 197.013333 
L 597.593937 29.94 
L 600.46638 364.086667 
L 603.338823 155.245 
L 606.211266 101.542857 
L 609.083709 29.94 
L 611.956152 197.013333 
L 614.828595 29.94 
L 617.701038 280.55 
L 620.573481 531.16 
L 623.445924 130.184 
L 626.318367 29.94 
L 629.19081 280.55 
L 632.063253 130.184 
L 634.935696 280.55 
L 637.808139 531.16 
L 640.680582 29.94 
L 643.553025 364.086667 
L 646.425468 531.16 
L 649.297911 29.94 
L 652.170354 29.94 
L 655.042797 29.94 
L 657.91524 29.94 
L 660.787683 531.16 
L 663.660126 280.55 
L 666.532569 29.94 
L 666.532569 29.94 
L 666.532569 29.94 
L 663.660126 280.55 
L 660.787683 531.16 
L 657.91524 29.94 
L 655.042797 29.94 
L 652.170354 29.94 
L 649.297911 29.94 
L 646.425468 531.16 
L 643.553025 364.086667 
L 640.680582 29.94 
L 637.808139 531.16 
L 634.935696 280.55 
L 632.063253 130.184 
L 629.19081 280.55 
L 626.318367 29.94 
L 623.445924 130.184 
L 620.573481 531.16 
L 617.701038 280.55 
L 614.828595 29.94 
L 611.956152 29.94 
L 609.083709 29.94 
L 606.211266 101.542857 
L 603.338823 155.245 
L 600.46638 29.94 
L 597.593937 29.94 
L 594.721494 113.476667 
L 591.849051 280.55 
L 588.976608 29.94 
L 586.104165 531.16 
L 583.231722 531.16 
L 580.35928 29.94 
L 577.486837 29.94 
L 574.614394 155.245 
L 571.741951 29.94 
L 568.869508 29.94 
L 565.997065 29.94 
L 563.124622 280.55 
L 560.252179 29.94 
L 557.379736 531.16 
L 554.507293 29.94 
L 551.63485 29.94 
L 548.762407 29.94 
L 545.889964 29.94 
L 543.017521 29.94 
L 540.145078 29.94 
L 537.272635 29.94 
L 534.400192 29.94 
L 531.527749 29.94 
L 528.655306 280.55 
L 525.782863 29.94 
L 522.91042 230.428 
L 520.037977 29.94 
L 517.165534 29.94 
L 514.293091 55.001 
L 511.420648 78.445161 
L 508.548205 29.94 
L 505.675762 29.94 
L 502.803319 75.505455 
L 499.930876 29.94 
L 497.058433 109.08 
L 494.18599 29.94 
L 491.313547 29.94 
L 488.441104 29.94 
L 485.568661 29.94 
L 482.696218 29.94 
L 479.823775 121.070909 
L 476.951332 55.001 
L 474.078889 55.001 
L 471.206446 29.94 
L 468.334003 55.001 
L 465.46156 29.94 
L 462.589117 75.505455 
L 459.716675 29.94 
L 456.844232 29.94 
L 453.971789 29.94 
L 451.099346 61.26625 
L 448.226903 105.123 
L 445.35446 92.5925 
L 442.482017 29.94 
L 439.609574 130.184 
L 436.737131 118.390588 
L 433.864688 197.013333 
L 430.992245 92.5925 
L 428.119802 75.505455 
L 425.247359 80.062 
L 422.374916 130.184 
L 419.502473 101.542857 
L 416.63003 280.55 
L 413.757587 280.55 
L 410.885144 56.32 
L 408.012701 531.16 
L 405.140258 29.94 
L 402.267815 96.769333 
L 399.395372 121.070909 
L 396.522929 29.94 
L 393.650486 55.001 
L 390.778043 65.741429 
L 387.9056 330.672 
L 385.033157 197.013333 
L 382.160714 75.505455 
L 379.288271 80.062 
L 376.415828 531.16 
L 373.543385 29.94 
L 370.670942 29.94 
L 367.798499 147.874118 
L 364.926056 29.94 
L 362.053613 186.57125 
L 359.18117 29.94 
L 356.308727 197.013333 
L 353.436284 75.505455 
L 350.563841 29.94 
L 347.691398 29.94 
L 344.818955 29.94 
L 341.946512 29.94 
L 339.07407 92.5925 
L 336.201627 29.94 
L 333.329184 197.013333 
L 330.456741 29.94 
L 327.584298 29.94 
L 324.711855 29.94 
L 321.839412 29.94 
L 318.966969 29.94 
L 316.094526 29.94 
L 313.222083 107.050769 
L 310.34964 101.542857 
L 307.477197 29.94 
L 304.604754 29.94 
L 301.732311 65.741429 
L 298.859868 29.94 
L 295.987425 109.08 
L 293.114982 29.94 
L 290.242539 82.7 
L 287.370096 125.410476 
L 284.497653 29.94 
L 281.62521 113.476667 
L 278.752767 29.94 
L 275.880324 123.91875 
L 273.007881 197.013333 
L 270.135438 29.94 
L 267.262995 29.94 
L 264.390552 105.123 
L 261.518109 29.94 
L 258.645666 85.631111 
L 255.773223 141.322222 
L 252.90078 130.184 
L 250.028337 130.184 
L 247.155894 29.94 
L 244.283451 113.476667 
L 241.411008 71.708333 
L 238.538565 29.94 
L 235.666122 531.16 
L 232.793679 29.94 
L 229.921236 155.245 
L 227.048793 217.8975 
L 224.17635 208.947143 
L 221.303907 29.94 
L 218.431465 113.476667 
L 215.559022 29.94 
L 212.686579 280.55 
L 209.814136 29.94 
L 206.941693 113.476667 
L 204.06925 29.94 
L 201.196807 280.55 
L 198.324364 29.94 
L 195.451921 113.476667 
L 192.579478 145.606154 
L 189.707035 29.94 
L 186.834592 29.94 
L 183.962149 197.013333 
L 181.089706 230.428 
L 178.217263 56.32 
L 175.34482 80.062 
L 172.472377 113.476667 
L 169.599934 65.741429 
L 166.727491 405.855 
L 163.855048 96.769333 
L 160.982605 75.505455 
L 158.110162 85.631111 
L 155.237719 29.94 
L 152.365276 173.145714 
L 149.492833 308.395556 
L 146.62039 85.631111 
L 143.747947 77.675238 
L 140.875504 85.631111 
L 138.003061 29.94 
L 135.130618 29.94 
L 132.258175 116.357241 
L 129.385732 155.245 
L 126.513289 29.94 
L 123.640846 96.769333 
L 120.768403 531.16 
L 117.89596 531.16 
L 115.023517 531.16 
L 112.151074 121.070909 
L 109.278631 155.245 
L 106.406188 180.306 
L 103.533745 29.94 
L 100.661302 130.184 
L 97.78886 29.94 
L 94.916417 121.070909 
L 92.043974 92.5925 
L 89.171531 197.013333 
L 86.299088 255.489 
L 83.426645 29.94 
L 80.554202 123.91875 
L 77.681759 107.050769 
L 74.809316 316.351429 
L 71.936873 101.542857 
L 69.06443 29.94 
L 66.191987 280.55 
L 63.319544 135.46 
L 60.447101 230.428 
L 57.574658 173.145714 
L 54.702215 238.781667 
L 51.829772 230.428 
L 48.957329 531.16 
L 46.084886 261.272308 
z
" clip-path="url(#p5590af68d3)" style="fill: #d57459; stroke: #ffffff"/>
   </g>
   <g id="FillBetweenPolyCollection_3">
    <path d="M 40.34 29.94 
L 40.34 161.84 
L 40.34 29.94 
L 40.34 29.94 
z
" clip-path="url(#p5590af68d3)" style="fill: #e8bc60; stroke: #ffffff"/>
    <path d="M 46.084886 29.94 
L 46.084886 261.272308 
L 48.957329 531.16 
L 51.829772 230.428 
L 54.702215 238.781667 
L 57.574658 173.145714 
L 60.447101 230.428 
L 63.319544 135.46 
L 66.191987 280.55 
L 69.06443 29.94 
L 71.936873 101.542857 
L 74.809316 316.351429 
L 77.681759 107.050769 
L 80.554202 123.91875 
L 83.426645 29.94 
L 86.299088 255.489 
L 89.171531 197.013333 
L 92.043974 92.5925 
L 94.916417 121.070909 
L 97.78886 29.94 
L 100.661302 130.184 
L 103.533745 29.94 
L 106.406188 180.306 
L 109.278631 155.245 
L 112.151074 121.070909 
L 115.023517 531.16 
L 117.89596 531.16 
L 120.768403 531.16 
L 123.640846 96.769333 
L 126.513289 29.94 
L 129.385732 155.245 
L 132.258175 116.357241 
L 135.130618 29.94 
L 138.003061 29.94 
L 140.875504 85.631111 
L 143.747947 77.675238 
L 146.62039 85.631111 
L 149.492833 308.395556 
L 152.365276 173.145714 
L 155.237719 29.94 
L 158.110162 85.631111 
L 160.982605 75.505455 
L 163.855048 96.769333 
L 166.727491 405.855 
L 169.599934 65.741429 
L 172.472377 113.476667 
L 175.34482 80.062 
L 178.217263 56.32 
L 181.089706 230.428 
L 183.962149 197.013333 
L 186.834592 29.94 
L 189.707035 29.94 
L 192.579478 145.606154 
L 195.451921 113.476667 
L 198.324364 29.94 
L 201.196807 280.55 
L 204.06925 29.94 
L 206.941693 113.476667 
L 209.814136 29.94 
L 212.686579 280.55 
L 215.559022 29.94 
L 218.431465 113.476667 
L 221.303907 29.94 
L 224.17635 208.947143 
L 227.048793 217.8975 
L 229.921236 155.245 
L 232.793679 29.94 
L 235.666122 531.16 
L 238.538565 29.94 
L 241.411008 71.708333 
L 244.283451 113.476667 
L 247.155894 29.94 
L 250.028337 130.184 
L 252.90078 130.184 
L 255.773223 141.322222 
L 258.645666 85.631111 
L 261.518109 29.94 
L 264.390552 105.123 
L 267.262995 29.94 
L 270.135438 29.94 
L 273.007881 197.013333 
L 275.880324 123.91875 
L 278.752767 29.94 
L 281.62521 113.476667 
L 284.497653 29.94 
L 287.370096 125.410476 
L 290.242539 82.7 
L 293.114982 29.94 
L 295.987425 109.08 
L 298.859868 29.94 
L 301.732311 65.741429 
L 304.604754 29.94 
L 307.477197 29.94 
L 310.34964 101.542857 
L 313.222083 107.050769 
L 316.094526 29.94 
L 318.966969 29.94 
L 321.839412 29.94 
L 324.711855 29.94 
L 327.584298 29.94 
L 330.456741 29.94 
L 333.329184 197.013333 
L 336.201627 29.94 
L 339.07407 92.5925 
L 341.946512 29.94 
L 344.818955 29.94 
L 347.691398 29.94 
L 350.563841 29.94 
L 353.436284 75.505455 
L 356.308727 197.013333 
L 359.18117 29.94 
L 362.053613 186.57125 
L 364.926056 29.94 
L 367.798499 147.874118 
L 370.670942 29.94 
L 373.543385 29.94 
L 376.415828 531.16 
L 379.288271 80.062 
L 382.160714 75.505455 
L 385.033157 197.013333 
L 387.9056 330.672 
L 390.778043 65.741429 
L 393.650486 55.001 
L 396.522929 29.94 
L 399.395372 121.070909 
L 402.267815 96.769333 
L 405.140258 29.94 
L 408.012701 531.16 
L 410.885144 56.32 
L 413.757587 280.55 
L 416.63003 280.55 
L 419.502473 101.542857 
L 422.374916 130.184 
L 425.247359 80.062 
L 428.119802 75.505455 
L 430.992245 92.5925 
L 433.864688 197.013333 
L 436.737131 118.390588 
L 439.609574 130.184 
L 442.482017 29.94 
L 445.35446 92.5925 
L 448.226903 105.123 
L 451.099346 61.26625 
L 453.971789 29.94 
L 456.844232 29.94 
L 459.716675 29.94 
L 462.589117 75.505455 
L 465.46156 29.94 
L 468.334003 55.001 
L 471.206446 29.94 
L 474.078889 55.001 
L 476.951332 55.001 
L 479.823775 121.070909 
L 482.696218 29.94 
L 485.568661 29.94 
L 488.441104 29.94 
L 491.313547 29.94 
L 494.18599 29.94 
L 497.058433 109.08 
L 499.930876 29.94 
L 502.803319 75.505455 
L 505.675762 29.94 
L 508.548205 29.94 
L 511.420648 78.445161 
L 514.293091 55.001 
L 517.165534 29.94 
L 520.037977 29.94 
L 522.91042 230.428 
L 525.782863 29.94 
L 528.655306 280.55 
L 531.527749 29.94 
L 534.400192 29.94 
L 537.272635 29.94 
L 540.145078 29.94 
L 543.017521 29.94 
L 545.889964 29.94 
L 548.762407 29.94 
L 551.63485 29.94 
L 554.507293 29.94 
L 557.379736 531.16 
L 560.252179 29.94 
L 563.124622 280.55 
L 565.997065 29.94 
L 568.869508 29.94 
L 571.741951 29.94 
L 574.614394 155.245 
L 577.486837 29.94 
L 580.35928 29.94 
L 583.231722 531.16 
L 586.104165 531.16 
L 588.976608 29.94 
L 591.849051 280.55 
L 594.721494 113.476667 
L 597.593937 29.94 
L 600.46638 29.94 
L 603.338823 155.245 
L 606.211266 101.542857 
L 609.083709 29.94 
L 611.956152 29.94 
L 614.828595 29.94 
L 617.701038 280.55 
L 620.573481 531.16 
L 623.445924 130.184 
L 626.318367 29.94 
L 629.19081 280.55 
L 632.063253 130.184 
L 634.935696 280.55 
L 637.808139 531.16 
L 640.680582 29.94 
L 643.553025 364.086667 
L 646.425468 531.16 
L 649.297911 29.94 
L 652.170354 29.94 
L 655.042797 29.94 
L 657.91524 29.94 
L 660.787683 531.16 
L 663.660126 280.55 
L 666.532569 29.94 
L 666.532569 29.94 
L 666.532569 29.94 
L 663.660126 280.55 
L 660.787683 29.94 
L 657.91524 29.94 
L 655.042797 29.94 
L 652.170354 29.94 
L 649.297911 29.94 
L 646.425468 531.16 
L 643.553025 364.086667 
L 640.680582 29.94 
L 637.808139 531.16 
L 634.935696 280.55 
L 632.063253 130.184 
L 629.19081 280.55 
L 626.318367 29.94 
L 623.445924 130.184 
L 620.573481 531.16 
L 617.701038 280.55 
L 614.828595 29.94 
L 611.956152 29.94 
L 609.083709 29.94 
L 606.211266 101.542857 
L 603.338823 155.245 
L 600.46638 29.94 
L 597.593937 29.94 
L 594.721494 113.476667 
L 591.849051 280.55 
L 588.976608 29.94 
L 586.104165 531.16 
L 583.231722 531.16 
L 580.35928 29.94 
L 577.486837 29.94 
L 574.614394 155.245 
L 571.741951 29.94 
L 568.869508 29.94 
L 565.997065 29.94 
L 563.124622 29.94 
L 560.252179 29.94 
L 557.379736 531.16 
L 554.507293 29.94 
L 551.63485 29.94 
L 548.762407 29.94 
L 545.889964 29.94 
L 543.017521 29.94 
L 540.145078 29.94 
L 537.272635 29.94 
L 534.400192 29.94 
L 531.527749 29.94 
L 528.655306 280.55 
L 525.782863 29.94 
L 522.91042 130.184 
L 520.037977 29.94 
L 517.165534 29.94 
L 514.293091 55.001 
L 511.420648 62.276774 
L 508.548205 29.94 
L 505.675762 29.94 
L 502.803319 75.505455 
L 499.930876 29.94 
L 497.058433 109.08 
L 494.18599 29.94 
L 491.313547 29.94 
L 488.441104 29.94 
L 485.568661 29.94 
L 482.696218 29.94 
L 479.823775 75.505455 
L 476.951332 55.001 
L 474.078889 55.001 
L 471.206446 29.94 
L 468.334003 29.94 
L 465.46156 29.94 
L 462.589117 75.505455 
L 459.716675 29.94 
L 456.844232 29.94 
L 453.971789 29.94 
L 451.099346 29.94 
L 448.226903 55.001 
L 445.35446 29.94 
L 442.482017 29.94 
L 439.609574 29.94 
L 436.737131 29.94 
L 433.864688 197.013333 
L 430.992245 29.94 
L 428.119802 29.94 
L 425.247359 29.94 
L 422.374916 29.94 
L 419.502473 29.94 
L 416.63003 29.94 
L 413.757587 280.55 
L 410.885144 29.94 
L 408.012701 29.94 
L 405.140258 29.94 
L 402.267815 63.354667 
L 399.395372 29.94 
L 396.522929 29.94 
L 393.650486 55.001 
L 390.778043 65.741429 
L 387.9056 130.184 
L 385.033157 29.94 
L 382.160714 29.94 
L 379.288271 80.062 
L 376.415828 280.55 
L 373.543385 29.94 
L 370.670942 29.94 
L 367.798499 147.874118 
L 364.926056 29.94 
L 362.053613 186.57125 
L 359.18117 29.94 
L 356.308727 197.013333 
L 353.436284 29.94 
L 350.563841 29.94 
L 347.691398 29.94 
L 344.818955 29.94 
L 341.946512 29.94 
L 339.07407 92.5925 
L 336.201627 29.94 
L 333.329184 71.708333 
L 330.456741 29.94 
L 327.584298 29.94 
L 324.711855 29.94 
L 321.839412 29.94 
L 318.966969 29.94 
L 316.094526 29.94 
L 313.222083 29.94 
L 310.34964 101.542857 
L 307.477197 29.94 
L 304.604754 29.94 
L 301.732311 29.94 
L 298.859868 29.94 
L 295.987425 43.13 
L 293.114982 29.94 
L 290.242539 29.94 
L 287.370096 53.807619 
L 284.497653 29.94 
L 281.62521 29.94 
L 278.752767 29.94 
L 275.880324 61.26625 
L 273.007881 29.94 
L 270.135438 29.94 
L 267.262995 29.94 
L 264.390552 105.123 
L 261.518109 29.94 
L 258.645666 29.94 
L 255.773223 85.631111 
L 252.90078 130.184 
L 250.028337 29.94 
L 247.155894 29.94 
L 244.283451 29.94 
L 241.411008 29.94 
L 238.538565 29.94 
L 235.666122 29.94 
L 232.793679 29.94 
L 229.921236 92.5925 
L 227.048793 29.94 
L 224.17635 65.741429 
L 221.303907 29.94 
L 218.431465 29.94 
L 215.559022 29.94 
L 212.686579 280.55 
L 209.814136 29.94 
L 206.941693 29.94 
L 204.06925 29.94 
L 201.196807 29.94 
L 198.324364 29.94 
L 195.451921 29.94 
L 192.579478 29.94 
L 189.707035 29.94 
L 186.834592 29.94 
L 183.962149 29.94 
L 181.089706 29.94 
L 178.217263 29.94 
L 175.34482 29.94 
L 172.472377 29.94 
L 169.599934 29.94 
L 166.727491 29.94 
L 163.855048 29.94 
L 160.982605 75.505455 
L 158.110162 85.631111 
L 155.237719 29.94 
L 152.365276 101.542857 
L 149.492833 141.322222 
L 146.62039 85.631111 
L 143.747947 77.675238 
L 140.875504 85.631111 
L 138.003061 29.94 
L 135.130618 29.94 
L 132.258175 29.94 
L 129.385732 92.5925 
L 126.513289 29.94 
L 123.640846 63.354667 
L 120.768403 29.94 
L 117.89596 29.94 
L 115.023517 29.94 
L 112.151074 121.070909 
L 109.278631 155.245 
L 106.406188 80.062 
L 103.533745 29.94 
L 100.661302 130.184 
L 97.78886 29.94 
L 94.916417 121.070909 
L 92.043974 29.94 
L 89.171531 113.476667 
L 86.299088 55.001 
L 83.426645 29.94 
L 80.554202 29.94 
L 77.681759 29.94 
L 74.809316 244.748571 
L 71.936873 29.94 
L 69.06443 29.94 
L 66.191987 29.94 
L 63.319544 29.94 
L 60.447101 55.001 
L 57.574658 29.94 
L 54.702215 29.94 
L 51.829772 29.94 
L 48.957329 29.94 
L 46.084886 29.94 
z
" clip-path="url(#p5590af68d3)" style="fill: #e8bc60; stroke: #ffffff"/>
   </g>
   <g id="FillBetweenPolyCollection_4">
    <path d="M 40.34 29.94 
L 40.34 29.94 
L 40.34 29.94 
L 40.34 29.94 
z
" clip-path="url(#p5590af68d3)" style="fill: #8d5993; stroke: #ffffff"/>
    <path d="M 46.084886 29.94 
L 46.084886 29.94 
L 48.957329 29.94 
L 51.829772 29.94 
L 54.702215 29.94 
L 57.574658 29.94 
L 60.447101 55.001 
L 63.319544 29.94 
L 66.191987 29.94 
L 69.06443 29.94 
L 71.936873 29.94 
L 74.809316 244.748571 
L 77.681759 29.94 
L 80.554202 29.94 
L 83.426645 29.94 
L 86.299088 55.001 
L 89.171531 113.476667 
L 92.043974 29.94 
L 94.916417 121.070909 
L 97.78886 29.94 
L 100.661302 130.184 
L 103.533745 29.94 
L 106.406188 80.062 
L 109.278631 155.245 
L 112.151074 121.070909 
L 115.023517 29.94 
L 117.89596 29.94 
L 120.768403 29.94 
L 123.640846 63.354667 
L 126.513289 29.94 
L 129.385732 92.5925 
L 132.258175 29.94 
L 135.130618 29.94 
L 138.003061 29.94 
L 140.875504 85.631111 
L 143.747947 77.675238 
L 146.62039 85.631111 
L 149.492833 141.322222 
L 152.365276 101.542857 
L 155.237719 29.94 
L 158.110162 85.631111 
L 160.982605 75.505455 
L 163.855048 29.94 
L 166.727491 29.94 
L 169.599934 29.94 
L 172.472377 29.94 
L 175.34482 29.94 
L 178.217263 29.94 
L 181.089706 29.94 
L 183.962149 29.94 
L 186.834592 29.94 
L 189.707035 29.94 
L 192.579478 29.94 
L 195.451921 29.94 
L 198.324364 29.94 
L 201.196807 29.94 
L 204.06925 29.94 
L 206.941693 29.94 
L 209.814136 29.94 
L 212.686579 280.55 
L 215.559022 29.94 
L 218.431465 29.94 
L 221.303907 29.94 
L 224.17635 65.741429 
L 227.048793 29.94 
L 229.921236 92.5925 
L 232.793679 29.94 
L 235.666122 29.94 
L 238.538565 29.94 
L 241.411008 29.94 
L 244.283451 29.94 
L 247.155894 29.94 
L 250.028337 29.94 
L 252.90078 130.184 
L 255.773223 85.631111 
L 258.645666 29.94 
L 261.518109 29.94 
L 264.390552 105.123 
L 267.262995 29.94 
L 270.135438 29.94 
L 273.007881 29.94 
L 275.880324 61.26625 
L 278.752767 29.94 
L 281.62521 29.94 
L 284.497653 29.94 
L 287.370096 53.807619 
L 290.242539 29.94 
L 293.114982 29.94 
L 295.987425 43.13 
L 298.859868 29.94 
L 301.732311 29.94 
L 304.604754 29.94 
L 307.477197 29.94 
L 310.34964 101.542857 
L 313.222083 29.94 
L 316.094526 29.94 
L 318.966969 29.94 
L 321.839412 29.94 
L 324.711855 29.94 
L 327.584298 29.94 
L 330.456741 29.94 
L 333.329184 71.708333 
L 336.201627 29.94 
L 339.07407 92.5925 
L 341.946512 29.94 
L 344.818955 29.94 
L 347.691398 29.94 
L 350.563841 29.94 
L 353.436284 29.94 
L 356.308727 197.013333 
L 359.18117 29.94 
L 362.053613 186.57125 
L 364.926056 29.94 
L 367.798499 147.874118 
L 370.670942 29.94 
L 373.543385 29.94 
L 376.415828 280.55 
L 379.288271 80.062 
L 382.160714 29.94 
L 385.033157 29.94 
L 387.9056 130.184 
L 390.778043 65.741429 
L 393.650486 55.001 
L 396.522929 29.94 
L 399.395372 29.94 
L 402.267815 63.354667 
L 405.140258 29.94 
L 408.012701 29.94 
L 410.885144 29.94 
L 413.757587 280.55 
L 416.63003 29.94 
L 419.502473 29.94 
L 422.374916 29.94 
L 425.247359 29.94 
L 428.119802 29.94 
L 430.992245 29.94 
L 433.864688 197.013333 
L 436.737131 29.94 
L 439.609574 29.94 
L 442.482017 29.94 
L 445.35446 29.94 
L 448.226903 55.001 
L 451.099346 29.94 
L 453.971789 29.94 
L 456.844232 29.94 
L 459.716675 29.94 
L 462.589117 75.505455 
L 465.46156 29.94 
L 468.334003 29.94 
L 471.206446 29.94 
L 474.078889 55.001 
L 476.951332 55.001 
L 479.823775 75.505455 
L 482.696218 29.94 
L 485.568661 29.94 
L 488.441104 29.94 
L 491.313547 29.94 
L 494.18599 29.94 
L 497.058433 109.08 
L 499.930876 29.94 
L 502.803319 75.505455 
L 505.675762 29.94 
L 508.548205 29.94 
L 511.420648 62.276774 
L 514.293091 55.001 
L 517.165534 29.94 
L 520.037977 29.94 
L 522.91042 130.184 
L 525.782863 29.94 
L 528.655306 280.55 
L 531.527749 29.94 
L 534.400192 29.94 
L 537.272635 29.94 
L 540.145078 29.94 
L 543.017521 29.94 
L 545.889964 29.94 
L 548.762407 29.94 
L 551.63485 29.94 
L 554.507293 29.94 
L 557.379736 531.16 
L 560.252179 29.94 
L 563.124622 29.94 
L 565.997065 29.94 
L 568.869508 29.94 
L 571.741951 29.94 
L 574.614394 155.245 
L 577.486837 29.94 
L 580.35928 29.94 
L 583.231722 531.16 
L 586.104165 531.16 
L 588.976608 29.94 
L 591.849051 280.55 
L 594.721494 113.476667 
L 597.593937 29.94 
L 600.46638 29.94 
L 603.338823 155.245 
L 606.211266 101.542857 
L 609.083709 29.94 
L 611.956152 29.94 
L 614.828595 29.94 
L 617.701038 280.55 
L 620.573481 531.16 
L 623.445924 130.184 
L 626.318367 29.94 
L 629.19081 280.55 
L 632.063253 130.184 
L 634.935696 280.55 
L 637.808139 531.16 
L 640.680582 29.94 
L 643.553025 364.086667 
L 646.425468 531.16 
L 649.297911 29.94 
L 652.170354 29.94 
L 655.042797 29.94 
L 657.91524 29.94 
L 660.787683 29.94 
L 663.660126 280.55 
L 666.532569 29.94 
L 666.532569 29.94 
L 666.532569 29.94 
L 663.660126 29.94 
L 660.787683 29.94 
L 657.91524 29.94 
L 655.042797 29.94 
L 652.170354 29.94 
L 649.297911 29.94 
L 646.425468 29.94 
L 643.553025 29.94 
L 640.680582 29.94 
L 637.808139 29.94 
L 634.935696 29.94 
L 632.063253 29.94 
L 629.19081 29.94 
L 626.318367 29.94 
L 623.445924 29.94 
L 620.573481 29.94 
L 617.701038 29.94 
L 614.828595 29.94 
L 611.956152 29.94 
L 609.083709 29.94 
L 606.211266 29.94 
L 603.338823 29.94 
L 600.46638 29.94 
L 597.593937 29.94 
L 594.721494 29.94 
L 591.849051 29.94 
L 588.976608 29.94 
L 586.104165 29.94 
L 583.231722 29.94 
L 580.35928 29.94 
L 577.486837 29.94 
L 574.614394 29.94 
L 571.741951 29.94 
L 568.869508 29.94 
L 565.997065 29.94 
L 563.124622 29.94 
L 560.252179 29.94 
L 557.379736 29.94 
L 554.507293 29.94 
L 551.63485 29.94 
L 548.762407 29.94 
L 545.889964 29.94 
L 543.017521 29.94 
L 540.145078 29.94 
L 537.272635 29.94 
L 534.400192 29.94 
L 531.527749 29.94 
L 528.655306 29.94 
L 525.782863 29.94 
L 522.91042 29.94 
L 520.037977 29.94 
L 517.165534 29.94 
L 514.293091 29.94 
L 511.420648 29.94 
L 508.548205 29.94 
L 505.675762 29.94 
L 502.803319 29.94 
L 499.930876 29.94 
L 497.058433 29.94 
L 494.18599 29.94 
L 491.313547 29.94 
L 488.441104 29.94 
L 485.568661 29.94 
L 482.696218 29.94 
L 479.823775 29.94 
L 476.951332 29.94 
L 474.078889 29.94 
L 471.206446 29.94 
L 468.334003 29.94 
L 465.46156 29.94 
L 462.589117 29.94 
L 459.716675 29.94 
L 456.844232 29.94 
L 453.971789 29.94 
L 451.099346 29.94 
L 448.226903 29.94 
L 445.35446 29.94 
L 442.482017 29.94 
L 439.609574 29.94 
L 436.737131 29.94 
L 433.864688 29.94 
L 430.992245 29.94 
L 428.119802 29.94 
L 425.247359 29.94 
L 422.374916 29.94 
L 419.502473 29.94 
L 416.63003 29.94 
L 413.757587 29.94 
L 410.885144 29.94 
L 408.012701 29.94 
L 405.140258 29.94 
L 402.267815 29.94 
L 399.395372 29.94 
L 396.522929 29.94 
L 393.650486 29.94 
L 390.778043 29.94 
L 387.9056 29.94 
L 385.033157 29.94 
L 382.160714 29.94 
L 379.288271 29.94 
L 376.415828 29.94 
L 373.543385 29.94 
L 370.670942 29.94 
L 367.798499 29.94 
L 364.926056 29.94 
L 362.053613 29.94 
L 359.18117 29.94 
L 356.308727 29.94 
L 353.436284 29.94 
L 350.563841 29.94 
L 347.691398 29.94 
L 344.818955 29.94 
L 341.946512 29.94 
L 339.07407 29.94 
L 336.201627 29.94 
L 333.329184 29.94 
L 330.456741 29.94 
L 327.584298 29.94 
L 324.711855 29.94 
L 321.839412 29.94 
L 318.966969 29.94 
L 316.094526 29.94 
L 313.222083 29.94 
L 310.34964 29.94 
L 307.477197 29.94 
L 304.604754 29.94 
L 301.732311 29.94 
L 298.859868 29.94 
L 295.987425 29.94 
L 293.114982 29.94 
L 290.242539 29.94 
L 287.370096 29.94 
L 284.497653 29.94 
L 281.62521 29.94 
L 278.752767 29.94 
L 275.880324 29.94 
L 273.007881 29.94 
L 270.135438 29.94 
L 267.262995 29.94 
L 264.390552 29.94 
L 261.518109 29.94 
L 258.645666 29.94 
L 255.773223 29.94 
L 252.90078 29.94 
L 250.028337 29.94 
L 247.155894 29.94 
L 244.283451 29.94 
L 241.411008 29.94 
L 238.538565 29.94 
L 235.666122 29.94 
L 232.793679 29.94 
L 229.921236 29.94 
L 227.048793 29.94 
L 224.17635 29.94 
L 221.303907 29.94 
L 218.431465 29.94 
L 215.559022 29.94 
L 212.686579 29.94 
L 209.814136 29.94 
L 206.941693 29.94 
L 204.06925 29.94 
L 201.196807 29.94 
L 198.324364 29.94 
L 195.451921 29.94 
L 192.579478 29.94 
L 189.707035 29.94 
L 186.834592 29.94 
L 183.962149 29.94 
L 181.089706 29.94 
L 178.217263 29.94 
L 175.34482 29.94 
L 172.472377 29.94 
L 169.599934 29.94 
L 166.727491 29.94 
L 163.855048 29.94 
L 160.982605 29.94 
L 158.110162 29.94 
L 155.237719 29.94 
L 152.365276 29.94 
L 149.492833 29.94 
L 146.62039 29.94 
L 143.747947 29.94 
L 140.875504 29.94 
L 138.003061 29.94 
L 135.130618 29.94 
L 132.258175 29.94 
L 129.385732 29.94 
L 126.513289 29.94 
L 123.640846 29.94 
L 120.768403 29.94 
L 117.89596 29.94 
L 115.023517 29.94 
L 112.151074 29.94 
L 109.278631 29.94 
L 106.406188 29.94 
L 103.533745 29.94 
L 100.661302 29.94 
L 97.78886 29.94 
L 94.916417 29.94 
L 92.043974 29.94 
L 89.171531 29.94 
L 86.299088 29.94 
L 83.426645 29.94 
L 80.554202 29.94 
L 77.681759 29.94 
L 74.809316 29.94 
L 71.936873 29.94 
L 69.06443 29.94 
L 66.191987 29.94 
L 63.319544 29.94 
L 60.447101 29.94 
L 57.574658 29.94 
L 54.702215 29.94 
L 51.829772 29.94 
L 48.957329 29.94 
L 46.084886 29.94 
z
" clip-path="url(#p5590af68d3)" style="fill: #8d5993; stroke: #ffffff"/>
   </g>
   <g id="line2d_11">
    <path d="M 40.34 150.058083 
L 666.532569 150.058083 
" clip-path="url(#p5590af68d3)" style="fill: none; stroke-dasharray: 7.5,15; stroke-dashoffset: 0; stroke: #000000; stroke-width: 1.5"/>
   </g>
   <g id="patch_3">
    <path d="M 40.34 531.16 
L 40.34 29.94 
" style="fill: none; stroke: #cccccc; stroke-width: 0.8; stroke-linejoin: miter; stroke-linecap: square"/>
   </g>
   <g id="patch_4">
    <path d="M 666.532569 531.16 
L 666.532569 29.94 
" style="fill: none; stroke: #cccccc; stroke-width: 0.8; stroke-linejoin: miter; stroke-linecap: square"/>
   </g>
   <g id="patch_5">
    <path d="M 40.34 531.16 
L 666.532569 531.16 
" style="fill: none; stroke: #cccccc; stroke-width: 0.8; stroke-linejoin: miter; stroke-linecap: square"/>
   </g>
   <g id="patch_6">
    <path d="M 40.34 29.94 
L 666.532569 29.94 
" style="fill: none; stroke: #cccccc; stroke-width: 0.8; stroke-linejoin: miter; stroke-linecap: square"/>
   </g>
   <g id="text_13">
    <!-- 0.76 -->
    <g transform="translate(686.63967 153.421364) scale(0.14 -0.14)">
     <defs>
      <path id="TimesNewRomanPSMT-30" d="M 231 2094 
Q 231 2819 450 3342 
Q 669 3866 1031 4122 
Q 1313 4325 1613 4325 
Q 2100 4325 2488 3828 
Q 2972 3213 2972 2159 
Q 2972 1422 2759 906 
Q 2547 391 2217 158 
Q 1888 -75 1581 -75 
Q 975 -75 572 641 
Q 231 1244 231 2094 
z
M 844 2016 
Q 844 1141 1059 588 
Q 1238 122 1591 122 
Q 1759 122 1940 273 
Q 2122 425 2216 781 
Q 2359 1319 2359 2297 
Q 2359 3022 2209 3506 
Q 2097 3866 1919 4016 
Q 1791 4119 1609 4119 
Q 1397 4119 1231 3928 
Q 1006 3669 925 3112 
Q 844 2556 844 2016 
z
" transform="scale(0.015625)"/>
      <path id="TimesNewRomanPSMT-2e" d="M 800 606 
Q 947 606 1047 504 
Q 1147 403 1147 259 
Q 1147 116 1045 14 
Q 944 -88 800 -88 
Q 656 -88 554 14 
Q 453 116 453 259 
Q 453 406 554 506 
Q 656 606 800 606 
z
" transform="scale(0.015625)"/>
      <path id="TimesNewRomanPSMT-37" d="M 644 4238 
L 2916 4238 
L 2916 4119 
L 1503 -88 
L 1153 -88 
L 2419 3728 
L 1253 3728 
Q 900 3728 750 3644 
Q 488 3500 328 3200 
L 238 3234 
L 644 4238 
z
" transform="scale(0.015625)"/>
      <path id="TimesNewRomanPSMT-36" d="M 2869 4325 
L 2869 4209 
Q 2456 4169 2195 4045 
Q 1934 3922 1679 3669 
Q 1425 3416 1258 3105 
Q 1091 2794 978 2366 
Q 1428 2675 1881 2675 
Q 2316 2675 2634 2325 
Q 2953 1975 2953 1425 
Q 2953 894 2631 456 
Q 2244 -75 1606 -75 
Q 1172 -75 869 213 
Q 275 772 275 1663 
Q 275 2231 503 2743 
Q 731 3256 1154 3653 
Q 1578 4050 1965 4187 
Q 2353 4325 2688 4325 
L 2869 4325 
z
M 925 2138 
Q 869 1716 869 1456 
Q 869 1156 980 804 
Q 1091 453 1309 247 
Q 1469 100 1697 100 
Q 1969 100 2183 356 
Q 2397 613 2397 1088 
Q 2397 1622 2184 2012 
Q 1972 2403 1581 2403 
Q 1463 2403 1327 2353 
Q 1191 2303 925 2138 
z
" transform="scale(0.015625)"/>
     </defs>
     <use xlink:href="#TimesNewRomanPSMT-30"/>
     <use xlink:href="#TimesNewRomanPSMT-2e" transform="translate(50 0)"/>
     <use xlink:href="#TimesNewRomanPSMT-37" transform="translate(75 0)"/>
     <use xlink:href="#TimesNewRomanPSMT-36" transform="translate(125 0)"/>
    </g>
   </g>
   <g id="text_14">
    <!-- Arwen (Rhesus) -->
    <g style="fill: #262626" transform="translate(284.826909 23.94) scale(0.2 -0.2)">
     <defs>
      <path id="TimesNewRomanPS-BoldMT-41" d="M 2663 1206 
L 1166 1206 
L 988 794 
Q 900 588 900 453 
Q 900 275 1044 191 
Q 1128 141 1459 116 
L 1459 0 
L 50 0 
L 50 116 
Q 278 150 425 304 
Q 572 459 788 944 
L 2303 4325 
L 2363 4325 
L 3891 850 
Q 4109 356 4250 228 
Q 4356 131 4550 116 
L 4550 0 
L 2500 0 
L 2500 116 
L 2584 116 
Q 2831 116 2931 184 
Q 3000 234 3000 328 
Q 3000 384 2981 444 
Q 2975 472 2888 678 
L 2663 1206 
z
M 2556 1438 
L 1925 2897 
L 1275 1438 
L 2556 1438 
z
" transform="scale(0.015625)"/>
      <path id="TimesNewRomanPS-BoldMT-72" d="M 1428 2922 
L 1428 2259 
Q 1719 2713 1937 2861 
Q 2156 3009 2359 3009 
Q 2534 3009 2639 2901 
Q 2744 2794 2744 2597 
Q 2744 2388 2642 2272 
Q 2541 2156 2397 2156 
Q 2231 2156 2109 2262 
Q 1988 2369 1966 2381 
Q 1934 2400 1894 2400 
Q 1803 2400 1722 2331 
Q 1594 2225 1528 2028 
Q 1428 1725 1428 1359 
L 1428 688 
L 1431 513 
Q 1431 334 1453 284 
Q 1491 200 1564 161 
Q 1638 122 1813 113 
L 1813 0 
L 234 0 
L 234 113 
Q 425 128 492 217 
Q 559 306 559 688 
L 559 2303 
Q 559 2553 534 2622 
Q 503 2709 443 2750 
Q 384 2791 234 2806 
L 234 2922 
L 1428 2922 
z
" transform="scale(0.015625)"/>
      <path id="TimesNewRomanPS-BoldMT-77" d="M 3113 -88 
L 2313 2056 
L 1528 -88 
L 1366 -88 
L 588 2031 
Q 413 2516 291 2663 
Q 213 2763 53 2806 
L 53 2922 
L 1528 2922 
L 1528 2806 
Q 1378 2806 1322 2762 
Q 1266 2719 1266 2663 
Q 1266 2609 1366 2344 
L 1794 1203 
L 2206 2344 
L 2175 2419 
Q 2081 2653 2011 2717 
Q 1941 2781 1794 2806 
L 1794 2922 
L 3291 2922 
L 3291 2806 
Q 3116 2797 3069 2758 
Q 3022 2719 3022 2647 
Q 3022 2578 3113 2344 
L 3525 1203 
L 3900 2253 
Q 3981 2478 3981 2559 
Q 3981 2681 3922 2737 
Q 3863 2794 3691 2806 
L 3691 2922 
L 4556 2922 
L 4556 2806 
Q 4413 2788 4328 2705 
Q 4244 2622 4109 2234 
L 3291 -88 
L 3113 -88 
z
" transform="scale(0.015625)"/>
      <path id="TimesNewRomanPS-BoldMT-65" d="M 2691 1566 
L 1088 1566 
Q 1116 984 1397 647 
Q 1613 388 1916 388 
Q 2103 388 2256 492 
Q 2409 597 2584 869 
L 2691 800 
Q 2453 316 2165 114 
Q 1878 -88 1500 -88 
Q 850 -88 516 413 
Q 247 816 247 1413 
Q 247 2144 642 2576 
Q 1038 3009 1569 3009 
Q 2013 3009 2339 2645 
Q 2666 2281 2691 1566 
z
M 1922 1775 
Q 1922 2278 1867 2465 
Q 1813 2653 1697 2750 
Q 1631 2806 1522 2806 
Q 1359 2806 1256 2647 
Q 1072 2369 1072 1884 
L 1072 1775 
L 1922 1775 
z
" transform="scale(0.015625)"/>
      <path id="TimesNewRomanPS-BoldMT-6e" d="M 1409 2922 
L 1409 2544 
Q 1634 2788 1840 2898 
Q 2047 3009 2284 3009 
Q 2569 3009 2756 2851 
Q 2944 2694 3006 2459 
Q 3056 2281 3056 1775 
L 3056 638 
Q 3056 300 3117 217 
Q 3178 134 3372 113 
L 3372 0 
L 1894 0 
L 1894 113 
Q 2059 134 2131 250 
Q 2181 328 2181 638 
L 2181 1938 
Q 2181 2297 2153 2390 
Q 2125 2484 2058 2536 
Q 1991 2588 1909 2588 
Q 1641 2588 1409 2203 
L 1409 638 
Q 1409 309 1470 221 
Q 1531 134 1697 113 
L 1697 0 
L 219 0 
L 219 113 
Q 403 131 481 231 
Q 534 300 534 638 
L 534 2288 
Q 534 2619 473 2700 
Q 413 2781 219 2806 
L 219 2922 
L 1409 2922 
z
" transform="scale(0.015625)"/>
      <path id="TimesNewRomanPS-BoldMT-20" transform="scale(0.015625)"/>
      <path id="TimesNewRomanPS-BoldMT-28" d="M 2056 4334 
L 2056 4191 
Q 1731 3978 1578 3775 
Q 1366 3494 1247 3053 
Q 1097 2506 1097 1525 
Q 1097 600 1233 87 
Q 1369 -425 1603 -741 
Q 1766 -959 2056 -1125 
L 2056 -1281 
Q 1303 -1028 779 -248 
Q 256 531 256 1544 
Q 256 2544 778 3314 
Q 1300 4084 2056 4334 
z
" transform="scale(0.015625)"/>
      <path id="TimesNewRomanPS-BoldMT-52" d="M 1700 1931 
L 1700 744 
Q 1700 400 1742 311 
Q 1784 222 1890 169 
Q 1997 116 2288 116 
L 2288 0 
L 119 0 
L 119 116 
Q 413 116 517 170 
Q 622 225 664 312 
Q 706 400 706 744 
L 706 3494 
Q 706 3838 664 3927 
Q 622 4016 515 4069 
Q 409 4122 119 4122 
L 119 4238 
L 2088 4238 
Q 2856 4238 3212 4131 
Q 3569 4025 3794 3739 
Q 4019 3453 4019 3069 
Q 4019 2600 3681 2294 
Q 3466 2100 3078 2003 
L 4097 569 
Q 4297 291 4381 222 
Q 4509 125 4678 116 
L 4678 0 
L 3344 0 
L 1978 1931 
L 1700 1931 
z
M 1700 4009 
L 1700 2153 
L 1878 2153 
Q 2313 2153 2528 2233 
Q 2744 2313 2867 2520 
Q 2991 2728 2991 3063 
Q 2991 3547 2764 3778 
Q 2538 4009 2034 4009 
L 1700 4009 
z
" transform="scale(0.015625)"/>
      <path id="TimesNewRomanPS-BoldMT-68" d="M 1409 4238 
L 1409 2547 
Q 1650 2800 1850 2904 
Q 2050 3009 2266 3009 
Q 2541 3009 2736 2853 
Q 2931 2697 2995 2486 
Q 3059 2275 3059 1775 
L 3059 634 
Q 3059 300 3121 217 
Q 3184 134 3375 113 
L 3375 0 
L 1894 0 
L 1894 113 
Q 2050 134 2128 238 
Q 2184 319 2184 634 
L 2184 1938 
Q 2184 2300 2156 2392 
Q 2128 2484 2061 2536 
Q 1994 2588 1909 2588 
Q 1784 2588 1665 2502 
Q 1547 2416 1409 2200 
L 1409 634 
Q 1409 322 1456 244 
Q 1516 138 1700 113 
L 1700 0 
L 219 0 
L 219 113 
Q 403 131 481 231 
Q 534 300 534 634 
L 534 3603 
Q 534 3934 473 4015 
Q 413 4097 219 4122 
L 219 4238 
L 1409 4238 
z
" transform="scale(0.015625)"/>
      <path id="TimesNewRomanPS-BoldMT-73" d="M 2063 3003 
L 2109 2006 
L 2003 2006 
Q 1813 2450 1608 2612 
Q 1403 2775 1200 2775 
Q 1072 2775 981 2689 
Q 891 2603 891 2491 
Q 891 2406 953 2328 
Q 1053 2200 1512 1889 
Q 1972 1578 2117 1361 
Q 2263 1144 2263 875 
Q 2263 631 2141 397 
Q 2019 163 1797 37 
Q 1575 -88 1306 -88 
Q 1097 -88 747 44 
Q 653 78 619 78 
Q 516 78 447 -78 
L 344 -78 
L 294 972 
L 400 972 
Q 541 559 786 353 
Q 1031 147 1250 147 
Q 1400 147 1495 239 
Q 1591 331 1591 463 
Q 1591 613 1497 722 
Q 1403 831 1078 1053 
Q 600 1384 459 1559 
Q 253 1816 253 2125 
Q 253 2463 486 2736 
Q 719 3009 1159 3009 
Q 1397 3009 1619 2894 
Q 1703 2847 1756 2847 
Q 1813 2847 1847 2870 
Q 1881 2894 1956 3003 
L 2063 3003 
z
" transform="scale(0.015625)"/>
      <path id="TimesNewRomanPS-BoldMT-75" d="M 3038 2922 
L 3038 634 
Q 3038 300 3100 217 
Q 3163 134 3353 113 
L 3353 0 
L 2163 0 
L 2163 391 
Q 1953 141 1743 26 
Q 1534 -88 1275 -88 
Q 1028 -88 836 64 
Q 644 216 578 419 
Q 513 622 513 1128 
L 513 2288 
Q 513 2619 452 2700 
Q 391 2781 197 2806 
L 197 2922 
L 1388 2922 
L 1388 925 
Q 1388 613 1417 522 
Q 1447 431 1511 384 
Q 1575 338 1659 338 
Q 1772 338 1863 397 
Q 1988 478 2163 725 
L 2163 2288 
Q 2163 2619 2102 2700 
Q 2041 2781 1847 2806 
L 1847 2922 
L 3038 2922 
z
" transform="scale(0.015625)"/>
      <path id="TimesNewRomanPS-BoldMT-29" d="M 78 -1281 
L 78 -1138 
Q 403 -922 556 -719 
Q 766 -438 888 0 
Q 1038 550 1038 1531 
Q 1038 2456 902 2967 
Q 766 3478 531 3794 
Q 369 4013 78 4178 
L 78 4334 
Q 831 4081 1354 3301 
Q 1878 2522 1878 1509 
Q 1878 513 1354 -257 
Q 831 -1028 78 -1281 
z
" transform="scale(0.015625)"/>
     </defs>
     <use xlink:href="#TimesNewRomanPS-BoldMT-41"/>
     <use xlink:href="#TimesNewRomanPS-BoldMT-72" transform="translate(72.216797 0)"/>
     <use xlink:href="#TimesNewRomanPS-BoldMT-77" transform="translate(116.601562 0)"/>
     <use xlink:href="#TimesNewRomanPS-BoldMT-65" transform="translate(188.818359 0)"/>
     <use xlink:href="#TimesNewRomanPS-BoldMT-6e" transform="translate(233.203125 0)"/>
     <use xlink:href="#TimesNewRomanPS-BoldMT-20" transform="translate(288.818359 0)"/>
     <use xlink:href="#TimesNewRomanPS-BoldMT-28" transform="translate(313.818359 0)"/>
     <use xlink:href="#TimesNewRomanPS-BoldMT-52" transform="translate(347.119141 0)"/>
     <use xlink:href="#TimesNewRomanPS-BoldMT-68" transform="translate(419.335938 0)"/>
     <use xlink:href="#TimesNewRomanPS-BoldMT-65" transform="translate(474.951172 0)"/>
     <use xlink:href="#TimesNewRomanPS-BoldMT-73" transform="translate(519.335938 0)"/>
     <use xlink:href="#TimesNewRomanPS-BoldMT-75" transform="translate(558.251953 0)"/>
     <use xlink:href="#TimesNewRomanPS-BoldMT-73" transform="translate(613.867188 0)"/>
     <use xlink:href="#TimesNewRomanPS-BoldMT-29" transform="translate(652.783203 0)"/>
    </g>
   </g>
   <g id="legend_1">
    <g id="patch_7">
     <path d="M 47.34 94.49625 
L 133.236875 94.49625 
Q 135.236875 94.49625 135.236875 92.49625 
L 135.236875 36.94 
Q 135.236875 34.94 133.236875 34.94 
L 47.34 34.94 
Q 45.34 34.94 45.34 36.94 
L 45.34 92.49625 
Q 45.34 94.49625 47.34 94.49625 
z
" style="fill: #ffffff; opacity: 0.8; stroke: #cccccc; stroke-linejoin: miter"/>
    </g>
    <g id="patch_8">
     <path d="M 49.34 45.94 
L 69.34 45.94 
L 69.34 38.94 
L 49.34 38.94 
z
" style="fill: #5386b6; stroke: #ffffff; stroke-linejoin: miter"/>
    </g>
    <g id="text_15">
     <!-- Success -->
     <g style="fill: #262626" transform="translate(77.34 45.94) scale(0.1 -0.1)">
      <use xlink:href="#TimesNewRomanPSMT-53"/>
      <use xlink:href="#TimesNewRomanPSMT-75" transform="translate(55.615234 0)"/>
      <use xlink:href="#TimesNewRomanPSMT-63" transform="translate(105.615234 0)"/>
      <use xlink:href="#TimesNewRomanPSMT-63" transform="translate(150 0)"/>
      <use xlink:href="#TimesNewRomanPSMT-65" transform="translate(194.384766 0)"/>
      <use xlink:href="#TimesNewRomanPSMT-73" transform="translate(238.769531 0)"/>
      <use xlink:href="#TimesNewRomanPSMT-73" transform="translate(277.685547 0)"/>
     </g>
    </g>
    <g id="patch_9">
     <path d="M 49.34 60.079062 
L 69.34 60.079062 
L 69.34 53.079062 
L 49.34 53.079062 
z
" style="fill: #d57459; stroke: #ffffff; stroke-linejoin: miter"/>
    </g>
    <g id="text_16">
     <!-- Error -->
     <g style="fill: #262626" transform="translate(77.34 60.079062) scale(0.1 -0.1)">
      <defs>
       <path id="TimesNewRomanPSMT-45" d="M 1338 4006 
L 1338 2331 
L 2269 2331 
Q 2631 2331 2753 2441 
Q 2916 2584 2934 2947 
L 3050 2947 
L 3050 1472 
L 2934 1472 
Q 2891 1781 2847 1869 
Q 2791 1978 2662 2040 
Q 2534 2103 2269 2103 
L 1338 2103 
L 1338 706 
Q 1338 425 1363 364 
Q 1388 303 1450 267 
Q 1513 231 1688 231 
L 2406 231 
Q 2766 231 2928 281 
Q 3091 331 3241 478 
Q 3434 672 3638 1063 
L 3763 1063 
L 3397 0 
L 131 0 
L 131 116 
L 281 116 
Q 431 116 566 188 
Q 666 238 702 338 
Q 738 438 738 747 
L 738 3500 
Q 738 3903 656 3997 
Q 544 4122 281 4122 
L 131 4122 
L 131 4238 
L 3397 4238 
L 3444 3309 
L 3322 3309 
Q 3256 3644 3176 3769 
Q 3097 3894 2941 3959 
Q 2816 4006 2500 4006 
L 1338 4006 
z
" transform="scale(0.015625)"/>
      </defs>
      <use xlink:href="#TimesNewRomanPSMT-45"/>
      <use xlink:href="#TimesNewRomanPSMT-72" transform="translate(61.083984 0)"/>
      <use xlink:href="#TimesNewRomanPSMT-72" transform="translate(94.384766 0)"/>
      <use xlink:href="#TimesNewRomanPSMT-6f" transform="translate(127.685547 0)"/>
      <use xlink:href="#TimesNewRomanPSMT-72" transform="translate(177.685547 0)"/>
     </g>
    </g>
    <g id="patch_10">
     <path d="M 49.34 74.218125 
L 69.34 74.218125 
L 69.34 67.218125 
L 49.34 67.218125 
z
" style="fill: #e8bc60; stroke: #ffffff; stroke-linejoin: miter"/>
    </g>
    <g id="text_17">
     <!-- Premature -->
     <g style="fill: #262626" transform="translate(77.34 74.218125) scale(0.1 -0.1)">
      <defs>
       <path id="TimesNewRomanPSMT-6d" d="M 1050 2338 
Q 1363 2650 1419 2697 
Q 1559 2816 1721 2881 
Q 1884 2947 2044 2947 
Q 2313 2947 2506 2790 
Q 2700 2634 2766 2338 
Q 3088 2713 3309 2830 
Q 3531 2947 3766 2947 
Q 3994 2947 4170 2830 
Q 4347 2713 4450 2447 
Q 4519 2266 4519 1878 
L 4519 647 
Q 4519 378 4559 278 
Q 4591 209 4675 161 
Q 4759 113 4950 113 
L 4950 0 
L 3538 0 
L 3538 113 
L 3597 113 
Q 3781 113 3884 184 
Q 3956 234 3988 344 
Q 4000 397 4000 647 
L 4000 1878 
Q 4000 2228 3916 2372 
Q 3794 2572 3525 2572 
Q 3359 2572 3192 2489 
Q 3025 2406 2788 2181 
L 2781 2147 
L 2788 2013 
L 2788 647 
Q 2788 353 2820 281 
Q 2853 209 2943 161 
Q 3034 113 3253 113 
L 3253 0 
L 1806 0 
L 1806 113 
Q 2044 113 2133 169 
Q 2222 225 2256 338 
Q 2272 391 2272 647 
L 2272 1878 
Q 2272 2228 2169 2381 
Q 2031 2581 1784 2581 
Q 1616 2581 1450 2491 
Q 1191 2353 1050 2181 
L 1050 647 
Q 1050 366 1089 281 
Q 1128 197 1204 155 
Q 1281 113 1516 113 
L 1516 0 
L 100 0 
L 100 113 
Q 297 113 375 155 
Q 453 197 493 289 
Q 534 381 534 647 
L 534 1741 
Q 534 2213 506 2350 
Q 484 2453 437 2492 
Q 391 2531 309 2531 
Q 222 2531 100 2484 
L 53 2597 
L 916 2947 
L 1050 2947 
L 1050 2338 
z
" transform="scale(0.015625)"/>
      </defs>
      <use xlink:href="#TimesNewRomanPSMT-50"/>
      <use xlink:href="#TimesNewRomanPSMT-72" transform="translate(55.615234 0)"/>
      <use xlink:href="#TimesNewRomanPSMT-65" transform="translate(88.916016 0)"/>
      <use xlink:href="#TimesNewRomanPSMT-6d" transform="translate(133.300781 0)"/>
      <use xlink:href="#TimesNewRomanPSMT-61" transform="translate(211.083984 0)"/>
      <use xlink:href="#TimesNewRomanPSMT-74" transform="translate(255.46875 0)"/>
      <use xlink:href="#TimesNewRomanPSMT-75" transform="translate(283.251953 0)"/>
      <use xlink:href="#TimesNewRomanPSMT-72" transform="translate(333.251953 0)"/>
      <use xlink:href="#TimesNewRomanPSMT-65" transform="translate(366.552734 0)"/>
     </g>
    </g>
    <g id="patch_11">
     <path d="M 49.34 88.357187 
L 69.34 88.357187 
L 69.34 81.357187 
L 49.34 81.357187 
z
" style="fill: #8d5993; stroke: #ffffff; stroke-linejoin: miter"/>
    </g>
    <g id="text_18">
     <!-- Stepomission -->
     <g style="fill: #262626" transform="translate(77.34 88.357187) scale(0.1 -0.1)">
      <use xlink:href="#TimesNewRomanPSMT-53"/>
      <use xlink:href="#TimesNewRomanPSMT-74" transform="translate(55.615234 0)"/>
      <use xlink:href="#TimesNewRomanPSMT-65" transform="translate(83.398438 0)"/>
      <use xlink:href="#TimesNewRomanPSMT-70" transform="translate(127.783203 0)"/>
      <use xlink:href="#TimesNewRomanPSMT-6f" transform="translate(177.783203 0)"/>
      <use xlink:href="#TimesNewRomanPSMT-6d" transform="translate(227.783203 0)"/>
      <use xlink:href="#TimesNewRomanPSMT-69" transform="translate(305.566406 0)"/>
      <use xlink:href="#TimesNewRomanPSMT-73" transform="translate(333.349609 0)"/>
      <use xlink:href="#TimesNewRomanPSMT-73" transform="translate(372.265625 0)"/>
      <use xlink:href="#TimesNewRomanPSMT-69" transform="translate(411.181641 0)"/>
      <use xlink:href="#TimesNewRomanPSMT-6f" transform="translate(438.964844 0)"/>
      <use xlink:href="#TimesNewRomanPSMT-6e" transform="translate(488.964844 0)"/>
     </g>
    </g>
   </g>
  </g>
 </g>
 <defs>
  <clipPath id="p5590af68d3">
   <rect x="40.34" y="29.94" width="626.192569" height="501.22"/>
  </clipPath>
 </defs>
</svg>
