<?xml version="1.0" encoding="utf-8" standalone="no"?>
<!DOCTYPE svg PUBLIC "-//W3C//DTD SVG 1.1//EN"
  "http://www.w3.org/Graphics/SVG/1.1/DTD/svg11.dtd">
<svg xmlns:xlink="http://www.w3.org/1999/xlink" width="720pt" height="576pt" viewBox="0 0 720 576" xmlns="http://www.w3.org/2000/svg" version="1.1">
 <metadata>
  <rdf:RDF xmlns:dc="http://purl.org/dc/elements/1.1/" xmlns:cc="http://creativecommons.org/ns#" xmlns:rdf="http://www.w3.org/1999/02/22-rdf-syntax-ns#">
   <cc:Work>
    <dc:type rdf:resource="http://purl.org/dc/dcmitype/StillImage"/>
    <dc:date>2025-07-03T15:55:09.013232</dc:date>
    <dc:format>image/svg+xml</dc:format>
    <dc:creator>
     <cc:Agent>
      <dc:title>Matplotlib v3.10.3, https://matplotlib.org/</dc:title>
     </cc:Agent>
    </dc:creator>
   </cc:Work>
  </rdf:RDF>
 </metadata>
 <defs>
  <style type="text/css">*{stroke-linejoin: round; stroke-linecap: butt}</style>
 </defs>
 <g id="figure_1">
  <g id="patch_1">
   <path d="M 0 576 
L 720 576 
L 720 0 
L 0 0 
z
" style="fill: #ffffff"/>
  </g>
  <g id="axes_1">
   <g id="patch_2">
    <path d="M 40.34 531.16 
L 669.744545 531.16 
L 669.744545 29.94 
L 40.34 29.94 
z
" style="fill: #ffffff"/>
   </g>
   <g id="matplotlib.axis_1">
    <g id="xtick_1">
     <g id="line2d_1">
      <path d="M 157.161298 531.16 
L 157.161298 29.94 
" clip-path="url(#p50b079c5a0)" style="fill: none; stroke-dasharray: 2.96,1.28; stroke-dashoffset: 0; stroke: #cccccc; stroke-opacity: 0.5; stroke-width: 0.8"/>
     </g>
     <g id="text_1">
      <!-- 50 -->
      <g style="fill: #262626" transform="translate(151.600361 545.317812) scale(0.1 -0.1)">
       <defs>
        <path id="ArialMT-35" d="M 266 1200 
L 856 1250 
Q 922 819 1161 601 
Q 1400 384 1738 384 
Q 2144 384 2425 690 
Q 2706 997 2706 1503 
Q 2706 1984 2436 2262 
Q 2166 2541 1728 2541 
Q 1456 2541 1237 2417 
Q 1019 2294 894 2097 
L 366 2166 
L 809 4519 
L 3088 4519 
L 3088 3981 
L 1259 3981 
L 1013 2750 
Q 1425 3038 1878 3038 
Q 2478 3038 2890 2622 
Q 3303 2206 3303 1553 
Q 3303 931 2941 478 
Q 2500 -78 1738 -78 
Q 1113 -78 717 272 
Q 322 622 266 1200 
z
" transform="scale(0.015625)"/>
        <path id="ArialMT-30" d="M 266 2259 
Q 266 3072 433 3567 
Q 600 4063 929 4331 
Q 1259 4600 1759 4600 
Q 2128 4600 2406 4451 
Q 2684 4303 2865 4023 
Q 3047 3744 3150 3342 
Q 3253 2941 3253 2259 
Q 3253 1453 3087 958 
Q 2922 463 2592 192 
Q 2263 -78 1759 -78 
Q 1097 -78 719 397 
Q 266 969 266 2259 
z
M 844 2259 
Q 844 1131 1108 757 
Q 1372 384 1759 384 
Q 2147 384 2411 759 
Q 2675 1134 2675 2259 
Q 2675 3391 2411 3762 
Q 2147 4134 1753 4134 
Q 1366 4134 1134 3806 
Q 844 3388 844 2259 
z
" transform="scale(0.015625)"/>
       </defs>
       <use xlink:href="#ArialMT-35"/>
       <use xlink:href="#ArialMT-30" transform="translate(55.615234 0)"/>
      </g>
     </g>
    </g>
    <g id="xtick_2">
     <g id="line2d_2">
      <path d="M 276.366705 531.16 
L 276.366705 29.94 
" clip-path="url(#p50b079c5a0)" style="fill: none; stroke-dasharray: 2.96,1.28; stroke-dashoffset: 0; stroke: #cccccc; stroke-opacity: 0.5; stroke-width: 0.8"/>
     </g>
     <g id="text_2">
      <!-- 100 -->
      <g style="fill: #262626" transform="translate(268.025298 545.317812) scale(0.1 -0.1)">
       <defs>
        <path id="ArialMT-31" d="M 2384 0 
L 1822 0 
L 1822 3584 
Q 1619 3391 1289 3197 
Q 959 3003 697 2906 
L 697 3450 
Q 1169 3672 1522 3987 
Q 1875 4303 2022 4600 
L 2384 4600 
L 2384 0 
z
" transform="scale(0.015625)"/>
       </defs>
       <use xlink:href="#ArialMT-31"/>
       <use xlink:href="#ArialMT-30" transform="translate(55.615234 0)"/>
       <use xlink:href="#ArialMT-30" transform="translate(111.230469 0)"/>
      </g>
     </g>
    </g>
    <g id="xtick_3">
     <g id="line2d_3">
      <path d="M 395.572111 531.16 
L 395.572111 29.94 
" clip-path="url(#p50b079c5a0)" style="fill: none; stroke-dasharray: 2.96,1.28; stroke-dashoffset: 0; stroke: #cccccc; stroke-opacity: 0.5; stroke-width: 0.8"/>
     </g>
     <g id="text_3">
      <!-- 150 -->
      <g style="fill: #262626" transform="translate(387.230705 545.317812) scale(0.1 -0.1)">
       <use xlink:href="#ArialMT-31"/>
       <use xlink:href="#ArialMT-35" transform="translate(55.615234 0)"/>
       <use xlink:href="#ArialMT-30" transform="translate(111.230469 0)"/>
      </g>
     </g>
    </g>
    <g id="xtick_4">
     <g id="line2d_4">
      <path d="M 514.777517 531.16 
L 514.777517 29.94 
" clip-path="url(#p50b079c5a0)" style="fill: none; stroke-dasharray: 2.96,1.28; stroke-dashoffset: 0; stroke: #cccccc; stroke-opacity: 0.5; stroke-width: 0.8"/>
     </g>
     <g id="text_4">
      <!-- 200 -->
      <g style="fill: #262626" transform="translate(506.436111 545.317812) scale(0.1 -0.1)">
       <defs>
        <path id="ArialMT-32" d="M 3222 541 
L 3222 0 
L 194 0 
Q 188 203 259 391 
Q 375 700 629 1000 
Q 884 1300 1366 1694 
Q 2113 2306 2375 2664 
Q 2638 3022 2638 3341 
Q 2638 3675 2398 3904 
Q 2159 4134 1775 4134 
Q 1369 4134 1125 3890 
Q 881 3647 878 3216 
L 300 3275 
Q 359 3922 746 4261 
Q 1134 4600 1788 4600 
Q 2447 4600 2831 4234 
Q 3216 3869 3216 3328 
Q 3216 3053 3103 2787 
Q 2991 2522 2730 2228 
Q 2469 1934 1863 1422 
Q 1356 997 1212 845 
Q 1069 694 975 541 
L 3222 541 
z
" transform="scale(0.015625)"/>
       </defs>
       <use xlink:href="#ArialMT-32"/>
       <use xlink:href="#ArialMT-30" transform="translate(55.615234 0)"/>
       <use xlink:href="#ArialMT-30" transform="translate(111.230469 0)"/>
      </g>
     </g>
    </g>
    <g id="xtick_5">
     <g id="line2d_5">
      <path d="M 633.982924 531.16 
L 633.982924 29.94 
" clip-path="url(#p50b079c5a0)" style="fill: none; stroke-dasharray: 2.96,1.28; stroke-dashoffset: 0; stroke: #cccccc; stroke-opacity: 0.5; stroke-width: 0.8"/>
     </g>
     <g id="text_5">
      <!-- 250 -->
      <g style="fill: #262626" transform="translate(625.641517 545.317812) scale(0.1 -0.1)">
       <use xlink:href="#ArialMT-32"/>
       <use xlink:href="#ArialMT-35" transform="translate(55.615234 0)"/>
       <use xlink:href="#ArialMT-30" transform="translate(111.230469 0)"/>
      </g>
     </g>
    </g>
    <g id="text_6">
     <!-- Session Count -->
     <g style="fill: #262626" transform="translate(314.784616 561.026562) scale(0.14 -0.14)">
      <defs>
       <path id="TimesNewRomanPSMT-53" d="M 2934 4334 
L 2934 2869 
L 2819 2869 
Q 2763 3291 2617 3541 
Q 2472 3791 2203 3937 
Q 1934 4084 1647 4084 
Q 1322 4084 1109 3886 
Q 897 3688 897 3434 
Q 897 3241 1031 3081 
Q 1225 2847 1953 2456 
Q 2547 2138 2764 1967 
Q 2981 1797 3098 1565 
Q 3216 1334 3216 1081 
Q 3216 600 2842 251 
Q 2469 -97 1881 -97 
Q 1697 -97 1534 -69 
Q 1438 -53 1133 45 
Q 828 144 747 144 
Q 669 144 623 97 
Q 578 50 556 -97 
L 441 -97 
L 441 1356 
L 556 1356 
Q 638 900 775 673 
Q 913 447 1195 297 
Q 1478 147 1816 147 
Q 2206 147 2432 353 
Q 2659 559 2659 841 
Q 2659 997 2573 1156 
Q 2488 1316 2306 1453 
Q 2184 1547 1640 1851 
Q 1097 2156 867 2337 
Q 638 2519 519 2737 
Q 400 2956 400 3219 
Q 400 3675 750 4004 
Q 1100 4334 1641 4334 
Q 1978 4334 2356 4169 
Q 2531 4091 2603 4091 
Q 2684 4091 2736 4139 
Q 2788 4188 2819 4334 
L 2934 4334 
z
" transform="scale(0.015625)"/>
       <path id="TimesNewRomanPSMT-65" d="M 681 1784 
Q 678 1147 991 784 
Q 1303 422 1725 422 
Q 2006 422 2214 576 
Q 2422 731 2563 1106 
L 2659 1044 
Q 2594 616 2278 264 
Q 1963 -88 1488 -88 
Q 972 -88 605 314 
Q 238 716 238 1394 
Q 238 2128 614 2539 
Q 991 2950 1559 2950 
Q 2041 2950 2350 2633 
Q 2659 2316 2659 1784 
L 681 1784 
z
M 681 1966 
L 2006 1966 
Q 1991 2241 1941 2353 
Q 1863 2528 1708 2628 
Q 1553 2728 1384 2728 
Q 1125 2728 920 2526 
Q 716 2325 681 1966 
z
" transform="scale(0.015625)"/>
       <path id="TimesNewRomanPSMT-73" d="M 2050 2947 
L 2050 1972 
L 1947 1972 
Q 1828 2431 1642 2597 
Q 1456 2763 1169 2763 
Q 950 2763 815 2647 
Q 681 2531 681 2391 
Q 681 2216 781 2091 
Q 878 1963 1175 1819 
L 1631 1597 
Q 2266 1288 2266 781 
Q 2266 391 1970 151 
Q 1675 -88 1309 -88 
Q 1047 -88 709 6 
Q 606 38 541 38 
Q 469 38 428 -44 
L 325 -44 
L 325 978 
L 428 978 
Q 516 541 762 319 
Q 1009 97 1316 97 
Q 1531 97 1667 223 
Q 1803 350 1803 528 
Q 1803 744 1651 891 
Q 1500 1038 1047 1263 
Q 594 1488 453 1669 
Q 313 1847 313 2119 
Q 313 2472 555 2709 
Q 797 2947 1181 2947 
Q 1350 2947 1591 2875 
Q 1750 2828 1803 2828 
Q 1853 2828 1881 2850 
Q 1909 2872 1947 2947 
L 2050 2947 
z
" transform="scale(0.015625)"/>
       <path id="TimesNewRomanPSMT-69" d="M 928 4444 
Q 1059 4444 1151 4351 
Q 1244 4259 1244 4128 
Q 1244 3997 1151 3903 
Q 1059 3809 928 3809 
Q 797 3809 703 3903 
Q 609 3997 609 4128 
Q 609 4259 701 4351 
Q 794 4444 928 4444 
z
M 1188 2947 
L 1188 647 
Q 1188 378 1227 289 
Q 1266 200 1342 156 
Q 1419 113 1622 113 
L 1622 0 
L 231 0 
L 231 113 
Q 441 113 512 153 
Q 584 194 626 287 
Q 669 381 669 647 
L 669 1750 
Q 669 2216 641 2353 
Q 619 2453 572 2492 
Q 525 2531 444 2531 
Q 356 2531 231 2484 
L 188 2597 
L 1050 2947 
L 1188 2947 
z
" transform="scale(0.015625)"/>
       <path id="TimesNewRomanPSMT-6f" d="M 1600 2947 
Q 2250 2947 2644 2453 
Q 2978 2031 2978 1484 
Q 2978 1100 2793 706 
Q 2609 313 2286 112 
Q 1963 -88 1566 -88 
Q 919 -88 538 428 
Q 216 863 216 1403 
Q 216 1797 411 2186 
Q 606 2575 925 2761 
Q 1244 2947 1600 2947 
z
M 1503 2744 
Q 1338 2744 1170 2645 
Q 1003 2547 900 2300 
Q 797 2053 797 1666 
Q 797 1041 1045 587 
Q 1294 134 1700 134 
Q 2003 134 2200 384 
Q 2397 634 2397 1244 
Q 2397 2006 2069 2444 
Q 1847 2744 1503 2744 
z
" transform="scale(0.015625)"/>
       <path id="TimesNewRomanPSMT-6e" d="M 1034 2341 
Q 1538 2947 1994 2947 
Q 2228 2947 2397 2830 
Q 2566 2713 2666 2444 
Q 2734 2256 2734 1869 
L 2734 647 
Q 2734 375 2778 278 
Q 2813 200 2889 156 
Q 2966 113 3172 113 
L 3172 0 
L 1756 0 
L 1756 113 
L 1816 113 
Q 2016 113 2095 173 
Q 2175 234 2206 353 
Q 2219 400 2219 647 
L 2219 1819 
Q 2219 2209 2117 2386 
Q 2016 2563 1775 2563 
Q 1403 2563 1034 2156 
L 1034 647 
Q 1034 356 1069 288 
Q 1113 197 1189 155 
Q 1266 113 1500 113 
L 1500 0 
L 84 0 
L 84 113 
L 147 113 
Q 366 113 442 223 
Q 519 334 519 647 
L 519 1709 
Q 519 2225 495 2337 
Q 472 2450 423 2490 
Q 375 2531 294 2531 
Q 206 2531 84 2484 
L 38 2597 
L 900 2947 
L 1034 2947 
L 1034 2341 
z
" transform="scale(0.015625)"/>
       <path id="TimesNewRomanPSMT-20" transform="scale(0.015625)"/>
       <path id="TimesNewRomanPSMT-43" d="M 3853 4334 
L 3950 2894 
L 3853 2894 
Q 3659 3541 3300 3825 
Q 2941 4109 2438 4109 
Q 2016 4109 1675 3895 
Q 1334 3681 1139 3212 
Q 944 2744 944 2047 
Q 944 1472 1128 1050 
Q 1313 628 1683 403 
Q 2053 178 2528 178 
Q 2941 178 3256 354 
Q 3572 531 3950 1056 
L 4047 994 
Q 3728 428 3303 165 
Q 2878 -97 2294 -97 
Q 1241 -97 663 684 
Q 231 1266 231 2053 
Q 231 2688 515 3219 
Q 800 3750 1298 4042 
Q 1797 4334 2388 4334 
Q 2847 4334 3294 4109 
Q 3425 4041 3481 4041 
Q 3566 4041 3628 4100 
Q 3709 4184 3744 4334 
L 3853 4334 
z
" transform="scale(0.015625)"/>
       <path id="TimesNewRomanPSMT-75" d="M 2709 2863 
L 2709 1128 
Q 2709 631 2732 520 
Q 2756 409 2807 365 
Q 2859 322 2928 322 
Q 3025 322 3147 375 
L 3191 266 
L 2334 -88 
L 2194 -88 
L 2194 519 
Q 1825 119 1631 15 
Q 1438 -88 1222 -88 
Q 981 -88 804 51 
Q 628 191 559 409 
Q 491 628 491 1028 
L 491 2306 
Q 491 2509 447 2587 
Q 403 2666 317 2708 
Q 231 2750 6 2747 
L 6 2863 
L 1009 2863 
L 1009 947 
Q 1009 547 1148 422 
Q 1288 297 1484 297 
Q 1619 297 1789 381 
Q 1959 466 2194 703 
L 2194 2325 
Q 2194 2569 2105 2655 
Q 2016 2741 1734 2747 
L 1734 2863 
L 2709 2863 
z
" transform="scale(0.015625)"/>
       <path id="TimesNewRomanPSMT-74" d="M 1031 3803 
L 1031 2863 
L 1700 2863 
L 1700 2644 
L 1031 2644 
L 1031 788 
Q 1031 509 1111 412 
Q 1191 316 1316 316 
Q 1419 316 1516 380 
Q 1613 444 1666 569 
L 1788 569 
Q 1678 263 1478 108 
Q 1278 -47 1066 -47 
Q 922 -47 784 33 
Q 647 113 581 261 
Q 516 409 516 719 
L 516 2644 
L 63 2644 
L 63 2747 
Q 234 2816 414 2980 
Q 594 3144 734 3369 
Q 806 3488 934 3803 
L 1031 3803 
z
" transform="scale(0.015625)"/>
      </defs>
      <use xlink:href="#TimesNewRomanPSMT-53"/>
      <use xlink:href="#TimesNewRomanPSMT-65" transform="translate(55.615234 0)"/>
      <use xlink:href="#TimesNewRomanPSMT-73" transform="translate(100 0)"/>
      <use xlink:href="#TimesNewRomanPSMT-73" transform="translate(138.916016 0)"/>
      <use xlink:href="#TimesNewRomanPSMT-69" transform="translate(177.832031 0)"/>
      <use xlink:href="#TimesNewRomanPSMT-6f" transform="translate(205.615234 0)"/>
      <use xlink:href="#TimesNewRomanPSMT-6e" transform="translate(255.615234 0)"/>
      <use xlink:href="#TimesNewRomanPSMT-20" transform="translate(305.615234 0)"/>
      <use xlink:href="#TimesNewRomanPSMT-43" transform="translate(330.615234 0)"/>
      <use xlink:href="#TimesNewRomanPSMT-6f" transform="translate(397.314453 0)"/>
      <use xlink:href="#TimesNewRomanPSMT-75" transform="translate(447.314453 0)"/>
      <use xlink:href="#TimesNewRomanPSMT-6e" transform="translate(497.314453 0)"/>
      <use xlink:href="#TimesNewRomanPSMT-74" transform="translate(547.314453 0)"/>
     </g>
    </g>
   </g>
   <g id="matplotlib.axis_2">
    <g id="ytick_1">
     <g id="line2d_6">
      <path d="M 40.34 531.16 
L 669.744545 531.16 
" clip-path="url(#p50b079c5a0)" style="fill: none; stroke-dasharray: 2.96,1.28; stroke-dashoffset: 0; stroke: #cccccc; stroke-opacity: 0.5; stroke-width: 0.8"/>
     </g>
     <g id="text_7">
      <!-- 0 -->
      <g style="fill: #262626" transform="translate(27.779063 534.738906) scale(0.1 -0.1)">
       <use xlink:href="#ArialMT-30"/>
      </g>
     </g>
    </g>
    <g id="ytick_2">
     <g id="line2d_7">
      <path d="M 40.34 29.94 
L 669.744545 29.94 
" clip-path="url(#p50b079c5a0)" style="fill: none; stroke-dasharray: 2.96,1.28; stroke-dashoffset: 0; stroke: #cccccc; stroke-opacity: 0.5; stroke-width: 0.8"/>
     </g>
     <g id="text_8">
      <!-- 1 -->
      <g style="fill: #262626" transform="translate(27.779063 33.518906) scale(0.1 -0.1)">
       <use xlink:href="#ArialMT-31"/>
      </g>
     </g>
    </g>
    <g id="text_9">
     <!-- Stacked Proportion -->
     <g style="fill: #262626" transform="translate(20.784375 334.402969) rotate(-90) scale(0.14 -0.14)">
      <defs>
       <path id="TimesNewRomanPSMT-61" d="M 1822 413 
Q 1381 72 1269 19 
Q 1100 -59 909 -59 
Q 613 -59 420 144 
Q 228 347 228 678 
Q 228 888 322 1041 
Q 450 1253 767 1440 
Q 1084 1628 1822 1897 
L 1822 2009 
Q 1822 2438 1686 2597 
Q 1550 2756 1291 2756 
Q 1094 2756 978 2650 
Q 859 2544 859 2406 
L 866 2225 
Q 866 2081 792 2003 
Q 719 1925 600 1925 
Q 484 1925 411 2006 
Q 338 2088 338 2228 
Q 338 2497 613 2722 
Q 888 2947 1384 2947 
Q 1766 2947 2009 2819 
Q 2194 2722 2281 2516 
Q 2338 2381 2338 1966 
L 2338 994 
Q 2338 584 2353 492 
Q 2369 400 2405 369 
Q 2441 338 2488 338 
Q 2538 338 2575 359 
Q 2641 400 2828 588 
L 2828 413 
Q 2478 -56 2159 -56 
Q 2006 -56 1915 50 
Q 1825 156 1822 413 
z
M 1822 616 
L 1822 1706 
Q 1350 1519 1213 1441 
Q 966 1303 859 1153 
Q 753 1003 753 825 
Q 753 600 887 451 
Q 1022 303 1197 303 
Q 1434 303 1822 616 
z
" transform="scale(0.015625)"/>
       <path id="TimesNewRomanPSMT-63" d="M 2631 1088 
Q 2516 522 2178 217 
Q 1841 -88 1431 -88 
Q 944 -88 581 321 
Q 219 731 219 1428 
Q 219 2103 620 2525 
Q 1022 2947 1584 2947 
Q 2006 2947 2278 2723 
Q 2550 2500 2550 2259 
Q 2550 2141 2473 2067 
Q 2397 1994 2259 1994 
Q 2075 1994 1981 2113 
Q 1928 2178 1911 2362 
Q 1894 2547 1784 2644 
Q 1675 2738 1481 2738 
Q 1169 2738 978 2506 
Q 725 2200 725 1697 
Q 725 1184 976 792 
Q 1228 400 1656 400 
Q 1963 400 2206 609 
Q 2378 753 2541 1131 
L 2631 1088 
z
" transform="scale(0.015625)"/>
       <path id="TimesNewRomanPSMT-6b" d="M 1047 4444 
L 1047 1594 
L 1775 2259 
Q 2006 2472 2044 2528 
Q 2069 2566 2069 2603 
Q 2069 2666 2017 2711 
Q 1966 2756 1847 2763 
L 1847 2863 
L 3091 2863 
L 3091 2763 
Q 2834 2756 2664 2684 
Q 2494 2613 2291 2428 
L 1556 1750 
L 2291 822 
Q 2597 438 2703 334 
Q 2853 188 2966 144 
Q 3044 113 3238 113 
L 3238 0 
L 1847 0 
L 1847 113 
Q 1966 116 2008 148 
Q 2050 181 2050 241 
Q 2050 313 1925 472 
L 1047 1594 
L 1047 644 
Q 1047 366 1086 278 
Q 1125 191 1197 153 
Q 1269 116 1509 113 
L 1509 0 
L 53 0 
L 53 113 
Q 272 113 381 166 
Q 447 200 481 272 
Q 528 375 528 628 
L 528 3234 
Q 528 3731 506 3842 
Q 484 3953 434 3995 
Q 384 4038 303 4038 
Q 238 4038 106 3984 
L 53 4094 
L 903 4444 
L 1047 4444 
z
" transform="scale(0.015625)"/>
       <path id="TimesNewRomanPSMT-64" d="M 2222 322 
Q 2013 103 1813 7 
Q 1613 -88 1381 -88 
Q 913 -88 563 304 
Q 213 697 213 1313 
Q 213 1928 600 2439 
Q 988 2950 1597 2950 
Q 1975 2950 2222 2709 
L 2222 3238 
Q 2222 3728 2198 3840 
Q 2175 3953 2125 3993 
Q 2075 4034 2000 4034 
Q 1919 4034 1784 3984 
L 1744 4094 
L 2597 4444 
L 2738 4444 
L 2738 1134 
Q 2738 631 2761 520 
Q 2784 409 2836 365 
Q 2888 322 2956 322 
Q 3041 322 3181 375 
L 3216 266 
L 2366 -88 
L 2222 -88 
L 2222 322 
z
M 2222 541 
L 2222 2016 
Q 2203 2228 2109 2403 
Q 2016 2578 1861 2667 
Q 1706 2756 1559 2756 
Q 1284 2756 1069 2509 
Q 784 2184 784 1559 
Q 784 928 1059 592 
Q 1334 256 1672 256 
Q 1956 256 2222 541 
z
" transform="scale(0.015625)"/>
       <path id="TimesNewRomanPSMT-50" d="M 1313 1984 
L 1313 750 
Q 1313 350 1400 253 
Q 1519 116 1759 116 
L 1922 116 
L 1922 0 
L 106 0 
L 106 116 
L 266 116 
Q 534 116 650 291 
Q 713 388 713 750 
L 713 3488 
Q 713 3888 628 3984 
Q 506 4122 266 4122 
L 106 4122 
L 106 4238 
L 1659 4238 
Q 2228 4238 2556 4120 
Q 2884 4003 3109 3725 
Q 3334 3447 3334 3066 
Q 3334 2547 2992 2222 
Q 2650 1897 2025 1897 
Q 1872 1897 1694 1919 
Q 1516 1941 1313 1984 
z
M 1313 2163 
Q 1478 2131 1606 2115 
Q 1734 2100 1825 2100 
Q 2150 2100 2386 2351 
Q 2622 2603 2622 3003 
Q 2622 3278 2509 3514 
Q 2397 3750 2190 3867 
Q 1984 3984 1722 3984 
Q 1563 3984 1313 3925 
L 1313 2163 
z
" transform="scale(0.015625)"/>
       <path id="TimesNewRomanPSMT-72" d="M 1038 2947 
L 1038 2303 
Q 1397 2947 1775 2947 
Q 1947 2947 2059 2842 
Q 2172 2738 2172 2600 
Q 2172 2478 2090 2393 
Q 2009 2309 1897 2309 
Q 1788 2309 1652 2417 
Q 1516 2525 1450 2525 
Q 1394 2525 1328 2463 
Q 1188 2334 1038 2041 
L 1038 669 
Q 1038 431 1097 309 
Q 1138 225 1241 169 
Q 1344 113 1538 113 
L 1538 0 
L 72 0 
L 72 113 
Q 291 113 397 181 
Q 475 231 506 341 
Q 522 394 522 644 
L 522 1753 
Q 522 2253 501 2348 
Q 481 2444 426 2487 
Q 372 2531 291 2531 
Q 194 2531 72 2484 
L 41 2597 
L 906 2947 
L 1038 2947 
z
" transform="scale(0.015625)"/>
       <path id="TimesNewRomanPSMT-70" d="M -6 2578 
L 875 2934 
L 994 2934 
L 994 2266 
Q 1216 2644 1439 2795 
Q 1663 2947 1909 2947 
Q 2341 2947 2628 2609 
Q 2981 2197 2981 1534 
Q 2981 794 2556 309 
Q 2206 -88 1675 -88 
Q 1444 -88 1275 -22 
Q 1150 25 994 166 
L 994 -706 
Q 994 -1000 1030 -1079 
Q 1066 -1159 1155 -1206 
Q 1244 -1253 1478 -1253 
L 1478 -1369 
L -22 -1369 
L -22 -1253 
L 56 -1253 
Q 228 -1256 350 -1188 
Q 409 -1153 442 -1076 
Q 475 -1000 475 -688 
L 475 2019 
Q 475 2297 450 2372 
Q 425 2447 370 2484 
Q 316 2522 222 2522 
Q 147 2522 31 2478 
L -6 2578 
z
M 994 2081 
L 994 1013 
Q 994 666 1022 556 
Q 1066 375 1236 237 
Q 1406 100 1666 100 
Q 1978 100 2172 344 
Q 2425 663 2425 1241 
Q 2425 1897 2138 2250 
Q 1938 2494 1663 2494 
Q 1513 2494 1366 2419 
Q 1253 2363 994 2081 
z
" transform="scale(0.015625)"/>
      </defs>
      <use xlink:href="#TimesNewRomanPSMT-53"/>
      <use xlink:href="#TimesNewRomanPSMT-74" transform="translate(55.615234 0)"/>
      <use xlink:href="#TimesNewRomanPSMT-61" transform="translate(83.398438 0)"/>
      <use xlink:href="#TimesNewRomanPSMT-63" transform="translate(127.783203 0)"/>
      <use xlink:href="#TimesNewRomanPSMT-6b" transform="translate(172.167969 0)"/>
      <use xlink:href="#TimesNewRomanPSMT-65" transform="translate(222.167969 0)"/>
      <use xlink:href="#TimesNewRomanPSMT-64" transform="translate(266.552734 0)"/>
      <use xlink:href="#TimesNewRomanPSMT-20" transform="translate(316.552734 0)"/>
      <use xlink:href="#TimesNewRomanPSMT-50" transform="translate(341.552734 0)"/>
      <use xlink:href="#TimesNewRomanPSMT-72" transform="translate(397.167969 0)"/>
      <use xlink:href="#TimesNewRomanPSMT-6f" transform="translate(430.46875 0)"/>
      <use xlink:href="#TimesNewRomanPSMT-70" transform="translate(480.46875 0)"/>
      <use xlink:href="#TimesNewRomanPSMT-6f" transform="translate(530.46875 0)"/>
      <use xlink:href="#TimesNewRomanPSMT-72" transform="translate(580.46875 0)"/>
      <use xlink:href="#TimesNewRomanPSMT-74" transform="translate(613.769531 0)"/>
      <use xlink:href="#TimesNewRomanPSMT-69" transform="translate(641.552734 0)"/>
      <use xlink:href="#TimesNewRomanPSMT-6f" transform="translate(669.335938 0)"/>
      <use xlink:href="#TimesNewRomanPSMT-6e" transform="translate(719.335938 0)"/>
     </g>
    </g>
   </g>
   <g id="FillBetweenPolyCollection_1">
    <path d="M 40.34 105.123 
L 40.34 531.16 
L 42.724108 531.16 
L 45.108216 531.16 
L 47.492324 531.16 
L 49.876433 531.16 
L 52.260541 531.16 
L 54.644649 531.16 
L 57.028757 531.16 
L 59.412865 531.16 
L 61.796973 531.16 
L 64.181081 531.16 
L 66.565189 531.16 
L 68.949298 531.16 
L 71.333406 531.16 
L 73.717514 531.16 
L 76.101622 531.16 
L 78.48573 531.16 
L 80.869838 531.16 
L 83.253946 531.16 
L 85.638054 531.16 
L 88.022163 531.16 
L 90.406271 531.16 
L 92.790379 531.16 
L 95.174487 531.16 
L 97.558595 531.16 
L 99.942703 531.16 
L 102.326811 531.16 
L 104.710919 531.16 
L 107.095028 531.16 
L 109.479136 531.16 
L 111.863244 531.16 
L 114.247352 531.16 
L 116.63146 531.16 
L 119.015568 531.16 
L 121.399676 531.16 
L 123.783784 531.16 
L 126.167893 531.16 
L 128.552001 531.16 
L 130.936109 531.16 
L 133.320217 531.16 
L 135.704325 531.16 
L 138.088433 531.16 
L 140.472541 531.16 
L 142.856649 531.16 
L 145.240758 531.16 
L 147.624866 531.16 
L 150.008974 531.16 
L 152.393082 531.16 
L 154.77719 531.16 
L 157.161298 531.16 
L 159.545406 531.16 
L 161.929514 531.16 
L 164.313623 531.16 
L 166.697731 531.16 
L 169.081839 531.16 
L 171.465947 531.16 
L 173.850055 531.16 
L 176.234163 531.16 
L 178.618271 531.16 
L 181.002379 531.16 
L 183.386488 531.16 
L 185.770596 531.16 
L 188.154704 531.16 
L 190.538812 531.16 
L 192.92292 531.16 
L 195.307028 531.16 
L 197.691136 531.16 
L 200.075244 531.16 
L 202.459353 531.16 
L 204.843461 531.16 
L 207.227569 531.16 
L 209.611677 531.16 
L 211.995785 531.16 
L 214.379893 531.16 
L 216.764001 531.16 
L 219.14811 531.16 
L 221.532218 531.16 
L 223.916326 531.16 
L 226.300434 531.16 
L 228.684542 531.16 
L 231.06865 531.16 
L 233.452758 531.16 
L 235.836866 531.16 
L 238.220975 531.16 
L 240.605083 531.16 
L 242.989191 531.16 
L 245.373299 531.16 
L 247.757407 531.16 
L 250.141515 531.16 
L 252.525623 531.16 
L 254.909731 531.16 
L 257.29384 531.16 
L 259.677948 531.16 
L 262.062056 531.16 
L 264.446164 531.16 
L 266.830272 531.16 
L 269.21438 531.16 
L 271.598488 531.16 
L 273.982596 531.16 
L 276.366705 531.16 
L 278.750813 531.16 
L 281.134921 531.16 
L 283.519029 531.16 
L 285.903137 531.16 
L 288.287245 531.16 
L 290.671353 531.16 
L 293.055461 531.16 
L 295.43957 531.16 
L 297.823678 531.16 
L 300.207786 531.16 
L 302.591894 531.16 
L 304.976002 531.16 
L 307.36011 531.16 
L 309.744218 531.16 
L 312.128326 531.16 
L 314.512435 531.16 
L 316.896543 531.16 
L 319.280651 531.16 
L 321.664759 531.16 
L 324.048867 531.16 
L 326.432975 531.16 
L 328.817083 531.16 
L 331.201191 531.16 
L 333.5853 531.16 
L 335.969408 531.16 
L 338.353516 531.16 
L 340.737624 531.16 
L 343.121732 531.16 
L 345.50584 531.16 
L 347.889948 531.16 
L 350.274056 531.16 
L 352.658165 531.16 
L 355.042273 531.16 
L 357.426381 531.16 
L 359.810489 531.16 
L 362.194597 531.16 
L 364.578705 531.16 
L 366.962813 531.16 
L 369.346921 531.16 
L 371.73103 531.16 
L 374.115138 531.16 
L 376.499246 531.16 
L 378.883354 531.16 
L 381.267462 531.16 
L 383.65157 531.16 
L 386.035678 531.16 
L 388.419787 531.16 
L 390.803895 531.16 
L 393.188003 531.16 
L 395.572111 531.16 
L 397.956219 531.16 
L 400.340327 531.16 
L 402.724435 531.16 
L 405.108543 531.16 
L 407.492652 531.16 
L 409.87676 531.16 
L 412.260868 531.16 
L 414.644976 531.16 
L 417.029084 531.16 
L 419.413192 531.16 
L 421.7973 531.16 
L 424.181408 531.16 
L 426.565517 531.16 
L 428.949625 531.16 
L 431.333733 531.16 
L 433.717841 531.16 
L 436.101949 531.16 
L 438.486057 531.16 
L 440.870165 531.16 
L 443.254273 531.16 
L 445.638382 531.16 
L 448.02249 531.16 
L 450.406598 531.16 
L 452.790706 531.16 
L 455.174814 531.16 
L 457.558922 531.16 
L 459.94303 531.16 
L 462.327138 531.16 
L 464.711247 531.16 
L 467.095355 531.16 
L 469.479463 531.16 
L 471.863571 531.16 
L 474.247679 531.16 
L 476.631787 531.16 
L 479.015895 531.16 
L 481.400003 531.16 
L 483.784112 531.16 
L 486.16822 531.16 
L 488.552328 531.16 
L 490.936436 531.16 
L 493.320544 531.16 
L 495.704652 531.16 
L 498.08876 531.16 
L 500.472868 531.16 
L 502.856977 531.16 
L 505.241085 531.16 
L 507.625193 531.16 
L 510.009301 531.16 
L 512.393409 531.16 
L 514.777517 531.16 
L 517.161625 531.16 
L 519.545733 531.16 
L 521.929842 531.16 
L 524.31395 531.16 
L 526.698058 531.16 
L 529.082166 531.16 
L 531.466274 531.16 
L 533.850382 531.16 
L 536.23449 531.16 
L 538.618598 531.16 
L 541.002707 531.16 
L 543.386815 531.16 
L 545.770923 531.16 
L 548.155031 531.16 
L 550.539139 531.16 
L 552.923247 531.16 
L 555.307355 531.16 
L 557.691463 531.16 
L 560.075572 531.16 
L 562.45968 531.16 
L 564.843788 531.16 
L 567.227896 531.16 
L 569.612004 531.16 
L 571.996112 531.16 
L 574.38022 531.16 
L 576.764329 531.16 
L 579.148437 531.16 
L 581.532545 531.16 
L 583.916653 531.16 
L 586.300761 531.16 
L 588.684869 531.16 
L 591.068977 531.16 
L 593.453085 531.16 
L 595.837194 531.16 
L 598.221302 531.16 
L 600.60541 531.16 
L 602.989518 531.16 
L 605.373626 531.16 
L 607.757734 531.16 
L 610.141842 531.16 
L 612.52595 531.16 
L 614.910059 531.16 
L 617.294167 531.16 
L 619.678275 531.16 
L 622.062383 531.16 
L 624.446491 531.16 
L 626.830599 531.16 
L 629.214707 531.16 
L 631.598815 531.16 
L 633.982924 531.16 
L 636.367032 531.16 
L 638.75114 531.16 
L 641.135248 531.16 
L 643.519356 531.16 
L 645.903464 531.16 
L 648.287572 531.16 
L 650.67168 531.16 
L 653.055789 531.16 
L 655.439897 531.16 
L 657.824005 531.16 
L 660.208113 531.16 
L 660.208113 29.94 
L 660.208113 29.94 
L 657.824005 531.16 
L 655.439897 29.94 
L 653.055789 155.245 
L 650.67168 531.16 
L 648.287572 29.94 
L 645.903464 280.55 
L 643.519356 29.94 
L 641.135248 280.55 
L 638.75114 531.16 
L 636.367032 29.94 
L 633.982924 531.16 
L 631.598815 155.245 
L 629.214707 29.94 
L 626.830599 364.086667 
L 624.446491 280.55 
L 622.062383 531.16 
L 619.678275 197.013333 
L 617.294167 280.55 
L 614.910059 29.94 
L 612.52595 364.086667 
L 610.141842 197.013333 
L 607.757734 430.916 
L 605.373626 531.16 
L 602.989518 155.245 
L 600.60541 29.94 
L 598.221302 364.086667 
L 595.837194 155.245 
L 593.453085 405.855 
L 591.068977 29.94 
L 588.684869 531.16 
L 586.300761 531.16 
L 583.916653 531.16 
L 581.532545 531.16 
L 579.148437 364.086667 
L 576.764329 531.16 
L 574.38022 405.855 
L 571.996112 531.16 
L 569.612004 531.16 
L 567.227896 531.16 
L 564.843788 531.16 
L 562.45968 280.55 
L 560.075572 531.16 
L 557.691463 531.16 
L 555.307355 531.16 
L 552.923247 531.16 
L 550.539139 531.16 
L 548.155031 531.16 
L 545.770923 531.16 
L 543.386815 531.16 
L 541.002707 531.16 
L 538.618598 364.086667 
L 536.23449 531.16 
L 533.850382 531.16 
L 531.466274 468.5075 
L 529.082166 364.086667 
L 526.698058 531.16 
L 524.31395 447.623333 
L 521.929842 531.16 
L 519.545733 531.16 
L 517.161625 531.16 
L 514.777517 531.16 
L 512.393409 531.16 
L 510.009301 531.16 
L 507.625193 364.086667 
L 505.241085 531.16 
L 502.856977 531.16 
L 500.472868 531.16 
L 498.08876 468.5075 
L 495.704652 531.16 
L 493.320544 531.16 
L 490.936436 531.16 
L 488.552328 531.16 
L 486.16822 531.16 
L 483.784112 405.855 
L 481.400003 531.16 
L 479.015895 531.16 
L 476.631787 531.16 
L 474.247679 29.94 
L 471.863571 531.16 
L 469.479463 330.672 
L 467.095355 531.16 
L 464.711247 280.55 
L 462.327138 280.55 
L 459.94303 29.94 
L 457.558922 280.55 
L 455.174814 29.94 
L 452.790706 101.542857 
L 450.406598 155.245 
L 448.02249 186.57125 
L 445.638382 29.94 
L 443.254273 105.123 
L 440.870165 55.001 
L 438.486057 180.306 
L 436.101949 280.55 
L 433.717841 364.086667 
L 431.333733 280.55 
L 428.949625 280.55 
L 426.565517 29.94 
L 424.181408 29.94 
L 421.7973 55.001 
L 419.413192 55.001 
L 417.029084 29.94 
L 414.644976 92.5925 
L 412.260868 80.062 
L 409.87676 130.184 
L 407.492652 531.16 
L 405.108543 364.086667 
L 402.724435 531.16 
L 400.340327 155.245 
L 397.956219 105.123 
L 395.572111 55.001 
L 393.188003 29.94 
L 390.803895 81.347179 
L 388.419787 29.94 
L 386.035678 92.5925 
L 383.65157 364.086667 
L 381.267462 29.94 
L 378.883354 92.5925 
L 376.499246 180.306 
L 374.115138 121.830333 
L 371.73103 130.184 
L 369.346921 55.001 
L 366.962813 80.062 
L 364.578705 167.7755 
L 362.194597 155.245 
L 359.810489 86.32725 
L 357.426381 117.6535 
L 355.042273 322.318333 
L 352.658165 29.94 
L 350.274056 29.94 
L 347.889948 29.94 
L 345.50584 257.767273 
L 343.121732 88.415667 
L 340.737624 130.184 
L 338.353516 29.94 
L 335.969408 59.423529 
L 333.5853 130.184 
L 331.201191 330.672 
L 328.817083 49.9888 
L 326.432975 85.631111 
L 324.048867 101.542857 
L 321.664759 113.476667 
L 319.280651 155.245 
L 316.896543 55.001 
L 314.512435 29.94 
L 312.128326 101.542857 
L 309.744218 531.16 
L 307.36011 29.94 
L 304.976002 59.423529 
L 302.591894 29.94 
L 300.207786 57.785556 
L 297.823678 105.123 
L 295.43957 155.245 
L 293.055461 61.26625 
L 290.671353 80.062 
L 288.287245 29.94 
L 285.903137 169.167778 
L 283.519029 130.184 
L 281.134921 186.57125 
L 278.750813 280.55 
L 276.366705 55.001 
L 273.982596 29.94 
L 271.598488 280.55 
L 269.21438 29.94 
L 266.830272 155.245 
L 264.446164 29.94 
L 262.062056 80.062 
L 259.677948 29.94 
L 257.29384 177.357647 
L 254.909731 155.245 
L 252.525623 123.91875 
L 250.141515 387.954286 
L 247.757407 261.272308 
L 245.373299 80.062 
L 242.989191 230.428 
L 240.605083 105.123 
L 238.220975 111.957818 
L 235.836866 75.505455 
L 233.452758 230.428 
L 231.06865 299.827692 
L 228.684542 173.145714 
L 226.300434 364.086667 
L 223.916326 197.013333 
L 221.532218 197.013333 
L 219.14811 109.08 
L 216.764001 134.360833 
L 214.379893 92.5925 
L 211.995785 29.94 
L 209.611677 71.708333 
L 207.227569 80.062 
L 204.843461 88.415667 
L 202.459353 105.123 
L 200.075244 55.001 
L 197.691136 29.94 
L 195.307028 64.506897 
L 192.92292 145.606154 
L 190.538812 29.94 
L 188.154704 123.91875 
L 185.770596 155.245 
L 183.386488 188.659667 
L 181.002379 55.001 
L 178.618271 103.648824 
L 176.234163 29.94 
L 173.850055 96.769333 
L 171.465947 29.94 
L 169.081839 29.94 
L 166.697731 137.344286 
L 164.313623 125.410476 
L 161.929514 29.94 
L 159.545406 180.306 
L 157.161298 68.495385 
L 154.77719 118.390588 
L 152.393082 144.504571 
L 150.008974 252.704444 
L 147.624866 90.693939 
L 145.240758 88.907059 
L 142.856649 75.505455 
L 140.472541 84.125946 
L 138.088433 280.55 
L 135.704325 105.123 
L 133.320217 135.46 
L 130.936109 29.94 
L 128.552001 73.524348 
L 126.167893 155.245 
L 123.783784 197.013333 
L 121.399676 92.5925 
L 119.015568 113.476667 
L 116.63146 180.306 
L 114.247352 531.16 
L 111.863244 240.98 
L 109.479136 105.123 
L 107.095028 80.062 
L 104.710919 55.001 
L 102.326811 105.123 
L 99.942703 155.245 
L 97.558595 105.123 
L 95.174487 29.94 
L 92.790379 29.94 
L 90.406271 130.184 
L 88.022163 130.184 
L 85.638054 105.123 
L 83.253946 155.245 
L 80.869838 197.013333 
L 78.48573 155.245 
L 76.101622 330.672 
L 73.717514 29.94 
L 71.333406 130.184 
L 68.949298 180.306 
L 66.565189 217.8975 
L 64.181081 230.428 
L 61.796973 85.631111 
L 59.412865 257.767273 
L 57.028757 117.6535 
L 54.644649 180.306 
L 52.260541 135.46 
L 49.876433 222.716923 
L 47.492324 248.863678 
L 45.108216 74.351899 
L 42.724108 105.123 
L 40.34 105.123 
z
" clip-path="url(#p50b079c5a0)" style="fill: #5386b6; stroke: #ffffff"/>
    <path d="M 664.976329 29.94 
L 664.976329 531.16 
L 667.360437 531.16 
L 669.744545 531.16 
L 669.744545 29.94 
L 669.744545 29.94 
L 667.360437 29.94 
L 664.976329 29.94 
z
" clip-path="url(#p50b079c5a0)" style="fill: #5386b6; stroke: #ffffff"/>
   </g>
   <g id="FillBetweenPolyCollection_2">
    <path d="M 40.34 80.062 
L 40.34 105.123 
L 42.724108 105.123 
L 45.108216 74.351899 
L 47.492324 248.863678 
L 49.876433 222.716923 
L 52.260541 135.46 
L 54.644649 180.306 
L 57.028757 117.6535 
L 59.412865 257.767273 
L 61.796973 85.631111 
L 64.181081 230.428 
L 66.565189 217.8975 
L 68.949298 180.306 
L 71.333406 130.184 
L 73.717514 29.94 
L 76.101622 330.672 
L 78.48573 155.245 
L 80.869838 197.013333 
L 83.253946 155.245 
L 85.638054 105.123 
L 88.022163 130.184 
L 90.406271 130.184 
L 92.790379 29.94 
L 95.174487 29.94 
L 97.558595 105.123 
L 99.942703 155.245 
L 102.326811 105.123 
L 104.710919 55.001 
L 107.095028 80.062 
L 109.479136 105.123 
L 111.863244 240.98 
L 114.247352 531.16 
L 116.63146 180.306 
L 119.015568 113.476667 
L 121.399676 92.5925 
L 123.783784 197.013333 
L 126.167893 155.245 
L 128.552001 73.524348 
L 130.936109 29.94 
L 133.320217 135.46 
L 135.704325 105.123 
L 138.088433 280.55 
L 140.472541 84.125946 
L 142.856649 75.505455 
L 145.240758 88.907059 
L 147.624866 90.693939 
L 150.008974 252.704444 
L 152.393082 144.504571 
L 154.77719 118.390588 
L 157.161298 68.495385 
L 159.545406 180.306 
L 161.929514 29.94 
L 164.313623 125.410476 
L 166.697731 137.344286 
L 169.081839 29.94 
L 171.465947 29.94 
L 173.850055 96.769333 
L 176.234163 29.94 
L 178.618271 103.648824 
L 181.002379 55.001 
L 183.386488 188.659667 
L 185.770596 155.245 
L 188.154704 123.91875 
L 190.538812 29.94 
L 192.92292 145.606154 
L 195.307028 64.506897 
L 197.691136 29.94 
L 200.075244 55.001 
L 202.459353 105.123 
L 204.843461 88.415667 
L 207.227569 80.062 
L 209.611677 71.708333 
L 211.995785 29.94 
L 214.379893 92.5925 
L 216.764001 134.360833 
L 219.14811 109.08 
L 221.532218 197.013333 
L 223.916326 197.013333 
L 226.300434 364.086667 
L 228.684542 173.145714 
L 231.06865 299.827692 
L 233.452758 230.428 
L 235.836866 75.505455 
L 238.220975 111.957818 
L 240.605083 105.123 
L 242.989191 230.428 
L 245.373299 80.062 
L 247.757407 261.272308 
L 250.141515 387.954286 
L 252.525623 123.91875 
L 254.909731 155.245 
L 257.29384 177.357647 
L 259.677948 29.94 
L 262.062056 80.062 
L 264.446164 29.94 
L 266.830272 155.245 
L 269.21438 29.94 
L 271.598488 280.55 
L 273.982596 29.94 
L 276.366705 55.001 
L 278.750813 280.55 
L 281.134921 186.57125 
L 283.519029 130.184 
L 285.903137 169.167778 
L 288.287245 29.94 
L 290.671353 80.062 
L 293.055461 61.26625 
L 295.43957 155.245 
L 297.823678 105.123 
L 300.207786 57.785556 
L 302.591894 29.94 
L 304.976002 59.423529 
L 307.36011 29.94 
L 309.744218 531.16 
L 312.128326 101.542857 
L 314.512435 29.94 
L 316.896543 55.001 
L 319.280651 155.245 
L 321.664759 113.476667 
L 324.048867 101.542857 
L 326.432975 85.631111 
L 328.817083 49.9888 
L 331.201191 330.672 
L 333.5853 130.184 
L 335.969408 59.423529 
L 338.353516 29.94 
L 340.737624 130.184 
L 343.121732 88.415667 
L 345.50584 257.767273 
L 347.889948 29.94 
L 350.274056 29.94 
L 352.658165 29.94 
L 355.042273 322.318333 
L 357.426381 117.6535 
L 359.810489 86.32725 
L 362.194597 155.245 
L 364.578705 167.7755 
L 366.962813 80.062 
L 369.346921 55.001 
L 371.73103 130.184 
L 374.115138 121.830333 
L 376.499246 180.306 
L 378.883354 92.5925 
L 381.267462 29.94 
L 383.65157 364.086667 
L 386.035678 92.5925 
L 388.419787 29.94 
L 390.803895 81.347179 
L 393.188003 29.94 
L 395.572111 55.001 
L 397.956219 105.123 
L 400.340327 155.245 
L 402.724435 531.16 
L 405.108543 364.086667 
L 407.492652 531.16 
L 409.87676 130.184 
L 412.260868 80.062 
L 414.644976 92.5925 
L 417.029084 29.94 
L 419.413192 55.001 
L 421.7973 55.001 
L 424.181408 29.94 
L 426.565517 29.94 
L 428.949625 280.55 
L 431.333733 280.55 
L 433.717841 364.086667 
L 436.101949 280.55 
L 438.486057 180.306 
L 440.870165 55.001 
L 443.254273 105.123 
L 445.638382 29.94 
L 448.02249 186.57125 
L 450.406598 155.245 
L 452.790706 101.542857 
L 455.174814 29.94 
L 457.558922 280.55 
L 459.94303 29.94 
L 462.327138 280.55 
L 464.711247 280.55 
L 467.095355 531.16 
L 469.479463 330.672 
L 471.863571 531.16 
L 474.247679 29.94 
L 476.631787 531.16 
L 479.015895 531.16 
L 481.400003 531.16 
L 483.784112 405.855 
L 486.16822 531.16 
L 488.552328 531.16 
L 490.936436 531.16 
L 493.320544 531.16 
L 495.704652 531.16 
L 498.08876 468.5075 
L 500.472868 531.16 
L 502.856977 531.16 
L 505.241085 531.16 
L 507.625193 364.086667 
L 510.009301 531.16 
L 512.393409 531.16 
L 514.777517 531.16 
L 517.161625 531.16 
L 519.545733 531.16 
L 521.929842 531.16 
L 524.31395 447.623333 
L 526.698058 531.16 
L 529.082166 364.086667 
L 531.466274 468.5075 
L 533.850382 531.16 
L 536.23449 531.16 
L 538.618598 364.086667 
L 541.002707 531.16 
L 543.386815 531.16 
L 545.770923 531.16 
L 548.155031 531.16 
L 550.539139 531.16 
L 552.923247 531.16 
L 555.307355 531.16 
L 557.691463 531.16 
L 560.075572 531.16 
L 562.45968 280.55 
L 564.843788 531.16 
L 567.227896 531.16 
L 569.612004 531.16 
L 571.996112 531.16 
L 574.38022 405.855 
L 576.764329 531.16 
L 579.148437 364.086667 
L 581.532545 531.16 
L 583.916653 531.16 
L 586.300761 531.16 
L 588.684869 531.16 
L 591.068977 29.94 
L 593.453085 405.855 
L 595.837194 155.245 
L 598.221302 364.086667 
L 600.60541 29.94 
L 602.989518 155.245 
L 605.373626 531.16 
L 607.757734 430.916 
L 610.141842 197.013333 
L 612.52595 364.086667 
L 614.910059 29.94 
L 617.294167 280.55 
L 619.678275 197.013333 
L 622.062383 531.16 
L 624.446491 280.55 
L 626.830599 364.086667 
L 629.214707 29.94 
L 631.598815 155.245 
L 633.982924 531.16 
L 636.367032 29.94 
L 638.75114 531.16 
L 641.135248 280.55 
L 643.519356 29.94 
L 645.903464 280.55 
L 648.287572 29.94 
L 650.67168 531.16 
L 653.055789 155.245 
L 655.439897 29.94 
L 657.824005 531.16 
L 660.208113 29.94 
L 660.208113 29.94 
L 660.208113 29.94 
L 657.824005 531.16 
L 655.439897 29.94 
L 653.055789 155.245 
L 650.67168 531.16 
L 648.287572 29.94 
L 645.903464 29.94 
L 643.519356 29.94 
L 641.135248 280.55 
L 638.75114 531.16 
L 636.367032 29.94 
L 633.982924 531.16 
L 631.598815 155.245 
L 629.214707 29.94 
L 626.830599 364.086667 
L 624.446491 155.245 
L 622.062383 531.16 
L 619.678275 29.94 
L 617.294167 280.55 
L 614.910059 29.94 
L 612.52595 364.086667 
L 610.141842 197.013333 
L 607.757734 430.916 
L 605.373626 280.55 
L 602.989518 155.245 
L 600.60541 29.94 
L 598.221302 364.086667 
L 595.837194 155.245 
L 593.453085 217.8975 
L 591.068977 29.94 
L 588.684869 531.16 
L 586.300761 531.16 
L 583.916653 531.16 
L 581.532545 531.16 
L 579.148437 197.013333 
L 576.764329 531.16 
L 574.38022 405.855 
L 571.996112 531.16 
L 569.612004 531.16 
L 567.227896 531.16 
L 564.843788 531.16 
L 562.45968 280.55 
L 560.075572 531.16 
L 557.691463 531.16 
L 555.307355 531.16 
L 552.923247 531.16 
L 550.539139 531.16 
L 548.155031 531.16 
L 545.770923 531.16 
L 543.386815 531.16 
L 541.002707 531.16 
L 538.618598 364.086667 
L 536.23449 531.16 
L 533.850382 531.16 
L 531.466274 468.5075 
L 529.082166 280.55 
L 526.698058 531.16 
L 524.31395 447.623333 
L 521.929842 531.16 
L 519.545733 531.16 
L 517.161625 531.16 
L 514.777517 531.16 
L 512.393409 531.16 
L 510.009301 531.16 
L 507.625193 364.086667 
L 505.241085 364.086667 
L 502.856977 531.16 
L 500.472868 531.16 
L 498.08876 405.855 
L 495.704652 531.16 
L 493.320544 531.16 
L 490.936436 531.16 
L 488.552328 531.16 
L 486.16822 531.16 
L 483.784112 405.855 
L 481.400003 280.55 
L 479.015895 531.16 
L 476.631787 364.086667 
L 474.247679 29.94 
L 471.863571 531.16 
L 469.479463 330.672 
L 467.095355 531.16 
L 464.711247 280.55 
L 462.327138 280.55 
L 459.94303 29.94 
L 457.558922 197.013333 
L 455.174814 29.94 
L 452.790706 29.94 
L 450.406598 155.245 
L 448.02249 155.245 
L 445.638382 29.94 
L 443.254273 80.062 
L 440.870165 55.001 
L 438.486057 155.245 
L 436.101949 29.94 
L 433.717841 280.55 
L 431.333733 155.245 
L 428.949625 280.55 
L 426.565517 29.94 
L 424.181408 29.94 
L 421.7973 29.94 
L 419.413192 55.001 
L 417.029084 29.94 
L 414.644976 92.5925 
L 412.260868 29.94 
L 409.87676 55.001 
L 407.492652 531.16 
L 405.108543 197.013333 
L 402.724435 531.16 
L 400.340327 71.708333 
L 397.956219 29.94 
L 395.572111 29.94 
L 393.188003 29.94 
L 390.803895 42.791795 
L 388.419787 29.94 
L 386.035678 92.5925 
L 383.65157 197.013333 
L 381.267462 29.94 
L 378.883354 92.5925 
L 376.499246 105.123 
L 374.115138 80.062 
L 371.73103 80.062 
L 369.346921 29.94 
L 366.962813 80.062 
L 364.578705 55.001 
L 362.194597 155.245 
L 359.810489 61.26625 
L 357.426381 42.4705 
L 355.042273 280.55 
L 352.658165 29.94 
L 350.274056 29.94 
L 347.889948 29.94 
L 345.50584 166.636364 
L 343.121732 46.647333 
L 340.737624 105.123 
L 338.353516 29.94 
L 335.969408 59.423529 
L 333.5853 80.062 
L 331.201191 230.428 
L 328.817083 29.94 
L 326.432975 52.216444 
L 324.048867 65.741429 
L 321.664759 29.94 
L 319.280651 130.184 
L 316.896543 55.001 
L 314.512435 29.94 
L 312.128326 101.542857 
L 309.744218 531.16 
L 307.36011 29.94 
L 304.976002 29.94 
L 302.591894 29.94 
L 300.207786 29.94 
L 297.823678 55.001 
L 295.43957 29.94 
L 293.055461 61.26625 
L 290.671353 29.94 
L 288.287245 29.94 
L 285.903137 141.322222 
L 283.519029 80.062 
L 281.134921 92.5925 
L 278.750813 155.245 
L 276.366705 55.001 
L 273.982596 29.94 
L 271.598488 29.94 
L 269.21438 29.94 
L 266.830272 155.245 
L 264.446164 29.94 
L 262.062056 80.062 
L 259.677948 29.94 
L 257.29384 147.874118 
L 254.909731 155.245 
L 252.525623 123.91875 
L 250.141515 244.748571 
L 247.757407 222.716923 
L 245.373299 42.4705 
L 242.989191 105.123 
L 240.605083 80.062 
L 238.220975 66.392364 
L 235.836866 52.722727 
L 233.452758 130.184 
L 231.06865 261.272308 
L 228.684542 101.542857 
L 226.300434 197.013333 
L 223.916326 29.94 
L 221.532218 29.94 
L 219.14811 82.7 
L 216.764001 71.708333 
L 214.379893 29.94 
L 211.995785 29.94 
L 209.611677 29.94 
L 207.227569 55.001 
L 204.843461 55.001 
L 202.459353 80.062 
L 200.075244 29.94 
L 197.691136 29.94 
L 195.307028 47.223448 
L 192.92292 68.495385 
L 190.538812 29.94 
L 188.154704 61.26625 
L 185.770596 55.001 
L 183.386488 146.891333 
L 181.002379 55.001 
L 178.618271 88.907059 
L 176.234163 29.94 
L 173.850055 80.062 
L 171.465947 29.94 
L 169.081839 29.94 
L 166.697731 101.542857 
L 164.313623 77.675238 
L 161.929514 29.94 
L 159.545406 80.062 
L 157.161298 68.495385 
L 154.77719 118.390588 
L 152.393082 87.222286 
L 150.008974 197.013333 
L 147.624866 90.693939 
L 145.240758 49.595686 
L 142.856649 75.505455 
L 140.472541 57.032973 
L 138.088433 197.013333 
L 135.704325 105.123 
L 133.320217 82.7 
L 130.936109 29.94 
L 128.552001 62.628261 
L 126.167893 155.245 
L 123.783784 113.476667 
L 121.399676 29.94 
L 119.015568 71.708333 
L 116.63146 130.184 
L 114.247352 531.16 
L 111.863244 214.6 
L 109.479136 80.062 
L 107.095028 55.001 
L 104.710919 29.94 
L 102.326811 80.062 
L 99.942703 155.245 
L 97.558595 80.062 
L 95.174487 29.94 
L 92.790379 29.94 
L 90.406271 63.354667 
L 88.022163 105.123 
L 85.638054 80.062 
L 83.253946 80.062 
L 80.869838 197.013333 
L 78.48573 137.344286 
L 76.101622 230.428 
L 73.717514 29.94 
L 71.333406 130.184 
L 68.949298 105.123 
L 66.565189 155.245 
L 64.181081 130.184 
L 61.796973 85.631111 
L 59.412865 212.201818 
L 57.028757 105.123 
L 54.644649 155.245 
L 52.260541 135.46 
L 49.876433 107.050769 
L 47.492324 191.252184 
L 45.108216 68.007342 
L 42.724108 67.5315 
L 40.34 80.062 
z
" clip-path="url(#p50b079c5a0)" style="fill: #d57459; stroke: #ffffff"/>
    <path d="M 664.976329 29.94 
L 664.976329 29.94 
L 667.360437 29.94 
L 669.744545 29.94 
L 669.744545 29.94 
L 669.744545 29.94 
L 667.360437 29.94 
L 664.976329 29.94 
z
" clip-path="url(#p50b079c5a0)" style="fill: #d57459; stroke: #ffffff"/>
   </g>
   <g id="FillBetweenPolyCollection_3">
    <path d="M 40.34 55.001 
L 40.34 80.062 
L 42.724108 67.5315 
L 45.108216 68.007342 
L 47.492324 191.252184 
L 49.876433 107.050769 
L 52.260541 135.46 
L 54.644649 155.245 
L 57.028757 105.123 
L 59.412865 212.201818 
L 61.796973 85.631111 
L 64.181081 130.184 
L 66.565189 155.245 
L 68.949298 105.123 
L 71.333406 130.184 
L 73.717514 29.94 
L 76.101622 230.428 
L 78.48573 137.344286 
L 80.869838 197.013333 
L 83.253946 80.062 
L 85.638054 80.062 
L 88.022163 105.123 
L 90.406271 63.354667 
L 92.790379 29.94 
L 95.174487 29.94 
L 97.558595 80.062 
L 99.942703 155.245 
L 102.326811 80.062 
L 104.710919 29.94 
L 107.095028 55.001 
L 109.479136 80.062 
L 111.863244 214.6 
L 114.247352 531.16 
L 116.63146 130.184 
L 119.015568 71.708333 
L 121.399676 29.94 
L 123.783784 113.476667 
L 126.167893 155.245 
L 128.552001 62.628261 
L 130.936109 29.94 
L 133.320217 82.7 
L 135.704325 105.123 
L 138.088433 197.013333 
L 140.472541 57.032973 
L 142.856649 75.505455 
L 145.240758 49.595686 
L 147.624866 90.693939 
L 150.008974 197.013333 
L 152.393082 87.222286 
L 154.77719 118.390588 
L 157.161298 68.495385 
L 159.545406 80.062 
L 161.929514 29.94 
L 164.313623 77.675238 
L 166.697731 101.542857 
L 169.081839 29.94 
L 171.465947 29.94 
L 173.850055 80.062 
L 176.234163 29.94 
L 178.618271 88.907059 
L 181.002379 55.001 
L 183.386488 146.891333 
L 185.770596 55.001 
L 188.154704 61.26625 
L 190.538812 29.94 
L 192.92292 68.495385 
L 195.307028 47.223448 
L 197.691136 29.94 
L 200.075244 29.94 
L 202.459353 80.062 
L 204.843461 55.001 
L 207.227569 55.001 
L 209.611677 29.94 
L 211.995785 29.94 
L 214.379893 29.94 
L 216.764001 71.708333 
L 219.14811 82.7 
L 221.532218 29.94 
L 223.916326 29.94 
L 226.300434 197.013333 
L 228.684542 101.542857 
L 231.06865 261.272308 
L 233.452758 130.184 
L 235.836866 52.722727 
L 238.220975 66.392364 
L 240.605083 80.062 
L 242.989191 105.123 
L 245.373299 42.4705 
L 247.757407 222.716923 
L 250.141515 244.748571 
L 252.525623 123.91875 
L 254.909731 155.245 
L 257.29384 147.874118 
L 259.677948 29.94 
L 262.062056 80.062 
L 264.446164 29.94 
L 266.830272 155.245 
L 269.21438 29.94 
L 271.598488 29.94 
L 273.982596 29.94 
L 276.366705 55.001 
L 278.750813 155.245 
L 281.134921 92.5925 
L 283.519029 80.062 
L 285.903137 141.322222 
L 288.287245 29.94 
L 290.671353 29.94 
L 293.055461 61.26625 
L 295.43957 29.94 
L 297.823678 55.001 
L 300.207786 29.94 
L 302.591894 29.94 
L 304.976002 29.94 
L 307.36011 29.94 
L 309.744218 531.16 
L 312.128326 101.542857 
L 314.512435 29.94 
L 316.896543 55.001 
L 319.280651 130.184 
L 321.664759 29.94 
L 324.048867 65.741429 
L 326.432975 52.216444 
L 328.817083 29.94 
L 331.201191 230.428 
L 333.5853 80.062 
L 335.969408 59.423529 
L 338.353516 29.94 
L 340.737624 105.123 
L 343.121732 46.647333 
L 345.50584 166.636364 
L 347.889948 29.94 
L 350.274056 29.94 
L 352.658165 29.94 
L 355.042273 280.55 
L 357.426381 42.4705 
L 359.810489 61.26625 
L 362.194597 155.245 
L 364.578705 55.001 
L 366.962813 80.062 
L 369.346921 29.94 
L 371.73103 80.062 
L 374.115138 80.062 
L 376.499246 105.123 
L 378.883354 92.5925 
L 381.267462 29.94 
L 383.65157 197.013333 
L 386.035678 92.5925 
L 388.419787 29.94 
L 390.803895 42.791795 
L 393.188003 29.94 
L 395.572111 29.94 
L 397.956219 29.94 
L 400.340327 71.708333 
L 402.724435 531.16 
L 405.108543 197.013333 
L 407.492652 531.16 
L 409.87676 55.001 
L 412.260868 29.94 
L 414.644976 92.5925 
L 417.029084 29.94 
L 419.413192 55.001 
L 421.7973 29.94 
L 424.181408 29.94 
L 426.565517 29.94 
L 428.949625 280.55 
L 431.333733 155.245 
L 433.717841 280.55 
L 436.101949 29.94 
L 438.486057 155.245 
L 440.870165 55.001 
L 443.254273 80.062 
L 445.638382 29.94 
L 448.02249 155.245 
L 450.406598 155.245 
L 452.790706 29.94 
L 455.174814 29.94 
L 457.558922 197.013333 
L 459.94303 29.94 
L 462.327138 280.55 
L 464.711247 280.55 
L 467.095355 531.16 
L 469.479463 330.672 
L 471.863571 531.16 
L 474.247679 29.94 
L 476.631787 364.086667 
L 479.015895 531.16 
L 481.400003 280.55 
L 483.784112 405.855 
L 486.16822 531.16 
L 488.552328 531.16 
L 490.936436 531.16 
L 493.320544 531.16 
L 495.704652 531.16 
L 498.08876 405.855 
L 500.472868 531.16 
L 502.856977 531.16 
L 505.241085 364.086667 
L 507.625193 364.086667 
L 510.009301 531.16 
L 512.393409 531.16 
L 514.777517 531.16 
L 517.161625 531.16 
L 519.545733 531.16 
L 521.929842 531.16 
L 524.31395 447.623333 
L 526.698058 531.16 
L 529.082166 280.55 
L 531.466274 468.5075 
L 533.850382 531.16 
L 536.23449 531.16 
L 538.618598 364.086667 
L 541.002707 531.16 
L 543.386815 531.16 
L 545.770923 531.16 
L 548.155031 531.16 
L 550.539139 531.16 
L 552.923247 531.16 
L 555.307355 531.16 
L 557.691463 531.16 
L 560.075572 531.16 
L 562.45968 280.55 
L 564.843788 531.16 
L 567.227896 531.16 
L 569.612004 531.16 
L 571.996112 531.16 
L 574.38022 405.855 
L 576.764329 531.16 
L 579.148437 197.013333 
L 581.532545 531.16 
L 583.916653 531.16 
L 586.300761 531.16 
L 588.684869 531.16 
L 591.068977 29.94 
L 593.453085 217.8975 
L 595.837194 155.245 
L 598.221302 364.086667 
L 600.60541 29.94 
L 602.989518 155.245 
L 605.373626 280.55 
L 607.757734 430.916 
L 610.141842 197.013333 
L 612.52595 364.086667 
L 614.910059 29.94 
L 617.294167 280.55 
L 619.678275 29.94 
L 622.062383 531.16 
L 624.446491 155.245 
L 626.830599 364.086667 
L 629.214707 29.94 
L 631.598815 155.245 
L 633.982924 531.16 
L 636.367032 29.94 
L 638.75114 531.16 
L 641.135248 280.55 
L 643.519356 29.94 
L 645.903464 29.94 
L 648.287572 29.94 
L 650.67168 531.16 
L 653.055789 155.245 
L 655.439897 29.94 
L 657.824005 531.16 
L 660.208113 29.94 
L 660.208113 29.94 
L 660.208113 29.94 
L 657.824005 531.16 
L 655.439897 29.94 
L 653.055789 29.94 
L 650.67168 29.94 
L 648.287572 29.94 
L 645.903464 29.94 
L 643.519356 29.94 
L 641.135248 29.94 
L 638.75114 280.55 
L 636.367032 29.94 
L 633.982924 29.94 
L 631.598815 155.245 
L 629.214707 29.94 
L 626.830599 197.013333 
L 624.446491 29.94 
L 622.062383 531.16 
L 619.678275 29.94 
L 617.294167 29.94 
L 614.910059 29.94 
L 612.52595 29.94 
L 610.141842 29.94 
L 607.757734 29.94 
L 605.373626 29.94 
L 602.989518 29.94 
L 600.60541 29.94 
L 598.221302 29.94 
L 595.837194 29.94 
L 593.453085 29.94 
L 591.068977 29.94 
L 588.684869 29.94 
L 586.300761 197.013333 
L 583.916653 29.94 
L 581.532545 29.94 
L 579.148437 29.94 
L 576.764329 29.94 
L 574.38022 29.94 
L 571.996112 29.94 
L 569.612004 531.16 
L 567.227896 531.16 
L 564.843788 29.94 
L 562.45968 29.94 
L 560.075572 29.94 
L 557.691463 531.16 
L 555.307355 29.94 
L 552.923247 29.94 
L 550.539139 531.16 
L 548.155031 29.94 
L 545.770923 29.94 
L 543.386815 29.94 
L 541.002707 531.16 
L 538.618598 29.94 
L 536.23449 29.94 
L 533.850382 29.94 
L 531.466274 29.94 
L 529.082166 29.94 
L 526.698058 29.94 
L 524.31395 29.94 
L 521.929842 29.94 
L 519.545733 29.94 
L 517.161625 29.94 
L 514.777517 29.94 
L 512.393409 29.94 
L 510.009301 29.94 
L 507.625193 29.94 
L 505.241085 29.94 
L 502.856977 29.94 
L 500.472868 29.94 
L 498.08876 29.94 
L 495.704652 155.245 
L 493.320544 29.94 
L 490.936436 29.94 
L 488.552328 29.94 
L 486.16822 280.55 
L 483.784112 29.94 
L 481.400003 29.94 
L 479.015895 29.94 
L 476.631787 29.94 
L 474.247679 29.94 
L 471.863571 29.94 
L 469.479463 29.94 
L 467.095355 29.94 
L 464.711247 29.94 
L 462.327138 29.94 
L 459.94303 29.94 
L 457.558922 29.94 
L 455.174814 29.94 
L 452.790706 29.94 
L 450.406598 29.94 
L 448.02249 92.5925 
L 445.638382 29.94 
L 443.254273 29.94 
L 440.870165 55.001 
L 438.486057 105.123 
L 436.101949 29.94 
L 433.717841 197.013333 
L 431.333733 29.94 
L 428.949625 155.245 
L 426.565517 29.94 
L 424.181408 29.94 
L 421.7973 29.94 
L 419.413192 55.001 
L 417.029084 29.94 
L 414.644976 92.5925 
L 412.260868 29.94 
L 409.87676 29.94 
L 407.492652 531.16 
L 405.108543 113.476667 
L 402.724435 29.94 
L 400.340327 71.708333 
L 397.956219 29.94 
L 395.572111 29.94 
L 393.188003 29.94 
L 390.803895 42.791795 
L 388.419787 29.94 
L 386.035678 92.5925 
L 383.65157 197.013333 
L 381.267462 29.94 
L 378.883354 92.5925 
L 376.499246 55.001 
L 374.115138 71.708333 
L 371.73103 42.4705 
L 369.346921 29.94 
L 366.962813 55.001 
L 364.578705 42.4705 
L 362.194597 105.123 
L 359.810489 55.001 
L 357.426381 42.4705 
L 355.042273 29.94 
L 352.658165 29.94 
L 350.274056 29.94 
L 347.889948 29.94 
L 345.50584 29.94 
L 343.121732 46.647333 
L 340.737624 105.123 
L 338.353516 29.94 
L 335.969408 29.94 
L 333.5853 55.001 
L 331.201191 130.184 
L 328.817083 29.94 
L 326.432975 41.078222 
L 324.048867 29.94 
L 321.664759 29.94 
L 319.280651 105.123 
L 316.896543 55.001 
L 314.512435 29.94 
L 312.128326 65.741429 
L 309.744218 29.94 
L 307.36011 29.94 
L 304.976002 29.94 
L 302.591894 29.94 
L 300.207786 29.94 
L 297.823678 55.001 
L 295.43957 29.94 
L 293.055461 29.94 
L 290.671353 29.94 
L 288.287245 29.94 
L 285.903137 113.476667 
L 283.519029 29.94 
L 281.134921 29.94 
L 278.750813 29.94 
L 276.366705 29.94 
L 273.982596 29.94 
L 271.598488 29.94 
L 269.21438 29.94 
L 266.830272 29.94 
L 264.446164 29.94 
L 262.062056 55.001 
L 259.677948 29.94 
L 257.29384 59.423529 
L 254.909731 29.94 
L 252.525623 61.26625 
L 250.141515 29.94 
L 247.757407 29.94 
L 245.373299 29.94 
L 242.989191 29.94 
L 240.605083 29.94 
L 238.220975 29.94 
L 235.836866 29.94 
L 233.452758 29.94 
L 231.06865 145.606154 
L 228.684542 29.94 
L 226.300434 197.013333 
L 223.916326 29.94 
L 221.532218 29.94 
L 219.14811 82.7 
L 216.764001 50.824167 
L 214.379893 29.94 
L 211.995785 29.94 
L 209.611677 29.94 
L 207.227569 29.94 
L 204.843461 29.94 
L 202.459353 29.94 
L 200.075244 29.94 
L 197.691136 29.94 
L 195.307028 29.94 
L 192.92292 49.217692 
L 190.538812 29.94 
L 188.154704 45.603125 
L 185.770596 55.001 
L 183.386488 96.769333 
L 181.002379 55.001 
L 178.618271 59.423529 
L 176.234163 29.94 
L 173.850055 38.293667 
L 171.465947 29.94 
L 169.081839 29.94 
L 166.697731 29.94 
L 164.313623 29.94 
L 161.929514 29.94 
L 159.545406 29.94 
L 157.161298 29.94 
L 154.77719 118.390588 
L 152.393082 29.94 
L 150.008974 85.631111 
L 147.624866 75.505455 
L 145.240758 49.595686 
L 142.856649 75.505455 
L 140.472541 29.94 
L 138.088433 29.94 
L 135.704325 80.062 
L 133.320217 56.32 
L 130.936109 29.94 
L 128.552001 40.836087 
L 126.167893 29.94 
L 123.783784 71.708333 
L 121.399676 29.94 
L 119.015568 71.708333 
L 116.63146 130.184 
L 114.247352 531.16 
L 111.863244 82.7 
L 109.479136 29.94 
L 107.095028 42.4705 
L 104.710919 29.94 
L 102.326811 55.001 
L 99.942703 130.184 
L 97.558595 29.94 
L 95.174487 29.94 
L 92.790379 29.94 
L 90.406271 38.293667 
L 88.022163 42.4705 
L 85.638054 29.94 
L 83.253946 29.94 
L 80.869838 29.94 
L 78.48573 29.94 
L 76.101622 130.184 
L 73.717514 29.94 
L 71.333406 29.94 
L 68.949298 29.94 
L 66.565189 29.94 
L 64.181081 29.94 
L 61.796973 29.94 
L 59.412865 29.94 
L 57.028757 29.94 
L 54.644649 29.94 
L 52.260541 56.32 
L 49.876433 29.94 
L 47.492324 41.462299 
L 45.108216 36.284557 
L 42.724108 55.001 
L 40.34 55.001 
z
" clip-path="url(#p50b079c5a0)" style="fill: #e8bc60; stroke: #ffffff"/>
    <path d="M 664.976329 29.94 
L 664.976329 29.94 
L 667.360437 29.94 
L 669.744545 29.94 
L 669.744545 29.94 
L 669.744545 29.94 
L 667.360437 29.94 
L 664.976329 29.94 
z
" clip-path="url(#p50b079c5a0)" style="fill: #e8bc60; stroke: #ffffff"/>
   </g>
   <g id="FillBetweenPolyCollection_4">
    <path d="M 40.34 29.94 
L 40.34 55.001 
L 42.724108 55.001 
L 45.108216 36.284557 
L 47.492324 41.462299 
L 49.876433 29.94 
L 52.260541 56.32 
L 54.644649 29.94 
L 57.028757 29.94 
L 59.412865 29.94 
L 61.796973 29.94 
L 64.181081 29.94 
L 66.565189 29.94 
L 68.949298 29.94 
L 71.333406 29.94 
L 73.717514 29.94 
L 76.101622 130.184 
L 78.48573 29.94 
L 80.869838 29.94 
L 83.253946 29.94 
L 85.638054 29.94 
L 88.022163 42.4705 
L 90.406271 38.293667 
L 92.790379 29.94 
L 95.174487 29.94 
L 97.558595 29.94 
L 99.942703 130.184 
L 102.326811 55.001 
L 104.710919 29.94 
L 107.095028 42.4705 
L 109.479136 29.94 
L 111.863244 82.7 
L 114.247352 531.16 
L 116.63146 130.184 
L 119.015568 71.708333 
L 121.399676 29.94 
L 123.783784 71.708333 
L 126.167893 29.94 
L 128.552001 40.836087 
L 130.936109 29.94 
L 133.320217 56.32 
L 135.704325 80.062 
L 138.088433 29.94 
L 140.472541 29.94 
L 142.856649 75.505455 
L 145.240758 49.595686 
L 147.624866 75.505455 
L 150.008974 85.631111 
L 152.393082 29.94 
L 154.77719 118.390588 
L 157.161298 29.94 
L 159.545406 29.94 
L 161.929514 29.94 
L 164.313623 29.94 
L 166.697731 29.94 
L 169.081839 29.94 
L 171.465947 29.94 
L 173.850055 38.293667 
L 176.234163 29.94 
L 178.618271 59.423529 
L 181.002379 55.001 
L 183.386488 96.769333 
L 185.770596 55.001 
L 188.154704 45.603125 
L 190.538812 29.94 
L 192.92292 49.217692 
L 195.307028 29.94 
L 197.691136 29.94 
L 200.075244 29.94 
L 202.459353 29.94 
L 204.843461 29.94 
L 207.227569 29.94 
L 209.611677 29.94 
L 211.995785 29.94 
L 214.379893 29.94 
L 216.764001 50.824167 
L 219.14811 82.7 
L 221.532218 29.94 
L 223.916326 29.94 
L 226.300434 197.013333 
L 228.684542 29.94 
L 231.06865 145.606154 
L 233.452758 29.94 
L 235.836866 29.94 
L 238.220975 29.94 
L 240.605083 29.94 
L 242.989191 29.94 
L 245.373299 29.94 
L 247.757407 29.94 
L 250.141515 29.94 
L 252.525623 61.26625 
L 254.909731 29.94 
L 257.29384 59.423529 
L 259.677948 29.94 
L 262.062056 55.001 
L 264.446164 29.94 
L 266.830272 29.94 
L 269.21438 29.94 
L 271.598488 29.94 
L 273.982596 29.94 
L 276.366705 29.94 
L 278.750813 29.94 
L 281.134921 29.94 
L 283.519029 29.94 
L 285.903137 113.476667 
L 288.287245 29.94 
L 290.671353 29.94 
L 293.055461 29.94 
L 295.43957 29.94 
L 297.823678 55.001 
L 300.207786 29.94 
L 302.591894 29.94 
L 304.976002 29.94 
L 307.36011 29.94 
L 309.744218 29.94 
L 312.128326 65.741429 
L 314.512435 29.94 
L 316.896543 55.001 
L 319.280651 105.123 
L 321.664759 29.94 
L 324.048867 29.94 
L 326.432975 41.078222 
L 328.817083 29.94 
L 331.201191 130.184 
L 333.5853 55.001 
L 335.969408 29.94 
L 338.353516 29.94 
L 340.737624 105.123 
L 343.121732 46.647333 
L 345.50584 29.94 
L 347.889948 29.94 
L 350.274056 29.94 
L 352.658165 29.94 
L 355.042273 29.94 
L 357.426381 42.4705 
L 359.810489 55.001 
L 362.194597 105.123 
L 364.578705 42.4705 
L 366.962813 55.001 
L 369.346921 29.94 
L 371.73103 42.4705 
L 374.115138 71.708333 
L 376.499246 55.001 
L 378.883354 92.5925 
L 381.267462 29.94 
L 383.65157 197.013333 
L 386.035678 92.5925 
L 388.419787 29.94 
L 390.803895 42.791795 
L 393.188003 29.94 
L 395.572111 29.94 
L 397.956219 29.94 
L 400.340327 71.708333 
L 402.724435 29.94 
L 405.108543 113.476667 
L 407.492652 531.16 
L 409.87676 29.94 
L 412.260868 29.94 
L 414.644976 92.5925 
L 417.029084 29.94 
L 419.413192 55.001 
L 421.7973 29.94 
L 424.181408 29.94 
L 426.565517 29.94 
L 428.949625 155.245 
L 431.333733 29.94 
L 433.717841 197.013333 
L 436.101949 29.94 
L 438.486057 105.123 
L 440.870165 55.001 
L 443.254273 29.94 
L 445.638382 29.94 
L 448.02249 92.5925 
L 450.406598 29.94 
L 452.790706 29.94 
L 455.174814 29.94 
L 457.558922 29.94 
L 459.94303 29.94 
L 462.327138 29.94 
L 464.711247 29.94 
L 467.095355 29.94 
L 469.479463 29.94 
L 471.863571 29.94 
L 474.247679 29.94 
L 476.631787 29.94 
L 479.015895 29.94 
L 481.400003 29.94 
L 483.784112 29.94 
L 486.16822 280.55 
L 488.552328 29.94 
L 490.936436 29.94 
L 493.320544 29.94 
L 495.704652 155.245 
L 498.08876 29.94 
L 500.472868 29.94 
L 502.856977 29.94 
L 505.241085 29.94 
L 507.625193 29.94 
L 510.009301 29.94 
L 512.393409 29.94 
L 514.777517 29.94 
L 517.161625 29.94 
L 519.545733 29.94 
L 521.929842 29.94 
L 524.31395 29.94 
L 526.698058 29.94 
L 529.082166 29.94 
L 531.466274 29.94 
L 533.850382 29.94 
L 536.23449 29.94 
L 538.618598 29.94 
L 541.002707 531.16 
L 543.386815 29.94 
L 545.770923 29.94 
L 548.155031 29.94 
L 550.539139 531.16 
L 552.923247 29.94 
L 555.307355 29.94 
L 557.691463 531.16 
L 560.075572 29.94 
L 562.45968 29.94 
L 564.843788 29.94 
L 567.227896 531.16 
L 569.612004 531.16 
L 571.996112 29.94 
L 574.38022 29.94 
L 576.764329 29.94 
L 579.148437 29.94 
L 581.532545 29.94 
L 583.916653 29.94 
L 586.300761 197.013333 
L 588.684869 29.94 
L 591.068977 29.94 
L 593.453085 29.94 
L 595.837194 29.94 
L 598.221302 29.94 
L 600.60541 29.94 
L 602.989518 29.94 
L 605.373626 29.94 
L 607.757734 29.94 
L 610.141842 29.94 
L 612.52595 29.94 
L 614.910059 29.94 
L 617.294167 29.94 
L 619.678275 29.94 
L 622.062383 531.16 
L 624.446491 29.94 
L 626.830599 197.013333 
L 629.214707 29.94 
L 631.598815 155.245 
L 633.982924 29.94 
L 636.367032 29.94 
L 638.75114 280.55 
L 641.135248 29.94 
L 643.519356 29.94 
L 645.903464 29.94 
L 648.287572 29.94 
L 650.67168 29.94 
L 653.055789 29.94 
L 655.439897 29.94 
L 657.824005 531.16 
L 660.208113 29.94 
L 660.208113 29.94 
L 660.208113 29.94 
L 657.824005 29.94 
L 655.439897 29.94 
L 653.055789 29.94 
L 650.67168 29.94 
L 648.287572 29.94 
L 645.903464 29.94 
L 643.519356 29.94 
L 641.135248 29.94 
L 638.75114 29.94 
L 636.367032 29.94 
L 633.982924 29.94 
L 631.598815 29.94 
L 629.214707 29.94 
L 626.830599 29.94 
L 624.446491 29.94 
L 622.062383 29.94 
L 619.678275 29.94 
L 617.294167 29.94 
L 614.910059 29.94 
L 612.52595 29.94 
L 610.141842 29.94 
L 607.757734 29.94 
L 605.373626 29.94 
L 602.989518 29.94 
L 600.60541 29.94 
L 598.221302 29.94 
L 595.837194 29.94 
L 593.453085 29.94 
L 591.068977 29.94 
L 588.684869 29.94 
L 586.300761 29.94 
L 583.916653 29.94 
L 581.532545 29.94 
L 579.148437 29.94 
L 576.764329 29.94 
L 574.38022 29.94 
L 571.996112 29.94 
L 569.612004 29.94 
L 567.227896 29.94 
L 564.843788 29.94 
L 562.45968 29.94 
L 560.075572 29.94 
L 557.691463 29.94 
L 555.307355 29.94 
L 552.923247 29.94 
L 550.539139 29.94 
L 548.155031 29.94 
L 545.770923 29.94 
L 543.386815 29.94 
L 541.002707 29.94 
L 538.618598 29.94 
L 536.23449 29.94 
L 533.850382 29.94 
L 531.466274 29.94 
L 529.082166 29.94 
L 526.698058 29.94 
L 524.31395 29.94 
L 521.929842 29.94 
L 519.545733 29.94 
L 517.161625 29.94 
L 514.777517 29.94 
L 512.393409 29.94 
L 510.009301 29.94 
L 507.625193 29.94 
L 505.241085 29.94 
L 502.856977 29.94 
L 500.472868 29.94 
L 498.08876 29.94 
L 495.704652 29.94 
L 493.320544 29.94 
L 490.936436 29.94 
L 488.552328 29.94 
L 486.16822 29.94 
L 483.784112 29.94 
L 481.400003 29.94 
L 479.015895 29.94 
L 476.631787 29.94 
L 474.247679 29.94 
L 471.863571 29.94 
L 469.479463 29.94 
L 467.095355 29.94 
L 464.711247 29.94 
L 462.327138 29.94 
L 459.94303 29.94 
L 457.558922 29.94 
L 455.174814 29.94 
L 452.790706 29.94 
L 450.406598 29.94 
L 448.02249 29.94 
L 445.638382 29.94 
L 443.254273 29.94 
L 440.870165 29.94 
L 438.486057 29.94 
L 436.101949 29.94 
L 433.717841 29.94 
L 431.333733 29.94 
L 428.949625 29.94 
L 426.565517 29.94 
L 424.181408 29.94 
L 421.7973 29.94 
L 419.413192 29.94 
L 417.029084 29.94 
L 414.644976 29.94 
L 412.260868 29.94 
L 409.87676 29.94 
L 407.492652 29.94 
L 405.108543 29.94 
L 402.724435 29.94 
L 400.340327 29.94 
L 397.956219 29.94 
L 395.572111 29.94 
L 393.188003 29.94 
L 390.803895 29.94 
L 388.419787 29.94 
L 386.035678 29.94 
L 383.65157 29.94 
L 381.267462 29.94 
L 378.883354 29.94 
L 376.499246 29.94 
L 374.115138 29.94 
L 371.73103 29.94 
L 369.346921 29.94 
L 366.962813 29.94 
L 364.578705 29.94 
L 362.194597 29.94 
L 359.810489 29.94 
L 357.426381 29.94 
L 355.042273 29.94 
L 352.658165 29.94 
L 350.274056 29.94 
L 347.889948 29.94 
L 345.50584 29.94 
L 343.121732 29.94 
L 340.737624 29.94 
L 338.353516 29.94 
L 335.969408 29.94 
L 333.5853 29.94 
L 331.201191 29.94 
L 328.817083 29.94 
L 326.432975 29.94 
L 324.048867 29.94 
L 321.664759 29.94 
L 319.280651 29.94 
L 316.896543 29.94 
L 314.512435 29.94 
L 312.128326 29.94 
L 309.744218 29.94 
L 307.36011 29.94 
L 304.976002 29.94 
L 302.591894 29.94 
L 300.207786 29.94 
L 297.823678 29.94 
L 295.43957 29.94 
L 293.055461 29.94 
L 290.671353 29.94 
L 288.287245 29.94 
L 285.903137 29.94 
L 283.519029 29.94 
L 281.134921 29.94 
L 278.750813 29.94 
L 276.366705 29.94 
L 273.982596 29.94 
L 271.598488 29.94 
L 269.21438 29.94 
L 266.830272 29.94 
L 264.446164 29.94 
L 262.062056 29.94 
L 259.677948 29.94 
L 257.29384 29.94 
L 254.909731 29.94 
L 252.525623 29.94 
L 250.141515 29.94 
L 247.757407 29.94 
L 245.373299 29.94 
L 242.989191 29.94 
L 240.605083 29.94 
L 238.220975 29.94 
L 235.836866 29.94 
L 233.452758 29.94 
L 231.06865 29.94 
L 228.684542 29.94 
L 226.300434 29.94 
L 223.916326 29.94 
L 221.532218 29.94 
L 219.14811 29.94 
L 216.764001 29.94 
L 214.379893 29.94 
L 211.995785 29.94 
L 209.611677 29.94 
L 207.227569 29.94 
L 204.843461 29.94 
L 202.459353 29.94 
L 200.075244 29.94 
L 197.691136 29.94 
L 195.307028 29.94 
L 192.92292 29.94 
L 190.538812 29.94 
L 188.154704 29.94 
L 185.770596 29.94 
L 183.386488 29.94 
L 181.002379 29.94 
L 178.618271 29.94 
L 176.234163 29.94 
L 173.850055 29.94 
L 171.465947 29.94 
L 169.081839 29.94 
L 166.697731 29.94 
L 164.313623 29.94 
L 161.929514 29.94 
L 159.545406 29.94 
L 157.161298 29.94 
L 154.77719 29.94 
L 152.393082 29.94 
L 150.008974 29.94 
L 147.624866 29.94 
L 145.240758 29.94 
L 142.856649 29.94 
L 140.472541 29.94 
L 138.088433 29.94 
L 135.704325 29.94 
L 133.320217 29.94 
L 130.936109 29.94 
L 128.552001 29.94 
L 126.167893 29.94 
L 123.783784 29.94 
L 121.399676 29.94 
L 119.015568 29.94 
L 116.63146 29.94 
L 114.247352 29.94 
L 111.863244 29.94 
L 109.479136 29.94 
L 107.095028 29.94 
L 104.710919 29.94 
L 102.326811 29.94 
L 99.942703 29.94 
L 97.558595 29.94 
L 95.174487 29.94 
L 92.790379 29.94 
L 90.406271 29.94 
L 88.022163 29.94 
L 85.638054 29.94 
L 83.253946 29.94 
L 80.869838 29.94 
L 78.48573 29.94 
L 76.101622 29.94 
L 73.717514 29.94 
L 71.333406 29.94 
L 68.949298 29.94 
L 66.565189 29.94 
L 64.181081 29.94 
L 61.796973 29.94 
L 59.412865 29.94 
L 57.028757 29.94 
L 54.644649 29.94 
L 52.260541 29.94 
L 49.876433 29.94 
L 47.492324 29.94 
L 45.108216 29.94 
L 42.724108 29.94 
L 40.34 29.94 
z
" clip-path="url(#p50b079c5a0)" style="fill: #8d5993; stroke: #ffffff"/>
    <path d="M 664.976329 29.94 
L 664.976329 29.94 
L 667.360437 29.94 
L 669.744545 29.94 
L 669.744545 29.94 
L 669.744545 29.94 
L 667.360437 29.94 
L 664.976329 29.94 
z
" clip-path="url(#p50b079c5a0)" style="fill: #8d5993; stroke: #ffffff"/>
   </g>
   <g id="line2d_8">
    <path d="M 40.34 138.239573 
L 669.744545 138.239573 
" clip-path="url(#p50b079c5a0)" style="fill: none; stroke-dasharray: 7.5,15; stroke-dashoffset: 0; stroke: #000000; stroke-width: 1.5"/>
   </g>
   <g id="patch_3">
    <path d="M 40.34 531.16 
L 40.34 29.94 
" style="fill: none; stroke: #cccccc; stroke-width: 0.8; stroke-linejoin: miter; stroke-linecap: square"/>
   </g>
   <g id="patch_4">
    <path d="M 669.744545 531.16 
L 669.744545 29.94 
" style="fill: none; stroke: #cccccc; stroke-width: 0.8; stroke-linejoin: miter; stroke-linecap: square"/>
   </g>
   <g id="patch_5">
    <path d="M 40.34 531.16 
L 669.744545 531.16 
" style="fill: none; stroke: #cccccc; stroke-width: 0.8; stroke-linejoin: miter; stroke-linecap: square"/>
   </g>
   <g id="patch_6">
    <path d="M 40.34 29.94 
L 669.744545 29.94 
" style="fill: none; stroke: #cccccc; stroke-width: 0.8; stroke-linejoin: miter; stroke-linecap: square"/>
   </g>
   <g id="text_10">
    <!-- 0.78 -->
    <g transform="translate(686.433302 141.602854) scale(0.14 -0.14)">
     <defs>
      <path id="TimesNewRomanPSMT-30" d="M 231 2094 
Q 231 2819 450 3342 
Q 669 3866 1031 4122 
Q 1313 4325 1613 4325 
Q 2100 4325 2488 3828 
Q 2972 3213 2972 2159 
Q 2972 1422 2759 906 
Q 2547 391 2217 158 
Q 1888 -75 1581 -75 
Q 975 -75 572 641 
Q 231 1244 231 2094 
z
M 844 2016 
Q 844 1141 1059 588 
Q 1238 122 1591 122 
Q 1759 122 1940 273 
Q 2122 425 2216 781 
Q 2359 1319 2359 2297 
Q 2359 3022 2209 3506 
Q 2097 3866 1919 4016 
Q 1791 4119 1609 4119 
Q 1397 4119 1231 3928 
Q 1006 3669 925 3112 
Q 844 2556 844 2016 
z
" transform="scale(0.015625)"/>
      <path id="TimesNewRomanPSMT-2e" d="M 800 606 
Q 947 606 1047 504 
Q 1147 403 1147 259 
Q 1147 116 1045 14 
Q 944 -88 800 -88 
Q 656 -88 554 14 
Q 453 116 453 259 
Q 453 406 554 506 
Q 656 606 800 606 
z
" transform="scale(0.015625)"/>
      <path id="TimesNewRomanPSMT-37" d="M 644 4238 
L 2916 4238 
L 2916 4119 
L 1503 -88 
L 1153 -88 
L 2419 3728 
L 1253 3728 
Q 900 3728 750 3644 
Q 488 3500 328 3200 
L 238 3234 
L 644 4238 
z
" transform="scale(0.015625)"/>
      <path id="TimesNewRomanPSMT-38" d="M 1228 2134 
Q 725 2547 579 2797 
Q 434 3047 434 3316 
Q 434 3728 753 4026 
Q 1072 4325 1600 4325 
Q 2113 4325 2425 4047 
Q 2738 3769 2738 3413 
Q 2738 3175 2569 2928 
Q 2400 2681 1866 2347 
Q 2416 1922 2594 1678 
Q 2831 1359 2831 1006 
Q 2831 559 2490 242 
Q 2150 -75 1597 -75 
Q 994 -75 656 303 
Q 388 606 388 966 
Q 388 1247 577 1523 
Q 766 1800 1228 2134 
z
M 1719 2469 
Q 2094 2806 2194 3001 
Q 2294 3197 2294 3444 
Q 2294 3772 2109 3958 
Q 1925 4144 1606 4144 
Q 1288 4144 1088 3959 
Q 888 3775 888 3528 
Q 888 3366 970 3203 
Q 1053 3041 1206 2894 
L 1719 2469 
z
M 1375 2016 
Q 1116 1797 991 1539 
Q 866 1281 866 981 
Q 866 578 1086 336 
Q 1306 94 1647 94 
Q 1984 94 2187 284 
Q 2391 475 2391 747 
Q 2391 972 2272 1150 
Q 2050 1481 1375 2016 
z
" transform="scale(0.015625)"/>
     </defs>
     <use xlink:href="#TimesNewRomanPSMT-30"/>
     <use xlink:href="#TimesNewRomanPSMT-2e" transform="translate(50 0)"/>
     <use xlink:href="#TimesNewRomanPSMT-37" transform="translate(75 0)"/>
     <use xlink:href="#TimesNewRomanPSMT-38" transform="translate(125 0)"/>
    </g>
   </g>
   <g id="text_11">
    <!-- Faramir (Rhesus) -->
    <g style="fill: #262626" transform="translate(279.39696 23.94) scale(0.2 -0.2)">
     <defs>
      <path id="TimesNewRomanPS-BoldMT-46" d="M 1759 3994 
L 1759 2253 
L 1881 2253 
Q 2163 2253 2341 2337 
Q 2519 2422 2642 2622 
Q 2766 2822 2803 3163 
L 2913 3163 
L 2913 1034 
L 2803 1034 
Q 2744 1638 2480 1830 
Q 2216 2022 1881 2022 
L 1759 2022 
L 1759 725 
Q 1759 400 1795 319 
Q 1831 238 1936 177 
Q 2041 116 2219 116 
L 2359 116 
L 2359 0 
L 144 0 
L 144 116 
L 284 116 
Q 469 116 581 181 
Q 663 225 706 331 
Q 741 406 741 725 
L 741 3513 
Q 741 3838 706 3919 
Q 672 4000 567 4061 
Q 463 4122 284 4122 
L 144 4122 
L 144 4238 
L 3719 4238 
L 3719 3022 
L 3591 3022 
Q 3547 3450 3367 3656 
Q 3188 3863 2847 3947 
Q 2659 3994 2153 3994 
L 1759 3994 
z
" transform="scale(0.015625)"/>
      <path id="TimesNewRomanPS-BoldMT-61" d="M 1828 431 
Q 1294 -41 869 -41 
Q 619 -41 453 123 
Q 288 288 288 534 
Q 288 869 575 1136 
Q 863 1403 1828 1847 
L 1828 2141 
Q 1828 2472 1792 2558 
Q 1756 2644 1656 2708 
Q 1556 2772 1431 2772 
Q 1228 2772 1097 2681 
Q 1016 2625 1016 2550 
Q 1016 2484 1103 2388 
Q 1222 2253 1222 2128 
Q 1222 1975 1108 1867 
Q 994 1759 809 1759 
Q 613 1759 480 1878 
Q 347 1997 347 2156 
Q 347 2381 525 2586 
Q 703 2791 1022 2900 
Q 1341 3009 1684 3009 
Q 2100 3009 2342 2832 
Q 2584 2656 2656 2450 
Q 2700 2319 2700 1847 
L 2700 713 
Q 2700 513 2715 461 
Q 2731 409 2762 384 
Q 2794 359 2834 359 
Q 2916 359 3000 475 
L 3094 400 
Q 2938 169 2770 64 
Q 2603 -41 2391 -41 
Q 2141 -41 2000 76 
Q 1859 194 1828 431 
z
M 1828 659 
L 1828 1638 
Q 1450 1416 1266 1163 
Q 1144 994 1144 822 
Q 1144 678 1247 569 
Q 1325 484 1466 484 
Q 1622 484 1828 659 
z
" transform="scale(0.015625)"/>
      <path id="TimesNewRomanPS-BoldMT-72" d="M 1428 2922 
L 1428 2259 
Q 1719 2713 1937 2861 
Q 2156 3009 2359 3009 
Q 2534 3009 2639 2901 
Q 2744 2794 2744 2597 
Q 2744 2388 2642 2272 
Q 2541 2156 2397 2156 
Q 2231 2156 2109 2262 
Q 1988 2369 1966 2381 
Q 1934 2400 1894 2400 
Q 1803 2400 1722 2331 
Q 1594 2225 1528 2028 
Q 1428 1725 1428 1359 
L 1428 688 
L 1431 513 
Q 1431 334 1453 284 
Q 1491 200 1564 161 
Q 1638 122 1813 113 
L 1813 0 
L 234 0 
L 234 113 
Q 425 128 492 217 
Q 559 306 559 688 
L 559 2303 
Q 559 2553 534 2622 
Q 503 2709 443 2750 
Q 384 2791 234 2806 
L 234 2922 
L 1428 2922 
z
" transform="scale(0.015625)"/>
      <path id="TimesNewRomanPS-BoldMT-6d" d="M 1428 2922 
L 1428 2538 
Q 1669 2800 1873 2904 
Q 2078 3009 2322 3009 
Q 2603 3009 2793 2878 
Q 2984 2747 3088 2478 
Q 3338 2759 3567 2884 
Q 3797 3009 4047 3009 
Q 4350 3009 4529 2870 
Q 4709 2731 4779 2517 
Q 4850 2303 4850 1834 
L 4850 638 
Q 4850 300 4911 219 
Q 4972 138 5166 113 
L 5166 0 
L 3656 0 
L 3656 113 
Q 3834 128 3919 250 
Q 3975 334 3975 638 
L 3975 1894 
Q 3975 2284 3944 2390 
Q 3913 2497 3845 2548 
Q 3778 2600 3688 2600 
Q 3553 2600 3415 2501 
Q 3278 2403 3138 2206 
L 3138 638 
Q 3138 322 3191 241 
Q 3263 125 3466 113 
L 3466 0 
L 1953 0 
L 1953 113 
Q 2075 119 2145 173 
Q 2216 228 2239 304 
Q 2263 381 2263 638 
L 2263 1894 
Q 2263 2291 2231 2391 
Q 2200 2491 2126 2547 
Q 2053 2603 1969 2603 
Q 1844 2603 1741 2538 
Q 1594 2441 1428 2206 
L 1428 638 
Q 1428 328 1489 229 
Q 1550 131 1744 113 
L 1744 0 
L 238 0 
L 238 113 
Q 422 131 500 231 
Q 553 300 553 638 
L 553 2288 
Q 553 2619 492 2700 
Q 431 2781 238 2806 
L 238 2922 
L 1428 2922 
z
" transform="scale(0.015625)"/>
      <path id="TimesNewRomanPS-BoldMT-69" d="M 919 4338 
Q 1122 4338 1262 4195 
Q 1403 4053 1403 3853 
Q 1403 3653 1261 3512 
Q 1119 3372 919 3372 
Q 719 3372 578 3512 
Q 438 3653 438 3853 
Q 438 4053 578 4195 
Q 719 4338 919 4338 
z
M 1356 2922 
L 1356 606 
Q 1356 297 1428 211 
Q 1500 125 1709 113 
L 1709 0 
L 131 0 
L 131 113 
Q 325 119 419 225 
Q 481 297 481 606 
L 481 2313 
Q 481 2622 409 2708 
Q 338 2794 131 2806 
L 131 2922 
L 1356 2922 
z
" transform="scale(0.015625)"/>
      <path id="TimesNewRomanPS-BoldMT-20" transform="scale(0.015625)"/>
      <path id="TimesNewRomanPS-BoldMT-28" d="M 2056 4334 
L 2056 4191 
Q 1731 3978 1578 3775 
Q 1366 3494 1247 3053 
Q 1097 2506 1097 1525 
Q 1097 600 1233 87 
Q 1369 -425 1603 -741 
Q 1766 -959 2056 -1125 
L 2056 -1281 
Q 1303 -1028 779 -248 
Q 256 531 256 1544 
Q 256 2544 778 3314 
Q 1300 4084 2056 4334 
z
" transform="scale(0.015625)"/>
      <path id="TimesNewRomanPS-BoldMT-52" d="M 1700 1931 
L 1700 744 
Q 1700 400 1742 311 
Q 1784 222 1890 169 
Q 1997 116 2288 116 
L 2288 0 
L 119 0 
L 119 116 
Q 413 116 517 170 
Q 622 225 664 312 
Q 706 400 706 744 
L 706 3494 
Q 706 3838 664 3927 
Q 622 4016 515 4069 
Q 409 4122 119 4122 
L 119 4238 
L 2088 4238 
Q 2856 4238 3212 4131 
Q 3569 4025 3794 3739 
Q 4019 3453 4019 3069 
Q 4019 2600 3681 2294 
Q 3466 2100 3078 2003 
L 4097 569 
Q 4297 291 4381 222 
Q 4509 125 4678 116 
L 4678 0 
L 3344 0 
L 1978 1931 
L 1700 1931 
z
M 1700 4009 
L 1700 2153 
L 1878 2153 
Q 2313 2153 2528 2233 
Q 2744 2313 2867 2520 
Q 2991 2728 2991 3063 
Q 2991 3547 2764 3778 
Q 2538 4009 2034 4009 
L 1700 4009 
z
" transform="scale(0.015625)"/>
      <path id="TimesNewRomanPS-BoldMT-68" d="M 1409 4238 
L 1409 2547 
Q 1650 2800 1850 2904 
Q 2050 3009 2266 3009 
Q 2541 3009 2736 2853 
Q 2931 2697 2995 2486 
Q 3059 2275 3059 1775 
L 3059 634 
Q 3059 300 3121 217 
Q 3184 134 3375 113 
L 3375 0 
L 1894 0 
L 1894 113 
Q 2050 134 2128 238 
Q 2184 319 2184 634 
L 2184 1938 
Q 2184 2300 2156 2392 
Q 2128 2484 2061 2536 
Q 1994 2588 1909 2588 
Q 1784 2588 1665 2502 
Q 1547 2416 1409 2200 
L 1409 634 
Q 1409 322 1456 244 
Q 1516 138 1700 113 
L 1700 0 
L 219 0 
L 219 113 
Q 403 131 481 231 
Q 534 300 534 634 
L 534 3603 
Q 534 3934 473 4015 
Q 413 4097 219 4122 
L 219 4238 
L 1409 4238 
z
" transform="scale(0.015625)"/>
      <path id="TimesNewRomanPS-BoldMT-65" d="M 2691 1566 
L 1088 1566 
Q 1116 984 1397 647 
Q 1613 388 1916 388 
Q 2103 388 2256 492 
Q 2409 597 2584 869 
L 2691 800 
Q 2453 316 2165 114 
Q 1878 -88 1500 -88 
Q 850 -88 516 413 
Q 247 816 247 1413 
Q 247 2144 642 2576 
Q 1038 3009 1569 3009 
Q 2013 3009 2339 2645 
Q 2666 2281 2691 1566 
z
M 1922 1775 
Q 1922 2278 1867 2465 
Q 1813 2653 1697 2750 
Q 1631 2806 1522 2806 
Q 1359 2806 1256 2647 
Q 1072 2369 1072 1884 
L 1072 1775 
L 1922 1775 
z
" transform="scale(0.015625)"/>
      <path id="TimesNewRomanPS-BoldMT-73" d="M 2063 3003 
L 2109 2006 
L 2003 2006 
Q 1813 2450 1608 2612 
Q 1403 2775 1200 2775 
Q 1072 2775 981 2689 
Q 891 2603 891 2491 
Q 891 2406 953 2328 
Q 1053 2200 1512 1889 
Q 1972 1578 2117 1361 
Q 2263 1144 2263 875 
Q 2263 631 2141 397 
Q 2019 163 1797 37 
Q 1575 -88 1306 -88 
Q 1097 -88 747 44 
Q 653 78 619 78 
Q 516 78 447 -78 
L 344 -78 
L 294 972 
L 400 972 
Q 541 559 786 353 
Q 1031 147 1250 147 
Q 1400 147 1495 239 
Q 1591 331 1591 463 
Q 1591 613 1497 722 
Q 1403 831 1078 1053 
Q 600 1384 459 1559 
Q 253 1816 253 2125 
Q 253 2463 486 2736 
Q 719 3009 1159 3009 
Q 1397 3009 1619 2894 
Q 1703 2847 1756 2847 
Q 1813 2847 1847 2870 
Q 1881 2894 1956 3003 
L 2063 3003 
z
" transform="scale(0.015625)"/>
      <path id="TimesNewRomanPS-BoldMT-75" d="M 3038 2922 
L 3038 634 
Q 3038 300 3100 217 
Q 3163 134 3353 113 
L 3353 0 
L 2163 0 
L 2163 391 
Q 1953 141 1743 26 
Q 1534 -88 1275 -88 
Q 1028 -88 836 64 
Q 644 216 578 419 
Q 513 622 513 1128 
L 513 2288 
Q 513 2619 452 2700 
Q 391 2781 197 2806 
L 197 2922 
L 1388 2922 
L 1388 925 
Q 1388 613 1417 522 
Q 1447 431 1511 384 
Q 1575 338 1659 338 
Q 1772 338 1863 397 
Q 1988 478 2163 725 
L 2163 2288 
Q 2163 2619 2102 2700 
Q 2041 2781 1847 2806 
L 1847 2922 
L 3038 2922 
z
" transform="scale(0.015625)"/>
      <path id="TimesNewRomanPS-BoldMT-29" d="M 78 -1281 
L 78 -1138 
Q 403 -922 556 -719 
Q 766 -438 888 0 
Q 1038 550 1038 1531 
Q 1038 2456 902 2967 
Q 766 3478 531 3794 
Q 369 4013 78 4178 
L 78 4334 
Q 831 4081 1354 3301 
Q 1878 2522 1878 1509 
Q 1878 513 1354 -257 
Q 831 -1028 78 -1281 
z
" transform="scale(0.015625)"/>
     </defs>
     <use xlink:href="#TimesNewRomanPS-BoldMT-46"/>
     <use xlink:href="#TimesNewRomanPS-BoldMT-61" transform="translate(61.083984 0)"/>
     <use xlink:href="#TimesNewRomanPS-BoldMT-72" transform="translate(111.083984 0)"/>
     <use xlink:href="#TimesNewRomanPS-BoldMT-61" transform="translate(155.46875 0)"/>
     <use xlink:href="#TimesNewRomanPS-BoldMT-6d" transform="translate(205.46875 0)"/>
     <use xlink:href="#TimesNewRomanPS-BoldMT-69" transform="translate(288.769531 0)"/>
     <use xlink:href="#TimesNewRomanPS-BoldMT-72" transform="translate(316.552734 0)"/>
     <use xlink:href="#TimesNewRomanPS-BoldMT-20" transform="translate(359.1875 0)"/>
     <use xlink:href="#TimesNewRomanPS-BoldMT-28" transform="translate(384.1875 0)"/>
     <use xlink:href="#TimesNewRomanPS-BoldMT-52" transform="translate(417.488281 0)"/>
     <use xlink:href="#TimesNewRomanPS-BoldMT-68" transform="translate(489.705078 0)"/>
     <use xlink:href="#TimesNewRomanPS-BoldMT-65" transform="translate(545.320312 0)"/>
     <use xlink:href="#TimesNewRomanPS-BoldMT-73" transform="translate(589.705078 0)"/>
     <use xlink:href="#TimesNewRomanPS-BoldMT-75" transform="translate(628.621094 0)"/>
     <use xlink:href="#TimesNewRomanPS-BoldMT-73" transform="translate(684.236328 0)"/>
     <use xlink:href="#TimesNewRomanPS-BoldMT-29" transform="translate(723.152344 0)"/>
    </g>
   </g>
   <g id="legend_1">
    <g id="patch_7">
     <path d="M 47.34 94.49625 
L 133.236875 94.49625 
Q 135.236875 94.49625 135.236875 92.49625 
L 135.236875 36.94 
Q 135.236875 34.94 133.236875 34.94 
L 47.34 34.94 
Q 45.34 34.94 45.34 36.94 
L 45.34 92.49625 
Q 45.34 94.49625 47.34 94.49625 
z
" style="fill: #ffffff; opacity: 0.8; stroke: #cccccc; stroke-linejoin: miter"/>
    </g>
    <g id="patch_8">
     <path d="M 49.34 45.94 
L 69.34 45.94 
L 69.34 38.94 
L 49.34 38.94 
z
" style="fill: #5386b6; stroke: #ffffff; stroke-linejoin: miter"/>
    </g>
    <g id="text_12">
     <!-- Success -->
     <g style="fill: #262626" transform="translate(77.34 45.94) scale(0.1 -0.1)">
      <use xlink:href="#TimesNewRomanPSMT-53"/>
      <use xlink:href="#TimesNewRomanPSMT-75" transform="translate(55.615234 0)"/>
      <use xlink:href="#TimesNewRomanPSMT-63" transform="translate(105.615234 0)"/>
      <use xlink:href="#TimesNewRomanPSMT-63" transform="translate(150 0)"/>
      <use xlink:href="#TimesNewRomanPSMT-65" transform="translate(194.384766 0)"/>
      <use xlink:href="#TimesNewRomanPSMT-73" transform="translate(238.769531 0)"/>
      <use xlink:href="#TimesNewRomanPSMT-73" transform="translate(277.685547 0)"/>
     </g>
    </g>
    <g id="patch_9">
     <path d="M 49.34 60.079062 
L 69.34 60.079062 
L 69.34 53.079062 
L 49.34 53.079062 
z
" style="fill: #d57459; stroke: #ffffff; stroke-linejoin: miter"/>
    </g>
    <g id="text_13">
     <!-- Error -->
     <g style="fill: #262626" transform="translate(77.34 60.079062) scale(0.1 -0.1)">
      <defs>
       <path id="TimesNewRomanPSMT-45" d="M 1338 4006 
L 1338 2331 
L 2269 2331 
Q 2631 2331 2753 2441 
Q 2916 2584 2934 2947 
L 3050 2947 
L 3050 1472 
L 2934 1472 
Q 2891 1781 2847 1869 
Q 2791 1978 2662 2040 
Q 2534 2103 2269 2103 
L 1338 2103 
L 1338 706 
Q 1338 425 1363 364 
Q 1388 303 1450 267 
Q 1513 231 1688 231 
L 2406 231 
Q 2766 231 2928 281 
Q 3091 331 3241 478 
Q 3434 672 3638 1063 
L 3763 1063 
L 3397 0 
L 131 0 
L 131 116 
L 281 116 
Q 431 116 566 188 
Q 666 238 702 338 
Q 738 438 738 747 
L 738 3500 
Q 738 3903 656 3997 
Q 544 4122 281 4122 
L 131 4122 
L 131 4238 
L 3397 4238 
L 3444 3309 
L 3322 3309 
Q 3256 3644 3176 3769 
Q 3097 3894 2941 3959 
Q 2816 4006 2500 4006 
L 1338 4006 
z
" transform="scale(0.015625)"/>
      </defs>
      <use xlink:href="#TimesNewRomanPSMT-45"/>
      <use xlink:href="#TimesNewRomanPSMT-72" transform="translate(61.083984 0)"/>
      <use xlink:href="#TimesNewRomanPSMT-72" transform="translate(94.384766 0)"/>
      <use xlink:href="#TimesNewRomanPSMT-6f" transform="translate(127.685547 0)"/>
      <use xlink:href="#TimesNewRomanPSMT-72" transform="translate(177.685547 0)"/>
     </g>
    </g>
    <g id="patch_10">
     <path d="M 49.34 74.218125 
L 69.34 74.218125 
L 69.34 67.218125 
L 49.34 67.218125 
z
" style="fill: #e8bc60; stroke: #ffffff; stroke-linejoin: miter"/>
    </g>
    <g id="text_14">
     <!-- Premature -->
     <g style="fill: #262626" transform="translate(77.34 74.218125) scale(0.1 -0.1)">
      <defs>
       <path id="TimesNewRomanPSMT-6d" d="M 1050 2338 
Q 1363 2650 1419 2697 
Q 1559 2816 1721 2881 
Q 1884 2947 2044 2947 
Q 2313 2947 2506 2790 
Q 2700 2634 2766 2338 
Q 3088 2713 3309 2830 
Q 3531 2947 3766 2947 
Q 3994 2947 4170 2830 
Q 4347 2713 4450 2447 
Q 4519 2266 4519 1878 
L 4519 647 
Q 4519 378 4559 278 
Q 4591 209 4675 161 
Q 4759 113 4950 113 
L 4950 0 
L 3538 0 
L 3538 113 
L 3597 113 
Q 3781 113 3884 184 
Q 3956 234 3988 344 
Q 4000 397 4000 647 
L 4000 1878 
Q 4000 2228 3916 2372 
Q 3794 2572 3525 2572 
Q 3359 2572 3192 2489 
Q 3025 2406 2788 2181 
L 2781 2147 
L 2788 2013 
L 2788 647 
Q 2788 353 2820 281 
Q 2853 209 2943 161 
Q 3034 113 3253 113 
L 3253 0 
L 1806 0 
L 1806 113 
Q 2044 113 2133 169 
Q 2222 225 2256 338 
Q 2272 391 2272 647 
L 2272 1878 
Q 2272 2228 2169 2381 
Q 2031 2581 1784 2581 
Q 1616 2581 1450 2491 
Q 1191 2353 1050 2181 
L 1050 647 
Q 1050 366 1089 281 
Q 1128 197 1204 155 
Q 1281 113 1516 113 
L 1516 0 
L 100 0 
L 100 113 
Q 297 113 375 155 
Q 453 197 493 289 
Q 534 381 534 647 
L 534 1741 
Q 534 2213 506 2350 
Q 484 2453 437 2492 
Q 391 2531 309 2531 
Q 222 2531 100 2484 
L 53 2597 
L 916 2947 
L 1050 2947 
L 1050 2338 
z
" transform="scale(0.015625)"/>
      </defs>
      <use xlink:href="#TimesNewRomanPSMT-50"/>
      <use xlink:href="#TimesNewRomanPSMT-72" transform="translate(55.615234 0)"/>
      <use xlink:href="#TimesNewRomanPSMT-65" transform="translate(88.916016 0)"/>
      <use xlink:href="#TimesNewRomanPSMT-6d" transform="translate(133.300781 0)"/>
      <use xlink:href="#TimesNewRomanPSMT-61" transform="translate(211.083984 0)"/>
      <use xlink:href="#TimesNewRomanPSMT-74" transform="translate(255.46875 0)"/>
      <use xlink:href="#TimesNewRomanPSMT-75" transform="translate(283.251953 0)"/>
      <use xlink:href="#TimesNewRomanPSMT-72" transform="translate(333.251953 0)"/>
      <use xlink:href="#TimesNewRomanPSMT-65" transform="translate(366.552734 0)"/>
     </g>
    </g>
    <g id="patch_11">
     <path d="M 49.34 88.357187 
L 69.34 88.357187 
L 69.34 81.357187 
L 49.34 81.357187 
z
" style="fill: #8d5993; stroke: #ffffff; stroke-linejoin: miter"/>
    </g>
    <g id="text_15">
     <!-- Stepomission -->
     <g style="fill: #262626" transform="translate(77.34 88.357187) scale(0.1 -0.1)">
      <use xlink:href="#TimesNewRomanPSMT-53"/>
      <use xlink:href="#TimesNewRomanPSMT-74" transform="translate(55.615234 0)"/>
      <use xlink:href="#TimesNewRomanPSMT-65" transform="translate(83.398438 0)"/>
      <use xlink:href="#TimesNewRomanPSMT-70" transform="translate(127.783203 0)"/>
      <use xlink:href="#TimesNewRomanPSMT-6f" transform="translate(177.783203 0)"/>
      <use xlink:href="#TimesNewRomanPSMT-6d" transform="translate(227.783203 0)"/>
      <use xlink:href="#TimesNewRomanPSMT-69" transform="translate(305.566406 0)"/>
      <use xlink:href="#TimesNewRomanPSMT-73" transform="translate(333.349609 0)"/>
      <use xlink:href="#TimesNewRomanPSMT-73" transform="translate(372.265625 0)"/>
      <use xlink:href="#TimesNewRomanPSMT-69" transform="translate(411.181641 0)"/>
      <use xlink:href="#TimesNewRomanPSMT-6f" transform="translate(438.964844 0)"/>
      <use xlink:href="#TimesNewRomanPSMT-6e" transform="translate(488.964844 0)"/>
     </g>
    </g>
   </g>
  </g>
 </g>
 <defs>
  <clipPath id="p50b079c5a0">
   <rect x="40.34" y="29.94" width="629.404545" height="501.22"/>
  </clipPath>
 </defs>
</svg>
