<?xml version="1.0" encoding="utf-8" standalone="no"?>
<!DOCTYPE svg PUBLIC "-//W3C//DTD SVG 1.1//EN"
  "http://www.w3.org/Graphics/SVG/1.1/DTD/svg11.dtd">
<svg xmlns:xlink="http://www.w3.org/1999/xlink" width="720pt" height="576pt" viewBox="0 0 720 576" xmlns="http://www.w3.org/2000/svg" version="1.1">
 <metadata>
  <rdf:RDF xmlns:dc="http://purl.org/dc/elements/1.1/" xmlns:cc="http://creativecommons.org/ns#" xmlns:rdf="http://www.w3.org/1999/02/22-rdf-syntax-ns#">
   <cc:Work>
    <dc:type rdf:resource="http://purl.org/dc/dcmitype/StillImage"/>
    <dc:date>2025-07-03T15:54:53.082042</dc:date>
    <dc:format>image/svg+xml</dc:format>
    <dc:creator>
     <cc:Agent>
      <dc:title>Matplotlib v3.10.3, https://matplotlib.org/</dc:title>
     </cc:Agent>
    </dc:creator>
   </cc:Work>
  </rdf:RDF>
 </metadata>
 <defs>
  <style type="text/css">*{stroke-linejoin: round; stroke-linecap: butt}</style>
 </defs>
 <g id="figure_1">
  <g id="patch_1">
   <path d="M 0 576 
L 720 576 
L 720 0 
L 0 0 
z
" style="fill: #ffffff"/>
  </g>
  <g id="axes_1">
   <g id="patch_2">
    <path d="M 40.34 531.16 
L 670.876479 531.16 
L 670.876479 29.94 
L 40.34 29.94 
z
" style="fill: #ffffff"/>
   </g>
   <g id="matplotlib.axis_1">
    <g id="xtick_1">
     <g id="line2d_1">
      <path d="M 149.129745 531.16 
L 149.129745 29.94 
" clip-path="url(#p79b38964c7)" style="fill: none; stroke-dasharray: 2.96,1.28; stroke-dashoffset: 0; stroke: #cccccc; stroke-opacity: 0.5; stroke-width: 0.8"/>
     </g>
     <g id="text_1">
      <!-- 50 -->
      <g style="fill: #262626" transform="translate(143.568807 545.317812) scale(0.1 -0.1)">
       <defs>
        <path id="ArialMT-35" d="M 266 1200 
L 856 1250 
Q 922 819 1161 601 
Q 1400 384 1738 384 
Q 2144 384 2425 690 
Q 2706 997 2706 1503 
Q 2706 1984 2436 2262 
Q 2166 2541 1728 2541 
Q 1456 2541 1237 2417 
Q 1019 2294 894 2097 
L 366 2166 
L 809 4519 
L 3088 4519 
L 3088 3981 
L 1259 3981 
L 1013 2750 
Q 1425 3038 1878 3038 
Q 2478 3038 2890 2622 
Q 3303 2206 3303 1553 
Q 3303 931 2941 478 
Q 2500 -78 1738 -78 
Q 1113 -78 717 272 
Q 322 622 266 1200 
z
" transform="scale(0.015625)"/>
        <path id="ArialMT-30" d="M 266 2259 
Q 266 3072 433 3567 
Q 600 4063 929 4331 
Q 1259 4600 1759 4600 
Q 2128 4600 2406 4451 
Q 2684 4303 2865 4023 
Q 3047 3744 3150 3342 
Q 3253 2941 3253 2259 
Q 3253 1453 3087 958 
Q 2922 463 2592 192 
Q 2263 -78 1759 -78 
Q 1097 -78 719 397 
Q 266 969 266 2259 
z
M 844 2259 
Q 844 1131 1108 757 
Q 1372 384 1759 384 
Q 2147 384 2411 759 
Q 2675 1134 2675 2259 
Q 2675 3391 2411 3762 
Q 2147 4134 1753 4134 
Q 1366 4134 1134 3806 
Q 844 3388 844 2259 
z
" transform="scale(0.015625)"/>
       </defs>
       <use xlink:href="#ArialMT-35"/>
       <use xlink:href="#ArialMT-30" transform="translate(55.615234 0)"/>
      </g>
     </g>
    </g>
    <g id="xtick_2">
     <g id="line2d_2">
      <path d="M 260.139688 531.16 
L 260.139688 29.94 
" clip-path="url(#p79b38964c7)" style="fill: none; stroke-dasharray: 2.96,1.28; stroke-dashoffset: 0; stroke: #cccccc; stroke-opacity: 0.5; stroke-width: 0.8"/>
     </g>
     <g id="text_2">
      <!-- 100 -->
      <g style="fill: #262626" transform="translate(251.798282 545.317812) scale(0.1 -0.1)">
       <defs>
        <path id="ArialMT-31" d="M 2384 0 
L 1822 0 
L 1822 3584 
Q 1619 3391 1289 3197 
Q 959 3003 697 2906 
L 697 3450 
Q 1169 3672 1522 3987 
Q 1875 4303 2022 4600 
L 2384 4600 
L 2384 0 
z
" transform="scale(0.015625)"/>
       </defs>
       <use xlink:href="#ArialMT-31"/>
       <use xlink:href="#ArialMT-30" transform="translate(55.615234 0)"/>
       <use xlink:href="#ArialMT-30" transform="translate(111.230469 0)"/>
      </g>
     </g>
    </g>
    <g id="xtick_3">
     <g id="line2d_3">
      <path d="M 371.149632 531.16 
L 371.149632 29.94 
" clip-path="url(#p79b38964c7)" style="fill: none; stroke-dasharray: 2.96,1.28; stroke-dashoffset: 0; stroke: #cccccc; stroke-opacity: 0.5; stroke-width: 0.8"/>
     </g>
     <g id="text_3">
      <!-- 150 -->
      <g style="fill: #262626" transform="translate(362.808225 545.317812) scale(0.1 -0.1)">
       <use xlink:href="#ArialMT-31"/>
       <use xlink:href="#ArialMT-35" transform="translate(55.615234 0)"/>
       <use xlink:href="#ArialMT-30" transform="translate(111.230469 0)"/>
      </g>
     </g>
    </g>
    <g id="xtick_4">
     <g id="line2d_4">
      <path d="M 482.159575 531.16 
L 482.159575 29.94 
" clip-path="url(#p79b38964c7)" style="fill: none; stroke-dasharray: 2.96,1.28; stroke-dashoffset: 0; stroke: #cccccc; stroke-opacity: 0.5; stroke-width: 0.8"/>
     </g>
     <g id="text_4">
      <!-- 200 -->
      <g style="fill: #262626" transform="translate(473.818169 545.317812) scale(0.1 -0.1)">
       <defs>
        <path id="ArialMT-32" d="M 3222 541 
L 3222 0 
L 194 0 
Q 188 203 259 391 
Q 375 700 629 1000 
Q 884 1300 1366 1694 
Q 2113 2306 2375 2664 
Q 2638 3022 2638 3341 
Q 2638 3675 2398 3904 
Q 2159 4134 1775 4134 
Q 1369 4134 1125 3890 
Q 881 3647 878 3216 
L 300 3275 
Q 359 3922 746 4261 
Q 1134 4600 1788 4600 
Q 2447 4600 2831 4234 
Q 3216 3869 3216 3328 
Q 3216 3053 3103 2787 
Q 2991 2522 2730 2228 
Q 2469 1934 1863 1422 
Q 1356 997 1212 845 
Q 1069 694 975 541 
L 3222 541 
z
" transform="scale(0.015625)"/>
       </defs>
       <use xlink:href="#ArialMT-32"/>
       <use xlink:href="#ArialMT-30" transform="translate(55.615234 0)"/>
       <use xlink:href="#ArialMT-30" transform="translate(111.230469 0)"/>
      </g>
     </g>
    </g>
    <g id="xtick_5">
     <g id="line2d_5">
      <path d="M 593.169518 531.16 
L 593.169518 29.94 
" clip-path="url(#p79b38964c7)" style="fill: none; stroke-dasharray: 2.96,1.28; stroke-dashoffset: 0; stroke: #cccccc; stroke-opacity: 0.5; stroke-width: 0.8"/>
     </g>
     <g id="text_5">
      <!-- 250 -->
      <g style="fill: #262626" transform="translate(584.828112 545.317812) scale(0.1 -0.1)">
       <use xlink:href="#ArialMT-32"/>
       <use xlink:href="#ArialMT-35" transform="translate(55.615234 0)"/>
       <use xlink:href="#ArialMT-30" transform="translate(111.230469 0)"/>
      </g>
     </g>
    </g>
    <g id="text_6">
     <!-- Session Count -->
     <g style="fill: #262626" transform="translate(315.350583 561.026562) scale(0.14 -0.14)">
      <defs>
       <path id="TimesNewRomanPSMT-53" d="M 2934 4334 
L 2934 2869 
L 2819 2869 
Q 2763 3291 2617 3541 
Q 2472 3791 2203 3937 
Q 1934 4084 1647 4084 
Q 1322 4084 1109 3886 
Q 897 3688 897 3434 
Q 897 3241 1031 3081 
Q 1225 2847 1953 2456 
Q 2547 2138 2764 1967 
Q 2981 1797 3098 1565 
Q 3216 1334 3216 1081 
Q 3216 600 2842 251 
Q 2469 -97 1881 -97 
Q 1697 -97 1534 -69 
Q 1438 -53 1133 45 
Q 828 144 747 144 
Q 669 144 623 97 
Q 578 50 556 -97 
L 441 -97 
L 441 1356 
L 556 1356 
Q 638 900 775 673 
Q 913 447 1195 297 
Q 1478 147 1816 147 
Q 2206 147 2432 353 
Q 2659 559 2659 841 
Q 2659 997 2573 1156 
Q 2488 1316 2306 1453 
Q 2184 1547 1640 1851 
Q 1097 2156 867 2337 
Q 638 2519 519 2737 
Q 400 2956 400 3219 
Q 400 3675 750 4004 
Q 1100 4334 1641 4334 
Q 1978 4334 2356 4169 
Q 2531 4091 2603 4091 
Q 2684 4091 2736 4139 
Q 2788 4188 2819 4334 
L 2934 4334 
z
" transform="scale(0.015625)"/>
       <path id="TimesNewRomanPSMT-65" d="M 681 1784 
Q 678 1147 991 784 
Q 1303 422 1725 422 
Q 2006 422 2214 576 
Q 2422 731 2563 1106 
L 2659 1044 
Q 2594 616 2278 264 
Q 1963 -88 1488 -88 
Q 972 -88 605 314 
Q 238 716 238 1394 
Q 238 2128 614 2539 
Q 991 2950 1559 2950 
Q 2041 2950 2350 2633 
Q 2659 2316 2659 1784 
L 681 1784 
z
M 681 1966 
L 2006 1966 
Q 1991 2241 1941 2353 
Q 1863 2528 1708 2628 
Q 1553 2728 1384 2728 
Q 1125 2728 920 2526 
Q 716 2325 681 1966 
z
" transform="scale(0.015625)"/>
       <path id="TimesNewRomanPSMT-73" d="M 2050 2947 
L 2050 1972 
L 1947 1972 
Q 1828 2431 1642 2597 
Q 1456 2763 1169 2763 
Q 950 2763 815 2647 
Q 681 2531 681 2391 
Q 681 2216 781 2091 
Q 878 1963 1175 1819 
L 1631 1597 
Q 2266 1288 2266 781 
Q 2266 391 1970 151 
Q 1675 -88 1309 -88 
Q 1047 -88 709 6 
Q 606 38 541 38 
Q 469 38 428 -44 
L 325 -44 
L 325 978 
L 428 978 
Q 516 541 762 319 
Q 1009 97 1316 97 
Q 1531 97 1667 223 
Q 1803 350 1803 528 
Q 1803 744 1651 891 
Q 1500 1038 1047 1263 
Q 594 1488 453 1669 
Q 313 1847 313 2119 
Q 313 2472 555 2709 
Q 797 2947 1181 2947 
Q 1350 2947 1591 2875 
Q 1750 2828 1803 2828 
Q 1853 2828 1881 2850 
Q 1909 2872 1947 2947 
L 2050 2947 
z
" transform="scale(0.015625)"/>
       <path id="TimesNewRomanPSMT-69" d="M 928 4444 
Q 1059 4444 1151 4351 
Q 1244 4259 1244 4128 
Q 1244 3997 1151 3903 
Q 1059 3809 928 3809 
Q 797 3809 703 3903 
Q 609 3997 609 4128 
Q 609 4259 701 4351 
Q 794 4444 928 4444 
z
M 1188 2947 
L 1188 647 
Q 1188 378 1227 289 
Q 1266 200 1342 156 
Q 1419 113 1622 113 
L 1622 0 
L 231 0 
L 231 113 
Q 441 113 512 153 
Q 584 194 626 287 
Q 669 381 669 647 
L 669 1750 
Q 669 2216 641 2353 
Q 619 2453 572 2492 
Q 525 2531 444 2531 
Q 356 2531 231 2484 
L 188 2597 
L 1050 2947 
L 1188 2947 
z
" transform="scale(0.015625)"/>
       <path id="TimesNewRomanPSMT-6f" d="M 1600 2947 
Q 2250 2947 2644 2453 
Q 2978 2031 2978 1484 
Q 2978 1100 2793 706 
Q 2609 313 2286 112 
Q 1963 -88 1566 -88 
Q 919 -88 538 428 
Q 216 863 216 1403 
Q 216 1797 411 2186 
Q 606 2575 925 2761 
Q 1244 2947 1600 2947 
z
M 1503 2744 
Q 1338 2744 1170 2645 
Q 1003 2547 900 2300 
Q 797 2053 797 1666 
Q 797 1041 1045 587 
Q 1294 134 1700 134 
Q 2003 134 2200 384 
Q 2397 634 2397 1244 
Q 2397 2006 2069 2444 
Q 1847 2744 1503 2744 
z
" transform="scale(0.015625)"/>
       <path id="TimesNewRomanPSMT-6e" d="M 1034 2341 
Q 1538 2947 1994 2947 
Q 2228 2947 2397 2830 
Q 2566 2713 2666 2444 
Q 2734 2256 2734 1869 
L 2734 647 
Q 2734 375 2778 278 
Q 2813 200 2889 156 
Q 2966 113 3172 113 
L 3172 0 
L 1756 0 
L 1756 113 
L 1816 113 
Q 2016 113 2095 173 
Q 2175 234 2206 353 
Q 2219 400 2219 647 
L 2219 1819 
Q 2219 2209 2117 2386 
Q 2016 2563 1775 2563 
Q 1403 2563 1034 2156 
L 1034 647 
Q 1034 356 1069 288 
Q 1113 197 1189 155 
Q 1266 113 1500 113 
L 1500 0 
L 84 0 
L 84 113 
L 147 113 
Q 366 113 442 223 
Q 519 334 519 647 
L 519 1709 
Q 519 2225 495 2337 
Q 472 2450 423 2490 
Q 375 2531 294 2531 
Q 206 2531 84 2484 
L 38 2597 
L 900 2947 
L 1034 2947 
L 1034 2341 
z
" transform="scale(0.015625)"/>
       <path id="TimesNewRomanPSMT-20" transform="scale(0.015625)"/>
       <path id="TimesNewRomanPSMT-43" d="M 3853 4334 
L 3950 2894 
L 3853 2894 
Q 3659 3541 3300 3825 
Q 2941 4109 2438 4109 
Q 2016 4109 1675 3895 
Q 1334 3681 1139 3212 
Q 944 2744 944 2047 
Q 944 1472 1128 1050 
Q 1313 628 1683 403 
Q 2053 178 2528 178 
Q 2941 178 3256 354 
Q 3572 531 3950 1056 
L 4047 994 
Q 3728 428 3303 165 
Q 2878 -97 2294 -97 
Q 1241 -97 663 684 
Q 231 1266 231 2053 
Q 231 2688 515 3219 
Q 800 3750 1298 4042 
Q 1797 4334 2388 4334 
Q 2847 4334 3294 4109 
Q 3425 4041 3481 4041 
Q 3566 4041 3628 4100 
Q 3709 4184 3744 4334 
L 3853 4334 
z
" transform="scale(0.015625)"/>
       <path id="TimesNewRomanPSMT-75" d="M 2709 2863 
L 2709 1128 
Q 2709 631 2732 520 
Q 2756 409 2807 365 
Q 2859 322 2928 322 
Q 3025 322 3147 375 
L 3191 266 
L 2334 -88 
L 2194 -88 
L 2194 519 
Q 1825 119 1631 15 
Q 1438 -88 1222 -88 
Q 981 -88 804 51 
Q 628 191 559 409 
Q 491 628 491 1028 
L 491 2306 
Q 491 2509 447 2587 
Q 403 2666 317 2708 
Q 231 2750 6 2747 
L 6 2863 
L 1009 2863 
L 1009 947 
Q 1009 547 1148 422 
Q 1288 297 1484 297 
Q 1619 297 1789 381 
Q 1959 466 2194 703 
L 2194 2325 
Q 2194 2569 2105 2655 
Q 2016 2741 1734 2747 
L 1734 2863 
L 2709 2863 
z
" transform="scale(0.015625)"/>
       <path id="TimesNewRomanPSMT-74" d="M 1031 3803 
L 1031 2863 
L 1700 2863 
L 1700 2644 
L 1031 2644 
L 1031 788 
Q 1031 509 1111 412 
Q 1191 316 1316 316 
Q 1419 316 1516 380 
Q 1613 444 1666 569 
L 1788 569 
Q 1678 263 1478 108 
Q 1278 -47 1066 -47 
Q 922 -47 784 33 
Q 647 113 581 261 
Q 516 409 516 719 
L 516 2644 
L 63 2644 
L 63 2747 
Q 234 2816 414 2980 
Q 594 3144 734 3369 
Q 806 3488 934 3803 
L 1031 3803 
z
" transform="scale(0.015625)"/>
      </defs>
      <use xlink:href="#TimesNewRomanPSMT-53"/>
      <use xlink:href="#TimesNewRomanPSMT-65" transform="translate(55.615234 0)"/>
      <use xlink:href="#TimesNewRomanPSMT-73" transform="translate(100 0)"/>
      <use xlink:href="#TimesNewRomanPSMT-73" transform="translate(138.916016 0)"/>
      <use xlink:href="#TimesNewRomanPSMT-69" transform="translate(177.832031 0)"/>
      <use xlink:href="#TimesNewRomanPSMT-6f" transform="translate(205.615234 0)"/>
      <use xlink:href="#TimesNewRomanPSMT-6e" transform="translate(255.615234 0)"/>
      <use xlink:href="#TimesNewRomanPSMT-20" transform="translate(305.615234 0)"/>
      <use xlink:href="#TimesNewRomanPSMT-43" transform="translate(330.615234 0)"/>
      <use xlink:href="#TimesNewRomanPSMT-6f" transform="translate(397.314453 0)"/>
      <use xlink:href="#TimesNewRomanPSMT-75" transform="translate(447.314453 0)"/>
      <use xlink:href="#TimesNewRomanPSMT-6e" transform="translate(497.314453 0)"/>
      <use xlink:href="#TimesNewRomanPSMT-74" transform="translate(547.314453 0)"/>
     </g>
    </g>
   </g>
   <g id="matplotlib.axis_2">
    <g id="ytick_1">
     <g id="line2d_6">
      <path d="M 40.34 531.16 
L 670.876479 531.16 
" clip-path="url(#p79b38964c7)" style="fill: none; stroke-dasharray: 2.96,1.28; stroke-dashoffset: 0; stroke: #cccccc; stroke-opacity: 0.5; stroke-width: 0.8"/>
     </g>
     <g id="text_7">
      <!-- 0 -->
      <g style="fill: #262626" transform="translate(27.779063 534.738906) scale(0.1 -0.1)">
       <use xlink:href="#ArialMT-30"/>
      </g>
     </g>
    </g>
    <g id="ytick_2">
     <g id="line2d_7">
      <path d="M 40.34 29.94 
L 670.876479 29.94 
" clip-path="url(#p79b38964c7)" style="fill: none; stroke-dasharray: 2.96,1.28; stroke-dashoffset: 0; stroke: #cccccc; stroke-opacity: 0.5; stroke-width: 0.8"/>
     </g>
     <g id="text_8">
      <!-- 1 -->
      <g style="fill: #262626" transform="translate(27.779063 33.518906) scale(0.1 -0.1)">
       <use xlink:href="#ArialMT-31"/>
      </g>
     </g>
    </g>
    <g id="text_9">
     <!-- Stacked Proportion -->
     <g style="fill: #262626" transform="translate(20.784375 334.402969) rotate(-90) scale(0.14 -0.14)">
      <defs>
       <path id="TimesNewRomanPSMT-61" d="M 1822 413 
Q 1381 72 1269 19 
Q 1100 -59 909 -59 
Q 613 -59 420 144 
Q 228 347 228 678 
Q 228 888 322 1041 
Q 450 1253 767 1440 
Q 1084 1628 1822 1897 
L 1822 2009 
Q 1822 2438 1686 2597 
Q 1550 2756 1291 2756 
Q 1094 2756 978 2650 
Q 859 2544 859 2406 
L 866 2225 
Q 866 2081 792 2003 
Q 719 1925 600 1925 
Q 484 1925 411 2006 
Q 338 2088 338 2228 
Q 338 2497 613 2722 
Q 888 2947 1384 2947 
Q 1766 2947 2009 2819 
Q 2194 2722 2281 2516 
Q 2338 2381 2338 1966 
L 2338 994 
Q 2338 584 2353 492 
Q 2369 400 2405 369 
Q 2441 338 2488 338 
Q 2538 338 2575 359 
Q 2641 400 2828 588 
L 2828 413 
Q 2478 -56 2159 -56 
Q 2006 -56 1915 50 
Q 1825 156 1822 413 
z
M 1822 616 
L 1822 1706 
Q 1350 1519 1213 1441 
Q 966 1303 859 1153 
Q 753 1003 753 825 
Q 753 600 887 451 
Q 1022 303 1197 303 
Q 1434 303 1822 616 
z
" transform="scale(0.015625)"/>
       <path id="TimesNewRomanPSMT-63" d="M 2631 1088 
Q 2516 522 2178 217 
Q 1841 -88 1431 -88 
Q 944 -88 581 321 
Q 219 731 219 1428 
Q 219 2103 620 2525 
Q 1022 2947 1584 2947 
Q 2006 2947 2278 2723 
Q 2550 2500 2550 2259 
Q 2550 2141 2473 2067 
Q 2397 1994 2259 1994 
Q 2075 1994 1981 2113 
Q 1928 2178 1911 2362 
Q 1894 2547 1784 2644 
Q 1675 2738 1481 2738 
Q 1169 2738 978 2506 
Q 725 2200 725 1697 
Q 725 1184 976 792 
Q 1228 400 1656 400 
Q 1963 400 2206 609 
Q 2378 753 2541 1131 
L 2631 1088 
z
" transform="scale(0.015625)"/>
       <path id="TimesNewRomanPSMT-6b" d="M 1047 4444 
L 1047 1594 
L 1775 2259 
Q 2006 2472 2044 2528 
Q 2069 2566 2069 2603 
Q 2069 2666 2017 2711 
Q 1966 2756 1847 2763 
L 1847 2863 
L 3091 2863 
L 3091 2763 
Q 2834 2756 2664 2684 
Q 2494 2613 2291 2428 
L 1556 1750 
L 2291 822 
Q 2597 438 2703 334 
Q 2853 188 2966 144 
Q 3044 113 3238 113 
L 3238 0 
L 1847 0 
L 1847 113 
Q 1966 116 2008 148 
Q 2050 181 2050 241 
Q 2050 313 1925 472 
L 1047 1594 
L 1047 644 
Q 1047 366 1086 278 
Q 1125 191 1197 153 
Q 1269 116 1509 113 
L 1509 0 
L 53 0 
L 53 113 
Q 272 113 381 166 
Q 447 200 481 272 
Q 528 375 528 628 
L 528 3234 
Q 528 3731 506 3842 
Q 484 3953 434 3995 
Q 384 4038 303 4038 
Q 238 4038 106 3984 
L 53 4094 
L 903 4444 
L 1047 4444 
z
" transform="scale(0.015625)"/>
       <path id="TimesNewRomanPSMT-64" d="M 2222 322 
Q 2013 103 1813 7 
Q 1613 -88 1381 -88 
Q 913 -88 563 304 
Q 213 697 213 1313 
Q 213 1928 600 2439 
Q 988 2950 1597 2950 
Q 1975 2950 2222 2709 
L 2222 3238 
Q 2222 3728 2198 3840 
Q 2175 3953 2125 3993 
Q 2075 4034 2000 4034 
Q 1919 4034 1784 3984 
L 1744 4094 
L 2597 4444 
L 2738 4444 
L 2738 1134 
Q 2738 631 2761 520 
Q 2784 409 2836 365 
Q 2888 322 2956 322 
Q 3041 322 3181 375 
L 3216 266 
L 2366 -88 
L 2222 -88 
L 2222 322 
z
M 2222 541 
L 2222 2016 
Q 2203 2228 2109 2403 
Q 2016 2578 1861 2667 
Q 1706 2756 1559 2756 
Q 1284 2756 1069 2509 
Q 784 2184 784 1559 
Q 784 928 1059 592 
Q 1334 256 1672 256 
Q 1956 256 2222 541 
z
" transform="scale(0.015625)"/>
       <path id="TimesNewRomanPSMT-50" d="M 1313 1984 
L 1313 750 
Q 1313 350 1400 253 
Q 1519 116 1759 116 
L 1922 116 
L 1922 0 
L 106 0 
L 106 116 
L 266 116 
Q 534 116 650 291 
Q 713 388 713 750 
L 713 3488 
Q 713 3888 628 3984 
Q 506 4122 266 4122 
L 106 4122 
L 106 4238 
L 1659 4238 
Q 2228 4238 2556 4120 
Q 2884 4003 3109 3725 
Q 3334 3447 3334 3066 
Q 3334 2547 2992 2222 
Q 2650 1897 2025 1897 
Q 1872 1897 1694 1919 
Q 1516 1941 1313 1984 
z
M 1313 2163 
Q 1478 2131 1606 2115 
Q 1734 2100 1825 2100 
Q 2150 2100 2386 2351 
Q 2622 2603 2622 3003 
Q 2622 3278 2509 3514 
Q 2397 3750 2190 3867 
Q 1984 3984 1722 3984 
Q 1563 3984 1313 3925 
L 1313 2163 
z
" transform="scale(0.015625)"/>
       <path id="TimesNewRomanPSMT-72" d="M 1038 2947 
L 1038 2303 
Q 1397 2947 1775 2947 
Q 1947 2947 2059 2842 
Q 2172 2738 2172 2600 
Q 2172 2478 2090 2393 
Q 2009 2309 1897 2309 
Q 1788 2309 1652 2417 
Q 1516 2525 1450 2525 
Q 1394 2525 1328 2463 
Q 1188 2334 1038 2041 
L 1038 669 
Q 1038 431 1097 309 
Q 1138 225 1241 169 
Q 1344 113 1538 113 
L 1538 0 
L 72 0 
L 72 113 
Q 291 113 397 181 
Q 475 231 506 341 
Q 522 394 522 644 
L 522 1753 
Q 522 2253 501 2348 
Q 481 2444 426 2487 
Q 372 2531 291 2531 
Q 194 2531 72 2484 
L 41 2597 
L 906 2947 
L 1038 2947 
z
" transform="scale(0.015625)"/>
       <path id="TimesNewRomanPSMT-70" d="M -6 2578 
L 875 2934 
L 994 2934 
L 994 2266 
Q 1216 2644 1439 2795 
Q 1663 2947 1909 2947 
Q 2341 2947 2628 2609 
Q 2981 2197 2981 1534 
Q 2981 794 2556 309 
Q 2206 -88 1675 -88 
Q 1444 -88 1275 -22 
Q 1150 25 994 166 
L 994 -706 
Q 994 -1000 1030 -1079 
Q 1066 -1159 1155 -1206 
Q 1244 -1253 1478 -1253 
L 1478 -1369 
L -22 -1369 
L -22 -1253 
L 56 -1253 
Q 228 -1256 350 -1188 
Q 409 -1153 442 -1076 
Q 475 -1000 475 -688 
L 475 2019 
Q 475 2297 450 2372 
Q 425 2447 370 2484 
Q 316 2522 222 2522 
Q 147 2522 31 2478 
L -6 2578 
z
M 994 2081 
L 994 1013 
Q 994 666 1022 556 
Q 1066 375 1236 237 
Q 1406 100 1666 100 
Q 1978 100 2172 344 
Q 2425 663 2425 1241 
Q 2425 1897 2138 2250 
Q 1938 2494 1663 2494 
Q 1513 2494 1366 2419 
Q 1253 2363 994 2081 
z
" transform="scale(0.015625)"/>
      </defs>
      <use xlink:href="#TimesNewRomanPSMT-53"/>
      <use xlink:href="#TimesNewRomanPSMT-74" transform="translate(55.615234 0)"/>
      <use xlink:href="#TimesNewRomanPSMT-61" transform="translate(83.398438 0)"/>
      <use xlink:href="#TimesNewRomanPSMT-63" transform="translate(127.783203 0)"/>
      <use xlink:href="#TimesNewRomanPSMT-6b" transform="translate(172.167969 0)"/>
      <use xlink:href="#TimesNewRomanPSMT-65" transform="translate(222.167969 0)"/>
      <use xlink:href="#TimesNewRomanPSMT-64" transform="translate(266.552734 0)"/>
      <use xlink:href="#TimesNewRomanPSMT-20" transform="translate(316.552734 0)"/>
      <use xlink:href="#TimesNewRomanPSMT-50" transform="translate(341.552734 0)"/>
      <use xlink:href="#TimesNewRomanPSMT-72" transform="translate(397.167969 0)"/>
      <use xlink:href="#TimesNewRomanPSMT-6f" transform="translate(430.46875 0)"/>
      <use xlink:href="#TimesNewRomanPSMT-70" transform="translate(480.46875 0)"/>
      <use xlink:href="#TimesNewRomanPSMT-6f" transform="translate(530.46875 0)"/>
      <use xlink:href="#TimesNewRomanPSMT-72" transform="translate(580.46875 0)"/>
      <use xlink:href="#TimesNewRomanPSMT-74" transform="translate(613.769531 0)"/>
      <use xlink:href="#TimesNewRomanPSMT-69" transform="translate(641.552734 0)"/>
      <use xlink:href="#TimesNewRomanPSMT-6f" transform="translate(669.335938 0)"/>
      <use xlink:href="#TimesNewRomanPSMT-6e" transform="translate(719.335938 0)"/>
     </g>
    </g>
   </g>
   <g id="FillBetweenPolyCollection_1">
    <defs>
     <path id="mcc2b38accd" d="M 40.34 -546.06 
L 40.34 -44.84 
L 42.560199 -44.84 
L 44.780398 -44.84 
L 47.000597 -44.84 
L 49.220795 -44.84 
L 51.440994 -44.84 
L 53.661193 -44.84 
L 55.881392 -44.84 
L 58.101591 -44.84 
L 60.32179 -44.84 
L 62.541989 -44.84 
L 64.762188 -44.84 
L 66.982386 -44.84 
L 69.202585 -44.84 
L 71.422784 -44.84 
L 73.642983 -44.84 
L 75.863182 -44.84 
L 78.083381 -44.84 
L 80.30358 -44.84 
L 82.523779 -44.84 
L 84.743977 -44.84 
L 86.964176 -44.84 
L 89.184375 -44.84 
L 91.404574 -44.84 
L 93.624773 -44.84 
L 95.844972 -44.84 
L 98.065171 -44.84 
L 100.285369 -44.84 
L 102.505568 -44.84 
L 104.725767 -44.84 
L 106.945966 -44.84 
L 109.166165 -44.84 
L 111.386364 -44.84 
L 113.606563 -44.84 
L 115.826762 -44.84 
L 118.04696 -44.84 
L 120.267159 -44.84 
L 122.487358 -44.84 
L 124.707557 -44.84 
L 126.927756 -44.84 
L 129.147955 -44.84 
L 131.368154 -44.84 
L 133.588353 -44.84 
L 135.808551 -44.84 
L 138.02875 -44.84 
L 140.248949 -44.84 
L 142.469148 -44.84 
L 144.689347 -44.84 
L 146.909546 -44.84 
L 149.129745 -44.84 
L 151.349943 -44.84 
L 153.570142 -44.84 
L 155.790341 -44.84 
L 158.01054 -44.84 
L 160.230739 -44.84 
L 162.450938 -44.84 
L 164.671137 -44.84 
L 166.891336 -44.84 
L 169.111534 -44.84 
L 171.331733 -44.84 
L 173.551932 -44.84 
L 175.772131 -44.84 
L 177.99233 -44.84 
L 180.212529 -44.84 
L 182.432728 -44.84 
L 184.652927 -44.84 
L 186.873125 -44.84 
L 189.093324 -44.84 
L 191.313523 -44.84 
L 193.533722 -44.84 
L 195.753921 -44.84 
L 197.97412 -44.84 
L 200.194319 -44.84 
L 202.414517 -44.84 
L 204.634716 -44.84 
L 206.854915 -44.84 
L 209.075114 -44.84 
L 211.295313 -44.84 
L 213.515512 -44.84 
L 215.735711 -44.84 
L 217.95591 -44.84 
L 220.176108 -44.84 
L 222.396307 -44.84 
L 224.616506 -44.84 
L 226.836705 -44.84 
L 229.056904 -44.84 
L 231.277103 -44.84 
L 233.497302 -44.84 
L 235.7175 -44.84 
L 237.937699 -44.84 
L 240.157898 -44.84 
L 242.378097 -44.84 
L 244.598296 -44.84 
L 246.818495 -44.84 
L 249.038694 -44.84 
L 251.258893 -44.84 
L 253.479091 -44.84 
L 255.69929 -44.84 
L 257.919489 -44.84 
L 260.139688 -44.84 
L 262.359887 -44.84 
L 264.580086 -44.84 
L 266.800285 -44.84 
L 269.020484 -44.84 
L 271.240682 -44.84 
L 273.460881 -44.84 
L 275.68108 -44.84 
L 277.901279 -44.84 
L 280.121478 -44.84 
L 282.341677 -44.84 
L 284.561876 -44.84 
L 286.782074 -44.84 
L 289.002273 -44.84 
L 291.222472 -44.84 
L 293.442671 -44.84 
L 295.66287 -44.84 
L 297.883069 -44.84 
L 300.103268 -44.84 
L 302.323467 -44.84 
L 304.543665 -44.84 
L 306.763864 -44.84 
L 308.984063 -44.84 
L 311.204262 -44.84 
L 313.424461 -44.84 
L 315.64466 -44.84 
L 317.864859 -44.84 
L 320.085058 -44.84 
L 322.305256 -44.84 
L 324.525455 -44.84 
L 326.745654 -44.84 
L 328.965853 -44.84 
L 331.186052 -44.84 
L 333.406251 -44.84 
L 335.62645 -44.84 
L 337.846648 -44.84 
L 340.066847 -44.84 
L 342.287046 -44.84 
L 344.507245 -44.84 
L 346.727444 -44.84 
L 348.947643 -44.84 
L 351.167842 -44.84 
L 353.388041 -44.84 
L 355.608239 -44.84 
L 357.828438 -44.84 
L 360.048637 -44.84 
L 362.268836 -44.84 
L 364.489035 -44.84 
L 366.709234 -44.84 
L 368.929433 -44.84 
L 371.149632 -44.84 
L 373.36983 -44.84 
L 375.590029 -44.84 
L 377.810228 -44.84 
L 380.030427 -44.84 
L 382.250626 -44.84 
L 384.470825 -44.84 
L 386.691024 -44.84 
L 388.911222 -44.84 
L 391.131421 -44.84 
L 393.35162 -44.84 
L 395.571819 -44.84 
L 397.792018 -44.84 
L 400.012217 -44.84 
L 402.232416 -44.84 
L 404.452615 -44.84 
L 406.672813 -44.84 
L 408.893012 -44.84 
L 411.113211 -44.84 
L 413.33341 -44.84 
L 415.553609 -44.84 
L 417.773808 -44.84 
L 419.994007 -44.84 
L 422.214206 -44.84 
L 424.434404 -44.84 
L 426.654603 -44.84 
L 428.874802 -44.84 
L 431.095001 -44.84 
L 433.3152 -44.84 
L 435.535399 -44.84 
L 437.755598 -44.84 
L 439.975796 -44.84 
L 442.195995 -44.84 
L 444.416194 -44.84 
L 446.636393 -44.84 
L 448.856592 -44.84 
L 451.076791 -44.84 
L 453.29699 -44.84 
L 455.517189 -44.84 
L 457.737387 -44.84 
L 459.957586 -44.84 
L 462.177785 -44.84 
L 464.397984 -44.84 
L 466.618183 -44.84 
L 468.838382 -44.84 
L 471.058581 -44.84 
L 473.27878 -44.84 
L 475.498978 -44.84 
L 477.719177 -44.84 
L 479.939376 -44.84 
L 482.159575 -44.84 
L 484.379774 -44.84 
L 486.599973 -44.84 
L 488.820172 -44.84 
L 491.04037 -44.84 
L 493.260569 -44.84 
L 495.480768 -44.84 
L 497.700967 -44.84 
L 499.921166 -44.84 
L 502.141365 -44.84 
L 504.361564 -44.84 
L 506.581763 -44.84 
L 508.801961 -44.84 
L 511.02216 -44.84 
L 513.242359 -44.84 
L 515.462558 -44.84 
L 517.682757 -44.84 
L 519.902956 -44.84 
L 522.123155 -44.84 
L 524.343354 -44.84 
L 526.563552 -44.84 
L 528.783751 -44.84 
L 531.00395 -44.84 
L 533.224149 -44.84 
L 535.444348 -44.84 
L 537.664547 -44.84 
L 539.884746 -44.84 
L 542.104944 -44.84 
L 544.325143 -44.84 
L 546.545342 -44.84 
L 548.765541 -44.84 
L 550.98574 -44.84 
L 553.205939 -44.84 
L 555.426138 -44.84 
L 557.646337 -44.84 
L 559.866535 -44.84 
L 562.086734 -44.84 
L 564.306933 -44.84 
L 566.527132 -44.84 
L 568.747331 -44.84 
L 570.96753 -44.84 
L 573.187729 -44.84 
L 575.407927 -44.84 
L 577.628126 -44.84 
L 579.848325 -44.84 
L 582.068524 -44.84 
L 584.288723 -44.84 
L 586.508922 -44.84 
L 588.729121 -44.84 
L 590.94932 -44.84 
L 593.169518 -44.84 
L 595.389717 -44.84 
L 597.609916 -44.84 
L 599.830115 -44.84 
L 602.050314 -44.84 
L 604.270513 -44.84 
L 606.490712 -44.84 
L 608.710911 -44.84 
L 610.931109 -44.84 
L 613.151308 -44.84 
L 615.371507 -44.84 
L 617.591706 -44.84 
L 619.811905 -44.84 
L 622.032104 -44.84 
L 624.252303 -44.84 
L 626.472501 -44.84 
L 628.6927 -44.84 
L 630.912899 -44.84 
L 633.133098 -44.84 
L 635.353297 -44.84 
L 637.573496 -44.84 
L 639.793695 -44.84 
L 642.013894 -44.84 
L 644.234092 -44.84 
L 646.454291 -44.84 
L 648.67449 -44.84 
L 650.894689 -44.84 
L 653.114888 -44.84 
L 655.335087 -44.84 
L 657.555286 -44.84 
L 659.775485 -44.84 
L 661.995683 -44.84 
L 664.215882 -44.84 
L 666.436081 -44.84 
L 668.65628 -44.84 
L 670.876479 -44.84 
L 670.876479 -331.251429 
L 670.876479 -331.251429 
L 668.65628 -546.06 
L 666.436081 -546.06 
L 664.215882 -546.06 
L 661.995683 -546.06 
L 659.775485 -44.84 
L 657.555286 -546.06 
L 655.335087 -546.06 
L 653.114888 -546.06 
L 650.894689 -546.06 
L 648.67449 -295.45 
L 646.454291 -44.84 
L 644.234092 -44.84 
L 642.013894 -44.84 
L 639.793695 -546.06 
L 637.573496 -44.84 
L 635.353297 -44.84 
L 633.133098 -44.84 
L 630.912899 -295.45 
L 628.6927 -44.84 
L 626.472501 -44.84 
L 624.252303 -546.06 
L 622.032104 -546.06 
L 619.811905 -546.06 
L 617.591706 -546.06 
L 615.371507 -546.06 
L 613.151308 -44.84 
L 610.931109 -44.84 
L 608.710911 -546.06 
L 606.490712 -44.84 
L 604.270513 -378.986667 
L 602.050314 -520.999 
L 599.830115 -495.938 
L 597.609916 -466.92 
L 595.389717 -44.84 
L 593.169518 -495.938 
L 590.94932 -345.572 
L 588.729121 -490.368889 
L 586.508922 -295.45 
L 584.288723 -546.06 
L 582.068524 -470.877 
L 579.848325 -546.06 
L 577.628126 -438.655714 
L 575.407927 -470.877 
L 573.187729 -470.877 
L 570.96753 -520.999 
L 568.747331 -495.938 
L 566.527132 -546.06 
L 564.306933 -445.816 
L 562.086734 -44.84 
L 559.866535 -420.755 
L 557.646337 -420.755 
L 555.426138 -295.45 
L 553.205939 -490.368889 
L 550.98574 -520.999 
L 548.765541 -520.999 
L 546.545342 -495.938 
L 544.325143 -495.938 
L 542.104944 -546.06 
L 539.884746 -483.4075 
L 537.664547 -470.877 
L 535.444348 -402.854286 
L 533.224149 -546.06 
L 531.00395 -420.755 
L 528.783751 -495.938 
L 526.563552 -546.06 
L 524.343354 -454.929091 
L 522.123155 -546.06 
L 519.902956 -520.999 
L 517.682757 -420.755 
L 515.462558 -495.938 
L 513.242359 -546.06 
L 511.02216 -546.06 
L 508.801961 -470.877 
L 506.581763 -520.999 
L 504.361564 -495.938 
L 502.141365 -445.816 
L 499.921166 -470.877 
L 497.700967 -445.816 
L 495.480768 -500.494545 
L 493.260569 -490.368889 
L 491.04037 -512.645333 
L 488.820172 -445.816 
L 486.599973 -495.938 
L 484.379774 -546.06 
L 482.159575 -395.694 
L 479.939376 -402.854286 
L 477.719177 -462.523333 
L 475.498978 -445.816 
L 473.27878 -546.06 
L 471.058581 -420.755 
L 468.838382 -546.06 
L 466.618183 -378.986667 
L 464.397984 -546.06 
L 462.177785 -128.376667 
L 459.957586 -295.45 
L 457.737387 -295.45 
L 455.517189 -518.214444 
L 453.29699 -466.92 
L 451.076791 -378.986667 
L 448.856592 -295.45 
L 446.636393 -44.84 
L 444.416194 -520.999 
L 442.195995 -495.938 
L 439.975796 -295.45 
L 437.755598 -434.677778 
L 435.535399 -474.457143 
L 433.3152 -546.06 
L 431.095001 -490.368889 
L 428.874802 -395.694 
L 426.654603 -546.06 
L 424.434404 -483.4075 
L 422.214206 -495.938 
L 419.994007 -495.938 
L 417.773808 -507.504615 
L 415.553609 -474.457143 
L 413.33341 -470.877 
L 411.113211 -470.877 
L 408.893012 -500.494545 
L 406.672813 -44.84 
L 404.452615 -211.913333 
L 402.232416 -546.06 
L 400.012217 -479.230667 
L 397.792018 -546.06 
L 395.571819 -466.92 
L 393.35162 -44.84 
L 391.131421 -501.834706 
L 388.911222 -211.913333 
L 386.691024 -378.986667 
L 384.470825 -487.092941 
L 382.250626 -546.06 
L 380.030427 -345.572 
L 377.810228 -512.645333 
L 375.590029 -483.4075 
L 373.36983 -445.816 
L 371.149632 -378.986667 
L 368.929433 -462.523333 
L 366.709234 -295.45 
L 364.489035 -483.4075 
L 362.268836 -445.816 
L 360.048637 -546.06 
L 357.828438 -546.06 
L 355.608239 -358.1025 
L 353.388041 -378.986667 
L 351.167842 -466.92 
L 348.947643 -44.84 
L 346.727444 -445.816 
L 344.507245 -546.06 
L 342.287046 -546.06 
L 340.066847 -420.755 
L 337.846648 -546.06 
L 335.62645 -526.782308 
L 333.406251 -474.457143 
L 331.186052 -470.877 
L 328.965853 -420.755 
L 326.745654 -483.4075 
L 324.525455 -295.45 
L 322.305256 -546.06 
L 320.085058 -546.06 
L 317.864859 -445.816 
L 315.64466 -495.938 
L 313.424461 -520.999 
L 311.204262 -477.711818 
L 308.984063 -518.214444 
L 306.763864 -495.938 
L 304.543665 -520.999 
L 302.323467 -546.06 
L 300.103268 -495.938 
L 297.883069 -474.457143 
L 295.66287 -546.06 
L 293.442671 -445.816 
L 291.222472 -495.938 
L 289.002273 -445.816 
L 286.782074 -295.45 
L 284.561876 -462.523333 
L 282.341677 -470.877 
L 280.121478 -452.08125 
L 277.901279 -546.06 
L 275.68108 -546.06 
L 273.460881 -490.368889 
L 271.240682 -445.816 
L 269.020484 -479.230667 
L 266.800285 -345.572 
L 264.580086 -462.523333 
L 262.359887 -510.258571 
L 260.139688 -445.816 
L 257.919489 -546.06 
L 255.69929 -546.06 
L 253.479091 -420.755 
L 251.258893 -546.06 
L 249.038694 -434.677778 
L 246.818495 -434.677778 
L 244.598296 -454.929091 
L 242.378097 -520.999 
L 240.157898 -437.688108 
L 237.937699 -378.986667 
L 235.7175 -495.938 
L 233.497302 -546.06 
L 231.277103 -474.457143 
L 229.056904 -44.84 
L 226.836705 -434.677778 
L 224.616506 -546.06 
L 222.396307 -495.938 
L 220.176108 -546.06 
L 217.95591 -546.06 
L 215.735711 -457.609412 
L 213.515512 -546.06 
L 211.295313 -546.06 
L 209.075114 -445.816 
L 206.854915 -398.642353 
L 204.634716 -470.877 
L 202.414517 -500.494545 
L 200.194319 -490.368889 
L 197.97412 -445.816 
L 195.753921 -474.457143 
L 193.533722 -546.06 
L 191.313523 -420.755 
L 189.093324 -445.816 
L 186.873125 -546.06 
L 184.652927 -546.06 
L 182.432728 -546.06 
L 180.212529 -445.816 
L 177.99233 -520.999 
L 175.772131 -470.877 
L 173.551932 -546.06 
L 171.331733 -493.3 
L 169.111534 -378.986667 
L 166.891336 -434.677778 
L 164.671137 -259.648571 
L 162.450938 -520.999 
L 160.230739 -546.06 
L 158.01054 -546.06 
L 155.790341 -546.06 
L 153.570142 -487.092941 
L 151.349943 -44.84 
L 149.129745 -445.816 
L 146.909546 -546.06 
L 144.689347 -546.06 
L 142.469148 -546.06 
L 140.248949 -462.523333 
L 138.02875 -345.572 
L 135.808551 -476.926207 
L 133.588353 -458.3465 
L 131.368154 -474.457143 
L 129.147955 -468.949231 
L 126.927756 -502.475652 
L 124.707557 -457.609412 
L 122.487358 -546.06 
L 120.267159 -295.45 
L 118.04696 -546.06 
L 115.826762 -420.755 
L 113.606563 -295.45 
L 111.386364 -546.06 
L 109.166165 -395.694 
L 106.945966 -470.877 
L 104.725767 -365.6208 
L 102.505568 -438.655714 
L 100.285369 -345.572 
L 98.065171 -470.877 
L 95.844972 -415.306957 
L 93.624773 -389.42875 
L 91.404574 -495.938 
L 89.184375 -483.4075 
L 86.964176 -546.06 
L 84.743977 -331.251429 
L 82.523779 -546.06 
L 80.30358 -517.418857 
L 78.083381 -520.999 
L 75.863182 -445.816 
L 73.642983 -483.4075 
L 71.422784 -546.06 
L 69.202585 -370.633 
L 66.982386 -458.3465 
L 64.762188 -520.999 
L 62.541989 -345.572 
L 60.32179 -378.986667 
L 58.101591 -434.677778 
L 55.881392 -44.84 
L 53.661193 -434.677778 
L 51.440994 -370.633 
L 49.220795 -468.949231 
L 47.000597 -520.999 
L 44.780398 -345.572 
L 42.560199 -420.755 
L 40.34 -546.06 
z
" style="stroke: #ffffff"/>
    </defs>
    <g clip-path="url(#p79b38964c7)">
     <use xlink:href="#mcc2b38accd" x="0" y="576" style="fill: #5386b6; stroke: #ffffff"/>
    </g>
   </g>
   <g id="FillBetweenPolyCollection_2">
    <defs>
     <path id="m0c4c14974a" d="M 40.34 -546.06 
L 40.34 -546.06 
L 42.560199 -420.755 
L 44.780398 -345.572 
L 47.000597 -520.999 
L 49.220795 -468.949231 
L 51.440994 -370.633 
L 53.661193 -434.677778 
L 55.881392 -44.84 
L 58.101591 -434.677778 
L 60.32179 -378.986667 
L 62.541989 -345.572 
L 64.762188 -520.999 
L 66.982386 -458.3465 
L 69.202585 -370.633 
L 71.422784 -546.06 
L 73.642983 -483.4075 
L 75.863182 -445.816 
L 78.083381 -520.999 
L 80.30358 -517.418857 
L 82.523779 -546.06 
L 84.743977 -331.251429 
L 86.964176 -546.06 
L 89.184375 -483.4075 
L 91.404574 -495.938 
L 93.624773 -389.42875 
L 95.844972 -415.306957 
L 98.065171 -470.877 
L 100.285369 -345.572 
L 102.505568 -438.655714 
L 104.725767 -365.6208 
L 106.945966 -470.877 
L 109.166165 -395.694 
L 111.386364 -546.06 
L 113.606563 -295.45 
L 115.826762 -420.755 
L 118.04696 -546.06 
L 120.267159 -295.45 
L 122.487358 -546.06 
L 124.707557 -457.609412 
L 126.927756 -502.475652 
L 129.147955 -468.949231 
L 131.368154 -474.457143 
L 133.588353 -458.3465 
L 135.808551 -476.926207 
L 138.02875 -345.572 
L 140.248949 -462.523333 
L 142.469148 -546.06 
L 144.689347 -546.06 
L 146.909546 -546.06 
L 149.129745 -445.816 
L 151.349943 -44.84 
L 153.570142 -487.092941 
L 155.790341 -546.06 
L 158.01054 -546.06 
L 160.230739 -546.06 
L 162.450938 -520.999 
L 164.671137 -259.648571 
L 166.891336 -434.677778 
L 169.111534 -378.986667 
L 171.331733 -493.3 
L 173.551932 -546.06 
L 175.772131 -470.877 
L 177.99233 -520.999 
L 180.212529 -445.816 
L 182.432728 -546.06 
L 184.652927 -546.06 
L 186.873125 -546.06 
L 189.093324 -445.816 
L 191.313523 -420.755 
L 193.533722 -546.06 
L 195.753921 -474.457143 
L 197.97412 -445.816 
L 200.194319 -490.368889 
L 202.414517 -500.494545 
L 204.634716 -470.877 
L 206.854915 -398.642353 
L 209.075114 -445.816 
L 211.295313 -546.06 
L 213.515512 -546.06 
L 215.735711 -457.609412 
L 217.95591 -546.06 
L 220.176108 -546.06 
L 222.396307 -495.938 
L 224.616506 -546.06 
L 226.836705 -434.677778 
L 229.056904 -44.84 
L 231.277103 -474.457143 
L 233.497302 -546.06 
L 235.7175 -495.938 
L 237.937699 -378.986667 
L 240.157898 -437.688108 
L 242.378097 -520.999 
L 244.598296 -454.929091 
L 246.818495 -434.677778 
L 249.038694 -434.677778 
L 251.258893 -546.06 
L 253.479091 -420.755 
L 255.69929 -546.06 
L 257.919489 -546.06 
L 260.139688 -445.816 
L 262.359887 -510.258571 
L 264.580086 -462.523333 
L 266.800285 -345.572 
L 269.020484 -479.230667 
L 271.240682 -445.816 
L 273.460881 -490.368889 
L 275.68108 -546.06 
L 277.901279 -546.06 
L 280.121478 -452.08125 
L 282.341677 -470.877 
L 284.561876 -462.523333 
L 286.782074 -295.45 
L 289.002273 -445.816 
L 291.222472 -495.938 
L 293.442671 -445.816 
L 295.66287 -546.06 
L 297.883069 -474.457143 
L 300.103268 -495.938 
L 302.323467 -546.06 
L 304.543665 -520.999 
L 306.763864 -495.938 
L 308.984063 -518.214444 
L 311.204262 -477.711818 
L 313.424461 -520.999 
L 315.64466 -495.938 
L 317.864859 -445.816 
L 320.085058 -546.06 
L 322.305256 -546.06 
L 324.525455 -295.45 
L 326.745654 -483.4075 
L 328.965853 -420.755 
L 331.186052 -470.877 
L 333.406251 -474.457143 
L 335.62645 -526.782308 
L 337.846648 -546.06 
L 340.066847 -420.755 
L 342.287046 -546.06 
L 344.507245 -546.06 
L 346.727444 -445.816 
L 348.947643 -44.84 
L 351.167842 -466.92 
L 353.388041 -378.986667 
L 355.608239 -358.1025 
L 357.828438 -546.06 
L 360.048637 -546.06 
L 362.268836 -445.816 
L 364.489035 -483.4075 
L 366.709234 -295.45 
L 368.929433 -462.523333 
L 371.149632 -378.986667 
L 373.36983 -445.816 
L 375.590029 -483.4075 
L 377.810228 -512.645333 
L 380.030427 -345.572 
L 382.250626 -546.06 
L 384.470825 -487.092941 
L 386.691024 -378.986667 
L 388.911222 -211.913333 
L 391.131421 -501.834706 
L 393.35162 -44.84 
L 395.571819 -466.92 
L 397.792018 -546.06 
L 400.012217 -479.230667 
L 402.232416 -546.06 
L 404.452615 -211.913333 
L 406.672813 -44.84 
L 408.893012 -500.494545 
L 411.113211 -470.877 
L 413.33341 -470.877 
L 415.553609 -474.457143 
L 417.773808 -507.504615 
L 419.994007 -495.938 
L 422.214206 -495.938 
L 424.434404 -483.4075 
L 426.654603 -546.06 
L 428.874802 -395.694 
L 431.095001 -490.368889 
L 433.3152 -546.06 
L 435.535399 -474.457143 
L 437.755598 -434.677778 
L 439.975796 -295.45 
L 442.195995 -495.938 
L 444.416194 -520.999 
L 446.636393 -44.84 
L 448.856592 -295.45 
L 451.076791 -378.986667 
L 453.29699 -466.92 
L 455.517189 -518.214444 
L 457.737387 -295.45 
L 459.957586 -295.45 
L 462.177785 -128.376667 
L 464.397984 -546.06 
L 466.618183 -378.986667 
L 468.838382 -546.06 
L 471.058581 -420.755 
L 473.27878 -546.06 
L 475.498978 -445.816 
L 477.719177 -462.523333 
L 479.939376 -402.854286 
L 482.159575 -395.694 
L 484.379774 -546.06 
L 486.599973 -495.938 
L 488.820172 -445.816 
L 491.04037 -512.645333 
L 493.260569 -490.368889 
L 495.480768 -500.494545 
L 497.700967 -445.816 
L 499.921166 -470.877 
L 502.141365 -445.816 
L 504.361564 -495.938 
L 506.581763 -520.999 
L 508.801961 -470.877 
L 511.02216 -546.06 
L 513.242359 -546.06 
L 515.462558 -495.938 
L 517.682757 -420.755 
L 519.902956 -520.999 
L 522.123155 -546.06 
L 524.343354 -454.929091 
L 526.563552 -546.06 
L 528.783751 -495.938 
L 531.00395 -420.755 
L 533.224149 -546.06 
L 535.444348 -402.854286 
L 537.664547 -470.877 
L 539.884746 -483.4075 
L 542.104944 -546.06 
L 544.325143 -495.938 
L 546.545342 -495.938 
L 548.765541 -520.999 
L 550.98574 -520.999 
L 553.205939 -490.368889 
L 555.426138 -295.45 
L 557.646337 -420.755 
L 559.866535 -420.755 
L 562.086734 -44.84 
L 564.306933 -445.816 
L 566.527132 -546.06 
L 568.747331 -495.938 
L 570.96753 -520.999 
L 573.187729 -470.877 
L 575.407927 -470.877 
L 577.628126 -438.655714 
L 579.848325 -546.06 
L 582.068524 -470.877 
L 584.288723 -546.06 
L 586.508922 -295.45 
L 588.729121 -490.368889 
L 590.94932 -345.572 
L 593.169518 -495.938 
L 595.389717 -44.84 
L 597.609916 -466.92 
L 599.830115 -495.938 
L 602.050314 -520.999 
L 604.270513 -378.986667 
L 606.490712 -44.84 
L 608.710911 -546.06 
L 610.931109 -44.84 
L 613.151308 -44.84 
L 615.371507 -546.06 
L 617.591706 -546.06 
L 619.811905 -546.06 
L 622.032104 -546.06 
L 624.252303 -546.06 
L 626.472501 -44.84 
L 628.6927 -44.84 
L 630.912899 -295.45 
L 633.133098 -44.84 
L 635.353297 -44.84 
L 637.573496 -44.84 
L 639.793695 -546.06 
L 642.013894 -44.84 
L 644.234092 -44.84 
L 646.454291 -44.84 
L 648.67449 -295.45 
L 650.894689 -546.06 
L 653.114888 -546.06 
L 655.335087 -546.06 
L 657.555286 -546.06 
L 659.775485 -44.84 
L 661.995683 -546.06 
L 664.215882 -546.06 
L 666.436081 -546.06 
L 668.65628 -546.06 
L 670.876479 -331.251429 
L 670.876479 -331.251429 
L 670.876479 -331.251429 
L 668.65628 -546.06 
L 666.436081 -546.06 
L 664.215882 -546.06 
L 661.995683 -546.06 
L 659.775485 -44.84 
L 657.555286 -546.06 
L 655.335087 -546.06 
L 653.114888 -546.06 
L 650.894689 -546.06 
L 648.67449 -295.45 
L 646.454291 -44.84 
L 644.234092 -44.84 
L 642.013894 -44.84 
L 639.793695 -546.06 
L 637.573496 -44.84 
L 635.353297 -44.84 
L 633.133098 -44.84 
L 630.912899 -295.45 
L 628.6927 -44.84 
L 626.472501 -44.84 
L 624.252303 -546.06 
L 622.032104 -546.06 
L 619.811905 -546.06 
L 617.591706 -546.06 
L 615.371507 -546.06 
L 613.151308 -44.84 
L 610.931109 -546.06 
L 608.710911 -546.06 
L 606.490712 -546.06 
L 604.270513 -378.986667 
L 602.050314 -546.06 
L 599.830115 -520.999 
L 597.609916 -546.06 
L 595.389717 -44.84 
L 593.169518 -520.999 
L 590.94932 -470.877 
L 588.729121 -546.06 
L 586.508922 -295.45 
L 584.288723 -546.06 
L 582.068524 -520.999 
L 579.848325 -546.06 
L 577.628126 -510.258571 
L 575.407927 -520.999 
L 573.187729 -520.999 
L 570.96753 -520.999 
L 568.747331 -495.938 
L 566.527132 -546.06 
L 564.306933 -546.06 
L 562.086734 -44.84 
L 559.866535 -546.06 
L 557.646337 -483.4075 
L 555.426138 -295.45 
L 553.205939 -546.06 
L 550.98574 -546.06 
L 548.765541 -546.06 
L 546.545342 -546.06 
L 544.325143 -546.06 
L 542.104944 -546.06 
L 539.884746 -546.06 
L 537.664547 -495.938 
L 535.444348 -402.854286 
L 533.224149 -546.06 
L 531.00395 -462.523333 
L 528.783751 -495.938 
L 526.563552 -546.06 
L 524.343354 -454.929091 
L 522.123155 -546.06 
L 519.902956 -546.06 
L 517.682757 -470.877 
L 515.462558 -546.06 
L 513.242359 -546.06 
L 511.02216 -546.06 
L 508.801961 -495.938 
L 506.581763 -520.999 
L 504.361564 -520.999 
L 502.141365 -445.816 
L 499.921166 -495.938 
L 497.700967 -495.938 
L 495.480768 -500.494545 
L 493.260569 -490.368889 
L 491.04037 -512.645333 
L 488.820172 -445.816 
L 486.599973 -495.938 
L 484.379774 -546.06 
L 482.159575 -420.755 
L 479.939376 -402.854286 
L 477.719177 -462.523333 
L 475.498978 -479.230667 
L 473.27878 -546.06 
L 471.058581 -445.816 
L 468.838382 -546.06 
L 466.618183 -378.986667 
L 464.397984 -546.06 
L 462.177785 -211.913333 
L 459.957586 -295.45 
L 457.737387 -546.06 
L 455.517189 -518.214444 
L 453.29699 -493.3 
L 451.076791 -412.401333 
L 448.856592 -295.45 
L 446.636393 -546.06 
L 444.416194 -546.06 
L 442.195995 -520.999 
L 439.975796 -295.45 
L 437.755598 -490.368889 
L 435.535399 -474.457143 
L 433.3152 -546.06 
L 431.095001 -490.368889 
L 428.874802 -445.816 
L 426.654603 -546.06 
L 424.434404 -483.4075 
L 422.214206 -520.999 
L 419.994007 -546.06 
L 417.773808 -507.504615 
L 415.553609 -474.457143 
L 413.33341 -495.938 
L 411.113211 -520.999 
L 408.893012 -500.494545 
L 406.672813 -44.84 
L 404.452615 -211.913333 
L 402.232416 -546.06 
L 400.012217 -512.645333 
L 397.792018 -546.06 
L 395.571819 -519.68 
L 393.35162 -44.84 
L 391.131421 -531.318235 
L 388.911222 -378.986667 
L 386.691024 -378.986667 
L 384.470825 -501.834706 
L 382.250626 -546.06 
L 380.030427 -345.572 
L 377.810228 -546.06 
L 375.590029 -495.938 
L 373.36983 -470.877 
L 371.149632 -434.677778 
L 368.929433 -462.523333 
L 366.709234 -295.45 
L 364.489035 -546.06 
L 362.268836 -445.816 
L 360.048637 -546.06 
L 357.828438 -546.06 
L 355.608239 -420.755 
L 353.388041 -504.291667 
L 351.167842 -519.68 
L 348.947643 -546.06 
L 346.727444 -470.877 
L 344.507245 -546.06 
L 342.287046 -546.06 
L 340.066847 -420.755 
L 337.846648 -546.06 
L 335.62645 -526.782308 
L 333.406251 -474.457143 
L 331.186052 -470.877 
L 328.965853 -445.816 
L 326.745654 -514.73375 
L 324.525455 -546.06 
L 322.305256 -546.06 
L 320.085058 -546.06 
L 317.864859 -495.938 
L 315.64466 -533.5295 
L 313.424461 -546.06 
L 311.204262 -500.494545 
L 308.984063 -518.214444 
L 306.763864 -495.938 
L 304.543665 -520.999 
L 302.323467 -546.06 
L 300.103268 -520.999 
L 297.883069 -503.098286 
L 295.66287 -546.06 
L 293.442671 -495.938 
L 291.222472 -546.06 
L 289.002273 -546.06 
L 286.782074 -295.45 
L 284.561876 -504.291667 
L 282.341677 -520.999 
L 280.121478 -452.08125 
L 277.901279 -546.06 
L 275.68108 -546.06 
L 273.460881 -518.214444 
L 271.240682 -470.877 
L 269.020484 -546.06 
L 266.800285 -345.572 
L 264.580086 -546.06 
L 262.359887 -546.06 
L 260.139688 -445.816 
L 257.919489 -546.06 
L 255.69929 -546.06 
L 253.479091 -495.938 
L 251.258893 -546.06 
L 249.038694 -490.368889 
L 246.818495 -434.677778 
L 244.598296 -454.929091 
L 242.378097 -520.999 
L 240.157898 -464.781081 
L 237.937699 -378.986667 
L 235.7175 -520.999 
L 233.497302 -546.06 
L 231.277103 -474.457143 
L 229.056904 -44.84 
L 226.836705 -434.677778 
L 224.616506 -546.06 
L 222.396307 -495.938 
L 220.176108 -546.06 
L 217.95591 -546.06 
L 215.735711 -457.609412 
L 213.515512 -546.06 
L 211.295313 -546.06 
L 209.075114 -445.816 
L 206.854915 -428.125882 
L 204.634716 -520.999 
L 202.414517 -500.494545 
L 200.194319 -490.368889 
L 197.97412 -495.938 
L 195.753921 -474.457143 
L 193.533722 -546.06 
L 191.313523 -462.523333 
L 189.093324 -445.816 
L 186.873125 -546.06 
L 184.652927 -546.06 
L 182.432728 -546.06 
L 180.212529 -445.816 
L 177.99233 -520.999 
L 175.772131 -495.938 
L 173.551932 -546.06 
L 171.331733 -519.68 
L 169.111534 -378.986667 
L 166.891336 -434.677778 
L 164.671137 -331.251429 
L 162.450938 -520.999 
L 160.230739 -546.06 
L 158.01054 -546.06 
L 155.790341 -546.06 
L 153.570142 -487.092941 
L 151.349943 -295.45 
L 149.129745 -445.816 
L 146.909546 -546.06 
L 144.689347 -546.06 
L 142.469148 -546.06 
L 140.248949 -462.523333 
L 138.02875 -345.572 
L 135.808551 -511.493103 
L 133.588353 -508.4685 
L 131.368154 -546.06 
L 129.147955 -468.949231 
L 126.927756 -502.475652 
L 124.707557 -516.576471 
L 122.487358 -546.06 
L 120.267159 -295.45 
L 118.04696 -546.06 
L 115.826762 -420.755 
L 113.606563 -295.45 
L 111.386364 -546.06 
L 109.166165 -470.877 
L 106.945966 -470.877 
L 104.725767 -505.9624 
L 102.505568 -474.457143 
L 100.285369 -370.633 
L 98.065171 -520.999 
L 95.844972 -480.683478 
L 93.624773 -420.755 
L 91.404574 -520.999 
L 89.184375 -520.999 
L 86.964176 -546.06 
L 84.743977 -331.251429 
L 82.523779 -546.06 
L 80.30358 -546.06 
L 78.083381 -520.999 
L 75.863182 -470.877 
L 73.642983 -483.4075 
L 71.422784 -546.06 
L 69.202585 -445.816 
L 66.982386 -483.4075 
L 64.762188 -520.999 
L 62.541989 -345.572 
L 60.32179 -479.230667 
L 58.101591 -434.677778 
L 55.881392 -295.45 
L 53.661193 -434.677778 
L 51.440994 -495.938 
L 49.220795 -494.652821 
L 47.000597 -546.06 
L 44.780398 -370.633 
L 42.560199 -452.08125 
L 40.34 -546.06 
z
" style="stroke: #ffffff"/>
    </defs>
    <g clip-path="url(#p79b38964c7)">
     <use xlink:href="#m0c4c14974a" x="0" y="576" style="fill: #d57459; stroke: #ffffff"/>
    </g>
   </g>
   <g id="FillBetweenPolyCollection_3">
    <defs>
     <path id="m3029dace1e" d="M 40.34 -546.06 
L 40.34 -546.06 
L 42.560199 -452.08125 
L 44.780398 -370.633 
L 47.000597 -546.06 
L 49.220795 -494.652821 
L 51.440994 -495.938 
L 53.661193 -434.677778 
L 55.881392 -295.45 
L 58.101591 -434.677778 
L 60.32179 -479.230667 
L 62.541989 -345.572 
L 64.762188 -520.999 
L 66.982386 -483.4075 
L 69.202585 -445.816 
L 71.422784 -546.06 
L 73.642983 -483.4075 
L 75.863182 -470.877 
L 78.083381 -520.999 
L 80.30358 -546.06 
L 82.523779 -546.06 
L 84.743977 -331.251429 
L 86.964176 -546.06 
L 89.184375 -520.999 
L 91.404574 -520.999 
L 93.624773 -420.755 
L 95.844972 -480.683478 
L 98.065171 -520.999 
L 100.285369 -370.633 
L 102.505568 -474.457143 
L 104.725767 -505.9624 
L 106.945966 -470.877 
L 109.166165 -470.877 
L 111.386364 -546.06 
L 113.606563 -295.45 
L 115.826762 -420.755 
L 118.04696 -546.06 
L 120.267159 -295.45 
L 122.487358 -546.06 
L 124.707557 -516.576471 
L 126.927756 -502.475652 
L 129.147955 -468.949231 
L 131.368154 -546.06 
L 133.588353 -508.4685 
L 135.808551 -511.493103 
L 138.02875 -345.572 
L 140.248949 -462.523333 
L 142.469148 -546.06 
L 144.689347 -546.06 
L 146.909546 -546.06 
L 149.129745 -445.816 
L 151.349943 -295.45 
L 153.570142 -487.092941 
L 155.790341 -546.06 
L 158.01054 -546.06 
L 160.230739 -546.06 
L 162.450938 -520.999 
L 164.671137 -331.251429 
L 166.891336 -434.677778 
L 169.111534 -378.986667 
L 171.331733 -519.68 
L 173.551932 -546.06 
L 175.772131 -495.938 
L 177.99233 -520.999 
L 180.212529 -445.816 
L 182.432728 -546.06 
L 184.652927 -546.06 
L 186.873125 -546.06 
L 189.093324 -445.816 
L 191.313523 -462.523333 
L 193.533722 -546.06 
L 195.753921 -474.457143 
L 197.97412 -495.938 
L 200.194319 -490.368889 
L 202.414517 -500.494545 
L 204.634716 -520.999 
L 206.854915 -428.125882 
L 209.075114 -445.816 
L 211.295313 -546.06 
L 213.515512 -546.06 
L 215.735711 -457.609412 
L 217.95591 -546.06 
L 220.176108 -546.06 
L 222.396307 -495.938 
L 224.616506 -546.06 
L 226.836705 -434.677778 
L 229.056904 -44.84 
L 231.277103 -474.457143 
L 233.497302 -546.06 
L 235.7175 -520.999 
L 237.937699 -378.986667 
L 240.157898 -464.781081 
L 242.378097 -520.999 
L 244.598296 -454.929091 
L 246.818495 -434.677778 
L 249.038694 -490.368889 
L 251.258893 -546.06 
L 253.479091 -495.938 
L 255.69929 -546.06 
L 257.919489 -546.06 
L 260.139688 -445.816 
L 262.359887 -546.06 
L 264.580086 -546.06 
L 266.800285 -345.572 
L 269.020484 -546.06 
L 271.240682 -470.877 
L 273.460881 -518.214444 
L 275.68108 -546.06 
L 277.901279 -546.06 
L 280.121478 -452.08125 
L 282.341677 -520.999 
L 284.561876 -504.291667 
L 286.782074 -295.45 
L 289.002273 -546.06 
L 291.222472 -546.06 
L 293.442671 -495.938 
L 295.66287 -546.06 
L 297.883069 -503.098286 
L 300.103268 -520.999 
L 302.323467 -546.06 
L 304.543665 -520.999 
L 306.763864 -495.938 
L 308.984063 -518.214444 
L 311.204262 -500.494545 
L 313.424461 -546.06 
L 315.64466 -533.5295 
L 317.864859 -495.938 
L 320.085058 -546.06 
L 322.305256 -546.06 
L 324.525455 -546.06 
L 326.745654 -514.73375 
L 328.965853 -445.816 
L 331.186052 -470.877 
L 333.406251 -474.457143 
L 335.62645 -526.782308 
L 337.846648 -546.06 
L 340.066847 -420.755 
L 342.287046 -546.06 
L 344.507245 -546.06 
L 346.727444 -470.877 
L 348.947643 -546.06 
L 351.167842 -519.68 
L 353.388041 -504.291667 
L 355.608239 -420.755 
L 357.828438 -546.06 
L 360.048637 -546.06 
L 362.268836 -445.816 
L 364.489035 -546.06 
L 366.709234 -295.45 
L 368.929433 -462.523333 
L 371.149632 -434.677778 
L 373.36983 -470.877 
L 375.590029 -495.938 
L 377.810228 -546.06 
L 380.030427 -345.572 
L 382.250626 -546.06 
L 384.470825 -501.834706 
L 386.691024 -378.986667 
L 388.911222 -378.986667 
L 391.131421 -531.318235 
L 393.35162 -44.84 
L 395.571819 -519.68 
L 397.792018 -546.06 
L 400.012217 -512.645333 
L 402.232416 -546.06 
L 404.452615 -211.913333 
L 406.672813 -44.84 
L 408.893012 -500.494545 
L 411.113211 -520.999 
L 413.33341 -495.938 
L 415.553609 -474.457143 
L 417.773808 -507.504615 
L 419.994007 -546.06 
L 422.214206 -520.999 
L 424.434404 -483.4075 
L 426.654603 -546.06 
L 428.874802 -445.816 
L 431.095001 -490.368889 
L 433.3152 -546.06 
L 435.535399 -474.457143 
L 437.755598 -490.368889 
L 439.975796 -295.45 
L 442.195995 -520.999 
L 444.416194 -546.06 
L 446.636393 -546.06 
L 448.856592 -295.45 
L 451.076791 -412.401333 
L 453.29699 -493.3 
L 455.517189 -518.214444 
L 457.737387 -546.06 
L 459.957586 -295.45 
L 462.177785 -211.913333 
L 464.397984 -546.06 
L 466.618183 -378.986667 
L 468.838382 -546.06 
L 471.058581 -445.816 
L 473.27878 -546.06 
L 475.498978 -479.230667 
L 477.719177 -462.523333 
L 479.939376 -402.854286 
L 482.159575 -420.755 
L 484.379774 -546.06 
L 486.599973 -495.938 
L 488.820172 -445.816 
L 491.04037 -512.645333 
L 493.260569 -490.368889 
L 495.480768 -500.494545 
L 497.700967 -495.938 
L 499.921166 -495.938 
L 502.141365 -445.816 
L 504.361564 -520.999 
L 506.581763 -520.999 
L 508.801961 -495.938 
L 511.02216 -546.06 
L 513.242359 -546.06 
L 515.462558 -546.06 
L 517.682757 -470.877 
L 519.902956 -546.06 
L 522.123155 -546.06 
L 524.343354 -454.929091 
L 526.563552 -546.06 
L 528.783751 -495.938 
L 531.00395 -462.523333 
L 533.224149 -546.06 
L 535.444348 -402.854286 
L 537.664547 -495.938 
L 539.884746 -546.06 
L 542.104944 -546.06 
L 544.325143 -546.06 
L 546.545342 -546.06 
L 548.765541 -546.06 
L 550.98574 -546.06 
L 553.205939 -546.06 
L 555.426138 -295.45 
L 557.646337 -483.4075 
L 559.866535 -546.06 
L 562.086734 -44.84 
L 564.306933 -546.06 
L 566.527132 -546.06 
L 568.747331 -495.938 
L 570.96753 -520.999 
L 573.187729 -520.999 
L 575.407927 -520.999 
L 577.628126 -510.258571 
L 579.848325 -546.06 
L 582.068524 -520.999 
L 584.288723 -546.06 
L 586.508922 -295.45 
L 588.729121 -546.06 
L 590.94932 -470.877 
L 593.169518 -520.999 
L 595.389717 -44.84 
L 597.609916 -546.06 
L 599.830115 -520.999 
L 602.050314 -546.06 
L 604.270513 -378.986667 
L 606.490712 -546.06 
L 608.710911 -546.06 
L 610.931109 -546.06 
L 613.151308 -44.84 
L 615.371507 -546.06 
L 617.591706 -546.06 
L 619.811905 -546.06 
L 622.032104 -546.06 
L 624.252303 -546.06 
L 626.472501 -44.84 
L 628.6927 -44.84 
L 630.912899 -295.45 
L 633.133098 -44.84 
L 635.353297 -44.84 
L 637.573496 -44.84 
L 639.793695 -546.06 
L 642.013894 -44.84 
L 644.234092 -44.84 
L 646.454291 -44.84 
L 648.67449 -295.45 
L 650.894689 -546.06 
L 653.114888 -546.06 
L 655.335087 -546.06 
L 657.555286 -546.06 
L 659.775485 -44.84 
L 661.995683 -546.06 
L 664.215882 -546.06 
L 666.436081 -546.06 
L 668.65628 -546.06 
L 670.876479 -331.251429 
L 670.876479 -546.06 
L 670.876479 -546.06 
L 668.65628 -546.06 
L 666.436081 -546.06 
L 664.215882 -546.06 
L 661.995683 -546.06 
L 659.775485 -44.84 
L 657.555286 -546.06 
L 655.335087 -546.06 
L 653.114888 -546.06 
L 650.894689 -546.06 
L 648.67449 -546.06 
L 646.454291 -44.84 
L 644.234092 -546.06 
L 642.013894 -546.06 
L 639.793695 -546.06 
L 637.573496 -295.45 
L 635.353297 -546.06 
L 633.133098 -546.06 
L 630.912899 -546.06 
L 628.6927 -546.06 
L 626.472501 -44.84 
L 624.252303 -546.06 
L 622.032104 -546.06 
L 619.811905 -546.06 
L 617.591706 -546.06 
L 615.371507 -546.06 
L 613.151308 -546.06 
L 610.931109 -546.06 
L 608.710911 -546.06 
L 606.490712 -546.06 
L 604.270513 -546.06 
L 602.050314 -546.06 
L 599.830115 -520.999 
L 597.609916 -546.06 
L 595.389717 -546.06 
L 593.169518 -546.06 
L 590.94932 -520.999 
L 588.729121 -546.06 
L 586.508922 -546.06 
L 584.288723 -546.06 
L 582.068524 -546.06 
L 579.848325 -546.06 
L 577.628126 -546.06 
L 575.407927 -546.06 
L 573.187729 -546.06 
L 570.96753 -546.06 
L 568.747331 -546.06 
L 566.527132 -546.06 
L 564.306933 -546.06 
L 562.086734 -378.986667 
L 559.866535 -546.06 
L 557.646337 -483.4075 
L 555.426138 -295.45 
L 553.205939 -546.06 
L 550.98574 -546.06 
L 548.765541 -546.06 
L 546.545342 -546.06 
L 544.325143 -546.06 
L 542.104944 -546.06 
L 539.884746 -546.06 
L 537.664547 -546.06 
L 535.444348 -546.06 
L 533.224149 -546.06 
L 531.00395 -462.523333 
L 528.783751 -495.938 
L 526.563552 -546.06 
L 524.343354 -546.06 
L 522.123155 -546.06 
L 519.902956 -546.06 
L 517.682757 -470.877 
L 515.462558 -546.06 
L 513.242359 -546.06 
L 511.02216 -546.06 
L 508.801961 -495.938 
L 506.581763 -520.999 
L 504.361564 -520.999 
L 502.141365 -470.877 
L 499.921166 -495.938 
L 497.700967 -495.938 
L 495.480768 -500.494545 
L 493.260569 -490.368889 
L 491.04037 -512.645333 
L 488.820172 -445.816 
L 486.599973 -495.938 
L 484.379774 -546.06 
L 482.159575 -470.877 
L 479.939376 -474.457143 
L 477.719177 -546.06 
L 475.498978 -546.06 
L 473.27878 -546.06 
L 471.058581 -495.938 
L 468.838382 -546.06 
L 466.618183 -546.06 
L 464.397984 -546.06 
L 462.177785 -546.06 
L 459.957586 -420.755 
L 457.737387 -546.06 
L 455.517189 -546.06 
L 453.29699 -493.3 
L 451.076791 -546.06 
L 448.856592 -420.755 
L 446.636393 -546.06 
L 444.416194 -546.06 
L 442.195995 -520.999 
L 439.975796 -546.06 
L 437.755598 -546.06 
L 435.535399 -546.06 
L 433.3152 -546.06 
L 431.095001 -490.368889 
L 428.874802 -546.06 
L 426.654603 -546.06 
L 424.434404 -483.4075 
L 422.214206 -546.06 
L 419.994007 -546.06 
L 417.773808 -546.06 
L 415.553609 -546.06 
L 413.33341 -495.938 
L 411.113211 -546.06 
L 408.893012 -500.494545 
L 406.672813 -44.84 
L 404.452615 -378.986667 
L 402.232416 -546.06 
L 400.012217 -512.645333 
L 397.792018 -546.06 
L 395.571819 -519.68 
L 393.35162 -44.84 
L 391.131421 -546.06 
L 388.911222 -378.986667 
L 386.691024 -378.986667 
L 384.470825 -531.318235 
L 382.250626 -546.06 
L 380.030427 -445.816 
L 377.810228 -546.06 
L 375.590029 -520.999 
L 373.36983 -495.938 
L 371.149632 -490.368889 
L 368.929433 -546.06 
L 366.709234 -546.06 
L 364.489035 -546.06 
L 362.268836 -445.816 
L 360.048637 -546.06 
L 357.828438 -546.06 
L 355.608239 -483.4075 
L 353.388041 -546.06 
L 351.167842 -519.68 
L 348.947643 -546.06 
L 346.727444 -495.938 
L 344.507245 -546.06 
L 342.287046 -546.06 
L 340.066847 -420.755 
L 337.846648 -546.06 
L 335.62645 -546.06 
L 333.406251 -474.457143 
L 331.186052 -495.938 
L 328.965853 -495.938 
L 326.745654 -546.06 
L 324.525455 -546.06 
L 322.305256 -546.06 
L 320.085058 -546.06 
L 317.864859 -495.938 
L 315.64466 -546.06 
L 313.424461 -546.06 
L 311.204262 -546.06 
L 308.984063 -546.06 
L 306.763864 -546.06 
L 304.543665 -520.999 
L 302.323467 -546.06 
L 300.103268 -520.999 
L 297.883069 -531.739429 
L 295.66287 -546.06 
L 293.442671 -546.06 
L 291.222472 -546.06 
L 289.002273 -546.06 
L 286.782074 -295.45 
L 284.561876 -546.06 
L 282.341677 -546.06 
L 280.121478 -546.06 
L 277.901279 -546.06 
L 275.68108 -546.06 
L 273.460881 -546.06 
L 271.240682 -520.999 
L 269.020484 -546.06 
L 266.800285 -345.572 
L 264.580086 -546.06 
L 262.359887 -546.06 
L 260.139688 -470.877 
L 257.919489 -546.06 
L 255.69929 -546.06 
L 253.479091 -546.06 
L 251.258893 -546.06 
L 249.038694 -546.06 
L 246.818495 -546.06 
L 244.598296 -454.929091 
L 242.378097 -520.999 
L 240.157898 -491.874054 
L 237.937699 -378.986667 
L 235.7175 -520.999 
L 233.497302 -546.06 
L 231.277103 -474.457143 
L 229.056904 -546.06 
L 226.836705 -490.368889 
L 224.616506 -546.06 
L 222.396307 -546.06 
L 220.176108 -546.06 
L 217.95591 -546.06 
L 215.735711 -487.092941 
L 213.515512 -546.06 
L 211.295313 -546.06 
L 209.075114 -445.816 
L 206.854915 -428.125882 
L 204.634716 -520.999 
L 202.414517 -546.06 
L 200.194319 -490.368889 
L 197.97412 -495.938 
L 195.753921 -546.06 
L 193.533722 -546.06 
L 191.313523 -546.06 
L 189.093324 -546.06 
L 186.873125 -546.06 
L 184.652927 -546.06 
L 182.432728 -546.06 
L 180.212529 -546.06 
L 177.99233 -520.999 
L 175.772131 -520.999 
L 173.551932 -546.06 
L 171.331733 -546.06 
L 169.111534 -546.06 
L 166.891336 -434.677778 
L 164.671137 -474.457143 
L 162.450938 -546.06 
L 160.230739 -546.06 
L 158.01054 -546.06 
L 155.790341 -546.06 
L 153.570142 -546.06 
L 151.349943 -546.06 
L 149.129745 -495.938 
L 146.909546 -546.06 
L 144.689347 -546.06 
L 142.469148 -546.06 
L 140.248949 -546.06 
L 138.02875 -345.572 
L 135.808551 -511.493103 
L 133.588353 -508.4685 
L 131.368154 -546.06 
L 129.147955 -546.06 
L 126.927756 -524.267826 
L 124.707557 -546.06 
L 122.487358 -546.06 
L 120.267159 -483.4075 
L 118.04696 -546.06 
L 115.826762 -420.755 
L 113.606563 -295.45 
L 111.386364 -546.06 
L 109.166165 -520.999 
L 106.945966 -520.999 
L 104.725767 -546.06 
L 102.505568 -510.258571 
L 100.285369 -546.06 
L 98.065171 -546.06 
L 95.844972 -546.06 
L 93.624773 -514.73375 
L 91.404574 -546.06 
L 89.184375 -533.5295 
L 86.964176 -546.06 
L 84.743977 -474.457143 
L 82.523779 -546.06 
L 80.30358 -546.06 
L 78.083381 -546.06 
L 75.863182 -546.06 
L 73.642983 -514.73375 
L 71.422784 -546.06 
L 69.202585 -495.938 
L 66.982386 -508.4685 
L 64.762188 -520.999 
L 62.541989 -345.572 
L 60.32179 -546.06 
L 58.101591 -546.06 
L 55.881392 -546.06 
L 53.661193 -546.06 
L 51.440994 -546.06 
L 49.220795 -546.06 
L 47.000597 -546.06 
L 44.780398 -546.06 
L 42.560199 -514.73375 
L 40.34 -546.06 
z
" style="stroke: #ffffff"/>
    </defs>
    <g clip-path="url(#p79b38964c7)">
     <use xlink:href="#m3029dace1e" x="0" y="576" style="fill: #e8bc60; stroke: #ffffff"/>
    </g>
   </g>
   <g id="FillBetweenPolyCollection_4">
    <defs>
     <path id="m269261524a" d="M 40.34 -546.06 
L 40.34 -546.06 
L 42.560199 -514.73375 
L 44.780398 -546.06 
L 47.000597 -546.06 
L 49.220795 -546.06 
L 51.440994 -546.06 
L 53.661193 -546.06 
L 55.881392 -546.06 
L 58.101591 -546.06 
L 60.32179 -546.06 
L 62.541989 -345.572 
L 64.762188 -520.999 
L 66.982386 -508.4685 
L 69.202585 -495.938 
L 71.422784 -546.06 
L 73.642983 -514.73375 
L 75.863182 -546.06 
L 78.083381 -546.06 
L 80.30358 -546.06 
L 82.523779 -546.06 
L 84.743977 -474.457143 
L 86.964176 -546.06 
L 89.184375 -533.5295 
L 91.404574 -546.06 
L 93.624773 -514.73375 
L 95.844972 -546.06 
L 98.065171 -546.06 
L 100.285369 -546.06 
L 102.505568 -510.258571 
L 104.725767 -546.06 
L 106.945966 -520.999 
L 109.166165 -520.999 
L 111.386364 -546.06 
L 113.606563 -295.45 
L 115.826762 -420.755 
L 118.04696 -546.06 
L 120.267159 -483.4075 
L 122.487358 -546.06 
L 124.707557 -546.06 
L 126.927756 -524.267826 
L 129.147955 -546.06 
L 131.368154 -546.06 
L 133.588353 -508.4685 
L 135.808551 -511.493103 
L 138.02875 -345.572 
L 140.248949 -546.06 
L 142.469148 -546.06 
L 144.689347 -546.06 
L 146.909546 -546.06 
L 149.129745 -495.938 
L 151.349943 -546.06 
L 153.570142 -546.06 
L 155.790341 -546.06 
L 158.01054 -546.06 
L 160.230739 -546.06 
L 162.450938 -546.06 
L 164.671137 -474.457143 
L 166.891336 -434.677778 
L 169.111534 -546.06 
L 171.331733 -546.06 
L 173.551932 -546.06 
L 175.772131 -520.999 
L 177.99233 -520.999 
L 180.212529 -546.06 
L 182.432728 -546.06 
L 184.652927 -546.06 
L 186.873125 -546.06 
L 189.093324 -546.06 
L 191.313523 -546.06 
L 193.533722 -546.06 
L 195.753921 -546.06 
L 197.97412 -495.938 
L 200.194319 -490.368889 
L 202.414517 -546.06 
L 204.634716 -520.999 
L 206.854915 -428.125882 
L 209.075114 -445.816 
L 211.295313 -546.06 
L 213.515512 -546.06 
L 215.735711 -487.092941 
L 217.95591 -546.06 
L 220.176108 -546.06 
L 222.396307 -546.06 
L 224.616506 -546.06 
L 226.836705 -490.368889 
L 229.056904 -546.06 
L 231.277103 -474.457143 
L 233.497302 -546.06 
L 235.7175 -520.999 
L 237.937699 -378.986667 
L 240.157898 -491.874054 
L 242.378097 -520.999 
L 244.598296 -454.929091 
L 246.818495 -546.06 
L 249.038694 -546.06 
L 251.258893 -546.06 
L 253.479091 -546.06 
L 255.69929 -546.06 
L 257.919489 -546.06 
L 260.139688 -470.877 
L 262.359887 -546.06 
L 264.580086 -546.06 
L 266.800285 -345.572 
L 269.020484 -546.06 
L 271.240682 -520.999 
L 273.460881 -546.06 
L 275.68108 -546.06 
L 277.901279 -546.06 
L 280.121478 -546.06 
L 282.341677 -546.06 
L 284.561876 -546.06 
L 286.782074 -295.45 
L 289.002273 -546.06 
L 291.222472 -546.06 
L 293.442671 -546.06 
L 295.66287 -546.06 
L 297.883069 -531.739429 
L 300.103268 -520.999 
L 302.323467 -546.06 
L 304.543665 -520.999 
L 306.763864 -546.06 
L 308.984063 -546.06 
L 311.204262 -546.06 
L 313.424461 -546.06 
L 315.64466 -546.06 
L 317.864859 -495.938 
L 320.085058 -546.06 
L 322.305256 -546.06 
L 324.525455 -546.06 
L 326.745654 -546.06 
L 328.965853 -495.938 
L 331.186052 -495.938 
L 333.406251 -474.457143 
L 335.62645 -546.06 
L 337.846648 -546.06 
L 340.066847 -420.755 
L 342.287046 -546.06 
L 344.507245 -546.06 
L 346.727444 -495.938 
L 348.947643 -546.06 
L 351.167842 -519.68 
L 353.388041 -546.06 
L 355.608239 -483.4075 
L 357.828438 -546.06 
L 360.048637 -546.06 
L 362.268836 -445.816 
L 364.489035 -546.06 
L 366.709234 -546.06 
L 368.929433 -546.06 
L 371.149632 -490.368889 
L 373.36983 -495.938 
L 375.590029 -520.999 
L 377.810228 -546.06 
L 380.030427 -445.816 
L 382.250626 -546.06 
L 384.470825 -531.318235 
L 386.691024 -378.986667 
L 388.911222 -378.986667 
L 391.131421 -546.06 
L 393.35162 -44.84 
L 395.571819 -519.68 
L 397.792018 -546.06 
L 400.012217 -512.645333 
L 402.232416 -546.06 
L 404.452615 -378.986667 
L 406.672813 -44.84 
L 408.893012 -500.494545 
L 411.113211 -546.06 
L 413.33341 -495.938 
L 415.553609 -546.06 
L 417.773808 -546.06 
L 419.994007 -546.06 
L 422.214206 -546.06 
L 424.434404 -483.4075 
L 426.654603 -546.06 
L 428.874802 -546.06 
L 431.095001 -490.368889 
L 433.3152 -546.06 
L 435.535399 -546.06 
L 437.755598 -546.06 
L 439.975796 -546.06 
L 442.195995 -520.999 
L 444.416194 -546.06 
L 446.636393 -546.06 
L 448.856592 -420.755 
L 451.076791 -546.06 
L 453.29699 -493.3 
L 455.517189 -546.06 
L 457.737387 -546.06 
L 459.957586 -420.755 
L 462.177785 -546.06 
L 464.397984 -546.06 
L 466.618183 -546.06 
L 468.838382 -546.06 
L 471.058581 -495.938 
L 473.27878 -546.06 
L 475.498978 -546.06 
L 477.719177 -546.06 
L 479.939376 -474.457143 
L 482.159575 -470.877 
L 484.379774 -546.06 
L 486.599973 -495.938 
L 488.820172 -445.816 
L 491.04037 -512.645333 
L 493.260569 -490.368889 
L 495.480768 -500.494545 
L 497.700967 -495.938 
L 499.921166 -495.938 
L 502.141365 -470.877 
L 504.361564 -520.999 
L 506.581763 -520.999 
L 508.801961 -495.938 
L 511.02216 -546.06 
L 513.242359 -546.06 
L 515.462558 -546.06 
L 517.682757 -470.877 
L 519.902956 -546.06 
L 522.123155 -546.06 
L 524.343354 -546.06 
L 526.563552 -546.06 
L 528.783751 -495.938 
L 531.00395 -462.523333 
L 533.224149 -546.06 
L 535.444348 -546.06 
L 537.664547 -546.06 
L 539.884746 -546.06 
L 542.104944 -546.06 
L 544.325143 -546.06 
L 546.545342 -546.06 
L 548.765541 -546.06 
L 550.98574 -546.06 
L 553.205939 -546.06 
L 555.426138 -295.45 
L 557.646337 -483.4075 
L 559.866535 -546.06 
L 562.086734 -378.986667 
L 564.306933 -546.06 
L 566.527132 -546.06 
L 568.747331 -546.06 
L 570.96753 -546.06 
L 573.187729 -546.06 
L 575.407927 -546.06 
L 577.628126 -546.06 
L 579.848325 -546.06 
L 582.068524 -546.06 
L 584.288723 -546.06 
L 586.508922 -546.06 
L 588.729121 -546.06 
L 590.94932 -520.999 
L 593.169518 -546.06 
L 595.389717 -546.06 
L 597.609916 -546.06 
L 599.830115 -520.999 
L 602.050314 -546.06 
L 604.270513 -546.06 
L 606.490712 -546.06 
L 608.710911 -546.06 
L 610.931109 -546.06 
L 613.151308 -546.06 
L 615.371507 -546.06 
L 617.591706 -546.06 
L 619.811905 -546.06 
L 622.032104 -546.06 
L 624.252303 -546.06 
L 626.472501 -44.84 
L 628.6927 -546.06 
L 630.912899 -546.06 
L 633.133098 -546.06 
L 635.353297 -546.06 
L 637.573496 -295.45 
L 639.793695 -546.06 
L 642.013894 -546.06 
L 644.234092 -546.06 
L 646.454291 -44.84 
L 648.67449 -546.06 
L 650.894689 -546.06 
L 653.114888 -546.06 
L 655.335087 -546.06 
L 657.555286 -546.06 
L 659.775485 -44.84 
L 661.995683 -546.06 
L 664.215882 -546.06 
L 666.436081 -546.06 
L 668.65628 -546.06 
L 670.876479 -546.06 
L 670.876479 -546.06 
L 670.876479 -546.06 
L 668.65628 -546.06 
L 666.436081 -546.06 
L 664.215882 -546.06 
L 661.995683 -546.06 
L 659.775485 -546.06 
L 657.555286 -546.06 
L 655.335087 -546.06 
L 653.114888 -546.06 
L 650.894689 -546.06 
L 648.67449 -546.06 
L 646.454291 -546.06 
L 644.234092 -546.06 
L 642.013894 -546.06 
L 639.793695 -546.06 
L 637.573496 -546.06 
L 635.353297 -546.06 
L 633.133098 -546.06 
L 630.912899 -546.06 
L 628.6927 -546.06 
L 626.472501 -546.06 
L 624.252303 -546.06 
L 622.032104 -546.06 
L 619.811905 -546.06 
L 617.591706 -546.06 
L 615.371507 -546.06 
L 613.151308 -546.06 
L 610.931109 -546.06 
L 608.710911 -546.06 
L 606.490712 -546.06 
L 604.270513 -546.06 
L 602.050314 -546.06 
L 599.830115 -546.06 
L 597.609916 -546.06 
L 595.389717 -546.06 
L 593.169518 -546.06 
L 590.94932 -546.06 
L 588.729121 -546.06 
L 586.508922 -546.06 
L 584.288723 -546.06 
L 582.068524 -546.06 
L 579.848325 -546.06 
L 577.628126 -546.06 
L 575.407927 -546.06 
L 573.187729 -546.06 
L 570.96753 -546.06 
L 568.747331 -546.06 
L 566.527132 -546.06 
L 564.306933 -546.06 
L 562.086734 -546.06 
L 559.866535 -546.06 
L 557.646337 -546.06 
L 555.426138 -546.06 
L 553.205939 -546.06 
L 550.98574 -546.06 
L 548.765541 -546.06 
L 546.545342 -546.06 
L 544.325143 -546.06 
L 542.104944 -546.06 
L 539.884746 -546.06 
L 537.664547 -546.06 
L 535.444348 -546.06 
L 533.224149 -546.06 
L 531.00395 -546.06 
L 528.783751 -546.06 
L 526.563552 -546.06 
L 524.343354 -546.06 
L 522.123155 -546.06 
L 519.902956 -546.06 
L 517.682757 -546.06 
L 515.462558 -546.06 
L 513.242359 -546.06 
L 511.02216 -546.06 
L 508.801961 -546.06 
L 506.581763 -546.06 
L 504.361564 -546.06 
L 502.141365 -546.06 
L 499.921166 -546.06 
L 497.700967 -546.06 
L 495.480768 -546.06 
L 493.260569 -546.06 
L 491.04037 -546.06 
L 488.820172 -546.06 
L 486.599973 -546.06 
L 484.379774 -546.06 
L 482.159575 -546.06 
L 479.939376 -546.06 
L 477.719177 -546.06 
L 475.498978 -546.06 
L 473.27878 -546.06 
L 471.058581 -546.06 
L 468.838382 -546.06 
L 466.618183 -546.06 
L 464.397984 -546.06 
L 462.177785 -546.06 
L 459.957586 -546.06 
L 457.737387 -546.06 
L 455.517189 -546.06 
L 453.29699 -546.06 
L 451.076791 -546.06 
L 448.856592 -546.06 
L 446.636393 -546.06 
L 444.416194 -546.06 
L 442.195995 -546.06 
L 439.975796 -546.06 
L 437.755598 -546.06 
L 435.535399 -546.06 
L 433.3152 -546.06 
L 431.095001 -546.06 
L 428.874802 -546.06 
L 426.654603 -546.06 
L 424.434404 -546.06 
L 422.214206 -546.06 
L 419.994007 -546.06 
L 417.773808 -546.06 
L 415.553609 -546.06 
L 413.33341 -546.06 
L 411.113211 -546.06 
L 408.893012 -546.06 
L 406.672813 -546.06 
L 404.452615 -546.06 
L 402.232416 -546.06 
L 400.012217 -546.06 
L 397.792018 -546.06 
L 395.571819 -546.06 
L 393.35162 -546.06 
L 391.131421 -546.06 
L 388.911222 -546.06 
L 386.691024 -546.06 
L 384.470825 -546.06 
L 382.250626 -546.06 
L 380.030427 -546.06 
L 377.810228 -546.06 
L 375.590029 -546.06 
L 373.36983 -546.06 
L 371.149632 -546.06 
L 368.929433 -546.06 
L 366.709234 -546.06 
L 364.489035 -546.06 
L 362.268836 -546.06 
L 360.048637 -546.06 
L 357.828438 -546.06 
L 355.608239 -546.06 
L 353.388041 -546.06 
L 351.167842 -546.06 
L 348.947643 -546.06 
L 346.727444 -546.06 
L 344.507245 -546.06 
L 342.287046 -546.06 
L 340.066847 -546.06 
L 337.846648 -546.06 
L 335.62645 -546.06 
L 333.406251 -546.06 
L 331.186052 -546.06 
L 328.965853 -546.06 
L 326.745654 -546.06 
L 324.525455 -546.06 
L 322.305256 -546.06 
L 320.085058 -546.06 
L 317.864859 -546.06 
L 315.64466 -546.06 
L 313.424461 -546.06 
L 311.204262 -546.06 
L 308.984063 -546.06 
L 306.763864 -546.06 
L 304.543665 -546.06 
L 302.323467 -546.06 
L 300.103268 -546.06 
L 297.883069 -546.06 
L 295.66287 -546.06 
L 293.442671 -546.06 
L 291.222472 -546.06 
L 289.002273 -546.06 
L 286.782074 -546.06 
L 284.561876 -546.06 
L 282.341677 -546.06 
L 280.121478 -546.06 
L 277.901279 -546.06 
L 275.68108 -546.06 
L 273.460881 -546.06 
L 271.240682 -546.06 
L 269.020484 -546.06 
L 266.800285 -546.06 
L 264.580086 -546.06 
L 262.359887 -546.06 
L 260.139688 -546.06 
L 257.919489 -546.06 
L 255.69929 -546.06 
L 253.479091 -546.06 
L 251.258893 -546.06 
L 249.038694 -546.06 
L 246.818495 -546.06 
L 244.598296 -546.06 
L 242.378097 -546.06 
L 240.157898 -546.06 
L 237.937699 -546.06 
L 235.7175 -546.06 
L 233.497302 -546.06 
L 231.277103 -546.06 
L 229.056904 -546.06 
L 226.836705 -546.06 
L 224.616506 -546.06 
L 222.396307 -546.06 
L 220.176108 -546.06 
L 217.95591 -546.06 
L 215.735711 -546.06 
L 213.515512 -546.06 
L 211.295313 -546.06 
L 209.075114 -546.06 
L 206.854915 -546.06 
L 204.634716 -546.06 
L 202.414517 -546.06 
L 200.194319 -546.06 
L 197.97412 -546.06 
L 195.753921 -546.06 
L 193.533722 -546.06 
L 191.313523 -546.06 
L 189.093324 -546.06 
L 186.873125 -546.06 
L 184.652927 -546.06 
L 182.432728 -546.06 
L 180.212529 -546.06 
L 177.99233 -546.06 
L 175.772131 -546.06 
L 173.551932 -546.06 
L 171.331733 -546.06 
L 169.111534 -546.06 
L 166.891336 -546.06 
L 164.671137 -546.06 
L 162.450938 -546.06 
L 160.230739 -546.06 
L 158.01054 -546.06 
L 155.790341 -546.06 
L 153.570142 -546.06 
L 151.349943 -546.06 
L 149.129745 -546.06 
L 146.909546 -546.06 
L 144.689347 -546.06 
L 142.469148 -546.06 
L 140.248949 -546.06 
L 138.02875 -546.06 
L 135.808551 -546.06 
L 133.588353 -546.06 
L 131.368154 -546.06 
L 129.147955 -546.06 
L 126.927756 -546.06 
L 124.707557 -546.06 
L 122.487358 -546.06 
L 120.267159 -546.06 
L 118.04696 -546.06 
L 115.826762 -546.06 
L 113.606563 -546.06 
L 111.386364 -546.06 
L 109.166165 -546.06 
L 106.945966 -546.06 
L 104.725767 -546.06 
L 102.505568 -546.06 
L 100.285369 -546.06 
L 98.065171 -546.06 
L 95.844972 -546.06 
L 93.624773 -546.06 
L 91.404574 -546.06 
L 89.184375 -546.06 
L 86.964176 -546.06 
L 84.743977 -546.06 
L 82.523779 -546.06 
L 80.30358 -546.06 
L 78.083381 -546.06 
L 75.863182 -546.06 
L 73.642983 -546.06 
L 71.422784 -546.06 
L 69.202585 -546.06 
L 66.982386 -546.06 
L 64.762188 -546.06 
L 62.541989 -546.06 
L 60.32179 -546.06 
L 58.101591 -546.06 
L 55.881392 -546.06 
L 53.661193 -546.06 
L 51.440994 -546.06 
L 49.220795 -546.06 
L 47.000597 -546.06 
L 44.780398 -546.06 
L 42.560199 -546.06 
L 40.34 -546.06 
z
" style="stroke: #ffffff"/>
    </defs>
    <g clip-path="url(#p79b38964c7)">
     <use xlink:href="#m269261524a" x="0" y="576" style="fill: #8d5993; stroke: #ffffff"/>
    </g>
   </g>
   <g id="line2d_8">
    <path d="M 40.34 110.592633 
L 670.876479 110.592633 
" clip-path="url(#p79b38964c7)" style="fill: none; stroke-dasharray: 7.5,15; stroke-dashoffset: 0; stroke: #000000; stroke-width: 1.5"/>
   </g>
   <g id="patch_3">
    <path d="M 40.34 531.16 
L 40.34 29.94 
" style="fill: none; stroke: #cccccc; stroke-width: 0.8; stroke-linejoin: miter; stroke-linecap: square"/>
   </g>
   <g id="patch_4">
    <path d="M 670.876479 531.16 
L 670.876479 29.94 
" style="fill: none; stroke: #cccccc; stroke-width: 0.8; stroke-linejoin: miter; stroke-linecap: square"/>
   </g>
   <g id="patch_5">
    <path d="M 40.34 531.16 
L 670.876479 531.16 
" style="fill: none; stroke: #cccccc; stroke-width: 0.8; stroke-linejoin: miter; stroke-linecap: square"/>
   </g>
   <g id="patch_6">
    <path d="M 40.34 29.94 
L 670.876479 29.94 
" style="fill: none; stroke: #cccccc; stroke-width: 0.8; stroke-linejoin: miter; stroke-linecap: square"/>
   </g>
   <g id="text_10">
    <!-- 0.84 -->
    <g transform="translate(686.417871 113.955914) scale(0.14 -0.14)">
     <defs>
      <path id="TimesNewRomanPSMT-30" d="M 231 2094 
Q 231 2819 450 3342 
Q 669 3866 1031 4122 
Q 1313 4325 1613 4325 
Q 2100 4325 2488 3828 
Q 2972 3213 2972 2159 
Q 2972 1422 2759 906 
Q 2547 391 2217 158 
Q 1888 -75 1581 -75 
Q 975 -75 572 641 
Q 231 1244 231 2094 
z
M 844 2016 
Q 844 1141 1059 588 
Q 1238 122 1591 122 
Q 1759 122 1940 273 
Q 2122 425 2216 781 
Q 2359 1319 2359 2297 
Q 2359 3022 2209 3506 
Q 2097 3866 1919 4016 
Q 1791 4119 1609 4119 
Q 1397 4119 1231 3928 
Q 1006 3669 925 3112 
Q 844 2556 844 2016 
z
" transform="scale(0.015625)"/>
      <path id="TimesNewRomanPSMT-2e" d="M 800 606 
Q 947 606 1047 504 
Q 1147 403 1147 259 
Q 1147 116 1045 14 
Q 944 -88 800 -88 
Q 656 -88 554 14 
Q 453 116 453 259 
Q 453 406 554 506 
Q 656 606 800 606 
z
" transform="scale(0.015625)"/>
      <path id="TimesNewRomanPSMT-38" d="M 1228 2134 
Q 725 2547 579 2797 
Q 434 3047 434 3316 
Q 434 3728 753 4026 
Q 1072 4325 1600 4325 
Q 2113 4325 2425 4047 
Q 2738 3769 2738 3413 
Q 2738 3175 2569 2928 
Q 2400 2681 1866 2347 
Q 2416 1922 2594 1678 
Q 2831 1359 2831 1006 
Q 2831 559 2490 242 
Q 2150 -75 1597 -75 
Q 994 -75 656 303 
Q 388 606 388 966 
Q 388 1247 577 1523 
Q 766 1800 1228 2134 
z
M 1719 2469 
Q 2094 2806 2194 3001 
Q 2294 3197 2294 3444 
Q 2294 3772 2109 3958 
Q 1925 4144 1606 4144 
Q 1288 4144 1088 3959 
Q 888 3775 888 3528 
Q 888 3366 970 3203 
Q 1053 3041 1206 2894 
L 1719 2469 
z
M 1375 2016 
Q 1116 1797 991 1539 
Q 866 1281 866 981 
Q 866 578 1086 336 
Q 1306 94 1647 94 
Q 1984 94 2187 284 
Q 2391 475 2391 747 
Q 2391 972 2272 1150 
Q 2050 1481 1375 2016 
z
" transform="scale(0.015625)"/>
      <path id="TimesNewRomanPSMT-34" d="M 2978 1563 
L 2978 1119 
L 2409 1119 
L 2409 0 
L 1894 0 
L 1894 1119 
L 100 1119 
L 100 1519 
L 2066 4325 
L 2409 4325 
L 2409 1563 
L 2978 1563 
z
M 1894 1563 
L 1894 3666 
L 406 1563 
L 1894 1563 
z
" transform="scale(0.015625)"/>
     </defs>
     <use xlink:href="#TimesNewRomanPSMT-30"/>
     <use xlink:href="#TimesNewRomanPSMT-2e" transform="translate(50 0)"/>
     <use xlink:href="#TimesNewRomanPSMT-38" transform="translate(75 0)"/>
     <use xlink:href="#TimesNewRomanPSMT-34" transform="translate(125 0)"/>
    </g>
   </g>
   <g id="text_11">
    <!-- Havanna (Tonkean) -->
    <g style="fill: #262626" transform="translate(270.669177 23.94) scale(0.2 -0.2)">
     <defs>
      <path id="TimesNewRomanPS-BoldMT-48" d="M 1750 2038 
L 1750 725 
Q 1750 400 1786 319 
Q 1822 238 1926 177 
Q 2031 116 2209 116 
L 2350 116 
L 2350 0 
L 134 0 
L 134 116 
L 275 116 
Q 459 116 572 181 
Q 653 225 697 331 
Q 731 406 731 725 
L 731 3513 
Q 731 3838 697 3919 
Q 663 4000 558 4061 
Q 453 4122 275 4122 
L 134 4122 
L 134 4238 
L 2350 4238 
L 2350 4122 
L 2209 4122 
Q 2025 4122 1913 4056 
Q 1831 4013 1784 3906 
Q 1750 3831 1750 3513 
L 1750 2313 
L 3247 2313 
L 3247 3513 
Q 3247 3838 3212 3919 
Q 3178 4000 3072 4061 
Q 2966 4122 2788 4122 
L 2650 4122 
L 2650 4238 
L 4863 4238 
L 4863 4122 
L 4725 4122 
Q 4538 4122 4428 4056 
Q 4347 4013 4300 3906 
Q 4266 3831 4266 3513 
L 4266 725 
Q 4266 400 4300 319 
Q 4334 238 4440 177 
Q 4547 116 4725 116 
L 4863 116 
L 4863 0 
L 2650 0 
L 2650 116 
L 2788 116 
Q 2975 116 3084 181 
Q 3166 225 3213 331 
Q 3247 406 3247 725 
L 3247 2038 
L 1750 2038 
z
" transform="scale(0.015625)"/>
      <path id="TimesNewRomanPS-BoldMT-61" d="M 1828 431 
Q 1294 -41 869 -41 
Q 619 -41 453 123 
Q 288 288 288 534 
Q 288 869 575 1136 
Q 863 1403 1828 1847 
L 1828 2141 
Q 1828 2472 1792 2558 
Q 1756 2644 1656 2708 
Q 1556 2772 1431 2772 
Q 1228 2772 1097 2681 
Q 1016 2625 1016 2550 
Q 1016 2484 1103 2388 
Q 1222 2253 1222 2128 
Q 1222 1975 1108 1867 
Q 994 1759 809 1759 
Q 613 1759 480 1878 
Q 347 1997 347 2156 
Q 347 2381 525 2586 
Q 703 2791 1022 2900 
Q 1341 3009 1684 3009 
Q 2100 3009 2342 2832 
Q 2584 2656 2656 2450 
Q 2700 2319 2700 1847 
L 2700 713 
Q 2700 513 2715 461 
Q 2731 409 2762 384 
Q 2794 359 2834 359 
Q 2916 359 3000 475 
L 3094 400 
Q 2938 169 2770 64 
Q 2603 -41 2391 -41 
Q 2141 -41 2000 76 
Q 1859 194 1828 431 
z
M 1828 659 
L 1828 1638 
Q 1450 1416 1266 1163 
Q 1144 994 1144 822 
Q 1144 678 1247 569 
Q 1325 484 1466 484 
Q 1622 484 1828 659 
z
" transform="scale(0.015625)"/>
      <path id="TimesNewRomanPS-BoldMT-76" d="M 1534 -88 
L 550 2178 
Q 372 2588 272 2697 
Q 200 2778 59 2806 
L 59 2922 
L 1613 2922 
L 1613 2806 
Q 1466 2806 1413 2753 
Q 1338 2684 1338 2591 
Q 1338 2475 1475 2156 
L 1956 1059 
L 2341 2006 
Q 2506 2413 2506 2581 
Q 2506 2678 2436 2739 
Q 2366 2800 2188 2806 
L 2188 2922 
L 3144 2922 
L 3144 2806 
Q 3006 2788 2918 2703 
Q 2831 2619 2656 2206 
L 1681 -88 
L 1534 -88 
z
" transform="scale(0.015625)"/>
      <path id="TimesNewRomanPS-BoldMT-6e" d="M 1409 2922 
L 1409 2544 
Q 1634 2788 1840 2898 
Q 2047 3009 2284 3009 
Q 2569 3009 2756 2851 
Q 2944 2694 3006 2459 
Q 3056 2281 3056 1775 
L 3056 638 
Q 3056 300 3117 217 
Q 3178 134 3372 113 
L 3372 0 
L 1894 0 
L 1894 113 
Q 2059 134 2131 250 
Q 2181 328 2181 638 
L 2181 1938 
Q 2181 2297 2153 2390 
Q 2125 2484 2058 2536 
Q 1991 2588 1909 2588 
Q 1641 2588 1409 2203 
L 1409 638 
Q 1409 309 1470 221 
Q 1531 134 1697 113 
L 1697 0 
L 219 0 
L 219 113 
Q 403 131 481 231 
Q 534 300 534 638 
L 534 2288 
Q 534 2619 473 2700 
Q 413 2781 219 2806 
L 219 2922 
L 1409 2922 
z
" transform="scale(0.015625)"/>
      <path id="TimesNewRomanPS-BoldMT-20" transform="scale(0.015625)"/>
      <path id="TimesNewRomanPS-BoldMT-28" d="M 2056 4334 
L 2056 4191 
Q 1731 3978 1578 3775 
Q 1366 3494 1247 3053 
Q 1097 2506 1097 1525 
Q 1097 600 1233 87 
Q 1369 -425 1603 -741 
Q 1766 -959 2056 -1125 
L 2056 -1281 
Q 1303 -1028 779 -248 
Q 256 531 256 1544 
Q 256 2544 778 3314 
Q 1300 4084 2056 4334 
z
" transform="scale(0.015625)"/>
      <path id="TimesNewRomanPS-BoldMT-54" d="M 4038 4238 
L 4038 3091 
L 3925 3091 
Q 3825 3488 3703 3661 
Q 3581 3834 3369 3938 
Q 3250 3994 2953 3994 
L 2638 3994 
L 2638 725 
Q 2638 400 2673 319 
Q 2709 238 2814 177 
Q 2919 116 3100 116 
L 3241 116 
L 3241 0 
L 1022 0 
L 1022 116 
L 1163 116 
Q 1347 116 1459 181 
Q 1541 225 1588 331 
Q 1622 406 1622 725 
L 1622 3994 
L 1316 3994 
Q 888 3994 694 3813 
Q 422 3559 350 3091 
L 231 3091 
L 231 4238 
L 4038 4238 
z
" transform="scale(0.015625)"/>
      <path id="TimesNewRomanPS-BoldMT-6f" d="M 1594 3009 
Q 1975 3009 2303 2812 
Q 2631 2616 2801 2253 
Q 2972 1891 2972 1459 
Q 2972 838 2656 419 
Q 2275 -88 1603 -88 
Q 944 -88 587 375 
Q 231 838 231 1447 
Q 231 2075 595 2542 
Q 959 3009 1594 3009 
z
M 1606 2788 
Q 1447 2788 1333 2667 
Q 1219 2547 1183 2192 
Q 1147 1838 1147 1206 
Q 1147 872 1191 581 
Q 1225 359 1337 243 
Q 1450 128 1594 128 
Q 1734 128 1828 206 
Q 1950 313 1991 503 
Q 2053 800 2053 1703 
Q 2053 2234 1993 2432 
Q 1934 2631 1819 2722 
Q 1738 2788 1606 2788 
z
" transform="scale(0.015625)"/>
      <path id="TimesNewRomanPS-BoldMT-6b" d="M 1403 4238 
L 1403 1450 
L 2081 2116 
Q 2291 2319 2342 2409 
Q 2394 2500 2394 2584 
Q 2394 2669 2325 2725 
Q 2256 2781 2056 2806 
L 2056 2922 
L 3366 2922 
L 3366 2806 
Q 3178 2797 3037 2717 
Q 2897 2638 2488 2238 
L 2169 1925 
L 2856 919 
Q 3272 306 3350 231 
Q 3456 125 3619 113 
L 3619 0 
L 2109 0 
L 2109 113 
Q 2209 113 2254 150 
Q 2300 188 2300 231 
Q 2300 303 2169 497 
L 1591 1344 
L 1403 1159 
L 1403 634 
Q 1403 300 1465 217 
Q 1528 134 1722 113 
L 1722 0 
L 213 0 
L 213 113 
Q 397 131 475 231 
Q 528 300 528 634 
L 528 3603 
Q 528 3934 467 4015 
Q 406 4097 213 4122 
L 213 4238 
L 1403 4238 
z
" transform="scale(0.015625)"/>
      <path id="TimesNewRomanPS-BoldMT-65" d="M 2691 1566 
L 1088 1566 
Q 1116 984 1397 647 
Q 1613 388 1916 388 
Q 2103 388 2256 492 
Q 2409 597 2584 869 
L 2691 800 
Q 2453 316 2165 114 
Q 1878 -88 1500 -88 
Q 850 -88 516 413 
Q 247 816 247 1413 
Q 247 2144 642 2576 
Q 1038 3009 1569 3009 
Q 2013 3009 2339 2645 
Q 2666 2281 2691 1566 
z
M 1922 1775 
Q 1922 2278 1867 2465 
Q 1813 2653 1697 2750 
Q 1631 2806 1522 2806 
Q 1359 2806 1256 2647 
Q 1072 2369 1072 1884 
L 1072 1775 
L 1922 1775 
z
" transform="scale(0.015625)"/>
      <path id="TimesNewRomanPS-BoldMT-29" d="M 78 -1281 
L 78 -1138 
Q 403 -922 556 -719 
Q 766 -438 888 0 
Q 1038 550 1038 1531 
Q 1038 2456 902 2967 
Q 766 3478 531 3794 
Q 369 4013 78 4178 
L 78 4334 
Q 831 4081 1354 3301 
Q 1878 2522 1878 1509 
Q 1878 513 1354 -257 
Q 831 -1028 78 -1281 
z
" transform="scale(0.015625)"/>
     </defs>
     <use xlink:href="#TimesNewRomanPS-BoldMT-48"/>
     <use xlink:href="#TimesNewRomanPS-BoldMT-61" transform="translate(77.783203 0)"/>
     <use xlink:href="#TimesNewRomanPS-BoldMT-76" transform="translate(127.783203 0)"/>
     <use xlink:href="#TimesNewRomanPS-BoldMT-61" transform="translate(177.783203 0)"/>
     <use xlink:href="#TimesNewRomanPS-BoldMT-6e" transform="translate(227.783203 0)"/>
     <use xlink:href="#TimesNewRomanPS-BoldMT-6e" transform="translate(283.398438 0)"/>
     <use xlink:href="#TimesNewRomanPS-BoldMT-61" transform="translate(339.013672 0)"/>
     <use xlink:href="#TimesNewRomanPS-BoldMT-20" transform="translate(389.013672 0)"/>
     <use xlink:href="#TimesNewRomanPS-BoldMT-28" transform="translate(414.013672 0)"/>
     <use xlink:href="#TimesNewRomanPS-BoldMT-54" transform="translate(447.314453 0)"/>
     <use xlink:href="#TimesNewRomanPS-BoldMT-6f" transform="translate(504.888672 0)"/>
     <use xlink:href="#TimesNewRomanPS-BoldMT-6e" transform="translate(554.888672 0)"/>
     <use xlink:href="#TimesNewRomanPS-BoldMT-6b" transform="translate(610.503906 0)"/>
     <use xlink:href="#TimesNewRomanPS-BoldMT-65" transform="translate(666.119141 0)"/>
     <use xlink:href="#TimesNewRomanPS-BoldMT-61" transform="translate(710.503906 0)"/>
     <use xlink:href="#TimesNewRomanPS-BoldMT-6e" transform="translate(760.503906 0)"/>
     <use xlink:href="#TimesNewRomanPS-BoldMT-29" transform="translate(816.119141 0)"/>
    </g>
   </g>
   <g id="legend_1">
    <g id="patch_7">
     <path d="M 47.34 94.49625 
L 133.236875 94.49625 
Q 135.236875 94.49625 135.236875 92.49625 
L 135.236875 36.94 
Q 135.236875 34.94 133.236875 34.94 
L 47.34 34.94 
Q 45.34 34.94 45.34 36.94 
L 45.34 92.49625 
Q 45.34 94.49625 47.34 94.49625 
z
" style="fill: #ffffff; opacity: 0.8; stroke: #cccccc; stroke-linejoin: miter"/>
    </g>
    <g id="patch_8">
     <path d="M 49.34 45.94 
L 69.34 45.94 
L 69.34 38.94 
L 49.34 38.94 
z
" style="fill: #5386b6; stroke: #ffffff; stroke-linejoin: miter"/>
    </g>
    <g id="text_12">
     <!-- Success -->
     <g style="fill: #262626" transform="translate(77.34 45.94) scale(0.1 -0.1)">
      <use xlink:href="#TimesNewRomanPSMT-53"/>
      <use xlink:href="#TimesNewRomanPSMT-75" transform="translate(55.615234 0)"/>
      <use xlink:href="#TimesNewRomanPSMT-63" transform="translate(105.615234 0)"/>
      <use xlink:href="#TimesNewRomanPSMT-63" transform="translate(150 0)"/>
      <use xlink:href="#TimesNewRomanPSMT-65" transform="translate(194.384766 0)"/>
      <use xlink:href="#TimesNewRomanPSMT-73" transform="translate(238.769531 0)"/>
      <use xlink:href="#TimesNewRomanPSMT-73" transform="translate(277.685547 0)"/>
     </g>
    </g>
    <g id="patch_9">
     <path d="M 49.34 60.079062 
L 69.34 60.079062 
L 69.34 53.079062 
L 49.34 53.079062 
z
" style="fill: #d57459; stroke: #ffffff; stroke-linejoin: miter"/>
    </g>
    <g id="text_13">
     <!-- Error -->
     <g style="fill: #262626" transform="translate(77.34 60.079062) scale(0.1 -0.1)">
      <defs>
       <path id="TimesNewRomanPSMT-45" d="M 1338 4006 
L 1338 2331 
L 2269 2331 
Q 2631 2331 2753 2441 
Q 2916 2584 2934 2947 
L 3050 2947 
L 3050 1472 
L 2934 1472 
Q 2891 1781 2847 1869 
Q 2791 1978 2662 2040 
Q 2534 2103 2269 2103 
L 1338 2103 
L 1338 706 
Q 1338 425 1363 364 
Q 1388 303 1450 267 
Q 1513 231 1688 231 
L 2406 231 
Q 2766 231 2928 281 
Q 3091 331 3241 478 
Q 3434 672 3638 1063 
L 3763 1063 
L 3397 0 
L 131 0 
L 131 116 
L 281 116 
Q 431 116 566 188 
Q 666 238 702 338 
Q 738 438 738 747 
L 738 3500 
Q 738 3903 656 3997 
Q 544 4122 281 4122 
L 131 4122 
L 131 4238 
L 3397 4238 
L 3444 3309 
L 3322 3309 
Q 3256 3644 3176 3769 
Q 3097 3894 2941 3959 
Q 2816 4006 2500 4006 
L 1338 4006 
z
" transform="scale(0.015625)"/>
      </defs>
      <use xlink:href="#TimesNewRomanPSMT-45"/>
      <use xlink:href="#TimesNewRomanPSMT-72" transform="translate(61.083984 0)"/>
      <use xlink:href="#TimesNewRomanPSMT-72" transform="translate(94.384766 0)"/>
      <use xlink:href="#TimesNewRomanPSMT-6f" transform="translate(127.685547 0)"/>
      <use xlink:href="#TimesNewRomanPSMT-72" transform="translate(177.685547 0)"/>
     </g>
    </g>
    <g id="patch_10">
     <path d="M 49.34 74.218125 
L 69.34 74.218125 
L 69.34 67.218125 
L 49.34 67.218125 
z
" style="fill: #e8bc60; stroke: #ffffff; stroke-linejoin: miter"/>
    </g>
    <g id="text_14">
     <!-- Premature -->
     <g style="fill: #262626" transform="translate(77.34 74.218125) scale(0.1 -0.1)">
      <defs>
       <path id="TimesNewRomanPSMT-6d" d="M 1050 2338 
Q 1363 2650 1419 2697 
Q 1559 2816 1721 2881 
Q 1884 2947 2044 2947 
Q 2313 2947 2506 2790 
Q 2700 2634 2766 2338 
Q 3088 2713 3309 2830 
Q 3531 2947 3766 2947 
Q 3994 2947 4170 2830 
Q 4347 2713 4450 2447 
Q 4519 2266 4519 1878 
L 4519 647 
Q 4519 378 4559 278 
Q 4591 209 4675 161 
Q 4759 113 4950 113 
L 4950 0 
L 3538 0 
L 3538 113 
L 3597 113 
Q 3781 113 3884 184 
Q 3956 234 3988 344 
Q 4000 397 4000 647 
L 4000 1878 
Q 4000 2228 3916 2372 
Q 3794 2572 3525 2572 
Q 3359 2572 3192 2489 
Q 3025 2406 2788 2181 
L 2781 2147 
L 2788 2013 
L 2788 647 
Q 2788 353 2820 281 
Q 2853 209 2943 161 
Q 3034 113 3253 113 
L 3253 0 
L 1806 0 
L 1806 113 
Q 2044 113 2133 169 
Q 2222 225 2256 338 
Q 2272 391 2272 647 
L 2272 1878 
Q 2272 2228 2169 2381 
Q 2031 2581 1784 2581 
Q 1616 2581 1450 2491 
Q 1191 2353 1050 2181 
L 1050 647 
Q 1050 366 1089 281 
Q 1128 197 1204 155 
Q 1281 113 1516 113 
L 1516 0 
L 100 0 
L 100 113 
Q 297 113 375 155 
Q 453 197 493 289 
Q 534 381 534 647 
L 534 1741 
Q 534 2213 506 2350 
Q 484 2453 437 2492 
Q 391 2531 309 2531 
Q 222 2531 100 2484 
L 53 2597 
L 916 2947 
L 1050 2947 
L 1050 2338 
z
" transform="scale(0.015625)"/>
      </defs>
      <use xlink:href="#TimesNewRomanPSMT-50"/>
      <use xlink:href="#TimesNewRomanPSMT-72" transform="translate(55.615234 0)"/>
      <use xlink:href="#TimesNewRomanPSMT-65" transform="translate(88.916016 0)"/>
      <use xlink:href="#TimesNewRomanPSMT-6d" transform="translate(133.300781 0)"/>
      <use xlink:href="#TimesNewRomanPSMT-61" transform="translate(211.083984 0)"/>
      <use xlink:href="#TimesNewRomanPSMT-74" transform="translate(255.46875 0)"/>
      <use xlink:href="#TimesNewRomanPSMT-75" transform="translate(283.251953 0)"/>
      <use xlink:href="#TimesNewRomanPSMT-72" transform="translate(333.251953 0)"/>
      <use xlink:href="#TimesNewRomanPSMT-65" transform="translate(366.552734 0)"/>
     </g>
    </g>
    <g id="patch_11">
     <path d="M 49.34 88.357187 
L 69.34 88.357187 
L 69.34 81.357187 
L 49.34 81.357187 
z
" style="fill: #8d5993; stroke: #ffffff; stroke-linejoin: miter"/>
    </g>
    <g id="text_15">
     <!-- Stepomission -->
     <g style="fill: #262626" transform="translate(77.34 88.357187) scale(0.1 -0.1)">
      <use xlink:href="#TimesNewRomanPSMT-53"/>
      <use xlink:href="#TimesNewRomanPSMT-74" transform="translate(55.615234 0)"/>
      <use xlink:href="#TimesNewRomanPSMT-65" transform="translate(83.398438 0)"/>
      <use xlink:href="#TimesNewRomanPSMT-70" transform="translate(127.783203 0)"/>
      <use xlink:href="#TimesNewRomanPSMT-6f" transform="translate(177.783203 0)"/>
      <use xlink:href="#TimesNewRomanPSMT-6d" transform="translate(227.783203 0)"/>
      <use xlink:href="#TimesNewRomanPSMT-69" transform="translate(305.566406 0)"/>
      <use xlink:href="#TimesNewRomanPSMT-73" transform="translate(333.349609 0)"/>
      <use xlink:href="#TimesNewRomanPSMT-73" transform="translate(372.265625 0)"/>
      <use xlink:href="#TimesNewRomanPSMT-69" transform="translate(411.181641 0)"/>
      <use xlink:href="#TimesNewRomanPSMT-6f" transform="translate(438.964844 0)"/>
      <use xlink:href="#TimesNewRomanPSMT-6e" transform="translate(488.964844 0)"/>
     </g>
    </g>
   </g>
  </g>
 </g>
 <defs>
  <clipPath id="p79b38964c7">
   <rect x="40.34" y="29.94" width="630.536479" height="501.22"/>
  </clipPath>
 </defs>
</svg>
