<?xml version="1.0" encoding="utf-8" standalone="no"?>
<!DOCTYPE svg PUBLIC "-//W3C//DTD SVG 1.1//EN"
  "http://www.w3.org/Graphics/SVG/1.1/DTD/svg11.dtd">
<svg xmlns:xlink="http://www.w3.org/1999/xlink" width="720pt" height="576pt" viewBox="0 0 720 576" xmlns="http://www.w3.org/2000/svg" version="1.1">
 <metadata>
  <rdf:RDF xmlns:dc="http://purl.org/dc/elements/1.1/" xmlns:cc="http://creativecommons.org/ns#" xmlns:rdf="http://www.w3.org/1999/02/22-rdf-syntax-ns#">
   <cc:Work>
    <dc:type rdf:resource="http://purl.org/dc/dcmitype/StillImage"/>
    <dc:date>2025-07-03T15:54:54.088388</dc:date>
    <dc:format>image/svg+xml</dc:format>
    <dc:creator>
     <cc:Agent>
      <dc:title>Matplotlib v3.10.3, https://matplotlib.org/</dc:title>
     </cc:Agent>
    </dc:creator>
   </cc:Work>
  </rdf:RDF>
 </metadata>
 <defs>
  <style type="text/css">*{stroke-linejoin: round; stroke-linecap: butt}</style>
 </defs>
 <g id="figure_1">
  <g id="patch_1">
   <path d="M 0 576 
L 720 576 
L 720 0 
L 0 0 
z
" style="fill: #ffffff"/>
  </g>
  <g id="axes_1">
   <g id="patch_2">
    <path d="M 40.34 531.16 
L 664.509231 531.16 
L 664.509231 30.2775 
L 40.34 30.2775 
z
" style="fill: #ffffff"/>
   </g>
   <g id="matplotlib.axis_1">
    <g id="xtick_1">
     <g id="line2d_1">
      <path d="M 117.160828 531.16 
L 117.160828 30.2775 
" clip-path="url(#p9c5ff01a42)" style="fill: none; stroke-dasharray: 2.96,1.28; stroke-dashoffset: 0; stroke: #cccccc; stroke-opacity: 0.5; stroke-width: 0.8"/>
     </g>
     <g id="text_1">
      <!-- 25 -->
      <g style="fill: #262626" transform="translate(111.599891 545.317813) scale(0.1 -0.1)">
       <defs>
        <path id="ArialMT-32" d="M 3222 541 
L 3222 0 
L 194 0 
Q 188 203 259 391 
Q 375 700 629 1000 
Q 884 1300 1366 1694 
Q 2113 2306 2375 2664 
Q 2638 3022 2638 3341 
Q 2638 3675 2398 3904 
Q 2159 4134 1775 4134 
Q 1369 4134 1125 3890 
Q 881 3647 878 3216 
L 300 3275 
Q 359 3922 746 4261 
Q 1134 4600 1788 4600 
Q 2447 4600 2831 4234 
Q 3216 3869 3216 3328 
Q 3216 3053 3103 2787 
Q 2991 2522 2730 2228 
Q 2469 1934 1863 1422 
Q 1356 997 1212 845 
Q 1069 694 975 541 
L 3222 541 
z
" transform="scale(0.015625)"/>
        <path id="ArialMT-35" d="M 266 1200 
L 856 1250 
Q 922 819 1161 601 
Q 1400 384 1738 384 
Q 2144 384 2425 690 
Q 2706 997 2706 1503 
Q 2706 1984 2436 2262 
Q 2166 2541 1728 2541 
Q 1456 2541 1237 2417 
Q 1019 2294 894 2097 
L 366 2166 
L 809 4519 
L 3088 4519 
L 3088 3981 
L 1259 3981 
L 1013 2750 
Q 1425 3038 1878 3038 
Q 2478 3038 2890 2622 
Q 3303 2206 3303 1553 
Q 3303 931 2941 478 
Q 2500 -78 1738 -78 
Q 1113 -78 717 272 
Q 322 622 266 1200 
z
" transform="scale(0.015625)"/>
       </defs>
       <use xlink:href="#ArialMT-32"/>
       <use xlink:href="#ArialMT-35" transform="translate(55.615234 0)"/>
      </g>
     </g>
    </g>
    <g id="xtick_2">
     <g id="line2d_2">
      <path d="M 197.182525 531.16 
L 197.182525 30.2775 
" clip-path="url(#p9c5ff01a42)" style="fill: none; stroke-dasharray: 2.96,1.28; stroke-dashoffset: 0; stroke: #cccccc; stroke-opacity: 0.5; stroke-width: 0.8"/>
     </g>
     <g id="text_2">
      <!-- 50 -->
      <g style="fill: #262626" transform="translate(191.621587 545.317813) scale(0.1 -0.1)">
       <defs>
        <path id="ArialMT-30" d="M 266 2259 
Q 266 3072 433 3567 
Q 600 4063 929 4331 
Q 1259 4600 1759 4600 
Q 2128 4600 2406 4451 
Q 2684 4303 2865 4023 
Q 3047 3744 3150 3342 
Q 3253 2941 3253 2259 
Q 3253 1453 3087 958 
Q 2922 463 2592 192 
Q 2263 -78 1759 -78 
Q 1097 -78 719 397 
Q 266 969 266 2259 
z
M 844 2259 
Q 844 1131 1108 757 
Q 1372 384 1759 384 
Q 2147 384 2411 759 
Q 2675 1134 2675 2259 
Q 2675 3391 2411 3762 
Q 2147 4134 1753 4134 
Q 1366 4134 1134 3806 
Q 844 3388 844 2259 
z
" transform="scale(0.015625)"/>
       </defs>
       <use xlink:href="#ArialMT-35"/>
       <use xlink:href="#ArialMT-30" transform="translate(55.615234 0)"/>
      </g>
     </g>
    </g>
    <g id="xtick_3">
     <g id="line2d_3">
      <path d="M 277.204221 531.16 
L 277.204221 30.2775 
" clip-path="url(#p9c5ff01a42)" style="fill: none; stroke-dasharray: 2.96,1.28; stroke-dashoffset: 0; stroke: #cccccc; stroke-opacity: 0.5; stroke-width: 0.8"/>
     </g>
     <g id="text_3">
      <!-- 75 -->
      <g style="fill: #262626" transform="translate(271.643283 545.317813) scale(0.1 -0.1)">
       <defs>
        <path id="ArialMT-37" d="M 303 3981 
L 303 4522 
L 3269 4522 
L 3269 4084 
Q 2831 3619 2401 2847 
Q 1972 2075 1738 1259 
Q 1569 684 1522 0 
L 944 0 
Q 953 541 1156 1306 
Q 1359 2072 1739 2783 
Q 2119 3494 2547 3981 
L 303 3981 
z
" transform="scale(0.015625)"/>
       </defs>
       <use xlink:href="#ArialMT-37"/>
       <use xlink:href="#ArialMT-35" transform="translate(55.615234 0)"/>
      </g>
     </g>
    </g>
    <g id="xtick_4">
     <g id="line2d_4">
      <path d="M 357.225917 531.16 
L 357.225917 30.2775 
" clip-path="url(#p9c5ff01a42)" style="fill: none; stroke-dasharray: 2.96,1.28; stroke-dashoffset: 0; stroke: #cccccc; stroke-opacity: 0.5; stroke-width: 0.8"/>
     </g>
     <g id="text_4">
      <!-- 100 -->
      <g style="fill: #262626" transform="translate(348.884511 545.317813) scale(0.1 -0.1)">
       <defs>
        <path id="ArialMT-31" d="M 2384 0 
L 1822 0 
L 1822 3584 
Q 1619 3391 1289 3197 
Q 959 3003 697 2906 
L 697 3450 
Q 1169 3672 1522 3987 
Q 1875 4303 2022 4600 
L 2384 4600 
L 2384 0 
z
" transform="scale(0.015625)"/>
       </defs>
       <use xlink:href="#ArialMT-31"/>
       <use xlink:href="#ArialMT-30" transform="translate(55.615234 0)"/>
       <use xlink:href="#ArialMT-30" transform="translate(111.230469 0)"/>
      </g>
     </g>
    </g>
    <g id="xtick_5">
     <g id="line2d_5">
      <path d="M 437.247613 531.16 
L 437.247613 30.2775 
" clip-path="url(#p9c5ff01a42)" style="fill: none; stroke-dasharray: 2.96,1.28; stroke-dashoffset: 0; stroke: #cccccc; stroke-opacity: 0.5; stroke-width: 0.8"/>
     </g>
     <g id="text_5">
      <!-- 125 -->
      <g style="fill: #262626" transform="translate(428.906207 545.317813) scale(0.1 -0.1)">
       <use xlink:href="#ArialMT-31"/>
       <use xlink:href="#ArialMT-32" transform="translate(55.615234 0)"/>
       <use xlink:href="#ArialMT-35" transform="translate(111.230469 0)"/>
      </g>
     </g>
    </g>
    <g id="xtick_6">
     <g id="line2d_6">
      <path d="M 517.26931 531.16 
L 517.26931 30.2775 
" clip-path="url(#p9c5ff01a42)" style="fill: none; stroke-dasharray: 2.96,1.28; stroke-dashoffset: 0; stroke: #cccccc; stroke-opacity: 0.5; stroke-width: 0.8"/>
     </g>
     <g id="text_6">
      <!-- 150 -->
      <g style="fill: #262626" transform="translate(508.927903 545.317813) scale(0.1 -0.1)">
       <use xlink:href="#ArialMT-31"/>
       <use xlink:href="#ArialMT-35" transform="translate(55.615234 0)"/>
       <use xlink:href="#ArialMT-30" transform="translate(111.230469 0)"/>
      </g>
     </g>
    </g>
    <g id="xtick_7">
     <g id="line2d_7">
      <path d="M 597.291006 531.16 
L 597.291006 30.2775 
" clip-path="url(#p9c5ff01a42)" style="fill: none; stroke-dasharray: 2.96,1.28; stroke-dashoffset: 0; stroke: #cccccc; stroke-opacity: 0.5; stroke-width: 0.8"/>
     </g>
     <g id="text_7">
      <!-- 175 -->
      <g style="fill: #262626" transform="translate(588.9496 545.317813) scale(0.1 -0.1)">
       <use xlink:href="#ArialMT-31"/>
       <use xlink:href="#ArialMT-37" transform="translate(55.615234 0)"/>
       <use xlink:href="#ArialMT-35" transform="translate(111.230469 0)"/>
      </g>
     </g>
    </g>
    <g id="text_8">
     <!-- Session Count -->
     <g style="fill: #262626" transform="translate(312.166959 561.026563) scale(0.14 -0.14)">
      <defs>
       <path id="TimesNewRomanPSMT-53" d="M 2934 4334 
L 2934 2869 
L 2819 2869 
Q 2763 3291 2617 3541 
Q 2472 3791 2203 3937 
Q 1934 4084 1647 4084 
Q 1322 4084 1109 3886 
Q 897 3688 897 3434 
Q 897 3241 1031 3081 
Q 1225 2847 1953 2456 
Q 2547 2138 2764 1967 
Q 2981 1797 3098 1565 
Q 3216 1334 3216 1081 
Q 3216 600 2842 251 
Q 2469 -97 1881 -97 
Q 1697 -97 1534 -69 
Q 1438 -53 1133 45 
Q 828 144 747 144 
Q 669 144 623 97 
Q 578 50 556 -97 
L 441 -97 
L 441 1356 
L 556 1356 
Q 638 900 775 673 
Q 913 447 1195 297 
Q 1478 147 1816 147 
Q 2206 147 2432 353 
Q 2659 559 2659 841 
Q 2659 997 2573 1156 
Q 2488 1316 2306 1453 
Q 2184 1547 1640 1851 
Q 1097 2156 867 2337 
Q 638 2519 519 2737 
Q 400 2956 400 3219 
Q 400 3675 750 4004 
Q 1100 4334 1641 4334 
Q 1978 4334 2356 4169 
Q 2531 4091 2603 4091 
Q 2684 4091 2736 4139 
Q 2788 4188 2819 4334 
L 2934 4334 
z
" transform="scale(0.015625)"/>
       <path id="TimesNewRomanPSMT-65" d="M 681 1784 
Q 678 1147 991 784 
Q 1303 422 1725 422 
Q 2006 422 2214 576 
Q 2422 731 2563 1106 
L 2659 1044 
Q 2594 616 2278 264 
Q 1963 -88 1488 -88 
Q 972 -88 605 314 
Q 238 716 238 1394 
Q 238 2128 614 2539 
Q 991 2950 1559 2950 
Q 2041 2950 2350 2633 
Q 2659 2316 2659 1784 
L 681 1784 
z
M 681 1966 
L 2006 1966 
Q 1991 2241 1941 2353 
Q 1863 2528 1708 2628 
Q 1553 2728 1384 2728 
Q 1125 2728 920 2526 
Q 716 2325 681 1966 
z
" transform="scale(0.015625)"/>
       <path id="TimesNewRomanPSMT-73" d="M 2050 2947 
L 2050 1972 
L 1947 1972 
Q 1828 2431 1642 2597 
Q 1456 2763 1169 2763 
Q 950 2763 815 2647 
Q 681 2531 681 2391 
Q 681 2216 781 2091 
Q 878 1963 1175 1819 
L 1631 1597 
Q 2266 1288 2266 781 
Q 2266 391 1970 151 
Q 1675 -88 1309 -88 
Q 1047 -88 709 6 
Q 606 38 541 38 
Q 469 38 428 -44 
L 325 -44 
L 325 978 
L 428 978 
Q 516 541 762 319 
Q 1009 97 1316 97 
Q 1531 97 1667 223 
Q 1803 350 1803 528 
Q 1803 744 1651 891 
Q 1500 1038 1047 1263 
Q 594 1488 453 1669 
Q 313 1847 313 2119 
Q 313 2472 555 2709 
Q 797 2947 1181 2947 
Q 1350 2947 1591 2875 
Q 1750 2828 1803 2828 
Q 1853 2828 1881 2850 
Q 1909 2872 1947 2947 
L 2050 2947 
z
" transform="scale(0.015625)"/>
       <path id="TimesNewRomanPSMT-69" d="M 928 4444 
Q 1059 4444 1151 4351 
Q 1244 4259 1244 4128 
Q 1244 3997 1151 3903 
Q 1059 3809 928 3809 
Q 797 3809 703 3903 
Q 609 3997 609 4128 
Q 609 4259 701 4351 
Q 794 4444 928 4444 
z
M 1188 2947 
L 1188 647 
Q 1188 378 1227 289 
Q 1266 200 1342 156 
Q 1419 113 1622 113 
L 1622 0 
L 231 0 
L 231 113 
Q 441 113 512 153 
Q 584 194 626 287 
Q 669 381 669 647 
L 669 1750 
Q 669 2216 641 2353 
Q 619 2453 572 2492 
Q 525 2531 444 2531 
Q 356 2531 231 2484 
L 188 2597 
L 1050 2947 
L 1188 2947 
z
" transform="scale(0.015625)"/>
       <path id="TimesNewRomanPSMT-6f" d="M 1600 2947 
Q 2250 2947 2644 2453 
Q 2978 2031 2978 1484 
Q 2978 1100 2793 706 
Q 2609 313 2286 112 
Q 1963 -88 1566 -88 
Q 919 -88 538 428 
Q 216 863 216 1403 
Q 216 1797 411 2186 
Q 606 2575 925 2761 
Q 1244 2947 1600 2947 
z
M 1503 2744 
Q 1338 2744 1170 2645 
Q 1003 2547 900 2300 
Q 797 2053 797 1666 
Q 797 1041 1045 587 
Q 1294 134 1700 134 
Q 2003 134 2200 384 
Q 2397 634 2397 1244 
Q 2397 2006 2069 2444 
Q 1847 2744 1503 2744 
z
" transform="scale(0.015625)"/>
       <path id="TimesNewRomanPSMT-6e" d="M 1034 2341 
Q 1538 2947 1994 2947 
Q 2228 2947 2397 2830 
Q 2566 2713 2666 2444 
Q 2734 2256 2734 1869 
L 2734 647 
Q 2734 375 2778 278 
Q 2813 200 2889 156 
Q 2966 113 3172 113 
L 3172 0 
L 1756 0 
L 1756 113 
L 1816 113 
Q 2016 113 2095 173 
Q 2175 234 2206 353 
Q 2219 400 2219 647 
L 2219 1819 
Q 2219 2209 2117 2386 
Q 2016 2563 1775 2563 
Q 1403 2563 1034 2156 
L 1034 647 
Q 1034 356 1069 288 
Q 1113 197 1189 155 
Q 1266 113 1500 113 
L 1500 0 
L 84 0 
L 84 113 
L 147 113 
Q 366 113 442 223 
Q 519 334 519 647 
L 519 1709 
Q 519 2225 495 2337 
Q 472 2450 423 2490 
Q 375 2531 294 2531 
Q 206 2531 84 2484 
L 38 2597 
L 900 2947 
L 1034 2947 
L 1034 2341 
z
" transform="scale(0.015625)"/>
       <path id="TimesNewRomanPSMT-20" transform="scale(0.015625)"/>
       <path id="TimesNewRomanPSMT-43" d="M 3853 4334 
L 3950 2894 
L 3853 2894 
Q 3659 3541 3300 3825 
Q 2941 4109 2438 4109 
Q 2016 4109 1675 3895 
Q 1334 3681 1139 3212 
Q 944 2744 944 2047 
Q 944 1472 1128 1050 
Q 1313 628 1683 403 
Q 2053 178 2528 178 
Q 2941 178 3256 354 
Q 3572 531 3950 1056 
L 4047 994 
Q 3728 428 3303 165 
Q 2878 -97 2294 -97 
Q 1241 -97 663 684 
Q 231 1266 231 2053 
Q 231 2688 515 3219 
Q 800 3750 1298 4042 
Q 1797 4334 2388 4334 
Q 2847 4334 3294 4109 
Q 3425 4041 3481 4041 
Q 3566 4041 3628 4100 
Q 3709 4184 3744 4334 
L 3853 4334 
z
" transform="scale(0.015625)"/>
       <path id="TimesNewRomanPSMT-75" d="M 2709 2863 
L 2709 1128 
Q 2709 631 2732 520 
Q 2756 409 2807 365 
Q 2859 322 2928 322 
Q 3025 322 3147 375 
L 3191 266 
L 2334 -88 
L 2194 -88 
L 2194 519 
Q 1825 119 1631 15 
Q 1438 -88 1222 -88 
Q 981 -88 804 51 
Q 628 191 559 409 
Q 491 628 491 1028 
L 491 2306 
Q 491 2509 447 2587 
Q 403 2666 317 2708 
Q 231 2750 6 2747 
L 6 2863 
L 1009 2863 
L 1009 947 
Q 1009 547 1148 422 
Q 1288 297 1484 297 
Q 1619 297 1789 381 
Q 1959 466 2194 703 
L 2194 2325 
Q 2194 2569 2105 2655 
Q 2016 2741 1734 2747 
L 1734 2863 
L 2709 2863 
z
" transform="scale(0.015625)"/>
       <path id="TimesNewRomanPSMT-74" d="M 1031 3803 
L 1031 2863 
L 1700 2863 
L 1700 2644 
L 1031 2644 
L 1031 788 
Q 1031 509 1111 412 
Q 1191 316 1316 316 
Q 1419 316 1516 380 
Q 1613 444 1666 569 
L 1788 569 
Q 1678 263 1478 108 
Q 1278 -47 1066 -47 
Q 922 -47 784 33 
Q 647 113 581 261 
Q 516 409 516 719 
L 516 2644 
L 63 2644 
L 63 2747 
Q 234 2816 414 2980 
Q 594 3144 734 3369 
Q 806 3488 934 3803 
L 1031 3803 
z
" transform="scale(0.015625)"/>
      </defs>
      <use xlink:href="#TimesNewRomanPSMT-53"/>
      <use xlink:href="#TimesNewRomanPSMT-65" transform="translate(55.615234 0)"/>
      <use xlink:href="#TimesNewRomanPSMT-73" transform="translate(100 0)"/>
      <use xlink:href="#TimesNewRomanPSMT-73" transform="translate(138.916016 0)"/>
      <use xlink:href="#TimesNewRomanPSMT-69" transform="translate(177.832031 0)"/>
      <use xlink:href="#TimesNewRomanPSMT-6f" transform="translate(205.615234 0)"/>
      <use xlink:href="#TimesNewRomanPSMT-6e" transform="translate(255.615234 0)"/>
      <use xlink:href="#TimesNewRomanPSMT-20" transform="translate(305.615234 0)"/>
      <use xlink:href="#TimesNewRomanPSMT-43" transform="translate(330.615234 0)"/>
      <use xlink:href="#TimesNewRomanPSMT-6f" transform="translate(397.314453 0)"/>
      <use xlink:href="#TimesNewRomanPSMT-75" transform="translate(447.314453 0)"/>
      <use xlink:href="#TimesNewRomanPSMT-6e" transform="translate(497.314453 0)"/>
      <use xlink:href="#TimesNewRomanPSMT-74" transform="translate(547.314453 0)"/>
     </g>
    </g>
   </g>
   <g id="matplotlib.axis_2">
    <g id="ytick_1">
     <g id="line2d_8">
      <path d="M 40.34 531.16 
L 664.509231 531.16 
" clip-path="url(#p9c5ff01a42)" style="fill: none; stroke-dasharray: 2.96,1.28; stroke-dashoffset: 0; stroke: #cccccc; stroke-opacity: 0.5; stroke-width: 0.8"/>
     </g>
     <g id="text_9">
      <!-- 0 -->
      <g style="fill: #262626" transform="translate(27.779063 534.738906) scale(0.1 -0.1)">
       <use xlink:href="#ArialMT-30"/>
      </g>
     </g>
    </g>
    <g id="ytick_2">
     <g id="line2d_9">
      <path d="M 40.34 30.2775 
L 664.509231 30.2775 
" clip-path="url(#p9c5ff01a42)" style="fill: none; stroke-dasharray: 2.96,1.28; stroke-dashoffset: 0; stroke: #cccccc; stroke-opacity: 0.5; stroke-width: 0.8"/>
     </g>
     <g id="text_10">
      <!-- 1 -->
      <g style="fill: #262626" transform="translate(27.779063 33.856406) scale(0.1 -0.1)">
       <use xlink:href="#ArialMT-31"/>
      </g>
     </g>
    </g>
    <g id="text_11">
     <!-- Stacked Proportion -->
     <g style="fill: #262626" transform="translate(20.784375 334.571719) rotate(-90) scale(0.14 -0.14)">
      <defs>
       <path id="TimesNewRomanPSMT-61" d="M 1822 413 
Q 1381 72 1269 19 
Q 1100 -59 909 -59 
Q 613 -59 420 144 
Q 228 347 228 678 
Q 228 888 322 1041 
Q 450 1253 767 1440 
Q 1084 1628 1822 1897 
L 1822 2009 
Q 1822 2438 1686 2597 
Q 1550 2756 1291 2756 
Q 1094 2756 978 2650 
Q 859 2544 859 2406 
L 866 2225 
Q 866 2081 792 2003 
Q 719 1925 600 1925 
Q 484 1925 411 2006 
Q 338 2088 338 2228 
Q 338 2497 613 2722 
Q 888 2947 1384 2947 
Q 1766 2947 2009 2819 
Q 2194 2722 2281 2516 
Q 2338 2381 2338 1966 
L 2338 994 
Q 2338 584 2353 492 
Q 2369 400 2405 369 
Q 2441 338 2488 338 
Q 2538 338 2575 359 
Q 2641 400 2828 588 
L 2828 413 
Q 2478 -56 2159 -56 
Q 2006 -56 1915 50 
Q 1825 156 1822 413 
z
M 1822 616 
L 1822 1706 
Q 1350 1519 1213 1441 
Q 966 1303 859 1153 
Q 753 1003 753 825 
Q 753 600 887 451 
Q 1022 303 1197 303 
Q 1434 303 1822 616 
z
" transform="scale(0.015625)"/>
       <path id="TimesNewRomanPSMT-63" d="M 2631 1088 
Q 2516 522 2178 217 
Q 1841 -88 1431 -88 
Q 944 -88 581 321 
Q 219 731 219 1428 
Q 219 2103 620 2525 
Q 1022 2947 1584 2947 
Q 2006 2947 2278 2723 
Q 2550 2500 2550 2259 
Q 2550 2141 2473 2067 
Q 2397 1994 2259 1994 
Q 2075 1994 1981 2113 
Q 1928 2178 1911 2362 
Q 1894 2547 1784 2644 
Q 1675 2738 1481 2738 
Q 1169 2738 978 2506 
Q 725 2200 725 1697 
Q 725 1184 976 792 
Q 1228 400 1656 400 
Q 1963 400 2206 609 
Q 2378 753 2541 1131 
L 2631 1088 
z
" transform="scale(0.015625)"/>
       <path id="TimesNewRomanPSMT-6b" d="M 1047 4444 
L 1047 1594 
L 1775 2259 
Q 2006 2472 2044 2528 
Q 2069 2566 2069 2603 
Q 2069 2666 2017 2711 
Q 1966 2756 1847 2763 
L 1847 2863 
L 3091 2863 
L 3091 2763 
Q 2834 2756 2664 2684 
Q 2494 2613 2291 2428 
L 1556 1750 
L 2291 822 
Q 2597 438 2703 334 
Q 2853 188 2966 144 
Q 3044 113 3238 113 
L 3238 0 
L 1847 0 
L 1847 113 
Q 1966 116 2008 148 
Q 2050 181 2050 241 
Q 2050 313 1925 472 
L 1047 1594 
L 1047 644 
Q 1047 366 1086 278 
Q 1125 191 1197 153 
Q 1269 116 1509 113 
L 1509 0 
L 53 0 
L 53 113 
Q 272 113 381 166 
Q 447 200 481 272 
Q 528 375 528 628 
L 528 3234 
Q 528 3731 506 3842 
Q 484 3953 434 3995 
Q 384 4038 303 4038 
Q 238 4038 106 3984 
L 53 4094 
L 903 4444 
L 1047 4444 
z
" transform="scale(0.015625)"/>
       <path id="TimesNewRomanPSMT-64" d="M 2222 322 
Q 2013 103 1813 7 
Q 1613 -88 1381 -88 
Q 913 -88 563 304 
Q 213 697 213 1313 
Q 213 1928 600 2439 
Q 988 2950 1597 2950 
Q 1975 2950 2222 2709 
L 2222 3238 
Q 2222 3728 2198 3840 
Q 2175 3953 2125 3993 
Q 2075 4034 2000 4034 
Q 1919 4034 1784 3984 
L 1744 4094 
L 2597 4444 
L 2738 4444 
L 2738 1134 
Q 2738 631 2761 520 
Q 2784 409 2836 365 
Q 2888 322 2956 322 
Q 3041 322 3181 375 
L 3216 266 
L 2366 -88 
L 2222 -88 
L 2222 322 
z
M 2222 541 
L 2222 2016 
Q 2203 2228 2109 2403 
Q 2016 2578 1861 2667 
Q 1706 2756 1559 2756 
Q 1284 2756 1069 2509 
Q 784 2184 784 1559 
Q 784 928 1059 592 
Q 1334 256 1672 256 
Q 1956 256 2222 541 
z
" transform="scale(0.015625)"/>
       <path id="TimesNewRomanPSMT-50" d="M 1313 1984 
L 1313 750 
Q 1313 350 1400 253 
Q 1519 116 1759 116 
L 1922 116 
L 1922 0 
L 106 0 
L 106 116 
L 266 116 
Q 534 116 650 291 
Q 713 388 713 750 
L 713 3488 
Q 713 3888 628 3984 
Q 506 4122 266 4122 
L 106 4122 
L 106 4238 
L 1659 4238 
Q 2228 4238 2556 4120 
Q 2884 4003 3109 3725 
Q 3334 3447 3334 3066 
Q 3334 2547 2992 2222 
Q 2650 1897 2025 1897 
Q 1872 1897 1694 1919 
Q 1516 1941 1313 1984 
z
M 1313 2163 
Q 1478 2131 1606 2115 
Q 1734 2100 1825 2100 
Q 2150 2100 2386 2351 
Q 2622 2603 2622 3003 
Q 2622 3278 2509 3514 
Q 2397 3750 2190 3867 
Q 1984 3984 1722 3984 
Q 1563 3984 1313 3925 
L 1313 2163 
z
" transform="scale(0.015625)"/>
       <path id="TimesNewRomanPSMT-72" d="M 1038 2947 
L 1038 2303 
Q 1397 2947 1775 2947 
Q 1947 2947 2059 2842 
Q 2172 2738 2172 2600 
Q 2172 2478 2090 2393 
Q 2009 2309 1897 2309 
Q 1788 2309 1652 2417 
Q 1516 2525 1450 2525 
Q 1394 2525 1328 2463 
Q 1188 2334 1038 2041 
L 1038 669 
Q 1038 431 1097 309 
Q 1138 225 1241 169 
Q 1344 113 1538 113 
L 1538 0 
L 72 0 
L 72 113 
Q 291 113 397 181 
Q 475 231 506 341 
Q 522 394 522 644 
L 522 1753 
Q 522 2253 501 2348 
Q 481 2444 426 2487 
Q 372 2531 291 2531 
Q 194 2531 72 2484 
L 41 2597 
L 906 2947 
L 1038 2947 
z
" transform="scale(0.015625)"/>
       <path id="TimesNewRomanPSMT-70" d="M -6 2578 
L 875 2934 
L 994 2934 
L 994 2266 
Q 1216 2644 1439 2795 
Q 1663 2947 1909 2947 
Q 2341 2947 2628 2609 
Q 2981 2197 2981 1534 
Q 2981 794 2556 309 
Q 2206 -88 1675 -88 
Q 1444 -88 1275 -22 
Q 1150 25 994 166 
L 994 -706 
Q 994 -1000 1030 -1079 
Q 1066 -1159 1155 -1206 
Q 1244 -1253 1478 -1253 
L 1478 -1369 
L -22 -1369 
L -22 -1253 
L 56 -1253 
Q 228 -1256 350 -1188 
Q 409 -1153 442 -1076 
Q 475 -1000 475 -688 
L 475 2019 
Q 475 2297 450 2372 
Q 425 2447 370 2484 
Q 316 2522 222 2522 
Q 147 2522 31 2478 
L -6 2578 
z
M 994 2081 
L 994 1013 
Q 994 666 1022 556 
Q 1066 375 1236 237 
Q 1406 100 1666 100 
Q 1978 100 2172 344 
Q 2425 663 2425 1241 
Q 2425 1897 2138 2250 
Q 1938 2494 1663 2494 
Q 1513 2494 1366 2419 
Q 1253 2363 994 2081 
z
" transform="scale(0.015625)"/>
      </defs>
      <use xlink:href="#TimesNewRomanPSMT-53"/>
      <use xlink:href="#TimesNewRomanPSMT-74" transform="translate(55.615234 0)"/>
      <use xlink:href="#TimesNewRomanPSMT-61" transform="translate(83.398438 0)"/>
      <use xlink:href="#TimesNewRomanPSMT-63" transform="translate(127.783203 0)"/>
      <use xlink:href="#TimesNewRomanPSMT-6b" transform="translate(172.167969 0)"/>
      <use xlink:href="#TimesNewRomanPSMT-65" transform="translate(222.167969 0)"/>
      <use xlink:href="#TimesNewRomanPSMT-64" transform="translate(266.552734 0)"/>
      <use xlink:href="#TimesNewRomanPSMT-20" transform="translate(316.552734 0)"/>
      <use xlink:href="#TimesNewRomanPSMT-50" transform="translate(341.552734 0)"/>
      <use xlink:href="#TimesNewRomanPSMT-72" transform="translate(397.167969 0)"/>
      <use xlink:href="#TimesNewRomanPSMT-6f" transform="translate(430.46875 0)"/>
      <use xlink:href="#TimesNewRomanPSMT-70" transform="translate(480.46875 0)"/>
      <use xlink:href="#TimesNewRomanPSMT-6f" transform="translate(530.46875 0)"/>
      <use xlink:href="#TimesNewRomanPSMT-72" transform="translate(580.46875 0)"/>
      <use xlink:href="#TimesNewRomanPSMT-74" transform="translate(613.769531 0)"/>
      <use xlink:href="#TimesNewRomanPSMT-69" transform="translate(641.552734 0)"/>
      <use xlink:href="#TimesNewRomanPSMT-6f" transform="translate(669.335938 0)"/>
      <use xlink:href="#TimesNewRomanPSMT-6e" transform="translate(719.335938 0)"/>
     </g>
    </g>
   </g>
   <g id="FillBetweenPolyCollection_1">
    <defs>
     <path id="m75c2a7e492" d="M 40.34 -420.501875 
L 40.34 -44.84 
L 43.540868 -44.84 
L 46.741736 -44.84 
L 49.942604 -44.84 
L 53.143471 -44.84 
L 56.344339 -44.84 
L 59.545207 -44.84 
L 62.746075 -44.84 
L 65.946943 -44.84 
L 69.147811 -44.84 
L 72.348679 -44.84 
L 75.549546 -44.84 
L 78.750414 -44.84 
L 81.951282 -44.84 
L 85.15215 -44.84 
L 88.353018 -44.84 
L 91.553886 -44.84 
L 94.754753 -44.84 
L 97.955621 -44.84 
L 101.156489 -44.84 
L 104.357357 -44.84 
L 107.558225 -44.84 
L 110.759093 -44.84 
L 113.959961 -44.84 
L 117.160828 -44.84 
L 120.361696 -44.84 
L 123.562564 -44.84 
L 126.763432 -44.84 
L 129.9643 -44.84 
L 133.165168 -44.84 
L 136.366036 -44.84 
L 139.566903 -44.84 
L 142.767771 -44.84 
L 145.968639 -44.84 
L 149.169507 -44.84 
L 152.370375 -44.84 
L 155.571243 -44.84 
L 158.77211 -44.84 
L 161.972978 -44.84 
L 165.173846 -44.84 
L 168.374714 -44.84 
L 171.575582 -44.84 
L 174.77645 -44.84 
L 177.977318 -44.84 
L 181.178185 -44.84 
L 184.379053 -44.84 
L 187.579921 -44.84 
L 190.780789 -44.84 
L 193.981657 -44.84 
L 197.182525 -44.84 
L 200.383393 -44.84 
L 203.58426 -44.84 
L 206.785128 -44.84 
L 209.985996 -44.84 
L 213.186864 -44.84 
L 216.387732 -44.84 
L 219.5886 -44.84 
L 222.789467 -44.84 
L 225.990335 -44.84 
L 229.191203 -44.84 
L 232.392071 -44.84 
L 235.592939 -44.84 
L 238.793807 -44.84 
L 241.994675 -44.84 
L 245.195542 -44.84 
L 248.39641 -44.84 
L 251.597278 -44.84 
L 254.798146 -44.84 
L 257.999014 -44.84 
L 261.199882 -44.84 
L 264.40075 -44.84 
L 267.601617 -44.84 
L 270.802485 -44.84 
L 274.003353 -44.84 
L 277.204221 -44.84 
L 280.405089 -44.84 
L 283.605957 -44.84 
L 286.806824 -44.84 
L 290.007692 -44.84 
L 293.20856 -44.84 
L 296.409428 -44.84 
L 299.610296 -44.84 
L 302.811164 -44.84 
L 306.012032 -44.84 
L 309.212899 -44.84 
L 312.413767 -44.84 
L 315.614635 -44.84 
L 318.815503 -44.84 
L 322.016371 -44.84 
L 325.217239 -44.84 
L 328.418107 -44.84 
L 331.618974 -44.84 
L 334.819842 -44.84 
L 338.02071 -44.84 
L 341.221578 -44.84 
L 344.422446 -44.84 
L 347.623314 -44.84 
L 350.824181 -44.84 
L 354.025049 -44.84 
L 357.225917 -44.84 
L 360.426785 -44.84 
L 363.627653 -44.84 
L 366.828521 -44.84 
L 370.029389 -44.84 
L 373.230256 -44.84 
L 376.431124 -44.84 
L 379.631992 -44.84 
L 382.83286 -44.84 
L 386.033728 -44.84 
L 389.234596 -44.84 
L 392.435464 -44.84 
L 395.636331 -44.84 
L 398.837199 -44.84 
L 402.038067 -44.84 
L 405.238935 -44.84 
L 408.439803 -44.84 
L 411.640671 -44.84 
L 414.841538 -44.84 
L 418.042406 -44.84 
L 421.243274 -44.84 
L 424.444142 -44.84 
L 427.64501 -44.84 
L 430.845878 -44.84 
L 434.046746 -44.84 
L 437.247613 -44.84 
L 440.448481 -44.84 
L 443.649349 -44.84 
L 446.850217 -44.84 
L 450.051085 -44.84 
L 453.251953 -44.84 
L 456.452821 -44.84 
L 459.653688 -44.84 
L 462.854556 -44.84 
L 466.055424 -44.84 
L 469.256292 -44.84 
L 472.45716 -44.84 
L 475.658028 -44.84 
L 478.858895 -44.84 
L 482.059763 -44.84 
L 485.260631 -44.84 
L 488.461499 -44.84 
L 491.662367 -44.84 
L 494.863235 -44.84 
L 498.064103 -44.84 
L 501.26497 -44.84 
L 504.465838 -44.84 
L 507.666706 -44.84 
L 510.867574 -44.84 
L 514.068442 -44.84 
L 517.26931 -44.84 
L 520.470178 -44.84 
L 523.671045 -44.84 
L 526.871913 -44.84 
L 530.072781 -44.84 
L 533.273649 -44.84 
L 536.474517 -44.84 
L 539.675385 -44.84 
L 542.876252 -44.84 
L 546.07712 -44.84 
L 549.277988 -44.84 
L 552.478856 -44.84 
L 555.679724 -44.84 
L 558.880592 -44.84 
L 562.08146 -44.84 
L 565.282327 -44.84 
L 568.483195 -44.84 
L 571.684063 -44.84 
L 574.884931 -44.84 
L 578.085799 -44.84 
L 581.286667 -44.84 
L 584.487535 -44.84 
L 587.688402 -44.84 
L 590.88927 -44.84 
L 594.090138 -44.84 
L 597.291006 -44.84 
L 600.491874 -44.84 
L 603.692742 -44.84 
L 606.893609 -44.84 
L 610.094477 -44.84 
L 613.295345 -44.84 
L 616.496213 -44.84 
L 619.697081 -44.84 
L 622.897949 -44.84 
L 626.098817 -44.84 
L 629.299684 -44.84 
L 632.500552 -44.84 
L 635.70142 -44.84 
L 638.902288 -44.84 
L 642.103156 -44.84 
L 645.304024 -44.84 
L 648.504892 -44.84 
L 651.705759 -44.84 
L 654.906627 -44.84 
L 658.107495 -44.84 
L 661.308363 -44.84 
L 664.509231 -44.84 
L 664.509231 -520.678375 
L 664.509231 -520.678375 
L 661.308363 -545.7225 
L 658.107495 -545.7225 
L 654.906627 -545.7225 
L 651.705759 -490.068889 
L 648.504892 -520.678375 
L 645.304024 -545.7225 
L 642.103156 -495.63425 
L 638.902288 -470.590125 
L 635.70142 -483.112188 
L 632.500552 -545.7225 
L 629.299684 -474.167857 
L 626.098817 -378.761667 
L 622.897949 -495.63425 
L 619.697081 -545.7225 
L 616.496213 -507.193077 
L 613.295345 -520.678375 
L 610.094477 -545.7225 
L 606.893609 -512.330333 
L 603.692742 -545.7225 
L 600.491874 -545.7225 
L 597.291006 -420.501875 
L 594.090138 -545.7225 
L 590.88927 -420.501875 
L 587.688402 -545.7225 
L 584.487535 -490.068889 
L 581.286667 -500.187727 
L 578.085799 -514.417344 
L 574.884931 -295.28125 
L 571.684063 -492.998026 
L 568.483195 -545.7225 
L 565.282327 -545.7225 
L 562.08146 -495.63425 
L 558.880592 -520.678375 
L 555.679724 -470.590125 
L 552.478856 -495.63425 
L 549.277988 -470.590125 
L 546.07712 -495.63425 
L 542.876252 -545.7225 
L 539.675385 -445.546 
L 536.474517 -495.63425 
L 533.273649 -434.415278 
L 530.072781 -445.546 
L 526.871913 -520.678375 
L 523.671045 -495.63425 
L 520.470178 -520.678375 
L 517.26931 -483.112188 
L 514.068442 -495.63425 
L 510.867574 -462.242083 
L 507.666706 -430.134231 
L 504.465838 -495.63425 
L 501.26497 -545.7225 
L 498.064103 -512.330333 
L 494.863235 -445.546 
L 491.662367 -545.7225 
L 488.461499 -509.945179 
L 485.260631 -466.635789 
L 482.059763 -492.998026 
L 478.858895 -545.7225 
L 475.658028 -295.28125 
L 472.45716 -545.7225 
L 469.256292 -545.7225 
L 466.055424 -445.546 
L 462.854556 -545.7225 
L 459.653688 -420.501875 
L 456.452821 -545.7225 
L 453.251953 -545.7225 
L 450.051085 -500.187727 
L 446.850217 -211.800833 
L 443.649349 -378.761667 
L 440.448481 -545.7225 
L 437.247613 -445.546 
L 434.046746 -44.84 
L 430.845878 -440.273553 
L 427.64501 -412.153833 
L 424.444142 -545.7225 
L 421.243274 -520.678375 
L 418.042406 -520.678375 
L 414.841538 -445.546 
L 411.640671 -545.7225 
L 408.439803 -545.7225 
L 405.238935 -545.7225 
L 402.038067 -545.7225 
L 398.837199 -492.998026 
L 395.636331 -545.7225 
L 392.435464 -420.501875 
L 389.234596 -545.7225 
L 386.033728 -545.7225 
L 382.83286 -295.28125 
L 379.631992 -514.417344 
L 376.431124 -378.761667 
L 373.230256 -445.546 
L 370.029389 -295.28125 
L 366.828521 -44.84 
L 363.627653 -545.7225 
L 360.426785 -44.84 
L 357.225917 -495.63425 
L 354.025049 -445.546 
L 350.824181 -211.800833 
L 347.623314 -462.242083 
L 344.422446 -545.7225 
L 341.221578 -545.7225 
L 338.02071 -445.546 
L 334.819842 -545.7225 
L 331.618974 -490.068889 
L 328.418107 -545.7225 
L 325.217239 -545.7225 
L 322.016371 -545.7225 
L 318.815503 -545.7225 
L 315.614635 -545.7225 
L 312.413767 -454.652955 
L 309.212899 -545.7225 
L 306.012032 -545.7225 
L 302.811164 -545.7225 
L 299.610296 -545.7225 
L 296.409428 -545.7225 
L 293.20856 -474.167857 
L 290.007692 -545.7225 
L 286.806824 -545.7225 
L 283.605957 -503.982292 
L 280.405089 -545.7225 
L 277.204221 -466.635789 
L 274.003353 -495.63425 
L 270.802485 -445.546 
L 267.601617 -512.330333 
L 264.40075 -430.134231 
L 261.199882 -378.761667 
L 257.999014 -545.7225 
L 254.798146 -545.7225 
L 251.597278 -445.546 
L 248.39641 -545.7225 
L 245.195542 -44.84 
L 241.994675 -457.331471 
L 238.793807 -470.590125 
L 235.592939 -420.501875 
L 232.392071 -462.242083 
L 229.191203 -509.945179 
L 225.990335 -483.112188 
L 222.789467 -545.7225 
L 219.5886 -420.501875 
L 216.387732 -545.7225 
L 213.186864 -430.134231 
L 209.985996 -445.546 
L 206.785128 -295.28125 
L 203.58426 -445.546 
L 200.383393 -495.63425 
L 197.182525 -495.63425 
L 193.981657 -427.092434 
L 190.780789 -495.63425 
L 187.579921 -520.678375 
L 184.379053 -470.590125 
L 181.178185 -495.63425 
L 177.977318 -492.998026 
L 174.77645 -468.663654 
L 171.575582 -545.7225 
L 168.374714 -545.7225 
L 165.173846 -545.7225 
L 161.972978 -545.7225 
L 158.77211 -466.635789 
L 155.571243 -545.7225 
L 152.370375 -474.167857 
L 149.169507 -295.28125 
L 145.968639 -545.7225 
L 142.767771 -420.501875 
L 139.566903 -545.7225 
L 136.366036 -466.635789 
L 133.165168 -545.7225 
L 129.9643 -545.7225 
L 126.763432 -545.7225 
L 123.562564 -545.7225 
L 120.361696 -295.28125 
L 117.160828 -345.3695 
L 113.959961 -378.761667 
L 110.759093 -295.28125 
L 107.558225 -545.7225 
L 104.357357 -545.7225 
L 101.156489 -545.7225 
L 97.955621 -402.613214 
L 94.754753 -295.28125 
L 91.553886 -545.7225 
L 88.353018 -545.7225 
L 85.15215 -545.7225 
L 81.951282 -545.7225 
L 78.750414 -545.7225 
L 75.549546 -545.7225 
L 72.348679 -445.546 
L 69.147811 -545.7225 
L 65.946943 -545.7225 
L 62.746075 -545.7225 
L 59.545207 -245.193 
L 56.344339 -545.7225 
L 53.143471 -378.761667 
L 49.942604 -378.761667 
L 46.741736 -211.800833 
L 43.540868 -545.7225 
L 40.34 -420.501875 
z
" style="stroke: #ffffff"/>
    </defs>
    <g clip-path="url(#p9c5ff01a42)">
     <use xlink:href="#m75c2a7e492" x="0" y="576" style="fill: #5386b6; stroke: #ffffff"/>
    </g>
   </g>
   <g id="FillBetweenPolyCollection_2">
    <defs>
     <path id="m1a2c8f4724" d="M 40.34 -545.7225 
L 40.34 -420.501875 
L 43.540868 -545.7225 
L 46.741736 -211.800833 
L 49.942604 -378.761667 
L 53.143471 -378.761667 
L 56.344339 -545.7225 
L 59.545207 -245.193 
L 62.746075 -545.7225 
L 65.946943 -545.7225 
L 69.147811 -545.7225 
L 72.348679 -445.546 
L 75.549546 -545.7225 
L 78.750414 -545.7225 
L 81.951282 -545.7225 
L 85.15215 -545.7225 
L 88.353018 -545.7225 
L 91.553886 -545.7225 
L 94.754753 -295.28125 
L 97.955621 -402.613214 
L 101.156489 -545.7225 
L 104.357357 -545.7225 
L 107.558225 -545.7225 
L 110.759093 -295.28125 
L 113.959961 -378.761667 
L 117.160828 -345.3695 
L 120.361696 -295.28125 
L 123.562564 -545.7225 
L 126.763432 -545.7225 
L 129.9643 -545.7225 
L 133.165168 -545.7225 
L 136.366036 -466.635789 
L 139.566903 -545.7225 
L 142.767771 -420.501875 
L 145.968639 -545.7225 
L 149.169507 -295.28125 
L 152.370375 -474.167857 
L 155.571243 -545.7225 
L 158.77211 -466.635789 
L 161.972978 -545.7225 
L 165.173846 -545.7225 
L 168.374714 -545.7225 
L 171.575582 -545.7225 
L 174.77645 -468.663654 
L 177.977318 -492.998026 
L 181.178185 -495.63425 
L 184.379053 -470.590125 
L 187.579921 -520.678375 
L 190.780789 -495.63425 
L 193.981657 -427.092434 
L 197.182525 -495.63425 
L 200.383393 -495.63425 
L 203.58426 -445.546 
L 206.785128 -295.28125 
L 209.985996 -445.546 
L 213.186864 -430.134231 
L 216.387732 -545.7225 
L 219.5886 -420.501875 
L 222.789467 -545.7225 
L 225.990335 -483.112188 
L 229.191203 -509.945179 
L 232.392071 -462.242083 
L 235.592939 -420.501875 
L 238.793807 -470.590125 
L 241.994675 -457.331471 
L 245.195542 -44.84 
L 248.39641 -545.7225 
L 251.597278 -445.546 
L 254.798146 -545.7225 
L 257.999014 -545.7225 
L 261.199882 -378.761667 
L 264.40075 -430.134231 
L 267.601617 -512.330333 
L 270.802485 -445.546 
L 274.003353 -495.63425 
L 277.204221 -466.635789 
L 280.405089 -545.7225 
L 283.605957 -503.982292 
L 286.806824 -545.7225 
L 290.007692 -545.7225 
L 293.20856 -474.167857 
L 296.409428 -545.7225 
L 299.610296 -545.7225 
L 302.811164 -545.7225 
L 306.012032 -545.7225 
L 309.212899 -545.7225 
L 312.413767 -454.652955 
L 315.614635 -545.7225 
L 318.815503 -545.7225 
L 322.016371 -545.7225 
L 325.217239 -545.7225 
L 328.418107 -545.7225 
L 331.618974 -490.068889 
L 334.819842 -545.7225 
L 338.02071 -445.546 
L 341.221578 -545.7225 
L 344.422446 -545.7225 
L 347.623314 -462.242083 
L 350.824181 -211.800833 
L 354.025049 -445.546 
L 357.225917 -495.63425 
L 360.426785 -44.84 
L 363.627653 -545.7225 
L 366.828521 -44.84 
L 370.029389 -295.28125 
L 373.230256 -445.546 
L 376.431124 -378.761667 
L 379.631992 -514.417344 
L 382.83286 -295.28125 
L 386.033728 -545.7225 
L 389.234596 -545.7225 
L 392.435464 -420.501875 
L 395.636331 -545.7225 
L 398.837199 -492.998026 
L 402.038067 -545.7225 
L 405.238935 -545.7225 
L 408.439803 -545.7225 
L 411.640671 -545.7225 
L 414.841538 -445.546 
L 418.042406 -520.678375 
L 421.243274 -520.678375 
L 424.444142 -545.7225 
L 427.64501 -412.153833 
L 430.845878 -440.273553 
L 434.046746 -44.84 
L 437.247613 -445.546 
L 440.448481 -545.7225 
L 443.649349 -378.761667 
L 446.850217 -211.800833 
L 450.051085 -500.187727 
L 453.251953 -545.7225 
L 456.452821 -545.7225 
L 459.653688 -420.501875 
L 462.854556 -545.7225 
L 466.055424 -445.546 
L 469.256292 -545.7225 
L 472.45716 -545.7225 
L 475.658028 -295.28125 
L 478.858895 -545.7225 
L 482.059763 -492.998026 
L 485.260631 -466.635789 
L 488.461499 -509.945179 
L 491.662367 -545.7225 
L 494.863235 -445.546 
L 498.064103 -512.330333 
L 501.26497 -545.7225 
L 504.465838 -495.63425 
L 507.666706 -430.134231 
L 510.867574 -462.242083 
L 514.068442 -495.63425 
L 517.26931 -483.112188 
L 520.470178 -520.678375 
L 523.671045 -495.63425 
L 526.871913 -520.678375 
L 530.072781 -445.546 
L 533.273649 -434.415278 
L 536.474517 -495.63425 
L 539.675385 -445.546 
L 542.876252 -545.7225 
L 546.07712 -495.63425 
L 549.277988 -470.590125 
L 552.478856 -495.63425 
L 555.679724 -470.590125 
L 558.880592 -520.678375 
L 562.08146 -495.63425 
L 565.282327 -545.7225 
L 568.483195 -545.7225 
L 571.684063 -492.998026 
L 574.884931 -295.28125 
L 578.085799 -514.417344 
L 581.286667 -500.187727 
L 584.487535 -490.068889 
L 587.688402 -545.7225 
L 590.88927 -420.501875 
L 594.090138 -545.7225 
L 597.291006 -420.501875 
L 600.491874 -545.7225 
L 603.692742 -545.7225 
L 606.893609 -512.330333 
L 610.094477 -545.7225 
L 613.295345 -520.678375 
L 616.496213 -507.193077 
L 619.697081 -545.7225 
L 622.897949 -495.63425 
L 626.098817 -378.761667 
L 629.299684 -474.167857 
L 632.500552 -545.7225 
L 635.70142 -483.112188 
L 638.902288 -470.590125 
L 642.103156 -495.63425 
L 645.304024 -545.7225 
L 648.504892 -520.678375 
L 651.705759 -490.068889 
L 654.906627 -545.7225 
L 658.107495 -545.7225 
L 661.308363 -545.7225 
L 664.509231 -520.678375 
L 664.509231 -520.678375 
L 664.509231 -520.678375 
L 661.308363 -545.7225 
L 658.107495 -545.7225 
L 654.906627 -545.7225 
L 651.705759 -490.068889 
L 648.504892 -520.678375 
L 645.304024 -545.7225 
L 642.103156 -520.678375 
L 638.902288 -470.590125 
L 635.70142 -483.112188 
L 632.500552 -545.7225 
L 629.299684 -509.945179 
L 626.098817 -378.761667 
L 622.897949 -495.63425 
L 619.697081 -545.7225 
L 616.496213 -507.193077 
L 613.295345 -520.678375 
L 610.094477 -545.7225 
L 606.893609 -512.330333 
L 603.692742 -545.7225 
L 600.491874 -545.7225 
L 597.291006 -470.590125 
L 594.090138 -545.7225 
L 590.88927 -545.7225 
L 587.688402 -545.7225 
L 584.487535 -545.7225 
L 581.286667 -500.187727 
L 578.085799 -514.417344 
L 574.884931 -295.28125 
L 571.684063 -545.7225 
L 568.483195 -545.7225 
L 565.282327 -545.7225 
L 562.08146 -495.63425 
L 558.880592 -520.678375 
L 555.679724 -470.590125 
L 552.478856 -495.63425 
L 549.277988 -470.590125 
L 546.07712 -495.63425 
L 542.876252 -545.7225 
L 539.675385 -445.546 
L 536.474517 -495.63425 
L 533.273649 -490.068889 
L 530.072781 -445.546 
L 526.871913 -520.678375 
L 523.671045 -520.678375 
L 520.470178 -545.7225 
L 517.26931 -483.112188 
L 514.068442 -495.63425 
L 510.867574 -545.7225 
L 507.666706 -468.663654 
L 504.465838 -495.63425 
L 501.26497 -545.7225 
L 498.064103 -545.7225 
L 494.863235 -445.546 
L 491.662367 -545.7225 
L 488.461499 -509.945179 
L 485.260631 -492.998026 
L 482.059763 -519.360263 
L 478.858895 -545.7225 
L 475.658028 -295.28125 
L 472.45716 -545.7225 
L 469.256292 -545.7225 
L 466.055424 -445.546 
L 462.854556 -545.7225 
L 459.653688 -420.501875 
L 456.452821 -545.7225 
L 453.251953 -545.7225 
L 450.051085 -500.187727 
L 446.850217 -211.800833 
L 443.649349 -378.761667 
L 440.448481 -545.7225 
L 437.247613 -495.63425 
L 434.046746 -44.84 
L 430.845878 -440.273553 
L 427.64501 -412.153833 
L 424.444142 -545.7225 
L 421.243274 -545.7225 
L 418.042406 -545.7225 
L 414.841538 -445.546 
L 411.640671 -545.7225 
L 408.439803 -545.7225 
L 405.238935 -545.7225 
L 402.038067 -545.7225 
L 398.837199 -492.998026 
L 395.636331 -545.7225 
L 392.435464 -545.7225 
L 389.234596 -545.7225 
L 386.033728 -545.7225 
L 382.83286 -545.7225 
L 379.631992 -545.7225 
L 376.431124 -378.761667 
L 373.230256 -495.63425 
L 370.029389 -295.28125 
L 366.828521 -44.84 
L 363.627653 -545.7225 
L 360.426785 -44.84 
L 357.225917 -520.678375 
L 354.025049 -445.546 
L 350.824181 -434.415278 
L 347.623314 -462.242083 
L 344.422446 -545.7225 
L 341.221578 -545.7225 
L 338.02071 -445.546 
L 334.819842 -545.7225 
L 331.618974 -490.068889 
L 328.418107 -545.7225 
L 325.217239 -545.7225 
L 322.016371 -545.7225 
L 318.815503 -545.7225 
L 315.614635 -545.7225 
L 312.413767 -545.7225 
L 309.212899 -545.7225 
L 306.012032 -545.7225 
L 302.811164 -545.7225 
L 299.610296 -545.7225 
L 296.409428 -545.7225 
L 293.20856 -474.167857 
L 290.007692 -545.7225 
L 286.806824 -545.7225 
L 283.605957 -545.7225 
L 280.405089 -545.7225 
L 277.204221 -492.998026 
L 274.003353 -545.7225 
L 270.802485 -445.546 
L 267.601617 -545.7225 
L 264.40075 -545.7225 
L 261.199882 -462.242083 
L 257.999014 -545.7225 
L 254.798146 -545.7225 
L 251.597278 -520.678375 
L 248.39641 -545.7225 
L 245.195542 -44.84 
L 241.994675 -516.258824 
L 238.793807 -545.7225 
L 235.592939 -470.590125 
L 232.392071 -462.242083 
L 229.191203 -545.7225 
L 225.990335 -483.112188 
L 222.789467 -545.7225 
L 219.5886 -545.7225 
L 216.387732 -545.7225 
L 213.186864 -468.663654 
L 209.985996 -545.7225 
L 206.785128 -420.501875 
L 203.58426 -545.7225 
L 200.383393 -545.7225 
L 197.182525 -520.678375 
L 193.981657 -506.179145 
L 190.780789 -520.678375 
L 187.579921 -545.7225 
L 184.379053 -520.678375 
L 181.178185 -545.7225 
L 177.977318 -519.360263 
L 174.77645 -545.7225 
L 171.575582 -545.7225 
L 168.374714 -545.7225 
L 165.173846 -545.7225 
L 161.972978 -545.7225 
L 158.77211 -519.360263 
L 155.571243 -545.7225 
L 152.370375 -545.7225 
L 149.169507 -295.28125 
L 145.968639 -545.7225 
L 142.767771 -545.7225 
L 139.566903 -545.7225 
L 136.366036 -545.7225 
L 133.165168 -545.7225 
L 129.9643 -545.7225 
L 126.763432 -545.7225 
L 123.562564 -545.7225 
L 120.361696 -295.28125 
L 117.160828 -545.7225 
L 113.959961 -434.415278 
L 110.759093 -295.28125 
L 107.558225 -545.7225 
L 104.357357 -545.7225 
L 101.156489 -545.7225 
L 97.955621 -545.7225 
L 94.754753 -295.28125 
L 91.553886 -545.7225 
L 88.353018 -545.7225 
L 85.15215 -545.7225 
L 81.951282 -545.7225 
L 78.750414 -545.7225 
L 75.549546 -545.7225 
L 72.348679 -545.7225 
L 69.147811 -545.7225 
L 65.946943 -545.7225 
L 62.746075 -545.7225 
L 59.545207 -545.7225 
L 56.344339 -545.7225 
L 53.143471 -462.242083 
L 49.942604 -545.7225 
L 46.741736 -378.761667 
L 43.540868 -545.7225 
L 40.34 -545.7225 
z
" style="stroke: #ffffff"/>
    </defs>
    <g clip-path="url(#p9c5ff01a42)">
     <use xlink:href="#m1a2c8f4724" x="0" y="576" style="fill: #d57459; stroke: #ffffff"/>
    </g>
   </g>
   <g id="FillBetweenPolyCollection_3">
    <defs>
     <path id="m6586778f91" d="M 40.34 -545.7225 
L 40.34 -545.7225 
L 43.540868 -545.7225 
L 46.741736 -378.761667 
L 49.942604 -545.7225 
L 53.143471 -462.242083 
L 56.344339 -545.7225 
L 59.545207 -545.7225 
L 62.746075 -545.7225 
L 65.946943 -545.7225 
L 69.147811 -545.7225 
L 72.348679 -545.7225 
L 75.549546 -545.7225 
L 78.750414 -545.7225 
L 81.951282 -545.7225 
L 85.15215 -545.7225 
L 88.353018 -545.7225 
L 91.553886 -545.7225 
L 94.754753 -295.28125 
L 97.955621 -545.7225 
L 101.156489 -545.7225 
L 104.357357 -545.7225 
L 107.558225 -545.7225 
L 110.759093 -295.28125 
L 113.959961 -434.415278 
L 117.160828 -545.7225 
L 120.361696 -295.28125 
L 123.562564 -545.7225 
L 126.763432 -545.7225 
L 129.9643 -545.7225 
L 133.165168 -545.7225 
L 136.366036 -545.7225 
L 139.566903 -545.7225 
L 142.767771 -545.7225 
L 145.968639 -545.7225 
L 149.169507 -295.28125 
L 152.370375 -545.7225 
L 155.571243 -545.7225 
L 158.77211 -519.360263 
L 161.972978 -545.7225 
L 165.173846 -545.7225 
L 168.374714 -545.7225 
L 171.575582 -545.7225 
L 174.77645 -545.7225 
L 177.977318 -519.360263 
L 181.178185 -545.7225 
L 184.379053 -520.678375 
L 187.579921 -545.7225 
L 190.780789 -520.678375 
L 193.981657 -506.179145 
L 197.182525 -520.678375 
L 200.383393 -545.7225 
L 203.58426 -545.7225 
L 206.785128 -420.501875 
L 209.985996 -545.7225 
L 213.186864 -468.663654 
L 216.387732 -545.7225 
L 219.5886 -545.7225 
L 222.789467 -545.7225 
L 225.990335 -483.112188 
L 229.191203 -545.7225 
L 232.392071 -462.242083 
L 235.592939 -470.590125 
L 238.793807 -545.7225 
L 241.994675 -516.258824 
L 245.195542 -44.84 
L 248.39641 -545.7225 
L 251.597278 -520.678375 
L 254.798146 -545.7225 
L 257.999014 -545.7225 
L 261.199882 -462.242083 
L 264.40075 -545.7225 
L 267.601617 -545.7225 
L 270.802485 -445.546 
L 274.003353 -545.7225 
L 277.204221 -492.998026 
L 280.405089 -545.7225 
L 283.605957 -545.7225 
L 286.806824 -545.7225 
L 290.007692 -545.7225 
L 293.20856 -474.167857 
L 296.409428 -545.7225 
L 299.610296 -545.7225 
L 302.811164 -545.7225 
L 306.012032 -545.7225 
L 309.212899 -545.7225 
L 312.413767 -545.7225 
L 315.614635 -545.7225 
L 318.815503 -545.7225 
L 322.016371 -545.7225 
L 325.217239 -545.7225 
L 328.418107 -545.7225 
L 331.618974 -490.068889 
L 334.819842 -545.7225 
L 338.02071 -445.546 
L 341.221578 -545.7225 
L 344.422446 -545.7225 
L 347.623314 -462.242083 
L 350.824181 -434.415278 
L 354.025049 -445.546 
L 357.225917 -520.678375 
L 360.426785 -44.84 
L 363.627653 -545.7225 
L 366.828521 -44.84 
L 370.029389 -295.28125 
L 373.230256 -495.63425 
L 376.431124 -378.761667 
L 379.631992 -545.7225 
L 382.83286 -545.7225 
L 386.033728 -545.7225 
L 389.234596 -545.7225 
L 392.435464 -545.7225 
L 395.636331 -545.7225 
L 398.837199 -492.998026 
L 402.038067 -545.7225 
L 405.238935 -545.7225 
L 408.439803 -545.7225 
L 411.640671 -545.7225 
L 414.841538 -445.546 
L 418.042406 -545.7225 
L 421.243274 -545.7225 
L 424.444142 -545.7225 
L 427.64501 -412.153833 
L 430.845878 -440.273553 
L 434.046746 -44.84 
L 437.247613 -495.63425 
L 440.448481 -545.7225 
L 443.649349 -378.761667 
L 446.850217 -211.800833 
L 450.051085 -500.187727 
L 453.251953 -545.7225 
L 456.452821 -545.7225 
L 459.653688 -420.501875 
L 462.854556 -545.7225 
L 466.055424 -445.546 
L 469.256292 -545.7225 
L 472.45716 -545.7225 
L 475.658028 -295.28125 
L 478.858895 -545.7225 
L 482.059763 -519.360263 
L 485.260631 -492.998026 
L 488.461499 -509.945179 
L 491.662367 -545.7225 
L 494.863235 -445.546 
L 498.064103 -545.7225 
L 501.26497 -545.7225 
L 504.465838 -495.63425 
L 507.666706 -468.663654 
L 510.867574 -545.7225 
L 514.068442 -495.63425 
L 517.26931 -483.112188 
L 520.470178 -545.7225 
L 523.671045 -520.678375 
L 526.871913 -520.678375 
L 530.072781 -445.546 
L 533.273649 -490.068889 
L 536.474517 -495.63425 
L 539.675385 -445.546 
L 542.876252 -545.7225 
L 546.07712 -495.63425 
L 549.277988 -470.590125 
L 552.478856 -495.63425 
L 555.679724 -470.590125 
L 558.880592 -520.678375 
L 562.08146 -495.63425 
L 565.282327 -545.7225 
L 568.483195 -545.7225 
L 571.684063 -545.7225 
L 574.884931 -295.28125 
L 578.085799 -514.417344 
L 581.286667 -500.187727 
L 584.487535 -545.7225 
L 587.688402 -545.7225 
L 590.88927 -545.7225 
L 594.090138 -545.7225 
L 597.291006 -470.590125 
L 600.491874 -545.7225 
L 603.692742 -545.7225 
L 606.893609 -512.330333 
L 610.094477 -545.7225 
L 613.295345 -520.678375 
L 616.496213 -507.193077 
L 619.697081 -545.7225 
L 622.897949 -495.63425 
L 626.098817 -378.761667 
L 629.299684 -509.945179 
L 632.500552 -545.7225 
L 635.70142 -483.112188 
L 638.902288 -470.590125 
L 642.103156 -520.678375 
L 645.304024 -545.7225 
L 648.504892 -520.678375 
L 651.705759 -490.068889 
L 654.906627 -545.7225 
L 658.107495 -545.7225 
L 661.308363 -545.7225 
L 664.509231 -520.678375 
L 664.509231 -520.678375 
L 664.509231 -520.678375 
L 661.308363 -545.7225 
L 658.107495 -545.7225 
L 654.906627 -545.7225 
L 651.705759 -490.068889 
L 648.504892 -520.678375 
L 645.304024 -545.7225 
L 642.103156 -520.678375 
L 638.902288 -470.590125 
L 635.70142 -483.112188 
L 632.500552 -545.7225 
L 629.299684 -509.945179 
L 626.098817 -378.761667 
L 622.897949 -495.63425 
L 619.697081 -545.7225 
L 616.496213 -507.193077 
L 613.295345 -520.678375 
L 610.094477 -545.7225 
L 606.893609 -512.330333 
L 603.692742 -545.7225 
L 600.491874 -545.7225 
L 597.291006 -470.590125 
L 594.090138 -545.7225 
L 590.88927 -545.7225 
L 587.688402 -545.7225 
L 584.487535 -545.7225 
L 581.286667 -500.187727 
L 578.085799 -514.417344 
L 574.884931 -295.28125 
L 571.684063 -545.7225 
L 568.483195 -545.7225 
L 565.282327 -545.7225 
L 562.08146 -495.63425 
L 558.880592 -520.678375 
L 555.679724 -470.590125 
L 552.478856 -495.63425 
L 549.277988 -470.590125 
L 546.07712 -495.63425 
L 542.876252 -545.7225 
L 539.675385 -445.546 
L 536.474517 -495.63425 
L 533.273649 -490.068889 
L 530.072781 -445.546 
L 526.871913 -520.678375 
L 523.671045 -520.678375 
L 520.470178 -545.7225 
L 517.26931 -483.112188 
L 514.068442 -545.7225 
L 510.867574 -545.7225 
L 507.666706 -468.663654 
L 504.465838 -520.678375 
L 501.26497 -545.7225 
L 498.064103 -545.7225 
L 494.863235 -470.590125 
L 491.662367 -545.7225 
L 488.461499 -509.945179 
L 485.260631 -492.998026 
L 482.059763 -519.360263 
L 478.858895 -545.7225 
L 475.658028 -295.28125 
L 472.45716 -545.7225 
L 469.256292 -545.7225 
L 466.055424 -445.546 
L 462.854556 -545.7225 
L 459.653688 -420.501875 
L 456.452821 -545.7225 
L 453.251953 -545.7225 
L 450.051085 -500.187727 
L 446.850217 -211.800833 
L 443.649349 -378.761667 
L 440.448481 -545.7225 
L 437.247613 -520.678375 
L 434.046746 -44.84 
L 430.845878 -466.635789 
L 427.64501 -412.153833 
L 424.444142 -545.7225 
L 421.243274 -545.7225 
L 418.042406 -545.7225 
L 414.841538 -520.678375 
L 411.640671 -545.7225 
L 408.439803 -545.7225 
L 405.238935 -545.7225 
L 402.038067 -545.7225 
L 398.837199 -519.360263 
L 395.636331 -545.7225 
L 392.435464 -545.7225 
L 389.234596 -545.7225 
L 386.033728 -545.7225 
L 382.83286 -545.7225 
L 379.631992 -545.7225 
L 376.431124 -545.7225 
L 373.230256 -495.63425 
L 370.029389 -295.28125 
L 366.828521 -44.84 
L 363.627653 -545.7225 
L 360.426785 -545.7225 
L 357.225917 -545.7225 
L 354.025049 -445.546 
L 350.824181 -490.068889 
L 347.623314 -462.242083 
L 344.422446 -545.7225 
L 341.221578 -545.7225 
L 338.02071 -445.546 
L 334.819842 -545.7225 
L 331.618974 -490.068889 
L 328.418107 -545.7225 
L 325.217239 -545.7225 
L 322.016371 -545.7225 
L 318.815503 -545.7225 
L 315.614635 -545.7225 
L 312.413767 -545.7225 
L 309.212899 -545.7225 
L 306.012032 -545.7225 
L 302.811164 -545.7225 
L 299.610296 -545.7225 
L 296.409428 -545.7225 
L 293.20856 -474.167857 
L 290.007692 -545.7225 
L 286.806824 -545.7225 
L 283.605957 -545.7225 
L 280.405089 -545.7225 
L 277.204221 -519.360263 
L 274.003353 -545.7225 
L 270.802485 -445.546 
L 267.601617 -545.7225 
L 264.40075 -545.7225 
L 261.199882 -545.7225 
L 257.999014 -545.7225 
L 254.798146 -545.7225 
L 251.597278 -545.7225 
L 248.39641 -545.7225 
L 245.195542 -545.7225 
L 241.994675 -516.258824 
L 238.793807 -545.7225 
L 235.592939 -520.678375 
L 232.392071 -462.242083 
L 229.191203 -545.7225 
L 225.990335 -483.112188 
L 222.789467 -545.7225 
L 219.5886 -545.7225 
L 216.387732 -545.7225 
L 213.186864 -468.663654 
L 209.985996 -545.7225 
L 206.785128 -420.501875 
L 203.58426 -545.7225 
L 200.383393 -545.7225 
L 197.182525 -545.7225 
L 193.981657 -545.7225 
L 190.780789 -520.678375 
L 187.579921 -545.7225 
L 184.379053 -520.678375 
L 181.178185 -545.7225 
L 177.977318 -519.360263 
L 174.77645 -545.7225 
L 171.575582 -545.7225 
L 168.374714 -545.7225 
L 165.173846 -545.7225 
L 161.972978 -545.7225 
L 158.77211 -545.7225 
L 155.571243 -545.7225 
L 152.370375 -545.7225 
L 149.169507 -295.28125 
L 145.968639 -545.7225 
L 142.767771 -545.7225 
L 139.566903 -545.7225 
L 136.366036 -545.7225 
L 133.165168 -545.7225 
L 129.9643 -545.7225 
L 126.763432 -545.7225 
L 123.562564 -545.7225 
L 120.361696 -295.28125 
L 117.160828 -545.7225 
L 113.959961 -434.415278 
L 110.759093 -295.28125 
L 107.558225 -545.7225 
L 104.357357 -545.7225 
L 101.156489 -545.7225 
L 97.955621 -545.7225 
L 94.754753 -295.28125 
L 91.553886 -545.7225 
L 88.353018 -545.7225 
L 85.15215 -545.7225 
L 81.951282 -545.7225 
L 78.750414 -545.7225 
L 75.549546 -545.7225 
L 72.348679 -545.7225 
L 69.147811 -545.7225 
L 65.946943 -545.7225 
L 62.746075 -545.7225 
L 59.545207 -545.7225 
L 56.344339 -545.7225 
L 53.143471 -545.7225 
L 49.942604 -545.7225 
L 46.741736 -545.7225 
L 43.540868 -545.7225 
L 40.34 -545.7225 
z
" style="stroke: #ffffff"/>
    </defs>
    <g clip-path="url(#p9c5ff01a42)">
     <use xlink:href="#m6586778f91" x="0" y="576" style="fill: #e8bc60; stroke: #ffffff"/>
    </g>
   </g>
   <g id="FillBetweenPolyCollection_4">
    <defs>
     <path id="me68c5aed72" d="M 40.34 -545.7225 
L 40.34 -545.7225 
L 43.540868 -545.7225 
L 46.741736 -545.7225 
L 49.942604 -545.7225 
L 53.143471 -545.7225 
L 56.344339 -545.7225 
L 59.545207 -545.7225 
L 62.746075 -545.7225 
L 65.946943 -545.7225 
L 69.147811 -545.7225 
L 72.348679 -545.7225 
L 75.549546 -545.7225 
L 78.750414 -545.7225 
L 81.951282 -545.7225 
L 85.15215 -545.7225 
L 88.353018 -545.7225 
L 91.553886 -545.7225 
L 94.754753 -295.28125 
L 97.955621 -545.7225 
L 101.156489 -545.7225 
L 104.357357 -545.7225 
L 107.558225 -545.7225 
L 110.759093 -295.28125 
L 113.959961 -434.415278 
L 117.160828 -545.7225 
L 120.361696 -295.28125 
L 123.562564 -545.7225 
L 126.763432 -545.7225 
L 129.9643 -545.7225 
L 133.165168 -545.7225 
L 136.366036 -545.7225 
L 139.566903 -545.7225 
L 142.767771 -545.7225 
L 145.968639 -545.7225 
L 149.169507 -295.28125 
L 152.370375 -545.7225 
L 155.571243 -545.7225 
L 158.77211 -545.7225 
L 161.972978 -545.7225 
L 165.173846 -545.7225 
L 168.374714 -545.7225 
L 171.575582 -545.7225 
L 174.77645 -545.7225 
L 177.977318 -519.360263 
L 181.178185 -545.7225 
L 184.379053 -520.678375 
L 187.579921 -545.7225 
L 190.780789 -520.678375 
L 193.981657 -545.7225 
L 197.182525 -545.7225 
L 200.383393 -545.7225 
L 203.58426 -545.7225 
L 206.785128 -420.501875 
L 209.985996 -545.7225 
L 213.186864 -468.663654 
L 216.387732 -545.7225 
L 219.5886 -545.7225 
L 222.789467 -545.7225 
L 225.990335 -483.112188 
L 229.191203 -545.7225 
L 232.392071 -462.242083 
L 235.592939 -520.678375 
L 238.793807 -545.7225 
L 241.994675 -516.258824 
L 245.195542 -545.7225 
L 248.39641 -545.7225 
L 251.597278 -545.7225 
L 254.798146 -545.7225 
L 257.999014 -545.7225 
L 261.199882 -545.7225 
L 264.40075 -545.7225 
L 267.601617 -545.7225 
L 270.802485 -445.546 
L 274.003353 -545.7225 
L 277.204221 -519.360263 
L 280.405089 -545.7225 
L 283.605957 -545.7225 
L 286.806824 -545.7225 
L 290.007692 -545.7225 
L 293.20856 -474.167857 
L 296.409428 -545.7225 
L 299.610296 -545.7225 
L 302.811164 -545.7225 
L 306.012032 -545.7225 
L 309.212899 -545.7225 
L 312.413767 -545.7225 
L 315.614635 -545.7225 
L 318.815503 -545.7225 
L 322.016371 -545.7225 
L 325.217239 -545.7225 
L 328.418107 -545.7225 
L 331.618974 -490.068889 
L 334.819842 -545.7225 
L 338.02071 -445.546 
L 341.221578 -545.7225 
L 344.422446 -545.7225 
L 347.623314 -462.242083 
L 350.824181 -490.068889 
L 354.025049 -445.546 
L 357.225917 -545.7225 
L 360.426785 -545.7225 
L 363.627653 -545.7225 
L 366.828521 -44.84 
L 370.029389 -295.28125 
L 373.230256 -495.63425 
L 376.431124 -545.7225 
L 379.631992 -545.7225 
L 382.83286 -545.7225 
L 386.033728 -545.7225 
L 389.234596 -545.7225 
L 392.435464 -545.7225 
L 395.636331 -545.7225 
L 398.837199 -519.360263 
L 402.038067 -545.7225 
L 405.238935 -545.7225 
L 408.439803 -545.7225 
L 411.640671 -545.7225 
L 414.841538 -520.678375 
L 418.042406 -545.7225 
L 421.243274 -545.7225 
L 424.444142 -545.7225 
L 427.64501 -412.153833 
L 430.845878 -466.635789 
L 434.046746 -44.84 
L 437.247613 -520.678375 
L 440.448481 -545.7225 
L 443.649349 -378.761667 
L 446.850217 -211.800833 
L 450.051085 -500.187727 
L 453.251953 -545.7225 
L 456.452821 -545.7225 
L 459.653688 -420.501875 
L 462.854556 -545.7225 
L 466.055424 -445.546 
L 469.256292 -545.7225 
L 472.45716 -545.7225 
L 475.658028 -295.28125 
L 478.858895 -545.7225 
L 482.059763 -519.360263 
L 485.260631 -492.998026 
L 488.461499 -509.945179 
L 491.662367 -545.7225 
L 494.863235 -470.590125 
L 498.064103 -545.7225 
L 501.26497 -545.7225 
L 504.465838 -520.678375 
L 507.666706 -468.663654 
L 510.867574 -545.7225 
L 514.068442 -545.7225 
L 517.26931 -483.112188 
L 520.470178 -545.7225 
L 523.671045 -520.678375 
L 526.871913 -520.678375 
L 530.072781 -445.546 
L 533.273649 -490.068889 
L 536.474517 -495.63425 
L 539.675385 -445.546 
L 542.876252 -545.7225 
L 546.07712 -495.63425 
L 549.277988 -470.590125 
L 552.478856 -495.63425 
L 555.679724 -470.590125 
L 558.880592 -520.678375 
L 562.08146 -495.63425 
L 565.282327 -545.7225 
L 568.483195 -545.7225 
L 571.684063 -545.7225 
L 574.884931 -295.28125 
L 578.085799 -514.417344 
L 581.286667 -500.187727 
L 584.487535 -545.7225 
L 587.688402 -545.7225 
L 590.88927 -545.7225 
L 594.090138 -545.7225 
L 597.291006 -470.590125 
L 600.491874 -545.7225 
L 603.692742 -545.7225 
L 606.893609 -512.330333 
L 610.094477 -545.7225 
L 613.295345 -520.678375 
L 616.496213 -507.193077 
L 619.697081 -545.7225 
L 622.897949 -495.63425 
L 626.098817 -378.761667 
L 629.299684 -509.945179 
L 632.500552 -545.7225 
L 635.70142 -483.112188 
L 638.902288 -470.590125 
L 642.103156 -520.678375 
L 645.304024 -545.7225 
L 648.504892 -520.678375 
L 651.705759 -490.068889 
L 654.906627 -545.7225 
L 658.107495 -545.7225 
L 661.308363 -545.7225 
L 664.509231 -520.678375 
L 664.509231 -545.7225 
L 664.509231 -545.7225 
L 661.308363 -545.7225 
L 658.107495 -545.7225 
L 654.906627 -545.7225 
L 651.705759 -545.7225 
L 648.504892 -545.7225 
L 645.304024 -545.7225 
L 642.103156 -545.7225 
L 638.902288 -545.7225 
L 635.70142 -545.7225 
L 632.500552 -545.7225 
L 629.299684 -545.7225 
L 626.098817 -545.7225 
L 622.897949 -545.7225 
L 619.697081 -545.7225 
L 616.496213 -545.7225 
L 613.295345 -545.7225 
L 610.094477 -545.7225 
L 606.893609 -545.7225 
L 603.692742 -545.7225 
L 600.491874 -545.7225 
L 597.291006 -545.7225 
L 594.090138 -545.7225 
L 590.88927 -545.7225 
L 587.688402 -545.7225 
L 584.487535 -545.7225 
L 581.286667 -545.7225 
L 578.085799 -545.7225 
L 574.884931 -545.7225 
L 571.684063 -545.7225 
L 568.483195 -545.7225 
L 565.282327 -545.7225 
L 562.08146 -545.7225 
L 558.880592 -545.7225 
L 555.679724 -545.7225 
L 552.478856 -545.7225 
L 549.277988 -545.7225 
L 546.07712 -545.7225 
L 542.876252 -545.7225 
L 539.675385 -545.7225 
L 536.474517 -545.7225 
L 533.273649 -545.7225 
L 530.072781 -545.7225 
L 526.871913 -545.7225 
L 523.671045 -545.7225 
L 520.470178 -545.7225 
L 517.26931 -545.7225 
L 514.068442 -545.7225 
L 510.867574 -545.7225 
L 507.666706 -545.7225 
L 504.465838 -545.7225 
L 501.26497 -545.7225 
L 498.064103 -545.7225 
L 494.863235 -545.7225 
L 491.662367 -545.7225 
L 488.461499 -545.7225 
L 485.260631 -545.7225 
L 482.059763 -545.7225 
L 478.858895 -545.7225 
L 475.658028 -545.7225 
L 472.45716 -545.7225 
L 469.256292 -545.7225 
L 466.055424 -545.7225 
L 462.854556 -545.7225 
L 459.653688 -545.7225 
L 456.452821 -545.7225 
L 453.251953 -545.7225 
L 450.051085 -545.7225 
L 446.850217 -545.7225 
L 443.649349 -545.7225 
L 440.448481 -545.7225 
L 437.247613 -545.7225 
L 434.046746 -545.7225 
L 430.845878 -545.7225 
L 427.64501 -545.7225 
L 424.444142 -545.7225 
L 421.243274 -545.7225 
L 418.042406 -545.7225 
L 414.841538 -545.7225 
L 411.640671 -545.7225 
L 408.439803 -545.7225 
L 405.238935 -545.7225 
L 402.038067 -545.7225 
L 398.837199 -545.7225 
L 395.636331 -545.7225 
L 392.435464 -545.7225 
L 389.234596 -545.7225 
L 386.033728 -545.7225 
L 382.83286 -545.7225 
L 379.631992 -545.7225 
L 376.431124 -545.7225 
L 373.230256 -545.7225 
L 370.029389 -545.7225 
L 366.828521 -545.7225 
L 363.627653 -545.7225 
L 360.426785 -545.7225 
L 357.225917 -545.7225 
L 354.025049 -545.7225 
L 350.824181 -545.7225 
L 347.623314 -545.7225 
L 344.422446 -545.7225 
L 341.221578 -545.7225 
L 338.02071 -545.7225 
L 334.819842 -545.7225 
L 331.618974 -545.7225 
L 328.418107 -545.7225 
L 325.217239 -545.7225 
L 322.016371 -545.7225 
L 318.815503 -545.7225 
L 315.614635 -545.7225 
L 312.413767 -545.7225 
L 309.212899 -545.7225 
L 306.012032 -545.7225 
L 302.811164 -545.7225 
L 299.610296 -545.7225 
L 296.409428 -545.7225 
L 293.20856 -545.7225 
L 290.007692 -545.7225 
L 286.806824 -545.7225 
L 283.605957 -545.7225 
L 280.405089 -545.7225 
L 277.204221 -545.7225 
L 274.003353 -545.7225 
L 270.802485 -545.7225 
L 267.601617 -545.7225 
L 264.40075 -545.7225 
L 261.199882 -545.7225 
L 257.999014 -545.7225 
L 254.798146 -545.7225 
L 251.597278 -545.7225 
L 248.39641 -545.7225 
L 245.195542 -545.7225 
L 241.994675 -545.7225 
L 238.793807 -545.7225 
L 235.592939 -545.7225 
L 232.392071 -545.7225 
L 229.191203 -545.7225 
L 225.990335 -545.7225 
L 222.789467 -545.7225 
L 219.5886 -545.7225 
L 216.387732 -545.7225 
L 213.186864 -545.7225 
L 209.985996 -545.7225 
L 206.785128 -545.7225 
L 203.58426 -545.7225 
L 200.383393 -545.7225 
L 197.182525 -545.7225 
L 193.981657 -545.7225 
L 190.780789 -545.7225 
L 187.579921 -545.7225 
L 184.379053 -545.7225 
L 181.178185 -545.7225 
L 177.977318 -545.7225 
L 174.77645 -545.7225 
L 171.575582 -545.7225 
L 168.374714 -545.7225 
L 165.173846 -545.7225 
L 161.972978 -545.7225 
L 158.77211 -545.7225 
L 155.571243 -545.7225 
L 152.370375 -545.7225 
L 149.169507 -545.7225 
L 145.968639 -545.7225 
L 142.767771 -545.7225 
L 139.566903 -545.7225 
L 136.366036 -545.7225 
L 133.165168 -545.7225 
L 129.9643 -545.7225 
L 126.763432 -545.7225 
L 123.562564 -545.7225 
L 120.361696 -545.7225 
L 117.160828 -545.7225 
L 113.959961 -545.7225 
L 110.759093 -545.7225 
L 107.558225 -545.7225 
L 104.357357 -545.7225 
L 101.156489 -545.7225 
L 97.955621 -545.7225 
L 94.754753 -545.7225 
L 91.553886 -545.7225 
L 88.353018 -545.7225 
L 85.15215 -545.7225 
L 81.951282 -545.7225 
L 78.750414 -545.7225 
L 75.549546 -545.7225 
L 72.348679 -545.7225 
L 69.147811 -545.7225 
L 65.946943 -545.7225 
L 62.746075 -545.7225 
L 59.545207 -545.7225 
L 56.344339 -545.7225 
L 53.143471 -545.7225 
L 49.942604 -545.7225 
L 46.741736 -545.7225 
L 43.540868 -545.7225 
L 40.34 -545.7225 
z
" style="stroke: #ffffff"/>
    </defs>
    <g clip-path="url(#p9c5ff01a42)">
     <use xlink:href="#me68c5aed72" x="0" y="576" style="fill: #8d5993; stroke: #ffffff"/>
    </g>
   </g>
   <g id="line2d_10">
    <path d="M 40.34 90.271072 
L 664.509231 90.271072 
" clip-path="url(#p9c5ff01a42)" style="fill: none; stroke-dasharray: 7.5,15; stroke-dashoffset: 0; stroke: #000000; stroke-width: 1.5"/>
   </g>
   <g id="patch_3">
    <path d="M 40.34 531.16 
L 40.34 30.2775 
" style="fill: none; stroke: #cccccc; stroke-width: 0.8; stroke-linejoin: miter; stroke-linecap: square"/>
   </g>
   <g id="patch_4">
    <path d="M 664.509231 531.16 
L 664.509231 30.2775 
" style="fill: none; stroke: #cccccc; stroke-width: 0.8; stroke-linejoin: miter; stroke-linecap: square"/>
   </g>
   <g id="patch_5">
    <path d="M 40.34 531.16 
L 664.509231 531.16 
" style="fill: none; stroke: #cccccc; stroke-width: 0.8; stroke-linejoin: miter; stroke-linecap: square"/>
   </g>
   <g id="patch_6">
    <path d="M 40.34 30.2775 
L 664.509231 30.2775 
" style="fill: none; stroke: #cccccc; stroke-width: 0.8; stroke-linejoin: miter; stroke-linecap: square"/>
   </g>
   <g id="text_12">
    <!-- 0.88 -->
    <g transform="translate(686.915306 93.634353) scale(0.14 -0.14)">
     <defs>
      <path id="TimesNewRomanPSMT-30" d="M 231 2094 
Q 231 2819 450 3342 
Q 669 3866 1031 4122 
Q 1313 4325 1613 4325 
Q 2100 4325 2488 3828 
Q 2972 3213 2972 2159 
Q 2972 1422 2759 906 
Q 2547 391 2217 158 
Q 1888 -75 1581 -75 
Q 975 -75 572 641 
Q 231 1244 231 2094 
z
M 844 2016 
Q 844 1141 1059 588 
Q 1238 122 1591 122 
Q 1759 122 1940 273 
Q 2122 425 2216 781 
Q 2359 1319 2359 2297 
Q 2359 3022 2209 3506 
Q 2097 3866 1919 4016 
Q 1791 4119 1609 4119 
Q 1397 4119 1231 3928 
Q 1006 3669 925 3112 
Q 844 2556 844 2016 
z
" transform="scale(0.015625)"/>
      <path id="TimesNewRomanPSMT-2e" d="M 800 606 
Q 947 606 1047 504 
Q 1147 403 1147 259 
Q 1147 116 1045 14 
Q 944 -88 800 -88 
Q 656 -88 554 14 
Q 453 116 453 259 
Q 453 406 554 506 
Q 656 606 800 606 
z
" transform="scale(0.015625)"/>
      <path id="TimesNewRomanPSMT-38" d="M 1228 2134 
Q 725 2547 579 2797 
Q 434 3047 434 3316 
Q 434 3728 753 4026 
Q 1072 4325 1600 4325 
Q 2113 4325 2425 4047 
Q 2738 3769 2738 3413 
Q 2738 3175 2569 2928 
Q 2400 2681 1866 2347 
Q 2416 1922 2594 1678 
Q 2831 1359 2831 1006 
Q 2831 559 2490 242 
Q 2150 -75 1597 -75 
Q 994 -75 656 303 
Q 388 606 388 966 
Q 388 1247 577 1523 
Q 766 1800 1228 2134 
z
M 1719 2469 
Q 2094 2806 2194 3001 
Q 2294 3197 2294 3444 
Q 2294 3772 2109 3958 
Q 1925 4144 1606 4144 
Q 1288 4144 1088 3959 
Q 888 3775 888 3528 
Q 888 3366 970 3203 
Q 1053 3041 1206 2894 
L 1719 2469 
z
M 1375 2016 
Q 1116 1797 991 1539 
Q 866 1281 866 981 
Q 866 578 1086 336 
Q 1306 94 1647 94 
Q 1984 94 2187 284 
Q 2391 475 2391 747 
Q 2391 972 2272 1150 
Q 2050 1481 1375 2016 
z
" transform="scale(0.015625)"/>
     </defs>
     <use xlink:href="#TimesNewRomanPSMT-30"/>
     <use xlink:href="#TimesNewRomanPSMT-2e" transform="translate(50 0)"/>
     <use xlink:href="#TimesNewRomanPSMT-38" transform="translate(75 0)"/>
     <use xlink:href="#TimesNewRomanPSMT-38" transform="translate(125 0)"/>
    </g>
   </g>
   <g id="text_13">
    <!-- Jipsy (Tonkean) -->
    <g style="fill: #262626" transform="translate(284.154303 24.2775) scale(0.2 -0.2)">
     <defs>
      <path id="TimesNewRomanPS-BoldMT-4a" d="M 909 4122 
L 909 4238 
L 3163 4238 
L 3163 4122 
L 3025 4122 
Q 2838 4122 2725 4056 
Q 2647 4013 2600 3906 
Q 2566 3831 2566 3513 
L 2566 1438 
Q 2566 828 2444 551 
Q 2322 275 2011 89 
Q 1700 -97 1263 -97 
Q 728 -97 398 184 
Q 69 466 69 806 
Q 69 1025 203 1161 
Q 338 1297 531 1297 
Q 722 1297 851 1175 
Q 981 1053 981 875 
Q 981 788 959 722 
Q 947 691 861 564 
Q 775 438 775 384 
Q 775 303 856 244 
Q 975 156 1166 156 
Q 1300 156 1387 225 
Q 1475 294 1511 439 
Q 1547 584 1547 1247 
L 1547 3513 
Q 1547 3838 1511 3919 
Q 1475 4000 1370 4061 
Q 1266 4122 1088 4122 
L 909 4122 
z
" transform="scale(0.015625)"/>
      <path id="TimesNewRomanPS-BoldMT-69" d="M 919 4338 
Q 1122 4338 1262 4195 
Q 1403 4053 1403 3853 
Q 1403 3653 1261 3512 
Q 1119 3372 919 3372 
Q 719 3372 578 3512 
Q 438 3653 438 3853 
Q 438 4053 578 4195 
Q 719 4338 919 4338 
z
M 1356 2922 
L 1356 606 
Q 1356 297 1428 211 
Q 1500 125 1709 113 
L 1709 0 
L 131 0 
L 131 113 
Q 325 119 419 225 
Q 481 297 481 606 
L 481 2313 
Q 481 2622 409 2708 
Q 338 2794 131 2806 
L 131 2922 
L 1356 2922 
z
" transform="scale(0.015625)"/>
      <path id="TimesNewRomanPS-BoldMT-70" d="M 1347 297 
L 1347 -791 
Q 1347 -1016 1383 -1097 
Q 1419 -1178 1494 -1215 
Q 1569 -1253 1788 -1253 
L 1788 -1369 
L 122 -1369 
L 122 -1253 
Q 316 -1247 409 -1144 
Q 472 -1072 472 -772 
L 472 2313 
Q 472 2622 400 2708 
Q 328 2794 122 2806 
L 122 2922 
L 1347 2922 
L 1347 2538 
Q 1500 2763 1659 2863 
Q 1888 3009 2156 3009 
Q 2478 3009 2742 2806 
Q 3006 2603 3143 2245 
Q 3281 1888 3281 1475 
Q 3281 1031 3139 664 
Q 2997 297 2726 104 
Q 2456 -88 2125 -88 
Q 1884 -88 1675 19 
Q 1519 100 1347 297 
z
M 1347 613 
Q 1616 231 1922 231 
Q 2091 231 2200 409 
Q 2363 672 2363 1409 
Q 2363 2166 2184 2444 
Q 2066 2628 1866 2628 
Q 1550 2628 1347 2172 
L 1347 613 
z
" transform="scale(0.015625)"/>
      <path id="TimesNewRomanPS-BoldMT-73" d="M 2063 3003 
L 2109 2006 
L 2003 2006 
Q 1813 2450 1608 2612 
Q 1403 2775 1200 2775 
Q 1072 2775 981 2689 
Q 891 2603 891 2491 
Q 891 2406 953 2328 
Q 1053 2200 1512 1889 
Q 1972 1578 2117 1361 
Q 2263 1144 2263 875 
Q 2263 631 2141 397 
Q 2019 163 1797 37 
Q 1575 -88 1306 -88 
Q 1097 -88 747 44 
Q 653 78 619 78 
Q 516 78 447 -78 
L 344 -78 
L 294 972 
L 400 972 
Q 541 559 786 353 
Q 1031 147 1250 147 
Q 1400 147 1495 239 
Q 1591 331 1591 463 
Q 1591 613 1497 722 
Q 1403 831 1078 1053 
Q 600 1384 459 1559 
Q 253 1816 253 2125 
Q 253 2463 486 2736 
Q 719 3009 1159 3009 
Q 1397 3009 1619 2894 
Q 1703 2847 1756 2847 
Q 1813 2847 1847 2870 
Q 1881 2894 1956 3003 
L 2063 3003 
z
" transform="scale(0.015625)"/>
      <path id="TimesNewRomanPS-BoldMT-79" d="M 1556 -119 
L 613 2047 
Q 400 2538 298 2650 
Q 197 2763 53 2806 
L 53 2922 
L 1606 2922 
L 1606 2806 
Q 1453 2800 1390 2747 
Q 1328 2694 1328 2619 
Q 1328 2500 1484 2150 
L 1984 1006 
L 2325 1891 
Q 2509 2363 2509 2547 
Q 2509 2663 2432 2731 
Q 2356 2800 2163 2806 
L 2163 2922 
L 3141 2922 
L 3141 2806 
Q 2997 2791 2906 2695 
Q 2816 2600 2603 2047 
L 1769 -119 
Q 1453 -931 1300 -1119 
Q 1084 -1381 759 -1381 
Q 500 -1381 339 -1232 
Q 178 -1084 178 -875 
Q 178 -694 289 -575 
Q 400 -456 563 -456 
Q 719 -456 814 -556 
Q 909 -656 913 -866 
Q 916 -984 941 -1019 
Q 966 -1053 1013 -1053 
Q 1088 -1053 1172 -963 
Q 1297 -831 1466 -363 
L 1556 -119 
z
" transform="scale(0.015625)"/>
      <path id="TimesNewRomanPS-BoldMT-20" transform="scale(0.015625)"/>
      <path id="TimesNewRomanPS-BoldMT-28" d="M 2056 4334 
L 2056 4191 
Q 1731 3978 1578 3775 
Q 1366 3494 1247 3053 
Q 1097 2506 1097 1525 
Q 1097 600 1233 87 
Q 1369 -425 1603 -741 
Q 1766 -959 2056 -1125 
L 2056 -1281 
Q 1303 -1028 779 -248 
Q 256 531 256 1544 
Q 256 2544 778 3314 
Q 1300 4084 2056 4334 
z
" transform="scale(0.015625)"/>
      <path id="TimesNewRomanPS-BoldMT-54" d="M 4038 4238 
L 4038 3091 
L 3925 3091 
Q 3825 3488 3703 3661 
Q 3581 3834 3369 3938 
Q 3250 3994 2953 3994 
L 2638 3994 
L 2638 725 
Q 2638 400 2673 319 
Q 2709 238 2814 177 
Q 2919 116 3100 116 
L 3241 116 
L 3241 0 
L 1022 0 
L 1022 116 
L 1163 116 
Q 1347 116 1459 181 
Q 1541 225 1588 331 
Q 1622 406 1622 725 
L 1622 3994 
L 1316 3994 
Q 888 3994 694 3813 
Q 422 3559 350 3091 
L 231 3091 
L 231 4238 
L 4038 4238 
z
" transform="scale(0.015625)"/>
      <path id="TimesNewRomanPS-BoldMT-6f" d="M 1594 3009 
Q 1975 3009 2303 2812 
Q 2631 2616 2801 2253 
Q 2972 1891 2972 1459 
Q 2972 838 2656 419 
Q 2275 -88 1603 -88 
Q 944 -88 587 375 
Q 231 838 231 1447 
Q 231 2075 595 2542 
Q 959 3009 1594 3009 
z
M 1606 2788 
Q 1447 2788 1333 2667 
Q 1219 2547 1183 2192 
Q 1147 1838 1147 1206 
Q 1147 872 1191 581 
Q 1225 359 1337 243 
Q 1450 128 1594 128 
Q 1734 128 1828 206 
Q 1950 313 1991 503 
Q 2053 800 2053 1703 
Q 2053 2234 1993 2432 
Q 1934 2631 1819 2722 
Q 1738 2788 1606 2788 
z
" transform="scale(0.015625)"/>
      <path id="TimesNewRomanPS-BoldMT-6e" d="M 1409 2922 
L 1409 2544 
Q 1634 2788 1840 2898 
Q 2047 3009 2284 3009 
Q 2569 3009 2756 2851 
Q 2944 2694 3006 2459 
Q 3056 2281 3056 1775 
L 3056 638 
Q 3056 300 3117 217 
Q 3178 134 3372 113 
L 3372 0 
L 1894 0 
L 1894 113 
Q 2059 134 2131 250 
Q 2181 328 2181 638 
L 2181 1938 
Q 2181 2297 2153 2390 
Q 2125 2484 2058 2536 
Q 1991 2588 1909 2588 
Q 1641 2588 1409 2203 
L 1409 638 
Q 1409 309 1470 221 
Q 1531 134 1697 113 
L 1697 0 
L 219 0 
L 219 113 
Q 403 131 481 231 
Q 534 300 534 638 
L 534 2288 
Q 534 2619 473 2700 
Q 413 2781 219 2806 
L 219 2922 
L 1409 2922 
z
" transform="scale(0.015625)"/>
      <path id="TimesNewRomanPS-BoldMT-6b" d="M 1403 4238 
L 1403 1450 
L 2081 2116 
Q 2291 2319 2342 2409 
Q 2394 2500 2394 2584 
Q 2394 2669 2325 2725 
Q 2256 2781 2056 2806 
L 2056 2922 
L 3366 2922 
L 3366 2806 
Q 3178 2797 3037 2717 
Q 2897 2638 2488 2238 
L 2169 1925 
L 2856 919 
Q 3272 306 3350 231 
Q 3456 125 3619 113 
L 3619 0 
L 2109 0 
L 2109 113 
Q 2209 113 2254 150 
Q 2300 188 2300 231 
Q 2300 303 2169 497 
L 1591 1344 
L 1403 1159 
L 1403 634 
Q 1403 300 1465 217 
Q 1528 134 1722 113 
L 1722 0 
L 213 0 
L 213 113 
Q 397 131 475 231 
Q 528 300 528 634 
L 528 3603 
Q 528 3934 467 4015 
Q 406 4097 213 4122 
L 213 4238 
L 1403 4238 
z
" transform="scale(0.015625)"/>
      <path id="TimesNewRomanPS-BoldMT-65" d="M 2691 1566 
L 1088 1566 
Q 1116 984 1397 647 
Q 1613 388 1916 388 
Q 2103 388 2256 492 
Q 2409 597 2584 869 
L 2691 800 
Q 2453 316 2165 114 
Q 1878 -88 1500 -88 
Q 850 -88 516 413 
Q 247 816 247 1413 
Q 247 2144 642 2576 
Q 1038 3009 1569 3009 
Q 2013 3009 2339 2645 
Q 2666 2281 2691 1566 
z
M 1922 1775 
Q 1922 2278 1867 2465 
Q 1813 2653 1697 2750 
Q 1631 2806 1522 2806 
Q 1359 2806 1256 2647 
Q 1072 2369 1072 1884 
L 1072 1775 
L 1922 1775 
z
" transform="scale(0.015625)"/>
      <path id="TimesNewRomanPS-BoldMT-61" d="M 1828 431 
Q 1294 -41 869 -41 
Q 619 -41 453 123 
Q 288 288 288 534 
Q 288 869 575 1136 
Q 863 1403 1828 1847 
L 1828 2141 
Q 1828 2472 1792 2558 
Q 1756 2644 1656 2708 
Q 1556 2772 1431 2772 
Q 1228 2772 1097 2681 
Q 1016 2625 1016 2550 
Q 1016 2484 1103 2388 
Q 1222 2253 1222 2128 
Q 1222 1975 1108 1867 
Q 994 1759 809 1759 
Q 613 1759 480 1878 
Q 347 1997 347 2156 
Q 347 2381 525 2586 
Q 703 2791 1022 2900 
Q 1341 3009 1684 3009 
Q 2100 3009 2342 2832 
Q 2584 2656 2656 2450 
Q 2700 2319 2700 1847 
L 2700 713 
Q 2700 513 2715 461 
Q 2731 409 2762 384 
Q 2794 359 2834 359 
Q 2916 359 3000 475 
L 3094 400 
Q 2938 169 2770 64 
Q 2603 -41 2391 -41 
Q 2141 -41 2000 76 
Q 1859 194 1828 431 
z
M 1828 659 
L 1828 1638 
Q 1450 1416 1266 1163 
Q 1144 994 1144 822 
Q 1144 678 1247 569 
Q 1325 484 1466 484 
Q 1622 484 1828 659 
z
" transform="scale(0.015625)"/>
      <path id="TimesNewRomanPS-BoldMT-29" d="M 78 -1281 
L 78 -1138 
Q 403 -922 556 -719 
Q 766 -438 888 0 
Q 1038 550 1038 1531 
Q 1038 2456 902 2967 
Q 766 3478 531 3794 
Q 369 4013 78 4178 
L 78 4334 
Q 831 4081 1354 3301 
Q 1878 2522 1878 1509 
Q 1878 513 1354 -257 
Q 831 -1028 78 -1281 
z
" transform="scale(0.015625)"/>
     </defs>
     <use xlink:href="#TimesNewRomanPS-BoldMT-4a"/>
     <use xlink:href="#TimesNewRomanPS-BoldMT-69" transform="translate(50 0)"/>
     <use xlink:href="#TimesNewRomanPS-BoldMT-70" transform="translate(77.783203 0)"/>
     <use xlink:href="#TimesNewRomanPS-BoldMT-73" transform="translate(133.398438 0)"/>
     <use xlink:href="#TimesNewRomanPS-BoldMT-79" transform="translate(172.314453 0)"/>
     <use xlink:href="#TimesNewRomanPS-BoldMT-20" transform="translate(222.314453 0)"/>
     <use xlink:href="#TimesNewRomanPS-BoldMT-28" transform="translate(247.314453 0)"/>
     <use xlink:href="#TimesNewRomanPS-BoldMT-54" transform="translate(280.615234 0)"/>
     <use xlink:href="#TimesNewRomanPS-BoldMT-6f" transform="translate(338.189453 0)"/>
     <use xlink:href="#TimesNewRomanPS-BoldMT-6e" transform="translate(388.189453 0)"/>
     <use xlink:href="#TimesNewRomanPS-BoldMT-6b" transform="translate(443.804688 0)"/>
     <use xlink:href="#TimesNewRomanPS-BoldMT-65" transform="translate(499.419922 0)"/>
     <use xlink:href="#TimesNewRomanPS-BoldMT-61" transform="translate(543.804688 0)"/>
     <use xlink:href="#TimesNewRomanPS-BoldMT-6e" transform="translate(593.804688 0)"/>
     <use xlink:href="#TimesNewRomanPS-BoldMT-29" transform="translate(649.419922 0)"/>
    </g>
   </g>
   <g id="legend_1">
    <g id="patch_7">
     <path d="M 47.34 94.83375 
L 133.236875 94.83375 
Q 135.236875 94.83375 135.236875 92.83375 
L 135.236875 37.2775 
Q 135.236875 35.2775 133.236875 35.2775 
L 47.34 35.2775 
Q 45.34 35.2775 45.34 37.2775 
L 45.34 92.83375 
Q 45.34 94.83375 47.34 94.83375 
z
" style="fill: #ffffff; opacity: 0.8; stroke: #cccccc; stroke-linejoin: miter"/>
    </g>
    <g id="patch_8">
     <path d="M 49.34 46.2775 
L 69.34 46.2775 
L 69.34 39.2775 
L 49.34 39.2775 
z
" style="fill: #5386b6; stroke: #ffffff; stroke-linejoin: miter"/>
    </g>
    <g id="text_14">
     <!-- Success -->
     <g style="fill: #262626" transform="translate(77.34 46.2775) scale(0.1 -0.1)">
      <use xlink:href="#TimesNewRomanPSMT-53"/>
      <use xlink:href="#TimesNewRomanPSMT-75" transform="translate(55.615234 0)"/>
      <use xlink:href="#TimesNewRomanPSMT-63" transform="translate(105.615234 0)"/>
      <use xlink:href="#TimesNewRomanPSMT-63" transform="translate(150 0)"/>
      <use xlink:href="#TimesNewRomanPSMT-65" transform="translate(194.384766 0)"/>
      <use xlink:href="#TimesNewRomanPSMT-73" transform="translate(238.769531 0)"/>
      <use xlink:href="#TimesNewRomanPSMT-73" transform="translate(277.685547 0)"/>
     </g>
    </g>
    <g id="patch_9">
     <path d="M 49.34 60.416562 
L 69.34 60.416562 
L 69.34 53.416562 
L 49.34 53.416562 
z
" style="fill: #d57459; stroke: #ffffff; stroke-linejoin: miter"/>
    </g>
    <g id="text_15">
     <!-- Error -->
     <g style="fill: #262626" transform="translate(77.34 60.416562) scale(0.1 -0.1)">
      <defs>
       <path id="TimesNewRomanPSMT-45" d="M 1338 4006 
L 1338 2331 
L 2269 2331 
Q 2631 2331 2753 2441 
Q 2916 2584 2934 2947 
L 3050 2947 
L 3050 1472 
L 2934 1472 
Q 2891 1781 2847 1869 
Q 2791 1978 2662 2040 
Q 2534 2103 2269 2103 
L 1338 2103 
L 1338 706 
Q 1338 425 1363 364 
Q 1388 303 1450 267 
Q 1513 231 1688 231 
L 2406 231 
Q 2766 231 2928 281 
Q 3091 331 3241 478 
Q 3434 672 3638 1063 
L 3763 1063 
L 3397 0 
L 131 0 
L 131 116 
L 281 116 
Q 431 116 566 188 
Q 666 238 702 338 
Q 738 438 738 747 
L 738 3500 
Q 738 3903 656 3997 
Q 544 4122 281 4122 
L 131 4122 
L 131 4238 
L 3397 4238 
L 3444 3309 
L 3322 3309 
Q 3256 3644 3176 3769 
Q 3097 3894 2941 3959 
Q 2816 4006 2500 4006 
L 1338 4006 
z
" transform="scale(0.015625)"/>
      </defs>
      <use xlink:href="#TimesNewRomanPSMT-45"/>
      <use xlink:href="#TimesNewRomanPSMT-72" transform="translate(61.083984 0)"/>
      <use xlink:href="#TimesNewRomanPSMT-72" transform="translate(94.384766 0)"/>
      <use xlink:href="#TimesNewRomanPSMT-6f" transform="translate(127.685547 0)"/>
      <use xlink:href="#TimesNewRomanPSMT-72" transform="translate(177.685547 0)"/>
     </g>
    </g>
    <g id="patch_10">
     <path d="M 49.34 74.555625 
L 69.34 74.555625 
L 69.34 67.555625 
L 49.34 67.555625 
z
" style="fill: #e8bc60; stroke: #ffffff; stroke-linejoin: miter"/>
    </g>
    <g id="text_16">
     <!-- Premature -->
     <g style="fill: #262626" transform="translate(77.34 74.555625) scale(0.1 -0.1)">
      <defs>
       <path id="TimesNewRomanPSMT-6d" d="M 1050 2338 
Q 1363 2650 1419 2697 
Q 1559 2816 1721 2881 
Q 1884 2947 2044 2947 
Q 2313 2947 2506 2790 
Q 2700 2634 2766 2338 
Q 3088 2713 3309 2830 
Q 3531 2947 3766 2947 
Q 3994 2947 4170 2830 
Q 4347 2713 4450 2447 
Q 4519 2266 4519 1878 
L 4519 647 
Q 4519 378 4559 278 
Q 4591 209 4675 161 
Q 4759 113 4950 113 
L 4950 0 
L 3538 0 
L 3538 113 
L 3597 113 
Q 3781 113 3884 184 
Q 3956 234 3988 344 
Q 4000 397 4000 647 
L 4000 1878 
Q 4000 2228 3916 2372 
Q 3794 2572 3525 2572 
Q 3359 2572 3192 2489 
Q 3025 2406 2788 2181 
L 2781 2147 
L 2788 2013 
L 2788 647 
Q 2788 353 2820 281 
Q 2853 209 2943 161 
Q 3034 113 3253 113 
L 3253 0 
L 1806 0 
L 1806 113 
Q 2044 113 2133 169 
Q 2222 225 2256 338 
Q 2272 391 2272 647 
L 2272 1878 
Q 2272 2228 2169 2381 
Q 2031 2581 1784 2581 
Q 1616 2581 1450 2491 
Q 1191 2353 1050 2181 
L 1050 647 
Q 1050 366 1089 281 
Q 1128 197 1204 155 
Q 1281 113 1516 113 
L 1516 0 
L 100 0 
L 100 113 
Q 297 113 375 155 
Q 453 197 493 289 
Q 534 381 534 647 
L 534 1741 
Q 534 2213 506 2350 
Q 484 2453 437 2492 
Q 391 2531 309 2531 
Q 222 2531 100 2484 
L 53 2597 
L 916 2947 
L 1050 2947 
L 1050 2338 
z
" transform="scale(0.015625)"/>
      </defs>
      <use xlink:href="#TimesNewRomanPSMT-50"/>
      <use xlink:href="#TimesNewRomanPSMT-72" transform="translate(55.615234 0)"/>
      <use xlink:href="#TimesNewRomanPSMT-65" transform="translate(88.916016 0)"/>
      <use xlink:href="#TimesNewRomanPSMT-6d" transform="translate(133.300781 0)"/>
      <use xlink:href="#TimesNewRomanPSMT-61" transform="translate(211.083984 0)"/>
      <use xlink:href="#TimesNewRomanPSMT-74" transform="translate(255.46875 0)"/>
      <use xlink:href="#TimesNewRomanPSMT-75" transform="translate(283.251953 0)"/>
      <use xlink:href="#TimesNewRomanPSMT-72" transform="translate(333.251953 0)"/>
      <use xlink:href="#TimesNewRomanPSMT-65" transform="translate(366.552734 0)"/>
     </g>
    </g>
    <g id="patch_11">
     <path d="M 49.34 88.694687 
L 69.34 88.694687 
L 69.34 81.694687 
L 49.34 81.694687 
z
" style="fill: #8d5993; stroke: #ffffff; stroke-linejoin: miter"/>
    </g>
    <g id="text_17">
     <!-- Stepomission -->
     <g style="fill: #262626" transform="translate(77.34 88.694687) scale(0.1 -0.1)">
      <use xlink:href="#TimesNewRomanPSMT-53"/>
      <use xlink:href="#TimesNewRomanPSMT-74" transform="translate(55.615234 0)"/>
      <use xlink:href="#TimesNewRomanPSMT-65" transform="translate(83.398438 0)"/>
      <use xlink:href="#TimesNewRomanPSMT-70" transform="translate(127.783203 0)"/>
      <use xlink:href="#TimesNewRomanPSMT-6f" transform="translate(177.783203 0)"/>
      <use xlink:href="#TimesNewRomanPSMT-6d" transform="translate(227.783203 0)"/>
      <use xlink:href="#TimesNewRomanPSMT-69" transform="translate(305.566406 0)"/>
      <use xlink:href="#TimesNewRomanPSMT-73" transform="translate(333.349609 0)"/>
      <use xlink:href="#TimesNewRomanPSMT-73" transform="translate(372.265625 0)"/>
      <use xlink:href="#TimesNewRomanPSMT-69" transform="translate(411.181641 0)"/>
      <use xlink:href="#TimesNewRomanPSMT-6f" transform="translate(438.964844 0)"/>
      <use xlink:href="#TimesNewRomanPSMT-6e" transform="translate(488.964844 0)"/>
     </g>
    </g>
   </g>
  </g>
 </g>
 <defs>
  <clipPath id="p9c5ff01a42">
   <rect x="40.34" y="30.2775" width="624.169231" height="500.8825"/>
  </clipPath>
 </defs>
</svg>
