<?xml version="1.0" encoding="utf-8" standalone="no"?>
<!DOCTYPE svg PUBLIC "-//W3C//DTD SVG 1.1//EN"
  "http://www.w3.org/Graphics/SVG/1.1/DTD/svg11.dtd">
<svg xmlns:xlink="http://www.w3.org/1999/xlink" width="720pt" height="576pt" viewBox="0 0 720 576" xmlns="http://www.w3.org/2000/svg" version="1.1">
 <metadata>
  <rdf:RDF xmlns:dc="http://purl.org/dc/elements/1.1/" xmlns:cc="http://creativecommons.org/ns#" xmlns:rdf="http://www.w3.org/1999/02/22-rdf-syntax-ns#">
   <cc:Work>
    <dc:type rdf:resource="http://purl.org/dc/dcmitype/StillImage"/>
    <dc:date>2025-07-03T15:54:45.740423</dc:date>
    <dc:format>image/svg+xml</dc:format>
    <dc:creator>
     <cc:Agent>
      <dc:title>Matplotlib v3.10.3, https://matplotlib.org/</dc:title>
     </cc:Agent>
    </dc:creator>
   </cc:Work>
  </rdf:RDF>
 </metadata>
 <defs>
  <style type="text/css">*{stroke-linejoin: round; stroke-linecap: butt}</style>
 </defs>
 <g id="figure_1">
  <g id="patch_1">
   <path d="M 0 576 
L 720 576 
L 720 0 
L 0 0 
z
" style="fill: #ffffff"/>
  </g>
  <g id="axes_1">
   <g id="patch_2">
    <path d="M 40.34 531.16 
L 669.688289 531.16 
L 669.688289 29.94 
L 40.34 29.94 
z
" style="fill: #ffffff"/>
   </g>
   <g id="matplotlib.axis_1">
    <g id="xtick_1">
     <g id="line2d_1">
      <path d="M 157.595004 531.16 
L 157.595004 29.94 
" clip-path="url(#p5392971454)" style="fill: none; stroke-dasharray: 2.96,1.28; stroke-dashoffset: 0; stroke: #cccccc; stroke-opacity: 0.5; stroke-width: 0.8"/>
     </g>
     <g id="text_1">
      <!-- 50 -->
      <g style="fill: #262626" transform="translate(152.034067 545.317812) scale(0.1 -0.1)">
       <defs>
        <path id="ArialMT-35" d="M 266 1200 
L 856 1250 
Q 922 819 1161 601 
Q 1400 384 1738 384 
Q 2144 384 2425 690 
Q 2706 997 2706 1503 
Q 2706 1984 2436 2262 
Q 2166 2541 1728 2541 
Q 1456 2541 1237 2417 
Q 1019 2294 894 2097 
L 366 2166 
L 809 4519 
L 3088 4519 
L 3088 3981 
L 1259 3981 
L 1013 2750 
Q 1425 3038 1878 3038 
Q 2478 3038 2890 2622 
Q 3303 2206 3303 1553 
Q 3303 931 2941 478 
Q 2500 -78 1738 -78 
Q 1113 -78 717 272 
Q 322 622 266 1200 
z
" transform="scale(0.015625)"/>
        <path id="ArialMT-30" d="M 266 2259 
Q 266 3072 433 3567 
Q 600 4063 929 4331 
Q 1259 4600 1759 4600 
Q 2128 4600 2406 4451 
Q 2684 4303 2865 4023 
Q 3047 3744 3150 3342 
Q 3253 2941 3253 2259 
Q 3253 1453 3087 958 
Q 2922 463 2592 192 
Q 2263 -78 1759 -78 
Q 1097 -78 719 397 
Q 266 969 266 2259 
z
M 844 2259 
Q 844 1131 1108 757 
Q 1372 384 1759 384 
Q 2147 384 2411 759 
Q 2675 1134 2675 2259 
Q 2675 3391 2411 3762 
Q 2147 4134 1753 4134 
Q 1366 4134 1134 3806 
Q 844 3388 844 2259 
z
" transform="scale(0.015625)"/>
       </defs>
       <use xlink:href="#ArialMT-35"/>
       <use xlink:href="#ArialMT-30" transform="translate(55.615234 0)"/>
      </g>
     </g>
    </g>
    <g id="xtick_2">
     <g id="line2d_2">
      <path d="M 277.242968 531.16 
L 277.242968 29.94 
" clip-path="url(#p5392971454)" style="fill: none; stroke-dasharray: 2.96,1.28; stroke-dashoffset: 0; stroke: #cccccc; stroke-opacity: 0.5; stroke-width: 0.8"/>
     </g>
     <g id="text_2">
      <!-- 100 -->
      <g style="fill: #262626" transform="translate(268.901562 545.317812) scale(0.1 -0.1)">
       <defs>
        <path id="ArialMT-31" d="M 2384 0 
L 1822 0 
L 1822 3584 
Q 1619 3391 1289 3197 
Q 959 3003 697 2906 
L 697 3450 
Q 1169 3672 1522 3987 
Q 1875 4303 2022 4600 
L 2384 4600 
L 2384 0 
z
" transform="scale(0.015625)"/>
       </defs>
       <use xlink:href="#ArialMT-31"/>
       <use xlink:href="#ArialMT-30" transform="translate(55.615234 0)"/>
       <use xlink:href="#ArialMT-30" transform="translate(111.230469 0)"/>
      </g>
     </g>
    </g>
    <g id="xtick_3">
     <g id="line2d_3">
      <path d="M 396.890932 531.16 
L 396.890932 29.94 
" clip-path="url(#p5392971454)" style="fill: none; stroke-dasharray: 2.96,1.28; stroke-dashoffset: 0; stroke: #cccccc; stroke-opacity: 0.5; stroke-width: 0.8"/>
     </g>
     <g id="text_3">
      <!-- 150 -->
      <g style="fill: #262626" transform="translate(388.549526 545.317812) scale(0.1 -0.1)">
       <use xlink:href="#ArialMT-31"/>
       <use xlink:href="#ArialMT-35" transform="translate(55.615234 0)"/>
       <use xlink:href="#ArialMT-30" transform="translate(111.230469 0)"/>
      </g>
     </g>
    </g>
    <g id="xtick_4">
     <g id="line2d_4">
      <path d="M 516.538895 531.16 
L 516.538895 29.94 
" clip-path="url(#p5392971454)" style="fill: none; stroke-dasharray: 2.96,1.28; stroke-dashoffset: 0; stroke: #cccccc; stroke-opacity: 0.5; stroke-width: 0.8"/>
     </g>
     <g id="text_4">
      <!-- 200 -->
      <g style="fill: #262626" transform="translate(508.197489 545.317812) scale(0.1 -0.1)">
       <defs>
        <path id="ArialMT-32" d="M 3222 541 
L 3222 0 
L 194 0 
Q 188 203 259 391 
Q 375 700 629 1000 
Q 884 1300 1366 1694 
Q 2113 2306 2375 2664 
Q 2638 3022 2638 3341 
Q 2638 3675 2398 3904 
Q 2159 4134 1775 4134 
Q 1369 4134 1125 3890 
Q 881 3647 878 3216 
L 300 3275 
Q 359 3922 746 4261 
Q 1134 4600 1788 4600 
Q 2447 4600 2831 4234 
Q 3216 3869 3216 3328 
Q 3216 3053 3103 2787 
Q 2991 2522 2730 2228 
Q 2469 1934 1863 1422 
Q 1356 997 1212 845 
Q 1069 694 975 541 
L 3222 541 
z
" transform="scale(0.015625)"/>
       </defs>
       <use xlink:href="#ArialMT-32"/>
       <use xlink:href="#ArialMT-30" transform="translate(55.615234 0)"/>
       <use xlink:href="#ArialMT-30" transform="translate(111.230469 0)"/>
      </g>
     </g>
    </g>
    <g id="xtick_5">
     <g id="line2d_5">
      <path d="M 636.186859 531.16 
L 636.186859 29.94 
" clip-path="url(#p5392971454)" style="fill: none; stroke-dasharray: 2.96,1.28; stroke-dashoffset: 0; stroke: #cccccc; stroke-opacity: 0.5; stroke-width: 0.8"/>
     </g>
     <g id="text_5">
      <!-- 250 -->
      <g style="fill: #262626" transform="translate(627.845453 545.317812) scale(0.1 -0.1)">
       <use xlink:href="#ArialMT-32"/>
       <use xlink:href="#ArialMT-35" transform="translate(55.615234 0)"/>
       <use xlink:href="#ArialMT-30" transform="translate(111.230469 0)"/>
      </g>
     </g>
    </g>
    <g id="text_6">
     <!-- Session Count -->
     <g style="fill: #262626" transform="translate(314.756488 561.026562) scale(0.14 -0.14)">
      <defs>
       <path id="TimesNewRomanPSMT-53" d="M 2934 4334 
L 2934 2869 
L 2819 2869 
Q 2763 3291 2617 3541 
Q 2472 3791 2203 3937 
Q 1934 4084 1647 4084 
Q 1322 4084 1109 3886 
Q 897 3688 897 3434 
Q 897 3241 1031 3081 
Q 1225 2847 1953 2456 
Q 2547 2138 2764 1967 
Q 2981 1797 3098 1565 
Q 3216 1334 3216 1081 
Q 3216 600 2842 251 
Q 2469 -97 1881 -97 
Q 1697 -97 1534 -69 
Q 1438 -53 1133 45 
Q 828 144 747 144 
Q 669 144 623 97 
Q 578 50 556 -97 
L 441 -97 
L 441 1356 
L 556 1356 
Q 638 900 775 673 
Q 913 447 1195 297 
Q 1478 147 1816 147 
Q 2206 147 2432 353 
Q 2659 559 2659 841 
Q 2659 997 2573 1156 
Q 2488 1316 2306 1453 
Q 2184 1547 1640 1851 
Q 1097 2156 867 2337 
Q 638 2519 519 2737 
Q 400 2956 400 3219 
Q 400 3675 750 4004 
Q 1100 4334 1641 4334 
Q 1978 4334 2356 4169 
Q 2531 4091 2603 4091 
Q 2684 4091 2736 4139 
Q 2788 4188 2819 4334 
L 2934 4334 
z
" transform="scale(0.015625)"/>
       <path id="TimesNewRomanPSMT-65" d="M 681 1784 
Q 678 1147 991 784 
Q 1303 422 1725 422 
Q 2006 422 2214 576 
Q 2422 731 2563 1106 
L 2659 1044 
Q 2594 616 2278 264 
Q 1963 -88 1488 -88 
Q 972 -88 605 314 
Q 238 716 238 1394 
Q 238 2128 614 2539 
Q 991 2950 1559 2950 
Q 2041 2950 2350 2633 
Q 2659 2316 2659 1784 
L 681 1784 
z
M 681 1966 
L 2006 1966 
Q 1991 2241 1941 2353 
Q 1863 2528 1708 2628 
Q 1553 2728 1384 2728 
Q 1125 2728 920 2526 
Q 716 2325 681 1966 
z
" transform="scale(0.015625)"/>
       <path id="TimesNewRomanPSMT-73" d="M 2050 2947 
L 2050 1972 
L 1947 1972 
Q 1828 2431 1642 2597 
Q 1456 2763 1169 2763 
Q 950 2763 815 2647 
Q 681 2531 681 2391 
Q 681 2216 781 2091 
Q 878 1963 1175 1819 
L 1631 1597 
Q 2266 1288 2266 781 
Q 2266 391 1970 151 
Q 1675 -88 1309 -88 
Q 1047 -88 709 6 
Q 606 38 541 38 
Q 469 38 428 -44 
L 325 -44 
L 325 978 
L 428 978 
Q 516 541 762 319 
Q 1009 97 1316 97 
Q 1531 97 1667 223 
Q 1803 350 1803 528 
Q 1803 744 1651 891 
Q 1500 1038 1047 1263 
Q 594 1488 453 1669 
Q 313 1847 313 2119 
Q 313 2472 555 2709 
Q 797 2947 1181 2947 
Q 1350 2947 1591 2875 
Q 1750 2828 1803 2828 
Q 1853 2828 1881 2850 
Q 1909 2872 1947 2947 
L 2050 2947 
z
" transform="scale(0.015625)"/>
       <path id="TimesNewRomanPSMT-69" d="M 928 4444 
Q 1059 4444 1151 4351 
Q 1244 4259 1244 4128 
Q 1244 3997 1151 3903 
Q 1059 3809 928 3809 
Q 797 3809 703 3903 
Q 609 3997 609 4128 
Q 609 4259 701 4351 
Q 794 4444 928 4444 
z
M 1188 2947 
L 1188 647 
Q 1188 378 1227 289 
Q 1266 200 1342 156 
Q 1419 113 1622 113 
L 1622 0 
L 231 0 
L 231 113 
Q 441 113 512 153 
Q 584 194 626 287 
Q 669 381 669 647 
L 669 1750 
Q 669 2216 641 2353 
Q 619 2453 572 2492 
Q 525 2531 444 2531 
Q 356 2531 231 2484 
L 188 2597 
L 1050 2947 
L 1188 2947 
z
" transform="scale(0.015625)"/>
       <path id="TimesNewRomanPSMT-6f" d="M 1600 2947 
Q 2250 2947 2644 2453 
Q 2978 2031 2978 1484 
Q 2978 1100 2793 706 
Q 2609 313 2286 112 
Q 1963 -88 1566 -88 
Q 919 -88 538 428 
Q 216 863 216 1403 
Q 216 1797 411 2186 
Q 606 2575 925 2761 
Q 1244 2947 1600 2947 
z
M 1503 2744 
Q 1338 2744 1170 2645 
Q 1003 2547 900 2300 
Q 797 2053 797 1666 
Q 797 1041 1045 587 
Q 1294 134 1700 134 
Q 2003 134 2200 384 
Q 2397 634 2397 1244 
Q 2397 2006 2069 2444 
Q 1847 2744 1503 2744 
z
" transform="scale(0.015625)"/>
       <path id="TimesNewRomanPSMT-6e" d="M 1034 2341 
Q 1538 2947 1994 2947 
Q 2228 2947 2397 2830 
Q 2566 2713 2666 2444 
Q 2734 2256 2734 1869 
L 2734 647 
Q 2734 375 2778 278 
Q 2813 200 2889 156 
Q 2966 113 3172 113 
L 3172 0 
L 1756 0 
L 1756 113 
L 1816 113 
Q 2016 113 2095 173 
Q 2175 234 2206 353 
Q 2219 400 2219 647 
L 2219 1819 
Q 2219 2209 2117 2386 
Q 2016 2563 1775 2563 
Q 1403 2563 1034 2156 
L 1034 647 
Q 1034 356 1069 288 
Q 1113 197 1189 155 
Q 1266 113 1500 113 
L 1500 0 
L 84 0 
L 84 113 
L 147 113 
Q 366 113 442 223 
Q 519 334 519 647 
L 519 1709 
Q 519 2225 495 2337 
Q 472 2450 423 2490 
Q 375 2531 294 2531 
Q 206 2531 84 2484 
L 38 2597 
L 900 2947 
L 1034 2947 
L 1034 2341 
z
" transform="scale(0.015625)"/>
       <path id="TimesNewRomanPSMT-20" transform="scale(0.015625)"/>
       <path id="TimesNewRomanPSMT-43" d="M 3853 4334 
L 3950 2894 
L 3853 2894 
Q 3659 3541 3300 3825 
Q 2941 4109 2438 4109 
Q 2016 4109 1675 3895 
Q 1334 3681 1139 3212 
Q 944 2744 944 2047 
Q 944 1472 1128 1050 
Q 1313 628 1683 403 
Q 2053 178 2528 178 
Q 2941 178 3256 354 
Q 3572 531 3950 1056 
L 4047 994 
Q 3728 428 3303 165 
Q 2878 -97 2294 -97 
Q 1241 -97 663 684 
Q 231 1266 231 2053 
Q 231 2688 515 3219 
Q 800 3750 1298 4042 
Q 1797 4334 2388 4334 
Q 2847 4334 3294 4109 
Q 3425 4041 3481 4041 
Q 3566 4041 3628 4100 
Q 3709 4184 3744 4334 
L 3853 4334 
z
" transform="scale(0.015625)"/>
       <path id="TimesNewRomanPSMT-75" d="M 2709 2863 
L 2709 1128 
Q 2709 631 2732 520 
Q 2756 409 2807 365 
Q 2859 322 2928 322 
Q 3025 322 3147 375 
L 3191 266 
L 2334 -88 
L 2194 -88 
L 2194 519 
Q 1825 119 1631 15 
Q 1438 -88 1222 -88 
Q 981 -88 804 51 
Q 628 191 559 409 
Q 491 628 491 1028 
L 491 2306 
Q 491 2509 447 2587 
Q 403 2666 317 2708 
Q 231 2750 6 2747 
L 6 2863 
L 1009 2863 
L 1009 947 
Q 1009 547 1148 422 
Q 1288 297 1484 297 
Q 1619 297 1789 381 
Q 1959 466 2194 703 
L 2194 2325 
Q 2194 2569 2105 2655 
Q 2016 2741 1734 2747 
L 1734 2863 
L 2709 2863 
z
" transform="scale(0.015625)"/>
       <path id="TimesNewRomanPSMT-74" d="M 1031 3803 
L 1031 2863 
L 1700 2863 
L 1700 2644 
L 1031 2644 
L 1031 788 
Q 1031 509 1111 412 
Q 1191 316 1316 316 
Q 1419 316 1516 380 
Q 1613 444 1666 569 
L 1788 569 
Q 1678 263 1478 108 
Q 1278 -47 1066 -47 
Q 922 -47 784 33 
Q 647 113 581 261 
Q 516 409 516 719 
L 516 2644 
L 63 2644 
L 63 2747 
Q 234 2816 414 2980 
Q 594 3144 734 3369 
Q 806 3488 934 3803 
L 1031 3803 
z
" transform="scale(0.015625)"/>
      </defs>
      <use xlink:href="#TimesNewRomanPSMT-53"/>
      <use xlink:href="#TimesNewRomanPSMT-65" transform="translate(55.615234 0)"/>
      <use xlink:href="#TimesNewRomanPSMT-73" transform="translate(100 0)"/>
      <use xlink:href="#TimesNewRomanPSMT-73" transform="translate(138.916016 0)"/>
      <use xlink:href="#TimesNewRomanPSMT-69" transform="translate(177.832031 0)"/>
      <use xlink:href="#TimesNewRomanPSMT-6f" transform="translate(205.615234 0)"/>
      <use xlink:href="#TimesNewRomanPSMT-6e" transform="translate(255.615234 0)"/>
      <use xlink:href="#TimesNewRomanPSMT-20" transform="translate(305.615234 0)"/>
      <use xlink:href="#TimesNewRomanPSMT-43" transform="translate(330.615234 0)"/>
      <use xlink:href="#TimesNewRomanPSMT-6f" transform="translate(397.314453 0)"/>
      <use xlink:href="#TimesNewRomanPSMT-75" transform="translate(447.314453 0)"/>
      <use xlink:href="#TimesNewRomanPSMT-6e" transform="translate(497.314453 0)"/>
      <use xlink:href="#TimesNewRomanPSMT-74" transform="translate(547.314453 0)"/>
     </g>
    </g>
   </g>
   <g id="matplotlib.axis_2">
    <g id="ytick_1">
     <g id="line2d_6">
      <path d="M 40.34 531.16 
L 669.688289 531.16 
" clip-path="url(#p5392971454)" style="fill: none; stroke-dasharray: 2.96,1.28; stroke-dashoffset: 0; stroke: #cccccc; stroke-opacity: 0.5; stroke-width: 0.8"/>
     </g>
     <g id="text_7">
      <!-- 0 -->
      <g style="fill: #262626" transform="translate(27.779063 534.738906) scale(0.1 -0.1)">
       <use xlink:href="#ArialMT-30"/>
      </g>
     </g>
    </g>
    <g id="ytick_2">
     <g id="line2d_7">
      <path d="M 40.34 29.94 
L 669.688289 29.94 
" clip-path="url(#p5392971454)" style="fill: none; stroke-dasharray: 2.96,1.28; stroke-dashoffset: 0; stroke: #cccccc; stroke-opacity: 0.5; stroke-width: 0.8"/>
     </g>
     <g id="text_8">
      <!-- 1 -->
      <g style="fill: #262626" transform="translate(27.779063 33.518906) scale(0.1 -0.1)">
       <use xlink:href="#ArialMT-31"/>
      </g>
     </g>
    </g>
    <g id="text_9">
     <!-- Stacked Proportion -->
     <g style="fill: #262626" transform="translate(20.784375 334.402969) rotate(-90) scale(0.14 -0.14)">
      <defs>
       <path id="TimesNewRomanPSMT-61" d="M 1822 413 
Q 1381 72 1269 19 
Q 1100 -59 909 -59 
Q 613 -59 420 144 
Q 228 347 228 678 
Q 228 888 322 1041 
Q 450 1253 767 1440 
Q 1084 1628 1822 1897 
L 1822 2009 
Q 1822 2438 1686 2597 
Q 1550 2756 1291 2756 
Q 1094 2756 978 2650 
Q 859 2544 859 2406 
L 866 2225 
Q 866 2081 792 2003 
Q 719 1925 600 1925 
Q 484 1925 411 2006 
Q 338 2088 338 2228 
Q 338 2497 613 2722 
Q 888 2947 1384 2947 
Q 1766 2947 2009 2819 
Q 2194 2722 2281 2516 
Q 2338 2381 2338 1966 
L 2338 994 
Q 2338 584 2353 492 
Q 2369 400 2405 369 
Q 2441 338 2488 338 
Q 2538 338 2575 359 
Q 2641 400 2828 588 
L 2828 413 
Q 2478 -56 2159 -56 
Q 2006 -56 1915 50 
Q 1825 156 1822 413 
z
M 1822 616 
L 1822 1706 
Q 1350 1519 1213 1441 
Q 966 1303 859 1153 
Q 753 1003 753 825 
Q 753 600 887 451 
Q 1022 303 1197 303 
Q 1434 303 1822 616 
z
" transform="scale(0.015625)"/>
       <path id="TimesNewRomanPSMT-63" d="M 2631 1088 
Q 2516 522 2178 217 
Q 1841 -88 1431 -88 
Q 944 -88 581 321 
Q 219 731 219 1428 
Q 219 2103 620 2525 
Q 1022 2947 1584 2947 
Q 2006 2947 2278 2723 
Q 2550 2500 2550 2259 
Q 2550 2141 2473 2067 
Q 2397 1994 2259 1994 
Q 2075 1994 1981 2113 
Q 1928 2178 1911 2362 
Q 1894 2547 1784 2644 
Q 1675 2738 1481 2738 
Q 1169 2738 978 2506 
Q 725 2200 725 1697 
Q 725 1184 976 792 
Q 1228 400 1656 400 
Q 1963 400 2206 609 
Q 2378 753 2541 1131 
L 2631 1088 
z
" transform="scale(0.015625)"/>
       <path id="TimesNewRomanPSMT-6b" d="M 1047 4444 
L 1047 1594 
L 1775 2259 
Q 2006 2472 2044 2528 
Q 2069 2566 2069 2603 
Q 2069 2666 2017 2711 
Q 1966 2756 1847 2763 
L 1847 2863 
L 3091 2863 
L 3091 2763 
Q 2834 2756 2664 2684 
Q 2494 2613 2291 2428 
L 1556 1750 
L 2291 822 
Q 2597 438 2703 334 
Q 2853 188 2966 144 
Q 3044 113 3238 113 
L 3238 0 
L 1847 0 
L 1847 113 
Q 1966 116 2008 148 
Q 2050 181 2050 241 
Q 2050 313 1925 472 
L 1047 1594 
L 1047 644 
Q 1047 366 1086 278 
Q 1125 191 1197 153 
Q 1269 116 1509 113 
L 1509 0 
L 53 0 
L 53 113 
Q 272 113 381 166 
Q 447 200 481 272 
Q 528 375 528 628 
L 528 3234 
Q 528 3731 506 3842 
Q 484 3953 434 3995 
Q 384 4038 303 4038 
Q 238 4038 106 3984 
L 53 4094 
L 903 4444 
L 1047 4444 
z
" transform="scale(0.015625)"/>
       <path id="TimesNewRomanPSMT-64" d="M 2222 322 
Q 2013 103 1813 7 
Q 1613 -88 1381 -88 
Q 913 -88 563 304 
Q 213 697 213 1313 
Q 213 1928 600 2439 
Q 988 2950 1597 2950 
Q 1975 2950 2222 2709 
L 2222 3238 
Q 2222 3728 2198 3840 
Q 2175 3953 2125 3993 
Q 2075 4034 2000 4034 
Q 1919 4034 1784 3984 
L 1744 4094 
L 2597 4444 
L 2738 4444 
L 2738 1134 
Q 2738 631 2761 520 
Q 2784 409 2836 365 
Q 2888 322 2956 322 
Q 3041 322 3181 375 
L 3216 266 
L 2366 -88 
L 2222 -88 
L 2222 322 
z
M 2222 541 
L 2222 2016 
Q 2203 2228 2109 2403 
Q 2016 2578 1861 2667 
Q 1706 2756 1559 2756 
Q 1284 2756 1069 2509 
Q 784 2184 784 1559 
Q 784 928 1059 592 
Q 1334 256 1672 256 
Q 1956 256 2222 541 
z
" transform="scale(0.015625)"/>
       <path id="TimesNewRomanPSMT-50" d="M 1313 1984 
L 1313 750 
Q 1313 350 1400 253 
Q 1519 116 1759 116 
L 1922 116 
L 1922 0 
L 106 0 
L 106 116 
L 266 116 
Q 534 116 650 291 
Q 713 388 713 750 
L 713 3488 
Q 713 3888 628 3984 
Q 506 4122 266 4122 
L 106 4122 
L 106 4238 
L 1659 4238 
Q 2228 4238 2556 4120 
Q 2884 4003 3109 3725 
Q 3334 3447 3334 3066 
Q 3334 2547 2992 2222 
Q 2650 1897 2025 1897 
Q 1872 1897 1694 1919 
Q 1516 1941 1313 1984 
z
M 1313 2163 
Q 1478 2131 1606 2115 
Q 1734 2100 1825 2100 
Q 2150 2100 2386 2351 
Q 2622 2603 2622 3003 
Q 2622 3278 2509 3514 
Q 2397 3750 2190 3867 
Q 1984 3984 1722 3984 
Q 1563 3984 1313 3925 
L 1313 2163 
z
" transform="scale(0.015625)"/>
       <path id="TimesNewRomanPSMT-72" d="M 1038 2947 
L 1038 2303 
Q 1397 2947 1775 2947 
Q 1947 2947 2059 2842 
Q 2172 2738 2172 2600 
Q 2172 2478 2090 2393 
Q 2009 2309 1897 2309 
Q 1788 2309 1652 2417 
Q 1516 2525 1450 2525 
Q 1394 2525 1328 2463 
Q 1188 2334 1038 2041 
L 1038 669 
Q 1038 431 1097 309 
Q 1138 225 1241 169 
Q 1344 113 1538 113 
L 1538 0 
L 72 0 
L 72 113 
Q 291 113 397 181 
Q 475 231 506 341 
Q 522 394 522 644 
L 522 1753 
Q 522 2253 501 2348 
Q 481 2444 426 2487 
Q 372 2531 291 2531 
Q 194 2531 72 2484 
L 41 2597 
L 906 2947 
L 1038 2947 
z
" transform="scale(0.015625)"/>
       <path id="TimesNewRomanPSMT-70" d="M -6 2578 
L 875 2934 
L 994 2934 
L 994 2266 
Q 1216 2644 1439 2795 
Q 1663 2947 1909 2947 
Q 2341 2947 2628 2609 
Q 2981 2197 2981 1534 
Q 2981 794 2556 309 
Q 2206 -88 1675 -88 
Q 1444 -88 1275 -22 
Q 1150 25 994 166 
L 994 -706 
Q 994 -1000 1030 -1079 
Q 1066 -1159 1155 -1206 
Q 1244 -1253 1478 -1253 
L 1478 -1369 
L -22 -1369 
L -22 -1253 
L 56 -1253 
Q 228 -1256 350 -1188 
Q 409 -1153 442 -1076 
Q 475 -1000 475 -688 
L 475 2019 
Q 475 2297 450 2372 
Q 425 2447 370 2484 
Q 316 2522 222 2522 
Q 147 2522 31 2478 
L -6 2578 
z
M 994 2081 
L 994 1013 
Q 994 666 1022 556 
Q 1066 375 1236 237 
Q 1406 100 1666 100 
Q 1978 100 2172 344 
Q 2425 663 2425 1241 
Q 2425 1897 2138 2250 
Q 1938 2494 1663 2494 
Q 1513 2494 1366 2419 
Q 1253 2363 994 2081 
z
" transform="scale(0.015625)"/>
      </defs>
      <use xlink:href="#TimesNewRomanPSMT-53"/>
      <use xlink:href="#TimesNewRomanPSMT-74" transform="translate(55.615234 0)"/>
      <use xlink:href="#TimesNewRomanPSMT-61" transform="translate(83.398438 0)"/>
      <use xlink:href="#TimesNewRomanPSMT-63" transform="translate(127.783203 0)"/>
      <use xlink:href="#TimesNewRomanPSMT-6b" transform="translate(172.167969 0)"/>
      <use xlink:href="#TimesNewRomanPSMT-65" transform="translate(222.167969 0)"/>
      <use xlink:href="#TimesNewRomanPSMT-64" transform="translate(266.552734 0)"/>
      <use xlink:href="#TimesNewRomanPSMT-20" transform="translate(316.552734 0)"/>
      <use xlink:href="#TimesNewRomanPSMT-50" transform="translate(341.552734 0)"/>
      <use xlink:href="#TimesNewRomanPSMT-72" transform="translate(397.167969 0)"/>
      <use xlink:href="#TimesNewRomanPSMT-6f" transform="translate(430.46875 0)"/>
      <use xlink:href="#TimesNewRomanPSMT-70" transform="translate(480.46875 0)"/>
      <use xlink:href="#TimesNewRomanPSMT-6f" transform="translate(530.46875 0)"/>
      <use xlink:href="#TimesNewRomanPSMT-72" transform="translate(580.46875 0)"/>
      <use xlink:href="#TimesNewRomanPSMT-74" transform="translate(613.769531 0)"/>
      <use xlink:href="#TimesNewRomanPSMT-69" transform="translate(641.552734 0)"/>
      <use xlink:href="#TimesNewRomanPSMT-6f" transform="translate(669.335938 0)"/>
      <use xlink:href="#TimesNewRomanPSMT-6e" transform="translate(719.335938 0)"/>
     </g>
    </g>
   </g>
   <g id="FillBetweenPolyCollection_1">
    <defs>
     <path id="m48ae2dbc2d" d="M 40.34 -470.877 
L 40.34 -44.84 
L 42.732959 -44.84 
L 45.125919 -44.84 
L 47.518878 -44.84 
L 49.911837 -44.84 
L 52.304796 -44.84 
L 54.697756 -44.84 
L 57.090715 -44.84 
L 59.483674 -44.84 
L 61.876633 -44.84 
L 64.269593 -44.84 
L 66.662552 -44.84 
L 69.055511 -44.84 
L 71.448471 -44.84 
L 73.84143 -44.84 
L 76.234389 -44.84 
L 78.627348 -44.84 
L 81.020308 -44.84 
L 83.413267 -44.84 
L 85.806226 -44.84 
L 88.199185 -44.84 
L 90.592145 -44.84 
L 92.985104 -44.84 
L 95.378063 -44.84 
L 97.771023 -44.84 
L 100.163982 -44.84 
L 102.556941 -44.84 
L 104.9499 -44.84 
L 107.34286 -44.84 
L 109.735819 -44.84 
L 112.128778 -44.84 
L 114.521737 -44.84 
L 116.914697 -44.84 
L 119.307656 -44.84 
L 121.700615 -44.84 
L 124.093575 -44.84 
L 126.486534 -44.84 
L 128.879493 -44.84 
L 131.272452 -44.84 
L 133.665412 -44.84 
L 136.058371 -44.84 
L 138.45133 -44.84 
L 140.844289 -44.84 
L 143.237249 -44.84 
L 145.630208 -44.84 
L 148.023167 -44.84 
L 150.416127 -44.84 
L 152.809086 -44.84 
L 155.202045 -44.84 
L 157.595004 -44.84 
L 159.987964 -44.84 
L 162.380923 -44.84 
L 164.773882 -44.84 
L 167.166842 -44.84 
L 169.559801 -44.84 
L 171.95276 -44.84 
L 174.345719 -44.84 
L 176.738679 -44.84 
L 179.131638 -44.84 
L 181.524597 -44.84 
L 183.917556 -44.84 
L 186.310516 -44.84 
L 188.703475 -44.84 
L 191.096434 -44.84 
L 193.489394 -44.84 
L 195.882353 -44.84 
L 198.275312 -44.84 
L 200.668271 -44.84 
L 203.061231 -44.84 
L 205.45419 -44.84 
L 207.847149 -44.84 
L 210.240108 -44.84 
L 212.633068 -44.84 
L 215.026027 -44.84 
L 217.418986 -44.84 
L 219.811946 -44.84 
L 222.204905 -44.84 
L 224.597864 -44.84 
L 226.990823 -44.84 
L 229.383783 -44.84 
L 231.776742 -44.84 
L 234.169701 -44.84 
L 236.56266 -44.84 
L 238.95562 -44.84 
L 241.348579 -44.84 
L 243.741538 -44.84 
L 246.134498 -44.84 
L 248.527457 -44.84 
L 250.920416 -44.84 
L 253.313375 -44.84 
L 255.706335 -44.84 
L 258.099294 -44.84 
L 260.492253 -44.84 
L 262.885212 -44.84 
L 265.278172 -44.84 
L 267.671131 -44.84 
L 270.06409 -44.84 
L 272.45705 -44.84 
L 274.850009 -44.84 
L 277.242968 -44.84 
L 279.635927 -44.84 
L 282.028887 -44.84 
L 284.421846 -44.84 
L 286.814805 -44.84 
L 289.207764 -44.84 
L 291.600724 -44.84 
L 293.993683 -44.84 
L 296.386642 -44.84 
L 298.779602 -44.84 
L 301.172561 -44.84 
L 303.56552 -44.84 
L 305.958479 -44.84 
L 308.351439 -44.84 
L 310.744398 -44.84 
L 313.137357 -44.84 
L 315.530316 -44.84 
L 317.923276 -44.84 
L 320.316235 -44.84 
L 322.709194 -44.84 
L 325.102154 -44.84 
L 327.495113 -44.84 
L 329.888072 -44.84 
L 332.281031 -44.84 
L 334.673991 -44.84 
L 337.06695 -44.84 
L 339.459909 -44.84 
L 341.852868 -44.84 
L 344.245828 -44.84 
L 346.638787 -44.84 
L 349.031746 -44.84 
L 351.424706 -44.84 
L 353.817665 -44.84 
L 356.210624 -44.84 
L 358.603583 -44.84 
L 360.996543 -44.84 
L 363.389502 -44.84 
L 365.782461 -44.84 
L 368.17542 -44.84 
L 370.56838 -44.84 
L 372.961339 -44.84 
L 375.354298 -44.84 
L 377.747258 -44.84 
L 380.140217 -44.84 
L 382.533176 -44.84 
L 384.926135 -44.84 
L 387.319095 -44.84 
L 389.712054 -44.84 
L 392.105013 -44.84 
L 394.497973 -44.84 
L 396.890932 -44.84 
L 399.283891 -44.84 
L 401.67685 -44.84 
L 404.06981 -44.84 
L 406.462769 -44.84 
L 408.855728 -44.84 
L 411.248687 -44.84 
L 413.641647 -44.84 
L 416.034606 -44.84 
L 418.427565 -44.84 
L 420.820525 -44.84 
L 423.213484 -44.84 
L 425.606443 -44.84 
L 427.999402 -44.84 
L 430.392362 -44.84 
L 432.785321 -44.84 
L 435.17828 -44.84 
L 437.571239 -44.84 
L 439.964199 -44.84 
L 442.357158 -44.84 
L 444.750117 -44.84 
L 447.143077 -44.84 
L 449.536036 -44.84 
L 451.928995 -44.84 
L 454.321954 -44.84 
L 456.714914 -44.84 
L 459.107873 -44.84 
L 461.500832 -44.84 
L 463.893791 -44.84 
L 466.286751 -44.84 
L 468.67971 -44.84 
L 471.072669 -44.84 
L 473.465629 -44.84 
L 475.858588 -44.84 
L 478.251547 -44.84 
L 480.644506 -44.84 
L 483.037466 -44.84 
L 485.430425 -44.84 
L 487.823384 -44.84 
L 490.216343 -44.84 
L 492.609303 -44.84 
L 495.002262 -44.84 
L 497.395221 -44.84 
L 499.788181 -44.84 
L 502.18114 -44.84 
L 504.574099 -44.84 
L 506.967058 -44.84 
L 509.360018 -44.84 
L 511.752977 -44.84 
L 514.145936 -44.84 
L 516.538895 -44.84 
L 518.931855 -44.84 
L 521.324814 -44.84 
L 523.717773 -44.84 
L 526.110733 -44.84 
L 528.503692 -44.84 
L 530.896651 -44.84 
L 533.28961 -44.84 
L 535.68257 -44.84 
L 538.075529 -44.84 
L 540.468488 -44.84 
L 542.861447 -44.84 
L 545.254407 -44.84 
L 547.647366 -44.84 
L 550.040325 -44.84 
L 552.433285 -44.84 
L 554.826244 -44.84 
L 557.219203 -44.84 
L 559.612162 -44.84 
L 562.005122 -44.84 
L 564.398081 -44.84 
L 566.79104 -44.84 
L 569.183999 -44.84 
L 571.576959 -44.84 
L 573.969918 -44.84 
L 576.362877 -44.84 
L 578.755837 -44.84 
L 581.148796 -44.84 
L 583.541755 -44.84 
L 585.934714 -44.84 
L 588.327674 -44.84 
L 590.720633 -44.84 
L 593.113592 -44.84 
L 595.506551 -44.84 
L 597.899511 -44.84 
L 600.29247 -44.84 
L 602.685429 -44.84 
L 605.078389 -44.84 
L 607.471348 -44.84 
L 609.864307 -44.84 
L 612.257266 -44.84 
L 614.650226 -44.84 
L 617.043185 -44.84 
L 619.436144 -44.84 
L 621.829104 -44.84 
L 624.222063 -44.84 
L 626.615022 -44.84 
L 629.007981 -44.84 
L 631.400941 -44.84 
L 633.7939 -44.84 
L 636.186859 -44.84 
L 638.579818 -44.84 
L 640.972778 -44.84 
L 643.365737 -44.84 
L 645.758696 -44.84 
L 648.151656 -44.84 
L 650.544615 -44.84 
L 652.937574 -44.84 
L 655.330533 -44.84 
L 657.723493 -44.84 
L 660.116452 -44.84 
L 662.509411 -44.84 
L 664.90237 -44.84 
L 667.29533 -44.84 
L 669.688289 -44.84 
L 669.688289 -546.06 
L 669.688289 -546.06 
L 667.29533 -530.871515 
L 664.90237 -546.06 
L 662.509411 -462.523333 
L 660.116452 -546.06 
L 657.723493 -520.999 
L 655.330533 -546.06 
L 652.937574 -462.523333 
L 650.544615 -546.06 
L 648.151656 -546.06 
L 645.758696 -546.06 
L 643.365737 -483.4075 
L 640.972778 -546.06 
L 638.579818 -546.06 
L 636.186859 -546.06 
L 633.7939 -529.352667 
L 631.400941 -504.291667 
L 629.007981 -514.73375 
L 626.615022 -503.098286 
L 624.222063 -445.816 
L 621.829104 -533.5295 
L 619.436144 -434.677778 
L 617.043185 -323.295556 
L 614.650226 -420.755 
L 612.257266 -546.06 
L 609.864307 -546.06 
L 607.471348 -546.06 
L 605.078389 -488.226923 
L 602.685429 -474.457143 
L 600.29247 -399.870833 
L 597.899511 -445.816 
L 595.506551 -500.494545 
L 593.113592 -546.06 
L 590.720633 -480.683478 
L 588.327674 -546.06 
L 585.934714 -495.938 
L 583.541755 -468.949231 
L 581.148796 -546.06 
L 578.755837 -546.06 
L 576.362877 -211.913333 
L 573.969918 -546.06 
L 571.576959 -546.06 
L 569.183999 -440.54 
L 566.79104 -546.06 
L 564.398081 -528.159286 
L 562.005122 -546.06 
L 559.612162 -445.816 
L 557.219203 -546.06 
L 554.826244 -500.494545 
L 552.433285 -546.06 
L 550.040325 -522.192381 
L 547.647366 -546.06 
L 545.254407 -508.4685 
L 542.861447 -495.938 
L 540.468488 -445.816 
L 538.075529 -503.098286 
L 535.68257 -546.06 
L 533.28961 -500.494545 
L 530.896651 -508.932593 
L 528.503692 -295.45 
L 526.110733 -546.06 
L 523.717773 -546.06 
L 521.324814 -500.494545 
L 518.931855 -479.230667 
L 516.538895 -526.0112 
L 514.145936 -546.06 
L 511.752977 -44.84 
L 509.360018 -546.06 
L 506.967058 -495.938 
L 504.574099 -546.06 
L 502.18114 -546.06 
L 499.788181 -546.06 
L 497.395221 -462.523333 
L 495.002262 -462.523333 
L 492.609303 -546.06 
L 490.216343 -445.816 
L 487.823384 -546.06 
L 485.430425 -520.999 
L 483.037466 -546.06 
L 480.644506 -504.291667 
L 478.251547 -546.06 
L 475.858588 -526.0112 
L 473.465629 -495.938 
L 471.072669 -519.68 
L 468.67971 -546.06 
L 466.286751 -546.06 
L 463.893791 -530.396875 
L 461.500832 -533.5295 
L 459.107873 -546.06 
L 456.714914 -523.277273 
L 454.321954 -546.06 
L 451.928995 -546.06 
L 449.536036 -488.226923 
L 447.143077 -546.06 
L 444.750117 -518.214444 
L 442.357158 -445.816 
L 439.964199 -378.986667 
L 437.571239 -546.06 
L 435.17828 -546.06 
L 432.785321 -546.06 
L 430.392362 -363.798182 
L 427.999402 -516.576471 
L 425.606443 -490.368889 
L 423.213484 -546.06 
L 420.820525 -546.06 
L 418.427565 -526.782308 
L 416.034606 -504.291667 
L 413.641647 -495.938 
L 411.248687 -420.755 
L 408.855728 -546.06 
L 406.462769 -480.11 
L 404.06981 -378.986667 
L 401.67685 -44.84 
L 399.283891 -546.06 
L 396.890932 -546.06 
L 394.497973 -546.06 
L 392.105013 -546.06 
L 389.712054 -495.938 
L 387.319095 -546.06 
L 384.926135 -44.84 
L 382.533176 -295.45 
L 380.140217 -507.504615 
L 377.747258 -490.368889 
L 375.354298 -526.0112 
L 372.961339 -546.06 
L 370.56838 -546.06 
L 368.17542 -531.739429 
L 365.782461 -512.645333 
L 363.389502 -495.938 
L 360.996543 -546.06 
L 358.603583 -507.504615 
L 356.210624 -474.457143 
L 353.817665 -546.06 
L 351.424706 -546.06 
L 349.031746 -517.418857 
L 346.638787 -546.06 
L 344.245828 -546.06 
L 341.852868 -490.368889 
L 339.459909 -378.986667 
L 337.06695 -468.949231 
L 334.673991 -533.5295 
L 332.281031 -546.06 
L 329.888072 -546.06 
L 327.495113 -490.368889 
L 325.102154 -480.683478 
L 322.709194 -457.609412 
L 320.316235 -520.999 
L 317.923276 -508.4685 
L 315.530316 -546.06 
L 313.137357 -474.457143 
L 310.744398 -295.45 
L 308.351439 -546.06 
L 305.958479 -504.291667 
L 303.56552 -462.523333 
L 301.172561 -211.913333 
L 298.779602 -546.06 
L 296.386642 -546.06 
L 293.993683 -530.871515 
L 291.600724 -295.45 
L 289.207764 -546.06 
L 286.814805 -211.913333 
L 284.421846 -546.06 
L 282.028887 -546.06 
L 279.635927 -546.06 
L 277.242968 -483.4075 
L 274.850009 -546.06 
L 272.45705 -546.06 
L 270.06409 -546.06 
L 267.671131 -533.5295 
L 265.278172 -520.35641 
L 262.885212 -474.457143 
L 260.492253 -546.06 
L 258.099294 -520.999 
L 255.706335 -546.06 
L 253.313375 -483.4075 
L 250.920416 -515.68303 
L 248.527457 -546.06 
L 246.134498 -378.986667 
L 243.741538 -491.874054 
L 241.348579 -546.06 
L 238.95562 -462.523333 
L 236.56266 -546.06 
L 234.169701 -546.06 
L 231.776742 -546.06 
L 229.383783 -546.06 
L 226.990823 -546.06 
L 224.597864 -546.06 
L 222.204905 -420.755 
L 219.811946 -530.396875 
L 217.418986 -546.06 
L 215.026027 -546.06 
L 212.633068 -520.999 
L 210.240108 -546.06 
L 207.847149 -520.999 
L 205.45419 -462.523333 
L 203.061231 -546.06 
L 200.668271 -533.5295 
L 198.275312 -524.267826 
L 195.882353 -487.092941 
L 193.489394 -495.938 
L 191.096434 -546.06 
L 188.703475 -533.5295 
L 186.310516 -515.68303 
L 183.917556 -402.854286 
L 181.524597 -495.938 
L 179.131638 -546.06 
L 176.738679 -420.755 
L 174.345719 -517.418857 
L 171.95276 -546.06 
L 169.559801 -530.396875 
L 167.166842 -358.1025 
L 164.773882 -546.06 
L 162.380923 -526.782308 
L 159.987964 -474.457143 
L 157.595004 -502.475652 
L 155.202045 -483.4075 
L 152.809086 -434.677778 
L 150.416127 -525.175833 
L 148.023167 -546.06 
L 145.630208 -510.258571 
L 143.237249 -546.06 
L 140.844289 -546.06 
L 138.45133 -211.913333 
L 136.058371 -495.938 
L 133.665412 -514.73375 
L 131.272452 -546.06 
L 128.879493 -546.06 
L 126.486534 -546.06 
L 124.093575 -546.06 
L 121.700615 -470.877 
L 119.307656 -495.938 
L 116.914697 -488.226923 
L 114.521737 -510.258571 
L 112.128778 -533.5295 
L 109.735819 -546.06 
L 107.34286 -523.277273 
L 104.9499 -546.06 
L 102.556941 -515.68303 
L 100.163982 -487.092941 
L 97.771023 -295.45 
L 95.378063 -331.251429 
L 92.985104 -474.457143 
L 90.592145 -533.5295 
L 88.199185 -529.891613 
L 85.806226 -546.06 
L 83.413267 -378.986667 
L 81.020308 -533.5295 
L 78.627348 -546.06 
L 76.234389 -450.589524 
L 73.84143 -546.06 
L 71.448471 -546.06 
L 69.055511 -500.494545 
L 66.662552 -494.209655 
L 64.269593 -483.4075 
L 61.876633 -508.4685 
L 59.483674 -507.504615 
L 57.090715 -510.258571 
L 54.697756 -508.4685 
L 52.304796 -533.5295 
L 49.911837 -508.4685 
L 47.518878 -483.4075 
L 45.125919 -483.4075 
L 42.732959 -546.06 
L 40.34 -470.877 
z
" style="stroke: #ffffff"/>
    </defs>
    <g clip-path="url(#p5392971454)">
     <use xlink:href="#m48ae2dbc2d" x="0" y="576" style="fill: #5386b6; stroke: #ffffff"/>
    </g>
   </g>
   <g id="FillBetweenPolyCollection_2">
    <defs>
     <path id="ma650dc3a55" d="M 40.34 -546.06 
L 40.34 -470.877 
L 42.732959 -546.06 
L 45.125919 -483.4075 
L 47.518878 -483.4075 
L 49.911837 -508.4685 
L 52.304796 -533.5295 
L 54.697756 -508.4685 
L 57.090715 -510.258571 
L 59.483674 -507.504615 
L 61.876633 -508.4685 
L 64.269593 -483.4075 
L 66.662552 -494.209655 
L 69.055511 -500.494545 
L 71.448471 -546.06 
L 73.84143 -546.06 
L 76.234389 -450.589524 
L 78.627348 -546.06 
L 81.020308 -533.5295 
L 83.413267 -378.986667 
L 85.806226 -546.06 
L 88.199185 -529.891613 
L 90.592145 -533.5295 
L 92.985104 -474.457143 
L 95.378063 -331.251429 
L 97.771023 -295.45 
L 100.163982 -487.092941 
L 102.556941 -515.68303 
L 104.9499 -546.06 
L 107.34286 -523.277273 
L 109.735819 -546.06 
L 112.128778 -533.5295 
L 114.521737 -510.258571 
L 116.914697 -488.226923 
L 119.307656 -495.938 
L 121.700615 -470.877 
L 124.093575 -546.06 
L 126.486534 -546.06 
L 128.879493 -546.06 
L 131.272452 -546.06 
L 133.665412 -514.73375 
L 136.058371 -495.938 
L 138.45133 -211.913333 
L 140.844289 -546.06 
L 143.237249 -546.06 
L 145.630208 -510.258571 
L 148.023167 -546.06 
L 150.416127 -525.175833 
L 152.809086 -434.677778 
L 155.202045 -483.4075 
L 157.595004 -502.475652 
L 159.987964 -474.457143 
L 162.380923 -526.782308 
L 164.773882 -546.06 
L 167.166842 -358.1025 
L 169.559801 -530.396875 
L 171.95276 -546.06 
L 174.345719 -517.418857 
L 176.738679 -420.755 
L 179.131638 -546.06 
L 181.524597 -495.938 
L 183.917556 -402.854286 
L 186.310516 -515.68303 
L 188.703475 -533.5295 
L 191.096434 -546.06 
L 193.489394 -495.938 
L 195.882353 -487.092941 
L 198.275312 -524.267826 
L 200.668271 -533.5295 
L 203.061231 -546.06 
L 205.45419 -462.523333 
L 207.847149 -520.999 
L 210.240108 -546.06 
L 212.633068 -520.999 
L 215.026027 -546.06 
L 217.418986 -546.06 
L 219.811946 -530.396875 
L 222.204905 -420.755 
L 224.597864 -546.06 
L 226.990823 -546.06 
L 229.383783 -546.06 
L 231.776742 -546.06 
L 234.169701 -546.06 
L 236.56266 -546.06 
L 238.95562 -462.523333 
L 241.348579 -546.06 
L 243.741538 -491.874054 
L 246.134498 -378.986667 
L 248.527457 -546.06 
L 250.920416 -515.68303 
L 253.313375 -483.4075 
L 255.706335 -546.06 
L 258.099294 -520.999 
L 260.492253 -546.06 
L 262.885212 -474.457143 
L 265.278172 -520.35641 
L 267.671131 -533.5295 
L 270.06409 -546.06 
L 272.45705 -546.06 
L 274.850009 -546.06 
L 277.242968 -483.4075 
L 279.635927 -546.06 
L 282.028887 -546.06 
L 284.421846 -546.06 
L 286.814805 -211.913333 
L 289.207764 -546.06 
L 291.600724 -295.45 
L 293.993683 -530.871515 
L 296.386642 -546.06 
L 298.779602 -546.06 
L 301.172561 -211.913333 
L 303.56552 -462.523333 
L 305.958479 -504.291667 
L 308.351439 -546.06 
L 310.744398 -295.45 
L 313.137357 -474.457143 
L 315.530316 -546.06 
L 317.923276 -508.4685 
L 320.316235 -520.999 
L 322.709194 -457.609412 
L 325.102154 -480.683478 
L 327.495113 -490.368889 
L 329.888072 -546.06 
L 332.281031 -546.06 
L 334.673991 -533.5295 
L 337.06695 -468.949231 
L 339.459909 -378.986667 
L 341.852868 -490.368889 
L 344.245828 -546.06 
L 346.638787 -546.06 
L 349.031746 -517.418857 
L 351.424706 -546.06 
L 353.817665 -546.06 
L 356.210624 -474.457143 
L 358.603583 -507.504615 
L 360.996543 -546.06 
L 363.389502 -495.938 
L 365.782461 -512.645333 
L 368.17542 -531.739429 
L 370.56838 -546.06 
L 372.961339 -546.06 
L 375.354298 -526.0112 
L 377.747258 -490.368889 
L 380.140217 -507.504615 
L 382.533176 -295.45 
L 384.926135 -44.84 
L 387.319095 -546.06 
L 389.712054 -495.938 
L 392.105013 -546.06 
L 394.497973 -546.06 
L 396.890932 -546.06 
L 399.283891 -546.06 
L 401.67685 -44.84 
L 404.06981 -378.986667 
L 406.462769 -480.11 
L 408.855728 -546.06 
L 411.248687 -420.755 
L 413.641647 -495.938 
L 416.034606 -504.291667 
L 418.427565 -526.782308 
L 420.820525 -546.06 
L 423.213484 -546.06 
L 425.606443 -490.368889 
L 427.999402 -516.576471 
L 430.392362 -363.798182 
L 432.785321 -546.06 
L 435.17828 -546.06 
L 437.571239 -546.06 
L 439.964199 -378.986667 
L 442.357158 -445.816 
L 444.750117 -518.214444 
L 447.143077 -546.06 
L 449.536036 -488.226923 
L 451.928995 -546.06 
L 454.321954 -546.06 
L 456.714914 -523.277273 
L 459.107873 -546.06 
L 461.500832 -533.5295 
L 463.893791 -530.396875 
L 466.286751 -546.06 
L 468.67971 -546.06 
L 471.072669 -519.68 
L 473.465629 -495.938 
L 475.858588 -526.0112 
L 478.251547 -546.06 
L 480.644506 -504.291667 
L 483.037466 -546.06 
L 485.430425 -520.999 
L 487.823384 -546.06 
L 490.216343 -445.816 
L 492.609303 -546.06 
L 495.002262 -462.523333 
L 497.395221 -462.523333 
L 499.788181 -546.06 
L 502.18114 -546.06 
L 504.574099 -546.06 
L 506.967058 -495.938 
L 509.360018 -546.06 
L 511.752977 -44.84 
L 514.145936 -546.06 
L 516.538895 -526.0112 
L 518.931855 -479.230667 
L 521.324814 -500.494545 
L 523.717773 -546.06 
L 526.110733 -546.06 
L 528.503692 -295.45 
L 530.896651 -508.932593 
L 533.28961 -500.494545 
L 535.68257 -546.06 
L 538.075529 -503.098286 
L 540.468488 -445.816 
L 542.861447 -495.938 
L 545.254407 -508.4685 
L 547.647366 -546.06 
L 550.040325 -522.192381 
L 552.433285 -546.06 
L 554.826244 -500.494545 
L 557.219203 -546.06 
L 559.612162 -445.816 
L 562.005122 -546.06 
L 564.398081 -528.159286 
L 566.79104 -546.06 
L 569.183999 -440.54 
L 571.576959 -546.06 
L 573.969918 -546.06 
L 576.362877 -211.913333 
L 578.755837 -546.06 
L 581.148796 -546.06 
L 583.541755 -468.949231 
L 585.934714 -495.938 
L 588.327674 -546.06 
L 590.720633 -480.683478 
L 593.113592 -546.06 
L 595.506551 -500.494545 
L 597.899511 -445.816 
L 600.29247 -399.870833 
L 602.685429 -474.457143 
L 605.078389 -488.226923 
L 607.471348 -546.06 
L 609.864307 -546.06 
L 612.257266 -546.06 
L 614.650226 -420.755 
L 617.043185 -323.295556 
L 619.436144 -434.677778 
L 621.829104 -533.5295 
L 624.222063 -445.816 
L 626.615022 -503.098286 
L 629.007981 -514.73375 
L 631.400941 -504.291667 
L 633.7939 -529.352667 
L 636.186859 -546.06 
L 638.579818 -546.06 
L 640.972778 -546.06 
L 643.365737 -483.4075 
L 645.758696 -546.06 
L 648.151656 -546.06 
L 650.544615 -546.06 
L 652.937574 -462.523333 
L 655.330533 -546.06 
L 657.723493 -520.999 
L 660.116452 -546.06 
L 662.509411 -462.523333 
L 664.90237 -546.06 
L 667.29533 -530.871515 
L 669.688289 -546.06 
L 669.688289 -546.06 
L 669.688289 -546.06 
L 667.29533 -530.871515 
L 664.90237 -546.06 
L 662.509411 -546.06 
L 660.116452 -546.06 
L 657.723493 -546.06 
L 655.330533 -546.06 
L 652.937574 -504.291667 
L 650.544615 -546.06 
L 648.151656 -546.06 
L 645.758696 -546.06 
L 643.365737 -546.06 
L 640.972778 -546.06 
L 638.579818 -546.06 
L 636.186859 -546.06 
L 633.7939 -546.06 
L 631.400941 -546.06 
L 629.007981 -546.06 
L 626.615022 -503.098286 
L 624.222063 -546.06 
L 621.829104 -546.06 
L 619.436144 -434.677778 
L 617.043185 -378.986667 
L 614.650226 -420.755 
L 612.257266 -546.06 
L 609.864307 -546.06 
L 607.471348 -546.06 
L 605.078389 -526.782308 
L 602.685429 -546.06 
L 600.29247 -504.291667 
L 597.899511 -445.816 
L 595.506551 -500.494545 
L 593.113592 -546.06 
L 590.720633 -480.683478 
L 588.327674 -546.06 
L 585.934714 -546.06 
L 583.541755 -468.949231 
L 581.148796 -546.06 
L 578.755837 -546.06 
L 576.362877 -211.913333 
L 573.969918 -546.06 
L 571.576959 -546.06 
L 569.183999 -466.92 
L 566.79104 -546.06 
L 564.398081 -546.06 
L 562.005122 -546.06 
L 559.612162 -546.06 
L 557.219203 -546.06 
L 554.826244 -546.06 
L 552.433285 -546.06 
L 550.040325 -522.192381 
L 547.647366 -546.06 
L 545.254407 -546.06 
L 542.861447 -546.06 
L 540.468488 -546.06 
L 538.075529 -546.06 
L 535.68257 -546.06 
L 533.28961 -546.06 
L 530.896651 -527.496296 
L 528.503692 -295.45 
L 526.110733 -546.06 
L 523.717773 -546.06 
L 521.324814 -500.494545 
L 518.931855 -546.06 
L 516.538895 -526.0112 
L 514.145936 -546.06 
L 511.752977 -295.45 
L 509.360018 -546.06 
L 506.967058 -546.06 
L 504.574099 -546.06 
L 502.18114 -546.06 
L 499.788181 -546.06 
L 497.395221 -546.06 
L 495.002262 -546.06 
L 492.609303 -546.06 
L 490.216343 -546.06 
L 487.823384 -546.06 
L 485.430425 -546.06 
L 483.037466 -546.06 
L 480.644506 -546.06 
L 478.251547 -546.06 
L 475.858588 -546.06 
L 473.465629 -546.06 
L 471.072669 -546.06 
L 468.67971 -546.06 
L 466.286751 -546.06 
L 463.893791 -546.06 
L 461.500832 -546.06 
L 459.107873 -546.06 
L 456.714914 -523.277273 
L 454.321954 -546.06 
L 451.928995 -546.06 
L 449.536036 -546.06 
L 447.143077 -546.06 
L 444.750117 -546.06 
L 442.357158 -445.816 
L 439.964199 -378.986667 
L 437.571239 -546.06 
L 435.17828 -546.06 
L 432.785321 -546.06 
L 430.392362 -546.06 
L 427.999402 -546.06 
L 425.606443 -546.06 
L 423.213484 -546.06 
L 420.820525 -546.06 
L 418.427565 -526.782308 
L 416.034606 -546.06 
L 413.641647 -546.06 
L 411.248687 -483.4075 
L 408.855728 -546.06 
L 406.462769 -546.06 
L 404.06981 -378.986667 
L 401.67685 -44.84 
L 399.283891 -546.06 
L 396.890932 -546.06 
L 394.497973 -546.06 
L 392.105013 -546.06 
L 389.712054 -546.06 
L 387.319095 -546.06 
L 384.926135 -44.84 
L 382.533176 -295.45 
L 380.140217 -546.06 
L 377.747258 -546.06 
L 375.354298 -546.06 
L 372.961339 -546.06 
L 370.56838 -546.06 
L 368.17542 -546.06 
L 365.782461 -546.06 
L 363.389502 -520.999 
L 360.996543 -546.06 
L 358.603583 -546.06 
L 356.210624 -510.258571 
L 353.817665 -546.06 
L 351.424706 -546.06 
L 349.031746 -546.06 
L 346.638787 -546.06 
L 344.245828 -546.06 
L 341.852868 -490.368889 
L 339.459909 -378.986667 
L 337.06695 -546.06 
L 334.673991 -546.06 
L 332.281031 -546.06 
L 329.888072 -546.06 
L 327.495113 -490.368889 
L 325.102154 -524.267826 
L 322.709194 -516.576471 
L 320.316235 -546.06 
L 317.923276 -546.06 
L 315.530316 -546.06 
L 313.137357 -546.06 
L 310.744398 -295.45 
L 308.351439 -546.06 
L 305.958479 -546.06 
L 303.56552 -546.06 
L 301.172561 -546.06 
L 298.779602 -546.06 
L 296.386642 -546.06 
L 293.993683 -546.06 
L 291.600724 -295.45 
L 289.207764 -546.06 
L 286.814805 -211.913333 
L 284.421846 -546.06 
L 282.028887 -546.06 
L 279.635927 -546.06 
L 277.242968 -546.06 
L 274.850009 -546.06 
L 272.45705 -546.06 
L 270.06409 -546.06 
L 267.671131 -546.06 
L 265.278172 -546.06 
L 262.885212 -546.06 
L 260.492253 -546.06 
L 258.099294 -546.06 
L 255.706335 -546.06 
L 253.313375 -546.06 
L 250.920416 -546.06 
L 248.527457 -546.06 
L 246.134498 -546.06 
L 243.741538 -546.06 
L 241.348579 -546.06 
L 238.95562 -504.291667 
L 236.56266 -546.06 
L 234.169701 -546.06 
L 231.776742 -546.06 
L 229.383783 -546.06 
L 226.990823 -546.06 
L 224.597864 -546.06 
L 222.204905 -546.06 
L 219.811946 -546.06 
L 217.418986 -546.06 
L 215.026027 -546.06 
L 212.633068 -546.06 
L 210.240108 -546.06 
L 207.847149 -546.06 
L 205.45419 -546.06 
L 203.061231 -546.06 
L 200.668271 -533.5295 
L 198.275312 -546.06 
L 195.882353 -516.576471 
L 193.489394 -533.5295 
L 191.096434 -546.06 
L 188.703475 -533.5295 
L 186.310516 -546.06 
L 183.917556 -402.854286 
L 181.524597 -546.06 
L 179.131638 -546.06 
L 176.738679 -420.755 
L 174.345719 -531.739429 
L 171.95276 -546.06 
L 169.559801 -546.06 
L 167.166842 -483.4075 
L 164.773882 -546.06 
L 162.380923 -546.06 
L 159.987964 -474.457143 
L 157.595004 -546.06 
L 155.202045 -546.06 
L 152.809086 -490.368889 
L 150.416127 -546.06 
L 148.023167 -546.06 
L 145.630208 -546.06 
L 143.237249 -546.06 
L 140.844289 -546.06 
L 138.45133 -378.986667 
L 136.058371 -546.06 
L 133.665412 -514.73375 
L 131.272452 -546.06 
L 128.879493 -546.06 
L 126.486534 -546.06 
L 124.093575 -546.06 
L 121.700615 -520.999 
L 119.307656 -520.999 
L 116.914697 -507.504615 
L 114.521737 -546.06 
L 112.128778 -546.06 
L 109.735819 -546.06 
L 107.34286 -546.06 
L 104.9499 -546.06 
L 102.556941 -530.871515 
L 100.163982 -516.576471 
L 97.771023 -295.45 
L 95.378063 -367.052857 
L 92.985104 -546.06 
L 90.592145 -546.06 
L 88.199185 -546.06 
L 85.806226 -546.06 
L 83.413267 -546.06 
L 81.020308 -546.06 
L 78.627348 -546.06 
L 76.234389 -522.192381 
L 73.84143 -546.06 
L 71.448471 -546.06 
L 69.055511 -546.06 
L 66.662552 -528.776552 
L 64.269593 -546.06 
L 61.876633 -546.06 
L 59.483674 -546.06 
L 57.090715 -546.06 
L 54.697756 -533.5295 
L 52.304796 -546.06 
L 49.911837 -546.06 
L 47.518878 -546.06 
L 45.125919 -546.06 
L 42.732959 -546.06 
L 40.34 -546.06 
z
" style="stroke: #ffffff"/>
    </defs>
    <g clip-path="url(#p5392971454)">
     <use xlink:href="#ma650dc3a55" x="0" y="576" style="fill: #d57459; stroke: #ffffff"/>
    </g>
   </g>
   <g id="FillBetweenPolyCollection_3">
    <defs>
     <path id="m96eb13439f" d="M 40.34 -546.06 
L 40.34 -546.06 
L 42.732959 -546.06 
L 45.125919 -546.06 
L 47.518878 -546.06 
L 49.911837 -546.06 
L 52.304796 -546.06 
L 54.697756 -533.5295 
L 57.090715 -546.06 
L 59.483674 -546.06 
L 61.876633 -546.06 
L 64.269593 -546.06 
L 66.662552 -528.776552 
L 69.055511 -546.06 
L 71.448471 -546.06 
L 73.84143 -546.06 
L 76.234389 -522.192381 
L 78.627348 -546.06 
L 81.020308 -546.06 
L 83.413267 -546.06 
L 85.806226 -546.06 
L 88.199185 -546.06 
L 90.592145 -546.06 
L 92.985104 -546.06 
L 95.378063 -367.052857 
L 97.771023 -295.45 
L 100.163982 -516.576471 
L 102.556941 -530.871515 
L 104.9499 -546.06 
L 107.34286 -546.06 
L 109.735819 -546.06 
L 112.128778 -546.06 
L 114.521737 -546.06 
L 116.914697 -507.504615 
L 119.307656 -520.999 
L 121.700615 -520.999 
L 124.093575 -546.06 
L 126.486534 -546.06 
L 128.879493 -546.06 
L 131.272452 -546.06 
L 133.665412 -514.73375 
L 136.058371 -546.06 
L 138.45133 -378.986667 
L 140.844289 -546.06 
L 143.237249 -546.06 
L 145.630208 -546.06 
L 148.023167 -546.06 
L 150.416127 -546.06 
L 152.809086 -490.368889 
L 155.202045 -546.06 
L 157.595004 -546.06 
L 159.987964 -474.457143 
L 162.380923 -546.06 
L 164.773882 -546.06 
L 167.166842 -483.4075 
L 169.559801 -546.06 
L 171.95276 -546.06 
L 174.345719 -531.739429 
L 176.738679 -420.755 
L 179.131638 -546.06 
L 181.524597 -546.06 
L 183.917556 -402.854286 
L 186.310516 -546.06 
L 188.703475 -533.5295 
L 191.096434 -546.06 
L 193.489394 -533.5295 
L 195.882353 -516.576471 
L 198.275312 -546.06 
L 200.668271 -533.5295 
L 203.061231 -546.06 
L 205.45419 -546.06 
L 207.847149 -546.06 
L 210.240108 -546.06 
L 212.633068 -546.06 
L 215.026027 -546.06 
L 217.418986 -546.06 
L 219.811946 -546.06 
L 222.204905 -546.06 
L 224.597864 -546.06 
L 226.990823 -546.06 
L 229.383783 -546.06 
L 231.776742 -546.06 
L 234.169701 -546.06 
L 236.56266 -546.06 
L 238.95562 -504.291667 
L 241.348579 -546.06 
L 243.741538 -546.06 
L 246.134498 -546.06 
L 248.527457 -546.06 
L 250.920416 -546.06 
L 253.313375 -546.06 
L 255.706335 -546.06 
L 258.099294 -546.06 
L 260.492253 -546.06 
L 262.885212 -546.06 
L 265.278172 -546.06 
L 267.671131 -546.06 
L 270.06409 -546.06 
L 272.45705 -546.06 
L 274.850009 -546.06 
L 277.242968 -546.06 
L 279.635927 -546.06 
L 282.028887 -546.06 
L 284.421846 -546.06 
L 286.814805 -211.913333 
L 289.207764 -546.06 
L 291.600724 -295.45 
L 293.993683 -546.06 
L 296.386642 -546.06 
L 298.779602 -546.06 
L 301.172561 -546.06 
L 303.56552 -546.06 
L 305.958479 -546.06 
L 308.351439 -546.06 
L 310.744398 -295.45 
L 313.137357 -546.06 
L 315.530316 -546.06 
L 317.923276 -546.06 
L 320.316235 -546.06 
L 322.709194 -516.576471 
L 325.102154 -524.267826 
L 327.495113 -490.368889 
L 329.888072 -546.06 
L 332.281031 -546.06 
L 334.673991 -546.06 
L 337.06695 -546.06 
L 339.459909 -378.986667 
L 341.852868 -490.368889 
L 344.245828 -546.06 
L 346.638787 -546.06 
L 349.031746 -546.06 
L 351.424706 -546.06 
L 353.817665 -546.06 
L 356.210624 -510.258571 
L 358.603583 -546.06 
L 360.996543 -546.06 
L 363.389502 -520.999 
L 365.782461 -546.06 
L 368.17542 -546.06 
L 370.56838 -546.06 
L 372.961339 -546.06 
L 375.354298 -546.06 
L 377.747258 -546.06 
L 380.140217 -546.06 
L 382.533176 -295.45 
L 384.926135 -44.84 
L 387.319095 -546.06 
L 389.712054 -546.06 
L 392.105013 -546.06 
L 394.497973 -546.06 
L 396.890932 -546.06 
L 399.283891 -546.06 
L 401.67685 -44.84 
L 404.06981 -378.986667 
L 406.462769 -546.06 
L 408.855728 -546.06 
L 411.248687 -483.4075 
L 413.641647 -546.06 
L 416.034606 -546.06 
L 418.427565 -526.782308 
L 420.820525 -546.06 
L 423.213484 -546.06 
L 425.606443 -546.06 
L 427.999402 -546.06 
L 430.392362 -546.06 
L 432.785321 -546.06 
L 435.17828 -546.06 
L 437.571239 -546.06 
L 439.964199 -378.986667 
L 442.357158 -445.816 
L 444.750117 -546.06 
L 447.143077 -546.06 
L 449.536036 -546.06 
L 451.928995 -546.06 
L 454.321954 -546.06 
L 456.714914 -523.277273 
L 459.107873 -546.06 
L 461.500832 -546.06 
L 463.893791 -546.06 
L 466.286751 -546.06 
L 468.67971 -546.06 
L 471.072669 -546.06 
L 473.465629 -546.06 
L 475.858588 -546.06 
L 478.251547 -546.06 
L 480.644506 -546.06 
L 483.037466 -546.06 
L 485.430425 -546.06 
L 487.823384 -546.06 
L 490.216343 -546.06 
L 492.609303 -546.06 
L 495.002262 -546.06 
L 497.395221 -546.06 
L 499.788181 -546.06 
L 502.18114 -546.06 
L 504.574099 -546.06 
L 506.967058 -546.06 
L 509.360018 -546.06 
L 511.752977 -295.45 
L 514.145936 -546.06 
L 516.538895 -526.0112 
L 518.931855 -546.06 
L 521.324814 -500.494545 
L 523.717773 -546.06 
L 526.110733 -546.06 
L 528.503692 -295.45 
L 530.896651 -527.496296 
L 533.28961 -546.06 
L 535.68257 -546.06 
L 538.075529 -546.06 
L 540.468488 -546.06 
L 542.861447 -546.06 
L 545.254407 -546.06 
L 547.647366 -546.06 
L 550.040325 -522.192381 
L 552.433285 -546.06 
L 554.826244 -546.06 
L 557.219203 -546.06 
L 559.612162 -546.06 
L 562.005122 -546.06 
L 564.398081 -546.06 
L 566.79104 -546.06 
L 569.183999 -466.92 
L 571.576959 -546.06 
L 573.969918 -546.06 
L 576.362877 -211.913333 
L 578.755837 -546.06 
L 581.148796 -546.06 
L 583.541755 -468.949231 
L 585.934714 -546.06 
L 588.327674 -546.06 
L 590.720633 -480.683478 
L 593.113592 -546.06 
L 595.506551 -500.494545 
L 597.899511 -445.816 
L 600.29247 -504.291667 
L 602.685429 -546.06 
L 605.078389 -526.782308 
L 607.471348 -546.06 
L 609.864307 -546.06 
L 612.257266 -546.06 
L 614.650226 -420.755 
L 617.043185 -378.986667 
L 619.436144 -434.677778 
L 621.829104 -546.06 
L 624.222063 -546.06 
L 626.615022 -503.098286 
L 629.007981 -546.06 
L 631.400941 -546.06 
L 633.7939 -546.06 
L 636.186859 -546.06 
L 638.579818 -546.06 
L 640.972778 -546.06 
L 643.365737 -546.06 
L 645.758696 -546.06 
L 648.151656 -546.06 
L 650.544615 -546.06 
L 652.937574 -504.291667 
L 655.330533 -546.06 
L 657.723493 -546.06 
L 660.116452 -546.06 
L 662.509411 -546.06 
L 664.90237 -546.06 
L 667.29533 -530.871515 
L 669.688289 -546.06 
L 669.688289 -546.06 
L 669.688289 -546.06 
L 667.29533 -530.871515 
L 664.90237 -546.06 
L 662.509411 -546.06 
L 660.116452 -546.06 
L 657.723493 -546.06 
L 655.330533 -546.06 
L 652.937574 -504.291667 
L 650.544615 -546.06 
L 648.151656 -546.06 
L 645.758696 -546.06 
L 643.365737 -546.06 
L 640.972778 -546.06 
L 638.579818 -546.06 
L 636.186859 -546.06 
L 633.7939 -546.06 
L 631.400941 -546.06 
L 629.007981 -546.06 
L 626.615022 -517.418857 
L 624.222063 -546.06 
L 621.829104 -546.06 
L 619.436144 -546.06 
L 617.043185 -546.06 
L 614.650226 -420.755 
L 612.257266 -546.06 
L 609.864307 -546.06 
L 607.471348 -546.06 
L 605.078389 -526.782308 
L 602.685429 -546.06 
L 600.29247 -504.291667 
L 597.899511 -445.816 
L 595.506551 -500.494545 
L 593.113592 -546.06 
L 590.720633 -524.267826 
L 588.327674 -546.06 
L 585.934714 -546.06 
L 583.541755 -507.504615 
L 581.148796 -546.06 
L 578.755837 -546.06 
L 576.362877 -378.986667 
L 573.969918 -546.06 
L 571.576959 -546.06 
L 569.183999 -546.06 
L 566.79104 -546.06 
L 564.398081 -546.06 
L 562.005122 -546.06 
L 559.612162 -546.06 
L 557.219203 -546.06 
L 554.826244 -546.06 
L 552.433285 -546.06 
L 550.040325 -546.06 
L 547.647366 -546.06 
L 545.254407 -546.06 
L 542.861447 -546.06 
L 540.468488 -546.06 
L 538.075529 -546.06 
L 535.68257 -546.06 
L 533.28961 -546.06 
L 530.896651 -546.06 
L 528.503692 -546.06 
L 526.110733 -546.06 
L 523.717773 -546.06 
L 521.324814 -500.494545 
L 518.931855 -546.06 
L 516.538895 -526.0112 
L 514.145936 -546.06 
L 511.752977 -295.45 
L 509.360018 -546.06 
L 506.967058 -546.06 
L 504.574099 -546.06 
L 502.18114 -546.06 
L 499.788181 -546.06 
L 497.395221 -546.06 
L 495.002262 -546.06 
L 492.609303 -546.06 
L 490.216343 -546.06 
L 487.823384 -546.06 
L 485.430425 -546.06 
L 483.037466 -546.06 
L 480.644506 -546.06 
L 478.251547 -546.06 
L 475.858588 -546.06 
L 473.465629 -546.06 
L 471.072669 -546.06 
L 468.67971 -546.06 
L 466.286751 -546.06 
L 463.893791 -546.06 
L 461.500832 -546.06 
L 459.107873 -546.06 
L 456.714914 -523.277273 
L 454.321954 -546.06 
L 451.928995 -546.06 
L 449.536036 -546.06 
L 447.143077 -546.06 
L 444.750117 -546.06 
L 442.357158 -546.06 
L 439.964199 -378.986667 
L 437.571239 -546.06 
L 435.17828 -546.06 
L 432.785321 -546.06 
L 430.392362 -546.06 
L 427.999402 -546.06 
L 425.606443 -546.06 
L 423.213484 -546.06 
L 420.820525 -546.06 
L 418.427565 -526.782308 
L 416.034606 -546.06 
L 413.641647 -546.06 
L 411.248687 -483.4075 
L 408.855728 -546.06 
L 406.462769 -546.06 
L 404.06981 -546.06 
L 401.67685 -44.84 
L 399.283891 -546.06 
L 396.890932 -546.06 
L 394.497973 -546.06 
L 392.105013 -546.06 
L 389.712054 -546.06 
L 387.319095 -546.06 
L 384.926135 -44.84 
L 382.533176 -295.45 
L 380.140217 -546.06 
L 377.747258 -546.06 
L 375.354298 -546.06 
L 372.961339 -546.06 
L 370.56838 -546.06 
L 368.17542 -546.06 
L 365.782461 -546.06 
L 363.389502 -520.999 
L 360.996543 -546.06 
L 358.603583 -546.06 
L 356.210624 -510.258571 
L 353.817665 -546.06 
L 351.424706 -546.06 
L 349.031746 -546.06 
L 346.638787 -546.06 
L 344.245828 -546.06 
L 341.852868 -490.368889 
L 339.459909 -462.523333 
L 337.06695 -546.06 
L 334.673991 -546.06 
L 332.281031 -546.06 
L 329.888072 -546.06 
L 327.495113 -490.368889 
L 325.102154 -524.267826 
L 322.709194 -516.576471 
L 320.316235 -546.06 
L 317.923276 -546.06 
L 315.530316 -546.06 
L 313.137357 -546.06 
L 310.744398 -295.45 
L 308.351439 -546.06 
L 305.958479 -546.06 
L 303.56552 -546.06 
L 301.172561 -546.06 
L 298.779602 -546.06 
L 296.386642 -546.06 
L 293.993683 -546.06 
L 291.600724 -295.45 
L 289.207764 -546.06 
L 286.814805 -546.06 
L 284.421846 -546.06 
L 282.028887 -546.06 
L 279.635927 -546.06 
L 277.242968 -546.06 
L 274.850009 -546.06 
L 272.45705 -546.06 
L 270.06409 -546.06 
L 267.671131 -546.06 
L 265.278172 -546.06 
L 262.885212 -546.06 
L 260.492253 -546.06 
L 258.099294 -546.06 
L 255.706335 -546.06 
L 253.313375 -546.06 
L 250.920416 -546.06 
L 248.527457 -546.06 
L 246.134498 -546.06 
L 243.741538 -546.06 
L 241.348579 -546.06 
L 238.95562 -504.291667 
L 236.56266 -546.06 
L 234.169701 -546.06 
L 231.776742 -546.06 
L 229.383783 -546.06 
L 226.990823 -546.06 
L 224.597864 -546.06 
L 222.204905 -546.06 
L 219.811946 -546.06 
L 217.418986 -546.06 
L 215.026027 -546.06 
L 212.633068 -546.06 
L 210.240108 -546.06 
L 207.847149 -546.06 
L 205.45419 -546.06 
L 203.061231 -546.06 
L 200.668271 -533.5295 
L 198.275312 -546.06 
L 195.882353 -516.576471 
L 193.489394 -533.5295 
L 191.096434 -546.06 
L 188.703475 -533.5295 
L 186.310516 -546.06 
L 183.917556 -402.854286 
L 181.524597 -546.06 
L 179.131638 -546.06 
L 176.738679 -420.755 
L 174.345719 -531.739429 
L 171.95276 -546.06 
L 169.559801 -546.06 
L 167.166842 -483.4075 
L 164.773882 -546.06 
L 162.380923 -546.06 
L 159.987964 -474.457143 
L 157.595004 -546.06 
L 155.202045 -546.06 
L 152.809086 -490.368889 
L 150.416127 -546.06 
L 148.023167 -546.06 
L 145.630208 -546.06 
L 143.237249 -546.06 
L 140.844289 -546.06 
L 138.45133 -378.986667 
L 136.058371 -546.06 
L 133.665412 -514.73375 
L 131.272452 -546.06 
L 128.879493 -546.06 
L 126.486534 -546.06 
L 124.093575 -546.06 
L 121.700615 -533.5295 
L 119.307656 -520.999 
L 116.914697 -507.504615 
L 114.521737 -546.06 
L 112.128778 -546.06 
L 109.735819 -546.06 
L 107.34286 -546.06 
L 104.9499 -546.06 
L 102.556941 -530.871515 
L 100.163982 -516.576471 
L 97.771023 -295.45 
L 95.378063 -474.457143 
L 92.985104 -546.06 
L 90.592145 -546.06 
L 88.199185 -546.06 
L 85.806226 -546.06 
L 83.413267 -546.06 
L 81.020308 -546.06 
L 78.627348 -546.06 
L 76.234389 -522.192381 
L 73.84143 -546.06 
L 71.448471 -546.06 
L 69.055511 -546.06 
L 66.662552 -528.776552 
L 64.269593 -546.06 
L 61.876633 -546.06 
L 59.483674 -546.06 
L 57.090715 -546.06 
L 54.697756 -533.5295 
L 52.304796 -546.06 
L 49.911837 -546.06 
L 47.518878 -546.06 
L 45.125919 -546.06 
L 42.732959 -546.06 
L 40.34 -546.06 
z
" style="stroke: #ffffff"/>
    </defs>
    <g clip-path="url(#p5392971454)">
     <use xlink:href="#m96eb13439f" x="0" y="576" style="fill: #e8bc60; stroke: #ffffff"/>
    </g>
   </g>
   <g id="FillBetweenPolyCollection_4">
    <defs>
     <path id="m2d9235815f" d="M 40.34 -546.06 
L 40.34 -546.06 
L 42.732959 -546.06 
L 45.125919 -546.06 
L 47.518878 -546.06 
L 49.911837 -546.06 
L 52.304796 -546.06 
L 54.697756 -533.5295 
L 57.090715 -546.06 
L 59.483674 -546.06 
L 61.876633 -546.06 
L 64.269593 -546.06 
L 66.662552 -528.776552 
L 69.055511 -546.06 
L 71.448471 -546.06 
L 73.84143 -546.06 
L 76.234389 -522.192381 
L 78.627348 -546.06 
L 81.020308 -546.06 
L 83.413267 -546.06 
L 85.806226 -546.06 
L 88.199185 -546.06 
L 90.592145 -546.06 
L 92.985104 -546.06 
L 95.378063 -474.457143 
L 97.771023 -295.45 
L 100.163982 -516.576471 
L 102.556941 -530.871515 
L 104.9499 -546.06 
L 107.34286 -546.06 
L 109.735819 -546.06 
L 112.128778 -546.06 
L 114.521737 -546.06 
L 116.914697 -507.504615 
L 119.307656 -520.999 
L 121.700615 -533.5295 
L 124.093575 -546.06 
L 126.486534 -546.06 
L 128.879493 -546.06 
L 131.272452 -546.06 
L 133.665412 -514.73375 
L 136.058371 -546.06 
L 138.45133 -378.986667 
L 140.844289 -546.06 
L 143.237249 -546.06 
L 145.630208 -546.06 
L 148.023167 -546.06 
L 150.416127 -546.06 
L 152.809086 -490.368889 
L 155.202045 -546.06 
L 157.595004 -546.06 
L 159.987964 -474.457143 
L 162.380923 -546.06 
L 164.773882 -546.06 
L 167.166842 -483.4075 
L 169.559801 -546.06 
L 171.95276 -546.06 
L 174.345719 -531.739429 
L 176.738679 -420.755 
L 179.131638 -546.06 
L 181.524597 -546.06 
L 183.917556 -402.854286 
L 186.310516 -546.06 
L 188.703475 -533.5295 
L 191.096434 -546.06 
L 193.489394 -533.5295 
L 195.882353 -516.576471 
L 198.275312 -546.06 
L 200.668271 -533.5295 
L 203.061231 -546.06 
L 205.45419 -546.06 
L 207.847149 -546.06 
L 210.240108 -546.06 
L 212.633068 -546.06 
L 215.026027 -546.06 
L 217.418986 -546.06 
L 219.811946 -546.06 
L 222.204905 -546.06 
L 224.597864 -546.06 
L 226.990823 -546.06 
L 229.383783 -546.06 
L 231.776742 -546.06 
L 234.169701 -546.06 
L 236.56266 -546.06 
L 238.95562 -504.291667 
L 241.348579 -546.06 
L 243.741538 -546.06 
L 246.134498 -546.06 
L 248.527457 -546.06 
L 250.920416 -546.06 
L 253.313375 -546.06 
L 255.706335 -546.06 
L 258.099294 -546.06 
L 260.492253 -546.06 
L 262.885212 -546.06 
L 265.278172 -546.06 
L 267.671131 -546.06 
L 270.06409 -546.06 
L 272.45705 -546.06 
L 274.850009 -546.06 
L 277.242968 -546.06 
L 279.635927 -546.06 
L 282.028887 -546.06 
L 284.421846 -546.06 
L 286.814805 -546.06 
L 289.207764 -546.06 
L 291.600724 -295.45 
L 293.993683 -546.06 
L 296.386642 -546.06 
L 298.779602 -546.06 
L 301.172561 -546.06 
L 303.56552 -546.06 
L 305.958479 -546.06 
L 308.351439 -546.06 
L 310.744398 -295.45 
L 313.137357 -546.06 
L 315.530316 -546.06 
L 317.923276 -546.06 
L 320.316235 -546.06 
L 322.709194 -516.576471 
L 325.102154 -524.267826 
L 327.495113 -490.368889 
L 329.888072 -546.06 
L 332.281031 -546.06 
L 334.673991 -546.06 
L 337.06695 -546.06 
L 339.459909 -462.523333 
L 341.852868 -490.368889 
L 344.245828 -546.06 
L 346.638787 -546.06 
L 349.031746 -546.06 
L 351.424706 -546.06 
L 353.817665 -546.06 
L 356.210624 -510.258571 
L 358.603583 -546.06 
L 360.996543 -546.06 
L 363.389502 -520.999 
L 365.782461 -546.06 
L 368.17542 -546.06 
L 370.56838 -546.06 
L 372.961339 -546.06 
L 375.354298 -546.06 
L 377.747258 -546.06 
L 380.140217 -546.06 
L 382.533176 -295.45 
L 384.926135 -44.84 
L 387.319095 -546.06 
L 389.712054 -546.06 
L 392.105013 -546.06 
L 394.497973 -546.06 
L 396.890932 -546.06 
L 399.283891 -546.06 
L 401.67685 -44.84 
L 404.06981 -546.06 
L 406.462769 -546.06 
L 408.855728 -546.06 
L 411.248687 -483.4075 
L 413.641647 -546.06 
L 416.034606 -546.06 
L 418.427565 -526.782308 
L 420.820525 -546.06 
L 423.213484 -546.06 
L 425.606443 -546.06 
L 427.999402 -546.06 
L 430.392362 -546.06 
L 432.785321 -546.06 
L 435.17828 -546.06 
L 437.571239 -546.06 
L 439.964199 -378.986667 
L 442.357158 -546.06 
L 444.750117 -546.06 
L 447.143077 -546.06 
L 449.536036 -546.06 
L 451.928995 -546.06 
L 454.321954 -546.06 
L 456.714914 -523.277273 
L 459.107873 -546.06 
L 461.500832 -546.06 
L 463.893791 -546.06 
L 466.286751 -546.06 
L 468.67971 -546.06 
L 471.072669 -546.06 
L 473.465629 -546.06 
L 475.858588 -546.06 
L 478.251547 -546.06 
L 480.644506 -546.06 
L 483.037466 -546.06 
L 485.430425 -546.06 
L 487.823384 -546.06 
L 490.216343 -546.06 
L 492.609303 -546.06 
L 495.002262 -546.06 
L 497.395221 -546.06 
L 499.788181 -546.06 
L 502.18114 -546.06 
L 504.574099 -546.06 
L 506.967058 -546.06 
L 509.360018 -546.06 
L 511.752977 -295.45 
L 514.145936 -546.06 
L 516.538895 -526.0112 
L 518.931855 -546.06 
L 521.324814 -500.494545 
L 523.717773 -546.06 
L 526.110733 -546.06 
L 528.503692 -546.06 
L 530.896651 -546.06 
L 533.28961 -546.06 
L 535.68257 -546.06 
L 538.075529 -546.06 
L 540.468488 -546.06 
L 542.861447 -546.06 
L 545.254407 -546.06 
L 547.647366 -546.06 
L 550.040325 -546.06 
L 552.433285 -546.06 
L 554.826244 -546.06 
L 557.219203 -546.06 
L 559.612162 -546.06 
L 562.005122 -546.06 
L 564.398081 -546.06 
L 566.79104 -546.06 
L 569.183999 -546.06 
L 571.576959 -546.06 
L 573.969918 -546.06 
L 576.362877 -378.986667 
L 578.755837 -546.06 
L 581.148796 -546.06 
L 583.541755 -507.504615 
L 585.934714 -546.06 
L 588.327674 -546.06 
L 590.720633 -524.267826 
L 593.113592 -546.06 
L 595.506551 -500.494545 
L 597.899511 -445.816 
L 600.29247 -504.291667 
L 602.685429 -546.06 
L 605.078389 -526.782308 
L 607.471348 -546.06 
L 609.864307 -546.06 
L 612.257266 -546.06 
L 614.650226 -420.755 
L 617.043185 -546.06 
L 619.436144 -546.06 
L 621.829104 -546.06 
L 624.222063 -546.06 
L 626.615022 -517.418857 
L 629.007981 -546.06 
L 631.400941 -546.06 
L 633.7939 -546.06 
L 636.186859 -546.06 
L 638.579818 -546.06 
L 640.972778 -546.06 
L 643.365737 -546.06 
L 645.758696 -546.06 
L 648.151656 -546.06 
L 650.544615 -546.06 
L 652.937574 -504.291667 
L 655.330533 -546.06 
L 657.723493 -546.06 
L 660.116452 -546.06 
L 662.509411 -546.06 
L 664.90237 -546.06 
L 667.29533 -530.871515 
L 669.688289 -546.06 
L 669.688289 -546.06 
L 669.688289 -546.06 
L 667.29533 -546.06 
L 664.90237 -546.06 
L 662.509411 -546.06 
L 660.116452 -546.06 
L 657.723493 -546.06 
L 655.330533 -546.06 
L 652.937574 -546.06 
L 650.544615 -546.06 
L 648.151656 -546.06 
L 645.758696 -546.06 
L 643.365737 -546.06 
L 640.972778 -546.06 
L 638.579818 -546.06 
L 636.186859 -546.06 
L 633.7939 -546.06 
L 631.400941 -546.06 
L 629.007981 -546.06 
L 626.615022 -546.06 
L 624.222063 -546.06 
L 621.829104 -546.06 
L 619.436144 -546.06 
L 617.043185 -546.06 
L 614.650226 -546.06 
L 612.257266 -546.06 
L 609.864307 -546.06 
L 607.471348 -546.06 
L 605.078389 -546.06 
L 602.685429 -546.06 
L 600.29247 -546.06 
L 597.899511 -546.06 
L 595.506551 -546.06 
L 593.113592 -546.06 
L 590.720633 -546.06 
L 588.327674 -546.06 
L 585.934714 -546.06 
L 583.541755 -546.06 
L 581.148796 -546.06 
L 578.755837 -546.06 
L 576.362877 -546.06 
L 573.969918 -546.06 
L 571.576959 -546.06 
L 569.183999 -546.06 
L 566.79104 -546.06 
L 564.398081 -546.06 
L 562.005122 -546.06 
L 559.612162 -546.06 
L 557.219203 -546.06 
L 554.826244 -546.06 
L 552.433285 -546.06 
L 550.040325 -546.06 
L 547.647366 -546.06 
L 545.254407 -546.06 
L 542.861447 -546.06 
L 540.468488 -546.06 
L 538.075529 -546.06 
L 535.68257 -546.06 
L 533.28961 -546.06 
L 530.896651 -546.06 
L 528.503692 -546.06 
L 526.110733 -546.06 
L 523.717773 -546.06 
L 521.324814 -546.06 
L 518.931855 -546.06 
L 516.538895 -546.06 
L 514.145936 -546.06 
L 511.752977 -546.06 
L 509.360018 -546.06 
L 506.967058 -546.06 
L 504.574099 -546.06 
L 502.18114 -546.06 
L 499.788181 -546.06 
L 497.395221 -546.06 
L 495.002262 -546.06 
L 492.609303 -546.06 
L 490.216343 -546.06 
L 487.823384 -546.06 
L 485.430425 -546.06 
L 483.037466 -546.06 
L 480.644506 -546.06 
L 478.251547 -546.06 
L 475.858588 -546.06 
L 473.465629 -546.06 
L 471.072669 -546.06 
L 468.67971 -546.06 
L 466.286751 -546.06 
L 463.893791 -546.06 
L 461.500832 -546.06 
L 459.107873 -546.06 
L 456.714914 -546.06 
L 454.321954 -546.06 
L 451.928995 -546.06 
L 449.536036 -546.06 
L 447.143077 -546.06 
L 444.750117 -546.06 
L 442.357158 -546.06 
L 439.964199 -546.06 
L 437.571239 -546.06 
L 435.17828 -546.06 
L 432.785321 -546.06 
L 430.392362 -546.06 
L 427.999402 -546.06 
L 425.606443 -546.06 
L 423.213484 -546.06 
L 420.820525 -546.06 
L 418.427565 -546.06 
L 416.034606 -546.06 
L 413.641647 -546.06 
L 411.248687 -546.06 
L 408.855728 -546.06 
L 406.462769 -546.06 
L 404.06981 -546.06 
L 401.67685 -546.06 
L 399.283891 -546.06 
L 396.890932 -546.06 
L 394.497973 -546.06 
L 392.105013 -546.06 
L 389.712054 -546.06 
L 387.319095 -546.06 
L 384.926135 -546.06 
L 382.533176 -546.06 
L 380.140217 -546.06 
L 377.747258 -546.06 
L 375.354298 -546.06 
L 372.961339 -546.06 
L 370.56838 -546.06 
L 368.17542 -546.06 
L 365.782461 -546.06 
L 363.389502 -546.06 
L 360.996543 -546.06 
L 358.603583 -546.06 
L 356.210624 -546.06 
L 353.817665 -546.06 
L 351.424706 -546.06 
L 349.031746 -546.06 
L 346.638787 -546.06 
L 344.245828 -546.06 
L 341.852868 -546.06 
L 339.459909 -546.06 
L 337.06695 -546.06 
L 334.673991 -546.06 
L 332.281031 -546.06 
L 329.888072 -546.06 
L 327.495113 -546.06 
L 325.102154 -546.06 
L 322.709194 -546.06 
L 320.316235 -546.06 
L 317.923276 -546.06 
L 315.530316 -546.06 
L 313.137357 -546.06 
L 310.744398 -546.06 
L 308.351439 -546.06 
L 305.958479 -546.06 
L 303.56552 -546.06 
L 301.172561 -546.06 
L 298.779602 -546.06 
L 296.386642 -546.06 
L 293.993683 -546.06 
L 291.600724 -546.06 
L 289.207764 -546.06 
L 286.814805 -546.06 
L 284.421846 -546.06 
L 282.028887 -546.06 
L 279.635927 -546.06 
L 277.242968 -546.06 
L 274.850009 -546.06 
L 272.45705 -546.06 
L 270.06409 -546.06 
L 267.671131 -546.06 
L 265.278172 -546.06 
L 262.885212 -546.06 
L 260.492253 -546.06 
L 258.099294 -546.06 
L 255.706335 -546.06 
L 253.313375 -546.06 
L 250.920416 -546.06 
L 248.527457 -546.06 
L 246.134498 -546.06 
L 243.741538 -546.06 
L 241.348579 -546.06 
L 238.95562 -546.06 
L 236.56266 -546.06 
L 234.169701 -546.06 
L 231.776742 -546.06 
L 229.383783 -546.06 
L 226.990823 -546.06 
L 224.597864 -546.06 
L 222.204905 -546.06 
L 219.811946 -546.06 
L 217.418986 -546.06 
L 215.026027 -546.06 
L 212.633068 -546.06 
L 210.240108 -546.06 
L 207.847149 -546.06 
L 205.45419 -546.06 
L 203.061231 -546.06 
L 200.668271 -546.06 
L 198.275312 -546.06 
L 195.882353 -546.06 
L 193.489394 -546.06 
L 191.096434 -546.06 
L 188.703475 -546.06 
L 186.310516 -546.06 
L 183.917556 -546.06 
L 181.524597 -546.06 
L 179.131638 -546.06 
L 176.738679 -546.06 
L 174.345719 -546.06 
L 171.95276 -546.06 
L 169.559801 -546.06 
L 167.166842 -546.06 
L 164.773882 -546.06 
L 162.380923 -546.06 
L 159.987964 -546.06 
L 157.595004 -546.06 
L 155.202045 -546.06 
L 152.809086 -546.06 
L 150.416127 -546.06 
L 148.023167 -546.06 
L 145.630208 -546.06 
L 143.237249 -546.06 
L 140.844289 -546.06 
L 138.45133 -546.06 
L 136.058371 -546.06 
L 133.665412 -546.06 
L 131.272452 -546.06 
L 128.879493 -546.06 
L 126.486534 -546.06 
L 124.093575 -546.06 
L 121.700615 -546.06 
L 119.307656 -546.06 
L 116.914697 -546.06 
L 114.521737 -546.06 
L 112.128778 -546.06 
L 109.735819 -546.06 
L 107.34286 -546.06 
L 104.9499 -546.06 
L 102.556941 -546.06 
L 100.163982 -546.06 
L 97.771023 -546.06 
L 95.378063 -546.06 
L 92.985104 -546.06 
L 90.592145 -546.06 
L 88.199185 -546.06 
L 85.806226 -546.06 
L 83.413267 -546.06 
L 81.020308 -546.06 
L 78.627348 -546.06 
L 76.234389 -546.06 
L 73.84143 -546.06 
L 71.448471 -546.06 
L 69.055511 -546.06 
L 66.662552 -546.06 
L 64.269593 -546.06 
L 61.876633 -546.06 
L 59.483674 -546.06 
L 57.090715 -546.06 
L 54.697756 -546.06 
L 52.304796 -546.06 
L 49.911837 -546.06 
L 47.518878 -546.06 
L 45.125919 -546.06 
L 42.732959 -546.06 
L 40.34 -546.06 
z
" style="stroke: #ffffff"/>
    </defs>
    <g clip-path="url(#p5392971454)">
     <use xlink:href="#m2d9235815f" x="0" y="576" style="fill: #8d5993; stroke: #ffffff"/>
    </g>
   </g>
   <g id="line2d_8">
    <path d="M 40.34 63.053318 
L 669.688289 63.053318 
" clip-path="url(#p5392971454)" style="fill: none; stroke-dasharray: 7.5,15; stroke-dashoffset: 0; stroke: #000000; stroke-width: 1.5"/>
   </g>
   <g id="patch_3">
    <path d="M 40.34 531.16 
L 40.34 29.94 
" style="fill: none; stroke: #cccccc; stroke-width: 0.8; stroke-linejoin: miter; stroke-linecap: square"/>
   </g>
   <g id="patch_4">
    <path d="M 669.688289 531.16 
L 669.688289 29.94 
" style="fill: none; stroke: #cccccc; stroke-width: 0.8; stroke-linejoin: miter; stroke-linecap: square"/>
   </g>
   <g id="patch_5">
    <path d="M 40.34 531.16 
L 669.688289 531.16 
" style="fill: none; stroke: #cccccc; stroke-width: 0.8; stroke-linejoin: miter; stroke-linecap: square"/>
   </g>
   <g id="patch_6">
    <path d="M 40.34 29.94 
L 669.688289 29.94 
" style="fill: none; stroke: #cccccc; stroke-width: 0.8; stroke-linejoin: miter; stroke-linecap: square"/>
   </g>
   <g id="text_10">
    <!-- 0.93 -->
    <g transform="translate(686.439004 66.416599) scale(0.14 -0.14)">
     <defs>
      <path id="TimesNewRomanPSMT-30" d="M 231 2094 
Q 231 2819 450 3342 
Q 669 3866 1031 4122 
Q 1313 4325 1613 4325 
Q 2100 4325 2488 3828 
Q 2972 3213 2972 2159 
Q 2972 1422 2759 906 
Q 2547 391 2217 158 
Q 1888 -75 1581 -75 
Q 975 -75 572 641 
Q 231 1244 231 2094 
z
M 844 2016 
Q 844 1141 1059 588 
Q 1238 122 1591 122 
Q 1759 122 1940 273 
Q 2122 425 2216 781 
Q 2359 1319 2359 2297 
Q 2359 3022 2209 3506 
Q 2097 3866 1919 4016 
Q 1791 4119 1609 4119 
Q 1397 4119 1231 3928 
Q 1006 3669 925 3112 
Q 844 2556 844 2016 
z
" transform="scale(0.015625)"/>
      <path id="TimesNewRomanPSMT-2e" d="M 800 606 
Q 947 606 1047 504 
Q 1147 403 1147 259 
Q 1147 116 1045 14 
Q 944 -88 800 -88 
Q 656 -88 554 14 
Q 453 116 453 259 
Q 453 406 554 506 
Q 656 606 800 606 
z
" transform="scale(0.015625)"/>
      <path id="TimesNewRomanPSMT-39" d="M 338 -88 
L 338 28 
Q 744 34 1094 217 
Q 1444 400 1770 856 
Q 2097 1313 2225 1859 
Q 1734 1544 1338 1544 
Q 891 1544 572 1889 
Q 253 2234 253 2806 
Q 253 3363 572 3797 
Q 956 4325 1575 4325 
Q 2097 4325 2469 3894 
Q 2925 3359 2925 2575 
Q 2925 1869 2578 1258 
Q 2231 647 1613 244 
Q 1109 -88 516 -88 
L 338 -88 
z
M 2275 2091 
Q 2331 2497 2331 2741 
Q 2331 3044 2228 3395 
Q 2125 3747 1936 3934 
Q 1747 4122 1506 4122 
Q 1228 4122 1018 3872 
Q 809 3622 809 3128 
Q 809 2469 1088 2097 
Q 1291 1828 1588 1828 
Q 1731 1828 1928 1897 
Q 2125 1966 2275 2091 
z
" transform="scale(0.015625)"/>
      <path id="TimesNewRomanPSMT-33" d="M 325 3431 
Q 506 3859 782 4092 
Q 1059 4325 1472 4325 
Q 1981 4325 2253 3994 
Q 2459 3747 2459 3466 
Q 2459 3003 1878 2509 
Q 2269 2356 2469 2072 
Q 2669 1788 2669 1403 
Q 2669 853 2319 450 
Q 1863 -75 997 -75 
Q 569 -75 414 31 
Q 259 138 259 259 
Q 259 350 332 419 
Q 406 488 509 488 
Q 588 488 669 463 
Q 722 447 909 348 
Q 1097 250 1169 231 
Q 1284 197 1416 197 
Q 1734 197 1970 444 
Q 2206 691 2206 1028 
Q 2206 1275 2097 1509 
Q 2016 1684 1919 1775 
Q 1784 1900 1550 2001 
Q 1316 2103 1072 2103 
L 972 2103 
L 972 2197 
Q 1219 2228 1467 2375 
Q 1716 2522 1828 2728 
Q 1941 2934 1941 3181 
Q 1941 3503 1739 3701 
Q 1538 3900 1238 3900 
Q 753 3900 428 3381 
L 325 3431 
z
" transform="scale(0.015625)"/>
     </defs>
     <use xlink:href="#TimesNewRomanPSMT-30"/>
     <use xlink:href="#TimesNewRomanPSMT-2e" transform="translate(50 0)"/>
     <use xlink:href="#TimesNewRomanPSMT-39" transform="translate(75 0)"/>
     <use xlink:href="#TimesNewRomanPSMT-33" transform="translate(125 0)"/>
    </g>
   </g>
   <g id="text_11">
    <!-- Nenno (Tonkean) -->
    <g style="fill: #262626" transform="translate(281.192269 23.94) scale(0.2 -0.2)">
     <defs>
      <path id="TimesNewRomanPS-BoldMT-4e" d="M 1594 4238 
L 3684 1609 
L 3684 3431 
Q 3684 3813 3575 3947 
Q 3425 4128 3072 4122 
L 3072 4238 
L 4472 4238 
L 4472 4122 
Q 4203 4088 4111 4033 
Q 4019 3978 3967 3854 
Q 3916 3731 3916 3431 
L 3916 -97 
L 3809 -97 
L 944 3431 
L 944 738 
Q 944 372 1111 244 
Q 1278 116 1494 116 
L 1594 116 
L 1594 0 
L 91 0 
L 91 116 
Q 441 119 578 259 
Q 716 400 716 738 
L 716 3728 
L 625 3841 
Q 491 4009 387 4062 
Q 284 4116 91 4122 
L 91 4238 
L 1594 4238 
z
" transform="scale(0.015625)"/>
      <path id="TimesNewRomanPS-BoldMT-65" d="M 2691 1566 
L 1088 1566 
Q 1116 984 1397 647 
Q 1613 388 1916 388 
Q 2103 388 2256 492 
Q 2409 597 2584 869 
L 2691 800 
Q 2453 316 2165 114 
Q 1878 -88 1500 -88 
Q 850 -88 516 413 
Q 247 816 247 1413 
Q 247 2144 642 2576 
Q 1038 3009 1569 3009 
Q 2013 3009 2339 2645 
Q 2666 2281 2691 1566 
z
M 1922 1775 
Q 1922 2278 1867 2465 
Q 1813 2653 1697 2750 
Q 1631 2806 1522 2806 
Q 1359 2806 1256 2647 
Q 1072 2369 1072 1884 
L 1072 1775 
L 1922 1775 
z
" transform="scale(0.015625)"/>
      <path id="TimesNewRomanPS-BoldMT-6e" d="M 1409 2922 
L 1409 2544 
Q 1634 2788 1840 2898 
Q 2047 3009 2284 3009 
Q 2569 3009 2756 2851 
Q 2944 2694 3006 2459 
Q 3056 2281 3056 1775 
L 3056 638 
Q 3056 300 3117 217 
Q 3178 134 3372 113 
L 3372 0 
L 1894 0 
L 1894 113 
Q 2059 134 2131 250 
Q 2181 328 2181 638 
L 2181 1938 
Q 2181 2297 2153 2390 
Q 2125 2484 2058 2536 
Q 1991 2588 1909 2588 
Q 1641 2588 1409 2203 
L 1409 638 
Q 1409 309 1470 221 
Q 1531 134 1697 113 
L 1697 0 
L 219 0 
L 219 113 
Q 403 131 481 231 
Q 534 300 534 638 
L 534 2288 
Q 534 2619 473 2700 
Q 413 2781 219 2806 
L 219 2922 
L 1409 2922 
z
" transform="scale(0.015625)"/>
      <path id="TimesNewRomanPS-BoldMT-6f" d="M 1594 3009 
Q 1975 3009 2303 2812 
Q 2631 2616 2801 2253 
Q 2972 1891 2972 1459 
Q 2972 838 2656 419 
Q 2275 -88 1603 -88 
Q 944 -88 587 375 
Q 231 838 231 1447 
Q 231 2075 595 2542 
Q 959 3009 1594 3009 
z
M 1606 2788 
Q 1447 2788 1333 2667 
Q 1219 2547 1183 2192 
Q 1147 1838 1147 1206 
Q 1147 872 1191 581 
Q 1225 359 1337 243 
Q 1450 128 1594 128 
Q 1734 128 1828 206 
Q 1950 313 1991 503 
Q 2053 800 2053 1703 
Q 2053 2234 1993 2432 
Q 1934 2631 1819 2722 
Q 1738 2788 1606 2788 
z
" transform="scale(0.015625)"/>
      <path id="TimesNewRomanPS-BoldMT-20" transform="scale(0.015625)"/>
      <path id="TimesNewRomanPS-BoldMT-28" d="M 2056 4334 
L 2056 4191 
Q 1731 3978 1578 3775 
Q 1366 3494 1247 3053 
Q 1097 2506 1097 1525 
Q 1097 600 1233 87 
Q 1369 -425 1603 -741 
Q 1766 -959 2056 -1125 
L 2056 -1281 
Q 1303 -1028 779 -248 
Q 256 531 256 1544 
Q 256 2544 778 3314 
Q 1300 4084 2056 4334 
z
" transform="scale(0.015625)"/>
      <path id="TimesNewRomanPS-BoldMT-54" d="M 4038 4238 
L 4038 3091 
L 3925 3091 
Q 3825 3488 3703 3661 
Q 3581 3834 3369 3938 
Q 3250 3994 2953 3994 
L 2638 3994 
L 2638 725 
Q 2638 400 2673 319 
Q 2709 238 2814 177 
Q 2919 116 3100 116 
L 3241 116 
L 3241 0 
L 1022 0 
L 1022 116 
L 1163 116 
Q 1347 116 1459 181 
Q 1541 225 1588 331 
Q 1622 406 1622 725 
L 1622 3994 
L 1316 3994 
Q 888 3994 694 3813 
Q 422 3559 350 3091 
L 231 3091 
L 231 4238 
L 4038 4238 
z
" transform="scale(0.015625)"/>
      <path id="TimesNewRomanPS-BoldMT-6b" d="M 1403 4238 
L 1403 1450 
L 2081 2116 
Q 2291 2319 2342 2409 
Q 2394 2500 2394 2584 
Q 2394 2669 2325 2725 
Q 2256 2781 2056 2806 
L 2056 2922 
L 3366 2922 
L 3366 2806 
Q 3178 2797 3037 2717 
Q 2897 2638 2488 2238 
L 2169 1925 
L 2856 919 
Q 3272 306 3350 231 
Q 3456 125 3619 113 
L 3619 0 
L 2109 0 
L 2109 113 
Q 2209 113 2254 150 
Q 2300 188 2300 231 
Q 2300 303 2169 497 
L 1591 1344 
L 1403 1159 
L 1403 634 
Q 1403 300 1465 217 
Q 1528 134 1722 113 
L 1722 0 
L 213 0 
L 213 113 
Q 397 131 475 231 
Q 528 300 528 634 
L 528 3603 
Q 528 3934 467 4015 
Q 406 4097 213 4122 
L 213 4238 
L 1403 4238 
z
" transform="scale(0.015625)"/>
      <path id="TimesNewRomanPS-BoldMT-61" d="M 1828 431 
Q 1294 -41 869 -41 
Q 619 -41 453 123 
Q 288 288 288 534 
Q 288 869 575 1136 
Q 863 1403 1828 1847 
L 1828 2141 
Q 1828 2472 1792 2558 
Q 1756 2644 1656 2708 
Q 1556 2772 1431 2772 
Q 1228 2772 1097 2681 
Q 1016 2625 1016 2550 
Q 1016 2484 1103 2388 
Q 1222 2253 1222 2128 
Q 1222 1975 1108 1867 
Q 994 1759 809 1759 
Q 613 1759 480 1878 
Q 347 1997 347 2156 
Q 347 2381 525 2586 
Q 703 2791 1022 2900 
Q 1341 3009 1684 3009 
Q 2100 3009 2342 2832 
Q 2584 2656 2656 2450 
Q 2700 2319 2700 1847 
L 2700 713 
Q 2700 513 2715 461 
Q 2731 409 2762 384 
Q 2794 359 2834 359 
Q 2916 359 3000 475 
L 3094 400 
Q 2938 169 2770 64 
Q 2603 -41 2391 -41 
Q 2141 -41 2000 76 
Q 1859 194 1828 431 
z
M 1828 659 
L 1828 1638 
Q 1450 1416 1266 1163 
Q 1144 994 1144 822 
Q 1144 678 1247 569 
Q 1325 484 1466 484 
Q 1622 484 1828 659 
z
" transform="scale(0.015625)"/>
      <path id="TimesNewRomanPS-BoldMT-29" d="M 78 -1281 
L 78 -1138 
Q 403 -922 556 -719 
Q 766 -438 888 0 
Q 1038 550 1038 1531 
Q 1038 2456 902 2967 
Q 766 3478 531 3794 
Q 369 4013 78 4178 
L 78 4334 
Q 831 4081 1354 3301 
Q 1878 2522 1878 1509 
Q 1878 513 1354 -257 
Q 831 -1028 78 -1281 
z
" transform="scale(0.015625)"/>
     </defs>
     <use xlink:href="#TimesNewRomanPS-BoldMT-4e"/>
     <use xlink:href="#TimesNewRomanPS-BoldMT-65" transform="translate(72.216797 0)"/>
     <use xlink:href="#TimesNewRomanPS-BoldMT-6e" transform="translate(116.601562 0)"/>
     <use xlink:href="#TimesNewRomanPS-BoldMT-6e" transform="translate(172.216797 0)"/>
     <use xlink:href="#TimesNewRomanPS-BoldMT-6f" transform="translate(227.832031 0)"/>
     <use xlink:href="#TimesNewRomanPS-BoldMT-20" transform="translate(277.832031 0)"/>
     <use xlink:href="#TimesNewRomanPS-BoldMT-28" transform="translate(302.832031 0)"/>
     <use xlink:href="#TimesNewRomanPS-BoldMT-54" transform="translate(336.132812 0)"/>
     <use xlink:href="#TimesNewRomanPS-BoldMT-6f" transform="translate(393.707031 0)"/>
     <use xlink:href="#TimesNewRomanPS-BoldMT-6e" transform="translate(443.707031 0)"/>
     <use xlink:href="#TimesNewRomanPS-BoldMT-6b" transform="translate(499.322266 0)"/>
     <use xlink:href="#TimesNewRomanPS-BoldMT-65" transform="translate(554.9375 0)"/>
     <use xlink:href="#TimesNewRomanPS-BoldMT-61" transform="translate(599.322266 0)"/>
     <use xlink:href="#TimesNewRomanPS-BoldMT-6e" transform="translate(649.322266 0)"/>
     <use xlink:href="#TimesNewRomanPS-BoldMT-29" transform="translate(704.9375 0)"/>
    </g>
   </g>
   <g id="legend_1">
    <g id="patch_7">
     <path d="M 47.34 94.49625 
L 133.236875 94.49625 
Q 135.236875 94.49625 135.236875 92.49625 
L 135.236875 36.94 
Q 135.236875 34.94 133.236875 34.94 
L 47.34 34.94 
Q 45.34 34.94 45.34 36.94 
L 45.34 92.49625 
Q 45.34 94.49625 47.34 94.49625 
z
" style="fill: #ffffff; opacity: 0.8; stroke: #cccccc; stroke-linejoin: miter"/>
    </g>
    <g id="patch_8">
     <path d="M 49.34 45.94 
L 69.34 45.94 
L 69.34 38.94 
L 49.34 38.94 
z
" style="fill: #5386b6; stroke: #ffffff; stroke-linejoin: miter"/>
    </g>
    <g id="text_12">
     <!-- Success -->
     <g style="fill: #262626" transform="translate(77.34 45.94) scale(0.1 -0.1)">
      <use xlink:href="#TimesNewRomanPSMT-53"/>
      <use xlink:href="#TimesNewRomanPSMT-75" transform="translate(55.615234 0)"/>
      <use xlink:href="#TimesNewRomanPSMT-63" transform="translate(105.615234 0)"/>
      <use xlink:href="#TimesNewRomanPSMT-63" transform="translate(150 0)"/>
      <use xlink:href="#TimesNewRomanPSMT-65" transform="translate(194.384766 0)"/>
      <use xlink:href="#TimesNewRomanPSMT-73" transform="translate(238.769531 0)"/>
      <use xlink:href="#TimesNewRomanPSMT-73" transform="translate(277.685547 0)"/>
     </g>
    </g>
    <g id="patch_9">
     <path d="M 49.34 60.079062 
L 69.34 60.079062 
L 69.34 53.079062 
L 49.34 53.079062 
z
" style="fill: #d57459; stroke: #ffffff; stroke-linejoin: miter"/>
    </g>
    <g id="text_13">
     <!-- Error -->
     <g style="fill: #262626" transform="translate(77.34 60.079062) scale(0.1 -0.1)">
      <defs>
       <path id="TimesNewRomanPSMT-45" d="M 1338 4006 
L 1338 2331 
L 2269 2331 
Q 2631 2331 2753 2441 
Q 2916 2584 2934 2947 
L 3050 2947 
L 3050 1472 
L 2934 1472 
Q 2891 1781 2847 1869 
Q 2791 1978 2662 2040 
Q 2534 2103 2269 2103 
L 1338 2103 
L 1338 706 
Q 1338 425 1363 364 
Q 1388 303 1450 267 
Q 1513 231 1688 231 
L 2406 231 
Q 2766 231 2928 281 
Q 3091 331 3241 478 
Q 3434 672 3638 1063 
L 3763 1063 
L 3397 0 
L 131 0 
L 131 116 
L 281 116 
Q 431 116 566 188 
Q 666 238 702 338 
Q 738 438 738 747 
L 738 3500 
Q 738 3903 656 3997 
Q 544 4122 281 4122 
L 131 4122 
L 131 4238 
L 3397 4238 
L 3444 3309 
L 3322 3309 
Q 3256 3644 3176 3769 
Q 3097 3894 2941 3959 
Q 2816 4006 2500 4006 
L 1338 4006 
z
" transform="scale(0.015625)"/>
      </defs>
      <use xlink:href="#TimesNewRomanPSMT-45"/>
      <use xlink:href="#TimesNewRomanPSMT-72" transform="translate(61.083984 0)"/>
      <use xlink:href="#TimesNewRomanPSMT-72" transform="translate(94.384766 0)"/>
      <use xlink:href="#TimesNewRomanPSMT-6f" transform="translate(127.685547 0)"/>
      <use xlink:href="#TimesNewRomanPSMT-72" transform="translate(177.685547 0)"/>
     </g>
    </g>
    <g id="patch_10">
     <path d="M 49.34 74.218125 
L 69.34 74.218125 
L 69.34 67.218125 
L 49.34 67.218125 
z
" style="fill: #e8bc60; stroke: #ffffff; stroke-linejoin: miter"/>
    </g>
    <g id="text_14">
     <!-- Premature -->
     <g style="fill: #262626" transform="translate(77.34 74.218125) scale(0.1 -0.1)">
      <defs>
       <path id="TimesNewRomanPSMT-6d" d="M 1050 2338 
Q 1363 2650 1419 2697 
Q 1559 2816 1721 2881 
Q 1884 2947 2044 2947 
Q 2313 2947 2506 2790 
Q 2700 2634 2766 2338 
Q 3088 2713 3309 2830 
Q 3531 2947 3766 2947 
Q 3994 2947 4170 2830 
Q 4347 2713 4450 2447 
Q 4519 2266 4519 1878 
L 4519 647 
Q 4519 378 4559 278 
Q 4591 209 4675 161 
Q 4759 113 4950 113 
L 4950 0 
L 3538 0 
L 3538 113 
L 3597 113 
Q 3781 113 3884 184 
Q 3956 234 3988 344 
Q 4000 397 4000 647 
L 4000 1878 
Q 4000 2228 3916 2372 
Q 3794 2572 3525 2572 
Q 3359 2572 3192 2489 
Q 3025 2406 2788 2181 
L 2781 2147 
L 2788 2013 
L 2788 647 
Q 2788 353 2820 281 
Q 2853 209 2943 161 
Q 3034 113 3253 113 
L 3253 0 
L 1806 0 
L 1806 113 
Q 2044 113 2133 169 
Q 2222 225 2256 338 
Q 2272 391 2272 647 
L 2272 1878 
Q 2272 2228 2169 2381 
Q 2031 2581 1784 2581 
Q 1616 2581 1450 2491 
Q 1191 2353 1050 2181 
L 1050 647 
Q 1050 366 1089 281 
Q 1128 197 1204 155 
Q 1281 113 1516 113 
L 1516 0 
L 100 0 
L 100 113 
Q 297 113 375 155 
Q 453 197 493 289 
Q 534 381 534 647 
L 534 1741 
Q 534 2213 506 2350 
Q 484 2453 437 2492 
Q 391 2531 309 2531 
Q 222 2531 100 2484 
L 53 2597 
L 916 2947 
L 1050 2947 
L 1050 2338 
z
" transform="scale(0.015625)"/>
      </defs>
      <use xlink:href="#TimesNewRomanPSMT-50"/>
      <use xlink:href="#TimesNewRomanPSMT-72" transform="translate(55.615234 0)"/>
      <use xlink:href="#TimesNewRomanPSMT-65" transform="translate(88.916016 0)"/>
      <use xlink:href="#TimesNewRomanPSMT-6d" transform="translate(133.300781 0)"/>
      <use xlink:href="#TimesNewRomanPSMT-61" transform="translate(211.083984 0)"/>
      <use xlink:href="#TimesNewRomanPSMT-74" transform="translate(255.46875 0)"/>
      <use xlink:href="#TimesNewRomanPSMT-75" transform="translate(283.251953 0)"/>
      <use xlink:href="#TimesNewRomanPSMT-72" transform="translate(333.251953 0)"/>
      <use xlink:href="#TimesNewRomanPSMT-65" transform="translate(366.552734 0)"/>
     </g>
    </g>
    <g id="patch_11">
     <path d="M 49.34 88.357187 
L 69.34 88.357187 
L 69.34 81.357187 
L 49.34 81.357187 
z
" style="fill: #8d5993; stroke: #ffffff; stroke-linejoin: miter"/>
    </g>
    <g id="text_15">
     <!-- Stepomission -->
     <g style="fill: #262626" transform="translate(77.34 88.357187) scale(0.1 -0.1)">
      <use xlink:href="#TimesNewRomanPSMT-53"/>
      <use xlink:href="#TimesNewRomanPSMT-74" transform="translate(55.615234 0)"/>
      <use xlink:href="#TimesNewRomanPSMT-65" transform="translate(83.398438 0)"/>
      <use xlink:href="#TimesNewRomanPSMT-70" transform="translate(127.783203 0)"/>
      <use xlink:href="#TimesNewRomanPSMT-6f" transform="translate(177.783203 0)"/>
      <use xlink:href="#TimesNewRomanPSMT-6d" transform="translate(227.783203 0)"/>
      <use xlink:href="#TimesNewRomanPSMT-69" transform="translate(305.566406 0)"/>
      <use xlink:href="#TimesNewRomanPSMT-73" transform="translate(333.349609 0)"/>
      <use xlink:href="#TimesNewRomanPSMT-73" transform="translate(372.265625 0)"/>
      <use xlink:href="#TimesNewRomanPSMT-69" transform="translate(411.181641 0)"/>
      <use xlink:href="#TimesNewRomanPSMT-6f" transform="translate(438.964844 0)"/>
      <use xlink:href="#TimesNewRomanPSMT-6e" transform="translate(488.964844 0)"/>
     </g>
    </g>
   </g>
  </g>
 </g>
 <defs>
  <clipPath id="p5392971454">
   <rect x="40.34" y="29.94" width="629.348289" height="501.22"/>
  </clipPath>
 </defs>
</svg>
