<?xml version="1.0" encoding="utf-8" standalone="no"?>
<!DOCTYPE svg PUBLIC "-//W3C//DTD SVG 1.1//EN"
  "http://www.w3.org/Graphics/SVG/1.1/DTD/svg11.dtd">
<svg xmlns:xlink="http://www.w3.org/1999/xlink" width="720pt" height="576pt" viewBox="0 0 720 576" xmlns="http://www.w3.org/2000/svg" version="1.1">
 <metadata>
  <rdf:RDF xmlns:dc="http://purl.org/dc/elements/1.1/" xmlns:cc="http://creativecommons.org/ns#" xmlns:rdf="http://www.w3.org/1999/02/22-rdf-syntax-ns#">
   <cc:Work>
    <dc:type rdf:resource="http://purl.org/dc/dcmitype/StillImage"/>
    <dc:date>2025-07-03T15:55:12.999642</dc:date>
    <dc:format>image/svg+xml</dc:format>
    <dc:creator>
     <cc:Agent>
      <dc:title>Matplotlib v3.10.3, https://matplotlib.org/</dc:title>
     </cc:Agent>
    </dc:creator>
   </cc:Work>
  </rdf:RDF>
 </metadata>
 <defs>
  <style type="text/css">*{stroke-linejoin: round; stroke-linecap: butt}</style>
 </defs>
 <g id="figure_1">
  <g id="patch_1">
   <path d="M 0 576 
L 720 576 
L 720 0 
L 0 0 
z
" style="fill: #ffffff"/>
  </g>
  <g id="axes_1">
   <g id="patch_2">
    <path d="M 40.34 531.16 
L 659.501538 531.16 
L 659.501538 30.2775 
L 40.34 30.2775 
z
" style="fill: #ffffff"/>
   </g>
   <g id="matplotlib.axis_1">
    <g id="xtick_1">
     <g id="line2d_1">
      <path d="M 115.7507 531.16 
L 115.7507 30.2775 
" clip-path="url(#p744e4c8b08)" style="fill: none; stroke-dasharray: 2.96,1.28; stroke-dashoffset: 0; stroke: #cccccc; stroke-opacity: 0.5; stroke-width: 0.8"/>
     </g>
     <g id="text_1">
      <!-- 20 -->
      <g style="fill: #262626" transform="translate(110.189763 545.317813) scale(0.1 -0.1)">
       <defs>
        <path id="ArialMT-32" d="M 3222 541 
L 3222 0 
L 194 0 
Q 188 203 259 391 
Q 375 700 629 1000 
Q 884 1300 1366 1694 
Q 2113 2306 2375 2664 
Q 2638 3022 2638 3341 
Q 2638 3675 2398 3904 
Q 2159 4134 1775 4134 
Q 1369 4134 1125 3890 
Q 881 3647 878 3216 
L 300 3275 
Q 359 3922 746 4261 
Q 1134 4600 1788 4600 
Q 2447 4600 2831 4234 
Q 3216 3869 3216 3328 
Q 3216 3053 3103 2787 
Q 2991 2522 2730 2228 
Q 2469 1934 1863 1422 
Q 1356 997 1212 845 
Q 1069 694 975 541 
L 3222 541 
z
" transform="scale(0.015625)"/>
        <path id="ArialMT-30" d="M 266 2259 
Q 266 3072 433 3567 
Q 600 4063 929 4331 
Q 1259 4600 1759 4600 
Q 2128 4600 2406 4451 
Q 2684 4303 2865 4023 
Q 3047 3744 3150 3342 
Q 3253 2941 3253 2259 
Q 3253 1453 3087 958 
Q 2922 463 2592 192 
Q 2263 -78 1759 -78 
Q 1097 -78 719 397 
Q 266 969 266 2259 
z
M 844 2259 
Q 844 1131 1108 757 
Q 1372 384 1759 384 
Q 2147 384 2411 759 
Q 2675 1134 2675 2259 
Q 2675 3391 2411 3762 
Q 2147 4134 1753 4134 
Q 1366 4134 1134 3806 
Q 844 3388 844 2259 
z
" transform="scale(0.015625)"/>
       </defs>
       <use xlink:href="#ArialMT-32"/>
       <use xlink:href="#ArialMT-30" transform="translate(55.615234 0)"/>
      </g>
     </g>
    </g>
    <g id="xtick_2">
     <g id="line2d_2">
      <path d="M 195.130385 531.16 
L 195.130385 30.2775 
" clip-path="url(#p744e4c8b08)" style="fill: none; stroke-dasharray: 2.96,1.28; stroke-dashoffset: 0; stroke: #cccccc; stroke-opacity: 0.5; stroke-width: 0.8"/>
     </g>
     <g id="text_2">
      <!-- 40 -->
      <g style="fill: #262626" transform="translate(189.569447 545.317813) scale(0.1 -0.1)">
       <defs>
        <path id="ArialMT-34" d="M 2069 0 
L 2069 1097 
L 81 1097 
L 81 1613 
L 2172 4581 
L 2631 4581 
L 2631 1613 
L 3250 1613 
L 3250 1097 
L 2631 1097 
L 2631 0 
L 2069 0 
z
M 2069 1613 
L 2069 3678 
L 634 1613 
L 2069 1613 
z
" transform="scale(0.015625)"/>
       </defs>
       <use xlink:href="#ArialMT-34"/>
       <use xlink:href="#ArialMT-30" transform="translate(55.615234 0)"/>
      </g>
     </g>
    </g>
    <g id="xtick_3">
     <g id="line2d_3">
      <path d="M 274.510069 531.16 
L 274.510069 30.2775 
" clip-path="url(#p744e4c8b08)" style="fill: none; stroke-dasharray: 2.96,1.28; stroke-dashoffset: 0; stroke: #cccccc; stroke-opacity: 0.5; stroke-width: 0.8"/>
     </g>
     <g id="text_3">
      <!-- 60 -->
      <g style="fill: #262626" transform="translate(268.949132 545.317813) scale(0.1 -0.1)">
       <defs>
        <path id="ArialMT-36" d="M 3184 3459 
L 2625 3416 
Q 2550 3747 2413 3897 
Q 2184 4138 1850 4138 
Q 1581 4138 1378 3988 
Q 1113 3794 959 3422 
Q 806 3050 800 2363 
Q 1003 2672 1297 2822 
Q 1591 2972 1913 2972 
Q 2475 2972 2870 2558 
Q 3266 2144 3266 1488 
Q 3266 1056 3080 686 
Q 2894 316 2569 119 
Q 2244 -78 1831 -78 
Q 1128 -78 684 439 
Q 241 956 241 2144 
Q 241 3472 731 4075 
Q 1159 4600 1884 4600 
Q 2425 4600 2770 4297 
Q 3116 3994 3184 3459 
z
M 888 1484 
Q 888 1194 1011 928 
Q 1134 663 1356 523 
Q 1578 384 1822 384 
Q 2178 384 2434 671 
Q 2691 959 2691 1453 
Q 2691 1928 2437 2201 
Q 2184 2475 1800 2475 
Q 1419 2475 1153 2201 
Q 888 1928 888 1484 
z
" transform="scale(0.015625)"/>
       </defs>
       <use xlink:href="#ArialMT-36"/>
       <use xlink:href="#ArialMT-30" transform="translate(55.615234 0)"/>
      </g>
     </g>
    </g>
    <g id="xtick_4">
     <g id="line2d_4">
      <path d="M 353.889753 531.16 
L 353.889753 30.2775 
" clip-path="url(#p744e4c8b08)" style="fill: none; stroke-dasharray: 2.96,1.28; stroke-dashoffset: 0; stroke: #cccccc; stroke-opacity: 0.5; stroke-width: 0.8"/>
     </g>
     <g id="text_4">
      <!-- 80 -->
      <g style="fill: #262626" transform="translate(348.328816 545.317813) scale(0.1 -0.1)">
       <defs>
        <path id="ArialMT-38" d="M 1131 2484 
Q 781 2613 612 2850 
Q 444 3088 444 3419 
Q 444 3919 803 4259 
Q 1163 4600 1759 4600 
Q 2359 4600 2725 4251 
Q 3091 3903 3091 3403 
Q 3091 3084 2923 2848 
Q 2756 2613 2416 2484 
Q 2838 2347 3058 2040 
Q 3278 1734 3278 1309 
Q 3278 722 2862 322 
Q 2447 -78 1769 -78 
Q 1091 -78 675 323 
Q 259 725 259 1325 
Q 259 1772 486 2073 
Q 713 2375 1131 2484 
z
M 1019 3438 
Q 1019 3113 1228 2906 
Q 1438 2700 1772 2700 
Q 2097 2700 2305 2904 
Q 2513 3109 2513 3406 
Q 2513 3716 2298 3927 
Q 2084 4138 1766 4138 
Q 1444 4138 1231 3931 
Q 1019 3725 1019 3438 
z
M 838 1322 
Q 838 1081 952 856 
Q 1066 631 1291 507 
Q 1516 384 1775 384 
Q 2178 384 2440 643 
Q 2703 903 2703 1303 
Q 2703 1709 2433 1975 
Q 2163 2241 1756 2241 
Q 1359 2241 1098 1978 
Q 838 1716 838 1322 
z
" transform="scale(0.015625)"/>
       </defs>
       <use xlink:href="#ArialMT-38"/>
       <use xlink:href="#ArialMT-30" transform="translate(55.615234 0)"/>
      </g>
     </g>
    </g>
    <g id="xtick_5">
     <g id="line2d_5">
      <path d="M 433.269438 531.16 
L 433.269438 30.2775 
" clip-path="url(#p744e4c8b08)" style="fill: none; stroke-dasharray: 2.96,1.28; stroke-dashoffset: 0; stroke: #cccccc; stroke-opacity: 0.5; stroke-width: 0.8"/>
     </g>
     <g id="text_5">
      <!-- 100 -->
      <g style="fill: #262626" transform="translate(424.928032 545.317813) scale(0.1 -0.1)">
       <defs>
        <path id="ArialMT-31" d="M 2384 0 
L 1822 0 
L 1822 3584 
Q 1619 3391 1289 3197 
Q 959 3003 697 2906 
L 697 3450 
Q 1169 3672 1522 3987 
Q 1875 4303 2022 4600 
L 2384 4600 
L 2384 0 
z
" transform="scale(0.015625)"/>
       </defs>
       <use xlink:href="#ArialMT-31"/>
       <use xlink:href="#ArialMT-30" transform="translate(55.615234 0)"/>
       <use xlink:href="#ArialMT-30" transform="translate(111.230469 0)"/>
      </g>
     </g>
    </g>
    <g id="xtick_6">
     <g id="line2d_6">
      <path d="M 512.649122 531.16 
L 512.649122 30.2775 
" clip-path="url(#p744e4c8b08)" style="fill: none; stroke-dasharray: 2.96,1.28; stroke-dashoffset: 0; stroke: #cccccc; stroke-opacity: 0.5; stroke-width: 0.8"/>
     </g>
     <g id="text_6">
      <!-- 120 -->
      <g style="fill: #262626" transform="translate(504.307716 545.317813) scale(0.1 -0.1)">
       <use xlink:href="#ArialMT-31"/>
       <use xlink:href="#ArialMT-32" transform="translate(55.615234 0)"/>
       <use xlink:href="#ArialMT-30" transform="translate(111.230469 0)"/>
      </g>
     </g>
    </g>
    <g id="xtick_7">
     <g id="line2d_7">
      <path d="M 592.028807 531.16 
L 592.028807 30.2775 
" clip-path="url(#p744e4c8b08)" style="fill: none; stroke-dasharray: 2.96,1.28; stroke-dashoffset: 0; stroke: #cccccc; stroke-opacity: 0.5; stroke-width: 0.8"/>
     </g>
     <g id="text_7">
      <!-- 140 -->
      <g style="fill: #262626" transform="translate(583.6874 545.317813) scale(0.1 -0.1)">
       <use xlink:href="#ArialMT-31"/>
       <use xlink:href="#ArialMT-34" transform="translate(55.615234 0)"/>
       <use xlink:href="#ArialMT-30" transform="translate(111.230469 0)"/>
      </g>
     </g>
    </g>
    <g id="text_8">
     <!-- Session Count -->
     <g style="fill: #262626" transform="translate(309.663113 561.026563) scale(0.14 -0.14)">
      <defs>
       <path id="TimesNewRomanPSMT-53" d="M 2934 4334 
L 2934 2869 
L 2819 2869 
Q 2763 3291 2617 3541 
Q 2472 3791 2203 3937 
Q 1934 4084 1647 4084 
Q 1322 4084 1109 3886 
Q 897 3688 897 3434 
Q 897 3241 1031 3081 
Q 1225 2847 1953 2456 
Q 2547 2138 2764 1967 
Q 2981 1797 3098 1565 
Q 3216 1334 3216 1081 
Q 3216 600 2842 251 
Q 2469 -97 1881 -97 
Q 1697 -97 1534 -69 
Q 1438 -53 1133 45 
Q 828 144 747 144 
Q 669 144 623 97 
Q 578 50 556 -97 
L 441 -97 
L 441 1356 
L 556 1356 
Q 638 900 775 673 
Q 913 447 1195 297 
Q 1478 147 1816 147 
Q 2206 147 2432 353 
Q 2659 559 2659 841 
Q 2659 997 2573 1156 
Q 2488 1316 2306 1453 
Q 2184 1547 1640 1851 
Q 1097 2156 867 2337 
Q 638 2519 519 2737 
Q 400 2956 400 3219 
Q 400 3675 750 4004 
Q 1100 4334 1641 4334 
Q 1978 4334 2356 4169 
Q 2531 4091 2603 4091 
Q 2684 4091 2736 4139 
Q 2788 4188 2819 4334 
L 2934 4334 
z
" transform="scale(0.015625)"/>
       <path id="TimesNewRomanPSMT-65" d="M 681 1784 
Q 678 1147 991 784 
Q 1303 422 1725 422 
Q 2006 422 2214 576 
Q 2422 731 2563 1106 
L 2659 1044 
Q 2594 616 2278 264 
Q 1963 -88 1488 -88 
Q 972 -88 605 314 
Q 238 716 238 1394 
Q 238 2128 614 2539 
Q 991 2950 1559 2950 
Q 2041 2950 2350 2633 
Q 2659 2316 2659 1784 
L 681 1784 
z
M 681 1966 
L 2006 1966 
Q 1991 2241 1941 2353 
Q 1863 2528 1708 2628 
Q 1553 2728 1384 2728 
Q 1125 2728 920 2526 
Q 716 2325 681 1966 
z
" transform="scale(0.015625)"/>
       <path id="TimesNewRomanPSMT-73" d="M 2050 2947 
L 2050 1972 
L 1947 1972 
Q 1828 2431 1642 2597 
Q 1456 2763 1169 2763 
Q 950 2763 815 2647 
Q 681 2531 681 2391 
Q 681 2216 781 2091 
Q 878 1963 1175 1819 
L 1631 1597 
Q 2266 1288 2266 781 
Q 2266 391 1970 151 
Q 1675 -88 1309 -88 
Q 1047 -88 709 6 
Q 606 38 541 38 
Q 469 38 428 -44 
L 325 -44 
L 325 978 
L 428 978 
Q 516 541 762 319 
Q 1009 97 1316 97 
Q 1531 97 1667 223 
Q 1803 350 1803 528 
Q 1803 744 1651 891 
Q 1500 1038 1047 1263 
Q 594 1488 453 1669 
Q 313 1847 313 2119 
Q 313 2472 555 2709 
Q 797 2947 1181 2947 
Q 1350 2947 1591 2875 
Q 1750 2828 1803 2828 
Q 1853 2828 1881 2850 
Q 1909 2872 1947 2947 
L 2050 2947 
z
" transform="scale(0.015625)"/>
       <path id="TimesNewRomanPSMT-69" d="M 928 4444 
Q 1059 4444 1151 4351 
Q 1244 4259 1244 4128 
Q 1244 3997 1151 3903 
Q 1059 3809 928 3809 
Q 797 3809 703 3903 
Q 609 3997 609 4128 
Q 609 4259 701 4351 
Q 794 4444 928 4444 
z
M 1188 2947 
L 1188 647 
Q 1188 378 1227 289 
Q 1266 200 1342 156 
Q 1419 113 1622 113 
L 1622 0 
L 231 0 
L 231 113 
Q 441 113 512 153 
Q 584 194 626 287 
Q 669 381 669 647 
L 669 1750 
Q 669 2216 641 2353 
Q 619 2453 572 2492 
Q 525 2531 444 2531 
Q 356 2531 231 2484 
L 188 2597 
L 1050 2947 
L 1188 2947 
z
" transform="scale(0.015625)"/>
       <path id="TimesNewRomanPSMT-6f" d="M 1600 2947 
Q 2250 2947 2644 2453 
Q 2978 2031 2978 1484 
Q 2978 1100 2793 706 
Q 2609 313 2286 112 
Q 1963 -88 1566 -88 
Q 919 -88 538 428 
Q 216 863 216 1403 
Q 216 1797 411 2186 
Q 606 2575 925 2761 
Q 1244 2947 1600 2947 
z
M 1503 2744 
Q 1338 2744 1170 2645 
Q 1003 2547 900 2300 
Q 797 2053 797 1666 
Q 797 1041 1045 587 
Q 1294 134 1700 134 
Q 2003 134 2200 384 
Q 2397 634 2397 1244 
Q 2397 2006 2069 2444 
Q 1847 2744 1503 2744 
z
" transform="scale(0.015625)"/>
       <path id="TimesNewRomanPSMT-6e" d="M 1034 2341 
Q 1538 2947 1994 2947 
Q 2228 2947 2397 2830 
Q 2566 2713 2666 2444 
Q 2734 2256 2734 1869 
L 2734 647 
Q 2734 375 2778 278 
Q 2813 200 2889 156 
Q 2966 113 3172 113 
L 3172 0 
L 1756 0 
L 1756 113 
L 1816 113 
Q 2016 113 2095 173 
Q 2175 234 2206 353 
Q 2219 400 2219 647 
L 2219 1819 
Q 2219 2209 2117 2386 
Q 2016 2563 1775 2563 
Q 1403 2563 1034 2156 
L 1034 647 
Q 1034 356 1069 288 
Q 1113 197 1189 155 
Q 1266 113 1500 113 
L 1500 0 
L 84 0 
L 84 113 
L 147 113 
Q 366 113 442 223 
Q 519 334 519 647 
L 519 1709 
Q 519 2225 495 2337 
Q 472 2450 423 2490 
Q 375 2531 294 2531 
Q 206 2531 84 2484 
L 38 2597 
L 900 2947 
L 1034 2947 
L 1034 2341 
z
" transform="scale(0.015625)"/>
       <path id="TimesNewRomanPSMT-20" transform="scale(0.015625)"/>
       <path id="TimesNewRomanPSMT-43" d="M 3853 4334 
L 3950 2894 
L 3853 2894 
Q 3659 3541 3300 3825 
Q 2941 4109 2438 4109 
Q 2016 4109 1675 3895 
Q 1334 3681 1139 3212 
Q 944 2744 944 2047 
Q 944 1472 1128 1050 
Q 1313 628 1683 403 
Q 2053 178 2528 178 
Q 2941 178 3256 354 
Q 3572 531 3950 1056 
L 4047 994 
Q 3728 428 3303 165 
Q 2878 -97 2294 -97 
Q 1241 -97 663 684 
Q 231 1266 231 2053 
Q 231 2688 515 3219 
Q 800 3750 1298 4042 
Q 1797 4334 2388 4334 
Q 2847 4334 3294 4109 
Q 3425 4041 3481 4041 
Q 3566 4041 3628 4100 
Q 3709 4184 3744 4334 
L 3853 4334 
z
" transform="scale(0.015625)"/>
       <path id="TimesNewRomanPSMT-75" d="M 2709 2863 
L 2709 1128 
Q 2709 631 2732 520 
Q 2756 409 2807 365 
Q 2859 322 2928 322 
Q 3025 322 3147 375 
L 3191 266 
L 2334 -88 
L 2194 -88 
L 2194 519 
Q 1825 119 1631 15 
Q 1438 -88 1222 -88 
Q 981 -88 804 51 
Q 628 191 559 409 
Q 491 628 491 1028 
L 491 2306 
Q 491 2509 447 2587 
Q 403 2666 317 2708 
Q 231 2750 6 2747 
L 6 2863 
L 1009 2863 
L 1009 947 
Q 1009 547 1148 422 
Q 1288 297 1484 297 
Q 1619 297 1789 381 
Q 1959 466 2194 703 
L 2194 2325 
Q 2194 2569 2105 2655 
Q 2016 2741 1734 2747 
L 1734 2863 
L 2709 2863 
z
" transform="scale(0.015625)"/>
       <path id="TimesNewRomanPSMT-74" d="M 1031 3803 
L 1031 2863 
L 1700 2863 
L 1700 2644 
L 1031 2644 
L 1031 788 
Q 1031 509 1111 412 
Q 1191 316 1316 316 
Q 1419 316 1516 380 
Q 1613 444 1666 569 
L 1788 569 
Q 1678 263 1478 108 
Q 1278 -47 1066 -47 
Q 922 -47 784 33 
Q 647 113 581 261 
Q 516 409 516 719 
L 516 2644 
L 63 2644 
L 63 2747 
Q 234 2816 414 2980 
Q 594 3144 734 3369 
Q 806 3488 934 3803 
L 1031 3803 
z
" transform="scale(0.015625)"/>
      </defs>
      <use xlink:href="#TimesNewRomanPSMT-53"/>
      <use xlink:href="#TimesNewRomanPSMT-65" transform="translate(55.615234 0)"/>
      <use xlink:href="#TimesNewRomanPSMT-73" transform="translate(100 0)"/>
      <use xlink:href="#TimesNewRomanPSMT-73" transform="translate(138.916016 0)"/>
      <use xlink:href="#TimesNewRomanPSMT-69" transform="translate(177.832031 0)"/>
      <use xlink:href="#TimesNewRomanPSMT-6f" transform="translate(205.615234 0)"/>
      <use xlink:href="#TimesNewRomanPSMT-6e" transform="translate(255.615234 0)"/>
      <use xlink:href="#TimesNewRomanPSMT-20" transform="translate(305.615234 0)"/>
      <use xlink:href="#TimesNewRomanPSMT-43" transform="translate(330.615234 0)"/>
      <use xlink:href="#TimesNewRomanPSMT-6f" transform="translate(397.314453 0)"/>
      <use xlink:href="#TimesNewRomanPSMT-75" transform="translate(447.314453 0)"/>
      <use xlink:href="#TimesNewRomanPSMT-6e" transform="translate(497.314453 0)"/>
      <use xlink:href="#TimesNewRomanPSMT-74" transform="translate(547.314453 0)"/>
     </g>
    </g>
   </g>
   <g id="matplotlib.axis_2">
    <g id="ytick_1">
     <g id="line2d_8">
      <path d="M 40.34 531.16 
L 659.501538 531.16 
" clip-path="url(#p744e4c8b08)" style="fill: none; stroke-dasharray: 2.96,1.28; stroke-dashoffset: 0; stroke: #cccccc; stroke-opacity: 0.5; stroke-width: 0.8"/>
     </g>
     <g id="text_9">
      <!-- 0 -->
      <g style="fill: #262626" transform="translate(27.779063 534.738906) scale(0.1 -0.1)">
       <use xlink:href="#ArialMT-30"/>
      </g>
     </g>
    </g>
    <g id="ytick_2">
     <g id="line2d_9">
      <path d="M 40.34 30.2775 
L 659.501538 30.2775 
" clip-path="url(#p744e4c8b08)" style="fill: none; stroke-dasharray: 2.96,1.28; stroke-dashoffset: 0; stroke: #cccccc; stroke-opacity: 0.5; stroke-width: 0.8"/>
     </g>
     <g id="text_10">
      <!-- 1 -->
      <g style="fill: #262626" transform="translate(27.779063 33.856406) scale(0.1 -0.1)">
       <use xlink:href="#ArialMT-31"/>
      </g>
     </g>
    </g>
    <g id="text_11">
     <!-- Stacked Proportion -->
     <g style="fill: #262626" transform="translate(20.784375 334.571719) rotate(-90) scale(0.14 -0.14)">
      <defs>
       <path id="TimesNewRomanPSMT-61" d="M 1822 413 
Q 1381 72 1269 19 
Q 1100 -59 909 -59 
Q 613 -59 420 144 
Q 228 347 228 678 
Q 228 888 322 1041 
Q 450 1253 767 1440 
Q 1084 1628 1822 1897 
L 1822 2009 
Q 1822 2438 1686 2597 
Q 1550 2756 1291 2756 
Q 1094 2756 978 2650 
Q 859 2544 859 2406 
L 866 2225 
Q 866 2081 792 2003 
Q 719 1925 600 1925 
Q 484 1925 411 2006 
Q 338 2088 338 2228 
Q 338 2497 613 2722 
Q 888 2947 1384 2947 
Q 1766 2947 2009 2819 
Q 2194 2722 2281 2516 
Q 2338 2381 2338 1966 
L 2338 994 
Q 2338 584 2353 492 
Q 2369 400 2405 369 
Q 2441 338 2488 338 
Q 2538 338 2575 359 
Q 2641 400 2828 588 
L 2828 413 
Q 2478 -56 2159 -56 
Q 2006 -56 1915 50 
Q 1825 156 1822 413 
z
M 1822 616 
L 1822 1706 
Q 1350 1519 1213 1441 
Q 966 1303 859 1153 
Q 753 1003 753 825 
Q 753 600 887 451 
Q 1022 303 1197 303 
Q 1434 303 1822 616 
z
" transform="scale(0.015625)"/>
       <path id="TimesNewRomanPSMT-63" d="M 2631 1088 
Q 2516 522 2178 217 
Q 1841 -88 1431 -88 
Q 944 -88 581 321 
Q 219 731 219 1428 
Q 219 2103 620 2525 
Q 1022 2947 1584 2947 
Q 2006 2947 2278 2723 
Q 2550 2500 2550 2259 
Q 2550 2141 2473 2067 
Q 2397 1994 2259 1994 
Q 2075 1994 1981 2113 
Q 1928 2178 1911 2362 
Q 1894 2547 1784 2644 
Q 1675 2738 1481 2738 
Q 1169 2738 978 2506 
Q 725 2200 725 1697 
Q 725 1184 976 792 
Q 1228 400 1656 400 
Q 1963 400 2206 609 
Q 2378 753 2541 1131 
L 2631 1088 
z
" transform="scale(0.015625)"/>
       <path id="TimesNewRomanPSMT-6b" d="M 1047 4444 
L 1047 1594 
L 1775 2259 
Q 2006 2472 2044 2528 
Q 2069 2566 2069 2603 
Q 2069 2666 2017 2711 
Q 1966 2756 1847 2763 
L 1847 2863 
L 3091 2863 
L 3091 2763 
Q 2834 2756 2664 2684 
Q 2494 2613 2291 2428 
L 1556 1750 
L 2291 822 
Q 2597 438 2703 334 
Q 2853 188 2966 144 
Q 3044 113 3238 113 
L 3238 0 
L 1847 0 
L 1847 113 
Q 1966 116 2008 148 
Q 2050 181 2050 241 
Q 2050 313 1925 472 
L 1047 1594 
L 1047 644 
Q 1047 366 1086 278 
Q 1125 191 1197 153 
Q 1269 116 1509 113 
L 1509 0 
L 53 0 
L 53 113 
Q 272 113 381 166 
Q 447 200 481 272 
Q 528 375 528 628 
L 528 3234 
Q 528 3731 506 3842 
Q 484 3953 434 3995 
Q 384 4038 303 4038 
Q 238 4038 106 3984 
L 53 4094 
L 903 4444 
L 1047 4444 
z
" transform="scale(0.015625)"/>
       <path id="TimesNewRomanPSMT-64" d="M 2222 322 
Q 2013 103 1813 7 
Q 1613 -88 1381 -88 
Q 913 -88 563 304 
Q 213 697 213 1313 
Q 213 1928 600 2439 
Q 988 2950 1597 2950 
Q 1975 2950 2222 2709 
L 2222 3238 
Q 2222 3728 2198 3840 
Q 2175 3953 2125 3993 
Q 2075 4034 2000 4034 
Q 1919 4034 1784 3984 
L 1744 4094 
L 2597 4444 
L 2738 4444 
L 2738 1134 
Q 2738 631 2761 520 
Q 2784 409 2836 365 
Q 2888 322 2956 322 
Q 3041 322 3181 375 
L 3216 266 
L 2366 -88 
L 2222 -88 
L 2222 322 
z
M 2222 541 
L 2222 2016 
Q 2203 2228 2109 2403 
Q 2016 2578 1861 2667 
Q 1706 2756 1559 2756 
Q 1284 2756 1069 2509 
Q 784 2184 784 1559 
Q 784 928 1059 592 
Q 1334 256 1672 256 
Q 1956 256 2222 541 
z
" transform="scale(0.015625)"/>
       <path id="TimesNewRomanPSMT-50" d="M 1313 1984 
L 1313 750 
Q 1313 350 1400 253 
Q 1519 116 1759 116 
L 1922 116 
L 1922 0 
L 106 0 
L 106 116 
L 266 116 
Q 534 116 650 291 
Q 713 388 713 750 
L 713 3488 
Q 713 3888 628 3984 
Q 506 4122 266 4122 
L 106 4122 
L 106 4238 
L 1659 4238 
Q 2228 4238 2556 4120 
Q 2884 4003 3109 3725 
Q 3334 3447 3334 3066 
Q 3334 2547 2992 2222 
Q 2650 1897 2025 1897 
Q 1872 1897 1694 1919 
Q 1516 1941 1313 1984 
z
M 1313 2163 
Q 1478 2131 1606 2115 
Q 1734 2100 1825 2100 
Q 2150 2100 2386 2351 
Q 2622 2603 2622 3003 
Q 2622 3278 2509 3514 
Q 2397 3750 2190 3867 
Q 1984 3984 1722 3984 
Q 1563 3984 1313 3925 
L 1313 2163 
z
" transform="scale(0.015625)"/>
       <path id="TimesNewRomanPSMT-72" d="M 1038 2947 
L 1038 2303 
Q 1397 2947 1775 2947 
Q 1947 2947 2059 2842 
Q 2172 2738 2172 2600 
Q 2172 2478 2090 2393 
Q 2009 2309 1897 2309 
Q 1788 2309 1652 2417 
Q 1516 2525 1450 2525 
Q 1394 2525 1328 2463 
Q 1188 2334 1038 2041 
L 1038 669 
Q 1038 431 1097 309 
Q 1138 225 1241 169 
Q 1344 113 1538 113 
L 1538 0 
L 72 0 
L 72 113 
Q 291 113 397 181 
Q 475 231 506 341 
Q 522 394 522 644 
L 522 1753 
Q 522 2253 501 2348 
Q 481 2444 426 2487 
Q 372 2531 291 2531 
Q 194 2531 72 2484 
L 41 2597 
L 906 2947 
L 1038 2947 
z
" transform="scale(0.015625)"/>
       <path id="TimesNewRomanPSMT-70" d="M -6 2578 
L 875 2934 
L 994 2934 
L 994 2266 
Q 1216 2644 1439 2795 
Q 1663 2947 1909 2947 
Q 2341 2947 2628 2609 
Q 2981 2197 2981 1534 
Q 2981 794 2556 309 
Q 2206 -88 1675 -88 
Q 1444 -88 1275 -22 
Q 1150 25 994 166 
L 994 -706 
Q 994 -1000 1030 -1079 
Q 1066 -1159 1155 -1206 
Q 1244 -1253 1478 -1253 
L 1478 -1369 
L -22 -1369 
L -22 -1253 
L 56 -1253 
Q 228 -1256 350 -1188 
Q 409 -1153 442 -1076 
Q 475 -1000 475 -688 
L 475 2019 
Q 475 2297 450 2372 
Q 425 2447 370 2484 
Q 316 2522 222 2522 
Q 147 2522 31 2478 
L -6 2578 
z
M 994 2081 
L 994 1013 
Q 994 666 1022 556 
Q 1066 375 1236 237 
Q 1406 100 1666 100 
Q 1978 100 2172 344 
Q 2425 663 2425 1241 
Q 2425 1897 2138 2250 
Q 1938 2494 1663 2494 
Q 1513 2494 1366 2419 
Q 1253 2363 994 2081 
z
" transform="scale(0.015625)"/>
      </defs>
      <use xlink:href="#TimesNewRomanPSMT-53"/>
      <use xlink:href="#TimesNewRomanPSMT-74" transform="translate(55.615234 0)"/>
      <use xlink:href="#TimesNewRomanPSMT-61" transform="translate(83.398438 0)"/>
      <use xlink:href="#TimesNewRomanPSMT-63" transform="translate(127.783203 0)"/>
      <use xlink:href="#TimesNewRomanPSMT-6b" transform="translate(172.167969 0)"/>
      <use xlink:href="#TimesNewRomanPSMT-65" transform="translate(222.167969 0)"/>
      <use xlink:href="#TimesNewRomanPSMT-64" transform="translate(266.552734 0)"/>
      <use xlink:href="#TimesNewRomanPSMT-20" transform="translate(316.552734 0)"/>
      <use xlink:href="#TimesNewRomanPSMT-50" transform="translate(341.552734 0)"/>
      <use xlink:href="#TimesNewRomanPSMT-72" transform="translate(397.167969 0)"/>
      <use xlink:href="#TimesNewRomanPSMT-6f" transform="translate(430.46875 0)"/>
      <use xlink:href="#TimesNewRomanPSMT-70" transform="translate(480.46875 0)"/>
      <use xlink:href="#TimesNewRomanPSMT-6f" transform="translate(530.46875 0)"/>
      <use xlink:href="#TimesNewRomanPSMT-72" transform="translate(580.46875 0)"/>
      <use xlink:href="#TimesNewRomanPSMT-74" transform="translate(613.769531 0)"/>
      <use xlink:href="#TimesNewRomanPSMT-69" transform="translate(641.552734 0)"/>
      <use xlink:href="#TimesNewRomanPSMT-6f" transform="translate(669.335938 0)"/>
      <use xlink:href="#TimesNewRomanPSMT-6e" transform="translate(719.335938 0)"/>
     </g>
    </g>
   </g>
   <g id="FillBetweenPolyCollection_1">
    <defs>
     <path id="mb69c35cbcc" d="M 40.34 -398.404118 
L 40.34 -44.84 
L 44.308984 -44.84 
L 48.277968 -44.84 
L 52.246953 -44.84 
L 56.215937 -44.84 
L 60.184921 -44.84 
L 64.153905 -44.84 
L 68.12289 -44.84 
L 72.091874 -44.84 
L 76.060858 -44.84 
L 80.029842 -44.84 
L 83.998826 -44.84 
L 87.967811 -44.84 
L 91.936795 -44.84 
L 95.905779 -44.84 
L 99.874763 -44.84 
L 103.843748 -44.84 
L 107.812732 -44.84 
L 111.781716 -44.84 
L 115.7507 -44.84 
L 119.719684 -44.84 
L 123.688669 -44.84 
L 127.657653 -44.84 
L 131.626637 -44.84 
L 135.595621 -44.84 
L 139.564606 -44.84 
L 143.53359 -44.84 
L 147.502574 -44.84 
L 151.471558 -44.84 
L 155.440542 -44.84 
L 159.409527 -44.84 
L 163.378511 -44.84 
L 167.347495 -44.84 
L 171.316479 -44.84 
L 175.285464 -44.84 
L 179.254448 -44.84 
L 183.223432 -44.84 
L 187.192416 -44.84 
L 191.1614 -44.84 
L 195.130385 -44.84 
L 199.099369 -44.84 
L 203.068353 -44.84 
L 207.037337 -44.84 
L 211.006321 -44.84 
L 214.975306 -44.84 
L 218.94429 -44.84 
L 222.913274 -44.84 
L 226.882258 -44.84 
L 230.851243 -44.84 
L 234.820227 -44.84 
L 238.789211 -44.84 
L 242.758195 -44.84 
L 246.727179 -44.84 
L 250.696164 -44.84 
L 254.665148 -44.84 
L 258.634132 -44.84 
L 262.603116 -44.84 
L 266.572101 -44.84 
L 270.541085 -44.84 
L 274.510069 -44.84 
L 278.479053 -44.84 
L 282.448037 -44.84 
L 286.417022 -44.84 
L 290.386006 -44.84 
L 294.35499 -44.84 
L 298.323974 -44.84 
L 302.292959 -44.84 
L 306.261943 -44.84 
L 310.230927 -44.84 
L 314.199911 -44.84 
L 318.168895 -44.84 
L 322.13788 -44.84 
L 326.106864 -44.84 
L 330.075848 -44.84 
L 334.044832 -44.84 
L 338.013817 -44.84 
L 341.982801 -44.84 
L 345.951785 -44.84 
L 349.920769 -44.84 
L 353.889753 -44.84 
L 357.858738 -44.84 
L 361.827722 -44.84 
L 365.796706 -44.84 
L 369.76569 -44.84 
L 373.734675 -44.84 
L 377.703659 -44.84 
L 381.672643 -44.84 
L 385.641627 -44.84 
L 389.610611 -44.84 
L 393.579596 -44.84 
L 397.54858 -44.84 
L 401.517564 -44.84 
L 405.486548 -44.84 
L 409.455533 -44.84 
L 413.424517 -44.84 
L 417.393501 -44.84 
L 421.362485 -44.84 
L 425.331469 -44.84 
L 429.300454 -44.84 
L 433.269438 -44.84 
L 437.238422 -44.84 
L 441.207406 -44.84 
L 445.176391 -44.84 
L 449.145375 -44.84 
L 453.114359 -44.84 
L 457.083343 -44.84 
L 461.052327 -44.84 
L 465.021312 -44.84 
L 468.990296 -44.84 
L 472.95928 -44.84 
L 476.928264 -44.84 
L 480.897249 -44.84 
L 484.866233 -44.84 
L 488.835217 -44.84 
L 492.804201 -44.84 
L 496.773185 -44.84 
L 500.74217 -44.84 
L 504.711154 -44.84 
L 508.680138 -44.84 
L 512.649122 -44.84 
L 516.618107 -44.84 
L 520.587091 -44.84 
L 524.556075 -44.84 
L 528.525059 -44.84 
L 532.494043 -44.84 
L 536.463028 -44.84 
L 540.432012 -44.84 
L 544.400996 -44.84 
L 548.36998 -44.84 
L 552.338964 -44.84 
L 556.307949 -44.84 
L 560.276933 -44.84 
L 564.245917 -44.84 
L 568.214901 -44.84 
L 572.183886 -44.84 
L 576.15287 -44.84 
L 580.121854 -44.84 
L 584.090838 -44.84 
L 588.059822 -44.84 
L 592.028807 -44.84 
L 595.997791 -44.84 
L 599.966775 -44.84 
L 603.935759 -44.84 
L 607.904744 -44.84 
L 611.873728 -44.84 
L 615.842712 -44.84 
L 619.811696 -44.84 
L 623.78068 -44.84 
L 627.749665 -44.84 
L 631.718649 -44.84 
L 635.687633 -44.84 
L 639.656617 -44.84 
L 643.625602 -44.84 
L 647.594586 -44.84 
L 651.56357 -44.84 
L 655.532554 -44.84 
L 659.501538 -44.84 
L 659.501538 -545.7225 
L 659.501538 -545.7225 
L 655.532554 -545.7225 
L 651.56357 -420.501875 
L 647.594586 -211.800833 
L 643.625602 -545.7225 
L 639.656617 -295.28125 
L 635.687633 -44.84 
L 631.718649 -545.7225 
L 627.749665 -545.7225 
L 623.78068 -545.7225 
L 619.811696 -545.7225 
L 615.842712 -545.7225 
L 611.873728 -44.84 
L 607.904744 -295.28125 
L 603.935759 -295.28125 
L 599.966775 -295.28125 
L 595.997791 -474.167857 
L 592.028807 -44.84 
L 588.059822 -545.7225 
L 584.090838 -545.7225 
L 580.121854 -545.7225 
L 576.15287 -402.613214 
L 572.183886 -545.7225 
L 568.214901 -545.7225 
L 564.245917 -520.678375 
L 560.276933 -545.7225 
L 556.307949 -520.678375 
L 552.338964 -520.678375 
L 548.36998 -520.678375 
L 544.400996 -468.663654 
L 540.432012 -545.7225 
L 536.463028 -545.7225 
L 532.494043 -545.7225 
L 528.525059 -500.187727 
L 524.556075 -520.678375 
L 520.587091 -520.678375 
L 516.618107 -545.7225 
L 512.649122 -445.546 
L 508.680138 -470.590125 
L 504.711154 -519.360263 
L 500.74217 -545.7225 
L 496.773185 -445.546 
L 492.804201 -44.84 
L 488.835217 -545.7225 
L 484.866233 -395.45775 
L 480.897249 -520.678375 
L 476.928264 -458.6125 
L 472.95928 -44.84 
L 468.990296 -378.761667 
L 465.021312 -509.945179 
L 461.052327 -464.183488 
L 457.083343 -500.187727 
L 453.114359 -44.84 
L 449.145375 -454.652955 
L 445.176391 -474.167857 
L 441.207406 -44.84 
L 437.238422 -508.156313 
L 433.269438 -545.7225 
L 429.300454 -474.167857 
L 425.331469 -470.590125 
L 421.362485 -495.63425 
L 417.393501 -545.7225 
L 413.424517 -389.196719 
L 409.455533 -345.3695 
L 405.486548 -295.28125 
L 401.517564 -503.982292 
L 397.54858 -545.7225 
L 393.579596 -295.28125 
L 389.610611 -474.167857 
L 385.641627 -434.415278 
L 381.672643 -545.7225 
L 377.703659 -378.761667 
L 373.734675 -495.63425 
L 369.76569 -545.7225 
L 365.796706 -445.546 
L 361.827722 -295.28125 
L 357.858738 -295.28125 
L 353.889753 -495.63425 
L 349.920769 -470.590125 
L 345.951785 -462.242083 
L 341.982801 -462.242083 
L 338.013817 -295.28125 
L 334.044832 -370.413625 
L 330.075848 -545.7225 
L 326.106864 -519.360263 
L 322.13788 -495.63425 
L 318.168895 -492.998026 
L 314.199911 -44.84 
L 310.230927 -420.501875 
L 306.261943 -357.891563 
L 302.292959 -483.112188 
L 298.323974 -295.28125 
L 294.35499 -420.501875 
L 290.386006 -545.7225 
L 286.417022 -427.867794 
L 282.448037 -420.501875 
L 278.479053 -430.134231 
L 274.510069 -402.613214 
L 270.541085 -545.7225 
L 266.572101 -462.242083 
L 262.603116 -507.193077 
L 258.634132 -545.7225 
L 254.665148 -445.546 
L 250.696164 -545.7225 
L 246.727179 -545.7225 
L 242.758195 -545.7225 
L 238.789211 -445.546 
L 234.820227 -44.84 
L 230.851243 -470.590125 
L 226.882258 -420.501875 
L 222.913274 -370.413625 
L 218.94429 -259.503929 
L 214.975306 -391.604808 
L 211.006321 -434.415278 
L 207.037337 -44.84 
L 203.068353 -211.800833 
L 199.099369 -295.28125 
L 195.130385 -267.454444 
L 191.1614 -44.84 
L 187.192416 -420.501875 
L 183.223432 -44.84 
L 179.254448 -295.28125 
L 175.285464 -378.761667 
L 171.316479 -420.501875 
L 167.347495 -295.28125 
L 163.378511 -434.415278 
L 159.409527 -44.84 
L 155.440542 -295.28125 
L 151.471558 -545.7225 
L 147.502574 -420.501875 
L 143.53359 -454.652955 
L 139.564606 -545.7225 
L 135.595621 -320.325375 
L 131.626637 -382.935688 
L 127.657653 -44.84 
L 123.688669 -445.546 
L 119.719684 -232.670938 
L 115.7507 -295.28125 
L 111.781716 -406.588472 
L 107.812732 -495.63425 
L 103.843748 -462.242083 
L 99.874763 -507.193077 
L 95.905779 -545.7225 
L 91.936795 -398.404118 
L 87.967811 -545.7225 
L 83.998826 -420.501875 
L 80.029842 -434.415278 
L 76.060858 -295.28125 
L 72.091874 -462.242083 
L 68.12289 -409.118182 
L 64.153905 -345.3695 
L 60.184921 -378.761667 
L 56.215937 -295.28125 
L 52.246953 -545.7225 
L 48.277968 -457.331471 
L 44.308984 -454.652955 
L 40.34 -398.404118 
z
" style="stroke: #ffffff"/>
    </defs>
    <g clip-path="url(#p744e4c8b08)">
     <use xlink:href="#mb69c35cbcc" x="0" y="576" style="fill: #5386b6; stroke: #ffffff"/>
    </g>
   </g>
   <g id="FillBetweenPolyCollection_2">
    <defs>
     <path id="m04c5af4fdf" d="M 40.34 -457.331471 
L 40.34 -398.404118 
L 44.308984 -454.652955 
L 48.277968 -457.331471 
L 52.246953 -545.7225 
L 56.215937 -295.28125 
L 60.184921 -378.761667 
L 64.153905 -345.3695 
L 68.12289 -409.118182 
L 72.091874 -462.242083 
L 76.060858 -295.28125 
L 80.029842 -434.415278 
L 83.998826 -420.501875 
L 87.967811 -545.7225 
L 91.936795 -398.404118 
L 95.905779 -545.7225 
L 99.874763 -507.193077 
L 103.843748 -462.242083 
L 107.812732 -495.63425 
L 111.781716 -406.588472 
L 115.7507 -295.28125 
L 119.719684 -232.670938 
L 123.688669 -445.546 
L 127.657653 -44.84 
L 131.626637 -382.935688 
L 135.595621 -320.325375 
L 139.564606 -545.7225 
L 143.53359 -454.652955 
L 147.502574 -420.501875 
L 151.471558 -545.7225 
L 155.440542 -295.28125 
L 159.409527 -44.84 
L 163.378511 -434.415278 
L 167.347495 -295.28125 
L 171.316479 -420.501875 
L 175.285464 -378.761667 
L 179.254448 -295.28125 
L 183.223432 -44.84 
L 187.192416 -420.501875 
L 191.1614 -44.84 
L 195.130385 -267.454444 
L 199.099369 -295.28125 
L 203.068353 -211.800833 
L 207.037337 -44.84 
L 211.006321 -434.415278 
L 214.975306 -391.604808 
L 218.94429 -259.503929 
L 222.913274 -370.413625 
L 226.882258 -420.501875 
L 230.851243 -470.590125 
L 234.820227 -44.84 
L 238.789211 -445.546 
L 242.758195 -545.7225 
L 246.727179 -545.7225 
L 250.696164 -545.7225 
L 254.665148 -445.546 
L 258.634132 -545.7225 
L 262.603116 -507.193077 
L 266.572101 -462.242083 
L 270.541085 -545.7225 
L 274.510069 -402.613214 
L 278.479053 -430.134231 
L 282.448037 -420.501875 
L 286.417022 -427.867794 
L 290.386006 -545.7225 
L 294.35499 -420.501875 
L 298.323974 -295.28125 
L 302.292959 -483.112188 
L 306.261943 -357.891563 
L 310.230927 -420.501875 
L 314.199911 -44.84 
L 318.168895 -492.998026 
L 322.13788 -495.63425 
L 326.106864 -519.360263 
L 330.075848 -545.7225 
L 334.044832 -370.413625 
L 338.013817 -295.28125 
L 341.982801 -462.242083 
L 345.951785 -462.242083 
L 349.920769 -470.590125 
L 353.889753 -495.63425 
L 357.858738 -295.28125 
L 361.827722 -295.28125 
L 365.796706 -445.546 
L 369.76569 -545.7225 
L 373.734675 -495.63425 
L 377.703659 -378.761667 
L 381.672643 -545.7225 
L 385.641627 -434.415278 
L 389.610611 -474.167857 
L 393.579596 -295.28125 
L 397.54858 -545.7225 
L 401.517564 -503.982292 
L 405.486548 -295.28125 
L 409.455533 -345.3695 
L 413.424517 -389.196719 
L 417.393501 -545.7225 
L 421.362485 -495.63425 
L 425.331469 -470.590125 
L 429.300454 -474.167857 
L 433.269438 -545.7225 
L 437.238422 -508.156313 
L 441.207406 -44.84 
L 445.176391 -474.167857 
L 449.145375 -454.652955 
L 453.114359 -44.84 
L 457.083343 -500.187727 
L 461.052327 -464.183488 
L 465.021312 -509.945179 
L 468.990296 -378.761667 
L 472.95928 -44.84 
L 476.928264 -458.6125 
L 480.897249 -520.678375 
L 484.866233 -395.45775 
L 488.835217 -545.7225 
L 492.804201 -44.84 
L 496.773185 -445.546 
L 500.74217 -545.7225 
L 504.711154 -519.360263 
L 508.680138 -470.590125 
L 512.649122 -445.546 
L 516.618107 -545.7225 
L 520.587091 -520.678375 
L 524.556075 -520.678375 
L 528.525059 -500.187727 
L 532.494043 -545.7225 
L 536.463028 -545.7225 
L 540.432012 -545.7225 
L 544.400996 -468.663654 
L 548.36998 -520.678375 
L 552.338964 -520.678375 
L 556.307949 -520.678375 
L 560.276933 -545.7225 
L 564.245917 -520.678375 
L 568.214901 -545.7225 
L 572.183886 -545.7225 
L 576.15287 -402.613214 
L 580.121854 -545.7225 
L 584.090838 -545.7225 
L 588.059822 -545.7225 
L 592.028807 -44.84 
L 595.997791 -474.167857 
L 599.966775 -295.28125 
L 603.935759 -295.28125 
L 607.904744 -295.28125 
L 611.873728 -44.84 
L 615.842712 -545.7225 
L 619.811696 -545.7225 
L 623.78068 -545.7225 
L 627.749665 -545.7225 
L 631.718649 -545.7225 
L 635.687633 -44.84 
L 639.656617 -295.28125 
L 643.625602 -545.7225 
L 647.594586 -211.800833 
L 651.56357 -420.501875 
L 655.532554 -545.7225 
L 659.501538 -545.7225 
L 659.501538 -545.7225 
L 659.501538 -545.7225 
L 655.532554 -545.7225 
L 651.56357 -420.501875 
L 647.594586 -211.800833 
L 643.625602 -545.7225 
L 639.656617 -295.28125 
L 635.687633 -44.84 
L 631.718649 -545.7225 
L 627.749665 -545.7225 
L 623.78068 -545.7225 
L 619.811696 -545.7225 
L 615.842712 -545.7225 
L 611.873728 -44.84 
L 607.904744 -295.28125 
L 603.935759 -295.28125 
L 599.966775 -420.501875 
L 595.997791 -474.167857 
L 592.028807 -44.84 
L 588.059822 -545.7225 
L 584.090838 -545.7225 
L 580.121854 -545.7225 
L 576.15287 -545.7225 
L 572.183886 -545.7225 
L 568.214901 -545.7225 
L 564.245917 -520.678375 
L 560.276933 -545.7225 
L 556.307949 -545.7225 
L 552.338964 -520.678375 
L 548.36998 -533.200438 
L 544.400996 -507.193077 
L 540.432012 -545.7225 
L 536.463028 -545.7225 
L 532.494043 -545.7225 
L 528.525059 -500.187727 
L 524.556075 -520.678375 
L 520.587091 -545.7225 
L 516.618107 -545.7225 
L 512.649122 -470.590125 
L 508.680138 -495.63425 
L 504.711154 -519.360263 
L 500.74217 -545.7225 
L 496.773185 -445.546 
L 492.804201 -545.7225 
L 488.835217 -545.7225 
L 484.866233 -445.546 
L 480.897249 -520.678375 
L 476.928264 -458.6125 
L 472.95928 -44.84 
L 468.990296 -378.761667 
L 465.021312 -509.945179 
L 461.052327 -464.183488 
L 457.083343 -500.187727 
L 453.114359 -44.84 
L 449.145375 -454.652955 
L 445.176391 -474.167857 
L 441.207406 -44.84 
L 437.238422 -520.678375 
L 433.269438 -545.7225 
L 429.300454 -502.789714 
L 425.331469 -470.590125 
L 421.362485 -495.63425 
L 417.393501 -545.7225 
L 413.424517 -451.807031 
L 409.455533 -345.3695 
L 405.486548 -295.28125 
L 401.517564 -545.7225 
L 397.54858 -545.7225 
L 393.579596 -295.28125 
L 389.610611 -545.7225 
L 385.641627 -490.068889 
L 381.672643 -545.7225 
L 377.703659 -545.7225 
L 373.734675 -495.63425 
L 369.76569 -545.7225 
L 365.796706 -445.546 
L 361.827722 -295.28125 
L 357.858738 -545.7225 
L 353.889753 -520.678375 
L 349.920769 -495.63425 
L 345.951785 -462.242083 
L 341.982801 -545.7225 
L 338.013817 -295.28125 
L 334.044832 -445.546 
L 330.075848 -545.7225 
L 326.106864 -519.360263 
L 322.13788 -495.63425 
L 318.168895 -519.360263 
L 314.199911 -545.7225 
L 310.230927 -462.242083 
L 306.261943 -483.112188 
L 302.292959 -483.112188 
L 298.323974 -545.7225 
L 294.35499 -420.501875 
L 290.386006 -545.7225 
L 286.417022 -516.258824 
L 282.448037 -445.546 
L 278.479053 -468.663654 
L 274.510069 -474.167857 
L 270.541085 -545.7225 
L 266.572101 -462.242083 
L 262.603116 -545.7225 
L 258.634132 -545.7225 
L 254.665148 -545.7225 
L 250.696164 -545.7225 
L 246.727179 -545.7225 
L 242.758195 -545.7225 
L 238.789211 -445.546 
L 234.820227 -44.84 
L 230.851243 -495.63425 
L 226.882258 -520.678375 
L 222.913274 -370.413625 
L 218.94429 -259.503929 
L 214.975306 -430.134231 
L 211.006321 -434.415278 
L 207.037337 -44.84 
L 203.068353 -211.800833 
L 199.099369 -295.28125 
L 195.130385 -267.454444 
L 191.1614 -44.84 
L 187.192416 -420.501875 
L 183.223432 -44.84 
L 179.254448 -295.28125 
L 175.285464 -378.761667 
L 171.316479 -420.501875 
L 167.347495 -545.7225 
L 163.378511 -434.415278 
L 159.409527 -545.7225 
L 155.440542 -295.28125 
L 151.471558 -545.7225 
L 147.502574 -420.501875 
L 143.53359 -454.652955 
L 139.564606 -545.7225 
L 135.595621 -320.325375 
L 131.626637 -433.023938 
L 127.657653 -44.84 
L 123.688669 -495.63425 
L 119.719684 -295.28125 
L 115.7507 -545.7225 
L 111.781716 -462.242083 
L 107.812732 -520.678375 
L 103.843748 -545.7225 
L 99.874763 -545.7225 
L 95.905779 -545.7225 
L 91.936795 -427.867794 
L 87.967811 -545.7225 
L 83.998826 -445.546 
L 80.029842 -462.242083 
L 76.060858 -295.28125 
L 72.091874 -462.242083 
L 68.12289 -424.296439 
L 64.153905 -445.546 
L 60.184921 -412.153833 
L 56.215937 -295.28125 
L 52.246953 -545.7225 
L 48.277968 -486.795147 
L 44.308984 -477.420341 
L 40.34 -457.331471 
z
" style="stroke: #ffffff"/>
    </defs>
    <g clip-path="url(#p744e4c8b08)">
     <use xlink:href="#m04c5af4fdf" x="0" y="576" style="fill: #d57459; stroke: #ffffff"/>
    </g>
   </g>
   <g id="FillBetweenPolyCollection_3">
    <defs>
     <path id="m32a4609b5d" d="M 40.34 -486.795147 
L 40.34 -457.331471 
L 44.308984 -477.420341 
L 48.277968 -486.795147 
L 52.246953 -545.7225 
L 56.215937 -295.28125 
L 60.184921 -412.153833 
L 64.153905 -445.546 
L 68.12289 -424.296439 
L 72.091874 -462.242083 
L 76.060858 -295.28125 
L 80.029842 -462.242083 
L 83.998826 -445.546 
L 87.967811 -545.7225 
L 91.936795 -427.867794 
L 95.905779 -545.7225 
L 99.874763 -545.7225 
L 103.843748 -545.7225 
L 107.812732 -520.678375 
L 111.781716 -462.242083 
L 115.7507 -545.7225 
L 119.719684 -295.28125 
L 123.688669 -495.63425 
L 127.657653 -44.84 
L 131.626637 -433.023938 
L 135.595621 -320.325375 
L 139.564606 -545.7225 
L 143.53359 -454.652955 
L 147.502574 -420.501875 
L 151.471558 -545.7225 
L 155.440542 -295.28125 
L 159.409527 -545.7225 
L 163.378511 -434.415278 
L 167.347495 -545.7225 
L 171.316479 -420.501875 
L 175.285464 -378.761667 
L 179.254448 -295.28125 
L 183.223432 -44.84 
L 187.192416 -420.501875 
L 191.1614 -44.84 
L 195.130385 -267.454444 
L 199.099369 -295.28125 
L 203.068353 -211.800833 
L 207.037337 -44.84 
L 211.006321 -434.415278 
L 214.975306 -430.134231 
L 218.94429 -259.503929 
L 222.913274 -370.413625 
L 226.882258 -520.678375 
L 230.851243 -495.63425 
L 234.820227 -44.84 
L 238.789211 -445.546 
L 242.758195 -545.7225 
L 246.727179 -545.7225 
L 250.696164 -545.7225 
L 254.665148 -545.7225 
L 258.634132 -545.7225 
L 262.603116 -545.7225 
L 266.572101 -462.242083 
L 270.541085 -545.7225 
L 274.510069 -474.167857 
L 278.479053 -468.663654 
L 282.448037 -445.546 
L 286.417022 -516.258824 
L 290.386006 -545.7225 
L 294.35499 -420.501875 
L 298.323974 -545.7225 
L 302.292959 -483.112188 
L 306.261943 -483.112188 
L 310.230927 -462.242083 
L 314.199911 -545.7225 
L 318.168895 -519.360263 
L 322.13788 -495.63425 
L 326.106864 -519.360263 
L 330.075848 -545.7225 
L 334.044832 -445.546 
L 338.013817 -295.28125 
L 341.982801 -545.7225 
L 345.951785 -462.242083 
L 349.920769 -495.63425 
L 353.889753 -520.678375 
L 357.858738 -545.7225 
L 361.827722 -295.28125 
L 365.796706 -445.546 
L 369.76569 -545.7225 
L 373.734675 -495.63425 
L 377.703659 -545.7225 
L 381.672643 -545.7225 
L 385.641627 -490.068889 
L 389.610611 -545.7225 
L 393.579596 -295.28125 
L 397.54858 -545.7225 
L 401.517564 -545.7225 
L 405.486548 -295.28125 
L 409.455533 -345.3695 
L 413.424517 -451.807031 
L 417.393501 -545.7225 
L 421.362485 -495.63425 
L 425.331469 -470.590125 
L 429.300454 -502.789714 
L 433.269438 -545.7225 
L 437.238422 -520.678375 
L 441.207406 -44.84 
L 445.176391 -474.167857 
L 449.145375 -454.652955 
L 453.114359 -44.84 
L 457.083343 -500.187727 
L 461.052327 -464.183488 
L 465.021312 -509.945179 
L 468.990296 -378.761667 
L 472.95928 -44.84 
L 476.928264 -458.6125 
L 480.897249 -520.678375 
L 484.866233 -445.546 
L 488.835217 -545.7225 
L 492.804201 -545.7225 
L 496.773185 -445.546 
L 500.74217 -545.7225 
L 504.711154 -519.360263 
L 508.680138 -495.63425 
L 512.649122 -470.590125 
L 516.618107 -545.7225 
L 520.587091 -545.7225 
L 524.556075 -520.678375 
L 528.525059 -500.187727 
L 532.494043 -545.7225 
L 536.463028 -545.7225 
L 540.432012 -545.7225 
L 544.400996 -507.193077 
L 548.36998 -533.200438 
L 552.338964 -520.678375 
L 556.307949 -545.7225 
L 560.276933 -545.7225 
L 564.245917 -520.678375 
L 568.214901 -545.7225 
L 572.183886 -545.7225 
L 576.15287 -545.7225 
L 580.121854 -545.7225 
L 584.090838 -545.7225 
L 588.059822 -545.7225 
L 592.028807 -44.84 
L 595.997791 -474.167857 
L 599.966775 -420.501875 
L 603.935759 -295.28125 
L 607.904744 -295.28125 
L 611.873728 -44.84 
L 615.842712 -545.7225 
L 619.811696 -545.7225 
L 623.78068 -545.7225 
L 627.749665 -545.7225 
L 631.718649 -545.7225 
L 635.687633 -44.84 
L 639.656617 -295.28125 
L 643.625602 -545.7225 
L 647.594586 -211.800833 
L 651.56357 -420.501875 
L 655.532554 -545.7225 
L 659.501538 -545.7225 
L 659.501538 -545.7225 
L 659.501538 -545.7225 
L 655.532554 -545.7225 
L 651.56357 -420.501875 
L 647.594586 -378.761667 
L 643.625602 -545.7225 
L 639.656617 -462.242083 
L 635.687633 -545.7225 
L 631.718649 -545.7225 
L 627.749665 -545.7225 
L 623.78068 -545.7225 
L 619.811696 -545.7225 
L 615.842712 -545.7225 
L 611.873728 -545.7225 
L 607.904744 -295.28125 
L 603.935759 -295.28125 
L 599.966775 -420.501875 
L 595.997791 -474.167857 
L 592.028807 -44.84 
L 588.059822 -545.7225 
L 584.090838 -545.7225 
L 580.121854 -545.7225 
L 576.15287 -545.7225 
L 572.183886 -545.7225 
L 568.214901 -545.7225 
L 564.245917 -545.7225 
L 560.276933 -545.7225 
L 556.307949 -545.7225 
L 552.338964 -545.7225 
L 548.36998 -533.200438 
L 544.400996 -507.193077 
L 540.432012 -545.7225 
L 536.463028 -545.7225 
L 532.494043 -545.7225 
L 528.525059 -500.187727 
L 524.556075 -545.7225 
L 520.587091 -545.7225 
L 516.618107 -545.7225 
L 512.649122 -520.678375 
L 508.680138 -495.63425 
L 504.711154 -519.360263 
L 500.74217 -545.7225 
L 496.773185 -478.938167 
L 492.804201 -545.7225 
L 488.835217 -545.7225 
L 484.866233 -495.63425 
L 480.897249 -545.7225 
L 476.928264 -523.945 
L 472.95928 -545.7225 
L 468.990296 -545.7225 
L 465.021312 -545.7225 
L 461.052327 -510.777209 
L 457.083343 -545.7225 
L 453.114359 -545.7225 
L 449.145375 -454.652955 
L 445.176391 -474.167857 
L 441.207406 -44.84 
L 437.238422 -545.7225 
L 433.269438 -545.7225 
L 429.300454 -502.789714 
L 425.331469 -495.63425 
L 421.362485 -495.63425 
L 417.393501 -545.7225 
L 413.424517 -483.112188 
L 409.455533 -445.546 
L 405.486548 -295.28125 
L 401.517564 -545.7225 
L 397.54858 -545.7225 
L 393.579596 -545.7225 
L 389.610611 -545.7225 
L 385.641627 -545.7225 
L 381.672643 -545.7225 
L 377.703659 -545.7225 
L 373.734675 -495.63425 
L 369.76569 -545.7225 
L 365.796706 -445.546 
L 361.827722 -545.7225 
L 357.858738 -545.7225 
L 353.889753 -545.7225 
L 349.920769 -520.678375 
L 345.951785 -545.7225 
L 341.982801 -545.7225 
L 338.013817 -545.7225 
L 334.044832 -495.63425 
L 330.075848 -545.7225 
L 326.106864 -545.7225 
L 322.13788 -545.7225 
L 318.168895 -519.360263 
L 314.199911 -545.7225 
L 310.230927 -462.242083 
L 306.261943 -545.7225 
L 302.292959 -483.112188 
L 298.323974 -545.7225 
L 294.35499 -483.112188 
L 290.386006 -545.7225 
L 286.417022 -545.7225 
L 282.448037 -545.7225 
L 278.479053 -545.7225 
L 274.510069 -474.167857 
L 270.541085 -545.7225 
L 266.572101 -462.242083 
L 262.603116 -545.7225 
L 258.634132 -545.7225 
L 254.665148 -545.7225 
L 250.696164 -545.7225 
L 246.727179 -545.7225 
L 242.758195 -545.7225 
L 238.789211 -512.330333 
L 234.820227 -44.84 
L 230.851243 -545.7225 
L 226.882258 -545.7225 
L 222.913274 -495.63425 
L 218.94429 -545.7225 
L 214.975306 -507.193077 
L 211.006321 -545.7225 
L 207.037337 -295.28125 
L 203.068353 -378.761667 
L 199.099369 -545.7225 
L 195.130385 -378.761667 
L 191.1614 -44.84 
L 187.192416 -420.501875 
L 183.223432 -44.84 
L 179.254448 -295.28125 
L 175.285464 -490.068889 
L 171.316479 -545.7225 
L 167.347495 -545.7225 
L 163.378511 -490.068889 
L 159.409527 -545.7225 
L 155.440542 -420.501875 
L 151.471558 -545.7225 
L 147.502574 -545.7225 
L 143.53359 -545.7225 
L 139.564606 -545.7225 
L 135.595621 -495.63425 
L 131.626637 -545.7225 
L 127.657653 -545.7225 
L 123.688669 -545.7225 
L 119.719684 -483.112188 
L 115.7507 -545.7225 
L 111.781716 -490.068889 
L 107.812732 -545.7225 
L 103.843748 -545.7225 
L 99.874763 -545.7225 
L 95.905779 -545.7225 
L 91.936795 -457.331471 
L 87.967811 -545.7225 
L 83.998826 -520.678375 
L 80.029842 -545.7225 
L 76.060858 -295.28125 
L 72.091874 -545.7225 
L 68.12289 -530.544242 
L 64.153905 -545.7225 
L 60.184921 -545.7225 
L 56.215937 -545.7225 
L 52.246953 -545.7225 
L 48.277968 -516.258824 
L 44.308984 -545.7225 
L 40.34 -486.795147 
z
" style="stroke: #ffffff"/>
    </defs>
    <g clip-path="url(#p744e4c8b08)">
     <use xlink:href="#m32a4609b5d" x="0" y="576" style="fill: #e8bc60; stroke: #ffffff"/>
    </g>
   </g>
   <g id="FillBetweenPolyCollection_4">
    <defs>
     <path id="m237010dc9a" d="M 40.34 -545.7225 
L 40.34 -486.795147 
L 44.308984 -545.7225 
L 48.277968 -516.258824 
L 52.246953 -545.7225 
L 56.215937 -545.7225 
L 60.184921 -545.7225 
L 64.153905 -545.7225 
L 68.12289 -530.544242 
L 72.091874 -545.7225 
L 76.060858 -295.28125 
L 80.029842 -545.7225 
L 83.998826 -520.678375 
L 87.967811 -545.7225 
L 91.936795 -457.331471 
L 95.905779 -545.7225 
L 99.874763 -545.7225 
L 103.843748 -545.7225 
L 107.812732 -545.7225 
L 111.781716 -490.068889 
L 115.7507 -545.7225 
L 119.719684 -483.112188 
L 123.688669 -545.7225 
L 127.657653 -545.7225 
L 131.626637 -545.7225 
L 135.595621 -495.63425 
L 139.564606 -545.7225 
L 143.53359 -545.7225 
L 147.502574 -545.7225 
L 151.471558 -545.7225 
L 155.440542 -420.501875 
L 159.409527 -545.7225 
L 163.378511 -490.068889 
L 167.347495 -545.7225 
L 171.316479 -545.7225 
L 175.285464 -490.068889 
L 179.254448 -295.28125 
L 183.223432 -44.84 
L 187.192416 -420.501875 
L 191.1614 -44.84 
L 195.130385 -378.761667 
L 199.099369 -545.7225 
L 203.068353 -378.761667 
L 207.037337 -295.28125 
L 211.006321 -545.7225 
L 214.975306 -507.193077 
L 218.94429 -545.7225 
L 222.913274 -495.63425 
L 226.882258 -545.7225 
L 230.851243 -545.7225 
L 234.820227 -44.84 
L 238.789211 -512.330333 
L 242.758195 -545.7225 
L 246.727179 -545.7225 
L 250.696164 -545.7225 
L 254.665148 -545.7225 
L 258.634132 -545.7225 
L 262.603116 -545.7225 
L 266.572101 -462.242083 
L 270.541085 -545.7225 
L 274.510069 -474.167857 
L 278.479053 -545.7225 
L 282.448037 -545.7225 
L 286.417022 -545.7225 
L 290.386006 -545.7225 
L 294.35499 -483.112188 
L 298.323974 -545.7225 
L 302.292959 -483.112188 
L 306.261943 -545.7225 
L 310.230927 -462.242083 
L 314.199911 -545.7225 
L 318.168895 -519.360263 
L 322.13788 -545.7225 
L 326.106864 -545.7225 
L 330.075848 -545.7225 
L 334.044832 -495.63425 
L 338.013817 -545.7225 
L 341.982801 -545.7225 
L 345.951785 -545.7225 
L 349.920769 -520.678375 
L 353.889753 -545.7225 
L 357.858738 -545.7225 
L 361.827722 -545.7225 
L 365.796706 -445.546 
L 369.76569 -545.7225 
L 373.734675 -495.63425 
L 377.703659 -545.7225 
L 381.672643 -545.7225 
L 385.641627 -545.7225 
L 389.610611 -545.7225 
L 393.579596 -545.7225 
L 397.54858 -545.7225 
L 401.517564 -545.7225 
L 405.486548 -295.28125 
L 409.455533 -445.546 
L 413.424517 -483.112188 
L 417.393501 -545.7225 
L 421.362485 -495.63425 
L 425.331469 -495.63425 
L 429.300454 -502.789714 
L 433.269438 -545.7225 
L 437.238422 -545.7225 
L 441.207406 -44.84 
L 445.176391 -474.167857 
L 449.145375 -454.652955 
L 453.114359 -545.7225 
L 457.083343 -545.7225 
L 461.052327 -510.777209 
L 465.021312 -545.7225 
L 468.990296 -545.7225 
L 472.95928 -545.7225 
L 476.928264 -523.945 
L 480.897249 -545.7225 
L 484.866233 -495.63425 
L 488.835217 -545.7225 
L 492.804201 -545.7225 
L 496.773185 -478.938167 
L 500.74217 -545.7225 
L 504.711154 -519.360263 
L 508.680138 -495.63425 
L 512.649122 -520.678375 
L 516.618107 -545.7225 
L 520.587091 -545.7225 
L 524.556075 -545.7225 
L 528.525059 -500.187727 
L 532.494043 -545.7225 
L 536.463028 -545.7225 
L 540.432012 -545.7225 
L 544.400996 -507.193077 
L 548.36998 -533.200438 
L 552.338964 -545.7225 
L 556.307949 -545.7225 
L 560.276933 -545.7225 
L 564.245917 -545.7225 
L 568.214901 -545.7225 
L 572.183886 -545.7225 
L 576.15287 -545.7225 
L 580.121854 -545.7225 
L 584.090838 -545.7225 
L 588.059822 -545.7225 
L 592.028807 -44.84 
L 595.997791 -474.167857 
L 599.966775 -420.501875 
L 603.935759 -295.28125 
L 607.904744 -295.28125 
L 611.873728 -545.7225 
L 615.842712 -545.7225 
L 619.811696 -545.7225 
L 623.78068 -545.7225 
L 627.749665 -545.7225 
L 631.718649 -545.7225 
L 635.687633 -545.7225 
L 639.656617 -462.242083 
L 643.625602 -545.7225 
L 647.594586 -378.761667 
L 651.56357 -420.501875 
L 655.532554 -545.7225 
L 659.501538 -545.7225 
L 659.501538 -545.7225 
L 659.501538 -545.7225 
L 655.532554 -545.7225 
L 651.56357 -545.7225 
L 647.594586 -545.7225 
L 643.625602 -545.7225 
L 639.656617 -545.7225 
L 635.687633 -545.7225 
L 631.718649 -545.7225 
L 627.749665 -545.7225 
L 623.78068 -545.7225 
L 619.811696 -545.7225 
L 615.842712 -545.7225 
L 611.873728 -545.7225 
L 607.904744 -545.7225 
L 603.935759 -545.7225 
L 599.966775 -545.7225 
L 595.997791 -545.7225 
L 592.028807 -545.7225 
L 588.059822 -545.7225 
L 584.090838 -545.7225 
L 580.121854 -545.7225 
L 576.15287 -545.7225 
L 572.183886 -545.7225 
L 568.214901 -545.7225 
L 564.245917 -545.7225 
L 560.276933 -545.7225 
L 556.307949 -545.7225 
L 552.338964 -545.7225 
L 548.36998 -545.7225 
L 544.400996 -545.7225 
L 540.432012 -545.7225 
L 536.463028 -545.7225 
L 532.494043 -545.7225 
L 528.525059 -545.7225 
L 524.556075 -545.7225 
L 520.587091 -545.7225 
L 516.618107 -545.7225 
L 512.649122 -545.7225 
L 508.680138 -545.7225 
L 504.711154 -545.7225 
L 500.74217 -545.7225 
L 496.773185 -545.7225 
L 492.804201 -545.7225 
L 488.835217 -545.7225 
L 484.866233 -545.7225 
L 480.897249 -545.7225 
L 476.928264 -545.7225 
L 472.95928 -545.7225 
L 468.990296 -545.7225 
L 465.021312 -545.7225 
L 461.052327 -545.7225 
L 457.083343 -545.7225 
L 453.114359 -545.7225 
L 449.145375 -545.7225 
L 445.176391 -545.7225 
L 441.207406 -545.7225 
L 437.238422 -545.7225 
L 433.269438 -545.7225 
L 429.300454 -545.7225 
L 425.331469 -545.7225 
L 421.362485 -545.7225 
L 417.393501 -545.7225 
L 413.424517 -545.7225 
L 409.455533 -545.7225 
L 405.486548 -545.7225 
L 401.517564 -545.7225 
L 397.54858 -545.7225 
L 393.579596 -545.7225 
L 389.610611 -545.7225 
L 385.641627 -545.7225 
L 381.672643 -545.7225 
L 377.703659 -545.7225 
L 373.734675 -545.7225 
L 369.76569 -545.7225 
L 365.796706 -545.7225 
L 361.827722 -545.7225 
L 357.858738 -545.7225 
L 353.889753 -545.7225 
L 349.920769 -545.7225 
L 345.951785 -545.7225 
L 341.982801 -545.7225 
L 338.013817 -545.7225 
L 334.044832 -545.7225 
L 330.075848 -545.7225 
L 326.106864 -545.7225 
L 322.13788 -545.7225 
L 318.168895 -545.7225 
L 314.199911 -545.7225 
L 310.230927 -545.7225 
L 306.261943 -545.7225 
L 302.292959 -545.7225 
L 298.323974 -545.7225 
L 294.35499 -545.7225 
L 290.386006 -545.7225 
L 286.417022 -545.7225 
L 282.448037 -545.7225 
L 278.479053 -545.7225 
L 274.510069 -545.7225 
L 270.541085 -545.7225 
L 266.572101 -545.7225 
L 262.603116 -545.7225 
L 258.634132 -545.7225 
L 254.665148 -545.7225 
L 250.696164 -545.7225 
L 246.727179 -545.7225 
L 242.758195 -545.7225 
L 238.789211 -545.7225 
L 234.820227 -545.7225 
L 230.851243 -545.7225 
L 226.882258 -545.7225 
L 222.913274 -545.7225 
L 218.94429 -545.7225 
L 214.975306 -545.7225 
L 211.006321 -545.7225 
L 207.037337 -545.7225 
L 203.068353 -545.7225 
L 199.099369 -545.7225 
L 195.130385 -545.7225 
L 191.1614 -545.7225 
L 187.192416 -545.7225 
L 183.223432 -545.7225 
L 179.254448 -545.7225 
L 175.285464 -545.7225 
L 171.316479 -545.7225 
L 167.347495 -545.7225 
L 163.378511 -545.7225 
L 159.409527 -545.7225 
L 155.440542 -545.7225 
L 151.471558 -545.7225 
L 147.502574 -545.7225 
L 143.53359 -545.7225 
L 139.564606 -545.7225 
L 135.595621 -545.7225 
L 131.626637 -545.7225 
L 127.657653 -545.7225 
L 123.688669 -545.7225 
L 119.719684 -545.7225 
L 115.7507 -545.7225 
L 111.781716 -545.7225 
L 107.812732 -545.7225 
L 103.843748 -545.7225 
L 99.874763 -545.7225 
L 95.905779 -545.7225 
L 91.936795 -545.7225 
L 87.967811 -545.7225 
L 83.998826 -545.7225 
L 80.029842 -545.7225 
L 76.060858 -545.7225 
L 72.091874 -545.7225 
L 68.12289 -545.7225 
L 64.153905 -545.7225 
L 60.184921 -545.7225 
L 56.215937 -545.7225 
L 52.246953 -545.7225 
L 48.277968 -545.7225 
L 44.308984 -545.7225 
L 40.34 -545.7225 
z
" style="stroke: #ffffff"/>
    </defs>
    <g clip-path="url(#p744e4c8b08)">
     <use xlink:href="#m237010dc9a" x="0" y="576" style="fill: #8d5993; stroke: #ffffff"/>
    </g>
   </g>
   <g id="line2d_10">
    <path d="M 40.34 120.07836 
L 659.501538 120.07836 
" clip-path="url(#p744e4c8b08)" style="fill: none; stroke-dasharray: 7.5,15; stroke-dashoffset: 0; stroke: #000000; stroke-width: 1.5"/>
   </g>
   <g id="patch_3">
    <path d="M 40.34 531.16 
L 40.34 30.2775 
" style="fill: none; stroke: #cccccc; stroke-width: 0.8; stroke-linejoin: miter; stroke-linecap: square"/>
   </g>
   <g id="patch_4">
    <path d="M 659.501538 531.16 
L 659.501538 30.2775 
" style="fill: none; stroke: #cccccc; stroke-width: 0.8; stroke-linejoin: miter; stroke-linecap: square"/>
   </g>
   <g id="patch_5">
    <path d="M 40.34 531.16 
L 659.501538 531.16 
" style="fill: none; stroke: #cccccc; stroke-width: 0.8; stroke-linejoin: miter; stroke-linecap: square"/>
   </g>
   <g id="patch_6">
    <path d="M 40.34 30.2775 
L 659.501538 30.2775 
" style="fill: none; stroke: #cccccc; stroke-width: 0.8; stroke-linejoin: miter; stroke-linecap: square"/>
   </g>
   <g id="text_12">
    <!-- 0.82 -->
    <g transform="translate(687.284428 123.441641) scale(0.14 -0.14)">
     <defs>
      <path id="TimesNewRomanPSMT-30" d="M 231 2094 
Q 231 2819 450 3342 
Q 669 3866 1031 4122 
Q 1313 4325 1613 4325 
Q 2100 4325 2488 3828 
Q 2972 3213 2972 2159 
Q 2972 1422 2759 906 
Q 2547 391 2217 158 
Q 1888 -75 1581 -75 
Q 975 -75 572 641 
Q 231 1244 231 2094 
z
M 844 2016 
Q 844 1141 1059 588 
Q 1238 122 1591 122 
Q 1759 122 1940 273 
Q 2122 425 2216 781 
Q 2359 1319 2359 2297 
Q 2359 3022 2209 3506 
Q 2097 3866 1919 4016 
Q 1791 4119 1609 4119 
Q 1397 4119 1231 3928 
Q 1006 3669 925 3112 
Q 844 2556 844 2016 
z
" transform="scale(0.015625)"/>
      <path id="TimesNewRomanPSMT-2e" d="M 800 606 
Q 947 606 1047 504 
Q 1147 403 1147 259 
Q 1147 116 1045 14 
Q 944 -88 800 -88 
Q 656 -88 554 14 
Q 453 116 453 259 
Q 453 406 554 506 
Q 656 606 800 606 
z
" transform="scale(0.015625)"/>
      <path id="TimesNewRomanPSMT-38" d="M 1228 2134 
Q 725 2547 579 2797 
Q 434 3047 434 3316 
Q 434 3728 753 4026 
Q 1072 4325 1600 4325 
Q 2113 4325 2425 4047 
Q 2738 3769 2738 3413 
Q 2738 3175 2569 2928 
Q 2400 2681 1866 2347 
Q 2416 1922 2594 1678 
Q 2831 1359 2831 1006 
Q 2831 559 2490 242 
Q 2150 -75 1597 -75 
Q 994 -75 656 303 
Q 388 606 388 966 
Q 388 1247 577 1523 
Q 766 1800 1228 2134 
z
M 1719 2469 
Q 2094 2806 2194 3001 
Q 2294 3197 2294 3444 
Q 2294 3772 2109 3958 
Q 1925 4144 1606 4144 
Q 1288 4144 1088 3959 
Q 888 3775 888 3528 
Q 888 3366 970 3203 
Q 1053 3041 1206 2894 
L 1719 2469 
z
M 1375 2016 
Q 1116 1797 991 1539 
Q 866 1281 866 981 
Q 866 578 1086 336 
Q 1306 94 1647 94 
Q 1984 94 2187 284 
Q 2391 475 2391 747 
Q 2391 972 2272 1150 
Q 2050 1481 1375 2016 
z
" transform="scale(0.015625)"/>
      <path id="TimesNewRomanPSMT-32" d="M 2934 816 
L 2638 0 
L 138 0 
L 138 116 
Q 1241 1122 1691 1759 
Q 2141 2397 2141 2925 
Q 2141 3328 1894 3587 
Q 1647 3847 1303 3847 
Q 991 3847 742 3664 
Q 494 3481 375 3128 
L 259 3128 
Q 338 3706 661 4015 
Q 984 4325 1469 4325 
Q 1984 4325 2329 3994 
Q 2675 3663 2675 3213 
Q 2675 2891 2525 2569 
Q 2294 2063 1775 1497 
Q 997 647 803 472 
L 1909 472 
Q 2247 472 2383 497 
Q 2519 522 2628 598 
Q 2738 675 2819 816 
L 2934 816 
z
" transform="scale(0.015625)"/>
     </defs>
     <use xlink:href="#TimesNewRomanPSMT-30"/>
     <use xlink:href="#TimesNewRomanPSMT-2e" transform="translate(50 0)"/>
     <use xlink:href="#TimesNewRomanPSMT-38" transform="translate(75 0)"/>
     <use xlink:href="#TimesNewRomanPSMT-32" transform="translate(125 0)"/>
    </g>
   </g>
   <g id="text_13">
    <!-- Spliff (Rhesus) -->
    <g style="fill: #262626" transform="translate(286.856707 24.2775) scale(0.2 -0.2)">
     <defs>
      <path id="TimesNewRomanPS-BoldMT-53" d="M 3006 4334 
L 3041 2922 
L 2913 2922 
Q 2822 3453 2467 3776 
Q 2113 4100 1700 4100 
Q 1381 4100 1195 3929 
Q 1009 3759 1009 3538 
Q 1009 3397 1075 3288 
Q 1166 3141 1366 2997 
Q 1513 2894 2044 2631 
Q 2788 2266 3047 1941 
Q 3303 1616 3303 1197 
Q 3303 666 2889 283 
Q 2475 -100 1838 -100 
Q 1638 -100 1459 -59 
Q 1281 -19 1013 94 
Q 863 156 766 156 
Q 684 156 593 93 
Q 503 31 447 -97 
L 331 -97 
L 331 1503 
L 447 1503 
Q 584 828 976 473 
Q 1369 119 1822 119 
Q 2172 119 2380 309 
Q 2588 500 2588 753 
Q 2588 903 2508 1043 
Q 2428 1184 2265 1311 
Q 2103 1438 1691 1641 
Q 1113 1925 859 2125 
Q 606 2325 470 2572 
Q 334 2819 334 3116 
Q 334 3622 706 3978 
Q 1078 4334 1644 4334 
Q 1850 4334 2044 4284 
Q 2191 4247 2402 4145 
Q 2613 4044 2697 4044 
Q 2778 4044 2825 4094 
Q 2872 4144 2913 4334 
L 3006 4334 
z
" transform="scale(0.015625)"/>
      <path id="TimesNewRomanPS-BoldMT-70" d="M 1347 297 
L 1347 -791 
Q 1347 -1016 1383 -1097 
Q 1419 -1178 1494 -1215 
Q 1569 -1253 1788 -1253 
L 1788 -1369 
L 122 -1369 
L 122 -1253 
Q 316 -1247 409 -1144 
Q 472 -1072 472 -772 
L 472 2313 
Q 472 2622 400 2708 
Q 328 2794 122 2806 
L 122 2922 
L 1347 2922 
L 1347 2538 
Q 1500 2763 1659 2863 
Q 1888 3009 2156 3009 
Q 2478 3009 2742 2806 
Q 3006 2603 3143 2245 
Q 3281 1888 3281 1475 
Q 3281 1031 3139 664 
Q 2997 297 2726 104 
Q 2456 -88 2125 -88 
Q 1884 -88 1675 19 
Q 1519 100 1347 297 
z
M 1347 613 
Q 1616 231 1922 231 
Q 2091 231 2200 409 
Q 2363 672 2363 1409 
Q 2363 2166 2184 2444 
Q 2066 2628 1866 2628 
Q 1550 2628 1347 2172 
L 1347 613 
z
" transform="scale(0.015625)"/>
      <path id="TimesNewRomanPS-BoldMT-6c" d="M 1359 4238 
L 1359 606 
Q 1359 297 1431 211 
Q 1503 125 1713 113 
L 1713 0 
L 134 0 
L 134 113 
Q 328 119 422 225 
Q 484 297 484 606 
L 484 3631 
Q 484 3938 412 4023 
Q 341 4109 134 4122 
L 134 4238 
L 1359 4238 
z
" transform="scale(0.015625)"/>
      <path id="TimesNewRomanPS-BoldMT-69" d="M 919 4338 
Q 1122 4338 1262 4195 
Q 1403 4053 1403 3853 
Q 1403 3653 1261 3512 
Q 1119 3372 919 3372 
Q 719 3372 578 3512 
Q 438 3653 438 3853 
Q 438 4053 578 4195 
Q 719 4338 919 4338 
z
M 1356 2922 
L 1356 606 
Q 1356 297 1428 211 
Q 1500 125 1709 113 
L 1709 0 
L 131 0 
L 131 113 
Q 325 119 419 225 
Q 481 297 481 606 
L 481 2313 
Q 481 2622 409 2708 
Q 338 2794 131 2806 
L 131 2922 
L 1356 2922 
z
" transform="scale(0.015625)"/>
      <path id="TimesNewRomanPS-BoldMT-66" d="M 1497 2616 
L 1497 588 
Q 1497 294 1559 219 
Q 1659 103 1928 113 
L 1928 0 
L 206 0 
L 206 113 
Q 403 116 486 158 
Q 569 200 600 275 
Q 631 350 631 588 
L 631 2616 
L 206 2616 
L 206 2922 
L 631 2922 
L 631 3138 
L 628 3284 
Q 628 3734 958 4034 
Q 1288 4334 1850 4334 
Q 2234 4334 2420 4190 
Q 2606 4047 2606 3872 
Q 2606 3731 2490 3628 
Q 2375 3525 2184 3525 
Q 2022 3525 1926 3609 
Q 1831 3694 1831 3797 
Q 1831 3825 1850 3913 
Q 1863 3966 1863 4013 
Q 1863 4078 1825 4109 
Q 1775 4156 1703 4156 
Q 1613 4156 1552 4081 
Q 1491 4006 1491 3841 
L 1497 3294 
L 1497 2922 
L 1928 2922 
L 1928 2616 
L 1497 2616 
z
" transform="scale(0.015625)"/>
      <path id="TimesNewRomanPS-BoldMT-20" transform="scale(0.015625)"/>
      <path id="TimesNewRomanPS-BoldMT-28" d="M 2056 4334 
L 2056 4191 
Q 1731 3978 1578 3775 
Q 1366 3494 1247 3053 
Q 1097 2506 1097 1525 
Q 1097 600 1233 87 
Q 1369 -425 1603 -741 
Q 1766 -959 2056 -1125 
L 2056 -1281 
Q 1303 -1028 779 -248 
Q 256 531 256 1544 
Q 256 2544 778 3314 
Q 1300 4084 2056 4334 
z
" transform="scale(0.015625)"/>
      <path id="TimesNewRomanPS-BoldMT-52" d="M 1700 1931 
L 1700 744 
Q 1700 400 1742 311 
Q 1784 222 1890 169 
Q 1997 116 2288 116 
L 2288 0 
L 119 0 
L 119 116 
Q 413 116 517 170 
Q 622 225 664 312 
Q 706 400 706 744 
L 706 3494 
Q 706 3838 664 3927 
Q 622 4016 515 4069 
Q 409 4122 119 4122 
L 119 4238 
L 2088 4238 
Q 2856 4238 3212 4131 
Q 3569 4025 3794 3739 
Q 4019 3453 4019 3069 
Q 4019 2600 3681 2294 
Q 3466 2100 3078 2003 
L 4097 569 
Q 4297 291 4381 222 
Q 4509 125 4678 116 
L 4678 0 
L 3344 0 
L 1978 1931 
L 1700 1931 
z
M 1700 4009 
L 1700 2153 
L 1878 2153 
Q 2313 2153 2528 2233 
Q 2744 2313 2867 2520 
Q 2991 2728 2991 3063 
Q 2991 3547 2764 3778 
Q 2538 4009 2034 4009 
L 1700 4009 
z
" transform="scale(0.015625)"/>
      <path id="TimesNewRomanPS-BoldMT-68" d="M 1409 4238 
L 1409 2547 
Q 1650 2800 1850 2904 
Q 2050 3009 2266 3009 
Q 2541 3009 2736 2853 
Q 2931 2697 2995 2486 
Q 3059 2275 3059 1775 
L 3059 634 
Q 3059 300 3121 217 
Q 3184 134 3375 113 
L 3375 0 
L 1894 0 
L 1894 113 
Q 2050 134 2128 238 
Q 2184 319 2184 634 
L 2184 1938 
Q 2184 2300 2156 2392 
Q 2128 2484 2061 2536 
Q 1994 2588 1909 2588 
Q 1784 2588 1665 2502 
Q 1547 2416 1409 2200 
L 1409 634 
Q 1409 322 1456 244 
Q 1516 138 1700 113 
L 1700 0 
L 219 0 
L 219 113 
Q 403 131 481 231 
Q 534 300 534 634 
L 534 3603 
Q 534 3934 473 4015 
Q 413 4097 219 4122 
L 219 4238 
L 1409 4238 
z
" transform="scale(0.015625)"/>
      <path id="TimesNewRomanPS-BoldMT-65" d="M 2691 1566 
L 1088 1566 
Q 1116 984 1397 647 
Q 1613 388 1916 388 
Q 2103 388 2256 492 
Q 2409 597 2584 869 
L 2691 800 
Q 2453 316 2165 114 
Q 1878 -88 1500 -88 
Q 850 -88 516 413 
Q 247 816 247 1413 
Q 247 2144 642 2576 
Q 1038 3009 1569 3009 
Q 2013 3009 2339 2645 
Q 2666 2281 2691 1566 
z
M 1922 1775 
Q 1922 2278 1867 2465 
Q 1813 2653 1697 2750 
Q 1631 2806 1522 2806 
Q 1359 2806 1256 2647 
Q 1072 2369 1072 1884 
L 1072 1775 
L 1922 1775 
z
" transform="scale(0.015625)"/>
      <path id="TimesNewRomanPS-BoldMT-73" d="M 2063 3003 
L 2109 2006 
L 2003 2006 
Q 1813 2450 1608 2612 
Q 1403 2775 1200 2775 
Q 1072 2775 981 2689 
Q 891 2603 891 2491 
Q 891 2406 953 2328 
Q 1053 2200 1512 1889 
Q 1972 1578 2117 1361 
Q 2263 1144 2263 875 
Q 2263 631 2141 397 
Q 2019 163 1797 37 
Q 1575 -88 1306 -88 
Q 1097 -88 747 44 
Q 653 78 619 78 
Q 516 78 447 -78 
L 344 -78 
L 294 972 
L 400 972 
Q 541 559 786 353 
Q 1031 147 1250 147 
Q 1400 147 1495 239 
Q 1591 331 1591 463 
Q 1591 613 1497 722 
Q 1403 831 1078 1053 
Q 600 1384 459 1559 
Q 253 1816 253 2125 
Q 253 2463 486 2736 
Q 719 3009 1159 3009 
Q 1397 3009 1619 2894 
Q 1703 2847 1756 2847 
Q 1813 2847 1847 2870 
Q 1881 2894 1956 3003 
L 2063 3003 
z
" transform="scale(0.015625)"/>
      <path id="TimesNewRomanPS-BoldMT-75" d="M 3038 2922 
L 3038 634 
Q 3038 300 3100 217 
Q 3163 134 3353 113 
L 3353 0 
L 2163 0 
L 2163 391 
Q 1953 141 1743 26 
Q 1534 -88 1275 -88 
Q 1028 -88 836 64 
Q 644 216 578 419 
Q 513 622 513 1128 
L 513 2288 
Q 513 2619 452 2700 
Q 391 2781 197 2806 
L 197 2922 
L 1388 2922 
L 1388 925 
Q 1388 613 1417 522 
Q 1447 431 1511 384 
Q 1575 338 1659 338 
Q 1772 338 1863 397 
Q 1988 478 2163 725 
L 2163 2288 
Q 2163 2619 2102 2700 
Q 2041 2781 1847 2806 
L 1847 2922 
L 3038 2922 
z
" transform="scale(0.015625)"/>
      <path id="TimesNewRomanPS-BoldMT-29" d="M 78 -1281 
L 78 -1138 
Q 403 -922 556 -719 
Q 766 -438 888 0 
Q 1038 550 1038 1531 
Q 1038 2456 902 2967 
Q 766 3478 531 3794 
Q 369 4013 78 4178 
L 78 4334 
Q 831 4081 1354 3301 
Q 1878 2522 1878 1509 
Q 1878 513 1354 -257 
Q 831 -1028 78 -1281 
z
" transform="scale(0.015625)"/>
     </defs>
     <use xlink:href="#TimesNewRomanPS-BoldMT-53"/>
     <use xlink:href="#TimesNewRomanPS-BoldMT-70" transform="translate(55.615234 0)"/>
     <use xlink:href="#TimesNewRomanPS-BoldMT-6c" transform="translate(111.230469 0)"/>
     <use xlink:href="#TimesNewRomanPS-BoldMT-69" transform="translate(139.013672 0)"/>
     <use xlink:href="#TimesNewRomanPS-BoldMT-66" transform="translate(166.796875 0)"/>
     <use xlink:href="#TimesNewRomanPS-BoldMT-66" transform="translate(200.097656 0)"/>
     <use xlink:href="#TimesNewRomanPS-BoldMT-20" transform="translate(233.398438 0)"/>
     <use xlink:href="#TimesNewRomanPS-BoldMT-28" transform="translate(258.398438 0)"/>
     <use xlink:href="#TimesNewRomanPS-BoldMT-52" transform="translate(291.699219 0)"/>
     <use xlink:href="#TimesNewRomanPS-BoldMT-68" transform="translate(363.916016 0)"/>
     <use xlink:href="#TimesNewRomanPS-BoldMT-65" transform="translate(419.53125 0)"/>
     <use xlink:href="#TimesNewRomanPS-BoldMT-73" transform="translate(463.916016 0)"/>
     <use xlink:href="#TimesNewRomanPS-BoldMT-75" transform="translate(502.832031 0)"/>
     <use xlink:href="#TimesNewRomanPS-BoldMT-73" transform="translate(558.447266 0)"/>
     <use xlink:href="#TimesNewRomanPS-BoldMT-29" transform="translate(597.363281 0)"/>
    </g>
   </g>
   <g id="legend_1">
    <g id="patch_7">
     <path d="M 47.34 94.83375 
L 133.236875 94.83375 
Q 135.236875 94.83375 135.236875 92.83375 
L 135.236875 37.2775 
Q 135.236875 35.2775 133.236875 35.2775 
L 47.34 35.2775 
Q 45.34 35.2775 45.34 37.2775 
L 45.34 92.83375 
Q 45.34 94.83375 47.34 94.83375 
z
" style="fill: #ffffff; opacity: 0.8; stroke: #cccccc; stroke-linejoin: miter"/>
    </g>
    <g id="patch_8">
     <path d="M 49.34 46.2775 
L 69.34 46.2775 
L 69.34 39.2775 
L 49.34 39.2775 
z
" style="fill: #5386b6; stroke: #ffffff; stroke-linejoin: miter"/>
    </g>
    <g id="text_14">
     <!-- Success -->
     <g style="fill: #262626" transform="translate(77.34 46.2775) scale(0.1 -0.1)">
      <use xlink:href="#TimesNewRomanPSMT-53"/>
      <use xlink:href="#TimesNewRomanPSMT-75" transform="translate(55.615234 0)"/>
      <use xlink:href="#TimesNewRomanPSMT-63" transform="translate(105.615234 0)"/>
      <use xlink:href="#TimesNewRomanPSMT-63" transform="translate(150 0)"/>
      <use xlink:href="#TimesNewRomanPSMT-65" transform="translate(194.384766 0)"/>
      <use xlink:href="#TimesNewRomanPSMT-73" transform="translate(238.769531 0)"/>
      <use xlink:href="#TimesNewRomanPSMT-73" transform="translate(277.685547 0)"/>
     </g>
    </g>
    <g id="patch_9">
     <path d="M 49.34 60.416562 
L 69.34 60.416562 
L 69.34 53.416562 
L 49.34 53.416562 
z
" style="fill: #d57459; stroke: #ffffff; stroke-linejoin: miter"/>
    </g>
    <g id="text_15">
     <!-- Error -->
     <g style="fill: #262626" transform="translate(77.34 60.416562) scale(0.1 -0.1)">
      <defs>
       <path id="TimesNewRomanPSMT-45" d="M 1338 4006 
L 1338 2331 
L 2269 2331 
Q 2631 2331 2753 2441 
Q 2916 2584 2934 2947 
L 3050 2947 
L 3050 1472 
L 2934 1472 
Q 2891 1781 2847 1869 
Q 2791 1978 2662 2040 
Q 2534 2103 2269 2103 
L 1338 2103 
L 1338 706 
Q 1338 425 1363 364 
Q 1388 303 1450 267 
Q 1513 231 1688 231 
L 2406 231 
Q 2766 231 2928 281 
Q 3091 331 3241 478 
Q 3434 672 3638 1063 
L 3763 1063 
L 3397 0 
L 131 0 
L 131 116 
L 281 116 
Q 431 116 566 188 
Q 666 238 702 338 
Q 738 438 738 747 
L 738 3500 
Q 738 3903 656 3997 
Q 544 4122 281 4122 
L 131 4122 
L 131 4238 
L 3397 4238 
L 3444 3309 
L 3322 3309 
Q 3256 3644 3176 3769 
Q 3097 3894 2941 3959 
Q 2816 4006 2500 4006 
L 1338 4006 
z
" transform="scale(0.015625)"/>
      </defs>
      <use xlink:href="#TimesNewRomanPSMT-45"/>
      <use xlink:href="#TimesNewRomanPSMT-72" transform="translate(61.083984 0)"/>
      <use xlink:href="#TimesNewRomanPSMT-72" transform="translate(94.384766 0)"/>
      <use xlink:href="#TimesNewRomanPSMT-6f" transform="translate(127.685547 0)"/>
      <use xlink:href="#TimesNewRomanPSMT-72" transform="translate(177.685547 0)"/>
     </g>
    </g>
    <g id="patch_10">
     <path d="M 49.34 74.555625 
L 69.34 74.555625 
L 69.34 67.555625 
L 49.34 67.555625 
z
" style="fill: #e8bc60; stroke: #ffffff; stroke-linejoin: miter"/>
    </g>
    <g id="text_16">
     <!-- Premature -->
     <g style="fill: #262626" transform="translate(77.34 74.555625) scale(0.1 -0.1)">
      <defs>
       <path id="TimesNewRomanPSMT-6d" d="M 1050 2338 
Q 1363 2650 1419 2697 
Q 1559 2816 1721 2881 
Q 1884 2947 2044 2947 
Q 2313 2947 2506 2790 
Q 2700 2634 2766 2338 
Q 3088 2713 3309 2830 
Q 3531 2947 3766 2947 
Q 3994 2947 4170 2830 
Q 4347 2713 4450 2447 
Q 4519 2266 4519 1878 
L 4519 647 
Q 4519 378 4559 278 
Q 4591 209 4675 161 
Q 4759 113 4950 113 
L 4950 0 
L 3538 0 
L 3538 113 
L 3597 113 
Q 3781 113 3884 184 
Q 3956 234 3988 344 
Q 4000 397 4000 647 
L 4000 1878 
Q 4000 2228 3916 2372 
Q 3794 2572 3525 2572 
Q 3359 2572 3192 2489 
Q 3025 2406 2788 2181 
L 2781 2147 
L 2788 2013 
L 2788 647 
Q 2788 353 2820 281 
Q 2853 209 2943 161 
Q 3034 113 3253 113 
L 3253 0 
L 1806 0 
L 1806 113 
Q 2044 113 2133 169 
Q 2222 225 2256 338 
Q 2272 391 2272 647 
L 2272 1878 
Q 2272 2228 2169 2381 
Q 2031 2581 1784 2581 
Q 1616 2581 1450 2491 
Q 1191 2353 1050 2181 
L 1050 647 
Q 1050 366 1089 281 
Q 1128 197 1204 155 
Q 1281 113 1516 113 
L 1516 0 
L 100 0 
L 100 113 
Q 297 113 375 155 
Q 453 197 493 289 
Q 534 381 534 647 
L 534 1741 
Q 534 2213 506 2350 
Q 484 2453 437 2492 
Q 391 2531 309 2531 
Q 222 2531 100 2484 
L 53 2597 
L 916 2947 
L 1050 2947 
L 1050 2338 
z
" transform="scale(0.015625)"/>
      </defs>
      <use xlink:href="#TimesNewRomanPSMT-50"/>
      <use xlink:href="#TimesNewRomanPSMT-72" transform="translate(55.615234 0)"/>
      <use xlink:href="#TimesNewRomanPSMT-65" transform="translate(88.916016 0)"/>
      <use xlink:href="#TimesNewRomanPSMT-6d" transform="translate(133.300781 0)"/>
      <use xlink:href="#TimesNewRomanPSMT-61" transform="translate(211.083984 0)"/>
      <use xlink:href="#TimesNewRomanPSMT-74" transform="translate(255.46875 0)"/>
      <use xlink:href="#TimesNewRomanPSMT-75" transform="translate(283.251953 0)"/>
      <use xlink:href="#TimesNewRomanPSMT-72" transform="translate(333.251953 0)"/>
      <use xlink:href="#TimesNewRomanPSMT-65" transform="translate(366.552734 0)"/>
     </g>
    </g>
    <g id="patch_11">
     <path d="M 49.34 88.694687 
L 69.34 88.694687 
L 69.34 81.694687 
L 49.34 81.694687 
z
" style="fill: #8d5993; stroke: #ffffff; stroke-linejoin: miter"/>
    </g>
    <g id="text_17">
     <!-- Stepomission -->
     <g style="fill: #262626" transform="translate(77.34 88.694687) scale(0.1 -0.1)">
      <use xlink:href="#TimesNewRomanPSMT-53"/>
      <use xlink:href="#TimesNewRomanPSMT-74" transform="translate(55.615234 0)"/>
      <use xlink:href="#TimesNewRomanPSMT-65" transform="translate(83.398438 0)"/>
      <use xlink:href="#TimesNewRomanPSMT-70" transform="translate(127.783203 0)"/>
      <use xlink:href="#TimesNewRomanPSMT-6f" transform="translate(177.783203 0)"/>
      <use xlink:href="#TimesNewRomanPSMT-6d" transform="translate(227.783203 0)"/>
      <use xlink:href="#TimesNewRomanPSMT-69" transform="translate(305.566406 0)"/>
      <use xlink:href="#TimesNewRomanPSMT-73" transform="translate(333.349609 0)"/>
      <use xlink:href="#TimesNewRomanPSMT-73" transform="translate(372.265625 0)"/>
      <use xlink:href="#TimesNewRomanPSMT-69" transform="translate(411.181641 0)"/>
      <use xlink:href="#TimesNewRomanPSMT-6f" transform="translate(438.964844 0)"/>
      <use xlink:href="#TimesNewRomanPSMT-6e" transform="translate(488.964844 0)"/>
     </g>
    </g>
   </g>
  </g>
 </g>
 <defs>
  <clipPath id="p744e4c8b08">
   <rect x="40.34" y="30.2775" width="619.161538" height="500.8825"/>
  </clipPath>
 </defs>
</svg>
