<?xml version="1.0" encoding="utf-8" standalone="no"?>
<!DOCTYPE svg PUBLIC "-//W3C//DTD SVG 1.1//EN"
  "http://www.w3.org/Graphics/SVG/1.1/DTD/svg11.dtd">
<svg xmlns:xlink="http://www.w3.org/1999/xlink" width="720pt" height="576pt" viewBox="0 0 720 576" xmlns="http://www.w3.org/2000/svg" version="1.1">
 <metadata>
  <rdf:RDF xmlns:dc="http://purl.org/dc/elements/1.1/" xmlns:cc="http://creativecommons.org/ns#" xmlns:rdf="http://www.w3.org/1999/02/22-rdf-syntax-ns#">
   <cc:Work>
    <dc:type rdf:resource="http://purl.org/dc/dcmitype/StillImage"/>
    <dc:date>2025-07-03T15:55:13.919346</dc:date>
    <dc:format>image/svg+xml</dc:format>
    <dc:creator>
     <cc:Agent>
      <dc:title>Matplotlib v3.10.3, https://matplotlib.org/</dc:title>
     </cc:Agent>
    </dc:creator>
   </cc:Work>
  </rdf:RDF>
 </metadata>
 <defs>
  <style type="text/css">*{stroke-linejoin: round; stroke-linecap: butt}</style>
 </defs>
 <g id="figure_1">
  <g id="patch_1">
   <path d="M 0 576 
L 720 576 
L 720 0 
L 0 0 
z
" style="fill: #ffffff"/>
  </g>
  <g id="axes_1">
   <g id="patch_2">
    <path d="M 40.34 531.16 
L 671.775294 531.16 
L 671.775294 29.94 
L 40.34 29.94 
z
" style="fill: #ffffff"/>
   </g>
   <g id="matplotlib.axis_1">
    <g id="xtick_1">
     <g id="line2d_1">
      <path d="M 141.452188 531.16 
L 141.452188 29.94 
" clip-path="url(#p937648003c)" style="fill: none; stroke-dasharray: 2.96,1.28; stroke-dashoffset: 0; stroke: #cccccc; stroke-opacity: 0.5; stroke-width: 0.8"/>
     </g>
     <g id="text_1">
      <!-- 50 -->
      <g style="fill: #262626" transform="translate(135.89125 545.317812) scale(0.1 -0.1)">
       <defs>
        <path id="ArialMT-35" d="M 266 1200 
L 856 1250 
Q 922 819 1161 601 
Q 1400 384 1738 384 
Q 2144 384 2425 690 
Q 2706 997 2706 1503 
Q 2706 1984 2436 2262 
Q 2166 2541 1728 2541 
Q 1456 2541 1237 2417 
Q 1019 2294 894 2097 
L 366 2166 
L 809 4519 
L 3088 4519 
L 3088 3981 
L 1259 3981 
L 1013 2750 
Q 1425 3038 1878 3038 
Q 2478 3038 2890 2622 
Q 3303 2206 3303 1553 
Q 3303 931 2941 478 
Q 2500 -78 1738 -78 
Q 1113 -78 717 272 
Q 322 622 266 1200 
z
" transform="scale(0.015625)"/>
        <path id="ArialMT-30" d="M 266 2259 
Q 266 3072 433 3567 
Q 600 4063 929 4331 
Q 1259 4600 1759 4600 
Q 2128 4600 2406 4451 
Q 2684 4303 2865 4023 
Q 3047 3744 3150 3342 
Q 3253 2941 3253 2259 
Q 3253 1453 3087 958 
Q 2922 463 2592 192 
Q 2263 -78 1759 -78 
Q 1097 -78 719 397 
Q 266 969 266 2259 
z
M 844 2259 
Q 844 1131 1108 757 
Q 1372 384 1759 384 
Q 2147 384 2411 759 
Q 2675 1134 2675 2259 
Q 2675 3391 2411 3762 
Q 2147 4134 1753 4134 
Q 1366 4134 1134 3806 
Q 844 3388 844 2259 
z
" transform="scale(0.015625)"/>
       </defs>
       <use xlink:href="#ArialMT-35"/>
       <use xlink:href="#ArialMT-30" transform="translate(55.615234 0)"/>
      </g>
     </g>
    </g>
    <g id="xtick_2">
     <g id="line2d_2">
      <path d="M 244.627889 531.16 
L 244.627889 29.94 
" clip-path="url(#p937648003c)" style="fill: none; stroke-dasharray: 2.96,1.28; stroke-dashoffset: 0; stroke: #cccccc; stroke-opacity: 0.5; stroke-width: 0.8"/>
     </g>
     <g id="text_2">
      <!-- 100 -->
      <g style="fill: #262626" transform="translate(236.286483 545.317812) scale(0.1 -0.1)">
       <defs>
        <path id="ArialMT-31" d="M 2384 0 
L 1822 0 
L 1822 3584 
Q 1619 3391 1289 3197 
Q 959 3003 697 2906 
L 697 3450 
Q 1169 3672 1522 3987 
Q 1875 4303 2022 4600 
L 2384 4600 
L 2384 0 
z
" transform="scale(0.015625)"/>
       </defs>
       <use xlink:href="#ArialMT-31"/>
       <use xlink:href="#ArialMT-30" transform="translate(55.615234 0)"/>
       <use xlink:href="#ArialMT-30" transform="translate(111.230469 0)"/>
      </g>
     </g>
    </g>
    <g id="xtick_3">
     <g id="line2d_3">
      <path d="M 347.803591 531.16 
L 347.803591 29.94 
" clip-path="url(#p937648003c)" style="fill: none; stroke-dasharray: 2.96,1.28; stroke-dashoffset: 0; stroke: #cccccc; stroke-opacity: 0.5; stroke-width: 0.8"/>
     </g>
     <g id="text_3">
      <!-- 150 -->
      <g style="fill: #262626" transform="translate(339.462185 545.317812) scale(0.1 -0.1)">
       <use xlink:href="#ArialMT-31"/>
       <use xlink:href="#ArialMT-35" transform="translate(55.615234 0)"/>
       <use xlink:href="#ArialMT-30" transform="translate(111.230469 0)"/>
      </g>
     </g>
    </g>
    <g id="xtick_4">
     <g id="line2d_4">
      <path d="M 450.979293 531.16 
L 450.979293 29.94 
" clip-path="url(#p937648003c)" style="fill: none; stroke-dasharray: 2.96,1.28; stroke-dashoffset: 0; stroke: #cccccc; stroke-opacity: 0.5; stroke-width: 0.8"/>
     </g>
     <g id="text_4">
      <!-- 200 -->
      <g style="fill: #262626" transform="translate(442.637886 545.317812) scale(0.1 -0.1)">
       <defs>
        <path id="ArialMT-32" d="M 3222 541 
L 3222 0 
L 194 0 
Q 188 203 259 391 
Q 375 700 629 1000 
Q 884 1300 1366 1694 
Q 2113 2306 2375 2664 
Q 2638 3022 2638 3341 
Q 2638 3675 2398 3904 
Q 2159 4134 1775 4134 
Q 1369 4134 1125 3890 
Q 881 3647 878 3216 
L 300 3275 
Q 359 3922 746 4261 
Q 1134 4600 1788 4600 
Q 2447 4600 2831 4234 
Q 3216 3869 3216 3328 
Q 3216 3053 3103 2787 
Q 2991 2522 2730 2228 
Q 2469 1934 1863 1422 
Q 1356 997 1212 845 
Q 1069 694 975 541 
L 3222 541 
z
" transform="scale(0.015625)"/>
       </defs>
       <use xlink:href="#ArialMT-32"/>
       <use xlink:href="#ArialMT-30" transform="translate(55.615234 0)"/>
       <use xlink:href="#ArialMT-30" transform="translate(111.230469 0)"/>
      </g>
     </g>
    </g>
    <g id="xtick_5">
     <g id="line2d_5">
      <path d="M 554.154994 531.16 
L 554.154994 29.94 
" clip-path="url(#p937648003c)" style="fill: none; stroke-dasharray: 2.96,1.28; stroke-dashoffset: 0; stroke: #cccccc; stroke-opacity: 0.5; stroke-width: 0.8"/>
     </g>
     <g id="text_5">
      <!-- 250 -->
      <g style="fill: #262626" transform="translate(545.813588 545.317812) scale(0.1 -0.1)">
       <use xlink:href="#ArialMT-32"/>
       <use xlink:href="#ArialMT-35" transform="translate(55.615234 0)"/>
       <use xlink:href="#ArialMT-30" transform="translate(111.230469 0)"/>
      </g>
     </g>
    </g>
    <g id="xtick_6">
     <g id="line2d_6">
      <path d="M 657.330696 531.16 
L 657.330696 29.94 
" clip-path="url(#p937648003c)" style="fill: none; stroke-dasharray: 2.96,1.28; stroke-dashoffset: 0; stroke: #cccccc; stroke-opacity: 0.5; stroke-width: 0.8"/>
     </g>
     <g id="text_6">
      <!-- 300 -->
      <g style="fill: #262626" transform="translate(648.98929 545.317812) scale(0.1 -0.1)">
       <defs>
        <path id="ArialMT-33" d="M 269 1209 
L 831 1284 
Q 928 806 1161 595 
Q 1394 384 1728 384 
Q 2125 384 2398 659 
Q 2672 934 2672 1341 
Q 2672 1728 2419 1979 
Q 2166 2231 1775 2231 
Q 1616 2231 1378 2169 
L 1441 2663 
Q 1497 2656 1531 2656 
Q 1891 2656 2178 2843 
Q 2466 3031 2466 3422 
Q 2466 3731 2256 3934 
Q 2047 4138 1716 4138 
Q 1388 4138 1169 3931 
Q 950 3725 888 3313 
L 325 3413 
Q 428 3978 793 4289 
Q 1159 4600 1703 4600 
Q 2078 4600 2393 4439 
Q 2709 4278 2876 4000 
Q 3044 3722 3044 3409 
Q 3044 3113 2884 2869 
Q 2725 2625 2413 2481 
Q 2819 2388 3044 2092 
Q 3269 1797 3269 1353 
Q 3269 753 2831 336 
Q 2394 -81 1725 -81 
Q 1122 -81 723 278 
Q 325 638 269 1209 
z
" transform="scale(0.015625)"/>
       </defs>
       <use xlink:href="#ArialMT-33"/>
       <use xlink:href="#ArialMT-30" transform="translate(55.615234 0)"/>
       <use xlink:href="#ArialMT-30" transform="translate(111.230469 0)"/>
      </g>
     </g>
    </g>
    <g id="text_7">
     <!-- Session Count -->
     <g style="fill: #262626" transform="translate(315.799991 561.026562) scale(0.14 -0.14)">
      <defs>
       <path id="TimesNewRomanPSMT-53" d="M 2934 4334 
L 2934 2869 
L 2819 2869 
Q 2763 3291 2617 3541 
Q 2472 3791 2203 3937 
Q 1934 4084 1647 4084 
Q 1322 4084 1109 3886 
Q 897 3688 897 3434 
Q 897 3241 1031 3081 
Q 1225 2847 1953 2456 
Q 2547 2138 2764 1967 
Q 2981 1797 3098 1565 
Q 3216 1334 3216 1081 
Q 3216 600 2842 251 
Q 2469 -97 1881 -97 
Q 1697 -97 1534 -69 
Q 1438 -53 1133 45 
Q 828 144 747 144 
Q 669 144 623 97 
Q 578 50 556 -97 
L 441 -97 
L 441 1356 
L 556 1356 
Q 638 900 775 673 
Q 913 447 1195 297 
Q 1478 147 1816 147 
Q 2206 147 2432 353 
Q 2659 559 2659 841 
Q 2659 997 2573 1156 
Q 2488 1316 2306 1453 
Q 2184 1547 1640 1851 
Q 1097 2156 867 2337 
Q 638 2519 519 2737 
Q 400 2956 400 3219 
Q 400 3675 750 4004 
Q 1100 4334 1641 4334 
Q 1978 4334 2356 4169 
Q 2531 4091 2603 4091 
Q 2684 4091 2736 4139 
Q 2788 4188 2819 4334 
L 2934 4334 
z
" transform="scale(0.015625)"/>
       <path id="TimesNewRomanPSMT-65" d="M 681 1784 
Q 678 1147 991 784 
Q 1303 422 1725 422 
Q 2006 422 2214 576 
Q 2422 731 2563 1106 
L 2659 1044 
Q 2594 616 2278 264 
Q 1963 -88 1488 -88 
Q 972 -88 605 314 
Q 238 716 238 1394 
Q 238 2128 614 2539 
Q 991 2950 1559 2950 
Q 2041 2950 2350 2633 
Q 2659 2316 2659 1784 
L 681 1784 
z
M 681 1966 
L 2006 1966 
Q 1991 2241 1941 2353 
Q 1863 2528 1708 2628 
Q 1553 2728 1384 2728 
Q 1125 2728 920 2526 
Q 716 2325 681 1966 
z
" transform="scale(0.015625)"/>
       <path id="TimesNewRomanPSMT-73" d="M 2050 2947 
L 2050 1972 
L 1947 1972 
Q 1828 2431 1642 2597 
Q 1456 2763 1169 2763 
Q 950 2763 815 2647 
Q 681 2531 681 2391 
Q 681 2216 781 2091 
Q 878 1963 1175 1819 
L 1631 1597 
Q 2266 1288 2266 781 
Q 2266 391 1970 151 
Q 1675 -88 1309 -88 
Q 1047 -88 709 6 
Q 606 38 541 38 
Q 469 38 428 -44 
L 325 -44 
L 325 978 
L 428 978 
Q 516 541 762 319 
Q 1009 97 1316 97 
Q 1531 97 1667 223 
Q 1803 350 1803 528 
Q 1803 744 1651 891 
Q 1500 1038 1047 1263 
Q 594 1488 453 1669 
Q 313 1847 313 2119 
Q 313 2472 555 2709 
Q 797 2947 1181 2947 
Q 1350 2947 1591 2875 
Q 1750 2828 1803 2828 
Q 1853 2828 1881 2850 
Q 1909 2872 1947 2947 
L 2050 2947 
z
" transform="scale(0.015625)"/>
       <path id="TimesNewRomanPSMT-69" d="M 928 4444 
Q 1059 4444 1151 4351 
Q 1244 4259 1244 4128 
Q 1244 3997 1151 3903 
Q 1059 3809 928 3809 
Q 797 3809 703 3903 
Q 609 3997 609 4128 
Q 609 4259 701 4351 
Q 794 4444 928 4444 
z
M 1188 2947 
L 1188 647 
Q 1188 378 1227 289 
Q 1266 200 1342 156 
Q 1419 113 1622 113 
L 1622 0 
L 231 0 
L 231 113 
Q 441 113 512 153 
Q 584 194 626 287 
Q 669 381 669 647 
L 669 1750 
Q 669 2216 641 2353 
Q 619 2453 572 2492 
Q 525 2531 444 2531 
Q 356 2531 231 2484 
L 188 2597 
L 1050 2947 
L 1188 2947 
z
" transform="scale(0.015625)"/>
       <path id="TimesNewRomanPSMT-6f" d="M 1600 2947 
Q 2250 2947 2644 2453 
Q 2978 2031 2978 1484 
Q 2978 1100 2793 706 
Q 2609 313 2286 112 
Q 1963 -88 1566 -88 
Q 919 -88 538 428 
Q 216 863 216 1403 
Q 216 1797 411 2186 
Q 606 2575 925 2761 
Q 1244 2947 1600 2947 
z
M 1503 2744 
Q 1338 2744 1170 2645 
Q 1003 2547 900 2300 
Q 797 2053 797 1666 
Q 797 1041 1045 587 
Q 1294 134 1700 134 
Q 2003 134 2200 384 
Q 2397 634 2397 1244 
Q 2397 2006 2069 2444 
Q 1847 2744 1503 2744 
z
" transform="scale(0.015625)"/>
       <path id="TimesNewRomanPSMT-6e" d="M 1034 2341 
Q 1538 2947 1994 2947 
Q 2228 2947 2397 2830 
Q 2566 2713 2666 2444 
Q 2734 2256 2734 1869 
L 2734 647 
Q 2734 375 2778 278 
Q 2813 200 2889 156 
Q 2966 113 3172 113 
L 3172 0 
L 1756 0 
L 1756 113 
L 1816 113 
Q 2016 113 2095 173 
Q 2175 234 2206 353 
Q 2219 400 2219 647 
L 2219 1819 
Q 2219 2209 2117 2386 
Q 2016 2563 1775 2563 
Q 1403 2563 1034 2156 
L 1034 647 
Q 1034 356 1069 288 
Q 1113 197 1189 155 
Q 1266 113 1500 113 
L 1500 0 
L 84 0 
L 84 113 
L 147 113 
Q 366 113 442 223 
Q 519 334 519 647 
L 519 1709 
Q 519 2225 495 2337 
Q 472 2450 423 2490 
Q 375 2531 294 2531 
Q 206 2531 84 2484 
L 38 2597 
L 900 2947 
L 1034 2947 
L 1034 2341 
z
" transform="scale(0.015625)"/>
       <path id="TimesNewRomanPSMT-20" transform="scale(0.015625)"/>
       <path id="TimesNewRomanPSMT-43" d="M 3853 4334 
L 3950 2894 
L 3853 2894 
Q 3659 3541 3300 3825 
Q 2941 4109 2438 4109 
Q 2016 4109 1675 3895 
Q 1334 3681 1139 3212 
Q 944 2744 944 2047 
Q 944 1472 1128 1050 
Q 1313 628 1683 403 
Q 2053 178 2528 178 
Q 2941 178 3256 354 
Q 3572 531 3950 1056 
L 4047 994 
Q 3728 428 3303 165 
Q 2878 -97 2294 -97 
Q 1241 -97 663 684 
Q 231 1266 231 2053 
Q 231 2688 515 3219 
Q 800 3750 1298 4042 
Q 1797 4334 2388 4334 
Q 2847 4334 3294 4109 
Q 3425 4041 3481 4041 
Q 3566 4041 3628 4100 
Q 3709 4184 3744 4334 
L 3853 4334 
z
" transform="scale(0.015625)"/>
       <path id="TimesNewRomanPSMT-75" d="M 2709 2863 
L 2709 1128 
Q 2709 631 2732 520 
Q 2756 409 2807 365 
Q 2859 322 2928 322 
Q 3025 322 3147 375 
L 3191 266 
L 2334 -88 
L 2194 -88 
L 2194 519 
Q 1825 119 1631 15 
Q 1438 -88 1222 -88 
Q 981 -88 804 51 
Q 628 191 559 409 
Q 491 628 491 1028 
L 491 2306 
Q 491 2509 447 2587 
Q 403 2666 317 2708 
Q 231 2750 6 2747 
L 6 2863 
L 1009 2863 
L 1009 947 
Q 1009 547 1148 422 
Q 1288 297 1484 297 
Q 1619 297 1789 381 
Q 1959 466 2194 703 
L 2194 2325 
Q 2194 2569 2105 2655 
Q 2016 2741 1734 2747 
L 1734 2863 
L 2709 2863 
z
" transform="scale(0.015625)"/>
       <path id="TimesNewRomanPSMT-74" d="M 1031 3803 
L 1031 2863 
L 1700 2863 
L 1700 2644 
L 1031 2644 
L 1031 788 
Q 1031 509 1111 412 
Q 1191 316 1316 316 
Q 1419 316 1516 380 
Q 1613 444 1666 569 
L 1788 569 
Q 1678 263 1478 108 
Q 1278 -47 1066 -47 
Q 922 -47 784 33 
Q 647 113 581 261 
Q 516 409 516 719 
L 516 2644 
L 63 2644 
L 63 2747 
Q 234 2816 414 2980 
Q 594 3144 734 3369 
Q 806 3488 934 3803 
L 1031 3803 
z
" transform="scale(0.015625)"/>
      </defs>
      <use xlink:href="#TimesNewRomanPSMT-53"/>
      <use xlink:href="#TimesNewRomanPSMT-65" transform="translate(55.615234 0)"/>
      <use xlink:href="#TimesNewRomanPSMT-73" transform="translate(100 0)"/>
      <use xlink:href="#TimesNewRomanPSMT-73" transform="translate(138.916016 0)"/>
      <use xlink:href="#TimesNewRomanPSMT-69" transform="translate(177.832031 0)"/>
      <use xlink:href="#TimesNewRomanPSMT-6f" transform="translate(205.615234 0)"/>
      <use xlink:href="#TimesNewRomanPSMT-6e" transform="translate(255.615234 0)"/>
      <use xlink:href="#TimesNewRomanPSMT-20" transform="translate(305.615234 0)"/>
      <use xlink:href="#TimesNewRomanPSMT-43" transform="translate(330.615234 0)"/>
      <use xlink:href="#TimesNewRomanPSMT-6f" transform="translate(397.314453 0)"/>
      <use xlink:href="#TimesNewRomanPSMT-75" transform="translate(447.314453 0)"/>
      <use xlink:href="#TimesNewRomanPSMT-6e" transform="translate(497.314453 0)"/>
      <use xlink:href="#TimesNewRomanPSMT-74" transform="translate(547.314453 0)"/>
     </g>
    </g>
   </g>
   <g id="matplotlib.axis_2">
    <g id="ytick_1">
     <g id="line2d_7">
      <path d="M 40.34 531.16 
L 671.775294 531.16 
" clip-path="url(#p937648003c)" style="fill: none; stroke-dasharray: 2.96,1.28; stroke-dashoffset: 0; stroke: #cccccc; stroke-opacity: 0.5; stroke-width: 0.8"/>
     </g>
     <g id="text_8">
      <!-- 0 -->
      <g style="fill: #262626" transform="translate(27.779063 534.738906) scale(0.1 -0.1)">
       <use xlink:href="#ArialMT-30"/>
      </g>
     </g>
    </g>
    <g id="ytick_2">
     <g id="line2d_8">
      <path d="M 40.34 29.94 
L 671.775294 29.94 
" clip-path="url(#p937648003c)" style="fill: none; stroke-dasharray: 2.96,1.28; stroke-dashoffset: 0; stroke: #cccccc; stroke-opacity: 0.5; stroke-width: 0.8"/>
     </g>
     <g id="text_9">
      <!-- 1 -->
      <g style="fill: #262626" transform="translate(27.779063 33.518906) scale(0.1 -0.1)">
       <use xlink:href="#ArialMT-31"/>
      </g>
     </g>
    </g>
    <g id="text_10">
     <!-- Stacked Proportion -->
     <g style="fill: #262626" transform="translate(20.784375 334.402969) rotate(-90) scale(0.14 -0.14)">
      <defs>
       <path id="TimesNewRomanPSMT-61" d="M 1822 413 
Q 1381 72 1269 19 
Q 1100 -59 909 -59 
Q 613 -59 420 144 
Q 228 347 228 678 
Q 228 888 322 1041 
Q 450 1253 767 1440 
Q 1084 1628 1822 1897 
L 1822 2009 
Q 1822 2438 1686 2597 
Q 1550 2756 1291 2756 
Q 1094 2756 978 2650 
Q 859 2544 859 2406 
L 866 2225 
Q 866 2081 792 2003 
Q 719 1925 600 1925 
Q 484 1925 411 2006 
Q 338 2088 338 2228 
Q 338 2497 613 2722 
Q 888 2947 1384 2947 
Q 1766 2947 2009 2819 
Q 2194 2722 2281 2516 
Q 2338 2381 2338 1966 
L 2338 994 
Q 2338 584 2353 492 
Q 2369 400 2405 369 
Q 2441 338 2488 338 
Q 2538 338 2575 359 
Q 2641 400 2828 588 
L 2828 413 
Q 2478 -56 2159 -56 
Q 2006 -56 1915 50 
Q 1825 156 1822 413 
z
M 1822 616 
L 1822 1706 
Q 1350 1519 1213 1441 
Q 966 1303 859 1153 
Q 753 1003 753 825 
Q 753 600 887 451 
Q 1022 303 1197 303 
Q 1434 303 1822 616 
z
" transform="scale(0.015625)"/>
       <path id="TimesNewRomanPSMT-63" d="M 2631 1088 
Q 2516 522 2178 217 
Q 1841 -88 1431 -88 
Q 944 -88 581 321 
Q 219 731 219 1428 
Q 219 2103 620 2525 
Q 1022 2947 1584 2947 
Q 2006 2947 2278 2723 
Q 2550 2500 2550 2259 
Q 2550 2141 2473 2067 
Q 2397 1994 2259 1994 
Q 2075 1994 1981 2113 
Q 1928 2178 1911 2362 
Q 1894 2547 1784 2644 
Q 1675 2738 1481 2738 
Q 1169 2738 978 2506 
Q 725 2200 725 1697 
Q 725 1184 976 792 
Q 1228 400 1656 400 
Q 1963 400 2206 609 
Q 2378 753 2541 1131 
L 2631 1088 
z
" transform="scale(0.015625)"/>
       <path id="TimesNewRomanPSMT-6b" d="M 1047 4444 
L 1047 1594 
L 1775 2259 
Q 2006 2472 2044 2528 
Q 2069 2566 2069 2603 
Q 2069 2666 2017 2711 
Q 1966 2756 1847 2763 
L 1847 2863 
L 3091 2863 
L 3091 2763 
Q 2834 2756 2664 2684 
Q 2494 2613 2291 2428 
L 1556 1750 
L 2291 822 
Q 2597 438 2703 334 
Q 2853 188 2966 144 
Q 3044 113 3238 113 
L 3238 0 
L 1847 0 
L 1847 113 
Q 1966 116 2008 148 
Q 2050 181 2050 241 
Q 2050 313 1925 472 
L 1047 1594 
L 1047 644 
Q 1047 366 1086 278 
Q 1125 191 1197 153 
Q 1269 116 1509 113 
L 1509 0 
L 53 0 
L 53 113 
Q 272 113 381 166 
Q 447 200 481 272 
Q 528 375 528 628 
L 528 3234 
Q 528 3731 506 3842 
Q 484 3953 434 3995 
Q 384 4038 303 4038 
Q 238 4038 106 3984 
L 53 4094 
L 903 4444 
L 1047 4444 
z
" transform="scale(0.015625)"/>
       <path id="TimesNewRomanPSMT-64" d="M 2222 322 
Q 2013 103 1813 7 
Q 1613 -88 1381 -88 
Q 913 -88 563 304 
Q 213 697 213 1313 
Q 213 1928 600 2439 
Q 988 2950 1597 2950 
Q 1975 2950 2222 2709 
L 2222 3238 
Q 2222 3728 2198 3840 
Q 2175 3953 2125 3993 
Q 2075 4034 2000 4034 
Q 1919 4034 1784 3984 
L 1744 4094 
L 2597 4444 
L 2738 4444 
L 2738 1134 
Q 2738 631 2761 520 
Q 2784 409 2836 365 
Q 2888 322 2956 322 
Q 3041 322 3181 375 
L 3216 266 
L 2366 -88 
L 2222 -88 
L 2222 322 
z
M 2222 541 
L 2222 2016 
Q 2203 2228 2109 2403 
Q 2016 2578 1861 2667 
Q 1706 2756 1559 2756 
Q 1284 2756 1069 2509 
Q 784 2184 784 1559 
Q 784 928 1059 592 
Q 1334 256 1672 256 
Q 1956 256 2222 541 
z
" transform="scale(0.015625)"/>
       <path id="TimesNewRomanPSMT-50" d="M 1313 1984 
L 1313 750 
Q 1313 350 1400 253 
Q 1519 116 1759 116 
L 1922 116 
L 1922 0 
L 106 0 
L 106 116 
L 266 116 
Q 534 116 650 291 
Q 713 388 713 750 
L 713 3488 
Q 713 3888 628 3984 
Q 506 4122 266 4122 
L 106 4122 
L 106 4238 
L 1659 4238 
Q 2228 4238 2556 4120 
Q 2884 4003 3109 3725 
Q 3334 3447 3334 3066 
Q 3334 2547 2992 2222 
Q 2650 1897 2025 1897 
Q 1872 1897 1694 1919 
Q 1516 1941 1313 1984 
z
M 1313 2163 
Q 1478 2131 1606 2115 
Q 1734 2100 1825 2100 
Q 2150 2100 2386 2351 
Q 2622 2603 2622 3003 
Q 2622 3278 2509 3514 
Q 2397 3750 2190 3867 
Q 1984 3984 1722 3984 
Q 1563 3984 1313 3925 
L 1313 2163 
z
" transform="scale(0.015625)"/>
       <path id="TimesNewRomanPSMT-72" d="M 1038 2947 
L 1038 2303 
Q 1397 2947 1775 2947 
Q 1947 2947 2059 2842 
Q 2172 2738 2172 2600 
Q 2172 2478 2090 2393 
Q 2009 2309 1897 2309 
Q 1788 2309 1652 2417 
Q 1516 2525 1450 2525 
Q 1394 2525 1328 2463 
Q 1188 2334 1038 2041 
L 1038 669 
Q 1038 431 1097 309 
Q 1138 225 1241 169 
Q 1344 113 1538 113 
L 1538 0 
L 72 0 
L 72 113 
Q 291 113 397 181 
Q 475 231 506 341 
Q 522 394 522 644 
L 522 1753 
Q 522 2253 501 2348 
Q 481 2444 426 2487 
Q 372 2531 291 2531 
Q 194 2531 72 2484 
L 41 2597 
L 906 2947 
L 1038 2947 
z
" transform="scale(0.015625)"/>
       <path id="TimesNewRomanPSMT-70" d="M -6 2578 
L 875 2934 
L 994 2934 
L 994 2266 
Q 1216 2644 1439 2795 
Q 1663 2947 1909 2947 
Q 2341 2947 2628 2609 
Q 2981 2197 2981 1534 
Q 2981 794 2556 309 
Q 2206 -88 1675 -88 
Q 1444 -88 1275 -22 
Q 1150 25 994 166 
L 994 -706 
Q 994 -1000 1030 -1079 
Q 1066 -1159 1155 -1206 
Q 1244 -1253 1478 -1253 
L 1478 -1369 
L -22 -1369 
L -22 -1253 
L 56 -1253 
Q 228 -1256 350 -1188 
Q 409 -1153 442 -1076 
Q 475 -1000 475 -688 
L 475 2019 
Q 475 2297 450 2372 
Q 425 2447 370 2484 
Q 316 2522 222 2522 
Q 147 2522 31 2478 
L -6 2578 
z
M 994 2081 
L 994 1013 
Q 994 666 1022 556 
Q 1066 375 1236 237 
Q 1406 100 1666 100 
Q 1978 100 2172 344 
Q 2425 663 2425 1241 
Q 2425 1897 2138 2250 
Q 1938 2494 1663 2494 
Q 1513 2494 1366 2419 
Q 1253 2363 994 2081 
z
" transform="scale(0.015625)"/>
      </defs>
      <use xlink:href="#TimesNewRomanPSMT-53"/>
      <use xlink:href="#TimesNewRomanPSMT-74" transform="translate(55.615234 0)"/>
      <use xlink:href="#TimesNewRomanPSMT-61" transform="translate(83.398438 0)"/>
      <use xlink:href="#TimesNewRomanPSMT-63" transform="translate(127.783203 0)"/>
      <use xlink:href="#TimesNewRomanPSMT-6b" transform="translate(172.167969 0)"/>
      <use xlink:href="#TimesNewRomanPSMT-65" transform="translate(222.167969 0)"/>
      <use xlink:href="#TimesNewRomanPSMT-64" transform="translate(266.552734 0)"/>
      <use xlink:href="#TimesNewRomanPSMT-20" transform="translate(316.552734 0)"/>
      <use xlink:href="#TimesNewRomanPSMT-50" transform="translate(341.552734 0)"/>
      <use xlink:href="#TimesNewRomanPSMT-72" transform="translate(397.167969 0)"/>
      <use xlink:href="#TimesNewRomanPSMT-6f" transform="translate(430.46875 0)"/>
      <use xlink:href="#TimesNewRomanPSMT-70" transform="translate(480.46875 0)"/>
      <use xlink:href="#TimesNewRomanPSMT-6f" transform="translate(530.46875 0)"/>
      <use xlink:href="#TimesNewRomanPSMT-72" transform="translate(580.46875 0)"/>
      <use xlink:href="#TimesNewRomanPSMT-74" transform="translate(613.769531 0)"/>
      <use xlink:href="#TimesNewRomanPSMT-69" transform="translate(641.552734 0)"/>
      <use xlink:href="#TimesNewRomanPSMT-6f" transform="translate(669.335938 0)"/>
      <use xlink:href="#TimesNewRomanPSMT-6e" transform="translate(719.335938 0)"/>
     </g>
    </g>
   </g>
   <g id="FillBetweenPolyCollection_1">
    <path d="M 40.34 80.062 
L 40.34 531.16 
L 42.403514 531.16 
L 44.467028 531.16 
L 44.467028 217.8975 
L 44.467028 217.8975 
L 42.403514 280.55 
L 40.34 80.062 
z
" clip-path="url(#p937648003c)" style="fill: #5386b6; stroke: #ffffff"/>
    <path d="M 48.594056 280.55 
L 48.594056 531.16 
L 50.65757 531.16 
L 52.721084 531.16 
L 54.784598 531.16 
L 56.848112 531.16 
L 58.911626 531.16 
L 60.97514 531.16 
L 63.038654 531.16 
L 65.102168 531.16 
L 67.165682 531.16 
L 69.229196 531.16 
L 71.29271 531.16 
L 73.356225 531.16 
L 75.419739 531.16 
L 77.483253 531.16 
L 79.546767 531.16 
L 81.610281 531.16 
L 83.673795 531.16 
L 85.737309 531.16 
L 87.800823 531.16 
L 89.864337 531.16 
L 91.927851 531.16 
L 93.991365 531.16 
L 96.054879 531.16 
L 98.118393 531.16 
L 100.181907 531.16 
L 102.245421 531.16 
L 104.308935 531.16 
L 106.372449 531.16 
L 108.435963 531.16 
L 110.499477 531.16 
L 112.562991 531.16 
L 114.626505 531.16 
L 116.690019 531.16 
L 118.753533 531.16 
L 120.817047 531.16 
L 122.880561 531.16 
L 124.944075 531.16 
L 127.007589 531.16 
L 129.071103 531.16 
L 131.134617 531.16 
L 133.198131 531.16 
L 135.261646 531.16 
L 137.32516 531.16 
L 139.388674 531.16 
L 141.452188 531.16 
L 143.515702 531.16 
L 145.579216 531.16 
L 147.64273 531.16 
L 149.706244 531.16 
L 151.769758 531.16 
L 153.833272 531.16 
L 155.896786 531.16 
L 157.9603 531.16 
L 160.023814 531.16 
L 162.087328 531.16 
L 164.150842 531.16 
L 166.214356 531.16 
L 168.27787 531.16 
L 170.341384 531.16 
L 172.404898 531.16 
L 174.468412 531.16 
L 176.531926 531.16 
L 178.59544 531.16 
L 180.658954 531.16 
L 182.722468 531.16 
L 184.785982 531.16 
L 186.849496 531.16 
L 188.91301 531.16 
L 190.976524 531.16 
L 193.040038 531.16 
L 195.103552 531.16 
L 197.167067 531.16 
L 199.230581 531.16 
L 201.294095 531.16 
L 203.357609 531.16 
L 205.421123 531.16 
L 207.484637 531.16 
L 209.548151 531.16 
L 211.611665 531.16 
L 213.675179 531.16 
L 215.738693 531.16 
L 217.802207 531.16 
L 219.865721 531.16 
L 221.929235 531.16 
L 223.992749 531.16 
L 226.056263 531.16 
L 228.119777 531.16 
L 230.183291 531.16 
L 232.246805 531.16 
L 234.310319 531.16 
L 236.373833 531.16 
L 238.437347 531.16 
L 240.500861 531.16 
L 242.564375 531.16 
L 244.627889 531.16 
L 246.691403 531.16 
L 248.754917 531.16 
L 250.818431 531.16 
L 252.881945 531.16 
L 254.945459 531.16 
L 257.008973 531.16 
L 259.072488 531.16 
L 261.136002 531.16 
L 263.199516 531.16 
L 265.26303 531.16 
L 267.326544 531.16 
L 269.390058 531.16 
L 271.453572 531.16 
L 273.517086 531.16 
L 275.5806 531.16 
L 277.644114 531.16 
L 279.707628 531.16 
L 281.771142 531.16 
L 283.834656 531.16 
L 285.89817 531.16 
L 287.961684 531.16 
L 290.025198 531.16 
L 292.088712 531.16 
L 294.152226 531.16 
L 296.21574 531.16 
L 298.279254 531.16 
L 300.342768 531.16 
L 302.406282 531.16 
L 304.469796 531.16 
L 306.53331 531.16 
L 308.596824 531.16 
L 310.660338 531.16 
L 312.723852 531.16 
L 314.787366 531.16 
L 316.85088 531.16 
L 318.914394 531.16 
L 320.977908 531.16 
L 323.041423 531.16 
L 325.104937 531.16 
L 327.168451 531.16 
L 329.231965 531.16 
L 331.295479 531.16 
L 333.358993 531.16 
L 335.422507 531.16 
L 337.486021 531.16 
L 339.549535 531.16 
L 341.613049 531.16 
L 343.676563 531.16 
L 345.740077 531.16 
L 347.803591 531.16 
L 349.867105 531.16 
L 351.930619 531.16 
L 353.994133 531.16 
L 356.057647 531.16 
L 358.121161 531.16 
L 360.184675 531.16 
L 362.248189 531.16 
L 364.311703 531.16 
L 366.375217 531.16 
L 368.438731 531.16 
L 370.502245 531.16 
L 372.565759 531.16 
L 374.629273 531.16 
L 376.692787 531.16 
L 378.756301 531.16 
L 380.819815 531.16 
L 382.883329 531.16 
L 384.946844 531.16 
L 387.010358 531.16 
L 389.073872 531.16 
L 391.137386 531.16 
L 393.2009 531.16 
L 395.264414 531.16 
L 397.327928 531.16 
L 399.391442 531.16 
L 401.454956 531.16 
L 403.51847 531.16 
L 405.581984 531.16 
L 407.645498 531.16 
L 409.709012 531.16 
L 411.772526 531.16 
L 413.83604 531.16 
L 415.899554 531.16 
L 417.963068 531.16 
L 420.026582 531.16 
L 422.090096 531.16 
L 424.15361 531.16 
L 426.217124 531.16 
L 428.280638 531.16 
L 430.344152 531.16 
L 432.407666 531.16 
L 434.47118 531.16 
L 436.534694 531.16 
L 438.598208 531.16 
L 440.661722 531.16 
L 442.725236 531.16 
L 444.78875 531.16 
L 446.852265 531.16 
L 448.915779 531.16 
L 450.979293 531.16 
L 453.042807 531.16 
L 455.106321 531.16 
L 457.169835 531.16 
L 459.233349 531.16 
L 461.296863 531.16 
L 463.360377 531.16 
L 465.423891 531.16 
L 467.487405 531.16 
L 469.550919 531.16 
L 471.614433 531.16 
L 473.677947 531.16 
L 475.741461 531.16 
L 477.804975 531.16 
L 479.868489 531.16 
L 481.932003 531.16 
L 483.995517 531.16 
L 486.059031 531.16 
L 488.122545 531.16 
L 490.186059 531.16 
L 492.249573 531.16 
L 494.313087 531.16 
L 496.376601 531.16 
L 498.440115 531.16 
L 500.503629 531.16 
L 502.567143 531.16 
L 504.630657 531.16 
L 506.694171 531.16 
L 508.757686 531.16 
L 510.8212 531.16 
L 512.884714 531.16 
L 514.948228 531.16 
L 517.011742 531.16 
L 519.075256 531.16 
L 521.13877 531.16 
L 523.202284 531.16 
L 525.265798 531.16 
L 527.329312 531.16 
L 529.392826 531.16 
L 531.45634 531.16 
L 533.519854 531.16 
L 535.583368 531.16 
L 537.646882 531.16 
L 539.710396 531.16 
L 541.77391 531.16 
L 543.837424 531.16 
L 545.900938 531.16 
L 547.964452 531.16 
L 550.027966 531.16 
L 552.09148 531.16 
L 554.154994 531.16 
L 556.218508 531.16 
L 558.282022 531.16 
L 560.345536 531.16 
L 562.40905 531.16 
L 564.472564 531.16 
L 566.536078 531.16 
L 568.599592 531.16 
L 570.663106 531.16 
L 572.726621 531.16 
L 574.790135 531.16 
L 576.853649 531.16 
L 578.917163 531.16 
L 580.980677 531.16 
L 583.044191 531.16 
L 585.107705 531.16 
L 587.171219 531.16 
L 589.234733 531.16 
L 591.298247 531.16 
L 593.361761 531.16 
L 595.425275 531.16 
L 597.488789 531.16 
L 599.552303 531.16 
L 601.615817 531.16 
L 603.679331 531.16 
L 605.742845 531.16 
L 607.806359 531.16 
L 609.869873 531.16 
L 611.933387 531.16 
L 613.996901 531.16 
L 616.060415 531.16 
L 618.123929 531.16 
L 620.187443 531.16 
L 622.250957 531.16 
L 624.314471 531.16 
L 626.377985 531.16 
L 628.441499 531.16 
L 630.505013 531.16 
L 632.568527 531.16 
L 634.632042 531.16 
L 636.695556 531.16 
L 638.75907 531.16 
L 640.822584 531.16 
L 642.886098 531.16 
L 644.949612 531.16 
L 647.013126 531.16 
L 649.07664 531.16 
L 651.140154 531.16 
L 653.203668 531.16 
L 655.267182 531.16 
L 657.330696 531.16 
L 659.39421 531.16 
L 661.457724 531.16 
L 663.521238 531.16 
L 665.584752 531.16 
L 667.648266 531.16 
L 669.71178 531.16 
L 671.775294 531.16 
L 671.775294 531.16 
L 671.775294 531.16 
L 669.71178 29.94 
L 667.648266 531.16 
L 665.584752 531.16 
L 663.521238 29.94 
L 661.457724 29.94 
L 659.39421 29.94 
L 657.330696 29.94 
L 655.267182 531.16 
L 653.203668 29.94 
L 651.140154 280.55 
L 649.07664 29.94 
L 647.013126 29.94 
L 644.949612 531.16 
L 642.886098 531.16 
L 640.822584 29.94 
L 638.75907 29.94 
L 636.695556 531.16 
L 634.632042 29.94 
L 632.568527 29.94 
L 630.505013 29.94 
L 628.441499 29.94 
L 626.377985 531.16 
L 624.314471 280.55 
L 622.250957 29.94 
L 620.187443 29.94 
L 618.123929 531.16 
L 616.060415 29.94 
L 613.996901 280.55 
L 611.933387 531.16 
L 609.869873 531.16 
L 607.806359 29.94 
L 605.742845 280.55 
L 603.679331 531.16 
L 601.615817 531.16 
L 599.552303 531.16 
L 597.488789 280.55 
L 595.425275 531.16 
L 593.361761 280.55 
L 591.298247 531.16 
L 589.234733 531.16 
L 587.171219 280.55 
L 585.107705 531.16 
L 583.044191 531.16 
L 580.980677 29.94 
L 578.917163 29.94 
L 576.853649 531.16 
L 574.790135 29.94 
L 572.726621 29.94 
L 570.663106 280.55 
L 568.599592 29.94 
L 566.536078 531.16 
L 564.472564 29.94 
L 562.40905 531.16 
L 560.345536 531.16 
L 558.282022 29.94 
L 556.218508 280.55 
L 554.154994 29.94 
L 552.09148 531.16 
L 550.027966 29.94 
L 547.964452 531.16 
L 545.900938 531.16 
L 543.837424 531.16 
L 541.77391 29.94 
L 539.710396 531.16 
L 537.646882 531.16 
L 535.583368 29.94 
L 533.519854 531.16 
L 531.45634 531.16 
L 529.392826 531.16 
L 527.329312 29.94 
L 525.265798 29.94 
L 523.202284 29.94 
L 521.13877 29.94 
L 519.075256 280.55 
L 517.011742 531.16 
L 514.948228 531.16 
L 512.884714 531.16 
L 510.8212 29.94 
L 508.757686 29.94 
L 506.694171 29.94 
L 504.630657 29.94 
L 502.567143 29.94 
L 500.503629 531.16 
L 498.440115 29.94 
L 496.376601 405.855 
L 494.313087 280.55 
L 492.249573 280.55 
L 490.186059 29.94 
L 488.122545 197.013333 
L 486.059031 29.94 
L 483.995517 29.94 
L 481.932003 155.245 
L 479.868489 29.94 
L 477.804975 29.94 
L 475.741461 29.94 
L 473.677947 29.94 
L 471.614433 29.94 
L 469.550919 280.55 
L 467.487405 531.16 
L 465.423891 531.16 
L 463.360377 29.94 
L 461.296863 405.855 
L 459.233349 29.94 
L 457.169835 29.94 
L 455.106321 29.94 
L 453.042807 101.542857 
L 450.979293 155.245 
L 448.915779 29.94 
L 446.852265 61.26625 
L 444.78875 29.94 
L 442.725236 75.505455 
L 440.661722 197.013333 
L 438.598208 364.086667 
L 436.534694 531.16 
L 434.47118 531.16 
L 432.407666 531.16 
L 430.344152 230.428 
L 428.280638 280.55 
L 426.217124 330.672 
L 424.15361 280.55 
L 422.090096 92.5925 
L 420.026582 280.55 
L 417.963068 141.322222 
L 415.899554 126.950323 
L 413.83604 205.367 
L 411.772526 29.94 
L 409.709012 137.344286 
L 407.645498 29.94 
L 405.581984 29.94 
L 403.51847 141.322222 
L 401.454956 280.55 
L 399.391442 29.94 
L 397.327928 130.184 
L 395.264414 96.769333 
L 393.2009 29.94 
L 391.137386 92.5925 
L 389.073872 63.354667 
L 387.010358 80.062 
L 384.946844 29.94 
L 382.883329 29.94 
L 380.819815 280.55 
L 378.756301 155.245 
L 376.692787 166.636364 
L 374.629273 531.16 
L 372.565759 130.184 
L 370.502245 173.145714 
L 368.438731 280.55 
L 366.375217 364.086667 
L 364.311703 29.94 
L 362.248189 531.16 
L 360.184675 29.94 
L 358.121161 29.94 
L 356.057647 130.184 
L 353.994133 105.123 
L 351.930619 113.476667 
L 349.867105 531.16 
L 347.803591 107.050769 
L 345.740077 105.123 
L 343.676563 105.123 
L 341.613049 29.94 
L 339.549535 155.245 
L 337.486021 297.257333 
L 335.422507 80.062 
L 333.358993 130.184 
L 331.295479 80.062 
L 329.231965 155.245 
L 327.168451 63.354667 
L 325.104937 80.062 
L 323.041423 113.476667 
L 320.977908 531.16 
L 318.914394 55.001 
L 316.85088 43.486486 
L 314.787366 197.013333 
L 312.723852 29.94 
L 310.660338 130.184 
L 308.596824 29.94 
L 306.53331 29.94 
L 304.469796 531.16 
L 302.406282 130.184 
L 300.342768 29.94 
L 298.279254 197.013333 
L 296.21574 61.26625 
L 294.152226 85.631111 
L 292.088712 29.94 
L 290.025198 29.94 
L 287.961684 29.94 
L 285.89817 141.322222 
L 283.834656 82.7 
L 281.771142 105.123 
L 279.707628 180.306 
L 277.644114 29.94 
L 275.5806 29.94 
L 273.517086 29.94 
L 271.453572 155.245 
L 269.390058 141.322222 
L 267.326544 29.94 
L 265.26303 130.184 
L 263.199516 222.716923 
L 261.136002 55.001 
L 259.072488 105.123 
L 257.008973 101.542857 
L 254.945459 531.16 
L 252.881945 85.631111 
L 250.818431 96.769333 
L 248.754917 531.16 
L 246.691403 217.8975 
L 244.627889 197.013333 
L 242.564375 177.357647 
L 240.500861 280.55 
L 238.437347 177.357647 
L 236.373833 330.672 
L 234.310319 244.748571 
L 232.246805 364.086667 
L 230.183291 29.94 
L 228.119777 141.322222 
L 226.056263 29.94 
L 223.992749 29.94 
L 221.929235 230.428 
L 219.865721 29.94 
L 217.802207 531.16 
L 215.738693 173.145714 
L 213.675179 92.5925 
L 211.611665 155.245 
L 209.548151 182.485217 
L 207.484637 206.841176 
L 205.421123 29.94 
L 203.357609 92.5925 
L 201.294095 280.55 
L 199.230581 159.885926 
L 197.167067 130.184 
L 195.103552 244.748571 
L 193.040038 364.086667 
L 190.976524 137.344286 
L 188.91301 330.672 
L 186.849496 105.123 
L 184.785982 55.001 
L 182.722468 80.062 
L 180.658954 280.55 
L 178.59544 280.55 
L 176.531926 197.013333 
L 174.468412 531.16 
L 172.404898 280.55 
L 170.341384 113.476667 
L 168.27787 29.94 
L 166.214356 55.001 
L 164.150842 55.001 
L 162.087328 130.184 
L 160.023814 29.94 
L 157.9603 161.84 
L 155.896786 280.55 
L 153.833272 109.08 
L 151.769758 197.013333 
L 149.706244 141.322222 
L 147.64273 113.476667 
L 145.579216 80.062 
L 143.515702 105.123 
L 141.452188 80.062 
L 139.388674 107.050769 
L 137.32516 101.542857 
L 135.261646 167.7755 
L 133.198131 29.94 
L 131.134617 29.94 
L 129.071103 29.94 
L 127.007589 29.94 
L 124.944075 29.94 
L 122.880561 155.245 
L 120.817047 155.245 
L 118.753533 29.94 
L 116.690019 29.94 
L 114.626505 29.94 
L 112.562991 29.94 
L 110.499477 29.94 
L 108.435963 101.542857 
L 106.372449 85.631111 
L 104.308935 119.902564 
L 102.245421 130.184 
L 100.181907 531.16 
L 98.118393 531.16 
L 96.054879 230.428 
L 93.991365 29.94 
L 91.927851 80.062 
L 89.864337 142.7145 
L 87.800823 75.505455 
L 85.737309 64.506897 
L 83.673795 280.55 
L 81.610281 230.428 
L 79.546767 531.16 
L 77.483253 71.708333 
L 75.419739 63.354667 
L 73.356225 130.184 
L 71.29271 29.94 
L 69.229196 531.16 
L 67.165682 220.880952 
L 65.102168 197.013333 
L 63.038654 71.708333 
L 60.97514 130.184 
L 58.911626 130.184 
L 56.848112 80.062 
L 54.784598 205.367 
L 52.721084 130.184 
L 50.65757 155.245 
L 48.594056 280.55 
z
" clip-path="url(#p937648003c)" style="fill: #5386b6; stroke: #ffffff"/>
   </g>
   <g id="FillBetweenPolyCollection_2">
    <path d="M 40.34 55.001 
L 40.34 80.062 
L 42.403514 280.55 
L 44.467028 217.8975 
L 44.467028 155.245 
L 44.467028 155.245 
L 42.403514 217.8975 
L 40.34 55.001 
z
" clip-path="url(#p937648003c)" style="fill: #d57459; stroke: #ffffff"/>
    <path d="M 48.594056 280.55 
L 48.594056 280.55 
L 50.65757 155.245 
L 52.721084 130.184 
L 54.784598 205.367 
L 56.848112 80.062 
L 58.911626 130.184 
L 60.97514 130.184 
L 63.038654 71.708333 
L 65.102168 197.013333 
L 67.165682 220.880952 
L 69.229196 531.16 
L 71.29271 29.94 
L 73.356225 130.184 
L 75.419739 63.354667 
L 77.483253 71.708333 
L 79.546767 531.16 
L 81.610281 230.428 
L 83.673795 280.55 
L 85.737309 64.506897 
L 87.800823 75.505455 
L 89.864337 142.7145 
L 91.927851 80.062 
L 93.991365 29.94 
L 96.054879 230.428 
L 98.118393 531.16 
L 100.181907 531.16 
L 102.245421 130.184 
L 104.308935 119.902564 
L 106.372449 85.631111 
L 108.435963 101.542857 
L 110.499477 29.94 
L 112.562991 29.94 
L 114.626505 29.94 
L 116.690019 29.94 
L 118.753533 29.94 
L 120.817047 155.245 
L 122.880561 155.245 
L 124.944075 29.94 
L 127.007589 29.94 
L 129.071103 29.94 
L 131.134617 29.94 
L 133.198131 29.94 
L 135.261646 167.7755 
L 137.32516 101.542857 
L 139.388674 107.050769 
L 141.452188 80.062 
L 143.515702 105.123 
L 145.579216 80.062 
L 147.64273 113.476667 
L 149.706244 141.322222 
L 151.769758 197.013333 
L 153.833272 109.08 
L 155.896786 280.55 
L 157.9603 161.84 
L 160.023814 29.94 
L 162.087328 130.184 
L 164.150842 55.001 
L 166.214356 55.001 
L 168.27787 29.94 
L 170.341384 113.476667 
L 172.404898 280.55 
L 174.468412 531.16 
L 176.531926 197.013333 
L 178.59544 280.55 
L 180.658954 280.55 
L 182.722468 80.062 
L 184.785982 55.001 
L 186.849496 105.123 
L 188.91301 330.672 
L 190.976524 137.344286 
L 193.040038 364.086667 
L 195.103552 244.748571 
L 197.167067 130.184 
L 199.230581 159.885926 
L 201.294095 280.55 
L 203.357609 92.5925 
L 205.421123 29.94 
L 207.484637 206.841176 
L 209.548151 182.485217 
L 211.611665 155.245 
L 213.675179 92.5925 
L 215.738693 173.145714 
L 217.802207 531.16 
L 219.865721 29.94 
L 221.929235 230.428 
L 223.992749 29.94 
L 226.056263 29.94 
L 228.119777 141.322222 
L 230.183291 29.94 
L 232.246805 364.086667 
L 234.310319 244.748571 
L 236.373833 330.672 
L 238.437347 177.357647 
L 240.500861 280.55 
L 242.564375 177.357647 
L 244.627889 197.013333 
L 246.691403 217.8975 
L 248.754917 531.16 
L 250.818431 96.769333 
L 252.881945 85.631111 
L 254.945459 531.16 
L 257.008973 101.542857 
L 259.072488 105.123 
L 261.136002 55.001 
L 263.199516 222.716923 
L 265.26303 130.184 
L 267.326544 29.94 
L 269.390058 141.322222 
L 271.453572 155.245 
L 273.517086 29.94 
L 275.5806 29.94 
L 277.644114 29.94 
L 279.707628 180.306 
L 281.771142 105.123 
L 283.834656 82.7 
L 285.89817 141.322222 
L 287.961684 29.94 
L 290.025198 29.94 
L 292.088712 29.94 
L 294.152226 85.631111 
L 296.21574 61.26625 
L 298.279254 197.013333 
L 300.342768 29.94 
L 302.406282 130.184 
L 304.469796 531.16 
L 306.53331 29.94 
L 308.596824 29.94 
L 310.660338 130.184 
L 312.723852 29.94 
L 314.787366 197.013333 
L 316.85088 43.486486 
L 318.914394 55.001 
L 320.977908 531.16 
L 323.041423 113.476667 
L 325.104937 80.062 
L 327.168451 63.354667 
L 329.231965 155.245 
L 331.295479 80.062 
L 333.358993 130.184 
L 335.422507 80.062 
L 337.486021 297.257333 
L 339.549535 155.245 
L 341.613049 29.94 
L 343.676563 105.123 
L 345.740077 105.123 
L 347.803591 107.050769 
L 349.867105 531.16 
L 351.930619 113.476667 
L 353.994133 105.123 
L 356.057647 130.184 
L 358.121161 29.94 
L 360.184675 29.94 
L 362.248189 531.16 
L 364.311703 29.94 
L 366.375217 364.086667 
L 368.438731 280.55 
L 370.502245 173.145714 
L 372.565759 130.184 
L 374.629273 531.16 
L 376.692787 166.636364 
L 378.756301 155.245 
L 380.819815 280.55 
L 382.883329 29.94 
L 384.946844 29.94 
L 387.010358 80.062 
L 389.073872 63.354667 
L 391.137386 92.5925 
L 393.2009 29.94 
L 395.264414 96.769333 
L 397.327928 130.184 
L 399.391442 29.94 
L 401.454956 280.55 
L 403.51847 141.322222 
L 405.581984 29.94 
L 407.645498 29.94 
L 409.709012 137.344286 
L 411.772526 29.94 
L 413.83604 205.367 
L 415.899554 126.950323 
L 417.963068 141.322222 
L 420.026582 280.55 
L 422.090096 92.5925 
L 424.15361 280.55 
L 426.217124 330.672 
L 428.280638 280.55 
L 430.344152 230.428 
L 432.407666 531.16 
L 434.47118 531.16 
L 436.534694 531.16 
L 438.598208 364.086667 
L 440.661722 197.013333 
L 442.725236 75.505455 
L 444.78875 29.94 
L 446.852265 61.26625 
L 448.915779 29.94 
L 450.979293 155.245 
L 453.042807 101.542857 
L 455.106321 29.94 
L 457.169835 29.94 
L 459.233349 29.94 
L 461.296863 405.855 
L 463.360377 29.94 
L 465.423891 531.16 
L 467.487405 531.16 
L 469.550919 280.55 
L 471.614433 29.94 
L 473.677947 29.94 
L 475.741461 29.94 
L 477.804975 29.94 
L 479.868489 29.94 
L 481.932003 155.245 
L 483.995517 29.94 
L 486.059031 29.94 
L 488.122545 197.013333 
L 490.186059 29.94 
L 492.249573 280.55 
L 494.313087 280.55 
L 496.376601 405.855 
L 498.440115 29.94 
L 500.503629 531.16 
L 502.567143 29.94 
L 504.630657 29.94 
L 506.694171 29.94 
L 508.757686 29.94 
L 510.8212 29.94 
L 512.884714 531.16 
L 514.948228 531.16 
L 517.011742 531.16 
L 519.075256 280.55 
L 521.13877 29.94 
L 523.202284 29.94 
L 525.265798 29.94 
L 527.329312 29.94 
L 529.392826 531.16 
L 531.45634 531.16 
L 533.519854 531.16 
L 535.583368 29.94 
L 537.646882 531.16 
L 539.710396 531.16 
L 541.77391 29.94 
L 543.837424 531.16 
L 545.900938 531.16 
L 547.964452 531.16 
L 550.027966 29.94 
L 552.09148 531.16 
L 554.154994 29.94 
L 556.218508 280.55 
L 558.282022 29.94 
L 560.345536 531.16 
L 562.40905 531.16 
L 564.472564 29.94 
L 566.536078 531.16 
L 568.599592 29.94 
L 570.663106 280.55 
L 572.726621 29.94 
L 574.790135 29.94 
L 576.853649 531.16 
L 578.917163 29.94 
L 580.980677 29.94 
L 583.044191 531.16 
L 585.107705 531.16 
L 587.171219 280.55 
L 589.234733 531.16 
L 591.298247 531.16 
L 593.361761 280.55 
L 595.425275 531.16 
L 597.488789 280.55 
L 599.552303 531.16 
L 601.615817 531.16 
L 603.679331 531.16 
L 605.742845 280.55 
L 607.806359 29.94 
L 609.869873 531.16 
L 611.933387 531.16 
L 613.996901 280.55 
L 616.060415 29.94 
L 618.123929 531.16 
L 620.187443 29.94 
L 622.250957 29.94 
L 624.314471 280.55 
L 626.377985 531.16 
L 628.441499 29.94 
L 630.505013 29.94 
L 632.568527 29.94 
L 634.632042 29.94 
L 636.695556 531.16 
L 638.75907 29.94 
L 640.822584 29.94 
L 642.886098 531.16 
L 644.949612 531.16 
L 647.013126 29.94 
L 649.07664 29.94 
L 651.140154 280.55 
L 653.203668 29.94 
L 655.267182 531.16 
L 657.330696 29.94 
L 659.39421 29.94 
L 661.457724 29.94 
L 663.521238 29.94 
L 665.584752 531.16 
L 667.648266 531.16 
L 669.71178 29.94 
L 671.775294 531.16 
L 671.775294 531.16 
L 671.775294 531.16 
L 669.71178 29.94 
L 667.648266 531.16 
L 665.584752 531.16 
L 663.521238 29.94 
L 661.457724 29.94 
L 659.39421 29.94 
L 657.330696 29.94 
L 655.267182 531.16 
L 653.203668 29.94 
L 651.140154 280.55 
L 649.07664 29.94 
L 647.013126 29.94 
L 644.949612 531.16 
L 642.886098 531.16 
L 640.822584 29.94 
L 638.75907 29.94 
L 636.695556 531.16 
L 634.632042 29.94 
L 632.568527 29.94 
L 630.505013 29.94 
L 628.441499 29.94 
L 626.377985 531.16 
L 624.314471 280.55 
L 622.250957 29.94 
L 620.187443 29.94 
L 618.123929 531.16 
L 616.060415 29.94 
L 613.996901 280.55 
L 611.933387 29.94 
L 609.869873 531.16 
L 607.806359 29.94 
L 605.742845 280.55 
L 603.679331 531.16 
L 601.615817 531.16 
L 599.552303 531.16 
L 597.488789 280.55 
L 595.425275 531.16 
L 593.361761 280.55 
L 591.298247 531.16 
L 589.234733 531.16 
L 587.171219 280.55 
L 585.107705 531.16 
L 583.044191 531.16 
L 580.980677 29.94 
L 578.917163 29.94 
L 576.853649 531.16 
L 574.790135 29.94 
L 572.726621 29.94 
L 570.663106 280.55 
L 568.599592 29.94 
L 566.536078 531.16 
L 564.472564 29.94 
L 562.40905 531.16 
L 560.345536 531.16 
L 558.282022 29.94 
L 556.218508 280.55 
L 554.154994 29.94 
L 552.09148 531.16 
L 550.027966 29.94 
L 547.964452 531.16 
L 545.900938 531.16 
L 543.837424 531.16 
L 541.77391 29.94 
L 539.710396 531.16 
L 537.646882 531.16 
L 535.583368 29.94 
L 533.519854 531.16 
L 531.45634 531.16 
L 529.392826 531.16 
L 527.329312 29.94 
L 525.265798 29.94 
L 523.202284 29.94 
L 521.13877 29.94 
L 519.075256 280.55 
L 517.011742 29.94 
L 514.948228 531.16 
L 512.884714 531.16 
L 510.8212 29.94 
L 508.757686 29.94 
L 506.694171 29.94 
L 504.630657 29.94 
L 502.567143 29.94 
L 500.503629 531.16 
L 498.440115 29.94 
L 496.376601 405.855 
L 494.313087 280.55 
L 492.249573 280.55 
L 490.186059 29.94 
L 488.122545 197.013333 
L 486.059031 29.94 
L 483.995517 29.94 
L 481.932003 155.245 
L 479.868489 29.94 
L 477.804975 29.94 
L 475.741461 29.94 
L 473.677947 29.94 
L 471.614433 29.94 
L 469.550919 29.94 
L 467.487405 531.16 
L 465.423891 531.16 
L 463.360377 29.94 
L 461.296863 405.855 
L 459.233349 29.94 
L 457.169835 29.94 
L 455.106321 29.94 
L 453.042807 101.542857 
L 450.979293 113.476667 
L 448.915779 29.94 
L 446.852265 61.26625 
L 444.78875 29.94 
L 442.725236 29.94 
L 440.661722 197.013333 
L 438.598208 364.086667 
L 436.534694 531.16 
L 434.47118 531.16 
L 432.407666 531.16 
L 430.344152 130.184 
L 428.280638 280.55 
L 426.217124 230.428 
L 424.15361 280.55 
L 422.090096 92.5925 
L 420.026582 280.55 
L 417.963068 29.94 
L 415.899554 94.613548 
L 413.83604 80.062 
L 411.772526 29.94 
L 409.709012 137.344286 
L 407.645498 29.94 
L 405.581984 29.94 
L 403.51847 29.94 
L 401.454956 280.55 
L 399.391442 29.94 
L 397.327928 130.184 
L 395.264414 96.769333 
L 393.2009 29.94 
L 391.137386 92.5925 
L 389.073872 63.354667 
L 387.010358 80.062 
L 384.946844 29.94 
L 382.883329 29.94 
L 380.819815 280.55 
L 378.756301 155.245 
L 376.692787 166.636364 
L 374.629273 531.16 
L 372.565759 130.184 
L 370.502245 173.145714 
L 368.438731 280.55 
L 366.375217 364.086667 
L 364.311703 29.94 
L 362.248189 531.16 
L 360.184675 29.94 
L 358.121161 29.94 
L 356.057647 130.184 
L 353.994133 80.062 
L 351.930619 113.476667 
L 349.867105 531.16 
L 347.803591 107.050769 
L 345.740077 105.123 
L 343.676563 105.123 
L 341.613049 29.94 
L 339.549535 155.245 
L 337.486021 297.257333 
L 335.422507 80.062 
L 333.358993 105.123 
L 331.295479 67.5315 
L 329.231965 29.94 
L 327.168451 29.94 
L 325.104937 55.001 
L 323.041423 85.631111 
L 320.977908 531.16 
L 318.914394 29.94 
L 316.85088 43.486486 
L 314.787366 29.94 
L 312.723852 29.94 
L 310.660338 130.184 
L 308.596824 29.94 
L 306.53331 29.94 
L 304.469796 531.16 
L 302.406282 55.001 
L 300.342768 29.94 
L 298.279254 197.013333 
L 296.21574 29.94 
L 294.152226 57.785556 
L 292.088712 29.94 
L 290.025198 29.94 
L 287.961684 29.94 
L 285.89817 85.631111 
L 283.834656 29.94 
L 281.771142 55.001 
L 279.707628 80.062 
L 277.644114 29.94 
L 275.5806 29.94 
L 273.517086 29.94 
L 271.453572 105.123 
L 269.390058 85.631111 
L 267.326544 29.94 
L 265.26303 80.062 
L 263.199516 145.606154 
L 261.136002 29.94 
L 259.072488 55.001 
L 257.008973 29.94 
L 254.945459 29.94 
L 252.881945 29.94 
L 250.818431 46.647333 
L 248.754917 531.16 
L 246.691403 217.8975 
L 244.627889 197.013333 
L 242.564375 118.390588 
L 240.500861 280.55 
L 238.437347 147.874118 
L 236.373833 130.184 
L 234.310319 101.542857 
L 232.246805 197.013333 
L 230.183291 29.94 
L 228.119777 85.631111 
L 226.056263 29.94 
L 223.992749 29.94 
L 221.929235 230.428 
L 219.865721 29.94 
L 217.802207 531.16 
L 215.738693 173.145714 
L 213.675179 92.5925 
L 211.611665 155.245 
L 209.548151 160.693043 
L 207.484637 206.841176 
L 205.421123 29.94 
L 203.357609 92.5925 
L 201.294095 280.55 
L 199.230581 141.322222 
L 197.167067 130.184 
L 195.103552 173.145714 
L 193.040038 197.013333 
L 190.976524 29.94 
L 188.91301 230.428 
L 186.849496 55.001 
L 184.785982 29.94 
L 182.722468 42.4705 
L 180.658954 280.55 
L 178.59544 280.55 
L 176.531926 197.013333 
L 174.468412 531.16 
L 172.404898 280.55 
L 170.341384 113.476667 
L 168.27787 29.94 
L 166.214356 55.001 
L 164.150842 55.001 
L 162.087328 105.123 
L 160.023814 29.94 
L 157.9603 161.84 
L 155.896786 280.55 
L 153.833272 109.08 
L 151.769758 29.94 
L 149.706244 85.631111 
L 147.64273 29.94 
L 145.579216 80.062 
L 143.515702 105.123 
L 141.452188 80.062 
L 139.388674 107.050769 
L 137.32516 101.542857 
L 135.261646 142.7145 
L 133.198131 29.94 
L 131.134617 29.94 
L 129.071103 29.94 
L 127.007589 29.94 
L 124.944075 29.94 
L 122.880561 155.245 
L 120.817047 155.245 
L 118.753533 29.94 
L 116.690019 29.94 
L 114.626505 29.94 
L 112.562991 29.94 
L 110.499477 29.94 
L 108.435963 101.542857 
L 106.372449 29.94 
L 104.308935 68.495385 
L 102.245421 92.5925 
L 100.181907 531.16 
L 98.118393 531.16 
L 96.054879 130.184 
L 93.991365 29.94 
L 91.927851 63.354667 
L 89.864337 67.5315 
L 87.800823 29.94 
L 85.737309 64.506897 
L 83.673795 280.55 
L 81.610281 230.428 
L 79.546767 531.16 
L 77.483253 71.708333 
L 75.419739 29.94 
L 73.356225 29.94 
L 71.29271 29.94 
L 69.229196 531.16 
L 67.165682 125.410476 
L 65.102168 197.013333 
L 63.038654 50.824167 
L 60.97514 29.94 
L 58.911626 130.184 
L 56.848112 80.062 
L 54.784598 130.184 
L 52.721084 130.184 
L 50.65757 105.123 
L 48.594056 280.55 
z
" clip-path="url(#p937648003c)" style="fill: #d57459; stroke: #ffffff"/>
   </g>
   <g id="FillBetweenPolyCollection_3">
    <path d="M 40.34 55.001 
L 40.34 55.001 
L 42.403514 217.8975 
L 44.467028 155.245 
L 44.467028 92.5925 
L 44.467028 92.5925 
L 42.403514 217.8975 
L 40.34 55.001 
z
" clip-path="url(#p937648003c)" style="fill: #e8bc60; stroke: #ffffff"/>
    <path d="M 48.594056 29.94 
L 48.594056 280.55 
L 50.65757 105.123 
L 52.721084 130.184 
L 54.784598 130.184 
L 56.848112 80.062 
L 58.911626 130.184 
L 60.97514 29.94 
L 63.038654 50.824167 
L 65.102168 197.013333 
L 67.165682 125.410476 
L 69.229196 531.16 
L 71.29271 29.94 
L 73.356225 29.94 
L 75.419739 29.94 
L 77.483253 71.708333 
L 79.546767 531.16 
L 81.610281 230.428 
L 83.673795 280.55 
L 85.737309 64.506897 
L 87.800823 29.94 
L 89.864337 67.5315 
L 91.927851 63.354667 
L 93.991365 29.94 
L 96.054879 130.184 
L 98.118393 531.16 
L 100.181907 531.16 
L 102.245421 92.5925 
L 104.308935 68.495385 
L 106.372449 29.94 
L 108.435963 101.542857 
L 110.499477 29.94 
L 112.562991 29.94 
L 114.626505 29.94 
L 116.690019 29.94 
L 118.753533 29.94 
L 120.817047 155.245 
L 122.880561 155.245 
L 124.944075 29.94 
L 127.007589 29.94 
L 129.071103 29.94 
L 131.134617 29.94 
L 133.198131 29.94 
L 135.261646 142.7145 
L 137.32516 101.542857 
L 139.388674 107.050769 
L 141.452188 80.062 
L 143.515702 105.123 
L 145.579216 80.062 
L 147.64273 29.94 
L 149.706244 85.631111 
L 151.769758 29.94 
L 153.833272 109.08 
L 155.896786 280.55 
L 157.9603 161.84 
L 160.023814 29.94 
L 162.087328 105.123 
L 164.150842 55.001 
L 166.214356 55.001 
L 168.27787 29.94 
L 170.341384 113.476667 
L 172.404898 280.55 
L 174.468412 531.16 
L 176.531926 197.013333 
L 178.59544 280.55 
L 180.658954 280.55 
L 182.722468 42.4705 
L 184.785982 29.94 
L 186.849496 55.001 
L 188.91301 230.428 
L 190.976524 29.94 
L 193.040038 197.013333 
L 195.103552 173.145714 
L 197.167067 130.184 
L 199.230581 141.322222 
L 201.294095 280.55 
L 203.357609 92.5925 
L 205.421123 29.94 
L 207.484637 206.841176 
L 209.548151 160.693043 
L 211.611665 155.245 
L 213.675179 92.5925 
L 215.738693 173.145714 
L 217.802207 531.16 
L 219.865721 29.94 
L 221.929235 230.428 
L 223.992749 29.94 
L 226.056263 29.94 
L 228.119777 85.631111 
L 230.183291 29.94 
L 232.246805 197.013333 
L 234.310319 101.542857 
L 236.373833 130.184 
L 238.437347 147.874118 
L 240.500861 280.55 
L 242.564375 118.390588 
L 244.627889 197.013333 
L 246.691403 217.8975 
L 248.754917 531.16 
L 250.818431 46.647333 
L 252.881945 29.94 
L 254.945459 29.94 
L 257.008973 29.94 
L 259.072488 55.001 
L 261.136002 29.94 
L 263.199516 145.606154 
L 265.26303 80.062 
L 267.326544 29.94 
L 269.390058 85.631111 
L 271.453572 105.123 
L 273.517086 29.94 
L 275.5806 29.94 
L 277.644114 29.94 
L 279.707628 80.062 
L 281.771142 55.001 
L 283.834656 29.94 
L 285.89817 85.631111 
L 287.961684 29.94 
L 290.025198 29.94 
L 292.088712 29.94 
L 294.152226 57.785556 
L 296.21574 29.94 
L 298.279254 197.013333 
L 300.342768 29.94 
L 302.406282 55.001 
L 304.469796 531.16 
L 306.53331 29.94 
L 308.596824 29.94 
L 310.660338 130.184 
L 312.723852 29.94 
L 314.787366 29.94 
L 316.85088 43.486486 
L 318.914394 29.94 
L 320.977908 531.16 
L 323.041423 85.631111 
L 325.104937 55.001 
L 327.168451 29.94 
L 329.231965 29.94 
L 331.295479 67.5315 
L 333.358993 105.123 
L 335.422507 80.062 
L 337.486021 297.257333 
L 339.549535 155.245 
L 341.613049 29.94 
L 343.676563 105.123 
L 345.740077 105.123 
L 347.803591 107.050769 
L 349.867105 531.16 
L 351.930619 113.476667 
L 353.994133 80.062 
L 356.057647 130.184 
L 358.121161 29.94 
L 360.184675 29.94 
L 362.248189 531.16 
L 364.311703 29.94 
L 366.375217 364.086667 
L 368.438731 280.55 
L 370.502245 173.145714 
L 372.565759 130.184 
L 374.629273 531.16 
L 376.692787 166.636364 
L 378.756301 155.245 
L 380.819815 280.55 
L 382.883329 29.94 
L 384.946844 29.94 
L 387.010358 80.062 
L 389.073872 63.354667 
L 391.137386 92.5925 
L 393.2009 29.94 
L 395.264414 96.769333 
L 397.327928 130.184 
L 399.391442 29.94 
L 401.454956 280.55 
L 403.51847 29.94 
L 405.581984 29.94 
L 407.645498 29.94 
L 409.709012 137.344286 
L 411.772526 29.94 
L 413.83604 80.062 
L 415.899554 94.613548 
L 417.963068 29.94 
L 420.026582 280.55 
L 422.090096 92.5925 
L 424.15361 280.55 
L 426.217124 230.428 
L 428.280638 280.55 
L 430.344152 130.184 
L 432.407666 531.16 
L 434.47118 531.16 
L 436.534694 531.16 
L 438.598208 364.086667 
L 440.661722 197.013333 
L 442.725236 29.94 
L 444.78875 29.94 
L 446.852265 61.26625 
L 448.915779 29.94 
L 450.979293 113.476667 
L 453.042807 101.542857 
L 455.106321 29.94 
L 457.169835 29.94 
L 459.233349 29.94 
L 461.296863 405.855 
L 463.360377 29.94 
L 465.423891 531.16 
L 467.487405 531.16 
L 469.550919 29.94 
L 471.614433 29.94 
L 473.677947 29.94 
L 475.741461 29.94 
L 477.804975 29.94 
L 479.868489 29.94 
L 481.932003 155.245 
L 483.995517 29.94 
L 486.059031 29.94 
L 488.122545 197.013333 
L 490.186059 29.94 
L 492.249573 280.55 
L 494.313087 280.55 
L 496.376601 405.855 
L 498.440115 29.94 
L 500.503629 531.16 
L 502.567143 29.94 
L 504.630657 29.94 
L 506.694171 29.94 
L 508.757686 29.94 
L 510.8212 29.94 
L 512.884714 531.16 
L 514.948228 531.16 
L 517.011742 29.94 
L 519.075256 280.55 
L 521.13877 29.94 
L 523.202284 29.94 
L 525.265798 29.94 
L 527.329312 29.94 
L 529.392826 531.16 
L 531.45634 531.16 
L 533.519854 531.16 
L 535.583368 29.94 
L 537.646882 531.16 
L 539.710396 531.16 
L 541.77391 29.94 
L 543.837424 531.16 
L 545.900938 531.16 
L 547.964452 531.16 
L 550.027966 29.94 
L 552.09148 531.16 
L 554.154994 29.94 
L 556.218508 280.55 
L 558.282022 29.94 
L 560.345536 531.16 
L 562.40905 531.16 
L 564.472564 29.94 
L 566.536078 531.16 
L 568.599592 29.94 
L 570.663106 280.55 
L 572.726621 29.94 
L 574.790135 29.94 
L 576.853649 531.16 
L 578.917163 29.94 
L 580.980677 29.94 
L 583.044191 531.16 
L 585.107705 531.16 
L 587.171219 280.55 
L 589.234733 531.16 
L 591.298247 531.16 
L 593.361761 280.55 
L 595.425275 531.16 
L 597.488789 280.55 
L 599.552303 531.16 
L 601.615817 531.16 
L 603.679331 531.16 
L 605.742845 280.55 
L 607.806359 29.94 
L 609.869873 531.16 
L 611.933387 29.94 
L 613.996901 280.55 
L 616.060415 29.94 
L 618.123929 531.16 
L 620.187443 29.94 
L 622.250957 29.94 
L 624.314471 280.55 
L 626.377985 531.16 
L 628.441499 29.94 
L 630.505013 29.94 
L 632.568527 29.94 
L 634.632042 29.94 
L 636.695556 531.16 
L 638.75907 29.94 
L 640.822584 29.94 
L 642.886098 531.16 
L 644.949612 531.16 
L 647.013126 29.94 
L 649.07664 29.94 
L 651.140154 280.55 
L 653.203668 29.94 
L 655.267182 531.16 
L 657.330696 29.94 
L 659.39421 29.94 
L 661.457724 29.94 
L 663.521238 29.94 
L 665.584752 531.16 
L 667.648266 531.16 
L 669.71178 29.94 
L 671.775294 531.16 
L 671.775294 531.16 
L 671.775294 531.16 
L 669.71178 29.94 
L 667.648266 531.16 
L 665.584752 531.16 
L 663.521238 29.94 
L 661.457724 29.94 
L 659.39421 29.94 
L 657.330696 29.94 
L 655.267182 29.94 
L 653.203668 29.94 
L 651.140154 280.55 
L 649.07664 29.94 
L 647.013126 29.94 
L 644.949612 531.16 
L 642.886098 29.94 
L 640.822584 29.94 
L 638.75907 29.94 
L 636.695556 531.16 
L 634.632042 29.94 
L 632.568527 29.94 
L 630.505013 29.94 
L 628.441499 29.94 
L 626.377985 531.16 
L 624.314471 280.55 
L 622.250957 29.94 
L 620.187443 29.94 
L 618.123929 531.16 
L 616.060415 29.94 
L 613.996901 280.55 
L 611.933387 29.94 
L 609.869873 531.16 
L 607.806359 29.94 
L 605.742845 280.55 
L 603.679331 531.16 
L 601.615817 531.16 
L 599.552303 531.16 
L 597.488789 280.55 
L 595.425275 531.16 
L 593.361761 280.55 
L 591.298247 531.16 
L 589.234733 531.16 
L 587.171219 280.55 
L 585.107705 531.16 
L 583.044191 531.16 
L 580.980677 29.94 
L 578.917163 29.94 
L 576.853649 531.16 
L 574.790135 29.94 
L 572.726621 29.94 
L 570.663106 280.55 
L 568.599592 29.94 
L 566.536078 531.16 
L 564.472564 29.94 
L 562.40905 531.16 
L 560.345536 280.55 
L 558.282022 29.94 
L 556.218508 29.94 
L 554.154994 29.94 
L 552.09148 531.16 
L 550.027966 29.94 
L 547.964452 531.16 
L 545.900938 531.16 
L 543.837424 531.16 
L 541.77391 29.94 
L 539.710396 531.16 
L 537.646882 531.16 
L 535.583368 29.94 
L 533.519854 29.94 
L 531.45634 29.94 
L 529.392826 531.16 
L 527.329312 29.94 
L 525.265798 29.94 
L 523.202284 29.94 
L 521.13877 29.94 
L 519.075256 280.55 
L 517.011742 29.94 
L 514.948228 29.94 
L 512.884714 531.16 
L 510.8212 29.94 
L 508.757686 29.94 
L 506.694171 29.94 
L 504.630657 29.94 
L 502.567143 29.94 
L 500.503629 531.16 
L 498.440115 29.94 
L 496.376601 280.55 
L 494.313087 280.55 
L 492.249573 280.55 
L 490.186059 29.94 
L 488.122545 197.013333 
L 486.059031 29.94 
L 483.995517 29.94 
L 481.932003 155.245 
L 479.868489 29.94 
L 477.804975 29.94 
L 475.741461 29.94 
L 473.677947 29.94 
L 471.614433 29.94 
L 469.550919 29.94 
L 467.487405 29.94 
L 465.423891 29.94 
L 463.360377 29.94 
L 461.296863 29.94 
L 459.233349 29.94 
L 457.169835 29.94 
L 455.106321 29.94 
L 453.042807 29.94 
L 450.979293 113.476667 
L 448.915779 29.94 
L 446.852265 29.94 
L 444.78875 29.94 
L 442.725236 29.94 
L 440.661722 197.013333 
L 438.598208 364.086667 
L 436.534694 531.16 
L 434.47118 531.16 
L 432.407666 531.16 
L 430.344152 130.184 
L 428.280638 280.55 
L 426.217124 230.428 
L 424.15361 280.55 
L 422.090096 92.5925 
L 420.026582 280.55 
L 417.963068 29.94 
L 415.899554 46.108387 
L 413.83604 55.001 
L 411.772526 29.94 
L 409.709012 101.542857 
L 407.645498 29.94 
L 405.581984 29.94 
L 403.51847 29.94 
L 401.454956 155.245 
L 399.391442 29.94 
L 397.327928 130.184 
L 395.264414 63.354667 
L 393.2009 29.94 
L 391.137386 92.5925 
L 389.073872 63.354667 
L 387.010358 80.062 
L 384.946844 29.94 
L 382.883329 29.94 
L 380.819815 280.55 
L 378.756301 155.245 
L 376.692787 166.636364 
L 374.629273 531.16 
L 372.565759 105.123 
L 370.502245 173.145714 
L 368.438731 280.55 
L 366.375217 364.086667 
L 364.311703 29.94 
L 362.248189 531.16 
L 360.184675 29.94 
L 358.121161 29.94 
L 356.057647 105.123 
L 353.994133 80.062 
L 351.930619 113.476667 
L 349.867105 29.94 
L 347.803591 68.495385 
L 345.740077 55.001 
L 343.676563 105.123 
L 341.613049 29.94 
L 339.549535 155.245 
L 337.486021 63.354667 
L 335.422507 55.001 
L 333.358993 105.123 
L 331.295479 67.5315 
L 329.231965 29.94 
L 327.168451 29.94 
L 325.104937 55.001 
L 323.041423 57.785556 
L 320.977908 29.94 
L 318.914394 29.94 
L 316.85088 43.486486 
L 314.787366 29.94 
L 312.723852 29.94 
L 310.660338 130.184 
L 308.596824 29.94 
L 306.53331 29.94 
L 304.469796 531.16 
L 302.406282 55.001 
L 300.342768 29.94 
L 298.279254 197.013333 
L 296.21574 29.94 
L 294.152226 57.785556 
L 292.088712 29.94 
L 290.025198 29.94 
L 287.961684 29.94 
L 285.89817 57.785556 
L 283.834656 29.94 
L 281.771142 42.4705 
L 279.707628 29.94 
L 277.644114 29.94 
L 275.5806 29.94 
L 273.517086 29.94 
L 271.453572 105.123 
L 269.390058 85.631111 
L 267.326544 29.94 
L 265.26303 80.062 
L 263.199516 145.606154 
L 261.136002 29.94 
L 259.072488 29.94 
L 257.008973 29.94 
L 254.945459 29.94 
L 252.881945 29.94 
L 250.818431 29.94 
L 248.754917 531.16 
L 246.691403 92.5925 
L 244.627889 29.94 
L 242.564375 59.423529 
L 240.500861 29.94 
L 238.437347 29.94 
L 236.373833 130.184 
L 234.310319 101.542857 
L 232.246805 197.013333 
L 230.183291 29.94 
L 228.119777 85.631111 
L 226.056263 29.94 
L 223.992749 29.94 
L 221.929235 130.184 
L 219.865721 29.94 
L 217.802207 29.94 
L 215.738693 173.145714 
L 213.675179 92.5925 
L 211.611665 155.245 
L 209.548151 138.90087 
L 207.484637 177.357647 
L 205.421123 29.94 
L 203.357609 92.5925 
L 201.294095 280.55 
L 199.230581 141.322222 
L 197.167067 80.062 
L 195.103552 29.94 
L 193.040038 29.94 
L 190.976524 29.94 
L 188.91301 29.94 
L 186.849496 42.4705 
L 184.785982 29.94 
L 182.722468 29.94 
L 180.658954 280.55 
L 178.59544 29.94 
L 176.531926 197.013333 
L 174.468412 531.16 
L 172.404898 29.94 
L 170.341384 29.94 
L 168.27787 29.94 
L 166.214356 29.94 
L 164.150842 29.94 
L 162.087328 80.062 
L 160.023814 29.94 
L 157.9603 161.84 
L 155.896786 29.94 
L 153.833272 109.08 
L 151.769758 29.94 
L 149.706244 85.631111 
L 147.64273 29.94 
L 145.579216 80.062 
L 143.515702 105.123 
L 141.452188 80.062 
L 139.388674 68.495385 
L 137.32516 101.542857 
L 135.261646 80.062 
L 133.198131 29.94 
L 131.134617 29.94 
L 129.071103 29.94 
L 127.007589 29.94 
L 124.944075 29.94 
L 122.880561 29.94 
L 120.817047 155.245 
L 118.753533 29.94 
L 116.690019 29.94 
L 114.626505 29.94 
L 112.562991 29.94 
L 110.499477 29.94 
L 108.435963 29.94 
L 106.372449 29.94 
L 104.308935 42.791795 
L 102.245421 55.001 
L 100.181907 29.94 
L 98.118393 197.013333 
L 96.054879 29.94 
L 93.991365 29.94 
L 91.927851 46.647333 
L 89.864337 55.001 
L 87.800823 29.94 
L 85.737309 64.506897 
L 83.673795 29.94 
L 81.610281 130.184 
L 79.546767 531.16 
L 77.483253 29.94 
L 75.419739 29.94 
L 73.356225 29.94 
L 71.29271 29.94 
L 69.229196 531.16 
L 67.165682 53.807619 
L 65.102168 29.94 
L 63.038654 50.824167 
L 60.97514 29.94 
L 58.911626 130.184 
L 56.848112 80.062 
L 54.784598 130.184 
L 52.721084 130.184 
L 50.65757 29.94 
L 48.594056 29.94 
z
" clip-path="url(#p937648003c)" style="fill: #e8bc60; stroke: #ffffff"/>
   </g>
   <g id="FillBetweenPolyCollection_4">
    <path d="M 40.34 29.94 
L 40.34 55.001 
L 42.403514 217.8975 
L 44.467028 92.5925 
L 44.467028 29.94 
L 44.467028 29.94 
L 42.403514 29.94 
L 40.34 29.94 
z
" clip-path="url(#p937648003c)" style="fill: #8d5993; stroke: #ffffff"/>
    <path d="M 48.594056 29.94 
L 48.594056 29.94 
L 50.65757 29.94 
L 52.721084 130.184 
L 54.784598 130.184 
L 56.848112 80.062 
L 58.911626 130.184 
L 60.97514 29.94 
L 63.038654 50.824167 
L 65.102168 29.94 
L 67.165682 53.807619 
L 69.229196 531.16 
L 71.29271 29.94 
L 73.356225 29.94 
L 75.419739 29.94 
L 77.483253 29.94 
L 79.546767 531.16 
L 81.610281 130.184 
L 83.673795 29.94 
L 85.737309 64.506897 
L 87.800823 29.94 
L 89.864337 55.001 
L 91.927851 46.647333 
L 93.991365 29.94 
L 96.054879 29.94 
L 98.118393 197.013333 
L 100.181907 29.94 
L 102.245421 55.001 
L 104.308935 42.791795 
L 106.372449 29.94 
L 108.435963 29.94 
L 110.499477 29.94 
L 112.562991 29.94 
L 114.626505 29.94 
L 116.690019 29.94 
L 118.753533 29.94 
L 120.817047 155.245 
L 122.880561 29.94 
L 124.944075 29.94 
L 127.007589 29.94 
L 129.071103 29.94 
L 131.134617 29.94 
L 133.198131 29.94 
L 135.261646 80.062 
L 137.32516 101.542857 
L 139.388674 68.495385 
L 141.452188 80.062 
L 143.515702 105.123 
L 145.579216 80.062 
L 147.64273 29.94 
L 149.706244 85.631111 
L 151.769758 29.94 
L 153.833272 109.08 
L 155.896786 29.94 
L 157.9603 161.84 
L 160.023814 29.94 
L 162.087328 80.062 
L 164.150842 29.94 
L 166.214356 29.94 
L 168.27787 29.94 
L 170.341384 29.94 
L 172.404898 29.94 
L 174.468412 531.16 
L 176.531926 197.013333 
L 178.59544 29.94 
L 180.658954 280.55 
L 182.722468 29.94 
L 184.785982 29.94 
L 186.849496 42.4705 
L 188.91301 29.94 
L 190.976524 29.94 
L 193.040038 29.94 
L 195.103552 29.94 
L 197.167067 80.062 
L 199.230581 141.322222 
L 201.294095 280.55 
L 203.357609 92.5925 
L 205.421123 29.94 
L 207.484637 177.357647 
L 209.548151 138.90087 
L 211.611665 155.245 
L 213.675179 92.5925 
L 215.738693 173.145714 
L 217.802207 29.94 
L 219.865721 29.94 
L 221.929235 130.184 
L 223.992749 29.94 
L 226.056263 29.94 
L 228.119777 85.631111 
L 230.183291 29.94 
L 232.246805 197.013333 
L 234.310319 101.542857 
L 236.373833 130.184 
L 238.437347 29.94 
L 240.500861 29.94 
L 242.564375 59.423529 
L 244.627889 29.94 
L 246.691403 92.5925 
L 248.754917 531.16 
L 250.818431 29.94 
L 252.881945 29.94 
L 254.945459 29.94 
L 257.008973 29.94 
L 259.072488 29.94 
L 261.136002 29.94 
L 263.199516 145.606154 
L 265.26303 80.062 
L 267.326544 29.94 
L 269.390058 85.631111 
L 271.453572 105.123 
L 273.517086 29.94 
L 275.5806 29.94 
L 277.644114 29.94 
L 279.707628 29.94 
L 281.771142 42.4705 
L 283.834656 29.94 
L 285.89817 57.785556 
L 287.961684 29.94 
L 290.025198 29.94 
L 292.088712 29.94 
L 294.152226 57.785556 
L 296.21574 29.94 
L 298.279254 197.013333 
L 300.342768 29.94 
L 302.406282 55.001 
L 304.469796 531.16 
L 306.53331 29.94 
L 308.596824 29.94 
L 310.660338 130.184 
L 312.723852 29.94 
L 314.787366 29.94 
L 316.85088 43.486486 
L 318.914394 29.94 
L 320.977908 29.94 
L 323.041423 57.785556 
L 325.104937 55.001 
L 327.168451 29.94 
L 329.231965 29.94 
L 331.295479 67.5315 
L 333.358993 105.123 
L 335.422507 55.001 
L 337.486021 63.354667 
L 339.549535 155.245 
L 341.613049 29.94 
L 343.676563 105.123 
L 345.740077 55.001 
L 347.803591 68.495385 
L 349.867105 29.94 
L 351.930619 113.476667 
L 353.994133 80.062 
L 356.057647 105.123 
L 358.121161 29.94 
L 360.184675 29.94 
L 362.248189 531.16 
L 364.311703 29.94 
L 366.375217 364.086667 
L 368.438731 280.55 
L 370.502245 173.145714 
L 372.565759 105.123 
L 374.629273 531.16 
L 376.692787 166.636364 
L 378.756301 155.245 
L 380.819815 280.55 
L 382.883329 29.94 
L 384.946844 29.94 
L 387.010358 80.062 
L 389.073872 63.354667 
L 391.137386 92.5925 
L 393.2009 29.94 
L 395.264414 63.354667 
L 397.327928 130.184 
L 399.391442 29.94 
L 401.454956 155.245 
L 403.51847 29.94 
L 405.581984 29.94 
L 407.645498 29.94 
L 409.709012 101.542857 
L 411.772526 29.94 
L 413.83604 55.001 
L 415.899554 46.108387 
L 417.963068 29.94 
L 420.026582 280.55 
L 422.090096 92.5925 
L 424.15361 280.55 
L 426.217124 230.428 
L 428.280638 280.55 
L 430.344152 130.184 
L 432.407666 531.16 
L 434.47118 531.16 
L 436.534694 531.16 
L 438.598208 364.086667 
L 440.661722 197.013333 
L 442.725236 29.94 
L 444.78875 29.94 
L 446.852265 29.94 
L 448.915779 29.94 
L 450.979293 113.476667 
L 453.042807 29.94 
L 455.106321 29.94 
L 457.169835 29.94 
L 459.233349 29.94 
L 461.296863 29.94 
L 463.360377 29.94 
L 465.423891 29.94 
L 467.487405 29.94 
L 469.550919 29.94 
L 471.614433 29.94 
L 473.677947 29.94 
L 475.741461 29.94 
L 477.804975 29.94 
L 479.868489 29.94 
L 481.932003 155.245 
L 483.995517 29.94 
L 486.059031 29.94 
L 488.122545 197.013333 
L 490.186059 29.94 
L 492.249573 280.55 
L 494.313087 280.55 
L 496.376601 280.55 
L 498.440115 29.94 
L 500.503629 531.16 
L 502.567143 29.94 
L 504.630657 29.94 
L 506.694171 29.94 
L 508.757686 29.94 
L 510.8212 29.94 
L 512.884714 531.16 
L 514.948228 29.94 
L 517.011742 29.94 
L 519.075256 280.55 
L 521.13877 29.94 
L 523.202284 29.94 
L 525.265798 29.94 
L 527.329312 29.94 
L 529.392826 531.16 
L 531.45634 29.94 
L 533.519854 29.94 
L 535.583368 29.94 
L 537.646882 531.16 
L 539.710396 531.16 
L 541.77391 29.94 
L 543.837424 531.16 
L 545.900938 531.16 
L 547.964452 531.16 
L 550.027966 29.94 
L 552.09148 531.16 
L 554.154994 29.94 
L 556.218508 29.94 
L 558.282022 29.94 
L 560.345536 280.55 
L 562.40905 531.16 
L 564.472564 29.94 
L 566.536078 531.16 
L 568.599592 29.94 
L 570.663106 280.55 
L 572.726621 29.94 
L 574.790135 29.94 
L 576.853649 531.16 
L 578.917163 29.94 
L 580.980677 29.94 
L 583.044191 531.16 
L 585.107705 531.16 
L 587.171219 280.55 
L 589.234733 531.16 
L 591.298247 531.16 
L 593.361761 280.55 
L 595.425275 531.16 
L 597.488789 280.55 
L 599.552303 531.16 
L 601.615817 531.16 
L 603.679331 531.16 
L 605.742845 280.55 
L 607.806359 29.94 
L 609.869873 531.16 
L 611.933387 29.94 
L 613.996901 280.55 
L 616.060415 29.94 
L 618.123929 531.16 
L 620.187443 29.94 
L 622.250957 29.94 
L 624.314471 280.55 
L 626.377985 531.16 
L 628.441499 29.94 
L 630.505013 29.94 
L 632.568527 29.94 
L 634.632042 29.94 
L 636.695556 531.16 
L 638.75907 29.94 
L 640.822584 29.94 
L 642.886098 29.94 
L 644.949612 531.16 
L 647.013126 29.94 
L 649.07664 29.94 
L 651.140154 280.55 
L 653.203668 29.94 
L 655.267182 29.94 
L 657.330696 29.94 
L 659.39421 29.94 
L 661.457724 29.94 
L 663.521238 29.94 
L 665.584752 531.16 
L 667.648266 531.16 
L 669.71178 29.94 
L 671.775294 531.16 
L 671.775294 29.94 
L 671.775294 29.94 
L 669.71178 29.94 
L 667.648266 29.94 
L 665.584752 29.94 
L 663.521238 29.94 
L 661.457724 29.94 
L 659.39421 29.94 
L 657.330696 29.94 
L 655.267182 29.94 
L 653.203668 29.94 
L 651.140154 29.94 
L 649.07664 29.94 
L 647.013126 29.94 
L 644.949612 29.94 
L 642.886098 29.94 
L 640.822584 29.94 
L 638.75907 29.94 
L 636.695556 29.94 
L 634.632042 29.94 
L 632.568527 29.94 
L 630.505013 29.94 
L 628.441499 29.94 
L 626.377985 29.94 
L 624.314471 29.94 
L 622.250957 29.94 
L 620.187443 29.94 
L 618.123929 29.94 
L 616.060415 29.94 
L 613.996901 29.94 
L 611.933387 29.94 
L 609.869873 29.94 
L 607.806359 29.94 
L 605.742845 29.94 
L 603.679331 29.94 
L 601.615817 29.94 
L 599.552303 29.94 
L 597.488789 29.94 
L 595.425275 29.94 
L 593.361761 29.94 
L 591.298247 29.94 
L 589.234733 29.94 
L 587.171219 29.94 
L 585.107705 29.94 
L 583.044191 29.94 
L 580.980677 29.94 
L 578.917163 29.94 
L 576.853649 29.94 
L 574.790135 29.94 
L 572.726621 29.94 
L 570.663106 29.94 
L 568.599592 29.94 
L 566.536078 29.94 
L 564.472564 29.94 
L 562.40905 29.94 
L 560.345536 29.94 
L 558.282022 29.94 
L 556.218508 29.94 
L 554.154994 29.94 
L 552.09148 29.94 
L 550.027966 29.94 
L 547.964452 29.94 
L 545.900938 29.94 
L 543.837424 29.94 
L 541.77391 29.94 
L 539.710396 29.94 
L 537.646882 29.94 
L 535.583368 29.94 
L 533.519854 29.94 
L 531.45634 29.94 
L 529.392826 29.94 
L 527.329312 29.94 
L 525.265798 29.94 
L 523.202284 29.94 
L 521.13877 29.94 
L 519.075256 29.94 
L 517.011742 29.94 
L 514.948228 29.94 
L 512.884714 29.94 
L 510.8212 29.94 
L 508.757686 29.94 
L 506.694171 29.94 
L 504.630657 29.94 
L 502.567143 29.94 
L 500.503629 29.94 
L 498.440115 29.94 
L 496.376601 29.94 
L 494.313087 29.94 
L 492.249573 29.94 
L 490.186059 29.94 
L 488.122545 29.94 
L 486.059031 29.94 
L 483.995517 29.94 
L 481.932003 29.94 
L 479.868489 29.94 
L 477.804975 29.94 
L 475.741461 29.94 
L 473.677947 29.94 
L 471.614433 29.94 
L 469.550919 29.94 
L 467.487405 29.94 
L 465.423891 29.94 
L 463.360377 29.94 
L 461.296863 29.94 
L 459.233349 29.94 
L 457.169835 29.94 
L 455.106321 29.94 
L 453.042807 29.94 
L 450.979293 29.94 
L 448.915779 29.94 
L 446.852265 29.94 
L 444.78875 29.94 
L 442.725236 29.94 
L 440.661722 29.94 
L 438.598208 29.94 
L 436.534694 29.94 
L 434.47118 29.94 
L 432.407666 29.94 
L 430.344152 29.94 
L 428.280638 29.94 
L 426.217124 29.94 
L 424.15361 29.94 
L 422.090096 29.94 
L 420.026582 29.94 
L 417.963068 29.94 
L 415.899554 29.94 
L 413.83604 29.94 
L 411.772526 29.94 
L 409.709012 29.94 
L 407.645498 29.94 
L 405.581984 29.94 
L 403.51847 29.94 
L 401.454956 29.94 
L 399.391442 29.94 
L 397.327928 29.94 
L 395.264414 29.94 
L 393.2009 29.94 
L 391.137386 29.94 
L 389.073872 29.94 
L 387.010358 29.94 
L 384.946844 29.94 
L 382.883329 29.94 
L 380.819815 29.94 
L 378.756301 29.94 
L 376.692787 29.94 
L 374.629273 29.94 
L 372.565759 29.94 
L 370.502245 29.94 
L 368.438731 29.94 
L 366.375217 29.94 
L 364.311703 29.94 
L 362.248189 29.94 
L 360.184675 29.94 
L 358.121161 29.94 
L 356.057647 29.94 
L 353.994133 29.94 
L 351.930619 29.94 
L 349.867105 29.94 
L 347.803591 29.94 
L 345.740077 29.94 
L 343.676563 29.94 
L 341.613049 29.94 
L 339.549535 29.94 
L 337.486021 29.94 
L 335.422507 29.94 
L 333.358993 29.94 
L 331.295479 29.94 
L 329.231965 29.94 
L 327.168451 29.94 
L 325.104937 29.94 
L 323.041423 29.94 
L 320.977908 29.94 
L 318.914394 29.94 
L 316.85088 29.94 
L 314.787366 29.94 
L 312.723852 29.94 
L 310.660338 29.94 
L 308.596824 29.94 
L 306.53331 29.94 
L 304.469796 29.94 
L 302.406282 29.94 
L 300.342768 29.94 
L 298.279254 29.94 
L 296.21574 29.94 
L 294.152226 29.94 
L 292.088712 29.94 
L 290.025198 29.94 
L 287.961684 29.94 
L 285.89817 29.94 
L 283.834656 29.94 
L 281.771142 29.94 
L 279.707628 29.94 
L 277.644114 29.94 
L 275.5806 29.94 
L 273.517086 29.94 
L 271.453572 29.94 
L 269.390058 29.94 
L 267.326544 29.94 
L 265.26303 29.94 
L 263.199516 29.94 
L 261.136002 29.94 
L 259.072488 29.94 
L 257.008973 29.94 
L 254.945459 29.94 
L 252.881945 29.94 
L 250.818431 29.94 
L 248.754917 29.94 
L 246.691403 29.94 
L 244.627889 29.94 
L 242.564375 29.94 
L 240.500861 29.94 
L 238.437347 29.94 
L 236.373833 29.94 
L 234.310319 29.94 
L 232.246805 29.94 
L 230.183291 29.94 
L 228.119777 29.94 
L 226.056263 29.94 
L 223.992749 29.94 
L 221.929235 29.94 
L 219.865721 29.94 
L 217.802207 29.94 
L 215.738693 29.94 
L 213.675179 29.94 
L 211.611665 29.94 
L 209.548151 29.94 
L 207.484637 29.94 
L 205.421123 29.94 
L 203.357609 29.94 
L 201.294095 29.94 
L 199.230581 29.94 
L 197.167067 29.94 
L 195.103552 29.94 
L 193.040038 29.94 
L 190.976524 29.94 
L 188.91301 29.94 
L 186.849496 29.94 
L 184.785982 29.94 
L 182.722468 29.94 
L 180.658954 29.94 
L 178.59544 29.94 
L 176.531926 29.94 
L 174.468412 29.94 
L 172.404898 29.94 
L 170.341384 29.94 
L 168.27787 29.94 
L 166.214356 29.94 
L 164.150842 29.94 
L 162.087328 29.94 
L 160.023814 29.94 
L 157.9603 29.94 
L 155.896786 29.94 
L 153.833272 29.94 
L 151.769758 29.94 
L 149.706244 29.94 
L 147.64273 29.94 
L 145.579216 29.94 
L 143.515702 29.94 
L 141.452188 29.94 
L 139.388674 29.94 
L 137.32516 29.94 
L 135.261646 29.94 
L 133.198131 29.94 
L 131.134617 29.94 
L 129.071103 29.94 
L 127.007589 29.94 
L 124.944075 29.94 
L 122.880561 29.94 
L 120.817047 29.94 
L 118.753533 29.94 
L 116.690019 29.94 
L 114.626505 29.94 
L 112.562991 29.94 
L 110.499477 29.94 
L 108.435963 29.94 
L 106.372449 29.94 
L 104.308935 29.94 
L 102.245421 29.94 
L 100.181907 29.94 
L 98.118393 29.94 
L 96.054879 29.94 
L 93.991365 29.94 
L 91.927851 29.94 
L 89.864337 29.94 
L 87.800823 29.94 
L 85.737309 29.94 
L 83.673795 29.94 
L 81.610281 29.94 
L 79.546767 29.94 
L 77.483253 29.94 
L 75.419739 29.94 
L 73.356225 29.94 
L 71.29271 29.94 
L 69.229196 29.94 
L 67.165682 29.94 
L 65.102168 29.94 
L 63.038654 29.94 
L 60.97514 29.94 
L 58.911626 29.94 
L 56.848112 29.94 
L 54.784598 29.94 
L 52.721084 29.94 
L 50.65757 29.94 
L 48.594056 29.94 
z
" clip-path="url(#p937648003c)" style="fill: #8d5993; stroke: #ffffff"/>
   </g>
   <g id="line2d_9">
    <path d="M 40.34 135.46 
L 671.775294 135.46 
" clip-path="url(#p937648003c)" style="fill: none; stroke-dasharray: 7.5,15; stroke-dashoffset: 0; stroke: #000000; stroke-width: 1.5"/>
   </g>
   <g id="patch_3">
    <path d="M 40.34 531.16 
L 40.34 29.94 
" style="fill: none; stroke: #cccccc; stroke-width: 0.8; stroke-linejoin: miter; stroke-linecap: square"/>
   </g>
   <g id="patch_4">
    <path d="M 671.775294 531.16 
L 671.775294 29.94 
" style="fill: none; stroke: #cccccc; stroke-width: 0.8; stroke-linejoin: miter; stroke-linecap: square"/>
   </g>
   <g id="patch_5">
    <path d="M 40.34 531.16 
L 671.775294 531.16 
" style="fill: none; stroke: #cccccc; stroke-width: 0.8; stroke-linejoin: miter; stroke-linecap: square"/>
   </g>
   <g id="patch_6">
    <path d="M 40.34 29.94 
L 671.775294 29.94 
" style="fill: none; stroke: #cccccc; stroke-width: 0.8; stroke-linejoin: miter; stroke-linecap: square"/>
   </g>
   <g id="text_11">
    <!-- 0.79 -->
    <g transform="translate(686.219892 138.823281) scale(0.14 -0.14)">
     <defs>
      <path id="TimesNewRomanPSMT-30" d="M 231 2094 
Q 231 2819 450 3342 
Q 669 3866 1031 4122 
Q 1313 4325 1613 4325 
Q 2100 4325 2488 3828 
Q 2972 3213 2972 2159 
Q 2972 1422 2759 906 
Q 2547 391 2217 158 
Q 1888 -75 1581 -75 
Q 975 -75 572 641 
Q 231 1244 231 2094 
z
M 844 2016 
Q 844 1141 1059 588 
Q 1238 122 1591 122 
Q 1759 122 1940 273 
Q 2122 425 2216 781 
Q 2359 1319 2359 2297 
Q 2359 3022 2209 3506 
Q 2097 3866 1919 4016 
Q 1791 4119 1609 4119 
Q 1397 4119 1231 3928 
Q 1006 3669 925 3112 
Q 844 2556 844 2016 
z
" transform="scale(0.015625)"/>
      <path id="TimesNewRomanPSMT-2e" d="M 800 606 
Q 947 606 1047 504 
Q 1147 403 1147 259 
Q 1147 116 1045 14 
Q 944 -88 800 -88 
Q 656 -88 554 14 
Q 453 116 453 259 
Q 453 406 554 506 
Q 656 606 800 606 
z
" transform="scale(0.015625)"/>
      <path id="TimesNewRomanPSMT-37" d="M 644 4238 
L 2916 4238 
L 2916 4119 
L 1503 -88 
L 1153 -88 
L 2419 3728 
L 1253 3728 
Q 900 3728 750 3644 
Q 488 3500 328 3200 
L 238 3234 
L 644 4238 
z
" transform="scale(0.015625)"/>
      <path id="TimesNewRomanPSMT-39" d="M 338 -88 
L 338 28 
Q 744 34 1094 217 
Q 1444 400 1770 856 
Q 2097 1313 2225 1859 
Q 1734 1544 1338 1544 
Q 891 1544 572 1889 
Q 253 2234 253 2806 
Q 253 3363 572 3797 
Q 956 4325 1575 4325 
Q 2097 4325 2469 3894 
Q 2925 3359 2925 2575 
Q 2925 1869 2578 1258 
Q 2231 647 1613 244 
Q 1109 -88 516 -88 
L 338 -88 
z
M 2275 2091 
Q 2331 2497 2331 2741 
Q 2331 3044 2228 3395 
Q 2125 3747 1936 3934 
Q 1747 4122 1506 4122 
Q 1228 4122 1018 3872 
Q 809 3622 809 3128 
Q 809 2469 1088 2097 
Q 1291 1828 1588 1828 
Q 1731 1828 1928 1897 
Q 2125 1966 2275 2091 
z
" transform="scale(0.015625)"/>
     </defs>
     <use xlink:href="#TimesNewRomanPSMT-30"/>
     <use xlink:href="#TimesNewRomanPSMT-2e" transform="translate(50 0)"/>
     <use xlink:href="#TimesNewRomanPSMT-37" transform="translate(75 0)"/>
     <use xlink:href="#TimesNewRomanPSMT-39" transform="translate(125 0)"/>
    </g>
   </g>
   <g id="text_12">
    <!-- Theoden (Rhesus) -->
    <g style="fill: #262626" transform="translate(279.099835 23.94) scale(0.2 -0.2)">
     <defs>
      <path id="TimesNewRomanPS-BoldMT-54" d="M 4038 4238 
L 4038 3091 
L 3925 3091 
Q 3825 3488 3703 3661 
Q 3581 3834 3369 3938 
Q 3250 3994 2953 3994 
L 2638 3994 
L 2638 725 
Q 2638 400 2673 319 
Q 2709 238 2814 177 
Q 2919 116 3100 116 
L 3241 116 
L 3241 0 
L 1022 0 
L 1022 116 
L 1163 116 
Q 1347 116 1459 181 
Q 1541 225 1588 331 
Q 1622 406 1622 725 
L 1622 3994 
L 1316 3994 
Q 888 3994 694 3813 
Q 422 3559 350 3091 
L 231 3091 
L 231 4238 
L 4038 4238 
z
" transform="scale(0.015625)"/>
      <path id="TimesNewRomanPS-BoldMT-68" d="M 1409 4238 
L 1409 2547 
Q 1650 2800 1850 2904 
Q 2050 3009 2266 3009 
Q 2541 3009 2736 2853 
Q 2931 2697 2995 2486 
Q 3059 2275 3059 1775 
L 3059 634 
Q 3059 300 3121 217 
Q 3184 134 3375 113 
L 3375 0 
L 1894 0 
L 1894 113 
Q 2050 134 2128 238 
Q 2184 319 2184 634 
L 2184 1938 
Q 2184 2300 2156 2392 
Q 2128 2484 2061 2536 
Q 1994 2588 1909 2588 
Q 1784 2588 1665 2502 
Q 1547 2416 1409 2200 
L 1409 634 
Q 1409 322 1456 244 
Q 1516 138 1700 113 
L 1700 0 
L 219 0 
L 219 113 
Q 403 131 481 231 
Q 534 300 534 634 
L 534 3603 
Q 534 3934 473 4015 
Q 413 4097 219 4122 
L 219 4238 
L 1409 4238 
z
" transform="scale(0.015625)"/>
      <path id="TimesNewRomanPS-BoldMT-65" d="M 2691 1566 
L 1088 1566 
Q 1116 984 1397 647 
Q 1613 388 1916 388 
Q 2103 388 2256 492 
Q 2409 597 2584 869 
L 2691 800 
Q 2453 316 2165 114 
Q 1878 -88 1500 -88 
Q 850 -88 516 413 
Q 247 816 247 1413 
Q 247 2144 642 2576 
Q 1038 3009 1569 3009 
Q 2013 3009 2339 2645 
Q 2666 2281 2691 1566 
z
M 1922 1775 
Q 1922 2278 1867 2465 
Q 1813 2653 1697 2750 
Q 1631 2806 1522 2806 
Q 1359 2806 1256 2647 
Q 1072 2369 1072 1884 
L 1072 1775 
L 1922 1775 
z
" transform="scale(0.015625)"/>
      <path id="TimesNewRomanPS-BoldMT-6f" d="M 1594 3009 
Q 1975 3009 2303 2812 
Q 2631 2616 2801 2253 
Q 2972 1891 2972 1459 
Q 2972 838 2656 419 
Q 2275 -88 1603 -88 
Q 944 -88 587 375 
Q 231 838 231 1447 
Q 231 2075 595 2542 
Q 959 3009 1594 3009 
z
M 1606 2788 
Q 1447 2788 1333 2667 
Q 1219 2547 1183 2192 
Q 1147 1838 1147 1206 
Q 1147 872 1191 581 
Q 1225 359 1337 243 
Q 1450 128 1594 128 
Q 1734 128 1828 206 
Q 1950 313 1991 503 
Q 2053 800 2053 1703 
Q 2053 2234 1993 2432 
Q 1934 2631 1819 2722 
Q 1738 2788 1606 2788 
z
" transform="scale(0.015625)"/>
      <path id="TimesNewRomanPS-BoldMT-64" d="M 3056 4238 
L 3056 875 
Q 3056 534 3075 472 
Q 3100 369 3170 319 
Q 3241 269 3416 256 
L 3416 153 
L 2181 -88 
L 2181 375 
Q 1959 106 1786 9 
Q 1613 -88 1394 -88 
Q 834 -88 509 413 
Q 247 819 247 1409 
Q 247 1881 409 2254 
Q 572 2628 855 2818 
Q 1138 3009 1463 3009 
Q 1672 3009 1834 2928 
Q 1997 2847 2181 2644 
L 2181 3525 
Q 2181 3859 2153 3928 
Q 2116 4019 2041 4062 
Q 1966 4106 1759 4106 
L 1759 4238 
L 3056 4238 
z
M 2181 2256 
Q 1950 2700 1616 2700 
Q 1500 2700 1425 2638 
Q 1309 2541 1236 2297 
Q 1163 2053 1163 1550 
Q 1163 997 1244 731 
Q 1325 466 1466 347 
Q 1538 288 1663 288 
Q 1938 288 2181 719 
L 2181 2256 
z
" transform="scale(0.015625)"/>
      <path id="TimesNewRomanPS-BoldMT-6e" d="M 1409 2922 
L 1409 2544 
Q 1634 2788 1840 2898 
Q 2047 3009 2284 3009 
Q 2569 3009 2756 2851 
Q 2944 2694 3006 2459 
Q 3056 2281 3056 1775 
L 3056 638 
Q 3056 300 3117 217 
Q 3178 134 3372 113 
L 3372 0 
L 1894 0 
L 1894 113 
Q 2059 134 2131 250 
Q 2181 328 2181 638 
L 2181 1938 
Q 2181 2297 2153 2390 
Q 2125 2484 2058 2536 
Q 1991 2588 1909 2588 
Q 1641 2588 1409 2203 
L 1409 638 
Q 1409 309 1470 221 
Q 1531 134 1697 113 
L 1697 0 
L 219 0 
L 219 113 
Q 403 131 481 231 
Q 534 300 534 638 
L 534 2288 
Q 534 2619 473 2700 
Q 413 2781 219 2806 
L 219 2922 
L 1409 2922 
z
" transform="scale(0.015625)"/>
      <path id="TimesNewRomanPS-BoldMT-20" transform="scale(0.015625)"/>
      <path id="TimesNewRomanPS-BoldMT-28" d="M 2056 4334 
L 2056 4191 
Q 1731 3978 1578 3775 
Q 1366 3494 1247 3053 
Q 1097 2506 1097 1525 
Q 1097 600 1233 87 
Q 1369 -425 1603 -741 
Q 1766 -959 2056 -1125 
L 2056 -1281 
Q 1303 -1028 779 -248 
Q 256 531 256 1544 
Q 256 2544 778 3314 
Q 1300 4084 2056 4334 
z
" transform="scale(0.015625)"/>
      <path id="TimesNewRomanPS-BoldMT-52" d="M 1700 1931 
L 1700 744 
Q 1700 400 1742 311 
Q 1784 222 1890 169 
Q 1997 116 2288 116 
L 2288 0 
L 119 0 
L 119 116 
Q 413 116 517 170 
Q 622 225 664 312 
Q 706 400 706 744 
L 706 3494 
Q 706 3838 664 3927 
Q 622 4016 515 4069 
Q 409 4122 119 4122 
L 119 4238 
L 2088 4238 
Q 2856 4238 3212 4131 
Q 3569 4025 3794 3739 
Q 4019 3453 4019 3069 
Q 4019 2600 3681 2294 
Q 3466 2100 3078 2003 
L 4097 569 
Q 4297 291 4381 222 
Q 4509 125 4678 116 
L 4678 0 
L 3344 0 
L 1978 1931 
L 1700 1931 
z
M 1700 4009 
L 1700 2153 
L 1878 2153 
Q 2313 2153 2528 2233 
Q 2744 2313 2867 2520 
Q 2991 2728 2991 3063 
Q 2991 3547 2764 3778 
Q 2538 4009 2034 4009 
L 1700 4009 
z
" transform="scale(0.015625)"/>
      <path id="TimesNewRomanPS-BoldMT-73" d="M 2063 3003 
L 2109 2006 
L 2003 2006 
Q 1813 2450 1608 2612 
Q 1403 2775 1200 2775 
Q 1072 2775 981 2689 
Q 891 2603 891 2491 
Q 891 2406 953 2328 
Q 1053 2200 1512 1889 
Q 1972 1578 2117 1361 
Q 2263 1144 2263 875 
Q 2263 631 2141 397 
Q 2019 163 1797 37 
Q 1575 -88 1306 -88 
Q 1097 -88 747 44 
Q 653 78 619 78 
Q 516 78 447 -78 
L 344 -78 
L 294 972 
L 400 972 
Q 541 559 786 353 
Q 1031 147 1250 147 
Q 1400 147 1495 239 
Q 1591 331 1591 463 
Q 1591 613 1497 722 
Q 1403 831 1078 1053 
Q 600 1384 459 1559 
Q 253 1816 253 2125 
Q 253 2463 486 2736 
Q 719 3009 1159 3009 
Q 1397 3009 1619 2894 
Q 1703 2847 1756 2847 
Q 1813 2847 1847 2870 
Q 1881 2894 1956 3003 
L 2063 3003 
z
" transform="scale(0.015625)"/>
      <path id="TimesNewRomanPS-BoldMT-75" d="M 3038 2922 
L 3038 634 
Q 3038 300 3100 217 
Q 3163 134 3353 113 
L 3353 0 
L 2163 0 
L 2163 391 
Q 1953 141 1743 26 
Q 1534 -88 1275 -88 
Q 1028 -88 836 64 
Q 644 216 578 419 
Q 513 622 513 1128 
L 513 2288 
Q 513 2619 452 2700 
Q 391 2781 197 2806 
L 197 2922 
L 1388 2922 
L 1388 925 
Q 1388 613 1417 522 
Q 1447 431 1511 384 
Q 1575 338 1659 338 
Q 1772 338 1863 397 
Q 1988 478 2163 725 
L 2163 2288 
Q 2163 2619 2102 2700 
Q 2041 2781 1847 2806 
L 1847 2922 
L 3038 2922 
z
" transform="scale(0.015625)"/>
      <path id="TimesNewRomanPS-BoldMT-29" d="M 78 -1281 
L 78 -1138 
Q 403 -922 556 -719 
Q 766 -438 888 0 
Q 1038 550 1038 1531 
Q 1038 2456 902 2967 
Q 766 3478 531 3794 
Q 369 4013 78 4178 
L 78 4334 
Q 831 4081 1354 3301 
Q 1878 2522 1878 1509 
Q 1878 513 1354 -257 
Q 831 -1028 78 -1281 
z
" transform="scale(0.015625)"/>
     </defs>
     <use xlink:href="#TimesNewRomanPS-BoldMT-54"/>
     <use xlink:href="#TimesNewRomanPS-BoldMT-68" transform="translate(66.699219 0)"/>
     <use xlink:href="#TimesNewRomanPS-BoldMT-65" transform="translate(122.314453 0)"/>
     <use xlink:href="#TimesNewRomanPS-BoldMT-6f" transform="translate(166.699219 0)"/>
     <use xlink:href="#TimesNewRomanPS-BoldMT-64" transform="translate(216.699219 0)"/>
     <use xlink:href="#TimesNewRomanPS-BoldMT-65" transform="translate(272.314453 0)"/>
     <use xlink:href="#TimesNewRomanPS-BoldMT-6e" transform="translate(316.699219 0)"/>
     <use xlink:href="#TimesNewRomanPS-BoldMT-20" transform="translate(372.314453 0)"/>
     <use xlink:href="#TimesNewRomanPS-BoldMT-28" transform="translate(397.314453 0)"/>
     <use xlink:href="#TimesNewRomanPS-BoldMT-52" transform="translate(430.615234 0)"/>
     <use xlink:href="#TimesNewRomanPS-BoldMT-68" transform="translate(502.832031 0)"/>
     <use xlink:href="#TimesNewRomanPS-BoldMT-65" transform="translate(558.447266 0)"/>
     <use xlink:href="#TimesNewRomanPS-BoldMT-73" transform="translate(602.832031 0)"/>
     <use xlink:href="#TimesNewRomanPS-BoldMT-75" transform="translate(641.748047 0)"/>
     <use xlink:href="#TimesNewRomanPS-BoldMT-73" transform="translate(697.363281 0)"/>
     <use xlink:href="#TimesNewRomanPS-BoldMT-29" transform="translate(736.279297 0)"/>
    </g>
   </g>
   <g id="legend_1">
    <g id="patch_7">
     <path d="M 47.34 94.49625 
L 133.236875 94.49625 
Q 135.236875 94.49625 135.236875 92.49625 
L 135.236875 36.94 
Q 135.236875 34.94 133.236875 34.94 
L 47.34 34.94 
Q 45.34 34.94 45.34 36.94 
L 45.34 92.49625 
Q 45.34 94.49625 47.34 94.49625 
z
" style="fill: #ffffff; opacity: 0.8; stroke: #cccccc; stroke-linejoin: miter"/>
    </g>
    <g id="patch_8">
     <path d="M 49.34 45.94 
L 69.34 45.94 
L 69.34 38.94 
L 49.34 38.94 
z
" style="fill: #5386b6; stroke: #ffffff; stroke-linejoin: miter"/>
    </g>
    <g id="text_13">
     <!-- Success -->
     <g style="fill: #262626" transform="translate(77.34 45.94) scale(0.1 -0.1)">
      <use xlink:href="#TimesNewRomanPSMT-53"/>
      <use xlink:href="#TimesNewRomanPSMT-75" transform="translate(55.615234 0)"/>
      <use xlink:href="#TimesNewRomanPSMT-63" transform="translate(105.615234 0)"/>
      <use xlink:href="#TimesNewRomanPSMT-63" transform="translate(150 0)"/>
      <use xlink:href="#TimesNewRomanPSMT-65" transform="translate(194.384766 0)"/>
      <use xlink:href="#TimesNewRomanPSMT-73" transform="translate(238.769531 0)"/>
      <use xlink:href="#TimesNewRomanPSMT-73" transform="translate(277.685547 0)"/>
     </g>
    </g>
    <g id="patch_9">
     <path d="M 49.34 60.079062 
L 69.34 60.079062 
L 69.34 53.079062 
L 49.34 53.079062 
z
" style="fill: #d57459; stroke: #ffffff; stroke-linejoin: miter"/>
    </g>
    <g id="text_14">
     <!-- Error -->
     <g style="fill: #262626" transform="translate(77.34 60.079062) scale(0.1 -0.1)">
      <defs>
       <path id="TimesNewRomanPSMT-45" d="M 1338 4006 
L 1338 2331 
L 2269 2331 
Q 2631 2331 2753 2441 
Q 2916 2584 2934 2947 
L 3050 2947 
L 3050 1472 
L 2934 1472 
Q 2891 1781 2847 1869 
Q 2791 1978 2662 2040 
Q 2534 2103 2269 2103 
L 1338 2103 
L 1338 706 
Q 1338 425 1363 364 
Q 1388 303 1450 267 
Q 1513 231 1688 231 
L 2406 231 
Q 2766 231 2928 281 
Q 3091 331 3241 478 
Q 3434 672 3638 1063 
L 3763 1063 
L 3397 0 
L 131 0 
L 131 116 
L 281 116 
Q 431 116 566 188 
Q 666 238 702 338 
Q 738 438 738 747 
L 738 3500 
Q 738 3903 656 3997 
Q 544 4122 281 4122 
L 131 4122 
L 131 4238 
L 3397 4238 
L 3444 3309 
L 3322 3309 
Q 3256 3644 3176 3769 
Q 3097 3894 2941 3959 
Q 2816 4006 2500 4006 
L 1338 4006 
z
" transform="scale(0.015625)"/>
      </defs>
      <use xlink:href="#TimesNewRomanPSMT-45"/>
      <use xlink:href="#TimesNewRomanPSMT-72" transform="translate(61.083984 0)"/>
      <use xlink:href="#TimesNewRomanPSMT-72" transform="translate(94.384766 0)"/>
      <use xlink:href="#TimesNewRomanPSMT-6f" transform="translate(127.685547 0)"/>
      <use xlink:href="#TimesNewRomanPSMT-72" transform="translate(177.685547 0)"/>
     </g>
    </g>
    <g id="patch_10">
     <path d="M 49.34 74.218125 
L 69.34 74.218125 
L 69.34 67.218125 
L 49.34 67.218125 
z
" style="fill: #e8bc60; stroke: #ffffff; stroke-linejoin: miter"/>
    </g>
    <g id="text_15">
     <!-- Premature -->
     <g style="fill: #262626" transform="translate(77.34 74.218125) scale(0.1 -0.1)">
      <defs>
       <path id="TimesNewRomanPSMT-6d" d="M 1050 2338 
Q 1363 2650 1419 2697 
Q 1559 2816 1721 2881 
Q 1884 2947 2044 2947 
Q 2313 2947 2506 2790 
Q 2700 2634 2766 2338 
Q 3088 2713 3309 2830 
Q 3531 2947 3766 2947 
Q 3994 2947 4170 2830 
Q 4347 2713 4450 2447 
Q 4519 2266 4519 1878 
L 4519 647 
Q 4519 378 4559 278 
Q 4591 209 4675 161 
Q 4759 113 4950 113 
L 4950 0 
L 3538 0 
L 3538 113 
L 3597 113 
Q 3781 113 3884 184 
Q 3956 234 3988 344 
Q 4000 397 4000 647 
L 4000 1878 
Q 4000 2228 3916 2372 
Q 3794 2572 3525 2572 
Q 3359 2572 3192 2489 
Q 3025 2406 2788 2181 
L 2781 2147 
L 2788 2013 
L 2788 647 
Q 2788 353 2820 281 
Q 2853 209 2943 161 
Q 3034 113 3253 113 
L 3253 0 
L 1806 0 
L 1806 113 
Q 2044 113 2133 169 
Q 2222 225 2256 338 
Q 2272 391 2272 647 
L 2272 1878 
Q 2272 2228 2169 2381 
Q 2031 2581 1784 2581 
Q 1616 2581 1450 2491 
Q 1191 2353 1050 2181 
L 1050 647 
Q 1050 366 1089 281 
Q 1128 197 1204 155 
Q 1281 113 1516 113 
L 1516 0 
L 100 0 
L 100 113 
Q 297 113 375 155 
Q 453 197 493 289 
Q 534 381 534 647 
L 534 1741 
Q 534 2213 506 2350 
Q 484 2453 437 2492 
Q 391 2531 309 2531 
Q 222 2531 100 2484 
L 53 2597 
L 916 2947 
L 1050 2947 
L 1050 2338 
z
" transform="scale(0.015625)"/>
      </defs>
      <use xlink:href="#TimesNewRomanPSMT-50"/>
      <use xlink:href="#TimesNewRomanPSMT-72" transform="translate(55.615234 0)"/>
      <use xlink:href="#TimesNewRomanPSMT-65" transform="translate(88.916016 0)"/>
      <use xlink:href="#TimesNewRomanPSMT-6d" transform="translate(133.300781 0)"/>
      <use xlink:href="#TimesNewRomanPSMT-61" transform="translate(211.083984 0)"/>
      <use xlink:href="#TimesNewRomanPSMT-74" transform="translate(255.46875 0)"/>
      <use xlink:href="#TimesNewRomanPSMT-75" transform="translate(283.251953 0)"/>
      <use xlink:href="#TimesNewRomanPSMT-72" transform="translate(333.251953 0)"/>
      <use xlink:href="#TimesNewRomanPSMT-65" transform="translate(366.552734 0)"/>
     </g>
    </g>
    <g id="patch_11">
     <path d="M 49.34 88.357187 
L 69.34 88.357187 
L 69.34 81.357187 
L 49.34 81.357187 
z
" style="fill: #8d5993; stroke: #ffffff; stroke-linejoin: miter"/>
    </g>
    <g id="text_16">
     <!-- Stepomission -->
     <g style="fill: #262626" transform="translate(77.34 88.357187) scale(0.1 -0.1)">
      <use xlink:href="#TimesNewRomanPSMT-53"/>
      <use xlink:href="#TimesNewRomanPSMT-74" transform="translate(55.615234 0)"/>
      <use xlink:href="#TimesNewRomanPSMT-65" transform="translate(83.398438 0)"/>
      <use xlink:href="#TimesNewRomanPSMT-70" transform="translate(127.783203 0)"/>
      <use xlink:href="#TimesNewRomanPSMT-6f" transform="translate(177.783203 0)"/>
      <use xlink:href="#TimesNewRomanPSMT-6d" transform="translate(227.783203 0)"/>
      <use xlink:href="#TimesNewRomanPSMT-69" transform="translate(305.566406 0)"/>
      <use xlink:href="#TimesNewRomanPSMT-73" transform="translate(333.349609 0)"/>
      <use xlink:href="#TimesNewRomanPSMT-73" transform="translate(372.265625 0)"/>
      <use xlink:href="#TimesNewRomanPSMT-69" transform="translate(411.181641 0)"/>
      <use xlink:href="#TimesNewRomanPSMT-6f" transform="translate(438.964844 0)"/>
      <use xlink:href="#TimesNewRomanPSMT-6e" transform="translate(488.964844 0)"/>
     </g>
    </g>
   </g>
  </g>
 </g>
 <defs>
  <clipPath id="p937648003c">
   <rect x="40.34" y="29.94" width="631.435294" height="501.22"/>
  </clipPath>
 </defs>
</svg>
