<?xml version="1.0" encoding="utf-8" standalone="no"?>
<!DOCTYPE svg PUBLIC "-//W3C//DTD SVG 1.1//EN"
  "http://www.w3.org/Graphics/SVG/1.1/DTD/svg11.dtd">
<svg xmlns:xlink="http://www.w3.org/1999/xlink" width="720pt" height="576pt" viewBox="0 0 720 576" xmlns="http://www.w3.org/2000/svg" version="1.1">
 <metadata>
  <rdf:RDF xmlns:dc="http://purl.org/dc/elements/1.1/" xmlns:cc="http://creativecommons.org/ns#" xmlns:rdf="http://www.w3.org/1999/02/22-rdf-syntax-ns#">
   <cc:Work>
    <dc:type rdf:resource="http://purl.org/dc/dcmitype/StillImage"/>
    <dc:date>2025-06-27T15:15:26.772095</dc:date>
    <dc:format>image/svg+xml</dc:format>
    <dc:creator>
     <cc:Agent>
      <dc:title>Matplotlib v3.10.3, https://matplotlib.org/</dc:title>
     </cc:Agent>
    </dc:creator>
   </cc:Work>
  </rdf:RDF>
 </metadata>
 <defs>
  <style type="text/css">*{stroke-linejoin: round; stroke-linecap: butt}</style>
 </defs>
 <g id="figure_1">
  <g id="patch_1">
   <path d="M 0 576 
L 720 576 
L 720 0 
L 0 0 
z
" style="fill: #ffffff"/>
  </g>
  <g id="axes_1">
   <g id="patch_2">
    <path d="M 40.79 531.52 
L 669.521556 531.52 
L 669.521556 30.12 
L 40.79 30.12 
z
" style="fill: #ffffff"/>
   </g>
   <g id="FillBetweenPolyCollection_1">
    <path d="M 40.79 406.17 
L 40.79 531.52 
L 43.236426 531.52 
L 45.682853 531.52 
L 48.129279 531.52 
L 50.575705 531.52 
L 53.022131 531.52 
L 55.468558 531.52 
L 57.914984 531.52 
L 60.36141 531.52 
L 62.807837 531.52 
L 65.254263 531.52 
L 67.700689 531.52 
L 70.147115 531.52 
L 72.593542 531.52 
L 75.039968 531.52 
L 77.486394 531.52 
L 79.932821 531.52 
L 82.379247 531.52 
L 84.825673 531.52 
L 87.2721 531.52 
L 89.718526 531.52 
L 92.164952 531.52 
L 94.611378 531.52 
L 97.057805 531.52 
L 99.504231 531.52 
L 101.950657 531.52 
L 104.397084 531.52 
L 106.84351 531.52 
L 109.289936 531.52 
L 111.736362 531.52 
L 114.182789 531.52 
L 116.629215 531.52 
L 119.075641 531.52 
L 121.522068 531.52 
L 123.968494 531.52 
L 126.41492 531.52 
L 128.861346 531.52 
L 131.307773 531.52 
L 133.754199 531.52 
L 136.200625 531.52 
L 138.647052 531.52 
L 141.093478 531.52 
L 143.539904 531.52 
L 145.98633 531.52 
L 148.432757 531.52 
L 150.879183 531.52 
L 153.325609 531.52 
L 155.772036 531.52 
L 158.218462 531.52 
L 160.664888 531.52 
L 163.111314 531.52 
L 165.557741 531.52 
L 168.004167 531.52 
L 170.450593 531.52 
L 172.89702 531.52 
L 175.343446 531.52 
L 177.789872 531.52 
L 180.236299 531.52 
L 182.682725 531.52 
L 185.129151 531.52 
L 187.575577 531.52 
L 190.022004 531.52 
L 192.46843 531.52 
L 194.914856 531.52 
L 197.361283 531.52 
L 199.807709 531.52 
L 202.254135 531.52 
L 204.700561 531.52 
L 207.146988 531.52 
L 209.593414 531.52 
L 212.03984 531.52 
L 214.486267 531.52 
L 216.932693 531.52 
L 219.379119 531.52 
L 221.825545 531.52 
L 224.271972 531.52 
L 226.718398 531.52 
L 229.164824 531.52 
L 231.611251 531.52 
L 234.057677 531.52 
L 236.504103 531.52 
L 238.950529 531.52 
L 241.396956 531.52 
L 243.843382 531.52 
L 246.289808 531.52 
L 248.736235 531.52 
L 251.182661 531.52 
L 253.629087 531.52 
L 256.075513 531.52 
L 258.52194 531.52 
L 260.968366 531.52 
L 263.414792 531.52 
L 265.861219 531.52 
L 268.307645 531.52 
L 270.754071 531.52 
L 273.200498 531.52 
L 275.646924 531.52 
L 278.09335 531.52 
L 280.539776 531.52 
L 282.986203 531.52 
L 285.432629 531.52 
L 287.879055 531.52 
L 290.325482 531.52 
L 292.771908 531.52 
L 295.218334 531.52 
L 297.66476 531.52 
L 300.111187 531.52 
L 302.557613 531.52 
L 305.004039 531.52 
L 307.450466 531.52 
L 309.896892 531.52 
L 312.343318 531.52 
L 314.789744 531.52 
L 317.236171 531.52 
L 319.682597 531.52 
L 322.129023 531.52 
L 324.57545 531.52 
L 327.021876 531.52 
L 329.468302 531.52 
L 331.914728 531.52 
L 334.361155 531.52 
L 336.807581 531.52 
L 339.254007 531.52 
L 341.700434 531.52 
L 344.14686 531.52 
L 346.593286 531.52 
L 349.039712 531.52 
L 351.486139 531.52 
L 353.932565 531.52 
L 356.378991 531.52 
L 358.825418 531.52 
L 361.271844 531.52 
L 363.71827 531.52 
L 366.164697 531.52 
L 368.611123 531.52 
L 371.057549 531.52 
L 373.503975 531.52 
L 375.950402 531.52 
L 378.396828 531.52 
L 380.843254 531.52 
L 383.289681 531.52 
L 385.736107 531.52 
L 388.182533 531.52 
L 390.628959 531.52 
L 393.075386 531.52 
L 395.521812 531.52 
L 397.968238 531.52 
L 400.414665 531.52 
L 402.861091 531.52 
L 405.307517 531.52 
L 407.753943 531.52 
L 410.20037 531.52 
L 412.646796 531.52 
L 415.093222 531.52 
L 417.539649 531.52 
L 419.986075 531.52 
L 422.432501 531.52 
L 424.878927 531.52 
L 427.325354 531.52 
L 429.77178 531.52 
L 432.218206 531.52 
L 434.664633 531.52 
L 437.111059 531.52 
L 439.557485 531.52 
L 442.003911 531.52 
L 444.450338 531.52 
L 446.896764 531.52 
L 449.34319 531.52 
L 451.789617 531.52 
L 454.236043 531.52 
L 456.682469 531.52 
L 459.128896 531.52 
L 461.575322 531.52 
L 464.021748 531.52 
L 466.468174 531.52 
L 468.914601 531.52 
L 471.361027 531.52 
L 473.807453 531.52 
L 476.25388 531.52 
L 478.700306 531.52 
L 481.146732 531.52 
L 483.593158 531.52 
L 486.039585 531.52 
L 488.486011 531.52 
L 490.932437 531.52 
L 493.378864 531.52 
L 495.82529 531.52 
L 498.271716 531.52 
L 500.718142 531.52 
L 503.164569 531.52 
L 505.610995 531.52 
L 508.057421 531.52 
L 510.503848 531.52 
L 512.950274 531.52 
L 515.3967 531.52 
L 517.843126 531.52 
L 520.289553 531.52 
L 522.735979 531.52 
L 525.182405 531.52 
L 527.628832 531.52 
L 530.075258 531.52 
L 532.521684 531.52 
L 534.96811 531.52 
L 537.414537 531.52 
L 539.860963 531.52 
L 542.307389 531.52 
L 544.753816 531.52 
L 547.200242 531.52 
L 549.646668 531.52 
L 552.093095 531.52 
L 554.539521 531.52 
L 556.985947 531.52 
L 559.432373 531.52 
L 561.8788 531.52 
L 564.325226 531.52 
L 566.771652 531.52 
L 569.218079 531.52 
L 571.664505 531.52 
L 574.110931 531.52 
L 576.557357 531.52 
L 579.003784 531.52 
L 581.45021 531.52 
L 583.896636 531.52 
L 586.343063 531.52 
L 588.789489 531.52 
L 591.235915 531.52 
L 593.682341 531.52 
L 596.128768 531.52 
L 598.575194 531.52 
L 601.02162 531.52 
L 603.468047 531.52 
L 605.914473 531.52 
L 608.360899 531.52 
L 610.807325 531.52 
L 613.253752 531.52 
L 615.700178 531.52 
L 618.146604 531.52 
L 620.593031 531.52 
L 623.039457 531.52 
L 625.485883 531.52 
L 627.932309 531.52 
L 630.378736 531.52 
L 632.825162 531.52 
L 635.271588 531.52 
L 637.718015 531.52 
L 640.164441 531.52 
L 642.610867 531.52 
L 645.057294 531.52 
L 647.50372 531.52 
L 649.950146 531.52 
L 652.396572 531.52 
L 654.842999 531.52 
L 657.289425 531.52 
L 659.735851 531.52 
L 662.182278 531.52 
L 664.628704 531.52 
L 667.07513 531.52 
L 669.521556 531.52 
L 669.521556 280.82 
L 669.521556 280.82 
L 667.07513 531.52 
L 664.628704 30.12 
L 662.182278 30.12 
L 659.735851 92.795 
L 657.289425 30.12 
L 654.842999 197.253333 
L 652.396572 280.82 
L 649.950146 113.686667 
L 647.50372 197.253333 
L 645.057294 101.748571 
L 642.610867 197.253333 
L 640.164441 30.12 
L 637.718015 30.12 
L 635.271588 95.52 
L 632.825162 30.12 
L 630.378736 30.12 
L 627.932309 30.12 
L 625.485883 135.677895 
L 623.039457 30.12 
L 620.593031 30.12 
L 618.146604 141.542222 
L 615.700178 30.12 
L 613.253752 30.12 
L 610.807325 531.52 
L 608.360899 155.47 
L 605.914473 30.12 
L 603.468047 71.903333 
L 601.02162 30.12 
L 598.575194 30.12 
L 596.128768 155.47 
L 593.682341 197.253333 
L 591.235915 30.12 
L 588.789489 30.12 
L 586.343063 30.12 
L 583.896636 30.12 
L 581.45021 197.253333 
L 579.003784 30.12 
L 576.557357 75.701818 
L 574.110931 173.377143 
L 571.664505 101.748571 
L 569.218079 531.52 
L 566.771652 101.748571 
L 564.325226 280.82 
L 561.8788 30.12 
L 559.432373 280.82 
L 556.985947 30.12 
L 554.539521 184.396923 
L 552.093095 280.82 
L 549.646668 30.12 
L 547.200242 30.12 
L 544.753816 280.82 
L 542.307389 30.12 
L 539.860963 30.12 
L 537.414537 30.12 
L 534.96811 197.253333 
L 532.521684 245.005714 
L 530.075258 330.96 
L 527.628832 280.82 
L 525.182405 30.12 
L 522.735979 145.827692 
L 520.289553 531.52 
L 517.843126 113.686667 
L 515.3967 90.288 
L 512.950274 65.934286 
L 510.503848 531.52 
L 508.057421 230.68 
L 505.610995 30.12 
L 503.164569 531.52 
L 500.718142 280.82 
L 498.271716 30.12 
L 495.82529 30.12 
L 493.378864 30.12 
L 490.932437 30.12 
L 488.486011 30.12 
L 486.039585 388.262857 
L 483.593158 30.12 
L 481.146732 130.4 
L 478.700306 30.12 
L 476.25388 173.377143 
L 473.807453 30.12 
L 471.361027 197.253333 
L 468.914601 113.686667 
L 466.468174 230.68 
L 464.021748 531.52 
L 461.575322 280.82 
L 459.128896 30.12 
L 456.682469 155.47 
L 454.236043 30.12 
L 451.789617 30.12 
L 449.34319 280.82 
L 446.896764 197.253333 
L 444.450338 30.12 
L 442.003911 80.26 
L 439.557485 30.12 
L 437.111059 30.12 
L 434.664633 30.12 
L 432.218206 170.045581 
L 429.77178 180.54 
L 427.325354 144.074545 
L 424.878927 280.82 
L 422.432501 364.386667 
L 419.986075 280.82 
L 417.539649 280.82 
L 415.093222 280.82 
L 412.646796 80.26 
L 410.20037 280.82 
L 407.753943 214.846316 
L 405.307517 280.82 
L 402.861091 245.005714 
L 400.414665 141.542222 
L 397.968238 30.12 
L 395.521812 30.12 
L 393.075386 197.253333 
L 390.628959 155.47 
L 388.182533 197.253333 
L 385.736107 193.842449 
L 383.289681 218.145 
L 380.843254 221.831765 
L 378.396828 197.253333 
L 375.950402 180.54 
L 373.503975 327.245926 
L 371.057549 30.12 
L 368.611123 197.253333 
L 366.164697 101.748571 
L 363.71827 92.795 
L 361.271844 230.68 
L 358.825418 173.377143 
L 356.378991 197.253333 
L 353.932565 191.284286 
L 351.486139 352.448571 
L 349.039712 230.68 
L 346.593286 230.68 
L 344.14686 183.325556 
L 341.700434 188.456842 
L 339.254007 173.377143 
L 336.807581 260.764 
L 334.361155 219.838919 
L 331.914728 267.625263 
L 329.468302 148.096471 
L 327.021876 330.96 
L 324.57545 280.82 
L 322.129023 197.253333 
L 319.682597 118.602353 
L 317.236171 92.795 
L 314.789744 230.68 
L 312.343318 264.106667 
L 309.896892 280.82 
L 307.450466 30.12 
L 305.004039 221.129524 
L 302.557613 155.47 
L 300.111187 175.262105 
L 297.66476 406.17 
L 295.218334 252.964444 
L 292.771908 239.036667 
L 290.325482 264.106667 
L 287.879055 130.4 
L 285.432629 531.52 
L 282.986203 30.12 
L 280.539776 230.68 
L 278.09335 295.567059 
L 275.646924 173.377143 
L 273.200498 197.253333 
L 270.754071 218.145 
L 268.307645 364.386667 
L 265.861219 145.827692 
L 263.414792 261.535385 
L 260.968366 30.12 
L 258.52194 431.24 
L 256.075513 531.52 
L 253.629087 197.253333 
L 251.182661 235.238182 
L 248.736235 316.634286 
L 246.289808 160.92 
L 243.843382 124.1325 
L 241.396956 269.92 
L 238.950529 225.108889 
L 236.504103 212.447273 
L 234.057677 30.12 
L 231.611251 447.953333 
L 229.164824 197.253333 
L 226.718398 531.52 
L 224.271972 30.12 
L 221.825545 280.82 
L 219.379119 215.823704 
L 216.932693 228.041053 
L 214.486267 258.029091 
L 212.03984 308.675556 
L 209.593414 330.96 
L 207.146988 431.24 
L 204.700561 308.675556 
L 202.254135 308.675556 
L 199.807709 197.253333 
L 197.361283 211.181111 
L 194.914856 166.865455 
L 192.46843 30.12 
L 190.022004 316.634286 
L 187.575577 364.386667 
L 185.129151 330.96 
L 182.682725 280.82 
L 180.236299 259.928333 
L 177.789872 280.82 
L 175.343446 230.68 
L 172.89702 330.96 
L 170.450593 251.075932 
L 168.004167 218.145 
L 165.557741 197.253333 
L 163.111314 330.96 
L 160.664888 280.82 
L 158.218462 364.386667 
L 155.772036 218.145 
L 153.325609 531.52 
L 150.879183 343.495 
L 148.432757 447.953333 
L 145.98633 308.675556 
L 143.539904 431.24 
L 141.093478 440.356364 
L 138.647052 431.24 
L 136.200625 270.792 
L 133.754199 280.82 
L 131.307773 280.82 
L 128.861346 294.014737 
L 126.41492 280.82 
L 123.968494 531.52 
L 121.522068 531.52 
L 119.075641 531.52 
L 116.629215 531.52 
L 114.182789 531.52 
L 111.736362 531.52 
L 109.289936 308.675556 
L 106.84351 280.82 
L 104.397084 531.52 
L 101.950657 531.52 
L 99.504231 531.52 
L 97.057805 406.17 
L 94.611378 531.52 
L 92.164952 184.396923 
L 89.718526 531.52 
L 87.2721 280.82 
L 84.825673 406.17 
L 82.379247 338.673846 
L 79.932821 330.96 
L 77.486394 349.192727 
L 75.039968 252.964444 
L 72.593542 394.774545 
L 70.147115 531.52 
L 67.700689 330.96 
L 65.254263 425.962105 
L 62.807837 406.17 
L 60.36141 406.17 
L 57.914984 381.1 
L 55.468558 354.555294 
L 53.022131 406.17 
L 50.575705 447.953333 
L 48.129279 531.52 
L 45.682853 250.736 
L 43.236426 197.253333 
L 40.79 406.17 
z
" clip-path="url(#pbef26d22a4)" style="fill: #5386b6"/>
   </g>
   <g id="FillBetweenPolyCollection_2">
    <path d="M 40.79 30.12 
L 40.79 406.17 
L 43.236426 197.253333 
L 45.682853 250.736 
L 48.129279 531.52 
L 50.575705 447.953333 
L 53.022131 406.17 
L 55.468558 354.555294 
L 57.914984 381.1 
L 60.36141 406.17 
L 62.807837 406.17 
L 65.254263 425.962105 
L 67.700689 330.96 
L 70.147115 531.52 
L 72.593542 394.774545 
L 75.039968 252.964444 
L 77.486394 349.192727 
L 79.932821 330.96 
L 82.379247 338.673846 
L 84.825673 406.17 
L 87.2721 280.82 
L 89.718526 531.52 
L 92.164952 184.396923 
L 94.611378 531.52 
L 97.057805 406.17 
L 99.504231 531.52 
L 101.950657 531.52 
L 104.397084 531.52 
L 106.84351 280.82 
L 109.289936 308.675556 
L 111.736362 531.52 
L 114.182789 531.52 
L 116.629215 531.52 
L 119.075641 531.52 
L 121.522068 531.52 
L 123.968494 531.52 
L 126.41492 280.82 
L 128.861346 294.014737 
L 131.307773 280.82 
L 133.754199 280.82 
L 136.200625 270.792 
L 138.647052 431.24 
L 141.093478 440.356364 
L 143.539904 431.24 
L 145.98633 308.675556 
L 148.432757 447.953333 
L 150.879183 343.495 
L 153.325609 531.52 
L 155.772036 218.145 
L 158.218462 364.386667 
L 160.664888 280.82 
L 163.111314 330.96 
L 165.557741 197.253333 
L 168.004167 218.145 
L 170.450593 251.075932 
L 172.89702 330.96 
L 175.343446 230.68 
L 177.789872 280.82 
L 180.236299 259.928333 
L 182.682725 280.82 
L 185.129151 330.96 
L 187.575577 364.386667 
L 190.022004 316.634286 
L 192.46843 30.12 
L 194.914856 166.865455 
L 197.361283 211.181111 
L 199.807709 197.253333 
L 202.254135 308.675556 
L 204.700561 308.675556 
L 207.146988 431.24 
L 209.593414 330.96 
L 212.03984 308.675556 
L 214.486267 258.029091 
L 216.932693 228.041053 
L 219.379119 215.823704 
L 221.825545 280.82 
L 224.271972 30.12 
L 226.718398 531.52 
L 229.164824 197.253333 
L 231.611251 447.953333 
L 234.057677 30.12 
L 236.504103 212.447273 
L 238.950529 225.108889 
L 241.396956 269.92 
L 243.843382 124.1325 
L 246.289808 160.92 
L 248.736235 316.634286 
L 251.182661 235.238182 
L 253.629087 197.253333 
L 256.075513 531.52 
L 258.52194 431.24 
L 260.968366 30.12 
L 263.414792 261.535385 
L 265.861219 145.827692 
L 268.307645 364.386667 
L 270.754071 218.145 
L 273.200498 197.253333 
L 275.646924 173.377143 
L 278.09335 295.567059 
L 280.539776 230.68 
L 282.986203 30.12 
L 285.432629 531.52 
L 287.879055 130.4 
L 290.325482 264.106667 
L 292.771908 239.036667 
L 295.218334 252.964444 
L 297.66476 406.17 
L 300.111187 175.262105 
L 302.557613 155.47 
L 305.004039 221.129524 
L 307.450466 30.12 
L 309.896892 280.82 
L 312.343318 264.106667 
L 314.789744 230.68 
L 317.236171 92.795 
L 319.682597 118.602353 
L 322.129023 197.253333 
L 324.57545 280.82 
L 327.021876 330.96 
L 329.468302 148.096471 
L 331.914728 267.625263 
L 334.361155 219.838919 
L 336.807581 260.764 
L 339.254007 173.377143 
L 341.700434 188.456842 
L 344.14686 183.325556 
L 346.593286 230.68 
L 349.039712 230.68 
L 351.486139 352.448571 
L 353.932565 191.284286 
L 356.378991 197.253333 
L 358.825418 173.377143 
L 361.271844 230.68 
L 363.71827 92.795 
L 366.164697 101.748571 
L 368.611123 197.253333 
L 371.057549 30.12 
L 373.503975 327.245926 
L 375.950402 180.54 
L 378.396828 197.253333 
L 380.843254 221.831765 
L 383.289681 218.145 
L 385.736107 193.842449 
L 388.182533 197.253333 
L 390.628959 155.47 
L 393.075386 197.253333 
L 395.521812 30.12 
L 397.968238 30.12 
L 400.414665 141.542222 
L 402.861091 245.005714 
L 405.307517 280.82 
L 407.753943 214.846316 
L 410.20037 280.82 
L 412.646796 80.26 
L 415.093222 280.82 
L 417.539649 280.82 
L 419.986075 280.82 
L 422.432501 364.386667 
L 424.878927 280.82 
L 427.325354 144.074545 
L 429.77178 180.54 
L 432.218206 170.045581 
L 434.664633 30.12 
L 437.111059 30.12 
L 439.557485 30.12 
L 442.003911 80.26 
L 444.450338 30.12 
L 446.896764 197.253333 
L 449.34319 280.82 
L 451.789617 30.12 
L 454.236043 30.12 
L 456.682469 155.47 
L 459.128896 30.12 
L 461.575322 280.82 
L 464.021748 531.52 
L 466.468174 230.68 
L 468.914601 113.686667 
L 471.361027 197.253333 
L 473.807453 30.12 
L 476.25388 173.377143 
L 478.700306 30.12 
L 481.146732 130.4 
L 483.593158 30.12 
L 486.039585 388.262857 
L 488.486011 30.12 
L 490.932437 30.12 
L 493.378864 30.12 
L 495.82529 30.12 
L 498.271716 30.12 
L 500.718142 280.82 
L 503.164569 531.52 
L 505.610995 30.12 
L 508.057421 230.68 
L 510.503848 531.52 
L 512.950274 65.934286 
L 515.3967 90.288 
L 517.843126 113.686667 
L 520.289553 531.52 
L 522.735979 145.827692 
L 525.182405 30.12 
L 527.628832 280.82 
L 530.075258 330.96 
L 532.521684 245.005714 
L 534.96811 197.253333 
L 537.414537 30.12 
L 539.860963 30.12 
L 542.307389 30.12 
L 544.753816 280.82 
L 547.200242 30.12 
L 549.646668 30.12 
L 552.093095 280.82 
L 554.539521 184.396923 
L 556.985947 30.12 
L 559.432373 280.82 
L 561.8788 30.12 
L 564.325226 280.82 
L 566.771652 101.748571 
L 569.218079 531.52 
L 571.664505 101.748571 
L 574.110931 173.377143 
L 576.557357 75.701818 
L 579.003784 30.12 
L 581.45021 197.253333 
L 583.896636 30.12 
L 586.343063 30.12 
L 588.789489 30.12 
L 591.235915 30.12 
L 593.682341 197.253333 
L 596.128768 155.47 
L 598.575194 30.12 
L 601.02162 30.12 
L 603.468047 71.903333 
L 605.914473 30.12 
L 608.360899 155.47 
L 610.807325 531.52 
L 613.253752 30.12 
L 615.700178 30.12 
L 618.146604 141.542222 
L 620.593031 30.12 
L 623.039457 30.12 
L 625.485883 135.677895 
L 627.932309 30.12 
L 630.378736 30.12 
L 632.825162 30.12 
L 635.271588 95.52 
L 637.718015 30.12 
L 640.164441 30.12 
L 642.610867 197.253333 
L 645.057294 101.748571 
L 647.50372 197.253333 
L 649.950146 113.686667 
L 652.396572 280.82 
L 654.842999 197.253333 
L 657.289425 30.12 
L 659.735851 92.795 
L 662.182278 30.12 
L 664.628704 30.12 
L 667.07513 531.52 
L 669.521556 280.82 
L 669.521556 30.12 
L 669.521556 30.12 
L 667.07513 531.52 
L 664.628704 30.12 
L 662.182278 30.12 
L 659.735851 30.12 
L 657.289425 30.12 
L 654.842999 30.12 
L 652.396572 30.12 
L 649.950146 30.12 
L 647.50372 30.12 
L 645.057294 30.12 
L 642.610867 113.686667 
L 640.164441 30.12 
L 637.718015 30.12 
L 635.271588 51.92 
L 632.825162 30.12 
L 630.378736 30.12 
L 627.932309 30.12 
L 625.485883 30.12 
L 623.039457 30.12 
L 620.593031 30.12 
L 618.146604 30.12 
L 615.700178 30.12 
L 613.253752 30.12 
L 610.807325 531.52 
L 608.360899 30.12 
L 605.914473 30.12 
L 603.468047 30.12 
L 601.02162 30.12 
L 598.575194 30.12 
L 596.128768 30.12 
L 593.682341 30.12 
L 591.235915 30.12 
L 588.789489 30.12 
L 586.343063 30.12 
L 583.896636 30.12 
L 581.45021 30.12 
L 579.003784 30.12 
L 576.557357 30.12 
L 574.110931 30.12 
L 571.664505 30.12 
L 569.218079 30.12 
L 566.771652 30.12 
L 564.325226 30.12 
L 561.8788 30.12 
L 559.432373 30.12 
L 556.985947 30.12 
L 554.539521 30.12 
L 552.093095 280.82 
L 549.646668 30.12 
L 547.200242 30.12 
L 544.753816 30.12 
L 542.307389 30.12 
L 539.860963 30.12 
L 537.414537 30.12 
L 534.96811 30.12 
L 532.521684 101.748571 
L 530.075258 30.12 
L 527.628832 30.12 
L 525.182405 30.12 
L 522.735979 68.689231 
L 520.289553 30.12 
L 517.843126 30.12 
L 515.3967 50.176 
L 512.950274 30.12 
L 510.503848 531.52 
L 508.057421 30.12 
L 505.610995 30.12 
L 503.164569 30.12 
L 500.718142 30.12 
L 498.271716 30.12 
L 495.82529 30.12 
L 493.378864 30.12 
L 490.932437 30.12 
L 488.486011 30.12 
L 486.039585 30.12 
L 483.593158 30.12 
L 481.146732 130.4 
L 478.700306 30.12 
L 476.25388 30.12 
L 473.807453 30.12 
L 471.361027 85.831111 
L 468.914601 30.12 
L 466.468174 130.4 
L 464.021748 30.12 
L 461.575322 30.12 
L 459.128896 30.12 
L 456.682469 92.795 
L 454.236043 30.12 
L 451.789617 30.12 
L 449.34319 30.12 
L 446.896764 30.12 
L 444.450338 30.12 
L 442.003911 30.12 
L 439.557485 30.12 
L 437.111059 30.12 
L 434.664633 30.12 
L 432.218206 76.76186 
L 429.77178 30.12 
L 427.325354 37.71697 
L 424.878927 30.12 
L 422.432501 30.12 
L 419.986075 30.12 
L 417.539649 30.12 
L 415.093222 280.82 
L 412.646796 30.12 
L 410.20037 30.12 
L 407.753943 82.898947 
L 405.307517 30.12 
L 402.861091 30.12 
L 400.414665 85.831111 
L 397.968238 30.12 
L 395.521812 30.12 
L 393.075386 53.99619 
L 390.628959 30.12 
L 388.182533 130.4 
L 385.736107 40.352653 
L 383.289681 39.073571 
L 380.843254 30.12 
L 378.396828 30.12 
L 375.950402 30.12 
L 373.503975 48.69037 
L 371.057549 30.12 
L 368.611123 30.12 
L 366.164697 30.12 
L 363.71827 30.12 
L 361.271844 58.771429 
L 358.825418 30.12 
L 356.378991 63.546667 
L 353.932565 30.12 
L 351.486139 65.934286 
L 349.039712 30.12 
L 346.593286 30.12 
L 344.14686 44.047778 
L 341.700434 30.12 
L 339.254007 30.12 
L 336.807581 30.12 
L 334.361155 30.12 
L 331.914728 56.509474 
L 329.468302 30.12 
L 327.021876 30.12 
L 324.57545 30.12 
L 322.129023 30.12 
L 319.682597 30.12 
L 317.236171 30.12 
L 314.789744 30.12 
L 312.343318 30.12 
L 309.896892 30.12 
L 307.450466 30.12 
L 305.004039 77.872381 
L 302.557613 30.12 
L 300.111187 43.314737 
L 297.66476 155.47 
L 295.218334 85.831111 
L 292.771908 30.12 
L 290.325482 96.973333 
L 287.879055 30.12 
L 285.432629 531.52 
L 282.986203 30.12 
L 280.539776 30.12 
L 278.09335 59.614118 
L 275.646924 30.12 
L 273.200498 30.12 
L 270.754071 61.4575 
L 268.307645 30.12 
L 265.861219 30.12 
L 263.414792 30.12 
L 260.968366 30.12 
L 258.52194 30.12 
L 256.075513 30.12 
L 253.629087 30.12 
L 251.182661 30.12 
L 248.736235 101.748571 
L 246.289808 30.12 
L 243.843382 30.12 
L 241.396956 44.653333 
L 238.950529 30.12 
L 236.504103 75.701818 
L 234.057677 30.12 
L 231.611251 30.12 
L 229.164824 30.12 
L 226.718398 30.12 
L 224.271972 30.12 
L 221.825545 30.12 
L 219.379119 48.69037 
L 216.932693 43.314737 
L 214.486267 30.12 
L 212.03984 30.12 
L 209.593414 30.12 
L 207.146988 30.12 
L 204.700561 30.12 
L 202.254135 30.12 
L 199.807709 113.686667 
L 197.361283 30.12 
L 194.914856 30.12 
L 192.46843 30.12 
L 190.022004 30.12 
L 187.575577 30.12 
L 185.129151 30.12 
L 182.682725 61.4575 
L 180.236299 30.12 
L 177.789872 30.12 
L 175.343446 30.12 
L 172.89702 30.12 
L 170.450593 38.618305 
L 168.004167 30.12 
L 165.557741 30.12 
L 163.111314 30.12 
L 160.664888 30.12 
L 158.218462 30.12 
L 155.772036 30.12 
L 153.325609 30.12 
L 150.879183 30.12 
L 148.432757 113.686667 
L 145.98633 30.12 
L 143.539904 130.4 
L 141.093478 121.283636 
L 138.647052 30.12 
L 136.200625 30.12 
L 133.754199 30.12 
L 131.307773 30.12 
L 128.861346 30.12 
L 126.41492 130.4 
L 123.968494 155.47 
L 121.522068 30.12 
L 119.075641 30.12 
L 116.629215 30.12 
L 114.182789 30.12 
L 111.736362 30.12 
L 109.289936 30.12 
L 106.84351 30.12 
L 104.397084 30.12 
L 101.950657 30.12 
L 99.504231 531.52 
L 97.057805 30.12 
L 94.611378 531.52 
L 92.164952 30.12 
L 89.718526 30.12 
L 87.2721 30.12 
L 84.825673 30.12 
L 82.379247 49.404615 
L 79.932821 30.12 
L 77.486394 121.283636 
L 75.039968 85.831111 
L 72.593542 121.283636 
L 70.147115 30.12 
L 67.700689 130.4 
L 65.254263 56.509474 
L 62.807837 30.12 
L 60.36141 30.12 
L 57.914984 80.26 
L 55.468558 30.12 
L 53.022131 30.12 
L 50.575705 30.12 
L 48.129279 30.12 
L 45.682853 30.12 
L 43.236426 30.12 
L 40.79 30.12 
z
" clip-path="url(#pbef26d22a4)" style="fill: #d57459"/>
   </g>
   <g id="FillBetweenPolyCollection_3">
    <path d="M 40.79 30.12 
L 40.79 30.12 
L 43.236426 30.12 
L 45.682853 30.12 
L 48.129279 30.12 
L 50.575705 30.12 
L 53.022131 30.12 
L 55.468558 30.12 
L 57.914984 80.26 
L 60.36141 30.12 
L 62.807837 30.12 
L 65.254263 56.509474 
L 67.700689 130.4 
L 70.147115 30.12 
L 72.593542 121.283636 
L 75.039968 85.831111 
L 77.486394 121.283636 
L 79.932821 30.12 
L 82.379247 49.404615 
L 84.825673 30.12 
L 87.2721 30.12 
L 89.718526 30.12 
L 92.164952 30.12 
L 94.611378 531.52 
L 97.057805 30.12 
L 99.504231 531.52 
L 101.950657 30.12 
L 104.397084 30.12 
L 106.84351 30.12 
L 109.289936 30.12 
L 111.736362 30.12 
L 114.182789 30.12 
L 116.629215 30.12 
L 119.075641 30.12 
L 121.522068 30.12 
L 123.968494 155.47 
L 126.41492 130.4 
L 128.861346 30.12 
L 131.307773 30.12 
L 133.754199 30.12 
L 136.200625 30.12 
L 138.647052 30.12 
L 141.093478 121.283636 
L 143.539904 130.4 
L 145.98633 30.12 
L 148.432757 113.686667 
L 150.879183 30.12 
L 153.325609 30.12 
L 155.772036 30.12 
L 158.218462 30.12 
L 160.664888 30.12 
L 163.111314 30.12 
L 165.557741 30.12 
L 168.004167 30.12 
L 170.450593 38.618305 
L 172.89702 30.12 
L 175.343446 30.12 
L 177.789872 30.12 
L 180.236299 30.12 
L 182.682725 61.4575 
L 185.129151 30.12 
L 187.575577 30.12 
L 190.022004 30.12 
L 192.46843 30.12 
L 194.914856 30.12 
L 197.361283 30.12 
L 199.807709 113.686667 
L 202.254135 30.12 
L 204.700561 30.12 
L 207.146988 30.12 
L 209.593414 30.12 
L 212.03984 30.12 
L 214.486267 30.12 
L 216.932693 43.314737 
L 219.379119 48.69037 
L 221.825545 30.12 
L 224.271972 30.12 
L 226.718398 30.12 
L 229.164824 30.12 
L 231.611251 30.12 
L 234.057677 30.12 
L 236.504103 75.701818 
L 238.950529 30.12 
L 241.396956 44.653333 
L 243.843382 30.12 
L 246.289808 30.12 
L 248.736235 101.748571 
L 251.182661 30.12 
L 253.629087 30.12 
L 256.075513 30.12 
L 258.52194 30.12 
L 260.968366 30.12 
L 263.414792 30.12 
L 265.861219 30.12 
L 268.307645 30.12 
L 270.754071 61.4575 
L 273.200498 30.12 
L 275.646924 30.12 
L 278.09335 59.614118 
L 280.539776 30.12 
L 282.986203 30.12 
L 285.432629 531.52 
L 287.879055 30.12 
L 290.325482 96.973333 
L 292.771908 30.12 
L 295.218334 85.831111 
L 297.66476 155.47 
L 300.111187 43.314737 
L 302.557613 30.12 
L 305.004039 77.872381 
L 307.450466 30.12 
L 309.896892 30.12 
L 312.343318 30.12 
L 314.789744 30.12 
L 317.236171 30.12 
L 319.682597 30.12 
L 322.129023 30.12 
L 324.57545 30.12 
L 327.021876 30.12 
L 329.468302 30.12 
L 331.914728 56.509474 
L 334.361155 30.12 
L 336.807581 30.12 
L 339.254007 30.12 
L 341.700434 30.12 
L 344.14686 44.047778 
L 346.593286 30.12 
L 349.039712 30.12 
L 351.486139 65.934286 
L 353.932565 30.12 
L 356.378991 63.546667 
L 358.825418 30.12 
L 361.271844 58.771429 
L 363.71827 30.12 
L 366.164697 30.12 
L 368.611123 30.12 
L 371.057549 30.12 
L 373.503975 48.69037 
L 375.950402 30.12 
L 378.396828 30.12 
L 380.843254 30.12 
L 383.289681 39.073571 
L 385.736107 40.352653 
L 388.182533 130.4 
L 390.628959 30.12 
L 393.075386 53.99619 
L 395.521812 30.12 
L 397.968238 30.12 
L 400.414665 85.831111 
L 402.861091 30.12 
L 405.307517 30.12 
L 407.753943 82.898947 
L 410.20037 30.12 
L 412.646796 30.12 
L 415.093222 280.82 
L 417.539649 30.12 
L 419.986075 30.12 
L 422.432501 30.12 
L 424.878927 30.12 
L 427.325354 37.71697 
L 429.77178 30.12 
L 432.218206 76.76186 
L 434.664633 30.12 
L 437.111059 30.12 
L 439.557485 30.12 
L 442.003911 30.12 
L 444.450338 30.12 
L 446.896764 30.12 
L 449.34319 30.12 
L 451.789617 30.12 
L 454.236043 30.12 
L 456.682469 92.795 
L 459.128896 30.12 
L 461.575322 30.12 
L 464.021748 30.12 
L 466.468174 130.4 
L 468.914601 30.12 
L 471.361027 85.831111 
L 473.807453 30.12 
L 476.25388 30.12 
L 478.700306 30.12 
L 481.146732 130.4 
L 483.593158 30.12 
L 486.039585 30.12 
L 488.486011 30.12 
L 490.932437 30.12 
L 493.378864 30.12 
L 495.82529 30.12 
L 498.271716 30.12 
L 500.718142 30.12 
L 503.164569 30.12 
L 505.610995 30.12 
L 508.057421 30.12 
L 510.503848 531.52 
L 512.950274 30.12 
L 515.3967 50.176 
L 517.843126 30.12 
L 520.289553 30.12 
L 522.735979 68.689231 
L 525.182405 30.12 
L 527.628832 30.12 
L 530.075258 30.12 
L 532.521684 101.748571 
L 534.96811 30.12 
L 537.414537 30.12 
L 539.860963 30.12 
L 542.307389 30.12 
L 544.753816 30.12 
L 547.200242 30.12 
L 549.646668 30.12 
L 552.093095 280.82 
L 554.539521 30.12 
L 556.985947 30.12 
L 559.432373 30.12 
L 561.8788 30.12 
L 564.325226 30.12 
L 566.771652 30.12 
L 569.218079 30.12 
L 571.664505 30.12 
L 574.110931 30.12 
L 576.557357 30.12 
L 579.003784 30.12 
L 581.45021 30.12 
L 583.896636 30.12 
L 586.343063 30.12 
L 588.789489 30.12 
L 591.235915 30.12 
L 593.682341 30.12 
L 596.128768 30.12 
L 598.575194 30.12 
L 601.02162 30.12 
L 603.468047 30.12 
L 605.914473 30.12 
L 608.360899 30.12 
L 610.807325 531.52 
L 613.253752 30.12 
L 615.700178 30.12 
L 618.146604 30.12 
L 620.593031 30.12 
L 623.039457 30.12 
L 625.485883 30.12 
L 627.932309 30.12 
L 630.378736 30.12 
L 632.825162 30.12 
L 635.271588 51.92 
L 637.718015 30.12 
L 640.164441 30.12 
L 642.610867 113.686667 
L 645.057294 30.12 
L 647.50372 30.12 
L 649.950146 30.12 
L 652.396572 30.12 
L 654.842999 30.12 
L 657.289425 30.12 
L 659.735851 30.12 
L 662.182278 30.12 
L 664.628704 30.12 
L 667.07513 531.52 
L 669.521556 30.12 
L 669.521556 30.12 
L 669.521556 30.12 
L 667.07513 30.12 
L 664.628704 30.12 
L 662.182278 30.12 
L 659.735851 30.12 
L 657.289425 30.12 
L 654.842999 30.12 
L 652.396572 30.12 
L 649.950146 30.12 
L 647.50372 30.12 
L 645.057294 30.12 
L 642.610867 113.686667 
L 640.164441 30.12 
L 637.718015 30.12 
L 635.271588 30.12 
L 632.825162 30.12 
L 630.378736 30.12 
L 627.932309 30.12 
L 625.485883 30.12 
L 623.039457 30.12 
L 620.593031 30.12 
L 618.146604 30.12 
L 615.700178 30.12 
L 613.253752 30.12 
L 610.807325 531.52 
L 608.360899 30.12 
L 605.914473 30.12 
L 603.468047 30.12 
L 601.02162 30.12 
L 598.575194 30.12 
L 596.128768 30.12 
L 593.682341 30.12 
L 591.235915 30.12 
L 588.789489 30.12 
L 586.343063 30.12 
L 583.896636 30.12 
L 581.45021 30.12 
L 579.003784 30.12 
L 576.557357 30.12 
L 574.110931 30.12 
L 571.664505 30.12 
L 569.218079 30.12 
L 566.771652 30.12 
L 564.325226 30.12 
L 561.8788 30.12 
L 559.432373 30.12 
L 556.985947 30.12 
L 554.539521 30.12 
L 552.093095 30.12 
L 549.646668 30.12 
L 547.200242 30.12 
L 544.753816 30.12 
L 542.307389 30.12 
L 539.860963 30.12 
L 537.414537 30.12 
L 534.96811 30.12 
L 532.521684 30.12 
L 530.075258 30.12 
L 527.628832 30.12 
L 525.182405 30.12 
L 522.735979 68.689231 
L 520.289553 30.12 
L 517.843126 30.12 
L 515.3967 50.176 
L 512.950274 30.12 
L 510.503848 531.52 
L 508.057421 30.12 
L 505.610995 30.12 
L 503.164569 30.12 
L 500.718142 30.12 
L 498.271716 30.12 
L 495.82529 30.12 
L 493.378864 30.12 
L 490.932437 30.12 
L 488.486011 30.12 
L 486.039585 30.12 
L 483.593158 30.12 
L 481.146732 30.12 
L 478.700306 30.12 
L 476.25388 30.12 
L 473.807453 30.12 
L 471.361027 85.831111 
L 468.914601 30.12 
L 466.468174 30.12 
L 464.021748 30.12 
L 461.575322 30.12 
L 459.128896 30.12 
L 456.682469 30.12 
L 454.236043 30.12 
L 451.789617 30.12 
L 449.34319 30.12 
L 446.896764 30.12 
L 444.450338 30.12 
L 442.003911 30.12 
L 439.557485 30.12 
L 437.111059 30.12 
L 434.664633 30.12 
L 432.218206 30.12 
L 429.77178 30.12 
L 427.325354 30.12 
L 424.878927 30.12 
L 422.432501 30.12 
L 419.986075 30.12 
L 417.539649 30.12 
L 415.093222 280.82 
L 412.646796 30.12 
L 410.20037 30.12 
L 407.753943 56.509474 
L 405.307517 30.12 
L 402.861091 30.12 
L 400.414665 85.831111 
L 397.968238 30.12 
L 395.521812 30.12 
L 393.075386 30.12 
L 390.628959 30.12 
L 388.182533 130.4 
L 385.736107 30.12 
L 383.289681 30.12 
L 380.843254 30.12 
L 378.396828 30.12 
L 375.950402 30.12 
L 373.503975 48.69037 
L 371.057549 30.12 
L 368.611123 30.12 
L 366.164697 30.12 
L 363.71827 30.12 
L 361.271844 30.12 
L 358.825418 30.12 
L 356.378991 63.546667 
L 353.932565 30.12 
L 351.486139 30.12 
L 349.039712 30.12 
L 346.593286 30.12 
L 344.14686 30.12 
L 341.700434 30.12 
L 339.254007 30.12 
L 336.807581 30.12 
L 334.361155 30.12 
L 331.914728 30.12 
L 329.468302 30.12 
L 327.021876 30.12 
L 324.57545 30.12 
L 322.129023 30.12 
L 319.682597 30.12 
L 317.236171 30.12 
L 314.789744 30.12 
L 312.343318 30.12 
L 309.896892 30.12 
L 307.450466 30.12 
L 305.004039 30.12 
L 302.557613 30.12 
L 300.111187 30.12 
L 297.66476 155.47 
L 295.218334 85.831111 
L 292.771908 30.12 
L 290.325482 30.12 
L 287.879055 30.12 
L 285.432629 531.52 
L 282.986203 30.12 
L 280.539776 30.12 
L 278.09335 30.12 
L 275.646924 30.12 
L 273.200498 30.12 
L 270.754071 61.4575 
L 268.307645 30.12 
L 265.861219 30.12 
L 263.414792 30.12 
L 260.968366 30.12 
L 258.52194 30.12 
L 256.075513 30.12 
L 253.629087 30.12 
L 251.182661 30.12 
L 248.736235 101.748571 
L 246.289808 30.12 
L 243.843382 30.12 
L 241.396956 37.386667 
L 238.950529 30.12 
L 236.504103 30.12 
L 234.057677 30.12 
L 231.611251 30.12 
L 229.164824 30.12 
L 226.718398 30.12 
L 224.271972 30.12 
L 221.825545 30.12 
L 219.379119 30.12 
L 216.932693 30.12 
L 214.486267 30.12 
L 212.03984 30.12 
L 209.593414 30.12 
L 207.146988 30.12 
L 204.700561 30.12 
L 202.254135 30.12 
L 199.807709 30.12 
L 197.361283 30.12 
L 194.914856 30.12 
L 192.46843 30.12 
L 190.022004 30.12 
L 187.575577 30.12 
L 185.129151 30.12 
L 182.682725 30.12 
L 180.236299 30.12 
L 177.789872 30.12 
L 175.343446 30.12 
L 172.89702 30.12 
L 170.450593 30.12 
L 168.004167 30.12 
L 165.557741 30.12 
L 163.111314 30.12 
L 160.664888 30.12 
L 158.218462 30.12 
L 155.772036 30.12 
L 153.325609 30.12 
L 150.879183 30.12 
L 148.432757 113.686667 
L 145.98633 30.12 
L 143.539904 130.4 
L 141.093478 30.12 
L 138.647052 30.12 
L 136.200625 30.12 
L 133.754199 30.12 
L 131.307773 30.12 
L 128.861346 30.12 
L 126.41492 80.26 
L 123.968494 30.12 
L 121.522068 30.12 
L 119.075641 30.12 
L 116.629215 30.12 
L 114.182789 30.12 
L 111.736362 30.12 
L 109.289936 30.12 
L 106.84351 30.12 
L 104.397084 30.12 
L 101.950657 30.12 
L 99.504231 30.12 
L 97.057805 30.12 
L 94.611378 531.52 
L 92.164952 30.12 
L 89.718526 30.12 
L 87.2721 30.12 
L 84.825673 30.12 
L 82.379247 30.12 
L 79.932821 30.12 
L 77.486394 75.701818 
L 75.039968 30.12 
L 72.593542 30.12 
L 70.147115 30.12 
L 67.700689 30.12 
L 65.254263 56.509474 
L 62.807837 30.12 
L 60.36141 30.12 
L 57.914984 80.26 
L 55.468558 30.12 
L 53.022131 30.12 
L 50.575705 30.12 
L 48.129279 30.12 
L 45.682853 30.12 
L 43.236426 30.12 
L 40.79 30.12 
z
" clip-path="url(#pbef26d22a4)" style="fill: #e8bc60"/>
   </g>
   <g id="FillBetweenPolyCollection_4">
    <path d="M 40.79 30.12 
L 40.79 30.12 
L 43.236426 30.12 
L 45.682853 30.12 
L 48.129279 30.12 
L 50.575705 30.12 
L 53.022131 30.12 
L 55.468558 30.12 
L 57.914984 80.26 
L 60.36141 30.12 
L 62.807837 30.12 
L 65.254263 56.509474 
L 67.700689 30.12 
L 70.147115 30.12 
L 72.593542 30.12 
L 75.039968 30.12 
L 77.486394 75.701818 
L 79.932821 30.12 
L 82.379247 30.12 
L 84.825673 30.12 
L 87.2721 30.12 
L 89.718526 30.12 
L 92.164952 30.12 
L 94.611378 531.52 
L 97.057805 30.12 
L 99.504231 30.12 
L 101.950657 30.12 
L 104.397084 30.12 
L 106.84351 30.12 
L 109.289936 30.12 
L 111.736362 30.12 
L 114.182789 30.12 
L 116.629215 30.12 
L 119.075641 30.12 
L 121.522068 30.12 
L 123.968494 30.12 
L 126.41492 80.26 
L 128.861346 30.12 
L 131.307773 30.12 
L 133.754199 30.12 
L 136.200625 30.12 
L 138.647052 30.12 
L 141.093478 30.12 
L 143.539904 130.4 
L 145.98633 30.12 
L 148.432757 113.686667 
L 150.879183 30.12 
L 153.325609 30.12 
L 155.772036 30.12 
L 158.218462 30.12 
L 160.664888 30.12 
L 163.111314 30.12 
L 165.557741 30.12 
L 168.004167 30.12 
L 170.450593 30.12 
L 172.89702 30.12 
L 175.343446 30.12 
L 177.789872 30.12 
L 180.236299 30.12 
L 182.682725 30.12 
L 185.129151 30.12 
L 187.575577 30.12 
L 190.022004 30.12 
L 192.46843 30.12 
L 194.914856 30.12 
L 197.361283 30.12 
L 199.807709 30.12 
L 202.254135 30.12 
L 204.700561 30.12 
L 207.146988 30.12 
L 209.593414 30.12 
L 212.03984 30.12 
L 214.486267 30.12 
L 216.932693 30.12 
L 219.379119 30.12 
L 221.825545 30.12 
L 224.271972 30.12 
L 226.718398 30.12 
L 229.164824 30.12 
L 231.611251 30.12 
L 234.057677 30.12 
L 236.504103 30.12 
L 238.950529 30.12 
L 241.396956 37.386667 
L 243.843382 30.12 
L 246.289808 30.12 
L 248.736235 101.748571 
L 251.182661 30.12 
L 253.629087 30.12 
L 256.075513 30.12 
L 258.52194 30.12 
L 260.968366 30.12 
L 263.414792 30.12 
L 265.861219 30.12 
L 268.307645 30.12 
L 270.754071 61.4575 
L 273.200498 30.12 
L 275.646924 30.12 
L 278.09335 30.12 
L 280.539776 30.12 
L 282.986203 30.12 
L 285.432629 531.52 
L 287.879055 30.12 
L 290.325482 30.12 
L 292.771908 30.12 
L 295.218334 85.831111 
L 297.66476 155.47 
L 300.111187 30.12 
L 302.557613 30.12 
L 305.004039 30.12 
L 307.450466 30.12 
L 309.896892 30.12 
L 312.343318 30.12 
L 314.789744 30.12 
L 317.236171 30.12 
L 319.682597 30.12 
L 322.129023 30.12 
L 324.57545 30.12 
L 327.021876 30.12 
L 329.468302 30.12 
L 331.914728 30.12 
L 334.361155 30.12 
L 336.807581 30.12 
L 339.254007 30.12 
L 341.700434 30.12 
L 344.14686 30.12 
L 346.593286 30.12 
L 349.039712 30.12 
L 351.486139 30.12 
L 353.932565 30.12 
L 356.378991 63.546667 
L 358.825418 30.12 
L 361.271844 30.12 
L 363.71827 30.12 
L 366.164697 30.12 
L 368.611123 30.12 
L 371.057549 30.12 
L 373.503975 48.69037 
L 375.950402 30.12 
L 378.396828 30.12 
L 380.843254 30.12 
L 383.289681 30.12 
L 385.736107 30.12 
L 388.182533 130.4 
L 390.628959 30.12 
L 393.075386 30.12 
L 395.521812 30.12 
L 397.968238 30.12 
L 400.414665 85.831111 
L 402.861091 30.12 
L 405.307517 30.12 
L 407.753943 56.509474 
L 410.20037 30.12 
L 412.646796 30.12 
L 415.093222 280.82 
L 417.539649 30.12 
L 419.986075 30.12 
L 422.432501 30.12 
L 424.878927 30.12 
L 427.325354 30.12 
L 429.77178 30.12 
L 432.218206 30.12 
L 434.664633 30.12 
L 437.111059 30.12 
L 439.557485 30.12 
L 442.003911 30.12 
L 444.450338 30.12 
L 446.896764 30.12 
L 449.34319 30.12 
L 451.789617 30.12 
L 454.236043 30.12 
L 456.682469 30.12 
L 459.128896 30.12 
L 461.575322 30.12 
L 464.021748 30.12 
L 466.468174 30.12 
L 468.914601 30.12 
L 471.361027 85.831111 
L 473.807453 30.12 
L 476.25388 30.12 
L 478.700306 30.12 
L 481.146732 30.12 
L 483.593158 30.12 
L 486.039585 30.12 
L 488.486011 30.12 
L 490.932437 30.12 
L 493.378864 30.12 
L 495.82529 30.12 
L 498.271716 30.12 
L 500.718142 30.12 
L 503.164569 30.12 
L 505.610995 30.12 
L 508.057421 30.12 
L 510.503848 531.52 
L 512.950274 30.12 
L 515.3967 50.176 
L 517.843126 30.12 
L 520.289553 30.12 
L 522.735979 68.689231 
L 525.182405 30.12 
L 527.628832 30.12 
L 530.075258 30.12 
L 532.521684 30.12 
L 534.96811 30.12 
L 537.414537 30.12 
L 539.860963 30.12 
L 542.307389 30.12 
L 544.753816 30.12 
L 547.200242 30.12 
L 549.646668 30.12 
L 552.093095 30.12 
L 554.539521 30.12 
L 556.985947 30.12 
L 559.432373 30.12 
L 561.8788 30.12 
L 564.325226 30.12 
L 566.771652 30.12 
L 569.218079 30.12 
L 571.664505 30.12 
L 574.110931 30.12 
L 576.557357 30.12 
L 579.003784 30.12 
L 581.45021 30.12 
L 583.896636 30.12 
L 586.343063 30.12 
L 588.789489 30.12 
L 591.235915 30.12 
L 593.682341 30.12 
L 596.128768 30.12 
L 598.575194 30.12 
L 601.02162 30.12 
L 603.468047 30.12 
L 605.914473 30.12 
L 608.360899 30.12 
L 610.807325 531.52 
L 613.253752 30.12 
L 615.700178 30.12 
L 618.146604 30.12 
L 620.593031 30.12 
L 623.039457 30.12 
L 625.485883 30.12 
L 627.932309 30.12 
L 630.378736 30.12 
L 632.825162 30.12 
L 635.271588 30.12 
L 637.718015 30.12 
L 640.164441 30.12 
L 642.610867 113.686667 
L 645.057294 30.12 
L 647.50372 30.12 
L 649.950146 30.12 
L 652.396572 30.12 
L 654.842999 30.12 
L 657.289425 30.12 
L 659.735851 30.12 
L 662.182278 30.12 
L 664.628704 30.12 
L 667.07513 30.12 
L 669.521556 30.12 
L 669.521556 30.12 
L 669.521556 30.12 
L 667.07513 30.12 
L 664.628704 30.12 
L 662.182278 30.12 
L 659.735851 30.12 
L 657.289425 30.12 
L 654.842999 30.12 
L 652.396572 30.12 
L 649.950146 30.12 
L 647.50372 30.12 
L 645.057294 30.12 
L 642.610867 30.12 
L 640.164441 30.12 
L 637.718015 30.12 
L 635.271588 30.12 
L 632.825162 30.12 
L 630.378736 30.12 
L 627.932309 30.12 
L 625.485883 30.12 
L 623.039457 30.12 
L 620.593031 30.12 
L 618.146604 30.12 
L 615.700178 30.12 
L 613.253752 30.12 
L 610.807325 30.12 
L 608.360899 30.12 
L 605.914473 30.12 
L 603.468047 30.12 
L 601.02162 30.12 
L 598.575194 30.12 
L 596.128768 30.12 
L 593.682341 30.12 
L 591.235915 30.12 
L 588.789489 30.12 
L 586.343063 30.12 
L 583.896636 30.12 
L 581.45021 30.12 
L 579.003784 30.12 
L 576.557357 30.12 
L 574.110931 30.12 
L 571.664505 30.12 
L 569.218079 30.12 
L 566.771652 30.12 
L 564.325226 30.12 
L 561.8788 30.12 
L 559.432373 30.12 
L 556.985947 30.12 
L 554.539521 30.12 
L 552.093095 30.12 
L 549.646668 30.12 
L 547.200242 30.12 
L 544.753816 30.12 
L 542.307389 30.12 
L 539.860963 30.12 
L 537.414537 30.12 
L 534.96811 30.12 
L 532.521684 30.12 
L 530.075258 30.12 
L 527.628832 30.12 
L 525.182405 30.12 
L 522.735979 30.12 
L 520.289553 30.12 
L 517.843126 30.12 
L 515.3967 30.12 
L 512.950274 30.12 
L 510.503848 30.12 
L 508.057421 30.12 
L 505.610995 30.12 
L 503.164569 30.12 
L 500.718142 30.12 
L 498.271716 30.12 
L 495.82529 30.12 
L 493.378864 30.12 
L 490.932437 30.12 
L 488.486011 30.12 
L 486.039585 30.12 
L 483.593158 30.12 
L 481.146732 30.12 
L 478.700306 30.12 
L 476.25388 30.12 
L 473.807453 30.12 
L 471.361027 30.12 
L 468.914601 30.12 
L 466.468174 30.12 
L 464.021748 30.12 
L 461.575322 30.12 
L 459.128896 30.12 
L 456.682469 30.12 
L 454.236043 30.12 
L 451.789617 30.12 
L 449.34319 30.12 
L 446.896764 30.12 
L 444.450338 30.12 
L 442.003911 30.12 
L 439.557485 30.12 
L 437.111059 30.12 
L 434.664633 30.12 
L 432.218206 30.12 
L 429.77178 30.12 
L 427.325354 30.12 
L 424.878927 30.12 
L 422.432501 30.12 
L 419.986075 30.12 
L 417.539649 30.12 
L 415.093222 30.12 
L 412.646796 30.12 
L 410.20037 30.12 
L 407.753943 30.12 
L 405.307517 30.12 
L 402.861091 30.12 
L 400.414665 30.12 
L 397.968238 30.12 
L 395.521812 30.12 
L 393.075386 30.12 
L 390.628959 30.12 
L 388.182533 30.12 
L 385.736107 30.12 
L 383.289681 30.12 
L 380.843254 30.12 
L 378.396828 30.12 
L 375.950402 30.12 
L 373.503975 30.12 
L 371.057549 30.12 
L 368.611123 30.12 
L 366.164697 30.12 
L 363.71827 30.12 
L 361.271844 30.12 
L 358.825418 30.12 
L 356.378991 30.12 
L 353.932565 30.12 
L 351.486139 30.12 
L 349.039712 30.12 
L 346.593286 30.12 
L 344.14686 30.12 
L 341.700434 30.12 
L 339.254007 30.12 
L 336.807581 30.12 
L 334.361155 30.12 
L 331.914728 30.12 
L 329.468302 30.12 
L 327.021876 30.12 
L 324.57545 30.12 
L 322.129023 30.12 
L 319.682597 30.12 
L 317.236171 30.12 
L 314.789744 30.12 
L 312.343318 30.12 
L 309.896892 30.12 
L 307.450466 30.12 
L 305.004039 30.12 
L 302.557613 30.12 
L 300.111187 30.12 
L 297.66476 30.12 
L 295.218334 30.12 
L 292.771908 30.12 
L 290.325482 30.12 
L 287.879055 30.12 
L 285.432629 30.12 
L 282.986203 30.12 
L 280.539776 30.12 
L 278.09335 30.12 
L 275.646924 30.12 
L 273.200498 30.12 
L 270.754071 30.12 
L 268.307645 30.12 
L 265.861219 30.12 
L 263.414792 30.12 
L 260.968366 30.12 
L 258.52194 30.12 
L 256.075513 30.12 
L 253.629087 30.12 
L 251.182661 30.12 
L 248.736235 30.12 
L 246.289808 30.12 
L 243.843382 30.12 
L 241.396956 30.12 
L 238.950529 30.12 
L 236.504103 30.12 
L 234.057677 30.12 
L 231.611251 30.12 
L 229.164824 30.12 
L 226.718398 30.12 
L 224.271972 30.12 
L 221.825545 30.12 
L 219.379119 30.12 
L 216.932693 30.12 
L 214.486267 30.12 
L 212.03984 30.12 
L 209.593414 30.12 
L 207.146988 30.12 
L 204.700561 30.12 
L 202.254135 30.12 
L 199.807709 30.12 
L 197.361283 30.12 
L 194.914856 30.12 
L 192.46843 30.12 
L 190.022004 30.12 
L 187.575577 30.12 
L 185.129151 30.12 
L 182.682725 30.12 
L 180.236299 30.12 
L 177.789872 30.12 
L 175.343446 30.12 
L 172.89702 30.12 
L 170.450593 30.12 
L 168.004167 30.12 
L 165.557741 30.12 
L 163.111314 30.12 
L 160.664888 30.12 
L 158.218462 30.12 
L 155.772036 30.12 
L 153.325609 30.12 
L 150.879183 30.12 
L 148.432757 30.12 
L 145.98633 30.12 
L 143.539904 30.12 
L 141.093478 30.12 
L 138.647052 30.12 
L 136.200625 30.12 
L 133.754199 30.12 
L 131.307773 30.12 
L 128.861346 30.12 
L 126.41492 30.12 
L 123.968494 30.12 
L 121.522068 30.12 
L 119.075641 30.12 
L 116.629215 30.12 
L 114.182789 30.12 
L 111.736362 30.12 
L 109.289936 30.12 
L 106.84351 30.12 
L 104.397084 30.12 
L 101.950657 30.12 
L 99.504231 30.12 
L 97.057805 30.12 
L 94.611378 30.12 
L 92.164952 30.12 
L 89.718526 30.12 
L 87.2721 30.12 
L 84.825673 30.12 
L 82.379247 30.12 
L 79.932821 30.12 
L 77.486394 30.12 
L 75.039968 30.12 
L 72.593542 30.12 
L 70.147115 30.12 
L 67.700689 30.12 
L 65.254263 30.12 
L 62.807837 30.12 
L 60.36141 30.12 
L 57.914984 30.12 
L 55.468558 30.12 
L 53.022131 30.12 
L 50.575705 30.12 
L 48.129279 30.12 
L 45.682853 30.12 
L 43.236426 30.12 
L 40.79 30.12 
z
" clip-path="url(#pbef26d22a4)" style="fill: #8d5993"/>
   </g>
   <g id="matplotlib.axis_1">
    <g id="xtick_1">
     <g id="line2d_1">
      <path d="M 160.664888 531.52 
L 160.664888 30.12 
" clip-path="url(#pbef26d22a4)" style="fill: none; stroke-dasharray: 2.96,1.28; stroke-dashoffset: 0; stroke: #b0b0b0; stroke-opacity: 0.5; stroke-width: 0.8"/>
     </g>
     <g id="line2d_2">
      <defs>
       <path id="mffd7bb2903" d="M 0 0 
L 0 3.5 
" style="stroke: #000000; stroke-width: 0.8"/>
      </defs>
      <g>
       <use xlink:href="#mffd7bb2903" x="160.664888" y="531.52" style="stroke: #000000; stroke-width: 0.8"/>
      </g>
     </g>
     <g id="text_1">
      <!-- 50 -->
      <g transform="translate(154.302388 546.118437) scale(0.1 -0.1)">
       <defs>
        <path id="DejaVuSans-35" d="M 691 4666 
L 3169 4666 
L 3169 4134 
L 1269 4134 
L 1269 2991 
Q 1406 3038 1543 3061 
Q 1681 3084 1819 3084 
Q 2600 3084 3056 2656 
Q 3513 2228 3513 1497 
Q 3513 744 3044 326 
Q 2575 -91 1722 -91 
Q 1428 -91 1123 -41 
Q 819 9 494 109 
L 494 744 
Q 775 591 1075 516 
Q 1375 441 1709 441 
Q 2250 441 2565 725 
Q 2881 1009 2881 1497 
Q 2881 1984 2565 2268 
Q 2250 2553 1709 2553 
Q 1456 2553 1204 2497 
Q 953 2441 691 2322 
L 691 4666 
z
" transform="scale(0.015625)"/>
        <path id="DejaVuSans-30" d="M 2034 4250 
Q 1547 4250 1301 3770 
Q 1056 3291 1056 2328 
Q 1056 1369 1301 889 
Q 1547 409 2034 409 
Q 2525 409 2770 889 
Q 3016 1369 3016 2328 
Q 3016 3291 2770 3770 
Q 2525 4250 2034 4250 
z
M 2034 4750 
Q 2819 4750 3233 4129 
Q 3647 3509 3647 2328 
Q 3647 1150 3233 529 
Q 2819 -91 2034 -91 
Q 1250 -91 836 529 
Q 422 1150 422 2328 
Q 422 3509 836 4129 
Q 1250 4750 2034 4750 
z
" transform="scale(0.015625)"/>
       </defs>
       <use xlink:href="#DejaVuSans-35"/>
       <use xlink:href="#DejaVuSans-30" transform="translate(63.623047 0)"/>
      </g>
     </g>
    </g>
    <g id="xtick_2">
     <g id="line2d_3">
      <path d="M 282.986203 531.52 
L 282.986203 30.12 
" clip-path="url(#pbef26d22a4)" style="fill: none; stroke-dasharray: 2.96,1.28; stroke-dashoffset: 0; stroke: #b0b0b0; stroke-opacity: 0.5; stroke-width: 0.8"/>
     </g>
     <g id="line2d_4">
      <g>
       <use xlink:href="#mffd7bb2903" x="282.986203" y="531.52" style="stroke: #000000; stroke-width: 0.8"/>
      </g>
     </g>
     <g id="text_2">
      <!-- 100 -->
      <g transform="translate(273.442453 546.118437) scale(0.1 -0.1)">
       <defs>
        <path id="DejaVuSans-31" d="M 794 531 
L 1825 531 
L 1825 4091 
L 703 3866 
L 703 4441 
L 1819 4666 
L 2450 4666 
L 2450 531 
L 3481 531 
L 3481 0 
L 794 0 
L 794 531 
z
" transform="scale(0.015625)"/>
       </defs>
       <use xlink:href="#DejaVuSans-31"/>
       <use xlink:href="#DejaVuSans-30" transform="translate(63.623047 0)"/>
       <use xlink:href="#DejaVuSans-30" transform="translate(127.246094 0)"/>
      </g>
     </g>
    </g>
    <g id="xtick_3">
     <g id="line2d_5">
      <path d="M 405.307517 531.52 
L 405.307517 30.12 
" clip-path="url(#pbef26d22a4)" style="fill: none; stroke-dasharray: 2.96,1.28; stroke-dashoffset: 0; stroke: #b0b0b0; stroke-opacity: 0.5; stroke-width: 0.8"/>
     </g>
     <g id="line2d_6">
      <g>
       <use xlink:href="#mffd7bb2903" x="405.307517" y="531.52" style="stroke: #000000; stroke-width: 0.8"/>
      </g>
     </g>
     <g id="text_3">
      <!-- 150 -->
      <g transform="translate(395.763767 546.118437) scale(0.1 -0.1)">
       <use xlink:href="#DejaVuSans-31"/>
       <use xlink:href="#DejaVuSans-35" transform="translate(63.623047 0)"/>
       <use xlink:href="#DejaVuSans-30" transform="translate(127.246094 0)"/>
      </g>
     </g>
    </g>
    <g id="xtick_4">
     <g id="line2d_7">
      <path d="M 527.628832 531.52 
L 527.628832 30.12 
" clip-path="url(#pbef26d22a4)" style="fill: none; stroke-dasharray: 2.96,1.28; stroke-dashoffset: 0; stroke: #b0b0b0; stroke-opacity: 0.5; stroke-width: 0.8"/>
     </g>
     <g id="line2d_8">
      <g>
       <use xlink:href="#mffd7bb2903" x="527.628832" y="531.52" style="stroke: #000000; stroke-width: 0.8"/>
      </g>
     </g>
     <g id="text_4">
      <!-- 200 -->
      <g transform="translate(518.085082 546.118437) scale(0.1 -0.1)">
       <defs>
        <path id="DejaVuSans-32" d="M 1228 531 
L 3431 531 
L 3431 0 
L 469 0 
L 469 531 
Q 828 903 1448 1529 
Q 2069 2156 2228 2338 
Q 2531 2678 2651 2914 
Q 2772 3150 2772 3378 
Q 2772 3750 2511 3984 
Q 2250 4219 1831 4219 
Q 1534 4219 1204 4116 
Q 875 4013 500 3803 
L 500 4441 
Q 881 4594 1212 4672 
Q 1544 4750 1819 4750 
Q 2544 4750 2975 4387 
Q 3406 4025 3406 3419 
Q 3406 3131 3298 2873 
Q 3191 2616 2906 2266 
Q 2828 2175 2409 1742 
Q 1991 1309 1228 531 
z
" transform="scale(0.015625)"/>
       </defs>
       <use xlink:href="#DejaVuSans-32"/>
       <use xlink:href="#DejaVuSans-30" transform="translate(63.623047 0)"/>
       <use xlink:href="#DejaVuSans-30" transform="translate(127.246094 0)"/>
      </g>
     </g>
    </g>
    <g id="xtick_5">
     <g id="line2d_9">
      <path d="M 649.950146 531.52 
L 649.950146 30.12 
" clip-path="url(#pbef26d22a4)" style="fill: none; stroke-dasharray: 2.96,1.28; stroke-dashoffset: 0; stroke: #b0b0b0; stroke-opacity: 0.5; stroke-width: 0.8"/>
     </g>
     <g id="line2d_10">
      <g>
       <use xlink:href="#mffd7bb2903" x="649.950146" y="531.52" style="stroke: #000000; stroke-width: 0.8"/>
      </g>
     </g>
     <g id="text_5">
      <!-- 250 -->
      <g transform="translate(640.406396 546.118437) scale(0.1 -0.1)">
       <use xlink:href="#DejaVuSans-32"/>
       <use xlink:href="#DejaVuSans-35" transform="translate(63.623047 0)"/>
       <use xlink:href="#DejaVuSans-30" transform="translate(127.246094 0)"/>
      </g>
     </g>
    </g>
    <g id="text_6">
     <!-- Session Count -->
     <g transform="translate(314.898122 561.919375) scale(0.14 -0.14)">
      <defs>
       <path id="TimesNewRomanPSMT-53" d="M 2934 4334 
L 2934 2869 
L 2819 2869 
Q 2763 3291 2617 3541 
Q 2472 3791 2203 3937 
Q 1934 4084 1647 4084 
Q 1322 4084 1109 3886 
Q 897 3688 897 3434 
Q 897 3241 1031 3081 
Q 1225 2847 1953 2456 
Q 2547 2138 2764 1967 
Q 2981 1797 3098 1565 
Q 3216 1334 3216 1081 
Q 3216 600 2842 251 
Q 2469 -97 1881 -97 
Q 1697 -97 1534 -69 
Q 1438 -53 1133 45 
Q 828 144 747 144 
Q 669 144 623 97 
Q 578 50 556 -97 
L 441 -97 
L 441 1356 
L 556 1356 
Q 638 900 775 673 
Q 913 447 1195 297 
Q 1478 147 1816 147 
Q 2206 147 2432 353 
Q 2659 559 2659 841 
Q 2659 997 2573 1156 
Q 2488 1316 2306 1453 
Q 2184 1547 1640 1851 
Q 1097 2156 867 2337 
Q 638 2519 519 2737 
Q 400 2956 400 3219 
Q 400 3675 750 4004 
Q 1100 4334 1641 4334 
Q 1978 4334 2356 4169 
Q 2531 4091 2603 4091 
Q 2684 4091 2736 4139 
Q 2788 4188 2819 4334 
L 2934 4334 
z
" transform="scale(0.015625)"/>
       <path id="TimesNewRomanPSMT-65" d="M 681 1784 
Q 678 1147 991 784 
Q 1303 422 1725 422 
Q 2006 422 2214 576 
Q 2422 731 2563 1106 
L 2659 1044 
Q 2594 616 2278 264 
Q 1963 -88 1488 -88 
Q 972 -88 605 314 
Q 238 716 238 1394 
Q 238 2128 614 2539 
Q 991 2950 1559 2950 
Q 2041 2950 2350 2633 
Q 2659 2316 2659 1784 
L 681 1784 
z
M 681 1966 
L 2006 1966 
Q 1991 2241 1941 2353 
Q 1863 2528 1708 2628 
Q 1553 2728 1384 2728 
Q 1125 2728 920 2526 
Q 716 2325 681 1966 
z
" transform="scale(0.015625)"/>
       <path id="TimesNewRomanPSMT-73" d="M 2050 2947 
L 2050 1972 
L 1947 1972 
Q 1828 2431 1642 2597 
Q 1456 2763 1169 2763 
Q 950 2763 815 2647 
Q 681 2531 681 2391 
Q 681 2216 781 2091 
Q 878 1963 1175 1819 
L 1631 1597 
Q 2266 1288 2266 781 
Q 2266 391 1970 151 
Q 1675 -88 1309 -88 
Q 1047 -88 709 6 
Q 606 38 541 38 
Q 469 38 428 -44 
L 325 -44 
L 325 978 
L 428 978 
Q 516 541 762 319 
Q 1009 97 1316 97 
Q 1531 97 1667 223 
Q 1803 350 1803 528 
Q 1803 744 1651 891 
Q 1500 1038 1047 1263 
Q 594 1488 453 1669 
Q 313 1847 313 2119 
Q 313 2472 555 2709 
Q 797 2947 1181 2947 
Q 1350 2947 1591 2875 
Q 1750 2828 1803 2828 
Q 1853 2828 1881 2850 
Q 1909 2872 1947 2947 
L 2050 2947 
z
" transform="scale(0.015625)"/>
       <path id="TimesNewRomanPSMT-69" d="M 928 4444 
Q 1059 4444 1151 4351 
Q 1244 4259 1244 4128 
Q 1244 3997 1151 3903 
Q 1059 3809 928 3809 
Q 797 3809 703 3903 
Q 609 3997 609 4128 
Q 609 4259 701 4351 
Q 794 4444 928 4444 
z
M 1188 2947 
L 1188 647 
Q 1188 378 1227 289 
Q 1266 200 1342 156 
Q 1419 113 1622 113 
L 1622 0 
L 231 0 
L 231 113 
Q 441 113 512 153 
Q 584 194 626 287 
Q 669 381 669 647 
L 669 1750 
Q 669 2216 641 2353 
Q 619 2453 572 2492 
Q 525 2531 444 2531 
Q 356 2531 231 2484 
L 188 2597 
L 1050 2947 
L 1188 2947 
z
" transform="scale(0.015625)"/>
       <path id="TimesNewRomanPSMT-6f" d="M 1600 2947 
Q 2250 2947 2644 2453 
Q 2978 2031 2978 1484 
Q 2978 1100 2793 706 
Q 2609 313 2286 112 
Q 1963 -88 1566 -88 
Q 919 -88 538 428 
Q 216 863 216 1403 
Q 216 1797 411 2186 
Q 606 2575 925 2761 
Q 1244 2947 1600 2947 
z
M 1503 2744 
Q 1338 2744 1170 2645 
Q 1003 2547 900 2300 
Q 797 2053 797 1666 
Q 797 1041 1045 587 
Q 1294 134 1700 134 
Q 2003 134 2200 384 
Q 2397 634 2397 1244 
Q 2397 2006 2069 2444 
Q 1847 2744 1503 2744 
z
" transform="scale(0.015625)"/>
       <path id="TimesNewRomanPSMT-6e" d="M 1034 2341 
Q 1538 2947 1994 2947 
Q 2228 2947 2397 2830 
Q 2566 2713 2666 2444 
Q 2734 2256 2734 1869 
L 2734 647 
Q 2734 375 2778 278 
Q 2813 200 2889 156 
Q 2966 113 3172 113 
L 3172 0 
L 1756 0 
L 1756 113 
L 1816 113 
Q 2016 113 2095 173 
Q 2175 234 2206 353 
Q 2219 400 2219 647 
L 2219 1819 
Q 2219 2209 2117 2386 
Q 2016 2563 1775 2563 
Q 1403 2563 1034 2156 
L 1034 647 
Q 1034 356 1069 288 
Q 1113 197 1189 155 
Q 1266 113 1500 113 
L 1500 0 
L 84 0 
L 84 113 
L 147 113 
Q 366 113 442 223 
Q 519 334 519 647 
L 519 1709 
Q 519 2225 495 2337 
Q 472 2450 423 2490 
Q 375 2531 294 2531 
Q 206 2531 84 2484 
L 38 2597 
L 900 2947 
L 1034 2947 
L 1034 2341 
z
" transform="scale(0.015625)"/>
       <path id="TimesNewRomanPSMT-20" transform="scale(0.015625)"/>
       <path id="TimesNewRomanPSMT-43" d="M 3853 4334 
L 3950 2894 
L 3853 2894 
Q 3659 3541 3300 3825 
Q 2941 4109 2438 4109 
Q 2016 4109 1675 3895 
Q 1334 3681 1139 3212 
Q 944 2744 944 2047 
Q 944 1472 1128 1050 
Q 1313 628 1683 403 
Q 2053 178 2528 178 
Q 2941 178 3256 354 
Q 3572 531 3950 1056 
L 4047 994 
Q 3728 428 3303 165 
Q 2878 -97 2294 -97 
Q 1241 -97 663 684 
Q 231 1266 231 2053 
Q 231 2688 515 3219 
Q 800 3750 1298 4042 
Q 1797 4334 2388 4334 
Q 2847 4334 3294 4109 
Q 3425 4041 3481 4041 
Q 3566 4041 3628 4100 
Q 3709 4184 3744 4334 
L 3853 4334 
z
" transform="scale(0.015625)"/>
       <path id="TimesNewRomanPSMT-75" d="M 2709 2863 
L 2709 1128 
Q 2709 631 2732 520 
Q 2756 409 2807 365 
Q 2859 322 2928 322 
Q 3025 322 3147 375 
L 3191 266 
L 2334 -88 
L 2194 -88 
L 2194 519 
Q 1825 119 1631 15 
Q 1438 -88 1222 -88 
Q 981 -88 804 51 
Q 628 191 559 409 
Q 491 628 491 1028 
L 491 2306 
Q 491 2509 447 2587 
Q 403 2666 317 2708 
Q 231 2750 6 2747 
L 6 2863 
L 1009 2863 
L 1009 947 
Q 1009 547 1148 422 
Q 1288 297 1484 297 
Q 1619 297 1789 381 
Q 1959 466 2194 703 
L 2194 2325 
Q 2194 2569 2105 2655 
Q 2016 2741 1734 2747 
L 1734 2863 
L 2709 2863 
z
" transform="scale(0.015625)"/>
       <path id="TimesNewRomanPSMT-74" d="M 1031 3803 
L 1031 2863 
L 1700 2863 
L 1700 2644 
L 1031 2644 
L 1031 788 
Q 1031 509 1111 412 
Q 1191 316 1316 316 
Q 1419 316 1516 380 
Q 1613 444 1666 569 
L 1788 569 
Q 1678 263 1478 108 
Q 1278 -47 1066 -47 
Q 922 -47 784 33 
Q 647 113 581 261 
Q 516 409 516 719 
L 516 2644 
L 63 2644 
L 63 2747 
Q 234 2816 414 2980 
Q 594 3144 734 3369 
Q 806 3488 934 3803 
L 1031 3803 
z
" transform="scale(0.015625)"/>
      </defs>
      <use xlink:href="#TimesNewRomanPSMT-53"/>
      <use xlink:href="#TimesNewRomanPSMT-65" transform="translate(55.615234 0)"/>
      <use xlink:href="#TimesNewRomanPSMT-73" transform="translate(100 0)"/>
      <use xlink:href="#TimesNewRomanPSMT-73" transform="translate(138.916016 0)"/>
      <use xlink:href="#TimesNewRomanPSMT-69" transform="translate(177.832031 0)"/>
      <use xlink:href="#TimesNewRomanPSMT-6f" transform="translate(205.615234 0)"/>
      <use xlink:href="#TimesNewRomanPSMT-6e" transform="translate(255.615234 0)"/>
      <use xlink:href="#TimesNewRomanPSMT-20" transform="translate(305.615234 0)"/>
      <use xlink:href="#TimesNewRomanPSMT-43" transform="translate(330.615234 0)"/>
      <use xlink:href="#TimesNewRomanPSMT-6f" transform="translate(397.314453 0)"/>
      <use xlink:href="#TimesNewRomanPSMT-75" transform="translate(447.314453 0)"/>
      <use xlink:href="#TimesNewRomanPSMT-6e" transform="translate(497.314453 0)"/>
      <use xlink:href="#TimesNewRomanPSMT-74" transform="translate(547.314453 0)"/>
     </g>
    </g>
   </g>
   <g id="matplotlib.axis_2">
    <g id="ytick_1">
     <g id="line2d_11">
      <path d="M 40.79 531.52 
L 669.521556 531.52 
" clip-path="url(#pbef26d22a4)" style="fill: none; stroke-dasharray: 2.96,1.28; stroke-dashoffset: 0; stroke: #b0b0b0; stroke-opacity: 0.5; stroke-width: 0.8"/>
     </g>
     <g id="line2d_12">
      <defs>
       <path id="m0408335be7" d="M 0 0 
L -3.5 0 
" style="stroke: #000000; stroke-width: 0.8"/>
      </defs>
      <g>
       <use xlink:href="#m0408335be7" x="40.79" y="531.52" style="stroke: #000000; stroke-width: 0.8"/>
      </g>
     </g>
     <g id="text_7">
      <!-- 0 -->
      <g transform="translate(27.4275 535.319219) scale(0.1 -0.1)">
       <use xlink:href="#DejaVuSans-30"/>
      </g>
     </g>
    </g>
    <g id="ytick_2">
     <g id="line2d_13">
      <path d="M 40.79 30.12 
L 669.521556 30.12 
" clip-path="url(#pbef26d22a4)" style="fill: none; stroke-dasharray: 2.96,1.28; stroke-dashoffset: 0; stroke: #b0b0b0; stroke-opacity: 0.5; stroke-width: 0.8"/>
     </g>
     <g id="line2d_14">
      <g>
       <use xlink:href="#m0408335be7" x="40.79" y="30.12" style="stroke: #000000; stroke-width: 0.8"/>
      </g>
     </g>
     <g id="text_8">
      <!-- 1 -->
      <g transform="translate(27.4275 33.919219) scale(0.1 -0.1)">
       <use xlink:href="#DejaVuSans-31"/>
      </g>
     </g>
    </g>
    <g id="text_9">
     <!-- Stacked Proportion -->
     <g transform="translate(20.432813 334.672969) rotate(-90) scale(0.14 -0.14)">
      <defs>
       <path id="TimesNewRomanPSMT-61" d="M 1822 413 
Q 1381 72 1269 19 
Q 1100 -59 909 -59 
Q 613 -59 420 144 
Q 228 347 228 678 
Q 228 888 322 1041 
Q 450 1253 767 1440 
Q 1084 1628 1822 1897 
L 1822 2009 
Q 1822 2438 1686 2597 
Q 1550 2756 1291 2756 
Q 1094 2756 978 2650 
Q 859 2544 859 2406 
L 866 2225 
Q 866 2081 792 2003 
Q 719 1925 600 1925 
Q 484 1925 411 2006 
Q 338 2088 338 2228 
Q 338 2497 613 2722 
Q 888 2947 1384 2947 
Q 1766 2947 2009 2819 
Q 2194 2722 2281 2516 
Q 2338 2381 2338 1966 
L 2338 994 
Q 2338 584 2353 492 
Q 2369 400 2405 369 
Q 2441 338 2488 338 
Q 2538 338 2575 359 
Q 2641 400 2828 588 
L 2828 413 
Q 2478 -56 2159 -56 
Q 2006 -56 1915 50 
Q 1825 156 1822 413 
z
M 1822 616 
L 1822 1706 
Q 1350 1519 1213 1441 
Q 966 1303 859 1153 
Q 753 1003 753 825 
Q 753 600 887 451 
Q 1022 303 1197 303 
Q 1434 303 1822 616 
z
" transform="scale(0.015625)"/>
       <path id="TimesNewRomanPSMT-63" d="M 2631 1088 
Q 2516 522 2178 217 
Q 1841 -88 1431 -88 
Q 944 -88 581 321 
Q 219 731 219 1428 
Q 219 2103 620 2525 
Q 1022 2947 1584 2947 
Q 2006 2947 2278 2723 
Q 2550 2500 2550 2259 
Q 2550 2141 2473 2067 
Q 2397 1994 2259 1994 
Q 2075 1994 1981 2113 
Q 1928 2178 1911 2362 
Q 1894 2547 1784 2644 
Q 1675 2738 1481 2738 
Q 1169 2738 978 2506 
Q 725 2200 725 1697 
Q 725 1184 976 792 
Q 1228 400 1656 400 
Q 1963 400 2206 609 
Q 2378 753 2541 1131 
L 2631 1088 
z
" transform="scale(0.015625)"/>
       <path id="TimesNewRomanPSMT-6b" d="M 1047 4444 
L 1047 1594 
L 1775 2259 
Q 2006 2472 2044 2528 
Q 2069 2566 2069 2603 
Q 2069 2666 2017 2711 
Q 1966 2756 1847 2763 
L 1847 2863 
L 3091 2863 
L 3091 2763 
Q 2834 2756 2664 2684 
Q 2494 2613 2291 2428 
L 1556 1750 
L 2291 822 
Q 2597 438 2703 334 
Q 2853 188 2966 144 
Q 3044 113 3238 113 
L 3238 0 
L 1847 0 
L 1847 113 
Q 1966 116 2008 148 
Q 2050 181 2050 241 
Q 2050 313 1925 472 
L 1047 1594 
L 1047 644 
Q 1047 366 1086 278 
Q 1125 191 1197 153 
Q 1269 116 1509 113 
L 1509 0 
L 53 0 
L 53 113 
Q 272 113 381 166 
Q 447 200 481 272 
Q 528 375 528 628 
L 528 3234 
Q 528 3731 506 3842 
Q 484 3953 434 3995 
Q 384 4038 303 4038 
Q 238 4038 106 3984 
L 53 4094 
L 903 4444 
L 1047 4444 
z
" transform="scale(0.015625)"/>
       <path id="TimesNewRomanPSMT-64" d="M 2222 322 
Q 2013 103 1813 7 
Q 1613 -88 1381 -88 
Q 913 -88 563 304 
Q 213 697 213 1313 
Q 213 1928 600 2439 
Q 988 2950 1597 2950 
Q 1975 2950 2222 2709 
L 2222 3238 
Q 2222 3728 2198 3840 
Q 2175 3953 2125 3993 
Q 2075 4034 2000 4034 
Q 1919 4034 1784 3984 
L 1744 4094 
L 2597 4444 
L 2738 4444 
L 2738 1134 
Q 2738 631 2761 520 
Q 2784 409 2836 365 
Q 2888 322 2956 322 
Q 3041 322 3181 375 
L 3216 266 
L 2366 -88 
L 2222 -88 
L 2222 322 
z
M 2222 541 
L 2222 2016 
Q 2203 2228 2109 2403 
Q 2016 2578 1861 2667 
Q 1706 2756 1559 2756 
Q 1284 2756 1069 2509 
Q 784 2184 784 1559 
Q 784 928 1059 592 
Q 1334 256 1672 256 
Q 1956 256 2222 541 
z
" transform="scale(0.015625)"/>
       <path id="TimesNewRomanPSMT-50" d="M 1313 1984 
L 1313 750 
Q 1313 350 1400 253 
Q 1519 116 1759 116 
L 1922 116 
L 1922 0 
L 106 0 
L 106 116 
L 266 116 
Q 534 116 650 291 
Q 713 388 713 750 
L 713 3488 
Q 713 3888 628 3984 
Q 506 4122 266 4122 
L 106 4122 
L 106 4238 
L 1659 4238 
Q 2228 4238 2556 4120 
Q 2884 4003 3109 3725 
Q 3334 3447 3334 3066 
Q 3334 2547 2992 2222 
Q 2650 1897 2025 1897 
Q 1872 1897 1694 1919 
Q 1516 1941 1313 1984 
z
M 1313 2163 
Q 1478 2131 1606 2115 
Q 1734 2100 1825 2100 
Q 2150 2100 2386 2351 
Q 2622 2603 2622 3003 
Q 2622 3278 2509 3514 
Q 2397 3750 2190 3867 
Q 1984 3984 1722 3984 
Q 1563 3984 1313 3925 
L 1313 2163 
z
" transform="scale(0.015625)"/>
       <path id="TimesNewRomanPSMT-72" d="M 1038 2947 
L 1038 2303 
Q 1397 2947 1775 2947 
Q 1947 2947 2059 2842 
Q 2172 2738 2172 2600 
Q 2172 2478 2090 2393 
Q 2009 2309 1897 2309 
Q 1788 2309 1652 2417 
Q 1516 2525 1450 2525 
Q 1394 2525 1328 2463 
Q 1188 2334 1038 2041 
L 1038 669 
Q 1038 431 1097 309 
Q 1138 225 1241 169 
Q 1344 113 1538 113 
L 1538 0 
L 72 0 
L 72 113 
Q 291 113 397 181 
Q 475 231 506 341 
Q 522 394 522 644 
L 522 1753 
Q 522 2253 501 2348 
Q 481 2444 426 2487 
Q 372 2531 291 2531 
Q 194 2531 72 2484 
L 41 2597 
L 906 2947 
L 1038 2947 
z
" transform="scale(0.015625)"/>
       <path id="TimesNewRomanPSMT-70" d="M -6 2578 
L 875 2934 
L 994 2934 
L 994 2266 
Q 1216 2644 1439 2795 
Q 1663 2947 1909 2947 
Q 2341 2947 2628 2609 
Q 2981 2197 2981 1534 
Q 2981 794 2556 309 
Q 2206 -88 1675 -88 
Q 1444 -88 1275 -22 
Q 1150 25 994 166 
L 994 -706 
Q 994 -1000 1030 -1079 
Q 1066 -1159 1155 -1206 
Q 1244 -1253 1478 -1253 
L 1478 -1369 
L -22 -1369 
L -22 -1253 
L 56 -1253 
Q 228 -1256 350 -1188 
Q 409 -1153 442 -1076 
Q 475 -1000 475 -688 
L 475 2019 
Q 475 2297 450 2372 
Q 425 2447 370 2484 
Q 316 2522 222 2522 
Q 147 2522 31 2478 
L -6 2578 
z
M 994 2081 
L 994 1013 
Q 994 666 1022 556 
Q 1066 375 1236 237 
Q 1406 100 1666 100 
Q 1978 100 2172 344 
Q 2425 663 2425 1241 
Q 2425 1897 2138 2250 
Q 1938 2494 1663 2494 
Q 1513 2494 1366 2419 
Q 1253 2363 994 2081 
z
" transform="scale(0.015625)"/>
      </defs>
      <use xlink:href="#TimesNewRomanPSMT-53"/>
      <use xlink:href="#TimesNewRomanPSMT-74" transform="translate(55.615234 0)"/>
      <use xlink:href="#TimesNewRomanPSMT-61" transform="translate(83.398438 0)"/>
      <use xlink:href="#TimesNewRomanPSMT-63" transform="translate(127.783203 0)"/>
      <use xlink:href="#TimesNewRomanPSMT-6b" transform="translate(172.167969 0)"/>
      <use xlink:href="#TimesNewRomanPSMT-65" transform="translate(222.167969 0)"/>
      <use xlink:href="#TimesNewRomanPSMT-64" transform="translate(266.552734 0)"/>
      <use xlink:href="#TimesNewRomanPSMT-20" transform="translate(316.552734 0)"/>
      <use xlink:href="#TimesNewRomanPSMT-50" transform="translate(341.552734 0)"/>
      <use xlink:href="#TimesNewRomanPSMT-72" transform="translate(397.167969 0)"/>
      <use xlink:href="#TimesNewRomanPSMT-6f" transform="translate(430.46875 0)"/>
      <use xlink:href="#TimesNewRomanPSMT-70" transform="translate(480.46875 0)"/>
      <use xlink:href="#TimesNewRomanPSMT-6f" transform="translate(530.46875 0)"/>
      <use xlink:href="#TimesNewRomanPSMT-72" transform="translate(580.46875 0)"/>
      <use xlink:href="#TimesNewRomanPSMT-74" transform="translate(613.769531 0)"/>
      <use xlink:href="#TimesNewRomanPSMT-69" transform="translate(641.552734 0)"/>
      <use xlink:href="#TimesNewRomanPSMT-6f" transform="translate(669.335938 0)"/>
      <use xlink:href="#TimesNewRomanPSMT-6e" transform="translate(719.335938 0)"/>
     </g>
    </g>
   </g>
   <g id="line2d_15">
    <path d="M 40.79 221.894373 
L 669.521556 221.894373 
" clip-path="url(#pbef26d22a4)" style="fill: none; stroke-dasharray: 7.5,15; stroke-dashoffset: 0; stroke: #000000; stroke-width: 1.5"/>
   </g>
   <g id="patch_3">
    <path d="M 40.79 531.52 
L 40.79 30.12 
" style="fill: none; stroke: #000000; stroke-width: 0.8; stroke-linejoin: miter; stroke-linecap: square"/>
   </g>
   <g id="patch_4">
    <path d="M 669.521556 531.52 
L 669.521556 30.12 
" style="fill: none; stroke: #000000; stroke-width: 0.8; stroke-linejoin: miter; stroke-linecap: square"/>
   </g>
   <g id="patch_5">
    <path d="M 40.79 531.52 
L 669.521556 531.52 
" style="fill: none; stroke: #000000; stroke-width: 0.8; stroke-linejoin: miter; stroke-linecap: square"/>
   </g>
   <g id="patch_6">
    <path d="M 40.79 30.12 
L 669.521556 30.12 
" style="fill: none; stroke: #000000; stroke-width: 0.8; stroke-linejoin: miter; stroke-linecap: square"/>
   </g>
   <g id="text_10">
    <!-- 0.62 -->
    <g transform="translate(686.64654 225.257654) scale(0.14 -0.14)">
     <defs>
      <path id="TimesNewRomanPSMT-30" d="M 231 2094 
Q 231 2819 450 3342 
Q 669 3866 1031 4122 
Q 1313 4325 1613 4325 
Q 2100 4325 2488 3828 
Q 2972 3213 2972 2159 
Q 2972 1422 2759 906 
Q 2547 391 2217 158 
Q 1888 -75 1581 -75 
Q 975 -75 572 641 
Q 231 1244 231 2094 
z
M 844 2016 
Q 844 1141 1059 588 
Q 1238 122 1591 122 
Q 1759 122 1940 273 
Q 2122 425 2216 781 
Q 2359 1319 2359 2297 
Q 2359 3022 2209 3506 
Q 2097 3866 1919 4016 
Q 1791 4119 1609 4119 
Q 1397 4119 1231 3928 
Q 1006 3669 925 3112 
Q 844 2556 844 2016 
z
" transform="scale(0.015625)"/>
      <path id="TimesNewRomanPSMT-2e" d="M 800 606 
Q 947 606 1047 504 
Q 1147 403 1147 259 
Q 1147 116 1045 14 
Q 944 -88 800 -88 
Q 656 -88 554 14 
Q 453 116 453 259 
Q 453 406 554 506 
Q 656 606 800 606 
z
" transform="scale(0.015625)"/>
      <path id="TimesNewRomanPSMT-36" d="M 2869 4325 
L 2869 4209 
Q 2456 4169 2195 4045 
Q 1934 3922 1679 3669 
Q 1425 3416 1258 3105 
Q 1091 2794 978 2366 
Q 1428 2675 1881 2675 
Q 2316 2675 2634 2325 
Q 2953 1975 2953 1425 
Q 2953 894 2631 456 
Q 2244 -75 1606 -75 
Q 1172 -75 869 213 
Q 275 772 275 1663 
Q 275 2231 503 2743 
Q 731 3256 1154 3653 
Q 1578 4050 1965 4187 
Q 2353 4325 2688 4325 
L 2869 4325 
z
M 925 2138 
Q 869 1716 869 1456 
Q 869 1156 980 804 
Q 1091 453 1309 247 
Q 1469 100 1697 100 
Q 1969 100 2183 356 
Q 2397 613 2397 1088 
Q 2397 1622 2184 2012 
Q 1972 2403 1581 2403 
Q 1463 2403 1327 2353 
Q 1191 2303 925 2138 
z
" transform="scale(0.015625)"/>
      <path id="TimesNewRomanPSMT-32" d="M 2934 816 
L 2638 0 
L 138 0 
L 138 116 
Q 1241 1122 1691 1759 
Q 2141 2397 2141 2925 
Q 2141 3328 1894 3587 
Q 1647 3847 1303 3847 
Q 991 3847 742 3664 
Q 494 3481 375 3128 
L 259 3128 
Q 338 3706 661 4015 
Q 984 4325 1469 4325 
Q 1984 4325 2329 3994 
Q 2675 3663 2675 3213 
Q 2675 2891 2525 2569 
Q 2294 2063 1775 1497 
Q 997 647 803 472 
L 1909 472 
Q 2247 472 2383 497 
Q 2519 522 2628 598 
Q 2738 675 2819 816 
L 2934 816 
z
" transform="scale(0.015625)"/>
     </defs>
     <use xlink:href="#TimesNewRomanPSMT-30"/>
     <use xlink:href="#TimesNewRomanPSMT-2e" transform="translate(50 0)"/>
     <use xlink:href="#TimesNewRomanPSMT-36" transform="translate(75 0)"/>
     <use xlink:href="#TimesNewRomanPSMT-32" transform="translate(125 0)"/>
    </g>
   </g>
   <g id="text_11">
    <!-- Eric (Tonkean) -->
    <g transform="translate(290.790153 24.12) scale(0.2 -0.2)">
     <defs>
      <path id="TimesNewRomanPS-BoldMT-45" d="M 1744 3994 
L 1744 2269 
L 1828 2269 
Q 2231 2269 2412 2522 
Q 2594 2775 2644 3269 
L 2763 3269 
L 2763 1050 
L 2644 1050 
Q 2606 1413 2486 1644 
Q 2366 1875 2206 1954 
Q 2047 2034 1744 2034 
L 1744 841 
Q 1744 491 1773 412 
Q 1803 334 1884 284 
Q 1966 234 2147 234 
L 2400 234 
Q 2994 234 3351 509 
Q 3709 784 3866 1347 
L 3981 1347 
L 3791 0 
L 128 0 
L 128 116 
L 269 116 
Q 453 116 566 181 
Q 647 225 691 331 
Q 725 406 725 725 
L 725 3513 
Q 725 3800 709 3866 
Q 678 3975 594 4034 
Q 475 4122 269 4122 
L 128 4122 
L 128 4238 
L 3675 4238 
L 3675 2984 
L 3556 2984 
Q 3466 3444 3302 3644 
Q 3138 3844 2838 3938 
Q 2663 3994 2181 3994 
L 1744 3994 
z
" transform="scale(0.015625)"/>
      <path id="TimesNewRomanPS-BoldMT-72" d="M 1428 2922 
L 1428 2259 
Q 1719 2713 1937 2861 
Q 2156 3009 2359 3009 
Q 2534 3009 2639 2901 
Q 2744 2794 2744 2597 
Q 2744 2388 2642 2272 
Q 2541 2156 2397 2156 
Q 2231 2156 2109 2262 
Q 1988 2369 1966 2381 
Q 1934 2400 1894 2400 
Q 1803 2400 1722 2331 
Q 1594 2225 1528 2028 
Q 1428 1725 1428 1359 
L 1428 688 
L 1431 513 
Q 1431 334 1453 284 
Q 1491 200 1564 161 
Q 1638 122 1813 113 
L 1813 0 
L 234 0 
L 234 113 
Q 425 128 492 217 
Q 559 306 559 688 
L 559 2303 
Q 559 2553 534 2622 
Q 503 2709 443 2750 
Q 384 2791 234 2806 
L 234 2922 
L 1428 2922 
z
" transform="scale(0.015625)"/>
      <path id="TimesNewRomanPS-BoldMT-69" d="M 919 4338 
Q 1122 4338 1262 4195 
Q 1403 4053 1403 3853 
Q 1403 3653 1261 3512 
Q 1119 3372 919 3372 
Q 719 3372 578 3512 
Q 438 3653 438 3853 
Q 438 4053 578 4195 
Q 719 4338 919 4338 
z
M 1356 2922 
L 1356 606 
Q 1356 297 1428 211 
Q 1500 125 1709 113 
L 1709 0 
L 131 0 
L 131 113 
Q 325 119 419 225 
Q 481 297 481 606 
L 481 2313 
Q 481 2622 409 2708 
Q 338 2794 131 2806 
L 131 2922 
L 1356 2922 
z
" transform="scale(0.015625)"/>
      <path id="TimesNewRomanPS-BoldMT-63" d="M 2600 753 
L 2697 678 
Q 2491 291 2183 101 
Q 1875 -88 1528 -88 
Q 944 -88 594 353 
Q 244 794 244 1413 
Q 244 2009 563 2463 
Q 947 3009 1622 3009 
Q 2075 3009 2342 2781 
Q 2609 2553 2609 2272 
Q 2609 2094 2501 1987 
Q 2394 1881 2219 1881 
Q 2034 1881 1914 2003 
Q 1794 2125 1766 2438 
Q 1747 2634 1675 2713 
Q 1603 2791 1506 2791 
Q 1356 2791 1250 2631 
Q 1088 2391 1088 1894 
Q 1088 1481 1219 1104 
Q 1350 728 1578 544 
Q 1750 409 1984 409 
Q 2138 409 2275 481 
Q 2413 553 2600 753 
z
" transform="scale(0.015625)"/>
      <path id="TimesNewRomanPS-BoldMT-20" transform="scale(0.015625)"/>
      <path id="TimesNewRomanPS-BoldMT-28" d="M 2056 4334 
L 2056 4191 
Q 1731 3978 1578 3775 
Q 1366 3494 1247 3053 
Q 1097 2506 1097 1525 
Q 1097 600 1233 87 
Q 1369 -425 1603 -741 
Q 1766 -959 2056 -1125 
L 2056 -1281 
Q 1303 -1028 779 -248 
Q 256 531 256 1544 
Q 256 2544 778 3314 
Q 1300 4084 2056 4334 
z
" transform="scale(0.015625)"/>
      <path id="TimesNewRomanPS-BoldMT-54" d="M 4038 4238 
L 4038 3091 
L 3925 3091 
Q 3825 3488 3703 3661 
Q 3581 3834 3369 3938 
Q 3250 3994 2953 3994 
L 2638 3994 
L 2638 725 
Q 2638 400 2673 319 
Q 2709 238 2814 177 
Q 2919 116 3100 116 
L 3241 116 
L 3241 0 
L 1022 0 
L 1022 116 
L 1163 116 
Q 1347 116 1459 181 
Q 1541 225 1588 331 
Q 1622 406 1622 725 
L 1622 3994 
L 1316 3994 
Q 888 3994 694 3813 
Q 422 3559 350 3091 
L 231 3091 
L 231 4238 
L 4038 4238 
z
" transform="scale(0.015625)"/>
      <path id="TimesNewRomanPS-BoldMT-6f" d="M 1594 3009 
Q 1975 3009 2303 2812 
Q 2631 2616 2801 2253 
Q 2972 1891 2972 1459 
Q 2972 838 2656 419 
Q 2275 -88 1603 -88 
Q 944 -88 587 375 
Q 231 838 231 1447 
Q 231 2075 595 2542 
Q 959 3009 1594 3009 
z
M 1606 2788 
Q 1447 2788 1333 2667 
Q 1219 2547 1183 2192 
Q 1147 1838 1147 1206 
Q 1147 872 1191 581 
Q 1225 359 1337 243 
Q 1450 128 1594 128 
Q 1734 128 1828 206 
Q 1950 313 1991 503 
Q 2053 800 2053 1703 
Q 2053 2234 1993 2432 
Q 1934 2631 1819 2722 
Q 1738 2788 1606 2788 
z
" transform="scale(0.015625)"/>
      <path id="TimesNewRomanPS-BoldMT-6e" d="M 1409 2922 
L 1409 2544 
Q 1634 2788 1840 2898 
Q 2047 3009 2284 3009 
Q 2569 3009 2756 2851 
Q 2944 2694 3006 2459 
Q 3056 2281 3056 1775 
L 3056 638 
Q 3056 300 3117 217 
Q 3178 134 3372 113 
L 3372 0 
L 1894 0 
L 1894 113 
Q 2059 134 2131 250 
Q 2181 328 2181 638 
L 2181 1938 
Q 2181 2297 2153 2390 
Q 2125 2484 2058 2536 
Q 1991 2588 1909 2588 
Q 1641 2588 1409 2203 
L 1409 638 
Q 1409 309 1470 221 
Q 1531 134 1697 113 
L 1697 0 
L 219 0 
L 219 113 
Q 403 131 481 231 
Q 534 300 534 638 
L 534 2288 
Q 534 2619 473 2700 
Q 413 2781 219 2806 
L 219 2922 
L 1409 2922 
z
" transform="scale(0.015625)"/>
      <path id="TimesNewRomanPS-BoldMT-6b" d="M 1403 4238 
L 1403 1450 
L 2081 2116 
Q 2291 2319 2342 2409 
Q 2394 2500 2394 2584 
Q 2394 2669 2325 2725 
Q 2256 2781 2056 2806 
L 2056 2922 
L 3366 2922 
L 3366 2806 
Q 3178 2797 3037 2717 
Q 2897 2638 2488 2238 
L 2169 1925 
L 2856 919 
Q 3272 306 3350 231 
Q 3456 125 3619 113 
L 3619 0 
L 2109 0 
L 2109 113 
Q 2209 113 2254 150 
Q 2300 188 2300 231 
Q 2300 303 2169 497 
L 1591 1344 
L 1403 1159 
L 1403 634 
Q 1403 300 1465 217 
Q 1528 134 1722 113 
L 1722 0 
L 213 0 
L 213 113 
Q 397 131 475 231 
Q 528 300 528 634 
L 528 3603 
Q 528 3934 467 4015 
Q 406 4097 213 4122 
L 213 4238 
L 1403 4238 
z
" transform="scale(0.015625)"/>
      <path id="TimesNewRomanPS-BoldMT-65" d="M 2691 1566 
L 1088 1566 
Q 1116 984 1397 647 
Q 1613 388 1916 388 
Q 2103 388 2256 492 
Q 2409 597 2584 869 
L 2691 800 
Q 2453 316 2165 114 
Q 1878 -88 1500 -88 
Q 850 -88 516 413 
Q 247 816 247 1413 
Q 247 2144 642 2576 
Q 1038 3009 1569 3009 
Q 2013 3009 2339 2645 
Q 2666 2281 2691 1566 
z
M 1922 1775 
Q 1922 2278 1867 2465 
Q 1813 2653 1697 2750 
Q 1631 2806 1522 2806 
Q 1359 2806 1256 2647 
Q 1072 2369 1072 1884 
L 1072 1775 
L 1922 1775 
z
" transform="scale(0.015625)"/>
      <path id="TimesNewRomanPS-BoldMT-61" d="M 1828 431 
Q 1294 -41 869 -41 
Q 619 -41 453 123 
Q 288 288 288 534 
Q 288 869 575 1136 
Q 863 1403 1828 1847 
L 1828 2141 
Q 1828 2472 1792 2558 
Q 1756 2644 1656 2708 
Q 1556 2772 1431 2772 
Q 1228 2772 1097 2681 
Q 1016 2625 1016 2550 
Q 1016 2484 1103 2388 
Q 1222 2253 1222 2128 
Q 1222 1975 1108 1867 
Q 994 1759 809 1759 
Q 613 1759 480 1878 
Q 347 1997 347 2156 
Q 347 2381 525 2586 
Q 703 2791 1022 2900 
Q 1341 3009 1684 3009 
Q 2100 3009 2342 2832 
Q 2584 2656 2656 2450 
Q 2700 2319 2700 1847 
L 2700 713 
Q 2700 513 2715 461 
Q 2731 409 2762 384 
Q 2794 359 2834 359 
Q 2916 359 3000 475 
L 3094 400 
Q 2938 169 2770 64 
Q 2603 -41 2391 -41 
Q 2141 -41 2000 76 
Q 1859 194 1828 431 
z
M 1828 659 
L 1828 1638 
Q 1450 1416 1266 1163 
Q 1144 994 1144 822 
Q 1144 678 1247 569 
Q 1325 484 1466 484 
Q 1622 484 1828 659 
z
" transform="scale(0.015625)"/>
      <path id="TimesNewRomanPS-BoldMT-29" d="M 78 -1281 
L 78 -1138 
Q 403 -922 556 -719 
Q 766 -438 888 0 
Q 1038 550 1038 1531 
Q 1038 2456 902 2967 
Q 766 3478 531 3794 
Q 369 4013 78 4178 
L 78 4334 
Q 831 4081 1354 3301 
Q 1878 2522 1878 1509 
Q 1878 513 1354 -257 
Q 831 -1028 78 -1281 
z
" transform="scale(0.015625)"/>
     </defs>
     <use xlink:href="#TimesNewRomanPS-BoldMT-45"/>
     <use xlink:href="#TimesNewRomanPS-BoldMT-72" transform="translate(66.699219 0)"/>
     <use xlink:href="#TimesNewRomanPS-BoldMT-69" transform="translate(111.083984 0)"/>
     <use xlink:href="#TimesNewRomanPS-BoldMT-63" transform="translate(138.867188 0)"/>
     <use xlink:href="#TimesNewRomanPS-BoldMT-20" transform="translate(183.251953 0)"/>
     <use xlink:href="#TimesNewRomanPS-BoldMT-28" transform="translate(208.251953 0)"/>
     <use xlink:href="#TimesNewRomanPS-BoldMT-54" transform="translate(241.552734 0)"/>
     <use xlink:href="#TimesNewRomanPS-BoldMT-6f" transform="translate(299.126953 0)"/>
     <use xlink:href="#TimesNewRomanPS-BoldMT-6e" transform="translate(349.126953 0)"/>
     <use xlink:href="#TimesNewRomanPS-BoldMT-6b" transform="translate(404.742188 0)"/>
     <use xlink:href="#TimesNewRomanPS-BoldMT-65" transform="translate(460.357422 0)"/>
     <use xlink:href="#TimesNewRomanPS-BoldMT-61" transform="translate(504.742188 0)"/>
     <use xlink:href="#TimesNewRomanPS-BoldMT-6e" transform="translate(554.742188 0)"/>
     <use xlink:href="#TimesNewRomanPS-BoldMT-29" transform="translate(610.357422 0)"/>
    </g>
   </g>
   <g id="legend_1">
    <g id="patch_7">
     <path d="M 47.79 94.67625 
L 133.686875 94.67625 
Q 135.686875 94.67625 135.686875 92.67625 
L 135.686875 37.12 
Q 135.686875 35.12 133.686875 35.12 
L 47.79 35.12 
Q 45.79 35.12 45.79 37.12 
L 45.79 92.67625 
Q 45.79 94.67625 47.79 94.67625 
z
" style="fill: #ffffff; opacity: 0.8; stroke: #cccccc; stroke-linejoin: miter"/>
    </g>
    <g id="patch_8">
     <path d="M 49.79 46.12 
L 69.79 46.12 
L 69.79 39.12 
L 49.79 39.12 
z
" style="fill: #5386b6"/>
    </g>
    <g id="text_12">
     <!-- Success -->
     <g transform="translate(77.79 46.12) scale(0.1 -0.1)">
      <use xlink:href="#TimesNewRomanPSMT-53"/>
      <use xlink:href="#TimesNewRomanPSMT-75" transform="translate(55.615234 0)"/>
      <use xlink:href="#TimesNewRomanPSMT-63" transform="translate(105.615234 0)"/>
      <use xlink:href="#TimesNewRomanPSMT-63" transform="translate(150 0)"/>
      <use xlink:href="#TimesNewRomanPSMT-65" transform="translate(194.384766 0)"/>
      <use xlink:href="#TimesNewRomanPSMT-73" transform="translate(238.769531 0)"/>
      <use xlink:href="#TimesNewRomanPSMT-73" transform="translate(277.685547 0)"/>
     </g>
    </g>
    <g id="patch_9">
     <path d="M 49.79 60.259063 
L 69.79 60.259063 
L 69.79 53.259063 
L 49.79 53.259063 
z
" style="fill: #d57459"/>
    </g>
    <g id="text_13">
     <!-- Error -->
     <g transform="translate(77.79 60.259063) scale(0.1 -0.1)">
      <defs>
       <path id="TimesNewRomanPSMT-45" d="M 1338 4006 
L 1338 2331 
L 2269 2331 
Q 2631 2331 2753 2441 
Q 2916 2584 2934 2947 
L 3050 2947 
L 3050 1472 
L 2934 1472 
Q 2891 1781 2847 1869 
Q 2791 1978 2662 2040 
Q 2534 2103 2269 2103 
L 1338 2103 
L 1338 706 
Q 1338 425 1363 364 
Q 1388 303 1450 267 
Q 1513 231 1688 231 
L 2406 231 
Q 2766 231 2928 281 
Q 3091 331 3241 478 
Q 3434 672 3638 1063 
L 3763 1063 
L 3397 0 
L 131 0 
L 131 116 
L 281 116 
Q 431 116 566 188 
Q 666 238 702 338 
Q 738 438 738 747 
L 738 3500 
Q 738 3903 656 3997 
Q 544 4122 281 4122 
L 131 4122 
L 131 4238 
L 3397 4238 
L 3444 3309 
L 3322 3309 
Q 3256 3644 3176 3769 
Q 3097 3894 2941 3959 
Q 2816 4006 2500 4006 
L 1338 4006 
z
" transform="scale(0.015625)"/>
      </defs>
      <use xlink:href="#TimesNewRomanPSMT-45"/>
      <use xlink:href="#TimesNewRomanPSMT-72" transform="translate(61.083984 0)"/>
      <use xlink:href="#TimesNewRomanPSMT-72" transform="translate(94.384766 0)"/>
      <use xlink:href="#TimesNewRomanPSMT-6f" transform="translate(127.685547 0)"/>
      <use xlink:href="#TimesNewRomanPSMT-72" transform="translate(177.685547 0)"/>
     </g>
    </g>
    <g id="patch_10">
     <path d="M 49.79 74.398125 
L 69.79 74.398125 
L 69.79 67.398125 
L 49.79 67.398125 
z
" style="fill: #e8bc60"/>
    </g>
    <g id="text_14">
     <!-- Premature -->
     <g transform="translate(77.79 74.398125) scale(0.1 -0.1)">
      <defs>
       <path id="TimesNewRomanPSMT-6d" d="M 1050 2338 
Q 1363 2650 1419 2697 
Q 1559 2816 1721 2881 
Q 1884 2947 2044 2947 
Q 2313 2947 2506 2790 
Q 2700 2634 2766 2338 
Q 3088 2713 3309 2830 
Q 3531 2947 3766 2947 
Q 3994 2947 4170 2830 
Q 4347 2713 4450 2447 
Q 4519 2266 4519 1878 
L 4519 647 
Q 4519 378 4559 278 
Q 4591 209 4675 161 
Q 4759 113 4950 113 
L 4950 0 
L 3538 0 
L 3538 113 
L 3597 113 
Q 3781 113 3884 184 
Q 3956 234 3988 344 
Q 4000 397 4000 647 
L 4000 1878 
Q 4000 2228 3916 2372 
Q 3794 2572 3525 2572 
Q 3359 2572 3192 2489 
Q 3025 2406 2788 2181 
L 2781 2147 
L 2788 2013 
L 2788 647 
Q 2788 353 2820 281 
Q 2853 209 2943 161 
Q 3034 113 3253 113 
L 3253 0 
L 1806 0 
L 1806 113 
Q 2044 113 2133 169 
Q 2222 225 2256 338 
Q 2272 391 2272 647 
L 2272 1878 
Q 2272 2228 2169 2381 
Q 2031 2581 1784 2581 
Q 1616 2581 1450 2491 
Q 1191 2353 1050 2181 
L 1050 647 
Q 1050 366 1089 281 
Q 1128 197 1204 155 
Q 1281 113 1516 113 
L 1516 0 
L 100 0 
L 100 113 
Q 297 113 375 155 
Q 453 197 493 289 
Q 534 381 534 647 
L 534 1741 
Q 534 2213 506 2350 
Q 484 2453 437 2492 
Q 391 2531 309 2531 
Q 222 2531 100 2484 
L 53 2597 
L 916 2947 
L 1050 2947 
L 1050 2338 
z
" transform="scale(0.015625)"/>
      </defs>
      <use xlink:href="#TimesNewRomanPSMT-50"/>
      <use xlink:href="#TimesNewRomanPSMT-72" transform="translate(55.615234 0)"/>
      <use xlink:href="#TimesNewRomanPSMT-65" transform="translate(88.916016 0)"/>
      <use xlink:href="#TimesNewRomanPSMT-6d" transform="translate(133.300781 0)"/>
      <use xlink:href="#TimesNewRomanPSMT-61" transform="translate(211.083984 0)"/>
      <use xlink:href="#TimesNewRomanPSMT-74" transform="translate(255.46875 0)"/>
      <use xlink:href="#TimesNewRomanPSMT-75" transform="translate(283.251953 0)"/>
      <use xlink:href="#TimesNewRomanPSMT-72" transform="translate(333.251953 0)"/>
      <use xlink:href="#TimesNewRomanPSMT-65" transform="translate(366.552734 0)"/>
     </g>
    </g>
    <g id="patch_11">
     <path d="M 49.79 88.537188 
L 69.79 88.537188 
L 69.79 81.537188 
L 49.79 81.537188 
z
" style="fill: #8d5993"/>
    </g>
    <g id="text_15">
     <!-- Stepomission -->
     <g transform="translate(77.79 88.537188) scale(0.1 -0.1)">
      <use xlink:href="#TimesNewRomanPSMT-53"/>
      <use xlink:href="#TimesNewRomanPSMT-74" transform="translate(55.615234 0)"/>
      <use xlink:href="#TimesNewRomanPSMT-65" transform="translate(83.398438 0)"/>
      <use xlink:href="#TimesNewRomanPSMT-70" transform="translate(127.783203 0)"/>
      <use xlink:href="#TimesNewRomanPSMT-6f" transform="translate(177.783203 0)"/>
      <use xlink:href="#TimesNewRomanPSMT-6d" transform="translate(227.783203 0)"/>
      <use xlink:href="#TimesNewRomanPSMT-69" transform="translate(305.566406 0)"/>
      <use xlink:href="#TimesNewRomanPSMT-73" transform="translate(333.349609 0)"/>
      <use xlink:href="#TimesNewRomanPSMT-73" transform="translate(372.265625 0)"/>
      <use xlink:href="#TimesNewRomanPSMT-69" transform="translate(411.181641 0)"/>
      <use xlink:href="#TimesNewRomanPSMT-6f" transform="translate(438.964844 0)"/>
      <use xlink:href="#TimesNewRomanPSMT-6e" transform="translate(488.964844 0)"/>
     </g>
    </g>
   </g>
  </g>
 </g>
 <defs>
  <clipPath id="pbef26d22a4">
   <rect x="40.79" y="30.12" width="628.731556" height="501.4"/>
  </clipPath>
 </defs>
</svg>
