<?xml version="1.0" encoding="utf-8" standalone="no"?>
<!DOCTYPE svg PUBLIC "-//W3C//DTD SVG 1.1//EN"
  "http://www.w3.org/Graphics/SVG/1.1/DTD/svg11.dtd">
<svg xmlns:xlink="http://www.w3.org/1999/xlink" width="720pt" height="576pt" viewBox="0 0 720 576" xmlns="http://www.w3.org/2000/svg" version="1.1">
 <metadata>
  <rdf:RDF xmlns:dc="http://purl.org/dc/elements/1.1/" xmlns:cc="http://creativecommons.org/ns#" xmlns:rdf="http://www.w3.org/1999/02/22-rdf-syntax-ns#">
   <cc:Work>
    <dc:type rdf:resource="http://purl.org/dc/dcmitype/StillImage"/>
    <dc:date>2025-06-27T15:15:55.874147</dc:date>
    <dc:format>image/svg+xml</dc:format>
    <dc:creator>
     <cc:Agent>
      <dc:title>Matplotlib v3.10.3, https://matplotlib.org/</dc:title>
     </cc:Agent>
    </dc:creator>
   </cc:Work>
  </rdf:RDF>
 </metadata>
 <defs>
  <style type="text/css">*{stroke-linejoin: round; stroke-linecap: butt}</style>
 </defs>
 <g id="figure_1">
  <g id="patch_1">
   <path d="M 0 576 
L 720 576 
L 720 0 
L 0 0 
z
" style="fill: #ffffff"/>
  </g>
  <g id="axes_1">
   <g id="patch_2">
    <path d="M 40.79 531.52 
L 659.636538 531.52 
L 659.636538 30.12 
L 40.79 30.12 
z
" style="fill: #ffffff"/>
   </g>
   <g id="FillBetweenPolyCollection_1">
    <path d="M 40.79 249.4825 
L 40.79 531.52 
L 44.756965 531.52 
L 48.72393 531.52 
L 52.690895 531.52 
L 56.65786 531.52 
L 60.624825 531.52 
L 64.59179 531.52 
L 68.558755 531.52 
L 72.52572 531.52 
L 76.492685 531.52 
L 80.45965 531.52 
L 84.426615 531.52 
L 88.39358 531.52 
L 92.360545 531.52 
L 96.32751 531.52 
L 100.294475 531.52 
L 104.26144 531.52 
L 108.228405 531.52 
L 112.19537 531.52 
L 116.162335 531.52 
L 120.1293 531.52 
L 124.096265 531.52 
L 128.06323 531.52 
L 132.030195 531.52 
L 135.99716 531.52 
L 139.964125 531.52 
L 143.93109 531.52 
L 147.898055 531.52 
L 151.86502 531.52 
L 155.831985 531.52 
L 159.79895 531.52 
L 163.765915 531.52 
L 167.73288 531.52 
L 171.699845 531.52 
L 175.66681 531.52 
L 179.633775 531.52 
L 183.60074 531.52 
L 187.567705 531.52 
L 191.53467 531.52 
L 195.501635 531.52 
L 199.4686 531.52 
L 203.435565 531.52 
L 207.40253 531.52 
L 211.369495 531.52 
L 215.33646 531.52 
L 219.303425 531.52 
L 223.27039 531.52 
L 227.237355 531.52 
L 231.20432 531.52 
L 235.171285 531.52 
L 239.13825 531.52 
L 243.105214 531.52 
L 247.072179 531.52 
L 251.039144 531.52 
L 255.006109 531.52 
L 258.973074 531.52 
L 262.940039 531.52 
L 266.907004 531.52 
L 270.873969 531.52 
L 274.840934 531.52 
L 278.807899 531.52 
L 282.774864 531.52 
L 286.741829 531.52 
L 290.708794 531.52 
L 294.675759 531.52 
L 298.642724 531.52 
L 302.609689 531.52 
L 306.576654 531.52 
L 310.543619 531.52 
L 314.510584 531.52 
L 318.477549 531.52 
L 322.444514 531.52 
L 326.411479 531.52 
L 330.378444 531.52 
L 334.345409 531.52 
L 338.312374 531.52 
L 342.279339 531.52 
L 346.246304 531.52 
L 350.213269 531.52 
L 354.180234 531.52 
L 358.147199 531.52 
L 362.114164 531.52 
L 366.081129 531.52 
L 370.048094 531.52 
L 374.015059 531.52 
L 377.982024 531.52 
L 381.948989 531.52 
L 385.915954 531.52 
L 389.882919 531.52 
L 393.849884 531.52 
L 397.816849 531.52 
L 401.783814 531.52 
L 405.750779 531.52 
L 409.717744 531.52 
L 413.684709 531.52 
L 417.651674 531.52 
L 421.618639 531.52 
L 425.585604 531.52 
L 429.552569 531.52 
L 433.519534 531.52 
L 437.486499 531.52 
L 441.453464 531.52 
L 445.420429 531.52 
L 449.387394 531.52 
L 453.354359 531.52 
L 457.321324 531.52 
L 461.288289 531.52 
L 465.255254 531.52 
L 469.222219 531.52 
L 473.189184 531.52 
L 477.156149 531.52 
L 481.123114 531.52 
L 485.090079 531.52 
L 489.057044 531.52 
L 493.024009 531.52 
L 496.990974 531.52 
L 500.957939 531.52 
L 504.924904 531.52 
L 508.891869 531.52 
L 512.858834 531.52 
L 516.825799 531.52 
L 520.792764 531.52 
L 524.759729 531.52 
L 528.726694 531.52 
L 532.693659 531.52 
L 536.660624 531.52 
L 540.627589 531.52 
L 544.594554 531.52 
L 548.561519 531.52 
L 552.528484 531.52 
L 556.495449 531.52 
L 560.462414 531.52 
L 564.429379 531.52 
L 568.396344 531.52 
L 572.363309 531.52 
L 576.330274 531.52 
L 580.297239 531.52 
L 584.264204 531.52 
L 588.231169 531.52 
L 592.198134 531.52 
L 596.165099 531.52 
L 600.132064 531.52 
L 604.099029 531.52 
L 608.065994 531.52 
L 612.032959 531.52 
L 615.999924 531.52 
L 619.966889 531.52 
L 623.933854 531.52 
L 627.900819 531.52 
L 631.867784 531.52 
L 635.834749 531.52 
L 639.801714 531.52 
L 643.768679 531.52 
L 647.735643 531.52 
L 651.702608 531.52 
L 655.669573 531.52 
L 659.636538 531.52 
L 659.636538 121.283636 
L 659.636538 121.283636 
L 655.669573 30.12 
L 651.702608 180.54 
L 647.735643 113.686667 
L 643.768679 30.12 
L 639.801714 70.232 
L 635.834749 130.4 
L 631.867784 252.964444 
L 627.900819 166.865455 
L 623.933854 280.82 
L 619.966889 197.253333 
L 615.999924 197.253333 
L 612.032959 230.68 
L 608.065994 150.456 
L 604.099029 130.4 
L 600.132064 30.12 
L 596.165099 406.17 
L 592.198134 431.24 
L 588.231169 180.54 
L 584.264204 135.677895 
L 580.297239 30.12 
L 576.330274 264.106667 
L 572.363309 180.54 
L 568.396344 180.54 
L 564.429379 130.4 
L 560.462414 107.258462 
L 556.495449 30.12 
L 552.528484 180.54 
L 548.561519 330.96 
L 544.594554 239.036667 
L 540.627589 197.253333 
L 536.660624 30.12 
L 532.693659 130.4 
L 528.726694 30.12 
L 524.759729 280.82 
L 520.792764 177.590588 
L 516.825799 364.386667 
L 512.858834 30.12 
L 508.891869 92.795 
L 504.924904 30.12 
L 500.957939 197.253333 
L 496.990974 531.52 
L 493.024009 148.096471 
L 489.057044 205.61 
L 485.090079 230.68 
L 481.123114 30.12 
L 477.156149 245.005714 
L 473.189184 30.12 
L 469.222219 343.495 
L 465.255254 280.82 
L 461.288289 280.82 
L 457.321324 280.82 
L 453.354359 155.47 
L 449.387394 159.513548 
L 445.420429 184.396923 
L 441.453464 30.12 
L 437.486499 230.68 
L 433.519534 130.4 
L 429.552569 280.82 
L 425.585604 330.96 
L 421.618639 30.12 
L 417.651674 197.253333 
L 413.684709 330.96 
L 409.717744 30.12 
L 405.750779 280.82 
L 401.783814 230.68 
L 397.816849 155.47 
L 393.849884 124.1325 
L 389.882919 155.47 
L 385.915954 130.4 
L 381.948989 531.52 
L 377.982024 188.456842 
L 374.015059 30.12 
L 370.048094 197.253333 
L 366.081129 130.4 
L 362.114164 197.253333 
L 358.147199 280.82 
L 354.180234 151.147586 
L 350.213269 364.386667 
L 346.246304 280.82 
L 342.279339 316.634286 
L 338.312374 230.68 
L 334.345409 531.52 
L 330.378444 197.253333 
L 326.411479 239.036667 
L 322.444514 239.036667 
L 318.477549 30.12 
L 314.510584 239.036667 
L 310.543619 240.935909 
L 306.576654 182.72 
L 302.609689 222.966154 
L 298.642724 246.941622 
L 294.675759 280.82 
L 290.708794 280.82 
L 286.741829 209.191429 
L 282.774864 330.96 
L 278.807899 30.12 
L 274.840934 255.75 
L 270.873969 205.61 
L 266.907004 280.82 
L 262.940039 180.54 
L 258.973074 280.82 
L 255.006109 219.327547 
L 251.039144 188.726122 
L 247.072179 239.796364 
L 243.105214 209.191429 
L 239.13825 364.386667 
L 235.171285 197.253333 
L 231.20432 280.82 
L 227.237355 245.005714 
L 223.27039 184.396923 
L 219.303425 155.47 
L 215.33646 256.94381 
L 211.369495 266.072941 
L 207.40253 230.68 
L 203.435565 210.624 
L 199.4686 297.533333 
L 195.501635 197.253333 
L 191.53467 218.145 
L 187.567705 308.675556 
L 183.60074 192.736216 
L 179.633775 256.025495 
L 175.66681 186.8075 
L 171.699845 316.634286 
L 167.73288 320.404211 
L 163.765915 531.52 
L 159.79895 531.52 
L 155.831985 30.12 
L 151.86502 230.68 
L 147.898055 359.16375 
L 143.93109 218.145 
L 139.964125 318.425 
L 135.99716 280.82 
L 132.030195 280.82 
L 128.06323 243.215 
L 124.096265 293.355 
L 120.1293 276.641667 
L 116.162335 30.12 
L 112.19537 260.322516 
L 108.228405 230.68 
L 104.26144 310.904 
L 100.294475 316.634286 
L 96.32751 254.430526 
L 92.360545 330.96 
L 88.39358 288.907097 
L 84.426615 290.105185 
L 80.45965 316.634286 
L 76.492685 424.077143 
L 72.52572 531.52 
L 68.558755 280.82 
L 64.59179 280.82 
L 60.624825 330.96 
L 56.65786 230.68 
L 52.690895 280.82 
L 48.72393 318.425 
L 44.756965 266.892222 
L 40.79 249.4825 
z
" clip-path="url(#p79746f4214)" style="fill: #5386b6"/>
   </g>
   <g id="FillBetweenPolyCollection_2">
    <path d="M 40.79 77.12625 
L 40.79 249.4825 
L 44.756965 266.892222 
L 48.72393 318.425 
L 52.690895 280.82 
L 56.65786 230.68 
L 60.624825 330.96 
L 64.59179 280.82 
L 68.558755 280.82 
L 72.52572 531.52 
L 76.492685 424.077143 
L 80.45965 316.634286 
L 84.426615 290.105185 
L 88.39358 288.907097 
L 92.360545 330.96 
L 96.32751 254.430526 
L 100.294475 316.634286 
L 104.26144 310.904 
L 108.228405 230.68 
L 112.19537 260.322516 
L 116.162335 30.12 
L 120.1293 276.641667 
L 124.096265 293.355 
L 128.06323 243.215 
L 132.030195 280.82 
L 135.99716 280.82 
L 139.964125 318.425 
L 143.93109 218.145 
L 147.898055 359.16375 
L 151.86502 230.68 
L 155.831985 30.12 
L 159.79895 531.52 
L 163.765915 531.52 
L 167.73288 320.404211 
L 171.699845 316.634286 
L 175.66681 186.8075 
L 179.633775 256.025495 
L 183.60074 192.736216 
L 187.567705 308.675556 
L 191.53467 218.145 
L 195.501635 197.253333 
L 199.4686 297.533333 
L 203.435565 210.624 
L 207.40253 230.68 
L 211.369495 266.072941 
L 215.33646 256.94381 
L 219.303425 155.47 
L 223.27039 184.396923 
L 227.237355 245.005714 
L 231.20432 280.82 
L 235.171285 197.253333 
L 239.13825 364.386667 
L 243.105214 209.191429 
L 247.072179 239.796364 
L 251.039144 188.726122 
L 255.006109 219.327547 
L 258.973074 280.82 
L 262.940039 180.54 
L 266.907004 280.82 
L 270.873969 205.61 
L 274.840934 255.75 
L 278.807899 30.12 
L 282.774864 330.96 
L 286.741829 209.191429 
L 290.708794 280.82 
L 294.675759 280.82 
L 298.642724 246.941622 
L 302.609689 222.966154 
L 306.576654 182.72 
L 310.543619 240.935909 
L 314.510584 239.036667 
L 318.477549 30.12 
L 322.444514 239.036667 
L 326.411479 239.036667 
L 330.378444 197.253333 
L 334.345409 531.52 
L 338.312374 230.68 
L 342.279339 316.634286 
L 346.246304 280.82 
L 350.213269 364.386667 
L 354.180234 151.147586 
L 358.147199 280.82 
L 362.114164 197.253333 
L 366.081129 130.4 
L 370.048094 197.253333 
L 374.015059 30.12 
L 377.982024 188.456842 
L 381.948989 531.52 
L 385.915954 130.4 
L 389.882919 155.47 
L 393.849884 124.1325 
L 397.816849 155.47 
L 401.783814 230.68 
L 405.750779 280.82 
L 409.717744 30.12 
L 413.684709 330.96 
L 417.651674 197.253333 
L 421.618639 30.12 
L 425.585604 330.96 
L 429.552569 280.82 
L 433.519534 130.4 
L 437.486499 230.68 
L 441.453464 30.12 
L 445.420429 184.396923 
L 449.387394 159.513548 
L 453.354359 155.47 
L 457.321324 280.82 
L 461.288289 280.82 
L 465.255254 280.82 
L 469.222219 343.495 
L 473.189184 30.12 
L 477.156149 245.005714 
L 481.123114 30.12 
L 485.090079 230.68 
L 489.057044 205.61 
L 493.024009 148.096471 
L 496.990974 531.52 
L 500.957939 197.253333 
L 504.924904 30.12 
L 508.891869 92.795 
L 512.858834 30.12 
L 516.825799 364.386667 
L 520.792764 177.590588 
L 524.759729 280.82 
L 528.726694 30.12 
L 532.693659 130.4 
L 536.660624 30.12 
L 540.627589 197.253333 
L 544.594554 239.036667 
L 548.561519 330.96 
L 552.528484 180.54 
L 556.495449 30.12 
L 560.462414 107.258462 
L 564.429379 130.4 
L 568.396344 180.54 
L 572.363309 180.54 
L 576.330274 264.106667 
L 580.297239 30.12 
L 584.264204 135.677895 
L 588.231169 180.54 
L 592.198134 431.24 
L 596.165099 406.17 
L 600.132064 30.12 
L 604.099029 130.4 
L 608.065994 150.456 
L 612.032959 230.68 
L 615.999924 197.253333 
L 619.966889 197.253333 
L 623.933854 280.82 
L 627.900819 166.865455 
L 631.867784 252.964444 
L 635.834749 130.4 
L 639.801714 70.232 
L 643.768679 30.12 
L 647.735643 113.686667 
L 651.702608 180.54 
L 655.669573 30.12 
L 659.636538 121.283636 
L 659.636538 30.12 
L 659.636538 30.12 
L 655.669573 30.12 
L 651.702608 30.12 
L 647.735643 30.12 
L 643.768679 30.12 
L 639.801714 30.12 
L 635.834749 30.12 
L 631.867784 30.12 
L 627.900819 30.12 
L 623.933854 155.47 
L 619.966889 30.12 
L 615.999924 30.12 
L 612.032959 30.12 
L 608.065994 30.12 
L 604.099029 30.12 
L 600.132064 30.12 
L 596.165099 30.12 
L 592.198134 130.4 
L 588.231169 55.19 
L 584.264204 30.12 
L 580.297239 30.12 
L 576.330274 63.546667 
L 572.363309 30.12 
L 568.396344 30.12 
L 564.429379 30.12 
L 560.462414 68.689231 
L 556.495449 30.12 
L 552.528484 30.12 
L 548.561519 130.4 
L 544.594554 113.686667 
L 540.627589 30.12 
L 536.660624 30.12 
L 532.693659 30.12 
L 528.726694 30.12 
L 524.759729 30.12 
L 520.792764 30.12 
L 516.825799 30.12 
L 512.858834 30.12 
L 508.891869 30.12 
L 504.924904 30.12 
L 500.957939 30.12 
L 496.990974 30.12 
L 493.024009 30.12 
L 489.057044 30.12 
L 485.090079 30.12 
L 481.123114 30.12 
L 477.156149 53.99619 
L 473.189184 30.12 
L 469.222219 92.795 
L 465.255254 30.12 
L 461.288289 30.12 
L 457.321324 65.934286 
L 453.354359 92.795 
L 449.387394 46.294194 
L 445.420429 68.689231 
L 441.453464 30.12 
L 437.486499 30.12 
L 433.519534 30.12 
L 429.552569 80.26 
L 425.585604 30.12 
L 421.618639 30.12 
L 417.651674 30.12 
L 413.684709 30.12 
L 409.717744 30.12 
L 405.750779 30.12 
L 401.783814 30.12 
L 397.816849 30.12 
L 393.849884 61.4575 
L 389.882919 30.12 
L 385.915954 30.12 
L 381.948989 30.12 
L 377.982024 30.12 
L 374.015059 30.12 
L 370.048094 113.686667 
L 366.081129 63.546667 
L 362.114164 197.253333 
L 358.147199 30.12 
L 354.180234 30.12 
L 350.213269 364.386667 
L 346.246304 92.795 
L 342.279339 101.748571 
L 338.312374 30.12 
L 334.345409 531.52 
L 330.378444 35.883218 
L 326.411479 71.903333 
L 322.444514 71.903333 
L 318.477549 30.12 
L 314.510584 63.546667 
L 310.543619 47.213182 
L 306.576654 51.92 
L 302.609689 30.12 
L 298.642724 84.325405 
L 294.675759 280.82 
L 290.708794 30.12 
L 286.741829 137.562857 
L 282.774864 30.12 
L 278.807899 30.12 
L 274.840934 67.725 
L 270.873969 67.725 
L 266.907004 30.12 
L 262.940039 46.833333 
L 258.973074 51.011667 
L 255.006109 58.501132 
L 251.039144 35.236327 
L 247.072179 48.352727 
L 243.105214 65.934286 
L 239.13825 85.831111 
L 235.171285 48.69037 
L 231.20432 55.19 
L 227.237355 61.954921 
L 223.27039 30.12 
L 219.303425 30.12 
L 215.33646 42.058095 
L 211.369495 66.987647 
L 207.40253 30.12 
L 203.435565 50.176 
L 199.4686 46.833333 
L 195.501635 30.12 
L 191.53467 30.12 
L 187.567705 63.546667 
L 183.60074 30.12 
L 179.633775 41.13978 
L 175.66681 30.12 
L 171.699845 65.934286 
L 167.73288 30.12 
L 163.765915 531.52 
L 159.79895 30.12 
L 155.831985 30.12 
L 151.86502 80.26 
L 147.898055 61.4575 
L 143.93109 30.12 
L 139.964125 92.795 
L 135.99716 30.12 
L 132.030195 62.261026 
L 128.06323 42.655 
L 124.096265 30.12 
L 120.1293 55.19 
L 116.162335 30.12 
L 112.19537 49.040755 
L 108.228405 73.097143 
L 104.26144 70.232 
L 100.294475 101.748571 
L 96.32751 43.314737 
L 92.360545 96.973333 
L 88.39358 57.076989 
L 84.426615 48.69037 
L 80.45965 53.99619 
L 76.492685 316.634286 
L 72.52572 531.52 
L 68.558755 30.12 
L 64.59179 30.12 
L 60.624825 42.655 
L 56.65786 30.12 
L 52.690895 92.795 
L 48.72393 80.26 
L 44.756965 71.903333 
L 40.79 77.12625 
z
" clip-path="url(#p79746f4214)" style="fill: #d57459"/>
   </g>
   <g id="FillBetweenPolyCollection_3">
    <path d="M 40.79 45.78875 
L 40.79 77.12625 
L 44.756965 71.903333 
L 48.72393 80.26 
L 52.690895 92.795 
L 56.65786 30.12 
L 60.624825 42.655 
L 64.59179 30.12 
L 68.558755 30.12 
L 72.52572 531.52 
L 76.492685 316.634286 
L 80.45965 53.99619 
L 84.426615 48.69037 
L 88.39358 57.076989 
L 92.360545 96.973333 
L 96.32751 43.314737 
L 100.294475 101.748571 
L 104.26144 70.232 
L 108.228405 73.097143 
L 112.19537 49.040755 
L 116.162335 30.12 
L 120.1293 55.19 
L 124.096265 30.12 
L 128.06323 42.655 
L 132.030195 62.261026 
L 135.99716 30.12 
L 139.964125 92.795 
L 143.93109 30.12 
L 147.898055 61.4575 
L 151.86502 80.26 
L 155.831985 30.12 
L 159.79895 30.12 
L 163.765915 531.52 
L 167.73288 30.12 
L 171.699845 65.934286 
L 175.66681 30.12 
L 179.633775 41.13978 
L 183.60074 30.12 
L 187.567705 63.546667 
L 191.53467 30.12 
L 195.501635 30.12 
L 199.4686 46.833333 
L 203.435565 50.176 
L 207.40253 30.12 
L 211.369495 66.987647 
L 215.33646 42.058095 
L 219.303425 30.12 
L 223.27039 30.12 
L 227.237355 61.954921 
L 231.20432 55.19 
L 235.171285 48.69037 
L 239.13825 85.831111 
L 243.105214 65.934286 
L 247.072179 48.352727 
L 251.039144 35.236327 
L 255.006109 58.501132 
L 258.973074 51.011667 
L 262.940039 46.833333 
L 266.907004 30.12 
L 270.873969 67.725 
L 274.840934 67.725 
L 278.807899 30.12 
L 282.774864 30.12 
L 286.741829 137.562857 
L 290.708794 30.12 
L 294.675759 280.82 
L 298.642724 84.325405 
L 302.609689 30.12 
L 306.576654 51.92 
L 310.543619 47.213182 
L 314.510584 63.546667 
L 318.477549 30.12 
L 322.444514 71.903333 
L 326.411479 71.903333 
L 330.378444 35.883218 
L 334.345409 531.52 
L 338.312374 30.12 
L 342.279339 101.748571 
L 346.246304 92.795 
L 350.213269 364.386667 
L 354.180234 30.12 
L 358.147199 30.12 
L 362.114164 197.253333 
L 366.081129 63.546667 
L 370.048094 113.686667 
L 374.015059 30.12 
L 377.982024 30.12 
L 381.948989 30.12 
L 385.915954 30.12 
L 389.882919 30.12 
L 393.849884 61.4575 
L 397.816849 30.12 
L 401.783814 30.12 
L 405.750779 30.12 
L 409.717744 30.12 
L 413.684709 30.12 
L 417.651674 30.12 
L 421.618639 30.12 
L 425.585604 30.12 
L 429.552569 80.26 
L 433.519534 30.12 
L 437.486499 30.12 
L 441.453464 30.12 
L 445.420429 68.689231 
L 449.387394 46.294194 
L 453.354359 92.795 
L 457.321324 65.934286 
L 461.288289 30.12 
L 465.255254 30.12 
L 469.222219 92.795 
L 473.189184 30.12 
L 477.156149 53.99619 
L 481.123114 30.12 
L 485.090079 30.12 
L 489.057044 30.12 
L 493.024009 30.12 
L 496.990974 30.12 
L 500.957939 30.12 
L 504.924904 30.12 
L 508.891869 30.12 
L 512.858834 30.12 
L 516.825799 30.12 
L 520.792764 30.12 
L 524.759729 30.12 
L 528.726694 30.12 
L 532.693659 30.12 
L 536.660624 30.12 
L 540.627589 30.12 
L 544.594554 113.686667 
L 548.561519 130.4 
L 552.528484 30.12 
L 556.495449 30.12 
L 560.462414 68.689231 
L 564.429379 30.12 
L 568.396344 30.12 
L 572.363309 30.12 
L 576.330274 63.546667 
L 580.297239 30.12 
L 584.264204 30.12 
L 588.231169 55.19 
L 592.198134 130.4 
L 596.165099 30.12 
L 600.132064 30.12 
L 604.099029 30.12 
L 608.065994 30.12 
L 612.032959 30.12 
L 615.999924 30.12 
L 619.966889 30.12 
L 623.933854 155.47 
L 627.900819 30.12 
L 631.867784 30.12 
L 635.834749 30.12 
L 639.801714 30.12 
L 643.768679 30.12 
L 647.735643 30.12 
L 651.702608 30.12 
L 655.669573 30.12 
L 659.636538 30.12 
L 659.636538 30.12 
L 659.636538 30.12 
L 655.669573 30.12 
L 651.702608 30.12 
L 647.735643 30.12 
L 643.768679 30.12 
L 639.801714 30.12 
L 635.834749 30.12 
L 631.867784 30.12 
L 627.900819 30.12 
L 623.933854 155.47 
L 619.966889 30.12 
L 615.999924 30.12 
L 612.032959 30.12 
L 608.065994 30.12 
L 604.099029 30.12 
L 600.132064 30.12 
L 596.165099 30.12 
L 592.198134 30.12 
L 588.231169 30.12 
L 584.264204 30.12 
L 580.297239 30.12 
L 576.330274 30.12 
L 572.363309 30.12 
L 568.396344 30.12 
L 564.429379 30.12 
L 560.462414 30.12 
L 556.495449 30.12 
L 552.528484 30.12 
L 548.561519 30.12 
L 544.594554 30.12 
L 540.627589 30.12 
L 536.660624 30.12 
L 532.693659 30.12 
L 528.726694 30.12 
L 524.759729 30.12 
L 520.792764 30.12 
L 516.825799 30.12 
L 512.858834 30.12 
L 508.891869 30.12 
L 504.924904 30.12 
L 500.957939 30.12 
L 496.990974 30.12 
L 493.024009 30.12 
L 489.057044 30.12 
L 485.090079 30.12 
L 481.123114 30.12 
L 477.156149 30.12 
L 473.189184 30.12 
L 469.222219 30.12 
L 465.255254 30.12 
L 461.288289 30.12 
L 457.321324 30.12 
L 453.354359 92.795 
L 449.387394 30.12 
L 445.420429 30.12 
L 441.453464 30.12 
L 437.486499 30.12 
L 433.519534 30.12 
L 429.552569 46.833333 
L 425.585604 30.12 
L 421.618639 30.12 
L 417.651674 30.12 
L 413.684709 30.12 
L 409.717744 30.12 
L 405.750779 30.12 
L 401.783814 30.12 
L 397.816849 30.12 
L 393.849884 30.12 
L 389.882919 30.12 
L 385.915954 30.12 
L 381.948989 30.12 
L 377.982024 30.12 
L 374.015059 30.12 
L 370.048094 30.12 
L 366.081129 30.12 
L 362.114164 197.253333 
L 358.147199 30.12 
L 354.180234 30.12 
L 350.213269 30.12 
L 346.246304 92.795 
L 342.279339 30.12 
L 338.312374 30.12 
L 334.345409 531.52 
L 330.378444 30.12 
L 326.411479 30.12 
L 322.444514 30.12 
L 318.477549 30.12 
L 314.510584 38.476667 
L 310.543619 30.12 
L 306.576654 30.12 
L 302.609689 30.12 
L 298.642724 43.671351 
L 294.675759 155.47 
L 290.708794 30.12 
L 286.741829 101.748571 
L 282.774864 30.12 
L 278.807899 30.12 
L 274.840934 30.12 
L 270.873969 30.12 
L 266.907004 30.12 
L 262.940039 30.12 
L 258.973074 30.12 
L 255.006109 30.12 
L 251.039144 30.12 
L 247.072179 30.12 
L 243.105214 65.934286 
L 239.13825 85.831111 
L 235.171285 30.12 
L 231.20432 30.12 
L 227.237355 30.12 
L 223.27039 30.12 
L 219.303425 30.12 
L 215.33646 30.12 
L 211.369495 30.12 
L 207.40253 30.12 
L 203.435565 35.134 
L 199.4686 46.833333 
L 195.501635 30.12 
L 191.53467 30.12 
L 187.567705 30.12 
L 183.60074 30.12 
L 179.633775 30.12 
L 175.66681 30.12 
L 171.699845 30.12 
L 167.73288 30.12 
L 163.765915 531.52 
L 159.79895 30.12 
L 155.831985 30.12 
L 151.86502 30.12 
L 147.898055 30.12 
L 143.93109 30.12 
L 139.964125 30.12 
L 135.99716 30.12 
L 132.030195 30.12 
L 128.06323 30.12 
L 124.096265 30.12 
L 120.1293 30.12 
L 116.162335 30.12 
L 112.19537 30.12 
L 108.228405 30.12 
L 104.26144 30.12 
L 100.294475 101.748571 
L 96.32751 43.314737 
L 92.360545 63.546667 
L 88.39358 30.12 
L 84.426615 30.12 
L 80.45965 30.12 
L 76.492685 30.12 
L 72.52572 531.52 
L 68.558755 30.12 
L 64.59179 30.12 
L 60.624825 30.12 
L 56.65786 30.12 
L 52.690895 30.12 
L 48.72393 30.12 
L 44.756965 37.083889 
L 40.79 45.78875 
z
" clip-path="url(#p79746f4214)" style="fill: #e8bc60"/>
   </g>
   <g id="FillBetweenPolyCollection_4">
    <path d="M 40.79 30.12 
L 40.79 45.78875 
L 44.756965 37.083889 
L 48.72393 30.12 
L 52.690895 30.12 
L 56.65786 30.12 
L 60.624825 30.12 
L 64.59179 30.12 
L 68.558755 30.12 
L 72.52572 531.52 
L 76.492685 30.12 
L 80.45965 30.12 
L 84.426615 30.12 
L 88.39358 30.12 
L 92.360545 63.546667 
L 96.32751 43.314737 
L 100.294475 101.748571 
L 104.26144 30.12 
L 108.228405 30.12 
L 112.19537 30.12 
L 116.162335 30.12 
L 120.1293 30.12 
L 124.096265 30.12 
L 128.06323 30.12 
L 132.030195 30.12 
L 135.99716 30.12 
L 139.964125 30.12 
L 143.93109 30.12 
L 147.898055 30.12 
L 151.86502 30.12 
L 155.831985 30.12 
L 159.79895 30.12 
L 163.765915 531.52 
L 167.73288 30.12 
L 171.699845 30.12 
L 175.66681 30.12 
L 179.633775 30.12 
L 183.60074 30.12 
L 187.567705 30.12 
L 191.53467 30.12 
L 195.501635 30.12 
L 199.4686 46.833333 
L 203.435565 35.134 
L 207.40253 30.12 
L 211.369495 30.12 
L 215.33646 30.12 
L 219.303425 30.12 
L 223.27039 30.12 
L 227.237355 30.12 
L 231.20432 30.12 
L 235.171285 30.12 
L 239.13825 85.831111 
L 243.105214 65.934286 
L 247.072179 30.12 
L 251.039144 30.12 
L 255.006109 30.12 
L 258.973074 30.12 
L 262.940039 30.12 
L 266.907004 30.12 
L 270.873969 30.12 
L 274.840934 30.12 
L 278.807899 30.12 
L 282.774864 30.12 
L 286.741829 101.748571 
L 290.708794 30.12 
L 294.675759 155.47 
L 298.642724 43.671351 
L 302.609689 30.12 
L 306.576654 30.12 
L 310.543619 30.12 
L 314.510584 38.476667 
L 318.477549 30.12 
L 322.444514 30.12 
L 326.411479 30.12 
L 330.378444 30.12 
L 334.345409 531.52 
L 338.312374 30.12 
L 342.279339 30.12 
L 346.246304 92.795 
L 350.213269 30.12 
L 354.180234 30.12 
L 358.147199 30.12 
L 362.114164 197.253333 
L 366.081129 30.12 
L 370.048094 30.12 
L 374.015059 30.12 
L 377.982024 30.12 
L 381.948989 30.12 
L 385.915954 30.12 
L 389.882919 30.12 
L 393.849884 30.12 
L 397.816849 30.12 
L 401.783814 30.12 
L 405.750779 30.12 
L 409.717744 30.12 
L 413.684709 30.12 
L 417.651674 30.12 
L 421.618639 30.12 
L 425.585604 30.12 
L 429.552569 46.833333 
L 433.519534 30.12 
L 437.486499 30.12 
L 441.453464 30.12 
L 445.420429 30.12 
L 449.387394 30.12 
L 453.354359 92.795 
L 457.321324 30.12 
L 461.288289 30.12 
L 465.255254 30.12 
L 469.222219 30.12 
L 473.189184 30.12 
L 477.156149 30.12 
L 481.123114 30.12 
L 485.090079 30.12 
L 489.057044 30.12 
L 493.024009 30.12 
L 496.990974 30.12 
L 500.957939 30.12 
L 504.924904 30.12 
L 508.891869 30.12 
L 512.858834 30.12 
L 516.825799 30.12 
L 520.792764 30.12 
L 524.759729 30.12 
L 528.726694 30.12 
L 532.693659 30.12 
L 536.660624 30.12 
L 540.627589 30.12 
L 544.594554 30.12 
L 548.561519 30.12 
L 552.528484 30.12 
L 556.495449 30.12 
L 560.462414 30.12 
L 564.429379 30.12 
L 568.396344 30.12 
L 572.363309 30.12 
L 576.330274 30.12 
L 580.297239 30.12 
L 584.264204 30.12 
L 588.231169 30.12 
L 592.198134 30.12 
L 596.165099 30.12 
L 600.132064 30.12 
L 604.099029 30.12 
L 608.065994 30.12 
L 612.032959 30.12 
L 615.999924 30.12 
L 619.966889 30.12 
L 623.933854 155.47 
L 627.900819 30.12 
L 631.867784 30.12 
L 635.834749 30.12 
L 639.801714 30.12 
L 643.768679 30.12 
L 647.735643 30.12 
L 651.702608 30.12 
L 655.669573 30.12 
L 659.636538 30.12 
L 659.636538 30.12 
L 659.636538 30.12 
L 655.669573 30.12 
L 651.702608 30.12 
L 647.735643 30.12 
L 643.768679 30.12 
L 639.801714 30.12 
L 635.834749 30.12 
L 631.867784 30.12 
L 627.900819 30.12 
L 623.933854 30.12 
L 619.966889 30.12 
L 615.999924 30.12 
L 612.032959 30.12 
L 608.065994 30.12 
L 604.099029 30.12 
L 600.132064 30.12 
L 596.165099 30.12 
L 592.198134 30.12 
L 588.231169 30.12 
L 584.264204 30.12 
L 580.297239 30.12 
L 576.330274 30.12 
L 572.363309 30.12 
L 568.396344 30.12 
L 564.429379 30.12 
L 560.462414 30.12 
L 556.495449 30.12 
L 552.528484 30.12 
L 548.561519 30.12 
L 544.594554 30.12 
L 540.627589 30.12 
L 536.660624 30.12 
L 532.693659 30.12 
L 528.726694 30.12 
L 524.759729 30.12 
L 520.792764 30.12 
L 516.825799 30.12 
L 512.858834 30.12 
L 508.891869 30.12 
L 504.924904 30.12 
L 500.957939 30.12 
L 496.990974 30.12 
L 493.024009 30.12 
L 489.057044 30.12 
L 485.090079 30.12 
L 481.123114 30.12 
L 477.156149 30.12 
L 473.189184 30.12 
L 469.222219 30.12 
L 465.255254 30.12 
L 461.288289 30.12 
L 457.321324 30.12 
L 453.354359 30.12 
L 449.387394 30.12 
L 445.420429 30.12 
L 441.453464 30.12 
L 437.486499 30.12 
L 433.519534 30.12 
L 429.552569 30.12 
L 425.585604 30.12 
L 421.618639 30.12 
L 417.651674 30.12 
L 413.684709 30.12 
L 409.717744 30.12 
L 405.750779 30.12 
L 401.783814 30.12 
L 397.816849 30.12 
L 393.849884 30.12 
L 389.882919 30.12 
L 385.915954 30.12 
L 381.948989 30.12 
L 377.982024 30.12 
L 374.015059 30.12 
L 370.048094 30.12 
L 366.081129 30.12 
L 362.114164 30.12 
L 358.147199 30.12 
L 354.180234 30.12 
L 350.213269 30.12 
L 346.246304 30.12 
L 342.279339 30.12 
L 338.312374 30.12 
L 334.345409 30.12 
L 330.378444 30.12 
L 326.411479 30.12 
L 322.444514 30.12 
L 318.477549 30.12 
L 314.510584 30.12 
L 310.543619 30.12 
L 306.576654 30.12 
L 302.609689 30.12 
L 298.642724 30.12 
L 294.675759 30.12 
L 290.708794 30.12 
L 286.741829 30.12 
L 282.774864 30.12 
L 278.807899 30.12 
L 274.840934 30.12 
L 270.873969 30.12 
L 266.907004 30.12 
L 262.940039 30.12 
L 258.973074 30.12 
L 255.006109 30.12 
L 251.039144 30.12 
L 247.072179 30.12 
L 243.105214 30.12 
L 239.13825 30.12 
L 235.171285 30.12 
L 231.20432 30.12 
L 227.237355 30.12 
L 223.27039 30.12 
L 219.303425 30.12 
L 215.33646 30.12 
L 211.369495 30.12 
L 207.40253 30.12 
L 203.435565 30.12 
L 199.4686 30.12 
L 195.501635 30.12 
L 191.53467 30.12 
L 187.567705 30.12 
L 183.60074 30.12 
L 179.633775 30.12 
L 175.66681 30.12 
L 171.699845 30.12 
L 167.73288 30.12 
L 163.765915 30.12 
L 159.79895 30.12 
L 155.831985 30.12 
L 151.86502 30.12 
L 147.898055 30.12 
L 143.93109 30.12 
L 139.964125 30.12 
L 135.99716 30.12 
L 132.030195 30.12 
L 128.06323 30.12 
L 124.096265 30.12 
L 120.1293 30.12 
L 116.162335 30.12 
L 112.19537 30.12 
L 108.228405 30.12 
L 104.26144 30.12 
L 100.294475 30.12 
L 96.32751 30.12 
L 92.360545 30.12 
L 88.39358 30.12 
L 84.426615 30.12 
L 80.45965 30.12 
L 76.492685 30.12 
L 72.52572 30.12 
L 68.558755 30.12 
L 64.59179 30.12 
L 60.624825 30.12 
L 56.65786 30.12 
L 52.690895 30.12 
L 48.72393 30.12 
L 44.756965 30.12 
L 40.79 30.12 
z
" clip-path="url(#p79746f4214)" style="fill: #8d5993"/>
   </g>
   <g id="matplotlib.axis_1">
    <g id="xtick_1">
     <g id="line2d_1">
      <path d="M 116.162335 531.52 
L 116.162335 30.12 
" clip-path="url(#p79746f4214)" style="fill: none; stroke-dasharray: 2.96,1.28; stroke-dashoffset: 0; stroke: #b0b0b0; stroke-opacity: 0.5; stroke-width: 0.8"/>
     </g>
     <g id="line2d_2">
      <defs>
       <path id="m14e4514f34" d="M 0 0 
L 0 3.5 
" style="stroke: #000000; stroke-width: 0.8"/>
      </defs>
      <g>
       <use xlink:href="#m14e4514f34" x="116.162335" y="531.52" style="stroke: #000000; stroke-width: 0.8"/>
      </g>
     </g>
     <g id="text_1">
      <!-- 20 -->
      <g transform="translate(109.799835 546.118437) scale(0.1 -0.1)">
       <defs>
        <path id="DejaVuSans-32" d="M 1228 531 
L 3431 531 
L 3431 0 
L 469 0 
L 469 531 
Q 828 903 1448 1529 
Q 2069 2156 2228 2338 
Q 2531 2678 2651 2914 
Q 2772 3150 2772 3378 
Q 2772 3750 2511 3984 
Q 2250 4219 1831 4219 
Q 1534 4219 1204 4116 
Q 875 4013 500 3803 
L 500 4441 
Q 881 4594 1212 4672 
Q 1544 4750 1819 4750 
Q 2544 4750 2975 4387 
Q 3406 4025 3406 3419 
Q 3406 3131 3298 2873 
Q 3191 2616 2906 2266 
Q 2828 2175 2409 1742 
Q 1991 1309 1228 531 
z
" transform="scale(0.015625)"/>
        <path id="DejaVuSans-30" d="M 2034 4250 
Q 1547 4250 1301 3770 
Q 1056 3291 1056 2328 
Q 1056 1369 1301 889 
Q 1547 409 2034 409 
Q 2525 409 2770 889 
Q 3016 1369 3016 2328 
Q 3016 3291 2770 3770 
Q 2525 4250 2034 4250 
z
M 2034 4750 
Q 2819 4750 3233 4129 
Q 3647 3509 3647 2328 
Q 3647 1150 3233 529 
Q 2819 -91 2034 -91 
Q 1250 -91 836 529 
Q 422 1150 422 2328 
Q 422 3509 836 4129 
Q 1250 4750 2034 4750 
z
" transform="scale(0.015625)"/>
       </defs>
       <use xlink:href="#DejaVuSans-32"/>
       <use xlink:href="#DejaVuSans-30" transform="translate(63.623047 0)"/>
      </g>
     </g>
    </g>
    <g id="xtick_2">
     <g id="line2d_3">
      <path d="M 195.501635 531.52 
L 195.501635 30.12 
" clip-path="url(#p79746f4214)" style="fill: none; stroke-dasharray: 2.96,1.28; stroke-dashoffset: 0; stroke: #b0b0b0; stroke-opacity: 0.5; stroke-width: 0.8"/>
     </g>
     <g id="line2d_4">
      <g>
       <use xlink:href="#m14e4514f34" x="195.501635" y="531.52" style="stroke: #000000; stroke-width: 0.8"/>
      </g>
     </g>
     <g id="text_2">
      <!-- 40 -->
      <g transform="translate(189.139135 546.118437) scale(0.1 -0.1)">
       <defs>
        <path id="DejaVuSans-34" d="M 2419 4116 
L 825 1625 
L 2419 1625 
L 2419 4116 
z
M 2253 4666 
L 3047 4666 
L 3047 1625 
L 3713 1625 
L 3713 1100 
L 3047 1100 
L 3047 0 
L 2419 0 
L 2419 1100 
L 313 1100 
L 313 1709 
L 2253 4666 
z
" transform="scale(0.015625)"/>
       </defs>
       <use xlink:href="#DejaVuSans-34"/>
       <use xlink:href="#DejaVuSans-30" transform="translate(63.623047 0)"/>
      </g>
     </g>
    </g>
    <g id="xtick_3">
     <g id="line2d_5">
      <path d="M 274.840934 531.52 
L 274.840934 30.12 
" clip-path="url(#p79746f4214)" style="fill: none; stroke-dasharray: 2.96,1.28; stroke-dashoffset: 0; stroke: #b0b0b0; stroke-opacity: 0.5; stroke-width: 0.8"/>
     </g>
     <g id="line2d_6">
      <g>
       <use xlink:href="#m14e4514f34" x="274.840934" y="531.52" style="stroke: #000000; stroke-width: 0.8"/>
      </g>
     </g>
     <g id="text_3">
      <!-- 60 -->
      <g transform="translate(268.478434 546.118437) scale(0.1 -0.1)">
       <defs>
        <path id="DejaVuSans-36" d="M 2113 2584 
Q 1688 2584 1439 2293 
Q 1191 2003 1191 1497 
Q 1191 994 1439 701 
Q 1688 409 2113 409 
Q 2538 409 2786 701 
Q 3034 994 3034 1497 
Q 3034 2003 2786 2293 
Q 2538 2584 2113 2584 
z
M 3366 4563 
L 3366 3988 
Q 3128 4100 2886 4159 
Q 2644 4219 2406 4219 
Q 1781 4219 1451 3797 
Q 1122 3375 1075 2522 
Q 1259 2794 1537 2939 
Q 1816 3084 2150 3084 
Q 2853 3084 3261 2657 
Q 3669 2231 3669 1497 
Q 3669 778 3244 343 
Q 2819 -91 2113 -91 
Q 1303 -91 875 529 
Q 447 1150 447 2328 
Q 447 3434 972 4092 
Q 1497 4750 2381 4750 
Q 2619 4750 2861 4703 
Q 3103 4656 3366 4563 
z
" transform="scale(0.015625)"/>
       </defs>
       <use xlink:href="#DejaVuSans-36"/>
       <use xlink:href="#DejaVuSans-30" transform="translate(63.623047 0)"/>
      </g>
     </g>
    </g>
    <g id="xtick_4">
     <g id="line2d_7">
      <path d="M 354.180234 531.52 
L 354.180234 30.12 
" clip-path="url(#p79746f4214)" style="fill: none; stroke-dasharray: 2.96,1.28; stroke-dashoffset: 0; stroke: #b0b0b0; stroke-opacity: 0.5; stroke-width: 0.8"/>
     </g>
     <g id="line2d_8">
      <g>
       <use xlink:href="#m14e4514f34" x="354.180234" y="531.52" style="stroke: #000000; stroke-width: 0.8"/>
      </g>
     </g>
     <g id="text_4">
      <!-- 80 -->
      <g transform="translate(347.817734 546.118437) scale(0.1 -0.1)">
       <defs>
        <path id="DejaVuSans-38" d="M 2034 2216 
Q 1584 2216 1326 1975 
Q 1069 1734 1069 1313 
Q 1069 891 1326 650 
Q 1584 409 2034 409 
Q 2484 409 2743 651 
Q 3003 894 3003 1313 
Q 3003 1734 2745 1975 
Q 2488 2216 2034 2216 
z
M 1403 2484 
Q 997 2584 770 2862 
Q 544 3141 544 3541 
Q 544 4100 942 4425 
Q 1341 4750 2034 4750 
Q 2731 4750 3128 4425 
Q 3525 4100 3525 3541 
Q 3525 3141 3298 2862 
Q 3072 2584 2669 2484 
Q 3125 2378 3379 2068 
Q 3634 1759 3634 1313 
Q 3634 634 3220 271 
Q 2806 -91 2034 -91 
Q 1263 -91 848 271 
Q 434 634 434 1313 
Q 434 1759 690 2068 
Q 947 2378 1403 2484 
z
M 1172 3481 
Q 1172 3119 1398 2916 
Q 1625 2713 2034 2713 
Q 2441 2713 2670 2916 
Q 2900 3119 2900 3481 
Q 2900 3844 2670 4047 
Q 2441 4250 2034 4250 
Q 1625 4250 1398 4047 
Q 1172 3844 1172 3481 
z
" transform="scale(0.015625)"/>
       </defs>
       <use xlink:href="#DejaVuSans-38"/>
       <use xlink:href="#DejaVuSans-30" transform="translate(63.623047 0)"/>
      </g>
     </g>
    </g>
    <g id="xtick_5">
     <g id="line2d_9">
      <path d="M 433.519534 531.52 
L 433.519534 30.12 
" clip-path="url(#p79746f4214)" style="fill: none; stroke-dasharray: 2.96,1.28; stroke-dashoffset: 0; stroke: #b0b0b0; stroke-opacity: 0.5; stroke-width: 0.8"/>
     </g>
     <g id="line2d_10">
      <g>
       <use xlink:href="#m14e4514f34" x="433.519534" y="531.52" style="stroke: #000000; stroke-width: 0.8"/>
      </g>
     </g>
     <g id="text_5">
      <!-- 100 -->
      <g transform="translate(423.975784 546.118437) scale(0.1 -0.1)">
       <defs>
        <path id="DejaVuSans-31" d="M 794 531 
L 1825 531 
L 1825 4091 
L 703 3866 
L 703 4441 
L 1819 4666 
L 2450 4666 
L 2450 531 
L 3481 531 
L 3481 0 
L 794 0 
L 794 531 
z
" transform="scale(0.015625)"/>
       </defs>
       <use xlink:href="#DejaVuSans-31"/>
       <use xlink:href="#DejaVuSans-30" transform="translate(63.623047 0)"/>
       <use xlink:href="#DejaVuSans-30" transform="translate(127.246094 0)"/>
      </g>
     </g>
    </g>
    <g id="xtick_6">
     <g id="line2d_11">
      <path d="M 512.858834 531.52 
L 512.858834 30.12 
" clip-path="url(#p79746f4214)" style="fill: none; stroke-dasharray: 2.96,1.28; stroke-dashoffset: 0; stroke: #b0b0b0; stroke-opacity: 0.5; stroke-width: 0.8"/>
     </g>
     <g id="line2d_12">
      <g>
       <use xlink:href="#m14e4514f34" x="512.858834" y="531.52" style="stroke: #000000; stroke-width: 0.8"/>
      </g>
     </g>
     <g id="text_6">
      <!-- 120 -->
      <g transform="translate(503.315084 546.118437) scale(0.1 -0.1)">
       <use xlink:href="#DejaVuSans-31"/>
       <use xlink:href="#DejaVuSans-32" transform="translate(63.623047 0)"/>
       <use xlink:href="#DejaVuSans-30" transform="translate(127.246094 0)"/>
      </g>
     </g>
    </g>
    <g id="xtick_7">
     <g id="line2d_13">
      <path d="M 592.198134 531.52 
L 592.198134 30.12 
" clip-path="url(#p79746f4214)" style="fill: none; stroke-dasharray: 2.96,1.28; stroke-dashoffset: 0; stroke: #b0b0b0; stroke-opacity: 0.5; stroke-width: 0.8"/>
     </g>
     <g id="line2d_14">
      <g>
       <use xlink:href="#m14e4514f34" x="592.198134" y="531.52" style="stroke: #000000; stroke-width: 0.8"/>
      </g>
     </g>
     <g id="text_7">
      <!-- 140 -->
      <g transform="translate(582.654384 546.118437) scale(0.1 -0.1)">
       <use xlink:href="#DejaVuSans-31"/>
       <use xlink:href="#DejaVuSans-34" transform="translate(63.623047 0)"/>
       <use xlink:href="#DejaVuSans-30" transform="translate(127.246094 0)"/>
      </g>
     </g>
    </g>
    <g id="text_8">
     <!-- Session Count -->
     <g transform="translate(309.955613 561.919375) scale(0.14 -0.14)">
      <defs>
       <path id="TimesNewRomanPSMT-53" d="M 2934 4334 
L 2934 2869 
L 2819 2869 
Q 2763 3291 2617 3541 
Q 2472 3791 2203 3937 
Q 1934 4084 1647 4084 
Q 1322 4084 1109 3886 
Q 897 3688 897 3434 
Q 897 3241 1031 3081 
Q 1225 2847 1953 2456 
Q 2547 2138 2764 1967 
Q 2981 1797 3098 1565 
Q 3216 1334 3216 1081 
Q 3216 600 2842 251 
Q 2469 -97 1881 -97 
Q 1697 -97 1534 -69 
Q 1438 -53 1133 45 
Q 828 144 747 144 
Q 669 144 623 97 
Q 578 50 556 -97 
L 441 -97 
L 441 1356 
L 556 1356 
Q 638 900 775 673 
Q 913 447 1195 297 
Q 1478 147 1816 147 
Q 2206 147 2432 353 
Q 2659 559 2659 841 
Q 2659 997 2573 1156 
Q 2488 1316 2306 1453 
Q 2184 1547 1640 1851 
Q 1097 2156 867 2337 
Q 638 2519 519 2737 
Q 400 2956 400 3219 
Q 400 3675 750 4004 
Q 1100 4334 1641 4334 
Q 1978 4334 2356 4169 
Q 2531 4091 2603 4091 
Q 2684 4091 2736 4139 
Q 2788 4188 2819 4334 
L 2934 4334 
z
" transform="scale(0.015625)"/>
       <path id="TimesNewRomanPSMT-65" d="M 681 1784 
Q 678 1147 991 784 
Q 1303 422 1725 422 
Q 2006 422 2214 576 
Q 2422 731 2563 1106 
L 2659 1044 
Q 2594 616 2278 264 
Q 1963 -88 1488 -88 
Q 972 -88 605 314 
Q 238 716 238 1394 
Q 238 2128 614 2539 
Q 991 2950 1559 2950 
Q 2041 2950 2350 2633 
Q 2659 2316 2659 1784 
L 681 1784 
z
M 681 1966 
L 2006 1966 
Q 1991 2241 1941 2353 
Q 1863 2528 1708 2628 
Q 1553 2728 1384 2728 
Q 1125 2728 920 2526 
Q 716 2325 681 1966 
z
" transform="scale(0.015625)"/>
       <path id="TimesNewRomanPSMT-73" d="M 2050 2947 
L 2050 1972 
L 1947 1972 
Q 1828 2431 1642 2597 
Q 1456 2763 1169 2763 
Q 950 2763 815 2647 
Q 681 2531 681 2391 
Q 681 2216 781 2091 
Q 878 1963 1175 1819 
L 1631 1597 
Q 2266 1288 2266 781 
Q 2266 391 1970 151 
Q 1675 -88 1309 -88 
Q 1047 -88 709 6 
Q 606 38 541 38 
Q 469 38 428 -44 
L 325 -44 
L 325 978 
L 428 978 
Q 516 541 762 319 
Q 1009 97 1316 97 
Q 1531 97 1667 223 
Q 1803 350 1803 528 
Q 1803 744 1651 891 
Q 1500 1038 1047 1263 
Q 594 1488 453 1669 
Q 313 1847 313 2119 
Q 313 2472 555 2709 
Q 797 2947 1181 2947 
Q 1350 2947 1591 2875 
Q 1750 2828 1803 2828 
Q 1853 2828 1881 2850 
Q 1909 2872 1947 2947 
L 2050 2947 
z
" transform="scale(0.015625)"/>
       <path id="TimesNewRomanPSMT-69" d="M 928 4444 
Q 1059 4444 1151 4351 
Q 1244 4259 1244 4128 
Q 1244 3997 1151 3903 
Q 1059 3809 928 3809 
Q 797 3809 703 3903 
Q 609 3997 609 4128 
Q 609 4259 701 4351 
Q 794 4444 928 4444 
z
M 1188 2947 
L 1188 647 
Q 1188 378 1227 289 
Q 1266 200 1342 156 
Q 1419 113 1622 113 
L 1622 0 
L 231 0 
L 231 113 
Q 441 113 512 153 
Q 584 194 626 287 
Q 669 381 669 647 
L 669 1750 
Q 669 2216 641 2353 
Q 619 2453 572 2492 
Q 525 2531 444 2531 
Q 356 2531 231 2484 
L 188 2597 
L 1050 2947 
L 1188 2947 
z
" transform="scale(0.015625)"/>
       <path id="TimesNewRomanPSMT-6f" d="M 1600 2947 
Q 2250 2947 2644 2453 
Q 2978 2031 2978 1484 
Q 2978 1100 2793 706 
Q 2609 313 2286 112 
Q 1963 -88 1566 -88 
Q 919 -88 538 428 
Q 216 863 216 1403 
Q 216 1797 411 2186 
Q 606 2575 925 2761 
Q 1244 2947 1600 2947 
z
M 1503 2744 
Q 1338 2744 1170 2645 
Q 1003 2547 900 2300 
Q 797 2053 797 1666 
Q 797 1041 1045 587 
Q 1294 134 1700 134 
Q 2003 134 2200 384 
Q 2397 634 2397 1244 
Q 2397 2006 2069 2444 
Q 1847 2744 1503 2744 
z
" transform="scale(0.015625)"/>
       <path id="TimesNewRomanPSMT-6e" d="M 1034 2341 
Q 1538 2947 1994 2947 
Q 2228 2947 2397 2830 
Q 2566 2713 2666 2444 
Q 2734 2256 2734 1869 
L 2734 647 
Q 2734 375 2778 278 
Q 2813 200 2889 156 
Q 2966 113 3172 113 
L 3172 0 
L 1756 0 
L 1756 113 
L 1816 113 
Q 2016 113 2095 173 
Q 2175 234 2206 353 
Q 2219 400 2219 647 
L 2219 1819 
Q 2219 2209 2117 2386 
Q 2016 2563 1775 2563 
Q 1403 2563 1034 2156 
L 1034 647 
Q 1034 356 1069 288 
Q 1113 197 1189 155 
Q 1266 113 1500 113 
L 1500 0 
L 84 0 
L 84 113 
L 147 113 
Q 366 113 442 223 
Q 519 334 519 647 
L 519 1709 
Q 519 2225 495 2337 
Q 472 2450 423 2490 
Q 375 2531 294 2531 
Q 206 2531 84 2484 
L 38 2597 
L 900 2947 
L 1034 2947 
L 1034 2341 
z
" transform="scale(0.015625)"/>
       <path id="TimesNewRomanPSMT-20" transform="scale(0.015625)"/>
       <path id="TimesNewRomanPSMT-43" d="M 3853 4334 
L 3950 2894 
L 3853 2894 
Q 3659 3541 3300 3825 
Q 2941 4109 2438 4109 
Q 2016 4109 1675 3895 
Q 1334 3681 1139 3212 
Q 944 2744 944 2047 
Q 944 1472 1128 1050 
Q 1313 628 1683 403 
Q 2053 178 2528 178 
Q 2941 178 3256 354 
Q 3572 531 3950 1056 
L 4047 994 
Q 3728 428 3303 165 
Q 2878 -97 2294 -97 
Q 1241 -97 663 684 
Q 231 1266 231 2053 
Q 231 2688 515 3219 
Q 800 3750 1298 4042 
Q 1797 4334 2388 4334 
Q 2847 4334 3294 4109 
Q 3425 4041 3481 4041 
Q 3566 4041 3628 4100 
Q 3709 4184 3744 4334 
L 3853 4334 
z
" transform="scale(0.015625)"/>
       <path id="TimesNewRomanPSMT-75" d="M 2709 2863 
L 2709 1128 
Q 2709 631 2732 520 
Q 2756 409 2807 365 
Q 2859 322 2928 322 
Q 3025 322 3147 375 
L 3191 266 
L 2334 -88 
L 2194 -88 
L 2194 519 
Q 1825 119 1631 15 
Q 1438 -88 1222 -88 
Q 981 -88 804 51 
Q 628 191 559 409 
Q 491 628 491 1028 
L 491 2306 
Q 491 2509 447 2587 
Q 403 2666 317 2708 
Q 231 2750 6 2747 
L 6 2863 
L 1009 2863 
L 1009 947 
Q 1009 547 1148 422 
Q 1288 297 1484 297 
Q 1619 297 1789 381 
Q 1959 466 2194 703 
L 2194 2325 
Q 2194 2569 2105 2655 
Q 2016 2741 1734 2747 
L 1734 2863 
L 2709 2863 
z
" transform="scale(0.015625)"/>
       <path id="TimesNewRomanPSMT-74" d="M 1031 3803 
L 1031 2863 
L 1700 2863 
L 1700 2644 
L 1031 2644 
L 1031 788 
Q 1031 509 1111 412 
Q 1191 316 1316 316 
Q 1419 316 1516 380 
Q 1613 444 1666 569 
L 1788 569 
Q 1678 263 1478 108 
Q 1278 -47 1066 -47 
Q 922 -47 784 33 
Q 647 113 581 261 
Q 516 409 516 719 
L 516 2644 
L 63 2644 
L 63 2747 
Q 234 2816 414 2980 
Q 594 3144 734 3369 
Q 806 3488 934 3803 
L 1031 3803 
z
" transform="scale(0.015625)"/>
      </defs>
      <use xlink:href="#TimesNewRomanPSMT-53"/>
      <use xlink:href="#TimesNewRomanPSMT-65" transform="translate(55.615234 0)"/>
      <use xlink:href="#TimesNewRomanPSMT-73" transform="translate(100 0)"/>
      <use xlink:href="#TimesNewRomanPSMT-73" transform="translate(138.916016 0)"/>
      <use xlink:href="#TimesNewRomanPSMT-69" transform="translate(177.832031 0)"/>
      <use xlink:href="#TimesNewRomanPSMT-6f" transform="translate(205.615234 0)"/>
      <use xlink:href="#TimesNewRomanPSMT-6e" transform="translate(255.615234 0)"/>
      <use xlink:href="#TimesNewRomanPSMT-20" transform="translate(305.615234 0)"/>
      <use xlink:href="#TimesNewRomanPSMT-43" transform="translate(330.615234 0)"/>
      <use xlink:href="#TimesNewRomanPSMT-6f" transform="translate(397.314453 0)"/>
      <use xlink:href="#TimesNewRomanPSMT-75" transform="translate(447.314453 0)"/>
      <use xlink:href="#TimesNewRomanPSMT-6e" transform="translate(497.314453 0)"/>
      <use xlink:href="#TimesNewRomanPSMT-74" transform="translate(547.314453 0)"/>
     </g>
    </g>
   </g>
   <g id="matplotlib.axis_2">
    <g id="ytick_1">
     <g id="line2d_15">
      <path d="M 40.79 531.52 
L 659.636538 531.52 
" clip-path="url(#p79746f4214)" style="fill: none; stroke-dasharray: 2.96,1.28; stroke-dashoffset: 0; stroke: #b0b0b0; stroke-opacity: 0.5; stroke-width: 0.8"/>
     </g>
     <g id="line2d_16">
      <defs>
       <path id="m17073b9240" d="M 0 0 
L -3.5 0 
" style="stroke: #000000; stroke-width: 0.8"/>
      </defs>
      <g>
       <use xlink:href="#m17073b9240" x="40.79" y="531.52" style="stroke: #000000; stroke-width: 0.8"/>
      </g>
     </g>
     <g id="text_9">
      <!-- 0 -->
      <g transform="translate(27.4275 535.319219) scale(0.1 -0.1)">
       <use xlink:href="#DejaVuSans-30"/>
      </g>
     </g>
    </g>
    <g id="ytick_2">
     <g id="line2d_17">
      <path d="M 40.79 30.12 
L 659.636538 30.12 
" clip-path="url(#p79746f4214)" style="fill: none; stroke-dasharray: 2.96,1.28; stroke-dashoffset: 0; stroke: #b0b0b0; stroke-opacity: 0.5; stroke-width: 0.8"/>
     </g>
     <g id="line2d_18">
      <g>
       <use xlink:href="#m17073b9240" x="40.79" y="30.12" style="stroke: #000000; stroke-width: 0.8"/>
      </g>
     </g>
     <g id="text_10">
      <!-- 1 -->
      <g transform="translate(27.4275 33.919219) scale(0.1 -0.1)">
       <use xlink:href="#DejaVuSans-31"/>
      </g>
     </g>
    </g>
    <g id="text_11">
     <!-- Stacked Proportion -->
     <g transform="translate(20.432813 334.672969) rotate(-90) scale(0.14 -0.14)">
      <defs>
       <path id="TimesNewRomanPSMT-61" d="M 1822 413 
Q 1381 72 1269 19 
Q 1100 -59 909 -59 
Q 613 -59 420 144 
Q 228 347 228 678 
Q 228 888 322 1041 
Q 450 1253 767 1440 
Q 1084 1628 1822 1897 
L 1822 2009 
Q 1822 2438 1686 2597 
Q 1550 2756 1291 2756 
Q 1094 2756 978 2650 
Q 859 2544 859 2406 
L 866 2225 
Q 866 2081 792 2003 
Q 719 1925 600 1925 
Q 484 1925 411 2006 
Q 338 2088 338 2228 
Q 338 2497 613 2722 
Q 888 2947 1384 2947 
Q 1766 2947 2009 2819 
Q 2194 2722 2281 2516 
Q 2338 2381 2338 1966 
L 2338 994 
Q 2338 584 2353 492 
Q 2369 400 2405 369 
Q 2441 338 2488 338 
Q 2538 338 2575 359 
Q 2641 400 2828 588 
L 2828 413 
Q 2478 -56 2159 -56 
Q 2006 -56 1915 50 
Q 1825 156 1822 413 
z
M 1822 616 
L 1822 1706 
Q 1350 1519 1213 1441 
Q 966 1303 859 1153 
Q 753 1003 753 825 
Q 753 600 887 451 
Q 1022 303 1197 303 
Q 1434 303 1822 616 
z
" transform="scale(0.015625)"/>
       <path id="TimesNewRomanPSMT-63" d="M 2631 1088 
Q 2516 522 2178 217 
Q 1841 -88 1431 -88 
Q 944 -88 581 321 
Q 219 731 219 1428 
Q 219 2103 620 2525 
Q 1022 2947 1584 2947 
Q 2006 2947 2278 2723 
Q 2550 2500 2550 2259 
Q 2550 2141 2473 2067 
Q 2397 1994 2259 1994 
Q 2075 1994 1981 2113 
Q 1928 2178 1911 2362 
Q 1894 2547 1784 2644 
Q 1675 2738 1481 2738 
Q 1169 2738 978 2506 
Q 725 2200 725 1697 
Q 725 1184 976 792 
Q 1228 400 1656 400 
Q 1963 400 2206 609 
Q 2378 753 2541 1131 
L 2631 1088 
z
" transform="scale(0.015625)"/>
       <path id="TimesNewRomanPSMT-6b" d="M 1047 4444 
L 1047 1594 
L 1775 2259 
Q 2006 2472 2044 2528 
Q 2069 2566 2069 2603 
Q 2069 2666 2017 2711 
Q 1966 2756 1847 2763 
L 1847 2863 
L 3091 2863 
L 3091 2763 
Q 2834 2756 2664 2684 
Q 2494 2613 2291 2428 
L 1556 1750 
L 2291 822 
Q 2597 438 2703 334 
Q 2853 188 2966 144 
Q 3044 113 3238 113 
L 3238 0 
L 1847 0 
L 1847 113 
Q 1966 116 2008 148 
Q 2050 181 2050 241 
Q 2050 313 1925 472 
L 1047 1594 
L 1047 644 
Q 1047 366 1086 278 
Q 1125 191 1197 153 
Q 1269 116 1509 113 
L 1509 0 
L 53 0 
L 53 113 
Q 272 113 381 166 
Q 447 200 481 272 
Q 528 375 528 628 
L 528 3234 
Q 528 3731 506 3842 
Q 484 3953 434 3995 
Q 384 4038 303 4038 
Q 238 4038 106 3984 
L 53 4094 
L 903 4444 
L 1047 4444 
z
" transform="scale(0.015625)"/>
       <path id="TimesNewRomanPSMT-64" d="M 2222 322 
Q 2013 103 1813 7 
Q 1613 -88 1381 -88 
Q 913 -88 563 304 
Q 213 697 213 1313 
Q 213 1928 600 2439 
Q 988 2950 1597 2950 
Q 1975 2950 2222 2709 
L 2222 3238 
Q 2222 3728 2198 3840 
Q 2175 3953 2125 3993 
Q 2075 4034 2000 4034 
Q 1919 4034 1784 3984 
L 1744 4094 
L 2597 4444 
L 2738 4444 
L 2738 1134 
Q 2738 631 2761 520 
Q 2784 409 2836 365 
Q 2888 322 2956 322 
Q 3041 322 3181 375 
L 3216 266 
L 2366 -88 
L 2222 -88 
L 2222 322 
z
M 2222 541 
L 2222 2016 
Q 2203 2228 2109 2403 
Q 2016 2578 1861 2667 
Q 1706 2756 1559 2756 
Q 1284 2756 1069 2509 
Q 784 2184 784 1559 
Q 784 928 1059 592 
Q 1334 256 1672 256 
Q 1956 256 2222 541 
z
" transform="scale(0.015625)"/>
       <path id="TimesNewRomanPSMT-50" d="M 1313 1984 
L 1313 750 
Q 1313 350 1400 253 
Q 1519 116 1759 116 
L 1922 116 
L 1922 0 
L 106 0 
L 106 116 
L 266 116 
Q 534 116 650 291 
Q 713 388 713 750 
L 713 3488 
Q 713 3888 628 3984 
Q 506 4122 266 4122 
L 106 4122 
L 106 4238 
L 1659 4238 
Q 2228 4238 2556 4120 
Q 2884 4003 3109 3725 
Q 3334 3447 3334 3066 
Q 3334 2547 2992 2222 
Q 2650 1897 2025 1897 
Q 1872 1897 1694 1919 
Q 1516 1941 1313 1984 
z
M 1313 2163 
Q 1478 2131 1606 2115 
Q 1734 2100 1825 2100 
Q 2150 2100 2386 2351 
Q 2622 2603 2622 3003 
Q 2622 3278 2509 3514 
Q 2397 3750 2190 3867 
Q 1984 3984 1722 3984 
Q 1563 3984 1313 3925 
L 1313 2163 
z
" transform="scale(0.015625)"/>
       <path id="TimesNewRomanPSMT-72" d="M 1038 2947 
L 1038 2303 
Q 1397 2947 1775 2947 
Q 1947 2947 2059 2842 
Q 2172 2738 2172 2600 
Q 2172 2478 2090 2393 
Q 2009 2309 1897 2309 
Q 1788 2309 1652 2417 
Q 1516 2525 1450 2525 
Q 1394 2525 1328 2463 
Q 1188 2334 1038 2041 
L 1038 669 
Q 1038 431 1097 309 
Q 1138 225 1241 169 
Q 1344 113 1538 113 
L 1538 0 
L 72 0 
L 72 113 
Q 291 113 397 181 
Q 475 231 506 341 
Q 522 394 522 644 
L 522 1753 
Q 522 2253 501 2348 
Q 481 2444 426 2487 
Q 372 2531 291 2531 
Q 194 2531 72 2484 
L 41 2597 
L 906 2947 
L 1038 2947 
z
" transform="scale(0.015625)"/>
       <path id="TimesNewRomanPSMT-70" d="M -6 2578 
L 875 2934 
L 994 2934 
L 994 2266 
Q 1216 2644 1439 2795 
Q 1663 2947 1909 2947 
Q 2341 2947 2628 2609 
Q 2981 2197 2981 1534 
Q 2981 794 2556 309 
Q 2206 -88 1675 -88 
Q 1444 -88 1275 -22 
Q 1150 25 994 166 
L 994 -706 
Q 994 -1000 1030 -1079 
Q 1066 -1159 1155 -1206 
Q 1244 -1253 1478 -1253 
L 1478 -1369 
L -22 -1369 
L -22 -1253 
L 56 -1253 
Q 228 -1256 350 -1188 
Q 409 -1153 442 -1076 
Q 475 -1000 475 -688 
L 475 2019 
Q 475 2297 450 2372 
Q 425 2447 370 2484 
Q 316 2522 222 2522 
Q 147 2522 31 2478 
L -6 2578 
z
M 994 2081 
L 994 1013 
Q 994 666 1022 556 
Q 1066 375 1236 237 
Q 1406 100 1666 100 
Q 1978 100 2172 344 
Q 2425 663 2425 1241 
Q 2425 1897 2138 2250 
Q 1938 2494 1663 2494 
Q 1513 2494 1366 2419 
Q 1253 2363 994 2081 
z
" transform="scale(0.015625)"/>
      </defs>
      <use xlink:href="#TimesNewRomanPSMT-53"/>
      <use xlink:href="#TimesNewRomanPSMT-74" transform="translate(55.615234 0)"/>
      <use xlink:href="#TimesNewRomanPSMT-61" transform="translate(83.398438 0)"/>
      <use xlink:href="#TimesNewRomanPSMT-63" transform="translate(127.783203 0)"/>
      <use xlink:href="#TimesNewRomanPSMT-6b" transform="translate(172.167969 0)"/>
      <use xlink:href="#TimesNewRomanPSMT-65" transform="translate(222.167969 0)"/>
      <use xlink:href="#TimesNewRomanPSMT-64" transform="translate(266.552734 0)"/>
      <use xlink:href="#TimesNewRomanPSMT-20" transform="translate(316.552734 0)"/>
      <use xlink:href="#TimesNewRomanPSMT-50" transform="translate(341.552734 0)"/>
      <use xlink:href="#TimesNewRomanPSMT-72" transform="translate(397.167969 0)"/>
      <use xlink:href="#TimesNewRomanPSMT-6f" transform="translate(430.46875 0)"/>
      <use xlink:href="#TimesNewRomanPSMT-70" transform="translate(480.46875 0)"/>
      <use xlink:href="#TimesNewRomanPSMT-6f" transform="translate(530.46875 0)"/>
      <use xlink:href="#TimesNewRomanPSMT-72" transform="translate(580.46875 0)"/>
      <use xlink:href="#TimesNewRomanPSMT-74" transform="translate(613.769531 0)"/>
      <use xlink:href="#TimesNewRomanPSMT-69" transform="translate(641.552734 0)"/>
      <use xlink:href="#TimesNewRomanPSMT-6f" transform="translate(669.335938 0)"/>
      <use xlink:href="#TimesNewRomanPSMT-6e" transform="translate(719.335938 0)"/>
     </g>
    </g>
   </g>
   <g id="line2d_19">
    <path d="M 40.79 239.38135 
L 659.636538 239.38135 
" clip-path="url(#p79746f4214)" style="fill: none; stroke-dasharray: 7.5,15; stroke-dashoffset: 0; stroke: #000000; stroke-width: 1.5"/>
   </g>
   <g id="patch_3">
    <path d="M 40.79 531.52 
L 40.79 30.12 
" style="fill: none; stroke: #000000; stroke-width: 0.8; stroke-linejoin: miter; stroke-linecap: square"/>
   </g>
   <g id="patch_4">
    <path d="M 659.636538 531.52 
L 659.636538 30.12 
" style="fill: none; stroke: #000000; stroke-width: 0.8; stroke-linejoin: miter; stroke-linecap: square"/>
   </g>
   <g id="patch_5">
    <path d="M 40.79 531.52 
L 659.636538 531.52 
" style="fill: none; stroke: #000000; stroke-width: 0.8; stroke-linejoin: miter; stroke-linecap: square"/>
   </g>
   <g id="patch_6">
    <path d="M 40.79 30.12 
L 659.636538 30.12 
" style="fill: none; stroke: #000000; stroke-width: 0.8; stroke-linejoin: miter; stroke-linecap: square"/>
   </g>
   <g id="text_12">
    <!-- 0.58 -->
    <g transform="translate(687.405293 242.744632) scale(0.14 -0.14)">
     <defs>
      <path id="TimesNewRomanPSMT-30" d="M 231 2094 
Q 231 2819 450 3342 
Q 669 3866 1031 4122 
Q 1313 4325 1613 4325 
Q 2100 4325 2488 3828 
Q 2972 3213 2972 2159 
Q 2972 1422 2759 906 
Q 2547 391 2217 158 
Q 1888 -75 1581 -75 
Q 975 -75 572 641 
Q 231 1244 231 2094 
z
M 844 2016 
Q 844 1141 1059 588 
Q 1238 122 1591 122 
Q 1759 122 1940 273 
Q 2122 425 2216 781 
Q 2359 1319 2359 2297 
Q 2359 3022 2209 3506 
Q 2097 3866 1919 4016 
Q 1791 4119 1609 4119 
Q 1397 4119 1231 3928 
Q 1006 3669 925 3112 
Q 844 2556 844 2016 
z
" transform="scale(0.015625)"/>
      <path id="TimesNewRomanPSMT-2e" d="M 800 606 
Q 947 606 1047 504 
Q 1147 403 1147 259 
Q 1147 116 1045 14 
Q 944 -88 800 -88 
Q 656 -88 554 14 
Q 453 116 453 259 
Q 453 406 554 506 
Q 656 606 800 606 
z
" transform="scale(0.015625)"/>
      <path id="TimesNewRomanPSMT-35" d="M 2778 4238 
L 2534 3706 
L 1259 3706 
L 981 3138 
Q 1809 3016 2294 2522 
Q 2709 2097 2709 1522 
Q 2709 1188 2573 903 
Q 2438 619 2231 419 
Q 2025 219 1772 97 
Q 1413 -75 1034 -75 
Q 653 -75 479 54 
Q 306 184 306 341 
Q 306 428 378 495 
Q 450 563 559 563 
Q 641 563 702 538 
Q 763 513 909 409 
Q 1144 247 1384 247 
Q 1750 247 2026 523 
Q 2303 800 2303 1197 
Q 2303 1581 2056 1914 
Q 1809 2247 1375 2428 
Q 1034 2569 447 2591 
L 1259 4238 
L 2778 4238 
z
" transform="scale(0.015625)"/>
      <path id="TimesNewRomanPSMT-38" d="M 1228 2134 
Q 725 2547 579 2797 
Q 434 3047 434 3316 
Q 434 3728 753 4026 
Q 1072 4325 1600 4325 
Q 2113 4325 2425 4047 
Q 2738 3769 2738 3413 
Q 2738 3175 2569 2928 
Q 2400 2681 1866 2347 
Q 2416 1922 2594 1678 
Q 2831 1359 2831 1006 
Q 2831 559 2490 242 
Q 2150 -75 1597 -75 
Q 994 -75 656 303 
Q 388 606 388 966 
Q 388 1247 577 1523 
Q 766 1800 1228 2134 
z
M 1719 2469 
Q 2094 2806 2194 3001 
Q 2294 3197 2294 3444 
Q 2294 3772 2109 3958 
Q 1925 4144 1606 4144 
Q 1288 4144 1088 3959 
Q 888 3775 888 3528 
Q 888 3366 970 3203 
Q 1053 3041 1206 2894 
L 1719 2469 
z
M 1375 2016 
Q 1116 1797 991 1539 
Q 866 1281 866 981 
Q 866 578 1086 336 
Q 1306 94 1647 94 
Q 1984 94 2187 284 
Q 2391 475 2391 747 
Q 2391 972 2272 1150 
Q 2050 1481 1375 2016 
z
" transform="scale(0.015625)"/>
     </defs>
     <use xlink:href="#TimesNewRomanPSMT-30"/>
     <use xlink:href="#TimesNewRomanPSMT-2e" transform="translate(50 0)"/>
     <use xlink:href="#TimesNewRomanPSMT-35" transform="translate(75 0)"/>
     <use xlink:href="#TimesNewRomanPSMT-38" transform="translate(125 0)"/>
    </g>
   </g>
   <g id="text_13">
    <!-- Faramir (Rhesus) -->
    <g transform="translate(274.567957 24.12) scale(0.2 -0.2)">
     <defs>
      <path id="TimesNewRomanPS-BoldMT-46" d="M 1759 3994 
L 1759 2253 
L 1881 2253 
Q 2163 2253 2341 2337 
Q 2519 2422 2642 2622 
Q 2766 2822 2803 3163 
L 2913 3163 
L 2913 1034 
L 2803 1034 
Q 2744 1638 2480 1830 
Q 2216 2022 1881 2022 
L 1759 2022 
L 1759 725 
Q 1759 400 1795 319 
Q 1831 238 1936 177 
Q 2041 116 2219 116 
L 2359 116 
L 2359 0 
L 144 0 
L 144 116 
L 284 116 
Q 469 116 581 181 
Q 663 225 706 331 
Q 741 406 741 725 
L 741 3513 
Q 741 3838 706 3919 
Q 672 4000 567 4061 
Q 463 4122 284 4122 
L 144 4122 
L 144 4238 
L 3719 4238 
L 3719 3022 
L 3591 3022 
Q 3547 3450 3367 3656 
Q 3188 3863 2847 3947 
Q 2659 3994 2153 3994 
L 1759 3994 
z
" transform="scale(0.015625)"/>
      <path id="TimesNewRomanPS-BoldMT-61" d="M 1828 431 
Q 1294 -41 869 -41 
Q 619 -41 453 123 
Q 288 288 288 534 
Q 288 869 575 1136 
Q 863 1403 1828 1847 
L 1828 2141 
Q 1828 2472 1792 2558 
Q 1756 2644 1656 2708 
Q 1556 2772 1431 2772 
Q 1228 2772 1097 2681 
Q 1016 2625 1016 2550 
Q 1016 2484 1103 2388 
Q 1222 2253 1222 2128 
Q 1222 1975 1108 1867 
Q 994 1759 809 1759 
Q 613 1759 480 1878 
Q 347 1997 347 2156 
Q 347 2381 525 2586 
Q 703 2791 1022 2900 
Q 1341 3009 1684 3009 
Q 2100 3009 2342 2832 
Q 2584 2656 2656 2450 
Q 2700 2319 2700 1847 
L 2700 713 
Q 2700 513 2715 461 
Q 2731 409 2762 384 
Q 2794 359 2834 359 
Q 2916 359 3000 475 
L 3094 400 
Q 2938 169 2770 64 
Q 2603 -41 2391 -41 
Q 2141 -41 2000 76 
Q 1859 194 1828 431 
z
M 1828 659 
L 1828 1638 
Q 1450 1416 1266 1163 
Q 1144 994 1144 822 
Q 1144 678 1247 569 
Q 1325 484 1466 484 
Q 1622 484 1828 659 
z
" transform="scale(0.015625)"/>
      <path id="TimesNewRomanPS-BoldMT-72" d="M 1428 2922 
L 1428 2259 
Q 1719 2713 1937 2861 
Q 2156 3009 2359 3009 
Q 2534 3009 2639 2901 
Q 2744 2794 2744 2597 
Q 2744 2388 2642 2272 
Q 2541 2156 2397 2156 
Q 2231 2156 2109 2262 
Q 1988 2369 1966 2381 
Q 1934 2400 1894 2400 
Q 1803 2400 1722 2331 
Q 1594 2225 1528 2028 
Q 1428 1725 1428 1359 
L 1428 688 
L 1431 513 
Q 1431 334 1453 284 
Q 1491 200 1564 161 
Q 1638 122 1813 113 
L 1813 0 
L 234 0 
L 234 113 
Q 425 128 492 217 
Q 559 306 559 688 
L 559 2303 
Q 559 2553 534 2622 
Q 503 2709 443 2750 
Q 384 2791 234 2806 
L 234 2922 
L 1428 2922 
z
" transform="scale(0.015625)"/>
      <path id="TimesNewRomanPS-BoldMT-6d" d="M 1428 2922 
L 1428 2538 
Q 1669 2800 1873 2904 
Q 2078 3009 2322 3009 
Q 2603 3009 2793 2878 
Q 2984 2747 3088 2478 
Q 3338 2759 3567 2884 
Q 3797 3009 4047 3009 
Q 4350 3009 4529 2870 
Q 4709 2731 4779 2517 
Q 4850 2303 4850 1834 
L 4850 638 
Q 4850 300 4911 219 
Q 4972 138 5166 113 
L 5166 0 
L 3656 0 
L 3656 113 
Q 3834 128 3919 250 
Q 3975 334 3975 638 
L 3975 1894 
Q 3975 2284 3944 2390 
Q 3913 2497 3845 2548 
Q 3778 2600 3688 2600 
Q 3553 2600 3415 2501 
Q 3278 2403 3138 2206 
L 3138 638 
Q 3138 322 3191 241 
Q 3263 125 3466 113 
L 3466 0 
L 1953 0 
L 1953 113 
Q 2075 119 2145 173 
Q 2216 228 2239 304 
Q 2263 381 2263 638 
L 2263 1894 
Q 2263 2291 2231 2391 
Q 2200 2491 2126 2547 
Q 2053 2603 1969 2603 
Q 1844 2603 1741 2538 
Q 1594 2441 1428 2206 
L 1428 638 
Q 1428 328 1489 229 
Q 1550 131 1744 113 
L 1744 0 
L 238 0 
L 238 113 
Q 422 131 500 231 
Q 553 300 553 638 
L 553 2288 
Q 553 2619 492 2700 
Q 431 2781 238 2806 
L 238 2922 
L 1428 2922 
z
" transform="scale(0.015625)"/>
      <path id="TimesNewRomanPS-BoldMT-69" d="M 919 4338 
Q 1122 4338 1262 4195 
Q 1403 4053 1403 3853 
Q 1403 3653 1261 3512 
Q 1119 3372 919 3372 
Q 719 3372 578 3512 
Q 438 3653 438 3853 
Q 438 4053 578 4195 
Q 719 4338 919 4338 
z
M 1356 2922 
L 1356 606 
Q 1356 297 1428 211 
Q 1500 125 1709 113 
L 1709 0 
L 131 0 
L 131 113 
Q 325 119 419 225 
Q 481 297 481 606 
L 481 2313 
Q 481 2622 409 2708 
Q 338 2794 131 2806 
L 131 2922 
L 1356 2922 
z
" transform="scale(0.015625)"/>
      <path id="TimesNewRomanPS-BoldMT-20" transform="scale(0.015625)"/>
      <path id="TimesNewRomanPS-BoldMT-28" d="M 2056 4334 
L 2056 4191 
Q 1731 3978 1578 3775 
Q 1366 3494 1247 3053 
Q 1097 2506 1097 1525 
Q 1097 600 1233 87 
Q 1369 -425 1603 -741 
Q 1766 -959 2056 -1125 
L 2056 -1281 
Q 1303 -1028 779 -248 
Q 256 531 256 1544 
Q 256 2544 778 3314 
Q 1300 4084 2056 4334 
z
" transform="scale(0.015625)"/>
      <path id="TimesNewRomanPS-BoldMT-52" d="M 1700 1931 
L 1700 744 
Q 1700 400 1742 311 
Q 1784 222 1890 169 
Q 1997 116 2288 116 
L 2288 0 
L 119 0 
L 119 116 
Q 413 116 517 170 
Q 622 225 664 312 
Q 706 400 706 744 
L 706 3494 
Q 706 3838 664 3927 
Q 622 4016 515 4069 
Q 409 4122 119 4122 
L 119 4238 
L 2088 4238 
Q 2856 4238 3212 4131 
Q 3569 4025 3794 3739 
Q 4019 3453 4019 3069 
Q 4019 2600 3681 2294 
Q 3466 2100 3078 2003 
L 4097 569 
Q 4297 291 4381 222 
Q 4509 125 4678 116 
L 4678 0 
L 3344 0 
L 1978 1931 
L 1700 1931 
z
M 1700 4009 
L 1700 2153 
L 1878 2153 
Q 2313 2153 2528 2233 
Q 2744 2313 2867 2520 
Q 2991 2728 2991 3063 
Q 2991 3547 2764 3778 
Q 2538 4009 2034 4009 
L 1700 4009 
z
" transform="scale(0.015625)"/>
      <path id="TimesNewRomanPS-BoldMT-68" d="M 1409 4238 
L 1409 2547 
Q 1650 2800 1850 2904 
Q 2050 3009 2266 3009 
Q 2541 3009 2736 2853 
Q 2931 2697 2995 2486 
Q 3059 2275 3059 1775 
L 3059 634 
Q 3059 300 3121 217 
Q 3184 134 3375 113 
L 3375 0 
L 1894 0 
L 1894 113 
Q 2050 134 2128 238 
Q 2184 319 2184 634 
L 2184 1938 
Q 2184 2300 2156 2392 
Q 2128 2484 2061 2536 
Q 1994 2588 1909 2588 
Q 1784 2588 1665 2502 
Q 1547 2416 1409 2200 
L 1409 634 
Q 1409 322 1456 244 
Q 1516 138 1700 113 
L 1700 0 
L 219 0 
L 219 113 
Q 403 131 481 231 
Q 534 300 534 634 
L 534 3603 
Q 534 3934 473 4015 
Q 413 4097 219 4122 
L 219 4238 
L 1409 4238 
z
" transform="scale(0.015625)"/>
      <path id="TimesNewRomanPS-BoldMT-65" d="M 2691 1566 
L 1088 1566 
Q 1116 984 1397 647 
Q 1613 388 1916 388 
Q 2103 388 2256 492 
Q 2409 597 2584 869 
L 2691 800 
Q 2453 316 2165 114 
Q 1878 -88 1500 -88 
Q 850 -88 516 413 
Q 247 816 247 1413 
Q 247 2144 642 2576 
Q 1038 3009 1569 3009 
Q 2013 3009 2339 2645 
Q 2666 2281 2691 1566 
z
M 1922 1775 
Q 1922 2278 1867 2465 
Q 1813 2653 1697 2750 
Q 1631 2806 1522 2806 
Q 1359 2806 1256 2647 
Q 1072 2369 1072 1884 
L 1072 1775 
L 1922 1775 
z
" transform="scale(0.015625)"/>
      <path id="TimesNewRomanPS-BoldMT-73" d="M 2063 3003 
L 2109 2006 
L 2003 2006 
Q 1813 2450 1608 2612 
Q 1403 2775 1200 2775 
Q 1072 2775 981 2689 
Q 891 2603 891 2491 
Q 891 2406 953 2328 
Q 1053 2200 1512 1889 
Q 1972 1578 2117 1361 
Q 2263 1144 2263 875 
Q 2263 631 2141 397 
Q 2019 163 1797 37 
Q 1575 -88 1306 -88 
Q 1097 -88 747 44 
Q 653 78 619 78 
Q 516 78 447 -78 
L 344 -78 
L 294 972 
L 400 972 
Q 541 559 786 353 
Q 1031 147 1250 147 
Q 1400 147 1495 239 
Q 1591 331 1591 463 
Q 1591 613 1497 722 
Q 1403 831 1078 1053 
Q 600 1384 459 1559 
Q 253 1816 253 2125 
Q 253 2463 486 2736 
Q 719 3009 1159 3009 
Q 1397 3009 1619 2894 
Q 1703 2847 1756 2847 
Q 1813 2847 1847 2870 
Q 1881 2894 1956 3003 
L 2063 3003 
z
" transform="scale(0.015625)"/>
      <path id="TimesNewRomanPS-BoldMT-75" d="M 3038 2922 
L 3038 634 
Q 3038 300 3100 217 
Q 3163 134 3353 113 
L 3353 0 
L 2163 0 
L 2163 391 
Q 1953 141 1743 26 
Q 1534 -88 1275 -88 
Q 1028 -88 836 64 
Q 644 216 578 419 
Q 513 622 513 1128 
L 513 2288 
Q 513 2619 452 2700 
Q 391 2781 197 2806 
L 197 2922 
L 1388 2922 
L 1388 925 
Q 1388 613 1417 522 
Q 1447 431 1511 384 
Q 1575 338 1659 338 
Q 1772 338 1863 397 
Q 1988 478 2163 725 
L 2163 2288 
Q 2163 2619 2102 2700 
Q 2041 2781 1847 2806 
L 1847 2922 
L 3038 2922 
z
" transform="scale(0.015625)"/>
      <path id="TimesNewRomanPS-BoldMT-29" d="M 78 -1281 
L 78 -1138 
Q 403 -922 556 -719 
Q 766 -438 888 0 
Q 1038 550 1038 1531 
Q 1038 2456 902 2967 
Q 766 3478 531 3794 
Q 369 4013 78 4178 
L 78 4334 
Q 831 4081 1354 3301 
Q 1878 2522 1878 1509 
Q 1878 513 1354 -257 
Q 831 -1028 78 -1281 
z
" transform="scale(0.015625)"/>
     </defs>
     <use xlink:href="#TimesNewRomanPS-BoldMT-46"/>
     <use xlink:href="#TimesNewRomanPS-BoldMT-61" transform="translate(61.083984 0)"/>
     <use xlink:href="#TimesNewRomanPS-BoldMT-72" transform="translate(111.083984 0)"/>
     <use xlink:href="#TimesNewRomanPS-BoldMT-61" transform="translate(155.46875 0)"/>
     <use xlink:href="#TimesNewRomanPS-BoldMT-6d" transform="translate(205.46875 0)"/>
     <use xlink:href="#TimesNewRomanPS-BoldMT-69" transform="translate(288.769531 0)"/>
     <use xlink:href="#TimesNewRomanPS-BoldMT-72" transform="translate(316.552734 0)"/>
     <use xlink:href="#TimesNewRomanPS-BoldMT-20" transform="translate(359.1875 0)"/>
     <use xlink:href="#TimesNewRomanPS-BoldMT-28" transform="translate(384.1875 0)"/>
     <use xlink:href="#TimesNewRomanPS-BoldMT-52" transform="translate(417.488281 0)"/>
     <use xlink:href="#TimesNewRomanPS-BoldMT-68" transform="translate(489.705078 0)"/>
     <use xlink:href="#TimesNewRomanPS-BoldMT-65" transform="translate(545.320312 0)"/>
     <use xlink:href="#TimesNewRomanPS-BoldMT-73" transform="translate(589.705078 0)"/>
     <use xlink:href="#TimesNewRomanPS-BoldMT-75" transform="translate(628.621094 0)"/>
     <use xlink:href="#TimesNewRomanPS-BoldMT-73" transform="translate(684.236328 0)"/>
     <use xlink:href="#TimesNewRomanPS-BoldMT-29" transform="translate(723.152344 0)"/>
    </g>
   </g>
   <g id="legend_1">
    <g id="patch_7">
     <path d="M 47.79 94.67625 
L 133.686875 94.67625 
Q 135.686875 94.67625 135.686875 92.67625 
L 135.686875 37.12 
Q 135.686875 35.12 133.686875 35.12 
L 47.79 35.12 
Q 45.79 35.12 45.79 37.12 
L 45.79 92.67625 
Q 45.79 94.67625 47.79 94.67625 
z
" style="fill: #ffffff; opacity: 0.8; stroke: #cccccc; stroke-linejoin: miter"/>
    </g>
    <g id="patch_8">
     <path d="M 49.79 46.12 
L 69.79 46.12 
L 69.79 39.12 
L 49.79 39.12 
z
" style="fill: #5386b6"/>
    </g>
    <g id="text_14">
     <!-- Success -->
     <g transform="translate(77.79 46.12) scale(0.1 -0.1)">
      <use xlink:href="#TimesNewRomanPSMT-53"/>
      <use xlink:href="#TimesNewRomanPSMT-75" transform="translate(55.615234 0)"/>
      <use xlink:href="#TimesNewRomanPSMT-63" transform="translate(105.615234 0)"/>
      <use xlink:href="#TimesNewRomanPSMT-63" transform="translate(150 0)"/>
      <use xlink:href="#TimesNewRomanPSMT-65" transform="translate(194.384766 0)"/>
      <use xlink:href="#TimesNewRomanPSMT-73" transform="translate(238.769531 0)"/>
      <use xlink:href="#TimesNewRomanPSMT-73" transform="translate(277.685547 0)"/>
     </g>
    </g>
    <g id="patch_9">
     <path d="M 49.79 60.259063 
L 69.79 60.259063 
L 69.79 53.259063 
L 49.79 53.259063 
z
" style="fill: #d57459"/>
    </g>
    <g id="text_15">
     <!-- Error -->
     <g transform="translate(77.79 60.259063) scale(0.1 -0.1)">
      <defs>
       <path id="TimesNewRomanPSMT-45" d="M 1338 4006 
L 1338 2331 
L 2269 2331 
Q 2631 2331 2753 2441 
Q 2916 2584 2934 2947 
L 3050 2947 
L 3050 1472 
L 2934 1472 
Q 2891 1781 2847 1869 
Q 2791 1978 2662 2040 
Q 2534 2103 2269 2103 
L 1338 2103 
L 1338 706 
Q 1338 425 1363 364 
Q 1388 303 1450 267 
Q 1513 231 1688 231 
L 2406 231 
Q 2766 231 2928 281 
Q 3091 331 3241 478 
Q 3434 672 3638 1063 
L 3763 1063 
L 3397 0 
L 131 0 
L 131 116 
L 281 116 
Q 431 116 566 188 
Q 666 238 702 338 
Q 738 438 738 747 
L 738 3500 
Q 738 3903 656 3997 
Q 544 4122 281 4122 
L 131 4122 
L 131 4238 
L 3397 4238 
L 3444 3309 
L 3322 3309 
Q 3256 3644 3176 3769 
Q 3097 3894 2941 3959 
Q 2816 4006 2500 4006 
L 1338 4006 
z
" transform="scale(0.015625)"/>
      </defs>
      <use xlink:href="#TimesNewRomanPSMT-45"/>
      <use xlink:href="#TimesNewRomanPSMT-72" transform="translate(61.083984 0)"/>
      <use xlink:href="#TimesNewRomanPSMT-72" transform="translate(94.384766 0)"/>
      <use xlink:href="#TimesNewRomanPSMT-6f" transform="translate(127.685547 0)"/>
      <use xlink:href="#TimesNewRomanPSMT-72" transform="translate(177.685547 0)"/>
     </g>
    </g>
    <g id="patch_10">
     <path d="M 49.79 74.398125 
L 69.79 74.398125 
L 69.79 67.398125 
L 49.79 67.398125 
z
" style="fill: #e8bc60"/>
    </g>
    <g id="text_16">
     <!-- Premature -->
     <g transform="translate(77.79 74.398125) scale(0.1 -0.1)">
      <defs>
       <path id="TimesNewRomanPSMT-6d" d="M 1050 2338 
Q 1363 2650 1419 2697 
Q 1559 2816 1721 2881 
Q 1884 2947 2044 2947 
Q 2313 2947 2506 2790 
Q 2700 2634 2766 2338 
Q 3088 2713 3309 2830 
Q 3531 2947 3766 2947 
Q 3994 2947 4170 2830 
Q 4347 2713 4450 2447 
Q 4519 2266 4519 1878 
L 4519 647 
Q 4519 378 4559 278 
Q 4591 209 4675 161 
Q 4759 113 4950 113 
L 4950 0 
L 3538 0 
L 3538 113 
L 3597 113 
Q 3781 113 3884 184 
Q 3956 234 3988 344 
Q 4000 397 4000 647 
L 4000 1878 
Q 4000 2228 3916 2372 
Q 3794 2572 3525 2572 
Q 3359 2572 3192 2489 
Q 3025 2406 2788 2181 
L 2781 2147 
L 2788 2013 
L 2788 647 
Q 2788 353 2820 281 
Q 2853 209 2943 161 
Q 3034 113 3253 113 
L 3253 0 
L 1806 0 
L 1806 113 
Q 2044 113 2133 169 
Q 2222 225 2256 338 
Q 2272 391 2272 647 
L 2272 1878 
Q 2272 2228 2169 2381 
Q 2031 2581 1784 2581 
Q 1616 2581 1450 2491 
Q 1191 2353 1050 2181 
L 1050 647 
Q 1050 366 1089 281 
Q 1128 197 1204 155 
Q 1281 113 1516 113 
L 1516 0 
L 100 0 
L 100 113 
Q 297 113 375 155 
Q 453 197 493 289 
Q 534 381 534 647 
L 534 1741 
Q 534 2213 506 2350 
Q 484 2453 437 2492 
Q 391 2531 309 2531 
Q 222 2531 100 2484 
L 53 2597 
L 916 2947 
L 1050 2947 
L 1050 2338 
z
" transform="scale(0.015625)"/>
      </defs>
      <use xlink:href="#TimesNewRomanPSMT-50"/>
      <use xlink:href="#TimesNewRomanPSMT-72" transform="translate(55.615234 0)"/>
      <use xlink:href="#TimesNewRomanPSMT-65" transform="translate(88.916016 0)"/>
      <use xlink:href="#TimesNewRomanPSMT-6d" transform="translate(133.300781 0)"/>
      <use xlink:href="#TimesNewRomanPSMT-61" transform="translate(211.083984 0)"/>
      <use xlink:href="#TimesNewRomanPSMT-74" transform="translate(255.46875 0)"/>
      <use xlink:href="#TimesNewRomanPSMT-75" transform="translate(283.251953 0)"/>
      <use xlink:href="#TimesNewRomanPSMT-72" transform="translate(333.251953 0)"/>
      <use xlink:href="#TimesNewRomanPSMT-65" transform="translate(366.552734 0)"/>
     </g>
    </g>
    <g id="patch_11">
     <path d="M 49.79 88.537188 
L 69.79 88.537188 
L 69.79 81.537188 
L 49.79 81.537188 
z
" style="fill: #8d5993"/>
    </g>
    <g id="text_17">
     <!-- Stepomission -->
     <g transform="translate(77.79 88.537188) scale(0.1 -0.1)">
      <use xlink:href="#TimesNewRomanPSMT-53"/>
      <use xlink:href="#TimesNewRomanPSMT-74" transform="translate(55.615234 0)"/>
      <use xlink:href="#TimesNewRomanPSMT-65" transform="translate(83.398438 0)"/>
      <use xlink:href="#TimesNewRomanPSMT-70" transform="translate(127.783203 0)"/>
      <use xlink:href="#TimesNewRomanPSMT-6f" transform="translate(177.783203 0)"/>
      <use xlink:href="#TimesNewRomanPSMT-6d" transform="translate(227.783203 0)"/>
      <use xlink:href="#TimesNewRomanPSMT-69" transform="translate(305.566406 0)"/>
      <use xlink:href="#TimesNewRomanPSMT-73" transform="translate(333.349609 0)"/>
      <use xlink:href="#TimesNewRomanPSMT-73" transform="translate(372.265625 0)"/>
      <use xlink:href="#TimesNewRomanPSMT-69" transform="translate(411.181641 0)"/>
      <use xlink:href="#TimesNewRomanPSMT-6f" transform="translate(438.964844 0)"/>
      <use xlink:href="#TimesNewRomanPSMT-6e" transform="translate(488.964844 0)"/>
     </g>
    </g>
   </g>
  </g>
 </g>
 <defs>
  <clipPath id="p79746f4214">
   <rect x="40.79" y="30.12" width="618.846538" height="501.4"/>
  </clipPath>
 </defs>
</svg>
