<?xml version="1.0" encoding="utf-8" standalone="no"?>
<!DOCTYPE svg PUBLIC "-//W3C//DTD SVG 1.1//EN"
  "http://www.w3.org/Graphics/SVG/1.1/DTD/svg11.dtd">
<svg xmlns:xlink="http://www.w3.org/1999/xlink" width="720pt" height="576pt" viewBox="0 0 720 576" xmlns="http://www.w3.org/2000/svg" version="1.1">
 <metadata>
  <rdf:RDF xmlns:dc="http://purl.org/dc/elements/1.1/" xmlns:cc="http://creativecommons.org/ns#" xmlns:rdf="http://www.w3.org/1999/02/22-rdf-syntax-ns#">
   <cc:Work>
    <dc:type rdf:resource="http://purl.org/dc/dcmitype/StillImage"/>
    <dc:date>2025-06-27T15:15:26.105456</dc:date>
    <dc:format>image/svg+xml</dc:format>
    <dc:creator>
     <cc:Agent>
      <dc:title>Matplotlib v3.10.3, https://matplotlib.org/</dc:title>
     </cc:Agent>
    </dc:creator>
   </cc:Work>
  </rdf:RDF>
 </metadata>
 <defs>
  <style type="text/css">*{stroke-linejoin: round; stroke-linecap: butt}</style>
 </defs>
 <g id="figure_1">
  <g id="patch_1">
   <path d="M 0 576 
L 720 576 
L 720 0 
L 0 0 
z
" style="fill: #ffffff"/>
  </g>
  <g id="axes_1">
   <g id="patch_2">
    <path d="M 40.79 531.52 
L 666.075 531.52 
L 666.075 30.12 
L 40.79 30.12 
z
" style="fill: #ffffff"/>
   </g>
   <g id="FillBetweenPolyCollection_1">
    <path d="M 40.79 531.52 
L 40.79 531.52 
L 43.767548 531.52 
L 46.745095 531.52 
L 49.722643 531.52 
L 52.70019 531.52 
L 55.677738 531.52 
L 58.655286 531.52 
L 61.632833 531.52 
L 64.610381 531.52 
L 67.587929 531.52 
L 70.565476 531.52 
L 73.543024 531.52 
L 76.520571 531.52 
L 79.498119 531.52 
L 82.475667 531.52 
L 85.453214 531.52 
L 88.430762 531.52 
L 91.40831 531.52 
L 94.385857 531.52 
L 97.363405 531.52 
L 100.340952 531.52 
L 103.3185 531.52 
L 106.296048 531.52 
L 109.273595 531.52 
L 112.251143 531.52 
L 115.22869 531.52 
L 118.206238 531.52 
L 121.183786 531.52 
L 124.161333 531.52 
L 127.138881 531.52 
L 130.116429 531.52 
L 133.093976 531.52 
L 136.071524 531.52 
L 139.049071 531.52 
L 142.026619 531.52 
L 145.004167 531.52 
L 147.981714 531.52 
L 150.959262 531.52 
L 153.93681 531.52 
L 156.914357 531.52 
L 159.891905 531.52 
L 162.869452 531.52 
L 165.847 531.52 
L 168.824548 531.52 
L 171.802095 531.52 
L 174.779643 531.52 
L 177.75719 531.52 
L 180.734738 531.52 
L 183.712286 531.52 
L 186.689833 531.52 
L 189.667381 531.52 
L 192.644929 531.52 
L 195.622476 531.52 
L 198.600024 531.52 
L 201.577571 531.52 
L 204.555119 531.52 
L 207.532667 531.52 
L 210.510214 531.52 
L 213.487762 531.52 
L 216.46531 531.52 
L 219.442857 531.52 
L 222.420405 531.52 
L 225.397952 531.52 
L 228.3755 531.52 
L 231.353048 531.52 
L 234.330595 531.52 
L 237.308143 531.52 
L 240.28569 531.52 
L 243.263238 531.52 
L 246.240786 531.52 
L 249.218333 531.52 
L 252.195881 531.52 
L 255.173429 531.52 
L 258.150976 531.52 
L 261.128524 531.52 
L 264.106071 531.52 
L 267.083619 531.52 
L 270.061167 531.52 
L 273.038714 531.52 
L 276.016262 531.52 
L 278.99381 531.52 
L 281.971357 531.52 
L 284.948905 531.52 
L 287.926452 531.52 
L 290.904 531.52 
L 293.881548 531.52 
L 296.859095 531.52 
L 299.836643 531.52 
L 302.81419 531.52 
L 305.791738 531.52 
L 308.769286 531.52 
L 311.746833 531.52 
L 314.724381 531.52 
L 317.701929 531.52 
L 320.679476 531.52 
L 323.657024 531.52 
L 326.634571 531.52 
L 329.612119 531.52 
L 332.589667 531.52 
L 335.567214 531.52 
L 338.544762 531.52 
L 341.52231 531.52 
L 344.499857 531.52 
L 347.477405 531.52 
L 350.454952 531.52 
L 353.4325 531.52 
L 356.410048 531.52 
L 359.387595 531.52 
L 362.365143 531.52 
L 365.34269 531.52 
L 368.320238 531.52 
L 371.297786 531.52 
L 374.275333 531.52 
L 377.252881 531.52 
L 380.230429 531.52 
L 383.207976 531.52 
L 386.185524 531.52 
L 389.163071 531.52 
L 392.140619 531.52 
L 395.118167 531.52 
L 398.095714 531.52 
L 401.073262 531.52 
L 404.05081 531.52 
L 407.028357 531.52 
L 410.005905 531.52 
L 412.983452 531.52 
L 415.961 531.52 
L 418.938548 531.52 
L 421.916095 531.52 
L 424.893643 531.52 
L 427.87119 531.52 
L 430.848738 531.52 
L 433.826286 531.52 
L 436.803833 531.52 
L 439.781381 531.52 
L 442.758929 531.52 
L 445.736476 531.52 
L 448.714024 531.52 
L 451.691571 531.52 
L 454.669119 531.52 
L 457.646667 531.52 
L 460.624214 531.52 
L 463.601762 531.52 
L 466.57931 531.52 
L 469.556857 531.52 
L 472.534405 531.52 
L 475.511952 531.52 
L 478.4895 531.52 
L 481.467048 531.52 
L 484.444595 531.52 
L 487.422143 531.52 
L 490.39969 531.52 
L 493.377238 531.52 
L 496.354786 531.52 
L 499.332333 531.52 
L 502.309881 531.52 
L 505.287429 531.52 
L 508.264976 531.52 
L 511.242524 531.52 
L 514.220071 531.52 
L 517.197619 531.52 
L 520.175167 531.52 
L 523.152714 531.52 
L 526.130262 531.52 
L 529.10781 531.52 
L 532.085357 531.52 
L 535.062905 531.52 
L 538.040452 531.52 
L 541.018 531.52 
L 543.995548 531.52 
L 546.973095 531.52 
L 549.950643 531.52 
L 552.92819 531.52 
L 555.905738 531.52 
L 558.883286 531.52 
L 561.860833 531.52 
L 564.838381 531.52 
L 567.815929 531.52 
L 570.793476 531.52 
L 573.771024 531.52 
L 576.748571 531.52 
L 579.726119 531.52 
L 582.703667 531.52 
L 585.681214 531.52 
L 588.658762 531.52 
L 591.63631 531.52 
L 594.613857 531.52 
L 597.591405 531.52 
L 600.568952 531.52 
L 603.5465 531.52 
L 606.524048 531.52 
L 609.501595 531.52 
L 612.479143 531.52 
L 615.45669 531.52 
L 618.434238 531.52 
L 621.411786 531.52 
L 624.389333 531.52 
L 627.366881 531.52 
L 630.344429 531.52 
L 633.321976 531.52 
L 636.299524 531.52 
L 639.277071 531.52 
L 642.254619 531.52 
L 645.232167 531.52 
L 648.209714 531.52 
L 651.187262 531.52 
L 654.16481 531.52 
L 657.142357 531.52 
L 660.119905 531.52 
L 663.097452 531.52 
L 666.075 531.52 
L 666.075 30.12 
L 666.075 30.12 
L 663.097452 30.12 
L 660.119905 30.12 
L 657.142357 30.12 
L 654.16481 30.12 
L 651.187262 30.12 
L 648.209714 30.12 
L 645.232167 30.12 
L 642.254619 30.12 
L 639.277071 30.12 
L 636.299524 30.12 
L 633.321976 30.12 
L 630.344429 30.12 
L 627.366881 30.12 
L 624.389333 30.12 
L 621.411786 30.12 
L 618.434238 30.12 
L 615.45669 30.12 
L 612.479143 30.12 
L 609.501595 30.12 
L 606.524048 85.831111 
L 603.5465 30.12 
L 600.568952 101.748571 
L 597.591405 30.12 
L 594.613857 30.12 
L 591.63631 30.12 
L 588.658762 30.12 
L 585.681214 30.12 
L 582.703667 30.12 
L 579.726119 30.12 
L 576.748571 30.12 
L 573.771024 30.12 
L 570.793476 30.12 
L 567.815929 280.82 
L 564.838381 30.12 
L 561.860833 30.12 
L 558.883286 197.253333 
L 555.905738 30.12 
L 552.92819 73.097143 
L 549.950643 55.19 
L 546.973095 30.12 
L 543.995548 155.47 
L 541.018 30.12 
L 538.040452 30.12 
L 535.062905 280.82 
L 532.085357 30.12 
L 529.10781 30.12 
L 526.130262 30.12 
L 523.152714 30.12 
L 520.175167 30.12 
L 517.197619 30.12 
L 514.220071 30.12 
L 511.242524 30.12 
L 508.264976 30.12 
L 505.287429 230.68 
L 502.309881 113.686667 
L 499.332333 30.12 
L 496.354786 30.12 
L 493.377238 30.12 
L 490.39969 30.12 
L 487.422143 30.12 
L 484.444595 30.12 
L 481.467048 30.12 
L 478.4895 30.12 
L 475.511952 280.82 
L 472.534405 30.12 
L 469.556857 30.12 
L 466.57931 30.12 
L 463.601762 30.12 
L 460.624214 30.12 
L 457.646667 155.47 
L 454.669119 30.12 
L 451.691571 30.12 
L 448.714024 30.12 
L 445.736476 30.12 
L 442.758929 130.4 
L 439.781381 531.52 
L 436.803833 531.52 
L 433.826286 30.12 
L 430.848738 30.12 
L 427.87119 130.4 
L 424.893643 30.12 
L 421.916095 30.12 
L 418.938548 130.4 
L 415.961 130.4 
L 412.983452 364.386667 
L 410.005905 30.12 
L 407.028357 531.52 
L 404.05081 230.68 
L 401.073262 30.12 
L 398.095714 280.82 
L 395.118167 531.52 
L 392.140619 30.12 
L 389.163071 30.12 
L 386.185524 145.827692 
L 383.207976 280.82 
L 380.230429 155.47 
L 377.252881 30.12 
L 374.275333 130.4 
L 371.297786 30.12 
L 368.320238 130.4 
L 365.34269 30.12 
L 362.365143 30.12 
L 359.387595 30.12 
L 356.410048 101.748571 
L 353.4325 30.12 
L 350.454952 30.12 
L 347.477405 30.12 
L 344.499857 30.12 
L 341.52231 280.82 
L 338.544762 30.12 
L 335.567214 130.4 
L 332.589667 30.12 
L 329.612119 30.12 
L 326.634571 280.82 
L 323.657024 30.12 
L 320.679476 30.12 
L 317.701929 30.12 
L 314.724381 30.12 
L 311.746833 531.52 
L 308.769286 30.12 
L 305.791738 30.12 
L 302.81419 30.12 
L 299.836643 30.12 
L 296.859095 30.12 
L 293.881548 30.12 
L 290.904 30.12 
L 287.926452 30.12 
L 284.948905 30.12 
L 281.971357 30.12 
L 278.99381 197.253333 
L 276.016262 30.12 
L 273.038714 30.12 
L 270.061167 30.12 
L 267.083619 30.12 
L 264.106071 531.52 
L 261.128524 30.12 
L 258.150976 30.12 
L 255.173429 230.68 
L 252.195881 30.12 
L 249.218333 30.12 
L 246.240786 30.12 
L 243.263238 30.12 
L 240.28569 173.377143 
L 237.308143 30.12 
L 234.330595 30.12 
L 231.353048 30.12 
L 228.3755 30.12 
L 225.397952 130.4 
L 222.420405 30.12 
L 219.442857 85.831111 
L 216.46531 30.12 
L 213.487762 160.92 
L 210.510214 207.084706 
L 207.532667 130.4 
L 204.555119 197.253333 
L 201.577571 531.52 
L 198.600024 30.12 
L 195.622476 155.47 
L 192.644929 166.865455 
L 189.667381 162.067368 
L 186.689833 230.68 
L 183.712286 218.145 
L 180.734738 197.253333 
L 177.75719 531.52 
L 174.779643 197.253333 
L 171.802095 130.4 
L 168.824548 30.12 
L 165.847 30.12 
L 162.869452 197.253333 
L 159.891905 245.005714 
L 156.914357 280.82 
L 153.93681 215.823704 
L 150.959262 280.82 
L 147.981714 280.82 
L 145.004167 197.253333 
L 142.026619 30.12 
L 139.049071 364.386667 
L 136.071524 30.12 
L 133.093976 219.244561 
L 130.116429 531.52 
L 127.138881 30.12 
L 124.161333 30.12 
L 121.183786 531.52 
L 118.206238 531.52 
L 115.22869 166.865455 
L 112.251143 30.12 
L 109.273595 30.12 
L 106.296048 230.68 
L 103.3185 155.47 
L 100.340952 30.12 
L 97.363405 145.827692 
L 94.385857 330.96 
L 91.40831 30.12 
L 88.430762 107.258462 
L 85.453214 180.54 
L 82.475667 30.12 
L 79.498119 155.47 
L 76.520571 148.096471 
L 73.543024 308.675556 
L 70.565476 197.253333 
L 67.587929 280.82 
L 64.610381 30.12 
L 61.632833 180.54 
L 58.655286 197.253333 
L 55.677738 130.4 
L 52.70019 531.52 
L 49.722643 166.865455 
L 46.745095 241.235789 
L 43.767548 30.12 
L 40.79 531.52 
z
" clip-path="url(#pac2283fee2)" style="fill: #5386b6"/>
   </g>
   <g id="FillBetweenPolyCollection_2">
    <path d="M 40.79 30.12 
L 40.79 531.52 
L 43.767548 30.12 
L 46.745095 241.235789 
L 49.722643 166.865455 
L 52.70019 531.52 
L 55.677738 130.4 
L 58.655286 197.253333 
L 61.632833 180.54 
L 64.610381 30.12 
L 67.587929 280.82 
L 70.565476 197.253333 
L 73.543024 308.675556 
L 76.520571 148.096471 
L 79.498119 155.47 
L 82.475667 30.12 
L 85.453214 180.54 
L 88.430762 107.258462 
L 91.40831 30.12 
L 94.385857 330.96 
L 97.363405 145.827692 
L 100.340952 30.12 
L 103.3185 155.47 
L 106.296048 230.68 
L 109.273595 30.12 
L 112.251143 30.12 
L 115.22869 166.865455 
L 118.206238 531.52 
L 121.183786 531.52 
L 124.161333 30.12 
L 127.138881 30.12 
L 130.116429 531.52 
L 133.093976 219.244561 
L 136.071524 30.12 
L 139.049071 364.386667 
L 142.026619 30.12 
L 145.004167 197.253333 
L 147.981714 280.82 
L 150.959262 280.82 
L 153.93681 215.823704 
L 156.914357 280.82 
L 159.891905 245.005714 
L 162.869452 197.253333 
L 165.847 30.12 
L 168.824548 30.12 
L 171.802095 130.4 
L 174.779643 197.253333 
L 177.75719 531.52 
L 180.734738 197.253333 
L 183.712286 218.145 
L 186.689833 230.68 
L 189.667381 162.067368 
L 192.644929 166.865455 
L 195.622476 155.47 
L 198.600024 30.12 
L 201.577571 531.52 
L 204.555119 197.253333 
L 207.532667 130.4 
L 210.510214 207.084706 
L 213.487762 160.92 
L 216.46531 30.12 
L 219.442857 85.831111 
L 222.420405 30.12 
L 225.397952 130.4 
L 228.3755 30.12 
L 231.353048 30.12 
L 234.330595 30.12 
L 237.308143 30.12 
L 240.28569 173.377143 
L 243.263238 30.12 
L 246.240786 30.12 
L 249.218333 30.12 
L 252.195881 30.12 
L 255.173429 230.68 
L 258.150976 30.12 
L 261.128524 30.12 
L 264.106071 531.52 
L 267.083619 30.12 
L 270.061167 30.12 
L 273.038714 30.12 
L 276.016262 30.12 
L 278.99381 197.253333 
L 281.971357 30.12 
L 284.948905 30.12 
L 287.926452 30.12 
L 290.904 30.12 
L 293.881548 30.12 
L 296.859095 30.12 
L 299.836643 30.12 
L 302.81419 30.12 
L 305.791738 30.12 
L 308.769286 30.12 
L 311.746833 531.52 
L 314.724381 30.12 
L 317.701929 30.12 
L 320.679476 30.12 
L 323.657024 30.12 
L 326.634571 280.82 
L 329.612119 30.12 
L 332.589667 30.12 
L 335.567214 130.4 
L 338.544762 30.12 
L 341.52231 280.82 
L 344.499857 30.12 
L 347.477405 30.12 
L 350.454952 30.12 
L 353.4325 30.12 
L 356.410048 101.748571 
L 359.387595 30.12 
L 362.365143 30.12 
L 365.34269 30.12 
L 368.320238 130.4 
L 371.297786 30.12 
L 374.275333 130.4 
L 377.252881 30.12 
L 380.230429 155.47 
L 383.207976 280.82 
L 386.185524 145.827692 
L 389.163071 30.12 
L 392.140619 30.12 
L 395.118167 531.52 
L 398.095714 280.82 
L 401.073262 30.12 
L 404.05081 230.68 
L 407.028357 531.52 
L 410.005905 30.12 
L 412.983452 364.386667 
L 415.961 130.4 
L 418.938548 130.4 
L 421.916095 30.12 
L 424.893643 30.12 
L 427.87119 130.4 
L 430.848738 30.12 
L 433.826286 30.12 
L 436.803833 531.52 
L 439.781381 531.52 
L 442.758929 130.4 
L 445.736476 30.12 
L 448.714024 30.12 
L 451.691571 30.12 
L 454.669119 30.12 
L 457.646667 155.47 
L 460.624214 30.12 
L 463.601762 30.12 
L 466.57931 30.12 
L 469.556857 30.12 
L 472.534405 30.12 
L 475.511952 280.82 
L 478.4895 30.12 
L 481.467048 30.12 
L 484.444595 30.12 
L 487.422143 30.12 
L 490.39969 30.12 
L 493.377238 30.12 
L 496.354786 30.12 
L 499.332333 30.12 
L 502.309881 113.686667 
L 505.287429 230.68 
L 508.264976 30.12 
L 511.242524 30.12 
L 514.220071 30.12 
L 517.197619 30.12 
L 520.175167 30.12 
L 523.152714 30.12 
L 526.130262 30.12 
L 529.10781 30.12 
L 532.085357 30.12 
L 535.062905 280.82 
L 538.040452 30.12 
L 541.018 30.12 
L 543.995548 155.47 
L 546.973095 30.12 
L 549.950643 55.19 
L 552.92819 73.097143 
L 555.905738 30.12 
L 558.883286 197.253333 
L 561.860833 30.12 
L 564.838381 30.12 
L 567.815929 280.82 
L 570.793476 30.12 
L 573.771024 30.12 
L 576.748571 30.12 
L 579.726119 30.12 
L 582.703667 30.12 
L 585.681214 30.12 
L 588.658762 30.12 
L 591.63631 30.12 
L 594.613857 30.12 
L 597.591405 30.12 
L 600.568952 101.748571 
L 603.5465 30.12 
L 606.524048 85.831111 
L 609.501595 30.12 
L 612.479143 30.12 
L 615.45669 30.12 
L 618.434238 30.12 
L 621.411786 30.12 
L 624.389333 30.12 
L 627.366881 30.12 
L 630.344429 30.12 
L 633.321976 30.12 
L 636.299524 30.12 
L 639.277071 30.12 
L 642.254619 30.12 
L 645.232167 30.12 
L 648.209714 30.12 
L 651.187262 30.12 
L 654.16481 30.12 
L 657.142357 30.12 
L 660.119905 30.12 
L 663.097452 30.12 
L 666.075 30.12 
L 666.075 30.12 
L 666.075 30.12 
L 663.097452 30.12 
L 660.119905 30.12 
L 657.142357 30.12 
L 654.16481 30.12 
L 651.187262 30.12 
L 648.209714 30.12 
L 645.232167 30.12 
L 642.254619 30.12 
L 639.277071 30.12 
L 636.299524 30.12 
L 633.321976 30.12 
L 630.344429 30.12 
L 627.366881 30.12 
L 624.389333 30.12 
L 621.411786 30.12 
L 618.434238 30.12 
L 615.45669 30.12 
L 612.479143 30.12 
L 609.501595 30.12 
L 606.524048 85.831111 
L 603.5465 30.12 
L 600.568952 30.12 
L 597.591405 30.12 
L 594.613857 30.12 
L 591.63631 30.12 
L 588.658762 30.12 
L 585.681214 30.12 
L 582.703667 30.12 
L 579.726119 30.12 
L 576.748571 30.12 
L 573.771024 30.12 
L 570.793476 30.12 
L 567.815929 280.82 
L 564.838381 30.12 
L 561.860833 30.12 
L 558.883286 30.12 
L 555.905738 30.12 
L 552.92819 30.12 
L 549.950643 30.12 
L 546.973095 30.12 
L 543.995548 30.12 
L 541.018 30.12 
L 538.040452 30.12 
L 535.062905 30.12 
L 532.085357 30.12 
L 529.10781 30.12 
L 526.130262 30.12 
L 523.152714 30.12 
L 520.175167 30.12 
L 517.197619 30.12 
L 514.220071 30.12 
L 511.242524 30.12 
L 508.264976 30.12 
L 505.287429 30.12 
L 502.309881 30.12 
L 499.332333 30.12 
L 496.354786 30.12 
L 493.377238 30.12 
L 490.39969 30.12 
L 487.422143 30.12 
L 484.444595 30.12 
L 481.467048 30.12 
L 478.4895 30.12 
L 475.511952 30.12 
L 472.534405 30.12 
L 469.556857 30.12 
L 466.57931 30.12 
L 463.601762 30.12 
L 460.624214 30.12 
L 457.646667 30.12 
L 454.669119 30.12 
L 451.691571 30.12 
L 448.714024 30.12 
L 445.736476 30.12 
L 442.758929 30.12 
L 439.781381 30.12 
L 436.803833 30.12 
L 433.826286 30.12 
L 430.848738 30.12 
L 427.87119 30.12 
L 424.893643 30.12 
L 421.916095 30.12 
L 418.938548 30.12 
L 415.961 30.12 
L 412.983452 30.12 
L 410.005905 30.12 
L 407.028357 30.12 
L 404.05081 30.12 
L 401.073262 30.12 
L 398.095714 30.12 
L 395.118167 531.52 
L 392.140619 30.12 
L 389.163071 30.12 
L 386.185524 30.12 
L 383.207976 30.12 
L 380.230429 30.12 
L 377.252881 30.12 
L 374.275333 30.12 
L 371.297786 30.12 
L 368.320238 30.12 
L 365.34269 30.12 
L 362.365143 30.12 
L 359.387595 30.12 
L 356.410048 30.12 
L 353.4325 30.12 
L 350.454952 30.12 
L 347.477405 30.12 
L 344.499857 30.12 
L 341.52231 30.12 
L 338.544762 30.12 
L 335.567214 130.4 
L 332.589667 30.12 
L 329.612119 30.12 
L 326.634571 30.12 
L 323.657024 30.12 
L 320.679476 30.12 
L 317.701929 30.12 
L 314.724381 30.12 
L 311.746833 30.12 
L 308.769286 30.12 
L 305.791738 30.12 
L 302.81419 30.12 
L 299.836643 30.12 
L 296.859095 30.12 
L 293.881548 30.12 
L 290.904 30.12 
L 287.926452 30.12 
L 284.948905 30.12 
L 281.971357 30.12 
L 278.99381 30.12 
L 276.016262 30.12 
L 273.038714 30.12 
L 270.061167 30.12 
L 267.083619 30.12 
L 264.106071 30.12 
L 261.128524 30.12 
L 258.150976 30.12 
L 255.173429 30.12 
L 252.195881 30.12 
L 249.218333 30.12 
L 246.240786 30.12 
L 243.263238 30.12 
L 240.28569 30.12 
L 237.308143 30.12 
L 234.330595 30.12 
L 231.353048 30.12 
L 228.3755 30.12 
L 225.397952 30.12 
L 222.420405 30.12 
L 219.442857 30.12 
L 216.46531 30.12 
L 213.487762 30.12 
L 210.510214 30.12 
L 207.532667 30.12 
L 204.555119 30.12 
L 201.577571 531.52 
L 198.600024 30.12 
L 195.622476 30.12 
L 192.644929 30.12 
L 189.667381 56.509474 
L 186.689833 30.12 
L 183.712286 30.12 
L 180.734738 30.12 
L 177.75719 30.12 
L 174.779643 30.12 
L 171.802095 30.12 
L 168.824548 30.12 
L 165.847 30.12 
L 162.869452 30.12 
L 159.891905 30.12 
L 156.914357 30.12 
L 153.93681 30.12 
L 150.959262 30.12 
L 147.981714 30.12 
L 145.004167 30.12 
L 142.026619 30.12 
L 139.049071 364.386667 
L 136.071524 30.12 
L 133.093976 34.518246 
L 130.116429 30.12 
L 127.138881 30.12 
L 124.161333 30.12 
L 121.183786 280.82 
L 118.206238 30.12 
L 115.22869 30.12 
L 112.251143 30.12 
L 109.273595 30.12 
L 106.296048 30.12 
L 103.3185 30.12 
L 100.340952 30.12 
L 97.363405 30.12 
L 94.385857 30.12 
L 91.40831 30.12 
L 88.430762 30.12 
L 85.453214 30.12 
L 82.475667 30.12 
L 79.498119 30.12 
L 76.520571 30.12 
L 73.543024 85.831111 
L 70.565476 113.686667 
L 67.587929 30.12 
L 64.610381 30.12 
L 61.632833 30.12 
L 58.655286 30.12 
L 55.677738 30.12 
L 52.70019 30.12 
L 49.722643 75.701818 
L 46.745095 56.509474 
L 43.767548 30.12 
L 40.79 30.12 
z
" clip-path="url(#pac2283fee2)" style="fill: #d57459"/>
   </g>
   <g id="FillBetweenPolyCollection_3">
    <path d="M 40.79 30.12 
L 40.79 30.12 
L 43.767548 30.12 
L 46.745095 56.509474 
L 49.722643 75.701818 
L 52.70019 30.12 
L 55.677738 30.12 
L 58.655286 30.12 
L 61.632833 30.12 
L 64.610381 30.12 
L 67.587929 30.12 
L 70.565476 113.686667 
L 73.543024 85.831111 
L 76.520571 30.12 
L 79.498119 30.12 
L 82.475667 30.12 
L 85.453214 30.12 
L 88.430762 30.12 
L 91.40831 30.12 
L 94.385857 30.12 
L 97.363405 30.12 
L 100.340952 30.12 
L 103.3185 30.12 
L 106.296048 30.12 
L 109.273595 30.12 
L 112.251143 30.12 
L 115.22869 30.12 
L 118.206238 30.12 
L 121.183786 280.82 
L 124.161333 30.12 
L 127.138881 30.12 
L 130.116429 30.12 
L 133.093976 34.518246 
L 136.071524 30.12 
L 139.049071 364.386667 
L 142.026619 30.12 
L 145.004167 30.12 
L 147.981714 30.12 
L 150.959262 30.12 
L 153.93681 30.12 
L 156.914357 30.12 
L 159.891905 30.12 
L 162.869452 30.12 
L 165.847 30.12 
L 168.824548 30.12 
L 171.802095 30.12 
L 174.779643 30.12 
L 177.75719 30.12 
L 180.734738 30.12 
L 183.712286 30.12 
L 186.689833 30.12 
L 189.667381 56.509474 
L 192.644929 30.12 
L 195.622476 30.12 
L 198.600024 30.12 
L 201.577571 531.52 
L 204.555119 30.12 
L 207.532667 30.12 
L 210.510214 30.12 
L 213.487762 30.12 
L 216.46531 30.12 
L 219.442857 30.12 
L 222.420405 30.12 
L 225.397952 30.12 
L 228.3755 30.12 
L 231.353048 30.12 
L 234.330595 30.12 
L 237.308143 30.12 
L 240.28569 30.12 
L 243.263238 30.12 
L 246.240786 30.12 
L 249.218333 30.12 
L 252.195881 30.12 
L 255.173429 30.12 
L 258.150976 30.12 
L 261.128524 30.12 
L 264.106071 30.12 
L 267.083619 30.12 
L 270.061167 30.12 
L 273.038714 30.12 
L 276.016262 30.12 
L 278.99381 30.12 
L 281.971357 30.12 
L 284.948905 30.12 
L 287.926452 30.12 
L 290.904 30.12 
L 293.881548 30.12 
L 296.859095 30.12 
L 299.836643 30.12 
L 302.81419 30.12 
L 305.791738 30.12 
L 308.769286 30.12 
L 311.746833 30.12 
L 314.724381 30.12 
L 317.701929 30.12 
L 320.679476 30.12 
L 323.657024 30.12 
L 326.634571 30.12 
L 329.612119 30.12 
L 332.589667 30.12 
L 335.567214 130.4 
L 338.544762 30.12 
L 341.52231 30.12 
L 344.499857 30.12 
L 347.477405 30.12 
L 350.454952 30.12 
L 353.4325 30.12 
L 356.410048 30.12 
L 359.387595 30.12 
L 362.365143 30.12 
L 365.34269 30.12 
L 368.320238 30.12 
L 371.297786 30.12 
L 374.275333 30.12 
L 377.252881 30.12 
L 380.230429 30.12 
L 383.207976 30.12 
L 386.185524 30.12 
L 389.163071 30.12 
L 392.140619 30.12 
L 395.118167 531.52 
L 398.095714 30.12 
L 401.073262 30.12 
L 404.05081 30.12 
L 407.028357 30.12 
L 410.005905 30.12 
L 412.983452 30.12 
L 415.961 30.12 
L 418.938548 30.12 
L 421.916095 30.12 
L 424.893643 30.12 
L 427.87119 30.12 
L 430.848738 30.12 
L 433.826286 30.12 
L 436.803833 30.12 
L 439.781381 30.12 
L 442.758929 30.12 
L 445.736476 30.12 
L 448.714024 30.12 
L 451.691571 30.12 
L 454.669119 30.12 
L 457.646667 30.12 
L 460.624214 30.12 
L 463.601762 30.12 
L 466.57931 30.12 
L 469.556857 30.12 
L 472.534405 30.12 
L 475.511952 30.12 
L 478.4895 30.12 
L 481.467048 30.12 
L 484.444595 30.12 
L 487.422143 30.12 
L 490.39969 30.12 
L 493.377238 30.12 
L 496.354786 30.12 
L 499.332333 30.12 
L 502.309881 30.12 
L 505.287429 30.12 
L 508.264976 30.12 
L 511.242524 30.12 
L 514.220071 30.12 
L 517.197619 30.12 
L 520.175167 30.12 
L 523.152714 30.12 
L 526.130262 30.12 
L 529.10781 30.12 
L 532.085357 30.12 
L 535.062905 30.12 
L 538.040452 30.12 
L 541.018 30.12 
L 543.995548 30.12 
L 546.973095 30.12 
L 549.950643 30.12 
L 552.92819 30.12 
L 555.905738 30.12 
L 558.883286 30.12 
L 561.860833 30.12 
L 564.838381 30.12 
L 567.815929 280.82 
L 570.793476 30.12 
L 573.771024 30.12 
L 576.748571 30.12 
L 579.726119 30.12 
L 582.703667 30.12 
L 585.681214 30.12 
L 588.658762 30.12 
L 591.63631 30.12 
L 594.613857 30.12 
L 597.591405 30.12 
L 600.568952 30.12 
L 603.5465 30.12 
L 606.524048 85.831111 
L 609.501595 30.12 
L 612.479143 30.12 
L 615.45669 30.12 
L 618.434238 30.12 
L 621.411786 30.12 
L 624.389333 30.12 
L 627.366881 30.12 
L 630.344429 30.12 
L 633.321976 30.12 
L 636.299524 30.12 
L 639.277071 30.12 
L 642.254619 30.12 
L 645.232167 30.12 
L 648.209714 30.12 
L 651.187262 30.12 
L 654.16481 30.12 
L 657.142357 30.12 
L 660.119905 30.12 
L 663.097452 30.12 
L 666.075 30.12 
L 666.075 30.12 
L 666.075 30.12 
L 663.097452 30.12 
L 660.119905 30.12 
L 657.142357 30.12 
L 654.16481 30.12 
L 651.187262 30.12 
L 648.209714 30.12 
L 645.232167 30.12 
L 642.254619 30.12 
L 639.277071 30.12 
L 636.299524 30.12 
L 633.321976 30.12 
L 630.344429 30.12 
L 627.366881 30.12 
L 624.389333 30.12 
L 621.411786 30.12 
L 618.434238 30.12 
L 615.45669 30.12 
L 612.479143 30.12 
L 609.501595 30.12 
L 606.524048 30.12 
L 603.5465 30.12 
L 600.568952 30.12 
L 597.591405 30.12 
L 594.613857 30.12 
L 591.63631 30.12 
L 588.658762 30.12 
L 585.681214 30.12 
L 582.703667 30.12 
L 579.726119 30.12 
L 576.748571 30.12 
L 573.771024 30.12 
L 570.793476 30.12 
L 567.815929 30.12 
L 564.838381 30.12 
L 561.860833 30.12 
L 558.883286 30.12 
L 555.905738 30.12 
L 552.92819 30.12 
L 549.950643 30.12 
L 546.973095 30.12 
L 543.995548 30.12 
L 541.018 30.12 
L 538.040452 30.12 
L 535.062905 30.12 
L 532.085357 30.12 
L 529.10781 30.12 
L 526.130262 30.12 
L 523.152714 30.12 
L 520.175167 30.12 
L 517.197619 30.12 
L 514.220071 30.12 
L 511.242524 30.12 
L 508.264976 30.12 
L 505.287429 30.12 
L 502.309881 30.12 
L 499.332333 30.12 
L 496.354786 30.12 
L 493.377238 30.12 
L 490.39969 30.12 
L 487.422143 30.12 
L 484.444595 30.12 
L 481.467048 30.12 
L 478.4895 30.12 
L 475.511952 30.12 
L 472.534405 30.12 
L 469.556857 30.12 
L 466.57931 30.12 
L 463.601762 30.12 
L 460.624214 30.12 
L 457.646667 30.12 
L 454.669119 30.12 
L 451.691571 30.12 
L 448.714024 30.12 
L 445.736476 30.12 
L 442.758929 30.12 
L 439.781381 30.12 
L 436.803833 30.12 
L 433.826286 30.12 
L 430.848738 30.12 
L 427.87119 30.12 
L 424.893643 30.12 
L 421.916095 30.12 
L 418.938548 30.12 
L 415.961 30.12 
L 412.983452 30.12 
L 410.005905 30.12 
L 407.028357 30.12 
L 404.05081 30.12 
L 401.073262 30.12 
L 398.095714 30.12 
L 395.118167 531.52 
L 392.140619 30.12 
L 389.163071 30.12 
L 386.185524 30.12 
L 383.207976 30.12 
L 380.230429 30.12 
L 377.252881 30.12 
L 374.275333 30.12 
L 371.297786 30.12 
L 368.320238 30.12 
L 365.34269 30.12 
L 362.365143 30.12 
L 359.387595 30.12 
L 356.410048 30.12 
L 353.4325 30.12 
L 350.454952 30.12 
L 347.477405 30.12 
L 344.499857 30.12 
L 341.52231 30.12 
L 338.544762 30.12 
L 335.567214 30.12 
L 332.589667 30.12 
L 329.612119 30.12 
L 326.634571 30.12 
L 323.657024 30.12 
L 320.679476 30.12 
L 317.701929 30.12 
L 314.724381 30.12 
L 311.746833 30.12 
L 308.769286 30.12 
L 305.791738 30.12 
L 302.81419 30.12 
L 299.836643 30.12 
L 296.859095 30.12 
L 293.881548 30.12 
L 290.904 30.12 
L 287.926452 30.12 
L 284.948905 30.12 
L 281.971357 30.12 
L 278.99381 30.12 
L 276.016262 30.12 
L 273.038714 30.12 
L 270.061167 30.12 
L 267.083619 30.12 
L 264.106071 30.12 
L 261.128524 30.12 
L 258.150976 30.12 
L 255.173429 30.12 
L 252.195881 30.12 
L 249.218333 30.12 
L 246.240786 30.12 
L 243.263238 30.12 
L 240.28569 30.12 
L 237.308143 30.12 
L 234.330595 30.12 
L 231.353048 30.12 
L 228.3755 30.12 
L 225.397952 30.12 
L 222.420405 30.12 
L 219.442857 30.12 
L 216.46531 30.12 
L 213.487762 30.12 
L 210.510214 30.12 
L 207.532667 30.12 
L 204.555119 30.12 
L 201.577571 531.52 
L 198.600024 30.12 
L 195.622476 30.12 
L 192.644929 30.12 
L 189.667381 30.12 
L 186.689833 30.12 
L 183.712286 30.12 
L 180.734738 30.12 
L 177.75719 30.12 
L 174.779643 30.12 
L 171.802095 30.12 
L 168.824548 30.12 
L 165.847 30.12 
L 162.869452 30.12 
L 159.891905 30.12 
L 156.914357 30.12 
L 153.93681 30.12 
L 150.959262 30.12 
L 147.981714 30.12 
L 145.004167 30.12 
L 142.026619 30.12 
L 139.049071 364.386667 
L 136.071524 30.12 
L 133.093976 34.518246 
L 130.116429 30.12 
L 127.138881 30.12 
L 124.161333 30.12 
L 121.183786 280.82 
L 118.206238 30.12 
L 115.22869 30.12 
L 112.251143 30.12 
L 109.273595 30.12 
L 106.296048 30.12 
L 103.3185 30.12 
L 100.340952 30.12 
L 97.363405 30.12 
L 94.385857 30.12 
L 91.40831 30.12 
L 88.430762 30.12 
L 85.453214 30.12 
L 82.475667 30.12 
L 79.498119 30.12 
L 76.520571 30.12 
L 73.543024 85.831111 
L 70.565476 113.686667 
L 67.587929 30.12 
L 64.610381 30.12 
L 61.632833 30.12 
L 58.655286 30.12 
L 55.677738 30.12 
L 52.70019 30.12 
L 49.722643 75.701818 
L 46.745095 56.509474 
L 43.767548 30.12 
L 40.79 30.12 
z
" clip-path="url(#pac2283fee2)" style="fill: #e8bc60"/>
   </g>
   <g id="FillBetweenPolyCollection_4">
    <path d="M 40.79 30.12 
L 40.79 30.12 
L 43.767548 30.12 
L 46.745095 56.509474 
L 49.722643 75.701818 
L 52.70019 30.12 
L 55.677738 30.12 
L 58.655286 30.12 
L 61.632833 30.12 
L 64.610381 30.12 
L 67.587929 30.12 
L 70.565476 113.686667 
L 73.543024 85.831111 
L 76.520571 30.12 
L 79.498119 30.12 
L 82.475667 30.12 
L 85.453214 30.12 
L 88.430762 30.12 
L 91.40831 30.12 
L 94.385857 30.12 
L 97.363405 30.12 
L 100.340952 30.12 
L 103.3185 30.12 
L 106.296048 30.12 
L 109.273595 30.12 
L 112.251143 30.12 
L 115.22869 30.12 
L 118.206238 30.12 
L 121.183786 280.82 
L 124.161333 30.12 
L 127.138881 30.12 
L 130.116429 30.12 
L 133.093976 34.518246 
L 136.071524 30.12 
L 139.049071 364.386667 
L 142.026619 30.12 
L 145.004167 30.12 
L 147.981714 30.12 
L 150.959262 30.12 
L 153.93681 30.12 
L 156.914357 30.12 
L 159.891905 30.12 
L 162.869452 30.12 
L 165.847 30.12 
L 168.824548 30.12 
L 171.802095 30.12 
L 174.779643 30.12 
L 177.75719 30.12 
L 180.734738 30.12 
L 183.712286 30.12 
L 186.689833 30.12 
L 189.667381 30.12 
L 192.644929 30.12 
L 195.622476 30.12 
L 198.600024 30.12 
L 201.577571 531.52 
L 204.555119 30.12 
L 207.532667 30.12 
L 210.510214 30.12 
L 213.487762 30.12 
L 216.46531 30.12 
L 219.442857 30.12 
L 222.420405 30.12 
L 225.397952 30.12 
L 228.3755 30.12 
L 231.353048 30.12 
L 234.330595 30.12 
L 237.308143 30.12 
L 240.28569 30.12 
L 243.263238 30.12 
L 246.240786 30.12 
L 249.218333 30.12 
L 252.195881 30.12 
L 255.173429 30.12 
L 258.150976 30.12 
L 261.128524 30.12 
L 264.106071 30.12 
L 267.083619 30.12 
L 270.061167 30.12 
L 273.038714 30.12 
L 276.016262 30.12 
L 278.99381 30.12 
L 281.971357 30.12 
L 284.948905 30.12 
L 287.926452 30.12 
L 290.904 30.12 
L 293.881548 30.12 
L 296.859095 30.12 
L 299.836643 30.12 
L 302.81419 30.12 
L 305.791738 30.12 
L 308.769286 30.12 
L 311.746833 30.12 
L 314.724381 30.12 
L 317.701929 30.12 
L 320.679476 30.12 
L 323.657024 30.12 
L 326.634571 30.12 
L 329.612119 30.12 
L 332.589667 30.12 
L 335.567214 30.12 
L 338.544762 30.12 
L 341.52231 30.12 
L 344.499857 30.12 
L 347.477405 30.12 
L 350.454952 30.12 
L 353.4325 30.12 
L 356.410048 30.12 
L 359.387595 30.12 
L 362.365143 30.12 
L 365.34269 30.12 
L 368.320238 30.12 
L 371.297786 30.12 
L 374.275333 30.12 
L 377.252881 30.12 
L 380.230429 30.12 
L 383.207976 30.12 
L 386.185524 30.12 
L 389.163071 30.12 
L 392.140619 30.12 
L 395.118167 531.52 
L 398.095714 30.12 
L 401.073262 30.12 
L 404.05081 30.12 
L 407.028357 30.12 
L 410.005905 30.12 
L 412.983452 30.12 
L 415.961 30.12 
L 418.938548 30.12 
L 421.916095 30.12 
L 424.893643 30.12 
L 427.87119 30.12 
L 430.848738 30.12 
L 433.826286 30.12 
L 436.803833 30.12 
L 439.781381 30.12 
L 442.758929 30.12 
L 445.736476 30.12 
L 448.714024 30.12 
L 451.691571 30.12 
L 454.669119 30.12 
L 457.646667 30.12 
L 460.624214 30.12 
L 463.601762 30.12 
L 466.57931 30.12 
L 469.556857 30.12 
L 472.534405 30.12 
L 475.511952 30.12 
L 478.4895 30.12 
L 481.467048 30.12 
L 484.444595 30.12 
L 487.422143 30.12 
L 490.39969 30.12 
L 493.377238 30.12 
L 496.354786 30.12 
L 499.332333 30.12 
L 502.309881 30.12 
L 505.287429 30.12 
L 508.264976 30.12 
L 511.242524 30.12 
L 514.220071 30.12 
L 517.197619 30.12 
L 520.175167 30.12 
L 523.152714 30.12 
L 526.130262 30.12 
L 529.10781 30.12 
L 532.085357 30.12 
L 535.062905 30.12 
L 538.040452 30.12 
L 541.018 30.12 
L 543.995548 30.12 
L 546.973095 30.12 
L 549.950643 30.12 
L 552.92819 30.12 
L 555.905738 30.12 
L 558.883286 30.12 
L 561.860833 30.12 
L 564.838381 30.12 
L 567.815929 30.12 
L 570.793476 30.12 
L 573.771024 30.12 
L 576.748571 30.12 
L 579.726119 30.12 
L 582.703667 30.12 
L 585.681214 30.12 
L 588.658762 30.12 
L 591.63631 30.12 
L 594.613857 30.12 
L 597.591405 30.12 
L 600.568952 30.12 
L 603.5465 30.12 
L 606.524048 30.12 
L 609.501595 30.12 
L 612.479143 30.12 
L 615.45669 30.12 
L 618.434238 30.12 
L 621.411786 30.12 
L 624.389333 30.12 
L 627.366881 30.12 
L 630.344429 30.12 
L 633.321976 30.12 
L 636.299524 30.12 
L 639.277071 30.12 
L 642.254619 30.12 
L 645.232167 30.12 
L 648.209714 30.12 
L 651.187262 30.12 
L 654.16481 30.12 
L 657.142357 30.12 
L 660.119905 30.12 
L 663.097452 30.12 
L 666.075 30.12 
L 666.075 30.12 
L 666.075 30.12 
L 663.097452 30.12 
L 660.119905 30.12 
L 657.142357 30.12 
L 654.16481 30.12 
L 651.187262 30.12 
L 648.209714 30.12 
L 645.232167 30.12 
L 642.254619 30.12 
L 639.277071 30.12 
L 636.299524 30.12 
L 633.321976 30.12 
L 630.344429 30.12 
L 627.366881 30.12 
L 624.389333 30.12 
L 621.411786 30.12 
L 618.434238 30.12 
L 615.45669 30.12 
L 612.479143 30.12 
L 609.501595 30.12 
L 606.524048 30.12 
L 603.5465 30.12 
L 600.568952 30.12 
L 597.591405 30.12 
L 594.613857 30.12 
L 591.63631 30.12 
L 588.658762 30.12 
L 585.681214 30.12 
L 582.703667 30.12 
L 579.726119 30.12 
L 576.748571 30.12 
L 573.771024 30.12 
L 570.793476 30.12 
L 567.815929 30.12 
L 564.838381 30.12 
L 561.860833 30.12 
L 558.883286 30.12 
L 555.905738 30.12 
L 552.92819 30.12 
L 549.950643 30.12 
L 546.973095 30.12 
L 543.995548 30.12 
L 541.018 30.12 
L 538.040452 30.12 
L 535.062905 30.12 
L 532.085357 30.12 
L 529.10781 30.12 
L 526.130262 30.12 
L 523.152714 30.12 
L 520.175167 30.12 
L 517.197619 30.12 
L 514.220071 30.12 
L 511.242524 30.12 
L 508.264976 30.12 
L 505.287429 30.12 
L 502.309881 30.12 
L 499.332333 30.12 
L 496.354786 30.12 
L 493.377238 30.12 
L 490.39969 30.12 
L 487.422143 30.12 
L 484.444595 30.12 
L 481.467048 30.12 
L 478.4895 30.12 
L 475.511952 30.12 
L 472.534405 30.12 
L 469.556857 30.12 
L 466.57931 30.12 
L 463.601762 30.12 
L 460.624214 30.12 
L 457.646667 30.12 
L 454.669119 30.12 
L 451.691571 30.12 
L 448.714024 30.12 
L 445.736476 30.12 
L 442.758929 30.12 
L 439.781381 30.12 
L 436.803833 30.12 
L 433.826286 30.12 
L 430.848738 30.12 
L 427.87119 30.12 
L 424.893643 30.12 
L 421.916095 30.12 
L 418.938548 30.12 
L 415.961 30.12 
L 412.983452 30.12 
L 410.005905 30.12 
L 407.028357 30.12 
L 404.05081 30.12 
L 401.073262 30.12 
L 398.095714 30.12 
L 395.118167 30.12 
L 392.140619 30.12 
L 389.163071 30.12 
L 386.185524 30.12 
L 383.207976 30.12 
L 380.230429 30.12 
L 377.252881 30.12 
L 374.275333 30.12 
L 371.297786 30.12 
L 368.320238 30.12 
L 365.34269 30.12 
L 362.365143 30.12 
L 359.387595 30.12 
L 356.410048 30.12 
L 353.4325 30.12 
L 350.454952 30.12 
L 347.477405 30.12 
L 344.499857 30.12 
L 341.52231 30.12 
L 338.544762 30.12 
L 335.567214 30.12 
L 332.589667 30.12 
L 329.612119 30.12 
L 326.634571 30.12 
L 323.657024 30.12 
L 320.679476 30.12 
L 317.701929 30.12 
L 314.724381 30.12 
L 311.746833 30.12 
L 308.769286 30.12 
L 305.791738 30.12 
L 302.81419 30.12 
L 299.836643 30.12 
L 296.859095 30.12 
L 293.881548 30.12 
L 290.904 30.12 
L 287.926452 30.12 
L 284.948905 30.12 
L 281.971357 30.12 
L 278.99381 30.12 
L 276.016262 30.12 
L 273.038714 30.12 
L 270.061167 30.12 
L 267.083619 30.12 
L 264.106071 30.12 
L 261.128524 30.12 
L 258.150976 30.12 
L 255.173429 30.12 
L 252.195881 30.12 
L 249.218333 30.12 
L 246.240786 30.12 
L 243.263238 30.12 
L 240.28569 30.12 
L 237.308143 30.12 
L 234.330595 30.12 
L 231.353048 30.12 
L 228.3755 30.12 
L 225.397952 30.12 
L 222.420405 30.12 
L 219.442857 30.12 
L 216.46531 30.12 
L 213.487762 30.12 
L 210.510214 30.12 
L 207.532667 30.12 
L 204.555119 30.12 
L 201.577571 30.12 
L 198.600024 30.12 
L 195.622476 30.12 
L 192.644929 30.12 
L 189.667381 30.12 
L 186.689833 30.12 
L 183.712286 30.12 
L 180.734738 30.12 
L 177.75719 30.12 
L 174.779643 30.12 
L 171.802095 30.12 
L 168.824548 30.12 
L 165.847 30.12 
L 162.869452 30.12 
L 159.891905 30.12 
L 156.914357 30.12 
L 153.93681 30.12 
L 150.959262 30.12 
L 147.981714 30.12 
L 145.004167 30.12 
L 142.026619 30.12 
L 139.049071 30.12 
L 136.071524 30.12 
L 133.093976 30.12 
L 130.116429 30.12 
L 127.138881 30.12 
L 124.161333 30.12 
L 121.183786 30.12 
L 118.206238 30.12 
L 115.22869 30.12 
L 112.251143 30.12 
L 109.273595 30.12 
L 106.296048 30.12 
L 103.3185 30.12 
L 100.340952 30.12 
L 97.363405 30.12 
L 94.385857 30.12 
L 91.40831 30.12 
L 88.430762 30.12 
L 85.453214 30.12 
L 82.475667 30.12 
L 79.498119 30.12 
L 76.520571 30.12 
L 73.543024 30.12 
L 70.565476 30.12 
L 67.587929 30.12 
L 64.610381 30.12 
L 61.632833 30.12 
L 58.655286 30.12 
L 55.677738 30.12 
L 52.70019 30.12 
L 49.722643 30.12 
L 46.745095 30.12 
L 43.767548 30.12 
L 40.79 30.12 
z
" clip-path="url(#pac2283fee2)" style="fill: #8d5993"/>
   </g>
   <g id="matplotlib.axis_1">
    <g id="xtick_1">
     <g id="line2d_1">
      <path d="M 112.251143 531.52 
L 112.251143 30.12 
" clip-path="url(#pac2283fee2)" style="fill: none; stroke-dasharray: 2.96,1.28; stroke-dashoffset: 0; stroke: #b0b0b0; stroke-opacity: 0.5; stroke-width: 0.8"/>
     </g>
     <g id="line2d_2">
      <defs>
       <path id="m76b1691955" d="M 0 0 
L 0 3.5 
" style="stroke: #000000; stroke-width: 0.8"/>
      </defs>
      <g>
       <use xlink:href="#m76b1691955" x="112.251143" y="531.52" style="stroke: #000000; stroke-width: 0.8"/>
      </g>
     </g>
     <g id="text_1">
      <!-- 25 -->
      <g transform="translate(105.888643 546.118437) scale(0.1 -0.1)">
       <defs>
        <path id="DejaVuSans-32" d="M 1228 531 
L 3431 531 
L 3431 0 
L 469 0 
L 469 531 
Q 828 903 1448 1529 
Q 2069 2156 2228 2338 
Q 2531 2678 2651 2914 
Q 2772 3150 2772 3378 
Q 2772 3750 2511 3984 
Q 2250 4219 1831 4219 
Q 1534 4219 1204 4116 
Q 875 4013 500 3803 
L 500 4441 
Q 881 4594 1212 4672 
Q 1544 4750 1819 4750 
Q 2544 4750 2975 4387 
Q 3406 4025 3406 3419 
Q 3406 3131 3298 2873 
Q 3191 2616 2906 2266 
Q 2828 2175 2409 1742 
Q 1991 1309 1228 531 
z
" transform="scale(0.015625)"/>
        <path id="DejaVuSans-35" d="M 691 4666 
L 3169 4666 
L 3169 4134 
L 1269 4134 
L 1269 2991 
Q 1406 3038 1543 3061 
Q 1681 3084 1819 3084 
Q 2600 3084 3056 2656 
Q 3513 2228 3513 1497 
Q 3513 744 3044 326 
Q 2575 -91 1722 -91 
Q 1428 -91 1123 -41 
Q 819 9 494 109 
L 494 744 
Q 775 591 1075 516 
Q 1375 441 1709 441 
Q 2250 441 2565 725 
Q 2881 1009 2881 1497 
Q 2881 1984 2565 2268 
Q 2250 2553 1709 2553 
Q 1456 2553 1204 2497 
Q 953 2441 691 2322 
L 691 4666 
z
" transform="scale(0.015625)"/>
       </defs>
       <use xlink:href="#DejaVuSans-32"/>
       <use xlink:href="#DejaVuSans-35" transform="translate(63.623047 0)"/>
      </g>
     </g>
    </g>
    <g id="xtick_2">
     <g id="line2d_3">
      <path d="M 186.689833 531.52 
L 186.689833 30.12 
" clip-path="url(#pac2283fee2)" style="fill: none; stroke-dasharray: 2.96,1.28; stroke-dashoffset: 0; stroke: #b0b0b0; stroke-opacity: 0.5; stroke-width: 0.8"/>
     </g>
     <g id="line2d_4">
      <g>
       <use xlink:href="#m76b1691955" x="186.689833" y="531.52" style="stroke: #000000; stroke-width: 0.8"/>
      </g>
     </g>
     <g id="text_2">
      <!-- 50 -->
      <g transform="translate(180.327333 546.118437) scale(0.1 -0.1)">
       <defs>
        <path id="DejaVuSans-30" d="M 2034 4250 
Q 1547 4250 1301 3770 
Q 1056 3291 1056 2328 
Q 1056 1369 1301 889 
Q 1547 409 2034 409 
Q 2525 409 2770 889 
Q 3016 1369 3016 2328 
Q 3016 3291 2770 3770 
Q 2525 4250 2034 4250 
z
M 2034 4750 
Q 2819 4750 3233 4129 
Q 3647 3509 3647 2328 
Q 3647 1150 3233 529 
Q 2819 -91 2034 -91 
Q 1250 -91 836 529 
Q 422 1150 422 2328 
Q 422 3509 836 4129 
Q 1250 4750 2034 4750 
z
" transform="scale(0.015625)"/>
       </defs>
       <use xlink:href="#DejaVuSans-35"/>
       <use xlink:href="#DejaVuSans-30" transform="translate(63.623047 0)"/>
      </g>
     </g>
    </g>
    <g id="xtick_3">
     <g id="line2d_5">
      <path d="M 261.128524 531.52 
L 261.128524 30.12 
" clip-path="url(#pac2283fee2)" style="fill: none; stroke-dasharray: 2.96,1.28; stroke-dashoffset: 0; stroke: #b0b0b0; stroke-opacity: 0.5; stroke-width: 0.8"/>
     </g>
     <g id="line2d_6">
      <g>
       <use xlink:href="#m76b1691955" x="261.128524" y="531.52" style="stroke: #000000; stroke-width: 0.8"/>
      </g>
     </g>
     <g id="text_3">
      <!-- 75 -->
      <g transform="translate(254.766024 546.118437) scale(0.1 -0.1)">
       <defs>
        <path id="DejaVuSans-37" d="M 525 4666 
L 3525 4666 
L 3525 4397 
L 1831 0 
L 1172 0 
L 2766 4134 
L 525 4134 
L 525 4666 
z
" transform="scale(0.015625)"/>
       </defs>
       <use xlink:href="#DejaVuSans-37"/>
       <use xlink:href="#DejaVuSans-35" transform="translate(63.623047 0)"/>
      </g>
     </g>
    </g>
    <g id="xtick_4">
     <g id="line2d_7">
      <path d="M 335.567214 531.52 
L 335.567214 30.12 
" clip-path="url(#pac2283fee2)" style="fill: none; stroke-dasharray: 2.96,1.28; stroke-dashoffset: 0; stroke: #b0b0b0; stroke-opacity: 0.5; stroke-width: 0.8"/>
     </g>
     <g id="line2d_8">
      <g>
       <use xlink:href="#m76b1691955" x="335.567214" y="531.52" style="stroke: #000000; stroke-width: 0.8"/>
      </g>
     </g>
     <g id="text_4">
      <!-- 100 -->
      <g transform="translate(326.023464 546.118437) scale(0.1 -0.1)">
       <defs>
        <path id="DejaVuSans-31" d="M 794 531 
L 1825 531 
L 1825 4091 
L 703 3866 
L 703 4441 
L 1819 4666 
L 2450 4666 
L 2450 531 
L 3481 531 
L 3481 0 
L 794 0 
L 794 531 
z
" transform="scale(0.015625)"/>
       </defs>
       <use xlink:href="#DejaVuSans-31"/>
       <use xlink:href="#DejaVuSans-30" transform="translate(63.623047 0)"/>
       <use xlink:href="#DejaVuSans-30" transform="translate(127.246094 0)"/>
      </g>
     </g>
    </g>
    <g id="xtick_5">
     <g id="line2d_9">
      <path d="M 410.005905 531.52 
L 410.005905 30.12 
" clip-path="url(#pac2283fee2)" style="fill: none; stroke-dasharray: 2.96,1.28; stroke-dashoffset: 0; stroke: #b0b0b0; stroke-opacity: 0.5; stroke-width: 0.8"/>
     </g>
     <g id="line2d_10">
      <g>
       <use xlink:href="#m76b1691955" x="410.005905" y="531.52" style="stroke: #000000; stroke-width: 0.8"/>
      </g>
     </g>
     <g id="text_5">
      <!-- 125 -->
      <g transform="translate(400.462155 546.118437) scale(0.1 -0.1)">
       <use xlink:href="#DejaVuSans-31"/>
       <use xlink:href="#DejaVuSans-32" transform="translate(63.623047 0)"/>
       <use xlink:href="#DejaVuSans-35" transform="translate(127.246094 0)"/>
      </g>
     </g>
    </g>
    <g id="xtick_6">
     <g id="line2d_11">
      <path d="M 484.444595 531.52 
L 484.444595 30.12 
" clip-path="url(#pac2283fee2)" style="fill: none; stroke-dasharray: 2.96,1.28; stroke-dashoffset: 0; stroke: #b0b0b0; stroke-opacity: 0.5; stroke-width: 0.8"/>
     </g>
     <g id="line2d_12">
      <g>
       <use xlink:href="#m76b1691955" x="484.444595" y="531.52" style="stroke: #000000; stroke-width: 0.8"/>
      </g>
     </g>
     <g id="text_6">
      <!-- 150 -->
      <g transform="translate(474.900845 546.118437) scale(0.1 -0.1)">
       <use xlink:href="#DejaVuSans-31"/>
       <use xlink:href="#DejaVuSans-35" transform="translate(63.623047 0)"/>
       <use xlink:href="#DejaVuSans-30" transform="translate(127.246094 0)"/>
      </g>
     </g>
    </g>
    <g id="xtick_7">
     <g id="line2d_13">
      <path d="M 558.883286 531.52 
L 558.883286 30.12 
" clip-path="url(#pac2283fee2)" style="fill: none; stroke-dasharray: 2.96,1.28; stroke-dashoffset: 0; stroke: #b0b0b0; stroke-opacity: 0.5; stroke-width: 0.8"/>
     </g>
     <g id="line2d_14">
      <g>
       <use xlink:href="#m76b1691955" x="558.883286" y="531.52" style="stroke: #000000; stroke-width: 0.8"/>
      </g>
     </g>
     <g id="text_7">
      <!-- 175 -->
      <g transform="translate(549.339536 546.118437) scale(0.1 -0.1)">
       <use xlink:href="#DejaVuSans-31"/>
       <use xlink:href="#DejaVuSans-37" transform="translate(63.623047 0)"/>
       <use xlink:href="#DejaVuSans-35" transform="translate(127.246094 0)"/>
      </g>
     </g>
    </g>
    <g id="xtick_8">
     <g id="line2d_15">
      <path d="M 633.321976 531.52 
L 633.321976 30.12 
" clip-path="url(#pac2283fee2)" style="fill: none; stroke-dasharray: 2.96,1.28; stroke-dashoffset: 0; stroke: #b0b0b0; stroke-opacity: 0.5; stroke-width: 0.8"/>
     </g>
     <g id="line2d_16">
      <g>
       <use xlink:href="#m76b1691955" x="633.321976" y="531.52" style="stroke: #000000; stroke-width: 0.8"/>
      </g>
     </g>
     <g id="text_8">
      <!-- 200 -->
      <g transform="translate(623.778226 546.118437) scale(0.1 -0.1)">
       <use xlink:href="#DejaVuSans-32"/>
       <use xlink:href="#DejaVuSans-30" transform="translate(63.623047 0)"/>
       <use xlink:href="#DejaVuSans-30" transform="translate(127.246094 0)"/>
      </g>
     </g>
    </g>
    <g id="text_9">
     <!-- Session Count -->
     <g transform="translate(313.174844 561.919375) scale(0.14 -0.14)">
      <defs>
       <path id="TimesNewRomanPSMT-53" d="M 2934 4334 
L 2934 2869 
L 2819 2869 
Q 2763 3291 2617 3541 
Q 2472 3791 2203 3937 
Q 1934 4084 1647 4084 
Q 1322 4084 1109 3886 
Q 897 3688 897 3434 
Q 897 3241 1031 3081 
Q 1225 2847 1953 2456 
Q 2547 2138 2764 1967 
Q 2981 1797 3098 1565 
Q 3216 1334 3216 1081 
Q 3216 600 2842 251 
Q 2469 -97 1881 -97 
Q 1697 -97 1534 -69 
Q 1438 -53 1133 45 
Q 828 144 747 144 
Q 669 144 623 97 
Q 578 50 556 -97 
L 441 -97 
L 441 1356 
L 556 1356 
Q 638 900 775 673 
Q 913 447 1195 297 
Q 1478 147 1816 147 
Q 2206 147 2432 353 
Q 2659 559 2659 841 
Q 2659 997 2573 1156 
Q 2488 1316 2306 1453 
Q 2184 1547 1640 1851 
Q 1097 2156 867 2337 
Q 638 2519 519 2737 
Q 400 2956 400 3219 
Q 400 3675 750 4004 
Q 1100 4334 1641 4334 
Q 1978 4334 2356 4169 
Q 2531 4091 2603 4091 
Q 2684 4091 2736 4139 
Q 2788 4188 2819 4334 
L 2934 4334 
z
" transform="scale(0.015625)"/>
       <path id="TimesNewRomanPSMT-65" d="M 681 1784 
Q 678 1147 991 784 
Q 1303 422 1725 422 
Q 2006 422 2214 576 
Q 2422 731 2563 1106 
L 2659 1044 
Q 2594 616 2278 264 
Q 1963 -88 1488 -88 
Q 972 -88 605 314 
Q 238 716 238 1394 
Q 238 2128 614 2539 
Q 991 2950 1559 2950 
Q 2041 2950 2350 2633 
Q 2659 2316 2659 1784 
L 681 1784 
z
M 681 1966 
L 2006 1966 
Q 1991 2241 1941 2353 
Q 1863 2528 1708 2628 
Q 1553 2728 1384 2728 
Q 1125 2728 920 2526 
Q 716 2325 681 1966 
z
" transform="scale(0.015625)"/>
       <path id="TimesNewRomanPSMT-73" d="M 2050 2947 
L 2050 1972 
L 1947 1972 
Q 1828 2431 1642 2597 
Q 1456 2763 1169 2763 
Q 950 2763 815 2647 
Q 681 2531 681 2391 
Q 681 2216 781 2091 
Q 878 1963 1175 1819 
L 1631 1597 
Q 2266 1288 2266 781 
Q 2266 391 1970 151 
Q 1675 -88 1309 -88 
Q 1047 -88 709 6 
Q 606 38 541 38 
Q 469 38 428 -44 
L 325 -44 
L 325 978 
L 428 978 
Q 516 541 762 319 
Q 1009 97 1316 97 
Q 1531 97 1667 223 
Q 1803 350 1803 528 
Q 1803 744 1651 891 
Q 1500 1038 1047 1263 
Q 594 1488 453 1669 
Q 313 1847 313 2119 
Q 313 2472 555 2709 
Q 797 2947 1181 2947 
Q 1350 2947 1591 2875 
Q 1750 2828 1803 2828 
Q 1853 2828 1881 2850 
Q 1909 2872 1947 2947 
L 2050 2947 
z
" transform="scale(0.015625)"/>
       <path id="TimesNewRomanPSMT-69" d="M 928 4444 
Q 1059 4444 1151 4351 
Q 1244 4259 1244 4128 
Q 1244 3997 1151 3903 
Q 1059 3809 928 3809 
Q 797 3809 703 3903 
Q 609 3997 609 4128 
Q 609 4259 701 4351 
Q 794 4444 928 4444 
z
M 1188 2947 
L 1188 647 
Q 1188 378 1227 289 
Q 1266 200 1342 156 
Q 1419 113 1622 113 
L 1622 0 
L 231 0 
L 231 113 
Q 441 113 512 153 
Q 584 194 626 287 
Q 669 381 669 647 
L 669 1750 
Q 669 2216 641 2353 
Q 619 2453 572 2492 
Q 525 2531 444 2531 
Q 356 2531 231 2484 
L 188 2597 
L 1050 2947 
L 1188 2947 
z
" transform="scale(0.015625)"/>
       <path id="TimesNewRomanPSMT-6f" d="M 1600 2947 
Q 2250 2947 2644 2453 
Q 2978 2031 2978 1484 
Q 2978 1100 2793 706 
Q 2609 313 2286 112 
Q 1963 -88 1566 -88 
Q 919 -88 538 428 
Q 216 863 216 1403 
Q 216 1797 411 2186 
Q 606 2575 925 2761 
Q 1244 2947 1600 2947 
z
M 1503 2744 
Q 1338 2744 1170 2645 
Q 1003 2547 900 2300 
Q 797 2053 797 1666 
Q 797 1041 1045 587 
Q 1294 134 1700 134 
Q 2003 134 2200 384 
Q 2397 634 2397 1244 
Q 2397 2006 2069 2444 
Q 1847 2744 1503 2744 
z
" transform="scale(0.015625)"/>
       <path id="TimesNewRomanPSMT-6e" d="M 1034 2341 
Q 1538 2947 1994 2947 
Q 2228 2947 2397 2830 
Q 2566 2713 2666 2444 
Q 2734 2256 2734 1869 
L 2734 647 
Q 2734 375 2778 278 
Q 2813 200 2889 156 
Q 2966 113 3172 113 
L 3172 0 
L 1756 0 
L 1756 113 
L 1816 113 
Q 2016 113 2095 173 
Q 2175 234 2206 353 
Q 2219 400 2219 647 
L 2219 1819 
Q 2219 2209 2117 2386 
Q 2016 2563 1775 2563 
Q 1403 2563 1034 2156 
L 1034 647 
Q 1034 356 1069 288 
Q 1113 197 1189 155 
Q 1266 113 1500 113 
L 1500 0 
L 84 0 
L 84 113 
L 147 113 
Q 366 113 442 223 
Q 519 334 519 647 
L 519 1709 
Q 519 2225 495 2337 
Q 472 2450 423 2490 
Q 375 2531 294 2531 
Q 206 2531 84 2484 
L 38 2597 
L 900 2947 
L 1034 2947 
L 1034 2341 
z
" transform="scale(0.015625)"/>
       <path id="TimesNewRomanPSMT-20" transform="scale(0.015625)"/>
       <path id="TimesNewRomanPSMT-43" d="M 3853 4334 
L 3950 2894 
L 3853 2894 
Q 3659 3541 3300 3825 
Q 2941 4109 2438 4109 
Q 2016 4109 1675 3895 
Q 1334 3681 1139 3212 
Q 944 2744 944 2047 
Q 944 1472 1128 1050 
Q 1313 628 1683 403 
Q 2053 178 2528 178 
Q 2941 178 3256 354 
Q 3572 531 3950 1056 
L 4047 994 
Q 3728 428 3303 165 
Q 2878 -97 2294 -97 
Q 1241 -97 663 684 
Q 231 1266 231 2053 
Q 231 2688 515 3219 
Q 800 3750 1298 4042 
Q 1797 4334 2388 4334 
Q 2847 4334 3294 4109 
Q 3425 4041 3481 4041 
Q 3566 4041 3628 4100 
Q 3709 4184 3744 4334 
L 3853 4334 
z
" transform="scale(0.015625)"/>
       <path id="TimesNewRomanPSMT-75" d="M 2709 2863 
L 2709 1128 
Q 2709 631 2732 520 
Q 2756 409 2807 365 
Q 2859 322 2928 322 
Q 3025 322 3147 375 
L 3191 266 
L 2334 -88 
L 2194 -88 
L 2194 519 
Q 1825 119 1631 15 
Q 1438 -88 1222 -88 
Q 981 -88 804 51 
Q 628 191 559 409 
Q 491 628 491 1028 
L 491 2306 
Q 491 2509 447 2587 
Q 403 2666 317 2708 
Q 231 2750 6 2747 
L 6 2863 
L 1009 2863 
L 1009 947 
Q 1009 547 1148 422 
Q 1288 297 1484 297 
Q 1619 297 1789 381 
Q 1959 466 2194 703 
L 2194 2325 
Q 2194 2569 2105 2655 
Q 2016 2741 1734 2747 
L 1734 2863 
L 2709 2863 
z
" transform="scale(0.015625)"/>
       <path id="TimesNewRomanPSMT-74" d="M 1031 3803 
L 1031 2863 
L 1700 2863 
L 1700 2644 
L 1031 2644 
L 1031 788 
Q 1031 509 1111 412 
Q 1191 316 1316 316 
Q 1419 316 1516 380 
Q 1613 444 1666 569 
L 1788 569 
Q 1678 263 1478 108 
Q 1278 -47 1066 -47 
Q 922 -47 784 33 
Q 647 113 581 261 
Q 516 409 516 719 
L 516 2644 
L 63 2644 
L 63 2747 
Q 234 2816 414 2980 
Q 594 3144 734 3369 
Q 806 3488 934 3803 
L 1031 3803 
z
" transform="scale(0.015625)"/>
      </defs>
      <use xlink:href="#TimesNewRomanPSMT-53"/>
      <use xlink:href="#TimesNewRomanPSMT-65" transform="translate(55.615234 0)"/>
      <use xlink:href="#TimesNewRomanPSMT-73" transform="translate(100 0)"/>
      <use xlink:href="#TimesNewRomanPSMT-73" transform="translate(138.916016 0)"/>
      <use xlink:href="#TimesNewRomanPSMT-69" transform="translate(177.832031 0)"/>
      <use xlink:href="#TimesNewRomanPSMT-6f" transform="translate(205.615234 0)"/>
      <use xlink:href="#TimesNewRomanPSMT-6e" transform="translate(255.615234 0)"/>
      <use xlink:href="#TimesNewRomanPSMT-20" transform="translate(305.615234 0)"/>
      <use xlink:href="#TimesNewRomanPSMT-43" transform="translate(330.615234 0)"/>
      <use xlink:href="#TimesNewRomanPSMT-6f" transform="translate(397.314453 0)"/>
      <use xlink:href="#TimesNewRomanPSMT-75" transform="translate(447.314453 0)"/>
      <use xlink:href="#TimesNewRomanPSMT-6e" transform="translate(497.314453 0)"/>
      <use xlink:href="#TimesNewRomanPSMT-74" transform="translate(547.314453 0)"/>
     </g>
    </g>
   </g>
   <g id="matplotlib.axis_2">
    <g id="ytick_1">
     <g id="line2d_17">
      <path d="M 40.79 531.52 
L 666.075 531.52 
" clip-path="url(#pac2283fee2)" style="fill: none; stroke-dasharray: 2.96,1.28; stroke-dashoffset: 0; stroke: #b0b0b0; stroke-opacity: 0.5; stroke-width: 0.8"/>
     </g>
     <g id="line2d_18">
      <defs>
       <path id="m8dd4a71cff" d="M 0 0 
L -3.5 0 
" style="stroke: #000000; stroke-width: 0.8"/>
      </defs>
      <g>
       <use xlink:href="#m8dd4a71cff" x="40.79" y="531.52" style="stroke: #000000; stroke-width: 0.8"/>
      </g>
     </g>
     <g id="text_10">
      <!-- 0 -->
      <g transform="translate(27.4275 535.319219) scale(0.1 -0.1)">
       <use xlink:href="#DejaVuSans-30"/>
      </g>
     </g>
    </g>
    <g id="ytick_2">
     <g id="line2d_19">
      <path d="M 40.79 30.12 
L 666.075 30.12 
" clip-path="url(#pac2283fee2)" style="fill: none; stroke-dasharray: 2.96,1.28; stroke-dashoffset: 0; stroke: #b0b0b0; stroke-opacity: 0.5; stroke-width: 0.8"/>
     </g>
     <g id="line2d_20">
      <g>
       <use xlink:href="#m8dd4a71cff" x="40.79" y="30.12" style="stroke: #000000; stroke-width: 0.8"/>
      </g>
     </g>
     <g id="text_11">
      <!-- 1 -->
      <g transform="translate(27.4275 33.919219) scale(0.1 -0.1)">
       <use xlink:href="#DejaVuSans-31"/>
      </g>
     </g>
    </g>
    <g id="text_12">
     <!-- Stacked Proportion -->
     <g transform="translate(20.432813 334.672969) rotate(-90) scale(0.14 -0.14)">
      <defs>
       <path id="TimesNewRomanPSMT-61" d="M 1822 413 
Q 1381 72 1269 19 
Q 1100 -59 909 -59 
Q 613 -59 420 144 
Q 228 347 228 678 
Q 228 888 322 1041 
Q 450 1253 767 1440 
Q 1084 1628 1822 1897 
L 1822 2009 
Q 1822 2438 1686 2597 
Q 1550 2756 1291 2756 
Q 1094 2756 978 2650 
Q 859 2544 859 2406 
L 866 2225 
Q 866 2081 792 2003 
Q 719 1925 600 1925 
Q 484 1925 411 2006 
Q 338 2088 338 2228 
Q 338 2497 613 2722 
Q 888 2947 1384 2947 
Q 1766 2947 2009 2819 
Q 2194 2722 2281 2516 
Q 2338 2381 2338 1966 
L 2338 994 
Q 2338 584 2353 492 
Q 2369 400 2405 369 
Q 2441 338 2488 338 
Q 2538 338 2575 359 
Q 2641 400 2828 588 
L 2828 413 
Q 2478 -56 2159 -56 
Q 2006 -56 1915 50 
Q 1825 156 1822 413 
z
M 1822 616 
L 1822 1706 
Q 1350 1519 1213 1441 
Q 966 1303 859 1153 
Q 753 1003 753 825 
Q 753 600 887 451 
Q 1022 303 1197 303 
Q 1434 303 1822 616 
z
" transform="scale(0.015625)"/>
       <path id="TimesNewRomanPSMT-63" d="M 2631 1088 
Q 2516 522 2178 217 
Q 1841 -88 1431 -88 
Q 944 -88 581 321 
Q 219 731 219 1428 
Q 219 2103 620 2525 
Q 1022 2947 1584 2947 
Q 2006 2947 2278 2723 
Q 2550 2500 2550 2259 
Q 2550 2141 2473 2067 
Q 2397 1994 2259 1994 
Q 2075 1994 1981 2113 
Q 1928 2178 1911 2362 
Q 1894 2547 1784 2644 
Q 1675 2738 1481 2738 
Q 1169 2738 978 2506 
Q 725 2200 725 1697 
Q 725 1184 976 792 
Q 1228 400 1656 400 
Q 1963 400 2206 609 
Q 2378 753 2541 1131 
L 2631 1088 
z
" transform="scale(0.015625)"/>
       <path id="TimesNewRomanPSMT-6b" d="M 1047 4444 
L 1047 1594 
L 1775 2259 
Q 2006 2472 2044 2528 
Q 2069 2566 2069 2603 
Q 2069 2666 2017 2711 
Q 1966 2756 1847 2763 
L 1847 2863 
L 3091 2863 
L 3091 2763 
Q 2834 2756 2664 2684 
Q 2494 2613 2291 2428 
L 1556 1750 
L 2291 822 
Q 2597 438 2703 334 
Q 2853 188 2966 144 
Q 3044 113 3238 113 
L 3238 0 
L 1847 0 
L 1847 113 
Q 1966 116 2008 148 
Q 2050 181 2050 241 
Q 2050 313 1925 472 
L 1047 1594 
L 1047 644 
Q 1047 366 1086 278 
Q 1125 191 1197 153 
Q 1269 116 1509 113 
L 1509 0 
L 53 0 
L 53 113 
Q 272 113 381 166 
Q 447 200 481 272 
Q 528 375 528 628 
L 528 3234 
Q 528 3731 506 3842 
Q 484 3953 434 3995 
Q 384 4038 303 4038 
Q 238 4038 106 3984 
L 53 4094 
L 903 4444 
L 1047 4444 
z
" transform="scale(0.015625)"/>
       <path id="TimesNewRomanPSMT-64" d="M 2222 322 
Q 2013 103 1813 7 
Q 1613 -88 1381 -88 
Q 913 -88 563 304 
Q 213 697 213 1313 
Q 213 1928 600 2439 
Q 988 2950 1597 2950 
Q 1975 2950 2222 2709 
L 2222 3238 
Q 2222 3728 2198 3840 
Q 2175 3953 2125 3993 
Q 2075 4034 2000 4034 
Q 1919 4034 1784 3984 
L 1744 4094 
L 2597 4444 
L 2738 4444 
L 2738 1134 
Q 2738 631 2761 520 
Q 2784 409 2836 365 
Q 2888 322 2956 322 
Q 3041 322 3181 375 
L 3216 266 
L 2366 -88 
L 2222 -88 
L 2222 322 
z
M 2222 541 
L 2222 2016 
Q 2203 2228 2109 2403 
Q 2016 2578 1861 2667 
Q 1706 2756 1559 2756 
Q 1284 2756 1069 2509 
Q 784 2184 784 1559 
Q 784 928 1059 592 
Q 1334 256 1672 256 
Q 1956 256 2222 541 
z
" transform="scale(0.015625)"/>
       <path id="TimesNewRomanPSMT-50" d="M 1313 1984 
L 1313 750 
Q 1313 350 1400 253 
Q 1519 116 1759 116 
L 1922 116 
L 1922 0 
L 106 0 
L 106 116 
L 266 116 
Q 534 116 650 291 
Q 713 388 713 750 
L 713 3488 
Q 713 3888 628 3984 
Q 506 4122 266 4122 
L 106 4122 
L 106 4238 
L 1659 4238 
Q 2228 4238 2556 4120 
Q 2884 4003 3109 3725 
Q 3334 3447 3334 3066 
Q 3334 2547 2992 2222 
Q 2650 1897 2025 1897 
Q 1872 1897 1694 1919 
Q 1516 1941 1313 1984 
z
M 1313 2163 
Q 1478 2131 1606 2115 
Q 1734 2100 1825 2100 
Q 2150 2100 2386 2351 
Q 2622 2603 2622 3003 
Q 2622 3278 2509 3514 
Q 2397 3750 2190 3867 
Q 1984 3984 1722 3984 
Q 1563 3984 1313 3925 
L 1313 2163 
z
" transform="scale(0.015625)"/>
       <path id="TimesNewRomanPSMT-72" d="M 1038 2947 
L 1038 2303 
Q 1397 2947 1775 2947 
Q 1947 2947 2059 2842 
Q 2172 2738 2172 2600 
Q 2172 2478 2090 2393 
Q 2009 2309 1897 2309 
Q 1788 2309 1652 2417 
Q 1516 2525 1450 2525 
Q 1394 2525 1328 2463 
Q 1188 2334 1038 2041 
L 1038 669 
Q 1038 431 1097 309 
Q 1138 225 1241 169 
Q 1344 113 1538 113 
L 1538 0 
L 72 0 
L 72 113 
Q 291 113 397 181 
Q 475 231 506 341 
Q 522 394 522 644 
L 522 1753 
Q 522 2253 501 2348 
Q 481 2444 426 2487 
Q 372 2531 291 2531 
Q 194 2531 72 2484 
L 41 2597 
L 906 2947 
L 1038 2947 
z
" transform="scale(0.015625)"/>
       <path id="TimesNewRomanPSMT-70" d="M -6 2578 
L 875 2934 
L 994 2934 
L 994 2266 
Q 1216 2644 1439 2795 
Q 1663 2947 1909 2947 
Q 2341 2947 2628 2609 
Q 2981 2197 2981 1534 
Q 2981 794 2556 309 
Q 2206 -88 1675 -88 
Q 1444 -88 1275 -22 
Q 1150 25 994 166 
L 994 -706 
Q 994 -1000 1030 -1079 
Q 1066 -1159 1155 -1206 
Q 1244 -1253 1478 -1253 
L 1478 -1369 
L -22 -1369 
L -22 -1253 
L 56 -1253 
Q 228 -1256 350 -1188 
Q 409 -1153 442 -1076 
Q 475 -1000 475 -688 
L 475 2019 
Q 475 2297 450 2372 
Q 425 2447 370 2484 
Q 316 2522 222 2522 
Q 147 2522 31 2478 
L -6 2578 
z
M 994 2081 
L 994 1013 
Q 994 666 1022 556 
Q 1066 375 1236 237 
Q 1406 100 1666 100 
Q 1978 100 2172 344 
Q 2425 663 2425 1241 
Q 2425 1897 2138 2250 
Q 1938 2494 1663 2494 
Q 1513 2494 1366 2419 
Q 1253 2363 994 2081 
z
" transform="scale(0.015625)"/>
      </defs>
      <use xlink:href="#TimesNewRomanPSMT-53"/>
      <use xlink:href="#TimesNewRomanPSMT-74" transform="translate(55.615234 0)"/>
      <use xlink:href="#TimesNewRomanPSMT-61" transform="translate(83.398438 0)"/>
      <use xlink:href="#TimesNewRomanPSMT-63" transform="translate(127.783203 0)"/>
      <use xlink:href="#TimesNewRomanPSMT-6b" transform="translate(172.167969 0)"/>
      <use xlink:href="#TimesNewRomanPSMT-65" transform="translate(222.167969 0)"/>
      <use xlink:href="#TimesNewRomanPSMT-64" transform="translate(266.552734 0)"/>
      <use xlink:href="#TimesNewRomanPSMT-20" transform="translate(316.552734 0)"/>
      <use xlink:href="#TimesNewRomanPSMT-50" transform="translate(341.552734 0)"/>
      <use xlink:href="#TimesNewRomanPSMT-72" transform="translate(397.167969 0)"/>
      <use xlink:href="#TimesNewRomanPSMT-6f" transform="translate(430.46875 0)"/>
      <use xlink:href="#TimesNewRomanPSMT-70" transform="translate(480.46875 0)"/>
      <use xlink:href="#TimesNewRomanPSMT-6f" transform="translate(530.46875 0)"/>
      <use xlink:href="#TimesNewRomanPSMT-72" transform="translate(580.46875 0)"/>
      <use xlink:href="#TimesNewRomanPSMT-74" transform="translate(613.769531 0)"/>
      <use xlink:href="#TimesNewRomanPSMT-69" transform="translate(641.552734 0)"/>
      <use xlink:href="#TimesNewRomanPSMT-6f" transform="translate(669.335938 0)"/>
      <use xlink:href="#TimesNewRomanPSMT-6e" transform="translate(719.335938 0)"/>
     </g>
    </g>
   </g>
   <g id="line2d_21">
    <path d="M 40.79 139.455062 
L 666.075 139.455062 
" clip-path="url(#pac2283fee2)" style="fill: none; stroke-dasharray: 7.5,15; stroke-dashoffset: 0; stroke: #000000; stroke-width: 1.5"/>
   </g>
   <g id="patch_3">
    <path d="M 40.79 531.52 
L 40.79 30.12 
" style="fill: none; stroke: #000000; stroke-width: 0.8; stroke-linejoin: miter; stroke-linecap: square"/>
   </g>
   <g id="patch_4">
    <path d="M 666.075 531.52 
L 666.075 30.12 
" style="fill: none; stroke: #000000; stroke-width: 0.8; stroke-linejoin: miter; stroke-linecap: square"/>
   </g>
   <g id="patch_5">
    <path d="M 40.79 531.52 
L 666.075 531.52 
" style="fill: none; stroke: #000000; stroke-width: 0.8; stroke-linejoin: miter; stroke-linecap: square"/>
   </g>
   <g id="patch_6">
    <path d="M 40.79 30.12 
L 666.075 30.12 
" style="fill: none; stroke: #000000; stroke-width: 0.8; stroke-linejoin: miter; stroke-linecap: square"/>
   </g>
   <g id="text_13">
    <!-- 0.78 -->
    <g transform="translate(686.917833 142.818344) scale(0.14 -0.14)">
     <defs>
      <path id="TimesNewRomanPSMT-30" d="M 231 2094 
Q 231 2819 450 3342 
Q 669 3866 1031 4122 
Q 1313 4325 1613 4325 
Q 2100 4325 2488 3828 
Q 2972 3213 2972 2159 
Q 2972 1422 2759 906 
Q 2547 391 2217 158 
Q 1888 -75 1581 -75 
Q 975 -75 572 641 
Q 231 1244 231 2094 
z
M 844 2016 
Q 844 1141 1059 588 
Q 1238 122 1591 122 
Q 1759 122 1940 273 
Q 2122 425 2216 781 
Q 2359 1319 2359 2297 
Q 2359 3022 2209 3506 
Q 2097 3866 1919 4016 
Q 1791 4119 1609 4119 
Q 1397 4119 1231 3928 
Q 1006 3669 925 3112 
Q 844 2556 844 2016 
z
" transform="scale(0.015625)"/>
      <path id="TimesNewRomanPSMT-2e" d="M 800 606 
Q 947 606 1047 504 
Q 1147 403 1147 259 
Q 1147 116 1045 14 
Q 944 -88 800 -88 
Q 656 -88 554 14 
Q 453 116 453 259 
Q 453 406 554 506 
Q 656 606 800 606 
z
" transform="scale(0.015625)"/>
      <path id="TimesNewRomanPSMT-37" d="M 644 4238 
L 2916 4238 
L 2916 4119 
L 1503 -88 
L 1153 -88 
L 2419 3728 
L 1253 3728 
Q 900 3728 750 3644 
Q 488 3500 328 3200 
L 238 3234 
L 644 4238 
z
" transform="scale(0.015625)"/>
      <path id="TimesNewRomanPSMT-38" d="M 1228 2134 
Q 725 2547 579 2797 
Q 434 3047 434 3316 
Q 434 3728 753 4026 
Q 1072 4325 1600 4325 
Q 2113 4325 2425 4047 
Q 2738 3769 2738 3413 
Q 2738 3175 2569 2928 
Q 2400 2681 1866 2347 
Q 2416 1922 2594 1678 
Q 2831 1359 2831 1006 
Q 2831 559 2490 242 
Q 2150 -75 1597 -75 
Q 994 -75 656 303 
Q 388 606 388 966 
Q 388 1247 577 1523 
Q 766 1800 1228 2134 
z
M 1719 2469 
Q 2094 2806 2194 3001 
Q 2294 3197 2294 3444 
Q 2294 3772 2109 3958 
Q 1925 4144 1606 4144 
Q 1288 4144 1088 3959 
Q 888 3775 888 3528 
Q 888 3366 970 3203 
Q 1053 3041 1206 2894 
L 1719 2469 
z
M 1375 2016 
Q 1116 1797 991 1539 
Q 866 1281 866 981 
Q 866 578 1086 336 
Q 1306 94 1647 94 
Q 1984 94 2187 284 
Q 2391 475 2391 747 
Q 2391 972 2272 1150 
Q 2050 1481 1375 2016 
z
" transform="scale(0.015625)"/>
     </defs>
     <use xlink:href="#TimesNewRomanPSMT-30"/>
     <use xlink:href="#TimesNewRomanPSMT-2e" transform="translate(50 0)"/>
     <use xlink:href="#TimesNewRomanPSMT-37" transform="translate(75 0)"/>
     <use xlink:href="#TimesNewRomanPSMT-38" transform="translate(125 0)"/>
    </g>
   </g>
   <g id="text_14">
    <!-- Ficelle (Tonkean) -->
    <g transform="translate(279.634063 24.12) scale(0.2 -0.2)">
     <defs>
      <path id="TimesNewRomanPS-BoldMT-46" d="M 1759 3994 
L 1759 2253 
L 1881 2253 
Q 2163 2253 2341 2337 
Q 2519 2422 2642 2622 
Q 2766 2822 2803 3163 
L 2913 3163 
L 2913 1034 
L 2803 1034 
Q 2744 1638 2480 1830 
Q 2216 2022 1881 2022 
L 1759 2022 
L 1759 725 
Q 1759 400 1795 319 
Q 1831 238 1936 177 
Q 2041 116 2219 116 
L 2359 116 
L 2359 0 
L 144 0 
L 144 116 
L 284 116 
Q 469 116 581 181 
Q 663 225 706 331 
Q 741 406 741 725 
L 741 3513 
Q 741 3838 706 3919 
Q 672 4000 567 4061 
Q 463 4122 284 4122 
L 144 4122 
L 144 4238 
L 3719 4238 
L 3719 3022 
L 3591 3022 
Q 3547 3450 3367 3656 
Q 3188 3863 2847 3947 
Q 2659 3994 2153 3994 
L 1759 3994 
z
" transform="scale(0.015625)"/>
      <path id="TimesNewRomanPS-BoldMT-69" d="M 919 4338 
Q 1122 4338 1262 4195 
Q 1403 4053 1403 3853 
Q 1403 3653 1261 3512 
Q 1119 3372 919 3372 
Q 719 3372 578 3512 
Q 438 3653 438 3853 
Q 438 4053 578 4195 
Q 719 4338 919 4338 
z
M 1356 2922 
L 1356 606 
Q 1356 297 1428 211 
Q 1500 125 1709 113 
L 1709 0 
L 131 0 
L 131 113 
Q 325 119 419 225 
Q 481 297 481 606 
L 481 2313 
Q 481 2622 409 2708 
Q 338 2794 131 2806 
L 131 2922 
L 1356 2922 
z
" transform="scale(0.015625)"/>
      <path id="TimesNewRomanPS-BoldMT-63" d="M 2600 753 
L 2697 678 
Q 2491 291 2183 101 
Q 1875 -88 1528 -88 
Q 944 -88 594 353 
Q 244 794 244 1413 
Q 244 2009 563 2463 
Q 947 3009 1622 3009 
Q 2075 3009 2342 2781 
Q 2609 2553 2609 2272 
Q 2609 2094 2501 1987 
Q 2394 1881 2219 1881 
Q 2034 1881 1914 2003 
Q 1794 2125 1766 2438 
Q 1747 2634 1675 2713 
Q 1603 2791 1506 2791 
Q 1356 2791 1250 2631 
Q 1088 2391 1088 1894 
Q 1088 1481 1219 1104 
Q 1350 728 1578 544 
Q 1750 409 1984 409 
Q 2138 409 2275 481 
Q 2413 553 2600 753 
z
" transform="scale(0.015625)"/>
      <path id="TimesNewRomanPS-BoldMT-65" d="M 2691 1566 
L 1088 1566 
Q 1116 984 1397 647 
Q 1613 388 1916 388 
Q 2103 388 2256 492 
Q 2409 597 2584 869 
L 2691 800 
Q 2453 316 2165 114 
Q 1878 -88 1500 -88 
Q 850 -88 516 413 
Q 247 816 247 1413 
Q 247 2144 642 2576 
Q 1038 3009 1569 3009 
Q 2013 3009 2339 2645 
Q 2666 2281 2691 1566 
z
M 1922 1775 
Q 1922 2278 1867 2465 
Q 1813 2653 1697 2750 
Q 1631 2806 1522 2806 
Q 1359 2806 1256 2647 
Q 1072 2369 1072 1884 
L 1072 1775 
L 1922 1775 
z
" transform="scale(0.015625)"/>
      <path id="TimesNewRomanPS-BoldMT-6c" d="M 1359 4238 
L 1359 606 
Q 1359 297 1431 211 
Q 1503 125 1713 113 
L 1713 0 
L 134 0 
L 134 113 
Q 328 119 422 225 
Q 484 297 484 606 
L 484 3631 
Q 484 3938 412 4023 
Q 341 4109 134 4122 
L 134 4238 
L 1359 4238 
z
" transform="scale(0.015625)"/>
      <path id="TimesNewRomanPS-BoldMT-20" transform="scale(0.015625)"/>
      <path id="TimesNewRomanPS-BoldMT-28" d="M 2056 4334 
L 2056 4191 
Q 1731 3978 1578 3775 
Q 1366 3494 1247 3053 
Q 1097 2506 1097 1525 
Q 1097 600 1233 87 
Q 1369 -425 1603 -741 
Q 1766 -959 2056 -1125 
L 2056 -1281 
Q 1303 -1028 779 -248 
Q 256 531 256 1544 
Q 256 2544 778 3314 
Q 1300 4084 2056 4334 
z
" transform="scale(0.015625)"/>
      <path id="TimesNewRomanPS-BoldMT-54" d="M 4038 4238 
L 4038 3091 
L 3925 3091 
Q 3825 3488 3703 3661 
Q 3581 3834 3369 3938 
Q 3250 3994 2953 3994 
L 2638 3994 
L 2638 725 
Q 2638 400 2673 319 
Q 2709 238 2814 177 
Q 2919 116 3100 116 
L 3241 116 
L 3241 0 
L 1022 0 
L 1022 116 
L 1163 116 
Q 1347 116 1459 181 
Q 1541 225 1588 331 
Q 1622 406 1622 725 
L 1622 3994 
L 1316 3994 
Q 888 3994 694 3813 
Q 422 3559 350 3091 
L 231 3091 
L 231 4238 
L 4038 4238 
z
" transform="scale(0.015625)"/>
      <path id="TimesNewRomanPS-BoldMT-6f" d="M 1594 3009 
Q 1975 3009 2303 2812 
Q 2631 2616 2801 2253 
Q 2972 1891 2972 1459 
Q 2972 838 2656 419 
Q 2275 -88 1603 -88 
Q 944 -88 587 375 
Q 231 838 231 1447 
Q 231 2075 595 2542 
Q 959 3009 1594 3009 
z
M 1606 2788 
Q 1447 2788 1333 2667 
Q 1219 2547 1183 2192 
Q 1147 1838 1147 1206 
Q 1147 872 1191 581 
Q 1225 359 1337 243 
Q 1450 128 1594 128 
Q 1734 128 1828 206 
Q 1950 313 1991 503 
Q 2053 800 2053 1703 
Q 2053 2234 1993 2432 
Q 1934 2631 1819 2722 
Q 1738 2788 1606 2788 
z
" transform="scale(0.015625)"/>
      <path id="TimesNewRomanPS-BoldMT-6e" d="M 1409 2922 
L 1409 2544 
Q 1634 2788 1840 2898 
Q 2047 3009 2284 3009 
Q 2569 3009 2756 2851 
Q 2944 2694 3006 2459 
Q 3056 2281 3056 1775 
L 3056 638 
Q 3056 300 3117 217 
Q 3178 134 3372 113 
L 3372 0 
L 1894 0 
L 1894 113 
Q 2059 134 2131 250 
Q 2181 328 2181 638 
L 2181 1938 
Q 2181 2297 2153 2390 
Q 2125 2484 2058 2536 
Q 1991 2588 1909 2588 
Q 1641 2588 1409 2203 
L 1409 638 
Q 1409 309 1470 221 
Q 1531 134 1697 113 
L 1697 0 
L 219 0 
L 219 113 
Q 403 131 481 231 
Q 534 300 534 638 
L 534 2288 
Q 534 2619 473 2700 
Q 413 2781 219 2806 
L 219 2922 
L 1409 2922 
z
" transform="scale(0.015625)"/>
      <path id="TimesNewRomanPS-BoldMT-6b" d="M 1403 4238 
L 1403 1450 
L 2081 2116 
Q 2291 2319 2342 2409 
Q 2394 2500 2394 2584 
Q 2394 2669 2325 2725 
Q 2256 2781 2056 2806 
L 2056 2922 
L 3366 2922 
L 3366 2806 
Q 3178 2797 3037 2717 
Q 2897 2638 2488 2238 
L 2169 1925 
L 2856 919 
Q 3272 306 3350 231 
Q 3456 125 3619 113 
L 3619 0 
L 2109 0 
L 2109 113 
Q 2209 113 2254 150 
Q 2300 188 2300 231 
Q 2300 303 2169 497 
L 1591 1344 
L 1403 1159 
L 1403 634 
Q 1403 300 1465 217 
Q 1528 134 1722 113 
L 1722 0 
L 213 0 
L 213 113 
Q 397 131 475 231 
Q 528 300 528 634 
L 528 3603 
Q 528 3934 467 4015 
Q 406 4097 213 4122 
L 213 4238 
L 1403 4238 
z
" transform="scale(0.015625)"/>
      <path id="TimesNewRomanPS-BoldMT-61" d="M 1828 431 
Q 1294 -41 869 -41 
Q 619 -41 453 123 
Q 288 288 288 534 
Q 288 869 575 1136 
Q 863 1403 1828 1847 
L 1828 2141 
Q 1828 2472 1792 2558 
Q 1756 2644 1656 2708 
Q 1556 2772 1431 2772 
Q 1228 2772 1097 2681 
Q 1016 2625 1016 2550 
Q 1016 2484 1103 2388 
Q 1222 2253 1222 2128 
Q 1222 1975 1108 1867 
Q 994 1759 809 1759 
Q 613 1759 480 1878 
Q 347 1997 347 2156 
Q 347 2381 525 2586 
Q 703 2791 1022 2900 
Q 1341 3009 1684 3009 
Q 2100 3009 2342 2832 
Q 2584 2656 2656 2450 
Q 2700 2319 2700 1847 
L 2700 713 
Q 2700 513 2715 461 
Q 2731 409 2762 384 
Q 2794 359 2834 359 
Q 2916 359 3000 475 
L 3094 400 
Q 2938 169 2770 64 
Q 2603 -41 2391 -41 
Q 2141 -41 2000 76 
Q 1859 194 1828 431 
z
M 1828 659 
L 1828 1638 
Q 1450 1416 1266 1163 
Q 1144 994 1144 822 
Q 1144 678 1247 569 
Q 1325 484 1466 484 
Q 1622 484 1828 659 
z
" transform="scale(0.015625)"/>
      <path id="TimesNewRomanPS-BoldMT-29" d="M 78 -1281 
L 78 -1138 
Q 403 -922 556 -719 
Q 766 -438 888 0 
Q 1038 550 1038 1531 
Q 1038 2456 902 2967 
Q 766 3478 531 3794 
Q 369 4013 78 4178 
L 78 4334 
Q 831 4081 1354 3301 
Q 1878 2522 1878 1509 
Q 1878 513 1354 -257 
Q 831 -1028 78 -1281 
z
" transform="scale(0.015625)"/>
     </defs>
     <use xlink:href="#TimesNewRomanPS-BoldMT-46"/>
     <use xlink:href="#TimesNewRomanPS-BoldMT-69" transform="translate(61.083984 0)"/>
     <use xlink:href="#TimesNewRomanPS-BoldMT-63" transform="translate(88.867188 0)"/>
     <use xlink:href="#TimesNewRomanPS-BoldMT-65" transform="translate(133.251953 0)"/>
     <use xlink:href="#TimesNewRomanPS-BoldMT-6c" transform="translate(177.636719 0)"/>
     <use xlink:href="#TimesNewRomanPS-BoldMT-6c" transform="translate(205.419922 0)"/>
     <use xlink:href="#TimesNewRomanPS-BoldMT-65" transform="translate(233.203125 0)"/>
     <use xlink:href="#TimesNewRomanPS-BoldMT-20" transform="translate(277.587891 0)"/>
     <use xlink:href="#TimesNewRomanPS-BoldMT-28" transform="translate(302.587891 0)"/>
     <use xlink:href="#TimesNewRomanPS-BoldMT-54" transform="translate(335.888672 0)"/>
     <use xlink:href="#TimesNewRomanPS-BoldMT-6f" transform="translate(393.462891 0)"/>
     <use xlink:href="#TimesNewRomanPS-BoldMT-6e" transform="translate(443.462891 0)"/>
     <use xlink:href="#TimesNewRomanPS-BoldMT-6b" transform="translate(499.078125 0)"/>
     <use xlink:href="#TimesNewRomanPS-BoldMT-65" transform="translate(554.693359 0)"/>
     <use xlink:href="#TimesNewRomanPS-BoldMT-61" transform="translate(599.078125 0)"/>
     <use xlink:href="#TimesNewRomanPS-BoldMT-6e" transform="translate(649.078125 0)"/>
     <use xlink:href="#TimesNewRomanPS-BoldMT-29" transform="translate(704.693359 0)"/>
    </g>
   </g>
   <g id="legend_1">
    <g id="patch_7">
     <path d="M 47.79 94.67625 
L 133.686875 94.67625 
Q 135.686875 94.67625 135.686875 92.67625 
L 135.686875 37.12 
Q 135.686875 35.12 133.686875 35.12 
L 47.79 35.12 
Q 45.79 35.12 45.79 37.12 
L 45.79 92.67625 
Q 45.79 94.67625 47.79 94.67625 
z
" style="fill: #ffffff; opacity: 0.8; stroke: #cccccc; stroke-linejoin: miter"/>
    </g>
    <g id="patch_8">
     <path d="M 49.79 46.12 
L 69.79 46.12 
L 69.79 39.12 
L 49.79 39.12 
z
" style="fill: #5386b6"/>
    </g>
    <g id="text_15">
     <!-- Success -->
     <g transform="translate(77.79 46.12) scale(0.1 -0.1)">
      <use xlink:href="#TimesNewRomanPSMT-53"/>
      <use xlink:href="#TimesNewRomanPSMT-75" transform="translate(55.615234 0)"/>
      <use xlink:href="#TimesNewRomanPSMT-63" transform="translate(105.615234 0)"/>
      <use xlink:href="#TimesNewRomanPSMT-63" transform="translate(150 0)"/>
      <use xlink:href="#TimesNewRomanPSMT-65" transform="translate(194.384766 0)"/>
      <use xlink:href="#TimesNewRomanPSMT-73" transform="translate(238.769531 0)"/>
      <use xlink:href="#TimesNewRomanPSMT-73" transform="translate(277.685547 0)"/>
     </g>
    </g>
    <g id="patch_9">
     <path d="M 49.79 60.259063 
L 69.79 60.259063 
L 69.79 53.259063 
L 49.79 53.259063 
z
" style="fill: #d57459"/>
    </g>
    <g id="text_16">
     <!-- Error -->
     <g transform="translate(77.79 60.259063) scale(0.1 -0.1)">
      <defs>
       <path id="TimesNewRomanPSMT-45" d="M 1338 4006 
L 1338 2331 
L 2269 2331 
Q 2631 2331 2753 2441 
Q 2916 2584 2934 2947 
L 3050 2947 
L 3050 1472 
L 2934 1472 
Q 2891 1781 2847 1869 
Q 2791 1978 2662 2040 
Q 2534 2103 2269 2103 
L 1338 2103 
L 1338 706 
Q 1338 425 1363 364 
Q 1388 303 1450 267 
Q 1513 231 1688 231 
L 2406 231 
Q 2766 231 2928 281 
Q 3091 331 3241 478 
Q 3434 672 3638 1063 
L 3763 1063 
L 3397 0 
L 131 0 
L 131 116 
L 281 116 
Q 431 116 566 188 
Q 666 238 702 338 
Q 738 438 738 747 
L 738 3500 
Q 738 3903 656 3997 
Q 544 4122 281 4122 
L 131 4122 
L 131 4238 
L 3397 4238 
L 3444 3309 
L 3322 3309 
Q 3256 3644 3176 3769 
Q 3097 3894 2941 3959 
Q 2816 4006 2500 4006 
L 1338 4006 
z
" transform="scale(0.015625)"/>
      </defs>
      <use xlink:href="#TimesNewRomanPSMT-45"/>
      <use xlink:href="#TimesNewRomanPSMT-72" transform="translate(61.083984 0)"/>
      <use xlink:href="#TimesNewRomanPSMT-72" transform="translate(94.384766 0)"/>
      <use xlink:href="#TimesNewRomanPSMT-6f" transform="translate(127.685547 0)"/>
      <use xlink:href="#TimesNewRomanPSMT-72" transform="translate(177.685547 0)"/>
     </g>
    </g>
    <g id="patch_10">
     <path d="M 49.79 74.398125 
L 69.79 74.398125 
L 69.79 67.398125 
L 49.79 67.398125 
z
" style="fill: #e8bc60"/>
    </g>
    <g id="text_17">
     <!-- Premature -->
     <g transform="translate(77.79 74.398125) scale(0.1 -0.1)">
      <defs>
       <path id="TimesNewRomanPSMT-6d" d="M 1050 2338 
Q 1363 2650 1419 2697 
Q 1559 2816 1721 2881 
Q 1884 2947 2044 2947 
Q 2313 2947 2506 2790 
Q 2700 2634 2766 2338 
Q 3088 2713 3309 2830 
Q 3531 2947 3766 2947 
Q 3994 2947 4170 2830 
Q 4347 2713 4450 2447 
Q 4519 2266 4519 1878 
L 4519 647 
Q 4519 378 4559 278 
Q 4591 209 4675 161 
Q 4759 113 4950 113 
L 4950 0 
L 3538 0 
L 3538 113 
L 3597 113 
Q 3781 113 3884 184 
Q 3956 234 3988 344 
Q 4000 397 4000 647 
L 4000 1878 
Q 4000 2228 3916 2372 
Q 3794 2572 3525 2572 
Q 3359 2572 3192 2489 
Q 3025 2406 2788 2181 
L 2781 2147 
L 2788 2013 
L 2788 647 
Q 2788 353 2820 281 
Q 2853 209 2943 161 
Q 3034 113 3253 113 
L 3253 0 
L 1806 0 
L 1806 113 
Q 2044 113 2133 169 
Q 2222 225 2256 338 
Q 2272 391 2272 647 
L 2272 1878 
Q 2272 2228 2169 2381 
Q 2031 2581 1784 2581 
Q 1616 2581 1450 2491 
Q 1191 2353 1050 2181 
L 1050 647 
Q 1050 366 1089 281 
Q 1128 197 1204 155 
Q 1281 113 1516 113 
L 1516 0 
L 100 0 
L 100 113 
Q 297 113 375 155 
Q 453 197 493 289 
Q 534 381 534 647 
L 534 1741 
Q 534 2213 506 2350 
Q 484 2453 437 2492 
Q 391 2531 309 2531 
Q 222 2531 100 2484 
L 53 2597 
L 916 2947 
L 1050 2947 
L 1050 2338 
z
" transform="scale(0.015625)"/>
      </defs>
      <use xlink:href="#TimesNewRomanPSMT-50"/>
      <use xlink:href="#TimesNewRomanPSMT-72" transform="translate(55.615234 0)"/>
      <use xlink:href="#TimesNewRomanPSMT-65" transform="translate(88.916016 0)"/>
      <use xlink:href="#TimesNewRomanPSMT-6d" transform="translate(133.300781 0)"/>
      <use xlink:href="#TimesNewRomanPSMT-61" transform="translate(211.083984 0)"/>
      <use xlink:href="#TimesNewRomanPSMT-74" transform="translate(255.46875 0)"/>
      <use xlink:href="#TimesNewRomanPSMT-75" transform="translate(283.251953 0)"/>
      <use xlink:href="#TimesNewRomanPSMT-72" transform="translate(333.251953 0)"/>
      <use xlink:href="#TimesNewRomanPSMT-65" transform="translate(366.552734 0)"/>
     </g>
    </g>
    <g id="patch_11">
     <path d="M 49.79 88.537188 
L 69.79 88.537188 
L 69.79 81.537188 
L 49.79 81.537188 
z
" style="fill: #8d5993"/>
    </g>
    <g id="text_18">
     <!-- Stepomission -->
     <g transform="translate(77.79 88.537188) scale(0.1 -0.1)">
      <use xlink:href="#TimesNewRomanPSMT-53"/>
      <use xlink:href="#TimesNewRomanPSMT-74" transform="translate(55.615234 0)"/>
      <use xlink:href="#TimesNewRomanPSMT-65" transform="translate(83.398438 0)"/>
      <use xlink:href="#TimesNewRomanPSMT-70" transform="translate(127.783203 0)"/>
      <use xlink:href="#TimesNewRomanPSMT-6f" transform="translate(177.783203 0)"/>
      <use xlink:href="#TimesNewRomanPSMT-6d" transform="translate(227.783203 0)"/>
      <use xlink:href="#TimesNewRomanPSMT-69" transform="translate(305.566406 0)"/>
      <use xlink:href="#TimesNewRomanPSMT-73" transform="translate(333.349609 0)"/>
      <use xlink:href="#TimesNewRomanPSMT-73" transform="translate(372.265625 0)"/>
      <use xlink:href="#TimesNewRomanPSMT-69" transform="translate(411.181641 0)"/>
      <use xlink:href="#TimesNewRomanPSMT-6f" transform="translate(438.964844 0)"/>
      <use xlink:href="#TimesNewRomanPSMT-6e" transform="translate(488.964844 0)"/>
     </g>
    </g>
   </g>
  </g>
 </g>
 <defs>
  <clipPath id="pac2283fee2">
   <rect x="40.79" y="30.12" width="625.285" height="501.4"/>
  </clipPath>
 </defs>
</svg>
