<?xml version="1.0" encoding="utf-8" standalone="no"?>
<!DOCTYPE svg PUBLIC "-//W3C//DTD SVG 1.1//EN"
  "http://www.w3.org/Graphics/SVG/1.1/DTD/svg11.dtd">
<svg xmlns:xlink="http://www.w3.org/1999/xlink" width="720pt" height="576pt" viewBox="0 0 720 576" xmlns="http://www.w3.org/2000/svg" version="1.1">
 <metadata>
  <rdf:RDF xmlns:dc="http://purl.org/dc/elements/1.1/" xmlns:cc="http://creativecommons.org/ns#" xmlns:rdf="http://www.w3.org/1999/02/22-rdf-syntax-ns#">
   <cc:Work>
    <dc:type rdf:resource="http://purl.org/dc/dcmitype/StillImage"/>
    <dc:date>2025-06-27T15:15:29.706100</dc:date>
    <dc:format>image/svg+xml</dc:format>
    <dc:creator>
     <cc:Agent>
      <dc:title>Matplotlib v3.10.3, https://matplotlib.org/</dc:title>
     </cc:Agent>
    </dc:creator>
   </cc:Work>
  </rdf:RDF>
 </metadata>
 <defs>
  <style type="text/css">*{stroke-linejoin: round; stroke-linecap: butt}</style>
 </defs>
 <g id="figure_1">
  <g id="patch_1">
   <path d="M 0 576 
L 720 576 
L 720 0 
L 0 0 
z
" style="fill: #ffffff"/>
  </g>
  <g id="axes_1">
   <g id="patch_2">
    <path d="M 40.79 531.52 
L 670.522826 531.52 
L 670.522826 30.12 
L 40.79 30.12 
z
" style="fill: #ffffff"/>
   </g>
   <g id="FillBetweenPolyCollection_1">
    <path d="M 40.79 280.82 
L 40.79 531.52 
L 43.071641 531.52 
L 45.353281 531.52 
L 47.634922 531.52 
L 49.916563 531.52 
L 52.198203 531.52 
L 54.479844 531.52 
L 56.761485 531.52 
L 59.043125 531.52 
L 61.324766 531.52 
L 63.606407 531.52 
L 65.888047 531.52 
L 68.169688 531.52 
L 70.451329 531.52 
L 72.732969 531.52 
L 75.01461 531.52 
L 77.296251 531.52 
L 79.577891 531.52 
L 81.859532 531.52 
L 84.141173 531.52 
L 86.422813 531.52 
L 88.704454 531.52 
L 90.986095 531.52 
L 93.267736 531.52 
L 95.549376 531.52 
L 97.831017 531.52 
L 100.112658 531.52 
L 102.394298 531.52 
L 104.675939 531.52 
L 106.95758 531.52 
L 109.23922 531.52 
L 111.520861 531.52 
L 113.802502 531.52 
L 116.084142 531.52 
L 118.365783 531.52 
L 120.647424 531.52 
L 122.929064 531.52 
L 125.210705 531.52 
L 127.492346 531.52 
L 129.773986 531.52 
L 132.055627 531.52 
L 134.337268 531.52 
L 136.618908 531.52 
L 138.900549 531.52 
L 141.18219 531.52 
L 143.46383 531.52 
L 145.745471 531.52 
L 148.027112 531.52 
L 150.308752 531.52 
L 152.590393 531.52 
L 154.872034 531.52 
L 157.153674 531.52 
L 159.435315 531.52 
L 161.716956 531.52 
L 163.998596 531.52 
L 166.280237 531.52 
L 168.561878 531.52 
L 170.843518 531.52 
L 173.125159 531.52 
L 175.4068 531.52 
L 177.68844 531.52 
L 179.970081 531.52 
L 182.251722 531.52 
L 184.533362 531.52 
L 186.815003 531.52 
L 189.096644 531.52 
L 191.378284 531.52 
L 193.659925 531.52 
L 195.941566 531.52 
L 198.223207 531.52 
L 200.504847 531.52 
L 202.786488 531.52 
L 205.068129 531.52 
L 207.349769 531.52 
L 209.63141 531.52 
L 211.913051 531.52 
L 214.194691 531.52 
L 216.476332 531.52 
L 218.757973 531.52 
L 221.039613 531.52 
L 223.321254 531.52 
L 225.602895 531.52 
L 227.884535 531.52 
L 230.166176 531.52 
L 232.447817 531.52 
L 234.729457 531.52 
L 237.011098 531.52 
L 239.292739 531.52 
L 241.574379 531.52 
L 243.85602 531.52 
L 246.137661 531.52 
L 248.419301 531.52 
L 250.700942 531.52 
L 252.982583 531.52 
L 255.264223 531.52 
L 257.545864 531.52 
L 259.827505 531.52 
L 262.109145 531.52 
L 264.390786 531.52 
L 266.672427 531.52 
L 268.954067 531.52 
L 271.235708 531.52 
L 273.517349 531.52 
L 275.798989 531.52 
L 278.08063 531.52 
L 280.362271 531.52 
L 282.643911 531.52 
L 284.925552 531.52 
L 287.207193 531.52 
L 289.488833 531.52 
L 291.770474 531.52 
L 294.052115 531.52 
L 296.333756 531.52 
L 298.615396 531.52 
L 300.897037 531.52 
L 303.178678 531.52 
L 305.460318 531.52 
L 307.741959 531.52 
L 310.0236 531.52 
L 312.30524 531.52 
L 314.586881 531.52 
L 316.868522 531.52 
L 319.150162 531.52 
L 321.431803 531.52 
L 323.713444 531.52 
L 325.995084 531.52 
L 328.276725 531.52 
L 330.558366 531.52 
L 332.840006 531.52 
L 335.121647 531.52 
L 337.403288 531.52 
L 339.684928 531.52 
L 341.966569 531.52 
L 344.24821 531.52 
L 346.52985 531.52 
L 348.811491 531.52 
L 351.093132 531.52 
L 353.374772 531.52 
L 355.656413 531.52 
L 357.938054 531.52 
L 360.219694 531.52 
L 362.501335 531.52 
L 364.782976 531.52 
L 367.064616 531.52 
L 369.346257 531.52 
L 371.627898 531.52 
L 373.909538 531.52 
L 376.191179 531.52 
L 378.47282 531.52 
L 380.75446 531.52 
L 383.036101 531.52 
L 385.317742 531.52 
L 387.599382 531.52 
L 389.881023 531.52 
L 392.162664 531.52 
L 394.444305 531.52 
L 396.725945 531.52 
L 399.007586 531.52 
L 401.289227 531.52 
L 403.570867 531.52 
L 405.852508 531.52 
L 408.134149 531.52 
L 410.415789 531.52 
L 412.69743 531.52 
L 414.979071 531.52 
L 417.260711 531.52 
L 419.542352 531.52 
L 421.823993 531.52 
L 424.105633 531.52 
L 426.387274 531.52 
L 428.668915 531.52 
L 430.950555 531.52 
L 433.232196 531.52 
L 435.513837 531.52 
L 437.795477 531.52 
L 440.077118 531.52 
L 442.358759 531.52 
L 444.640399 531.52 
L 446.92204 531.52 
L 449.203681 531.52 
L 451.485321 531.52 
L 453.766962 531.52 
L 456.048603 531.52 
L 458.330243 531.52 
L 460.611884 531.52 
L 462.893525 531.52 
L 465.175165 531.52 
L 467.456806 531.52 
L 469.738447 531.52 
L 472.020087 531.52 
L 474.301728 531.52 
L 476.583369 531.52 
L 478.865009 531.52 
L 481.14665 531.52 
L 483.428291 531.52 
L 485.709931 531.52 
L 487.991572 531.52 
L 490.273213 531.52 
L 492.554853 531.52 
L 494.836494 531.52 
L 497.118135 531.52 
L 499.399776 531.52 
L 501.681416 531.52 
L 503.963057 531.52 
L 506.244698 531.52 
L 508.526338 531.52 
L 510.807979 531.52 
L 513.08962 531.52 
L 515.37126 531.52 
L 517.652901 531.52 
L 519.934542 531.52 
L 522.216182 531.52 
L 524.497823 531.52 
L 526.779464 531.52 
L 529.061104 531.52 
L 531.342745 531.52 
L 533.624386 531.52 
L 535.906026 531.52 
L 538.187667 531.52 
L 540.469308 531.52 
L 542.750948 531.52 
L 545.032589 531.52 
L 547.31423 531.52 
L 549.59587 531.52 
L 551.877511 531.52 
L 554.159152 531.52 
L 556.440792 531.52 
L 558.722433 531.52 
L 561.004074 531.52 
L 563.285714 531.52 
L 565.567355 531.52 
L 567.848996 531.52 
L 570.130636 531.52 
L 572.412277 531.52 
L 574.693918 531.52 
L 576.975558 531.52 
L 579.257199 531.52 
L 581.53884 531.52 
L 583.82048 531.52 
L 586.102121 531.52 
L 588.383762 531.52 
L 590.665402 531.52 
L 592.947043 531.52 
L 595.228684 531.52 
L 597.510325 531.52 
L 599.791965 531.52 
L 602.073606 531.52 
L 604.355247 531.52 
L 606.636887 531.52 
L 608.918528 531.52 
L 611.200169 531.52 
L 613.481809 531.52 
L 615.76345 531.52 
L 618.045091 531.52 
L 620.326731 531.52 
L 622.608372 531.52 
L 624.890013 531.52 
L 627.171653 531.52 
L 629.453294 531.52 
L 631.734935 531.52 
L 634.016575 531.52 
L 636.298216 531.52 
L 638.579857 531.52 
L 640.861497 531.52 
L 643.143138 531.52 
L 645.424779 531.52 
L 647.706419 531.52 
L 649.98806 531.52 
L 652.269701 531.52 
L 654.551341 531.52 
L 656.832982 531.52 
L 659.114623 531.52 
L 661.396263 531.52 
L 663.677904 531.52 
L 665.959545 531.52 
L 668.241185 531.52 
L 670.522826 531.52 
L 670.522826 30.12 
L 670.522826 30.12 
L 668.241185 245.005714 
L 665.959545 531.52 
L 663.677904 30.12 
L 661.396263 30.12 
L 659.114623 30.12 
L 656.832982 30.12 
L 654.551341 30.12 
L 652.269701 30.12 
L 649.98806 531.52 
L 647.706419 30.12 
L 645.424779 30.12 
L 643.143138 30.12 
L 640.861497 30.12 
L 638.579857 30.12 
L 636.298216 105.33 
L 634.016575 197.253333 
L 631.734935 30.12 
L 629.453294 30.12 
L 627.171653 197.253333 
L 624.890013 197.253333 
L 622.608372 155.47 
L 620.326731 30.12 
L 618.045091 30.12 
L 615.76345 30.12 
L 613.481809 30.12 
L 611.200169 531.52 
L 608.918528 531.52 
L 606.636887 30.12 
L 604.355247 30.12 
L 602.073606 101.748571 
L 599.791965 30.12 
L 597.510325 30.12 
L 595.228684 212.447273 
L 592.947043 197.253333 
L 590.665402 121.283636 
L 588.383762 531.52 
L 586.102121 30.12 
L 583.82048 280.82 
L 581.53884 197.253333 
L 579.257199 280.82 
L 576.975558 30.12 
L 574.693918 280.82 
L 572.412277 30.12 
L 570.130636 30.12 
L 567.848996 30.12 
L 565.567355 197.253333 
L 563.285714 531.52 
L 561.004074 280.82 
L 558.722433 30.12 
L 556.440792 531.52 
L 554.159152 308.675556 
L 551.877511 30.12 
L 549.59587 531.52 
L 547.31423 155.47 
L 545.032589 155.47 
L 542.750948 130.4 
L 540.469308 30.12 
L 538.187667 30.12 
L 535.906026 30.12 
L 533.624386 531.52 
L 531.342745 30.12 
L 529.061104 531.52 
L 526.779464 30.12 
L 524.497823 30.12 
L 522.216182 30.12 
L 519.934542 30.12 
L 517.652901 30.12 
L 515.37126 230.68 
L 513.08962 280.82 
L 510.807979 280.82 
L 508.526338 197.253333 
L 506.244698 30.12 
L 503.963057 531.52 
L 501.681416 197.253333 
L 499.399776 280.82 
L 497.118135 30.12 
L 494.836494 30.12 
L 492.554853 30.12 
L 490.273213 101.748571 
L 487.991572 30.12 
L 485.709931 280.82 
L 483.428291 30.12 
L 481.14665 197.253333 
L 478.865009 531.52 
L 476.583369 30.12 
L 474.301728 30.12 
L 472.020087 280.82 
L 469.738447 280.82 
L 467.456806 30.12 
L 465.175165 280.82 
L 462.893525 30.12 
L 460.611884 531.52 
L 458.330243 130.4 
L 456.048603 280.82 
L 453.766962 130.4 
L 451.485321 197.253333 
L 449.203681 280.82 
L 446.92204 30.12 
L 444.640399 30.12 
L 442.358759 121.283636 
L 440.077118 30.12 
L 437.795477 280.82 
L 435.513837 30.12 
L 433.232196 30.12 
L 430.950555 30.12 
L 428.668915 30.12 
L 426.387274 173.377143 
L 424.105633 197.253333 
L 421.823993 101.748571 
L 419.542352 531.52 
L 417.260711 30.12 
L 414.979071 531.52 
L 412.69743 30.12 
L 410.415789 30.12 
L 408.134149 531.52 
L 405.852508 531.52 
L 403.570867 531.52 
L 401.289227 89.108235 
L 399.007586 531.52 
L 396.725945 145.827692 
L 394.444305 30.12 
L 392.162664 280.82 
L 389.881023 30.12 
L 387.599382 130.4 
L 385.317742 30.12 
L 383.036101 531.52 
L 380.75446 531.52 
L 378.47282 531.52 
L 376.191179 531.52 
L 373.909538 531.52 
L 371.627898 364.386667 
L 369.346257 531.52 
L 367.064616 30.12 
L 364.782976 30.12 
L 362.501335 155.47 
L 360.219694 531.52 
L 357.938054 197.253333 
L 355.656413 30.12 
L 353.374772 30.12 
L 351.093132 30.12 
L 348.811491 30.12 
L 346.52985 30.12 
L 344.24821 30.12 
L 341.966569 30.12 
L 339.684928 197.253333 
L 337.403288 230.68 
L 335.121647 531.52 
L 332.840006 197.253333 
L 330.558366 30.12 
L 328.276725 30.12 
L 325.995084 531.52 
L 323.713444 30.12 
L 321.431803 531.52 
L 319.150162 155.47 
L 316.868522 30.12 
L 314.586881 30.12 
L 312.30524 280.82 
L 310.0236 107.258462 
L 307.741959 113.686667 
L 305.460318 104.401481 
L 303.178678 280.82 
L 300.897037 30.12 
L 298.615396 169.397778 
L 296.333756 531.52 
L 294.052115 308.675556 
L 291.770474 180.54 
L 289.488833 239.036667 
L 287.207193 202.242388 
L 284.925552 150.456 
L 282.643911 173.377143 
L 280.362271 197.253333 
L 278.08063 177.590588 
L 275.798989 531.52 
L 273.517349 531.52 
L 271.235708 258.029091 
L 268.954067 531.52 
L 266.672427 230.68 
L 264.390786 141.542222 
L 262.109145 155.47 
L 259.827505 130.4 
L 257.545864 197.253333 
L 255.264223 166.865455 
L 252.982583 141.542222 
L 250.700942 218.145 
L 248.419301 280.82 
L 246.137661 266.072941 
L 243.85602 218.145 
L 241.574379 30.12 
L 239.292739 343.495 
L 237.011098 531.52 
L 234.729457 173.377143 
L 232.447817 280.82 
L 230.166176 280.82 
L 227.884535 238.017561 
L 225.602895 184.396923 
L 223.321254 280.82 
L 221.039613 218.145 
L 218.757973 316.634286 
L 216.476332 261.535385 
L 214.194691 230.68 
L 211.913051 197.253333 
L 209.63141 280.82 
L 207.349769 197.253333 
L 205.068129 336.531111 
L 202.786488 280.82 
L 200.504847 531.52 
L 198.223207 197.253333 
L 195.941566 130.4 
L 193.659925 312.1575 
L 191.378284 218.145 
L 189.096644 531.52 
L 186.815003 230.68 
L 184.533362 531.52 
L 182.251722 255.75 
L 179.970081 218.145 
L 177.68844 155.47 
L 175.4068 30.12 
L 173.125159 305.89 
L 170.843518 531.52 
L 168.561878 197.253333 
L 166.280237 30.12 
L 163.998596 364.386667 
L 161.716956 531.52 
L 159.435315 531.52 
L 157.153674 377.243077 
L 154.872034 338.673846 
L 152.590393 280.82 
L 150.308752 447.953333 
L 148.027112 531.52 
L 145.745471 264.106667 
L 143.46383 230.68 
L 141.18219 352.448571 
L 138.900549 531.52 
L 136.618908 406.17 
L 134.337268 280.82 
L 132.055627 230.68 
L 129.773986 531.52 
L 127.492346 364.386667 
L 125.210705 230.68 
L 122.929064 406.17 
L 120.647424 531.52 
L 118.365783 364.386667 
L 116.084142 280.82 
L 113.802502 30.12 
L 111.520861 531.52 
L 109.23922 531.52 
L 106.95758 406.17 
L 104.675939 388.262857 
L 102.394298 30.12 
L 100.112658 364.386667 
L 97.831017 230.68 
L 95.549376 349.192727 
L 93.267736 406.17 
L 90.986095 30.12 
L 88.704454 531.52 
L 86.422813 485.938182 
L 84.141173 338.673846 
L 81.859532 197.253333 
L 79.577891 531.52 
L 77.296251 226.32 
L 75.01461 475.808889 
L 72.732969 468.845 
L 70.451329 531.52 
L 68.169688 420.097778 
L 65.888047 258.029091 
L 63.606407 531.52 
L 61.324766 406.17 
L 59.043125 230.68 
L 56.761485 531.52 
L 54.479844 294.014737 
L 52.198203 280.82 
L 49.916563 297.533333 
L 47.634922 394.774545 
L 45.353281 378.92 
L 43.071641 280.82 
L 40.79 280.82 
z
" clip-path="url(#p004e137e40)" style="fill: #5386b6"/>
   </g>
   <g id="FillBetweenPolyCollection_2">
    <path d="M 40.79 30.12 
L 40.79 280.82 
L 43.071641 280.82 
L 45.353281 378.92 
L 47.634922 394.774545 
L 49.916563 297.533333 
L 52.198203 280.82 
L 54.479844 294.014737 
L 56.761485 531.52 
L 59.043125 230.68 
L 61.324766 406.17 
L 63.606407 531.52 
L 65.888047 258.029091 
L 68.169688 420.097778 
L 70.451329 531.52 
L 72.732969 468.845 
L 75.01461 475.808889 
L 77.296251 226.32 
L 79.577891 531.52 
L 81.859532 197.253333 
L 84.141173 338.673846 
L 86.422813 485.938182 
L 88.704454 531.52 
L 90.986095 30.12 
L 93.267736 406.17 
L 95.549376 349.192727 
L 97.831017 230.68 
L 100.112658 364.386667 
L 102.394298 30.12 
L 104.675939 388.262857 
L 106.95758 406.17 
L 109.23922 531.52 
L 111.520861 531.52 
L 113.802502 30.12 
L 116.084142 280.82 
L 118.365783 364.386667 
L 120.647424 531.52 
L 122.929064 406.17 
L 125.210705 230.68 
L 127.492346 364.386667 
L 129.773986 531.52 
L 132.055627 230.68 
L 134.337268 280.82 
L 136.618908 406.17 
L 138.900549 531.52 
L 141.18219 352.448571 
L 143.46383 230.68 
L 145.745471 264.106667 
L 148.027112 531.52 
L 150.308752 447.953333 
L 152.590393 280.82 
L 154.872034 338.673846 
L 157.153674 377.243077 
L 159.435315 531.52 
L 161.716956 531.52 
L 163.998596 364.386667 
L 166.280237 30.12 
L 168.561878 197.253333 
L 170.843518 531.52 
L 173.125159 305.89 
L 175.4068 30.12 
L 177.68844 155.47 
L 179.970081 218.145 
L 182.251722 255.75 
L 184.533362 531.52 
L 186.815003 230.68 
L 189.096644 531.52 
L 191.378284 218.145 
L 193.659925 312.1575 
L 195.941566 130.4 
L 198.223207 197.253333 
L 200.504847 531.52 
L 202.786488 280.82 
L 205.068129 336.531111 
L 207.349769 197.253333 
L 209.63141 280.82 
L 211.913051 197.253333 
L 214.194691 230.68 
L 216.476332 261.535385 
L 218.757973 316.634286 
L 221.039613 218.145 
L 223.321254 280.82 
L 225.602895 184.396923 
L 227.884535 238.017561 
L 230.166176 280.82 
L 232.447817 280.82 
L 234.729457 173.377143 
L 237.011098 531.52 
L 239.292739 343.495 
L 241.574379 30.12 
L 243.85602 218.145 
L 246.137661 266.072941 
L 248.419301 280.82 
L 250.700942 218.145 
L 252.982583 141.542222 
L 255.264223 166.865455 
L 257.545864 197.253333 
L 259.827505 130.4 
L 262.109145 155.47 
L 264.390786 141.542222 
L 266.672427 230.68 
L 268.954067 531.52 
L 271.235708 258.029091 
L 273.517349 531.52 
L 275.798989 531.52 
L 278.08063 177.590588 
L 280.362271 197.253333 
L 282.643911 173.377143 
L 284.925552 150.456 
L 287.207193 202.242388 
L 289.488833 239.036667 
L 291.770474 180.54 
L 294.052115 308.675556 
L 296.333756 531.52 
L 298.615396 169.397778 
L 300.897037 30.12 
L 303.178678 280.82 
L 305.460318 104.401481 
L 307.741959 113.686667 
L 310.0236 107.258462 
L 312.30524 280.82 
L 314.586881 30.12 
L 316.868522 30.12 
L 319.150162 155.47 
L 321.431803 531.52 
L 323.713444 30.12 
L 325.995084 531.52 
L 328.276725 30.12 
L 330.558366 30.12 
L 332.840006 197.253333 
L 335.121647 531.52 
L 337.403288 230.68 
L 339.684928 197.253333 
L 341.966569 30.12 
L 344.24821 30.12 
L 346.52985 30.12 
L 348.811491 30.12 
L 351.093132 30.12 
L 353.374772 30.12 
L 355.656413 30.12 
L 357.938054 197.253333 
L 360.219694 531.52 
L 362.501335 155.47 
L 364.782976 30.12 
L 367.064616 30.12 
L 369.346257 531.52 
L 371.627898 364.386667 
L 373.909538 531.52 
L 376.191179 531.52 
L 378.47282 531.52 
L 380.75446 531.52 
L 383.036101 531.52 
L 385.317742 30.12 
L 387.599382 130.4 
L 389.881023 30.12 
L 392.162664 280.82 
L 394.444305 30.12 
L 396.725945 145.827692 
L 399.007586 531.52 
L 401.289227 89.108235 
L 403.570867 531.52 
L 405.852508 531.52 
L 408.134149 531.52 
L 410.415789 30.12 
L 412.69743 30.12 
L 414.979071 531.52 
L 417.260711 30.12 
L 419.542352 531.52 
L 421.823993 101.748571 
L 424.105633 197.253333 
L 426.387274 173.377143 
L 428.668915 30.12 
L 430.950555 30.12 
L 433.232196 30.12 
L 435.513837 30.12 
L 437.795477 280.82 
L 440.077118 30.12 
L 442.358759 121.283636 
L 444.640399 30.12 
L 446.92204 30.12 
L 449.203681 280.82 
L 451.485321 197.253333 
L 453.766962 130.4 
L 456.048603 280.82 
L 458.330243 130.4 
L 460.611884 531.52 
L 462.893525 30.12 
L 465.175165 280.82 
L 467.456806 30.12 
L 469.738447 280.82 
L 472.020087 280.82 
L 474.301728 30.12 
L 476.583369 30.12 
L 478.865009 531.52 
L 481.14665 197.253333 
L 483.428291 30.12 
L 485.709931 280.82 
L 487.991572 30.12 
L 490.273213 101.748571 
L 492.554853 30.12 
L 494.836494 30.12 
L 497.118135 30.12 
L 499.399776 280.82 
L 501.681416 197.253333 
L 503.963057 531.52 
L 506.244698 30.12 
L 508.526338 197.253333 
L 510.807979 280.82 
L 513.08962 280.82 
L 515.37126 230.68 
L 517.652901 30.12 
L 519.934542 30.12 
L 522.216182 30.12 
L 524.497823 30.12 
L 526.779464 30.12 
L 529.061104 531.52 
L 531.342745 30.12 
L 533.624386 531.52 
L 535.906026 30.12 
L 538.187667 30.12 
L 540.469308 30.12 
L 542.750948 130.4 
L 545.032589 155.47 
L 547.31423 155.47 
L 549.59587 531.52 
L 551.877511 30.12 
L 554.159152 308.675556 
L 556.440792 531.52 
L 558.722433 30.12 
L 561.004074 280.82 
L 563.285714 531.52 
L 565.567355 197.253333 
L 567.848996 30.12 
L 570.130636 30.12 
L 572.412277 30.12 
L 574.693918 280.82 
L 576.975558 30.12 
L 579.257199 280.82 
L 581.53884 197.253333 
L 583.82048 280.82 
L 586.102121 30.12 
L 588.383762 531.52 
L 590.665402 121.283636 
L 592.947043 197.253333 
L 595.228684 212.447273 
L 597.510325 30.12 
L 599.791965 30.12 
L 602.073606 101.748571 
L 604.355247 30.12 
L 606.636887 30.12 
L 608.918528 531.52 
L 611.200169 531.52 
L 613.481809 30.12 
L 615.76345 30.12 
L 618.045091 30.12 
L 620.326731 30.12 
L 622.608372 155.47 
L 624.890013 197.253333 
L 627.171653 197.253333 
L 629.453294 30.12 
L 631.734935 30.12 
L 634.016575 197.253333 
L 636.298216 105.33 
L 638.579857 30.12 
L 640.861497 30.12 
L 643.143138 30.12 
L 645.424779 30.12 
L 647.706419 30.12 
L 649.98806 531.52 
L 652.269701 30.12 
L 654.551341 30.12 
L 656.832982 30.12 
L 659.114623 30.12 
L 661.396263 30.12 
L 663.677904 30.12 
L 665.959545 531.52 
L 668.241185 245.005714 
L 670.522826 30.12 
L 670.522826 30.12 
L 670.522826 30.12 
L 668.241185 30.12 
L 665.959545 30.12 
L 663.677904 30.12 
L 661.396263 30.12 
L 659.114623 30.12 
L 656.832982 30.12 
L 654.551341 30.12 
L 652.269701 30.12 
L 649.98806 30.12 
L 647.706419 30.12 
L 645.424779 30.12 
L 643.143138 30.12 
L 640.861497 30.12 
L 638.579857 30.12 
L 636.298216 30.12 
L 634.016575 30.12 
L 631.734935 30.12 
L 629.453294 30.12 
L 627.171653 30.12 
L 624.890013 30.12 
L 622.608372 30.12 
L 620.326731 30.12 
L 618.045091 30.12 
L 615.76345 30.12 
L 613.481809 30.12 
L 611.200169 30.12 
L 608.918528 30.12 
L 606.636887 30.12 
L 604.355247 30.12 
L 602.073606 30.12 
L 599.791965 30.12 
L 597.510325 30.12 
L 595.228684 30.12 
L 592.947043 30.12 
L 590.665402 30.12 
L 588.383762 30.12 
L 586.102121 30.12 
L 583.82048 30.12 
L 581.53884 30.12 
L 579.257199 30.12 
L 576.975558 30.12 
L 574.693918 30.12 
L 572.412277 30.12 
L 570.130636 30.12 
L 567.848996 30.12 
L 565.567355 30.12 
L 563.285714 30.12 
L 561.004074 30.12 
L 558.722433 30.12 
L 556.440792 30.12 
L 554.159152 30.12 
L 551.877511 30.12 
L 549.59587 30.12 
L 547.31423 30.12 
L 545.032589 30.12 
L 542.750948 30.12 
L 540.469308 30.12 
L 538.187667 30.12 
L 535.906026 30.12 
L 533.624386 30.12 
L 531.342745 30.12 
L 529.061104 30.12 
L 526.779464 30.12 
L 524.497823 30.12 
L 522.216182 30.12 
L 519.934542 30.12 
L 517.652901 30.12 
L 515.37126 30.12 
L 513.08962 30.12 
L 510.807979 30.12 
L 508.526338 30.12 
L 506.244698 30.12 
L 503.963057 30.12 
L 501.681416 197.253333 
L 499.399776 30.12 
L 497.118135 30.12 
L 494.836494 30.12 
L 492.554853 30.12 
L 490.273213 101.748571 
L 487.991572 30.12 
L 485.709931 30.12 
L 483.428291 30.12 
L 481.14665 30.12 
L 478.865009 30.12 
L 476.583369 30.12 
L 474.301728 30.12 
L 472.020087 30.12 
L 469.738447 30.12 
L 467.456806 30.12 
L 465.175165 30.12 
L 462.893525 30.12 
L 460.611884 531.52 
L 458.330243 30.12 
L 456.048603 30.12 
L 453.766962 30.12 
L 451.485321 30.12 
L 449.203681 30.12 
L 446.92204 30.12 
L 444.640399 30.12 
L 442.358759 30.12 
L 440.077118 30.12 
L 437.795477 30.12 
L 435.513837 30.12 
L 433.232196 30.12 
L 430.950555 30.12 
L 428.668915 30.12 
L 426.387274 30.12 
L 424.105633 197.253333 
L 421.823993 30.12 
L 419.542352 30.12 
L 417.260711 30.12 
L 414.979071 531.52 
L 412.69743 30.12 
L 410.415789 30.12 
L 408.134149 30.12 
L 405.852508 30.12 
L 403.570867 30.12 
L 401.289227 30.12 
L 399.007586 30.12 
L 396.725945 30.12 
L 394.444305 30.12 
L 392.162664 30.12 
L 389.881023 30.12 
L 387.599382 30.12 
L 385.317742 30.12 
L 383.036101 531.52 
L 380.75446 30.12 
L 378.47282 531.52 
L 376.191179 531.52 
L 373.909538 531.52 
L 371.627898 30.12 
L 369.346257 531.52 
L 367.064616 30.12 
L 364.782976 30.12 
L 362.501335 30.12 
L 360.219694 531.52 
L 357.938054 30.12 
L 355.656413 30.12 
L 353.374772 30.12 
L 351.093132 30.12 
L 348.811491 30.12 
L 346.52985 30.12 
L 344.24821 30.12 
L 341.966569 30.12 
L 339.684928 30.12 
L 337.403288 30.12 
L 335.121647 30.12 
L 332.840006 30.12 
L 330.558366 30.12 
L 328.276725 30.12 
L 325.995084 30.12 
L 323.713444 30.12 
L 321.431803 30.12 
L 319.150162 30.12 
L 316.868522 30.12 
L 314.586881 30.12 
L 312.30524 155.47 
L 310.0236 30.12 
L 307.741959 30.12 
L 305.460318 30.12 
L 303.178678 113.686667 
L 300.897037 30.12 
L 298.615396 30.12 
L 296.333756 30.12 
L 294.052115 30.12 
L 291.770474 80.26 
L 289.488833 30.12 
L 287.207193 37.603582 
L 284.925552 30.12 
L 282.643911 30.12 
L 280.362271 30.12 
L 278.08063 30.12 
L 275.798989 30.12 
L 273.517349 531.52 
L 271.235708 30.12 
L 268.954067 30.12 
L 266.672427 30.12 
L 264.390786 30.12 
L 262.109145 155.47 
L 259.827505 30.12 
L 257.545864 30.12 
L 255.264223 30.12 
L 252.982583 30.12 
L 250.700942 42.655 
L 248.419301 30.12 
L 246.137661 30.12 
L 243.85602 30.12 
L 241.574379 30.12 
L 239.292739 30.12 
L 237.011098 30.12 
L 234.729457 30.12 
L 232.447817 30.12 
L 230.166176 30.12 
L 227.884535 42.349268 
L 225.602895 68.689231 
L 223.321254 30.12 
L 221.039613 61.4575 
L 218.757973 30.12 
L 216.476332 87.973846 
L 214.194691 30.12 
L 211.913051 30.12 
L 209.63141 30.12 
L 207.349769 71.903333 
L 205.068129 85.831111 
L 202.786488 30.12 
L 200.504847 531.52 
L 198.223207 30.12 
L 195.941566 30.12 
L 193.659925 30.12 
L 191.378284 155.47 
L 189.096644 30.12 
L 186.815003 30.12 
L 184.533362 30.12 
L 182.251722 30.12 
L 179.970081 30.12 
L 177.68844 30.12 
L 175.4068 30.12 
L 173.125159 55.19 
L 170.843518 30.12 
L 168.561878 30.12 
L 166.280237 30.12 
L 163.998596 30.12 
L 161.716956 30.12 
L 159.435315 30.12 
L 157.153674 42.97641 
L 154.872034 30.12 
L 152.590393 30.12 
L 150.308752 30.12 
L 148.027112 30.12 
L 145.745471 30.12 
L 143.46383 30.12 
L 141.18219 101.748571 
L 138.900549 30.12 
L 136.618908 30.12 
L 134.337268 30.12 
L 132.055627 30.12 
L 129.773986 197.253333 
L 127.492346 30.12 
L 125.210705 130.4 
L 122.929064 30.12 
L 120.647424 30.12 
L 118.365783 30.12 
L 116.084142 30.12 
L 113.802502 30.12 
L 111.520861 30.12 
L 109.23922 30.12 
L 106.95758 30.12 
L 104.675939 30.12 
L 102.394298 30.12 
L 100.112658 30.12 
L 97.831017 30.12 
L 95.549376 52.910909 
L 93.267736 30.12 
L 90.986095 30.12 
L 88.704454 30.12 
L 86.422813 30.12 
L 84.141173 30.12 
L 81.859532 30.12 
L 79.577891 30.12 
L 77.296251 30.12 
L 75.01461 30.12 
L 72.732969 30.12 
L 70.451329 30.12 
L 68.169688 30.12 
L 65.888047 30.12 
L 63.606407 30.12 
L 61.324766 30.12 
L 59.043125 30.12 
L 56.761485 30.12 
L 54.479844 30.12 
L 52.198203 30.12 
L 49.916563 30.12 
L 47.634922 75.701818 
L 45.353281 30.12 
L 43.071641 30.12 
L 40.79 30.12 
z
" clip-path="url(#p004e137e40)" style="fill: #d57459"/>
   </g>
   <g id="FillBetweenPolyCollection_3">
    <path d="M 40.79 30.12 
L 40.79 30.12 
L 43.071641 30.12 
L 45.353281 30.12 
L 47.634922 75.701818 
L 49.916563 30.12 
L 52.198203 30.12 
L 54.479844 30.12 
L 56.761485 30.12 
L 59.043125 30.12 
L 61.324766 30.12 
L 63.606407 30.12 
L 65.888047 30.12 
L 68.169688 30.12 
L 70.451329 30.12 
L 72.732969 30.12 
L 75.01461 30.12 
L 77.296251 30.12 
L 79.577891 30.12 
L 81.859532 30.12 
L 84.141173 30.12 
L 86.422813 30.12 
L 88.704454 30.12 
L 90.986095 30.12 
L 93.267736 30.12 
L 95.549376 52.910909 
L 97.831017 30.12 
L 100.112658 30.12 
L 102.394298 30.12 
L 104.675939 30.12 
L 106.95758 30.12 
L 109.23922 30.12 
L 111.520861 30.12 
L 113.802502 30.12 
L 116.084142 30.12 
L 118.365783 30.12 
L 120.647424 30.12 
L 122.929064 30.12 
L 125.210705 130.4 
L 127.492346 30.12 
L 129.773986 197.253333 
L 132.055627 30.12 
L 134.337268 30.12 
L 136.618908 30.12 
L 138.900549 30.12 
L 141.18219 101.748571 
L 143.46383 30.12 
L 145.745471 30.12 
L 148.027112 30.12 
L 150.308752 30.12 
L 152.590393 30.12 
L 154.872034 30.12 
L 157.153674 42.97641 
L 159.435315 30.12 
L 161.716956 30.12 
L 163.998596 30.12 
L 166.280237 30.12 
L 168.561878 30.12 
L 170.843518 30.12 
L 173.125159 55.19 
L 175.4068 30.12 
L 177.68844 30.12 
L 179.970081 30.12 
L 182.251722 30.12 
L 184.533362 30.12 
L 186.815003 30.12 
L 189.096644 30.12 
L 191.378284 155.47 
L 193.659925 30.12 
L 195.941566 30.12 
L 198.223207 30.12 
L 200.504847 531.52 
L 202.786488 30.12 
L 205.068129 85.831111 
L 207.349769 71.903333 
L 209.63141 30.12 
L 211.913051 30.12 
L 214.194691 30.12 
L 216.476332 87.973846 
L 218.757973 30.12 
L 221.039613 61.4575 
L 223.321254 30.12 
L 225.602895 68.689231 
L 227.884535 42.349268 
L 230.166176 30.12 
L 232.447817 30.12 
L 234.729457 30.12 
L 237.011098 30.12 
L 239.292739 30.12 
L 241.574379 30.12 
L 243.85602 30.12 
L 246.137661 30.12 
L 248.419301 30.12 
L 250.700942 42.655 
L 252.982583 30.12 
L 255.264223 30.12 
L 257.545864 30.12 
L 259.827505 30.12 
L 262.109145 155.47 
L 264.390786 30.12 
L 266.672427 30.12 
L 268.954067 30.12 
L 271.235708 30.12 
L 273.517349 531.52 
L 275.798989 30.12 
L 278.08063 30.12 
L 280.362271 30.12 
L 282.643911 30.12 
L 284.925552 30.12 
L 287.207193 37.603582 
L 289.488833 30.12 
L 291.770474 80.26 
L 294.052115 30.12 
L 296.333756 30.12 
L 298.615396 30.12 
L 300.897037 30.12 
L 303.178678 113.686667 
L 305.460318 30.12 
L 307.741959 30.12 
L 310.0236 30.12 
L 312.30524 155.47 
L 314.586881 30.12 
L 316.868522 30.12 
L 319.150162 30.12 
L 321.431803 30.12 
L 323.713444 30.12 
L 325.995084 30.12 
L 328.276725 30.12 
L 330.558366 30.12 
L 332.840006 30.12 
L 335.121647 30.12 
L 337.403288 30.12 
L 339.684928 30.12 
L 341.966569 30.12 
L 344.24821 30.12 
L 346.52985 30.12 
L 348.811491 30.12 
L 351.093132 30.12 
L 353.374772 30.12 
L 355.656413 30.12 
L 357.938054 30.12 
L 360.219694 531.52 
L 362.501335 30.12 
L 364.782976 30.12 
L 367.064616 30.12 
L 369.346257 531.52 
L 371.627898 30.12 
L 373.909538 531.52 
L 376.191179 531.52 
L 378.47282 531.52 
L 380.75446 30.12 
L 383.036101 531.52 
L 385.317742 30.12 
L 387.599382 30.12 
L 389.881023 30.12 
L 392.162664 30.12 
L 394.444305 30.12 
L 396.725945 30.12 
L 399.007586 30.12 
L 401.289227 30.12 
L 403.570867 30.12 
L 405.852508 30.12 
L 408.134149 30.12 
L 410.415789 30.12 
L 412.69743 30.12 
L 414.979071 531.52 
L 417.260711 30.12 
L 419.542352 30.12 
L 421.823993 30.12 
L 424.105633 197.253333 
L 426.387274 30.12 
L 428.668915 30.12 
L 430.950555 30.12 
L 433.232196 30.12 
L 435.513837 30.12 
L 437.795477 30.12 
L 440.077118 30.12 
L 442.358759 30.12 
L 444.640399 30.12 
L 446.92204 30.12 
L 449.203681 30.12 
L 451.485321 30.12 
L 453.766962 30.12 
L 456.048603 30.12 
L 458.330243 30.12 
L 460.611884 531.52 
L 462.893525 30.12 
L 465.175165 30.12 
L 467.456806 30.12 
L 469.738447 30.12 
L 472.020087 30.12 
L 474.301728 30.12 
L 476.583369 30.12 
L 478.865009 30.12 
L 481.14665 30.12 
L 483.428291 30.12 
L 485.709931 30.12 
L 487.991572 30.12 
L 490.273213 101.748571 
L 492.554853 30.12 
L 494.836494 30.12 
L 497.118135 30.12 
L 499.399776 30.12 
L 501.681416 197.253333 
L 503.963057 30.12 
L 506.244698 30.12 
L 508.526338 30.12 
L 510.807979 30.12 
L 513.08962 30.12 
L 515.37126 30.12 
L 517.652901 30.12 
L 519.934542 30.12 
L 522.216182 30.12 
L 524.497823 30.12 
L 526.779464 30.12 
L 529.061104 30.12 
L 531.342745 30.12 
L 533.624386 30.12 
L 535.906026 30.12 
L 538.187667 30.12 
L 540.469308 30.12 
L 542.750948 30.12 
L 545.032589 30.12 
L 547.31423 30.12 
L 549.59587 30.12 
L 551.877511 30.12 
L 554.159152 30.12 
L 556.440792 30.12 
L 558.722433 30.12 
L 561.004074 30.12 
L 563.285714 30.12 
L 565.567355 30.12 
L 567.848996 30.12 
L 570.130636 30.12 
L 572.412277 30.12 
L 574.693918 30.12 
L 576.975558 30.12 
L 579.257199 30.12 
L 581.53884 30.12 
L 583.82048 30.12 
L 586.102121 30.12 
L 588.383762 30.12 
L 590.665402 30.12 
L 592.947043 30.12 
L 595.228684 30.12 
L 597.510325 30.12 
L 599.791965 30.12 
L 602.073606 30.12 
L 604.355247 30.12 
L 606.636887 30.12 
L 608.918528 30.12 
L 611.200169 30.12 
L 613.481809 30.12 
L 615.76345 30.12 
L 618.045091 30.12 
L 620.326731 30.12 
L 622.608372 30.12 
L 624.890013 30.12 
L 627.171653 30.12 
L 629.453294 30.12 
L 631.734935 30.12 
L 634.016575 30.12 
L 636.298216 30.12 
L 638.579857 30.12 
L 640.861497 30.12 
L 643.143138 30.12 
L 645.424779 30.12 
L 647.706419 30.12 
L 649.98806 30.12 
L 652.269701 30.12 
L 654.551341 30.12 
L 656.832982 30.12 
L 659.114623 30.12 
L 661.396263 30.12 
L 663.677904 30.12 
L 665.959545 30.12 
L 668.241185 30.12 
L 670.522826 30.12 
L 670.522826 30.12 
L 670.522826 30.12 
L 668.241185 30.12 
L 665.959545 30.12 
L 663.677904 30.12 
L 661.396263 30.12 
L 659.114623 30.12 
L 656.832982 30.12 
L 654.551341 30.12 
L 652.269701 30.12 
L 649.98806 30.12 
L 647.706419 30.12 
L 645.424779 30.12 
L 643.143138 30.12 
L 640.861497 30.12 
L 638.579857 30.12 
L 636.298216 30.12 
L 634.016575 30.12 
L 631.734935 30.12 
L 629.453294 30.12 
L 627.171653 30.12 
L 624.890013 30.12 
L 622.608372 30.12 
L 620.326731 30.12 
L 618.045091 30.12 
L 615.76345 30.12 
L 613.481809 30.12 
L 611.200169 30.12 
L 608.918528 30.12 
L 606.636887 30.12 
L 604.355247 30.12 
L 602.073606 30.12 
L 599.791965 30.12 
L 597.510325 30.12 
L 595.228684 30.12 
L 592.947043 30.12 
L 590.665402 30.12 
L 588.383762 30.12 
L 586.102121 30.12 
L 583.82048 30.12 
L 581.53884 30.12 
L 579.257199 30.12 
L 576.975558 30.12 
L 574.693918 30.12 
L 572.412277 30.12 
L 570.130636 30.12 
L 567.848996 30.12 
L 565.567355 30.12 
L 563.285714 30.12 
L 561.004074 30.12 
L 558.722433 30.12 
L 556.440792 30.12 
L 554.159152 30.12 
L 551.877511 30.12 
L 549.59587 30.12 
L 547.31423 30.12 
L 545.032589 30.12 
L 542.750948 30.12 
L 540.469308 30.12 
L 538.187667 30.12 
L 535.906026 30.12 
L 533.624386 30.12 
L 531.342745 30.12 
L 529.061104 30.12 
L 526.779464 30.12 
L 524.497823 30.12 
L 522.216182 30.12 
L 519.934542 30.12 
L 517.652901 30.12 
L 515.37126 30.12 
L 513.08962 30.12 
L 510.807979 30.12 
L 508.526338 30.12 
L 506.244698 30.12 
L 503.963057 30.12 
L 501.681416 30.12 
L 499.399776 30.12 
L 497.118135 30.12 
L 494.836494 30.12 
L 492.554853 30.12 
L 490.273213 101.748571 
L 487.991572 30.12 
L 485.709931 30.12 
L 483.428291 30.12 
L 481.14665 30.12 
L 478.865009 30.12 
L 476.583369 30.12 
L 474.301728 30.12 
L 472.020087 30.12 
L 469.738447 30.12 
L 467.456806 30.12 
L 465.175165 30.12 
L 462.893525 30.12 
L 460.611884 531.52 
L 458.330243 30.12 
L 456.048603 30.12 
L 453.766962 30.12 
L 451.485321 30.12 
L 449.203681 30.12 
L 446.92204 30.12 
L 444.640399 30.12 
L 442.358759 30.12 
L 440.077118 30.12 
L 437.795477 30.12 
L 435.513837 30.12 
L 433.232196 30.12 
L 430.950555 30.12 
L 428.668915 30.12 
L 426.387274 30.12 
L 424.105633 30.12 
L 421.823993 30.12 
L 419.542352 30.12 
L 417.260711 30.12 
L 414.979071 531.52 
L 412.69743 30.12 
L 410.415789 30.12 
L 408.134149 30.12 
L 405.852508 30.12 
L 403.570867 30.12 
L 401.289227 30.12 
L 399.007586 30.12 
L 396.725945 30.12 
L 394.444305 30.12 
L 392.162664 30.12 
L 389.881023 30.12 
L 387.599382 30.12 
L 385.317742 30.12 
L 383.036101 531.52 
L 380.75446 30.12 
L 378.47282 531.52 
L 376.191179 531.52 
L 373.909538 531.52 
L 371.627898 30.12 
L 369.346257 531.52 
L 367.064616 30.12 
L 364.782976 30.12 
L 362.501335 30.12 
L 360.219694 30.12 
L 357.938054 30.12 
L 355.656413 30.12 
L 353.374772 30.12 
L 351.093132 30.12 
L 348.811491 30.12 
L 346.52985 30.12 
L 344.24821 30.12 
L 341.966569 30.12 
L 339.684928 30.12 
L 337.403288 30.12 
L 335.121647 30.12 
L 332.840006 30.12 
L 330.558366 30.12 
L 328.276725 30.12 
L 325.995084 30.12 
L 323.713444 30.12 
L 321.431803 30.12 
L 319.150162 30.12 
L 316.868522 30.12 
L 314.586881 30.12 
L 312.30524 155.47 
L 310.0236 30.12 
L 307.741959 30.12 
L 305.460318 30.12 
L 303.178678 113.686667 
L 300.897037 30.12 
L 298.615396 30.12 
L 296.333756 30.12 
L 294.052115 30.12 
L 291.770474 80.26 
L 289.488833 30.12 
L 287.207193 30.12 
L 284.925552 30.12 
L 282.643911 30.12 
L 280.362271 30.12 
L 278.08063 30.12 
L 275.798989 30.12 
L 273.517349 30.12 
L 271.235708 30.12 
L 268.954067 30.12 
L 266.672427 30.12 
L 264.390786 30.12 
L 262.109145 155.47 
L 259.827505 30.12 
L 257.545864 30.12 
L 255.264223 30.12 
L 252.982583 30.12 
L 250.700942 30.12 
L 248.419301 30.12 
L 246.137661 30.12 
L 243.85602 30.12 
L 241.574379 30.12 
L 239.292739 30.12 
L 237.011098 30.12 
L 234.729457 30.12 
L 232.447817 30.12 
L 230.166176 30.12 
L 227.884535 30.12 
L 225.602895 68.689231 
L 223.321254 30.12 
L 221.039613 61.4575 
L 218.757973 30.12 
L 216.476332 87.973846 
L 214.194691 30.12 
L 211.913051 30.12 
L 209.63141 30.12 
L 207.349769 71.903333 
L 205.068129 85.831111 
L 202.786488 30.12 
L 200.504847 531.52 
L 198.223207 30.12 
L 195.941566 30.12 
L 193.659925 30.12 
L 191.378284 155.47 
L 189.096644 30.12 
L 186.815003 30.12 
L 184.533362 30.12 
L 182.251722 30.12 
L 179.970081 30.12 
L 177.68844 30.12 
L 175.4068 30.12 
L 173.125159 30.12 
L 170.843518 30.12 
L 168.561878 30.12 
L 166.280237 30.12 
L 163.998596 30.12 
L 161.716956 30.12 
L 159.435315 30.12 
L 157.153674 42.97641 
L 154.872034 30.12 
L 152.590393 30.12 
L 150.308752 30.12 
L 148.027112 30.12 
L 145.745471 30.12 
L 143.46383 30.12 
L 141.18219 65.934286 
L 138.900549 30.12 
L 136.618908 30.12 
L 134.337268 30.12 
L 132.055627 30.12 
L 129.773986 197.253333 
L 127.492346 30.12 
L 125.210705 30.12 
L 122.929064 30.12 
L 120.647424 30.12 
L 118.365783 30.12 
L 116.084142 30.12 
L 113.802502 30.12 
L 111.520861 30.12 
L 109.23922 30.12 
L 106.95758 30.12 
L 104.675939 30.12 
L 102.394298 30.12 
L 100.112658 30.12 
L 97.831017 30.12 
L 95.549376 30.12 
L 93.267736 30.12 
L 90.986095 30.12 
L 88.704454 30.12 
L 86.422813 30.12 
L 84.141173 30.12 
L 81.859532 30.12 
L 79.577891 30.12 
L 77.296251 30.12 
L 75.01461 30.12 
L 72.732969 30.12 
L 70.451329 30.12 
L 68.169688 30.12 
L 65.888047 30.12 
L 63.606407 30.12 
L 61.324766 30.12 
L 59.043125 30.12 
L 56.761485 30.12 
L 54.479844 30.12 
L 52.198203 30.12 
L 49.916563 30.12 
L 47.634922 75.701818 
L 45.353281 30.12 
L 43.071641 30.12 
L 40.79 30.12 
z
" clip-path="url(#p004e137e40)" style="fill: #e8bc60"/>
   </g>
   <g id="FillBetweenPolyCollection_4">
    <path d="M 40.79 30.12 
L 40.79 30.12 
L 43.071641 30.12 
L 45.353281 30.12 
L 47.634922 75.701818 
L 49.916563 30.12 
L 52.198203 30.12 
L 54.479844 30.12 
L 56.761485 30.12 
L 59.043125 30.12 
L 61.324766 30.12 
L 63.606407 30.12 
L 65.888047 30.12 
L 68.169688 30.12 
L 70.451329 30.12 
L 72.732969 30.12 
L 75.01461 30.12 
L 77.296251 30.12 
L 79.577891 30.12 
L 81.859532 30.12 
L 84.141173 30.12 
L 86.422813 30.12 
L 88.704454 30.12 
L 90.986095 30.12 
L 93.267736 30.12 
L 95.549376 30.12 
L 97.831017 30.12 
L 100.112658 30.12 
L 102.394298 30.12 
L 104.675939 30.12 
L 106.95758 30.12 
L 109.23922 30.12 
L 111.520861 30.12 
L 113.802502 30.12 
L 116.084142 30.12 
L 118.365783 30.12 
L 120.647424 30.12 
L 122.929064 30.12 
L 125.210705 30.12 
L 127.492346 30.12 
L 129.773986 197.253333 
L 132.055627 30.12 
L 134.337268 30.12 
L 136.618908 30.12 
L 138.900549 30.12 
L 141.18219 65.934286 
L 143.46383 30.12 
L 145.745471 30.12 
L 148.027112 30.12 
L 150.308752 30.12 
L 152.590393 30.12 
L 154.872034 30.12 
L 157.153674 42.97641 
L 159.435315 30.12 
L 161.716956 30.12 
L 163.998596 30.12 
L 166.280237 30.12 
L 168.561878 30.12 
L 170.843518 30.12 
L 173.125159 30.12 
L 175.4068 30.12 
L 177.68844 30.12 
L 179.970081 30.12 
L 182.251722 30.12 
L 184.533362 30.12 
L 186.815003 30.12 
L 189.096644 30.12 
L 191.378284 155.47 
L 193.659925 30.12 
L 195.941566 30.12 
L 198.223207 30.12 
L 200.504847 531.52 
L 202.786488 30.12 
L 205.068129 85.831111 
L 207.349769 71.903333 
L 209.63141 30.12 
L 211.913051 30.12 
L 214.194691 30.12 
L 216.476332 87.973846 
L 218.757973 30.12 
L 221.039613 61.4575 
L 223.321254 30.12 
L 225.602895 68.689231 
L 227.884535 30.12 
L 230.166176 30.12 
L 232.447817 30.12 
L 234.729457 30.12 
L 237.011098 30.12 
L 239.292739 30.12 
L 241.574379 30.12 
L 243.85602 30.12 
L 246.137661 30.12 
L 248.419301 30.12 
L 250.700942 30.12 
L 252.982583 30.12 
L 255.264223 30.12 
L 257.545864 30.12 
L 259.827505 30.12 
L 262.109145 155.47 
L 264.390786 30.12 
L 266.672427 30.12 
L 268.954067 30.12 
L 271.235708 30.12 
L 273.517349 30.12 
L 275.798989 30.12 
L 278.08063 30.12 
L 280.362271 30.12 
L 282.643911 30.12 
L 284.925552 30.12 
L 287.207193 30.12 
L 289.488833 30.12 
L 291.770474 80.26 
L 294.052115 30.12 
L 296.333756 30.12 
L 298.615396 30.12 
L 300.897037 30.12 
L 303.178678 113.686667 
L 305.460318 30.12 
L 307.741959 30.12 
L 310.0236 30.12 
L 312.30524 155.47 
L 314.586881 30.12 
L 316.868522 30.12 
L 319.150162 30.12 
L 321.431803 30.12 
L 323.713444 30.12 
L 325.995084 30.12 
L 328.276725 30.12 
L 330.558366 30.12 
L 332.840006 30.12 
L 335.121647 30.12 
L 337.403288 30.12 
L 339.684928 30.12 
L 341.966569 30.12 
L 344.24821 30.12 
L 346.52985 30.12 
L 348.811491 30.12 
L 351.093132 30.12 
L 353.374772 30.12 
L 355.656413 30.12 
L 357.938054 30.12 
L 360.219694 30.12 
L 362.501335 30.12 
L 364.782976 30.12 
L 367.064616 30.12 
L 369.346257 531.52 
L 371.627898 30.12 
L 373.909538 531.52 
L 376.191179 531.52 
L 378.47282 531.52 
L 380.75446 30.12 
L 383.036101 531.52 
L 385.317742 30.12 
L 387.599382 30.12 
L 389.881023 30.12 
L 392.162664 30.12 
L 394.444305 30.12 
L 396.725945 30.12 
L 399.007586 30.12 
L 401.289227 30.12 
L 403.570867 30.12 
L 405.852508 30.12 
L 408.134149 30.12 
L 410.415789 30.12 
L 412.69743 30.12 
L 414.979071 531.52 
L 417.260711 30.12 
L 419.542352 30.12 
L 421.823993 30.12 
L 424.105633 30.12 
L 426.387274 30.12 
L 428.668915 30.12 
L 430.950555 30.12 
L 433.232196 30.12 
L 435.513837 30.12 
L 437.795477 30.12 
L 440.077118 30.12 
L 442.358759 30.12 
L 444.640399 30.12 
L 446.92204 30.12 
L 449.203681 30.12 
L 451.485321 30.12 
L 453.766962 30.12 
L 456.048603 30.12 
L 458.330243 30.12 
L 460.611884 531.52 
L 462.893525 30.12 
L 465.175165 30.12 
L 467.456806 30.12 
L 469.738447 30.12 
L 472.020087 30.12 
L 474.301728 30.12 
L 476.583369 30.12 
L 478.865009 30.12 
L 481.14665 30.12 
L 483.428291 30.12 
L 485.709931 30.12 
L 487.991572 30.12 
L 490.273213 101.748571 
L 492.554853 30.12 
L 494.836494 30.12 
L 497.118135 30.12 
L 499.399776 30.12 
L 501.681416 30.12 
L 503.963057 30.12 
L 506.244698 30.12 
L 508.526338 30.12 
L 510.807979 30.12 
L 513.08962 30.12 
L 515.37126 30.12 
L 517.652901 30.12 
L 519.934542 30.12 
L 522.216182 30.12 
L 524.497823 30.12 
L 526.779464 30.12 
L 529.061104 30.12 
L 531.342745 30.12 
L 533.624386 30.12 
L 535.906026 30.12 
L 538.187667 30.12 
L 540.469308 30.12 
L 542.750948 30.12 
L 545.032589 30.12 
L 547.31423 30.12 
L 549.59587 30.12 
L 551.877511 30.12 
L 554.159152 30.12 
L 556.440792 30.12 
L 558.722433 30.12 
L 561.004074 30.12 
L 563.285714 30.12 
L 565.567355 30.12 
L 567.848996 30.12 
L 570.130636 30.12 
L 572.412277 30.12 
L 574.693918 30.12 
L 576.975558 30.12 
L 579.257199 30.12 
L 581.53884 30.12 
L 583.82048 30.12 
L 586.102121 30.12 
L 588.383762 30.12 
L 590.665402 30.12 
L 592.947043 30.12 
L 595.228684 30.12 
L 597.510325 30.12 
L 599.791965 30.12 
L 602.073606 30.12 
L 604.355247 30.12 
L 606.636887 30.12 
L 608.918528 30.12 
L 611.200169 30.12 
L 613.481809 30.12 
L 615.76345 30.12 
L 618.045091 30.12 
L 620.326731 30.12 
L 622.608372 30.12 
L 624.890013 30.12 
L 627.171653 30.12 
L 629.453294 30.12 
L 631.734935 30.12 
L 634.016575 30.12 
L 636.298216 30.12 
L 638.579857 30.12 
L 640.861497 30.12 
L 643.143138 30.12 
L 645.424779 30.12 
L 647.706419 30.12 
L 649.98806 30.12 
L 652.269701 30.12 
L 654.551341 30.12 
L 656.832982 30.12 
L 659.114623 30.12 
L 661.396263 30.12 
L 663.677904 30.12 
L 665.959545 30.12 
L 668.241185 30.12 
L 670.522826 30.12 
L 670.522826 30.12 
L 670.522826 30.12 
L 668.241185 30.12 
L 665.959545 30.12 
L 663.677904 30.12 
L 661.396263 30.12 
L 659.114623 30.12 
L 656.832982 30.12 
L 654.551341 30.12 
L 652.269701 30.12 
L 649.98806 30.12 
L 647.706419 30.12 
L 645.424779 30.12 
L 643.143138 30.12 
L 640.861497 30.12 
L 638.579857 30.12 
L 636.298216 30.12 
L 634.016575 30.12 
L 631.734935 30.12 
L 629.453294 30.12 
L 627.171653 30.12 
L 624.890013 30.12 
L 622.608372 30.12 
L 620.326731 30.12 
L 618.045091 30.12 
L 615.76345 30.12 
L 613.481809 30.12 
L 611.200169 30.12 
L 608.918528 30.12 
L 606.636887 30.12 
L 604.355247 30.12 
L 602.073606 30.12 
L 599.791965 30.12 
L 597.510325 30.12 
L 595.228684 30.12 
L 592.947043 30.12 
L 590.665402 30.12 
L 588.383762 30.12 
L 586.102121 30.12 
L 583.82048 30.12 
L 581.53884 30.12 
L 579.257199 30.12 
L 576.975558 30.12 
L 574.693918 30.12 
L 572.412277 30.12 
L 570.130636 30.12 
L 567.848996 30.12 
L 565.567355 30.12 
L 563.285714 30.12 
L 561.004074 30.12 
L 558.722433 30.12 
L 556.440792 30.12 
L 554.159152 30.12 
L 551.877511 30.12 
L 549.59587 30.12 
L 547.31423 30.12 
L 545.032589 30.12 
L 542.750948 30.12 
L 540.469308 30.12 
L 538.187667 30.12 
L 535.906026 30.12 
L 533.624386 30.12 
L 531.342745 30.12 
L 529.061104 30.12 
L 526.779464 30.12 
L 524.497823 30.12 
L 522.216182 30.12 
L 519.934542 30.12 
L 517.652901 30.12 
L 515.37126 30.12 
L 513.08962 30.12 
L 510.807979 30.12 
L 508.526338 30.12 
L 506.244698 30.12 
L 503.963057 30.12 
L 501.681416 30.12 
L 499.399776 30.12 
L 497.118135 30.12 
L 494.836494 30.12 
L 492.554853 30.12 
L 490.273213 30.12 
L 487.991572 30.12 
L 485.709931 30.12 
L 483.428291 30.12 
L 481.14665 30.12 
L 478.865009 30.12 
L 476.583369 30.12 
L 474.301728 30.12 
L 472.020087 30.12 
L 469.738447 30.12 
L 467.456806 30.12 
L 465.175165 30.12 
L 462.893525 30.12 
L 460.611884 30.12 
L 458.330243 30.12 
L 456.048603 30.12 
L 453.766962 30.12 
L 451.485321 30.12 
L 449.203681 30.12 
L 446.92204 30.12 
L 444.640399 30.12 
L 442.358759 30.12 
L 440.077118 30.12 
L 437.795477 30.12 
L 435.513837 30.12 
L 433.232196 30.12 
L 430.950555 30.12 
L 428.668915 30.12 
L 426.387274 30.12 
L 424.105633 30.12 
L 421.823993 30.12 
L 419.542352 30.12 
L 417.260711 30.12 
L 414.979071 30.12 
L 412.69743 30.12 
L 410.415789 30.12 
L 408.134149 30.12 
L 405.852508 30.12 
L 403.570867 30.12 
L 401.289227 30.12 
L 399.007586 30.12 
L 396.725945 30.12 
L 394.444305 30.12 
L 392.162664 30.12 
L 389.881023 30.12 
L 387.599382 30.12 
L 385.317742 30.12 
L 383.036101 30.12 
L 380.75446 30.12 
L 378.47282 30.12 
L 376.191179 30.12 
L 373.909538 30.12 
L 371.627898 30.12 
L 369.346257 30.12 
L 367.064616 30.12 
L 364.782976 30.12 
L 362.501335 30.12 
L 360.219694 30.12 
L 357.938054 30.12 
L 355.656413 30.12 
L 353.374772 30.12 
L 351.093132 30.12 
L 348.811491 30.12 
L 346.52985 30.12 
L 344.24821 30.12 
L 341.966569 30.12 
L 339.684928 30.12 
L 337.403288 30.12 
L 335.121647 30.12 
L 332.840006 30.12 
L 330.558366 30.12 
L 328.276725 30.12 
L 325.995084 30.12 
L 323.713444 30.12 
L 321.431803 30.12 
L 319.150162 30.12 
L 316.868522 30.12 
L 314.586881 30.12 
L 312.30524 30.12 
L 310.0236 30.12 
L 307.741959 30.12 
L 305.460318 30.12 
L 303.178678 30.12 
L 300.897037 30.12 
L 298.615396 30.12 
L 296.333756 30.12 
L 294.052115 30.12 
L 291.770474 30.12 
L 289.488833 30.12 
L 287.207193 30.12 
L 284.925552 30.12 
L 282.643911 30.12 
L 280.362271 30.12 
L 278.08063 30.12 
L 275.798989 30.12 
L 273.517349 30.12 
L 271.235708 30.12 
L 268.954067 30.12 
L 266.672427 30.12 
L 264.390786 30.12 
L 262.109145 30.12 
L 259.827505 30.12 
L 257.545864 30.12 
L 255.264223 30.12 
L 252.982583 30.12 
L 250.700942 30.12 
L 248.419301 30.12 
L 246.137661 30.12 
L 243.85602 30.12 
L 241.574379 30.12 
L 239.292739 30.12 
L 237.011098 30.12 
L 234.729457 30.12 
L 232.447817 30.12 
L 230.166176 30.12 
L 227.884535 30.12 
L 225.602895 30.12 
L 223.321254 30.12 
L 221.039613 30.12 
L 218.757973 30.12 
L 216.476332 30.12 
L 214.194691 30.12 
L 211.913051 30.12 
L 209.63141 30.12 
L 207.349769 30.12 
L 205.068129 30.12 
L 202.786488 30.12 
L 200.504847 30.12 
L 198.223207 30.12 
L 195.941566 30.12 
L 193.659925 30.12 
L 191.378284 30.12 
L 189.096644 30.12 
L 186.815003 30.12 
L 184.533362 30.12 
L 182.251722 30.12 
L 179.970081 30.12 
L 177.68844 30.12 
L 175.4068 30.12 
L 173.125159 30.12 
L 170.843518 30.12 
L 168.561878 30.12 
L 166.280237 30.12 
L 163.998596 30.12 
L 161.716956 30.12 
L 159.435315 30.12 
L 157.153674 30.12 
L 154.872034 30.12 
L 152.590393 30.12 
L 150.308752 30.12 
L 148.027112 30.12 
L 145.745471 30.12 
L 143.46383 30.12 
L 141.18219 30.12 
L 138.900549 30.12 
L 136.618908 30.12 
L 134.337268 30.12 
L 132.055627 30.12 
L 129.773986 30.12 
L 127.492346 30.12 
L 125.210705 30.12 
L 122.929064 30.12 
L 120.647424 30.12 
L 118.365783 30.12 
L 116.084142 30.12 
L 113.802502 30.12 
L 111.520861 30.12 
L 109.23922 30.12 
L 106.95758 30.12 
L 104.675939 30.12 
L 102.394298 30.12 
L 100.112658 30.12 
L 97.831017 30.12 
L 95.549376 30.12 
L 93.267736 30.12 
L 90.986095 30.12 
L 88.704454 30.12 
L 86.422813 30.12 
L 84.141173 30.12 
L 81.859532 30.12 
L 79.577891 30.12 
L 77.296251 30.12 
L 75.01461 30.12 
L 72.732969 30.12 
L 70.451329 30.12 
L 68.169688 30.12 
L 65.888047 30.12 
L 63.606407 30.12 
L 61.324766 30.12 
L 59.043125 30.12 
L 56.761485 30.12 
L 54.479844 30.12 
L 52.198203 30.12 
L 49.916563 30.12 
L 47.634922 30.12 
L 45.353281 30.12 
L 43.071641 30.12 
L 40.79 30.12 
z
" clip-path="url(#p004e137e40)" style="fill: #8d5993"/>
   </g>
   <g id="matplotlib.axis_1">
    <g id="xtick_1">
     <g id="line2d_1">
      <path d="M 152.590393 531.52 
L 152.590393 30.12 
" clip-path="url(#p004e137e40)" style="fill: none; stroke-dasharray: 2.96,1.28; stroke-dashoffset: 0; stroke: #b0b0b0; stroke-opacity: 0.5; stroke-width: 0.8"/>
     </g>
     <g id="line2d_2">
      <defs>
       <path id="md0f93d47b9" d="M 0 0 
L 0 3.5 
" style="stroke: #000000; stroke-width: 0.8"/>
      </defs>
      <g>
       <use xlink:href="#md0f93d47b9" x="152.590393" y="531.52" style="stroke: #000000; stroke-width: 0.8"/>
      </g>
     </g>
     <g id="text_1">
      <!-- 50 -->
      <g transform="translate(146.227893 546.118437) scale(0.1 -0.1)">
       <defs>
        <path id="DejaVuSans-35" d="M 691 4666 
L 3169 4666 
L 3169 4134 
L 1269 4134 
L 1269 2991 
Q 1406 3038 1543 3061 
Q 1681 3084 1819 3084 
Q 2600 3084 3056 2656 
Q 3513 2228 3513 1497 
Q 3513 744 3044 326 
Q 2575 -91 1722 -91 
Q 1428 -91 1123 -41 
Q 819 9 494 109 
L 494 744 
Q 775 591 1075 516 
Q 1375 441 1709 441 
Q 2250 441 2565 725 
Q 2881 1009 2881 1497 
Q 2881 1984 2565 2268 
Q 2250 2553 1709 2553 
Q 1456 2553 1204 2497 
Q 953 2441 691 2322 
L 691 4666 
z
" transform="scale(0.015625)"/>
        <path id="DejaVuSans-30" d="M 2034 4250 
Q 1547 4250 1301 3770 
Q 1056 3291 1056 2328 
Q 1056 1369 1301 889 
Q 1547 409 2034 409 
Q 2525 409 2770 889 
Q 3016 1369 3016 2328 
Q 3016 3291 2770 3770 
Q 2525 4250 2034 4250 
z
M 2034 4750 
Q 2819 4750 3233 4129 
Q 3647 3509 3647 2328 
Q 3647 1150 3233 529 
Q 2819 -91 2034 -91 
Q 1250 -91 836 529 
Q 422 1150 422 2328 
Q 422 3509 836 4129 
Q 1250 4750 2034 4750 
z
" transform="scale(0.015625)"/>
       </defs>
       <use xlink:href="#DejaVuSans-35"/>
       <use xlink:href="#DejaVuSans-30" transform="translate(63.623047 0)"/>
      </g>
     </g>
    </g>
    <g id="xtick_2">
     <g id="line2d_3">
      <path d="M 266.672427 531.52 
L 266.672427 30.12 
" clip-path="url(#p004e137e40)" style="fill: none; stroke-dasharray: 2.96,1.28; stroke-dashoffset: 0; stroke: #b0b0b0; stroke-opacity: 0.5; stroke-width: 0.8"/>
     </g>
     <g id="line2d_4">
      <g>
       <use xlink:href="#md0f93d47b9" x="266.672427" y="531.52" style="stroke: #000000; stroke-width: 0.8"/>
      </g>
     </g>
     <g id="text_2">
      <!-- 100 -->
      <g transform="translate(257.128677 546.118437) scale(0.1 -0.1)">
       <defs>
        <path id="DejaVuSans-31" d="M 794 531 
L 1825 531 
L 1825 4091 
L 703 3866 
L 703 4441 
L 1819 4666 
L 2450 4666 
L 2450 531 
L 3481 531 
L 3481 0 
L 794 0 
L 794 531 
z
" transform="scale(0.015625)"/>
       </defs>
       <use xlink:href="#DejaVuSans-31"/>
       <use xlink:href="#DejaVuSans-30" transform="translate(63.623047 0)"/>
       <use xlink:href="#DejaVuSans-30" transform="translate(127.246094 0)"/>
      </g>
     </g>
    </g>
    <g id="xtick_3">
     <g id="line2d_5">
      <path d="M 380.75446 531.52 
L 380.75446 30.12 
" clip-path="url(#p004e137e40)" style="fill: none; stroke-dasharray: 2.96,1.28; stroke-dashoffset: 0; stroke: #b0b0b0; stroke-opacity: 0.5; stroke-width: 0.8"/>
     </g>
     <g id="line2d_6">
      <g>
       <use xlink:href="#md0f93d47b9" x="380.75446" y="531.52" style="stroke: #000000; stroke-width: 0.8"/>
      </g>
     </g>
     <g id="text_3">
      <!-- 150 -->
      <g transform="translate(371.21071 546.118437) scale(0.1 -0.1)">
       <use xlink:href="#DejaVuSans-31"/>
       <use xlink:href="#DejaVuSans-35" transform="translate(63.623047 0)"/>
       <use xlink:href="#DejaVuSans-30" transform="translate(127.246094 0)"/>
      </g>
     </g>
    </g>
    <g id="xtick_4">
     <g id="line2d_7">
      <path d="M 494.836494 531.52 
L 494.836494 30.12 
" clip-path="url(#p004e137e40)" style="fill: none; stroke-dasharray: 2.96,1.28; stroke-dashoffset: 0; stroke: #b0b0b0; stroke-opacity: 0.5; stroke-width: 0.8"/>
     </g>
     <g id="line2d_8">
      <g>
       <use xlink:href="#md0f93d47b9" x="494.836494" y="531.52" style="stroke: #000000; stroke-width: 0.8"/>
      </g>
     </g>
     <g id="text_4">
      <!-- 200 -->
      <g transform="translate(485.292744 546.118437) scale(0.1 -0.1)">
       <defs>
        <path id="DejaVuSans-32" d="M 1228 531 
L 3431 531 
L 3431 0 
L 469 0 
L 469 531 
Q 828 903 1448 1529 
Q 2069 2156 2228 2338 
Q 2531 2678 2651 2914 
Q 2772 3150 2772 3378 
Q 2772 3750 2511 3984 
Q 2250 4219 1831 4219 
Q 1534 4219 1204 4116 
Q 875 4013 500 3803 
L 500 4441 
Q 881 4594 1212 4672 
Q 1544 4750 1819 4750 
Q 2544 4750 2975 4387 
Q 3406 4025 3406 3419 
Q 3406 3131 3298 2873 
Q 3191 2616 2906 2266 
Q 2828 2175 2409 1742 
Q 1991 1309 1228 531 
z
" transform="scale(0.015625)"/>
       </defs>
       <use xlink:href="#DejaVuSans-32"/>
       <use xlink:href="#DejaVuSans-30" transform="translate(63.623047 0)"/>
       <use xlink:href="#DejaVuSans-30" transform="translate(127.246094 0)"/>
      </g>
     </g>
    </g>
    <g id="xtick_5">
     <g id="line2d_9">
      <path d="M 608.918528 531.52 
L 608.918528 30.12 
" clip-path="url(#p004e137e40)" style="fill: none; stroke-dasharray: 2.96,1.28; stroke-dashoffset: 0; stroke: #b0b0b0; stroke-opacity: 0.5; stroke-width: 0.8"/>
     </g>
     <g id="line2d_10">
      <g>
       <use xlink:href="#md0f93d47b9" x="608.918528" y="531.52" style="stroke: #000000; stroke-width: 0.8"/>
      </g>
     </g>
     <g id="text_5">
      <!-- 250 -->
      <g transform="translate(599.374778 546.118437) scale(0.1 -0.1)">
       <use xlink:href="#DejaVuSans-32"/>
       <use xlink:href="#DejaVuSans-35" transform="translate(63.623047 0)"/>
       <use xlink:href="#DejaVuSans-30" transform="translate(127.246094 0)"/>
      </g>
     </g>
    </g>
    <g id="text_6">
     <!-- Session Count -->
     <g transform="translate(315.398757 561.919375) scale(0.14 -0.14)">
      <defs>
       <path id="TimesNewRomanPSMT-53" d="M 2934 4334 
L 2934 2869 
L 2819 2869 
Q 2763 3291 2617 3541 
Q 2472 3791 2203 3937 
Q 1934 4084 1647 4084 
Q 1322 4084 1109 3886 
Q 897 3688 897 3434 
Q 897 3241 1031 3081 
Q 1225 2847 1953 2456 
Q 2547 2138 2764 1967 
Q 2981 1797 3098 1565 
Q 3216 1334 3216 1081 
Q 3216 600 2842 251 
Q 2469 -97 1881 -97 
Q 1697 -97 1534 -69 
Q 1438 -53 1133 45 
Q 828 144 747 144 
Q 669 144 623 97 
Q 578 50 556 -97 
L 441 -97 
L 441 1356 
L 556 1356 
Q 638 900 775 673 
Q 913 447 1195 297 
Q 1478 147 1816 147 
Q 2206 147 2432 353 
Q 2659 559 2659 841 
Q 2659 997 2573 1156 
Q 2488 1316 2306 1453 
Q 2184 1547 1640 1851 
Q 1097 2156 867 2337 
Q 638 2519 519 2737 
Q 400 2956 400 3219 
Q 400 3675 750 4004 
Q 1100 4334 1641 4334 
Q 1978 4334 2356 4169 
Q 2531 4091 2603 4091 
Q 2684 4091 2736 4139 
Q 2788 4188 2819 4334 
L 2934 4334 
z
" transform="scale(0.015625)"/>
       <path id="TimesNewRomanPSMT-65" d="M 681 1784 
Q 678 1147 991 784 
Q 1303 422 1725 422 
Q 2006 422 2214 576 
Q 2422 731 2563 1106 
L 2659 1044 
Q 2594 616 2278 264 
Q 1963 -88 1488 -88 
Q 972 -88 605 314 
Q 238 716 238 1394 
Q 238 2128 614 2539 
Q 991 2950 1559 2950 
Q 2041 2950 2350 2633 
Q 2659 2316 2659 1784 
L 681 1784 
z
M 681 1966 
L 2006 1966 
Q 1991 2241 1941 2353 
Q 1863 2528 1708 2628 
Q 1553 2728 1384 2728 
Q 1125 2728 920 2526 
Q 716 2325 681 1966 
z
" transform="scale(0.015625)"/>
       <path id="TimesNewRomanPSMT-73" d="M 2050 2947 
L 2050 1972 
L 1947 1972 
Q 1828 2431 1642 2597 
Q 1456 2763 1169 2763 
Q 950 2763 815 2647 
Q 681 2531 681 2391 
Q 681 2216 781 2091 
Q 878 1963 1175 1819 
L 1631 1597 
Q 2266 1288 2266 781 
Q 2266 391 1970 151 
Q 1675 -88 1309 -88 
Q 1047 -88 709 6 
Q 606 38 541 38 
Q 469 38 428 -44 
L 325 -44 
L 325 978 
L 428 978 
Q 516 541 762 319 
Q 1009 97 1316 97 
Q 1531 97 1667 223 
Q 1803 350 1803 528 
Q 1803 744 1651 891 
Q 1500 1038 1047 1263 
Q 594 1488 453 1669 
Q 313 1847 313 2119 
Q 313 2472 555 2709 
Q 797 2947 1181 2947 
Q 1350 2947 1591 2875 
Q 1750 2828 1803 2828 
Q 1853 2828 1881 2850 
Q 1909 2872 1947 2947 
L 2050 2947 
z
" transform="scale(0.015625)"/>
       <path id="TimesNewRomanPSMT-69" d="M 928 4444 
Q 1059 4444 1151 4351 
Q 1244 4259 1244 4128 
Q 1244 3997 1151 3903 
Q 1059 3809 928 3809 
Q 797 3809 703 3903 
Q 609 3997 609 4128 
Q 609 4259 701 4351 
Q 794 4444 928 4444 
z
M 1188 2947 
L 1188 647 
Q 1188 378 1227 289 
Q 1266 200 1342 156 
Q 1419 113 1622 113 
L 1622 0 
L 231 0 
L 231 113 
Q 441 113 512 153 
Q 584 194 626 287 
Q 669 381 669 647 
L 669 1750 
Q 669 2216 641 2353 
Q 619 2453 572 2492 
Q 525 2531 444 2531 
Q 356 2531 231 2484 
L 188 2597 
L 1050 2947 
L 1188 2947 
z
" transform="scale(0.015625)"/>
       <path id="TimesNewRomanPSMT-6f" d="M 1600 2947 
Q 2250 2947 2644 2453 
Q 2978 2031 2978 1484 
Q 2978 1100 2793 706 
Q 2609 313 2286 112 
Q 1963 -88 1566 -88 
Q 919 -88 538 428 
Q 216 863 216 1403 
Q 216 1797 411 2186 
Q 606 2575 925 2761 
Q 1244 2947 1600 2947 
z
M 1503 2744 
Q 1338 2744 1170 2645 
Q 1003 2547 900 2300 
Q 797 2053 797 1666 
Q 797 1041 1045 587 
Q 1294 134 1700 134 
Q 2003 134 2200 384 
Q 2397 634 2397 1244 
Q 2397 2006 2069 2444 
Q 1847 2744 1503 2744 
z
" transform="scale(0.015625)"/>
       <path id="TimesNewRomanPSMT-6e" d="M 1034 2341 
Q 1538 2947 1994 2947 
Q 2228 2947 2397 2830 
Q 2566 2713 2666 2444 
Q 2734 2256 2734 1869 
L 2734 647 
Q 2734 375 2778 278 
Q 2813 200 2889 156 
Q 2966 113 3172 113 
L 3172 0 
L 1756 0 
L 1756 113 
L 1816 113 
Q 2016 113 2095 173 
Q 2175 234 2206 353 
Q 2219 400 2219 647 
L 2219 1819 
Q 2219 2209 2117 2386 
Q 2016 2563 1775 2563 
Q 1403 2563 1034 2156 
L 1034 647 
Q 1034 356 1069 288 
Q 1113 197 1189 155 
Q 1266 113 1500 113 
L 1500 0 
L 84 0 
L 84 113 
L 147 113 
Q 366 113 442 223 
Q 519 334 519 647 
L 519 1709 
Q 519 2225 495 2337 
Q 472 2450 423 2490 
Q 375 2531 294 2531 
Q 206 2531 84 2484 
L 38 2597 
L 900 2947 
L 1034 2947 
L 1034 2341 
z
" transform="scale(0.015625)"/>
       <path id="TimesNewRomanPSMT-20" transform="scale(0.015625)"/>
       <path id="TimesNewRomanPSMT-43" d="M 3853 4334 
L 3950 2894 
L 3853 2894 
Q 3659 3541 3300 3825 
Q 2941 4109 2438 4109 
Q 2016 4109 1675 3895 
Q 1334 3681 1139 3212 
Q 944 2744 944 2047 
Q 944 1472 1128 1050 
Q 1313 628 1683 403 
Q 2053 178 2528 178 
Q 2941 178 3256 354 
Q 3572 531 3950 1056 
L 4047 994 
Q 3728 428 3303 165 
Q 2878 -97 2294 -97 
Q 1241 -97 663 684 
Q 231 1266 231 2053 
Q 231 2688 515 3219 
Q 800 3750 1298 4042 
Q 1797 4334 2388 4334 
Q 2847 4334 3294 4109 
Q 3425 4041 3481 4041 
Q 3566 4041 3628 4100 
Q 3709 4184 3744 4334 
L 3853 4334 
z
" transform="scale(0.015625)"/>
       <path id="TimesNewRomanPSMT-75" d="M 2709 2863 
L 2709 1128 
Q 2709 631 2732 520 
Q 2756 409 2807 365 
Q 2859 322 2928 322 
Q 3025 322 3147 375 
L 3191 266 
L 2334 -88 
L 2194 -88 
L 2194 519 
Q 1825 119 1631 15 
Q 1438 -88 1222 -88 
Q 981 -88 804 51 
Q 628 191 559 409 
Q 491 628 491 1028 
L 491 2306 
Q 491 2509 447 2587 
Q 403 2666 317 2708 
Q 231 2750 6 2747 
L 6 2863 
L 1009 2863 
L 1009 947 
Q 1009 547 1148 422 
Q 1288 297 1484 297 
Q 1619 297 1789 381 
Q 1959 466 2194 703 
L 2194 2325 
Q 2194 2569 2105 2655 
Q 2016 2741 1734 2747 
L 1734 2863 
L 2709 2863 
z
" transform="scale(0.015625)"/>
       <path id="TimesNewRomanPSMT-74" d="M 1031 3803 
L 1031 2863 
L 1700 2863 
L 1700 2644 
L 1031 2644 
L 1031 788 
Q 1031 509 1111 412 
Q 1191 316 1316 316 
Q 1419 316 1516 380 
Q 1613 444 1666 569 
L 1788 569 
Q 1678 263 1478 108 
Q 1278 -47 1066 -47 
Q 922 -47 784 33 
Q 647 113 581 261 
Q 516 409 516 719 
L 516 2644 
L 63 2644 
L 63 2747 
Q 234 2816 414 2980 
Q 594 3144 734 3369 
Q 806 3488 934 3803 
L 1031 3803 
z
" transform="scale(0.015625)"/>
      </defs>
      <use xlink:href="#TimesNewRomanPSMT-53"/>
      <use xlink:href="#TimesNewRomanPSMT-65" transform="translate(55.615234 0)"/>
      <use xlink:href="#TimesNewRomanPSMT-73" transform="translate(100 0)"/>
      <use xlink:href="#TimesNewRomanPSMT-73" transform="translate(138.916016 0)"/>
      <use xlink:href="#TimesNewRomanPSMT-69" transform="translate(177.832031 0)"/>
      <use xlink:href="#TimesNewRomanPSMT-6f" transform="translate(205.615234 0)"/>
      <use xlink:href="#TimesNewRomanPSMT-6e" transform="translate(255.615234 0)"/>
      <use xlink:href="#TimesNewRomanPSMT-20" transform="translate(305.615234 0)"/>
      <use xlink:href="#TimesNewRomanPSMT-43" transform="translate(330.615234 0)"/>
      <use xlink:href="#TimesNewRomanPSMT-6f" transform="translate(397.314453 0)"/>
      <use xlink:href="#TimesNewRomanPSMT-75" transform="translate(447.314453 0)"/>
      <use xlink:href="#TimesNewRomanPSMT-6e" transform="translate(497.314453 0)"/>
      <use xlink:href="#TimesNewRomanPSMT-74" transform="translate(547.314453 0)"/>
     </g>
    </g>
   </g>
   <g id="matplotlib.axis_2">
    <g id="ytick_1">
     <g id="line2d_11">
      <path d="M 40.79 531.52 
L 670.522826 531.52 
" clip-path="url(#p004e137e40)" style="fill: none; stroke-dasharray: 2.96,1.28; stroke-dashoffset: 0; stroke: #b0b0b0; stroke-opacity: 0.5; stroke-width: 0.8"/>
     </g>
     <g id="line2d_12">
      <defs>
       <path id="mb795b41c2b" d="M 0 0 
L -3.5 0 
" style="stroke: #000000; stroke-width: 0.8"/>
      </defs>
      <g>
       <use xlink:href="#mb795b41c2b" x="40.79" y="531.52" style="stroke: #000000; stroke-width: 0.8"/>
      </g>
     </g>
     <g id="text_7">
      <!-- 0 -->
      <g transform="translate(27.4275 535.319219) scale(0.1 -0.1)">
       <use xlink:href="#DejaVuSans-30"/>
      </g>
     </g>
    </g>
    <g id="ytick_2">
     <g id="line2d_13">
      <path d="M 40.79 30.12 
L 670.522826 30.12 
" clip-path="url(#p004e137e40)" style="fill: none; stroke-dasharray: 2.96,1.28; stroke-dashoffset: 0; stroke: #b0b0b0; stroke-opacity: 0.5; stroke-width: 0.8"/>
     </g>
     <g id="line2d_14">
      <g>
       <use xlink:href="#mb795b41c2b" x="40.79" y="30.12" style="stroke: #000000; stroke-width: 0.8"/>
      </g>
     </g>
     <g id="text_8">
      <!-- 1 -->
      <g transform="translate(27.4275 33.919219) scale(0.1 -0.1)">
       <use xlink:href="#DejaVuSans-31"/>
      </g>
     </g>
    </g>
    <g id="text_9">
     <!-- Stacked Proportion -->
     <g transform="translate(20.432813 334.672969) rotate(-90) scale(0.14 -0.14)">
      <defs>
       <path id="TimesNewRomanPSMT-61" d="M 1822 413 
Q 1381 72 1269 19 
Q 1100 -59 909 -59 
Q 613 -59 420 144 
Q 228 347 228 678 
Q 228 888 322 1041 
Q 450 1253 767 1440 
Q 1084 1628 1822 1897 
L 1822 2009 
Q 1822 2438 1686 2597 
Q 1550 2756 1291 2756 
Q 1094 2756 978 2650 
Q 859 2544 859 2406 
L 866 2225 
Q 866 2081 792 2003 
Q 719 1925 600 1925 
Q 484 1925 411 2006 
Q 338 2088 338 2228 
Q 338 2497 613 2722 
Q 888 2947 1384 2947 
Q 1766 2947 2009 2819 
Q 2194 2722 2281 2516 
Q 2338 2381 2338 1966 
L 2338 994 
Q 2338 584 2353 492 
Q 2369 400 2405 369 
Q 2441 338 2488 338 
Q 2538 338 2575 359 
Q 2641 400 2828 588 
L 2828 413 
Q 2478 -56 2159 -56 
Q 2006 -56 1915 50 
Q 1825 156 1822 413 
z
M 1822 616 
L 1822 1706 
Q 1350 1519 1213 1441 
Q 966 1303 859 1153 
Q 753 1003 753 825 
Q 753 600 887 451 
Q 1022 303 1197 303 
Q 1434 303 1822 616 
z
" transform="scale(0.015625)"/>
       <path id="TimesNewRomanPSMT-63" d="M 2631 1088 
Q 2516 522 2178 217 
Q 1841 -88 1431 -88 
Q 944 -88 581 321 
Q 219 731 219 1428 
Q 219 2103 620 2525 
Q 1022 2947 1584 2947 
Q 2006 2947 2278 2723 
Q 2550 2500 2550 2259 
Q 2550 2141 2473 2067 
Q 2397 1994 2259 1994 
Q 2075 1994 1981 2113 
Q 1928 2178 1911 2362 
Q 1894 2547 1784 2644 
Q 1675 2738 1481 2738 
Q 1169 2738 978 2506 
Q 725 2200 725 1697 
Q 725 1184 976 792 
Q 1228 400 1656 400 
Q 1963 400 2206 609 
Q 2378 753 2541 1131 
L 2631 1088 
z
" transform="scale(0.015625)"/>
       <path id="TimesNewRomanPSMT-6b" d="M 1047 4444 
L 1047 1594 
L 1775 2259 
Q 2006 2472 2044 2528 
Q 2069 2566 2069 2603 
Q 2069 2666 2017 2711 
Q 1966 2756 1847 2763 
L 1847 2863 
L 3091 2863 
L 3091 2763 
Q 2834 2756 2664 2684 
Q 2494 2613 2291 2428 
L 1556 1750 
L 2291 822 
Q 2597 438 2703 334 
Q 2853 188 2966 144 
Q 3044 113 3238 113 
L 3238 0 
L 1847 0 
L 1847 113 
Q 1966 116 2008 148 
Q 2050 181 2050 241 
Q 2050 313 1925 472 
L 1047 1594 
L 1047 644 
Q 1047 366 1086 278 
Q 1125 191 1197 153 
Q 1269 116 1509 113 
L 1509 0 
L 53 0 
L 53 113 
Q 272 113 381 166 
Q 447 200 481 272 
Q 528 375 528 628 
L 528 3234 
Q 528 3731 506 3842 
Q 484 3953 434 3995 
Q 384 4038 303 4038 
Q 238 4038 106 3984 
L 53 4094 
L 903 4444 
L 1047 4444 
z
" transform="scale(0.015625)"/>
       <path id="TimesNewRomanPSMT-64" d="M 2222 322 
Q 2013 103 1813 7 
Q 1613 -88 1381 -88 
Q 913 -88 563 304 
Q 213 697 213 1313 
Q 213 1928 600 2439 
Q 988 2950 1597 2950 
Q 1975 2950 2222 2709 
L 2222 3238 
Q 2222 3728 2198 3840 
Q 2175 3953 2125 3993 
Q 2075 4034 2000 4034 
Q 1919 4034 1784 3984 
L 1744 4094 
L 2597 4444 
L 2738 4444 
L 2738 1134 
Q 2738 631 2761 520 
Q 2784 409 2836 365 
Q 2888 322 2956 322 
Q 3041 322 3181 375 
L 3216 266 
L 2366 -88 
L 2222 -88 
L 2222 322 
z
M 2222 541 
L 2222 2016 
Q 2203 2228 2109 2403 
Q 2016 2578 1861 2667 
Q 1706 2756 1559 2756 
Q 1284 2756 1069 2509 
Q 784 2184 784 1559 
Q 784 928 1059 592 
Q 1334 256 1672 256 
Q 1956 256 2222 541 
z
" transform="scale(0.015625)"/>
       <path id="TimesNewRomanPSMT-50" d="M 1313 1984 
L 1313 750 
Q 1313 350 1400 253 
Q 1519 116 1759 116 
L 1922 116 
L 1922 0 
L 106 0 
L 106 116 
L 266 116 
Q 534 116 650 291 
Q 713 388 713 750 
L 713 3488 
Q 713 3888 628 3984 
Q 506 4122 266 4122 
L 106 4122 
L 106 4238 
L 1659 4238 
Q 2228 4238 2556 4120 
Q 2884 4003 3109 3725 
Q 3334 3447 3334 3066 
Q 3334 2547 2992 2222 
Q 2650 1897 2025 1897 
Q 1872 1897 1694 1919 
Q 1516 1941 1313 1984 
z
M 1313 2163 
Q 1478 2131 1606 2115 
Q 1734 2100 1825 2100 
Q 2150 2100 2386 2351 
Q 2622 2603 2622 3003 
Q 2622 3278 2509 3514 
Q 2397 3750 2190 3867 
Q 1984 3984 1722 3984 
Q 1563 3984 1313 3925 
L 1313 2163 
z
" transform="scale(0.015625)"/>
       <path id="TimesNewRomanPSMT-72" d="M 1038 2947 
L 1038 2303 
Q 1397 2947 1775 2947 
Q 1947 2947 2059 2842 
Q 2172 2738 2172 2600 
Q 2172 2478 2090 2393 
Q 2009 2309 1897 2309 
Q 1788 2309 1652 2417 
Q 1516 2525 1450 2525 
Q 1394 2525 1328 2463 
Q 1188 2334 1038 2041 
L 1038 669 
Q 1038 431 1097 309 
Q 1138 225 1241 169 
Q 1344 113 1538 113 
L 1538 0 
L 72 0 
L 72 113 
Q 291 113 397 181 
Q 475 231 506 341 
Q 522 394 522 644 
L 522 1753 
Q 522 2253 501 2348 
Q 481 2444 426 2487 
Q 372 2531 291 2531 
Q 194 2531 72 2484 
L 41 2597 
L 906 2947 
L 1038 2947 
z
" transform="scale(0.015625)"/>
       <path id="TimesNewRomanPSMT-70" d="M -6 2578 
L 875 2934 
L 994 2934 
L 994 2266 
Q 1216 2644 1439 2795 
Q 1663 2947 1909 2947 
Q 2341 2947 2628 2609 
Q 2981 2197 2981 1534 
Q 2981 794 2556 309 
Q 2206 -88 1675 -88 
Q 1444 -88 1275 -22 
Q 1150 25 994 166 
L 994 -706 
Q 994 -1000 1030 -1079 
Q 1066 -1159 1155 -1206 
Q 1244 -1253 1478 -1253 
L 1478 -1369 
L -22 -1369 
L -22 -1253 
L 56 -1253 
Q 228 -1256 350 -1188 
Q 409 -1153 442 -1076 
Q 475 -1000 475 -688 
L 475 2019 
Q 475 2297 450 2372 
Q 425 2447 370 2484 
Q 316 2522 222 2522 
Q 147 2522 31 2478 
L -6 2578 
z
M 994 2081 
L 994 1013 
Q 994 666 1022 556 
Q 1066 375 1236 237 
Q 1406 100 1666 100 
Q 1978 100 2172 344 
Q 2425 663 2425 1241 
Q 2425 1897 2138 2250 
Q 1938 2494 1663 2494 
Q 1513 2494 1366 2419 
Q 1253 2363 994 2081 
z
" transform="scale(0.015625)"/>
      </defs>
      <use xlink:href="#TimesNewRomanPSMT-53"/>
      <use xlink:href="#TimesNewRomanPSMT-74" transform="translate(55.615234 0)"/>
      <use xlink:href="#TimesNewRomanPSMT-61" transform="translate(83.398438 0)"/>
      <use xlink:href="#TimesNewRomanPSMT-63" transform="translate(127.783203 0)"/>
      <use xlink:href="#TimesNewRomanPSMT-6b" transform="translate(172.167969 0)"/>
      <use xlink:href="#TimesNewRomanPSMT-65" transform="translate(222.167969 0)"/>
      <use xlink:href="#TimesNewRomanPSMT-64" transform="translate(266.552734 0)"/>
      <use xlink:href="#TimesNewRomanPSMT-20" transform="translate(316.552734 0)"/>
      <use xlink:href="#TimesNewRomanPSMT-50" transform="translate(341.552734 0)"/>
      <use xlink:href="#TimesNewRomanPSMT-72" transform="translate(397.167969 0)"/>
      <use xlink:href="#TimesNewRomanPSMT-6f" transform="translate(430.46875 0)"/>
      <use xlink:href="#TimesNewRomanPSMT-70" transform="translate(480.46875 0)"/>
      <use xlink:href="#TimesNewRomanPSMT-6f" transform="translate(530.46875 0)"/>
      <use xlink:href="#TimesNewRomanPSMT-72" transform="translate(580.46875 0)"/>
      <use xlink:href="#TimesNewRomanPSMT-74" transform="translate(613.769531 0)"/>
      <use xlink:href="#TimesNewRomanPSMT-69" transform="translate(641.552734 0)"/>
      <use xlink:href="#TimesNewRomanPSMT-6f" transform="translate(669.335938 0)"/>
      <use xlink:href="#TimesNewRomanPSMT-6e" transform="translate(719.335938 0)"/>
     </g>
    </g>
   </g>
   <g id="line2d_15">
    <path d="M 40.79 242.263076 
L 670.522826 242.263076 
" clip-path="url(#p004e137e40)" style="fill: none; stroke-dasharray: 7.5,15; stroke-dashoffset: 0; stroke: #000000; stroke-width: 1.5"/>
   </g>
   <g id="patch_3">
    <path d="M 40.79 531.52 
L 40.79 30.12 
" style="fill: none; stroke: #000000; stroke-width: 0.8; stroke-linejoin: miter; stroke-linecap: square"/>
   </g>
   <g id="patch_4">
    <path d="M 670.522826 531.52 
L 670.522826 30.12 
" style="fill: none; stroke: #000000; stroke-width: 0.8; stroke-linejoin: miter; stroke-linecap: square"/>
   </g>
   <g id="patch_5">
    <path d="M 40.79 531.52 
L 670.522826 531.52 
" style="fill: none; stroke: #000000; stroke-width: 0.8; stroke-linejoin: miter; stroke-linecap: square"/>
   </g>
   <g id="patch_6">
    <path d="M 40.79 30.12 
L 670.522826 30.12 
" style="fill: none; stroke: #000000; stroke-width: 0.8; stroke-linejoin: miter; stroke-linecap: square"/>
   </g>
   <g id="text_10">
    <!-- 0.58 -->
    <g transform="translate(686.494311 245.626357) scale(0.14 -0.14)">
     <defs>
      <path id="TimesNewRomanPSMT-30" d="M 231 2094 
Q 231 2819 450 3342 
Q 669 3866 1031 4122 
Q 1313 4325 1613 4325 
Q 2100 4325 2488 3828 
Q 2972 3213 2972 2159 
Q 2972 1422 2759 906 
Q 2547 391 2217 158 
Q 1888 -75 1581 -75 
Q 975 -75 572 641 
Q 231 1244 231 2094 
z
M 844 2016 
Q 844 1141 1059 588 
Q 1238 122 1591 122 
Q 1759 122 1940 273 
Q 2122 425 2216 781 
Q 2359 1319 2359 2297 
Q 2359 3022 2209 3506 
Q 2097 3866 1919 4016 
Q 1791 4119 1609 4119 
Q 1397 4119 1231 3928 
Q 1006 3669 925 3112 
Q 844 2556 844 2016 
z
" transform="scale(0.015625)"/>
      <path id="TimesNewRomanPSMT-2e" d="M 800 606 
Q 947 606 1047 504 
Q 1147 403 1147 259 
Q 1147 116 1045 14 
Q 944 -88 800 -88 
Q 656 -88 554 14 
Q 453 116 453 259 
Q 453 406 554 506 
Q 656 606 800 606 
z
" transform="scale(0.015625)"/>
      <path id="TimesNewRomanPSMT-35" d="M 2778 4238 
L 2534 3706 
L 1259 3706 
L 981 3138 
Q 1809 3016 2294 2522 
Q 2709 2097 2709 1522 
Q 2709 1188 2573 903 
Q 2438 619 2231 419 
Q 2025 219 1772 97 
Q 1413 -75 1034 -75 
Q 653 -75 479 54 
Q 306 184 306 341 
Q 306 428 378 495 
Q 450 563 559 563 
Q 641 563 702 538 
Q 763 513 909 409 
Q 1144 247 1384 247 
Q 1750 247 2026 523 
Q 2303 800 2303 1197 
Q 2303 1581 2056 1914 
Q 1809 2247 1375 2428 
Q 1034 2569 447 2591 
L 1259 4238 
L 2778 4238 
z
" transform="scale(0.015625)"/>
      <path id="TimesNewRomanPSMT-38" d="M 1228 2134 
Q 725 2547 579 2797 
Q 434 3047 434 3316 
Q 434 3728 753 4026 
Q 1072 4325 1600 4325 
Q 2113 4325 2425 4047 
Q 2738 3769 2738 3413 
Q 2738 3175 2569 2928 
Q 2400 2681 1866 2347 
Q 2416 1922 2594 1678 
Q 2831 1359 2831 1006 
Q 2831 559 2490 242 
Q 2150 -75 1597 -75 
Q 994 -75 656 303 
Q 388 606 388 966 
Q 388 1247 577 1523 
Q 766 1800 1228 2134 
z
M 1719 2469 
Q 2094 2806 2194 3001 
Q 2294 3197 2294 3444 
Q 2294 3772 2109 3958 
Q 1925 4144 1606 4144 
Q 1288 4144 1088 3959 
Q 888 3775 888 3528 
Q 888 3366 970 3203 
Q 1053 3041 1206 2894 
L 1719 2469 
z
M 1375 2016 
Q 1116 1797 991 1539 
Q 866 1281 866 981 
Q 866 578 1086 336 
Q 1306 94 1647 94 
Q 1984 94 2187 284 
Q 2391 475 2391 747 
Q 2391 972 2272 1150 
Q 2050 1481 1375 2016 
z
" transform="scale(0.015625)"/>
     </defs>
     <use xlink:href="#TimesNewRomanPSMT-30"/>
     <use xlink:href="#TimesNewRomanPSMT-2e" transform="translate(50 0)"/>
     <use xlink:href="#TimesNewRomanPSMT-35" transform="translate(75 0)"/>
     <use xlink:href="#TimesNewRomanPSMT-38" transform="translate(125 0)"/>
    </g>
   </g>
   <g id="text_11">
    <!-- Hercules (Tonkean) -->
    <g transform="translate(272.026726 24.12) scale(0.2 -0.2)">
     <defs>
      <path id="TimesNewRomanPS-BoldMT-48" d="M 1750 2038 
L 1750 725 
Q 1750 400 1786 319 
Q 1822 238 1926 177 
Q 2031 116 2209 116 
L 2350 116 
L 2350 0 
L 134 0 
L 134 116 
L 275 116 
Q 459 116 572 181 
Q 653 225 697 331 
Q 731 406 731 725 
L 731 3513 
Q 731 3838 697 3919 
Q 663 4000 558 4061 
Q 453 4122 275 4122 
L 134 4122 
L 134 4238 
L 2350 4238 
L 2350 4122 
L 2209 4122 
Q 2025 4122 1913 4056 
Q 1831 4013 1784 3906 
Q 1750 3831 1750 3513 
L 1750 2313 
L 3247 2313 
L 3247 3513 
Q 3247 3838 3212 3919 
Q 3178 4000 3072 4061 
Q 2966 4122 2788 4122 
L 2650 4122 
L 2650 4238 
L 4863 4238 
L 4863 4122 
L 4725 4122 
Q 4538 4122 4428 4056 
Q 4347 4013 4300 3906 
Q 4266 3831 4266 3513 
L 4266 725 
Q 4266 400 4300 319 
Q 4334 238 4440 177 
Q 4547 116 4725 116 
L 4863 116 
L 4863 0 
L 2650 0 
L 2650 116 
L 2788 116 
Q 2975 116 3084 181 
Q 3166 225 3213 331 
Q 3247 406 3247 725 
L 3247 2038 
L 1750 2038 
z
" transform="scale(0.015625)"/>
      <path id="TimesNewRomanPS-BoldMT-65" d="M 2691 1566 
L 1088 1566 
Q 1116 984 1397 647 
Q 1613 388 1916 388 
Q 2103 388 2256 492 
Q 2409 597 2584 869 
L 2691 800 
Q 2453 316 2165 114 
Q 1878 -88 1500 -88 
Q 850 -88 516 413 
Q 247 816 247 1413 
Q 247 2144 642 2576 
Q 1038 3009 1569 3009 
Q 2013 3009 2339 2645 
Q 2666 2281 2691 1566 
z
M 1922 1775 
Q 1922 2278 1867 2465 
Q 1813 2653 1697 2750 
Q 1631 2806 1522 2806 
Q 1359 2806 1256 2647 
Q 1072 2369 1072 1884 
L 1072 1775 
L 1922 1775 
z
" transform="scale(0.015625)"/>
      <path id="TimesNewRomanPS-BoldMT-72" d="M 1428 2922 
L 1428 2259 
Q 1719 2713 1937 2861 
Q 2156 3009 2359 3009 
Q 2534 3009 2639 2901 
Q 2744 2794 2744 2597 
Q 2744 2388 2642 2272 
Q 2541 2156 2397 2156 
Q 2231 2156 2109 2262 
Q 1988 2369 1966 2381 
Q 1934 2400 1894 2400 
Q 1803 2400 1722 2331 
Q 1594 2225 1528 2028 
Q 1428 1725 1428 1359 
L 1428 688 
L 1431 513 
Q 1431 334 1453 284 
Q 1491 200 1564 161 
Q 1638 122 1813 113 
L 1813 0 
L 234 0 
L 234 113 
Q 425 128 492 217 
Q 559 306 559 688 
L 559 2303 
Q 559 2553 534 2622 
Q 503 2709 443 2750 
Q 384 2791 234 2806 
L 234 2922 
L 1428 2922 
z
" transform="scale(0.015625)"/>
      <path id="TimesNewRomanPS-BoldMT-63" d="M 2600 753 
L 2697 678 
Q 2491 291 2183 101 
Q 1875 -88 1528 -88 
Q 944 -88 594 353 
Q 244 794 244 1413 
Q 244 2009 563 2463 
Q 947 3009 1622 3009 
Q 2075 3009 2342 2781 
Q 2609 2553 2609 2272 
Q 2609 2094 2501 1987 
Q 2394 1881 2219 1881 
Q 2034 1881 1914 2003 
Q 1794 2125 1766 2438 
Q 1747 2634 1675 2713 
Q 1603 2791 1506 2791 
Q 1356 2791 1250 2631 
Q 1088 2391 1088 1894 
Q 1088 1481 1219 1104 
Q 1350 728 1578 544 
Q 1750 409 1984 409 
Q 2138 409 2275 481 
Q 2413 553 2600 753 
z
" transform="scale(0.015625)"/>
      <path id="TimesNewRomanPS-BoldMT-75" d="M 3038 2922 
L 3038 634 
Q 3038 300 3100 217 
Q 3163 134 3353 113 
L 3353 0 
L 2163 0 
L 2163 391 
Q 1953 141 1743 26 
Q 1534 -88 1275 -88 
Q 1028 -88 836 64 
Q 644 216 578 419 
Q 513 622 513 1128 
L 513 2288 
Q 513 2619 452 2700 
Q 391 2781 197 2806 
L 197 2922 
L 1388 2922 
L 1388 925 
Q 1388 613 1417 522 
Q 1447 431 1511 384 
Q 1575 338 1659 338 
Q 1772 338 1863 397 
Q 1988 478 2163 725 
L 2163 2288 
Q 2163 2619 2102 2700 
Q 2041 2781 1847 2806 
L 1847 2922 
L 3038 2922 
z
" transform="scale(0.015625)"/>
      <path id="TimesNewRomanPS-BoldMT-6c" d="M 1359 4238 
L 1359 606 
Q 1359 297 1431 211 
Q 1503 125 1713 113 
L 1713 0 
L 134 0 
L 134 113 
Q 328 119 422 225 
Q 484 297 484 606 
L 484 3631 
Q 484 3938 412 4023 
Q 341 4109 134 4122 
L 134 4238 
L 1359 4238 
z
" transform="scale(0.015625)"/>
      <path id="TimesNewRomanPS-BoldMT-73" d="M 2063 3003 
L 2109 2006 
L 2003 2006 
Q 1813 2450 1608 2612 
Q 1403 2775 1200 2775 
Q 1072 2775 981 2689 
Q 891 2603 891 2491 
Q 891 2406 953 2328 
Q 1053 2200 1512 1889 
Q 1972 1578 2117 1361 
Q 2263 1144 2263 875 
Q 2263 631 2141 397 
Q 2019 163 1797 37 
Q 1575 -88 1306 -88 
Q 1097 -88 747 44 
Q 653 78 619 78 
Q 516 78 447 -78 
L 344 -78 
L 294 972 
L 400 972 
Q 541 559 786 353 
Q 1031 147 1250 147 
Q 1400 147 1495 239 
Q 1591 331 1591 463 
Q 1591 613 1497 722 
Q 1403 831 1078 1053 
Q 600 1384 459 1559 
Q 253 1816 253 2125 
Q 253 2463 486 2736 
Q 719 3009 1159 3009 
Q 1397 3009 1619 2894 
Q 1703 2847 1756 2847 
Q 1813 2847 1847 2870 
Q 1881 2894 1956 3003 
L 2063 3003 
z
" transform="scale(0.015625)"/>
      <path id="TimesNewRomanPS-BoldMT-20" transform="scale(0.015625)"/>
      <path id="TimesNewRomanPS-BoldMT-28" d="M 2056 4334 
L 2056 4191 
Q 1731 3978 1578 3775 
Q 1366 3494 1247 3053 
Q 1097 2506 1097 1525 
Q 1097 600 1233 87 
Q 1369 -425 1603 -741 
Q 1766 -959 2056 -1125 
L 2056 -1281 
Q 1303 -1028 779 -248 
Q 256 531 256 1544 
Q 256 2544 778 3314 
Q 1300 4084 2056 4334 
z
" transform="scale(0.015625)"/>
      <path id="TimesNewRomanPS-BoldMT-54" d="M 4038 4238 
L 4038 3091 
L 3925 3091 
Q 3825 3488 3703 3661 
Q 3581 3834 3369 3938 
Q 3250 3994 2953 3994 
L 2638 3994 
L 2638 725 
Q 2638 400 2673 319 
Q 2709 238 2814 177 
Q 2919 116 3100 116 
L 3241 116 
L 3241 0 
L 1022 0 
L 1022 116 
L 1163 116 
Q 1347 116 1459 181 
Q 1541 225 1588 331 
Q 1622 406 1622 725 
L 1622 3994 
L 1316 3994 
Q 888 3994 694 3813 
Q 422 3559 350 3091 
L 231 3091 
L 231 4238 
L 4038 4238 
z
" transform="scale(0.015625)"/>
      <path id="TimesNewRomanPS-BoldMT-6f" d="M 1594 3009 
Q 1975 3009 2303 2812 
Q 2631 2616 2801 2253 
Q 2972 1891 2972 1459 
Q 2972 838 2656 419 
Q 2275 -88 1603 -88 
Q 944 -88 587 375 
Q 231 838 231 1447 
Q 231 2075 595 2542 
Q 959 3009 1594 3009 
z
M 1606 2788 
Q 1447 2788 1333 2667 
Q 1219 2547 1183 2192 
Q 1147 1838 1147 1206 
Q 1147 872 1191 581 
Q 1225 359 1337 243 
Q 1450 128 1594 128 
Q 1734 128 1828 206 
Q 1950 313 1991 503 
Q 2053 800 2053 1703 
Q 2053 2234 1993 2432 
Q 1934 2631 1819 2722 
Q 1738 2788 1606 2788 
z
" transform="scale(0.015625)"/>
      <path id="TimesNewRomanPS-BoldMT-6e" d="M 1409 2922 
L 1409 2544 
Q 1634 2788 1840 2898 
Q 2047 3009 2284 3009 
Q 2569 3009 2756 2851 
Q 2944 2694 3006 2459 
Q 3056 2281 3056 1775 
L 3056 638 
Q 3056 300 3117 217 
Q 3178 134 3372 113 
L 3372 0 
L 1894 0 
L 1894 113 
Q 2059 134 2131 250 
Q 2181 328 2181 638 
L 2181 1938 
Q 2181 2297 2153 2390 
Q 2125 2484 2058 2536 
Q 1991 2588 1909 2588 
Q 1641 2588 1409 2203 
L 1409 638 
Q 1409 309 1470 221 
Q 1531 134 1697 113 
L 1697 0 
L 219 0 
L 219 113 
Q 403 131 481 231 
Q 534 300 534 638 
L 534 2288 
Q 534 2619 473 2700 
Q 413 2781 219 2806 
L 219 2922 
L 1409 2922 
z
" transform="scale(0.015625)"/>
      <path id="TimesNewRomanPS-BoldMT-6b" d="M 1403 4238 
L 1403 1450 
L 2081 2116 
Q 2291 2319 2342 2409 
Q 2394 2500 2394 2584 
Q 2394 2669 2325 2725 
Q 2256 2781 2056 2806 
L 2056 2922 
L 3366 2922 
L 3366 2806 
Q 3178 2797 3037 2717 
Q 2897 2638 2488 2238 
L 2169 1925 
L 2856 919 
Q 3272 306 3350 231 
Q 3456 125 3619 113 
L 3619 0 
L 2109 0 
L 2109 113 
Q 2209 113 2254 150 
Q 2300 188 2300 231 
Q 2300 303 2169 497 
L 1591 1344 
L 1403 1159 
L 1403 634 
Q 1403 300 1465 217 
Q 1528 134 1722 113 
L 1722 0 
L 213 0 
L 213 113 
Q 397 131 475 231 
Q 528 300 528 634 
L 528 3603 
Q 528 3934 467 4015 
Q 406 4097 213 4122 
L 213 4238 
L 1403 4238 
z
" transform="scale(0.015625)"/>
      <path id="TimesNewRomanPS-BoldMT-61" d="M 1828 431 
Q 1294 -41 869 -41 
Q 619 -41 453 123 
Q 288 288 288 534 
Q 288 869 575 1136 
Q 863 1403 1828 1847 
L 1828 2141 
Q 1828 2472 1792 2558 
Q 1756 2644 1656 2708 
Q 1556 2772 1431 2772 
Q 1228 2772 1097 2681 
Q 1016 2625 1016 2550 
Q 1016 2484 1103 2388 
Q 1222 2253 1222 2128 
Q 1222 1975 1108 1867 
Q 994 1759 809 1759 
Q 613 1759 480 1878 
Q 347 1997 347 2156 
Q 347 2381 525 2586 
Q 703 2791 1022 2900 
Q 1341 3009 1684 3009 
Q 2100 3009 2342 2832 
Q 2584 2656 2656 2450 
Q 2700 2319 2700 1847 
L 2700 713 
Q 2700 513 2715 461 
Q 2731 409 2762 384 
Q 2794 359 2834 359 
Q 2916 359 3000 475 
L 3094 400 
Q 2938 169 2770 64 
Q 2603 -41 2391 -41 
Q 2141 -41 2000 76 
Q 1859 194 1828 431 
z
M 1828 659 
L 1828 1638 
Q 1450 1416 1266 1163 
Q 1144 994 1144 822 
Q 1144 678 1247 569 
Q 1325 484 1466 484 
Q 1622 484 1828 659 
z
" transform="scale(0.015625)"/>
      <path id="TimesNewRomanPS-BoldMT-29" d="M 78 -1281 
L 78 -1138 
Q 403 -922 556 -719 
Q 766 -438 888 0 
Q 1038 550 1038 1531 
Q 1038 2456 902 2967 
Q 766 3478 531 3794 
Q 369 4013 78 4178 
L 78 4334 
Q 831 4081 1354 3301 
Q 1878 2522 1878 1509 
Q 1878 513 1354 -257 
Q 831 -1028 78 -1281 
z
" transform="scale(0.015625)"/>
     </defs>
     <use xlink:href="#TimesNewRomanPS-BoldMT-48"/>
     <use xlink:href="#TimesNewRomanPS-BoldMT-65" transform="translate(77.783203 0)"/>
     <use xlink:href="#TimesNewRomanPS-BoldMT-72" transform="translate(122.167969 0)"/>
     <use xlink:href="#TimesNewRomanPS-BoldMT-63" transform="translate(164.802734 0)"/>
     <use xlink:href="#TimesNewRomanPS-BoldMT-75" transform="translate(209.1875 0)"/>
     <use xlink:href="#TimesNewRomanPS-BoldMT-6c" transform="translate(264.802734 0)"/>
     <use xlink:href="#TimesNewRomanPS-BoldMT-65" transform="translate(292.585938 0)"/>
     <use xlink:href="#TimesNewRomanPS-BoldMT-73" transform="translate(336.970703 0)"/>
     <use xlink:href="#TimesNewRomanPS-BoldMT-20" transform="translate(375.886719 0)"/>
     <use xlink:href="#TimesNewRomanPS-BoldMT-28" transform="translate(400.886719 0)"/>
     <use xlink:href="#TimesNewRomanPS-BoldMT-54" transform="translate(434.1875 0)"/>
     <use xlink:href="#TimesNewRomanPS-BoldMT-6f" transform="translate(491.761719 0)"/>
     <use xlink:href="#TimesNewRomanPS-BoldMT-6e" transform="translate(541.761719 0)"/>
     <use xlink:href="#TimesNewRomanPS-BoldMT-6b" transform="translate(597.376953 0)"/>
     <use xlink:href="#TimesNewRomanPS-BoldMT-65" transform="translate(652.992188 0)"/>
     <use xlink:href="#TimesNewRomanPS-BoldMT-61" transform="translate(697.376953 0)"/>
     <use xlink:href="#TimesNewRomanPS-BoldMT-6e" transform="translate(747.376953 0)"/>
     <use xlink:href="#TimesNewRomanPS-BoldMT-29" transform="translate(802.992188 0)"/>
    </g>
   </g>
   <g id="legend_1">
    <g id="patch_7">
     <path d="M 47.79 94.67625 
L 133.686875 94.67625 
Q 135.686875 94.67625 135.686875 92.67625 
L 135.686875 37.12 
Q 135.686875 35.12 133.686875 35.12 
L 47.79 35.12 
Q 45.79 35.12 45.79 37.12 
L 45.79 92.67625 
Q 45.79 94.67625 47.79 94.67625 
z
" style="fill: #ffffff; opacity: 0.8; stroke: #cccccc; stroke-linejoin: miter"/>
    </g>
    <g id="patch_8">
     <path d="M 49.79 46.12 
L 69.79 46.12 
L 69.79 39.12 
L 49.79 39.12 
z
" style="fill: #5386b6"/>
    </g>
    <g id="text_12">
     <!-- Success -->
     <g transform="translate(77.79 46.12) scale(0.1 -0.1)">
      <use xlink:href="#TimesNewRomanPSMT-53"/>
      <use xlink:href="#TimesNewRomanPSMT-75" transform="translate(55.615234 0)"/>
      <use xlink:href="#TimesNewRomanPSMT-63" transform="translate(105.615234 0)"/>
      <use xlink:href="#TimesNewRomanPSMT-63" transform="translate(150 0)"/>
      <use xlink:href="#TimesNewRomanPSMT-65" transform="translate(194.384766 0)"/>
      <use xlink:href="#TimesNewRomanPSMT-73" transform="translate(238.769531 0)"/>
      <use xlink:href="#TimesNewRomanPSMT-73" transform="translate(277.685547 0)"/>
     </g>
    </g>
    <g id="patch_9">
     <path d="M 49.79 60.259063 
L 69.79 60.259063 
L 69.79 53.259063 
L 49.79 53.259063 
z
" style="fill: #d57459"/>
    </g>
    <g id="text_13">
     <!-- Error -->
     <g transform="translate(77.79 60.259063) scale(0.1 -0.1)">
      <defs>
       <path id="TimesNewRomanPSMT-45" d="M 1338 4006 
L 1338 2331 
L 2269 2331 
Q 2631 2331 2753 2441 
Q 2916 2584 2934 2947 
L 3050 2947 
L 3050 1472 
L 2934 1472 
Q 2891 1781 2847 1869 
Q 2791 1978 2662 2040 
Q 2534 2103 2269 2103 
L 1338 2103 
L 1338 706 
Q 1338 425 1363 364 
Q 1388 303 1450 267 
Q 1513 231 1688 231 
L 2406 231 
Q 2766 231 2928 281 
Q 3091 331 3241 478 
Q 3434 672 3638 1063 
L 3763 1063 
L 3397 0 
L 131 0 
L 131 116 
L 281 116 
Q 431 116 566 188 
Q 666 238 702 338 
Q 738 438 738 747 
L 738 3500 
Q 738 3903 656 3997 
Q 544 4122 281 4122 
L 131 4122 
L 131 4238 
L 3397 4238 
L 3444 3309 
L 3322 3309 
Q 3256 3644 3176 3769 
Q 3097 3894 2941 3959 
Q 2816 4006 2500 4006 
L 1338 4006 
z
" transform="scale(0.015625)"/>
      </defs>
      <use xlink:href="#TimesNewRomanPSMT-45"/>
      <use xlink:href="#TimesNewRomanPSMT-72" transform="translate(61.083984 0)"/>
      <use xlink:href="#TimesNewRomanPSMT-72" transform="translate(94.384766 0)"/>
      <use xlink:href="#TimesNewRomanPSMT-6f" transform="translate(127.685547 0)"/>
      <use xlink:href="#TimesNewRomanPSMT-72" transform="translate(177.685547 0)"/>
     </g>
    </g>
    <g id="patch_10">
     <path d="M 49.79 74.398125 
L 69.79 74.398125 
L 69.79 67.398125 
L 49.79 67.398125 
z
" style="fill: #e8bc60"/>
    </g>
    <g id="text_14">
     <!-- Premature -->
     <g transform="translate(77.79 74.398125) scale(0.1 -0.1)">
      <defs>
       <path id="TimesNewRomanPSMT-6d" d="M 1050 2338 
Q 1363 2650 1419 2697 
Q 1559 2816 1721 2881 
Q 1884 2947 2044 2947 
Q 2313 2947 2506 2790 
Q 2700 2634 2766 2338 
Q 3088 2713 3309 2830 
Q 3531 2947 3766 2947 
Q 3994 2947 4170 2830 
Q 4347 2713 4450 2447 
Q 4519 2266 4519 1878 
L 4519 647 
Q 4519 378 4559 278 
Q 4591 209 4675 161 
Q 4759 113 4950 113 
L 4950 0 
L 3538 0 
L 3538 113 
L 3597 113 
Q 3781 113 3884 184 
Q 3956 234 3988 344 
Q 4000 397 4000 647 
L 4000 1878 
Q 4000 2228 3916 2372 
Q 3794 2572 3525 2572 
Q 3359 2572 3192 2489 
Q 3025 2406 2788 2181 
L 2781 2147 
L 2788 2013 
L 2788 647 
Q 2788 353 2820 281 
Q 2853 209 2943 161 
Q 3034 113 3253 113 
L 3253 0 
L 1806 0 
L 1806 113 
Q 2044 113 2133 169 
Q 2222 225 2256 338 
Q 2272 391 2272 647 
L 2272 1878 
Q 2272 2228 2169 2381 
Q 2031 2581 1784 2581 
Q 1616 2581 1450 2491 
Q 1191 2353 1050 2181 
L 1050 647 
Q 1050 366 1089 281 
Q 1128 197 1204 155 
Q 1281 113 1516 113 
L 1516 0 
L 100 0 
L 100 113 
Q 297 113 375 155 
Q 453 197 493 289 
Q 534 381 534 647 
L 534 1741 
Q 534 2213 506 2350 
Q 484 2453 437 2492 
Q 391 2531 309 2531 
Q 222 2531 100 2484 
L 53 2597 
L 916 2947 
L 1050 2947 
L 1050 2338 
z
" transform="scale(0.015625)"/>
      </defs>
      <use xlink:href="#TimesNewRomanPSMT-50"/>
      <use xlink:href="#TimesNewRomanPSMT-72" transform="translate(55.615234 0)"/>
      <use xlink:href="#TimesNewRomanPSMT-65" transform="translate(88.916016 0)"/>
      <use xlink:href="#TimesNewRomanPSMT-6d" transform="translate(133.300781 0)"/>
      <use xlink:href="#TimesNewRomanPSMT-61" transform="translate(211.083984 0)"/>
      <use xlink:href="#TimesNewRomanPSMT-74" transform="translate(255.46875 0)"/>
      <use xlink:href="#TimesNewRomanPSMT-75" transform="translate(283.251953 0)"/>
      <use xlink:href="#TimesNewRomanPSMT-72" transform="translate(333.251953 0)"/>
      <use xlink:href="#TimesNewRomanPSMT-65" transform="translate(366.552734 0)"/>
     </g>
    </g>
    <g id="patch_11">
     <path d="M 49.79 88.537188 
L 69.79 88.537188 
L 69.79 81.537188 
L 49.79 81.537188 
z
" style="fill: #8d5993"/>
    </g>
    <g id="text_15">
     <!-- Stepomission -->
     <g transform="translate(77.79 88.537188) scale(0.1 -0.1)">
      <use xlink:href="#TimesNewRomanPSMT-53"/>
      <use xlink:href="#TimesNewRomanPSMT-74" transform="translate(55.615234 0)"/>
      <use xlink:href="#TimesNewRomanPSMT-65" transform="translate(83.398438 0)"/>
      <use xlink:href="#TimesNewRomanPSMT-70" transform="translate(127.783203 0)"/>
      <use xlink:href="#TimesNewRomanPSMT-6f" transform="translate(177.783203 0)"/>
      <use xlink:href="#TimesNewRomanPSMT-6d" transform="translate(227.783203 0)"/>
      <use xlink:href="#TimesNewRomanPSMT-69" transform="translate(305.566406 0)"/>
      <use xlink:href="#TimesNewRomanPSMT-73" transform="translate(333.349609 0)"/>
      <use xlink:href="#TimesNewRomanPSMT-73" transform="translate(372.265625 0)"/>
      <use xlink:href="#TimesNewRomanPSMT-69" transform="translate(411.181641 0)"/>
      <use xlink:href="#TimesNewRomanPSMT-6f" transform="translate(438.964844 0)"/>
      <use xlink:href="#TimesNewRomanPSMT-6e" transform="translate(488.964844 0)"/>
     </g>
    </g>
   </g>
  </g>
 </g>
 <defs>
  <clipPath id="p004e137e40">
   <rect x="40.79" y="30.12" width="629.732826" height="501.4"/>
  </clipPath>
 </defs>
</svg>
