<?xml version="1.0" encoding="utf-8" standalone="no"?>
<!DOCTYPE svg PUBLIC "-//W3C//DTD SVG 1.1//EN"
  "http://www.w3.org/Graphics/SVG/1.1/DTD/svg11.dtd">
<svg xmlns:xlink="http://www.w3.org/1999/xlink" width="720pt" height="576pt" viewBox="0 0 720 576" xmlns="http://www.w3.org/2000/svg" version="1.1">
 <metadata>
  <rdf:RDF xmlns:dc="http://purl.org/dc/elements/1.1/" xmlns:cc="http://creativecommons.org/ns#" xmlns:rdf="http://www.w3.org/1999/02/22-rdf-syntax-ns#">
   <cc:Work>
    <dc:type rdf:resource="http://purl.org/dc/dcmitype/StillImage"/>
    <dc:date>2025-06-27T15:16:02.866307</dc:date>
    <dc:format>image/svg+xml</dc:format>
    <dc:creator>
     <cc:Agent>
      <dc:title>Matplotlib v3.10.3, https://matplotlib.org/</dc:title>
     </cc:Agent>
    </dc:creator>
   </cc:Work>
  </rdf:RDF>
 </metadata>
 <defs>
  <style type="text/css">*{stroke-linejoin: round; stroke-linecap: butt}</style>
 </defs>
 <g id="figure_1">
  <g id="patch_1">
   <path d="M 0 576 
L 720 576 
L 720 0 
L 0 0 
z
" style="fill: #ffffff"/>
  </g>
  <g id="axes_1">
   <g id="patch_2">
    <path d="M 40.79 531.52 
L 664.892589 531.52 
L 664.892589 30.12 
L 40.79 30.12 
z
" style="fill: #ffffff"/>
   </g>
   <g id="FillBetweenPolyCollection_1">
    <path d="M 40.79 280.82 
L 40.79 531.52 
L 43.958033 531.52 
L 47.126067 531.52 
L 50.2941 531.52 
L 53.462134 531.52 
L 56.630167 531.52 
L 59.798201 531.52 
L 62.966234 531.52 
L 66.134268 531.52 
L 69.302301 531.52 
L 72.470334 531.52 
L 75.638368 531.52 
L 78.806401 531.52 
L 81.974435 531.52 
L 85.142468 531.52 
L 88.310502 531.52 
L 91.478535 531.52 
L 94.646569 531.52 
L 97.814602 531.52 
L 100.982635 531.52 
L 104.150669 531.52 
L 107.318702 531.52 
L 110.486736 531.52 
L 113.654769 531.52 
L 116.822803 531.52 
L 119.990836 531.52 
L 123.15887 531.52 
L 126.326903 531.52 
L 129.494936 531.52 
L 132.66297 531.52 
L 135.831003 531.52 
L 138.999037 531.52 
L 142.16707 531.52 
L 145.335104 531.52 
L 148.503137 531.52 
L 151.671171 531.52 
L 154.839204 531.52 
L 158.007237 531.52 
L 161.175271 531.52 
L 164.343304 531.52 
L 167.511338 531.52 
L 170.679371 531.52 
L 173.847405 531.52 
L 177.015438 531.52 
L 180.183472 531.52 
L 183.351505 531.52 
L 186.519539 531.52 
L 189.687572 531.52 
L 192.855605 531.52 
L 196.023639 531.52 
L 199.191672 531.52 
L 202.359706 531.52 
L 205.527739 531.52 
L 208.695773 531.52 
L 211.863806 531.52 
L 215.03184 531.52 
L 218.199873 531.52 
L 221.367906 531.52 
L 224.53594 531.52 
L 227.703973 531.52 
L 230.872007 531.52 
L 234.04004 531.52 
L 237.208074 531.52 
L 240.376107 531.52 
L 243.544141 531.52 
L 246.712174 531.52 
L 249.880207 531.52 
L 253.048241 531.52 
L 256.216274 531.52 
L 259.384308 531.52 
L 262.552341 531.52 
L 265.720375 531.52 
L 268.888408 531.52 
L 272.056442 531.52 
L 275.224475 531.52 
L 278.392508 531.52 
L 281.560542 531.52 
L 284.728575 531.52 
L 287.896609 531.52 
L 291.064642 531.52 
L 294.232676 531.52 
L 297.400709 531.52 
L 300.568743 531.52 
L 303.736776 531.52 
L 306.904809 531.52 
L 310.072843 531.52 
L 313.240876 531.52 
L 316.40891 531.52 
L 319.576943 531.52 
L 322.744977 531.52 
L 325.91301 531.52 
L 329.081044 531.52 
L 332.249077 531.52 
L 335.41711 531.52 
L 338.585144 531.52 
L 341.753177 531.52 
L 344.921211 531.52 
L 348.089244 531.52 
L 351.257278 531.52 
L 354.425311 531.52 
L 357.593345 531.52 
L 360.761378 531.52 
L 363.929411 531.52 
L 367.097445 531.52 
L 370.265478 531.52 
L 373.433512 531.52 
L 376.601545 531.52 
L 379.769579 531.52 
L 382.937612 531.52 
L 386.105646 531.52 
L 389.273679 531.52 
L 392.441712 531.52 
L 395.609746 531.52 
L 398.777779 531.52 
L 401.945813 531.52 
L 405.113846 531.52 
L 408.28188 531.52 
L 411.449913 531.52 
L 414.617947 531.52 
L 417.78598 531.52 
L 420.954014 531.52 
L 424.122047 531.52 
L 427.29008 531.52 
L 430.458114 531.52 
L 433.626147 531.52 
L 436.794181 531.52 
L 439.962214 531.52 
L 443.130248 531.52 
L 446.298281 531.52 
L 449.466315 531.52 
L 452.634348 531.52 
L 455.802381 531.52 
L 458.970415 531.52 
L 462.138448 531.52 
L 465.306482 531.52 
L 468.474515 531.52 
L 471.642549 531.52 
L 474.810582 531.52 
L 477.978616 531.52 
L 481.146649 531.52 
L 484.314682 531.52 
L 487.482716 531.52 
L 490.650749 531.52 
L 493.818783 531.52 
L 496.986816 531.52 
L 500.15485 531.52 
L 503.322883 531.52 
L 506.490917 531.52 
L 509.65895 531.52 
L 512.826983 531.52 
L 515.995017 531.52 
L 519.16305 531.52 
L 522.331084 531.52 
L 525.499117 531.52 
L 528.667151 531.52 
L 531.835184 531.52 
L 535.003218 531.52 
L 538.171251 531.52 
L 541.339284 531.52 
L 544.507318 531.52 
L 547.675351 531.52 
L 550.843385 531.52 
L 554.011418 531.52 
L 557.179452 531.52 
L 560.347485 531.52 
L 563.515519 531.52 
L 566.683552 531.52 
L 569.851585 531.52 
L 573.019619 531.52 
L 576.187652 531.52 
L 579.355686 531.52 
L 582.523719 531.52 
L 585.691753 531.52 
L 588.859786 531.52 
L 592.02782 531.52 
L 595.195853 531.52 
L 598.363886 531.52 
L 601.53192 531.52 
L 604.699953 531.52 
L 607.867987 531.52 
L 611.03602 531.52 
L 614.204054 531.52 
L 617.372087 531.52 
L 620.540121 531.52 
L 623.708154 531.52 
L 626.876187 531.52 
L 630.044221 531.52 
L 633.212254 531.52 
L 636.380288 531.52 
L 639.548321 531.52 
L 642.716355 531.52 
L 645.884388 531.52 
L 649.052422 531.52 
L 652.220455 531.52 
L 655.388488 531.52 
L 658.556522 531.52 
L 661.724555 531.52 
L 664.892589 531.52 
L 664.892589 101.748571 
L 664.892589 101.748571 
L 661.724555 30.12 
L 658.556522 197.253333 
L 655.388488 531.52 
L 652.220455 230.68 
L 649.052422 222.966154 
L 645.884388 280.82 
L 642.716355 80.26 
L 639.548321 531.52 
L 636.380288 230.68 
L 633.212254 330.96 
L 630.044221 280.82 
L 626.876187 30.12 
L 623.708154 280.82 
L 620.540121 162.067368 
L 617.372087 218.145 
L 614.204054 155.47 
L 611.03602 531.52 
L 607.867987 280.82 
L 604.699953 197.253333 
L 601.53192 30.12 
L 598.363886 30.12 
L 595.195853 531.52 
L 592.02782 30.12 
L 588.859786 30.12 
L 585.691753 30.12 
L 582.523719 166.865455 
L 579.355686 130.4 
L 576.187652 30.12 
L 573.019619 141.542222 
L 569.851585 30.12 
L 566.683552 124.1325 
L 563.515519 155.47 
L 560.347485 531.52 
L 557.179452 280.82 
L 554.011418 30.12 
L 550.843385 30.12 
L 547.675351 30.12 
L 544.507318 30.12 
L 541.339284 113.686667 
L 538.171251 531.52 
L 535.003218 30.12 
L 531.835184 280.82 
L 528.667151 75.701818 
L 525.499117 30.12 
L 522.331084 85.831111 
L 519.16305 230.68 
L 515.995017 130.4 
L 512.826983 280.82 
L 509.65895 197.253333 
L 506.490917 30.12 
L 503.322883 197.253333 
L 500.15485 122.971852 
L 496.986816 30.12 
L 493.818783 30.12 
L 490.650749 30.12 
L 487.482716 30.12 
L 484.314682 145.827692 
L 481.146649 230.68 
L 477.978616 197.253333 
L 474.810582 30.12 
L 471.642549 30.12 
L 468.474515 30.12 
L 465.306482 155.47 
L 462.138448 280.82 
L 458.970415 531.52 
L 455.802381 30.12 
L 452.634348 406.17 
L 449.466315 239.036667 
L 446.298281 531.52 
L 443.130248 364.386667 
L 439.962214 30.12 
L 436.794181 30.12 
L 433.626147 30.12 
L 430.458114 30.12 
L 427.29008 155.47 
L 424.122047 101.748571 
L 420.954014 330.96 
L 417.78598 30.12 
L 414.617947 30.12 
L 411.449913 30.12 
L 408.28188 30.12 
L 405.113846 30.12 
L 401.945813 30.12 
L 398.777779 30.12 
L 395.609746 96.973333 
L 392.441712 180.54 
L 389.273679 280.82 
L 386.105646 30.12 
L 382.937612 130.4 
L 379.769579 30.12 
L 376.601545 30.12 
L 373.433512 30.12 
L 370.265478 155.47 
L 367.097445 30.12 
L 363.929411 140.597966 
L 360.761378 30.12 
L 357.593345 197.253333 
L 354.425311 197.253333 
L 351.257278 155.47 
L 348.089244 228.347907 
L 344.921211 230.68 
L 341.753177 173.377143 
L 338.585144 280.82 
L 335.41711 30.12 
L 332.249077 531.52 
L 329.081044 273.22303 
L 325.91301 230.68 
L 322.744977 30.12 
L 319.576943 230.68 
L 316.40891 531.52 
L 313.240876 141.542222 
L 310.072843 225.788293 
L 306.904809 155.47 
L 303.736776 101.748571 
L 300.568743 280.82 
L 297.400709 155.47 
L 294.232676 30.12 
L 291.064642 30.12 
L 287.896609 225.108889 
L 284.728575 242.250769 
L 281.560542 236.578824 
L 278.392508 188.456842 
L 275.224475 280.82 
L 272.056442 141.542222 
L 268.888408 173.377143 
L 265.720375 30.12 
L 262.552341 159.513548 
L 259.384308 183.325556 
L 256.216274 197.253333 
L 253.048241 364.386667 
L 249.880207 173.377143 
L 246.712174 166.865455 
L 243.544141 249.041127 
L 240.376107 258.029091 
L 237.208074 155.47 
L 234.04004 531.52 
L 230.872007 30.12 
L 227.703973 245.005714 
L 224.53594 197.253333 
L 221.367906 207.084706 
L 218.199873 30.12 
L 215.03184 230.68 
L 211.863806 249.4825 
L 208.695773 239.036667 
L 205.527739 280.82 
L 202.359706 268.881905 
L 199.191672 30.12 
L 196.023639 248.12 
L 192.855605 197.253333 
L 189.687572 258.029091 
L 186.519539 30.12 
L 183.351505 531.52 
L 180.183472 173.377143 
L 177.015438 207.084706 
L 173.847405 30.12 
L 170.679371 30.12 
L 167.511338 155.47 
L 164.343304 364.386667 
L 161.175271 197.253333 
L 158.007237 237.595862 
L 154.839204 249.4825 
L 151.671171 280.82 
L 148.503137 431.24 
L 145.335104 182.72 
L 142.16707 30.12 
L 138.999037 30.12 
L 135.831003 173.377143 
L 132.66297 30.12 
L 129.494936 330.96 
L 126.326903 260.923175 
L 123.15887 206.287568 
L 119.990836 197.253333 
L 116.822803 152.082162 
L 113.654769 364.386667 
L 110.486736 531.52 
L 107.318702 113.686667 
L 104.150669 227.641212 
L 100.982635 295.567059 
L 97.814602 197.253333 
L 94.646569 252.964444 
L 91.478535 30.12 
L 88.310502 180.54 
L 85.142468 531.52 
L 81.974435 230.68 
L 78.806401 30.12 
L 75.638368 155.47 
L 72.470334 197.253333 
L 69.302301 230.68 
L 66.134268 197.253333 
L 62.966234 255.75 
L 59.798201 218.145 
L 56.630167 280.82 
L 53.462134 180.54 
L 50.2941 218.145 
L 47.126067 276.840635 
L 43.958033 338.673846 
L 40.79 280.82 
z
" clip-path="url(#pe28ce5dad9)" style="fill: #5386b6"/>
   </g>
   <g id="FillBetweenPolyCollection_2">
    <path d="M 40.79 155.47 
L 40.79 280.82 
L 43.958033 338.673846 
L 47.126067 276.840635 
L 50.2941 218.145 
L 53.462134 180.54 
L 56.630167 280.82 
L 59.798201 218.145 
L 62.966234 255.75 
L 66.134268 197.253333 
L 69.302301 230.68 
L 72.470334 197.253333 
L 75.638368 155.47 
L 78.806401 30.12 
L 81.974435 230.68 
L 85.142468 531.52 
L 88.310502 180.54 
L 91.478535 30.12 
L 94.646569 252.964444 
L 97.814602 197.253333 
L 100.982635 295.567059 
L 104.150669 227.641212 
L 107.318702 113.686667 
L 110.486736 531.52 
L 113.654769 364.386667 
L 116.822803 152.082162 
L 119.990836 197.253333 
L 123.15887 206.287568 
L 126.326903 260.923175 
L 129.494936 330.96 
L 132.66297 30.12 
L 135.831003 173.377143 
L 138.999037 30.12 
L 142.16707 30.12 
L 145.335104 182.72 
L 148.503137 431.24 
L 151.671171 280.82 
L 154.839204 249.4825 
L 158.007237 237.595862 
L 161.175271 197.253333 
L 164.343304 364.386667 
L 167.511338 155.47 
L 170.679371 30.12 
L 173.847405 30.12 
L 177.015438 207.084706 
L 180.183472 173.377143 
L 183.351505 531.52 
L 186.519539 30.12 
L 189.687572 258.029091 
L 192.855605 197.253333 
L 196.023639 248.12 
L 199.191672 30.12 
L 202.359706 268.881905 
L 205.527739 280.82 
L 208.695773 239.036667 
L 211.863806 249.4825 
L 215.03184 230.68 
L 218.199873 30.12 
L 221.367906 207.084706 
L 224.53594 197.253333 
L 227.703973 245.005714 
L 230.872007 30.12 
L 234.04004 531.52 
L 237.208074 155.47 
L 240.376107 258.029091 
L 243.544141 249.041127 
L 246.712174 166.865455 
L 249.880207 173.377143 
L 253.048241 364.386667 
L 256.216274 197.253333 
L 259.384308 183.325556 
L 262.552341 159.513548 
L 265.720375 30.12 
L 268.888408 173.377143 
L 272.056442 141.542222 
L 275.224475 280.82 
L 278.392508 188.456842 
L 281.560542 236.578824 
L 284.728575 242.250769 
L 287.896609 225.108889 
L 291.064642 30.12 
L 294.232676 30.12 
L 297.400709 155.47 
L 300.568743 280.82 
L 303.736776 101.748571 
L 306.904809 155.47 
L 310.072843 225.788293 
L 313.240876 141.542222 
L 316.40891 531.52 
L 319.576943 230.68 
L 322.744977 30.12 
L 325.91301 230.68 
L 329.081044 273.22303 
L 332.249077 531.52 
L 335.41711 30.12 
L 338.585144 280.82 
L 341.753177 173.377143 
L 344.921211 230.68 
L 348.089244 228.347907 
L 351.257278 155.47 
L 354.425311 197.253333 
L 357.593345 197.253333 
L 360.761378 30.12 
L 363.929411 140.597966 
L 367.097445 30.12 
L 370.265478 155.47 
L 373.433512 30.12 
L 376.601545 30.12 
L 379.769579 30.12 
L 382.937612 130.4 
L 386.105646 30.12 
L 389.273679 280.82 
L 392.441712 180.54 
L 395.609746 96.973333 
L 398.777779 30.12 
L 401.945813 30.12 
L 405.113846 30.12 
L 408.28188 30.12 
L 411.449913 30.12 
L 414.617947 30.12 
L 417.78598 30.12 
L 420.954014 330.96 
L 424.122047 101.748571 
L 427.29008 155.47 
L 430.458114 30.12 
L 433.626147 30.12 
L 436.794181 30.12 
L 439.962214 30.12 
L 443.130248 364.386667 
L 446.298281 531.52 
L 449.466315 239.036667 
L 452.634348 406.17 
L 455.802381 30.12 
L 458.970415 531.52 
L 462.138448 280.82 
L 465.306482 155.47 
L 468.474515 30.12 
L 471.642549 30.12 
L 474.810582 30.12 
L 477.978616 197.253333 
L 481.146649 230.68 
L 484.314682 145.827692 
L 487.482716 30.12 
L 490.650749 30.12 
L 493.818783 30.12 
L 496.986816 30.12 
L 500.15485 122.971852 
L 503.322883 197.253333 
L 506.490917 30.12 
L 509.65895 197.253333 
L 512.826983 280.82 
L 515.995017 130.4 
L 519.16305 230.68 
L 522.331084 85.831111 
L 525.499117 30.12 
L 528.667151 75.701818 
L 531.835184 280.82 
L 535.003218 30.12 
L 538.171251 531.52 
L 541.339284 113.686667 
L 544.507318 30.12 
L 547.675351 30.12 
L 550.843385 30.12 
L 554.011418 30.12 
L 557.179452 280.82 
L 560.347485 531.52 
L 563.515519 155.47 
L 566.683552 124.1325 
L 569.851585 30.12 
L 573.019619 141.542222 
L 576.187652 30.12 
L 579.355686 130.4 
L 582.523719 166.865455 
L 585.691753 30.12 
L 588.859786 30.12 
L 592.02782 30.12 
L 595.195853 531.52 
L 598.363886 30.12 
L 601.53192 30.12 
L 604.699953 197.253333 
L 607.867987 280.82 
L 611.03602 531.52 
L 614.204054 155.47 
L 617.372087 218.145 
L 620.540121 162.067368 
L 623.708154 280.82 
L 626.876187 30.12 
L 630.044221 280.82 
L 633.212254 330.96 
L 636.380288 230.68 
L 639.548321 531.52 
L 642.716355 80.26 
L 645.884388 280.82 
L 649.052422 222.966154 
L 652.220455 230.68 
L 655.388488 531.52 
L 658.556522 197.253333 
L 661.724555 30.12 
L 664.892589 101.748571 
L 664.892589 30.12 
L 664.892589 30.12 
L 661.724555 30.12 
L 658.556522 30.12 
L 655.388488 30.12 
L 652.220455 80.26 
L 649.052422 30.12 
L 645.884388 30.12 
L 642.716355 30.12 
L 639.548321 30.12 
L 636.380288 30.12 
L 633.212254 130.4 
L 630.044221 155.47 
L 626.876187 30.12 
L 623.708154 92.795 
L 620.540121 56.509474 
L 617.372087 92.795 
L 614.204054 30.12 
L 611.03602 30.12 
L 607.867987 30.12 
L 604.699953 30.12 
L 601.53192 30.12 
L 598.363886 30.12 
L 595.195853 30.12 
L 592.02782 30.12 
L 588.859786 30.12 
L 585.691753 30.12 
L 582.523719 30.12 
L 579.355686 30.12 
L 576.187652 30.12 
L 573.019619 30.12 
L 569.851585 30.12 
L 566.683552 30.12 
L 563.515519 71.903333 
L 560.347485 30.12 
L 557.179452 30.12 
L 554.011418 30.12 
L 550.843385 30.12 
L 547.675351 30.12 
L 544.507318 30.12 
L 541.339284 30.12 
L 538.171251 30.12 
L 535.003218 30.12 
L 531.835184 30.12 
L 528.667151 30.12 
L 525.499117 30.12 
L 522.331084 30.12 
L 519.16305 30.12 
L 515.995017 30.12 
L 512.826983 30.12 
L 509.65895 30.12 
L 506.490917 30.12 
L 503.322883 30.12 
L 500.15485 30.12 
L 496.986816 30.12 
L 493.818783 30.12 
L 490.650749 30.12 
L 487.482716 30.12 
L 484.314682 68.689231 
L 481.146649 30.12 
L 477.978616 197.253333 
L 474.810582 30.12 
L 471.642549 30.12 
L 468.474515 30.12 
L 465.306482 30.12 
L 462.138448 30.12 
L 458.970415 30.12 
L 455.802381 30.12 
L 452.634348 30.12 
L 449.466315 30.12 
L 446.298281 30.12 
L 443.130248 30.12 
L 439.962214 30.12 
L 436.794181 30.12 
L 433.626147 30.12 
L 430.458114 30.12 
L 427.29008 30.12 
L 424.122047 30.12 
L 420.954014 30.12 
L 417.78598 30.12 
L 414.617947 30.12 
L 411.449913 30.12 
L 408.28188 30.12 
L 405.113846 30.12 
L 401.945813 30.12 
L 398.777779 30.12 
L 395.609746 30.12 
L 392.441712 30.12 
L 389.273679 30.12 
L 386.105646 30.12 
L 382.937612 30.12 
L 379.769579 30.12 
L 376.601545 30.12 
L 373.433512 30.12 
L 370.265478 30.12 
L 367.097445 30.12 
L 363.929411 38.618305 
L 360.761378 30.12 
L 357.593345 30.12 
L 354.425311 30.12 
L 351.257278 30.12 
L 348.089244 30.12 
L 344.921211 30.12 
L 341.753177 30.12 
L 338.585144 30.12 
L 335.41711 30.12 
L 332.249077 30.12 
L 329.081044 60.507879 
L 325.91301 30.12 
L 322.744977 30.12 
L 319.576943 30.12 
L 316.40891 30.12 
L 313.240876 30.12 
L 310.072843 42.349268 
L 306.904809 155.47 
L 303.736776 30.12 
L 300.568743 65.934286 
L 297.400709 30.12 
L 294.232676 30.12 
L 291.064642 30.12 
L 287.896609 30.12 
L 284.728575 49.404615 
L 281.560542 30.12 
L 278.392508 30.12 
L 275.224475 30.12 
L 272.056442 44.047778 
L 268.888408 30.12 
L 265.720375 30.12 
L 262.552341 30.12 
L 259.384308 30.12 
L 256.216274 30.12 
L 253.048241 197.253333 
L 249.880207 30.12 
L 246.712174 30.12 
L 243.544141 30.12 
L 240.376107 60.507879 
L 237.208074 30.12 
L 234.04004 30.12 
L 230.872007 30.12 
L 227.703973 101.748571 
L 224.53594 30.12 
L 221.367906 89.108235 
L 218.199873 30.12 
L 215.03184 30.12 
L 211.863806 30.12 
L 208.695773 44.047778 
L 205.527739 30.12 
L 202.359706 30.12 
L 199.191672 30.12 
L 196.023639 30.12 
L 192.855605 30.12 
L 189.687572 30.12 
L 186.519539 30.12 
L 183.351505 30.12 
L 180.183472 101.748571 
L 177.015438 49.782745 
L 173.847405 30.12 
L 170.679371 30.12 
L 167.511338 30.12 
L 164.343304 30.12 
L 161.175271 197.253333 
L 158.007237 47.409655 
L 154.839204 30.12 
L 151.671171 30.12 
L 148.503137 130.4 
L 145.335104 30.12 
L 142.16707 30.12 
L 138.999037 30.12 
L 135.831003 30.12 
L 132.66297 30.12 
L 129.494936 30.12 
L 126.326903 38.07873 
L 123.15887 30.12 
L 119.990836 197.253333 
L 116.822803 43.671351 
L 113.654769 30.12 
L 110.486736 30.12 
L 107.318702 30.12 
L 104.150669 30.12 
L 100.982635 44.867059 
L 97.814602 30.12 
L 94.646569 48.69037 
L 91.478535 30.12 
L 88.310502 30.12 
L 85.142468 280.82 
L 81.974435 30.12 
L 78.806401 30.12 
L 75.638368 30.12 
L 72.470334 30.12 
L 69.302301 30.12 
L 66.134268 30.12 
L 62.966234 55.19 
L 59.798201 30.12 
L 56.630167 30.12 
L 53.462134 80.26 
L 50.2941 51.011667 
L 47.126067 38.07873 
L 43.958033 68.689231 
L 40.79 155.47 
z
" clip-path="url(#pe28ce5dad9)" style="fill: #d57459"/>
   </g>
   <g id="FillBetweenPolyCollection_3">
    <path d="M 40.79 155.47 
L 40.79 155.47 
L 43.958033 68.689231 
L 47.126067 38.07873 
L 50.2941 51.011667 
L 53.462134 80.26 
L 56.630167 30.12 
L 59.798201 30.12 
L 62.966234 55.19 
L 66.134268 30.12 
L 69.302301 30.12 
L 72.470334 30.12 
L 75.638368 30.12 
L 78.806401 30.12 
L 81.974435 30.12 
L 85.142468 280.82 
L 88.310502 30.12 
L 91.478535 30.12 
L 94.646569 48.69037 
L 97.814602 30.12 
L 100.982635 44.867059 
L 104.150669 30.12 
L 107.318702 30.12 
L 110.486736 30.12 
L 113.654769 30.12 
L 116.822803 43.671351 
L 119.990836 197.253333 
L 123.15887 30.12 
L 126.326903 38.07873 
L 129.494936 30.12 
L 132.66297 30.12 
L 135.831003 30.12 
L 138.999037 30.12 
L 142.16707 30.12 
L 145.335104 30.12 
L 148.503137 130.4 
L 151.671171 30.12 
L 154.839204 30.12 
L 158.007237 47.409655 
L 161.175271 197.253333 
L 164.343304 30.12 
L 167.511338 30.12 
L 170.679371 30.12 
L 173.847405 30.12 
L 177.015438 49.782745 
L 180.183472 101.748571 
L 183.351505 30.12 
L 186.519539 30.12 
L 189.687572 30.12 
L 192.855605 30.12 
L 196.023639 30.12 
L 199.191672 30.12 
L 202.359706 30.12 
L 205.527739 30.12 
L 208.695773 44.047778 
L 211.863806 30.12 
L 215.03184 30.12 
L 218.199873 30.12 
L 221.367906 89.108235 
L 224.53594 30.12 
L 227.703973 101.748571 
L 230.872007 30.12 
L 234.04004 30.12 
L 237.208074 30.12 
L 240.376107 60.507879 
L 243.544141 30.12 
L 246.712174 30.12 
L 249.880207 30.12 
L 253.048241 197.253333 
L 256.216274 30.12 
L 259.384308 30.12 
L 262.552341 30.12 
L 265.720375 30.12 
L 268.888408 30.12 
L 272.056442 44.047778 
L 275.224475 30.12 
L 278.392508 30.12 
L 281.560542 30.12 
L 284.728575 49.404615 
L 287.896609 30.12 
L 291.064642 30.12 
L 294.232676 30.12 
L 297.400709 30.12 
L 300.568743 65.934286 
L 303.736776 30.12 
L 306.904809 155.47 
L 310.072843 42.349268 
L 313.240876 30.12 
L 316.40891 30.12 
L 319.576943 30.12 
L 322.744977 30.12 
L 325.91301 30.12 
L 329.081044 60.507879 
L 332.249077 30.12 
L 335.41711 30.12 
L 338.585144 30.12 
L 341.753177 30.12 
L 344.921211 30.12 
L 348.089244 30.12 
L 351.257278 30.12 
L 354.425311 30.12 
L 357.593345 30.12 
L 360.761378 30.12 
L 363.929411 38.618305 
L 367.097445 30.12 
L 370.265478 30.12 
L 373.433512 30.12 
L 376.601545 30.12 
L 379.769579 30.12 
L 382.937612 30.12 
L 386.105646 30.12 
L 389.273679 30.12 
L 392.441712 30.12 
L 395.609746 30.12 
L 398.777779 30.12 
L 401.945813 30.12 
L 405.113846 30.12 
L 408.28188 30.12 
L 411.449913 30.12 
L 414.617947 30.12 
L 417.78598 30.12 
L 420.954014 30.12 
L 424.122047 30.12 
L 427.29008 30.12 
L 430.458114 30.12 
L 433.626147 30.12 
L 436.794181 30.12 
L 439.962214 30.12 
L 443.130248 30.12 
L 446.298281 30.12 
L 449.466315 30.12 
L 452.634348 30.12 
L 455.802381 30.12 
L 458.970415 30.12 
L 462.138448 30.12 
L 465.306482 30.12 
L 468.474515 30.12 
L 471.642549 30.12 
L 474.810582 30.12 
L 477.978616 197.253333 
L 481.146649 30.12 
L 484.314682 68.689231 
L 487.482716 30.12 
L 490.650749 30.12 
L 493.818783 30.12 
L 496.986816 30.12 
L 500.15485 30.12 
L 503.322883 30.12 
L 506.490917 30.12 
L 509.65895 30.12 
L 512.826983 30.12 
L 515.995017 30.12 
L 519.16305 30.12 
L 522.331084 30.12 
L 525.499117 30.12 
L 528.667151 30.12 
L 531.835184 30.12 
L 535.003218 30.12 
L 538.171251 30.12 
L 541.339284 30.12 
L 544.507318 30.12 
L 547.675351 30.12 
L 550.843385 30.12 
L 554.011418 30.12 
L 557.179452 30.12 
L 560.347485 30.12 
L 563.515519 71.903333 
L 566.683552 30.12 
L 569.851585 30.12 
L 573.019619 30.12 
L 576.187652 30.12 
L 579.355686 30.12 
L 582.523719 30.12 
L 585.691753 30.12 
L 588.859786 30.12 
L 592.02782 30.12 
L 595.195853 30.12 
L 598.363886 30.12 
L 601.53192 30.12 
L 604.699953 30.12 
L 607.867987 30.12 
L 611.03602 30.12 
L 614.204054 30.12 
L 617.372087 92.795 
L 620.540121 56.509474 
L 623.708154 92.795 
L 626.876187 30.12 
L 630.044221 155.47 
L 633.212254 130.4 
L 636.380288 30.12 
L 639.548321 30.12 
L 642.716355 30.12 
L 645.884388 30.12 
L 649.052422 30.12 
L 652.220455 80.26 
L 655.388488 30.12 
L 658.556522 30.12 
L 661.724555 30.12 
L 664.892589 30.12 
L 664.892589 30.12 
L 664.892589 30.12 
L 661.724555 30.12 
L 658.556522 30.12 
L 655.388488 30.12 
L 652.220455 30.12 
L 649.052422 30.12 
L 645.884388 30.12 
L 642.716355 30.12 
L 639.548321 30.12 
L 636.380288 30.12 
L 633.212254 30.12 
L 630.044221 30.12 
L 626.876187 30.12 
L 623.708154 92.795 
L 620.540121 30.12 
L 617.372087 30.12 
L 614.204054 30.12 
L 611.03602 30.12 
L 607.867987 30.12 
L 604.699953 30.12 
L 601.53192 30.12 
L 598.363886 30.12 
L 595.195853 30.12 
L 592.02782 30.12 
L 588.859786 30.12 
L 585.691753 30.12 
L 582.523719 30.12 
L 579.355686 30.12 
L 576.187652 30.12 
L 573.019619 30.12 
L 569.851585 30.12 
L 566.683552 30.12 
L 563.515519 71.903333 
L 560.347485 30.12 
L 557.179452 30.12 
L 554.011418 30.12 
L 550.843385 30.12 
L 547.675351 30.12 
L 544.507318 30.12 
L 541.339284 30.12 
L 538.171251 30.12 
L 535.003218 30.12 
L 531.835184 30.12 
L 528.667151 30.12 
L 525.499117 30.12 
L 522.331084 30.12 
L 519.16305 30.12 
L 515.995017 30.12 
L 512.826983 30.12 
L 509.65895 30.12 
L 506.490917 30.12 
L 503.322883 30.12 
L 500.15485 30.12 
L 496.986816 30.12 
L 493.818783 30.12 
L 490.650749 30.12 
L 487.482716 30.12 
L 484.314682 30.12 
L 481.146649 30.12 
L 477.978616 197.253333 
L 474.810582 30.12 
L 471.642549 30.12 
L 468.474515 30.12 
L 465.306482 30.12 
L 462.138448 30.12 
L 458.970415 30.12 
L 455.802381 30.12 
L 452.634348 30.12 
L 449.466315 30.12 
L 446.298281 30.12 
L 443.130248 30.12 
L 439.962214 30.12 
L 436.794181 30.12 
L 433.626147 30.12 
L 430.458114 30.12 
L 427.29008 30.12 
L 424.122047 30.12 
L 420.954014 30.12 
L 417.78598 30.12 
L 414.617947 30.12 
L 411.449913 30.12 
L 408.28188 30.12 
L 405.113846 30.12 
L 401.945813 30.12 
L 398.777779 30.12 
L 395.609746 30.12 
L 392.441712 30.12 
L 389.273679 30.12 
L 386.105646 30.12 
L 382.937612 30.12 
L 379.769579 30.12 
L 376.601545 30.12 
L 373.433512 30.12 
L 370.265478 30.12 
L 367.097445 30.12 
L 363.929411 30.12 
L 360.761378 30.12 
L 357.593345 30.12 
L 354.425311 30.12 
L 351.257278 30.12 
L 348.089244 30.12 
L 344.921211 30.12 
L 341.753177 30.12 
L 338.585144 30.12 
L 335.41711 30.12 
L 332.249077 30.12 
L 329.081044 30.12 
L 325.91301 30.12 
L 322.744977 30.12 
L 319.576943 30.12 
L 316.40891 30.12 
L 313.240876 30.12 
L 310.072843 30.12 
L 306.904809 30.12 
L 303.736776 30.12 
L 300.568743 65.934286 
L 297.400709 30.12 
L 294.232676 30.12 
L 291.064642 30.12 
L 287.896609 30.12 
L 284.728575 49.404615 
L 281.560542 30.12 
L 278.392508 30.12 
L 275.224475 30.12 
L 272.056442 30.12 
L 268.888408 30.12 
L 265.720375 30.12 
L 262.552341 30.12 
L 259.384308 30.12 
L 256.216274 30.12 
L 253.048241 197.253333 
L 249.880207 30.12 
L 246.712174 30.12 
L 243.544141 30.12 
L 240.376107 30.12 
L 237.208074 30.12 
L 234.04004 30.12 
L 230.872007 30.12 
L 227.703973 101.748571 
L 224.53594 30.12 
L 221.367906 59.614118 
L 218.199873 30.12 
L 215.03184 30.12 
L 211.863806 30.12 
L 208.695773 44.047778 
L 205.527739 30.12 
L 202.359706 30.12 
L 199.191672 30.12 
L 196.023639 30.12 
L 192.855605 30.12 
L 189.687572 30.12 
L 186.519539 30.12 
L 183.351505 30.12 
L 180.183472 101.748571 
L 177.015438 39.951373 
L 173.847405 30.12 
L 170.679371 30.12 
L 167.511338 30.12 
L 164.343304 30.12 
L 161.175271 197.253333 
L 158.007237 47.409655 
L 154.839204 30.12 
L 151.671171 30.12 
L 148.503137 130.4 
L 145.335104 30.12 
L 142.16707 30.12 
L 138.999037 30.12 
L 135.831003 30.12 
L 132.66297 30.12 
L 129.494936 30.12 
L 126.326903 30.12 
L 123.15887 30.12 
L 119.990836 197.253333 
L 116.822803 43.671351 
L 113.654769 30.12 
L 110.486736 30.12 
L 107.318702 30.12 
L 104.150669 30.12 
L 100.982635 30.12 
L 97.814602 30.12 
L 94.646569 30.12 
L 91.478535 30.12 
L 88.310502 30.12 
L 85.142468 30.12 
L 81.974435 30.12 
L 78.806401 30.12 
L 75.638368 30.12 
L 72.470334 30.12 
L 69.302301 30.12 
L 66.134268 30.12 
L 62.966234 30.12 
L 59.798201 30.12 
L 56.630167 30.12 
L 53.462134 30.12 
L 50.2941 51.011667 
L 47.126067 38.07873 
L 43.958033 68.689231 
L 40.79 155.47 
z
" clip-path="url(#pe28ce5dad9)" style="fill: #e8bc60"/>
   </g>
   <g id="FillBetweenPolyCollection_4">
    <path d="M 40.79 30.12 
L 40.79 155.47 
L 43.958033 68.689231 
L 47.126067 38.07873 
L 50.2941 51.011667 
L 53.462134 30.12 
L 56.630167 30.12 
L 59.798201 30.12 
L 62.966234 30.12 
L 66.134268 30.12 
L 69.302301 30.12 
L 72.470334 30.12 
L 75.638368 30.12 
L 78.806401 30.12 
L 81.974435 30.12 
L 85.142468 30.12 
L 88.310502 30.12 
L 91.478535 30.12 
L 94.646569 30.12 
L 97.814602 30.12 
L 100.982635 30.12 
L 104.150669 30.12 
L 107.318702 30.12 
L 110.486736 30.12 
L 113.654769 30.12 
L 116.822803 43.671351 
L 119.990836 197.253333 
L 123.15887 30.12 
L 126.326903 30.12 
L 129.494936 30.12 
L 132.66297 30.12 
L 135.831003 30.12 
L 138.999037 30.12 
L 142.16707 30.12 
L 145.335104 30.12 
L 148.503137 130.4 
L 151.671171 30.12 
L 154.839204 30.12 
L 158.007237 47.409655 
L 161.175271 197.253333 
L 164.343304 30.12 
L 167.511338 30.12 
L 170.679371 30.12 
L 173.847405 30.12 
L 177.015438 39.951373 
L 180.183472 101.748571 
L 183.351505 30.12 
L 186.519539 30.12 
L 189.687572 30.12 
L 192.855605 30.12 
L 196.023639 30.12 
L 199.191672 30.12 
L 202.359706 30.12 
L 205.527739 30.12 
L 208.695773 44.047778 
L 211.863806 30.12 
L 215.03184 30.12 
L 218.199873 30.12 
L 221.367906 59.614118 
L 224.53594 30.12 
L 227.703973 101.748571 
L 230.872007 30.12 
L 234.04004 30.12 
L 237.208074 30.12 
L 240.376107 30.12 
L 243.544141 30.12 
L 246.712174 30.12 
L 249.880207 30.12 
L 253.048241 197.253333 
L 256.216274 30.12 
L 259.384308 30.12 
L 262.552341 30.12 
L 265.720375 30.12 
L 268.888408 30.12 
L 272.056442 30.12 
L 275.224475 30.12 
L 278.392508 30.12 
L 281.560542 30.12 
L 284.728575 49.404615 
L 287.896609 30.12 
L 291.064642 30.12 
L 294.232676 30.12 
L 297.400709 30.12 
L 300.568743 65.934286 
L 303.736776 30.12 
L 306.904809 30.12 
L 310.072843 30.12 
L 313.240876 30.12 
L 316.40891 30.12 
L 319.576943 30.12 
L 322.744977 30.12 
L 325.91301 30.12 
L 329.081044 30.12 
L 332.249077 30.12 
L 335.41711 30.12 
L 338.585144 30.12 
L 341.753177 30.12 
L 344.921211 30.12 
L 348.089244 30.12 
L 351.257278 30.12 
L 354.425311 30.12 
L 357.593345 30.12 
L 360.761378 30.12 
L 363.929411 30.12 
L 367.097445 30.12 
L 370.265478 30.12 
L 373.433512 30.12 
L 376.601545 30.12 
L 379.769579 30.12 
L 382.937612 30.12 
L 386.105646 30.12 
L 389.273679 30.12 
L 392.441712 30.12 
L 395.609746 30.12 
L 398.777779 30.12 
L 401.945813 30.12 
L 405.113846 30.12 
L 408.28188 30.12 
L 411.449913 30.12 
L 414.617947 30.12 
L 417.78598 30.12 
L 420.954014 30.12 
L 424.122047 30.12 
L 427.29008 30.12 
L 430.458114 30.12 
L 433.626147 30.12 
L 436.794181 30.12 
L 439.962214 30.12 
L 443.130248 30.12 
L 446.298281 30.12 
L 449.466315 30.12 
L 452.634348 30.12 
L 455.802381 30.12 
L 458.970415 30.12 
L 462.138448 30.12 
L 465.306482 30.12 
L 468.474515 30.12 
L 471.642549 30.12 
L 474.810582 30.12 
L 477.978616 197.253333 
L 481.146649 30.12 
L 484.314682 30.12 
L 487.482716 30.12 
L 490.650749 30.12 
L 493.818783 30.12 
L 496.986816 30.12 
L 500.15485 30.12 
L 503.322883 30.12 
L 506.490917 30.12 
L 509.65895 30.12 
L 512.826983 30.12 
L 515.995017 30.12 
L 519.16305 30.12 
L 522.331084 30.12 
L 525.499117 30.12 
L 528.667151 30.12 
L 531.835184 30.12 
L 535.003218 30.12 
L 538.171251 30.12 
L 541.339284 30.12 
L 544.507318 30.12 
L 547.675351 30.12 
L 550.843385 30.12 
L 554.011418 30.12 
L 557.179452 30.12 
L 560.347485 30.12 
L 563.515519 71.903333 
L 566.683552 30.12 
L 569.851585 30.12 
L 573.019619 30.12 
L 576.187652 30.12 
L 579.355686 30.12 
L 582.523719 30.12 
L 585.691753 30.12 
L 588.859786 30.12 
L 592.02782 30.12 
L 595.195853 30.12 
L 598.363886 30.12 
L 601.53192 30.12 
L 604.699953 30.12 
L 607.867987 30.12 
L 611.03602 30.12 
L 614.204054 30.12 
L 617.372087 30.12 
L 620.540121 30.12 
L 623.708154 92.795 
L 626.876187 30.12 
L 630.044221 30.12 
L 633.212254 30.12 
L 636.380288 30.12 
L 639.548321 30.12 
L 642.716355 30.12 
L 645.884388 30.12 
L 649.052422 30.12 
L 652.220455 30.12 
L 655.388488 30.12 
L 658.556522 30.12 
L 661.724555 30.12 
L 664.892589 30.12 
L 664.892589 30.12 
L 664.892589 30.12 
L 661.724555 30.12 
L 658.556522 30.12 
L 655.388488 30.12 
L 652.220455 30.12 
L 649.052422 30.12 
L 645.884388 30.12 
L 642.716355 30.12 
L 639.548321 30.12 
L 636.380288 30.12 
L 633.212254 30.12 
L 630.044221 30.12 
L 626.876187 30.12 
L 623.708154 30.12 
L 620.540121 30.12 
L 617.372087 30.12 
L 614.204054 30.12 
L 611.03602 30.12 
L 607.867987 30.12 
L 604.699953 30.12 
L 601.53192 30.12 
L 598.363886 30.12 
L 595.195853 30.12 
L 592.02782 30.12 
L 588.859786 30.12 
L 585.691753 30.12 
L 582.523719 30.12 
L 579.355686 30.12 
L 576.187652 30.12 
L 573.019619 30.12 
L 569.851585 30.12 
L 566.683552 30.12 
L 563.515519 30.12 
L 560.347485 30.12 
L 557.179452 30.12 
L 554.011418 30.12 
L 550.843385 30.12 
L 547.675351 30.12 
L 544.507318 30.12 
L 541.339284 30.12 
L 538.171251 30.12 
L 535.003218 30.12 
L 531.835184 30.12 
L 528.667151 30.12 
L 525.499117 30.12 
L 522.331084 30.12 
L 519.16305 30.12 
L 515.995017 30.12 
L 512.826983 30.12 
L 509.65895 30.12 
L 506.490917 30.12 
L 503.322883 30.12 
L 500.15485 30.12 
L 496.986816 30.12 
L 493.818783 30.12 
L 490.650749 30.12 
L 487.482716 30.12 
L 484.314682 30.12 
L 481.146649 30.12 
L 477.978616 30.12 
L 474.810582 30.12 
L 471.642549 30.12 
L 468.474515 30.12 
L 465.306482 30.12 
L 462.138448 30.12 
L 458.970415 30.12 
L 455.802381 30.12 
L 452.634348 30.12 
L 449.466315 30.12 
L 446.298281 30.12 
L 443.130248 30.12 
L 439.962214 30.12 
L 436.794181 30.12 
L 433.626147 30.12 
L 430.458114 30.12 
L 427.29008 30.12 
L 424.122047 30.12 
L 420.954014 30.12 
L 417.78598 30.12 
L 414.617947 30.12 
L 411.449913 30.12 
L 408.28188 30.12 
L 405.113846 30.12 
L 401.945813 30.12 
L 398.777779 30.12 
L 395.609746 30.12 
L 392.441712 30.12 
L 389.273679 30.12 
L 386.105646 30.12 
L 382.937612 30.12 
L 379.769579 30.12 
L 376.601545 30.12 
L 373.433512 30.12 
L 370.265478 30.12 
L 367.097445 30.12 
L 363.929411 30.12 
L 360.761378 30.12 
L 357.593345 30.12 
L 354.425311 30.12 
L 351.257278 30.12 
L 348.089244 30.12 
L 344.921211 30.12 
L 341.753177 30.12 
L 338.585144 30.12 
L 335.41711 30.12 
L 332.249077 30.12 
L 329.081044 30.12 
L 325.91301 30.12 
L 322.744977 30.12 
L 319.576943 30.12 
L 316.40891 30.12 
L 313.240876 30.12 
L 310.072843 30.12 
L 306.904809 30.12 
L 303.736776 30.12 
L 300.568743 30.12 
L 297.400709 30.12 
L 294.232676 30.12 
L 291.064642 30.12 
L 287.896609 30.12 
L 284.728575 30.12 
L 281.560542 30.12 
L 278.392508 30.12 
L 275.224475 30.12 
L 272.056442 30.12 
L 268.888408 30.12 
L 265.720375 30.12 
L 262.552341 30.12 
L 259.384308 30.12 
L 256.216274 30.12 
L 253.048241 30.12 
L 249.880207 30.12 
L 246.712174 30.12 
L 243.544141 30.12 
L 240.376107 30.12 
L 237.208074 30.12 
L 234.04004 30.12 
L 230.872007 30.12 
L 227.703973 30.12 
L 224.53594 30.12 
L 221.367906 30.12 
L 218.199873 30.12 
L 215.03184 30.12 
L 211.863806 30.12 
L 208.695773 30.12 
L 205.527739 30.12 
L 202.359706 30.12 
L 199.191672 30.12 
L 196.023639 30.12 
L 192.855605 30.12 
L 189.687572 30.12 
L 186.519539 30.12 
L 183.351505 30.12 
L 180.183472 30.12 
L 177.015438 30.12 
L 173.847405 30.12 
L 170.679371 30.12 
L 167.511338 30.12 
L 164.343304 30.12 
L 161.175271 30.12 
L 158.007237 30.12 
L 154.839204 30.12 
L 151.671171 30.12 
L 148.503137 30.12 
L 145.335104 30.12 
L 142.16707 30.12 
L 138.999037 30.12 
L 135.831003 30.12 
L 132.66297 30.12 
L 129.494936 30.12 
L 126.326903 30.12 
L 123.15887 30.12 
L 119.990836 30.12 
L 116.822803 30.12 
L 113.654769 30.12 
L 110.486736 30.12 
L 107.318702 30.12 
L 104.150669 30.12 
L 100.982635 30.12 
L 97.814602 30.12 
L 94.646569 30.12 
L 91.478535 30.12 
L 88.310502 30.12 
L 85.142468 30.12 
L 81.974435 30.12 
L 78.806401 30.12 
L 75.638368 30.12 
L 72.470334 30.12 
L 69.302301 30.12 
L 66.134268 30.12 
L 62.966234 30.12 
L 59.798201 30.12 
L 56.630167 30.12 
L 53.462134 30.12 
L 50.2941 30.12 
L 47.126067 30.12 
L 43.958033 30.12 
L 40.79 30.12 
z
" clip-path="url(#pe28ce5dad9)" style="fill: #8d5993"/>
   </g>
   <g id="matplotlib.axis_1">
    <g id="xtick_1">
     <g id="line2d_1">
      <path d="M 116.822803 531.52 
L 116.822803 30.12 
" clip-path="url(#pe28ce5dad9)" style="fill: none; stroke-dasharray: 2.96,1.28; stroke-dashoffset: 0; stroke: #b0b0b0; stroke-opacity: 0.5; stroke-width: 0.8"/>
     </g>
     <g id="line2d_2">
      <defs>
       <path id="mf3bffc8dea" d="M 0 0 
L 0 3.5 
" style="stroke: #000000; stroke-width: 0.8"/>
      </defs>
      <g>
       <use xlink:href="#mf3bffc8dea" x="116.822803" y="531.52" style="stroke: #000000; stroke-width: 0.8"/>
      </g>
     </g>
     <g id="text_1">
      <!-- 25 -->
      <g transform="translate(110.460303 546.118437) scale(0.1 -0.1)">
       <defs>
        <path id="DejaVuSans-32" d="M 1228 531 
L 3431 531 
L 3431 0 
L 469 0 
L 469 531 
Q 828 903 1448 1529 
Q 2069 2156 2228 2338 
Q 2531 2678 2651 2914 
Q 2772 3150 2772 3378 
Q 2772 3750 2511 3984 
Q 2250 4219 1831 4219 
Q 1534 4219 1204 4116 
Q 875 4013 500 3803 
L 500 4441 
Q 881 4594 1212 4672 
Q 1544 4750 1819 4750 
Q 2544 4750 2975 4387 
Q 3406 4025 3406 3419 
Q 3406 3131 3298 2873 
Q 3191 2616 2906 2266 
Q 2828 2175 2409 1742 
Q 1991 1309 1228 531 
z
" transform="scale(0.015625)"/>
        <path id="DejaVuSans-35" d="M 691 4666 
L 3169 4666 
L 3169 4134 
L 1269 4134 
L 1269 2991 
Q 1406 3038 1543 3061 
Q 1681 3084 1819 3084 
Q 2600 3084 3056 2656 
Q 3513 2228 3513 1497 
Q 3513 744 3044 326 
Q 2575 -91 1722 -91 
Q 1428 -91 1123 -41 
Q 819 9 494 109 
L 494 744 
Q 775 591 1075 516 
Q 1375 441 1709 441 
Q 2250 441 2565 725 
Q 2881 1009 2881 1497 
Q 2881 1984 2565 2268 
Q 2250 2553 1709 2553 
Q 1456 2553 1204 2497 
Q 953 2441 691 2322 
L 691 4666 
z
" transform="scale(0.015625)"/>
       </defs>
       <use xlink:href="#DejaVuSans-32"/>
       <use xlink:href="#DejaVuSans-35" transform="translate(63.623047 0)"/>
      </g>
     </g>
    </g>
    <g id="xtick_2">
     <g id="line2d_3">
      <path d="M 196.023639 531.52 
L 196.023639 30.12 
" clip-path="url(#pe28ce5dad9)" style="fill: none; stroke-dasharray: 2.96,1.28; stroke-dashoffset: 0; stroke: #b0b0b0; stroke-opacity: 0.5; stroke-width: 0.8"/>
     </g>
     <g id="line2d_4">
      <g>
       <use xlink:href="#mf3bffc8dea" x="196.023639" y="531.52" style="stroke: #000000; stroke-width: 0.8"/>
      </g>
     </g>
     <g id="text_2">
      <!-- 50 -->
      <g transform="translate(189.661139 546.118437) scale(0.1 -0.1)">
       <defs>
        <path id="DejaVuSans-30" d="M 2034 4250 
Q 1547 4250 1301 3770 
Q 1056 3291 1056 2328 
Q 1056 1369 1301 889 
Q 1547 409 2034 409 
Q 2525 409 2770 889 
Q 3016 1369 3016 2328 
Q 3016 3291 2770 3770 
Q 2525 4250 2034 4250 
z
M 2034 4750 
Q 2819 4750 3233 4129 
Q 3647 3509 3647 2328 
Q 3647 1150 3233 529 
Q 2819 -91 2034 -91 
Q 1250 -91 836 529 
Q 422 1150 422 2328 
Q 422 3509 836 4129 
Q 1250 4750 2034 4750 
z
" transform="scale(0.015625)"/>
       </defs>
       <use xlink:href="#DejaVuSans-35"/>
       <use xlink:href="#DejaVuSans-30" transform="translate(63.623047 0)"/>
      </g>
     </g>
    </g>
    <g id="xtick_3">
     <g id="line2d_5">
      <path d="M 275.224475 531.52 
L 275.224475 30.12 
" clip-path="url(#pe28ce5dad9)" style="fill: none; stroke-dasharray: 2.96,1.28; stroke-dashoffset: 0; stroke: #b0b0b0; stroke-opacity: 0.5; stroke-width: 0.8"/>
     </g>
     <g id="line2d_6">
      <g>
       <use xlink:href="#mf3bffc8dea" x="275.224475" y="531.52" style="stroke: #000000; stroke-width: 0.8"/>
      </g>
     </g>
     <g id="text_3">
      <!-- 75 -->
      <g transform="translate(268.861975 546.118437) scale(0.1 -0.1)">
       <defs>
        <path id="DejaVuSans-37" d="M 525 4666 
L 3525 4666 
L 3525 4397 
L 1831 0 
L 1172 0 
L 2766 4134 
L 525 4134 
L 525 4666 
z
" transform="scale(0.015625)"/>
       </defs>
       <use xlink:href="#DejaVuSans-37"/>
       <use xlink:href="#DejaVuSans-35" transform="translate(63.623047 0)"/>
      </g>
     </g>
    </g>
    <g id="xtick_4">
     <g id="line2d_7">
      <path d="M 354.425311 531.52 
L 354.425311 30.12 
" clip-path="url(#pe28ce5dad9)" style="fill: none; stroke-dasharray: 2.96,1.28; stroke-dashoffset: 0; stroke: #b0b0b0; stroke-opacity: 0.5; stroke-width: 0.8"/>
     </g>
     <g id="line2d_8">
      <g>
       <use xlink:href="#mf3bffc8dea" x="354.425311" y="531.52" style="stroke: #000000; stroke-width: 0.8"/>
      </g>
     </g>
     <g id="text_4">
      <!-- 100 -->
      <g transform="translate(344.881561 546.118437) scale(0.1 -0.1)">
       <defs>
        <path id="DejaVuSans-31" d="M 794 531 
L 1825 531 
L 1825 4091 
L 703 3866 
L 703 4441 
L 1819 4666 
L 2450 4666 
L 2450 531 
L 3481 531 
L 3481 0 
L 794 0 
L 794 531 
z
" transform="scale(0.015625)"/>
       </defs>
       <use xlink:href="#DejaVuSans-31"/>
       <use xlink:href="#DejaVuSans-30" transform="translate(63.623047 0)"/>
       <use xlink:href="#DejaVuSans-30" transform="translate(127.246094 0)"/>
      </g>
     </g>
    </g>
    <g id="xtick_5">
     <g id="line2d_9">
      <path d="M 433.626147 531.52 
L 433.626147 30.12 
" clip-path="url(#pe28ce5dad9)" style="fill: none; stroke-dasharray: 2.96,1.28; stroke-dashoffset: 0; stroke: #b0b0b0; stroke-opacity: 0.5; stroke-width: 0.8"/>
     </g>
     <g id="line2d_10">
      <g>
       <use xlink:href="#mf3bffc8dea" x="433.626147" y="531.52" style="stroke: #000000; stroke-width: 0.8"/>
      </g>
     </g>
     <g id="text_5">
      <!-- 125 -->
      <g transform="translate(424.082397 546.118437) scale(0.1 -0.1)">
       <use xlink:href="#DejaVuSans-31"/>
       <use xlink:href="#DejaVuSans-32" transform="translate(63.623047 0)"/>
       <use xlink:href="#DejaVuSans-35" transform="translate(127.246094 0)"/>
      </g>
     </g>
    </g>
    <g id="xtick_6">
     <g id="line2d_11">
      <path d="M 512.826983 531.52 
L 512.826983 30.12 
" clip-path="url(#pe28ce5dad9)" style="fill: none; stroke-dasharray: 2.96,1.28; stroke-dashoffset: 0; stroke: #b0b0b0; stroke-opacity: 0.5; stroke-width: 0.8"/>
     </g>
     <g id="line2d_12">
      <g>
       <use xlink:href="#mf3bffc8dea" x="512.826983" y="531.52" style="stroke: #000000; stroke-width: 0.8"/>
      </g>
     </g>
     <g id="text_6">
      <!-- 150 -->
      <g transform="translate(503.283233 546.118437) scale(0.1 -0.1)">
       <use xlink:href="#DejaVuSans-31"/>
       <use xlink:href="#DejaVuSans-35" transform="translate(63.623047 0)"/>
       <use xlink:href="#DejaVuSans-30" transform="translate(127.246094 0)"/>
      </g>
     </g>
    </g>
    <g id="xtick_7">
     <g id="line2d_13">
      <path d="M 592.02782 531.52 
L 592.02782 30.12 
" clip-path="url(#pe28ce5dad9)" style="fill: none; stroke-dasharray: 2.96,1.28; stroke-dashoffset: 0; stroke: #b0b0b0; stroke-opacity: 0.5; stroke-width: 0.8"/>
     </g>
     <g id="line2d_14">
      <g>
       <use xlink:href="#mf3bffc8dea" x="592.02782" y="531.52" style="stroke: #000000; stroke-width: 0.8"/>
      </g>
     </g>
     <g id="text_7">
      <!-- 175 -->
      <g transform="translate(582.48407 546.118437) scale(0.1 -0.1)">
       <use xlink:href="#DejaVuSans-31"/>
       <use xlink:href="#DejaVuSans-37" transform="translate(63.623047 0)"/>
       <use xlink:href="#DejaVuSans-35" transform="translate(127.246094 0)"/>
      </g>
     </g>
    </g>
    <g id="text_8">
     <!-- Session Count -->
     <g transform="translate(312.583638 561.919375) scale(0.14 -0.14)">
      <defs>
       <path id="TimesNewRomanPSMT-53" d="M 2934 4334 
L 2934 2869 
L 2819 2869 
Q 2763 3291 2617 3541 
Q 2472 3791 2203 3937 
Q 1934 4084 1647 4084 
Q 1322 4084 1109 3886 
Q 897 3688 897 3434 
Q 897 3241 1031 3081 
Q 1225 2847 1953 2456 
Q 2547 2138 2764 1967 
Q 2981 1797 3098 1565 
Q 3216 1334 3216 1081 
Q 3216 600 2842 251 
Q 2469 -97 1881 -97 
Q 1697 -97 1534 -69 
Q 1438 -53 1133 45 
Q 828 144 747 144 
Q 669 144 623 97 
Q 578 50 556 -97 
L 441 -97 
L 441 1356 
L 556 1356 
Q 638 900 775 673 
Q 913 447 1195 297 
Q 1478 147 1816 147 
Q 2206 147 2432 353 
Q 2659 559 2659 841 
Q 2659 997 2573 1156 
Q 2488 1316 2306 1453 
Q 2184 1547 1640 1851 
Q 1097 2156 867 2337 
Q 638 2519 519 2737 
Q 400 2956 400 3219 
Q 400 3675 750 4004 
Q 1100 4334 1641 4334 
Q 1978 4334 2356 4169 
Q 2531 4091 2603 4091 
Q 2684 4091 2736 4139 
Q 2788 4188 2819 4334 
L 2934 4334 
z
" transform="scale(0.015625)"/>
       <path id="TimesNewRomanPSMT-65" d="M 681 1784 
Q 678 1147 991 784 
Q 1303 422 1725 422 
Q 2006 422 2214 576 
Q 2422 731 2563 1106 
L 2659 1044 
Q 2594 616 2278 264 
Q 1963 -88 1488 -88 
Q 972 -88 605 314 
Q 238 716 238 1394 
Q 238 2128 614 2539 
Q 991 2950 1559 2950 
Q 2041 2950 2350 2633 
Q 2659 2316 2659 1784 
L 681 1784 
z
M 681 1966 
L 2006 1966 
Q 1991 2241 1941 2353 
Q 1863 2528 1708 2628 
Q 1553 2728 1384 2728 
Q 1125 2728 920 2526 
Q 716 2325 681 1966 
z
" transform="scale(0.015625)"/>
       <path id="TimesNewRomanPSMT-73" d="M 2050 2947 
L 2050 1972 
L 1947 1972 
Q 1828 2431 1642 2597 
Q 1456 2763 1169 2763 
Q 950 2763 815 2647 
Q 681 2531 681 2391 
Q 681 2216 781 2091 
Q 878 1963 1175 1819 
L 1631 1597 
Q 2266 1288 2266 781 
Q 2266 391 1970 151 
Q 1675 -88 1309 -88 
Q 1047 -88 709 6 
Q 606 38 541 38 
Q 469 38 428 -44 
L 325 -44 
L 325 978 
L 428 978 
Q 516 541 762 319 
Q 1009 97 1316 97 
Q 1531 97 1667 223 
Q 1803 350 1803 528 
Q 1803 744 1651 891 
Q 1500 1038 1047 1263 
Q 594 1488 453 1669 
Q 313 1847 313 2119 
Q 313 2472 555 2709 
Q 797 2947 1181 2947 
Q 1350 2947 1591 2875 
Q 1750 2828 1803 2828 
Q 1853 2828 1881 2850 
Q 1909 2872 1947 2947 
L 2050 2947 
z
" transform="scale(0.015625)"/>
       <path id="TimesNewRomanPSMT-69" d="M 928 4444 
Q 1059 4444 1151 4351 
Q 1244 4259 1244 4128 
Q 1244 3997 1151 3903 
Q 1059 3809 928 3809 
Q 797 3809 703 3903 
Q 609 3997 609 4128 
Q 609 4259 701 4351 
Q 794 4444 928 4444 
z
M 1188 2947 
L 1188 647 
Q 1188 378 1227 289 
Q 1266 200 1342 156 
Q 1419 113 1622 113 
L 1622 0 
L 231 0 
L 231 113 
Q 441 113 512 153 
Q 584 194 626 287 
Q 669 381 669 647 
L 669 1750 
Q 669 2216 641 2353 
Q 619 2453 572 2492 
Q 525 2531 444 2531 
Q 356 2531 231 2484 
L 188 2597 
L 1050 2947 
L 1188 2947 
z
" transform="scale(0.015625)"/>
       <path id="TimesNewRomanPSMT-6f" d="M 1600 2947 
Q 2250 2947 2644 2453 
Q 2978 2031 2978 1484 
Q 2978 1100 2793 706 
Q 2609 313 2286 112 
Q 1963 -88 1566 -88 
Q 919 -88 538 428 
Q 216 863 216 1403 
Q 216 1797 411 2186 
Q 606 2575 925 2761 
Q 1244 2947 1600 2947 
z
M 1503 2744 
Q 1338 2744 1170 2645 
Q 1003 2547 900 2300 
Q 797 2053 797 1666 
Q 797 1041 1045 587 
Q 1294 134 1700 134 
Q 2003 134 2200 384 
Q 2397 634 2397 1244 
Q 2397 2006 2069 2444 
Q 1847 2744 1503 2744 
z
" transform="scale(0.015625)"/>
       <path id="TimesNewRomanPSMT-6e" d="M 1034 2341 
Q 1538 2947 1994 2947 
Q 2228 2947 2397 2830 
Q 2566 2713 2666 2444 
Q 2734 2256 2734 1869 
L 2734 647 
Q 2734 375 2778 278 
Q 2813 200 2889 156 
Q 2966 113 3172 113 
L 3172 0 
L 1756 0 
L 1756 113 
L 1816 113 
Q 2016 113 2095 173 
Q 2175 234 2206 353 
Q 2219 400 2219 647 
L 2219 1819 
Q 2219 2209 2117 2386 
Q 2016 2563 1775 2563 
Q 1403 2563 1034 2156 
L 1034 647 
Q 1034 356 1069 288 
Q 1113 197 1189 155 
Q 1266 113 1500 113 
L 1500 0 
L 84 0 
L 84 113 
L 147 113 
Q 366 113 442 223 
Q 519 334 519 647 
L 519 1709 
Q 519 2225 495 2337 
Q 472 2450 423 2490 
Q 375 2531 294 2531 
Q 206 2531 84 2484 
L 38 2597 
L 900 2947 
L 1034 2947 
L 1034 2341 
z
" transform="scale(0.015625)"/>
       <path id="TimesNewRomanPSMT-20" transform="scale(0.015625)"/>
       <path id="TimesNewRomanPSMT-43" d="M 3853 4334 
L 3950 2894 
L 3853 2894 
Q 3659 3541 3300 3825 
Q 2941 4109 2438 4109 
Q 2016 4109 1675 3895 
Q 1334 3681 1139 3212 
Q 944 2744 944 2047 
Q 944 1472 1128 1050 
Q 1313 628 1683 403 
Q 2053 178 2528 178 
Q 2941 178 3256 354 
Q 3572 531 3950 1056 
L 4047 994 
Q 3728 428 3303 165 
Q 2878 -97 2294 -97 
Q 1241 -97 663 684 
Q 231 1266 231 2053 
Q 231 2688 515 3219 
Q 800 3750 1298 4042 
Q 1797 4334 2388 4334 
Q 2847 4334 3294 4109 
Q 3425 4041 3481 4041 
Q 3566 4041 3628 4100 
Q 3709 4184 3744 4334 
L 3853 4334 
z
" transform="scale(0.015625)"/>
       <path id="TimesNewRomanPSMT-75" d="M 2709 2863 
L 2709 1128 
Q 2709 631 2732 520 
Q 2756 409 2807 365 
Q 2859 322 2928 322 
Q 3025 322 3147 375 
L 3191 266 
L 2334 -88 
L 2194 -88 
L 2194 519 
Q 1825 119 1631 15 
Q 1438 -88 1222 -88 
Q 981 -88 804 51 
Q 628 191 559 409 
Q 491 628 491 1028 
L 491 2306 
Q 491 2509 447 2587 
Q 403 2666 317 2708 
Q 231 2750 6 2747 
L 6 2863 
L 1009 2863 
L 1009 947 
Q 1009 547 1148 422 
Q 1288 297 1484 297 
Q 1619 297 1789 381 
Q 1959 466 2194 703 
L 2194 2325 
Q 2194 2569 2105 2655 
Q 2016 2741 1734 2747 
L 1734 2863 
L 2709 2863 
z
" transform="scale(0.015625)"/>
       <path id="TimesNewRomanPSMT-74" d="M 1031 3803 
L 1031 2863 
L 1700 2863 
L 1700 2644 
L 1031 2644 
L 1031 788 
Q 1031 509 1111 412 
Q 1191 316 1316 316 
Q 1419 316 1516 380 
Q 1613 444 1666 569 
L 1788 569 
Q 1678 263 1478 108 
Q 1278 -47 1066 -47 
Q 922 -47 784 33 
Q 647 113 581 261 
Q 516 409 516 719 
L 516 2644 
L 63 2644 
L 63 2747 
Q 234 2816 414 2980 
Q 594 3144 734 3369 
Q 806 3488 934 3803 
L 1031 3803 
z
" transform="scale(0.015625)"/>
      </defs>
      <use xlink:href="#TimesNewRomanPSMT-53"/>
      <use xlink:href="#TimesNewRomanPSMT-65" transform="translate(55.615234 0)"/>
      <use xlink:href="#TimesNewRomanPSMT-73" transform="translate(100 0)"/>
      <use xlink:href="#TimesNewRomanPSMT-73" transform="translate(138.916016 0)"/>
      <use xlink:href="#TimesNewRomanPSMT-69" transform="translate(177.832031 0)"/>
      <use xlink:href="#TimesNewRomanPSMT-6f" transform="translate(205.615234 0)"/>
      <use xlink:href="#TimesNewRomanPSMT-6e" transform="translate(255.615234 0)"/>
      <use xlink:href="#TimesNewRomanPSMT-20" transform="translate(305.615234 0)"/>
      <use xlink:href="#TimesNewRomanPSMT-43" transform="translate(330.615234 0)"/>
      <use xlink:href="#TimesNewRomanPSMT-6f" transform="translate(397.314453 0)"/>
      <use xlink:href="#TimesNewRomanPSMT-75" transform="translate(447.314453 0)"/>
      <use xlink:href="#TimesNewRomanPSMT-6e" transform="translate(497.314453 0)"/>
      <use xlink:href="#TimesNewRomanPSMT-74" transform="translate(547.314453 0)"/>
     </g>
    </g>
   </g>
   <g id="matplotlib.axis_2">
    <g id="ytick_1">
     <g id="line2d_15">
      <path d="M 40.79 531.52 
L 664.892589 531.52 
" clip-path="url(#pe28ce5dad9)" style="fill: none; stroke-dasharray: 2.96,1.28; stroke-dashoffset: 0; stroke: #b0b0b0; stroke-opacity: 0.5; stroke-width: 0.8"/>
     </g>
     <g id="line2d_16">
      <defs>
       <path id="mada281a1f5" d="M 0 0 
L -3.5 0 
" style="stroke: #000000; stroke-width: 0.8"/>
      </defs>
      <g>
       <use xlink:href="#mada281a1f5" x="40.79" y="531.52" style="stroke: #000000; stroke-width: 0.8"/>
      </g>
     </g>
     <g id="text_9">
      <!-- 0 -->
      <g transform="translate(27.4275 535.319219) scale(0.1 -0.1)">
       <use xlink:href="#DejaVuSans-30"/>
      </g>
     </g>
    </g>
    <g id="ytick_2">
     <g id="line2d_17">
      <path d="M 40.79 30.12 
L 664.892589 30.12 
" clip-path="url(#pe28ce5dad9)" style="fill: none; stroke-dasharray: 2.96,1.28; stroke-dashoffset: 0; stroke: #b0b0b0; stroke-opacity: 0.5; stroke-width: 0.8"/>
     </g>
     <g id="line2d_18">
      <g>
       <use xlink:href="#mada281a1f5" x="40.79" y="30.12" style="stroke: #000000; stroke-width: 0.8"/>
      </g>
     </g>
     <g id="text_10">
      <!-- 1 -->
      <g transform="translate(27.4275 33.919219) scale(0.1 -0.1)">
       <use xlink:href="#DejaVuSans-31"/>
      </g>
     </g>
    </g>
    <g id="text_11">
     <!-- Stacked Proportion -->
     <g transform="translate(20.432813 334.672969) rotate(-90) scale(0.14 -0.14)">
      <defs>
       <path id="TimesNewRomanPSMT-61" d="M 1822 413 
Q 1381 72 1269 19 
Q 1100 -59 909 -59 
Q 613 -59 420 144 
Q 228 347 228 678 
Q 228 888 322 1041 
Q 450 1253 767 1440 
Q 1084 1628 1822 1897 
L 1822 2009 
Q 1822 2438 1686 2597 
Q 1550 2756 1291 2756 
Q 1094 2756 978 2650 
Q 859 2544 859 2406 
L 866 2225 
Q 866 2081 792 2003 
Q 719 1925 600 1925 
Q 484 1925 411 2006 
Q 338 2088 338 2228 
Q 338 2497 613 2722 
Q 888 2947 1384 2947 
Q 1766 2947 2009 2819 
Q 2194 2722 2281 2516 
Q 2338 2381 2338 1966 
L 2338 994 
Q 2338 584 2353 492 
Q 2369 400 2405 369 
Q 2441 338 2488 338 
Q 2538 338 2575 359 
Q 2641 400 2828 588 
L 2828 413 
Q 2478 -56 2159 -56 
Q 2006 -56 1915 50 
Q 1825 156 1822 413 
z
M 1822 616 
L 1822 1706 
Q 1350 1519 1213 1441 
Q 966 1303 859 1153 
Q 753 1003 753 825 
Q 753 600 887 451 
Q 1022 303 1197 303 
Q 1434 303 1822 616 
z
" transform="scale(0.015625)"/>
       <path id="TimesNewRomanPSMT-63" d="M 2631 1088 
Q 2516 522 2178 217 
Q 1841 -88 1431 -88 
Q 944 -88 581 321 
Q 219 731 219 1428 
Q 219 2103 620 2525 
Q 1022 2947 1584 2947 
Q 2006 2947 2278 2723 
Q 2550 2500 2550 2259 
Q 2550 2141 2473 2067 
Q 2397 1994 2259 1994 
Q 2075 1994 1981 2113 
Q 1928 2178 1911 2362 
Q 1894 2547 1784 2644 
Q 1675 2738 1481 2738 
Q 1169 2738 978 2506 
Q 725 2200 725 1697 
Q 725 1184 976 792 
Q 1228 400 1656 400 
Q 1963 400 2206 609 
Q 2378 753 2541 1131 
L 2631 1088 
z
" transform="scale(0.015625)"/>
       <path id="TimesNewRomanPSMT-6b" d="M 1047 4444 
L 1047 1594 
L 1775 2259 
Q 2006 2472 2044 2528 
Q 2069 2566 2069 2603 
Q 2069 2666 2017 2711 
Q 1966 2756 1847 2763 
L 1847 2863 
L 3091 2863 
L 3091 2763 
Q 2834 2756 2664 2684 
Q 2494 2613 2291 2428 
L 1556 1750 
L 2291 822 
Q 2597 438 2703 334 
Q 2853 188 2966 144 
Q 3044 113 3238 113 
L 3238 0 
L 1847 0 
L 1847 113 
Q 1966 116 2008 148 
Q 2050 181 2050 241 
Q 2050 313 1925 472 
L 1047 1594 
L 1047 644 
Q 1047 366 1086 278 
Q 1125 191 1197 153 
Q 1269 116 1509 113 
L 1509 0 
L 53 0 
L 53 113 
Q 272 113 381 166 
Q 447 200 481 272 
Q 528 375 528 628 
L 528 3234 
Q 528 3731 506 3842 
Q 484 3953 434 3995 
Q 384 4038 303 4038 
Q 238 4038 106 3984 
L 53 4094 
L 903 4444 
L 1047 4444 
z
" transform="scale(0.015625)"/>
       <path id="TimesNewRomanPSMT-64" d="M 2222 322 
Q 2013 103 1813 7 
Q 1613 -88 1381 -88 
Q 913 -88 563 304 
Q 213 697 213 1313 
Q 213 1928 600 2439 
Q 988 2950 1597 2950 
Q 1975 2950 2222 2709 
L 2222 3238 
Q 2222 3728 2198 3840 
Q 2175 3953 2125 3993 
Q 2075 4034 2000 4034 
Q 1919 4034 1784 3984 
L 1744 4094 
L 2597 4444 
L 2738 4444 
L 2738 1134 
Q 2738 631 2761 520 
Q 2784 409 2836 365 
Q 2888 322 2956 322 
Q 3041 322 3181 375 
L 3216 266 
L 2366 -88 
L 2222 -88 
L 2222 322 
z
M 2222 541 
L 2222 2016 
Q 2203 2228 2109 2403 
Q 2016 2578 1861 2667 
Q 1706 2756 1559 2756 
Q 1284 2756 1069 2509 
Q 784 2184 784 1559 
Q 784 928 1059 592 
Q 1334 256 1672 256 
Q 1956 256 2222 541 
z
" transform="scale(0.015625)"/>
       <path id="TimesNewRomanPSMT-50" d="M 1313 1984 
L 1313 750 
Q 1313 350 1400 253 
Q 1519 116 1759 116 
L 1922 116 
L 1922 0 
L 106 0 
L 106 116 
L 266 116 
Q 534 116 650 291 
Q 713 388 713 750 
L 713 3488 
Q 713 3888 628 3984 
Q 506 4122 266 4122 
L 106 4122 
L 106 4238 
L 1659 4238 
Q 2228 4238 2556 4120 
Q 2884 4003 3109 3725 
Q 3334 3447 3334 3066 
Q 3334 2547 2992 2222 
Q 2650 1897 2025 1897 
Q 1872 1897 1694 1919 
Q 1516 1941 1313 1984 
z
M 1313 2163 
Q 1478 2131 1606 2115 
Q 1734 2100 1825 2100 
Q 2150 2100 2386 2351 
Q 2622 2603 2622 3003 
Q 2622 3278 2509 3514 
Q 2397 3750 2190 3867 
Q 1984 3984 1722 3984 
Q 1563 3984 1313 3925 
L 1313 2163 
z
" transform="scale(0.015625)"/>
       <path id="TimesNewRomanPSMT-72" d="M 1038 2947 
L 1038 2303 
Q 1397 2947 1775 2947 
Q 1947 2947 2059 2842 
Q 2172 2738 2172 2600 
Q 2172 2478 2090 2393 
Q 2009 2309 1897 2309 
Q 1788 2309 1652 2417 
Q 1516 2525 1450 2525 
Q 1394 2525 1328 2463 
Q 1188 2334 1038 2041 
L 1038 669 
Q 1038 431 1097 309 
Q 1138 225 1241 169 
Q 1344 113 1538 113 
L 1538 0 
L 72 0 
L 72 113 
Q 291 113 397 181 
Q 475 231 506 341 
Q 522 394 522 644 
L 522 1753 
Q 522 2253 501 2348 
Q 481 2444 426 2487 
Q 372 2531 291 2531 
Q 194 2531 72 2484 
L 41 2597 
L 906 2947 
L 1038 2947 
z
" transform="scale(0.015625)"/>
       <path id="TimesNewRomanPSMT-70" d="M -6 2578 
L 875 2934 
L 994 2934 
L 994 2266 
Q 1216 2644 1439 2795 
Q 1663 2947 1909 2947 
Q 2341 2947 2628 2609 
Q 2981 2197 2981 1534 
Q 2981 794 2556 309 
Q 2206 -88 1675 -88 
Q 1444 -88 1275 -22 
Q 1150 25 994 166 
L 994 -706 
Q 994 -1000 1030 -1079 
Q 1066 -1159 1155 -1206 
Q 1244 -1253 1478 -1253 
L 1478 -1369 
L -22 -1369 
L -22 -1253 
L 56 -1253 
Q 228 -1256 350 -1188 
Q 409 -1153 442 -1076 
Q 475 -1000 475 -688 
L 475 2019 
Q 475 2297 450 2372 
Q 425 2447 370 2484 
Q 316 2522 222 2522 
Q 147 2522 31 2478 
L -6 2578 
z
M 994 2081 
L 994 1013 
Q 994 666 1022 556 
Q 1066 375 1236 237 
Q 1406 100 1666 100 
Q 1978 100 2172 344 
Q 2425 663 2425 1241 
Q 2425 1897 2138 2250 
Q 1938 2494 1663 2494 
Q 1513 2494 1366 2419 
Q 1253 2363 994 2081 
z
" transform="scale(0.015625)"/>
      </defs>
      <use xlink:href="#TimesNewRomanPSMT-53"/>
      <use xlink:href="#TimesNewRomanPSMT-74" transform="translate(55.615234 0)"/>
      <use xlink:href="#TimesNewRomanPSMT-61" transform="translate(83.398438 0)"/>
      <use xlink:href="#TimesNewRomanPSMT-63" transform="translate(127.783203 0)"/>
      <use xlink:href="#TimesNewRomanPSMT-6b" transform="translate(172.167969 0)"/>
      <use xlink:href="#TimesNewRomanPSMT-65" transform="translate(222.167969 0)"/>
      <use xlink:href="#TimesNewRomanPSMT-64" transform="translate(266.552734 0)"/>
      <use xlink:href="#TimesNewRomanPSMT-20" transform="translate(316.552734 0)"/>
      <use xlink:href="#TimesNewRomanPSMT-50" transform="translate(341.552734 0)"/>
      <use xlink:href="#TimesNewRomanPSMT-72" transform="translate(397.167969 0)"/>
      <use xlink:href="#TimesNewRomanPSMT-6f" transform="translate(430.46875 0)"/>
      <use xlink:href="#TimesNewRomanPSMT-70" transform="translate(480.46875 0)"/>
      <use xlink:href="#TimesNewRomanPSMT-6f" transform="translate(530.46875 0)"/>
      <use xlink:href="#TimesNewRomanPSMT-72" transform="translate(580.46875 0)"/>
      <use xlink:href="#TimesNewRomanPSMT-74" transform="translate(613.769531 0)"/>
      <use xlink:href="#TimesNewRomanPSMT-69" transform="translate(641.552734 0)"/>
      <use xlink:href="#TimesNewRomanPSMT-6f" transform="translate(669.335938 0)"/>
      <use xlink:href="#TimesNewRomanPSMT-6e" transform="translate(719.335938 0)"/>
     </g>
    </g>
   </g>
   <g id="line2d_19">
    <path d="M 40.79 205.1086 
L 664.892589 205.1086 
" clip-path="url(#pe28ce5dad9)" style="fill: none; stroke-dasharray: 7.5,15; stroke-dashoffset: 0; stroke: #000000; stroke-width: 1.5"/>
   </g>
   <g id="patch_3">
    <path d="M 40.79 531.52 
L 40.79 30.12 
" style="fill: none; stroke: #000000; stroke-width: 0.8; stroke-linejoin: miter; stroke-linecap: square"/>
   </g>
   <g id="patch_4">
    <path d="M 664.892589 531.52 
L 664.892589 30.12 
" style="fill: none; stroke: #000000; stroke-width: 0.8; stroke-linejoin: miter; stroke-linecap: square"/>
   </g>
   <g id="patch_5">
    <path d="M 40.79 531.52 
L 664.892589 531.52 
" style="fill: none; stroke: #000000; stroke-width: 0.8; stroke-linejoin: miter; stroke-linecap: square"/>
   </g>
   <g id="patch_6">
    <path d="M 40.79 30.12 
L 664.892589 30.12 
" style="fill: none; stroke: #000000; stroke-width: 0.8; stroke-linejoin: miter; stroke-linecap: square"/>
   </g>
   <g id="text_12">
    <!-- 0.65 -->
    <g transform="translate(687.068823 208.471881) scale(0.14 -0.14)">
     <defs>
      <path id="TimesNewRomanPSMT-30" d="M 231 2094 
Q 231 2819 450 3342 
Q 669 3866 1031 4122 
Q 1313 4325 1613 4325 
Q 2100 4325 2488 3828 
Q 2972 3213 2972 2159 
Q 2972 1422 2759 906 
Q 2547 391 2217 158 
Q 1888 -75 1581 -75 
Q 975 -75 572 641 
Q 231 1244 231 2094 
z
M 844 2016 
Q 844 1141 1059 588 
Q 1238 122 1591 122 
Q 1759 122 1940 273 
Q 2122 425 2216 781 
Q 2359 1319 2359 2297 
Q 2359 3022 2209 3506 
Q 2097 3866 1919 4016 
Q 1791 4119 1609 4119 
Q 1397 4119 1231 3928 
Q 1006 3669 925 3112 
Q 844 2556 844 2016 
z
" transform="scale(0.015625)"/>
      <path id="TimesNewRomanPSMT-2e" d="M 800 606 
Q 947 606 1047 504 
Q 1147 403 1147 259 
Q 1147 116 1045 14 
Q 944 -88 800 -88 
Q 656 -88 554 14 
Q 453 116 453 259 
Q 453 406 554 506 
Q 656 606 800 606 
z
" transform="scale(0.015625)"/>
      <path id="TimesNewRomanPSMT-36" d="M 2869 4325 
L 2869 4209 
Q 2456 4169 2195 4045 
Q 1934 3922 1679 3669 
Q 1425 3416 1258 3105 
Q 1091 2794 978 2366 
Q 1428 2675 1881 2675 
Q 2316 2675 2634 2325 
Q 2953 1975 2953 1425 
Q 2953 894 2631 456 
Q 2244 -75 1606 -75 
Q 1172 -75 869 213 
Q 275 772 275 1663 
Q 275 2231 503 2743 
Q 731 3256 1154 3653 
Q 1578 4050 1965 4187 
Q 2353 4325 2688 4325 
L 2869 4325 
z
M 925 2138 
Q 869 1716 869 1456 
Q 869 1156 980 804 
Q 1091 453 1309 247 
Q 1469 100 1697 100 
Q 1969 100 2183 356 
Q 2397 613 2397 1088 
Q 2397 1622 2184 2012 
Q 1972 2403 1581 2403 
Q 1463 2403 1327 2353 
Q 1191 2303 925 2138 
z
" transform="scale(0.015625)"/>
      <path id="TimesNewRomanPSMT-35" d="M 2778 4238 
L 2534 3706 
L 1259 3706 
L 981 3138 
Q 1809 3016 2294 2522 
Q 2709 2097 2709 1522 
Q 2709 1188 2573 903 
Q 2438 619 2231 419 
Q 2025 219 1772 97 
Q 1413 -75 1034 -75 
Q 653 -75 479 54 
Q 306 184 306 341 
Q 306 428 378 495 
Q 450 563 559 563 
Q 641 563 702 538 
Q 763 513 909 409 
Q 1144 247 1384 247 
Q 1750 247 2026 523 
Q 2303 800 2303 1197 
Q 2303 1581 2056 1914 
Q 1809 2247 1375 2428 
Q 1034 2569 447 2591 
L 1259 4238 
L 2778 4238 
z
" transform="scale(0.015625)"/>
     </defs>
     <use xlink:href="#TimesNewRomanPSMT-30"/>
     <use xlink:href="#TimesNewRomanPSMT-2e" transform="translate(50 0)"/>
     <use xlink:href="#TimesNewRomanPSMT-36" transform="translate(75 0)"/>
     <use xlink:href="#TimesNewRomanPSMT-35" transform="translate(125 0)"/>
    </g>
   </g>
   <g id="text_13">
    <!-- Theoden (Rhesus) -->
    <g transform="translate(275.883482 24.12) scale(0.2 -0.2)">
     <defs>
      <path id="TimesNewRomanPS-BoldMT-54" d="M 4038 4238 
L 4038 3091 
L 3925 3091 
Q 3825 3488 3703 3661 
Q 3581 3834 3369 3938 
Q 3250 3994 2953 3994 
L 2638 3994 
L 2638 725 
Q 2638 400 2673 319 
Q 2709 238 2814 177 
Q 2919 116 3100 116 
L 3241 116 
L 3241 0 
L 1022 0 
L 1022 116 
L 1163 116 
Q 1347 116 1459 181 
Q 1541 225 1588 331 
Q 1622 406 1622 725 
L 1622 3994 
L 1316 3994 
Q 888 3994 694 3813 
Q 422 3559 350 3091 
L 231 3091 
L 231 4238 
L 4038 4238 
z
" transform="scale(0.015625)"/>
      <path id="TimesNewRomanPS-BoldMT-68" d="M 1409 4238 
L 1409 2547 
Q 1650 2800 1850 2904 
Q 2050 3009 2266 3009 
Q 2541 3009 2736 2853 
Q 2931 2697 2995 2486 
Q 3059 2275 3059 1775 
L 3059 634 
Q 3059 300 3121 217 
Q 3184 134 3375 113 
L 3375 0 
L 1894 0 
L 1894 113 
Q 2050 134 2128 238 
Q 2184 319 2184 634 
L 2184 1938 
Q 2184 2300 2156 2392 
Q 2128 2484 2061 2536 
Q 1994 2588 1909 2588 
Q 1784 2588 1665 2502 
Q 1547 2416 1409 2200 
L 1409 634 
Q 1409 322 1456 244 
Q 1516 138 1700 113 
L 1700 0 
L 219 0 
L 219 113 
Q 403 131 481 231 
Q 534 300 534 634 
L 534 3603 
Q 534 3934 473 4015 
Q 413 4097 219 4122 
L 219 4238 
L 1409 4238 
z
" transform="scale(0.015625)"/>
      <path id="TimesNewRomanPS-BoldMT-65" d="M 2691 1566 
L 1088 1566 
Q 1116 984 1397 647 
Q 1613 388 1916 388 
Q 2103 388 2256 492 
Q 2409 597 2584 869 
L 2691 800 
Q 2453 316 2165 114 
Q 1878 -88 1500 -88 
Q 850 -88 516 413 
Q 247 816 247 1413 
Q 247 2144 642 2576 
Q 1038 3009 1569 3009 
Q 2013 3009 2339 2645 
Q 2666 2281 2691 1566 
z
M 1922 1775 
Q 1922 2278 1867 2465 
Q 1813 2653 1697 2750 
Q 1631 2806 1522 2806 
Q 1359 2806 1256 2647 
Q 1072 2369 1072 1884 
L 1072 1775 
L 1922 1775 
z
" transform="scale(0.015625)"/>
      <path id="TimesNewRomanPS-BoldMT-6f" d="M 1594 3009 
Q 1975 3009 2303 2812 
Q 2631 2616 2801 2253 
Q 2972 1891 2972 1459 
Q 2972 838 2656 419 
Q 2275 -88 1603 -88 
Q 944 -88 587 375 
Q 231 838 231 1447 
Q 231 2075 595 2542 
Q 959 3009 1594 3009 
z
M 1606 2788 
Q 1447 2788 1333 2667 
Q 1219 2547 1183 2192 
Q 1147 1838 1147 1206 
Q 1147 872 1191 581 
Q 1225 359 1337 243 
Q 1450 128 1594 128 
Q 1734 128 1828 206 
Q 1950 313 1991 503 
Q 2053 800 2053 1703 
Q 2053 2234 1993 2432 
Q 1934 2631 1819 2722 
Q 1738 2788 1606 2788 
z
" transform="scale(0.015625)"/>
      <path id="TimesNewRomanPS-BoldMT-64" d="M 3056 4238 
L 3056 875 
Q 3056 534 3075 472 
Q 3100 369 3170 319 
Q 3241 269 3416 256 
L 3416 153 
L 2181 -88 
L 2181 375 
Q 1959 106 1786 9 
Q 1613 -88 1394 -88 
Q 834 -88 509 413 
Q 247 819 247 1409 
Q 247 1881 409 2254 
Q 572 2628 855 2818 
Q 1138 3009 1463 3009 
Q 1672 3009 1834 2928 
Q 1997 2847 2181 2644 
L 2181 3525 
Q 2181 3859 2153 3928 
Q 2116 4019 2041 4062 
Q 1966 4106 1759 4106 
L 1759 4238 
L 3056 4238 
z
M 2181 2256 
Q 1950 2700 1616 2700 
Q 1500 2700 1425 2638 
Q 1309 2541 1236 2297 
Q 1163 2053 1163 1550 
Q 1163 997 1244 731 
Q 1325 466 1466 347 
Q 1538 288 1663 288 
Q 1938 288 2181 719 
L 2181 2256 
z
" transform="scale(0.015625)"/>
      <path id="TimesNewRomanPS-BoldMT-6e" d="M 1409 2922 
L 1409 2544 
Q 1634 2788 1840 2898 
Q 2047 3009 2284 3009 
Q 2569 3009 2756 2851 
Q 2944 2694 3006 2459 
Q 3056 2281 3056 1775 
L 3056 638 
Q 3056 300 3117 217 
Q 3178 134 3372 113 
L 3372 0 
L 1894 0 
L 1894 113 
Q 2059 134 2131 250 
Q 2181 328 2181 638 
L 2181 1938 
Q 2181 2297 2153 2390 
Q 2125 2484 2058 2536 
Q 1991 2588 1909 2588 
Q 1641 2588 1409 2203 
L 1409 638 
Q 1409 309 1470 221 
Q 1531 134 1697 113 
L 1697 0 
L 219 0 
L 219 113 
Q 403 131 481 231 
Q 534 300 534 638 
L 534 2288 
Q 534 2619 473 2700 
Q 413 2781 219 2806 
L 219 2922 
L 1409 2922 
z
" transform="scale(0.015625)"/>
      <path id="TimesNewRomanPS-BoldMT-20" transform="scale(0.015625)"/>
      <path id="TimesNewRomanPS-BoldMT-28" d="M 2056 4334 
L 2056 4191 
Q 1731 3978 1578 3775 
Q 1366 3494 1247 3053 
Q 1097 2506 1097 1525 
Q 1097 600 1233 87 
Q 1369 -425 1603 -741 
Q 1766 -959 2056 -1125 
L 2056 -1281 
Q 1303 -1028 779 -248 
Q 256 531 256 1544 
Q 256 2544 778 3314 
Q 1300 4084 2056 4334 
z
" transform="scale(0.015625)"/>
      <path id="TimesNewRomanPS-BoldMT-52" d="M 1700 1931 
L 1700 744 
Q 1700 400 1742 311 
Q 1784 222 1890 169 
Q 1997 116 2288 116 
L 2288 0 
L 119 0 
L 119 116 
Q 413 116 517 170 
Q 622 225 664 312 
Q 706 400 706 744 
L 706 3494 
Q 706 3838 664 3927 
Q 622 4016 515 4069 
Q 409 4122 119 4122 
L 119 4238 
L 2088 4238 
Q 2856 4238 3212 4131 
Q 3569 4025 3794 3739 
Q 4019 3453 4019 3069 
Q 4019 2600 3681 2294 
Q 3466 2100 3078 2003 
L 4097 569 
Q 4297 291 4381 222 
Q 4509 125 4678 116 
L 4678 0 
L 3344 0 
L 1978 1931 
L 1700 1931 
z
M 1700 4009 
L 1700 2153 
L 1878 2153 
Q 2313 2153 2528 2233 
Q 2744 2313 2867 2520 
Q 2991 2728 2991 3063 
Q 2991 3547 2764 3778 
Q 2538 4009 2034 4009 
L 1700 4009 
z
" transform="scale(0.015625)"/>
      <path id="TimesNewRomanPS-BoldMT-73" d="M 2063 3003 
L 2109 2006 
L 2003 2006 
Q 1813 2450 1608 2612 
Q 1403 2775 1200 2775 
Q 1072 2775 981 2689 
Q 891 2603 891 2491 
Q 891 2406 953 2328 
Q 1053 2200 1512 1889 
Q 1972 1578 2117 1361 
Q 2263 1144 2263 875 
Q 2263 631 2141 397 
Q 2019 163 1797 37 
Q 1575 -88 1306 -88 
Q 1097 -88 747 44 
Q 653 78 619 78 
Q 516 78 447 -78 
L 344 -78 
L 294 972 
L 400 972 
Q 541 559 786 353 
Q 1031 147 1250 147 
Q 1400 147 1495 239 
Q 1591 331 1591 463 
Q 1591 613 1497 722 
Q 1403 831 1078 1053 
Q 600 1384 459 1559 
Q 253 1816 253 2125 
Q 253 2463 486 2736 
Q 719 3009 1159 3009 
Q 1397 3009 1619 2894 
Q 1703 2847 1756 2847 
Q 1813 2847 1847 2870 
Q 1881 2894 1956 3003 
L 2063 3003 
z
" transform="scale(0.015625)"/>
      <path id="TimesNewRomanPS-BoldMT-75" d="M 3038 2922 
L 3038 634 
Q 3038 300 3100 217 
Q 3163 134 3353 113 
L 3353 0 
L 2163 0 
L 2163 391 
Q 1953 141 1743 26 
Q 1534 -88 1275 -88 
Q 1028 -88 836 64 
Q 644 216 578 419 
Q 513 622 513 1128 
L 513 2288 
Q 513 2619 452 2700 
Q 391 2781 197 2806 
L 197 2922 
L 1388 2922 
L 1388 925 
Q 1388 613 1417 522 
Q 1447 431 1511 384 
Q 1575 338 1659 338 
Q 1772 338 1863 397 
Q 1988 478 2163 725 
L 2163 2288 
Q 2163 2619 2102 2700 
Q 2041 2781 1847 2806 
L 1847 2922 
L 3038 2922 
z
" transform="scale(0.015625)"/>
      <path id="TimesNewRomanPS-BoldMT-29" d="M 78 -1281 
L 78 -1138 
Q 403 -922 556 -719 
Q 766 -438 888 0 
Q 1038 550 1038 1531 
Q 1038 2456 902 2967 
Q 766 3478 531 3794 
Q 369 4013 78 4178 
L 78 4334 
Q 831 4081 1354 3301 
Q 1878 2522 1878 1509 
Q 1878 513 1354 -257 
Q 831 -1028 78 -1281 
z
" transform="scale(0.015625)"/>
     </defs>
     <use xlink:href="#TimesNewRomanPS-BoldMT-54"/>
     <use xlink:href="#TimesNewRomanPS-BoldMT-68" transform="translate(66.699219 0)"/>
     <use xlink:href="#TimesNewRomanPS-BoldMT-65" transform="translate(122.314453 0)"/>
     <use xlink:href="#TimesNewRomanPS-BoldMT-6f" transform="translate(166.699219 0)"/>
     <use xlink:href="#TimesNewRomanPS-BoldMT-64" transform="translate(216.699219 0)"/>
     <use xlink:href="#TimesNewRomanPS-BoldMT-65" transform="translate(272.314453 0)"/>
     <use xlink:href="#TimesNewRomanPS-BoldMT-6e" transform="translate(316.699219 0)"/>
     <use xlink:href="#TimesNewRomanPS-BoldMT-20" transform="translate(372.314453 0)"/>
     <use xlink:href="#TimesNewRomanPS-BoldMT-28" transform="translate(397.314453 0)"/>
     <use xlink:href="#TimesNewRomanPS-BoldMT-52" transform="translate(430.615234 0)"/>
     <use xlink:href="#TimesNewRomanPS-BoldMT-68" transform="translate(502.832031 0)"/>
     <use xlink:href="#TimesNewRomanPS-BoldMT-65" transform="translate(558.447266 0)"/>
     <use xlink:href="#TimesNewRomanPS-BoldMT-73" transform="translate(602.832031 0)"/>
     <use xlink:href="#TimesNewRomanPS-BoldMT-75" transform="translate(641.748047 0)"/>
     <use xlink:href="#TimesNewRomanPS-BoldMT-73" transform="translate(697.363281 0)"/>
     <use xlink:href="#TimesNewRomanPS-BoldMT-29" transform="translate(736.279297 0)"/>
    </g>
   </g>
   <g id="legend_1">
    <g id="patch_7">
     <path d="M 47.79 94.67625 
L 133.686875 94.67625 
Q 135.686875 94.67625 135.686875 92.67625 
L 135.686875 37.12 
Q 135.686875 35.12 133.686875 35.12 
L 47.79 35.12 
Q 45.79 35.12 45.79 37.12 
L 45.79 92.67625 
Q 45.79 94.67625 47.79 94.67625 
z
" style="fill: #ffffff; opacity: 0.8; stroke: #cccccc; stroke-linejoin: miter"/>
    </g>
    <g id="patch_8">
     <path d="M 49.79 46.12 
L 69.79 46.12 
L 69.79 39.12 
L 49.79 39.12 
z
" style="fill: #5386b6"/>
    </g>
    <g id="text_14">
     <!-- Success -->
     <g transform="translate(77.79 46.12) scale(0.1 -0.1)">
      <use xlink:href="#TimesNewRomanPSMT-53"/>
      <use xlink:href="#TimesNewRomanPSMT-75" transform="translate(55.615234 0)"/>
      <use xlink:href="#TimesNewRomanPSMT-63" transform="translate(105.615234 0)"/>
      <use xlink:href="#TimesNewRomanPSMT-63" transform="translate(150 0)"/>
      <use xlink:href="#TimesNewRomanPSMT-65" transform="translate(194.384766 0)"/>
      <use xlink:href="#TimesNewRomanPSMT-73" transform="translate(238.769531 0)"/>
      <use xlink:href="#TimesNewRomanPSMT-73" transform="translate(277.685547 0)"/>
     </g>
    </g>
    <g id="patch_9">
     <path d="M 49.79 60.259063 
L 69.79 60.259063 
L 69.79 53.259063 
L 49.79 53.259063 
z
" style="fill: #d57459"/>
    </g>
    <g id="text_15">
     <!-- Error -->
     <g transform="translate(77.79 60.259063) scale(0.1 -0.1)">
      <defs>
       <path id="TimesNewRomanPSMT-45" d="M 1338 4006 
L 1338 2331 
L 2269 2331 
Q 2631 2331 2753 2441 
Q 2916 2584 2934 2947 
L 3050 2947 
L 3050 1472 
L 2934 1472 
Q 2891 1781 2847 1869 
Q 2791 1978 2662 2040 
Q 2534 2103 2269 2103 
L 1338 2103 
L 1338 706 
Q 1338 425 1363 364 
Q 1388 303 1450 267 
Q 1513 231 1688 231 
L 2406 231 
Q 2766 231 2928 281 
Q 3091 331 3241 478 
Q 3434 672 3638 1063 
L 3763 1063 
L 3397 0 
L 131 0 
L 131 116 
L 281 116 
Q 431 116 566 188 
Q 666 238 702 338 
Q 738 438 738 747 
L 738 3500 
Q 738 3903 656 3997 
Q 544 4122 281 4122 
L 131 4122 
L 131 4238 
L 3397 4238 
L 3444 3309 
L 3322 3309 
Q 3256 3644 3176 3769 
Q 3097 3894 2941 3959 
Q 2816 4006 2500 4006 
L 1338 4006 
z
" transform="scale(0.015625)"/>
      </defs>
      <use xlink:href="#TimesNewRomanPSMT-45"/>
      <use xlink:href="#TimesNewRomanPSMT-72" transform="translate(61.083984 0)"/>
      <use xlink:href="#TimesNewRomanPSMT-72" transform="translate(94.384766 0)"/>
      <use xlink:href="#TimesNewRomanPSMT-6f" transform="translate(127.685547 0)"/>
      <use xlink:href="#TimesNewRomanPSMT-72" transform="translate(177.685547 0)"/>
     </g>
    </g>
    <g id="patch_10">
     <path d="M 49.79 74.398125 
L 69.79 74.398125 
L 69.79 67.398125 
L 49.79 67.398125 
z
" style="fill: #e8bc60"/>
    </g>
    <g id="text_16">
     <!-- Premature -->
     <g transform="translate(77.79 74.398125) scale(0.1 -0.1)">
      <defs>
       <path id="TimesNewRomanPSMT-6d" d="M 1050 2338 
Q 1363 2650 1419 2697 
Q 1559 2816 1721 2881 
Q 1884 2947 2044 2947 
Q 2313 2947 2506 2790 
Q 2700 2634 2766 2338 
Q 3088 2713 3309 2830 
Q 3531 2947 3766 2947 
Q 3994 2947 4170 2830 
Q 4347 2713 4450 2447 
Q 4519 2266 4519 1878 
L 4519 647 
Q 4519 378 4559 278 
Q 4591 209 4675 161 
Q 4759 113 4950 113 
L 4950 0 
L 3538 0 
L 3538 113 
L 3597 113 
Q 3781 113 3884 184 
Q 3956 234 3988 344 
Q 4000 397 4000 647 
L 4000 1878 
Q 4000 2228 3916 2372 
Q 3794 2572 3525 2572 
Q 3359 2572 3192 2489 
Q 3025 2406 2788 2181 
L 2781 2147 
L 2788 2013 
L 2788 647 
Q 2788 353 2820 281 
Q 2853 209 2943 161 
Q 3034 113 3253 113 
L 3253 0 
L 1806 0 
L 1806 113 
Q 2044 113 2133 169 
Q 2222 225 2256 338 
Q 2272 391 2272 647 
L 2272 1878 
Q 2272 2228 2169 2381 
Q 2031 2581 1784 2581 
Q 1616 2581 1450 2491 
Q 1191 2353 1050 2181 
L 1050 647 
Q 1050 366 1089 281 
Q 1128 197 1204 155 
Q 1281 113 1516 113 
L 1516 0 
L 100 0 
L 100 113 
Q 297 113 375 155 
Q 453 197 493 289 
Q 534 381 534 647 
L 534 1741 
Q 534 2213 506 2350 
Q 484 2453 437 2492 
Q 391 2531 309 2531 
Q 222 2531 100 2484 
L 53 2597 
L 916 2947 
L 1050 2947 
L 1050 2338 
z
" transform="scale(0.015625)"/>
      </defs>
      <use xlink:href="#TimesNewRomanPSMT-50"/>
      <use xlink:href="#TimesNewRomanPSMT-72" transform="translate(55.615234 0)"/>
      <use xlink:href="#TimesNewRomanPSMT-65" transform="translate(88.916016 0)"/>
      <use xlink:href="#TimesNewRomanPSMT-6d" transform="translate(133.300781 0)"/>
      <use xlink:href="#TimesNewRomanPSMT-61" transform="translate(211.083984 0)"/>
      <use xlink:href="#TimesNewRomanPSMT-74" transform="translate(255.46875 0)"/>
      <use xlink:href="#TimesNewRomanPSMT-75" transform="translate(283.251953 0)"/>
      <use xlink:href="#TimesNewRomanPSMT-72" transform="translate(333.251953 0)"/>
      <use xlink:href="#TimesNewRomanPSMT-65" transform="translate(366.552734 0)"/>
     </g>
    </g>
    <g id="patch_11">
     <path d="M 49.79 88.537188 
L 69.79 88.537188 
L 69.79 81.537188 
L 49.79 81.537188 
z
" style="fill: #8d5993"/>
    </g>
    <g id="text_17">
     <!-- Stepomission -->
     <g transform="translate(77.79 88.537188) scale(0.1 -0.1)">
      <use xlink:href="#TimesNewRomanPSMT-53"/>
      <use xlink:href="#TimesNewRomanPSMT-74" transform="translate(55.615234 0)"/>
      <use xlink:href="#TimesNewRomanPSMT-65" transform="translate(83.398438 0)"/>
      <use xlink:href="#TimesNewRomanPSMT-70" transform="translate(127.783203 0)"/>
      <use xlink:href="#TimesNewRomanPSMT-6f" transform="translate(177.783203 0)"/>
      <use xlink:href="#TimesNewRomanPSMT-6d" transform="translate(227.783203 0)"/>
      <use xlink:href="#TimesNewRomanPSMT-69" transform="translate(305.566406 0)"/>
      <use xlink:href="#TimesNewRomanPSMT-73" transform="translate(333.349609 0)"/>
      <use xlink:href="#TimesNewRomanPSMT-73" transform="translate(372.265625 0)"/>
      <use xlink:href="#TimesNewRomanPSMT-69" transform="translate(411.181641 0)"/>
      <use xlink:href="#TimesNewRomanPSMT-6f" transform="translate(438.964844 0)"/>
      <use xlink:href="#TimesNewRomanPSMT-6e" transform="translate(488.964844 0)"/>
     </g>
    </g>
   </g>
  </g>
 </g>
 <defs>
  <clipPath id="pe28ce5dad9">
   <rect x="40.79" y="30.12" width="624.102589" height="501.4"/>
  </clipPath>
 </defs>
</svg>
