<?xml version="1.0" encoding="utf-8" standalone="no"?>
<!DOCTYPE svg PUBLIC "-//W3C//DTD SVG 1.1//EN"
  "http://www.w3.org/Graphics/SVG/1.1/DTD/svg11.dtd">
<svg xmlns:xlink="http://www.w3.org/1999/xlink" width="720pt" height="576pt" viewBox="0 0 720 576" xmlns="http://www.w3.org/2000/svg" version="1.1">
 <metadata>
  <rdf:RDF xmlns:dc="http://purl.org/dc/elements/1.1/" xmlns:cc="http://creativecommons.org/ns#" xmlns:rdf="http://www.w3.org/1999/02/22-rdf-syntax-ns#">
   <cc:Work>
    <dc:type rdf:resource="http://purl.org/dc/dcmitype/StillImage"/>
    <dc:date>2025-06-27T15:15:59.027014</dc:date>
    <dc:format>image/svg+xml</dc:format>
    <dc:creator>
     <cc:Agent>
      <dc:title>Matplotlib v3.10.3, https://matplotlib.org/</dc:title>
     </cc:Agent>
    </dc:creator>
   </cc:Work>
  </rdf:RDF>
 </metadata>
 <defs>
  <style type="text/css">*{stroke-linejoin: round; stroke-linecap: butt}</style>
 </defs>
 <g id="figure_1">
  <g id="patch_1">
   <path d="M 0 576 
L 720 576 
L 720 0 
L 0 0 
z
" style="fill: #ffffff"/>
  </g>
  <g id="axes_1">
   <g id="patch_2">
    <path d="M 40.79 531.52 
L 653.472 531.52 
L 653.472 30.12 
L 40.79 30.12 
z
" style="fill: #ffffff"/>
   </g>
   <g id="FillBetweenPolyCollection_1">
    <path d="M 40.79 184.396923 
L 40.79 531.52 
L 45.691456 531.52 
L 50.592912 531.52 
L 55.494368 531.52 
L 60.395824 531.52 
L 65.29728 531.52 
L 70.198736 531.52 
L 75.100192 531.52 
L 80.001648 531.52 
L 84.903104 531.52 
L 89.80456 531.52 
L 94.706016 531.52 
L 99.607472 531.52 
L 104.508928 531.52 
L 109.410384 531.52 
L 114.31184 531.52 
L 119.213296 531.52 
L 124.114752 531.52 
L 129.016208 531.52 
L 133.917664 531.52 
L 138.81912 531.52 
L 143.720576 531.52 
L 148.622032 531.52 
L 153.523488 531.52 
L 158.424944 531.52 
L 163.3264 531.52 
L 168.227856 531.52 
L 173.129312 531.52 
L 178.030768 531.52 
L 182.932224 531.52 
L 187.83368 531.52 
L 192.735136 531.52 
L 197.636592 531.52 
L 202.538048 531.52 
L 207.439504 531.52 
L 212.34096 531.52 
L 217.242416 531.52 
L 222.143872 531.52 
L 227.045328 531.52 
L 231.946784 531.52 
L 236.84824 531.52 
L 241.749696 531.52 
L 246.651152 531.52 
L 251.552608 531.52 
L 256.454064 531.52 
L 261.35552 531.52 
L 266.256976 531.52 
L 271.158432 531.52 
L 276.059888 531.52 
L 280.961344 531.52 
L 285.8628 531.52 
L 290.764256 531.52 
L 295.665712 531.52 
L 300.567168 531.52 
L 305.468624 531.52 
L 310.37008 531.52 
L 315.271536 531.52 
L 320.172992 531.52 
L 325.074448 531.52 
L 329.975904 531.52 
L 334.87736 531.52 
L 339.778816 531.52 
L 344.680272 531.52 
L 349.581728 531.52 
L 354.483184 531.52 
L 359.38464 531.52 
L 364.286096 531.52 
L 369.187552 531.52 
L 374.089008 531.52 
L 378.990464 531.52 
L 383.89192 531.52 
L 388.793376 531.52 
L 393.694832 531.52 
L 398.596288 531.52 
L 403.497744 531.52 
L 408.3992 531.52 
L 413.300656 531.52 
L 418.202112 531.52 
L 423.103568 531.52 
L 428.005024 531.52 
L 432.90648 531.52 
L 437.807936 531.52 
L 442.709392 531.52 
L 447.610848 531.52 
L 452.512304 531.52 
L 457.41376 531.52 
L 462.315216 531.52 
L 467.216672 531.52 
L 472.118128 531.52 
L 477.019584 531.52 
L 481.92104 531.52 
L 486.822496 531.52 
L 491.723952 531.52 
L 496.625408 531.52 
L 501.526864 531.52 
L 506.42832 531.52 
L 511.329776 531.52 
L 516.231232 531.52 
L 521.132688 531.52 
L 526.034144 531.52 
L 530.9356 531.52 
L 535.837056 531.52 
L 540.738512 531.52 
L 545.639968 531.52 
L 550.541424 531.52 
L 555.44288 531.52 
L 560.344336 531.52 
L 565.245792 531.52 
L 570.147248 531.52 
L 575.048704 531.52 
L 579.95016 531.52 
L 584.851616 531.52 
L 589.753072 531.52 
L 594.654528 531.52 
L 599.555984 531.52 
L 604.45744 531.52 
L 609.358896 531.52 
L 614.260352 531.52 
L 619.161808 531.52 
L 624.063264 531.52 
L 628.96472 531.52 
L 633.866176 531.52 
L 638.767632 531.52 
L 643.669088 531.52 
L 648.570544 531.52 
L 653.472 531.52 
L 653.472 101.748571 
L 653.472 101.748571 
L 648.570544 113.686667 
L 643.669088 531.52 
L 638.767632 197.253333 
L 633.866176 30.12 
L 628.96472 30.12 
L 624.063264 48.69037 
L 619.161808 30.12 
L 614.260352 30.12 
L 609.358896 30.12 
L 604.45744 30.12 
L 599.555984 30.12 
L 594.654528 30.12 
L 589.753072 30.12 
L 584.851616 197.253333 
L 579.95016 70.232 
L 575.048704 173.377143 
L 570.147248 30.12 
L 565.245792 197.253333 
L 560.344336 30.12 
L 555.44288 30.12 
L 550.541424 30.12 
L 545.639968 30.12 
L 540.738512 30.12 
L 535.837056 130.4 
L 530.9356 30.12 
L 526.034144 101.748571 
L 521.132688 30.12 
L 516.231232 173.377143 
L 511.329776 531.52 
L 506.42832 30.12 
L 501.526864 30.12 
L 496.625408 30.12 
L 491.723952 30.12 
L 486.822496 30.12 
L 481.92104 531.52 
L 477.019584 30.12 
L 472.118128 121.283636 
L 467.216672 113.686667 
L 462.315216 80.26 
L 457.41376 155.47 
L 452.512304 30.12 
L 447.610848 113.686667 
L 442.709392 96.973333 
L 437.807936 30.12 
L 432.90648 30.12 
L 428.005024 64.69931 
L 423.103568 30.12 
L 418.202112 30.12 
L 413.300656 30.12 
L 408.3992 30.12 
L 403.497744 101.748571 
L 398.596288 30.12 
L 393.694832 73.72 
L 388.793376 90.288 
L 383.89192 218.145 
L 378.990464 30.12 
L 374.089008 30.12 
L 369.187552 30.12 
L 364.286096 71.903333 
L 359.38464 531.52 
L 354.483184 30.12 
L 349.581728 30.12 
L 344.680272 197.253333 
L 339.778816 30.12 
L 334.87736 531.52 
L 329.975904 118.602353 
L 325.074448 180.54 
L 320.172992 531.52 
L 315.271536 155.47 
L 310.37008 30.12 
L 305.468624 330.96 
L 300.567168 85.831111 
L 295.665712 531.52 
L 290.764256 130.4 
L 285.8628 155.47 
L 280.961344 531.52 
L 276.059888 197.253333 
L 271.158432 30.12 
L 266.256976 230.68 
L 261.35552 280.82 
L 256.454064 197.253333 
L 251.552608 30.12 
L 246.651152 178.682963 
L 241.749696 197.253333 
L 236.84824 138.530811 
L 231.946784 30.12 
L 227.045328 173.377143 
L 222.143872 101.748571 
L 217.242416 280.82 
L 212.34096 199.3425 
L 207.439504 312.1575 
L 202.538048 280.82 
L 197.636592 230.68 
L 192.735136 230.68 
L 187.83368 218.145 
L 182.932224 230.68 
L 178.030768 280.82 
L 173.129312 531.52 
L 168.227856 531.52 
L 163.3264 226.32 
L 158.424944 231.832644 
L 153.523488 250.736 
L 148.622032 225.108889 
L 143.720576 262.912857 
L 138.81912 255.75 
L 133.917664 406.17 
L 129.016208 197.253333 
L 124.114752 388.262857 
L 119.213296 213.966667 
L 114.31184 262.111045 
L 109.410384 261.535385 
L 104.508928 180.54 
L 99.607472 180.54 
L 94.706016 258.029091 
L 89.80456 298.727143 
L 84.903104 371.983636 
L 80.001648 294.014737 
L 75.100192 293.355 
L 70.198736 321.255484 
L 65.29728 280.82 
L 60.395824 252.964444 
L 55.494368 287.982857 
L 50.592912 431.24 
L 45.691456 218.145 
L 40.79 184.396923 
z
" clip-path="url(#p2239508dfe)" style="fill: #5386b6"/>
   </g>
   <g id="FillBetweenPolyCollection_2">
    <path d="M 40.79 30.12 
L 40.79 184.396923 
L 45.691456 218.145 
L 50.592912 431.24 
L 55.494368 287.982857 
L 60.395824 252.964444 
L 65.29728 280.82 
L 70.198736 321.255484 
L 75.100192 293.355 
L 80.001648 294.014737 
L 84.903104 371.983636 
L 89.80456 298.727143 
L 94.706016 258.029091 
L 99.607472 180.54 
L 104.508928 180.54 
L 109.410384 261.535385 
L 114.31184 262.111045 
L 119.213296 213.966667 
L 124.114752 388.262857 
L 129.016208 197.253333 
L 133.917664 406.17 
L 138.81912 255.75 
L 143.720576 262.912857 
L 148.622032 225.108889 
L 153.523488 250.736 
L 158.424944 231.832644 
L 163.3264 226.32 
L 168.227856 531.52 
L 173.129312 531.52 
L 178.030768 280.82 
L 182.932224 230.68 
L 187.83368 218.145 
L 192.735136 230.68 
L 197.636592 230.68 
L 202.538048 280.82 
L 207.439504 312.1575 
L 212.34096 199.3425 
L 217.242416 280.82 
L 222.143872 101.748571 
L 227.045328 173.377143 
L 231.946784 30.12 
L 236.84824 138.530811 
L 241.749696 197.253333 
L 246.651152 178.682963 
L 251.552608 30.12 
L 256.454064 197.253333 
L 261.35552 280.82 
L 266.256976 230.68 
L 271.158432 30.12 
L 276.059888 197.253333 
L 280.961344 531.52 
L 285.8628 155.47 
L 290.764256 130.4 
L 295.665712 531.52 
L 300.567168 85.831111 
L 305.468624 330.96 
L 310.37008 30.12 
L 315.271536 155.47 
L 320.172992 531.52 
L 325.074448 180.54 
L 329.975904 118.602353 
L 334.87736 531.52 
L 339.778816 30.12 
L 344.680272 197.253333 
L 349.581728 30.12 
L 354.483184 30.12 
L 359.38464 531.52 
L 364.286096 71.903333 
L 369.187552 30.12 
L 374.089008 30.12 
L 378.990464 30.12 
L 383.89192 218.145 
L 388.793376 90.288 
L 393.694832 73.72 
L 398.596288 30.12 
L 403.497744 101.748571 
L 408.3992 30.12 
L 413.300656 30.12 
L 418.202112 30.12 
L 423.103568 30.12 
L 428.005024 64.69931 
L 432.90648 30.12 
L 437.807936 30.12 
L 442.709392 96.973333 
L 447.610848 113.686667 
L 452.512304 30.12 
L 457.41376 155.47 
L 462.315216 80.26 
L 467.216672 113.686667 
L 472.118128 121.283636 
L 477.019584 30.12 
L 481.92104 531.52 
L 486.822496 30.12 
L 491.723952 30.12 
L 496.625408 30.12 
L 501.526864 30.12 
L 506.42832 30.12 
L 511.329776 531.52 
L 516.231232 173.377143 
L 521.132688 30.12 
L 526.034144 101.748571 
L 530.9356 30.12 
L 535.837056 130.4 
L 540.738512 30.12 
L 545.639968 30.12 
L 550.541424 30.12 
L 555.44288 30.12 
L 560.344336 30.12 
L 565.245792 197.253333 
L 570.147248 30.12 
L 575.048704 173.377143 
L 579.95016 70.232 
L 584.851616 197.253333 
L 589.753072 30.12 
L 594.654528 30.12 
L 599.555984 30.12 
L 604.45744 30.12 
L 609.358896 30.12 
L 614.260352 30.12 
L 619.161808 30.12 
L 624.063264 48.69037 
L 628.96472 30.12 
L 633.866176 30.12 
L 638.767632 197.253333 
L 643.669088 531.52 
L 648.570544 113.686667 
L 653.472 101.748571 
L 653.472 30.12 
L 653.472 30.12 
L 648.570544 30.12 
L 643.669088 531.52 
L 638.767632 197.253333 
L 633.866176 30.12 
L 628.96472 30.12 
L 624.063264 30.12 
L 619.161808 30.12 
L 614.260352 30.12 
L 609.358896 30.12 
L 604.45744 30.12 
L 599.555984 30.12 
L 594.654528 30.12 
L 589.753072 30.12 
L 584.851616 30.12 
L 579.95016 30.12 
L 575.048704 30.12 
L 570.147248 30.12 
L 565.245792 30.12 
L 560.344336 30.12 
L 555.44288 30.12 
L 550.541424 30.12 
L 545.639968 30.12 
L 540.738512 30.12 
L 535.837056 30.12 
L 530.9356 30.12 
L 526.034144 101.748571 
L 521.132688 30.12 
L 516.231232 30.12 
L 511.329776 531.52 
L 506.42832 30.12 
L 501.526864 30.12 
L 496.625408 30.12 
L 491.723952 30.12 
L 486.822496 30.12 
L 481.92104 531.52 
L 477.019584 30.12 
L 472.118128 30.12 
L 467.216672 30.12 
L 462.315216 30.12 
L 457.41376 30.12 
L 452.512304 30.12 
L 447.610848 30.12 
L 442.709392 63.546667 
L 437.807936 30.12 
L 432.90648 30.12 
L 428.005024 30.12 
L 423.103568 30.12 
L 418.202112 30.12 
L 413.300656 30.12 
L 408.3992 30.12 
L 403.497744 30.12 
L 398.596288 30.12 
L 393.694832 30.12 
L 388.793376 30.12 
L 383.89192 30.12 
L 378.990464 30.12 
L 374.089008 30.12 
L 369.187552 30.12 
L 364.286096 30.12 
L 359.38464 30.12 
L 354.483184 30.12 
L 349.581728 30.12 
L 344.680272 30.12 
L 339.778816 30.12 
L 334.87736 531.52 
L 329.975904 30.12 
L 325.074448 30.12 
L 320.172992 30.12 
L 315.271536 30.12 
L 310.37008 30.12 
L 305.468624 30.12 
L 300.567168 30.12 
L 295.665712 30.12 
L 290.764256 30.12 
L 285.8628 30.12 
L 280.961344 30.12 
L 276.059888 30.12 
L 271.158432 30.12 
L 266.256976 30.12 
L 261.35552 30.12 
L 256.454064 30.12 
L 251.552608 30.12 
L 246.651152 30.12 
L 241.749696 30.12 
L 236.84824 84.325405 
L 231.946784 30.12 
L 227.045328 30.12 
L 222.143872 30.12 
L 217.242416 30.12 
L 212.34096 30.12 
L 207.439504 61.4575 
L 202.538048 30.12 
L 197.636592 30.12 
L 192.735136 30.12 
L 187.83368 30.12 
L 182.932224 30.12 
L 178.030768 30.12 
L 173.129312 531.52 
L 168.227856 30.12 
L 163.3264 51.92 
L 158.424944 53.172874 
L 153.523488 50.176 
L 148.622032 57.975556 
L 143.720576 30.12 
L 138.81912 30.12 
L 133.917664 155.47 
L 129.016208 30.12 
L 124.114752 101.748571 
L 119.213296 30.12 
L 114.31184 30.12 
L 109.410384 30.12 
L 104.508928 30.12 
L 99.607472 30.12 
L 94.706016 30.12 
L 89.80456 48.027143 
L 84.903104 52.910909 
L 80.001648 47.712982 
L 75.100192 30.12 
L 70.198736 46.294194 
L 65.29728 30.12 
L 60.395824 41.262222 
L 55.494368 44.445714 
L 50.592912 30.12 
L 45.691456 30.12 
L 40.79 30.12 
z
" clip-path="url(#p2239508dfe)" style="fill: #d57459"/>
   </g>
   <g id="FillBetweenPolyCollection_3">
    <path d="M 40.79 30.12 
L 40.79 30.12 
L 45.691456 30.12 
L 50.592912 30.12 
L 55.494368 44.445714 
L 60.395824 41.262222 
L 65.29728 30.12 
L 70.198736 46.294194 
L 75.100192 30.12 
L 80.001648 47.712982 
L 84.903104 52.910909 
L 89.80456 48.027143 
L 94.706016 30.12 
L 99.607472 30.12 
L 104.508928 30.12 
L 109.410384 30.12 
L 114.31184 30.12 
L 119.213296 30.12 
L 124.114752 101.748571 
L 129.016208 30.12 
L 133.917664 155.47 
L 138.81912 30.12 
L 143.720576 30.12 
L 148.622032 57.975556 
L 153.523488 50.176 
L 158.424944 53.172874 
L 163.3264 51.92 
L 168.227856 30.12 
L 173.129312 531.52 
L 178.030768 30.12 
L 182.932224 30.12 
L 187.83368 30.12 
L 192.735136 30.12 
L 197.636592 30.12 
L 202.538048 30.12 
L 207.439504 61.4575 
L 212.34096 30.12 
L 217.242416 30.12 
L 222.143872 30.12 
L 227.045328 30.12 
L 231.946784 30.12 
L 236.84824 84.325405 
L 241.749696 30.12 
L 246.651152 30.12 
L 251.552608 30.12 
L 256.454064 30.12 
L 261.35552 30.12 
L 266.256976 30.12 
L 271.158432 30.12 
L 276.059888 30.12 
L 280.961344 30.12 
L 285.8628 30.12 
L 290.764256 30.12 
L 295.665712 30.12 
L 300.567168 30.12 
L 305.468624 30.12 
L 310.37008 30.12 
L 315.271536 30.12 
L 320.172992 30.12 
L 325.074448 30.12 
L 329.975904 30.12 
L 334.87736 531.52 
L 339.778816 30.12 
L 344.680272 30.12 
L 349.581728 30.12 
L 354.483184 30.12 
L 359.38464 30.12 
L 364.286096 30.12 
L 369.187552 30.12 
L 374.089008 30.12 
L 378.990464 30.12 
L 383.89192 30.12 
L 388.793376 30.12 
L 393.694832 30.12 
L 398.596288 30.12 
L 403.497744 30.12 
L 408.3992 30.12 
L 413.300656 30.12 
L 418.202112 30.12 
L 423.103568 30.12 
L 428.005024 30.12 
L 432.90648 30.12 
L 437.807936 30.12 
L 442.709392 63.546667 
L 447.610848 30.12 
L 452.512304 30.12 
L 457.41376 30.12 
L 462.315216 30.12 
L 467.216672 30.12 
L 472.118128 30.12 
L 477.019584 30.12 
L 481.92104 531.52 
L 486.822496 30.12 
L 491.723952 30.12 
L 496.625408 30.12 
L 501.526864 30.12 
L 506.42832 30.12 
L 511.329776 531.52 
L 516.231232 30.12 
L 521.132688 30.12 
L 526.034144 101.748571 
L 530.9356 30.12 
L 535.837056 30.12 
L 540.738512 30.12 
L 545.639968 30.12 
L 550.541424 30.12 
L 555.44288 30.12 
L 560.344336 30.12 
L 565.245792 30.12 
L 570.147248 30.12 
L 575.048704 30.12 
L 579.95016 30.12 
L 584.851616 30.12 
L 589.753072 30.12 
L 594.654528 30.12 
L 599.555984 30.12 
L 604.45744 30.12 
L 609.358896 30.12 
L 614.260352 30.12 
L 619.161808 30.12 
L 624.063264 30.12 
L 628.96472 30.12 
L 633.866176 30.12 
L 638.767632 197.253333 
L 643.669088 531.52 
L 648.570544 30.12 
L 653.472 30.12 
L 653.472 30.12 
L 653.472 30.12 
L 648.570544 30.12 
L 643.669088 531.52 
L 638.767632 30.12 
L 633.866176 30.12 
L 628.96472 30.12 
L 624.063264 30.12 
L 619.161808 30.12 
L 614.260352 30.12 
L 609.358896 30.12 
L 604.45744 30.12 
L 599.555984 30.12 
L 594.654528 30.12 
L 589.753072 30.12 
L 584.851616 30.12 
L 579.95016 30.12 
L 575.048704 30.12 
L 570.147248 30.12 
L 565.245792 30.12 
L 560.344336 30.12 
L 555.44288 30.12 
L 550.541424 30.12 
L 545.639968 30.12 
L 540.738512 30.12 
L 535.837056 30.12 
L 530.9356 30.12 
L 526.034144 30.12 
L 521.132688 30.12 
L 516.231232 30.12 
L 511.329776 280.82 
L 506.42832 30.12 
L 501.526864 30.12 
L 496.625408 30.12 
L 491.723952 30.12 
L 486.822496 30.12 
L 481.92104 531.52 
L 477.019584 30.12 
L 472.118128 30.12 
L 467.216672 30.12 
L 462.315216 30.12 
L 457.41376 30.12 
L 452.512304 30.12 
L 447.610848 30.12 
L 442.709392 30.12 
L 437.807936 30.12 
L 432.90648 30.12 
L 428.005024 30.12 
L 423.103568 30.12 
L 418.202112 30.12 
L 413.300656 30.12 
L 408.3992 30.12 
L 403.497744 30.12 
L 398.596288 30.12 
L 393.694832 30.12 
L 388.793376 30.12 
L 383.89192 30.12 
L 378.990464 30.12 
L 374.089008 30.12 
L 369.187552 30.12 
L 364.286096 30.12 
L 359.38464 30.12 
L 354.483184 30.12 
L 349.581728 30.12 
L 344.680272 30.12 
L 339.778816 30.12 
L 334.87736 30.12 
L 329.975904 30.12 
L 325.074448 30.12 
L 320.172992 30.12 
L 315.271536 30.12 
L 310.37008 30.12 
L 305.468624 30.12 
L 300.567168 30.12 
L 295.665712 30.12 
L 290.764256 30.12 
L 285.8628 30.12 
L 280.961344 30.12 
L 276.059888 30.12 
L 271.158432 30.12 
L 266.256976 30.12 
L 261.35552 30.12 
L 256.454064 30.12 
L 251.552608 30.12 
L 246.651152 30.12 
L 241.749696 30.12 
L 236.84824 70.774054 
L 231.946784 30.12 
L 227.045328 30.12 
L 222.143872 30.12 
L 217.242416 30.12 
L 212.34096 30.12 
L 207.439504 30.12 
L 202.538048 30.12 
L 197.636592 30.12 
L 192.735136 30.12 
L 187.83368 30.12 
L 182.932224 30.12 
L 178.030768 30.12 
L 173.129312 531.52 
L 168.227856 30.12 
L 163.3264 51.92 
L 158.424944 35.883218 
L 153.523488 50.176 
L 148.622032 30.12 
L 143.720576 30.12 
L 138.81912 30.12 
L 133.917664 155.47 
L 129.016208 30.12 
L 124.114752 30.12 
L 119.213296 30.12 
L 114.31184 30.12 
L 109.410384 30.12 
L 104.508928 30.12 
L 99.607472 30.12 
L 94.706016 30.12 
L 89.80456 30.12 
L 84.903104 30.12 
L 80.001648 38.916491 
L 75.100192 30.12 
L 70.198736 30.12 
L 65.29728 30.12 
L 60.395824 30.12 
L 55.494368 30.12 
L 50.592912 30.12 
L 45.691456 30.12 
L 40.79 30.12 
z
" clip-path="url(#p2239508dfe)" style="fill: #e8bc60"/>
   </g>
   <g id="FillBetweenPolyCollection_4">
    <path d="M 40.79 30.12 
L 40.79 30.12 
L 45.691456 30.12 
L 50.592912 30.12 
L 55.494368 30.12 
L 60.395824 30.12 
L 65.29728 30.12 
L 70.198736 30.12 
L 75.100192 30.12 
L 80.001648 38.916491 
L 84.903104 30.12 
L 89.80456 30.12 
L 94.706016 30.12 
L 99.607472 30.12 
L 104.508928 30.12 
L 109.410384 30.12 
L 114.31184 30.12 
L 119.213296 30.12 
L 124.114752 30.12 
L 129.016208 30.12 
L 133.917664 155.47 
L 138.81912 30.12 
L 143.720576 30.12 
L 148.622032 30.12 
L 153.523488 50.176 
L 158.424944 35.883218 
L 163.3264 51.92 
L 168.227856 30.12 
L 173.129312 531.52 
L 178.030768 30.12 
L 182.932224 30.12 
L 187.83368 30.12 
L 192.735136 30.12 
L 197.636592 30.12 
L 202.538048 30.12 
L 207.439504 30.12 
L 212.34096 30.12 
L 217.242416 30.12 
L 222.143872 30.12 
L 227.045328 30.12 
L 231.946784 30.12 
L 236.84824 70.774054 
L 241.749696 30.12 
L 246.651152 30.12 
L 251.552608 30.12 
L 256.454064 30.12 
L 261.35552 30.12 
L 266.256976 30.12 
L 271.158432 30.12 
L 276.059888 30.12 
L 280.961344 30.12 
L 285.8628 30.12 
L 290.764256 30.12 
L 295.665712 30.12 
L 300.567168 30.12 
L 305.468624 30.12 
L 310.37008 30.12 
L 315.271536 30.12 
L 320.172992 30.12 
L 325.074448 30.12 
L 329.975904 30.12 
L 334.87736 30.12 
L 339.778816 30.12 
L 344.680272 30.12 
L 349.581728 30.12 
L 354.483184 30.12 
L 359.38464 30.12 
L 364.286096 30.12 
L 369.187552 30.12 
L 374.089008 30.12 
L 378.990464 30.12 
L 383.89192 30.12 
L 388.793376 30.12 
L 393.694832 30.12 
L 398.596288 30.12 
L 403.497744 30.12 
L 408.3992 30.12 
L 413.300656 30.12 
L 418.202112 30.12 
L 423.103568 30.12 
L 428.005024 30.12 
L 432.90648 30.12 
L 437.807936 30.12 
L 442.709392 30.12 
L 447.610848 30.12 
L 452.512304 30.12 
L 457.41376 30.12 
L 462.315216 30.12 
L 467.216672 30.12 
L 472.118128 30.12 
L 477.019584 30.12 
L 481.92104 531.52 
L 486.822496 30.12 
L 491.723952 30.12 
L 496.625408 30.12 
L 501.526864 30.12 
L 506.42832 30.12 
L 511.329776 280.82 
L 516.231232 30.12 
L 521.132688 30.12 
L 526.034144 30.12 
L 530.9356 30.12 
L 535.837056 30.12 
L 540.738512 30.12 
L 545.639968 30.12 
L 550.541424 30.12 
L 555.44288 30.12 
L 560.344336 30.12 
L 565.245792 30.12 
L 570.147248 30.12 
L 575.048704 30.12 
L 579.95016 30.12 
L 584.851616 30.12 
L 589.753072 30.12 
L 594.654528 30.12 
L 599.555984 30.12 
L 604.45744 30.12 
L 609.358896 30.12 
L 614.260352 30.12 
L 619.161808 30.12 
L 624.063264 30.12 
L 628.96472 30.12 
L 633.866176 30.12 
L 638.767632 30.12 
L 643.669088 531.52 
L 648.570544 30.12 
L 653.472 30.12 
L 653.472 30.12 
L 653.472 30.12 
L 648.570544 30.12 
L 643.669088 30.12 
L 638.767632 30.12 
L 633.866176 30.12 
L 628.96472 30.12 
L 624.063264 30.12 
L 619.161808 30.12 
L 614.260352 30.12 
L 609.358896 30.12 
L 604.45744 30.12 
L 599.555984 30.12 
L 594.654528 30.12 
L 589.753072 30.12 
L 584.851616 30.12 
L 579.95016 30.12 
L 575.048704 30.12 
L 570.147248 30.12 
L 565.245792 30.12 
L 560.344336 30.12 
L 555.44288 30.12 
L 550.541424 30.12 
L 545.639968 30.12 
L 540.738512 30.12 
L 535.837056 30.12 
L 530.9356 30.12 
L 526.034144 30.12 
L 521.132688 30.12 
L 516.231232 30.12 
L 511.329776 30.12 
L 506.42832 30.12 
L 501.526864 30.12 
L 496.625408 30.12 
L 491.723952 30.12 
L 486.822496 30.12 
L 481.92104 30.12 
L 477.019584 30.12 
L 472.118128 30.12 
L 467.216672 30.12 
L 462.315216 30.12 
L 457.41376 30.12 
L 452.512304 30.12 
L 447.610848 30.12 
L 442.709392 30.12 
L 437.807936 30.12 
L 432.90648 30.12 
L 428.005024 30.12 
L 423.103568 30.12 
L 418.202112 30.12 
L 413.300656 30.12 
L 408.3992 30.12 
L 403.497744 30.12 
L 398.596288 30.12 
L 393.694832 30.12 
L 388.793376 30.12 
L 383.89192 30.12 
L 378.990464 30.12 
L 374.089008 30.12 
L 369.187552 30.12 
L 364.286096 30.12 
L 359.38464 30.12 
L 354.483184 30.12 
L 349.581728 30.12 
L 344.680272 30.12 
L 339.778816 30.12 
L 334.87736 30.12 
L 329.975904 30.12 
L 325.074448 30.12 
L 320.172992 30.12 
L 315.271536 30.12 
L 310.37008 30.12 
L 305.468624 30.12 
L 300.567168 30.12 
L 295.665712 30.12 
L 290.764256 30.12 
L 285.8628 30.12 
L 280.961344 30.12 
L 276.059888 30.12 
L 271.158432 30.12 
L 266.256976 30.12 
L 261.35552 30.12 
L 256.454064 30.12 
L 251.552608 30.12 
L 246.651152 30.12 
L 241.749696 30.12 
L 236.84824 30.12 
L 231.946784 30.12 
L 227.045328 30.12 
L 222.143872 30.12 
L 217.242416 30.12 
L 212.34096 30.12 
L 207.439504 30.12 
L 202.538048 30.12 
L 197.636592 30.12 
L 192.735136 30.12 
L 187.83368 30.12 
L 182.932224 30.12 
L 178.030768 30.12 
L 173.129312 30.12 
L 168.227856 30.12 
L 163.3264 30.12 
L 158.424944 30.12 
L 153.523488 30.12 
L 148.622032 30.12 
L 143.720576 30.12 
L 138.81912 30.12 
L 133.917664 30.12 
L 129.016208 30.12 
L 124.114752 30.12 
L 119.213296 30.12 
L 114.31184 30.12 
L 109.410384 30.12 
L 104.508928 30.12 
L 99.607472 30.12 
L 94.706016 30.12 
L 89.80456 30.12 
L 84.903104 30.12 
L 80.001648 30.12 
L 75.100192 30.12 
L 70.198736 30.12 
L 65.29728 30.12 
L 60.395824 30.12 
L 55.494368 30.12 
L 50.592912 30.12 
L 45.691456 30.12 
L 40.79 30.12 
z
" clip-path="url(#p2239508dfe)" style="fill: #8d5993"/>
   </g>
   <g id="matplotlib.axis_1">
    <g id="xtick_1">
     <g id="line2d_1">
      <path d="M 133.917664 531.52 
L 133.917664 30.12 
" clip-path="url(#p2239508dfe)" style="fill: none; stroke-dasharray: 2.96,1.28; stroke-dashoffset: 0; stroke: #b0b0b0; stroke-opacity: 0.5; stroke-width: 0.8"/>
     </g>
     <g id="line2d_2">
      <defs>
       <path id="md2b467ec96" d="M 0 0 
L 0 3.5 
" style="stroke: #000000; stroke-width: 0.8"/>
      </defs>
      <g>
       <use xlink:href="#md2b467ec96" x="133.917664" y="531.52" style="stroke: #000000; stroke-width: 0.8"/>
      </g>
     </g>
     <g id="text_1">
      <!-- 20 -->
      <g transform="translate(127.555164 546.118437) scale(0.1 -0.1)">
       <defs>
        <path id="DejaVuSans-32" d="M 1228 531 
L 3431 531 
L 3431 0 
L 469 0 
L 469 531 
Q 828 903 1448 1529 
Q 2069 2156 2228 2338 
Q 2531 2678 2651 2914 
Q 2772 3150 2772 3378 
Q 2772 3750 2511 3984 
Q 2250 4219 1831 4219 
Q 1534 4219 1204 4116 
Q 875 4013 500 3803 
L 500 4441 
Q 881 4594 1212 4672 
Q 1544 4750 1819 4750 
Q 2544 4750 2975 4387 
Q 3406 4025 3406 3419 
Q 3406 3131 3298 2873 
Q 3191 2616 2906 2266 
Q 2828 2175 2409 1742 
Q 1991 1309 1228 531 
z
" transform="scale(0.015625)"/>
        <path id="DejaVuSans-30" d="M 2034 4250 
Q 1547 4250 1301 3770 
Q 1056 3291 1056 2328 
Q 1056 1369 1301 889 
Q 1547 409 2034 409 
Q 2525 409 2770 889 
Q 3016 1369 3016 2328 
Q 3016 3291 2770 3770 
Q 2525 4250 2034 4250 
z
M 2034 4750 
Q 2819 4750 3233 4129 
Q 3647 3509 3647 2328 
Q 3647 1150 3233 529 
Q 2819 -91 2034 -91 
Q 1250 -91 836 529 
Q 422 1150 422 2328 
Q 422 3509 836 4129 
Q 1250 4750 2034 4750 
z
" transform="scale(0.015625)"/>
       </defs>
       <use xlink:href="#DejaVuSans-32"/>
       <use xlink:href="#DejaVuSans-30" transform="translate(63.623047 0)"/>
      </g>
     </g>
    </g>
    <g id="xtick_2">
     <g id="line2d_3">
      <path d="M 231.946784 531.52 
L 231.946784 30.12 
" clip-path="url(#p2239508dfe)" style="fill: none; stroke-dasharray: 2.96,1.28; stroke-dashoffset: 0; stroke: #b0b0b0; stroke-opacity: 0.5; stroke-width: 0.8"/>
     </g>
     <g id="line2d_4">
      <g>
       <use xlink:href="#md2b467ec96" x="231.946784" y="531.52" style="stroke: #000000; stroke-width: 0.8"/>
      </g>
     </g>
     <g id="text_2">
      <!-- 40 -->
      <g transform="translate(225.584284 546.118437) scale(0.1 -0.1)">
       <defs>
        <path id="DejaVuSans-34" d="M 2419 4116 
L 825 1625 
L 2419 1625 
L 2419 4116 
z
M 2253 4666 
L 3047 4666 
L 3047 1625 
L 3713 1625 
L 3713 1100 
L 3047 1100 
L 3047 0 
L 2419 0 
L 2419 1100 
L 313 1100 
L 313 1709 
L 2253 4666 
z
" transform="scale(0.015625)"/>
       </defs>
       <use xlink:href="#DejaVuSans-34"/>
       <use xlink:href="#DejaVuSans-30" transform="translate(63.623047 0)"/>
      </g>
     </g>
    </g>
    <g id="xtick_3">
     <g id="line2d_5">
      <path d="M 329.975904 531.52 
L 329.975904 30.12 
" clip-path="url(#p2239508dfe)" style="fill: none; stroke-dasharray: 2.96,1.28; stroke-dashoffset: 0; stroke: #b0b0b0; stroke-opacity: 0.5; stroke-width: 0.8"/>
     </g>
     <g id="line2d_6">
      <g>
       <use xlink:href="#md2b467ec96" x="329.975904" y="531.52" style="stroke: #000000; stroke-width: 0.8"/>
      </g>
     </g>
     <g id="text_3">
      <!-- 60 -->
      <g transform="translate(323.613404 546.118437) scale(0.1 -0.1)">
       <defs>
        <path id="DejaVuSans-36" d="M 2113 2584 
Q 1688 2584 1439 2293 
Q 1191 2003 1191 1497 
Q 1191 994 1439 701 
Q 1688 409 2113 409 
Q 2538 409 2786 701 
Q 3034 994 3034 1497 
Q 3034 2003 2786 2293 
Q 2538 2584 2113 2584 
z
M 3366 4563 
L 3366 3988 
Q 3128 4100 2886 4159 
Q 2644 4219 2406 4219 
Q 1781 4219 1451 3797 
Q 1122 3375 1075 2522 
Q 1259 2794 1537 2939 
Q 1816 3084 2150 3084 
Q 2853 3084 3261 2657 
Q 3669 2231 3669 1497 
Q 3669 778 3244 343 
Q 2819 -91 2113 -91 
Q 1303 -91 875 529 
Q 447 1150 447 2328 
Q 447 3434 972 4092 
Q 1497 4750 2381 4750 
Q 2619 4750 2861 4703 
Q 3103 4656 3366 4563 
z
" transform="scale(0.015625)"/>
       </defs>
       <use xlink:href="#DejaVuSans-36"/>
       <use xlink:href="#DejaVuSans-30" transform="translate(63.623047 0)"/>
      </g>
     </g>
    </g>
    <g id="xtick_4">
     <g id="line2d_7">
      <path d="M 428.005024 531.52 
L 428.005024 30.12 
" clip-path="url(#p2239508dfe)" style="fill: none; stroke-dasharray: 2.96,1.28; stroke-dashoffset: 0; stroke: #b0b0b0; stroke-opacity: 0.5; stroke-width: 0.8"/>
     </g>
     <g id="line2d_8">
      <g>
       <use xlink:href="#md2b467ec96" x="428.005024" y="531.52" style="stroke: #000000; stroke-width: 0.8"/>
      </g>
     </g>
     <g id="text_4">
      <!-- 80 -->
      <g transform="translate(421.642524 546.118437) scale(0.1 -0.1)">
       <defs>
        <path id="DejaVuSans-38" d="M 2034 2216 
Q 1584 2216 1326 1975 
Q 1069 1734 1069 1313 
Q 1069 891 1326 650 
Q 1584 409 2034 409 
Q 2484 409 2743 651 
Q 3003 894 3003 1313 
Q 3003 1734 2745 1975 
Q 2488 2216 2034 2216 
z
M 1403 2484 
Q 997 2584 770 2862 
Q 544 3141 544 3541 
Q 544 4100 942 4425 
Q 1341 4750 2034 4750 
Q 2731 4750 3128 4425 
Q 3525 4100 3525 3541 
Q 3525 3141 3298 2862 
Q 3072 2584 2669 2484 
Q 3125 2378 3379 2068 
Q 3634 1759 3634 1313 
Q 3634 634 3220 271 
Q 2806 -91 2034 -91 
Q 1263 -91 848 271 
Q 434 634 434 1313 
Q 434 1759 690 2068 
Q 947 2378 1403 2484 
z
M 1172 3481 
Q 1172 3119 1398 2916 
Q 1625 2713 2034 2713 
Q 2441 2713 2670 2916 
Q 2900 3119 2900 3481 
Q 2900 3844 2670 4047 
Q 2441 4250 2034 4250 
Q 1625 4250 1398 4047 
Q 1172 3844 1172 3481 
z
" transform="scale(0.015625)"/>
       </defs>
       <use xlink:href="#DejaVuSans-38"/>
       <use xlink:href="#DejaVuSans-30" transform="translate(63.623047 0)"/>
      </g>
     </g>
    </g>
    <g id="xtick_5">
     <g id="line2d_9">
      <path d="M 526.034144 531.52 
L 526.034144 30.12 
" clip-path="url(#p2239508dfe)" style="fill: none; stroke-dasharray: 2.96,1.28; stroke-dashoffset: 0; stroke: #b0b0b0; stroke-opacity: 0.5; stroke-width: 0.8"/>
     </g>
     <g id="line2d_10">
      <g>
       <use xlink:href="#md2b467ec96" x="526.034144" y="531.52" style="stroke: #000000; stroke-width: 0.8"/>
      </g>
     </g>
     <g id="text_5">
      <!-- 100 -->
      <g transform="translate(516.490394 546.118437) scale(0.1 -0.1)">
       <defs>
        <path id="DejaVuSans-31" d="M 794 531 
L 1825 531 
L 1825 4091 
L 703 3866 
L 703 4441 
L 1819 4666 
L 2450 4666 
L 2450 531 
L 3481 531 
L 3481 0 
L 794 0 
L 794 531 
z
" transform="scale(0.015625)"/>
       </defs>
       <use xlink:href="#DejaVuSans-31"/>
       <use xlink:href="#DejaVuSans-30" transform="translate(63.623047 0)"/>
       <use xlink:href="#DejaVuSans-30" transform="translate(127.246094 0)"/>
      </g>
     </g>
    </g>
    <g id="xtick_6">
     <g id="line2d_11">
      <path d="M 624.063264 531.52 
L 624.063264 30.12 
" clip-path="url(#p2239508dfe)" style="fill: none; stroke-dasharray: 2.96,1.28; stroke-dashoffset: 0; stroke: #b0b0b0; stroke-opacity: 0.5; stroke-width: 0.8"/>
     </g>
     <g id="line2d_12">
      <g>
       <use xlink:href="#md2b467ec96" x="624.063264" y="531.52" style="stroke: #000000; stroke-width: 0.8"/>
      </g>
     </g>
     <g id="text_6">
      <!-- 120 -->
      <g transform="translate(614.519514 546.118437) scale(0.1 -0.1)">
       <use xlink:href="#DejaVuSans-31"/>
       <use xlink:href="#DejaVuSans-32" transform="translate(63.623047 0)"/>
       <use xlink:href="#DejaVuSans-30" transform="translate(127.246094 0)"/>
      </g>
     </g>
    </g>
    <g id="text_7">
     <!-- Session Count -->
     <g transform="translate(306.873344 561.919375) scale(0.14 -0.14)">
      <defs>
       <path id="TimesNewRomanPSMT-53" d="M 2934 4334 
L 2934 2869 
L 2819 2869 
Q 2763 3291 2617 3541 
Q 2472 3791 2203 3937 
Q 1934 4084 1647 4084 
Q 1322 4084 1109 3886 
Q 897 3688 897 3434 
Q 897 3241 1031 3081 
Q 1225 2847 1953 2456 
Q 2547 2138 2764 1967 
Q 2981 1797 3098 1565 
Q 3216 1334 3216 1081 
Q 3216 600 2842 251 
Q 2469 -97 1881 -97 
Q 1697 -97 1534 -69 
Q 1438 -53 1133 45 
Q 828 144 747 144 
Q 669 144 623 97 
Q 578 50 556 -97 
L 441 -97 
L 441 1356 
L 556 1356 
Q 638 900 775 673 
Q 913 447 1195 297 
Q 1478 147 1816 147 
Q 2206 147 2432 353 
Q 2659 559 2659 841 
Q 2659 997 2573 1156 
Q 2488 1316 2306 1453 
Q 2184 1547 1640 1851 
Q 1097 2156 867 2337 
Q 638 2519 519 2737 
Q 400 2956 400 3219 
Q 400 3675 750 4004 
Q 1100 4334 1641 4334 
Q 1978 4334 2356 4169 
Q 2531 4091 2603 4091 
Q 2684 4091 2736 4139 
Q 2788 4188 2819 4334 
L 2934 4334 
z
" transform="scale(0.015625)"/>
       <path id="TimesNewRomanPSMT-65" d="M 681 1784 
Q 678 1147 991 784 
Q 1303 422 1725 422 
Q 2006 422 2214 576 
Q 2422 731 2563 1106 
L 2659 1044 
Q 2594 616 2278 264 
Q 1963 -88 1488 -88 
Q 972 -88 605 314 
Q 238 716 238 1394 
Q 238 2128 614 2539 
Q 991 2950 1559 2950 
Q 2041 2950 2350 2633 
Q 2659 2316 2659 1784 
L 681 1784 
z
M 681 1966 
L 2006 1966 
Q 1991 2241 1941 2353 
Q 1863 2528 1708 2628 
Q 1553 2728 1384 2728 
Q 1125 2728 920 2526 
Q 716 2325 681 1966 
z
" transform="scale(0.015625)"/>
       <path id="TimesNewRomanPSMT-73" d="M 2050 2947 
L 2050 1972 
L 1947 1972 
Q 1828 2431 1642 2597 
Q 1456 2763 1169 2763 
Q 950 2763 815 2647 
Q 681 2531 681 2391 
Q 681 2216 781 2091 
Q 878 1963 1175 1819 
L 1631 1597 
Q 2266 1288 2266 781 
Q 2266 391 1970 151 
Q 1675 -88 1309 -88 
Q 1047 -88 709 6 
Q 606 38 541 38 
Q 469 38 428 -44 
L 325 -44 
L 325 978 
L 428 978 
Q 516 541 762 319 
Q 1009 97 1316 97 
Q 1531 97 1667 223 
Q 1803 350 1803 528 
Q 1803 744 1651 891 
Q 1500 1038 1047 1263 
Q 594 1488 453 1669 
Q 313 1847 313 2119 
Q 313 2472 555 2709 
Q 797 2947 1181 2947 
Q 1350 2947 1591 2875 
Q 1750 2828 1803 2828 
Q 1853 2828 1881 2850 
Q 1909 2872 1947 2947 
L 2050 2947 
z
" transform="scale(0.015625)"/>
       <path id="TimesNewRomanPSMT-69" d="M 928 4444 
Q 1059 4444 1151 4351 
Q 1244 4259 1244 4128 
Q 1244 3997 1151 3903 
Q 1059 3809 928 3809 
Q 797 3809 703 3903 
Q 609 3997 609 4128 
Q 609 4259 701 4351 
Q 794 4444 928 4444 
z
M 1188 2947 
L 1188 647 
Q 1188 378 1227 289 
Q 1266 200 1342 156 
Q 1419 113 1622 113 
L 1622 0 
L 231 0 
L 231 113 
Q 441 113 512 153 
Q 584 194 626 287 
Q 669 381 669 647 
L 669 1750 
Q 669 2216 641 2353 
Q 619 2453 572 2492 
Q 525 2531 444 2531 
Q 356 2531 231 2484 
L 188 2597 
L 1050 2947 
L 1188 2947 
z
" transform="scale(0.015625)"/>
       <path id="TimesNewRomanPSMT-6f" d="M 1600 2947 
Q 2250 2947 2644 2453 
Q 2978 2031 2978 1484 
Q 2978 1100 2793 706 
Q 2609 313 2286 112 
Q 1963 -88 1566 -88 
Q 919 -88 538 428 
Q 216 863 216 1403 
Q 216 1797 411 2186 
Q 606 2575 925 2761 
Q 1244 2947 1600 2947 
z
M 1503 2744 
Q 1338 2744 1170 2645 
Q 1003 2547 900 2300 
Q 797 2053 797 1666 
Q 797 1041 1045 587 
Q 1294 134 1700 134 
Q 2003 134 2200 384 
Q 2397 634 2397 1244 
Q 2397 2006 2069 2444 
Q 1847 2744 1503 2744 
z
" transform="scale(0.015625)"/>
       <path id="TimesNewRomanPSMT-6e" d="M 1034 2341 
Q 1538 2947 1994 2947 
Q 2228 2947 2397 2830 
Q 2566 2713 2666 2444 
Q 2734 2256 2734 1869 
L 2734 647 
Q 2734 375 2778 278 
Q 2813 200 2889 156 
Q 2966 113 3172 113 
L 3172 0 
L 1756 0 
L 1756 113 
L 1816 113 
Q 2016 113 2095 173 
Q 2175 234 2206 353 
Q 2219 400 2219 647 
L 2219 1819 
Q 2219 2209 2117 2386 
Q 2016 2563 1775 2563 
Q 1403 2563 1034 2156 
L 1034 647 
Q 1034 356 1069 288 
Q 1113 197 1189 155 
Q 1266 113 1500 113 
L 1500 0 
L 84 0 
L 84 113 
L 147 113 
Q 366 113 442 223 
Q 519 334 519 647 
L 519 1709 
Q 519 2225 495 2337 
Q 472 2450 423 2490 
Q 375 2531 294 2531 
Q 206 2531 84 2484 
L 38 2597 
L 900 2947 
L 1034 2947 
L 1034 2341 
z
" transform="scale(0.015625)"/>
       <path id="TimesNewRomanPSMT-20" transform="scale(0.015625)"/>
       <path id="TimesNewRomanPSMT-43" d="M 3853 4334 
L 3950 2894 
L 3853 2894 
Q 3659 3541 3300 3825 
Q 2941 4109 2438 4109 
Q 2016 4109 1675 3895 
Q 1334 3681 1139 3212 
Q 944 2744 944 2047 
Q 944 1472 1128 1050 
Q 1313 628 1683 403 
Q 2053 178 2528 178 
Q 2941 178 3256 354 
Q 3572 531 3950 1056 
L 4047 994 
Q 3728 428 3303 165 
Q 2878 -97 2294 -97 
Q 1241 -97 663 684 
Q 231 1266 231 2053 
Q 231 2688 515 3219 
Q 800 3750 1298 4042 
Q 1797 4334 2388 4334 
Q 2847 4334 3294 4109 
Q 3425 4041 3481 4041 
Q 3566 4041 3628 4100 
Q 3709 4184 3744 4334 
L 3853 4334 
z
" transform="scale(0.015625)"/>
       <path id="TimesNewRomanPSMT-75" d="M 2709 2863 
L 2709 1128 
Q 2709 631 2732 520 
Q 2756 409 2807 365 
Q 2859 322 2928 322 
Q 3025 322 3147 375 
L 3191 266 
L 2334 -88 
L 2194 -88 
L 2194 519 
Q 1825 119 1631 15 
Q 1438 -88 1222 -88 
Q 981 -88 804 51 
Q 628 191 559 409 
Q 491 628 491 1028 
L 491 2306 
Q 491 2509 447 2587 
Q 403 2666 317 2708 
Q 231 2750 6 2747 
L 6 2863 
L 1009 2863 
L 1009 947 
Q 1009 547 1148 422 
Q 1288 297 1484 297 
Q 1619 297 1789 381 
Q 1959 466 2194 703 
L 2194 2325 
Q 2194 2569 2105 2655 
Q 2016 2741 1734 2747 
L 1734 2863 
L 2709 2863 
z
" transform="scale(0.015625)"/>
       <path id="TimesNewRomanPSMT-74" d="M 1031 3803 
L 1031 2863 
L 1700 2863 
L 1700 2644 
L 1031 2644 
L 1031 788 
Q 1031 509 1111 412 
Q 1191 316 1316 316 
Q 1419 316 1516 380 
Q 1613 444 1666 569 
L 1788 569 
Q 1678 263 1478 108 
Q 1278 -47 1066 -47 
Q 922 -47 784 33 
Q 647 113 581 261 
Q 516 409 516 719 
L 516 2644 
L 63 2644 
L 63 2747 
Q 234 2816 414 2980 
Q 594 3144 734 3369 
Q 806 3488 934 3803 
L 1031 3803 
z
" transform="scale(0.015625)"/>
      </defs>
      <use xlink:href="#TimesNewRomanPSMT-53"/>
      <use xlink:href="#TimesNewRomanPSMT-65" transform="translate(55.615234 0)"/>
      <use xlink:href="#TimesNewRomanPSMT-73" transform="translate(100 0)"/>
      <use xlink:href="#TimesNewRomanPSMT-73" transform="translate(138.916016 0)"/>
      <use xlink:href="#TimesNewRomanPSMT-69" transform="translate(177.832031 0)"/>
      <use xlink:href="#TimesNewRomanPSMT-6f" transform="translate(205.615234 0)"/>
      <use xlink:href="#TimesNewRomanPSMT-6e" transform="translate(255.615234 0)"/>
      <use xlink:href="#TimesNewRomanPSMT-20" transform="translate(305.615234 0)"/>
      <use xlink:href="#TimesNewRomanPSMT-43" transform="translate(330.615234 0)"/>
      <use xlink:href="#TimesNewRomanPSMT-6f" transform="translate(397.314453 0)"/>
      <use xlink:href="#TimesNewRomanPSMT-75" transform="translate(447.314453 0)"/>
      <use xlink:href="#TimesNewRomanPSMT-6e" transform="translate(497.314453 0)"/>
      <use xlink:href="#TimesNewRomanPSMT-74" transform="translate(547.314453 0)"/>
     </g>
    </g>
   </g>
   <g id="matplotlib.axis_2">
    <g id="ytick_1">
     <g id="line2d_13">
      <path d="M 40.79 531.52 
L 653.472 531.52 
" clip-path="url(#p2239508dfe)" style="fill: none; stroke-dasharray: 2.96,1.28; stroke-dashoffset: 0; stroke: #b0b0b0; stroke-opacity: 0.5; stroke-width: 0.8"/>
     </g>
     <g id="line2d_14">
      <defs>
       <path id="m070516973e" d="M 0 0 
L -3.5 0 
" style="stroke: #000000; stroke-width: 0.8"/>
      </defs>
      <g>
       <use xlink:href="#m070516973e" x="40.79" y="531.52" style="stroke: #000000; stroke-width: 0.8"/>
      </g>
     </g>
     <g id="text_8">
      <!-- 0 -->
      <g transform="translate(27.4275 535.319219) scale(0.1 -0.1)">
       <use xlink:href="#DejaVuSans-30"/>
      </g>
     </g>
    </g>
    <g id="ytick_2">
     <g id="line2d_15">
      <path d="M 40.79 30.12 
L 653.472 30.12 
" clip-path="url(#p2239508dfe)" style="fill: none; stroke-dasharray: 2.96,1.28; stroke-dashoffset: 0; stroke: #b0b0b0; stroke-opacity: 0.5; stroke-width: 0.8"/>
     </g>
     <g id="line2d_16">
      <g>
       <use xlink:href="#m070516973e" x="40.79" y="30.12" style="stroke: #000000; stroke-width: 0.8"/>
      </g>
     </g>
     <g id="text_9">
      <!-- 1 -->
      <g transform="translate(27.4275 33.919219) scale(0.1 -0.1)">
       <use xlink:href="#DejaVuSans-31"/>
      </g>
     </g>
    </g>
    <g id="text_10">
     <!-- Stacked Proportion -->
     <g transform="translate(20.432813 334.672969) rotate(-90) scale(0.14 -0.14)">
      <defs>
       <path id="TimesNewRomanPSMT-61" d="M 1822 413 
Q 1381 72 1269 19 
Q 1100 -59 909 -59 
Q 613 -59 420 144 
Q 228 347 228 678 
Q 228 888 322 1041 
Q 450 1253 767 1440 
Q 1084 1628 1822 1897 
L 1822 2009 
Q 1822 2438 1686 2597 
Q 1550 2756 1291 2756 
Q 1094 2756 978 2650 
Q 859 2544 859 2406 
L 866 2225 
Q 866 2081 792 2003 
Q 719 1925 600 1925 
Q 484 1925 411 2006 
Q 338 2088 338 2228 
Q 338 2497 613 2722 
Q 888 2947 1384 2947 
Q 1766 2947 2009 2819 
Q 2194 2722 2281 2516 
Q 2338 2381 2338 1966 
L 2338 994 
Q 2338 584 2353 492 
Q 2369 400 2405 369 
Q 2441 338 2488 338 
Q 2538 338 2575 359 
Q 2641 400 2828 588 
L 2828 413 
Q 2478 -56 2159 -56 
Q 2006 -56 1915 50 
Q 1825 156 1822 413 
z
M 1822 616 
L 1822 1706 
Q 1350 1519 1213 1441 
Q 966 1303 859 1153 
Q 753 1003 753 825 
Q 753 600 887 451 
Q 1022 303 1197 303 
Q 1434 303 1822 616 
z
" transform="scale(0.015625)"/>
       <path id="TimesNewRomanPSMT-63" d="M 2631 1088 
Q 2516 522 2178 217 
Q 1841 -88 1431 -88 
Q 944 -88 581 321 
Q 219 731 219 1428 
Q 219 2103 620 2525 
Q 1022 2947 1584 2947 
Q 2006 2947 2278 2723 
Q 2550 2500 2550 2259 
Q 2550 2141 2473 2067 
Q 2397 1994 2259 1994 
Q 2075 1994 1981 2113 
Q 1928 2178 1911 2362 
Q 1894 2547 1784 2644 
Q 1675 2738 1481 2738 
Q 1169 2738 978 2506 
Q 725 2200 725 1697 
Q 725 1184 976 792 
Q 1228 400 1656 400 
Q 1963 400 2206 609 
Q 2378 753 2541 1131 
L 2631 1088 
z
" transform="scale(0.015625)"/>
       <path id="TimesNewRomanPSMT-6b" d="M 1047 4444 
L 1047 1594 
L 1775 2259 
Q 2006 2472 2044 2528 
Q 2069 2566 2069 2603 
Q 2069 2666 2017 2711 
Q 1966 2756 1847 2763 
L 1847 2863 
L 3091 2863 
L 3091 2763 
Q 2834 2756 2664 2684 
Q 2494 2613 2291 2428 
L 1556 1750 
L 2291 822 
Q 2597 438 2703 334 
Q 2853 188 2966 144 
Q 3044 113 3238 113 
L 3238 0 
L 1847 0 
L 1847 113 
Q 1966 116 2008 148 
Q 2050 181 2050 241 
Q 2050 313 1925 472 
L 1047 1594 
L 1047 644 
Q 1047 366 1086 278 
Q 1125 191 1197 153 
Q 1269 116 1509 113 
L 1509 0 
L 53 0 
L 53 113 
Q 272 113 381 166 
Q 447 200 481 272 
Q 528 375 528 628 
L 528 3234 
Q 528 3731 506 3842 
Q 484 3953 434 3995 
Q 384 4038 303 4038 
Q 238 4038 106 3984 
L 53 4094 
L 903 4444 
L 1047 4444 
z
" transform="scale(0.015625)"/>
       <path id="TimesNewRomanPSMT-64" d="M 2222 322 
Q 2013 103 1813 7 
Q 1613 -88 1381 -88 
Q 913 -88 563 304 
Q 213 697 213 1313 
Q 213 1928 600 2439 
Q 988 2950 1597 2950 
Q 1975 2950 2222 2709 
L 2222 3238 
Q 2222 3728 2198 3840 
Q 2175 3953 2125 3993 
Q 2075 4034 2000 4034 
Q 1919 4034 1784 3984 
L 1744 4094 
L 2597 4444 
L 2738 4444 
L 2738 1134 
Q 2738 631 2761 520 
Q 2784 409 2836 365 
Q 2888 322 2956 322 
Q 3041 322 3181 375 
L 3216 266 
L 2366 -88 
L 2222 -88 
L 2222 322 
z
M 2222 541 
L 2222 2016 
Q 2203 2228 2109 2403 
Q 2016 2578 1861 2667 
Q 1706 2756 1559 2756 
Q 1284 2756 1069 2509 
Q 784 2184 784 1559 
Q 784 928 1059 592 
Q 1334 256 1672 256 
Q 1956 256 2222 541 
z
" transform="scale(0.015625)"/>
       <path id="TimesNewRomanPSMT-50" d="M 1313 1984 
L 1313 750 
Q 1313 350 1400 253 
Q 1519 116 1759 116 
L 1922 116 
L 1922 0 
L 106 0 
L 106 116 
L 266 116 
Q 534 116 650 291 
Q 713 388 713 750 
L 713 3488 
Q 713 3888 628 3984 
Q 506 4122 266 4122 
L 106 4122 
L 106 4238 
L 1659 4238 
Q 2228 4238 2556 4120 
Q 2884 4003 3109 3725 
Q 3334 3447 3334 3066 
Q 3334 2547 2992 2222 
Q 2650 1897 2025 1897 
Q 1872 1897 1694 1919 
Q 1516 1941 1313 1984 
z
M 1313 2163 
Q 1478 2131 1606 2115 
Q 1734 2100 1825 2100 
Q 2150 2100 2386 2351 
Q 2622 2603 2622 3003 
Q 2622 3278 2509 3514 
Q 2397 3750 2190 3867 
Q 1984 3984 1722 3984 
Q 1563 3984 1313 3925 
L 1313 2163 
z
" transform="scale(0.015625)"/>
       <path id="TimesNewRomanPSMT-72" d="M 1038 2947 
L 1038 2303 
Q 1397 2947 1775 2947 
Q 1947 2947 2059 2842 
Q 2172 2738 2172 2600 
Q 2172 2478 2090 2393 
Q 2009 2309 1897 2309 
Q 1788 2309 1652 2417 
Q 1516 2525 1450 2525 
Q 1394 2525 1328 2463 
Q 1188 2334 1038 2041 
L 1038 669 
Q 1038 431 1097 309 
Q 1138 225 1241 169 
Q 1344 113 1538 113 
L 1538 0 
L 72 0 
L 72 113 
Q 291 113 397 181 
Q 475 231 506 341 
Q 522 394 522 644 
L 522 1753 
Q 522 2253 501 2348 
Q 481 2444 426 2487 
Q 372 2531 291 2531 
Q 194 2531 72 2484 
L 41 2597 
L 906 2947 
L 1038 2947 
z
" transform="scale(0.015625)"/>
       <path id="TimesNewRomanPSMT-70" d="M -6 2578 
L 875 2934 
L 994 2934 
L 994 2266 
Q 1216 2644 1439 2795 
Q 1663 2947 1909 2947 
Q 2341 2947 2628 2609 
Q 2981 2197 2981 1534 
Q 2981 794 2556 309 
Q 2206 -88 1675 -88 
Q 1444 -88 1275 -22 
Q 1150 25 994 166 
L 994 -706 
Q 994 -1000 1030 -1079 
Q 1066 -1159 1155 -1206 
Q 1244 -1253 1478 -1253 
L 1478 -1369 
L -22 -1369 
L -22 -1253 
L 56 -1253 
Q 228 -1256 350 -1188 
Q 409 -1153 442 -1076 
Q 475 -1000 475 -688 
L 475 2019 
Q 475 2297 450 2372 
Q 425 2447 370 2484 
Q 316 2522 222 2522 
Q 147 2522 31 2478 
L -6 2578 
z
M 994 2081 
L 994 1013 
Q 994 666 1022 556 
Q 1066 375 1236 237 
Q 1406 100 1666 100 
Q 1978 100 2172 344 
Q 2425 663 2425 1241 
Q 2425 1897 2138 2250 
Q 1938 2494 1663 2494 
Q 1513 2494 1366 2419 
Q 1253 2363 994 2081 
z
" transform="scale(0.015625)"/>
      </defs>
      <use xlink:href="#TimesNewRomanPSMT-53"/>
      <use xlink:href="#TimesNewRomanPSMT-74" transform="translate(55.615234 0)"/>
      <use xlink:href="#TimesNewRomanPSMT-61" transform="translate(83.398438 0)"/>
      <use xlink:href="#TimesNewRomanPSMT-63" transform="translate(127.783203 0)"/>
      <use xlink:href="#TimesNewRomanPSMT-6b" transform="translate(172.167969 0)"/>
      <use xlink:href="#TimesNewRomanPSMT-65" transform="translate(222.167969 0)"/>
      <use xlink:href="#TimesNewRomanPSMT-64" transform="translate(266.552734 0)"/>
      <use xlink:href="#TimesNewRomanPSMT-20" transform="translate(316.552734 0)"/>
      <use xlink:href="#TimesNewRomanPSMT-50" transform="translate(341.552734 0)"/>
      <use xlink:href="#TimesNewRomanPSMT-72" transform="translate(397.167969 0)"/>
      <use xlink:href="#TimesNewRomanPSMT-6f" transform="translate(430.46875 0)"/>
      <use xlink:href="#TimesNewRomanPSMT-70" transform="translate(480.46875 0)"/>
      <use xlink:href="#TimesNewRomanPSMT-6f" transform="translate(530.46875 0)"/>
      <use xlink:href="#TimesNewRomanPSMT-72" transform="translate(580.46875 0)"/>
      <use xlink:href="#TimesNewRomanPSMT-74" transform="translate(613.769531 0)"/>
      <use xlink:href="#TimesNewRomanPSMT-69" transform="translate(641.552734 0)"/>
      <use xlink:href="#TimesNewRomanPSMT-6f" transform="translate(669.335938 0)"/>
      <use xlink:href="#TimesNewRomanPSMT-6e" transform="translate(719.335938 0)"/>
     </g>
    </g>
   </g>
   <g id="line2d_17">
    <path d="M 40.79 204.148815 
L 653.472 204.148815 
" clip-path="url(#p2239508dfe)" style="fill: none; stroke-dasharray: 7.5,15; stroke-dashoffset: 0; stroke: #000000; stroke-width: 1.5"/>
   </g>
   <g id="patch_3">
    <path d="M 40.79 531.52 
L 40.79 30.12 
" style="fill: none; stroke: #000000; stroke-width: 0.8; stroke-linejoin: miter; stroke-linecap: square"/>
   </g>
   <g id="patch_4">
    <path d="M 653.472 531.52 
L 653.472 30.12 
" style="fill: none; stroke: #000000; stroke-width: 0.8; stroke-linejoin: miter; stroke-linecap: square"/>
   </g>
   <g id="patch_5">
    <path d="M 40.79 531.52 
L 653.472 531.52 
" style="fill: none; stroke: #000000; stroke-width: 0.8; stroke-linejoin: miter; stroke-linecap: square"/>
   </g>
   <g id="patch_6">
    <path d="M 40.79 30.12 
L 653.472 30.12 
" style="fill: none; stroke: #000000; stroke-width: 0.8; stroke-linejoin: miter; stroke-linecap: square"/>
   </g>
   <g id="text_11">
    <!-- 0.65 -->
    <g transform="translate(687.782192 207.512096) scale(0.14 -0.14)">
     <defs>
      <path id="TimesNewRomanPSMT-30" d="M 231 2094 
Q 231 2819 450 3342 
Q 669 3866 1031 4122 
Q 1313 4325 1613 4325 
Q 2100 4325 2488 3828 
Q 2972 3213 2972 2159 
Q 2972 1422 2759 906 
Q 2547 391 2217 158 
Q 1888 -75 1581 -75 
Q 975 -75 572 641 
Q 231 1244 231 2094 
z
M 844 2016 
Q 844 1141 1059 588 
Q 1238 122 1591 122 
Q 1759 122 1940 273 
Q 2122 425 2216 781 
Q 2359 1319 2359 2297 
Q 2359 3022 2209 3506 
Q 2097 3866 1919 4016 
Q 1791 4119 1609 4119 
Q 1397 4119 1231 3928 
Q 1006 3669 925 3112 
Q 844 2556 844 2016 
z
" transform="scale(0.015625)"/>
      <path id="TimesNewRomanPSMT-2e" d="M 800 606 
Q 947 606 1047 504 
Q 1147 403 1147 259 
Q 1147 116 1045 14 
Q 944 -88 800 -88 
Q 656 -88 554 14 
Q 453 116 453 259 
Q 453 406 554 506 
Q 656 606 800 606 
z
" transform="scale(0.015625)"/>
      <path id="TimesNewRomanPSMT-36" d="M 2869 4325 
L 2869 4209 
Q 2456 4169 2195 4045 
Q 1934 3922 1679 3669 
Q 1425 3416 1258 3105 
Q 1091 2794 978 2366 
Q 1428 2675 1881 2675 
Q 2316 2675 2634 2325 
Q 2953 1975 2953 1425 
Q 2953 894 2631 456 
Q 2244 -75 1606 -75 
Q 1172 -75 869 213 
Q 275 772 275 1663 
Q 275 2231 503 2743 
Q 731 3256 1154 3653 
Q 1578 4050 1965 4187 
Q 2353 4325 2688 4325 
L 2869 4325 
z
M 925 2138 
Q 869 1716 869 1456 
Q 869 1156 980 804 
Q 1091 453 1309 247 
Q 1469 100 1697 100 
Q 1969 100 2183 356 
Q 2397 613 2397 1088 
Q 2397 1622 2184 2012 
Q 1972 2403 1581 2403 
Q 1463 2403 1327 2353 
Q 1191 2303 925 2138 
z
" transform="scale(0.015625)"/>
      <path id="TimesNewRomanPSMT-35" d="M 2778 4238 
L 2534 3706 
L 1259 3706 
L 981 3138 
Q 1809 3016 2294 2522 
Q 2709 2097 2709 1522 
Q 2709 1188 2573 903 
Q 2438 619 2231 419 
Q 2025 219 1772 97 
Q 1413 -75 1034 -75 
Q 653 -75 479 54 
Q 306 184 306 341 
Q 306 428 378 495 
Q 450 563 559 563 
Q 641 563 702 538 
Q 763 513 909 409 
Q 1144 247 1384 247 
Q 1750 247 2026 523 
Q 2303 800 2303 1197 
Q 2303 1581 2056 1914 
Q 1809 2247 1375 2428 
Q 1034 2569 447 2591 
L 1259 4238 
L 2778 4238 
z
" transform="scale(0.015625)"/>
     </defs>
     <use xlink:href="#TimesNewRomanPSMT-30"/>
     <use xlink:href="#TimesNewRomanPSMT-2e" transform="translate(50 0)"/>
     <use xlink:href="#TimesNewRomanPSMT-36" transform="translate(75 0)"/>
     <use xlink:href="#TimesNewRomanPSMT-35" transform="translate(125 0)"/>
    </g>
   </g>
   <g id="text_12">
    <!-- Vladimir (Rhesus) -->
    <g transform="translate(268.6935 24.12) scale(0.2 -0.2)">
     <defs>
      <path id="TimesNewRomanPS-BoldMT-56" d="M 4556 4238 
L 4556 4122 
Q 4325 4084 4144 3875 
Q 4013 3719 3753 3141 
L 2294 -97 
L 2191 -97 
L 738 3272 
Q 475 3881 386 3987 
Q 297 4094 50 4122 
L 50 4238 
L 2081 4238 
L 2081 4122 
L 2013 4122 
Q 1738 4122 1638 4053 
Q 1566 4006 1566 3916 
Q 1566 3859 1591 3782 
Q 1616 3706 1759 3372 
L 2663 1263 
L 3500 3141 
Q 3650 3481 3684 3597 
Q 3719 3713 3719 3794 
Q 3719 3888 3669 3959 
Q 3619 4031 3522 4069 
Q 3388 4122 3166 4122 
L 3166 4238 
L 4556 4238 
z
" transform="scale(0.015625)"/>
      <path id="TimesNewRomanPS-BoldMT-6c" d="M 1359 4238 
L 1359 606 
Q 1359 297 1431 211 
Q 1503 125 1713 113 
L 1713 0 
L 134 0 
L 134 113 
Q 328 119 422 225 
Q 484 297 484 606 
L 484 3631 
Q 484 3938 412 4023 
Q 341 4109 134 4122 
L 134 4238 
L 1359 4238 
z
" transform="scale(0.015625)"/>
      <path id="TimesNewRomanPS-BoldMT-61" d="M 1828 431 
Q 1294 -41 869 -41 
Q 619 -41 453 123 
Q 288 288 288 534 
Q 288 869 575 1136 
Q 863 1403 1828 1847 
L 1828 2141 
Q 1828 2472 1792 2558 
Q 1756 2644 1656 2708 
Q 1556 2772 1431 2772 
Q 1228 2772 1097 2681 
Q 1016 2625 1016 2550 
Q 1016 2484 1103 2388 
Q 1222 2253 1222 2128 
Q 1222 1975 1108 1867 
Q 994 1759 809 1759 
Q 613 1759 480 1878 
Q 347 1997 347 2156 
Q 347 2381 525 2586 
Q 703 2791 1022 2900 
Q 1341 3009 1684 3009 
Q 2100 3009 2342 2832 
Q 2584 2656 2656 2450 
Q 2700 2319 2700 1847 
L 2700 713 
Q 2700 513 2715 461 
Q 2731 409 2762 384 
Q 2794 359 2834 359 
Q 2916 359 3000 475 
L 3094 400 
Q 2938 169 2770 64 
Q 2603 -41 2391 -41 
Q 2141 -41 2000 76 
Q 1859 194 1828 431 
z
M 1828 659 
L 1828 1638 
Q 1450 1416 1266 1163 
Q 1144 994 1144 822 
Q 1144 678 1247 569 
Q 1325 484 1466 484 
Q 1622 484 1828 659 
z
" transform="scale(0.015625)"/>
      <path id="TimesNewRomanPS-BoldMT-64" d="M 3056 4238 
L 3056 875 
Q 3056 534 3075 472 
Q 3100 369 3170 319 
Q 3241 269 3416 256 
L 3416 153 
L 2181 -88 
L 2181 375 
Q 1959 106 1786 9 
Q 1613 -88 1394 -88 
Q 834 -88 509 413 
Q 247 819 247 1409 
Q 247 1881 409 2254 
Q 572 2628 855 2818 
Q 1138 3009 1463 3009 
Q 1672 3009 1834 2928 
Q 1997 2847 2181 2644 
L 2181 3525 
Q 2181 3859 2153 3928 
Q 2116 4019 2041 4062 
Q 1966 4106 1759 4106 
L 1759 4238 
L 3056 4238 
z
M 2181 2256 
Q 1950 2700 1616 2700 
Q 1500 2700 1425 2638 
Q 1309 2541 1236 2297 
Q 1163 2053 1163 1550 
Q 1163 997 1244 731 
Q 1325 466 1466 347 
Q 1538 288 1663 288 
Q 1938 288 2181 719 
L 2181 2256 
z
" transform="scale(0.015625)"/>
      <path id="TimesNewRomanPS-BoldMT-69" d="M 919 4338 
Q 1122 4338 1262 4195 
Q 1403 4053 1403 3853 
Q 1403 3653 1261 3512 
Q 1119 3372 919 3372 
Q 719 3372 578 3512 
Q 438 3653 438 3853 
Q 438 4053 578 4195 
Q 719 4338 919 4338 
z
M 1356 2922 
L 1356 606 
Q 1356 297 1428 211 
Q 1500 125 1709 113 
L 1709 0 
L 131 0 
L 131 113 
Q 325 119 419 225 
Q 481 297 481 606 
L 481 2313 
Q 481 2622 409 2708 
Q 338 2794 131 2806 
L 131 2922 
L 1356 2922 
z
" transform="scale(0.015625)"/>
      <path id="TimesNewRomanPS-BoldMT-6d" d="M 1428 2922 
L 1428 2538 
Q 1669 2800 1873 2904 
Q 2078 3009 2322 3009 
Q 2603 3009 2793 2878 
Q 2984 2747 3088 2478 
Q 3338 2759 3567 2884 
Q 3797 3009 4047 3009 
Q 4350 3009 4529 2870 
Q 4709 2731 4779 2517 
Q 4850 2303 4850 1834 
L 4850 638 
Q 4850 300 4911 219 
Q 4972 138 5166 113 
L 5166 0 
L 3656 0 
L 3656 113 
Q 3834 128 3919 250 
Q 3975 334 3975 638 
L 3975 1894 
Q 3975 2284 3944 2390 
Q 3913 2497 3845 2548 
Q 3778 2600 3688 2600 
Q 3553 2600 3415 2501 
Q 3278 2403 3138 2206 
L 3138 638 
Q 3138 322 3191 241 
Q 3263 125 3466 113 
L 3466 0 
L 1953 0 
L 1953 113 
Q 2075 119 2145 173 
Q 2216 228 2239 304 
Q 2263 381 2263 638 
L 2263 1894 
Q 2263 2291 2231 2391 
Q 2200 2491 2126 2547 
Q 2053 2603 1969 2603 
Q 1844 2603 1741 2538 
Q 1594 2441 1428 2206 
L 1428 638 
Q 1428 328 1489 229 
Q 1550 131 1744 113 
L 1744 0 
L 238 0 
L 238 113 
Q 422 131 500 231 
Q 553 300 553 638 
L 553 2288 
Q 553 2619 492 2700 
Q 431 2781 238 2806 
L 238 2922 
L 1428 2922 
z
" transform="scale(0.015625)"/>
      <path id="TimesNewRomanPS-BoldMT-72" d="M 1428 2922 
L 1428 2259 
Q 1719 2713 1937 2861 
Q 2156 3009 2359 3009 
Q 2534 3009 2639 2901 
Q 2744 2794 2744 2597 
Q 2744 2388 2642 2272 
Q 2541 2156 2397 2156 
Q 2231 2156 2109 2262 
Q 1988 2369 1966 2381 
Q 1934 2400 1894 2400 
Q 1803 2400 1722 2331 
Q 1594 2225 1528 2028 
Q 1428 1725 1428 1359 
L 1428 688 
L 1431 513 
Q 1431 334 1453 284 
Q 1491 200 1564 161 
Q 1638 122 1813 113 
L 1813 0 
L 234 0 
L 234 113 
Q 425 128 492 217 
Q 559 306 559 688 
L 559 2303 
Q 559 2553 534 2622 
Q 503 2709 443 2750 
Q 384 2791 234 2806 
L 234 2922 
L 1428 2922 
z
" transform="scale(0.015625)"/>
      <path id="TimesNewRomanPS-BoldMT-20" transform="scale(0.015625)"/>
      <path id="TimesNewRomanPS-BoldMT-28" d="M 2056 4334 
L 2056 4191 
Q 1731 3978 1578 3775 
Q 1366 3494 1247 3053 
Q 1097 2506 1097 1525 
Q 1097 600 1233 87 
Q 1369 -425 1603 -741 
Q 1766 -959 2056 -1125 
L 2056 -1281 
Q 1303 -1028 779 -248 
Q 256 531 256 1544 
Q 256 2544 778 3314 
Q 1300 4084 2056 4334 
z
" transform="scale(0.015625)"/>
      <path id="TimesNewRomanPS-BoldMT-52" d="M 1700 1931 
L 1700 744 
Q 1700 400 1742 311 
Q 1784 222 1890 169 
Q 1997 116 2288 116 
L 2288 0 
L 119 0 
L 119 116 
Q 413 116 517 170 
Q 622 225 664 312 
Q 706 400 706 744 
L 706 3494 
Q 706 3838 664 3927 
Q 622 4016 515 4069 
Q 409 4122 119 4122 
L 119 4238 
L 2088 4238 
Q 2856 4238 3212 4131 
Q 3569 4025 3794 3739 
Q 4019 3453 4019 3069 
Q 4019 2600 3681 2294 
Q 3466 2100 3078 2003 
L 4097 569 
Q 4297 291 4381 222 
Q 4509 125 4678 116 
L 4678 0 
L 3344 0 
L 1978 1931 
L 1700 1931 
z
M 1700 4009 
L 1700 2153 
L 1878 2153 
Q 2313 2153 2528 2233 
Q 2744 2313 2867 2520 
Q 2991 2728 2991 3063 
Q 2991 3547 2764 3778 
Q 2538 4009 2034 4009 
L 1700 4009 
z
" transform="scale(0.015625)"/>
      <path id="TimesNewRomanPS-BoldMT-68" d="M 1409 4238 
L 1409 2547 
Q 1650 2800 1850 2904 
Q 2050 3009 2266 3009 
Q 2541 3009 2736 2853 
Q 2931 2697 2995 2486 
Q 3059 2275 3059 1775 
L 3059 634 
Q 3059 300 3121 217 
Q 3184 134 3375 113 
L 3375 0 
L 1894 0 
L 1894 113 
Q 2050 134 2128 238 
Q 2184 319 2184 634 
L 2184 1938 
Q 2184 2300 2156 2392 
Q 2128 2484 2061 2536 
Q 1994 2588 1909 2588 
Q 1784 2588 1665 2502 
Q 1547 2416 1409 2200 
L 1409 634 
Q 1409 322 1456 244 
Q 1516 138 1700 113 
L 1700 0 
L 219 0 
L 219 113 
Q 403 131 481 231 
Q 534 300 534 634 
L 534 3603 
Q 534 3934 473 4015 
Q 413 4097 219 4122 
L 219 4238 
L 1409 4238 
z
" transform="scale(0.015625)"/>
      <path id="TimesNewRomanPS-BoldMT-65" d="M 2691 1566 
L 1088 1566 
Q 1116 984 1397 647 
Q 1613 388 1916 388 
Q 2103 388 2256 492 
Q 2409 597 2584 869 
L 2691 800 
Q 2453 316 2165 114 
Q 1878 -88 1500 -88 
Q 850 -88 516 413 
Q 247 816 247 1413 
Q 247 2144 642 2576 
Q 1038 3009 1569 3009 
Q 2013 3009 2339 2645 
Q 2666 2281 2691 1566 
z
M 1922 1775 
Q 1922 2278 1867 2465 
Q 1813 2653 1697 2750 
Q 1631 2806 1522 2806 
Q 1359 2806 1256 2647 
Q 1072 2369 1072 1884 
L 1072 1775 
L 1922 1775 
z
" transform="scale(0.015625)"/>
      <path id="TimesNewRomanPS-BoldMT-73" d="M 2063 3003 
L 2109 2006 
L 2003 2006 
Q 1813 2450 1608 2612 
Q 1403 2775 1200 2775 
Q 1072 2775 981 2689 
Q 891 2603 891 2491 
Q 891 2406 953 2328 
Q 1053 2200 1512 1889 
Q 1972 1578 2117 1361 
Q 2263 1144 2263 875 
Q 2263 631 2141 397 
Q 2019 163 1797 37 
Q 1575 -88 1306 -88 
Q 1097 -88 747 44 
Q 653 78 619 78 
Q 516 78 447 -78 
L 344 -78 
L 294 972 
L 400 972 
Q 541 559 786 353 
Q 1031 147 1250 147 
Q 1400 147 1495 239 
Q 1591 331 1591 463 
Q 1591 613 1497 722 
Q 1403 831 1078 1053 
Q 600 1384 459 1559 
Q 253 1816 253 2125 
Q 253 2463 486 2736 
Q 719 3009 1159 3009 
Q 1397 3009 1619 2894 
Q 1703 2847 1756 2847 
Q 1813 2847 1847 2870 
Q 1881 2894 1956 3003 
L 2063 3003 
z
" transform="scale(0.015625)"/>
      <path id="TimesNewRomanPS-BoldMT-75" d="M 3038 2922 
L 3038 634 
Q 3038 300 3100 217 
Q 3163 134 3353 113 
L 3353 0 
L 2163 0 
L 2163 391 
Q 1953 141 1743 26 
Q 1534 -88 1275 -88 
Q 1028 -88 836 64 
Q 644 216 578 419 
Q 513 622 513 1128 
L 513 2288 
Q 513 2619 452 2700 
Q 391 2781 197 2806 
L 197 2922 
L 1388 2922 
L 1388 925 
Q 1388 613 1417 522 
Q 1447 431 1511 384 
Q 1575 338 1659 338 
Q 1772 338 1863 397 
Q 1988 478 2163 725 
L 2163 2288 
Q 2163 2619 2102 2700 
Q 2041 2781 1847 2806 
L 1847 2922 
L 3038 2922 
z
" transform="scale(0.015625)"/>
      <path id="TimesNewRomanPS-BoldMT-29" d="M 78 -1281 
L 78 -1138 
Q 403 -922 556 -719 
Q 766 -438 888 0 
Q 1038 550 1038 1531 
Q 1038 2456 902 2967 
Q 766 3478 531 3794 
Q 369 4013 78 4178 
L 78 4334 
Q 831 4081 1354 3301 
Q 1878 2522 1878 1509 
Q 1878 513 1354 -257 
Q 831 -1028 78 -1281 
z
" transform="scale(0.015625)"/>
     </defs>
     <use xlink:href="#TimesNewRomanPS-BoldMT-56"/>
     <use xlink:href="#TimesNewRomanPS-BoldMT-6c" transform="translate(72.216797 0)"/>
     <use xlink:href="#TimesNewRomanPS-BoldMT-61" transform="translate(100 0)"/>
     <use xlink:href="#TimesNewRomanPS-BoldMT-64" transform="translate(150 0)"/>
     <use xlink:href="#TimesNewRomanPS-BoldMT-69" transform="translate(205.615234 0)"/>
     <use xlink:href="#TimesNewRomanPS-BoldMT-6d" transform="translate(233.398438 0)"/>
     <use xlink:href="#TimesNewRomanPS-BoldMT-69" transform="translate(316.699219 0)"/>
     <use xlink:href="#TimesNewRomanPS-BoldMT-72" transform="translate(344.482422 0)"/>
     <use xlink:href="#TimesNewRomanPS-BoldMT-20" transform="translate(387.117188 0)"/>
     <use xlink:href="#TimesNewRomanPS-BoldMT-28" transform="translate(412.117188 0)"/>
     <use xlink:href="#TimesNewRomanPS-BoldMT-52" transform="translate(445.417969 0)"/>
     <use xlink:href="#TimesNewRomanPS-BoldMT-68" transform="translate(517.634766 0)"/>
     <use xlink:href="#TimesNewRomanPS-BoldMT-65" transform="translate(573.25 0)"/>
     <use xlink:href="#TimesNewRomanPS-BoldMT-73" transform="translate(617.634766 0)"/>
     <use xlink:href="#TimesNewRomanPS-BoldMT-75" transform="translate(656.550781 0)"/>
     <use xlink:href="#TimesNewRomanPS-BoldMT-73" transform="translate(712.166016 0)"/>
     <use xlink:href="#TimesNewRomanPS-BoldMT-29" transform="translate(751.082031 0)"/>
    </g>
   </g>
   <g id="legend_1">
    <g id="patch_7">
     <path d="M 47.79 94.67625 
L 133.686875 94.67625 
Q 135.686875 94.67625 135.686875 92.67625 
L 135.686875 37.12 
Q 135.686875 35.12 133.686875 35.12 
L 47.79 35.12 
Q 45.79 35.12 45.79 37.12 
L 45.79 92.67625 
Q 45.79 94.67625 47.79 94.67625 
z
" style="fill: #ffffff; opacity: 0.8; stroke: #cccccc; stroke-linejoin: miter"/>
    </g>
    <g id="patch_8">
     <path d="M 49.79 46.12 
L 69.79 46.12 
L 69.79 39.12 
L 49.79 39.12 
z
" style="fill: #5386b6"/>
    </g>
    <g id="text_13">
     <!-- Success -->
     <g transform="translate(77.79 46.12) scale(0.1 -0.1)">
      <use xlink:href="#TimesNewRomanPSMT-53"/>
      <use xlink:href="#TimesNewRomanPSMT-75" transform="translate(55.615234 0)"/>
      <use xlink:href="#TimesNewRomanPSMT-63" transform="translate(105.615234 0)"/>
      <use xlink:href="#TimesNewRomanPSMT-63" transform="translate(150 0)"/>
      <use xlink:href="#TimesNewRomanPSMT-65" transform="translate(194.384766 0)"/>
      <use xlink:href="#TimesNewRomanPSMT-73" transform="translate(238.769531 0)"/>
      <use xlink:href="#TimesNewRomanPSMT-73" transform="translate(277.685547 0)"/>
     </g>
    </g>
    <g id="patch_9">
     <path d="M 49.79 60.259063 
L 69.79 60.259063 
L 69.79 53.259063 
L 49.79 53.259063 
z
" style="fill: #d57459"/>
    </g>
    <g id="text_14">
     <!-- Error -->
     <g transform="translate(77.79 60.259063) scale(0.1 -0.1)">
      <defs>
       <path id="TimesNewRomanPSMT-45" d="M 1338 4006 
L 1338 2331 
L 2269 2331 
Q 2631 2331 2753 2441 
Q 2916 2584 2934 2947 
L 3050 2947 
L 3050 1472 
L 2934 1472 
Q 2891 1781 2847 1869 
Q 2791 1978 2662 2040 
Q 2534 2103 2269 2103 
L 1338 2103 
L 1338 706 
Q 1338 425 1363 364 
Q 1388 303 1450 267 
Q 1513 231 1688 231 
L 2406 231 
Q 2766 231 2928 281 
Q 3091 331 3241 478 
Q 3434 672 3638 1063 
L 3763 1063 
L 3397 0 
L 131 0 
L 131 116 
L 281 116 
Q 431 116 566 188 
Q 666 238 702 338 
Q 738 438 738 747 
L 738 3500 
Q 738 3903 656 3997 
Q 544 4122 281 4122 
L 131 4122 
L 131 4238 
L 3397 4238 
L 3444 3309 
L 3322 3309 
Q 3256 3644 3176 3769 
Q 3097 3894 2941 3959 
Q 2816 4006 2500 4006 
L 1338 4006 
z
" transform="scale(0.015625)"/>
      </defs>
      <use xlink:href="#TimesNewRomanPSMT-45"/>
      <use xlink:href="#TimesNewRomanPSMT-72" transform="translate(61.083984 0)"/>
      <use xlink:href="#TimesNewRomanPSMT-72" transform="translate(94.384766 0)"/>
      <use xlink:href="#TimesNewRomanPSMT-6f" transform="translate(127.685547 0)"/>
      <use xlink:href="#TimesNewRomanPSMT-72" transform="translate(177.685547 0)"/>
     </g>
    </g>
    <g id="patch_10">
     <path d="M 49.79 74.398125 
L 69.79 74.398125 
L 69.79 67.398125 
L 49.79 67.398125 
z
" style="fill: #e8bc60"/>
    </g>
    <g id="text_15">
     <!-- Premature -->
     <g transform="translate(77.79 74.398125) scale(0.1 -0.1)">
      <defs>
       <path id="TimesNewRomanPSMT-6d" d="M 1050 2338 
Q 1363 2650 1419 2697 
Q 1559 2816 1721 2881 
Q 1884 2947 2044 2947 
Q 2313 2947 2506 2790 
Q 2700 2634 2766 2338 
Q 3088 2713 3309 2830 
Q 3531 2947 3766 2947 
Q 3994 2947 4170 2830 
Q 4347 2713 4450 2447 
Q 4519 2266 4519 1878 
L 4519 647 
Q 4519 378 4559 278 
Q 4591 209 4675 161 
Q 4759 113 4950 113 
L 4950 0 
L 3538 0 
L 3538 113 
L 3597 113 
Q 3781 113 3884 184 
Q 3956 234 3988 344 
Q 4000 397 4000 647 
L 4000 1878 
Q 4000 2228 3916 2372 
Q 3794 2572 3525 2572 
Q 3359 2572 3192 2489 
Q 3025 2406 2788 2181 
L 2781 2147 
L 2788 2013 
L 2788 647 
Q 2788 353 2820 281 
Q 2853 209 2943 161 
Q 3034 113 3253 113 
L 3253 0 
L 1806 0 
L 1806 113 
Q 2044 113 2133 169 
Q 2222 225 2256 338 
Q 2272 391 2272 647 
L 2272 1878 
Q 2272 2228 2169 2381 
Q 2031 2581 1784 2581 
Q 1616 2581 1450 2491 
Q 1191 2353 1050 2181 
L 1050 647 
Q 1050 366 1089 281 
Q 1128 197 1204 155 
Q 1281 113 1516 113 
L 1516 0 
L 100 0 
L 100 113 
Q 297 113 375 155 
Q 453 197 493 289 
Q 534 381 534 647 
L 534 1741 
Q 534 2213 506 2350 
Q 484 2453 437 2492 
Q 391 2531 309 2531 
Q 222 2531 100 2484 
L 53 2597 
L 916 2947 
L 1050 2947 
L 1050 2338 
z
" transform="scale(0.015625)"/>
      </defs>
      <use xlink:href="#TimesNewRomanPSMT-50"/>
      <use xlink:href="#TimesNewRomanPSMT-72" transform="translate(55.615234 0)"/>
      <use xlink:href="#TimesNewRomanPSMT-65" transform="translate(88.916016 0)"/>
      <use xlink:href="#TimesNewRomanPSMT-6d" transform="translate(133.300781 0)"/>
      <use xlink:href="#TimesNewRomanPSMT-61" transform="translate(211.083984 0)"/>
      <use xlink:href="#TimesNewRomanPSMT-74" transform="translate(255.46875 0)"/>
      <use xlink:href="#TimesNewRomanPSMT-75" transform="translate(283.251953 0)"/>
      <use xlink:href="#TimesNewRomanPSMT-72" transform="translate(333.251953 0)"/>
      <use xlink:href="#TimesNewRomanPSMT-65" transform="translate(366.552734 0)"/>
     </g>
    </g>
    <g id="patch_11">
     <path d="M 49.79 88.537188 
L 69.79 88.537188 
L 69.79 81.537188 
L 49.79 81.537188 
z
" style="fill: #8d5993"/>
    </g>
    <g id="text_16">
     <!-- Stepomission -->
     <g transform="translate(77.79 88.537188) scale(0.1 -0.1)">
      <use xlink:href="#TimesNewRomanPSMT-53"/>
      <use xlink:href="#TimesNewRomanPSMT-74" transform="translate(55.615234 0)"/>
      <use xlink:href="#TimesNewRomanPSMT-65" transform="translate(83.398438 0)"/>
      <use xlink:href="#TimesNewRomanPSMT-70" transform="translate(127.783203 0)"/>
      <use xlink:href="#TimesNewRomanPSMT-6f" transform="translate(177.783203 0)"/>
      <use xlink:href="#TimesNewRomanPSMT-6d" transform="translate(227.783203 0)"/>
      <use xlink:href="#TimesNewRomanPSMT-69" transform="translate(305.566406 0)"/>
      <use xlink:href="#TimesNewRomanPSMT-73" transform="translate(333.349609 0)"/>
      <use xlink:href="#TimesNewRomanPSMT-73" transform="translate(372.265625 0)"/>
      <use xlink:href="#TimesNewRomanPSMT-69" transform="translate(411.181641 0)"/>
      <use xlink:href="#TimesNewRomanPSMT-6f" transform="translate(438.964844 0)"/>
      <use xlink:href="#TimesNewRomanPSMT-6e" transform="translate(488.964844 0)"/>
     </g>
    </g>
   </g>
  </g>
 </g>
 <defs>
  <clipPath id="p2239508dfe">
   <rect x="40.79" y="30.12" width="612.682" height="501.4"/>
  </clipPath>
 </defs>
</svg>
