<?xml version="1.0" encoding="utf-8" standalone="no"?>
<!DOCTYPE svg PUBLIC "-//W3C//DTD SVG 1.1//EN"
  "http://www.w3.org/Graphics/SVG/1.1/DTD/svg11.dtd">
<svg xmlns:xlink="http://www.w3.org/1999/xlink" width="720pt" height="576pt" viewBox="0 0 720 576" xmlns="http://www.w3.org/2000/svg" version="1.1">
 <metadata>
  <rdf:RDF xmlns:dc="http://purl.org/dc/elements/1.1/" xmlns:cc="http://creativecommons.org/ns#" xmlns:rdf="http://www.w3.org/1999/02/22-rdf-syntax-ns#">
   <cc:Work>
    <dc:type rdf:resource="http://purl.org/dc/dcmitype/StillImage"/>
    <dc:date>2025-06-27T15:15:30.348371</dc:date>
    <dc:format>image/svg+xml</dc:format>
    <dc:creator>
     <cc:Agent>
      <dc:title>Matplotlib v3.10.3, https://matplotlib.org/</dc:title>
     </cc:Agent>
    </dc:creator>
   </cc:Work>
  </rdf:RDF>
 </metadata>
 <defs>
  <style type="text/css">*{stroke-linejoin: round; stroke-linecap: butt}</style>
 </defs>
 <g id="figure_1">
  <g id="patch_1">
   <path d="M 0 576 
L 720 576 
L 720 0 
L 0 0 
z
" style="fill: #ffffff"/>
  </g>
  <g id="axes_1">
   <g id="patch_2">
    <path d="M 40.79 531.52 
L 672.075 531.52 
L 672.075 30.12 
L 40.79 30.12 
z
" style="fill: #ffffff"/>
   </g>
   <g id="FillBetweenPolyCollection_1">
    <path d="M 40.79 388.262857 
L 40.79 531.52 
L 42.826403 531.52 
L 44.862806 531.52 
L 46.89921 531.52 
L 48.935613 531.52 
L 50.972016 531.52 
L 53.008419 531.52 
L 55.044823 531.52 
L 57.081226 531.52 
L 59.117629 531.52 
L 61.154032 531.52 
L 63.190435 531.52 
L 65.226839 531.52 
L 67.263242 531.52 
L 69.299645 531.52 
L 71.336048 531.52 
L 73.372452 531.52 
L 75.408855 531.52 
L 77.445258 531.52 
L 79.481661 531.52 
L 81.518065 531.52 
L 83.554468 531.52 
L 85.590871 531.52 
L 87.627274 531.52 
L 89.663677 531.52 
L 91.700081 531.52 
L 93.736484 531.52 
L 95.772887 531.52 
L 97.80929 531.52 
L 99.845694 531.52 
L 101.882097 531.52 
L 103.9185 531.52 
L 105.954903 531.52 
L 107.991306 531.52 
L 110.02771 531.52 
L 112.064113 531.52 
L 114.100516 531.52 
L 116.136919 531.52 
L 118.173323 531.52 
L 120.209726 531.52 
L 122.246129 531.52 
L 124.282532 531.52 
L 126.318935 531.52 
L 128.355339 531.52 
L 130.391742 531.52 
L 132.428145 531.52 
L 134.464548 531.52 
L 136.500952 531.52 
L 138.537355 531.52 
L 140.573758 531.52 
L 142.610161 531.52 
L 144.646565 531.52 
L 146.682968 531.52 
L 148.719371 531.52 
L 150.755774 531.52 
L 152.792177 531.52 
L 154.828581 531.52 
L 156.864984 531.52 
L 158.901387 531.52 
L 160.93779 531.52 
L 162.974194 531.52 
L 165.010597 531.52 
L 167.047 531.52 
L 169.083403 531.52 
L 171.119806 531.52 
L 173.15621 531.52 
L 175.192613 531.52 
L 177.229016 531.52 
L 179.265419 531.52 
L 181.301823 531.52 
L 183.338226 531.52 
L 185.374629 531.52 
L 187.411032 531.52 
L 189.447435 531.52 
L 191.483839 531.52 
L 193.520242 531.52 
L 195.556645 531.52 
L 197.593048 531.52 
L 199.629452 531.52 
L 201.665855 531.52 
L 203.702258 531.52 
L 205.738661 531.52 
L 207.775065 531.52 
L 209.811468 531.52 
L 211.847871 531.52 
L 213.884274 531.52 
L 215.920677 531.52 
L 217.957081 531.52 
L 219.993484 531.52 
L 222.029887 531.52 
L 224.06629 531.52 
L 226.102694 531.52 
L 228.139097 531.52 
L 230.1755 531.52 
L 232.211903 531.52 
L 234.248306 531.52 
L 236.28471 531.52 
L 238.321113 531.52 
L 240.357516 531.52 
L 242.393919 531.52 
L 244.430323 531.52 
L 246.466726 531.52 
L 248.503129 531.52 
L 250.539532 531.52 
L 252.575935 531.52 
L 254.612339 531.52 
L 256.648742 531.52 
L 258.685145 531.52 
L 260.721548 531.52 
L 262.757952 531.52 
L 264.794355 531.52 
L 266.830758 531.52 
L 268.867161 531.52 
L 270.903565 531.52 
L 272.939968 531.52 
L 274.976371 531.52 
L 277.012774 531.52 
L 279.049177 531.52 
L 281.085581 531.52 
L 283.121984 531.52 
L 285.158387 531.52 
L 287.19479 531.52 
L 289.231194 531.52 
L 291.267597 531.52 
L 293.304 531.52 
L 295.340403 531.52 
L 297.376806 531.52 
L 299.41321 531.52 
L 301.449613 531.52 
L 303.486016 531.52 
L 305.522419 531.52 
L 307.558823 531.52 
L 309.595226 531.52 
L 311.631629 531.52 
L 313.668032 531.52 
L 315.704435 531.52 
L 317.740839 531.52 
L 319.777242 531.52 
L 321.813645 531.52 
L 323.850048 531.52 
L 325.886452 531.52 
L 327.922855 531.52 
L 329.959258 531.52 
L 331.995661 531.52 
L 334.032065 531.52 
L 336.068468 531.52 
L 338.104871 531.52 
L 340.141274 531.52 
L 342.177677 531.52 
L 344.214081 531.52 
L 346.250484 531.52 
L 348.286887 531.52 
L 350.32329 531.52 
L 352.359694 531.52 
L 354.396097 531.52 
L 356.4325 531.52 
L 358.468903 531.52 
L 360.505306 531.52 
L 362.54171 531.52 
L 364.578113 531.52 
L 366.614516 531.52 
L 368.650919 531.52 
L 370.687323 531.52 
L 372.723726 531.52 
L 374.760129 531.52 
L 376.796532 531.52 
L 378.832935 531.52 
L 380.869339 531.52 
L 382.905742 531.52 
L 384.942145 531.52 
L 386.978548 531.52 
L 389.014952 531.52 
L 391.051355 531.52 
L 393.087758 531.52 
L 395.124161 531.52 
L 397.160565 531.52 
L 399.196968 531.52 
L 401.233371 531.52 
L 403.269774 531.52 
L 405.306177 531.52 
L 407.342581 531.52 
L 409.378984 531.52 
L 411.415387 531.52 
L 413.45179 531.52 
L 415.488194 531.52 
L 417.524597 531.52 
L 419.561 531.52 
L 421.597403 531.52 
L 423.633806 531.52 
L 425.67021 531.52 
L 427.706613 531.52 
L 429.743016 531.52 
L 431.779419 531.52 
L 433.815823 531.52 
L 435.852226 531.52 
L 437.888629 531.52 
L 439.925032 531.52 
L 441.961435 531.52 
L 443.997839 531.52 
L 446.034242 531.52 
L 448.070645 531.52 
L 450.107048 531.52 
L 452.143452 531.52 
L 454.179855 531.52 
L 456.216258 531.52 
L 458.252661 531.52 
L 460.289065 531.52 
L 462.325468 531.52 
L 464.361871 531.52 
L 466.398274 531.52 
L 468.434677 531.52 
L 470.471081 531.52 
L 472.507484 531.52 
L 474.543887 531.52 
L 476.58029 531.52 
L 478.616694 531.52 
L 480.653097 531.52 
L 482.6895 531.52 
L 484.725903 531.52 
L 486.762306 531.52 
L 488.79871 531.52 
L 490.835113 531.52 
L 492.871516 531.52 
L 494.907919 531.52 
L 496.944323 531.52 
L 498.980726 531.52 
L 501.017129 531.52 
L 503.053532 531.52 
L 505.089935 531.52 
L 507.126339 531.52 
L 509.162742 531.52 
L 511.199145 531.52 
L 513.235548 531.52 
L 515.271952 531.52 
L 517.308355 531.52 
L 519.344758 531.52 
L 521.381161 531.52 
L 523.417565 531.52 
L 525.453968 531.52 
L 527.490371 531.52 
L 529.526774 531.52 
L 531.563177 531.52 
L 533.599581 531.52 
L 535.635984 531.52 
L 537.672387 531.52 
L 539.70879 531.52 
L 541.745194 531.52 
L 543.781597 531.52 
L 545.818 531.52 
L 547.854403 531.52 
L 549.890806 531.52 
L 551.92721 531.52 
L 553.963613 531.52 
L 556.000016 531.52 
L 558.036419 531.52 
L 560.072823 531.52 
L 562.109226 531.52 
L 564.145629 531.52 
L 566.182032 531.52 
L 568.218435 531.52 
L 570.254839 531.52 
L 572.291242 531.52 
L 574.327645 531.52 
L 576.364048 531.52 
L 578.400452 531.52 
L 580.436855 531.52 
L 582.473258 531.52 
L 584.509661 531.52 
L 586.546065 531.52 
L 588.582468 531.52 
L 590.618871 531.52 
L 592.655274 531.52 
L 594.691677 531.52 
L 596.728081 531.52 
L 598.764484 531.52 
L 600.800887 531.52 
L 602.83729 531.52 
L 604.873694 531.52 
L 606.910097 531.52 
L 608.9465 531.52 
L 610.982903 531.52 
L 613.019306 531.52 
L 615.05571 531.52 
L 617.092113 531.52 
L 619.128516 531.52 
L 621.164919 531.52 
L 623.201323 531.52 
L 625.237726 531.52 
L 627.274129 531.52 
L 629.310532 531.52 
L 631.346935 531.52 
L 633.383339 531.52 
L 635.419742 531.52 
L 637.456145 531.52 
L 639.492548 531.52 
L 641.528952 531.52 
L 643.565355 531.52 
L 645.601758 531.52 
L 647.638161 531.52 
L 649.674565 531.52 
L 651.710968 531.52 
L 653.747371 531.52 
L 655.783774 531.52 
L 657.820177 531.52 
L 659.856581 531.52 
L 661.892984 531.52 
L 663.929387 531.52 
L 665.96579 531.52 
L 668.002194 531.52 
L 670.038597 531.52 
L 672.075 531.52 
L 672.075 155.47 
L 672.075 155.47 
L 670.038597 30.12 
L 668.002194 431.24 
L 665.96579 218.145 
L 663.929387 186.8075 
L 661.892984 30.12 
L 659.856581 280.82 
L 657.820177 121.283636 
L 655.783774 30.12 
L 653.747371 531.52 
L 651.710968 207.084706 
L 649.674565 531.52 
L 647.638161 280.82 
L 645.601758 30.12 
L 643.565355 130.4 
L 641.528952 330.96 
L 639.492548 130.4 
L 637.456145 30.12 
L 635.419742 280.82 
L 633.383339 80.26 
L 631.346935 30.12 
L 629.310532 113.686667 
L 627.274129 30.12 
L 625.237726 230.68 
L 623.201323 30.12 
L 621.164919 30.12 
L 619.128516 30.12 
L 617.092113 30.12 
L 615.05571 155.47 
L 613.019306 230.68 
L 610.982903 30.12 
L 608.9465 531.52 
L 606.910097 197.253333 
L 604.873694 280.82 
L 602.83729 197.253333 
L 600.800887 364.386667 
L 598.764484 280.82 
L 596.728081 180.54 
L 594.691677 30.12 
L 592.655274 30.12 
L 590.618871 30.12 
L 588.582468 30.12 
L 586.546065 222.966154 
L 584.509661 101.748571 
L 582.473258 531.52 
L 580.436855 197.253333 
L 578.400452 364.386667 
L 576.364048 280.82 
L 574.327645 230.68 
L 572.291242 30.12 
L 570.254839 141.542222 
L 568.218435 155.47 
L 566.182032 155.47 
L 564.145629 30.12 
L 562.109226 30.12 
L 560.072823 280.82 
L 558.036419 230.68 
L 556.000016 30.12 
L 553.963613 531.52 
L 551.92721 30.12 
L 549.890806 531.52 
L 547.854403 30.12 
L 545.818 30.12 
L 543.781597 30.12 
L 541.745194 71.903333 
L 539.70879 280.82 
L 537.672387 30.12 
L 535.635984 531.52 
L 533.599581 30.12 
L 531.563177 230.68 
L 529.526774 30.12 
L 527.490371 30.12 
L 525.453968 280.82 
L 523.417565 330.96 
L 521.381161 280.82 
L 519.344758 30.12 
L 517.308355 184.396923 
L 515.271952 197.253333 
L 513.235548 113.686667 
L 511.199145 230.68 
L 509.162742 30.12 
L 507.126339 30.12 
L 505.089935 230.68 
L 503.053532 531.52 
L 501.017129 30.12 
L 498.980726 30.12 
L 496.944323 85.831111 
L 494.907919 364.386667 
L 492.871516 30.12 
L 490.835113 30.12 
L 488.79871 531.52 
L 486.762306 30.12 
L 484.725903 280.82 
L 482.6895 280.82 
L 480.653097 197.253333 
L 478.616694 531.52 
L 476.58029 531.52 
L 474.543887 531.52 
L 472.507484 197.253333 
L 470.471081 30.12 
L 468.434677 30.12 
L 466.398274 303.610909 
L 464.361871 280.82 
L 462.325468 30.12 
L 460.289065 137.562857 
L 458.252661 130.4 
L 456.216258 364.386667 
L 454.179855 155.47 
L 452.143452 531.52 
L 450.107048 280.82 
L 448.070645 30.12 
L 446.034242 280.82 
L 443.997839 30.12 
L 441.961435 30.12 
L 439.925032 155.47 
L 437.888629 531.52 
L 435.852226 531.52 
L 433.815823 197.253333 
L 431.779419 230.68 
L 429.743016 364.386667 
L 427.706613 218.145 
L 425.67021 275.703673 
L 423.633806 262.912857 
L 421.597403 261.535385 
L 419.561 266.072941 
L 417.524597 318.425 
L 415.488194 197.253333 
L 413.45179 252.964444 
L 411.415387 30.12 
L 409.378984 162.067368 
L 407.342581 155.47 
L 405.306177 280.82 
L 403.269774 184.396923 
L 401.233371 270.374167 
L 399.196968 173.377143 
L 397.160565 531.52 
L 395.124161 280.82 
L 393.087758 207.084706 
L 391.051355 252.964444 
L 389.014952 186.8075 
L 386.978548 205.61 
L 384.942145 230.68 
L 382.905742 266.072941 
L 380.869339 230.68 
L 378.832935 338.673846 
L 376.796532 364.386667 
L 374.760129 338.673846 
L 372.723726 531.52 
L 370.687323 364.386667 
L 368.650919 274.705366 
L 366.614516 368.02 
L 364.578113 319.389231 
L 362.54171 531.52 
L 360.505306 338.673846 
L 358.468903 197.253333 
L 356.4325 30.12 
L 354.396097 267.625263 
L 352.359694 364.386667 
L 350.32329 531.52 
L 348.286887 359.988421 
L 346.250484 322.603333 
L 344.214081 261.535385 
L 342.177677 280.82 
L 340.141274 531.52 
L 338.104871 336.531111 
L 336.068468 295.567059 
L 334.032065 184.396923 
L 331.995661 228.041053 
L 329.959258 330.96 
L 327.922855 302.308571 
L 325.886452 252.964444 
L 323.850048 155.47 
L 321.813645 280.82 
L 319.777242 322.603333 
L 317.740839 255.75 
L 315.704435 314.698378 
L 313.668032 208.395556 
L 311.631629 280.82 
L 309.595226 531.52 
L 307.558823 531.52 
L 305.522419 258.029091 
L 303.486016 531.52 
L 301.449613 319.389231 
L 299.41321 252.964444 
L 297.376806 280.82 
L 295.340403 30.12 
L 293.304 406.17 
L 291.267597 222.966154 
L 289.231194 346.793684 
L 287.19479 245.005714 
L 285.158387 531.52 
L 283.121984 531.52 
L 281.085581 264.106667 
L 279.049177 280.82 
L 277.012774 308.675556 
L 274.976371 280.82 
L 272.939968 92.795 
L 270.903565 248.678974 
L 268.867161 280.82 
L 266.830758 155.47 
L 264.794355 30.12 
L 262.757952 364.386667 
L 260.721548 280.82 
L 258.685145 330.96 
L 256.648742 364.386667 
L 254.612339 30.12 
L 252.575935 266.072941 
L 250.539532 301.711667 
L 248.503129 30.12 
L 246.466726 30.12 
L 244.430323 406.17 
L 242.393919 272.732903 
L 240.357516 280.82 
L 238.321113 239.036667 
L 236.28471 420.097778 
L 234.248306 531.52 
L 232.211903 381.1 
L 230.1755 280.82 
L 228.139097 531.52 
L 226.102694 30.12 
L 224.06629 268.285 
L 222.029887 262.912857 
L 219.993484 30.12 
L 217.957081 173.377143 
L 215.920677 305.89 
L 213.884274 325.061176 
L 211.847871 394.774545 
L 209.811468 280.82 
L 207.775065 30.12 
L 205.738661 280.82 
L 203.702258 230.68 
L 201.665855 322.603333 
L 199.629452 280.82 
L 197.593048 531.52 
L 195.556645 280.82 
L 193.520242 184.396923 
L 191.483839 330.96 
L 189.447435 258.029091 
L 187.411032 420.097778 
L 185.374629 354.555294 
L 183.338226 280.82 
L 181.301823 406.17 
L 179.265419 330.96 
L 177.229016 325.061176 
L 175.192613 316.634286 
L 173.15621 291.72 
L 171.119806 531.52 
L 169.083403 280.82 
L 167.047 290.848 
L 165.010597 292.758095 
L 162.974194 381.1 
L 160.93779 312.1575 
L 158.901387 258.029091 
L 156.864984 381.1 
L 154.828581 330.96 
L 152.792177 173.377143 
L 150.755774 280.82 
L 148.719371 531.52 
L 146.682968 406.17 
L 144.646565 531.52 
L 142.610161 197.253333 
L 140.573758 364.386667 
L 138.537355 431.24 
L 136.500952 302.308571 
L 134.464548 258.029091 
L 132.428145 280.82 
L 130.391742 406.17 
L 128.355339 373.183158 
L 126.318935 255.75 
L 124.282532 531.52 
L 122.246129 280.82 
L 120.209726 445.071724 
L 118.173323 531.52 
L 116.136919 531.52 
L 114.100516 531.52 
L 112.064113 531.52 
L 110.02771 280.82 
L 107.991306 364.386667 
L 105.954903 340.510476 
L 103.9185 388.262857 
L 101.882097 531.52 
L 99.845694 531.52 
L 97.80929 197.253333 
L 95.772887 368.565 
L 93.736484 225.108889 
L 91.700081 322.603333 
L 89.663677 245.005714 
L 87.627274 197.253333 
L 85.590871 364.386667 
L 83.554468 280.82 
L 81.518065 377.243077 
L 79.481661 280.82 
L 77.445258 30.12 
L 75.408855 420.097778 
L 73.372452 406.17 
L 71.336048 431.24 
L 69.299645 357.958462 
L 67.263242 308.675556 
L 65.226839 155.47 
L 63.190435 230.68 
L 61.154032 230.68 
L 59.117629 101.748571 
L 57.081226 316.634286 
L 55.044823 197.253333 
L 53.008419 280.82 
L 50.972016 531.52 
L 48.935613 280.82 
L 46.89921 330.96 
L 44.862806 280.82 
L 42.826403 343.495 
L 40.79 388.262857 
z
" clip-path="url(#p23638eb053)" style="fill: #5386b6"/>
   </g>
   <g id="FillBetweenPolyCollection_2">
    <path d="M 40.79 101.748571 
L 40.79 388.262857 
L 42.826403 343.495 
L 44.862806 280.82 
L 46.89921 330.96 
L 48.935613 280.82 
L 50.972016 531.52 
L 53.008419 280.82 
L 55.044823 197.253333 
L 57.081226 316.634286 
L 59.117629 101.748571 
L 61.154032 230.68 
L 63.190435 230.68 
L 65.226839 155.47 
L 67.263242 308.675556 
L 69.299645 357.958462 
L 71.336048 431.24 
L 73.372452 406.17 
L 75.408855 420.097778 
L 77.445258 30.12 
L 79.481661 280.82 
L 81.518065 377.243077 
L 83.554468 280.82 
L 85.590871 364.386667 
L 87.627274 197.253333 
L 89.663677 245.005714 
L 91.700081 322.603333 
L 93.736484 225.108889 
L 95.772887 368.565 
L 97.80929 197.253333 
L 99.845694 531.52 
L 101.882097 531.52 
L 103.9185 388.262857 
L 105.954903 340.510476 
L 107.991306 364.386667 
L 110.02771 280.82 
L 112.064113 531.52 
L 114.100516 531.52 
L 116.136919 531.52 
L 118.173323 531.52 
L 120.209726 445.071724 
L 122.246129 280.82 
L 124.282532 531.52 
L 126.318935 255.75 
L 128.355339 373.183158 
L 130.391742 406.17 
L 132.428145 280.82 
L 134.464548 258.029091 
L 136.500952 302.308571 
L 138.537355 431.24 
L 140.573758 364.386667 
L 142.610161 197.253333 
L 144.646565 531.52 
L 146.682968 406.17 
L 148.719371 531.52 
L 150.755774 280.82 
L 152.792177 173.377143 
L 154.828581 330.96 
L 156.864984 381.1 
L 158.901387 258.029091 
L 160.93779 312.1575 
L 162.974194 381.1 
L 165.010597 292.758095 
L 167.047 290.848 
L 169.083403 280.82 
L 171.119806 531.52 
L 173.15621 291.72 
L 175.192613 316.634286 
L 177.229016 325.061176 
L 179.265419 330.96 
L 181.301823 406.17 
L 183.338226 280.82 
L 185.374629 354.555294 
L 187.411032 420.097778 
L 189.447435 258.029091 
L 191.483839 330.96 
L 193.520242 184.396923 
L 195.556645 280.82 
L 197.593048 531.52 
L 199.629452 280.82 
L 201.665855 322.603333 
L 203.702258 230.68 
L 205.738661 280.82 
L 207.775065 30.12 
L 209.811468 280.82 
L 211.847871 394.774545 
L 213.884274 325.061176 
L 215.920677 305.89 
L 217.957081 173.377143 
L 219.993484 30.12 
L 222.029887 262.912857 
L 224.06629 268.285 
L 226.102694 30.12 
L 228.139097 531.52 
L 230.1755 280.82 
L 232.211903 381.1 
L 234.248306 531.52 
L 236.28471 420.097778 
L 238.321113 239.036667 
L 240.357516 280.82 
L 242.393919 272.732903 
L 244.430323 406.17 
L 246.466726 30.12 
L 248.503129 30.12 
L 250.539532 301.711667 
L 252.575935 266.072941 
L 254.612339 30.12 
L 256.648742 364.386667 
L 258.685145 330.96 
L 260.721548 280.82 
L 262.757952 364.386667 
L 264.794355 30.12 
L 266.830758 155.47 
L 268.867161 280.82 
L 270.903565 248.678974 
L 272.939968 92.795 
L 274.976371 280.82 
L 277.012774 308.675556 
L 279.049177 280.82 
L 281.085581 264.106667 
L 283.121984 531.52 
L 285.158387 531.52 
L 287.19479 245.005714 
L 289.231194 346.793684 
L 291.267597 222.966154 
L 293.304 406.17 
L 295.340403 30.12 
L 297.376806 280.82 
L 299.41321 252.964444 
L 301.449613 319.389231 
L 303.486016 531.52 
L 305.522419 258.029091 
L 307.558823 531.52 
L 309.595226 531.52 
L 311.631629 280.82 
L 313.668032 208.395556 
L 315.704435 314.698378 
L 317.740839 255.75 
L 319.777242 322.603333 
L 321.813645 280.82 
L 323.850048 155.47 
L 325.886452 252.964444 
L 327.922855 302.308571 
L 329.959258 330.96 
L 331.995661 228.041053 
L 334.032065 184.396923 
L 336.068468 295.567059 
L 338.104871 336.531111 
L 340.141274 531.52 
L 342.177677 280.82 
L 344.214081 261.535385 
L 346.250484 322.603333 
L 348.286887 359.988421 
L 350.32329 531.52 
L 352.359694 364.386667 
L 354.396097 267.625263 
L 356.4325 30.12 
L 358.468903 197.253333 
L 360.505306 338.673846 
L 362.54171 531.52 
L 364.578113 319.389231 
L 366.614516 368.02 
L 368.650919 274.705366 
L 370.687323 364.386667 
L 372.723726 531.52 
L 374.760129 338.673846 
L 376.796532 364.386667 
L 378.832935 338.673846 
L 380.869339 230.68 
L 382.905742 266.072941 
L 384.942145 230.68 
L 386.978548 205.61 
L 389.014952 186.8075 
L 391.051355 252.964444 
L 393.087758 207.084706 
L 395.124161 280.82 
L 397.160565 531.52 
L 399.196968 173.377143 
L 401.233371 270.374167 
L 403.269774 184.396923 
L 405.306177 280.82 
L 407.342581 155.47 
L 409.378984 162.067368 
L 411.415387 30.12 
L 413.45179 252.964444 
L 415.488194 197.253333 
L 417.524597 318.425 
L 419.561 266.072941 
L 421.597403 261.535385 
L 423.633806 262.912857 
L 425.67021 275.703673 
L 427.706613 218.145 
L 429.743016 364.386667 
L 431.779419 230.68 
L 433.815823 197.253333 
L 435.852226 531.52 
L 437.888629 531.52 
L 439.925032 155.47 
L 441.961435 30.12 
L 443.997839 30.12 
L 446.034242 280.82 
L 448.070645 30.12 
L 450.107048 280.82 
L 452.143452 531.52 
L 454.179855 155.47 
L 456.216258 364.386667 
L 458.252661 130.4 
L 460.289065 137.562857 
L 462.325468 30.12 
L 464.361871 280.82 
L 466.398274 303.610909 
L 468.434677 30.12 
L 470.471081 30.12 
L 472.507484 197.253333 
L 474.543887 531.52 
L 476.58029 531.52 
L 478.616694 531.52 
L 480.653097 197.253333 
L 482.6895 280.82 
L 484.725903 280.82 
L 486.762306 30.12 
L 488.79871 531.52 
L 490.835113 30.12 
L 492.871516 30.12 
L 494.907919 364.386667 
L 496.944323 85.831111 
L 498.980726 30.12 
L 501.017129 30.12 
L 503.053532 531.52 
L 505.089935 230.68 
L 507.126339 30.12 
L 509.162742 30.12 
L 511.199145 230.68 
L 513.235548 113.686667 
L 515.271952 197.253333 
L 517.308355 184.396923 
L 519.344758 30.12 
L 521.381161 280.82 
L 523.417565 330.96 
L 525.453968 280.82 
L 527.490371 30.12 
L 529.526774 30.12 
L 531.563177 230.68 
L 533.599581 30.12 
L 535.635984 531.52 
L 537.672387 30.12 
L 539.70879 280.82 
L 541.745194 71.903333 
L 543.781597 30.12 
L 545.818 30.12 
L 547.854403 30.12 
L 549.890806 531.52 
L 551.92721 30.12 
L 553.963613 531.52 
L 556.000016 30.12 
L 558.036419 230.68 
L 560.072823 280.82 
L 562.109226 30.12 
L 564.145629 30.12 
L 566.182032 155.47 
L 568.218435 155.47 
L 570.254839 141.542222 
L 572.291242 30.12 
L 574.327645 230.68 
L 576.364048 280.82 
L 578.400452 364.386667 
L 580.436855 197.253333 
L 582.473258 531.52 
L 584.509661 101.748571 
L 586.546065 222.966154 
L 588.582468 30.12 
L 590.618871 30.12 
L 592.655274 30.12 
L 594.691677 30.12 
L 596.728081 180.54 
L 598.764484 280.82 
L 600.800887 364.386667 
L 602.83729 197.253333 
L 604.873694 280.82 
L 606.910097 197.253333 
L 608.9465 531.52 
L 610.982903 30.12 
L 613.019306 230.68 
L 615.05571 155.47 
L 617.092113 30.12 
L 619.128516 30.12 
L 621.164919 30.12 
L 623.201323 30.12 
L 625.237726 230.68 
L 627.274129 30.12 
L 629.310532 113.686667 
L 631.346935 30.12 
L 633.383339 80.26 
L 635.419742 280.82 
L 637.456145 30.12 
L 639.492548 130.4 
L 641.528952 330.96 
L 643.565355 130.4 
L 645.601758 30.12 
L 647.638161 280.82 
L 649.674565 531.52 
L 651.710968 207.084706 
L 653.747371 531.52 
L 655.783774 30.12 
L 657.820177 121.283636 
L 659.856581 280.82 
L 661.892984 30.12 
L 663.929387 186.8075 
L 665.96579 218.145 
L 668.002194 431.24 
L 670.038597 30.12 
L 672.075 155.47 
L 672.075 92.795 
L 672.075 92.795 
L 670.038597 30.12 
L 668.002194 30.12 
L 665.96579 92.795 
L 663.929387 30.12 
L 661.892984 30.12 
L 659.856581 30.12 
L 657.820177 30.12 
L 655.783774 30.12 
L 653.747371 30.12 
L 651.710968 89.108235 
L 649.674565 30.12 
L 647.638161 280.82 
L 645.601758 30.12 
L 643.565355 130.4 
L 641.528952 30.12 
L 639.492548 30.12 
L 637.456145 30.12 
L 635.419742 30.12 
L 633.383339 30.12 
L 631.346935 30.12 
L 629.310532 30.12 
L 627.274129 30.12 
L 625.237726 130.4 
L 623.201323 30.12 
L 621.164919 30.12 
L 619.128516 30.12 
L 617.092113 30.12 
L 615.05571 92.795 
L 613.019306 30.12 
L 610.982903 30.12 
L 608.9465 30.12 
L 606.910097 197.253333 
L 604.873694 280.82 
L 602.83729 197.253333 
L 600.800887 364.386667 
L 598.764484 30.12 
L 596.728081 30.12 
L 594.691677 30.12 
L 592.655274 30.12 
L 590.618871 30.12 
L 588.582468 30.12 
L 586.546065 107.258462 
L 584.509661 101.748571 
L 582.473258 30.12 
L 580.436855 30.12 
L 578.400452 197.253333 
L 576.364048 30.12 
L 574.327645 30.12 
L 572.291242 30.12 
L 570.254839 85.831111 
L 568.218435 30.12 
L 566.182032 30.12 
L 564.145629 30.12 
L 562.109226 30.12 
L 560.072823 30.12 
L 558.036419 130.4 
L 556.000016 30.12 
L 553.963613 30.12 
L 551.92721 30.12 
L 549.890806 30.12 
L 547.854403 30.12 
L 545.818 30.12 
L 543.781597 30.12 
L 541.745194 30.12 
L 539.70879 30.12 
L 537.672387 30.12 
L 535.635984 30.12 
L 533.599581 30.12 
L 531.563177 130.4 
L 529.526774 30.12 
L 527.490371 30.12 
L 525.453968 30.12 
L 523.417565 130.4 
L 521.381161 155.47 
L 519.344758 30.12 
L 517.308355 68.689231 
L 515.271952 141.542222 
L 513.235548 30.12 
L 511.199145 130.4 
L 509.162742 30.12 
L 507.126339 30.12 
L 505.089935 130.4 
L 503.053532 30.12 
L 501.017129 30.12 
L 498.980726 30.12 
L 496.944323 30.12 
L 494.907919 197.253333 
L 492.871516 30.12 
L 490.835113 30.12 
L 488.79871 364.386667 
L 486.762306 30.12 
L 484.725903 30.12 
L 482.6895 280.82 
L 480.653097 30.12 
L 478.616694 30.12 
L 476.58029 30.12 
L 474.543887 30.12 
L 472.507484 30.12 
L 470.471081 30.12 
L 468.434677 30.12 
L 466.398274 30.12 
L 464.361871 30.12 
L 462.325468 30.12 
L 460.289065 30.12 
L 458.252661 30.12 
L 456.216258 30.12 
L 454.179855 30.12 
L 452.143452 531.52 
L 450.107048 30.12 
L 448.070645 30.12 
L 446.034242 280.82 
L 443.997839 30.12 
L 441.961435 30.12 
L 439.925032 30.12 
L 437.888629 30.12 
L 435.852226 30.12 
L 433.815823 30.12 
L 431.779419 30.12 
L 429.743016 197.253333 
L 427.706613 139.80125 
L 425.67021 193.842449 
L 423.633806 191.284286 
L 421.597403 126.543077 
L 419.561 89.108235 
L 417.524597 130.4 
L 415.488194 197.253333 
L 413.45179 85.831111 
L 411.415387 30.12 
L 409.378984 82.898947 
L 407.342581 155.47 
L 405.306177 155.47 
L 403.269774 68.689231 
L 401.233371 134.578333 
L 399.196968 101.748571 
L 397.160565 531.52 
L 395.124161 280.82 
L 393.087758 118.602353 
L 391.051355 67.260741 
L 389.014952 92.795 
L 386.978548 55.19 
L 384.942145 230.68 
L 382.905742 89.108235 
L 380.869339 130.4 
L 378.832935 68.689231 
L 376.796532 197.253333 
L 374.760129 68.689231 
L 372.723726 531.52 
L 370.687323 197.253333 
L 368.650919 91.266341 
L 366.614516 259.02 
L 364.578113 155.47 
L 362.54171 30.12 
L 360.505306 145.827692 
L 358.468903 197.253333 
L 356.4325 30.12 
L 354.396097 162.067368 
L 352.359694 233.067619 
L 350.32329 531.52 
L 348.286887 135.677895 
L 346.250484 71.903333 
L 344.214081 45.547692 
L 342.177677 30.12 
L 340.141274 30.12 
L 338.104871 30.12 
L 336.068468 39.951373 
L 334.032065 68.689231 
L 331.995661 56.509474 
L 329.959258 30.12 
L 327.922855 44.445714 
L 325.886452 85.831111 
L 323.850048 30.12 
L 321.813645 30.12 
L 319.777242 30.12 
L 317.740839 30.12 
L 315.704435 43.671351 
L 313.668032 30.12 
L 311.631629 49.404615 
L 309.595226 531.52 
L 307.558823 531.52 
L 305.522419 30.12 
L 303.486016 531.52 
L 301.449613 68.689231 
L 299.41321 30.12 
L 297.376806 155.47 
L 295.340403 30.12 
L 293.304 30.12 
L 291.267597 30.12 
L 289.231194 30.12 
L 287.19479 30.12 
L 285.158387 531.52 
L 283.121984 280.82 
L 281.085581 30.12 
L 279.049177 30.12 
L 277.012774 85.831111 
L 274.976371 30.12 
L 272.939968 92.795 
L 270.903565 42.97641 
L 268.867161 30.12 
L 266.830758 30.12 
L 264.794355 30.12 
L 262.757952 30.12 
L 260.721548 30.12 
L 258.685145 30.12 
L 256.648742 30.12 
L 254.612339 30.12 
L 252.575935 30.12 
L 250.539532 30.12 
L 248.503129 30.12 
L 246.466726 30.12 
L 244.430323 155.47 
L 242.393919 30.12 
L 240.357516 30.12 
L 238.321113 30.12 
L 236.28471 85.831111 
L 234.248306 406.17 
L 232.211903 30.12 
L 230.1755 30.12 
L 228.139097 30.12 
L 226.102694 30.12 
L 224.06629 67.725 
L 222.029887 48.027143 
L 219.993484 30.12 
L 217.957081 30.12 
L 215.920677 30.12 
L 213.884274 30.12 
L 211.847871 121.283636 
L 209.811468 30.12 
L 207.775065 30.12 
L 205.738661 30.12 
L 203.702258 30.12 
L 201.665855 30.12 
L 199.629452 30.12 
L 197.593048 130.4 
L 195.556645 113.686667 
L 193.520242 68.689231 
L 191.483839 42.655 
L 189.447435 41.515455 
L 187.411032 85.831111 
L 185.374629 89.108235 
L 183.338226 48.027143 
L 181.301823 155.47 
L 179.265419 30.12 
L 177.229016 30.12 
L 175.192613 101.748571 
L 173.15621 30.12 
L 171.119806 30.12 
L 169.083403 80.26 
L 167.047 70.232 
L 165.010597 53.99619 
L 162.974194 130.4 
L 160.93779 30.12 
L 158.901387 30.12 
L 156.864984 30.12 
L 154.828581 30.12 
L 152.792177 30.12 
L 150.755774 92.795 
L 148.719371 30.12 
L 146.682968 30.12 
L 144.646565 30.12 
L 142.610161 30.12 
L 140.573758 30.12 
L 138.537355 30.12 
L 136.500952 73.097143 
L 134.464548 30.12 
L 132.428145 30.12 
L 130.391742 30.12 
L 128.355339 56.509474 
L 126.318935 130.4 
L 124.282532 30.12 
L 122.246129 30.12 
L 120.209726 116.568276 
L 118.173323 531.52 
L 116.136919 531.52 
L 114.100516 197.253333 
L 112.064113 30.12 
L 110.02771 30.12 
L 107.991306 30.12 
L 105.954903 53.99619 
L 103.9185 30.12 
L 101.882097 30.12 
L 99.845694 30.12 
L 97.80929 30.12 
L 95.772887 67.725 
L 93.736484 30.12 
L 91.700081 30.12 
L 89.663677 101.748571 
L 87.627274 30.12 
L 85.590871 57.975556 
L 83.554468 30.12 
L 81.518065 107.258462 
L 79.481661 30.12 
L 77.445258 30.12 
L 75.408855 30.12 
L 73.372452 30.12 
L 71.336048 130.4 
L 69.299645 87.973846 
L 67.263242 30.12 
L 65.226839 30.12 
L 63.190435 30.12 
L 61.154032 30.12 
L 59.117629 30.12 
L 57.081226 65.934286 
L 55.044823 30.12 
L 53.008419 30.12 
L 50.972016 30.12 
L 48.935613 30.12 
L 46.89921 105.33 
L 44.862806 30.12 
L 42.826403 30.12 
L 40.79 101.748571 
z
" clip-path="url(#p23638eb053)" style="fill: #d57459"/>
   </g>
   <g id="FillBetweenPolyCollection_3">
    <path d="M 40.79 30.12 
L 40.79 101.748571 
L 42.826403 30.12 
L 44.862806 30.12 
L 46.89921 105.33 
L 48.935613 30.12 
L 50.972016 30.12 
L 53.008419 30.12 
L 55.044823 30.12 
L 57.081226 65.934286 
L 59.117629 30.12 
L 61.154032 30.12 
L 63.190435 30.12 
L 65.226839 30.12 
L 67.263242 30.12 
L 69.299645 87.973846 
L 71.336048 130.4 
L 73.372452 30.12 
L 75.408855 30.12 
L 77.445258 30.12 
L 79.481661 30.12 
L 81.518065 107.258462 
L 83.554468 30.12 
L 85.590871 57.975556 
L 87.627274 30.12 
L 89.663677 101.748571 
L 91.700081 30.12 
L 93.736484 30.12 
L 95.772887 67.725 
L 97.80929 30.12 
L 99.845694 30.12 
L 101.882097 30.12 
L 103.9185 30.12 
L 105.954903 53.99619 
L 107.991306 30.12 
L 110.02771 30.12 
L 112.064113 30.12 
L 114.100516 197.253333 
L 116.136919 531.52 
L 118.173323 531.52 
L 120.209726 116.568276 
L 122.246129 30.12 
L 124.282532 30.12 
L 126.318935 130.4 
L 128.355339 56.509474 
L 130.391742 30.12 
L 132.428145 30.12 
L 134.464548 30.12 
L 136.500952 73.097143 
L 138.537355 30.12 
L 140.573758 30.12 
L 142.610161 30.12 
L 144.646565 30.12 
L 146.682968 30.12 
L 148.719371 30.12 
L 150.755774 92.795 
L 152.792177 30.12 
L 154.828581 30.12 
L 156.864984 30.12 
L 158.901387 30.12 
L 160.93779 30.12 
L 162.974194 130.4 
L 165.010597 53.99619 
L 167.047 70.232 
L 169.083403 80.26 
L 171.119806 30.12 
L 173.15621 30.12 
L 175.192613 101.748571 
L 177.229016 30.12 
L 179.265419 30.12 
L 181.301823 155.47 
L 183.338226 48.027143 
L 185.374629 89.108235 
L 187.411032 85.831111 
L 189.447435 41.515455 
L 191.483839 42.655 
L 193.520242 68.689231 
L 195.556645 113.686667 
L 197.593048 130.4 
L 199.629452 30.12 
L 201.665855 30.12 
L 203.702258 30.12 
L 205.738661 30.12 
L 207.775065 30.12 
L 209.811468 30.12 
L 211.847871 121.283636 
L 213.884274 30.12 
L 215.920677 30.12 
L 217.957081 30.12 
L 219.993484 30.12 
L 222.029887 48.027143 
L 224.06629 67.725 
L 226.102694 30.12 
L 228.139097 30.12 
L 230.1755 30.12 
L 232.211903 30.12 
L 234.248306 406.17 
L 236.28471 85.831111 
L 238.321113 30.12 
L 240.357516 30.12 
L 242.393919 30.12 
L 244.430323 155.47 
L 246.466726 30.12 
L 248.503129 30.12 
L 250.539532 30.12 
L 252.575935 30.12 
L 254.612339 30.12 
L 256.648742 30.12 
L 258.685145 30.12 
L 260.721548 30.12 
L 262.757952 30.12 
L 264.794355 30.12 
L 266.830758 30.12 
L 268.867161 30.12 
L 270.903565 42.97641 
L 272.939968 92.795 
L 274.976371 30.12 
L 277.012774 85.831111 
L 279.049177 30.12 
L 281.085581 30.12 
L 283.121984 280.82 
L 285.158387 531.52 
L 287.19479 30.12 
L 289.231194 30.12 
L 291.267597 30.12 
L 293.304 30.12 
L 295.340403 30.12 
L 297.376806 155.47 
L 299.41321 30.12 
L 301.449613 68.689231 
L 303.486016 531.52 
L 305.522419 30.12 
L 307.558823 531.52 
L 309.595226 531.52 
L 311.631629 49.404615 
L 313.668032 30.12 
L 315.704435 43.671351 
L 317.740839 30.12 
L 319.777242 30.12 
L 321.813645 30.12 
L 323.850048 30.12 
L 325.886452 85.831111 
L 327.922855 44.445714 
L 329.959258 30.12 
L 331.995661 56.509474 
L 334.032065 68.689231 
L 336.068468 39.951373 
L 338.104871 30.12 
L 340.141274 30.12 
L 342.177677 30.12 
L 344.214081 45.547692 
L 346.250484 71.903333 
L 348.286887 135.677895 
L 350.32329 531.52 
L 352.359694 233.067619 
L 354.396097 162.067368 
L 356.4325 30.12 
L 358.468903 197.253333 
L 360.505306 145.827692 
L 362.54171 30.12 
L 364.578113 155.47 
L 366.614516 259.02 
L 368.650919 91.266341 
L 370.687323 197.253333 
L 372.723726 531.52 
L 374.760129 68.689231 
L 376.796532 197.253333 
L 378.832935 68.689231 
L 380.869339 130.4 
L 382.905742 89.108235 
L 384.942145 230.68 
L 386.978548 55.19 
L 389.014952 92.795 
L 391.051355 67.260741 
L 393.087758 118.602353 
L 395.124161 280.82 
L 397.160565 531.52 
L 399.196968 101.748571 
L 401.233371 134.578333 
L 403.269774 68.689231 
L 405.306177 155.47 
L 407.342581 155.47 
L 409.378984 82.898947 
L 411.415387 30.12 
L 413.45179 85.831111 
L 415.488194 197.253333 
L 417.524597 130.4 
L 419.561 89.108235 
L 421.597403 126.543077 
L 423.633806 191.284286 
L 425.67021 193.842449 
L 427.706613 139.80125 
L 429.743016 197.253333 
L 431.779419 30.12 
L 433.815823 30.12 
L 435.852226 30.12 
L 437.888629 30.12 
L 439.925032 30.12 
L 441.961435 30.12 
L 443.997839 30.12 
L 446.034242 280.82 
L 448.070645 30.12 
L 450.107048 30.12 
L 452.143452 531.52 
L 454.179855 30.12 
L 456.216258 30.12 
L 458.252661 30.12 
L 460.289065 30.12 
L 462.325468 30.12 
L 464.361871 30.12 
L 466.398274 30.12 
L 468.434677 30.12 
L 470.471081 30.12 
L 472.507484 30.12 
L 474.543887 30.12 
L 476.58029 30.12 
L 478.616694 30.12 
L 480.653097 30.12 
L 482.6895 280.82 
L 484.725903 30.12 
L 486.762306 30.12 
L 488.79871 364.386667 
L 490.835113 30.12 
L 492.871516 30.12 
L 494.907919 197.253333 
L 496.944323 30.12 
L 498.980726 30.12 
L 501.017129 30.12 
L 503.053532 30.12 
L 505.089935 130.4 
L 507.126339 30.12 
L 509.162742 30.12 
L 511.199145 130.4 
L 513.235548 30.12 
L 515.271952 141.542222 
L 517.308355 68.689231 
L 519.344758 30.12 
L 521.381161 155.47 
L 523.417565 130.4 
L 525.453968 30.12 
L 527.490371 30.12 
L 529.526774 30.12 
L 531.563177 130.4 
L 533.599581 30.12 
L 535.635984 30.12 
L 537.672387 30.12 
L 539.70879 30.12 
L 541.745194 30.12 
L 543.781597 30.12 
L 545.818 30.12 
L 547.854403 30.12 
L 549.890806 30.12 
L 551.92721 30.12 
L 553.963613 30.12 
L 556.000016 30.12 
L 558.036419 130.4 
L 560.072823 30.12 
L 562.109226 30.12 
L 564.145629 30.12 
L 566.182032 30.12 
L 568.218435 30.12 
L 570.254839 85.831111 
L 572.291242 30.12 
L 574.327645 30.12 
L 576.364048 30.12 
L 578.400452 197.253333 
L 580.436855 30.12 
L 582.473258 30.12 
L 584.509661 101.748571 
L 586.546065 107.258462 
L 588.582468 30.12 
L 590.618871 30.12 
L 592.655274 30.12 
L 594.691677 30.12 
L 596.728081 30.12 
L 598.764484 30.12 
L 600.800887 364.386667 
L 602.83729 197.253333 
L 604.873694 280.82 
L 606.910097 197.253333 
L 608.9465 30.12 
L 610.982903 30.12 
L 613.019306 30.12 
L 615.05571 92.795 
L 617.092113 30.12 
L 619.128516 30.12 
L 621.164919 30.12 
L 623.201323 30.12 
L 625.237726 130.4 
L 627.274129 30.12 
L 629.310532 30.12 
L 631.346935 30.12 
L 633.383339 30.12 
L 635.419742 30.12 
L 637.456145 30.12 
L 639.492548 30.12 
L 641.528952 30.12 
L 643.565355 130.4 
L 645.601758 30.12 
L 647.638161 280.82 
L 649.674565 30.12 
L 651.710968 89.108235 
L 653.747371 30.12 
L 655.783774 30.12 
L 657.820177 30.12 
L 659.856581 30.12 
L 661.892984 30.12 
L 663.929387 30.12 
L 665.96579 92.795 
L 668.002194 30.12 
L 670.038597 30.12 
L 672.075 92.795 
L 672.075 30.12 
L 672.075 30.12 
L 670.038597 30.12 
L 668.002194 30.12 
L 665.96579 30.12 
L 663.929387 30.12 
L 661.892984 30.12 
L 659.856581 30.12 
L 657.820177 30.12 
L 655.783774 30.12 
L 653.747371 30.12 
L 651.710968 30.12 
L 649.674565 30.12 
L 647.638161 30.12 
L 645.601758 30.12 
L 643.565355 30.12 
L 641.528952 30.12 
L 639.492548 30.12 
L 637.456145 30.12 
L 635.419742 30.12 
L 633.383339 30.12 
L 631.346935 30.12 
L 629.310532 30.12 
L 627.274129 30.12 
L 625.237726 30.12 
L 623.201323 30.12 
L 621.164919 30.12 
L 619.128516 30.12 
L 617.092113 30.12 
L 615.05571 30.12 
L 613.019306 30.12 
L 610.982903 30.12 
L 608.9465 30.12 
L 606.910097 30.12 
L 604.873694 30.12 
L 602.83729 30.12 
L 600.800887 30.12 
L 598.764484 30.12 
L 596.728081 30.12 
L 594.691677 30.12 
L 592.655274 30.12 
L 590.618871 30.12 
L 588.582468 30.12 
L 586.546065 30.12 
L 584.509661 30.12 
L 582.473258 30.12 
L 580.436855 30.12 
L 578.400452 30.12 
L 576.364048 30.12 
L 574.327645 30.12 
L 572.291242 30.12 
L 570.254839 30.12 
L 568.218435 30.12 
L 566.182032 30.12 
L 564.145629 30.12 
L 562.109226 30.12 
L 560.072823 30.12 
L 558.036419 30.12 
L 556.000016 30.12 
L 553.963613 30.12 
L 551.92721 30.12 
L 549.890806 30.12 
L 547.854403 30.12 
L 545.818 30.12 
L 543.781597 30.12 
L 541.745194 30.12 
L 539.70879 30.12 
L 537.672387 30.12 
L 535.635984 30.12 
L 533.599581 30.12 
L 531.563177 30.12 
L 529.526774 30.12 
L 527.490371 30.12 
L 525.453968 30.12 
L 523.417565 30.12 
L 521.381161 30.12 
L 519.344758 30.12 
L 517.308355 30.12 
L 515.271952 30.12 
L 513.235548 30.12 
L 511.199145 30.12 
L 509.162742 30.12 
L 507.126339 30.12 
L 505.089935 30.12 
L 503.053532 30.12 
L 501.017129 30.12 
L 498.980726 30.12 
L 496.944323 30.12 
L 494.907919 30.12 
L 492.871516 30.12 
L 490.835113 30.12 
L 488.79871 30.12 
L 486.762306 30.12 
L 484.725903 30.12 
L 482.6895 30.12 
L 480.653097 30.12 
L 478.616694 30.12 
L 476.58029 30.12 
L 474.543887 30.12 
L 472.507484 30.12 
L 470.471081 30.12 
L 468.434677 30.12 
L 466.398274 30.12 
L 464.361871 30.12 
L 462.325468 30.12 
L 460.289065 30.12 
L 458.252661 30.12 
L 456.216258 30.12 
L 454.179855 30.12 
L 452.143452 30.12 
L 450.107048 30.12 
L 448.070645 30.12 
L 446.034242 30.12 
L 443.997839 30.12 
L 441.961435 30.12 
L 439.925032 30.12 
L 437.888629 30.12 
L 435.852226 30.12 
L 433.815823 30.12 
L 431.779419 30.12 
L 429.743016 30.12 
L 427.706613 30.12 
L 425.67021 30.12 
L 423.633806 30.12 
L 421.597403 30.12 
L 419.561 30.12 
L 417.524597 30.12 
L 415.488194 30.12 
L 413.45179 30.12 
L 411.415387 30.12 
L 409.378984 30.12 
L 407.342581 30.12 
L 405.306177 30.12 
L 403.269774 30.12 
L 401.233371 30.12 
L 399.196968 30.12 
L 397.160565 30.12 
L 395.124161 30.12 
L 393.087758 30.12 
L 391.051355 30.12 
L 389.014952 30.12 
L 386.978548 30.12 
L 384.942145 30.12 
L 382.905742 30.12 
L 380.869339 30.12 
L 378.832935 30.12 
L 376.796532 30.12 
L 374.760129 30.12 
L 372.723726 30.12 
L 370.687323 30.12 
L 368.650919 30.12 
L 366.614516 30.12 
L 364.578113 30.12 
L 362.54171 30.12 
L 360.505306 30.12 
L 358.468903 30.12 
L 356.4325 30.12 
L 354.396097 30.12 
L 352.359694 30.12 
L 350.32329 30.12 
L 348.286887 30.12 
L 346.250484 30.12 
L 344.214081 30.12 
L 342.177677 30.12 
L 340.141274 30.12 
L 338.104871 30.12 
L 336.068468 30.12 
L 334.032065 30.12 
L 331.995661 30.12 
L 329.959258 30.12 
L 327.922855 30.12 
L 325.886452 30.12 
L 323.850048 30.12 
L 321.813645 30.12 
L 319.777242 30.12 
L 317.740839 30.12 
L 315.704435 30.12 
L 313.668032 30.12 
L 311.631629 30.12 
L 309.595226 30.12 
L 307.558823 30.12 
L 305.522419 30.12 
L 303.486016 30.12 
L 301.449613 30.12 
L 299.41321 30.12 
L 297.376806 30.12 
L 295.340403 30.12 
L 293.304 30.12 
L 291.267597 30.12 
L 289.231194 30.12 
L 287.19479 30.12 
L 285.158387 30.12 
L 283.121984 30.12 
L 281.085581 30.12 
L 279.049177 30.12 
L 277.012774 30.12 
L 274.976371 30.12 
L 272.939968 30.12 
L 270.903565 30.12 
L 268.867161 30.12 
L 266.830758 30.12 
L 264.794355 30.12 
L 262.757952 30.12 
L 260.721548 30.12 
L 258.685145 30.12 
L 256.648742 30.12 
L 254.612339 30.12 
L 252.575935 30.12 
L 250.539532 30.12 
L 248.503129 30.12 
L 246.466726 30.12 
L 244.430323 30.12 
L 242.393919 30.12 
L 240.357516 30.12 
L 238.321113 30.12 
L 236.28471 30.12 
L 234.248306 30.12 
L 232.211903 30.12 
L 230.1755 30.12 
L 228.139097 30.12 
L 226.102694 30.12 
L 224.06629 30.12 
L 222.029887 30.12 
L 219.993484 30.12 
L 217.957081 30.12 
L 215.920677 30.12 
L 213.884274 30.12 
L 211.847871 30.12 
L 209.811468 30.12 
L 207.775065 30.12 
L 205.738661 30.12 
L 203.702258 30.12 
L 201.665855 30.12 
L 199.629452 30.12 
L 197.593048 30.12 
L 195.556645 30.12 
L 193.520242 30.12 
L 191.483839 30.12 
L 189.447435 30.12 
L 187.411032 30.12 
L 185.374629 30.12 
L 183.338226 30.12 
L 181.301823 30.12 
L 179.265419 30.12 
L 177.229016 30.12 
L 175.192613 30.12 
L 173.15621 30.12 
L 171.119806 30.12 
L 169.083403 30.12 
L 167.047 30.12 
L 165.010597 30.12 
L 162.974194 80.26 
L 160.93779 30.12 
L 158.901387 30.12 
L 156.864984 30.12 
L 154.828581 30.12 
L 152.792177 30.12 
L 150.755774 30.12 
L 148.719371 30.12 
L 146.682968 30.12 
L 144.646565 30.12 
L 142.610161 30.12 
L 140.573758 30.12 
L 138.537355 30.12 
L 136.500952 30.12 
L 134.464548 30.12 
L 132.428145 30.12 
L 130.391742 30.12 
L 128.355339 30.12 
L 126.318935 30.12 
L 124.282532 30.12 
L 122.246129 30.12 
L 120.209726 30.12 
L 118.173323 30.12 
L 116.136919 30.12 
L 114.100516 30.12 
L 112.064113 30.12 
L 110.02771 30.12 
L 107.991306 30.12 
L 105.954903 30.12 
L 103.9185 30.12 
L 101.882097 30.12 
L 99.845694 30.12 
L 97.80929 30.12 
L 95.772887 30.12 
L 93.736484 30.12 
L 91.700081 30.12 
L 89.663677 101.748571 
L 87.627274 30.12 
L 85.590871 30.12 
L 83.554468 30.12 
L 81.518065 30.12 
L 79.481661 30.12 
L 77.445258 30.12 
L 75.408855 30.12 
L 73.372452 30.12 
L 71.336048 30.12 
L 69.299645 30.12 
L 67.263242 30.12 
L 65.226839 30.12 
L 63.190435 30.12 
L 61.154032 30.12 
L 59.117629 30.12 
L 57.081226 30.12 
L 55.044823 30.12 
L 53.008419 30.12 
L 50.972016 30.12 
L 48.935613 30.12 
L 46.89921 30.12 
L 44.862806 30.12 
L 42.826403 30.12 
L 40.79 30.12 
z
" clip-path="url(#p23638eb053)" style="fill: #e8bc60"/>
   </g>
   <g id="FillBetweenPolyCollection_4">
    <path d="M 40.79 30.12 
L 40.79 30.12 
L 42.826403 30.12 
L 44.862806 30.12 
L 46.89921 30.12 
L 48.935613 30.12 
L 50.972016 30.12 
L 53.008419 30.12 
L 55.044823 30.12 
L 57.081226 30.12 
L 59.117629 30.12 
L 61.154032 30.12 
L 63.190435 30.12 
L 65.226839 30.12 
L 67.263242 30.12 
L 69.299645 30.12 
L 71.336048 30.12 
L 73.372452 30.12 
L 75.408855 30.12 
L 77.445258 30.12 
L 79.481661 30.12 
L 81.518065 30.12 
L 83.554468 30.12 
L 85.590871 30.12 
L 87.627274 30.12 
L 89.663677 101.748571 
L 91.700081 30.12 
L 93.736484 30.12 
L 95.772887 30.12 
L 97.80929 30.12 
L 99.845694 30.12 
L 101.882097 30.12 
L 103.9185 30.12 
L 105.954903 30.12 
L 107.991306 30.12 
L 110.02771 30.12 
L 112.064113 30.12 
L 114.100516 30.12 
L 116.136919 30.12 
L 118.173323 30.12 
L 120.209726 30.12 
L 122.246129 30.12 
L 124.282532 30.12 
L 126.318935 30.12 
L 128.355339 30.12 
L 130.391742 30.12 
L 132.428145 30.12 
L 134.464548 30.12 
L 136.500952 30.12 
L 138.537355 30.12 
L 140.573758 30.12 
L 142.610161 30.12 
L 144.646565 30.12 
L 146.682968 30.12 
L 148.719371 30.12 
L 150.755774 30.12 
L 152.792177 30.12 
L 154.828581 30.12 
L 156.864984 30.12 
L 158.901387 30.12 
L 160.93779 30.12 
L 162.974194 80.26 
L 165.010597 30.12 
L 167.047 30.12 
L 169.083403 30.12 
L 171.119806 30.12 
L 173.15621 30.12 
L 175.192613 30.12 
L 177.229016 30.12 
L 179.265419 30.12 
L 181.301823 30.12 
L 183.338226 30.12 
L 185.374629 30.12 
L 187.411032 30.12 
L 189.447435 30.12 
L 191.483839 30.12 
L 193.520242 30.12 
L 195.556645 30.12 
L 197.593048 30.12 
L 199.629452 30.12 
L 201.665855 30.12 
L 203.702258 30.12 
L 205.738661 30.12 
L 207.775065 30.12 
L 209.811468 30.12 
L 211.847871 30.12 
L 213.884274 30.12 
L 215.920677 30.12 
L 217.957081 30.12 
L 219.993484 30.12 
L 222.029887 30.12 
L 224.06629 30.12 
L 226.102694 30.12 
L 228.139097 30.12 
L 230.1755 30.12 
L 232.211903 30.12 
L 234.248306 30.12 
L 236.28471 30.12 
L 238.321113 30.12 
L 240.357516 30.12 
L 242.393919 30.12 
L 244.430323 30.12 
L 246.466726 30.12 
L 248.503129 30.12 
L 250.539532 30.12 
L 252.575935 30.12 
L 254.612339 30.12 
L 256.648742 30.12 
L 258.685145 30.12 
L 260.721548 30.12 
L 262.757952 30.12 
L 264.794355 30.12 
L 266.830758 30.12 
L 268.867161 30.12 
L 270.903565 30.12 
L 272.939968 30.12 
L 274.976371 30.12 
L 277.012774 30.12 
L 279.049177 30.12 
L 281.085581 30.12 
L 283.121984 30.12 
L 285.158387 30.12 
L 287.19479 30.12 
L 289.231194 30.12 
L 291.267597 30.12 
L 293.304 30.12 
L 295.340403 30.12 
L 297.376806 30.12 
L 299.41321 30.12 
L 301.449613 30.12 
L 303.486016 30.12 
L 305.522419 30.12 
L 307.558823 30.12 
L 309.595226 30.12 
L 311.631629 30.12 
L 313.668032 30.12 
L 315.704435 30.12 
L 317.740839 30.12 
L 319.777242 30.12 
L 321.813645 30.12 
L 323.850048 30.12 
L 325.886452 30.12 
L 327.922855 30.12 
L 329.959258 30.12 
L 331.995661 30.12 
L 334.032065 30.12 
L 336.068468 30.12 
L 338.104871 30.12 
L 340.141274 30.12 
L 342.177677 30.12 
L 344.214081 30.12 
L 346.250484 30.12 
L 348.286887 30.12 
L 350.32329 30.12 
L 352.359694 30.12 
L 354.396097 30.12 
L 356.4325 30.12 
L 358.468903 30.12 
L 360.505306 30.12 
L 362.54171 30.12 
L 364.578113 30.12 
L 366.614516 30.12 
L 368.650919 30.12 
L 370.687323 30.12 
L 372.723726 30.12 
L 374.760129 30.12 
L 376.796532 30.12 
L 378.832935 30.12 
L 380.869339 30.12 
L 382.905742 30.12 
L 384.942145 30.12 
L 386.978548 30.12 
L 389.014952 30.12 
L 391.051355 30.12 
L 393.087758 30.12 
L 395.124161 30.12 
L 397.160565 30.12 
L 399.196968 30.12 
L 401.233371 30.12 
L 403.269774 30.12 
L 405.306177 30.12 
L 407.342581 30.12 
L 409.378984 30.12 
L 411.415387 30.12 
L 413.45179 30.12 
L 415.488194 30.12 
L 417.524597 30.12 
L 419.561 30.12 
L 421.597403 30.12 
L 423.633806 30.12 
L 425.67021 30.12 
L 427.706613 30.12 
L 429.743016 30.12 
L 431.779419 30.12 
L 433.815823 30.12 
L 435.852226 30.12 
L 437.888629 30.12 
L 439.925032 30.12 
L 441.961435 30.12 
L 443.997839 30.12 
L 446.034242 30.12 
L 448.070645 30.12 
L 450.107048 30.12 
L 452.143452 30.12 
L 454.179855 30.12 
L 456.216258 30.12 
L 458.252661 30.12 
L 460.289065 30.12 
L 462.325468 30.12 
L 464.361871 30.12 
L 466.398274 30.12 
L 468.434677 30.12 
L 470.471081 30.12 
L 472.507484 30.12 
L 474.543887 30.12 
L 476.58029 30.12 
L 478.616694 30.12 
L 480.653097 30.12 
L 482.6895 30.12 
L 484.725903 30.12 
L 486.762306 30.12 
L 488.79871 30.12 
L 490.835113 30.12 
L 492.871516 30.12 
L 494.907919 30.12 
L 496.944323 30.12 
L 498.980726 30.12 
L 501.017129 30.12 
L 503.053532 30.12 
L 505.089935 30.12 
L 507.126339 30.12 
L 509.162742 30.12 
L 511.199145 30.12 
L 513.235548 30.12 
L 515.271952 30.12 
L 517.308355 30.12 
L 519.344758 30.12 
L 521.381161 30.12 
L 523.417565 30.12 
L 525.453968 30.12 
L 527.490371 30.12 
L 529.526774 30.12 
L 531.563177 30.12 
L 533.599581 30.12 
L 535.635984 30.12 
L 537.672387 30.12 
L 539.70879 30.12 
L 541.745194 30.12 
L 543.781597 30.12 
L 545.818 30.12 
L 547.854403 30.12 
L 549.890806 30.12 
L 551.92721 30.12 
L 553.963613 30.12 
L 556.000016 30.12 
L 558.036419 30.12 
L 560.072823 30.12 
L 562.109226 30.12 
L 564.145629 30.12 
L 566.182032 30.12 
L 568.218435 30.12 
L 570.254839 30.12 
L 572.291242 30.12 
L 574.327645 30.12 
L 576.364048 30.12 
L 578.400452 30.12 
L 580.436855 30.12 
L 582.473258 30.12 
L 584.509661 30.12 
L 586.546065 30.12 
L 588.582468 30.12 
L 590.618871 30.12 
L 592.655274 30.12 
L 594.691677 30.12 
L 596.728081 30.12 
L 598.764484 30.12 
L 600.800887 30.12 
L 602.83729 30.12 
L 604.873694 30.12 
L 606.910097 30.12 
L 608.9465 30.12 
L 610.982903 30.12 
L 613.019306 30.12 
L 615.05571 30.12 
L 617.092113 30.12 
L 619.128516 30.12 
L 621.164919 30.12 
L 623.201323 30.12 
L 625.237726 30.12 
L 627.274129 30.12 
L 629.310532 30.12 
L 631.346935 30.12 
L 633.383339 30.12 
L 635.419742 30.12 
L 637.456145 30.12 
L 639.492548 30.12 
L 641.528952 30.12 
L 643.565355 30.12 
L 645.601758 30.12 
L 647.638161 30.12 
L 649.674565 30.12 
L 651.710968 30.12 
L 653.747371 30.12 
L 655.783774 30.12 
L 657.820177 30.12 
L 659.856581 30.12 
L 661.892984 30.12 
L 663.929387 30.12 
L 665.96579 30.12 
L 668.002194 30.12 
L 670.038597 30.12 
L 672.075 30.12 
L 672.075 30.12 
L 672.075 30.12 
L 670.038597 30.12 
L 668.002194 30.12 
L 665.96579 30.12 
L 663.929387 30.12 
L 661.892984 30.12 
L 659.856581 30.12 
L 657.820177 30.12 
L 655.783774 30.12 
L 653.747371 30.12 
L 651.710968 30.12 
L 649.674565 30.12 
L 647.638161 30.12 
L 645.601758 30.12 
L 643.565355 30.12 
L 641.528952 30.12 
L 639.492548 30.12 
L 637.456145 30.12 
L 635.419742 30.12 
L 633.383339 30.12 
L 631.346935 30.12 
L 629.310532 30.12 
L 627.274129 30.12 
L 625.237726 30.12 
L 623.201323 30.12 
L 621.164919 30.12 
L 619.128516 30.12 
L 617.092113 30.12 
L 615.05571 30.12 
L 613.019306 30.12 
L 610.982903 30.12 
L 608.9465 30.12 
L 606.910097 30.12 
L 604.873694 30.12 
L 602.83729 30.12 
L 600.800887 30.12 
L 598.764484 30.12 
L 596.728081 30.12 
L 594.691677 30.12 
L 592.655274 30.12 
L 590.618871 30.12 
L 588.582468 30.12 
L 586.546065 30.12 
L 584.509661 30.12 
L 582.473258 30.12 
L 580.436855 30.12 
L 578.400452 30.12 
L 576.364048 30.12 
L 574.327645 30.12 
L 572.291242 30.12 
L 570.254839 30.12 
L 568.218435 30.12 
L 566.182032 30.12 
L 564.145629 30.12 
L 562.109226 30.12 
L 560.072823 30.12 
L 558.036419 30.12 
L 556.000016 30.12 
L 553.963613 30.12 
L 551.92721 30.12 
L 549.890806 30.12 
L 547.854403 30.12 
L 545.818 30.12 
L 543.781597 30.12 
L 541.745194 30.12 
L 539.70879 30.12 
L 537.672387 30.12 
L 535.635984 30.12 
L 533.599581 30.12 
L 531.563177 30.12 
L 529.526774 30.12 
L 527.490371 30.12 
L 525.453968 30.12 
L 523.417565 30.12 
L 521.381161 30.12 
L 519.344758 30.12 
L 517.308355 30.12 
L 515.271952 30.12 
L 513.235548 30.12 
L 511.199145 30.12 
L 509.162742 30.12 
L 507.126339 30.12 
L 505.089935 30.12 
L 503.053532 30.12 
L 501.017129 30.12 
L 498.980726 30.12 
L 496.944323 30.12 
L 494.907919 30.12 
L 492.871516 30.12 
L 490.835113 30.12 
L 488.79871 30.12 
L 486.762306 30.12 
L 484.725903 30.12 
L 482.6895 30.12 
L 480.653097 30.12 
L 478.616694 30.12 
L 476.58029 30.12 
L 474.543887 30.12 
L 472.507484 30.12 
L 470.471081 30.12 
L 468.434677 30.12 
L 466.398274 30.12 
L 464.361871 30.12 
L 462.325468 30.12 
L 460.289065 30.12 
L 458.252661 30.12 
L 456.216258 30.12 
L 454.179855 30.12 
L 452.143452 30.12 
L 450.107048 30.12 
L 448.070645 30.12 
L 446.034242 30.12 
L 443.997839 30.12 
L 441.961435 30.12 
L 439.925032 30.12 
L 437.888629 30.12 
L 435.852226 30.12 
L 433.815823 30.12 
L 431.779419 30.12 
L 429.743016 30.12 
L 427.706613 30.12 
L 425.67021 30.12 
L 423.633806 30.12 
L 421.597403 30.12 
L 419.561 30.12 
L 417.524597 30.12 
L 415.488194 30.12 
L 413.45179 30.12 
L 411.415387 30.12 
L 409.378984 30.12 
L 407.342581 30.12 
L 405.306177 30.12 
L 403.269774 30.12 
L 401.233371 30.12 
L 399.196968 30.12 
L 397.160565 30.12 
L 395.124161 30.12 
L 393.087758 30.12 
L 391.051355 30.12 
L 389.014952 30.12 
L 386.978548 30.12 
L 384.942145 30.12 
L 382.905742 30.12 
L 380.869339 30.12 
L 378.832935 30.12 
L 376.796532 30.12 
L 374.760129 30.12 
L 372.723726 30.12 
L 370.687323 30.12 
L 368.650919 30.12 
L 366.614516 30.12 
L 364.578113 30.12 
L 362.54171 30.12 
L 360.505306 30.12 
L 358.468903 30.12 
L 356.4325 30.12 
L 354.396097 30.12 
L 352.359694 30.12 
L 350.32329 30.12 
L 348.286887 30.12 
L 346.250484 30.12 
L 344.214081 30.12 
L 342.177677 30.12 
L 340.141274 30.12 
L 338.104871 30.12 
L 336.068468 30.12 
L 334.032065 30.12 
L 331.995661 30.12 
L 329.959258 30.12 
L 327.922855 30.12 
L 325.886452 30.12 
L 323.850048 30.12 
L 321.813645 30.12 
L 319.777242 30.12 
L 317.740839 30.12 
L 315.704435 30.12 
L 313.668032 30.12 
L 311.631629 30.12 
L 309.595226 30.12 
L 307.558823 30.12 
L 305.522419 30.12 
L 303.486016 30.12 
L 301.449613 30.12 
L 299.41321 30.12 
L 297.376806 30.12 
L 295.340403 30.12 
L 293.304 30.12 
L 291.267597 30.12 
L 289.231194 30.12 
L 287.19479 30.12 
L 285.158387 30.12 
L 283.121984 30.12 
L 281.085581 30.12 
L 279.049177 30.12 
L 277.012774 30.12 
L 274.976371 30.12 
L 272.939968 30.12 
L 270.903565 30.12 
L 268.867161 30.12 
L 266.830758 30.12 
L 264.794355 30.12 
L 262.757952 30.12 
L 260.721548 30.12 
L 258.685145 30.12 
L 256.648742 30.12 
L 254.612339 30.12 
L 252.575935 30.12 
L 250.539532 30.12 
L 248.503129 30.12 
L 246.466726 30.12 
L 244.430323 30.12 
L 242.393919 30.12 
L 240.357516 30.12 
L 238.321113 30.12 
L 236.28471 30.12 
L 234.248306 30.12 
L 232.211903 30.12 
L 230.1755 30.12 
L 228.139097 30.12 
L 226.102694 30.12 
L 224.06629 30.12 
L 222.029887 30.12 
L 219.993484 30.12 
L 217.957081 30.12 
L 215.920677 30.12 
L 213.884274 30.12 
L 211.847871 30.12 
L 209.811468 30.12 
L 207.775065 30.12 
L 205.738661 30.12 
L 203.702258 30.12 
L 201.665855 30.12 
L 199.629452 30.12 
L 197.593048 30.12 
L 195.556645 30.12 
L 193.520242 30.12 
L 191.483839 30.12 
L 189.447435 30.12 
L 187.411032 30.12 
L 185.374629 30.12 
L 183.338226 30.12 
L 181.301823 30.12 
L 179.265419 30.12 
L 177.229016 30.12 
L 175.192613 30.12 
L 173.15621 30.12 
L 171.119806 30.12 
L 169.083403 30.12 
L 167.047 30.12 
L 165.010597 30.12 
L 162.974194 30.12 
L 160.93779 30.12 
L 158.901387 30.12 
L 156.864984 30.12 
L 154.828581 30.12 
L 152.792177 30.12 
L 150.755774 30.12 
L 148.719371 30.12 
L 146.682968 30.12 
L 144.646565 30.12 
L 142.610161 30.12 
L 140.573758 30.12 
L 138.537355 30.12 
L 136.500952 30.12 
L 134.464548 30.12 
L 132.428145 30.12 
L 130.391742 30.12 
L 128.355339 30.12 
L 126.318935 30.12 
L 124.282532 30.12 
L 122.246129 30.12 
L 120.209726 30.12 
L 118.173323 30.12 
L 116.136919 30.12 
L 114.100516 30.12 
L 112.064113 30.12 
L 110.02771 30.12 
L 107.991306 30.12 
L 105.954903 30.12 
L 103.9185 30.12 
L 101.882097 30.12 
L 99.845694 30.12 
L 97.80929 30.12 
L 95.772887 30.12 
L 93.736484 30.12 
L 91.700081 30.12 
L 89.663677 30.12 
L 87.627274 30.12 
L 85.590871 30.12 
L 83.554468 30.12 
L 81.518065 30.12 
L 79.481661 30.12 
L 77.445258 30.12 
L 75.408855 30.12 
L 73.372452 30.12 
L 71.336048 30.12 
L 69.299645 30.12 
L 67.263242 30.12 
L 65.226839 30.12 
L 63.190435 30.12 
L 61.154032 30.12 
L 59.117629 30.12 
L 57.081226 30.12 
L 55.044823 30.12 
L 53.008419 30.12 
L 50.972016 30.12 
L 48.935613 30.12 
L 46.89921 30.12 
L 44.862806 30.12 
L 42.826403 30.12 
L 40.79 30.12 
z
" clip-path="url(#p23638eb053)" style="fill: #8d5993"/>
   </g>
   <g id="matplotlib.axis_1">
    <g id="xtick_1">
     <g id="line2d_1">
      <path d="M 140.573758 531.52 
L 140.573758 30.12 
" clip-path="url(#p23638eb053)" style="fill: none; stroke-dasharray: 2.96,1.28; stroke-dashoffset: 0; stroke: #b0b0b0; stroke-opacity: 0.5; stroke-width: 0.8"/>
     </g>
     <g id="line2d_2">
      <defs>
       <path id="mac5fb3efcf" d="M 0 0 
L 0 3.5 
" style="stroke: #000000; stroke-width: 0.8"/>
      </defs>
      <g>
       <use xlink:href="#mac5fb3efcf" x="140.573758" y="531.52" style="stroke: #000000; stroke-width: 0.8"/>
      </g>
     </g>
     <g id="text_1">
      <!-- 50 -->
      <g transform="translate(134.211258 546.118437) scale(0.1 -0.1)">
       <defs>
        <path id="DejaVuSans-35" d="M 691 4666 
L 3169 4666 
L 3169 4134 
L 1269 4134 
L 1269 2991 
Q 1406 3038 1543 3061 
Q 1681 3084 1819 3084 
Q 2600 3084 3056 2656 
Q 3513 2228 3513 1497 
Q 3513 744 3044 326 
Q 2575 -91 1722 -91 
Q 1428 -91 1123 -41 
Q 819 9 494 109 
L 494 744 
Q 775 591 1075 516 
Q 1375 441 1709 441 
Q 2250 441 2565 725 
Q 2881 1009 2881 1497 
Q 2881 1984 2565 2268 
Q 2250 2553 1709 2553 
Q 1456 2553 1204 2497 
Q 953 2441 691 2322 
L 691 4666 
z
" transform="scale(0.015625)"/>
        <path id="DejaVuSans-30" d="M 2034 4250 
Q 1547 4250 1301 3770 
Q 1056 3291 1056 2328 
Q 1056 1369 1301 889 
Q 1547 409 2034 409 
Q 2525 409 2770 889 
Q 3016 1369 3016 2328 
Q 3016 3291 2770 3770 
Q 2525 4250 2034 4250 
z
M 2034 4750 
Q 2819 4750 3233 4129 
Q 3647 3509 3647 2328 
Q 3647 1150 3233 529 
Q 2819 -91 2034 -91 
Q 1250 -91 836 529 
Q 422 1150 422 2328 
Q 422 3509 836 4129 
Q 1250 4750 2034 4750 
z
" transform="scale(0.015625)"/>
       </defs>
       <use xlink:href="#DejaVuSans-35"/>
       <use xlink:href="#DejaVuSans-30" transform="translate(63.623047 0)"/>
      </g>
     </g>
    </g>
    <g id="xtick_2">
     <g id="line2d_3">
      <path d="M 242.393919 531.52 
L 242.393919 30.12 
" clip-path="url(#p23638eb053)" style="fill: none; stroke-dasharray: 2.96,1.28; stroke-dashoffset: 0; stroke: #b0b0b0; stroke-opacity: 0.5; stroke-width: 0.8"/>
     </g>
     <g id="line2d_4">
      <g>
       <use xlink:href="#mac5fb3efcf" x="242.393919" y="531.52" style="stroke: #000000; stroke-width: 0.8"/>
      </g>
     </g>
     <g id="text_2">
      <!-- 100 -->
      <g transform="translate(232.850169 546.118437) scale(0.1 -0.1)">
       <defs>
        <path id="DejaVuSans-31" d="M 794 531 
L 1825 531 
L 1825 4091 
L 703 3866 
L 703 4441 
L 1819 4666 
L 2450 4666 
L 2450 531 
L 3481 531 
L 3481 0 
L 794 0 
L 794 531 
z
" transform="scale(0.015625)"/>
       </defs>
       <use xlink:href="#DejaVuSans-31"/>
       <use xlink:href="#DejaVuSans-30" transform="translate(63.623047 0)"/>
       <use xlink:href="#DejaVuSans-30" transform="translate(127.246094 0)"/>
      </g>
     </g>
    </g>
    <g id="xtick_3">
     <g id="line2d_5">
      <path d="M 344.214081 531.52 
L 344.214081 30.12 
" clip-path="url(#p23638eb053)" style="fill: none; stroke-dasharray: 2.96,1.28; stroke-dashoffset: 0; stroke: #b0b0b0; stroke-opacity: 0.5; stroke-width: 0.8"/>
     </g>
     <g id="line2d_6">
      <g>
       <use xlink:href="#mac5fb3efcf" x="344.214081" y="531.52" style="stroke: #000000; stroke-width: 0.8"/>
      </g>
     </g>
     <g id="text_3">
      <!-- 150 -->
      <g transform="translate(334.670331 546.118437) scale(0.1 -0.1)">
       <use xlink:href="#DejaVuSans-31"/>
       <use xlink:href="#DejaVuSans-35" transform="translate(63.623047 0)"/>
       <use xlink:href="#DejaVuSans-30" transform="translate(127.246094 0)"/>
      </g>
     </g>
    </g>
    <g id="xtick_4">
     <g id="line2d_7">
      <path d="M 446.034242 531.52 
L 446.034242 30.12 
" clip-path="url(#p23638eb053)" style="fill: none; stroke-dasharray: 2.96,1.28; stroke-dashoffset: 0; stroke: #b0b0b0; stroke-opacity: 0.5; stroke-width: 0.8"/>
     </g>
     <g id="line2d_8">
      <g>
       <use xlink:href="#mac5fb3efcf" x="446.034242" y="531.52" style="stroke: #000000; stroke-width: 0.8"/>
      </g>
     </g>
     <g id="text_4">
      <!-- 200 -->
      <g transform="translate(436.490492 546.118437) scale(0.1 -0.1)">
       <defs>
        <path id="DejaVuSans-32" d="M 1228 531 
L 3431 531 
L 3431 0 
L 469 0 
L 469 531 
Q 828 903 1448 1529 
Q 2069 2156 2228 2338 
Q 2531 2678 2651 2914 
Q 2772 3150 2772 3378 
Q 2772 3750 2511 3984 
Q 2250 4219 1831 4219 
Q 1534 4219 1204 4116 
Q 875 4013 500 3803 
L 500 4441 
Q 881 4594 1212 4672 
Q 1544 4750 1819 4750 
Q 2544 4750 2975 4387 
Q 3406 4025 3406 3419 
Q 3406 3131 3298 2873 
Q 3191 2616 2906 2266 
Q 2828 2175 2409 1742 
Q 1991 1309 1228 531 
z
" transform="scale(0.015625)"/>
       </defs>
       <use xlink:href="#DejaVuSans-32"/>
       <use xlink:href="#DejaVuSans-30" transform="translate(63.623047 0)"/>
       <use xlink:href="#DejaVuSans-30" transform="translate(127.246094 0)"/>
      </g>
     </g>
    </g>
    <g id="xtick_5">
     <g id="line2d_9">
      <path d="M 547.854403 531.52 
L 547.854403 30.12 
" clip-path="url(#p23638eb053)" style="fill: none; stroke-dasharray: 2.96,1.28; stroke-dashoffset: 0; stroke: #b0b0b0; stroke-opacity: 0.5; stroke-width: 0.8"/>
     </g>
     <g id="line2d_10">
      <g>
       <use xlink:href="#mac5fb3efcf" x="547.854403" y="531.52" style="stroke: #000000; stroke-width: 0.8"/>
      </g>
     </g>
     <g id="text_5">
      <!-- 250 -->
      <g transform="translate(538.310653 546.118437) scale(0.1 -0.1)">
       <use xlink:href="#DejaVuSans-32"/>
       <use xlink:href="#DejaVuSans-35" transform="translate(63.623047 0)"/>
       <use xlink:href="#DejaVuSans-30" transform="translate(127.246094 0)"/>
      </g>
     </g>
    </g>
    <g id="xtick_6">
     <g id="line2d_11">
      <path d="M 649.674565 531.52 
L 649.674565 30.12 
" clip-path="url(#p23638eb053)" style="fill: none; stroke-dasharray: 2.96,1.28; stroke-dashoffset: 0; stroke: #b0b0b0; stroke-opacity: 0.5; stroke-width: 0.8"/>
     </g>
     <g id="line2d_12">
      <g>
       <use xlink:href="#mac5fb3efcf" x="649.674565" y="531.52" style="stroke: #000000; stroke-width: 0.8"/>
      </g>
     </g>
     <g id="text_6">
      <!-- 300 -->
      <g transform="translate(640.130815 546.118437) scale(0.1 -0.1)">
       <defs>
        <path id="DejaVuSans-33" d="M 2597 2516 
Q 3050 2419 3304 2112 
Q 3559 1806 3559 1356 
Q 3559 666 3084 287 
Q 2609 -91 1734 -91 
Q 1441 -91 1130 -33 
Q 819 25 488 141 
L 488 750 
Q 750 597 1062 519 
Q 1375 441 1716 441 
Q 2309 441 2620 675 
Q 2931 909 2931 1356 
Q 2931 1769 2642 2001 
Q 2353 2234 1838 2234 
L 1294 2234 
L 1294 2753 
L 1863 2753 
Q 2328 2753 2575 2939 
Q 2822 3125 2822 3475 
Q 2822 3834 2567 4026 
Q 2313 4219 1838 4219 
Q 1578 4219 1281 4162 
Q 984 4106 628 3988 
L 628 4550 
Q 988 4650 1302 4700 
Q 1616 4750 1894 4750 
Q 2613 4750 3031 4423 
Q 3450 4097 3450 3541 
Q 3450 3153 3228 2886 
Q 3006 2619 2597 2516 
z
" transform="scale(0.015625)"/>
       </defs>
       <use xlink:href="#DejaVuSans-33"/>
       <use xlink:href="#DejaVuSans-30" transform="translate(63.623047 0)"/>
       <use xlink:href="#DejaVuSans-30" transform="translate(127.246094 0)"/>
      </g>
     </g>
    </g>
    <g id="text_7">
     <!-- Session Count -->
     <g transform="translate(316.174844 561.919375) scale(0.14 -0.14)">
      <defs>
       <path id="TimesNewRomanPSMT-53" d="M 2934 4334 
L 2934 2869 
L 2819 2869 
Q 2763 3291 2617 3541 
Q 2472 3791 2203 3937 
Q 1934 4084 1647 4084 
Q 1322 4084 1109 3886 
Q 897 3688 897 3434 
Q 897 3241 1031 3081 
Q 1225 2847 1953 2456 
Q 2547 2138 2764 1967 
Q 2981 1797 3098 1565 
Q 3216 1334 3216 1081 
Q 3216 600 2842 251 
Q 2469 -97 1881 -97 
Q 1697 -97 1534 -69 
Q 1438 -53 1133 45 
Q 828 144 747 144 
Q 669 144 623 97 
Q 578 50 556 -97 
L 441 -97 
L 441 1356 
L 556 1356 
Q 638 900 775 673 
Q 913 447 1195 297 
Q 1478 147 1816 147 
Q 2206 147 2432 353 
Q 2659 559 2659 841 
Q 2659 997 2573 1156 
Q 2488 1316 2306 1453 
Q 2184 1547 1640 1851 
Q 1097 2156 867 2337 
Q 638 2519 519 2737 
Q 400 2956 400 3219 
Q 400 3675 750 4004 
Q 1100 4334 1641 4334 
Q 1978 4334 2356 4169 
Q 2531 4091 2603 4091 
Q 2684 4091 2736 4139 
Q 2788 4188 2819 4334 
L 2934 4334 
z
" transform="scale(0.015625)"/>
       <path id="TimesNewRomanPSMT-65" d="M 681 1784 
Q 678 1147 991 784 
Q 1303 422 1725 422 
Q 2006 422 2214 576 
Q 2422 731 2563 1106 
L 2659 1044 
Q 2594 616 2278 264 
Q 1963 -88 1488 -88 
Q 972 -88 605 314 
Q 238 716 238 1394 
Q 238 2128 614 2539 
Q 991 2950 1559 2950 
Q 2041 2950 2350 2633 
Q 2659 2316 2659 1784 
L 681 1784 
z
M 681 1966 
L 2006 1966 
Q 1991 2241 1941 2353 
Q 1863 2528 1708 2628 
Q 1553 2728 1384 2728 
Q 1125 2728 920 2526 
Q 716 2325 681 1966 
z
" transform="scale(0.015625)"/>
       <path id="TimesNewRomanPSMT-73" d="M 2050 2947 
L 2050 1972 
L 1947 1972 
Q 1828 2431 1642 2597 
Q 1456 2763 1169 2763 
Q 950 2763 815 2647 
Q 681 2531 681 2391 
Q 681 2216 781 2091 
Q 878 1963 1175 1819 
L 1631 1597 
Q 2266 1288 2266 781 
Q 2266 391 1970 151 
Q 1675 -88 1309 -88 
Q 1047 -88 709 6 
Q 606 38 541 38 
Q 469 38 428 -44 
L 325 -44 
L 325 978 
L 428 978 
Q 516 541 762 319 
Q 1009 97 1316 97 
Q 1531 97 1667 223 
Q 1803 350 1803 528 
Q 1803 744 1651 891 
Q 1500 1038 1047 1263 
Q 594 1488 453 1669 
Q 313 1847 313 2119 
Q 313 2472 555 2709 
Q 797 2947 1181 2947 
Q 1350 2947 1591 2875 
Q 1750 2828 1803 2828 
Q 1853 2828 1881 2850 
Q 1909 2872 1947 2947 
L 2050 2947 
z
" transform="scale(0.015625)"/>
       <path id="TimesNewRomanPSMT-69" d="M 928 4444 
Q 1059 4444 1151 4351 
Q 1244 4259 1244 4128 
Q 1244 3997 1151 3903 
Q 1059 3809 928 3809 
Q 797 3809 703 3903 
Q 609 3997 609 4128 
Q 609 4259 701 4351 
Q 794 4444 928 4444 
z
M 1188 2947 
L 1188 647 
Q 1188 378 1227 289 
Q 1266 200 1342 156 
Q 1419 113 1622 113 
L 1622 0 
L 231 0 
L 231 113 
Q 441 113 512 153 
Q 584 194 626 287 
Q 669 381 669 647 
L 669 1750 
Q 669 2216 641 2353 
Q 619 2453 572 2492 
Q 525 2531 444 2531 
Q 356 2531 231 2484 
L 188 2597 
L 1050 2947 
L 1188 2947 
z
" transform="scale(0.015625)"/>
       <path id="TimesNewRomanPSMT-6f" d="M 1600 2947 
Q 2250 2947 2644 2453 
Q 2978 2031 2978 1484 
Q 2978 1100 2793 706 
Q 2609 313 2286 112 
Q 1963 -88 1566 -88 
Q 919 -88 538 428 
Q 216 863 216 1403 
Q 216 1797 411 2186 
Q 606 2575 925 2761 
Q 1244 2947 1600 2947 
z
M 1503 2744 
Q 1338 2744 1170 2645 
Q 1003 2547 900 2300 
Q 797 2053 797 1666 
Q 797 1041 1045 587 
Q 1294 134 1700 134 
Q 2003 134 2200 384 
Q 2397 634 2397 1244 
Q 2397 2006 2069 2444 
Q 1847 2744 1503 2744 
z
" transform="scale(0.015625)"/>
       <path id="TimesNewRomanPSMT-6e" d="M 1034 2341 
Q 1538 2947 1994 2947 
Q 2228 2947 2397 2830 
Q 2566 2713 2666 2444 
Q 2734 2256 2734 1869 
L 2734 647 
Q 2734 375 2778 278 
Q 2813 200 2889 156 
Q 2966 113 3172 113 
L 3172 0 
L 1756 0 
L 1756 113 
L 1816 113 
Q 2016 113 2095 173 
Q 2175 234 2206 353 
Q 2219 400 2219 647 
L 2219 1819 
Q 2219 2209 2117 2386 
Q 2016 2563 1775 2563 
Q 1403 2563 1034 2156 
L 1034 647 
Q 1034 356 1069 288 
Q 1113 197 1189 155 
Q 1266 113 1500 113 
L 1500 0 
L 84 0 
L 84 113 
L 147 113 
Q 366 113 442 223 
Q 519 334 519 647 
L 519 1709 
Q 519 2225 495 2337 
Q 472 2450 423 2490 
Q 375 2531 294 2531 
Q 206 2531 84 2484 
L 38 2597 
L 900 2947 
L 1034 2947 
L 1034 2341 
z
" transform="scale(0.015625)"/>
       <path id="TimesNewRomanPSMT-20" transform="scale(0.015625)"/>
       <path id="TimesNewRomanPSMT-43" d="M 3853 4334 
L 3950 2894 
L 3853 2894 
Q 3659 3541 3300 3825 
Q 2941 4109 2438 4109 
Q 2016 4109 1675 3895 
Q 1334 3681 1139 3212 
Q 944 2744 944 2047 
Q 944 1472 1128 1050 
Q 1313 628 1683 403 
Q 2053 178 2528 178 
Q 2941 178 3256 354 
Q 3572 531 3950 1056 
L 4047 994 
Q 3728 428 3303 165 
Q 2878 -97 2294 -97 
Q 1241 -97 663 684 
Q 231 1266 231 2053 
Q 231 2688 515 3219 
Q 800 3750 1298 4042 
Q 1797 4334 2388 4334 
Q 2847 4334 3294 4109 
Q 3425 4041 3481 4041 
Q 3566 4041 3628 4100 
Q 3709 4184 3744 4334 
L 3853 4334 
z
" transform="scale(0.015625)"/>
       <path id="TimesNewRomanPSMT-75" d="M 2709 2863 
L 2709 1128 
Q 2709 631 2732 520 
Q 2756 409 2807 365 
Q 2859 322 2928 322 
Q 3025 322 3147 375 
L 3191 266 
L 2334 -88 
L 2194 -88 
L 2194 519 
Q 1825 119 1631 15 
Q 1438 -88 1222 -88 
Q 981 -88 804 51 
Q 628 191 559 409 
Q 491 628 491 1028 
L 491 2306 
Q 491 2509 447 2587 
Q 403 2666 317 2708 
Q 231 2750 6 2747 
L 6 2863 
L 1009 2863 
L 1009 947 
Q 1009 547 1148 422 
Q 1288 297 1484 297 
Q 1619 297 1789 381 
Q 1959 466 2194 703 
L 2194 2325 
Q 2194 2569 2105 2655 
Q 2016 2741 1734 2747 
L 1734 2863 
L 2709 2863 
z
" transform="scale(0.015625)"/>
       <path id="TimesNewRomanPSMT-74" d="M 1031 3803 
L 1031 2863 
L 1700 2863 
L 1700 2644 
L 1031 2644 
L 1031 788 
Q 1031 509 1111 412 
Q 1191 316 1316 316 
Q 1419 316 1516 380 
Q 1613 444 1666 569 
L 1788 569 
Q 1678 263 1478 108 
Q 1278 -47 1066 -47 
Q 922 -47 784 33 
Q 647 113 581 261 
Q 516 409 516 719 
L 516 2644 
L 63 2644 
L 63 2747 
Q 234 2816 414 2980 
Q 594 3144 734 3369 
Q 806 3488 934 3803 
L 1031 3803 
z
" transform="scale(0.015625)"/>
      </defs>
      <use xlink:href="#TimesNewRomanPSMT-53"/>
      <use xlink:href="#TimesNewRomanPSMT-65" transform="translate(55.615234 0)"/>
      <use xlink:href="#TimesNewRomanPSMT-73" transform="translate(100 0)"/>
      <use xlink:href="#TimesNewRomanPSMT-73" transform="translate(138.916016 0)"/>
      <use xlink:href="#TimesNewRomanPSMT-69" transform="translate(177.832031 0)"/>
      <use xlink:href="#TimesNewRomanPSMT-6f" transform="translate(205.615234 0)"/>
      <use xlink:href="#TimesNewRomanPSMT-6e" transform="translate(255.615234 0)"/>
      <use xlink:href="#TimesNewRomanPSMT-20" transform="translate(305.615234 0)"/>
      <use xlink:href="#TimesNewRomanPSMT-43" transform="translate(330.615234 0)"/>
      <use xlink:href="#TimesNewRomanPSMT-6f" transform="translate(397.314453 0)"/>
      <use xlink:href="#TimesNewRomanPSMT-75" transform="translate(447.314453 0)"/>
      <use xlink:href="#TimesNewRomanPSMT-6e" transform="translate(497.314453 0)"/>
      <use xlink:href="#TimesNewRomanPSMT-74" transform="translate(547.314453 0)"/>
     </g>
    </g>
   </g>
   <g id="matplotlib.axis_2">
    <g id="ytick_1">
     <g id="line2d_13">
      <path d="M 40.79 531.52 
L 672.075 531.52 
" clip-path="url(#p23638eb053)" style="fill: none; stroke-dasharray: 2.96,1.28; stroke-dashoffset: 0; stroke: #b0b0b0; stroke-opacity: 0.5; stroke-width: 0.8"/>
     </g>
     <g id="line2d_14">
      <defs>
       <path id="me19704fd4e" d="M 0 0 
L -3.5 0 
" style="stroke: #000000; stroke-width: 0.8"/>
      </defs>
      <g>
       <use xlink:href="#me19704fd4e" x="40.79" y="531.52" style="stroke: #000000; stroke-width: 0.8"/>
      </g>
     </g>
     <g id="text_8">
      <!-- 0 -->
      <g transform="translate(27.4275 535.319219) scale(0.1 -0.1)">
       <use xlink:href="#DejaVuSans-30"/>
      </g>
     </g>
    </g>
    <g id="ytick_2">
     <g id="line2d_15">
      <path d="M 40.79 30.12 
L 672.075 30.12 
" clip-path="url(#p23638eb053)" style="fill: none; stroke-dasharray: 2.96,1.28; stroke-dashoffset: 0; stroke: #b0b0b0; stroke-opacity: 0.5; stroke-width: 0.8"/>
     </g>
     <g id="line2d_16">
      <g>
       <use xlink:href="#me19704fd4e" x="40.79" y="30.12" style="stroke: #000000; stroke-width: 0.8"/>
      </g>
     </g>
     <g id="text_9">
      <!-- 1 -->
      <g transform="translate(27.4275 33.919219) scale(0.1 -0.1)">
       <use xlink:href="#DejaVuSans-31"/>
      </g>
     </g>
    </g>
    <g id="text_10">
     <!-- Stacked Proportion -->
     <g transform="translate(20.432813 334.672969) rotate(-90) scale(0.14 -0.14)">
      <defs>
       <path id="TimesNewRomanPSMT-61" d="M 1822 413 
Q 1381 72 1269 19 
Q 1100 -59 909 -59 
Q 613 -59 420 144 
Q 228 347 228 678 
Q 228 888 322 1041 
Q 450 1253 767 1440 
Q 1084 1628 1822 1897 
L 1822 2009 
Q 1822 2438 1686 2597 
Q 1550 2756 1291 2756 
Q 1094 2756 978 2650 
Q 859 2544 859 2406 
L 866 2225 
Q 866 2081 792 2003 
Q 719 1925 600 1925 
Q 484 1925 411 2006 
Q 338 2088 338 2228 
Q 338 2497 613 2722 
Q 888 2947 1384 2947 
Q 1766 2947 2009 2819 
Q 2194 2722 2281 2516 
Q 2338 2381 2338 1966 
L 2338 994 
Q 2338 584 2353 492 
Q 2369 400 2405 369 
Q 2441 338 2488 338 
Q 2538 338 2575 359 
Q 2641 400 2828 588 
L 2828 413 
Q 2478 -56 2159 -56 
Q 2006 -56 1915 50 
Q 1825 156 1822 413 
z
M 1822 616 
L 1822 1706 
Q 1350 1519 1213 1441 
Q 966 1303 859 1153 
Q 753 1003 753 825 
Q 753 600 887 451 
Q 1022 303 1197 303 
Q 1434 303 1822 616 
z
" transform="scale(0.015625)"/>
       <path id="TimesNewRomanPSMT-63" d="M 2631 1088 
Q 2516 522 2178 217 
Q 1841 -88 1431 -88 
Q 944 -88 581 321 
Q 219 731 219 1428 
Q 219 2103 620 2525 
Q 1022 2947 1584 2947 
Q 2006 2947 2278 2723 
Q 2550 2500 2550 2259 
Q 2550 2141 2473 2067 
Q 2397 1994 2259 1994 
Q 2075 1994 1981 2113 
Q 1928 2178 1911 2362 
Q 1894 2547 1784 2644 
Q 1675 2738 1481 2738 
Q 1169 2738 978 2506 
Q 725 2200 725 1697 
Q 725 1184 976 792 
Q 1228 400 1656 400 
Q 1963 400 2206 609 
Q 2378 753 2541 1131 
L 2631 1088 
z
" transform="scale(0.015625)"/>
       <path id="TimesNewRomanPSMT-6b" d="M 1047 4444 
L 1047 1594 
L 1775 2259 
Q 2006 2472 2044 2528 
Q 2069 2566 2069 2603 
Q 2069 2666 2017 2711 
Q 1966 2756 1847 2763 
L 1847 2863 
L 3091 2863 
L 3091 2763 
Q 2834 2756 2664 2684 
Q 2494 2613 2291 2428 
L 1556 1750 
L 2291 822 
Q 2597 438 2703 334 
Q 2853 188 2966 144 
Q 3044 113 3238 113 
L 3238 0 
L 1847 0 
L 1847 113 
Q 1966 116 2008 148 
Q 2050 181 2050 241 
Q 2050 313 1925 472 
L 1047 1594 
L 1047 644 
Q 1047 366 1086 278 
Q 1125 191 1197 153 
Q 1269 116 1509 113 
L 1509 0 
L 53 0 
L 53 113 
Q 272 113 381 166 
Q 447 200 481 272 
Q 528 375 528 628 
L 528 3234 
Q 528 3731 506 3842 
Q 484 3953 434 3995 
Q 384 4038 303 4038 
Q 238 4038 106 3984 
L 53 4094 
L 903 4444 
L 1047 4444 
z
" transform="scale(0.015625)"/>
       <path id="TimesNewRomanPSMT-64" d="M 2222 322 
Q 2013 103 1813 7 
Q 1613 -88 1381 -88 
Q 913 -88 563 304 
Q 213 697 213 1313 
Q 213 1928 600 2439 
Q 988 2950 1597 2950 
Q 1975 2950 2222 2709 
L 2222 3238 
Q 2222 3728 2198 3840 
Q 2175 3953 2125 3993 
Q 2075 4034 2000 4034 
Q 1919 4034 1784 3984 
L 1744 4094 
L 2597 4444 
L 2738 4444 
L 2738 1134 
Q 2738 631 2761 520 
Q 2784 409 2836 365 
Q 2888 322 2956 322 
Q 3041 322 3181 375 
L 3216 266 
L 2366 -88 
L 2222 -88 
L 2222 322 
z
M 2222 541 
L 2222 2016 
Q 2203 2228 2109 2403 
Q 2016 2578 1861 2667 
Q 1706 2756 1559 2756 
Q 1284 2756 1069 2509 
Q 784 2184 784 1559 
Q 784 928 1059 592 
Q 1334 256 1672 256 
Q 1956 256 2222 541 
z
" transform="scale(0.015625)"/>
       <path id="TimesNewRomanPSMT-50" d="M 1313 1984 
L 1313 750 
Q 1313 350 1400 253 
Q 1519 116 1759 116 
L 1922 116 
L 1922 0 
L 106 0 
L 106 116 
L 266 116 
Q 534 116 650 291 
Q 713 388 713 750 
L 713 3488 
Q 713 3888 628 3984 
Q 506 4122 266 4122 
L 106 4122 
L 106 4238 
L 1659 4238 
Q 2228 4238 2556 4120 
Q 2884 4003 3109 3725 
Q 3334 3447 3334 3066 
Q 3334 2547 2992 2222 
Q 2650 1897 2025 1897 
Q 1872 1897 1694 1919 
Q 1516 1941 1313 1984 
z
M 1313 2163 
Q 1478 2131 1606 2115 
Q 1734 2100 1825 2100 
Q 2150 2100 2386 2351 
Q 2622 2603 2622 3003 
Q 2622 3278 2509 3514 
Q 2397 3750 2190 3867 
Q 1984 3984 1722 3984 
Q 1563 3984 1313 3925 
L 1313 2163 
z
" transform="scale(0.015625)"/>
       <path id="TimesNewRomanPSMT-72" d="M 1038 2947 
L 1038 2303 
Q 1397 2947 1775 2947 
Q 1947 2947 2059 2842 
Q 2172 2738 2172 2600 
Q 2172 2478 2090 2393 
Q 2009 2309 1897 2309 
Q 1788 2309 1652 2417 
Q 1516 2525 1450 2525 
Q 1394 2525 1328 2463 
Q 1188 2334 1038 2041 
L 1038 669 
Q 1038 431 1097 309 
Q 1138 225 1241 169 
Q 1344 113 1538 113 
L 1538 0 
L 72 0 
L 72 113 
Q 291 113 397 181 
Q 475 231 506 341 
Q 522 394 522 644 
L 522 1753 
Q 522 2253 501 2348 
Q 481 2444 426 2487 
Q 372 2531 291 2531 
Q 194 2531 72 2484 
L 41 2597 
L 906 2947 
L 1038 2947 
z
" transform="scale(0.015625)"/>
       <path id="TimesNewRomanPSMT-70" d="M -6 2578 
L 875 2934 
L 994 2934 
L 994 2266 
Q 1216 2644 1439 2795 
Q 1663 2947 1909 2947 
Q 2341 2947 2628 2609 
Q 2981 2197 2981 1534 
Q 2981 794 2556 309 
Q 2206 -88 1675 -88 
Q 1444 -88 1275 -22 
Q 1150 25 994 166 
L 994 -706 
Q 994 -1000 1030 -1079 
Q 1066 -1159 1155 -1206 
Q 1244 -1253 1478 -1253 
L 1478 -1369 
L -22 -1369 
L -22 -1253 
L 56 -1253 
Q 228 -1256 350 -1188 
Q 409 -1153 442 -1076 
Q 475 -1000 475 -688 
L 475 2019 
Q 475 2297 450 2372 
Q 425 2447 370 2484 
Q 316 2522 222 2522 
Q 147 2522 31 2478 
L -6 2578 
z
M 994 2081 
L 994 1013 
Q 994 666 1022 556 
Q 1066 375 1236 237 
Q 1406 100 1666 100 
Q 1978 100 2172 344 
Q 2425 663 2425 1241 
Q 2425 1897 2138 2250 
Q 1938 2494 1663 2494 
Q 1513 2494 1366 2419 
Q 1253 2363 994 2081 
z
" transform="scale(0.015625)"/>
      </defs>
      <use xlink:href="#TimesNewRomanPSMT-53"/>
      <use xlink:href="#TimesNewRomanPSMT-74" transform="translate(55.615234 0)"/>
      <use xlink:href="#TimesNewRomanPSMT-61" transform="translate(83.398438 0)"/>
      <use xlink:href="#TimesNewRomanPSMT-63" transform="translate(127.783203 0)"/>
      <use xlink:href="#TimesNewRomanPSMT-6b" transform="translate(172.167969 0)"/>
      <use xlink:href="#TimesNewRomanPSMT-65" transform="translate(222.167969 0)"/>
      <use xlink:href="#TimesNewRomanPSMT-64" transform="translate(266.552734 0)"/>
      <use xlink:href="#TimesNewRomanPSMT-20" transform="translate(316.552734 0)"/>
      <use xlink:href="#TimesNewRomanPSMT-50" transform="translate(341.552734 0)"/>
      <use xlink:href="#TimesNewRomanPSMT-72" transform="translate(397.167969 0)"/>
      <use xlink:href="#TimesNewRomanPSMT-6f" transform="translate(430.46875 0)"/>
      <use xlink:href="#TimesNewRomanPSMT-70" transform="translate(480.46875 0)"/>
      <use xlink:href="#TimesNewRomanPSMT-6f" transform="translate(530.46875 0)"/>
      <use xlink:href="#TimesNewRomanPSMT-72" transform="translate(580.46875 0)"/>
      <use xlink:href="#TimesNewRomanPSMT-74" transform="translate(613.769531 0)"/>
      <use xlink:href="#TimesNewRomanPSMT-69" transform="translate(641.552734 0)"/>
      <use xlink:href="#TimesNewRomanPSMT-6f" transform="translate(669.335938 0)"/>
      <use xlink:href="#TimesNewRomanPSMT-6e" transform="translate(719.335938 0)"/>
     </g>
    </g>
   </g>
   <g id="line2d_17">
    <path d="M 40.79 277.095129 
L 672.075 277.095129 
" clip-path="url(#p23638eb053)" style="fill: none; stroke-dasharray: 7.5,15; stroke-dashoffset: 0; stroke: #000000; stroke-width: 1.5"/>
   </g>
   <g id="patch_3">
    <path d="M 40.79 531.52 
L 40.79 30.12 
" style="fill: none; stroke: #000000; stroke-width: 0.8; stroke-linejoin: miter; stroke-linecap: square"/>
   </g>
   <g id="patch_4">
    <path d="M 672.075 531.52 
L 672.075 30.12 
" style="fill: none; stroke: #000000; stroke-width: 0.8; stroke-linejoin: miter; stroke-linecap: square"/>
   </g>
   <g id="patch_5">
    <path d="M 40.79 531.52 
L 672.075 531.52 
" style="fill: none; stroke: #000000; stroke-width: 0.8; stroke-linejoin: miter; stroke-linecap: square"/>
   </g>
   <g id="patch_6">
    <path d="M 40.79 30.12 
L 672.075 30.12 
" style="fill: none; stroke: #000000; stroke-width: 0.8; stroke-linejoin: miter; stroke-linecap: square"/>
   </g>
   <g id="text_11">
    <!-- 0.51 -->
    <g transform="translate(686.329823 280.45841) scale(0.14 -0.14)">
     <defs>
      <path id="TimesNewRomanPSMT-30" d="M 231 2094 
Q 231 2819 450 3342 
Q 669 3866 1031 4122 
Q 1313 4325 1613 4325 
Q 2100 4325 2488 3828 
Q 2972 3213 2972 2159 
Q 2972 1422 2759 906 
Q 2547 391 2217 158 
Q 1888 -75 1581 -75 
Q 975 -75 572 641 
Q 231 1244 231 2094 
z
M 844 2016 
Q 844 1141 1059 588 
Q 1238 122 1591 122 
Q 1759 122 1940 273 
Q 2122 425 2216 781 
Q 2359 1319 2359 2297 
Q 2359 3022 2209 3506 
Q 2097 3866 1919 4016 
Q 1791 4119 1609 4119 
Q 1397 4119 1231 3928 
Q 1006 3669 925 3112 
Q 844 2556 844 2016 
z
" transform="scale(0.015625)"/>
      <path id="TimesNewRomanPSMT-2e" d="M 800 606 
Q 947 606 1047 504 
Q 1147 403 1147 259 
Q 1147 116 1045 14 
Q 944 -88 800 -88 
Q 656 -88 554 14 
Q 453 116 453 259 
Q 453 406 554 506 
Q 656 606 800 606 
z
" transform="scale(0.015625)"/>
      <path id="TimesNewRomanPSMT-35" d="M 2778 4238 
L 2534 3706 
L 1259 3706 
L 981 3138 
Q 1809 3016 2294 2522 
Q 2709 2097 2709 1522 
Q 2709 1188 2573 903 
Q 2438 619 2231 419 
Q 2025 219 1772 97 
Q 1413 -75 1034 -75 
Q 653 -75 479 54 
Q 306 184 306 341 
Q 306 428 378 495 
Q 450 563 559 563 
Q 641 563 702 538 
Q 763 513 909 409 
Q 1144 247 1384 247 
Q 1750 247 2026 523 
Q 2303 800 2303 1197 
Q 2303 1581 2056 1914 
Q 1809 2247 1375 2428 
Q 1034 2569 447 2591 
L 1259 4238 
L 2778 4238 
z
" transform="scale(0.015625)"/>
      <path id="TimesNewRomanPSMT-31" d="M 750 3822 
L 1781 4325 
L 1884 4325 
L 1884 747 
Q 1884 391 1914 303 
Q 1944 216 2037 169 
Q 2131 122 2419 116 
L 2419 0 
L 825 0 
L 825 116 
Q 1125 122 1212 167 
Q 1300 213 1334 289 
Q 1369 366 1369 747 
L 1369 3034 
Q 1369 3497 1338 3628 
Q 1316 3728 1258 3775 
Q 1200 3822 1119 3822 
Q 1003 3822 797 3725 
L 750 3822 
z
" transform="scale(0.015625)"/>
     </defs>
     <use xlink:href="#TimesNewRomanPSMT-30"/>
     <use xlink:href="#TimesNewRomanPSMT-2e" transform="translate(50 0)"/>
     <use xlink:href="#TimesNewRomanPSMT-35" transform="translate(75 0)"/>
     <use xlink:href="#TimesNewRomanPSMT-31" transform="translate(125 0)"/>
    </g>
   </g>
   <g id="text_12">
    <!-- Walt (Tonkean) -->
    <g transform="translate(289.835625 24.12) scale(0.2 -0.2)">
     <defs>
      <path id="TimesNewRomanPS-BoldMT-57" d="M 6344 4238 
L 6344 4122 
Q 6225 4113 6144 4056 
Q 6063 4000 6000 3884 
Q 5981 3847 5803 3400 
L 4475 -97 
L 4353 -97 
L 3303 2634 
L 2147 -97 
L 2031 -97 
L 638 3363 
Q 425 3884 340 3993 
Q 256 4103 56 4122 
L 56 4238 
L 1894 4238 
L 1894 4122 
Q 1672 4116 1598 4055 
Q 1525 3994 1525 3903 
Q 1525 3784 1678 3400 
L 2509 1344 
L 3175 2950 
L 3000 3400 
Q 2856 3769 2778 3892 
Q 2700 4016 2598 4069 
Q 2497 4122 2300 4122 
L 2300 4238 
L 4353 4238 
L 4353 4122 
Q 4138 4119 4044 4088 
Q 3978 4066 3940 4014 
Q 3903 3963 3903 3897 
Q 3903 3825 4044 3456 
L 4816 1450 
L 5506 3266 
Q 5616 3547 5641 3650 
Q 5666 3753 5666 3841 
Q 5666 3969 5578 4042 
Q 5491 4116 5244 4122 
L 5244 4238 
L 6344 4238 
z
" transform="scale(0.015625)"/>
      <path id="TimesNewRomanPS-BoldMT-61" d="M 1828 431 
Q 1294 -41 869 -41 
Q 619 -41 453 123 
Q 288 288 288 534 
Q 288 869 575 1136 
Q 863 1403 1828 1847 
L 1828 2141 
Q 1828 2472 1792 2558 
Q 1756 2644 1656 2708 
Q 1556 2772 1431 2772 
Q 1228 2772 1097 2681 
Q 1016 2625 1016 2550 
Q 1016 2484 1103 2388 
Q 1222 2253 1222 2128 
Q 1222 1975 1108 1867 
Q 994 1759 809 1759 
Q 613 1759 480 1878 
Q 347 1997 347 2156 
Q 347 2381 525 2586 
Q 703 2791 1022 2900 
Q 1341 3009 1684 3009 
Q 2100 3009 2342 2832 
Q 2584 2656 2656 2450 
Q 2700 2319 2700 1847 
L 2700 713 
Q 2700 513 2715 461 
Q 2731 409 2762 384 
Q 2794 359 2834 359 
Q 2916 359 3000 475 
L 3094 400 
Q 2938 169 2770 64 
Q 2603 -41 2391 -41 
Q 2141 -41 2000 76 
Q 1859 194 1828 431 
z
M 1828 659 
L 1828 1638 
Q 1450 1416 1266 1163 
Q 1144 994 1144 822 
Q 1144 678 1247 569 
Q 1325 484 1466 484 
Q 1622 484 1828 659 
z
" transform="scale(0.015625)"/>
      <path id="TimesNewRomanPS-BoldMT-6c" d="M 1359 4238 
L 1359 606 
Q 1359 297 1431 211 
Q 1503 125 1713 113 
L 1713 0 
L 134 0 
L 134 113 
Q 328 119 422 225 
Q 484 297 484 606 
L 484 3631 
Q 484 3938 412 4023 
Q 341 4109 134 4122 
L 134 4238 
L 1359 4238 
z
" transform="scale(0.015625)"/>
      <path id="TimesNewRomanPS-BoldMT-74" d="M 1375 3991 
L 1375 2922 
L 2069 2922 
L 2069 2613 
L 1375 2613 
L 1375 809 
Q 1375 556 1398 482 
Q 1422 409 1481 364 
Q 1541 319 1591 319 
Q 1794 319 1975 628 
L 2069 559 
Q 1816 -41 1247 -41 
Q 969 -41 776 114 
Q 584 269 531 459 
Q 500 566 500 1034 
L 500 2613 
L 119 2613 
L 119 2722 
Q 513 3000 789 3306 
Q 1066 3613 1272 3991 
L 1375 3991 
z
" transform="scale(0.015625)"/>
      <path id="TimesNewRomanPS-BoldMT-20" transform="scale(0.015625)"/>
      <path id="TimesNewRomanPS-BoldMT-28" d="M 2056 4334 
L 2056 4191 
Q 1731 3978 1578 3775 
Q 1366 3494 1247 3053 
Q 1097 2506 1097 1525 
Q 1097 600 1233 87 
Q 1369 -425 1603 -741 
Q 1766 -959 2056 -1125 
L 2056 -1281 
Q 1303 -1028 779 -248 
Q 256 531 256 1544 
Q 256 2544 778 3314 
Q 1300 4084 2056 4334 
z
" transform="scale(0.015625)"/>
      <path id="TimesNewRomanPS-BoldMT-54" d="M 4038 4238 
L 4038 3091 
L 3925 3091 
Q 3825 3488 3703 3661 
Q 3581 3834 3369 3938 
Q 3250 3994 2953 3994 
L 2638 3994 
L 2638 725 
Q 2638 400 2673 319 
Q 2709 238 2814 177 
Q 2919 116 3100 116 
L 3241 116 
L 3241 0 
L 1022 0 
L 1022 116 
L 1163 116 
Q 1347 116 1459 181 
Q 1541 225 1588 331 
Q 1622 406 1622 725 
L 1622 3994 
L 1316 3994 
Q 888 3994 694 3813 
Q 422 3559 350 3091 
L 231 3091 
L 231 4238 
L 4038 4238 
z
" transform="scale(0.015625)"/>
      <path id="TimesNewRomanPS-BoldMT-6f" d="M 1594 3009 
Q 1975 3009 2303 2812 
Q 2631 2616 2801 2253 
Q 2972 1891 2972 1459 
Q 2972 838 2656 419 
Q 2275 -88 1603 -88 
Q 944 -88 587 375 
Q 231 838 231 1447 
Q 231 2075 595 2542 
Q 959 3009 1594 3009 
z
M 1606 2788 
Q 1447 2788 1333 2667 
Q 1219 2547 1183 2192 
Q 1147 1838 1147 1206 
Q 1147 872 1191 581 
Q 1225 359 1337 243 
Q 1450 128 1594 128 
Q 1734 128 1828 206 
Q 1950 313 1991 503 
Q 2053 800 2053 1703 
Q 2053 2234 1993 2432 
Q 1934 2631 1819 2722 
Q 1738 2788 1606 2788 
z
" transform="scale(0.015625)"/>
      <path id="TimesNewRomanPS-BoldMT-6e" d="M 1409 2922 
L 1409 2544 
Q 1634 2788 1840 2898 
Q 2047 3009 2284 3009 
Q 2569 3009 2756 2851 
Q 2944 2694 3006 2459 
Q 3056 2281 3056 1775 
L 3056 638 
Q 3056 300 3117 217 
Q 3178 134 3372 113 
L 3372 0 
L 1894 0 
L 1894 113 
Q 2059 134 2131 250 
Q 2181 328 2181 638 
L 2181 1938 
Q 2181 2297 2153 2390 
Q 2125 2484 2058 2536 
Q 1991 2588 1909 2588 
Q 1641 2588 1409 2203 
L 1409 638 
Q 1409 309 1470 221 
Q 1531 134 1697 113 
L 1697 0 
L 219 0 
L 219 113 
Q 403 131 481 231 
Q 534 300 534 638 
L 534 2288 
Q 534 2619 473 2700 
Q 413 2781 219 2806 
L 219 2922 
L 1409 2922 
z
" transform="scale(0.015625)"/>
      <path id="TimesNewRomanPS-BoldMT-6b" d="M 1403 4238 
L 1403 1450 
L 2081 2116 
Q 2291 2319 2342 2409 
Q 2394 2500 2394 2584 
Q 2394 2669 2325 2725 
Q 2256 2781 2056 2806 
L 2056 2922 
L 3366 2922 
L 3366 2806 
Q 3178 2797 3037 2717 
Q 2897 2638 2488 2238 
L 2169 1925 
L 2856 919 
Q 3272 306 3350 231 
Q 3456 125 3619 113 
L 3619 0 
L 2109 0 
L 2109 113 
Q 2209 113 2254 150 
Q 2300 188 2300 231 
Q 2300 303 2169 497 
L 1591 1344 
L 1403 1159 
L 1403 634 
Q 1403 300 1465 217 
Q 1528 134 1722 113 
L 1722 0 
L 213 0 
L 213 113 
Q 397 131 475 231 
Q 528 300 528 634 
L 528 3603 
Q 528 3934 467 4015 
Q 406 4097 213 4122 
L 213 4238 
L 1403 4238 
z
" transform="scale(0.015625)"/>
      <path id="TimesNewRomanPS-BoldMT-65" d="M 2691 1566 
L 1088 1566 
Q 1116 984 1397 647 
Q 1613 388 1916 388 
Q 2103 388 2256 492 
Q 2409 597 2584 869 
L 2691 800 
Q 2453 316 2165 114 
Q 1878 -88 1500 -88 
Q 850 -88 516 413 
Q 247 816 247 1413 
Q 247 2144 642 2576 
Q 1038 3009 1569 3009 
Q 2013 3009 2339 2645 
Q 2666 2281 2691 1566 
z
M 1922 1775 
Q 1922 2278 1867 2465 
Q 1813 2653 1697 2750 
Q 1631 2806 1522 2806 
Q 1359 2806 1256 2647 
Q 1072 2369 1072 1884 
L 1072 1775 
L 1922 1775 
z
" transform="scale(0.015625)"/>
      <path id="TimesNewRomanPS-BoldMT-29" d="M 78 -1281 
L 78 -1138 
Q 403 -922 556 -719 
Q 766 -438 888 0 
Q 1038 550 1038 1531 
Q 1038 2456 902 2967 
Q 766 3478 531 3794 
Q 369 4013 78 4178 
L 78 4334 
Q 831 4081 1354 3301 
Q 1878 2522 1878 1509 
Q 1878 513 1354 -257 
Q 831 -1028 78 -1281 
z
" transform="scale(0.015625)"/>
     </defs>
     <use xlink:href="#TimesNewRomanPS-BoldMT-57"/>
     <use xlink:href="#TimesNewRomanPS-BoldMT-61" transform="translate(94.5 0)"/>
     <use xlink:href="#TimesNewRomanPS-BoldMT-6c" transform="translate(144.5 0)"/>
     <use xlink:href="#TimesNewRomanPS-BoldMT-74" transform="translate(172.283203 0)"/>
     <use xlink:href="#TimesNewRomanPS-BoldMT-20" transform="translate(205.583984 0)"/>
     <use xlink:href="#TimesNewRomanPS-BoldMT-28" transform="translate(230.583984 0)"/>
     <use xlink:href="#TimesNewRomanPS-BoldMT-54" transform="translate(263.884766 0)"/>
     <use xlink:href="#TimesNewRomanPS-BoldMT-6f" transform="translate(321.458984 0)"/>
     <use xlink:href="#TimesNewRomanPS-BoldMT-6e" transform="translate(371.458984 0)"/>
     <use xlink:href="#TimesNewRomanPS-BoldMT-6b" transform="translate(427.074219 0)"/>
     <use xlink:href="#TimesNewRomanPS-BoldMT-65" transform="translate(482.689453 0)"/>
     <use xlink:href="#TimesNewRomanPS-BoldMT-61" transform="translate(527.074219 0)"/>
     <use xlink:href="#TimesNewRomanPS-BoldMT-6e" transform="translate(577.074219 0)"/>
     <use xlink:href="#TimesNewRomanPS-BoldMT-29" transform="translate(632.689453 0)"/>
    </g>
   </g>
   <g id="legend_1">
    <g id="patch_7">
     <path d="M 47.79 94.67625 
L 133.686875 94.67625 
Q 135.686875 94.67625 135.686875 92.67625 
L 135.686875 37.12 
Q 135.686875 35.12 133.686875 35.12 
L 47.79 35.12 
Q 45.79 35.12 45.79 37.12 
L 45.79 92.67625 
Q 45.79 94.67625 47.79 94.67625 
z
" style="fill: #ffffff; opacity: 0.8; stroke: #cccccc; stroke-linejoin: miter"/>
    </g>
    <g id="patch_8">
     <path d="M 49.79 46.12 
L 69.79 46.12 
L 69.79 39.12 
L 49.79 39.12 
z
" style="fill: #5386b6"/>
    </g>
    <g id="text_13">
     <!-- Success -->
     <g transform="translate(77.79 46.12) scale(0.1 -0.1)">
      <use xlink:href="#TimesNewRomanPSMT-53"/>
      <use xlink:href="#TimesNewRomanPSMT-75" transform="translate(55.615234 0)"/>
      <use xlink:href="#TimesNewRomanPSMT-63" transform="translate(105.615234 0)"/>
      <use xlink:href="#TimesNewRomanPSMT-63" transform="translate(150 0)"/>
      <use xlink:href="#TimesNewRomanPSMT-65" transform="translate(194.384766 0)"/>
      <use xlink:href="#TimesNewRomanPSMT-73" transform="translate(238.769531 0)"/>
      <use xlink:href="#TimesNewRomanPSMT-73" transform="translate(277.685547 0)"/>
     </g>
    </g>
    <g id="patch_9">
     <path d="M 49.79 60.259063 
L 69.79 60.259063 
L 69.79 53.259063 
L 49.79 53.259063 
z
" style="fill: #d57459"/>
    </g>
    <g id="text_14">
     <!-- Error -->
     <g transform="translate(77.79 60.259063) scale(0.1 -0.1)">
      <defs>
       <path id="TimesNewRomanPSMT-45" d="M 1338 4006 
L 1338 2331 
L 2269 2331 
Q 2631 2331 2753 2441 
Q 2916 2584 2934 2947 
L 3050 2947 
L 3050 1472 
L 2934 1472 
Q 2891 1781 2847 1869 
Q 2791 1978 2662 2040 
Q 2534 2103 2269 2103 
L 1338 2103 
L 1338 706 
Q 1338 425 1363 364 
Q 1388 303 1450 267 
Q 1513 231 1688 231 
L 2406 231 
Q 2766 231 2928 281 
Q 3091 331 3241 478 
Q 3434 672 3638 1063 
L 3763 1063 
L 3397 0 
L 131 0 
L 131 116 
L 281 116 
Q 431 116 566 188 
Q 666 238 702 338 
Q 738 438 738 747 
L 738 3500 
Q 738 3903 656 3997 
Q 544 4122 281 4122 
L 131 4122 
L 131 4238 
L 3397 4238 
L 3444 3309 
L 3322 3309 
Q 3256 3644 3176 3769 
Q 3097 3894 2941 3959 
Q 2816 4006 2500 4006 
L 1338 4006 
z
" transform="scale(0.015625)"/>
      </defs>
      <use xlink:href="#TimesNewRomanPSMT-45"/>
      <use xlink:href="#TimesNewRomanPSMT-72" transform="translate(61.083984 0)"/>
      <use xlink:href="#TimesNewRomanPSMT-72" transform="translate(94.384766 0)"/>
      <use xlink:href="#TimesNewRomanPSMT-6f" transform="translate(127.685547 0)"/>
      <use xlink:href="#TimesNewRomanPSMT-72" transform="translate(177.685547 0)"/>
     </g>
    </g>
    <g id="patch_10">
     <path d="M 49.79 74.398125 
L 69.79 74.398125 
L 69.79 67.398125 
L 49.79 67.398125 
z
" style="fill: #e8bc60"/>
    </g>
    <g id="text_15">
     <!-- Premature -->
     <g transform="translate(77.79 74.398125) scale(0.1 -0.1)">
      <defs>
       <path id="TimesNewRomanPSMT-6d" d="M 1050 2338 
Q 1363 2650 1419 2697 
Q 1559 2816 1721 2881 
Q 1884 2947 2044 2947 
Q 2313 2947 2506 2790 
Q 2700 2634 2766 2338 
Q 3088 2713 3309 2830 
Q 3531 2947 3766 2947 
Q 3994 2947 4170 2830 
Q 4347 2713 4450 2447 
Q 4519 2266 4519 1878 
L 4519 647 
Q 4519 378 4559 278 
Q 4591 209 4675 161 
Q 4759 113 4950 113 
L 4950 0 
L 3538 0 
L 3538 113 
L 3597 113 
Q 3781 113 3884 184 
Q 3956 234 3988 344 
Q 4000 397 4000 647 
L 4000 1878 
Q 4000 2228 3916 2372 
Q 3794 2572 3525 2572 
Q 3359 2572 3192 2489 
Q 3025 2406 2788 2181 
L 2781 2147 
L 2788 2013 
L 2788 647 
Q 2788 353 2820 281 
Q 2853 209 2943 161 
Q 3034 113 3253 113 
L 3253 0 
L 1806 0 
L 1806 113 
Q 2044 113 2133 169 
Q 2222 225 2256 338 
Q 2272 391 2272 647 
L 2272 1878 
Q 2272 2228 2169 2381 
Q 2031 2581 1784 2581 
Q 1616 2581 1450 2491 
Q 1191 2353 1050 2181 
L 1050 647 
Q 1050 366 1089 281 
Q 1128 197 1204 155 
Q 1281 113 1516 113 
L 1516 0 
L 100 0 
L 100 113 
Q 297 113 375 155 
Q 453 197 493 289 
Q 534 381 534 647 
L 534 1741 
Q 534 2213 506 2350 
Q 484 2453 437 2492 
Q 391 2531 309 2531 
Q 222 2531 100 2484 
L 53 2597 
L 916 2947 
L 1050 2947 
L 1050 2338 
z
" transform="scale(0.015625)"/>
      </defs>
      <use xlink:href="#TimesNewRomanPSMT-50"/>
      <use xlink:href="#TimesNewRomanPSMT-72" transform="translate(55.615234 0)"/>
      <use xlink:href="#TimesNewRomanPSMT-65" transform="translate(88.916016 0)"/>
      <use xlink:href="#TimesNewRomanPSMT-6d" transform="translate(133.300781 0)"/>
      <use xlink:href="#TimesNewRomanPSMT-61" transform="translate(211.083984 0)"/>
      <use xlink:href="#TimesNewRomanPSMT-74" transform="translate(255.46875 0)"/>
      <use xlink:href="#TimesNewRomanPSMT-75" transform="translate(283.251953 0)"/>
      <use xlink:href="#TimesNewRomanPSMT-72" transform="translate(333.251953 0)"/>
      <use xlink:href="#TimesNewRomanPSMT-65" transform="translate(366.552734 0)"/>
     </g>
    </g>
    <g id="patch_11">
     <path d="M 49.79 88.537188 
L 69.79 88.537188 
L 69.79 81.537188 
L 49.79 81.537188 
z
" style="fill: #8d5993"/>
    </g>
    <g id="text_16">
     <!-- Stepomission -->
     <g transform="translate(77.79 88.537188) scale(0.1 -0.1)">
      <use xlink:href="#TimesNewRomanPSMT-53"/>
      <use xlink:href="#TimesNewRomanPSMT-74" transform="translate(55.615234 0)"/>
      <use xlink:href="#TimesNewRomanPSMT-65" transform="translate(83.398438 0)"/>
      <use xlink:href="#TimesNewRomanPSMT-70" transform="translate(127.783203 0)"/>
      <use xlink:href="#TimesNewRomanPSMT-6f" transform="translate(177.783203 0)"/>
      <use xlink:href="#TimesNewRomanPSMT-6d" transform="translate(227.783203 0)"/>
      <use xlink:href="#TimesNewRomanPSMT-69" transform="translate(305.566406 0)"/>
      <use xlink:href="#TimesNewRomanPSMT-73" transform="translate(333.349609 0)"/>
      <use xlink:href="#TimesNewRomanPSMT-73" transform="translate(372.265625 0)"/>
      <use xlink:href="#TimesNewRomanPSMT-69" transform="translate(411.181641 0)"/>
      <use xlink:href="#TimesNewRomanPSMT-6f" transform="translate(438.964844 0)"/>
      <use xlink:href="#TimesNewRomanPSMT-6e" transform="translate(488.964844 0)"/>
     </g>
    </g>
   </g>
  </g>
 </g>
 <defs>
  <clipPath id="p23638eb053">
   <rect x="40.79" y="30.12" width="631.285" height="501.4"/>
  </clipPath>
 </defs>
</svg>
