<?xml version="1.0" encoding="utf-8" standalone="no"?>
<!DOCTYPE svg PUBLIC "-//W3C//DTD SVG 1.1//EN"
  "http://www.w3.org/Graphics/SVG/1.1/DTD/svg11.dtd">
<svg xmlns:xlink="http://www.w3.org/1999/xlink" width="720pt" height="576pt" viewBox="0 0 720 576" xmlns="http://www.w3.org/2000/svg" version="1.1">
 <metadata>
  <rdf:RDF xmlns:dc="http://purl.org/dc/elements/1.1/" xmlns:cc="http://creativecommons.org/ns#" xmlns:rdf="http://www.w3.org/1999/02/22-rdf-syntax-ns#">
   <cc:Work>
    <dc:type rdf:resource="http://purl.org/dc/dcmitype/StillImage"/>
    <dc:date>2025-06-27T15:15:57.648711</dc:date>
    <dc:format>image/svg+xml</dc:format>
    <dc:creator>
     <cc:Agent>
      <dc:title>Matplotlib v3.10.3, https://matplotlib.org/</dc:title>
     </cc:Agent>
    </dc:creator>
   </cc:Work>
  </rdf:RDF>
 </metadata>
 <defs>
  <style type="text/css">*{stroke-linejoin: round; stroke-linecap: butt}</style>
 </defs>
 <g id="figure_1">
  <g id="patch_1">
   <path d="M 0 576 
L 720 576 
L 720 0 
L 0 0 
z
" style="fill: #ffffff"/>
  </g>
  <g id="axes_1">
   <g id="patch_2">
    <path d="M 40.79 531.52 
L 664.585979 531.52 
L 664.585979 30.12 
L 40.79 30.12 
z
" style="fill: #ffffff"/>
   </g>
   <g id="FillBetweenPolyCollection_1">
    <path d="M 40.79 531.52 
L 40.79 531.52 
L 44.005443 531.52 
L 47.220886 531.52 
L 50.43633 531.52 
L 53.651773 531.52 
L 56.867216 531.52 
L 60.082659 531.52 
L 63.298102 531.52 
L 66.513546 531.52 
L 69.728989 531.52 
L 72.944432 531.52 
L 76.159875 531.52 
L 79.375318 531.52 
L 82.590762 531.52 
L 85.806205 531.52 
L 89.021648 531.52 
L 92.237091 531.52 
L 95.452534 531.52 
L 98.667977 531.52 
L 101.883421 531.52 
L 105.098864 531.52 
L 108.314307 531.52 
L 111.52975 531.52 
L 114.745193 531.52 
L 117.960637 531.52 
L 121.17608 531.52 
L 124.391523 531.52 
L 127.606966 531.52 
L 130.822409 531.52 
L 134.037853 531.52 
L 137.253296 531.52 
L 140.468739 531.52 
L 143.684182 531.52 
L 146.899625 531.52 
L 150.115069 531.52 
L 153.330512 531.52 
L 156.545955 531.52 
L 159.761398 531.52 
L 162.976841 531.52 
L 166.192285 531.52 
L 169.407728 531.52 
L 172.623171 531.52 
L 175.838614 531.52 
L 179.054057 531.52 
L 182.2695 531.52 
L 185.484944 531.52 
L 188.700387 531.52 
L 191.91583 531.52 
L 195.131273 531.52 
L 198.346716 531.52 
L 201.56216 531.52 
L 204.777603 531.52 
L 207.993046 531.52 
L 211.208489 531.52 
L 214.423932 531.52 
L 217.639376 531.52 
L 220.854819 531.52 
L 224.070262 531.52 
L 227.285705 531.52 
L 230.501148 531.52 
L 233.716592 531.52 
L 236.932035 531.52 
L 240.147478 531.52 
L 243.362921 531.52 
L 246.578364 531.52 
L 249.793808 531.52 
L 253.009251 531.52 
L 256.224694 531.52 
L 259.440137 531.52 
L 262.65558 531.52 
L 265.871023 531.52 
L 269.086467 531.52 
L 272.30191 531.52 
L 275.517353 531.52 
L 278.732796 531.52 
L 281.948239 531.52 
L 285.163683 531.52 
L 288.379126 531.52 
L 291.594569 531.52 
L 294.810012 531.52 
L 298.025455 531.52 
L 301.240899 531.52 
L 304.456342 531.52 
L 307.671785 531.52 
L 310.887228 531.52 
L 314.102671 531.52 
L 317.318115 531.52 
L 320.533558 531.52 
L 323.749001 531.52 
L 326.964444 531.52 
L 330.179887 531.52 
L 333.395331 531.52 
L 336.610774 531.52 
L 339.826217 531.52 
L 343.04166 531.52 
L 346.257103 531.52 
L 349.472546 531.52 
L 352.68799 531.52 
L 355.903433 531.52 
L 359.118876 531.52 
L 362.334319 531.52 
L 365.549762 531.52 
L 368.765206 531.52 
L 371.980649 531.52 
L 375.196092 531.52 
L 378.411535 531.52 
L 381.626978 531.52 
L 384.842422 531.52 
L 388.057865 531.52 
L 391.273308 531.52 
L 394.488751 531.52 
L 397.704194 531.52 
L 400.919638 531.52 
L 404.135081 531.52 
L 407.350524 531.52 
L 410.565967 531.52 
L 413.78141 531.52 
L 416.996854 531.52 
L 420.212297 531.52 
L 423.42774 531.52 
L 426.643183 531.52 
L 429.858626 531.52 
L 433.07407 531.52 
L 436.289513 531.52 
L 439.504956 531.52 
L 442.720399 531.52 
L 445.935842 531.52 
L 449.151285 531.52 
L 452.366729 531.52 
L 455.582172 531.52 
L 458.797615 531.52 
L 462.013058 531.52 
L 465.228501 531.52 
L 468.443945 531.52 
L 471.659388 531.52 
L 474.874831 531.52 
L 478.090274 531.52 
L 481.305717 531.52 
L 484.521161 531.52 
L 487.736604 531.52 
L 490.952047 531.52 
L 494.16749 531.52 
L 497.382933 531.52 
L 500.598377 531.52 
L 503.81382 531.52 
L 507.029263 531.52 
L 510.244706 531.52 
L 513.460149 531.52 
L 516.675593 531.52 
L 519.891036 531.52 
L 523.106479 531.52 
L 526.321922 531.52 
L 529.537365 531.52 
L 532.752808 531.52 
L 535.968252 531.52 
L 539.183695 531.52 
L 542.399138 531.52 
L 545.614581 531.52 
L 548.830024 531.52 
L 552.045468 531.52 
L 555.260911 531.52 
L 558.476354 531.52 
L 561.691797 531.52 
L 564.90724 531.52 
L 568.122684 531.52 
L 571.338127 531.52 
L 574.55357 531.52 
L 577.769013 531.52 
L 580.984456 531.52 
L 584.1999 531.52 
L 587.415343 531.52 
L 590.630786 531.52 
L 593.846229 531.52 
L 597.061672 531.52 
L 600.277116 531.52 
L 603.492559 531.52 
L 606.708002 531.52 
L 609.923445 531.52 
L 613.138888 531.52 
L 616.354331 531.52 
L 619.569775 531.52 
L 622.785218 531.52 
L 626.000661 531.52 
L 629.216104 531.52 
L 632.431547 531.52 
L 635.646991 531.52 
L 638.862434 531.52 
L 642.077877 531.52 
L 645.29332 531.52 
L 648.508763 531.52 
L 651.724207 531.52 
L 654.93965 531.52 
L 658.155093 531.52 
L 661.370536 531.52 
L 664.585979 531.52 
L 664.585979 130.4 
L 664.585979 130.4 
L 661.370536 30.12 
L 658.155093 30.12 
L 654.93965 30.12 
L 651.724207 30.12 
L 648.508763 30.12 
L 645.29332 30.12 
L 642.077877 92.795 
L 638.862434 30.12 
L 635.646991 364.386667 
L 632.431547 30.12 
L 629.216104 531.52 
L 626.000661 130.4 
L 622.785218 30.12 
L 619.569775 30.12 
L 616.354331 531.52 
L 613.138888 30.12 
L 609.923445 30.12 
L 606.708002 30.12 
L 603.492559 155.47 
L 600.277116 30.12 
L 597.061672 30.12 
L 593.846229 30.12 
L 590.630786 30.12 
L 587.415343 197.253333 
L 584.1999 531.52 
L 580.984456 197.253333 
L 577.769013 30.12 
L 574.55357 155.47 
L 571.338127 30.12 
L 568.122684 30.12 
L 564.90724 30.12 
L 561.691797 30.12 
L 558.476354 30.12 
L 555.260911 30.12 
L 552.045468 197.253333 
L 548.830024 30.12 
L 545.614581 30.12 
L 542.399138 30.12 
L 539.183695 30.12 
L 535.968252 30.12 
L 532.752808 531.52 
L 529.537365 280.82 
L 526.321922 30.12 
L 523.106479 30.12 
L 519.891036 155.47 
L 516.675593 30.12 
L 513.460149 30.12 
L 510.244706 30.12 
L 507.029263 30.12 
L 503.81382 197.253333 
L 500.598377 230.68 
L 497.382933 130.4 
L 494.16749 30.12 
L 490.952047 230.68 
L 487.736604 280.82 
L 484.521161 30.12 
L 481.305717 30.12 
L 478.090274 30.12 
L 474.874831 130.4 
L 471.659388 30.12 
L 468.443945 30.12 
L 465.228501 245.005714 
L 462.013058 30.12 
L 458.797615 155.47 
L 455.582172 30.12 
L 452.366729 197.253333 
L 449.151285 30.12 
L 445.935842 30.12 
L 442.720399 30.12 
L 439.504956 130.4 
L 436.289513 30.12 
L 433.07407 30.12 
L 429.858626 364.386667 
L 426.643183 30.12 
L 423.42774 197.253333 
L 420.212297 30.12 
L 416.996854 30.12 
L 413.78141 173.377143 
L 410.565967 30.12 
L 407.350524 30.12 
L 404.135081 92.795 
L 400.919638 531.52 
L 397.704194 113.686667 
L 394.488751 30.12 
L 391.273308 30.12 
L 388.057865 280.82 
L 384.842422 155.47 
L 381.626978 30.12 
L 378.411535 197.253333 
L 375.196092 30.12 
L 371.980649 30.12 
L 368.765206 30.12 
L 365.549762 30.12 
L 362.334319 280.82 
L 359.118876 280.82 
L 355.903433 30.12 
L 352.68799 30.12 
L 349.472546 30.12 
L 346.257103 30.12 
L 343.04166 30.12 
L 339.826217 30.12 
L 336.610774 30.12 
L 333.395331 30.12 
L 330.179887 30.12 
L 326.964444 197.253333 
L 323.749001 280.82 
L 320.533558 30.12 
L 317.318115 30.12 
L 314.102671 280.82 
L 310.887228 364.386667 
L 307.671785 30.12 
L 304.456342 30.12 
L 301.240899 30.12 
L 298.025455 30.12 
L 294.810012 531.52 
L 291.594569 364.386667 
L 288.379126 30.12 
L 285.163683 197.253333 
L 281.948239 230.68 
L 278.732796 30.12 
L 275.517353 30.12 
L 272.30191 30.12 
L 269.086467 30.12 
L 265.871023 30.12 
L 262.65558 280.82 
L 259.440137 280.82 
L 256.224694 101.748571 
L 253.009251 197.253333 
L 249.793808 155.47 
L 246.578364 92.795 
L 243.362921 197.253333 
L 240.147478 280.82 
L 236.932035 30.12 
L 233.716592 280.82 
L 230.501148 173.377143 
L 227.285705 30.12 
L 224.070262 30.12 
L 220.854819 30.12 
L 217.639376 155.47 
L 214.423932 101.748571 
L 211.208489 155.47 
L 207.993046 531.52 
L 204.777603 531.52 
L 201.56216 113.686667 
L 198.346716 30.12 
L 195.131273 121.283636 
L 191.91583 113.686667 
L 188.700387 30.12 
L 185.484944 197.253333 
L 182.2695 252.964444 
L 179.054057 30.12 
L 175.838614 280.82 
L 172.623171 104.955821 
L 169.407728 266.072941 
L 166.192285 197.253333 
L 162.976841 230.68 
L 159.761398 169.397778 
L 156.545955 531.52 
L 153.330512 113.686667 
L 150.115069 197.253333 
L 146.899625 173.377143 
L 143.684182 212.447273 
L 140.468739 241.235789 
L 137.253296 197.253333 
L 134.037853 230.68 
L 130.822409 295.567059 
L 127.606966 30.12 
L 124.391523 308.675556 
L 121.17608 173.377143 
L 117.960637 155.47 
L 114.745193 531.52 
L 111.52975 113.686667 
L 108.314307 280.82 
L 105.098864 30.12 
L 101.883421 113.686667 
L 98.667977 30.12 
L 95.452534 225.108889 
L 92.237091 30.12 
L 89.021648 155.47 
L 85.806205 197.253333 
L 82.590762 155.47 
L 79.375318 173.377143 
L 76.159875 245.005714 
L 72.944432 220.793239 
L 69.728989 531.52 
L 66.513546 180.54 
L 63.298102 205.61 
L 60.082659 197.253333 
L 56.867216 316.634286 
L 53.651773 197.253333 
L 50.43633 280.82 
L 47.220886 349.192727 
L 44.005443 197.253333 
L 40.79 531.52 
z
" clip-path="url(#p41aab0db2e)" style="fill: #5386b6"/>
   </g>
   <g id="FillBetweenPolyCollection_2">
    <path d="M 40.79 30.12 
L 40.79 531.52 
L 44.005443 197.253333 
L 47.220886 349.192727 
L 50.43633 280.82 
L 53.651773 197.253333 
L 56.867216 316.634286 
L 60.082659 197.253333 
L 63.298102 205.61 
L 66.513546 180.54 
L 69.728989 531.52 
L 72.944432 220.793239 
L 76.159875 245.005714 
L 79.375318 173.377143 
L 82.590762 155.47 
L 85.806205 197.253333 
L 89.021648 155.47 
L 92.237091 30.12 
L 95.452534 225.108889 
L 98.667977 30.12 
L 101.883421 113.686667 
L 105.098864 30.12 
L 108.314307 280.82 
L 111.52975 113.686667 
L 114.745193 531.52 
L 117.960637 155.47 
L 121.17608 173.377143 
L 124.391523 308.675556 
L 127.606966 30.12 
L 130.822409 295.567059 
L 134.037853 230.68 
L 137.253296 197.253333 
L 140.468739 241.235789 
L 143.684182 212.447273 
L 146.899625 173.377143 
L 150.115069 197.253333 
L 153.330512 113.686667 
L 156.545955 531.52 
L 159.761398 169.397778 
L 162.976841 230.68 
L 166.192285 197.253333 
L 169.407728 266.072941 
L 172.623171 104.955821 
L 175.838614 280.82 
L 179.054057 30.12 
L 182.2695 252.964444 
L 185.484944 197.253333 
L 188.700387 30.12 
L 191.91583 113.686667 
L 195.131273 121.283636 
L 198.346716 30.12 
L 201.56216 113.686667 
L 204.777603 531.52 
L 207.993046 531.52 
L 211.208489 155.47 
L 214.423932 101.748571 
L 217.639376 155.47 
L 220.854819 30.12 
L 224.070262 30.12 
L 227.285705 30.12 
L 230.501148 173.377143 
L 233.716592 280.82 
L 236.932035 30.12 
L 240.147478 280.82 
L 243.362921 197.253333 
L 246.578364 92.795 
L 249.793808 155.47 
L 253.009251 197.253333 
L 256.224694 101.748571 
L 259.440137 280.82 
L 262.65558 280.82 
L 265.871023 30.12 
L 269.086467 30.12 
L 272.30191 30.12 
L 275.517353 30.12 
L 278.732796 30.12 
L 281.948239 230.68 
L 285.163683 197.253333 
L 288.379126 30.12 
L 291.594569 364.386667 
L 294.810012 531.52 
L 298.025455 30.12 
L 301.240899 30.12 
L 304.456342 30.12 
L 307.671785 30.12 
L 310.887228 364.386667 
L 314.102671 280.82 
L 317.318115 30.12 
L 320.533558 30.12 
L 323.749001 280.82 
L 326.964444 197.253333 
L 330.179887 30.12 
L 333.395331 30.12 
L 336.610774 30.12 
L 339.826217 30.12 
L 343.04166 30.12 
L 346.257103 30.12 
L 349.472546 30.12 
L 352.68799 30.12 
L 355.903433 30.12 
L 359.118876 280.82 
L 362.334319 280.82 
L 365.549762 30.12 
L 368.765206 30.12 
L 371.980649 30.12 
L 375.196092 30.12 
L 378.411535 197.253333 
L 381.626978 30.12 
L 384.842422 155.47 
L 388.057865 280.82 
L 391.273308 30.12 
L 394.488751 30.12 
L 397.704194 113.686667 
L 400.919638 531.52 
L 404.135081 92.795 
L 407.350524 30.12 
L 410.565967 30.12 
L 413.78141 173.377143 
L 416.996854 30.12 
L 420.212297 30.12 
L 423.42774 197.253333 
L 426.643183 30.12 
L 429.858626 364.386667 
L 433.07407 30.12 
L 436.289513 30.12 
L 439.504956 130.4 
L 442.720399 30.12 
L 445.935842 30.12 
L 449.151285 30.12 
L 452.366729 197.253333 
L 455.582172 30.12 
L 458.797615 155.47 
L 462.013058 30.12 
L 465.228501 245.005714 
L 468.443945 30.12 
L 471.659388 30.12 
L 474.874831 130.4 
L 478.090274 30.12 
L 481.305717 30.12 
L 484.521161 30.12 
L 487.736604 280.82 
L 490.952047 230.68 
L 494.16749 30.12 
L 497.382933 130.4 
L 500.598377 230.68 
L 503.81382 197.253333 
L 507.029263 30.12 
L 510.244706 30.12 
L 513.460149 30.12 
L 516.675593 30.12 
L 519.891036 155.47 
L 523.106479 30.12 
L 526.321922 30.12 
L 529.537365 280.82 
L 532.752808 531.52 
L 535.968252 30.12 
L 539.183695 30.12 
L 542.399138 30.12 
L 545.614581 30.12 
L 548.830024 30.12 
L 552.045468 197.253333 
L 555.260911 30.12 
L 558.476354 30.12 
L 561.691797 30.12 
L 564.90724 30.12 
L 568.122684 30.12 
L 571.338127 30.12 
L 574.55357 155.47 
L 577.769013 30.12 
L 580.984456 197.253333 
L 584.1999 531.52 
L 587.415343 197.253333 
L 590.630786 30.12 
L 593.846229 30.12 
L 597.061672 30.12 
L 600.277116 30.12 
L 603.492559 155.47 
L 606.708002 30.12 
L 609.923445 30.12 
L 613.138888 30.12 
L 616.354331 531.52 
L 619.569775 30.12 
L 622.785218 30.12 
L 626.000661 130.4 
L 629.216104 531.52 
L 632.431547 30.12 
L 635.646991 364.386667 
L 638.862434 30.12 
L 642.077877 92.795 
L 645.29332 30.12 
L 648.508763 30.12 
L 651.724207 30.12 
L 654.93965 30.12 
L 658.155093 30.12 
L 661.370536 30.12 
L 664.585979 130.4 
L 664.585979 30.12 
L 664.585979 30.12 
L 661.370536 30.12 
L 658.155093 30.12 
L 654.93965 30.12 
L 651.724207 30.12 
L 648.508763 30.12 
L 645.29332 30.12 
L 642.077877 92.795 
L 638.862434 30.12 
L 635.646991 30.12 
L 632.431547 30.12 
L 629.216104 30.12 
L 626.000661 30.12 
L 622.785218 30.12 
L 619.569775 30.12 
L 616.354331 30.12 
L 613.138888 30.12 
L 609.923445 30.12 
L 606.708002 30.12 
L 603.492559 30.12 
L 600.277116 30.12 
L 597.061672 30.12 
L 593.846229 30.12 
L 590.630786 30.12 
L 587.415343 30.12 
L 584.1999 30.12 
L 580.984456 30.12 
L 577.769013 30.12 
L 574.55357 30.12 
L 571.338127 30.12 
L 568.122684 30.12 
L 564.90724 30.12 
L 561.691797 30.12 
L 558.476354 30.12 
L 555.260911 30.12 
L 552.045468 30.12 
L 548.830024 30.12 
L 545.614581 30.12 
L 542.399138 30.12 
L 539.183695 30.12 
L 535.968252 30.12 
L 532.752808 30.12 
L 529.537365 30.12 
L 526.321922 30.12 
L 523.106479 30.12 
L 519.891036 30.12 
L 516.675593 30.12 
L 513.460149 30.12 
L 510.244706 30.12 
L 507.029263 30.12 
L 503.81382 30.12 
L 500.598377 30.12 
L 497.382933 30.12 
L 494.16749 30.12 
L 490.952047 30.12 
L 487.736604 30.12 
L 484.521161 30.12 
L 481.305717 30.12 
L 478.090274 30.12 
L 474.874831 30.12 
L 471.659388 30.12 
L 468.443945 30.12 
L 465.228501 30.12 
L 462.013058 30.12 
L 458.797615 30.12 
L 455.582172 30.12 
L 452.366729 30.12 
L 449.151285 30.12 
L 445.935842 30.12 
L 442.720399 30.12 
L 439.504956 30.12 
L 436.289513 30.12 
L 433.07407 30.12 
L 429.858626 30.12 
L 426.643183 30.12 
L 423.42774 113.686667 
L 420.212297 30.12 
L 416.996854 30.12 
L 413.78141 30.12 
L 410.565967 30.12 
L 407.350524 30.12 
L 404.135081 30.12 
L 400.919638 30.12 
L 397.704194 30.12 
L 394.488751 30.12 
L 391.273308 30.12 
L 388.057865 30.12 
L 384.842422 30.12 
L 381.626978 30.12 
L 378.411535 30.12 
L 375.196092 30.12 
L 371.980649 30.12 
L 368.765206 30.12 
L 365.549762 30.12 
L 362.334319 30.12 
L 359.118876 113.686667 
L 355.903433 30.12 
L 352.68799 30.12 
L 349.472546 30.12 
L 346.257103 30.12 
L 343.04166 30.12 
L 339.826217 30.12 
L 336.610774 30.12 
L 333.395331 30.12 
L 330.179887 30.12 
L 326.964444 30.12 
L 323.749001 30.12 
L 320.533558 30.12 
L 317.318115 30.12 
L 314.102671 30.12 
L 310.887228 30.12 
L 307.671785 30.12 
L 304.456342 30.12 
L 301.240899 30.12 
L 298.025455 30.12 
L 294.810012 30.12 
L 291.594569 30.12 
L 288.379126 30.12 
L 285.163683 30.12 
L 281.948239 30.12 
L 278.732796 30.12 
L 275.517353 30.12 
L 272.30191 30.12 
L 269.086467 30.12 
L 265.871023 30.12 
L 262.65558 30.12 
L 259.440137 30.12 
L 256.224694 30.12 
L 253.009251 30.12 
L 249.793808 30.12 
L 246.578364 30.12 
L 243.362921 30.12 
L 240.147478 30.12 
L 236.932035 30.12 
L 233.716592 30.12 
L 230.501148 30.12 
L 227.285705 30.12 
L 224.070262 30.12 
L 220.854819 30.12 
L 217.639376 30.12 
L 214.423932 30.12 
L 211.208489 30.12 
L 207.993046 30.12 
L 204.777603 30.12 
L 201.56216 30.12 
L 198.346716 30.12 
L 195.131273 30.12 
L 191.91583 30.12 
L 188.700387 30.12 
L 185.484944 30.12 
L 182.2695 30.12 
L 179.054057 30.12 
L 175.838614 30.12 
L 172.623171 37.603582 
L 169.407728 30.12 
L 166.192285 30.12 
L 162.976841 80.26 
L 159.761398 30.12 
L 156.545955 531.52 
L 153.330512 30.12 
L 150.115069 30.12 
L 146.899625 30.12 
L 143.684182 75.701818 
L 140.468739 30.12 
L 137.253296 30.12 
L 134.037853 30.12 
L 130.822409 89.108235 
L 127.606966 30.12 
L 124.391523 85.831111 
L 121.17608 30.12 
L 117.960637 30.12 
L 114.745193 30.12 
L 111.52975 30.12 
L 108.314307 30.12 
L 105.098864 30.12 
L 101.883421 30.12 
L 98.667977 30.12 
L 95.452534 30.12 
L 92.237091 30.12 
L 89.021648 30.12 
L 85.806205 30.12 
L 82.590762 30.12 
L 79.375318 30.12 
L 76.159875 30.12 
L 72.944432 44.243944 
L 69.728989 30.12 
L 66.513546 30.12 
L 63.298102 55.19 
L 60.082659 30.12 
L 56.867216 30.12 
L 53.651773 30.12 
L 50.43633 30.12 
L 47.220886 75.701818 
L 44.005443 30.12 
L 40.79 30.12 
z
" clip-path="url(#p41aab0db2e)" style="fill: #d57459"/>
   </g>
   <g id="FillBetweenPolyCollection_3">
    <path d="M 40.79 30.12 
L 40.79 30.12 
L 44.005443 30.12 
L 47.220886 75.701818 
L 50.43633 30.12 
L 53.651773 30.12 
L 56.867216 30.12 
L 60.082659 30.12 
L 63.298102 55.19 
L 66.513546 30.12 
L 69.728989 30.12 
L 72.944432 44.243944 
L 76.159875 30.12 
L 79.375318 30.12 
L 82.590762 30.12 
L 85.806205 30.12 
L 89.021648 30.12 
L 92.237091 30.12 
L 95.452534 30.12 
L 98.667977 30.12 
L 101.883421 30.12 
L 105.098864 30.12 
L 108.314307 30.12 
L 111.52975 30.12 
L 114.745193 30.12 
L 117.960637 30.12 
L 121.17608 30.12 
L 124.391523 85.831111 
L 127.606966 30.12 
L 130.822409 89.108235 
L 134.037853 30.12 
L 137.253296 30.12 
L 140.468739 30.12 
L 143.684182 75.701818 
L 146.899625 30.12 
L 150.115069 30.12 
L 153.330512 30.12 
L 156.545955 531.52 
L 159.761398 30.12 
L 162.976841 80.26 
L 166.192285 30.12 
L 169.407728 30.12 
L 172.623171 37.603582 
L 175.838614 30.12 
L 179.054057 30.12 
L 182.2695 30.12 
L 185.484944 30.12 
L 188.700387 30.12 
L 191.91583 30.12 
L 195.131273 30.12 
L 198.346716 30.12 
L 201.56216 30.12 
L 204.777603 30.12 
L 207.993046 30.12 
L 211.208489 30.12 
L 214.423932 30.12 
L 217.639376 30.12 
L 220.854819 30.12 
L 224.070262 30.12 
L 227.285705 30.12 
L 230.501148 30.12 
L 233.716592 30.12 
L 236.932035 30.12 
L 240.147478 30.12 
L 243.362921 30.12 
L 246.578364 30.12 
L 249.793808 30.12 
L 253.009251 30.12 
L 256.224694 30.12 
L 259.440137 30.12 
L 262.65558 30.12 
L 265.871023 30.12 
L 269.086467 30.12 
L 272.30191 30.12 
L 275.517353 30.12 
L 278.732796 30.12 
L 281.948239 30.12 
L 285.163683 30.12 
L 288.379126 30.12 
L 291.594569 30.12 
L 294.810012 30.12 
L 298.025455 30.12 
L 301.240899 30.12 
L 304.456342 30.12 
L 307.671785 30.12 
L 310.887228 30.12 
L 314.102671 30.12 
L 317.318115 30.12 
L 320.533558 30.12 
L 323.749001 30.12 
L 326.964444 30.12 
L 330.179887 30.12 
L 333.395331 30.12 
L 336.610774 30.12 
L 339.826217 30.12 
L 343.04166 30.12 
L 346.257103 30.12 
L 349.472546 30.12 
L 352.68799 30.12 
L 355.903433 30.12 
L 359.118876 113.686667 
L 362.334319 30.12 
L 365.549762 30.12 
L 368.765206 30.12 
L 371.980649 30.12 
L 375.196092 30.12 
L 378.411535 30.12 
L 381.626978 30.12 
L 384.842422 30.12 
L 388.057865 30.12 
L 391.273308 30.12 
L 394.488751 30.12 
L 397.704194 30.12 
L 400.919638 30.12 
L 404.135081 30.12 
L 407.350524 30.12 
L 410.565967 30.12 
L 413.78141 30.12 
L 416.996854 30.12 
L 420.212297 30.12 
L 423.42774 113.686667 
L 426.643183 30.12 
L 429.858626 30.12 
L 433.07407 30.12 
L 436.289513 30.12 
L 439.504956 30.12 
L 442.720399 30.12 
L 445.935842 30.12 
L 449.151285 30.12 
L 452.366729 30.12 
L 455.582172 30.12 
L 458.797615 30.12 
L 462.013058 30.12 
L 465.228501 30.12 
L 468.443945 30.12 
L 471.659388 30.12 
L 474.874831 30.12 
L 478.090274 30.12 
L 481.305717 30.12 
L 484.521161 30.12 
L 487.736604 30.12 
L 490.952047 30.12 
L 494.16749 30.12 
L 497.382933 30.12 
L 500.598377 30.12 
L 503.81382 30.12 
L 507.029263 30.12 
L 510.244706 30.12 
L 513.460149 30.12 
L 516.675593 30.12 
L 519.891036 30.12 
L 523.106479 30.12 
L 526.321922 30.12 
L 529.537365 30.12 
L 532.752808 30.12 
L 535.968252 30.12 
L 539.183695 30.12 
L 542.399138 30.12 
L 545.614581 30.12 
L 548.830024 30.12 
L 552.045468 30.12 
L 555.260911 30.12 
L 558.476354 30.12 
L 561.691797 30.12 
L 564.90724 30.12 
L 568.122684 30.12 
L 571.338127 30.12 
L 574.55357 30.12 
L 577.769013 30.12 
L 580.984456 30.12 
L 584.1999 30.12 
L 587.415343 30.12 
L 590.630786 30.12 
L 593.846229 30.12 
L 597.061672 30.12 
L 600.277116 30.12 
L 603.492559 30.12 
L 606.708002 30.12 
L 609.923445 30.12 
L 613.138888 30.12 
L 616.354331 30.12 
L 619.569775 30.12 
L 622.785218 30.12 
L 626.000661 30.12 
L 629.216104 30.12 
L 632.431547 30.12 
L 635.646991 30.12 
L 638.862434 30.12 
L 642.077877 92.795 
L 645.29332 30.12 
L 648.508763 30.12 
L 651.724207 30.12 
L 654.93965 30.12 
L 658.155093 30.12 
L 661.370536 30.12 
L 664.585979 30.12 
L 664.585979 30.12 
L 664.585979 30.12 
L 661.370536 30.12 
L 658.155093 30.12 
L 654.93965 30.12 
L 651.724207 30.12 
L 648.508763 30.12 
L 645.29332 30.12 
L 642.077877 92.795 
L 638.862434 30.12 
L 635.646991 30.12 
L 632.431547 30.12 
L 629.216104 30.12 
L 626.000661 30.12 
L 622.785218 30.12 
L 619.569775 30.12 
L 616.354331 30.12 
L 613.138888 30.12 
L 609.923445 30.12 
L 606.708002 30.12 
L 603.492559 30.12 
L 600.277116 30.12 
L 597.061672 30.12 
L 593.846229 30.12 
L 590.630786 30.12 
L 587.415343 30.12 
L 584.1999 30.12 
L 580.984456 30.12 
L 577.769013 30.12 
L 574.55357 30.12 
L 571.338127 30.12 
L 568.122684 30.12 
L 564.90724 30.12 
L 561.691797 30.12 
L 558.476354 30.12 
L 555.260911 30.12 
L 552.045468 30.12 
L 548.830024 30.12 
L 545.614581 30.12 
L 542.399138 30.12 
L 539.183695 30.12 
L 535.968252 30.12 
L 532.752808 30.12 
L 529.537365 30.12 
L 526.321922 30.12 
L 523.106479 30.12 
L 519.891036 30.12 
L 516.675593 30.12 
L 513.460149 30.12 
L 510.244706 30.12 
L 507.029263 30.12 
L 503.81382 30.12 
L 500.598377 30.12 
L 497.382933 30.12 
L 494.16749 30.12 
L 490.952047 30.12 
L 487.736604 30.12 
L 484.521161 30.12 
L 481.305717 30.12 
L 478.090274 30.12 
L 474.874831 30.12 
L 471.659388 30.12 
L 468.443945 30.12 
L 465.228501 30.12 
L 462.013058 30.12 
L 458.797615 30.12 
L 455.582172 30.12 
L 452.366729 30.12 
L 449.151285 30.12 
L 445.935842 30.12 
L 442.720399 30.12 
L 439.504956 30.12 
L 436.289513 30.12 
L 433.07407 30.12 
L 429.858626 30.12 
L 426.643183 30.12 
L 423.42774 113.686667 
L 420.212297 30.12 
L 416.996854 30.12 
L 413.78141 30.12 
L 410.565967 30.12 
L 407.350524 30.12 
L 404.135081 30.12 
L 400.919638 30.12 
L 397.704194 30.12 
L 394.488751 30.12 
L 391.273308 30.12 
L 388.057865 30.12 
L 384.842422 30.12 
L 381.626978 30.12 
L 378.411535 30.12 
L 375.196092 30.12 
L 371.980649 30.12 
L 368.765206 30.12 
L 365.549762 30.12 
L 362.334319 30.12 
L 359.118876 113.686667 
L 355.903433 30.12 
L 352.68799 30.12 
L 349.472546 30.12 
L 346.257103 30.12 
L 343.04166 30.12 
L 339.826217 30.12 
L 336.610774 30.12 
L 333.395331 30.12 
L 330.179887 30.12 
L 326.964444 30.12 
L 323.749001 30.12 
L 320.533558 30.12 
L 317.318115 30.12 
L 314.102671 30.12 
L 310.887228 30.12 
L 307.671785 30.12 
L 304.456342 30.12 
L 301.240899 30.12 
L 298.025455 30.12 
L 294.810012 30.12 
L 291.594569 30.12 
L 288.379126 30.12 
L 285.163683 30.12 
L 281.948239 30.12 
L 278.732796 30.12 
L 275.517353 30.12 
L 272.30191 30.12 
L 269.086467 30.12 
L 265.871023 30.12 
L 262.65558 30.12 
L 259.440137 30.12 
L 256.224694 30.12 
L 253.009251 30.12 
L 249.793808 30.12 
L 246.578364 30.12 
L 243.362921 30.12 
L 240.147478 30.12 
L 236.932035 30.12 
L 233.716592 30.12 
L 230.501148 30.12 
L 227.285705 30.12 
L 224.070262 30.12 
L 220.854819 30.12 
L 217.639376 30.12 
L 214.423932 30.12 
L 211.208489 30.12 
L 207.993046 30.12 
L 204.777603 30.12 
L 201.56216 30.12 
L 198.346716 30.12 
L 195.131273 30.12 
L 191.91583 30.12 
L 188.700387 30.12 
L 185.484944 30.12 
L 182.2695 30.12 
L 179.054057 30.12 
L 175.838614 30.12 
L 172.623171 30.12 
L 169.407728 30.12 
L 166.192285 30.12 
L 162.976841 80.26 
L 159.761398 30.12 
L 156.545955 531.52 
L 153.330512 30.12 
L 150.115069 30.12 
L 146.899625 30.12 
L 143.684182 75.701818 
L 140.468739 30.12 
L 137.253296 30.12 
L 134.037853 30.12 
L 130.822409 30.12 
L 127.606966 30.12 
L 124.391523 85.831111 
L 121.17608 30.12 
L 117.960637 30.12 
L 114.745193 30.12 
L 111.52975 30.12 
L 108.314307 30.12 
L 105.098864 30.12 
L 101.883421 30.12 
L 98.667977 30.12 
L 95.452534 30.12 
L 92.237091 30.12 
L 89.021648 30.12 
L 85.806205 30.12 
L 82.590762 30.12 
L 79.375318 30.12 
L 76.159875 30.12 
L 72.944432 37.181972 
L 69.728989 30.12 
L 66.513546 30.12 
L 63.298102 55.19 
L 60.082659 30.12 
L 56.867216 30.12 
L 53.651773 30.12 
L 50.43633 30.12 
L 47.220886 75.701818 
L 44.005443 30.12 
L 40.79 30.12 
z
" clip-path="url(#p41aab0db2e)" style="fill: #e8bc60"/>
   </g>
   <g id="FillBetweenPolyCollection_4">
    <path d="M 40.79 30.12 
L 40.79 30.12 
L 44.005443 30.12 
L 47.220886 75.701818 
L 50.43633 30.12 
L 53.651773 30.12 
L 56.867216 30.12 
L 60.082659 30.12 
L 63.298102 55.19 
L 66.513546 30.12 
L 69.728989 30.12 
L 72.944432 37.181972 
L 76.159875 30.12 
L 79.375318 30.12 
L 82.590762 30.12 
L 85.806205 30.12 
L 89.021648 30.12 
L 92.237091 30.12 
L 95.452534 30.12 
L 98.667977 30.12 
L 101.883421 30.12 
L 105.098864 30.12 
L 108.314307 30.12 
L 111.52975 30.12 
L 114.745193 30.12 
L 117.960637 30.12 
L 121.17608 30.12 
L 124.391523 85.831111 
L 127.606966 30.12 
L 130.822409 30.12 
L 134.037853 30.12 
L 137.253296 30.12 
L 140.468739 30.12 
L 143.684182 75.701818 
L 146.899625 30.12 
L 150.115069 30.12 
L 153.330512 30.12 
L 156.545955 531.52 
L 159.761398 30.12 
L 162.976841 80.26 
L 166.192285 30.12 
L 169.407728 30.12 
L 172.623171 30.12 
L 175.838614 30.12 
L 179.054057 30.12 
L 182.2695 30.12 
L 185.484944 30.12 
L 188.700387 30.12 
L 191.91583 30.12 
L 195.131273 30.12 
L 198.346716 30.12 
L 201.56216 30.12 
L 204.777603 30.12 
L 207.993046 30.12 
L 211.208489 30.12 
L 214.423932 30.12 
L 217.639376 30.12 
L 220.854819 30.12 
L 224.070262 30.12 
L 227.285705 30.12 
L 230.501148 30.12 
L 233.716592 30.12 
L 236.932035 30.12 
L 240.147478 30.12 
L 243.362921 30.12 
L 246.578364 30.12 
L 249.793808 30.12 
L 253.009251 30.12 
L 256.224694 30.12 
L 259.440137 30.12 
L 262.65558 30.12 
L 265.871023 30.12 
L 269.086467 30.12 
L 272.30191 30.12 
L 275.517353 30.12 
L 278.732796 30.12 
L 281.948239 30.12 
L 285.163683 30.12 
L 288.379126 30.12 
L 291.594569 30.12 
L 294.810012 30.12 
L 298.025455 30.12 
L 301.240899 30.12 
L 304.456342 30.12 
L 307.671785 30.12 
L 310.887228 30.12 
L 314.102671 30.12 
L 317.318115 30.12 
L 320.533558 30.12 
L 323.749001 30.12 
L 326.964444 30.12 
L 330.179887 30.12 
L 333.395331 30.12 
L 336.610774 30.12 
L 339.826217 30.12 
L 343.04166 30.12 
L 346.257103 30.12 
L 349.472546 30.12 
L 352.68799 30.12 
L 355.903433 30.12 
L 359.118876 113.686667 
L 362.334319 30.12 
L 365.549762 30.12 
L 368.765206 30.12 
L 371.980649 30.12 
L 375.196092 30.12 
L 378.411535 30.12 
L 381.626978 30.12 
L 384.842422 30.12 
L 388.057865 30.12 
L 391.273308 30.12 
L 394.488751 30.12 
L 397.704194 30.12 
L 400.919638 30.12 
L 404.135081 30.12 
L 407.350524 30.12 
L 410.565967 30.12 
L 413.78141 30.12 
L 416.996854 30.12 
L 420.212297 30.12 
L 423.42774 113.686667 
L 426.643183 30.12 
L 429.858626 30.12 
L 433.07407 30.12 
L 436.289513 30.12 
L 439.504956 30.12 
L 442.720399 30.12 
L 445.935842 30.12 
L 449.151285 30.12 
L 452.366729 30.12 
L 455.582172 30.12 
L 458.797615 30.12 
L 462.013058 30.12 
L 465.228501 30.12 
L 468.443945 30.12 
L 471.659388 30.12 
L 474.874831 30.12 
L 478.090274 30.12 
L 481.305717 30.12 
L 484.521161 30.12 
L 487.736604 30.12 
L 490.952047 30.12 
L 494.16749 30.12 
L 497.382933 30.12 
L 500.598377 30.12 
L 503.81382 30.12 
L 507.029263 30.12 
L 510.244706 30.12 
L 513.460149 30.12 
L 516.675593 30.12 
L 519.891036 30.12 
L 523.106479 30.12 
L 526.321922 30.12 
L 529.537365 30.12 
L 532.752808 30.12 
L 535.968252 30.12 
L 539.183695 30.12 
L 542.399138 30.12 
L 545.614581 30.12 
L 548.830024 30.12 
L 552.045468 30.12 
L 555.260911 30.12 
L 558.476354 30.12 
L 561.691797 30.12 
L 564.90724 30.12 
L 568.122684 30.12 
L 571.338127 30.12 
L 574.55357 30.12 
L 577.769013 30.12 
L 580.984456 30.12 
L 584.1999 30.12 
L 587.415343 30.12 
L 590.630786 30.12 
L 593.846229 30.12 
L 597.061672 30.12 
L 600.277116 30.12 
L 603.492559 30.12 
L 606.708002 30.12 
L 609.923445 30.12 
L 613.138888 30.12 
L 616.354331 30.12 
L 619.569775 30.12 
L 622.785218 30.12 
L 626.000661 30.12 
L 629.216104 30.12 
L 632.431547 30.12 
L 635.646991 30.12 
L 638.862434 30.12 
L 642.077877 92.795 
L 645.29332 30.12 
L 648.508763 30.12 
L 651.724207 30.12 
L 654.93965 30.12 
L 658.155093 30.12 
L 661.370536 30.12 
L 664.585979 30.12 
L 664.585979 30.12 
L 664.585979 30.12 
L 661.370536 30.12 
L 658.155093 30.12 
L 654.93965 30.12 
L 651.724207 30.12 
L 648.508763 30.12 
L 645.29332 30.12 
L 642.077877 30.12 
L 638.862434 30.12 
L 635.646991 30.12 
L 632.431547 30.12 
L 629.216104 30.12 
L 626.000661 30.12 
L 622.785218 30.12 
L 619.569775 30.12 
L 616.354331 30.12 
L 613.138888 30.12 
L 609.923445 30.12 
L 606.708002 30.12 
L 603.492559 30.12 
L 600.277116 30.12 
L 597.061672 30.12 
L 593.846229 30.12 
L 590.630786 30.12 
L 587.415343 30.12 
L 584.1999 30.12 
L 580.984456 30.12 
L 577.769013 30.12 
L 574.55357 30.12 
L 571.338127 30.12 
L 568.122684 30.12 
L 564.90724 30.12 
L 561.691797 30.12 
L 558.476354 30.12 
L 555.260911 30.12 
L 552.045468 30.12 
L 548.830024 30.12 
L 545.614581 30.12 
L 542.399138 30.12 
L 539.183695 30.12 
L 535.968252 30.12 
L 532.752808 30.12 
L 529.537365 30.12 
L 526.321922 30.12 
L 523.106479 30.12 
L 519.891036 30.12 
L 516.675593 30.12 
L 513.460149 30.12 
L 510.244706 30.12 
L 507.029263 30.12 
L 503.81382 30.12 
L 500.598377 30.12 
L 497.382933 30.12 
L 494.16749 30.12 
L 490.952047 30.12 
L 487.736604 30.12 
L 484.521161 30.12 
L 481.305717 30.12 
L 478.090274 30.12 
L 474.874831 30.12 
L 471.659388 30.12 
L 468.443945 30.12 
L 465.228501 30.12 
L 462.013058 30.12 
L 458.797615 30.12 
L 455.582172 30.12 
L 452.366729 30.12 
L 449.151285 30.12 
L 445.935842 30.12 
L 442.720399 30.12 
L 439.504956 30.12 
L 436.289513 30.12 
L 433.07407 30.12 
L 429.858626 30.12 
L 426.643183 30.12 
L 423.42774 30.12 
L 420.212297 30.12 
L 416.996854 30.12 
L 413.78141 30.12 
L 410.565967 30.12 
L 407.350524 30.12 
L 404.135081 30.12 
L 400.919638 30.12 
L 397.704194 30.12 
L 394.488751 30.12 
L 391.273308 30.12 
L 388.057865 30.12 
L 384.842422 30.12 
L 381.626978 30.12 
L 378.411535 30.12 
L 375.196092 30.12 
L 371.980649 30.12 
L 368.765206 30.12 
L 365.549762 30.12 
L 362.334319 30.12 
L 359.118876 30.12 
L 355.903433 30.12 
L 352.68799 30.12 
L 349.472546 30.12 
L 346.257103 30.12 
L 343.04166 30.12 
L 339.826217 30.12 
L 336.610774 30.12 
L 333.395331 30.12 
L 330.179887 30.12 
L 326.964444 30.12 
L 323.749001 30.12 
L 320.533558 30.12 
L 317.318115 30.12 
L 314.102671 30.12 
L 310.887228 30.12 
L 307.671785 30.12 
L 304.456342 30.12 
L 301.240899 30.12 
L 298.025455 30.12 
L 294.810012 30.12 
L 291.594569 30.12 
L 288.379126 30.12 
L 285.163683 30.12 
L 281.948239 30.12 
L 278.732796 30.12 
L 275.517353 30.12 
L 272.30191 30.12 
L 269.086467 30.12 
L 265.871023 30.12 
L 262.65558 30.12 
L 259.440137 30.12 
L 256.224694 30.12 
L 253.009251 30.12 
L 249.793808 30.12 
L 246.578364 30.12 
L 243.362921 30.12 
L 240.147478 30.12 
L 236.932035 30.12 
L 233.716592 30.12 
L 230.501148 30.12 
L 227.285705 30.12 
L 224.070262 30.12 
L 220.854819 30.12 
L 217.639376 30.12 
L 214.423932 30.12 
L 211.208489 30.12 
L 207.993046 30.12 
L 204.777603 30.12 
L 201.56216 30.12 
L 198.346716 30.12 
L 195.131273 30.12 
L 191.91583 30.12 
L 188.700387 30.12 
L 185.484944 30.12 
L 182.2695 30.12 
L 179.054057 30.12 
L 175.838614 30.12 
L 172.623171 30.12 
L 169.407728 30.12 
L 166.192285 30.12 
L 162.976841 30.12 
L 159.761398 30.12 
L 156.545955 30.12 
L 153.330512 30.12 
L 150.115069 30.12 
L 146.899625 30.12 
L 143.684182 30.12 
L 140.468739 30.12 
L 137.253296 30.12 
L 134.037853 30.12 
L 130.822409 30.12 
L 127.606966 30.12 
L 124.391523 30.12 
L 121.17608 30.12 
L 117.960637 30.12 
L 114.745193 30.12 
L 111.52975 30.12 
L 108.314307 30.12 
L 105.098864 30.12 
L 101.883421 30.12 
L 98.667977 30.12 
L 95.452534 30.12 
L 92.237091 30.12 
L 89.021648 30.12 
L 85.806205 30.12 
L 82.590762 30.12 
L 79.375318 30.12 
L 76.159875 30.12 
L 72.944432 30.12 
L 69.728989 30.12 
L 66.513546 30.12 
L 63.298102 30.12 
L 60.082659 30.12 
L 56.867216 30.12 
L 53.651773 30.12 
L 50.43633 30.12 
L 47.220886 30.12 
L 44.005443 30.12 
L 40.79 30.12 
z
" clip-path="url(#p41aab0db2e)" style="fill: #8d5993"/>
   </g>
   <g id="matplotlib.axis_1">
    <g id="xtick_1">
     <g id="line2d_1">
      <path d="M 117.960637 531.52 
L 117.960637 30.12 
" clip-path="url(#p41aab0db2e)" style="fill: none; stroke-dasharray: 2.96,1.28; stroke-dashoffset: 0; stroke: #b0b0b0; stroke-opacity: 0.5; stroke-width: 0.8"/>
     </g>
     <g id="line2d_2">
      <defs>
       <path id="me5d5134997" d="M 0 0 
L 0 3.5 
" style="stroke: #000000; stroke-width: 0.8"/>
      </defs>
      <g>
       <use xlink:href="#me5d5134997" x="117.960637" y="531.52" style="stroke: #000000; stroke-width: 0.8"/>
      </g>
     </g>
     <g id="text_1">
      <!-- 25 -->
      <g transform="translate(111.598137 546.118437) scale(0.1 -0.1)">
       <defs>
        <path id="DejaVuSans-32" d="M 1228 531 
L 3431 531 
L 3431 0 
L 469 0 
L 469 531 
Q 828 903 1448 1529 
Q 2069 2156 2228 2338 
Q 2531 2678 2651 2914 
Q 2772 3150 2772 3378 
Q 2772 3750 2511 3984 
Q 2250 4219 1831 4219 
Q 1534 4219 1204 4116 
Q 875 4013 500 3803 
L 500 4441 
Q 881 4594 1212 4672 
Q 1544 4750 1819 4750 
Q 2544 4750 2975 4387 
Q 3406 4025 3406 3419 
Q 3406 3131 3298 2873 
Q 3191 2616 2906 2266 
Q 2828 2175 2409 1742 
Q 1991 1309 1228 531 
z
" transform="scale(0.015625)"/>
        <path id="DejaVuSans-35" d="M 691 4666 
L 3169 4666 
L 3169 4134 
L 1269 4134 
L 1269 2991 
Q 1406 3038 1543 3061 
Q 1681 3084 1819 3084 
Q 2600 3084 3056 2656 
Q 3513 2228 3513 1497 
Q 3513 744 3044 326 
Q 2575 -91 1722 -91 
Q 1428 -91 1123 -41 
Q 819 9 494 109 
L 494 744 
Q 775 591 1075 516 
Q 1375 441 1709 441 
Q 2250 441 2565 725 
Q 2881 1009 2881 1497 
Q 2881 1984 2565 2268 
Q 2250 2553 1709 2553 
Q 1456 2553 1204 2497 
Q 953 2441 691 2322 
L 691 4666 
z
" transform="scale(0.015625)"/>
       </defs>
       <use xlink:href="#DejaVuSans-32"/>
       <use xlink:href="#DejaVuSans-35" transform="translate(63.623047 0)"/>
      </g>
     </g>
    </g>
    <g id="xtick_2">
     <g id="line2d_3">
      <path d="M 198.346716 531.52 
L 198.346716 30.12 
" clip-path="url(#p41aab0db2e)" style="fill: none; stroke-dasharray: 2.96,1.28; stroke-dashoffset: 0; stroke: #b0b0b0; stroke-opacity: 0.5; stroke-width: 0.8"/>
     </g>
     <g id="line2d_4">
      <g>
       <use xlink:href="#me5d5134997" x="198.346716" y="531.52" style="stroke: #000000; stroke-width: 0.8"/>
      </g>
     </g>
     <g id="text_2">
      <!-- 50 -->
      <g transform="translate(191.984216 546.118437) scale(0.1 -0.1)">
       <defs>
        <path id="DejaVuSans-30" d="M 2034 4250 
Q 1547 4250 1301 3770 
Q 1056 3291 1056 2328 
Q 1056 1369 1301 889 
Q 1547 409 2034 409 
Q 2525 409 2770 889 
Q 3016 1369 3016 2328 
Q 3016 3291 2770 3770 
Q 2525 4250 2034 4250 
z
M 2034 4750 
Q 2819 4750 3233 4129 
Q 3647 3509 3647 2328 
Q 3647 1150 3233 529 
Q 2819 -91 2034 -91 
Q 1250 -91 836 529 
Q 422 1150 422 2328 
Q 422 3509 836 4129 
Q 1250 4750 2034 4750 
z
" transform="scale(0.015625)"/>
       </defs>
       <use xlink:href="#DejaVuSans-35"/>
       <use xlink:href="#DejaVuSans-30" transform="translate(63.623047 0)"/>
      </g>
     </g>
    </g>
    <g id="xtick_3">
     <g id="line2d_5">
      <path d="M 278.732796 531.52 
L 278.732796 30.12 
" clip-path="url(#p41aab0db2e)" style="fill: none; stroke-dasharray: 2.96,1.28; stroke-dashoffset: 0; stroke: #b0b0b0; stroke-opacity: 0.5; stroke-width: 0.8"/>
     </g>
     <g id="line2d_6">
      <g>
       <use xlink:href="#me5d5134997" x="278.732796" y="531.52" style="stroke: #000000; stroke-width: 0.8"/>
      </g>
     </g>
     <g id="text_3">
      <!-- 75 -->
      <g transform="translate(272.370296 546.118437) scale(0.1 -0.1)">
       <defs>
        <path id="DejaVuSans-37" d="M 525 4666 
L 3525 4666 
L 3525 4397 
L 1831 0 
L 1172 0 
L 2766 4134 
L 525 4134 
L 525 4666 
z
" transform="scale(0.015625)"/>
       </defs>
       <use xlink:href="#DejaVuSans-37"/>
       <use xlink:href="#DejaVuSans-35" transform="translate(63.623047 0)"/>
      </g>
     </g>
    </g>
    <g id="xtick_4">
     <g id="line2d_7">
      <path d="M 359.118876 531.52 
L 359.118876 30.12 
" clip-path="url(#p41aab0db2e)" style="fill: none; stroke-dasharray: 2.96,1.28; stroke-dashoffset: 0; stroke: #b0b0b0; stroke-opacity: 0.5; stroke-width: 0.8"/>
     </g>
     <g id="line2d_8">
      <g>
       <use xlink:href="#me5d5134997" x="359.118876" y="531.52" style="stroke: #000000; stroke-width: 0.8"/>
      </g>
     </g>
     <g id="text_4">
      <!-- 100 -->
      <g transform="translate(349.575126 546.118437) scale(0.1 -0.1)">
       <defs>
        <path id="DejaVuSans-31" d="M 794 531 
L 1825 531 
L 1825 4091 
L 703 3866 
L 703 4441 
L 1819 4666 
L 2450 4666 
L 2450 531 
L 3481 531 
L 3481 0 
L 794 0 
L 794 531 
z
" transform="scale(0.015625)"/>
       </defs>
       <use xlink:href="#DejaVuSans-31"/>
       <use xlink:href="#DejaVuSans-30" transform="translate(63.623047 0)"/>
       <use xlink:href="#DejaVuSans-30" transform="translate(127.246094 0)"/>
      </g>
     </g>
    </g>
    <g id="xtick_5">
     <g id="line2d_9">
      <path d="M 439.504956 531.52 
L 439.504956 30.12 
" clip-path="url(#p41aab0db2e)" style="fill: none; stroke-dasharray: 2.96,1.28; stroke-dashoffset: 0; stroke: #b0b0b0; stroke-opacity: 0.5; stroke-width: 0.8"/>
     </g>
     <g id="line2d_10">
      <g>
       <use xlink:href="#me5d5134997" x="439.504956" y="531.52" style="stroke: #000000; stroke-width: 0.8"/>
      </g>
     </g>
     <g id="text_5">
      <!-- 125 -->
      <g transform="translate(429.961206 546.118437) scale(0.1 -0.1)">
       <use xlink:href="#DejaVuSans-31"/>
       <use xlink:href="#DejaVuSans-32" transform="translate(63.623047 0)"/>
       <use xlink:href="#DejaVuSans-35" transform="translate(127.246094 0)"/>
      </g>
     </g>
    </g>
    <g id="xtick_6">
     <g id="line2d_11">
      <path d="M 519.891036 531.52 
L 519.891036 30.12 
" clip-path="url(#p41aab0db2e)" style="fill: none; stroke-dasharray: 2.96,1.28; stroke-dashoffset: 0; stroke: #b0b0b0; stroke-opacity: 0.5; stroke-width: 0.8"/>
     </g>
     <g id="line2d_12">
      <g>
       <use xlink:href="#me5d5134997" x="519.891036" y="531.52" style="stroke: #000000; stroke-width: 0.8"/>
      </g>
     </g>
     <g id="text_6">
      <!-- 150 -->
      <g transform="translate(510.347286 546.118437) scale(0.1 -0.1)">
       <use xlink:href="#DejaVuSans-31"/>
       <use xlink:href="#DejaVuSans-35" transform="translate(63.623047 0)"/>
       <use xlink:href="#DejaVuSans-30" transform="translate(127.246094 0)"/>
      </g>
     </g>
    </g>
    <g id="xtick_7">
     <g id="line2d_13">
      <path d="M 600.277116 531.52 
L 600.277116 30.12 
" clip-path="url(#p41aab0db2e)" style="fill: none; stroke-dasharray: 2.96,1.28; stroke-dashoffset: 0; stroke: #b0b0b0; stroke-opacity: 0.5; stroke-width: 0.8"/>
     </g>
     <g id="line2d_14">
      <g>
       <use xlink:href="#me5d5134997" x="600.277116" y="531.52" style="stroke: #000000; stroke-width: 0.8"/>
      </g>
     </g>
     <g id="text_7">
      <!-- 175 -->
      <g transform="translate(590.733366 546.118437) scale(0.1 -0.1)">
       <use xlink:href="#DejaVuSans-31"/>
       <use xlink:href="#DejaVuSans-37" transform="translate(63.623047 0)"/>
       <use xlink:href="#DejaVuSans-35" transform="translate(127.246094 0)"/>
      </g>
     </g>
    </g>
    <g id="text_8">
     <!-- Session Count -->
     <g transform="translate(312.430333 561.919375) scale(0.14 -0.14)">
      <defs>
       <path id="TimesNewRomanPSMT-53" d="M 2934 4334 
L 2934 2869 
L 2819 2869 
Q 2763 3291 2617 3541 
Q 2472 3791 2203 3937 
Q 1934 4084 1647 4084 
Q 1322 4084 1109 3886 
Q 897 3688 897 3434 
Q 897 3241 1031 3081 
Q 1225 2847 1953 2456 
Q 2547 2138 2764 1967 
Q 2981 1797 3098 1565 
Q 3216 1334 3216 1081 
Q 3216 600 2842 251 
Q 2469 -97 1881 -97 
Q 1697 -97 1534 -69 
Q 1438 -53 1133 45 
Q 828 144 747 144 
Q 669 144 623 97 
Q 578 50 556 -97 
L 441 -97 
L 441 1356 
L 556 1356 
Q 638 900 775 673 
Q 913 447 1195 297 
Q 1478 147 1816 147 
Q 2206 147 2432 353 
Q 2659 559 2659 841 
Q 2659 997 2573 1156 
Q 2488 1316 2306 1453 
Q 2184 1547 1640 1851 
Q 1097 2156 867 2337 
Q 638 2519 519 2737 
Q 400 2956 400 3219 
Q 400 3675 750 4004 
Q 1100 4334 1641 4334 
Q 1978 4334 2356 4169 
Q 2531 4091 2603 4091 
Q 2684 4091 2736 4139 
Q 2788 4188 2819 4334 
L 2934 4334 
z
" transform="scale(0.015625)"/>
       <path id="TimesNewRomanPSMT-65" d="M 681 1784 
Q 678 1147 991 784 
Q 1303 422 1725 422 
Q 2006 422 2214 576 
Q 2422 731 2563 1106 
L 2659 1044 
Q 2594 616 2278 264 
Q 1963 -88 1488 -88 
Q 972 -88 605 314 
Q 238 716 238 1394 
Q 238 2128 614 2539 
Q 991 2950 1559 2950 
Q 2041 2950 2350 2633 
Q 2659 2316 2659 1784 
L 681 1784 
z
M 681 1966 
L 2006 1966 
Q 1991 2241 1941 2353 
Q 1863 2528 1708 2628 
Q 1553 2728 1384 2728 
Q 1125 2728 920 2526 
Q 716 2325 681 1966 
z
" transform="scale(0.015625)"/>
       <path id="TimesNewRomanPSMT-73" d="M 2050 2947 
L 2050 1972 
L 1947 1972 
Q 1828 2431 1642 2597 
Q 1456 2763 1169 2763 
Q 950 2763 815 2647 
Q 681 2531 681 2391 
Q 681 2216 781 2091 
Q 878 1963 1175 1819 
L 1631 1597 
Q 2266 1288 2266 781 
Q 2266 391 1970 151 
Q 1675 -88 1309 -88 
Q 1047 -88 709 6 
Q 606 38 541 38 
Q 469 38 428 -44 
L 325 -44 
L 325 978 
L 428 978 
Q 516 541 762 319 
Q 1009 97 1316 97 
Q 1531 97 1667 223 
Q 1803 350 1803 528 
Q 1803 744 1651 891 
Q 1500 1038 1047 1263 
Q 594 1488 453 1669 
Q 313 1847 313 2119 
Q 313 2472 555 2709 
Q 797 2947 1181 2947 
Q 1350 2947 1591 2875 
Q 1750 2828 1803 2828 
Q 1853 2828 1881 2850 
Q 1909 2872 1947 2947 
L 2050 2947 
z
" transform="scale(0.015625)"/>
       <path id="TimesNewRomanPSMT-69" d="M 928 4444 
Q 1059 4444 1151 4351 
Q 1244 4259 1244 4128 
Q 1244 3997 1151 3903 
Q 1059 3809 928 3809 
Q 797 3809 703 3903 
Q 609 3997 609 4128 
Q 609 4259 701 4351 
Q 794 4444 928 4444 
z
M 1188 2947 
L 1188 647 
Q 1188 378 1227 289 
Q 1266 200 1342 156 
Q 1419 113 1622 113 
L 1622 0 
L 231 0 
L 231 113 
Q 441 113 512 153 
Q 584 194 626 287 
Q 669 381 669 647 
L 669 1750 
Q 669 2216 641 2353 
Q 619 2453 572 2492 
Q 525 2531 444 2531 
Q 356 2531 231 2484 
L 188 2597 
L 1050 2947 
L 1188 2947 
z
" transform="scale(0.015625)"/>
       <path id="TimesNewRomanPSMT-6f" d="M 1600 2947 
Q 2250 2947 2644 2453 
Q 2978 2031 2978 1484 
Q 2978 1100 2793 706 
Q 2609 313 2286 112 
Q 1963 -88 1566 -88 
Q 919 -88 538 428 
Q 216 863 216 1403 
Q 216 1797 411 2186 
Q 606 2575 925 2761 
Q 1244 2947 1600 2947 
z
M 1503 2744 
Q 1338 2744 1170 2645 
Q 1003 2547 900 2300 
Q 797 2053 797 1666 
Q 797 1041 1045 587 
Q 1294 134 1700 134 
Q 2003 134 2200 384 
Q 2397 634 2397 1244 
Q 2397 2006 2069 2444 
Q 1847 2744 1503 2744 
z
" transform="scale(0.015625)"/>
       <path id="TimesNewRomanPSMT-6e" d="M 1034 2341 
Q 1538 2947 1994 2947 
Q 2228 2947 2397 2830 
Q 2566 2713 2666 2444 
Q 2734 2256 2734 1869 
L 2734 647 
Q 2734 375 2778 278 
Q 2813 200 2889 156 
Q 2966 113 3172 113 
L 3172 0 
L 1756 0 
L 1756 113 
L 1816 113 
Q 2016 113 2095 173 
Q 2175 234 2206 353 
Q 2219 400 2219 647 
L 2219 1819 
Q 2219 2209 2117 2386 
Q 2016 2563 1775 2563 
Q 1403 2563 1034 2156 
L 1034 647 
Q 1034 356 1069 288 
Q 1113 197 1189 155 
Q 1266 113 1500 113 
L 1500 0 
L 84 0 
L 84 113 
L 147 113 
Q 366 113 442 223 
Q 519 334 519 647 
L 519 1709 
Q 519 2225 495 2337 
Q 472 2450 423 2490 
Q 375 2531 294 2531 
Q 206 2531 84 2484 
L 38 2597 
L 900 2947 
L 1034 2947 
L 1034 2341 
z
" transform="scale(0.015625)"/>
       <path id="TimesNewRomanPSMT-20" transform="scale(0.015625)"/>
       <path id="TimesNewRomanPSMT-43" d="M 3853 4334 
L 3950 2894 
L 3853 2894 
Q 3659 3541 3300 3825 
Q 2941 4109 2438 4109 
Q 2016 4109 1675 3895 
Q 1334 3681 1139 3212 
Q 944 2744 944 2047 
Q 944 1472 1128 1050 
Q 1313 628 1683 403 
Q 2053 178 2528 178 
Q 2941 178 3256 354 
Q 3572 531 3950 1056 
L 4047 994 
Q 3728 428 3303 165 
Q 2878 -97 2294 -97 
Q 1241 -97 663 684 
Q 231 1266 231 2053 
Q 231 2688 515 3219 
Q 800 3750 1298 4042 
Q 1797 4334 2388 4334 
Q 2847 4334 3294 4109 
Q 3425 4041 3481 4041 
Q 3566 4041 3628 4100 
Q 3709 4184 3744 4334 
L 3853 4334 
z
" transform="scale(0.015625)"/>
       <path id="TimesNewRomanPSMT-75" d="M 2709 2863 
L 2709 1128 
Q 2709 631 2732 520 
Q 2756 409 2807 365 
Q 2859 322 2928 322 
Q 3025 322 3147 375 
L 3191 266 
L 2334 -88 
L 2194 -88 
L 2194 519 
Q 1825 119 1631 15 
Q 1438 -88 1222 -88 
Q 981 -88 804 51 
Q 628 191 559 409 
Q 491 628 491 1028 
L 491 2306 
Q 491 2509 447 2587 
Q 403 2666 317 2708 
Q 231 2750 6 2747 
L 6 2863 
L 1009 2863 
L 1009 947 
Q 1009 547 1148 422 
Q 1288 297 1484 297 
Q 1619 297 1789 381 
Q 1959 466 2194 703 
L 2194 2325 
Q 2194 2569 2105 2655 
Q 2016 2741 1734 2747 
L 1734 2863 
L 2709 2863 
z
" transform="scale(0.015625)"/>
       <path id="TimesNewRomanPSMT-74" d="M 1031 3803 
L 1031 2863 
L 1700 2863 
L 1700 2644 
L 1031 2644 
L 1031 788 
Q 1031 509 1111 412 
Q 1191 316 1316 316 
Q 1419 316 1516 380 
Q 1613 444 1666 569 
L 1788 569 
Q 1678 263 1478 108 
Q 1278 -47 1066 -47 
Q 922 -47 784 33 
Q 647 113 581 261 
Q 516 409 516 719 
L 516 2644 
L 63 2644 
L 63 2747 
Q 234 2816 414 2980 
Q 594 3144 734 3369 
Q 806 3488 934 3803 
L 1031 3803 
z
" transform="scale(0.015625)"/>
      </defs>
      <use xlink:href="#TimesNewRomanPSMT-53"/>
      <use xlink:href="#TimesNewRomanPSMT-65" transform="translate(55.615234 0)"/>
      <use xlink:href="#TimesNewRomanPSMT-73" transform="translate(100 0)"/>
      <use xlink:href="#TimesNewRomanPSMT-73" transform="translate(138.916016 0)"/>
      <use xlink:href="#TimesNewRomanPSMT-69" transform="translate(177.832031 0)"/>
      <use xlink:href="#TimesNewRomanPSMT-6f" transform="translate(205.615234 0)"/>
      <use xlink:href="#TimesNewRomanPSMT-6e" transform="translate(255.615234 0)"/>
      <use xlink:href="#TimesNewRomanPSMT-20" transform="translate(305.615234 0)"/>
      <use xlink:href="#TimesNewRomanPSMT-43" transform="translate(330.615234 0)"/>
      <use xlink:href="#TimesNewRomanPSMT-6f" transform="translate(397.314453 0)"/>
      <use xlink:href="#TimesNewRomanPSMT-75" transform="translate(447.314453 0)"/>
      <use xlink:href="#TimesNewRomanPSMT-6e" transform="translate(497.314453 0)"/>
      <use xlink:href="#TimesNewRomanPSMT-74" transform="translate(547.314453 0)"/>
     </g>
    </g>
   </g>
   <g id="matplotlib.axis_2">
    <g id="ytick_1">
     <g id="line2d_15">
      <path d="M 40.79 531.52 
L 664.585979 531.52 
" clip-path="url(#p41aab0db2e)" style="fill: none; stroke-dasharray: 2.96,1.28; stroke-dashoffset: 0; stroke: #b0b0b0; stroke-opacity: 0.5; stroke-width: 0.8"/>
     </g>
     <g id="line2d_16">
      <defs>
       <path id="m6f049d937c" d="M 0 0 
L -3.5 0 
" style="stroke: #000000; stroke-width: 0.8"/>
      </defs>
      <g>
       <use xlink:href="#m6f049d937c" x="40.79" y="531.52" style="stroke: #000000; stroke-width: 0.8"/>
      </g>
     </g>
     <g id="text_9">
      <!-- 0 -->
      <g transform="translate(27.4275 535.319219) scale(0.1 -0.1)">
       <use xlink:href="#DejaVuSans-30"/>
      </g>
     </g>
    </g>
    <g id="ytick_2">
     <g id="line2d_17">
      <path d="M 40.79 30.12 
L 664.585979 30.12 
" clip-path="url(#p41aab0db2e)" style="fill: none; stroke-dasharray: 2.96,1.28; stroke-dashoffset: 0; stroke: #b0b0b0; stroke-opacity: 0.5; stroke-width: 0.8"/>
     </g>
     <g id="line2d_18">
      <g>
       <use xlink:href="#m6f049d937c" x="40.79" y="30.12" style="stroke: #000000; stroke-width: 0.8"/>
      </g>
     </g>
     <g id="text_10">
      <!-- 1 -->
      <g transform="translate(27.4275 33.919219) scale(0.1 -0.1)">
       <use xlink:href="#DejaVuSans-31"/>
      </g>
     </g>
    </g>
    <g id="text_11">
     <!-- Stacked Proportion -->
     <g transform="translate(20.432813 334.672969) rotate(-90) scale(0.14 -0.14)">
      <defs>
       <path id="TimesNewRomanPSMT-61" d="M 1822 413 
Q 1381 72 1269 19 
Q 1100 -59 909 -59 
Q 613 -59 420 144 
Q 228 347 228 678 
Q 228 888 322 1041 
Q 450 1253 767 1440 
Q 1084 1628 1822 1897 
L 1822 2009 
Q 1822 2438 1686 2597 
Q 1550 2756 1291 2756 
Q 1094 2756 978 2650 
Q 859 2544 859 2406 
L 866 2225 
Q 866 2081 792 2003 
Q 719 1925 600 1925 
Q 484 1925 411 2006 
Q 338 2088 338 2228 
Q 338 2497 613 2722 
Q 888 2947 1384 2947 
Q 1766 2947 2009 2819 
Q 2194 2722 2281 2516 
Q 2338 2381 2338 1966 
L 2338 994 
Q 2338 584 2353 492 
Q 2369 400 2405 369 
Q 2441 338 2488 338 
Q 2538 338 2575 359 
Q 2641 400 2828 588 
L 2828 413 
Q 2478 -56 2159 -56 
Q 2006 -56 1915 50 
Q 1825 156 1822 413 
z
M 1822 616 
L 1822 1706 
Q 1350 1519 1213 1441 
Q 966 1303 859 1153 
Q 753 1003 753 825 
Q 753 600 887 451 
Q 1022 303 1197 303 
Q 1434 303 1822 616 
z
" transform="scale(0.015625)"/>
       <path id="TimesNewRomanPSMT-63" d="M 2631 1088 
Q 2516 522 2178 217 
Q 1841 -88 1431 -88 
Q 944 -88 581 321 
Q 219 731 219 1428 
Q 219 2103 620 2525 
Q 1022 2947 1584 2947 
Q 2006 2947 2278 2723 
Q 2550 2500 2550 2259 
Q 2550 2141 2473 2067 
Q 2397 1994 2259 1994 
Q 2075 1994 1981 2113 
Q 1928 2178 1911 2362 
Q 1894 2547 1784 2644 
Q 1675 2738 1481 2738 
Q 1169 2738 978 2506 
Q 725 2200 725 1697 
Q 725 1184 976 792 
Q 1228 400 1656 400 
Q 1963 400 2206 609 
Q 2378 753 2541 1131 
L 2631 1088 
z
" transform="scale(0.015625)"/>
       <path id="TimesNewRomanPSMT-6b" d="M 1047 4444 
L 1047 1594 
L 1775 2259 
Q 2006 2472 2044 2528 
Q 2069 2566 2069 2603 
Q 2069 2666 2017 2711 
Q 1966 2756 1847 2763 
L 1847 2863 
L 3091 2863 
L 3091 2763 
Q 2834 2756 2664 2684 
Q 2494 2613 2291 2428 
L 1556 1750 
L 2291 822 
Q 2597 438 2703 334 
Q 2853 188 2966 144 
Q 3044 113 3238 113 
L 3238 0 
L 1847 0 
L 1847 113 
Q 1966 116 2008 148 
Q 2050 181 2050 241 
Q 2050 313 1925 472 
L 1047 1594 
L 1047 644 
Q 1047 366 1086 278 
Q 1125 191 1197 153 
Q 1269 116 1509 113 
L 1509 0 
L 53 0 
L 53 113 
Q 272 113 381 166 
Q 447 200 481 272 
Q 528 375 528 628 
L 528 3234 
Q 528 3731 506 3842 
Q 484 3953 434 3995 
Q 384 4038 303 4038 
Q 238 4038 106 3984 
L 53 4094 
L 903 4444 
L 1047 4444 
z
" transform="scale(0.015625)"/>
       <path id="TimesNewRomanPSMT-64" d="M 2222 322 
Q 2013 103 1813 7 
Q 1613 -88 1381 -88 
Q 913 -88 563 304 
Q 213 697 213 1313 
Q 213 1928 600 2439 
Q 988 2950 1597 2950 
Q 1975 2950 2222 2709 
L 2222 3238 
Q 2222 3728 2198 3840 
Q 2175 3953 2125 3993 
Q 2075 4034 2000 4034 
Q 1919 4034 1784 3984 
L 1744 4094 
L 2597 4444 
L 2738 4444 
L 2738 1134 
Q 2738 631 2761 520 
Q 2784 409 2836 365 
Q 2888 322 2956 322 
Q 3041 322 3181 375 
L 3216 266 
L 2366 -88 
L 2222 -88 
L 2222 322 
z
M 2222 541 
L 2222 2016 
Q 2203 2228 2109 2403 
Q 2016 2578 1861 2667 
Q 1706 2756 1559 2756 
Q 1284 2756 1069 2509 
Q 784 2184 784 1559 
Q 784 928 1059 592 
Q 1334 256 1672 256 
Q 1956 256 2222 541 
z
" transform="scale(0.015625)"/>
       <path id="TimesNewRomanPSMT-50" d="M 1313 1984 
L 1313 750 
Q 1313 350 1400 253 
Q 1519 116 1759 116 
L 1922 116 
L 1922 0 
L 106 0 
L 106 116 
L 266 116 
Q 534 116 650 291 
Q 713 388 713 750 
L 713 3488 
Q 713 3888 628 3984 
Q 506 4122 266 4122 
L 106 4122 
L 106 4238 
L 1659 4238 
Q 2228 4238 2556 4120 
Q 2884 4003 3109 3725 
Q 3334 3447 3334 3066 
Q 3334 2547 2992 2222 
Q 2650 1897 2025 1897 
Q 1872 1897 1694 1919 
Q 1516 1941 1313 1984 
z
M 1313 2163 
Q 1478 2131 1606 2115 
Q 1734 2100 1825 2100 
Q 2150 2100 2386 2351 
Q 2622 2603 2622 3003 
Q 2622 3278 2509 3514 
Q 2397 3750 2190 3867 
Q 1984 3984 1722 3984 
Q 1563 3984 1313 3925 
L 1313 2163 
z
" transform="scale(0.015625)"/>
       <path id="TimesNewRomanPSMT-72" d="M 1038 2947 
L 1038 2303 
Q 1397 2947 1775 2947 
Q 1947 2947 2059 2842 
Q 2172 2738 2172 2600 
Q 2172 2478 2090 2393 
Q 2009 2309 1897 2309 
Q 1788 2309 1652 2417 
Q 1516 2525 1450 2525 
Q 1394 2525 1328 2463 
Q 1188 2334 1038 2041 
L 1038 669 
Q 1038 431 1097 309 
Q 1138 225 1241 169 
Q 1344 113 1538 113 
L 1538 0 
L 72 0 
L 72 113 
Q 291 113 397 181 
Q 475 231 506 341 
Q 522 394 522 644 
L 522 1753 
Q 522 2253 501 2348 
Q 481 2444 426 2487 
Q 372 2531 291 2531 
Q 194 2531 72 2484 
L 41 2597 
L 906 2947 
L 1038 2947 
z
" transform="scale(0.015625)"/>
       <path id="TimesNewRomanPSMT-70" d="M -6 2578 
L 875 2934 
L 994 2934 
L 994 2266 
Q 1216 2644 1439 2795 
Q 1663 2947 1909 2947 
Q 2341 2947 2628 2609 
Q 2981 2197 2981 1534 
Q 2981 794 2556 309 
Q 2206 -88 1675 -88 
Q 1444 -88 1275 -22 
Q 1150 25 994 166 
L 994 -706 
Q 994 -1000 1030 -1079 
Q 1066 -1159 1155 -1206 
Q 1244 -1253 1478 -1253 
L 1478 -1369 
L -22 -1369 
L -22 -1253 
L 56 -1253 
Q 228 -1256 350 -1188 
Q 409 -1153 442 -1076 
Q 475 -1000 475 -688 
L 475 2019 
Q 475 2297 450 2372 
Q 425 2447 370 2484 
Q 316 2522 222 2522 
Q 147 2522 31 2478 
L -6 2578 
z
M 994 2081 
L 994 1013 
Q 994 666 1022 556 
Q 1066 375 1236 237 
Q 1406 100 1666 100 
Q 1978 100 2172 344 
Q 2425 663 2425 1241 
Q 2425 1897 2138 2250 
Q 1938 2494 1663 2494 
Q 1513 2494 1366 2419 
Q 1253 2363 994 2081 
z
" transform="scale(0.015625)"/>
      </defs>
      <use xlink:href="#TimesNewRomanPSMT-53"/>
      <use xlink:href="#TimesNewRomanPSMT-74" transform="translate(55.615234 0)"/>
      <use xlink:href="#TimesNewRomanPSMT-61" transform="translate(83.398438 0)"/>
      <use xlink:href="#TimesNewRomanPSMT-63" transform="translate(127.783203 0)"/>
      <use xlink:href="#TimesNewRomanPSMT-6b" transform="translate(172.167969 0)"/>
      <use xlink:href="#TimesNewRomanPSMT-65" transform="translate(222.167969 0)"/>
      <use xlink:href="#TimesNewRomanPSMT-64" transform="translate(266.552734 0)"/>
      <use xlink:href="#TimesNewRomanPSMT-20" transform="translate(316.552734 0)"/>
      <use xlink:href="#TimesNewRomanPSMT-50" transform="translate(341.552734 0)"/>
      <use xlink:href="#TimesNewRomanPSMT-72" transform="translate(397.167969 0)"/>
      <use xlink:href="#TimesNewRomanPSMT-6f" transform="translate(430.46875 0)"/>
      <use xlink:href="#TimesNewRomanPSMT-70" transform="translate(480.46875 0)"/>
      <use xlink:href="#TimesNewRomanPSMT-6f" transform="translate(530.46875 0)"/>
      <use xlink:href="#TimesNewRomanPSMT-72" transform="translate(580.46875 0)"/>
      <use xlink:href="#TimesNewRomanPSMT-74" transform="translate(613.769531 0)"/>
      <use xlink:href="#TimesNewRomanPSMT-69" transform="translate(641.552734 0)"/>
      <use xlink:href="#TimesNewRomanPSMT-6f" transform="translate(669.335938 0)"/>
      <use xlink:href="#TimesNewRomanPSMT-6e" transform="translate(719.335938 0)"/>
     </g>
    </g>
   </g>
   <g id="line2d_19">
    <path d="M 40.79 165.571986 
L 664.585979 165.571986 
" clip-path="url(#p41aab0db2e)" style="fill: none; stroke-dasharray: 7.5,15; stroke-dashoffset: 0; stroke: #000000; stroke-width: 1.5"/>
   </g>
   <g id="patch_3">
    <path d="M 40.79 531.52 
L 40.79 30.12 
" style="fill: none; stroke: #000000; stroke-width: 0.8; stroke-linejoin: miter; stroke-linecap: square"/>
   </g>
   <g id="patch_4">
    <path d="M 664.585979 531.52 
L 664.585979 30.12 
" style="fill: none; stroke: #000000; stroke-width: 0.8; stroke-linejoin: miter; stroke-linecap: square"/>
   </g>
   <g id="patch_5">
    <path d="M 40.79 531.52 
L 664.585979 531.52 
" style="fill: none; stroke: #000000; stroke-width: 0.8; stroke-linejoin: miter; stroke-linecap: square"/>
   </g>
   <g id="patch_6">
    <path d="M 40.79 30.12 
L 664.585979 30.12 
" style="fill: none; stroke: #000000; stroke-width: 0.8; stroke-linejoin: miter; stroke-linecap: square"/>
   </g>
   <g id="text_12">
    <!-- 0.73 -->
    <g transform="translate(687.094082 168.935268) scale(0.14 -0.14)">
     <defs>
      <path id="TimesNewRomanPSMT-30" d="M 231 2094 
Q 231 2819 450 3342 
Q 669 3866 1031 4122 
Q 1313 4325 1613 4325 
Q 2100 4325 2488 3828 
Q 2972 3213 2972 2159 
Q 2972 1422 2759 906 
Q 2547 391 2217 158 
Q 1888 -75 1581 -75 
Q 975 -75 572 641 
Q 231 1244 231 2094 
z
M 844 2016 
Q 844 1141 1059 588 
Q 1238 122 1591 122 
Q 1759 122 1940 273 
Q 2122 425 2216 781 
Q 2359 1319 2359 2297 
Q 2359 3022 2209 3506 
Q 2097 3866 1919 4016 
Q 1791 4119 1609 4119 
Q 1397 4119 1231 3928 
Q 1006 3669 925 3112 
Q 844 2556 844 2016 
z
" transform="scale(0.015625)"/>
      <path id="TimesNewRomanPSMT-2e" d="M 800 606 
Q 947 606 1047 504 
Q 1147 403 1147 259 
Q 1147 116 1045 14 
Q 944 -88 800 -88 
Q 656 -88 554 14 
Q 453 116 453 259 
Q 453 406 554 506 
Q 656 606 800 606 
z
" transform="scale(0.015625)"/>
      <path id="TimesNewRomanPSMT-37" d="M 644 4238 
L 2916 4238 
L 2916 4119 
L 1503 -88 
L 1153 -88 
L 2419 3728 
L 1253 3728 
Q 900 3728 750 3644 
Q 488 3500 328 3200 
L 238 3234 
L 644 4238 
z
" transform="scale(0.015625)"/>
      <path id="TimesNewRomanPSMT-33" d="M 325 3431 
Q 506 3859 782 4092 
Q 1059 4325 1472 4325 
Q 1981 4325 2253 3994 
Q 2459 3747 2459 3466 
Q 2459 3003 1878 2509 
Q 2269 2356 2469 2072 
Q 2669 1788 2669 1403 
Q 2669 853 2319 450 
Q 1863 -75 997 -75 
Q 569 -75 414 31 
Q 259 138 259 259 
Q 259 350 332 419 
Q 406 488 509 488 
Q 588 488 669 463 
Q 722 447 909 348 
Q 1097 250 1169 231 
Q 1284 197 1416 197 
Q 1734 197 1970 444 
Q 2206 691 2206 1028 
Q 2206 1275 2097 1509 
Q 2016 1684 1919 1775 
Q 1784 1900 1550 2001 
Q 1316 2103 1072 2103 
L 972 2103 
L 972 2197 
Q 1219 2228 1467 2375 
Q 1716 2522 1828 2728 
Q 1941 2934 1941 3181 
Q 1941 3503 1739 3701 
Q 1538 3900 1238 3900 
Q 753 3900 428 3381 
L 325 3431 
z
" transform="scale(0.015625)"/>
     </defs>
     <use xlink:href="#TimesNewRomanPSMT-30"/>
     <use xlink:href="#TimesNewRomanPSMT-2e" transform="translate(50 0)"/>
     <use xlink:href="#TimesNewRomanPSMT-37" transform="translate(75 0)"/>
     <use xlink:href="#TimesNewRomanPSMT-33" transform="translate(125 0)"/>
    </g>
   </g>
   <g id="text_13">
    <!-- Yvan (Rhesus) -->
    <g transform="translate(291.291115 24.12) scale(0.2 -0.2)">
     <defs>
      <path id="TimesNewRomanPS-BoldMT-59" d="M 4550 4238 
L 4550 4122 
Q 4341 4094 4228 4000 
Q 4072 3869 3734 3284 
L 2816 1750 
L 2816 725 
Q 2816 397 2850 317 
Q 2884 238 2986 177 
Q 3088 116 3256 116 
L 3494 116 
L 3494 0 
L 1116 0 
L 1116 116 
L 1338 116 
Q 1525 116 1634 181 
Q 1716 225 1763 331 
Q 1797 406 1797 725 
L 1797 1575 
L 800 3391 
Q 503 3928 381 4023 
Q 259 4119 56 4122 
L 56 4238 
L 2088 4238 
L 2088 4122 
L 1997 4122 
Q 1813 4122 1739 4069 
Q 1666 4016 1666 3956 
Q 1666 3844 1916 3391 
L 2681 1988 
L 3444 3266 
Q 3728 3734 3728 3888 
Q 3728 3972 3647 4028 
Q 3541 4106 3256 4122 
L 3256 4238 
L 4550 4238 
z
" transform="scale(0.015625)"/>
      <path id="TimesNewRomanPS-BoldMT-76" d="M 1534 -88 
L 550 2178 
Q 372 2588 272 2697 
Q 200 2778 59 2806 
L 59 2922 
L 1613 2922 
L 1613 2806 
Q 1466 2806 1413 2753 
Q 1338 2684 1338 2591 
Q 1338 2475 1475 2156 
L 1956 1059 
L 2341 2006 
Q 2506 2413 2506 2581 
Q 2506 2678 2436 2739 
Q 2366 2800 2188 2806 
L 2188 2922 
L 3144 2922 
L 3144 2806 
Q 3006 2788 2918 2703 
Q 2831 2619 2656 2206 
L 1681 -88 
L 1534 -88 
z
" transform="scale(0.015625)"/>
      <path id="TimesNewRomanPS-BoldMT-61" d="M 1828 431 
Q 1294 -41 869 -41 
Q 619 -41 453 123 
Q 288 288 288 534 
Q 288 869 575 1136 
Q 863 1403 1828 1847 
L 1828 2141 
Q 1828 2472 1792 2558 
Q 1756 2644 1656 2708 
Q 1556 2772 1431 2772 
Q 1228 2772 1097 2681 
Q 1016 2625 1016 2550 
Q 1016 2484 1103 2388 
Q 1222 2253 1222 2128 
Q 1222 1975 1108 1867 
Q 994 1759 809 1759 
Q 613 1759 480 1878 
Q 347 1997 347 2156 
Q 347 2381 525 2586 
Q 703 2791 1022 2900 
Q 1341 3009 1684 3009 
Q 2100 3009 2342 2832 
Q 2584 2656 2656 2450 
Q 2700 2319 2700 1847 
L 2700 713 
Q 2700 513 2715 461 
Q 2731 409 2762 384 
Q 2794 359 2834 359 
Q 2916 359 3000 475 
L 3094 400 
Q 2938 169 2770 64 
Q 2603 -41 2391 -41 
Q 2141 -41 2000 76 
Q 1859 194 1828 431 
z
M 1828 659 
L 1828 1638 
Q 1450 1416 1266 1163 
Q 1144 994 1144 822 
Q 1144 678 1247 569 
Q 1325 484 1466 484 
Q 1622 484 1828 659 
z
" transform="scale(0.015625)"/>
      <path id="TimesNewRomanPS-BoldMT-6e" d="M 1409 2922 
L 1409 2544 
Q 1634 2788 1840 2898 
Q 2047 3009 2284 3009 
Q 2569 3009 2756 2851 
Q 2944 2694 3006 2459 
Q 3056 2281 3056 1775 
L 3056 638 
Q 3056 300 3117 217 
Q 3178 134 3372 113 
L 3372 0 
L 1894 0 
L 1894 113 
Q 2059 134 2131 250 
Q 2181 328 2181 638 
L 2181 1938 
Q 2181 2297 2153 2390 
Q 2125 2484 2058 2536 
Q 1991 2588 1909 2588 
Q 1641 2588 1409 2203 
L 1409 638 
Q 1409 309 1470 221 
Q 1531 134 1697 113 
L 1697 0 
L 219 0 
L 219 113 
Q 403 131 481 231 
Q 534 300 534 638 
L 534 2288 
Q 534 2619 473 2700 
Q 413 2781 219 2806 
L 219 2922 
L 1409 2922 
z
" transform="scale(0.015625)"/>
      <path id="TimesNewRomanPS-BoldMT-20" transform="scale(0.015625)"/>
      <path id="TimesNewRomanPS-BoldMT-28" d="M 2056 4334 
L 2056 4191 
Q 1731 3978 1578 3775 
Q 1366 3494 1247 3053 
Q 1097 2506 1097 1525 
Q 1097 600 1233 87 
Q 1369 -425 1603 -741 
Q 1766 -959 2056 -1125 
L 2056 -1281 
Q 1303 -1028 779 -248 
Q 256 531 256 1544 
Q 256 2544 778 3314 
Q 1300 4084 2056 4334 
z
" transform="scale(0.015625)"/>
      <path id="TimesNewRomanPS-BoldMT-52" d="M 1700 1931 
L 1700 744 
Q 1700 400 1742 311 
Q 1784 222 1890 169 
Q 1997 116 2288 116 
L 2288 0 
L 119 0 
L 119 116 
Q 413 116 517 170 
Q 622 225 664 312 
Q 706 400 706 744 
L 706 3494 
Q 706 3838 664 3927 
Q 622 4016 515 4069 
Q 409 4122 119 4122 
L 119 4238 
L 2088 4238 
Q 2856 4238 3212 4131 
Q 3569 4025 3794 3739 
Q 4019 3453 4019 3069 
Q 4019 2600 3681 2294 
Q 3466 2100 3078 2003 
L 4097 569 
Q 4297 291 4381 222 
Q 4509 125 4678 116 
L 4678 0 
L 3344 0 
L 1978 1931 
L 1700 1931 
z
M 1700 4009 
L 1700 2153 
L 1878 2153 
Q 2313 2153 2528 2233 
Q 2744 2313 2867 2520 
Q 2991 2728 2991 3063 
Q 2991 3547 2764 3778 
Q 2538 4009 2034 4009 
L 1700 4009 
z
" transform="scale(0.015625)"/>
      <path id="TimesNewRomanPS-BoldMT-68" d="M 1409 4238 
L 1409 2547 
Q 1650 2800 1850 2904 
Q 2050 3009 2266 3009 
Q 2541 3009 2736 2853 
Q 2931 2697 2995 2486 
Q 3059 2275 3059 1775 
L 3059 634 
Q 3059 300 3121 217 
Q 3184 134 3375 113 
L 3375 0 
L 1894 0 
L 1894 113 
Q 2050 134 2128 238 
Q 2184 319 2184 634 
L 2184 1938 
Q 2184 2300 2156 2392 
Q 2128 2484 2061 2536 
Q 1994 2588 1909 2588 
Q 1784 2588 1665 2502 
Q 1547 2416 1409 2200 
L 1409 634 
Q 1409 322 1456 244 
Q 1516 138 1700 113 
L 1700 0 
L 219 0 
L 219 113 
Q 403 131 481 231 
Q 534 300 534 634 
L 534 3603 
Q 534 3934 473 4015 
Q 413 4097 219 4122 
L 219 4238 
L 1409 4238 
z
" transform="scale(0.015625)"/>
      <path id="TimesNewRomanPS-BoldMT-65" d="M 2691 1566 
L 1088 1566 
Q 1116 984 1397 647 
Q 1613 388 1916 388 
Q 2103 388 2256 492 
Q 2409 597 2584 869 
L 2691 800 
Q 2453 316 2165 114 
Q 1878 -88 1500 -88 
Q 850 -88 516 413 
Q 247 816 247 1413 
Q 247 2144 642 2576 
Q 1038 3009 1569 3009 
Q 2013 3009 2339 2645 
Q 2666 2281 2691 1566 
z
M 1922 1775 
Q 1922 2278 1867 2465 
Q 1813 2653 1697 2750 
Q 1631 2806 1522 2806 
Q 1359 2806 1256 2647 
Q 1072 2369 1072 1884 
L 1072 1775 
L 1922 1775 
z
" transform="scale(0.015625)"/>
      <path id="TimesNewRomanPS-BoldMT-73" d="M 2063 3003 
L 2109 2006 
L 2003 2006 
Q 1813 2450 1608 2612 
Q 1403 2775 1200 2775 
Q 1072 2775 981 2689 
Q 891 2603 891 2491 
Q 891 2406 953 2328 
Q 1053 2200 1512 1889 
Q 1972 1578 2117 1361 
Q 2263 1144 2263 875 
Q 2263 631 2141 397 
Q 2019 163 1797 37 
Q 1575 -88 1306 -88 
Q 1097 -88 747 44 
Q 653 78 619 78 
Q 516 78 447 -78 
L 344 -78 
L 294 972 
L 400 972 
Q 541 559 786 353 
Q 1031 147 1250 147 
Q 1400 147 1495 239 
Q 1591 331 1591 463 
Q 1591 613 1497 722 
Q 1403 831 1078 1053 
Q 600 1384 459 1559 
Q 253 1816 253 2125 
Q 253 2463 486 2736 
Q 719 3009 1159 3009 
Q 1397 3009 1619 2894 
Q 1703 2847 1756 2847 
Q 1813 2847 1847 2870 
Q 1881 2894 1956 3003 
L 2063 3003 
z
" transform="scale(0.015625)"/>
      <path id="TimesNewRomanPS-BoldMT-75" d="M 3038 2922 
L 3038 634 
Q 3038 300 3100 217 
Q 3163 134 3353 113 
L 3353 0 
L 2163 0 
L 2163 391 
Q 1953 141 1743 26 
Q 1534 -88 1275 -88 
Q 1028 -88 836 64 
Q 644 216 578 419 
Q 513 622 513 1128 
L 513 2288 
Q 513 2619 452 2700 
Q 391 2781 197 2806 
L 197 2922 
L 1388 2922 
L 1388 925 
Q 1388 613 1417 522 
Q 1447 431 1511 384 
Q 1575 338 1659 338 
Q 1772 338 1863 397 
Q 1988 478 2163 725 
L 2163 2288 
Q 2163 2619 2102 2700 
Q 2041 2781 1847 2806 
L 1847 2922 
L 3038 2922 
z
" transform="scale(0.015625)"/>
      <path id="TimesNewRomanPS-BoldMT-29" d="M 78 -1281 
L 78 -1138 
Q 403 -922 556 -719 
Q 766 -438 888 0 
Q 1038 550 1038 1531 
Q 1038 2456 902 2967 
Q 766 3478 531 3794 
Q 369 4013 78 4178 
L 78 4334 
Q 831 4081 1354 3301 
Q 1878 2522 1878 1509 
Q 1878 513 1354 -257 
Q 831 -1028 78 -1281 
z
" transform="scale(0.015625)"/>
     </defs>
     <use xlink:href="#TimesNewRomanPS-BoldMT-59"/>
     <use xlink:href="#TimesNewRomanPS-BoldMT-76" transform="translate(61.091797 0)"/>
     <use xlink:href="#TimesNewRomanPS-BoldMT-61" transform="translate(111.091797 0)"/>
     <use xlink:href="#TimesNewRomanPS-BoldMT-6e" transform="translate(161.091797 0)"/>
     <use xlink:href="#TimesNewRomanPS-BoldMT-20" transform="translate(216.707031 0)"/>
     <use xlink:href="#TimesNewRomanPS-BoldMT-28" transform="translate(241.707031 0)"/>
     <use xlink:href="#TimesNewRomanPS-BoldMT-52" transform="translate(275.007812 0)"/>
     <use xlink:href="#TimesNewRomanPS-BoldMT-68" transform="translate(347.224609 0)"/>
     <use xlink:href="#TimesNewRomanPS-BoldMT-65" transform="translate(402.839844 0)"/>
     <use xlink:href="#TimesNewRomanPS-BoldMT-73" transform="translate(447.224609 0)"/>
     <use xlink:href="#TimesNewRomanPS-BoldMT-75" transform="translate(486.140625 0)"/>
     <use xlink:href="#TimesNewRomanPS-BoldMT-73" transform="translate(541.755859 0)"/>
     <use xlink:href="#TimesNewRomanPS-BoldMT-29" transform="translate(580.671875 0)"/>
    </g>
   </g>
   <g id="legend_1">
    <g id="patch_7">
     <path d="M 47.79 94.67625 
L 133.686875 94.67625 
Q 135.686875 94.67625 135.686875 92.67625 
L 135.686875 37.12 
Q 135.686875 35.12 133.686875 35.12 
L 47.79 35.12 
Q 45.79 35.12 45.79 37.12 
L 45.79 92.67625 
Q 45.79 94.67625 47.79 94.67625 
z
" style="fill: #ffffff; opacity: 0.8; stroke: #cccccc; stroke-linejoin: miter"/>
    </g>
    <g id="patch_8">
     <path d="M 49.79 46.12 
L 69.79 46.12 
L 69.79 39.12 
L 49.79 39.12 
z
" style="fill: #5386b6"/>
    </g>
    <g id="text_14">
     <!-- Success -->
     <g transform="translate(77.79 46.12) scale(0.1 -0.1)">
      <use xlink:href="#TimesNewRomanPSMT-53"/>
      <use xlink:href="#TimesNewRomanPSMT-75" transform="translate(55.615234 0)"/>
      <use xlink:href="#TimesNewRomanPSMT-63" transform="translate(105.615234 0)"/>
      <use xlink:href="#TimesNewRomanPSMT-63" transform="translate(150 0)"/>
      <use xlink:href="#TimesNewRomanPSMT-65" transform="translate(194.384766 0)"/>
      <use xlink:href="#TimesNewRomanPSMT-73" transform="translate(238.769531 0)"/>
      <use xlink:href="#TimesNewRomanPSMT-73" transform="translate(277.685547 0)"/>
     </g>
    </g>
    <g id="patch_9">
     <path d="M 49.79 60.259063 
L 69.79 60.259063 
L 69.79 53.259063 
L 49.79 53.259063 
z
" style="fill: #d57459"/>
    </g>
    <g id="text_15">
     <!-- Error -->
     <g transform="translate(77.79 60.259063) scale(0.1 -0.1)">
      <defs>
       <path id="TimesNewRomanPSMT-45" d="M 1338 4006 
L 1338 2331 
L 2269 2331 
Q 2631 2331 2753 2441 
Q 2916 2584 2934 2947 
L 3050 2947 
L 3050 1472 
L 2934 1472 
Q 2891 1781 2847 1869 
Q 2791 1978 2662 2040 
Q 2534 2103 2269 2103 
L 1338 2103 
L 1338 706 
Q 1338 425 1363 364 
Q 1388 303 1450 267 
Q 1513 231 1688 231 
L 2406 231 
Q 2766 231 2928 281 
Q 3091 331 3241 478 
Q 3434 672 3638 1063 
L 3763 1063 
L 3397 0 
L 131 0 
L 131 116 
L 281 116 
Q 431 116 566 188 
Q 666 238 702 338 
Q 738 438 738 747 
L 738 3500 
Q 738 3903 656 3997 
Q 544 4122 281 4122 
L 131 4122 
L 131 4238 
L 3397 4238 
L 3444 3309 
L 3322 3309 
Q 3256 3644 3176 3769 
Q 3097 3894 2941 3959 
Q 2816 4006 2500 4006 
L 1338 4006 
z
" transform="scale(0.015625)"/>
      </defs>
      <use xlink:href="#TimesNewRomanPSMT-45"/>
      <use xlink:href="#TimesNewRomanPSMT-72" transform="translate(61.083984 0)"/>
      <use xlink:href="#TimesNewRomanPSMT-72" transform="translate(94.384766 0)"/>
      <use xlink:href="#TimesNewRomanPSMT-6f" transform="translate(127.685547 0)"/>
      <use xlink:href="#TimesNewRomanPSMT-72" transform="translate(177.685547 0)"/>
     </g>
    </g>
    <g id="patch_10">
     <path d="M 49.79 74.398125 
L 69.79 74.398125 
L 69.79 67.398125 
L 49.79 67.398125 
z
" style="fill: #e8bc60"/>
    </g>
    <g id="text_16">
     <!-- Premature -->
     <g transform="translate(77.79 74.398125) scale(0.1 -0.1)">
      <defs>
       <path id="TimesNewRomanPSMT-6d" d="M 1050 2338 
Q 1363 2650 1419 2697 
Q 1559 2816 1721 2881 
Q 1884 2947 2044 2947 
Q 2313 2947 2506 2790 
Q 2700 2634 2766 2338 
Q 3088 2713 3309 2830 
Q 3531 2947 3766 2947 
Q 3994 2947 4170 2830 
Q 4347 2713 4450 2447 
Q 4519 2266 4519 1878 
L 4519 647 
Q 4519 378 4559 278 
Q 4591 209 4675 161 
Q 4759 113 4950 113 
L 4950 0 
L 3538 0 
L 3538 113 
L 3597 113 
Q 3781 113 3884 184 
Q 3956 234 3988 344 
Q 4000 397 4000 647 
L 4000 1878 
Q 4000 2228 3916 2372 
Q 3794 2572 3525 2572 
Q 3359 2572 3192 2489 
Q 3025 2406 2788 2181 
L 2781 2147 
L 2788 2013 
L 2788 647 
Q 2788 353 2820 281 
Q 2853 209 2943 161 
Q 3034 113 3253 113 
L 3253 0 
L 1806 0 
L 1806 113 
Q 2044 113 2133 169 
Q 2222 225 2256 338 
Q 2272 391 2272 647 
L 2272 1878 
Q 2272 2228 2169 2381 
Q 2031 2581 1784 2581 
Q 1616 2581 1450 2491 
Q 1191 2353 1050 2181 
L 1050 647 
Q 1050 366 1089 281 
Q 1128 197 1204 155 
Q 1281 113 1516 113 
L 1516 0 
L 100 0 
L 100 113 
Q 297 113 375 155 
Q 453 197 493 289 
Q 534 381 534 647 
L 534 1741 
Q 534 2213 506 2350 
Q 484 2453 437 2492 
Q 391 2531 309 2531 
Q 222 2531 100 2484 
L 53 2597 
L 916 2947 
L 1050 2947 
L 1050 2338 
z
" transform="scale(0.015625)"/>
      </defs>
      <use xlink:href="#TimesNewRomanPSMT-50"/>
      <use xlink:href="#TimesNewRomanPSMT-72" transform="translate(55.615234 0)"/>
      <use xlink:href="#TimesNewRomanPSMT-65" transform="translate(88.916016 0)"/>
      <use xlink:href="#TimesNewRomanPSMT-6d" transform="translate(133.300781 0)"/>
      <use xlink:href="#TimesNewRomanPSMT-61" transform="translate(211.083984 0)"/>
      <use xlink:href="#TimesNewRomanPSMT-74" transform="translate(255.46875 0)"/>
      <use xlink:href="#TimesNewRomanPSMT-75" transform="translate(283.251953 0)"/>
      <use xlink:href="#TimesNewRomanPSMT-72" transform="translate(333.251953 0)"/>
      <use xlink:href="#TimesNewRomanPSMT-65" transform="translate(366.552734 0)"/>
     </g>
    </g>
    <g id="patch_11">
     <path d="M 49.79 88.537188 
L 69.79 88.537188 
L 69.79 81.537188 
L 49.79 81.537188 
z
" style="fill: #8d5993"/>
    </g>
    <g id="text_17">
     <!-- Stepomission -->
     <g transform="translate(77.79 88.537188) scale(0.1 -0.1)">
      <use xlink:href="#TimesNewRomanPSMT-53"/>
      <use xlink:href="#TimesNewRomanPSMT-74" transform="translate(55.615234 0)"/>
      <use xlink:href="#TimesNewRomanPSMT-65" transform="translate(83.398438 0)"/>
      <use xlink:href="#TimesNewRomanPSMT-70" transform="translate(127.783203 0)"/>
      <use xlink:href="#TimesNewRomanPSMT-6f" transform="translate(177.783203 0)"/>
      <use xlink:href="#TimesNewRomanPSMT-6d" transform="translate(227.783203 0)"/>
      <use xlink:href="#TimesNewRomanPSMT-69" transform="translate(305.566406 0)"/>
      <use xlink:href="#TimesNewRomanPSMT-73" transform="translate(333.349609 0)"/>
      <use xlink:href="#TimesNewRomanPSMT-73" transform="translate(372.265625 0)"/>
      <use xlink:href="#TimesNewRomanPSMT-69" transform="translate(411.181641 0)"/>
      <use xlink:href="#TimesNewRomanPSMT-6f" transform="translate(438.964844 0)"/>
      <use xlink:href="#TimesNewRomanPSMT-6e" transform="translate(488.964844 0)"/>
     </g>
    </g>
   </g>
  </g>
 </g>
 <defs>
  <clipPath id="p41aab0db2e">
   <rect x="40.79" y="30.12" width="623.795979" height="501.4"/>
  </clipPath>
 </defs>
</svg>
