<?xml version="1.0" encoding="utf-8" standalone="no"?>
<!DOCTYPE svg PUBLIC "-//W3C//DTD SVG 1.1//EN"
  "http://www.w3.org/Graphics/SVG/1.1/DTD/svg11.dtd">
<svg xmlns:xlink="http://www.w3.org/1999/xlink" width="720pt" height="576pt" viewBox="0 0 720 576" xmlns="http://www.w3.org/2000/svg" version="1.1">
 <metadata>
  <rdf:RDF xmlns:dc="http://purl.org/dc/elements/1.1/" xmlns:cc="http://creativecommons.org/ns#" xmlns:rdf="http://www.w3.org/1999/02/22-rdf-syntax-ns#">
   <cc:Work>
    <dc:type rdf:resource="http://purl.org/dc/dcmitype/StillImage"/>
    <dc:date>2025-06-26T16:30:52.383208</dc:date>
    <dc:format>image/svg+xml</dc:format>
    <dc:creator>
     <cc:Agent>
      <dc:title>Matplotlib v3.10.3, https://matplotlib.org/</dc:title>
     </cc:Agent>
    </dc:creator>
   </cc:Work>
  </rdf:RDF>
 </metadata>
 <defs>
  <style type="text/css">*{stroke-linejoin: round; stroke-linecap: butt}</style>
 </defs>
 <g id="figure_1">
  <g id="patch_1">
   <path d="M 0 576 
L 720 576 
L 720 0 
L 0 0 
z
" style="fill: #ffffff"/>
  </g>
  <g id="axes_1">
   <g id="patch_2">
    <path d="M 41.15 531.16 
L 673.218261 531.16 
L 673.218261 29.94 
L 41.15 29.94 
z
" style="fill: #ffffff"/>
   </g>
   <g id="FillBetweenPolyCollection_1">
    <path d="M 41.15 301.434167 
L 41.15 531.16 
L 42.982082 531.16 
L 44.814164 531.16 
L 46.646246 531.16 
L 48.478328 531.16 
L 50.31041 531.16 
L 52.142491 531.16 
L 53.974573 531.16 
L 55.806655 531.16 
L 57.638737 531.16 
L 59.470819 531.16 
L 61.302901 531.16 
L 63.134983 531.16 
L 64.967065 531.16 
L 66.799147 531.16 
L 68.631229 531.16 
L 70.463311 531.16 
L 72.295393 531.16 
L 74.127474 531.16 
L 75.959556 531.16 
L 77.791638 531.16 
L 79.62372 531.16 
L 81.455802 531.16 
L 83.287884 531.16 
L 85.119966 531.16 
L 86.952048 531.16 
L 88.78413 531.16 
L 90.616212 531.16 
L 92.448294 531.16 
L 94.280376 531.16 
L 96.112457 531.16 
L 97.944539 531.16 
L 99.776621 531.16 
L 101.608703 531.16 
L 103.440785 531.16 
L 105.272867 531.16 
L 107.104949 531.16 
L 108.937031 531.16 
L 110.769113 531.16 
L 112.601195 531.16 
L 114.433277 531.16 
L 116.265359 531.16 
L 118.09744 531.16 
L 119.929522 531.16 
L 121.761604 531.16 
L 123.593686 531.16 
L 125.425768 531.16 
L 127.25785 531.16 
L 129.089932 531.16 
L 130.922014 531.16 
L 132.754096 531.16 
L 134.586178 531.16 
L 136.41826 531.16 
L 138.250342 531.16 
L 140.082423 531.16 
L 141.914505 531.16 
L 143.746587 531.16 
L 145.578669 531.16 
L 147.410751 531.16 
L 149.242833 531.16 
L 151.074915 531.16 
L 152.906997 531.16 
L 154.739079 531.16 
L 156.571161 531.16 
L 158.403243 531.16 
L 160.235325 531.16 
L 162.067406 531.16 
L 163.899488 531.16 
L 165.73157 531.16 
L 167.563652 531.16 
L 169.395734 531.16 
L 171.227816 531.16 
L 173.059898 531.16 
L 174.89198 531.16 
L 176.724062 531.16 
L 178.556144 531.16 
L 180.388226 531.16 
L 182.220307 531.16 
L 184.052389 531.16 
L 185.884471 531.16 
L 187.716553 531.16 
L 189.548635 531.16 
L 191.380717 531.16 
L 193.212799 531.16 
L 195.044881 531.16 
L 196.876963 531.16 
L 198.709045 531.16 
L 200.541127 531.16 
L 202.373209 531.16 
L 204.20529 531.16 
L 206.037372 531.16 
L 207.869454 531.16 
L 209.701536 531.16 
L 211.533618 531.16 
L 213.3657 531.16 
L 215.197782 531.16 
L 217.029864 531.16 
L 218.861946 531.16 
L 220.694028 531.16 
L 222.52611 531.16 
L 224.358192 531.16 
L 226.190273 531.16 
L 228.022355 531.16 
L 229.854437 531.16 
L 231.686519 531.16 
L 233.518601 531.16 
L 235.350683 531.16 
L 237.182765 531.16 
L 239.014847 531.16 
L 240.846929 531.16 
L 242.679011 531.16 
L 244.511093 531.16 
L 246.343175 531.16 
L 248.175256 531.16 
L 250.007338 531.16 
L 251.83942 531.16 
L 253.671502 531.16 
L 255.503584 531.16 
L 257.335666 531.16 
L 259.167748 531.16 
L 260.99983 531.16 
L 262.831912 531.16 
L 264.663994 531.16 
L 266.496076 531.16 
L 268.328158 531.16 
L 270.160239 531.16 
L 271.992321 531.16 
L 273.824403 531.16 
L 275.656485 531.16 
L 277.488567 531.16 
L 279.320649 531.16 
L 281.152731 531.16 
L 282.984813 531.16 
L 284.816895 531.16 
L 286.648977 531.16 
L 288.481059 531.16 
L 290.313141 531.16 
L 292.145222 531.16 
L 293.977304 531.16 
L 295.809386 531.16 
L 297.641468 531.16 
L 299.47355 531.16 
L 301.305632 531.16 
L 303.137714 531.16 
L 304.969796 531.16 
L 306.801878 531.16 
L 308.63396 531.16 
L 310.466042 531.16 
L 312.298124 531.16 
L 314.130205 531.16 
L 315.962287 531.16 
L 317.794369 531.16 
L 319.626451 531.16 
L 321.458533 531.16 
L 323.290615 531.16 
L 325.122697 531.16 
L 326.954779 531.16 
L 328.786861 531.16 
L 330.618943 531.16 
L 332.451025 531.16 
L 334.283106 531.16 
L 336.115188 531.16 
L 337.94727 531.16 
L 339.779352 531.16 
L 341.611434 531.16 
L 343.443516 531.16 
L 345.275598 531.16 
L 347.10768 531.16 
L 348.939762 531.16 
L 350.771844 531.16 
L 352.603926 531.16 
L 354.436008 531.16 
L 356.268089 531.16 
L 358.100171 531.16 
L 359.932253 531.16 
L 361.764335 531.16 
L 363.596417 531.16 
L 365.428499 531.16 
L 367.260581 531.16 
L 369.092663 531.16 
L 370.924745 531.16 
L 372.756827 531.16 
L 374.588909 531.16 
L 376.420991 531.16 
L 378.253072 531.16 
L 380.085154 531.16 
L 381.917236 531.16 
L 383.749318 531.16 
L 385.5814 531.16 
L 387.413482 531.16 
L 389.245564 531.16 
L 391.077646 531.16 
L 392.909728 531.16 
L 394.74181 531.16 
L 396.573892 531.16 
L 398.405974 531.16 
L 400.238055 531.16 
L 402.070137 531.16 
L 403.902219 531.16 
L 405.734301 531.16 
L 407.566383 531.16 
L 409.398465 531.16 
L 411.230547 531.16 
L 413.062629 531.16 
L 414.894711 531.16 
L 416.726793 531.16 
L 418.558875 531.16 
L 420.390957 531.16 
L 422.223038 531.16 
L 424.05512 531.16 
L 425.887202 531.16 
L 427.719284 531.16 
L 429.551366 531.16 
L 431.383448 531.16 
L 433.21553 531.16 
L 435.047612 531.16 
L 436.879694 531.16 
L 438.711776 531.16 
L 440.543858 531.16 
L 442.37594 531.16 
L 444.208021 531.16 
L 446.040103 531.16 
L 447.872185 531.16 
L 449.704267 531.16 
L 451.536349 531.16 
L 453.368431 531.16 
L 455.200513 531.16 
L 457.032595 531.16 
L 458.864677 531.16 
L 460.696759 531.16 
L 462.528841 531.16 
L 464.360922 531.16 
L 466.193004 531.16 
L 468.025086 531.16 
L 469.857168 531.16 
L 471.68925 531.16 
L 473.521332 531.16 
L 475.353414 531.16 
L 477.185496 531.16 
L 479.017578 531.16 
L 480.84966 531.16 
L 482.681742 531.16 
L 484.513824 531.16 
L 486.345905 531.16 
L 488.177987 531.16 
L 490.010069 531.16 
L 491.842151 531.16 
L 493.674233 531.16 
L 495.506315 531.16 
L 497.338397 531.16 
L 499.170479 531.16 
L 501.002561 531.16 
L 502.834643 531.16 
L 504.666725 531.16 
L 506.498807 531.16 
L 508.330888 531.16 
L 510.16297 531.16 
L 511.995052 531.16 
L 513.827134 531.16 
L 515.659216 531.16 
L 517.491298 531.16 
L 519.32338 531.16 
L 521.155462 531.16 
L 522.987544 531.16 
L 524.819626 531.16 
L 526.651708 531.16 
L 528.48379 531.16 
L 530.315871 531.16 
L 532.147953 531.16 
L 533.980035 531.16 
L 535.812117 531.16 
L 537.644199 531.16 
L 539.476281 531.16 
L 541.308363 531.16 
L 543.140445 531.16 
L 544.972527 531.16 
L 546.804609 531.16 
L 548.636691 531.16 
L 550.468773 531.16 
L 552.300854 531.16 
L 554.132936 531.16 
L 555.965018 531.16 
L 557.7971 531.16 
L 559.629182 531.16 
L 561.461264 531.16 
L 563.293346 531.16 
L 565.125428 531.16 
L 566.95751 531.16 
L 568.789592 531.16 
L 570.621674 531.16 
L 572.453756 531.16 
L 574.285837 531.16 
L 576.117919 531.16 
L 577.950001 531.16 
L 579.782083 531.16 
L 581.614165 531.16 
L 583.446247 531.16 
L 585.278329 531.16 
L 587.110411 531.16 
L 588.942493 531.16 
L 590.774575 531.16 
L 592.606657 531.16 
L 594.438739 531.16 
L 596.27082 531.16 
L 598.102902 531.16 
L 599.934984 531.16 
L 601.767066 531.16 
L 603.599148 531.16 
L 605.43123 531.16 
L 607.263312 531.16 
L 609.095394 531.16 
L 610.927476 531.16 
L 612.759558 531.16 
L 614.59164 531.16 
L 616.423721 531.16 
L 618.255803 531.16 
L 620.087885 531.16 
L 621.919967 531.16 
L 623.752049 531.16 
L 625.584131 531.16 
L 627.416213 531.16 
L 629.248295 531.16 
L 631.080377 531.16 
L 632.912459 531.16 
L 634.744541 531.16 
L 636.576623 531.16 
L 638.408704 531.16 
L 640.240786 531.16 
L 642.072868 531.16 
L 643.90495 531.16 
L 645.737032 531.16 
L 647.569114 531.16 
L 649.401196 531.16 
L 651.233278 531.16 
L 653.06536 531.16 
L 654.897442 531.16 
L 656.729524 531.16 
L 658.561606 531.16 
L 660.393687 531.16 
L 662.225769 531.16 
L 664.057851 531.16 
L 665.889933 531.16 
L 667.722015 531.16 
L 669.554097 531.16 
L 671.386179 531.16 
L 673.218261 531.16 
L 673.218261 531.16 
L 673.218261 531.16 
L 671.386179 155.245 
L 669.554097 405.855 
L 667.722015 531.16 
L 665.889933 29.94 
L 664.057851 280.55 
L 662.225769 531.16 
L 660.393687 29.94 
L 658.561606 29.94 
L 656.729524 531.16 
L 654.897442 230.428 
L 653.06536 130.184 
L 651.233278 531.16 
L 649.401196 29.94 
L 647.569114 280.55 
L 645.737032 130.184 
L 643.90495 29.94 
L 642.072868 531.16 
L 640.240786 29.94 
L 638.408704 364.086667 
L 636.576623 280.55 
L 634.744541 230.428 
L 632.912459 330.672 
L 631.080377 531.16 
L 629.248295 155.245 
L 627.416213 29.94 
L 625.584131 29.94 
L 623.752049 29.94 
L 621.919967 29.94 
L 620.087885 29.94 
L 618.255803 29.94 
L 616.423721 280.55 
L 614.59164 29.94 
L 612.759558 29.94 
L 610.927476 29.94 
L 609.095394 29.94 
L 607.263312 531.16 
L 605.43123 29.94 
L 603.599148 531.16 
L 601.767066 531.16 
L 599.934984 29.94 
L 598.102902 405.855 
L 596.27082 280.55 
L 594.438739 280.55 
L 592.606657 29.94 
L 590.774575 155.245 
L 588.942493 29.94 
L 587.110411 230.428 
L 585.278329 29.94 
L 583.446247 29.94 
L 581.614165 155.245 
L 579.782083 29.94 
L 577.950001 230.428 
L 576.117919 29.94 
L 574.285837 29.94 
L 572.453756 29.94 
L 570.621674 364.086667 
L 568.789592 531.16 
L 566.95751 430.916 
L 565.125428 280.55 
L 563.293346 531.16 
L 561.461264 29.94 
L 559.629182 29.94 
L 557.7971 29.94 
L 555.965018 330.672 
L 554.132936 155.245 
L 552.300854 29.94 
L 550.468773 29.94 
L 548.636691 29.94 
L 546.804609 280.55 
L 544.972527 531.16 
L 543.140445 230.428 
L 541.308363 29.94 
L 539.476281 531.16 
L 537.644199 280.55 
L 535.812117 29.94 
L 533.980035 130.184 
L 532.147953 155.245 
L 530.315871 531.16 
L 528.48379 430.916 
L 526.651708 29.94 
L 524.819626 280.55 
L 522.987544 29.94 
L 521.155462 155.245 
L 519.32338 531.16 
L 517.491298 230.428 
L 515.659216 29.94 
L 513.827134 29.94 
L 511.995052 130.184 
L 510.16297 29.94 
L 508.330888 29.94 
L 506.498807 230.428 
L 504.666725 29.94 
L 502.834643 197.013333 
L 501.002561 531.16 
L 499.170479 531.16 
L 497.338397 280.55 
L 495.506315 280.55 
L 493.674233 531.16 
L 491.842151 280.55 
L 490.010069 29.94 
L 488.177987 531.16 
L 486.345905 531.16 
L 484.513824 531.16 
L 482.681742 280.55 
L 480.84966 531.16 
L 479.017578 29.94 
L 477.185496 531.16 
L 475.353414 531.16 
L 473.521332 29.94 
L 471.68925 280.55 
L 469.857168 531.16 
L 468.025086 29.94 
L 466.193004 531.16 
L 464.360922 173.145714 
L 462.528841 531.16 
L 460.696759 531.16 
L 458.864677 531.16 
L 457.032595 29.94 
L 455.200513 29.94 
L 453.368431 29.94 
L 451.536349 29.94 
L 449.704267 29.94 
L 447.872185 155.245 
L 446.040103 29.94 
L 444.208021 531.16 
L 442.37594 29.94 
L 440.543858 364.086667 
L 438.711776 531.16 
L 436.879694 531.16 
L 435.047612 280.55 
L 433.21553 531.16 
L 431.383448 29.94 
L 429.551366 330.672 
L 427.719284 280.55 
L 425.887202 531.16 
L 424.05512 531.16 
L 422.223038 130.184 
L 420.390957 531.16 
L 418.558875 29.94 
L 416.726793 29.94 
L 414.894711 531.16 
L 413.062629 531.16 
L 411.230547 197.013333 
L 409.398465 29.94 
L 407.566383 155.245 
L 405.734301 531.16 
L 403.902219 29.94 
L 402.070137 280.55 
L 400.238055 531.16 
L 398.405974 531.16 
L 396.573892 531.16 
L 394.74181 280.55 
L 392.909728 280.55 
L 391.077646 230.428 
L 389.245564 29.94 
L 387.413482 29.94 
L 385.5814 531.16 
L 383.749318 29.94 
L 381.917236 387.954286 
L 380.085154 29.94 
L 378.253072 531.16 
L 376.420991 29.94 
L 374.588909 280.55 
L 372.756827 180.306 
L 370.924745 92.5925 
L 369.092663 280.55 
L 367.260581 29.94 
L 365.428499 197.013333 
L 363.596417 197.013333 
L 361.764335 29.94 
L 359.932253 531.16 
L 358.100171 280.55 
L 356.268089 405.855 
L 354.436008 280.55 
L 352.603926 155.245 
L 350.771844 29.94 
L 348.939762 29.94 
L 347.10768 531.16 
L 345.275598 405.855 
L 343.443516 280.55 
L 341.611434 364.086667 
L 339.779352 531.16 
L 337.94727 531.16 
L 336.115188 197.013333 
L 334.283106 531.16 
L 332.451025 29.94 
L 330.618943 230.428 
L 328.786861 531.16 
L 326.954779 531.16 
L 325.122697 29.94 
L 323.290615 230.428 
L 321.458533 531.16 
L 319.626451 29.94 
L 317.794369 197.013333 
L 315.962287 257.767273 
L 314.130205 531.16 
L 312.298124 364.086667 
L 310.466042 531.16 
L 308.63396 29.94 
L 306.801878 531.16 
L 304.969796 405.855 
L 303.137714 155.245 
L 301.305632 531.16 
L 299.47355 230.428 
L 297.641468 364.086667 
L 295.809386 29.94 
L 293.977304 531.16 
L 292.145222 29.94 
L 290.313141 29.94 
L 288.481059 29.94 
L 286.648977 155.245 
L 284.816895 364.086667 
L 282.984813 197.013333 
L 281.152731 531.16 
L 279.320649 531.16 
L 277.488567 531.16 
L 275.656485 230.428 
L 273.824403 29.94 
L 271.992321 29.94 
L 270.160239 173.145714 
L 268.328158 29.94 
L 266.496076 405.855 
L 264.663994 531.16 
L 262.831912 531.16 
L 260.99983 29.94 
L 259.167748 29.94 
L 257.335666 29.94 
L 255.503584 280.55 
L 253.671502 531.16 
L 251.83942 531.16 
L 250.007338 531.16 
L 248.175256 29.94 
L 246.343175 531.16 
L 244.511093 29.94 
L 242.679011 230.428 
L 240.846929 29.94 
L 239.014847 531.16 
L 237.182765 531.16 
L 235.350683 29.94 
L 233.518601 531.16 
L 231.686519 197.013333 
L 229.854437 29.94 
L 228.022355 531.16 
L 226.190273 29.94 
L 224.358192 29.94 
L 222.52611 197.013333 
L 220.694028 364.086667 
L 218.861946 29.94 
L 217.029864 531.16 
L 215.197782 29.94 
L 213.3657 531.16 
L 211.533618 197.013333 
L 209.701536 531.16 
L 207.869454 531.16 
L 206.037372 531.16 
L 204.20529 29.94 
L 202.373209 29.94 
L 200.541127 197.013333 
L 198.709045 531.16 
L 196.876963 29.94 
L 195.044881 531.16 
L 193.212799 531.16 
L 191.380717 280.55 
L 189.548635 531.16 
L 187.716553 531.16 
L 185.884471 280.55 
L 184.052389 197.013333 
L 182.220307 531.16 
L 180.388226 280.55 
L 178.556144 101.542857 
L 176.724062 29.94 
L 174.89198 280.55 
L 173.059898 29.94 
L 171.227816 29.94 
L 169.395734 29.94 
L 167.563652 280.55 
L 165.73157 280.55 
L 163.899488 280.55 
L 162.067406 280.55 
L 160.235325 29.94 
L 158.403243 531.16 
L 156.571161 280.55 
L 154.739079 29.94 
L 152.906997 531.16 
L 151.074915 531.16 
L 149.242833 531.16 
L 147.410751 280.55 
L 145.578669 531.16 
L 143.746587 280.55 
L 141.914505 531.16 
L 140.082423 280.55 
L 138.250342 29.94 
L 136.41826 29.94 
L 134.586178 29.94 
L 132.754096 531.16 
L 130.922014 29.94 
L 129.089932 280.55 
L 127.25785 531.16 
L 125.425768 29.94 
L 123.593686 197.013333 
L 121.761604 364.086667 
L 119.929522 531.16 
L 118.09744 531.16 
L 116.265359 330.672 
L 114.433277 29.94 
L 112.601195 29.94 
L 110.769113 29.94 
L 108.937031 531.16 
L 107.104949 280.55 
L 105.272867 364.086667 
L 103.440785 531.16 
L 101.608703 405.855 
L 99.776621 531.16 
L 97.944539 29.94 
L 96.112457 29.94 
L 94.280376 155.245 
L 92.448294 29.94 
L 90.616212 29.94 
L 88.78413 29.94 
L 86.952048 29.94 
L 85.119966 29.94 
L 83.287884 29.94 
L 81.455802 531.16 
L 79.62372 364.086667 
L 77.791638 280.55 
L 75.959556 197.013333 
L 74.127474 531.16 
L 72.295393 280.55 
L 70.463311 29.94 
L 68.631229 531.16 
L 66.799147 29.94 
L 64.967065 244.748571 
L 63.134983 29.94 
L 61.302901 130.184 
L 59.470819 214.6 
L 57.638737 280.55 
L 55.806655 280.55 
L 53.974573 184.161538 
L 52.142491 387.954286 
L 50.31041 206.841176 
L 48.478328 364.086667 
L 46.646246 237.341379 
L 44.814164 230.428 
L 42.982082 173.145714 
L 41.15 301.434167 
z
" clip-path="url(#p7bd5b160e1)" style="fill: #5386b6"/>
   </g>
   <g id="FillBetweenPolyCollection_2">
    <path d="M 41.15 71.708333 
L 41.15 301.434167 
L 42.982082 173.145714 
L 44.814164 230.428 
L 46.646246 237.341379 
L 48.478328 364.086667 
L 50.31041 206.841176 
L 52.142491 387.954286 
L 53.974573 184.161538 
L 55.806655 280.55 
L 57.638737 280.55 
L 59.470819 214.6 
L 61.302901 130.184 
L 63.134983 29.94 
L 64.967065 244.748571 
L 66.799147 29.94 
L 68.631229 531.16 
L 70.463311 29.94 
L 72.295393 280.55 
L 74.127474 531.16 
L 75.959556 197.013333 
L 77.791638 280.55 
L 79.62372 364.086667 
L 81.455802 531.16 
L 83.287884 29.94 
L 85.119966 29.94 
L 86.952048 29.94 
L 88.78413 29.94 
L 90.616212 29.94 
L 92.448294 29.94 
L 94.280376 155.245 
L 96.112457 29.94 
L 97.944539 29.94 
L 99.776621 531.16 
L 101.608703 405.855 
L 103.440785 531.16 
L 105.272867 364.086667 
L 107.104949 280.55 
L 108.937031 531.16 
L 110.769113 29.94 
L 112.601195 29.94 
L 114.433277 29.94 
L 116.265359 330.672 
L 118.09744 531.16 
L 119.929522 531.16 
L 121.761604 364.086667 
L 123.593686 197.013333 
L 125.425768 29.94 
L 127.25785 531.16 
L 129.089932 280.55 
L 130.922014 29.94 
L 132.754096 531.16 
L 134.586178 29.94 
L 136.41826 29.94 
L 138.250342 29.94 
L 140.082423 280.55 
L 141.914505 531.16 
L 143.746587 280.55 
L 145.578669 531.16 
L 147.410751 280.55 
L 149.242833 531.16 
L 151.074915 531.16 
L 152.906997 531.16 
L 154.739079 29.94 
L 156.571161 280.55 
L 158.403243 531.16 
L 160.235325 29.94 
L 162.067406 280.55 
L 163.899488 280.55 
L 165.73157 280.55 
L 167.563652 280.55 
L 169.395734 29.94 
L 171.227816 29.94 
L 173.059898 29.94 
L 174.89198 280.55 
L 176.724062 29.94 
L 178.556144 101.542857 
L 180.388226 280.55 
L 182.220307 531.16 
L 184.052389 197.013333 
L 185.884471 280.55 
L 187.716553 531.16 
L 189.548635 531.16 
L 191.380717 280.55 
L 193.212799 531.16 
L 195.044881 531.16 
L 196.876963 29.94 
L 198.709045 531.16 
L 200.541127 197.013333 
L 202.373209 29.94 
L 204.20529 29.94 
L 206.037372 531.16 
L 207.869454 531.16 
L 209.701536 531.16 
L 211.533618 197.013333 
L 213.3657 531.16 
L 215.197782 29.94 
L 217.029864 531.16 
L 218.861946 29.94 
L 220.694028 364.086667 
L 222.52611 197.013333 
L 224.358192 29.94 
L 226.190273 29.94 
L 228.022355 531.16 
L 229.854437 29.94 
L 231.686519 197.013333 
L 233.518601 531.16 
L 235.350683 29.94 
L 237.182765 531.16 
L 239.014847 531.16 
L 240.846929 29.94 
L 242.679011 230.428 
L 244.511093 29.94 
L 246.343175 531.16 
L 248.175256 29.94 
L 250.007338 531.16 
L 251.83942 531.16 
L 253.671502 531.16 
L 255.503584 280.55 
L 257.335666 29.94 
L 259.167748 29.94 
L 260.99983 29.94 
L 262.831912 531.16 
L 264.663994 531.16 
L 266.496076 405.855 
L 268.328158 29.94 
L 270.160239 173.145714 
L 271.992321 29.94 
L 273.824403 29.94 
L 275.656485 230.428 
L 277.488567 531.16 
L 279.320649 531.16 
L 281.152731 531.16 
L 282.984813 197.013333 
L 284.816895 364.086667 
L 286.648977 155.245 
L 288.481059 29.94 
L 290.313141 29.94 
L 292.145222 29.94 
L 293.977304 531.16 
L 295.809386 29.94 
L 297.641468 364.086667 
L 299.47355 230.428 
L 301.305632 531.16 
L 303.137714 155.245 
L 304.969796 405.855 
L 306.801878 531.16 
L 308.63396 29.94 
L 310.466042 531.16 
L 312.298124 364.086667 
L 314.130205 531.16 
L 315.962287 257.767273 
L 317.794369 197.013333 
L 319.626451 29.94 
L 321.458533 531.16 
L 323.290615 230.428 
L 325.122697 29.94 
L 326.954779 531.16 
L 328.786861 531.16 
L 330.618943 230.428 
L 332.451025 29.94 
L 334.283106 531.16 
L 336.115188 197.013333 
L 337.94727 531.16 
L 339.779352 531.16 
L 341.611434 364.086667 
L 343.443516 280.55 
L 345.275598 405.855 
L 347.10768 531.16 
L 348.939762 29.94 
L 350.771844 29.94 
L 352.603926 155.245 
L 354.436008 280.55 
L 356.268089 405.855 
L 358.100171 280.55 
L 359.932253 531.16 
L 361.764335 29.94 
L 363.596417 197.013333 
L 365.428499 197.013333 
L 367.260581 29.94 
L 369.092663 280.55 
L 370.924745 92.5925 
L 372.756827 180.306 
L 374.588909 280.55 
L 376.420991 29.94 
L 378.253072 531.16 
L 380.085154 29.94 
L 381.917236 387.954286 
L 383.749318 29.94 
L 385.5814 531.16 
L 387.413482 29.94 
L 389.245564 29.94 
L 391.077646 230.428 
L 392.909728 280.55 
L 394.74181 280.55 
L 396.573892 531.16 
L 398.405974 531.16 
L 400.238055 531.16 
L 402.070137 280.55 
L 403.902219 29.94 
L 405.734301 531.16 
L 407.566383 155.245 
L 409.398465 29.94 
L 411.230547 197.013333 
L 413.062629 531.16 
L 414.894711 531.16 
L 416.726793 29.94 
L 418.558875 29.94 
L 420.390957 531.16 
L 422.223038 130.184 
L 424.05512 531.16 
L 425.887202 531.16 
L 427.719284 280.55 
L 429.551366 330.672 
L 431.383448 29.94 
L 433.21553 531.16 
L 435.047612 280.55 
L 436.879694 531.16 
L 438.711776 531.16 
L 440.543858 364.086667 
L 442.37594 29.94 
L 444.208021 531.16 
L 446.040103 29.94 
L 447.872185 155.245 
L 449.704267 29.94 
L 451.536349 29.94 
L 453.368431 29.94 
L 455.200513 29.94 
L 457.032595 29.94 
L 458.864677 531.16 
L 460.696759 531.16 
L 462.528841 531.16 
L 464.360922 173.145714 
L 466.193004 531.16 
L 468.025086 29.94 
L 469.857168 531.16 
L 471.68925 280.55 
L 473.521332 29.94 
L 475.353414 531.16 
L 477.185496 531.16 
L 479.017578 29.94 
L 480.84966 531.16 
L 482.681742 280.55 
L 484.513824 531.16 
L 486.345905 531.16 
L 488.177987 531.16 
L 490.010069 29.94 
L 491.842151 280.55 
L 493.674233 531.16 
L 495.506315 280.55 
L 497.338397 280.55 
L 499.170479 531.16 
L 501.002561 531.16 
L 502.834643 197.013333 
L 504.666725 29.94 
L 506.498807 230.428 
L 508.330888 29.94 
L 510.16297 29.94 
L 511.995052 130.184 
L 513.827134 29.94 
L 515.659216 29.94 
L 517.491298 230.428 
L 519.32338 531.16 
L 521.155462 155.245 
L 522.987544 29.94 
L 524.819626 280.55 
L 526.651708 29.94 
L 528.48379 430.916 
L 530.315871 531.16 
L 532.147953 155.245 
L 533.980035 130.184 
L 535.812117 29.94 
L 537.644199 280.55 
L 539.476281 531.16 
L 541.308363 29.94 
L 543.140445 230.428 
L 544.972527 531.16 
L 546.804609 280.55 
L 548.636691 29.94 
L 550.468773 29.94 
L 552.300854 29.94 
L 554.132936 155.245 
L 555.965018 330.672 
L 557.7971 29.94 
L 559.629182 29.94 
L 561.461264 29.94 
L 563.293346 531.16 
L 565.125428 280.55 
L 566.95751 430.916 
L 568.789592 531.16 
L 570.621674 364.086667 
L 572.453756 29.94 
L 574.285837 29.94 
L 576.117919 29.94 
L 577.950001 230.428 
L 579.782083 29.94 
L 581.614165 155.245 
L 583.446247 29.94 
L 585.278329 29.94 
L 587.110411 230.428 
L 588.942493 29.94 
L 590.774575 155.245 
L 592.606657 29.94 
L 594.438739 280.55 
L 596.27082 280.55 
L 598.102902 405.855 
L 599.934984 29.94 
L 601.767066 531.16 
L 603.599148 531.16 
L 605.43123 29.94 
L 607.263312 531.16 
L 609.095394 29.94 
L 610.927476 29.94 
L 612.759558 29.94 
L 614.59164 29.94 
L 616.423721 280.55 
L 618.255803 29.94 
L 620.087885 29.94 
L 621.919967 29.94 
L 623.752049 29.94 
L 625.584131 29.94 
L 627.416213 29.94 
L 629.248295 155.245 
L 631.080377 531.16 
L 632.912459 330.672 
L 634.744541 230.428 
L 636.576623 280.55 
L 638.408704 364.086667 
L 640.240786 29.94 
L 642.072868 531.16 
L 643.90495 29.94 
L 645.737032 130.184 
L 647.569114 280.55 
L 649.401196 29.94 
L 651.233278 531.16 
L 653.06536 130.184 
L 654.897442 230.428 
L 656.729524 531.16 
L 658.561606 29.94 
L 660.393687 29.94 
L 662.225769 531.16 
L 664.057851 280.55 
L 665.889933 29.94 
L 667.722015 531.16 
L 669.554097 405.855 
L 671.386179 155.245 
L 673.218261 531.16 
L 673.218261 531.16 
L 673.218261 531.16 
L 671.386179 29.94 
L 669.554097 155.245 
L 667.722015 29.94 
L 665.889933 29.94 
L 664.057851 280.55 
L 662.225769 29.94 
L 660.393687 29.94 
L 658.561606 29.94 
L 656.729524 531.16 
L 654.897442 29.94 
L 653.06536 29.94 
L 651.233278 531.16 
L 649.401196 29.94 
L 647.569114 29.94 
L 645.737032 29.94 
L 643.90495 29.94 
L 642.072868 531.16 
L 640.240786 29.94 
L 638.408704 29.94 
L 636.576623 280.55 
L 634.744541 29.94 
L 632.912459 29.94 
L 631.080377 29.94 
L 629.248295 29.94 
L 627.416213 29.94 
L 625.584131 29.94 
L 623.752049 29.94 
L 621.919967 29.94 
L 620.087885 29.94 
L 618.255803 29.94 
L 616.423721 280.55 
L 614.59164 29.94 
L 612.759558 29.94 
L 610.927476 29.94 
L 609.095394 29.94 
L 607.263312 531.16 
L 605.43123 29.94 
L 603.599148 29.94 
L 601.767066 29.94 
L 599.934984 29.94 
L 598.102902 29.94 
L 596.27082 29.94 
L 594.438739 29.94 
L 592.606657 29.94 
L 590.774575 29.94 
L 588.942493 29.94 
L 587.110411 29.94 
L 585.278329 29.94 
L 583.446247 29.94 
L 581.614165 29.94 
L 579.782083 29.94 
L 577.950001 29.94 
L 576.117919 29.94 
L 574.285837 29.94 
L 572.453756 29.94 
L 570.621674 29.94 
L 568.789592 29.94 
L 566.95751 29.94 
L 565.125428 29.94 
L 563.293346 29.94 
L 561.461264 29.94 
L 559.629182 29.94 
L 557.7971 29.94 
L 555.965018 29.94 
L 554.132936 29.94 
L 552.300854 29.94 
L 550.468773 29.94 
L 548.636691 29.94 
L 546.804609 29.94 
L 544.972527 29.94 
L 543.140445 130.184 
L 541.308363 29.94 
L 539.476281 531.16 
L 537.644199 29.94 
L 535.812117 29.94 
L 533.980035 130.184 
L 532.147953 29.94 
L 530.315871 29.94 
L 528.48379 29.94 
L 526.651708 29.94 
L 524.819626 29.94 
L 522.987544 29.94 
L 521.155462 29.94 
L 519.32338 29.94 
L 517.491298 29.94 
L 515.659216 29.94 
L 513.827134 29.94 
L 511.995052 29.94 
L 510.16297 29.94 
L 508.330888 29.94 
L 506.498807 29.94 
L 504.666725 29.94 
L 502.834643 29.94 
L 501.002561 531.16 
L 499.170479 29.94 
L 497.338397 29.94 
L 495.506315 29.94 
L 493.674233 29.94 
L 491.842151 29.94 
L 490.010069 29.94 
L 488.177987 29.94 
L 486.345905 531.16 
L 484.513824 29.94 
L 482.681742 29.94 
L 480.84966 29.94 
L 479.017578 29.94 
L 477.185496 364.086667 
L 475.353414 29.94 
L 473.521332 29.94 
L 471.68925 29.94 
L 469.857168 531.16 
L 468.025086 29.94 
L 466.193004 29.94 
L 464.360922 29.94 
L 462.528841 531.16 
L 460.696759 29.94 
L 458.864677 29.94 
L 457.032595 29.94 
L 455.200513 29.94 
L 453.368431 29.94 
L 451.536349 29.94 
L 449.704267 29.94 
L 447.872185 29.94 
L 446.040103 29.94 
L 444.208021 29.94 
L 442.37594 29.94 
L 440.543858 29.94 
L 438.711776 29.94 
L 436.879694 29.94 
L 435.047612 280.55 
L 433.21553 531.16 
L 431.383448 29.94 
L 429.551366 130.184 
L 427.719284 29.94 
L 425.887202 531.16 
L 424.05512 29.94 
L 422.223038 29.94 
L 420.390957 29.94 
L 418.558875 29.94 
L 416.726793 29.94 
L 414.894711 29.94 
L 413.062629 531.16 
L 411.230547 29.94 
L 409.398465 29.94 
L 407.566383 29.94 
L 405.734301 29.94 
L 403.902219 29.94 
L 402.070137 29.94 
L 400.238055 29.94 
L 398.405974 29.94 
L 396.573892 29.94 
L 394.74181 29.94 
L 392.909728 29.94 
L 391.077646 29.94 
L 389.245564 29.94 
L 387.413482 29.94 
L 385.5814 29.94 
L 383.749318 29.94 
L 381.917236 101.542857 
L 380.085154 29.94 
L 378.253072 29.94 
L 376.420991 29.94 
L 374.588909 29.94 
L 372.756827 80.062 
L 370.924745 29.94 
L 369.092663 29.94 
L 367.260581 29.94 
L 365.428499 29.94 
L 363.596417 29.94 
L 361.764335 29.94 
L 359.932253 29.94 
L 358.100171 280.55 
L 356.268089 29.94 
L 354.436008 29.94 
L 352.603926 155.245 
L 350.771844 29.94 
L 348.939762 29.94 
L 347.10768 531.16 
L 345.275598 29.94 
L 343.443516 29.94 
L 341.611434 29.94 
L 339.779352 29.94 
L 337.94727 531.16 
L 336.115188 29.94 
L 334.283106 29.94 
L 332.451025 29.94 
L 330.618943 29.94 
L 328.786861 280.55 
L 326.954779 29.94 
L 325.122697 29.94 
L 323.290615 230.428 
L 321.458533 29.94 
L 319.626451 29.94 
L 317.794369 197.013333 
L 315.962287 75.505455 
L 314.130205 29.94 
L 312.298124 29.94 
L 310.466042 29.94 
L 308.63396 29.94 
L 306.801878 531.16 
L 304.969796 29.94 
L 303.137714 29.94 
L 301.305632 29.94 
L 299.47355 29.94 
L 297.641468 29.94 
L 295.809386 29.94 
L 293.977304 29.94 
L 292.145222 29.94 
L 290.313141 29.94 
L 288.481059 29.94 
L 286.648977 29.94 
L 284.816895 29.94 
L 282.984813 29.94 
L 281.152731 531.16 
L 279.320649 531.16 
L 277.488567 29.94 
L 275.656485 29.94 
L 273.824403 29.94 
L 271.992321 29.94 
L 270.160239 29.94 
L 268.328158 29.94 
L 266.496076 29.94 
L 264.663994 29.94 
L 262.831912 29.94 
L 260.99983 29.94 
L 259.167748 29.94 
L 257.335666 29.94 
L 255.503584 29.94 
L 253.671502 531.16 
L 251.83942 531.16 
L 250.007338 531.16 
L 248.175256 29.94 
L 246.343175 531.16 
L 244.511093 29.94 
L 242.679011 130.184 
L 240.846929 29.94 
L 239.014847 531.16 
L 237.182765 29.94 
L 235.350683 29.94 
L 233.518601 531.16 
L 231.686519 29.94 
L 229.854437 29.94 
L 228.022355 280.55 
L 226.190273 29.94 
L 224.358192 29.94 
L 222.52611 29.94 
L 220.694028 29.94 
L 218.861946 29.94 
L 217.029864 29.94 
L 215.197782 29.94 
L 213.3657 29.94 
L 211.533618 29.94 
L 209.701536 531.16 
L 207.869454 280.55 
L 206.037372 29.94 
L 204.20529 29.94 
L 202.373209 29.94 
L 200.541127 29.94 
L 198.709045 29.94 
L 196.876963 29.94 
L 195.044881 29.94 
L 193.212799 29.94 
L 191.380717 29.94 
L 189.548635 29.94 
L 187.716553 29.94 
L 185.884471 29.94 
L 184.052389 29.94 
L 182.220307 531.16 
L 180.388226 29.94 
L 178.556144 29.94 
L 176.724062 29.94 
L 174.89198 29.94 
L 173.059898 29.94 
L 171.227816 29.94 
L 169.395734 29.94 
L 167.563652 29.94 
L 165.73157 29.94 
L 163.899488 29.94 
L 162.067406 29.94 
L 160.235325 29.94 
L 158.403243 29.94 
L 156.571161 155.245 
L 154.739079 29.94 
L 152.906997 531.16 
L 151.074915 531.16 
L 149.242833 531.16 
L 147.410751 280.55 
L 145.578669 29.94 
L 143.746587 29.94 
L 141.914505 531.16 
L 140.082423 29.94 
L 138.250342 29.94 
L 136.41826 29.94 
L 134.586178 29.94 
L 132.754096 29.94 
L 130.922014 29.94 
L 129.089932 280.55 
L 127.25785 29.94 
L 125.425768 29.94 
L 123.593686 29.94 
L 121.761604 29.94 
L 119.929522 29.94 
L 118.09744 531.16 
L 116.265359 29.94 
L 114.433277 29.94 
L 112.601195 29.94 
L 110.769113 29.94 
L 108.937031 29.94 
L 107.104949 29.94 
L 105.272867 29.94 
L 103.440785 531.16 
L 101.608703 92.5925 
L 99.776621 29.94 
L 97.944539 29.94 
L 96.112457 29.94 
L 94.280376 29.94 
L 92.448294 29.94 
L 90.616212 29.94 
L 88.78413 29.94 
L 86.952048 29.94 
L 85.119966 29.94 
L 83.287884 29.94 
L 81.455802 29.94 
L 79.62372 29.94 
L 77.791638 29.94 
L 75.959556 29.94 
L 74.127474 197.013333 
L 72.295393 29.94 
L 70.463311 29.94 
L 68.631229 531.16 
L 66.799147 29.94 
L 64.967065 29.94 
L 63.134983 29.94 
L 61.302901 29.94 
L 59.470819 29.94 
L 57.638737 113.476667 
L 55.806655 29.94 
L 53.974573 29.94 
L 52.142491 173.145714 
L 50.31041 88.907059 
L 48.478328 29.94 
L 46.646246 47.223448 
L 44.814164 80.062 
L 42.982082 29.94 
L 41.15 71.708333 
z
" clip-path="url(#p7bd5b160e1)" style="fill: #d57459"/>
   </g>
   <g id="FillBetweenPolyCollection_3">
    <path d="M 41.15 71.708333 
L 41.15 71.708333 
L 42.982082 29.94 
L 44.814164 80.062 
L 46.646246 47.223448 
L 48.478328 29.94 
L 50.31041 88.907059 
L 52.142491 173.145714 
L 53.974573 29.94 
L 55.806655 29.94 
L 57.638737 113.476667 
L 59.470819 29.94 
L 61.302901 29.94 
L 63.134983 29.94 
L 64.967065 29.94 
L 66.799147 29.94 
L 68.631229 531.16 
L 70.463311 29.94 
L 72.295393 29.94 
L 74.127474 197.013333 
L 75.959556 29.94 
L 77.791638 29.94 
L 79.62372 29.94 
L 81.455802 29.94 
L 83.287884 29.94 
L 85.119966 29.94 
L 86.952048 29.94 
L 88.78413 29.94 
L 90.616212 29.94 
L 92.448294 29.94 
L 94.280376 29.94 
L 96.112457 29.94 
L 97.944539 29.94 
L 99.776621 29.94 
L 101.608703 92.5925 
L 103.440785 531.16 
L 105.272867 29.94 
L 107.104949 29.94 
L 108.937031 29.94 
L 110.769113 29.94 
L 112.601195 29.94 
L 114.433277 29.94 
L 116.265359 29.94 
L 118.09744 531.16 
L 119.929522 29.94 
L 121.761604 29.94 
L 123.593686 29.94 
L 125.425768 29.94 
L 127.25785 29.94 
L 129.089932 280.55 
L 130.922014 29.94 
L 132.754096 29.94 
L 134.586178 29.94 
L 136.41826 29.94 
L 138.250342 29.94 
L 140.082423 29.94 
L 141.914505 531.16 
L 143.746587 29.94 
L 145.578669 29.94 
L 147.410751 280.55 
L 149.242833 531.16 
L 151.074915 531.16 
L 152.906997 531.16 
L 154.739079 29.94 
L 156.571161 155.245 
L 158.403243 29.94 
L 160.235325 29.94 
L 162.067406 29.94 
L 163.899488 29.94 
L 165.73157 29.94 
L 167.563652 29.94 
L 169.395734 29.94 
L 171.227816 29.94 
L 173.059898 29.94 
L 174.89198 29.94 
L 176.724062 29.94 
L 178.556144 29.94 
L 180.388226 29.94 
L 182.220307 531.16 
L 184.052389 29.94 
L 185.884471 29.94 
L 187.716553 29.94 
L 189.548635 29.94 
L 191.380717 29.94 
L 193.212799 29.94 
L 195.044881 29.94 
L 196.876963 29.94 
L 198.709045 29.94 
L 200.541127 29.94 
L 202.373209 29.94 
L 204.20529 29.94 
L 206.037372 29.94 
L 207.869454 280.55 
L 209.701536 531.16 
L 211.533618 29.94 
L 213.3657 29.94 
L 215.197782 29.94 
L 217.029864 29.94 
L 218.861946 29.94 
L 220.694028 29.94 
L 222.52611 29.94 
L 224.358192 29.94 
L 226.190273 29.94 
L 228.022355 280.55 
L 229.854437 29.94 
L 231.686519 29.94 
L 233.518601 531.16 
L 235.350683 29.94 
L 237.182765 29.94 
L 239.014847 531.16 
L 240.846929 29.94 
L 242.679011 130.184 
L 244.511093 29.94 
L 246.343175 531.16 
L 248.175256 29.94 
L 250.007338 531.16 
L 251.83942 531.16 
L 253.671502 531.16 
L 255.503584 29.94 
L 257.335666 29.94 
L 259.167748 29.94 
L 260.99983 29.94 
L 262.831912 29.94 
L 264.663994 29.94 
L 266.496076 29.94 
L 268.328158 29.94 
L 270.160239 29.94 
L 271.992321 29.94 
L 273.824403 29.94 
L 275.656485 29.94 
L 277.488567 29.94 
L 279.320649 531.16 
L 281.152731 531.16 
L 282.984813 29.94 
L 284.816895 29.94 
L 286.648977 29.94 
L 288.481059 29.94 
L 290.313141 29.94 
L 292.145222 29.94 
L 293.977304 29.94 
L 295.809386 29.94 
L 297.641468 29.94 
L 299.47355 29.94 
L 301.305632 29.94 
L 303.137714 29.94 
L 304.969796 29.94 
L 306.801878 531.16 
L 308.63396 29.94 
L 310.466042 29.94 
L 312.298124 29.94 
L 314.130205 29.94 
L 315.962287 75.505455 
L 317.794369 197.013333 
L 319.626451 29.94 
L 321.458533 29.94 
L 323.290615 230.428 
L 325.122697 29.94 
L 326.954779 29.94 
L 328.786861 280.55 
L 330.618943 29.94 
L 332.451025 29.94 
L 334.283106 29.94 
L 336.115188 29.94 
L 337.94727 531.16 
L 339.779352 29.94 
L 341.611434 29.94 
L 343.443516 29.94 
L 345.275598 29.94 
L 347.10768 531.16 
L 348.939762 29.94 
L 350.771844 29.94 
L 352.603926 155.245 
L 354.436008 29.94 
L 356.268089 29.94 
L 358.100171 280.55 
L 359.932253 29.94 
L 361.764335 29.94 
L 363.596417 29.94 
L 365.428499 29.94 
L 367.260581 29.94 
L 369.092663 29.94 
L 370.924745 29.94 
L 372.756827 80.062 
L 374.588909 29.94 
L 376.420991 29.94 
L 378.253072 29.94 
L 380.085154 29.94 
L 381.917236 101.542857 
L 383.749318 29.94 
L 385.5814 29.94 
L 387.413482 29.94 
L 389.245564 29.94 
L 391.077646 29.94 
L 392.909728 29.94 
L 394.74181 29.94 
L 396.573892 29.94 
L 398.405974 29.94 
L 400.238055 29.94 
L 402.070137 29.94 
L 403.902219 29.94 
L 405.734301 29.94 
L 407.566383 29.94 
L 409.398465 29.94 
L 411.230547 29.94 
L 413.062629 531.16 
L 414.894711 29.94 
L 416.726793 29.94 
L 418.558875 29.94 
L 420.390957 29.94 
L 422.223038 29.94 
L 424.05512 29.94 
L 425.887202 531.16 
L 427.719284 29.94 
L 429.551366 130.184 
L 431.383448 29.94 
L 433.21553 531.16 
L 435.047612 280.55 
L 436.879694 29.94 
L 438.711776 29.94 
L 440.543858 29.94 
L 442.37594 29.94 
L 444.208021 29.94 
L 446.040103 29.94 
L 447.872185 29.94 
L 449.704267 29.94 
L 451.536349 29.94 
L 453.368431 29.94 
L 455.200513 29.94 
L 457.032595 29.94 
L 458.864677 29.94 
L 460.696759 29.94 
L 462.528841 531.16 
L 464.360922 29.94 
L 466.193004 29.94 
L 468.025086 29.94 
L 469.857168 531.16 
L 471.68925 29.94 
L 473.521332 29.94 
L 475.353414 29.94 
L 477.185496 364.086667 
L 479.017578 29.94 
L 480.84966 29.94 
L 482.681742 29.94 
L 484.513824 29.94 
L 486.345905 531.16 
L 488.177987 29.94 
L 490.010069 29.94 
L 491.842151 29.94 
L 493.674233 29.94 
L 495.506315 29.94 
L 497.338397 29.94 
L 499.170479 29.94 
L 501.002561 531.16 
L 502.834643 29.94 
L 504.666725 29.94 
L 506.498807 29.94 
L 508.330888 29.94 
L 510.16297 29.94 
L 511.995052 29.94 
L 513.827134 29.94 
L 515.659216 29.94 
L 517.491298 29.94 
L 519.32338 29.94 
L 521.155462 29.94 
L 522.987544 29.94 
L 524.819626 29.94 
L 526.651708 29.94 
L 528.48379 29.94 
L 530.315871 29.94 
L 532.147953 29.94 
L 533.980035 130.184 
L 535.812117 29.94 
L 537.644199 29.94 
L 539.476281 531.16 
L 541.308363 29.94 
L 543.140445 130.184 
L 544.972527 29.94 
L 546.804609 29.94 
L 548.636691 29.94 
L 550.468773 29.94 
L 552.300854 29.94 
L 554.132936 29.94 
L 555.965018 29.94 
L 557.7971 29.94 
L 559.629182 29.94 
L 561.461264 29.94 
L 563.293346 29.94 
L 565.125428 29.94 
L 566.95751 29.94 
L 568.789592 29.94 
L 570.621674 29.94 
L 572.453756 29.94 
L 574.285837 29.94 
L 576.117919 29.94 
L 577.950001 29.94 
L 579.782083 29.94 
L 581.614165 29.94 
L 583.446247 29.94 
L 585.278329 29.94 
L 587.110411 29.94 
L 588.942493 29.94 
L 590.774575 29.94 
L 592.606657 29.94 
L 594.438739 29.94 
L 596.27082 29.94 
L 598.102902 29.94 
L 599.934984 29.94 
L 601.767066 29.94 
L 603.599148 29.94 
L 605.43123 29.94 
L 607.263312 531.16 
L 609.095394 29.94 
L 610.927476 29.94 
L 612.759558 29.94 
L 614.59164 29.94 
L 616.423721 280.55 
L 618.255803 29.94 
L 620.087885 29.94 
L 621.919967 29.94 
L 623.752049 29.94 
L 625.584131 29.94 
L 627.416213 29.94 
L 629.248295 29.94 
L 631.080377 29.94 
L 632.912459 29.94 
L 634.744541 29.94 
L 636.576623 280.55 
L 638.408704 29.94 
L 640.240786 29.94 
L 642.072868 531.16 
L 643.90495 29.94 
L 645.737032 29.94 
L 647.569114 29.94 
L 649.401196 29.94 
L 651.233278 531.16 
L 653.06536 29.94 
L 654.897442 29.94 
L 656.729524 531.16 
L 658.561606 29.94 
L 660.393687 29.94 
L 662.225769 29.94 
L 664.057851 280.55 
L 665.889933 29.94 
L 667.722015 29.94 
L 669.554097 155.245 
L 671.386179 29.94 
L 673.218261 531.16 
L 673.218261 531.16 
L 673.218261 531.16 
L 671.386179 29.94 
L 669.554097 155.245 
L 667.722015 29.94 
L 665.889933 29.94 
L 664.057851 29.94 
L 662.225769 29.94 
L 660.393687 29.94 
L 658.561606 29.94 
L 656.729524 531.16 
L 654.897442 29.94 
L 653.06536 29.94 
L 651.233278 531.16 
L 649.401196 29.94 
L 647.569114 29.94 
L 645.737032 29.94 
L 643.90495 29.94 
L 642.072868 531.16 
L 640.240786 29.94 
L 638.408704 29.94 
L 636.576623 280.55 
L 634.744541 29.94 
L 632.912459 29.94 
L 631.080377 29.94 
L 629.248295 29.94 
L 627.416213 29.94 
L 625.584131 29.94 
L 623.752049 29.94 
L 621.919967 29.94 
L 620.087885 29.94 
L 618.255803 29.94 
L 616.423721 280.55 
L 614.59164 29.94 
L 612.759558 29.94 
L 610.927476 29.94 
L 609.095394 29.94 
L 607.263312 531.16 
L 605.43123 29.94 
L 603.599148 29.94 
L 601.767066 29.94 
L 599.934984 29.94 
L 598.102902 29.94 
L 596.27082 29.94 
L 594.438739 29.94 
L 592.606657 29.94 
L 590.774575 29.94 
L 588.942493 29.94 
L 587.110411 29.94 
L 585.278329 29.94 
L 583.446247 29.94 
L 581.614165 29.94 
L 579.782083 29.94 
L 577.950001 29.94 
L 576.117919 29.94 
L 574.285837 29.94 
L 572.453756 29.94 
L 570.621674 29.94 
L 568.789592 29.94 
L 566.95751 29.94 
L 565.125428 29.94 
L 563.293346 29.94 
L 561.461264 29.94 
L 559.629182 29.94 
L 557.7971 29.94 
L 555.965018 29.94 
L 554.132936 29.94 
L 552.300854 29.94 
L 550.468773 29.94 
L 548.636691 29.94 
L 546.804609 29.94 
L 544.972527 29.94 
L 543.140445 130.184 
L 541.308363 29.94 
L 539.476281 531.16 
L 537.644199 29.94 
L 535.812117 29.94 
L 533.980035 130.184 
L 532.147953 29.94 
L 530.315871 29.94 
L 528.48379 29.94 
L 526.651708 29.94 
L 524.819626 29.94 
L 522.987544 29.94 
L 521.155462 29.94 
L 519.32338 29.94 
L 517.491298 29.94 
L 515.659216 29.94 
L 513.827134 29.94 
L 511.995052 29.94 
L 510.16297 29.94 
L 508.330888 29.94 
L 506.498807 29.94 
L 504.666725 29.94 
L 502.834643 29.94 
L 501.002561 531.16 
L 499.170479 29.94 
L 497.338397 29.94 
L 495.506315 29.94 
L 493.674233 29.94 
L 491.842151 29.94 
L 490.010069 29.94 
L 488.177987 29.94 
L 486.345905 531.16 
L 484.513824 29.94 
L 482.681742 29.94 
L 480.84966 29.94 
L 479.017578 29.94 
L 477.185496 197.013333 
L 475.353414 29.94 
L 473.521332 29.94 
L 471.68925 29.94 
L 469.857168 531.16 
L 468.025086 29.94 
L 466.193004 29.94 
L 464.360922 29.94 
L 462.528841 531.16 
L 460.696759 29.94 
L 458.864677 29.94 
L 457.032595 29.94 
L 455.200513 29.94 
L 453.368431 29.94 
L 451.536349 29.94 
L 449.704267 29.94 
L 447.872185 29.94 
L 446.040103 29.94 
L 444.208021 29.94 
L 442.37594 29.94 
L 440.543858 29.94 
L 438.711776 29.94 
L 436.879694 29.94 
L 435.047612 280.55 
L 433.21553 531.16 
L 431.383448 29.94 
L 429.551366 29.94 
L 427.719284 29.94 
L 425.887202 531.16 
L 424.05512 29.94 
L 422.223038 29.94 
L 420.390957 29.94 
L 418.558875 29.94 
L 416.726793 29.94 
L 414.894711 29.94 
L 413.062629 531.16 
L 411.230547 29.94 
L 409.398465 29.94 
L 407.566383 29.94 
L 405.734301 29.94 
L 403.902219 29.94 
L 402.070137 29.94 
L 400.238055 29.94 
L 398.405974 29.94 
L 396.573892 29.94 
L 394.74181 29.94 
L 392.909728 29.94 
L 391.077646 29.94 
L 389.245564 29.94 
L 387.413482 29.94 
L 385.5814 29.94 
L 383.749318 29.94 
L 381.917236 101.542857 
L 380.085154 29.94 
L 378.253072 29.94 
L 376.420991 29.94 
L 374.588909 29.94 
L 372.756827 80.062 
L 370.924745 29.94 
L 369.092663 29.94 
L 367.260581 29.94 
L 365.428499 29.94 
L 363.596417 29.94 
L 361.764335 29.94 
L 359.932253 29.94 
L 358.100171 29.94 
L 356.268089 29.94 
L 354.436008 29.94 
L 352.603926 155.245 
L 350.771844 29.94 
L 348.939762 29.94 
L 347.10768 29.94 
L 345.275598 29.94 
L 343.443516 29.94 
L 341.611434 29.94 
L 339.779352 29.94 
L 337.94727 531.16 
L 336.115188 29.94 
L 334.283106 29.94 
L 332.451025 29.94 
L 330.618943 29.94 
L 328.786861 280.55 
L 326.954779 29.94 
L 325.122697 29.94 
L 323.290615 29.94 
L 321.458533 29.94 
L 319.626451 29.94 
L 317.794369 197.013333 
L 315.962287 29.94 
L 314.130205 29.94 
L 312.298124 29.94 
L 310.466042 29.94 
L 308.63396 29.94 
L 306.801878 531.16 
L 304.969796 29.94 
L 303.137714 29.94 
L 301.305632 29.94 
L 299.47355 29.94 
L 297.641468 29.94 
L 295.809386 29.94 
L 293.977304 29.94 
L 292.145222 29.94 
L 290.313141 29.94 
L 288.481059 29.94 
L 286.648977 29.94 
L 284.816895 29.94 
L 282.984813 29.94 
L 281.152731 531.16 
L 279.320649 531.16 
L 277.488567 29.94 
L 275.656485 29.94 
L 273.824403 29.94 
L 271.992321 29.94 
L 270.160239 29.94 
L 268.328158 29.94 
L 266.496076 29.94 
L 264.663994 29.94 
L 262.831912 29.94 
L 260.99983 29.94 
L 259.167748 29.94 
L 257.335666 29.94 
L 255.503584 29.94 
L 253.671502 280.55 
L 251.83942 531.16 
L 250.007338 531.16 
L 248.175256 29.94 
L 246.343175 531.16 
L 244.511093 29.94 
L 242.679011 130.184 
L 240.846929 29.94 
L 239.014847 531.16 
L 237.182765 29.94 
L 235.350683 29.94 
L 233.518601 531.16 
L 231.686519 29.94 
L 229.854437 29.94 
L 228.022355 29.94 
L 226.190273 29.94 
L 224.358192 29.94 
L 222.52611 29.94 
L 220.694028 29.94 
L 218.861946 29.94 
L 217.029864 29.94 
L 215.197782 29.94 
L 213.3657 29.94 
L 211.533618 29.94 
L 209.701536 531.16 
L 207.869454 29.94 
L 206.037372 29.94 
L 204.20529 29.94 
L 202.373209 29.94 
L 200.541127 29.94 
L 198.709045 29.94 
L 196.876963 29.94 
L 195.044881 29.94 
L 193.212799 29.94 
L 191.380717 29.94 
L 189.548635 29.94 
L 187.716553 29.94 
L 185.884471 29.94 
L 184.052389 29.94 
L 182.220307 531.16 
L 180.388226 29.94 
L 178.556144 29.94 
L 176.724062 29.94 
L 174.89198 29.94 
L 173.059898 29.94 
L 171.227816 29.94 
L 169.395734 29.94 
L 167.563652 29.94 
L 165.73157 29.94 
L 163.899488 29.94 
L 162.067406 29.94 
L 160.235325 29.94 
L 158.403243 29.94 
L 156.571161 155.245 
L 154.739079 29.94 
L 152.906997 531.16 
L 151.074915 531.16 
L 149.242833 531.16 
L 147.410751 280.55 
L 145.578669 29.94 
L 143.746587 29.94 
L 141.914505 531.16 
L 140.082423 29.94 
L 138.250342 29.94 
L 136.41826 29.94 
L 134.586178 29.94 
L 132.754096 29.94 
L 130.922014 29.94 
L 129.089932 280.55 
L 127.25785 29.94 
L 125.425768 29.94 
L 123.593686 29.94 
L 121.761604 29.94 
L 119.929522 29.94 
L 118.09744 531.16 
L 116.265359 29.94 
L 114.433277 29.94 
L 112.601195 29.94 
L 110.769113 29.94 
L 108.937031 29.94 
L 107.104949 29.94 
L 105.272867 29.94 
L 103.440785 531.16 
L 101.608703 29.94 
L 99.776621 29.94 
L 97.944539 29.94 
L 96.112457 29.94 
L 94.280376 29.94 
L 92.448294 29.94 
L 90.616212 29.94 
L 88.78413 29.94 
L 86.952048 29.94 
L 85.119966 29.94 
L 83.287884 29.94 
L 81.455802 29.94 
L 79.62372 29.94 
L 77.791638 29.94 
L 75.959556 29.94 
L 74.127474 197.013333 
L 72.295393 29.94 
L 70.463311 29.94 
L 68.631229 531.16 
L 66.799147 29.94 
L 64.967065 29.94 
L 63.134983 29.94 
L 61.302901 29.94 
L 59.470819 29.94 
L 57.638737 113.476667 
L 55.806655 29.94 
L 53.974573 29.94 
L 52.142491 101.542857 
L 50.31041 59.423529 
L 48.478328 29.94 
L 46.646246 47.223448 
L 44.814164 55.001 
L 42.982082 29.94 
L 41.15 71.708333 
z
" clip-path="url(#p7bd5b160e1)" style="fill: #e8bc60"/>
   </g>
   <g id="FillBetweenPolyCollection_4">
    <path d="M 41.15 29.94 
L 41.15 71.708333 
L 42.982082 29.94 
L 44.814164 55.001 
L 46.646246 47.223448 
L 48.478328 29.94 
L 50.31041 59.423529 
L 52.142491 101.542857 
L 53.974573 29.94 
L 55.806655 29.94 
L 57.638737 113.476667 
L 59.470819 29.94 
L 61.302901 29.94 
L 63.134983 29.94 
L 64.967065 29.94 
L 66.799147 29.94 
L 68.631229 531.16 
L 70.463311 29.94 
L 72.295393 29.94 
L 74.127474 197.013333 
L 75.959556 29.94 
L 77.791638 29.94 
L 79.62372 29.94 
L 81.455802 29.94 
L 83.287884 29.94 
L 85.119966 29.94 
L 86.952048 29.94 
L 88.78413 29.94 
L 90.616212 29.94 
L 92.448294 29.94 
L 94.280376 29.94 
L 96.112457 29.94 
L 97.944539 29.94 
L 99.776621 29.94 
L 101.608703 29.94 
L 103.440785 531.16 
L 105.272867 29.94 
L 107.104949 29.94 
L 108.937031 29.94 
L 110.769113 29.94 
L 112.601195 29.94 
L 114.433277 29.94 
L 116.265359 29.94 
L 118.09744 531.16 
L 119.929522 29.94 
L 121.761604 29.94 
L 123.593686 29.94 
L 125.425768 29.94 
L 127.25785 29.94 
L 129.089932 280.55 
L 130.922014 29.94 
L 132.754096 29.94 
L 134.586178 29.94 
L 136.41826 29.94 
L 138.250342 29.94 
L 140.082423 29.94 
L 141.914505 531.16 
L 143.746587 29.94 
L 145.578669 29.94 
L 147.410751 280.55 
L 149.242833 531.16 
L 151.074915 531.16 
L 152.906997 531.16 
L 154.739079 29.94 
L 156.571161 155.245 
L 158.403243 29.94 
L 160.235325 29.94 
L 162.067406 29.94 
L 163.899488 29.94 
L 165.73157 29.94 
L 167.563652 29.94 
L 169.395734 29.94 
L 171.227816 29.94 
L 173.059898 29.94 
L 174.89198 29.94 
L 176.724062 29.94 
L 178.556144 29.94 
L 180.388226 29.94 
L 182.220307 531.16 
L 184.052389 29.94 
L 185.884471 29.94 
L 187.716553 29.94 
L 189.548635 29.94 
L 191.380717 29.94 
L 193.212799 29.94 
L 195.044881 29.94 
L 196.876963 29.94 
L 198.709045 29.94 
L 200.541127 29.94 
L 202.373209 29.94 
L 204.20529 29.94 
L 206.037372 29.94 
L 207.869454 29.94 
L 209.701536 531.16 
L 211.533618 29.94 
L 213.3657 29.94 
L 215.197782 29.94 
L 217.029864 29.94 
L 218.861946 29.94 
L 220.694028 29.94 
L 222.52611 29.94 
L 224.358192 29.94 
L 226.190273 29.94 
L 228.022355 29.94 
L 229.854437 29.94 
L 231.686519 29.94 
L 233.518601 531.16 
L 235.350683 29.94 
L 237.182765 29.94 
L 239.014847 531.16 
L 240.846929 29.94 
L 242.679011 130.184 
L 244.511093 29.94 
L 246.343175 531.16 
L 248.175256 29.94 
L 250.007338 531.16 
L 251.83942 531.16 
L 253.671502 280.55 
L 255.503584 29.94 
L 257.335666 29.94 
L 259.167748 29.94 
L 260.99983 29.94 
L 262.831912 29.94 
L 264.663994 29.94 
L 266.496076 29.94 
L 268.328158 29.94 
L 270.160239 29.94 
L 271.992321 29.94 
L 273.824403 29.94 
L 275.656485 29.94 
L 277.488567 29.94 
L 279.320649 531.16 
L 281.152731 531.16 
L 282.984813 29.94 
L 284.816895 29.94 
L 286.648977 29.94 
L 288.481059 29.94 
L 290.313141 29.94 
L 292.145222 29.94 
L 293.977304 29.94 
L 295.809386 29.94 
L 297.641468 29.94 
L 299.47355 29.94 
L 301.305632 29.94 
L 303.137714 29.94 
L 304.969796 29.94 
L 306.801878 531.16 
L 308.63396 29.94 
L 310.466042 29.94 
L 312.298124 29.94 
L 314.130205 29.94 
L 315.962287 29.94 
L 317.794369 197.013333 
L 319.626451 29.94 
L 321.458533 29.94 
L 323.290615 29.94 
L 325.122697 29.94 
L 326.954779 29.94 
L 328.786861 280.55 
L 330.618943 29.94 
L 332.451025 29.94 
L 334.283106 29.94 
L 336.115188 29.94 
L 337.94727 531.16 
L 339.779352 29.94 
L 341.611434 29.94 
L 343.443516 29.94 
L 345.275598 29.94 
L 347.10768 29.94 
L 348.939762 29.94 
L 350.771844 29.94 
L 352.603926 155.245 
L 354.436008 29.94 
L 356.268089 29.94 
L 358.100171 29.94 
L 359.932253 29.94 
L 361.764335 29.94 
L 363.596417 29.94 
L 365.428499 29.94 
L 367.260581 29.94 
L 369.092663 29.94 
L 370.924745 29.94 
L 372.756827 80.062 
L 374.588909 29.94 
L 376.420991 29.94 
L 378.253072 29.94 
L 380.085154 29.94 
L 381.917236 101.542857 
L 383.749318 29.94 
L 385.5814 29.94 
L 387.413482 29.94 
L 389.245564 29.94 
L 391.077646 29.94 
L 392.909728 29.94 
L 394.74181 29.94 
L 396.573892 29.94 
L 398.405974 29.94 
L 400.238055 29.94 
L 402.070137 29.94 
L 403.902219 29.94 
L 405.734301 29.94 
L 407.566383 29.94 
L 409.398465 29.94 
L 411.230547 29.94 
L 413.062629 531.16 
L 414.894711 29.94 
L 416.726793 29.94 
L 418.558875 29.94 
L 420.390957 29.94 
L 422.223038 29.94 
L 424.05512 29.94 
L 425.887202 531.16 
L 427.719284 29.94 
L 429.551366 29.94 
L 431.383448 29.94 
L 433.21553 531.16 
L 435.047612 280.55 
L 436.879694 29.94 
L 438.711776 29.94 
L 440.543858 29.94 
L 442.37594 29.94 
L 444.208021 29.94 
L 446.040103 29.94 
L 447.872185 29.94 
L 449.704267 29.94 
L 451.536349 29.94 
L 453.368431 29.94 
L 455.200513 29.94 
L 457.032595 29.94 
L 458.864677 29.94 
L 460.696759 29.94 
L 462.528841 531.16 
L 464.360922 29.94 
L 466.193004 29.94 
L 468.025086 29.94 
L 469.857168 531.16 
L 471.68925 29.94 
L 473.521332 29.94 
L 475.353414 29.94 
L 477.185496 197.013333 
L 479.017578 29.94 
L 480.84966 29.94 
L 482.681742 29.94 
L 484.513824 29.94 
L 486.345905 531.16 
L 488.177987 29.94 
L 490.010069 29.94 
L 491.842151 29.94 
L 493.674233 29.94 
L 495.506315 29.94 
L 497.338397 29.94 
L 499.170479 29.94 
L 501.002561 531.16 
L 502.834643 29.94 
L 504.666725 29.94 
L 506.498807 29.94 
L 508.330888 29.94 
L 510.16297 29.94 
L 511.995052 29.94 
L 513.827134 29.94 
L 515.659216 29.94 
L 517.491298 29.94 
L 519.32338 29.94 
L 521.155462 29.94 
L 522.987544 29.94 
L 524.819626 29.94 
L 526.651708 29.94 
L 528.48379 29.94 
L 530.315871 29.94 
L 532.147953 29.94 
L 533.980035 130.184 
L 535.812117 29.94 
L 537.644199 29.94 
L 539.476281 531.16 
L 541.308363 29.94 
L 543.140445 130.184 
L 544.972527 29.94 
L 546.804609 29.94 
L 548.636691 29.94 
L 550.468773 29.94 
L 552.300854 29.94 
L 554.132936 29.94 
L 555.965018 29.94 
L 557.7971 29.94 
L 559.629182 29.94 
L 561.461264 29.94 
L 563.293346 29.94 
L 565.125428 29.94 
L 566.95751 29.94 
L 568.789592 29.94 
L 570.621674 29.94 
L 572.453756 29.94 
L 574.285837 29.94 
L 576.117919 29.94 
L 577.950001 29.94 
L 579.782083 29.94 
L 581.614165 29.94 
L 583.446247 29.94 
L 585.278329 29.94 
L 587.110411 29.94 
L 588.942493 29.94 
L 590.774575 29.94 
L 592.606657 29.94 
L 594.438739 29.94 
L 596.27082 29.94 
L 598.102902 29.94 
L 599.934984 29.94 
L 601.767066 29.94 
L 603.599148 29.94 
L 605.43123 29.94 
L 607.263312 531.16 
L 609.095394 29.94 
L 610.927476 29.94 
L 612.759558 29.94 
L 614.59164 29.94 
L 616.423721 280.55 
L 618.255803 29.94 
L 620.087885 29.94 
L 621.919967 29.94 
L 623.752049 29.94 
L 625.584131 29.94 
L 627.416213 29.94 
L 629.248295 29.94 
L 631.080377 29.94 
L 632.912459 29.94 
L 634.744541 29.94 
L 636.576623 280.55 
L 638.408704 29.94 
L 640.240786 29.94 
L 642.072868 531.16 
L 643.90495 29.94 
L 645.737032 29.94 
L 647.569114 29.94 
L 649.401196 29.94 
L 651.233278 531.16 
L 653.06536 29.94 
L 654.897442 29.94 
L 656.729524 531.16 
L 658.561606 29.94 
L 660.393687 29.94 
L 662.225769 29.94 
L 664.057851 29.94 
L 665.889933 29.94 
L 667.722015 29.94 
L 669.554097 155.245 
L 671.386179 29.94 
L 673.218261 531.16 
L 673.218261 29.94 
L 673.218261 29.94 
L 671.386179 29.94 
L 669.554097 29.94 
L 667.722015 29.94 
L 665.889933 29.94 
L 664.057851 29.94 
L 662.225769 29.94 
L 660.393687 29.94 
L 658.561606 29.94 
L 656.729524 29.94 
L 654.897442 29.94 
L 653.06536 29.94 
L 651.233278 29.94 
L 649.401196 29.94 
L 647.569114 29.94 
L 645.737032 29.94 
L 643.90495 29.94 
L 642.072868 29.94 
L 640.240786 29.94 
L 638.408704 29.94 
L 636.576623 29.94 
L 634.744541 29.94 
L 632.912459 29.94 
L 631.080377 29.94 
L 629.248295 29.94 
L 627.416213 29.94 
L 625.584131 29.94 
L 623.752049 29.94 
L 621.919967 29.94 
L 620.087885 29.94 
L 618.255803 29.94 
L 616.423721 29.94 
L 614.59164 29.94 
L 612.759558 29.94 
L 610.927476 29.94 
L 609.095394 29.94 
L 607.263312 29.94 
L 605.43123 29.94 
L 603.599148 29.94 
L 601.767066 29.94 
L 599.934984 29.94 
L 598.102902 29.94 
L 596.27082 29.94 
L 594.438739 29.94 
L 592.606657 29.94 
L 590.774575 29.94 
L 588.942493 29.94 
L 587.110411 29.94 
L 585.278329 29.94 
L 583.446247 29.94 
L 581.614165 29.94 
L 579.782083 29.94 
L 577.950001 29.94 
L 576.117919 29.94 
L 574.285837 29.94 
L 572.453756 29.94 
L 570.621674 29.94 
L 568.789592 29.94 
L 566.95751 29.94 
L 565.125428 29.94 
L 563.293346 29.94 
L 561.461264 29.94 
L 559.629182 29.94 
L 557.7971 29.94 
L 555.965018 29.94 
L 554.132936 29.94 
L 552.300854 29.94 
L 550.468773 29.94 
L 548.636691 29.94 
L 546.804609 29.94 
L 544.972527 29.94 
L 543.140445 29.94 
L 541.308363 29.94 
L 539.476281 29.94 
L 537.644199 29.94 
L 535.812117 29.94 
L 533.980035 29.94 
L 532.147953 29.94 
L 530.315871 29.94 
L 528.48379 29.94 
L 526.651708 29.94 
L 524.819626 29.94 
L 522.987544 29.94 
L 521.155462 29.94 
L 519.32338 29.94 
L 517.491298 29.94 
L 515.659216 29.94 
L 513.827134 29.94 
L 511.995052 29.94 
L 510.16297 29.94 
L 508.330888 29.94 
L 506.498807 29.94 
L 504.666725 29.94 
L 502.834643 29.94 
L 501.002561 29.94 
L 499.170479 29.94 
L 497.338397 29.94 
L 495.506315 29.94 
L 493.674233 29.94 
L 491.842151 29.94 
L 490.010069 29.94 
L 488.177987 29.94 
L 486.345905 29.94 
L 484.513824 29.94 
L 482.681742 29.94 
L 480.84966 29.94 
L 479.017578 29.94 
L 477.185496 29.94 
L 475.353414 29.94 
L 473.521332 29.94 
L 471.68925 29.94 
L 469.857168 29.94 
L 468.025086 29.94 
L 466.193004 29.94 
L 464.360922 29.94 
L 462.528841 29.94 
L 460.696759 29.94 
L 458.864677 29.94 
L 457.032595 29.94 
L 455.200513 29.94 
L 453.368431 29.94 
L 451.536349 29.94 
L 449.704267 29.94 
L 447.872185 29.94 
L 446.040103 29.94 
L 444.208021 29.94 
L 442.37594 29.94 
L 440.543858 29.94 
L 438.711776 29.94 
L 436.879694 29.94 
L 435.047612 29.94 
L 433.21553 29.94 
L 431.383448 29.94 
L 429.551366 29.94 
L 427.719284 29.94 
L 425.887202 29.94 
L 424.05512 29.94 
L 422.223038 29.94 
L 420.390957 29.94 
L 418.558875 29.94 
L 416.726793 29.94 
L 414.894711 29.94 
L 413.062629 29.94 
L 411.230547 29.94 
L 409.398465 29.94 
L 407.566383 29.94 
L 405.734301 29.94 
L 403.902219 29.94 
L 402.070137 29.94 
L 400.238055 29.94 
L 398.405974 29.94 
L 396.573892 29.94 
L 394.74181 29.94 
L 392.909728 29.94 
L 391.077646 29.94 
L 389.245564 29.94 
L 387.413482 29.94 
L 385.5814 29.94 
L 383.749318 29.94 
L 381.917236 29.94 
L 380.085154 29.94 
L 378.253072 29.94 
L 376.420991 29.94 
L 374.588909 29.94 
L 372.756827 29.94 
L 370.924745 29.94 
L 369.092663 29.94 
L 367.260581 29.94 
L 365.428499 29.94 
L 363.596417 29.94 
L 361.764335 29.94 
L 359.932253 29.94 
L 358.100171 29.94 
L 356.268089 29.94 
L 354.436008 29.94 
L 352.603926 29.94 
L 350.771844 29.94 
L 348.939762 29.94 
L 347.10768 29.94 
L 345.275598 29.94 
L 343.443516 29.94 
L 341.611434 29.94 
L 339.779352 29.94 
L 337.94727 29.94 
L 336.115188 29.94 
L 334.283106 29.94 
L 332.451025 29.94 
L 330.618943 29.94 
L 328.786861 29.94 
L 326.954779 29.94 
L 325.122697 29.94 
L 323.290615 29.94 
L 321.458533 29.94 
L 319.626451 29.94 
L 317.794369 29.94 
L 315.962287 29.94 
L 314.130205 29.94 
L 312.298124 29.94 
L 310.466042 29.94 
L 308.63396 29.94 
L 306.801878 29.94 
L 304.969796 29.94 
L 303.137714 29.94 
L 301.305632 29.94 
L 299.47355 29.94 
L 297.641468 29.94 
L 295.809386 29.94 
L 293.977304 29.94 
L 292.145222 29.94 
L 290.313141 29.94 
L 288.481059 29.94 
L 286.648977 29.94 
L 284.816895 29.94 
L 282.984813 29.94 
L 281.152731 29.94 
L 279.320649 29.94 
L 277.488567 29.94 
L 275.656485 29.94 
L 273.824403 29.94 
L 271.992321 29.94 
L 270.160239 29.94 
L 268.328158 29.94 
L 266.496076 29.94 
L 264.663994 29.94 
L 262.831912 29.94 
L 260.99983 29.94 
L 259.167748 29.94 
L 257.335666 29.94 
L 255.503584 29.94 
L 253.671502 29.94 
L 251.83942 29.94 
L 250.007338 29.94 
L 248.175256 29.94 
L 246.343175 29.94 
L 244.511093 29.94 
L 242.679011 29.94 
L 240.846929 29.94 
L 239.014847 29.94 
L 237.182765 29.94 
L 235.350683 29.94 
L 233.518601 29.94 
L 231.686519 29.94 
L 229.854437 29.94 
L 228.022355 29.94 
L 226.190273 29.94 
L 224.358192 29.94 
L 222.52611 29.94 
L 220.694028 29.94 
L 218.861946 29.94 
L 217.029864 29.94 
L 215.197782 29.94 
L 213.3657 29.94 
L 211.533618 29.94 
L 209.701536 29.94 
L 207.869454 29.94 
L 206.037372 29.94 
L 204.20529 29.94 
L 202.373209 29.94 
L 200.541127 29.94 
L 198.709045 29.94 
L 196.876963 29.94 
L 195.044881 29.94 
L 193.212799 29.94 
L 191.380717 29.94 
L 189.548635 29.94 
L 187.716553 29.94 
L 185.884471 29.94 
L 184.052389 29.94 
L 182.220307 29.94 
L 180.388226 29.94 
L 178.556144 29.94 
L 176.724062 29.94 
L 174.89198 29.94 
L 173.059898 29.94 
L 171.227816 29.94 
L 169.395734 29.94 
L 167.563652 29.94 
L 165.73157 29.94 
L 163.899488 29.94 
L 162.067406 29.94 
L 160.235325 29.94 
L 158.403243 29.94 
L 156.571161 29.94 
L 154.739079 29.94 
L 152.906997 29.94 
L 151.074915 29.94 
L 149.242833 29.94 
L 147.410751 29.94 
L 145.578669 29.94 
L 143.746587 29.94 
L 141.914505 29.94 
L 140.082423 29.94 
L 138.250342 29.94 
L 136.41826 29.94 
L 134.586178 29.94 
L 132.754096 29.94 
L 130.922014 29.94 
L 129.089932 29.94 
L 127.25785 29.94 
L 125.425768 29.94 
L 123.593686 29.94 
L 121.761604 29.94 
L 119.929522 29.94 
L 118.09744 29.94 
L 116.265359 29.94 
L 114.433277 29.94 
L 112.601195 29.94 
L 110.769113 29.94 
L 108.937031 29.94 
L 107.104949 29.94 
L 105.272867 29.94 
L 103.440785 29.94 
L 101.608703 29.94 
L 99.776621 29.94 
L 97.944539 29.94 
L 96.112457 29.94 
L 94.280376 29.94 
L 92.448294 29.94 
L 90.616212 29.94 
L 88.78413 29.94 
L 86.952048 29.94 
L 85.119966 29.94 
L 83.287884 29.94 
L 81.455802 29.94 
L 79.62372 29.94 
L 77.791638 29.94 
L 75.959556 29.94 
L 74.127474 29.94 
L 72.295393 29.94 
L 70.463311 29.94 
L 68.631229 29.94 
L 66.799147 29.94 
L 64.967065 29.94 
L 63.134983 29.94 
L 61.302901 29.94 
L 59.470819 29.94 
L 57.638737 29.94 
L 55.806655 29.94 
L 53.974573 29.94 
L 52.142491 29.94 
L 50.31041 29.94 
L 48.478328 29.94 
L 46.646246 29.94 
L 44.814164 29.94 
L 42.982082 29.94 
L 41.15 29.94 
z
" clip-path="url(#p7bd5b160e1)" style="fill: #8d5993"/>
   </g>
   <g id="matplotlib.axis_1">
    <g id="xtick_1">
     <g id="line2d_1">
      <path d="M 130.922014 531.16 
L 130.922014 29.94 
" clip-path="url(#p7bd5b160e1)" style="fill: none; stroke-dasharray: 2.96,1.28; stroke-dashoffset: 0; stroke: #b0b0b0; stroke-opacity: 0.5; stroke-width: 0.8"/>
     </g>
     <g id="line2d_2">
      <defs>
       <path id="m261691b0e3" d="M 0 0 
L 0 3.5 
" style="stroke: #000000; stroke-width: 0.8"/>
      </defs>
      <g>
       <use xlink:href="#m261691b0e3" x="130.922014" y="531.16" style="stroke: #000000; stroke-width: 0.8"/>
      </g>
     </g>
     <g id="text_1">
      <!-- 50 -->
      <g transform="translate(124.559514 545.758438) scale(0.1 -0.1)">
       <defs>
        <path id="DejaVuSans-35" d="M 691 4666 
L 3169 4666 
L 3169 4134 
L 1269 4134 
L 1269 2991 
Q 1406 3038 1543 3061 
Q 1681 3084 1819 3084 
Q 2600 3084 3056 2656 
Q 3513 2228 3513 1497 
Q 3513 744 3044 326 
Q 2575 -91 1722 -91 
Q 1428 -91 1123 -41 
Q 819 9 494 109 
L 494 744 
Q 775 591 1075 516 
Q 1375 441 1709 441 
Q 2250 441 2565 725 
Q 2881 1009 2881 1497 
Q 2881 1984 2565 2268 
Q 2250 2553 1709 2553 
Q 1456 2553 1204 2497 
Q 953 2441 691 2322 
L 691 4666 
z
" transform="scale(0.015625)"/>
        <path id="DejaVuSans-30" d="M 2034 4250 
Q 1547 4250 1301 3770 
Q 1056 3291 1056 2328 
Q 1056 1369 1301 889 
Q 1547 409 2034 409 
Q 2525 409 2770 889 
Q 3016 1369 3016 2328 
Q 3016 3291 2770 3770 
Q 2525 4250 2034 4250 
z
M 2034 4750 
Q 2819 4750 3233 4129 
Q 3647 3509 3647 2328 
Q 3647 1150 3233 529 
Q 2819 -91 2034 -91 
Q 1250 -91 836 529 
Q 422 1150 422 2328 
Q 422 3509 836 4129 
Q 1250 4750 2034 4750 
z
" transform="scale(0.015625)"/>
       </defs>
       <use xlink:href="#DejaVuSans-35"/>
       <use xlink:href="#DejaVuSans-30" transform="translate(63.623047 0)"/>
      </g>
     </g>
    </g>
    <g id="xtick_2">
     <g id="line2d_3">
      <path d="M 222.52611 531.16 
L 222.52611 29.94 
" clip-path="url(#p7bd5b160e1)" style="fill: none; stroke-dasharray: 2.96,1.28; stroke-dashoffset: 0; stroke: #b0b0b0; stroke-opacity: 0.5; stroke-width: 0.8"/>
     </g>
     <g id="line2d_4">
      <g>
       <use xlink:href="#m261691b0e3" x="222.52611" y="531.16" style="stroke: #000000; stroke-width: 0.8"/>
      </g>
     </g>
     <g id="text_2">
      <!-- 100 -->
      <g transform="translate(212.98236 545.758438) scale(0.1 -0.1)">
       <defs>
        <path id="DejaVuSans-31" d="M 794 531 
L 1825 531 
L 1825 4091 
L 703 3866 
L 703 4441 
L 1819 4666 
L 2450 4666 
L 2450 531 
L 3481 531 
L 3481 0 
L 794 0 
L 794 531 
z
" transform="scale(0.015625)"/>
       </defs>
       <use xlink:href="#DejaVuSans-31"/>
       <use xlink:href="#DejaVuSans-30" transform="translate(63.623047 0)"/>
       <use xlink:href="#DejaVuSans-30" transform="translate(127.246094 0)"/>
      </g>
     </g>
    </g>
    <g id="xtick_3">
     <g id="line2d_5">
      <path d="M 314.130205 531.16 
L 314.130205 29.94 
" clip-path="url(#p7bd5b160e1)" style="fill: none; stroke-dasharray: 2.96,1.28; stroke-dashoffset: 0; stroke: #b0b0b0; stroke-opacity: 0.5; stroke-width: 0.8"/>
     </g>
     <g id="line2d_6">
      <g>
       <use xlink:href="#m261691b0e3" x="314.130205" y="531.16" style="stroke: #000000; stroke-width: 0.8"/>
      </g>
     </g>
     <g id="text_3">
      <!-- 150 -->
      <g transform="translate(304.586455 545.758438) scale(0.1 -0.1)">
       <use xlink:href="#DejaVuSans-31"/>
       <use xlink:href="#DejaVuSans-35" transform="translate(63.623047 0)"/>
       <use xlink:href="#DejaVuSans-30" transform="translate(127.246094 0)"/>
      </g>
     </g>
    </g>
    <g id="xtick_4">
     <g id="line2d_7">
      <path d="M 405.734301 531.16 
L 405.734301 29.94 
" clip-path="url(#p7bd5b160e1)" style="fill: none; stroke-dasharray: 2.96,1.28; stroke-dashoffset: 0; stroke: #b0b0b0; stroke-opacity: 0.5; stroke-width: 0.8"/>
     </g>
     <g id="line2d_8">
      <g>
       <use xlink:href="#m261691b0e3" x="405.734301" y="531.16" style="stroke: #000000; stroke-width: 0.8"/>
      </g>
     </g>
     <g id="text_4">
      <!-- 200 -->
      <g transform="translate(396.190551 545.758438) scale(0.1 -0.1)">
       <defs>
        <path id="DejaVuSans-32" d="M 1228 531 
L 3431 531 
L 3431 0 
L 469 0 
L 469 531 
Q 828 903 1448 1529 
Q 2069 2156 2228 2338 
Q 2531 2678 2651 2914 
Q 2772 3150 2772 3378 
Q 2772 3750 2511 3984 
Q 2250 4219 1831 4219 
Q 1534 4219 1204 4116 
Q 875 4013 500 3803 
L 500 4441 
Q 881 4594 1212 4672 
Q 1544 4750 1819 4750 
Q 2544 4750 2975 4387 
Q 3406 4025 3406 3419 
Q 3406 3131 3298 2873 
Q 3191 2616 2906 2266 
Q 2828 2175 2409 1742 
Q 1991 1309 1228 531 
z
" transform="scale(0.015625)"/>
       </defs>
       <use xlink:href="#DejaVuSans-32"/>
       <use xlink:href="#DejaVuSans-30" transform="translate(63.623047 0)"/>
       <use xlink:href="#DejaVuSans-30" transform="translate(127.246094 0)"/>
      </g>
     </g>
    </g>
    <g id="xtick_5">
     <g id="line2d_9">
      <path d="M 497.338397 531.16 
L 497.338397 29.94 
" clip-path="url(#p7bd5b160e1)" style="fill: none; stroke-dasharray: 2.96,1.28; stroke-dashoffset: 0; stroke: #b0b0b0; stroke-opacity: 0.5; stroke-width: 0.8"/>
     </g>
     <g id="line2d_10">
      <g>
       <use xlink:href="#m261691b0e3" x="497.338397" y="531.16" style="stroke: #000000; stroke-width: 0.8"/>
      </g>
     </g>
     <g id="text_5">
      <!-- 250 -->
      <g transform="translate(487.794647 545.758438) scale(0.1 -0.1)">
       <use xlink:href="#DejaVuSans-32"/>
       <use xlink:href="#DejaVuSans-35" transform="translate(63.623047 0)"/>
       <use xlink:href="#DejaVuSans-30" transform="translate(127.246094 0)"/>
      </g>
     </g>
    </g>
    <g id="xtick_6">
     <g id="line2d_11">
      <path d="M 588.942493 531.16 
L 588.942493 29.94 
" clip-path="url(#p7bd5b160e1)" style="fill: none; stroke-dasharray: 2.96,1.28; stroke-dashoffset: 0; stroke: #b0b0b0; stroke-opacity: 0.5; stroke-width: 0.8"/>
     </g>
     <g id="line2d_12">
      <g>
       <use xlink:href="#m261691b0e3" x="588.942493" y="531.16" style="stroke: #000000; stroke-width: 0.8"/>
      </g>
     </g>
     <g id="text_6">
      <!-- 300 -->
      <g transform="translate(579.398743 545.758438) scale(0.1 -0.1)">
       <defs>
        <path id="DejaVuSans-33" d="M 2597 2516 
Q 3050 2419 3304 2112 
Q 3559 1806 3559 1356 
Q 3559 666 3084 287 
Q 2609 -91 1734 -91 
Q 1441 -91 1130 -33 
Q 819 25 488 141 
L 488 750 
Q 750 597 1062 519 
Q 1375 441 1716 441 
Q 2309 441 2620 675 
Q 2931 909 2931 1356 
Q 2931 1769 2642 2001 
Q 2353 2234 1838 2234 
L 1294 2234 
L 1294 2753 
L 1863 2753 
Q 2328 2753 2575 2939 
Q 2822 3125 2822 3475 
Q 2822 3834 2567 4026 
Q 2313 4219 1838 4219 
Q 1578 4219 1281 4162 
Q 984 4106 628 3988 
L 628 4550 
Q 988 4650 1302 4700 
Q 1616 4750 1894 4750 
Q 2613 4750 3031 4423 
Q 3450 4097 3450 3541 
Q 3450 3153 3228 2886 
Q 3006 2619 2597 2516 
z
" transform="scale(0.015625)"/>
       </defs>
       <use xlink:href="#DejaVuSans-33"/>
       <use xlink:href="#DejaVuSans-30" transform="translate(63.623047 0)"/>
       <use xlink:href="#DejaVuSans-30" transform="translate(127.246094 0)"/>
      </g>
     </g>
    </g>
    <g id="text_7">
     <!-- Session Count -->
     <g transform="translate(316.926474 561.559375) scale(0.14 -0.14)">
      <defs>
       <path id="TimesNewRomanPSMT-53" d="M 2934 4334 
L 2934 2869 
L 2819 2869 
Q 2763 3291 2617 3541 
Q 2472 3791 2203 3937 
Q 1934 4084 1647 4084 
Q 1322 4084 1109 3886 
Q 897 3688 897 3434 
Q 897 3241 1031 3081 
Q 1225 2847 1953 2456 
Q 2547 2138 2764 1967 
Q 2981 1797 3098 1565 
Q 3216 1334 3216 1081 
Q 3216 600 2842 251 
Q 2469 -97 1881 -97 
Q 1697 -97 1534 -69 
Q 1438 -53 1133 45 
Q 828 144 747 144 
Q 669 144 623 97 
Q 578 50 556 -97 
L 441 -97 
L 441 1356 
L 556 1356 
Q 638 900 775 673 
Q 913 447 1195 297 
Q 1478 147 1816 147 
Q 2206 147 2432 353 
Q 2659 559 2659 841 
Q 2659 997 2573 1156 
Q 2488 1316 2306 1453 
Q 2184 1547 1640 1851 
Q 1097 2156 867 2337 
Q 638 2519 519 2737 
Q 400 2956 400 3219 
Q 400 3675 750 4004 
Q 1100 4334 1641 4334 
Q 1978 4334 2356 4169 
Q 2531 4091 2603 4091 
Q 2684 4091 2736 4139 
Q 2788 4188 2819 4334 
L 2934 4334 
z
" transform="scale(0.015625)"/>
       <path id="TimesNewRomanPSMT-65" d="M 681 1784 
Q 678 1147 991 784 
Q 1303 422 1725 422 
Q 2006 422 2214 576 
Q 2422 731 2563 1106 
L 2659 1044 
Q 2594 616 2278 264 
Q 1963 -88 1488 -88 
Q 972 -88 605 314 
Q 238 716 238 1394 
Q 238 2128 614 2539 
Q 991 2950 1559 2950 
Q 2041 2950 2350 2633 
Q 2659 2316 2659 1784 
L 681 1784 
z
M 681 1966 
L 2006 1966 
Q 1991 2241 1941 2353 
Q 1863 2528 1708 2628 
Q 1553 2728 1384 2728 
Q 1125 2728 920 2526 
Q 716 2325 681 1966 
z
" transform="scale(0.015625)"/>
       <path id="TimesNewRomanPSMT-73" d="M 2050 2947 
L 2050 1972 
L 1947 1972 
Q 1828 2431 1642 2597 
Q 1456 2763 1169 2763 
Q 950 2763 815 2647 
Q 681 2531 681 2391 
Q 681 2216 781 2091 
Q 878 1963 1175 1819 
L 1631 1597 
Q 2266 1288 2266 781 
Q 2266 391 1970 151 
Q 1675 -88 1309 -88 
Q 1047 -88 709 6 
Q 606 38 541 38 
Q 469 38 428 -44 
L 325 -44 
L 325 978 
L 428 978 
Q 516 541 762 319 
Q 1009 97 1316 97 
Q 1531 97 1667 223 
Q 1803 350 1803 528 
Q 1803 744 1651 891 
Q 1500 1038 1047 1263 
Q 594 1488 453 1669 
Q 313 1847 313 2119 
Q 313 2472 555 2709 
Q 797 2947 1181 2947 
Q 1350 2947 1591 2875 
Q 1750 2828 1803 2828 
Q 1853 2828 1881 2850 
Q 1909 2872 1947 2947 
L 2050 2947 
z
" transform="scale(0.015625)"/>
       <path id="TimesNewRomanPSMT-69" d="M 928 4444 
Q 1059 4444 1151 4351 
Q 1244 4259 1244 4128 
Q 1244 3997 1151 3903 
Q 1059 3809 928 3809 
Q 797 3809 703 3903 
Q 609 3997 609 4128 
Q 609 4259 701 4351 
Q 794 4444 928 4444 
z
M 1188 2947 
L 1188 647 
Q 1188 378 1227 289 
Q 1266 200 1342 156 
Q 1419 113 1622 113 
L 1622 0 
L 231 0 
L 231 113 
Q 441 113 512 153 
Q 584 194 626 287 
Q 669 381 669 647 
L 669 1750 
Q 669 2216 641 2353 
Q 619 2453 572 2492 
Q 525 2531 444 2531 
Q 356 2531 231 2484 
L 188 2597 
L 1050 2947 
L 1188 2947 
z
" transform="scale(0.015625)"/>
       <path id="TimesNewRomanPSMT-6f" d="M 1600 2947 
Q 2250 2947 2644 2453 
Q 2978 2031 2978 1484 
Q 2978 1100 2793 706 
Q 2609 313 2286 112 
Q 1963 -88 1566 -88 
Q 919 -88 538 428 
Q 216 863 216 1403 
Q 216 1797 411 2186 
Q 606 2575 925 2761 
Q 1244 2947 1600 2947 
z
M 1503 2744 
Q 1338 2744 1170 2645 
Q 1003 2547 900 2300 
Q 797 2053 797 1666 
Q 797 1041 1045 587 
Q 1294 134 1700 134 
Q 2003 134 2200 384 
Q 2397 634 2397 1244 
Q 2397 2006 2069 2444 
Q 1847 2744 1503 2744 
z
" transform="scale(0.015625)"/>
       <path id="TimesNewRomanPSMT-6e" d="M 1034 2341 
Q 1538 2947 1994 2947 
Q 2228 2947 2397 2830 
Q 2566 2713 2666 2444 
Q 2734 2256 2734 1869 
L 2734 647 
Q 2734 375 2778 278 
Q 2813 200 2889 156 
Q 2966 113 3172 113 
L 3172 0 
L 1756 0 
L 1756 113 
L 1816 113 
Q 2016 113 2095 173 
Q 2175 234 2206 353 
Q 2219 400 2219 647 
L 2219 1819 
Q 2219 2209 2117 2386 
Q 2016 2563 1775 2563 
Q 1403 2563 1034 2156 
L 1034 647 
Q 1034 356 1069 288 
Q 1113 197 1189 155 
Q 1266 113 1500 113 
L 1500 0 
L 84 0 
L 84 113 
L 147 113 
Q 366 113 442 223 
Q 519 334 519 647 
L 519 1709 
Q 519 2225 495 2337 
Q 472 2450 423 2490 
Q 375 2531 294 2531 
Q 206 2531 84 2484 
L 38 2597 
L 900 2947 
L 1034 2947 
L 1034 2341 
z
" transform="scale(0.015625)"/>
       <path id="TimesNewRomanPSMT-20" transform="scale(0.015625)"/>
       <path id="TimesNewRomanPSMT-43" d="M 3853 4334 
L 3950 2894 
L 3853 2894 
Q 3659 3541 3300 3825 
Q 2941 4109 2438 4109 
Q 2016 4109 1675 3895 
Q 1334 3681 1139 3212 
Q 944 2744 944 2047 
Q 944 1472 1128 1050 
Q 1313 628 1683 403 
Q 2053 178 2528 178 
Q 2941 178 3256 354 
Q 3572 531 3950 1056 
L 4047 994 
Q 3728 428 3303 165 
Q 2878 -97 2294 -97 
Q 1241 -97 663 684 
Q 231 1266 231 2053 
Q 231 2688 515 3219 
Q 800 3750 1298 4042 
Q 1797 4334 2388 4334 
Q 2847 4334 3294 4109 
Q 3425 4041 3481 4041 
Q 3566 4041 3628 4100 
Q 3709 4184 3744 4334 
L 3853 4334 
z
" transform="scale(0.015625)"/>
       <path id="TimesNewRomanPSMT-75" d="M 2709 2863 
L 2709 1128 
Q 2709 631 2732 520 
Q 2756 409 2807 365 
Q 2859 322 2928 322 
Q 3025 322 3147 375 
L 3191 266 
L 2334 -88 
L 2194 -88 
L 2194 519 
Q 1825 119 1631 15 
Q 1438 -88 1222 -88 
Q 981 -88 804 51 
Q 628 191 559 409 
Q 491 628 491 1028 
L 491 2306 
Q 491 2509 447 2587 
Q 403 2666 317 2708 
Q 231 2750 6 2747 
L 6 2863 
L 1009 2863 
L 1009 947 
Q 1009 547 1148 422 
Q 1288 297 1484 297 
Q 1619 297 1789 381 
Q 1959 466 2194 703 
L 2194 2325 
Q 2194 2569 2105 2655 
Q 2016 2741 1734 2747 
L 1734 2863 
L 2709 2863 
z
" transform="scale(0.015625)"/>
       <path id="TimesNewRomanPSMT-74" d="M 1031 3803 
L 1031 2863 
L 1700 2863 
L 1700 2644 
L 1031 2644 
L 1031 788 
Q 1031 509 1111 412 
Q 1191 316 1316 316 
Q 1419 316 1516 380 
Q 1613 444 1666 569 
L 1788 569 
Q 1678 263 1478 108 
Q 1278 -47 1066 -47 
Q 922 -47 784 33 
Q 647 113 581 261 
Q 516 409 516 719 
L 516 2644 
L 63 2644 
L 63 2747 
Q 234 2816 414 2980 
Q 594 3144 734 3369 
Q 806 3488 934 3803 
L 1031 3803 
z
" transform="scale(0.015625)"/>
      </defs>
      <use xlink:href="#TimesNewRomanPSMT-53"/>
      <use xlink:href="#TimesNewRomanPSMT-65" transform="translate(55.615234 0)"/>
      <use xlink:href="#TimesNewRomanPSMT-73" transform="translate(100 0)"/>
      <use xlink:href="#TimesNewRomanPSMT-73" transform="translate(138.916016 0)"/>
      <use xlink:href="#TimesNewRomanPSMT-69" transform="translate(177.832031 0)"/>
      <use xlink:href="#TimesNewRomanPSMT-6f" transform="translate(205.615234 0)"/>
      <use xlink:href="#TimesNewRomanPSMT-6e" transform="translate(255.615234 0)"/>
      <use xlink:href="#TimesNewRomanPSMT-20" transform="translate(305.615234 0)"/>
      <use xlink:href="#TimesNewRomanPSMT-43" transform="translate(330.615234 0)"/>
      <use xlink:href="#TimesNewRomanPSMT-6f" transform="translate(397.314453 0)"/>
      <use xlink:href="#TimesNewRomanPSMT-75" transform="translate(447.314453 0)"/>
      <use xlink:href="#TimesNewRomanPSMT-6e" transform="translate(497.314453 0)"/>
      <use xlink:href="#TimesNewRomanPSMT-74" transform="translate(547.314453 0)"/>
     </g>
    </g>
   </g>
   <g id="matplotlib.axis_2">
    <g id="ytick_1">
     <g id="line2d_13">
      <path d="M 41.15 531.16 
L 673.218261 531.16 
" clip-path="url(#p7bd5b160e1)" style="fill: none; stroke-dasharray: 2.96,1.28; stroke-dashoffset: 0; stroke: #b0b0b0; stroke-opacity: 0.5; stroke-width: 0.8"/>
     </g>
     <g id="line2d_14">
      <defs>
       <path id="me204d5c420" d="M 0 0 
L -3.5 0 
" style="stroke: #000000; stroke-width: 0.8"/>
      </defs>
      <g>
       <use xlink:href="#me204d5c420" x="41.15" y="531.16" style="stroke: #000000; stroke-width: 0.8"/>
      </g>
     </g>
     <g id="text_8">
      <!-- 0 -->
      <g transform="translate(27.7875 534.959219) scale(0.1 -0.1)">
       <use xlink:href="#DejaVuSans-30"/>
      </g>
     </g>
    </g>
    <g id="ytick_2">
     <g id="line2d_15">
      <path d="M 41.15 29.94 
L 673.218261 29.94 
" clip-path="url(#p7bd5b160e1)" style="fill: none; stroke-dasharray: 2.96,1.28; stroke-dashoffset: 0; stroke: #b0b0b0; stroke-opacity: 0.5; stroke-width: 0.8"/>
     </g>
     <g id="line2d_16">
      <g>
       <use xlink:href="#me204d5c420" x="41.15" y="29.94" style="stroke: #000000; stroke-width: 0.8"/>
      </g>
     </g>
     <g id="text_9">
      <!-- 1 -->
      <g transform="translate(27.7875 33.739219) scale(0.1 -0.1)">
       <use xlink:href="#DejaVuSans-31"/>
      </g>
     </g>
    </g>
    <g id="text_10">
     <!-- Stacked Proportion -->
     <g transform="translate(20.792813 334.402969) rotate(-90) scale(0.14 -0.14)">
      <defs>
       <path id="TimesNewRomanPSMT-61" d="M 1822 413 
Q 1381 72 1269 19 
Q 1100 -59 909 -59 
Q 613 -59 420 144 
Q 228 347 228 678 
Q 228 888 322 1041 
Q 450 1253 767 1440 
Q 1084 1628 1822 1897 
L 1822 2009 
Q 1822 2438 1686 2597 
Q 1550 2756 1291 2756 
Q 1094 2756 978 2650 
Q 859 2544 859 2406 
L 866 2225 
Q 866 2081 792 2003 
Q 719 1925 600 1925 
Q 484 1925 411 2006 
Q 338 2088 338 2228 
Q 338 2497 613 2722 
Q 888 2947 1384 2947 
Q 1766 2947 2009 2819 
Q 2194 2722 2281 2516 
Q 2338 2381 2338 1966 
L 2338 994 
Q 2338 584 2353 492 
Q 2369 400 2405 369 
Q 2441 338 2488 338 
Q 2538 338 2575 359 
Q 2641 400 2828 588 
L 2828 413 
Q 2478 -56 2159 -56 
Q 2006 -56 1915 50 
Q 1825 156 1822 413 
z
M 1822 616 
L 1822 1706 
Q 1350 1519 1213 1441 
Q 966 1303 859 1153 
Q 753 1003 753 825 
Q 753 600 887 451 
Q 1022 303 1197 303 
Q 1434 303 1822 616 
z
" transform="scale(0.015625)"/>
       <path id="TimesNewRomanPSMT-63" d="M 2631 1088 
Q 2516 522 2178 217 
Q 1841 -88 1431 -88 
Q 944 -88 581 321 
Q 219 731 219 1428 
Q 219 2103 620 2525 
Q 1022 2947 1584 2947 
Q 2006 2947 2278 2723 
Q 2550 2500 2550 2259 
Q 2550 2141 2473 2067 
Q 2397 1994 2259 1994 
Q 2075 1994 1981 2113 
Q 1928 2178 1911 2362 
Q 1894 2547 1784 2644 
Q 1675 2738 1481 2738 
Q 1169 2738 978 2506 
Q 725 2200 725 1697 
Q 725 1184 976 792 
Q 1228 400 1656 400 
Q 1963 400 2206 609 
Q 2378 753 2541 1131 
L 2631 1088 
z
" transform="scale(0.015625)"/>
       <path id="TimesNewRomanPSMT-6b" d="M 1047 4444 
L 1047 1594 
L 1775 2259 
Q 2006 2472 2044 2528 
Q 2069 2566 2069 2603 
Q 2069 2666 2017 2711 
Q 1966 2756 1847 2763 
L 1847 2863 
L 3091 2863 
L 3091 2763 
Q 2834 2756 2664 2684 
Q 2494 2613 2291 2428 
L 1556 1750 
L 2291 822 
Q 2597 438 2703 334 
Q 2853 188 2966 144 
Q 3044 113 3238 113 
L 3238 0 
L 1847 0 
L 1847 113 
Q 1966 116 2008 148 
Q 2050 181 2050 241 
Q 2050 313 1925 472 
L 1047 1594 
L 1047 644 
Q 1047 366 1086 278 
Q 1125 191 1197 153 
Q 1269 116 1509 113 
L 1509 0 
L 53 0 
L 53 113 
Q 272 113 381 166 
Q 447 200 481 272 
Q 528 375 528 628 
L 528 3234 
Q 528 3731 506 3842 
Q 484 3953 434 3995 
Q 384 4038 303 4038 
Q 238 4038 106 3984 
L 53 4094 
L 903 4444 
L 1047 4444 
z
" transform="scale(0.015625)"/>
       <path id="TimesNewRomanPSMT-64" d="M 2222 322 
Q 2013 103 1813 7 
Q 1613 -88 1381 -88 
Q 913 -88 563 304 
Q 213 697 213 1313 
Q 213 1928 600 2439 
Q 988 2950 1597 2950 
Q 1975 2950 2222 2709 
L 2222 3238 
Q 2222 3728 2198 3840 
Q 2175 3953 2125 3993 
Q 2075 4034 2000 4034 
Q 1919 4034 1784 3984 
L 1744 4094 
L 2597 4444 
L 2738 4444 
L 2738 1134 
Q 2738 631 2761 520 
Q 2784 409 2836 365 
Q 2888 322 2956 322 
Q 3041 322 3181 375 
L 3216 266 
L 2366 -88 
L 2222 -88 
L 2222 322 
z
M 2222 541 
L 2222 2016 
Q 2203 2228 2109 2403 
Q 2016 2578 1861 2667 
Q 1706 2756 1559 2756 
Q 1284 2756 1069 2509 
Q 784 2184 784 1559 
Q 784 928 1059 592 
Q 1334 256 1672 256 
Q 1956 256 2222 541 
z
" transform="scale(0.015625)"/>
       <path id="TimesNewRomanPSMT-50" d="M 1313 1984 
L 1313 750 
Q 1313 350 1400 253 
Q 1519 116 1759 116 
L 1922 116 
L 1922 0 
L 106 0 
L 106 116 
L 266 116 
Q 534 116 650 291 
Q 713 388 713 750 
L 713 3488 
Q 713 3888 628 3984 
Q 506 4122 266 4122 
L 106 4122 
L 106 4238 
L 1659 4238 
Q 2228 4238 2556 4120 
Q 2884 4003 3109 3725 
Q 3334 3447 3334 3066 
Q 3334 2547 2992 2222 
Q 2650 1897 2025 1897 
Q 1872 1897 1694 1919 
Q 1516 1941 1313 1984 
z
M 1313 2163 
Q 1478 2131 1606 2115 
Q 1734 2100 1825 2100 
Q 2150 2100 2386 2351 
Q 2622 2603 2622 3003 
Q 2622 3278 2509 3514 
Q 2397 3750 2190 3867 
Q 1984 3984 1722 3984 
Q 1563 3984 1313 3925 
L 1313 2163 
z
" transform="scale(0.015625)"/>
       <path id="TimesNewRomanPSMT-72" d="M 1038 2947 
L 1038 2303 
Q 1397 2947 1775 2947 
Q 1947 2947 2059 2842 
Q 2172 2738 2172 2600 
Q 2172 2478 2090 2393 
Q 2009 2309 1897 2309 
Q 1788 2309 1652 2417 
Q 1516 2525 1450 2525 
Q 1394 2525 1328 2463 
Q 1188 2334 1038 2041 
L 1038 669 
Q 1038 431 1097 309 
Q 1138 225 1241 169 
Q 1344 113 1538 113 
L 1538 0 
L 72 0 
L 72 113 
Q 291 113 397 181 
Q 475 231 506 341 
Q 522 394 522 644 
L 522 1753 
Q 522 2253 501 2348 
Q 481 2444 426 2487 
Q 372 2531 291 2531 
Q 194 2531 72 2484 
L 41 2597 
L 906 2947 
L 1038 2947 
z
" transform="scale(0.015625)"/>
       <path id="TimesNewRomanPSMT-70" d="M -6 2578 
L 875 2934 
L 994 2934 
L 994 2266 
Q 1216 2644 1439 2795 
Q 1663 2947 1909 2947 
Q 2341 2947 2628 2609 
Q 2981 2197 2981 1534 
Q 2981 794 2556 309 
Q 2206 -88 1675 -88 
Q 1444 -88 1275 -22 
Q 1150 25 994 166 
L 994 -706 
Q 994 -1000 1030 -1079 
Q 1066 -1159 1155 -1206 
Q 1244 -1253 1478 -1253 
L 1478 -1369 
L -22 -1369 
L -22 -1253 
L 56 -1253 
Q 228 -1256 350 -1188 
Q 409 -1153 442 -1076 
Q 475 -1000 475 -688 
L 475 2019 
Q 475 2297 450 2372 
Q 425 2447 370 2484 
Q 316 2522 222 2522 
Q 147 2522 31 2478 
L -6 2578 
z
M 994 2081 
L 994 1013 
Q 994 666 1022 556 
Q 1066 375 1236 237 
Q 1406 100 1666 100 
Q 1978 100 2172 344 
Q 2425 663 2425 1241 
Q 2425 1897 2138 2250 
Q 1938 2494 1663 2494 
Q 1513 2494 1366 2419 
Q 1253 2363 994 2081 
z
" transform="scale(0.015625)"/>
      </defs>
      <use xlink:href="#TimesNewRomanPSMT-53"/>
      <use xlink:href="#TimesNewRomanPSMT-74" transform="translate(55.615234 0)"/>
      <use xlink:href="#TimesNewRomanPSMT-61" transform="translate(83.398438 0)"/>
      <use xlink:href="#TimesNewRomanPSMT-63" transform="translate(127.783203 0)"/>
      <use xlink:href="#TimesNewRomanPSMT-6b" transform="translate(172.167969 0)"/>
      <use xlink:href="#TimesNewRomanPSMT-65" transform="translate(222.167969 0)"/>
      <use xlink:href="#TimesNewRomanPSMT-64" transform="translate(266.552734 0)"/>
      <use xlink:href="#TimesNewRomanPSMT-20" transform="translate(316.552734 0)"/>
      <use xlink:href="#TimesNewRomanPSMT-50" transform="translate(341.552734 0)"/>
      <use xlink:href="#TimesNewRomanPSMT-72" transform="translate(397.167969 0)"/>
      <use xlink:href="#TimesNewRomanPSMT-6f" transform="translate(430.46875 0)"/>
      <use xlink:href="#TimesNewRomanPSMT-70" transform="translate(480.46875 0)"/>
      <use xlink:href="#TimesNewRomanPSMT-6f" transform="translate(530.46875 0)"/>
      <use xlink:href="#TimesNewRomanPSMT-72" transform="translate(580.46875 0)"/>
      <use xlink:href="#TimesNewRomanPSMT-74" transform="translate(613.769531 0)"/>
      <use xlink:href="#TimesNewRomanPSMT-69" transform="translate(641.552734 0)"/>
      <use xlink:href="#TimesNewRomanPSMT-6f" transform="translate(669.335938 0)"/>
      <use xlink:href="#TimesNewRomanPSMT-6e" transform="translate(719.335938 0)"/>
     </g>
    </g>
   </g>
   <g id="line2d_17">
    <path d="M 41.15 244.122536 
L 673.218261 244.122536 
" clip-path="url(#p7bd5b160e1)" style="fill: none; stroke-dasharray: 7.5,15; stroke-dashoffset: 0; stroke: #000000; stroke-width: 1.5"/>
   </g>
   <g id="patch_3">
    <path d="M 41.15 531.16 
L 41.15 29.94 
" style="fill: none; stroke: #000000; stroke-width: 0.8; stroke-linejoin: miter; stroke-linecap: square"/>
   </g>
   <g id="patch_4">
    <path d="M 673.218261 531.16 
L 673.218261 29.94 
" style="fill: none; stroke: #000000; stroke-width: 0.8; stroke-linejoin: miter; stroke-linecap: square"/>
   </g>
   <g id="patch_5">
    <path d="M 41.15 531.16 
L 673.218261 531.16 
" style="fill: none; stroke: #000000; stroke-width: 0.8; stroke-linejoin: miter; stroke-linecap: square"/>
   </g>
   <g id="patch_6">
    <path d="M 41.15 29.94 
L 673.218261 29.94 
" style="fill: none; stroke: #000000; stroke-width: 0.8; stroke-linejoin: miter; stroke-linecap: square"/>
   </g>
   <g id="text_11">
    <!-- 0.57 -->
    <g transform="translate(686.042834 247.485817) scale(0.14 -0.14)">
     <defs>
      <path id="TimesNewRomanPSMT-30" d="M 231 2094 
Q 231 2819 450 3342 
Q 669 3866 1031 4122 
Q 1313 4325 1613 4325 
Q 2100 4325 2488 3828 
Q 2972 3213 2972 2159 
Q 2972 1422 2759 906 
Q 2547 391 2217 158 
Q 1888 -75 1581 -75 
Q 975 -75 572 641 
Q 231 1244 231 2094 
z
M 844 2016 
Q 844 1141 1059 588 
Q 1238 122 1591 122 
Q 1759 122 1940 273 
Q 2122 425 2216 781 
Q 2359 1319 2359 2297 
Q 2359 3022 2209 3506 
Q 2097 3866 1919 4016 
Q 1791 4119 1609 4119 
Q 1397 4119 1231 3928 
Q 1006 3669 925 3112 
Q 844 2556 844 2016 
z
" transform="scale(0.015625)"/>
      <path id="TimesNewRomanPSMT-2e" d="M 800 606 
Q 947 606 1047 504 
Q 1147 403 1147 259 
Q 1147 116 1045 14 
Q 944 -88 800 -88 
Q 656 -88 554 14 
Q 453 116 453 259 
Q 453 406 554 506 
Q 656 606 800 606 
z
" transform="scale(0.015625)"/>
      <path id="TimesNewRomanPSMT-35" d="M 2778 4238 
L 2534 3706 
L 1259 3706 
L 981 3138 
Q 1809 3016 2294 2522 
Q 2709 2097 2709 1522 
Q 2709 1188 2573 903 
Q 2438 619 2231 419 
Q 2025 219 1772 97 
Q 1413 -75 1034 -75 
Q 653 -75 479 54 
Q 306 184 306 341 
Q 306 428 378 495 
Q 450 563 559 563 
Q 641 563 702 538 
Q 763 513 909 409 
Q 1144 247 1384 247 
Q 1750 247 2026 523 
Q 2303 800 2303 1197 
Q 2303 1581 2056 1914 
Q 1809 2247 1375 2428 
Q 1034 2569 447 2591 
L 1259 4238 
L 2778 4238 
z
" transform="scale(0.015625)"/>
      <path id="TimesNewRomanPSMT-37" d="M 644 4238 
L 2916 4238 
L 2916 4119 
L 1503 -88 
L 1153 -88 
L 2419 3728 
L 1253 3728 
Q 900 3728 750 3644 
Q 488 3500 328 3200 
L 238 3234 
L 644 4238 
z
" transform="scale(0.015625)"/>
     </defs>
     <use xlink:href="#TimesNewRomanPSMT-30"/>
     <use xlink:href="#TimesNewRomanPSMT-2e" transform="translate(50 0)"/>
     <use xlink:href="#TimesNewRomanPSMT-35" transform="translate(75 0)"/>
     <use xlink:href="#TimesNewRomanPSMT-37" transform="translate(125 0)"/>
    </g>
   </g>
   <g id="text_12">
    <!-- Gaia (Tonkean) -->
    <g transform="translate(290.588818 23.94) scale(0.2 -0.2)">
     <defs>
      <path id="TimesNewRomanPS-BoldMT-47" d="M 4416 4334 
L 4416 2841 
L 4300 2841 
Q 4091 3453 3672 3772 
Q 3253 4091 2756 4091 
Q 2281 4091 1965 3823 
Q 1650 3556 1519 3078 
Q 1388 2600 1388 2097 
Q 1388 1488 1531 1028 
Q 1675 569 1995 353 
Q 2316 138 2756 138 
Q 2909 138 3070 170 
Q 3231 203 3400 266 
L 3400 1147 
Q 3400 1397 3365 1470 
Q 3331 1544 3223 1603 
Q 3116 1663 2963 1663 
L 2853 1663 
L 2853 1778 
L 4913 1778 
L 4913 1663 
Q 4678 1647 4586 1598 
Q 4494 1550 4444 1438 
Q 4416 1378 4416 1147 
L 4416 266 
Q 4009 84 3570 -8 
Q 3131 -100 2659 -100 
Q 2056 -100 1657 64 
Q 1259 228 954 495 
Q 650 763 478 1097 
Q 259 1528 259 2063 
Q 259 3019 931 3678 
Q 1603 4338 2622 4338 
Q 2938 4338 3191 4288 
Q 3328 4263 3636 4145 
Q 3944 4028 4000 4028 
Q 4088 4028 4163 4092 
Q 4238 4156 4300 4334 
L 4416 4334 
z
" transform="scale(0.015625)"/>
      <path id="TimesNewRomanPS-BoldMT-61" d="M 1828 431 
Q 1294 -41 869 -41 
Q 619 -41 453 123 
Q 288 288 288 534 
Q 288 869 575 1136 
Q 863 1403 1828 1847 
L 1828 2141 
Q 1828 2472 1792 2558 
Q 1756 2644 1656 2708 
Q 1556 2772 1431 2772 
Q 1228 2772 1097 2681 
Q 1016 2625 1016 2550 
Q 1016 2484 1103 2388 
Q 1222 2253 1222 2128 
Q 1222 1975 1108 1867 
Q 994 1759 809 1759 
Q 613 1759 480 1878 
Q 347 1997 347 2156 
Q 347 2381 525 2586 
Q 703 2791 1022 2900 
Q 1341 3009 1684 3009 
Q 2100 3009 2342 2832 
Q 2584 2656 2656 2450 
Q 2700 2319 2700 1847 
L 2700 713 
Q 2700 513 2715 461 
Q 2731 409 2762 384 
Q 2794 359 2834 359 
Q 2916 359 3000 475 
L 3094 400 
Q 2938 169 2770 64 
Q 2603 -41 2391 -41 
Q 2141 -41 2000 76 
Q 1859 194 1828 431 
z
M 1828 659 
L 1828 1638 
Q 1450 1416 1266 1163 
Q 1144 994 1144 822 
Q 1144 678 1247 569 
Q 1325 484 1466 484 
Q 1622 484 1828 659 
z
" transform="scale(0.015625)"/>
      <path id="TimesNewRomanPS-BoldMT-69" d="M 919 4338 
Q 1122 4338 1262 4195 
Q 1403 4053 1403 3853 
Q 1403 3653 1261 3512 
Q 1119 3372 919 3372 
Q 719 3372 578 3512 
Q 438 3653 438 3853 
Q 438 4053 578 4195 
Q 719 4338 919 4338 
z
M 1356 2922 
L 1356 606 
Q 1356 297 1428 211 
Q 1500 125 1709 113 
L 1709 0 
L 131 0 
L 131 113 
Q 325 119 419 225 
Q 481 297 481 606 
L 481 2313 
Q 481 2622 409 2708 
Q 338 2794 131 2806 
L 131 2922 
L 1356 2922 
z
" transform="scale(0.015625)"/>
      <path id="TimesNewRomanPS-BoldMT-20" transform="scale(0.015625)"/>
      <path id="TimesNewRomanPS-BoldMT-28" d="M 2056 4334 
L 2056 4191 
Q 1731 3978 1578 3775 
Q 1366 3494 1247 3053 
Q 1097 2506 1097 1525 
Q 1097 600 1233 87 
Q 1369 -425 1603 -741 
Q 1766 -959 2056 -1125 
L 2056 -1281 
Q 1303 -1028 779 -248 
Q 256 531 256 1544 
Q 256 2544 778 3314 
Q 1300 4084 2056 4334 
z
" transform="scale(0.015625)"/>
      <path id="TimesNewRomanPS-BoldMT-54" d="M 4038 4238 
L 4038 3091 
L 3925 3091 
Q 3825 3488 3703 3661 
Q 3581 3834 3369 3938 
Q 3250 3994 2953 3994 
L 2638 3994 
L 2638 725 
Q 2638 400 2673 319 
Q 2709 238 2814 177 
Q 2919 116 3100 116 
L 3241 116 
L 3241 0 
L 1022 0 
L 1022 116 
L 1163 116 
Q 1347 116 1459 181 
Q 1541 225 1588 331 
Q 1622 406 1622 725 
L 1622 3994 
L 1316 3994 
Q 888 3994 694 3813 
Q 422 3559 350 3091 
L 231 3091 
L 231 4238 
L 4038 4238 
z
" transform="scale(0.015625)"/>
      <path id="TimesNewRomanPS-BoldMT-6f" d="M 1594 3009 
Q 1975 3009 2303 2812 
Q 2631 2616 2801 2253 
Q 2972 1891 2972 1459 
Q 2972 838 2656 419 
Q 2275 -88 1603 -88 
Q 944 -88 587 375 
Q 231 838 231 1447 
Q 231 2075 595 2542 
Q 959 3009 1594 3009 
z
M 1606 2788 
Q 1447 2788 1333 2667 
Q 1219 2547 1183 2192 
Q 1147 1838 1147 1206 
Q 1147 872 1191 581 
Q 1225 359 1337 243 
Q 1450 128 1594 128 
Q 1734 128 1828 206 
Q 1950 313 1991 503 
Q 2053 800 2053 1703 
Q 2053 2234 1993 2432 
Q 1934 2631 1819 2722 
Q 1738 2788 1606 2788 
z
" transform="scale(0.015625)"/>
      <path id="TimesNewRomanPS-BoldMT-6e" d="M 1409 2922 
L 1409 2544 
Q 1634 2788 1840 2898 
Q 2047 3009 2284 3009 
Q 2569 3009 2756 2851 
Q 2944 2694 3006 2459 
Q 3056 2281 3056 1775 
L 3056 638 
Q 3056 300 3117 217 
Q 3178 134 3372 113 
L 3372 0 
L 1894 0 
L 1894 113 
Q 2059 134 2131 250 
Q 2181 328 2181 638 
L 2181 1938 
Q 2181 2297 2153 2390 
Q 2125 2484 2058 2536 
Q 1991 2588 1909 2588 
Q 1641 2588 1409 2203 
L 1409 638 
Q 1409 309 1470 221 
Q 1531 134 1697 113 
L 1697 0 
L 219 0 
L 219 113 
Q 403 131 481 231 
Q 534 300 534 638 
L 534 2288 
Q 534 2619 473 2700 
Q 413 2781 219 2806 
L 219 2922 
L 1409 2922 
z
" transform="scale(0.015625)"/>
      <path id="TimesNewRomanPS-BoldMT-6b" d="M 1403 4238 
L 1403 1450 
L 2081 2116 
Q 2291 2319 2342 2409 
Q 2394 2500 2394 2584 
Q 2394 2669 2325 2725 
Q 2256 2781 2056 2806 
L 2056 2922 
L 3366 2922 
L 3366 2806 
Q 3178 2797 3037 2717 
Q 2897 2638 2488 2238 
L 2169 1925 
L 2856 919 
Q 3272 306 3350 231 
Q 3456 125 3619 113 
L 3619 0 
L 2109 0 
L 2109 113 
Q 2209 113 2254 150 
Q 2300 188 2300 231 
Q 2300 303 2169 497 
L 1591 1344 
L 1403 1159 
L 1403 634 
Q 1403 300 1465 217 
Q 1528 134 1722 113 
L 1722 0 
L 213 0 
L 213 113 
Q 397 131 475 231 
Q 528 300 528 634 
L 528 3603 
Q 528 3934 467 4015 
Q 406 4097 213 4122 
L 213 4238 
L 1403 4238 
z
" transform="scale(0.015625)"/>
      <path id="TimesNewRomanPS-BoldMT-65" d="M 2691 1566 
L 1088 1566 
Q 1116 984 1397 647 
Q 1613 388 1916 388 
Q 2103 388 2256 492 
Q 2409 597 2584 869 
L 2691 800 
Q 2453 316 2165 114 
Q 1878 -88 1500 -88 
Q 850 -88 516 413 
Q 247 816 247 1413 
Q 247 2144 642 2576 
Q 1038 3009 1569 3009 
Q 2013 3009 2339 2645 
Q 2666 2281 2691 1566 
z
M 1922 1775 
Q 1922 2278 1867 2465 
Q 1813 2653 1697 2750 
Q 1631 2806 1522 2806 
Q 1359 2806 1256 2647 
Q 1072 2369 1072 1884 
L 1072 1775 
L 1922 1775 
z
" transform="scale(0.015625)"/>
      <path id="TimesNewRomanPS-BoldMT-29" d="M 78 -1281 
L 78 -1138 
Q 403 -922 556 -719 
Q 766 -438 888 0 
Q 1038 550 1038 1531 
Q 1038 2456 902 2967 
Q 766 3478 531 3794 
Q 369 4013 78 4178 
L 78 4334 
Q 831 4081 1354 3301 
Q 1878 2522 1878 1509 
Q 1878 513 1354 -257 
Q 831 -1028 78 -1281 
z
" transform="scale(0.015625)"/>
     </defs>
     <use xlink:href="#TimesNewRomanPS-BoldMT-47"/>
     <use xlink:href="#TimesNewRomanPS-BoldMT-61" transform="translate(77.783203 0)"/>
     <use xlink:href="#TimesNewRomanPS-BoldMT-69" transform="translate(127.783203 0)"/>
     <use xlink:href="#TimesNewRomanPS-BoldMT-61" transform="translate(155.566406 0)"/>
     <use xlink:href="#TimesNewRomanPS-BoldMT-20" transform="translate(205.566406 0)"/>
     <use xlink:href="#TimesNewRomanPS-BoldMT-28" transform="translate(230.566406 0)"/>
     <use xlink:href="#TimesNewRomanPS-BoldMT-54" transform="translate(263.867188 0)"/>
     <use xlink:href="#TimesNewRomanPS-BoldMT-6f" transform="translate(321.441406 0)"/>
     <use xlink:href="#TimesNewRomanPS-BoldMT-6e" transform="translate(371.441406 0)"/>
     <use xlink:href="#TimesNewRomanPS-BoldMT-6b" transform="translate(427.056641 0)"/>
     <use xlink:href="#TimesNewRomanPS-BoldMT-65" transform="translate(482.671875 0)"/>
     <use xlink:href="#TimesNewRomanPS-BoldMT-61" transform="translate(527.056641 0)"/>
     <use xlink:href="#TimesNewRomanPS-BoldMT-6e" transform="translate(577.056641 0)"/>
     <use xlink:href="#TimesNewRomanPS-BoldMT-29" transform="translate(632.671875 0)"/>
    </g>
   </g>
   <g id="legend_1">
    <g id="patch_7">
     <path d="M 48.15 94.49625 
L 134.046875 94.49625 
Q 136.046875 94.49625 136.046875 92.49625 
L 136.046875 36.94 
Q 136.046875 34.94 134.046875 34.94 
L 48.15 34.94 
Q 46.15 34.94 46.15 36.94 
L 46.15 92.49625 
Q 46.15 94.49625 48.15 94.49625 
z
" style="fill: #ffffff; opacity: 0.8; stroke: #cccccc; stroke-linejoin: miter"/>
    </g>
    <g id="patch_8">
     <path d="M 50.15 45.94 
L 70.15 45.94 
L 70.15 38.94 
L 50.15 38.94 
z
" style="fill: #5386b6"/>
    </g>
    <g id="text_13">
     <!-- Success -->
     <g transform="translate(78.15 45.94) scale(0.1 -0.1)">
      <use xlink:href="#TimesNewRomanPSMT-53"/>
      <use xlink:href="#TimesNewRomanPSMT-75" transform="translate(55.615234 0)"/>
      <use xlink:href="#TimesNewRomanPSMT-63" transform="translate(105.615234 0)"/>
      <use xlink:href="#TimesNewRomanPSMT-63" transform="translate(150 0)"/>
      <use xlink:href="#TimesNewRomanPSMT-65" transform="translate(194.384766 0)"/>
      <use xlink:href="#TimesNewRomanPSMT-73" transform="translate(238.769531 0)"/>
      <use xlink:href="#TimesNewRomanPSMT-73" transform="translate(277.685547 0)"/>
     </g>
    </g>
    <g id="patch_9">
     <path d="M 50.15 60.079062 
L 70.15 60.079062 
L 70.15 53.079062 
L 50.15 53.079062 
z
" style="fill: #d57459"/>
    </g>
    <g id="text_14">
     <!-- Error -->
     <g transform="translate(78.15 60.079062) scale(0.1 -0.1)">
      <defs>
       <path id="TimesNewRomanPSMT-45" d="M 1338 4006 
L 1338 2331 
L 2269 2331 
Q 2631 2331 2753 2441 
Q 2916 2584 2934 2947 
L 3050 2947 
L 3050 1472 
L 2934 1472 
Q 2891 1781 2847 1869 
Q 2791 1978 2662 2040 
Q 2534 2103 2269 2103 
L 1338 2103 
L 1338 706 
Q 1338 425 1363 364 
Q 1388 303 1450 267 
Q 1513 231 1688 231 
L 2406 231 
Q 2766 231 2928 281 
Q 3091 331 3241 478 
Q 3434 672 3638 1063 
L 3763 1063 
L 3397 0 
L 131 0 
L 131 116 
L 281 116 
Q 431 116 566 188 
Q 666 238 702 338 
Q 738 438 738 747 
L 738 3500 
Q 738 3903 656 3997 
Q 544 4122 281 4122 
L 131 4122 
L 131 4238 
L 3397 4238 
L 3444 3309 
L 3322 3309 
Q 3256 3644 3176 3769 
Q 3097 3894 2941 3959 
Q 2816 4006 2500 4006 
L 1338 4006 
z
" transform="scale(0.015625)"/>
      </defs>
      <use xlink:href="#TimesNewRomanPSMT-45"/>
      <use xlink:href="#TimesNewRomanPSMT-72" transform="translate(61.083984 0)"/>
      <use xlink:href="#TimesNewRomanPSMT-72" transform="translate(94.384766 0)"/>
      <use xlink:href="#TimesNewRomanPSMT-6f" transform="translate(127.685547 0)"/>
      <use xlink:href="#TimesNewRomanPSMT-72" transform="translate(177.685547 0)"/>
     </g>
    </g>
    <g id="patch_10">
     <path d="M 50.15 74.218125 
L 70.15 74.218125 
L 70.15 67.218125 
L 50.15 67.218125 
z
" style="fill: #e8bc60"/>
    </g>
    <g id="text_15">
     <!-- Premature -->
     <g transform="translate(78.15 74.218125) scale(0.1 -0.1)">
      <defs>
       <path id="TimesNewRomanPSMT-6d" d="M 1050 2338 
Q 1363 2650 1419 2697 
Q 1559 2816 1721 2881 
Q 1884 2947 2044 2947 
Q 2313 2947 2506 2790 
Q 2700 2634 2766 2338 
Q 3088 2713 3309 2830 
Q 3531 2947 3766 2947 
Q 3994 2947 4170 2830 
Q 4347 2713 4450 2447 
Q 4519 2266 4519 1878 
L 4519 647 
Q 4519 378 4559 278 
Q 4591 209 4675 161 
Q 4759 113 4950 113 
L 4950 0 
L 3538 0 
L 3538 113 
L 3597 113 
Q 3781 113 3884 184 
Q 3956 234 3988 344 
Q 4000 397 4000 647 
L 4000 1878 
Q 4000 2228 3916 2372 
Q 3794 2572 3525 2572 
Q 3359 2572 3192 2489 
Q 3025 2406 2788 2181 
L 2781 2147 
L 2788 2013 
L 2788 647 
Q 2788 353 2820 281 
Q 2853 209 2943 161 
Q 3034 113 3253 113 
L 3253 0 
L 1806 0 
L 1806 113 
Q 2044 113 2133 169 
Q 2222 225 2256 338 
Q 2272 391 2272 647 
L 2272 1878 
Q 2272 2228 2169 2381 
Q 2031 2581 1784 2581 
Q 1616 2581 1450 2491 
Q 1191 2353 1050 2181 
L 1050 647 
Q 1050 366 1089 281 
Q 1128 197 1204 155 
Q 1281 113 1516 113 
L 1516 0 
L 100 0 
L 100 113 
Q 297 113 375 155 
Q 453 197 493 289 
Q 534 381 534 647 
L 534 1741 
Q 534 2213 506 2350 
Q 484 2453 437 2492 
Q 391 2531 309 2531 
Q 222 2531 100 2484 
L 53 2597 
L 916 2947 
L 1050 2947 
L 1050 2338 
z
" transform="scale(0.015625)"/>
      </defs>
      <use xlink:href="#TimesNewRomanPSMT-50"/>
      <use xlink:href="#TimesNewRomanPSMT-72" transform="translate(55.615234 0)"/>
      <use xlink:href="#TimesNewRomanPSMT-65" transform="translate(88.916016 0)"/>
      <use xlink:href="#TimesNewRomanPSMT-6d" transform="translate(133.300781 0)"/>
      <use xlink:href="#TimesNewRomanPSMT-61" transform="translate(211.083984 0)"/>
      <use xlink:href="#TimesNewRomanPSMT-74" transform="translate(255.46875 0)"/>
      <use xlink:href="#TimesNewRomanPSMT-75" transform="translate(283.251953 0)"/>
      <use xlink:href="#TimesNewRomanPSMT-72" transform="translate(333.251953 0)"/>
      <use xlink:href="#TimesNewRomanPSMT-65" transform="translate(366.552734 0)"/>
     </g>
    </g>
    <g id="patch_11">
     <path d="M 50.15 88.357187 
L 70.15 88.357187 
L 70.15 81.357187 
L 50.15 81.357187 
z
" style="fill: #8d5993"/>
    </g>
    <g id="text_16">
     <!-- Stepomission -->
     <g transform="translate(78.15 88.357187) scale(0.1 -0.1)">
      <use xlink:href="#TimesNewRomanPSMT-53"/>
      <use xlink:href="#TimesNewRomanPSMT-74" transform="translate(55.615234 0)"/>
      <use xlink:href="#TimesNewRomanPSMT-65" transform="translate(83.398438 0)"/>
      <use xlink:href="#TimesNewRomanPSMT-70" transform="translate(127.783203 0)"/>
      <use xlink:href="#TimesNewRomanPSMT-6f" transform="translate(177.783203 0)"/>
      <use xlink:href="#TimesNewRomanPSMT-6d" transform="translate(227.783203 0)"/>
      <use xlink:href="#TimesNewRomanPSMT-69" transform="translate(305.566406 0)"/>
      <use xlink:href="#TimesNewRomanPSMT-73" transform="translate(333.349609 0)"/>
      <use xlink:href="#TimesNewRomanPSMT-73" transform="translate(372.265625 0)"/>
      <use xlink:href="#TimesNewRomanPSMT-69" transform="translate(411.181641 0)"/>
      <use xlink:href="#TimesNewRomanPSMT-6f" transform="translate(438.964844 0)"/>
      <use xlink:href="#TimesNewRomanPSMT-6e" transform="translate(488.964844 0)"/>
     </g>
    </g>
   </g>
  </g>
 </g>
 <defs>
  <clipPath id="p7bd5b160e1">
   <rect x="41.15" y="29.94" width="632.068261" height="501.22"/>
  </clipPath>
 </defs>
</svg>
