<?xml version="1.0" encoding="utf-8" standalone="no"?>
<!DOCTYPE svg PUBLIC "-//W3C//DTD SVG 1.1//EN"
  "http://www.w3.org/Graphics/SVG/1.1/DTD/svg11.dtd">
<svg xmlns:xlink="http://www.w3.org/1999/xlink" width="720pt" height="576pt" viewBox="0 0 720 576" xmlns="http://www.w3.org/2000/svg" version="1.1">
 <metadata>
  <rdf:RDF xmlns:dc="http://purl.org/dc/elements/1.1/" xmlns:cc="http://creativecommons.org/ns#" xmlns:rdf="http://www.w3.org/1999/02/22-rdf-syntax-ns#">
   <cc:Work>
    <dc:type rdf:resource="http://purl.org/dc/dcmitype/StillImage"/>
    <dc:date>2025-06-26T16:30:53.579053</dc:date>
    <dc:format>image/svg+xml</dc:format>
    <dc:creator>
     <cc:Agent>
      <dc:title>Matplotlib v3.10.3, https://matplotlib.org/</dc:title>
     </cc:Agent>
    </dc:creator>
   </cc:Work>
  </rdf:RDF>
 </metadata>
 <defs>
  <style type="text/css">*{stroke-linejoin: round; stroke-linecap: butt}</style>
 </defs>
 <g id="figure_1">
  <g id="patch_1">
   <path d="M 0 576 
L 720 576 
L 720 0 
L 0 0 
z
" style="fill: #ffffff"/>
  </g>
  <g id="axes_1">
   <g id="patch_2">
    <path d="M 41.15 531.16 
L 671.118942 531.16 
L 671.118942 29.94 
L 41.15 29.94 
z
" style="fill: #ffffff"/>
   </g>
   <g id="FillBetweenPolyCollection_1">
    <path d="M 41.15 348.898182 
L 41.15 531.16 
L 43.300065 531.16 
L 45.450129 531.16 
L 47.600194 531.16 
L 49.750259 531.16 
L 51.900323 531.16 
L 54.050388 531.16 
L 56.200453 531.16 
L 58.350517 531.16 
L 60.500582 531.16 
L 62.650646 531.16 
L 64.800711 531.16 
L 66.950776 531.16 
L 69.10084 531.16 
L 71.250905 531.16 
L 73.40097 531.16 
L 75.551034 531.16 
L 77.701099 531.16 
L 79.851164 531.16 
L 82.001228 531.16 
L 84.151293 531.16 
L 86.301358 531.16 
L 88.451422 531.16 
L 90.601487 531.16 
L 92.751552 531.16 
L 94.901616 531.16 
L 97.051681 531.16 
L 99.201746 531.16 
L 101.35181 531.16 
L 103.501875 531.16 
L 105.651939 531.16 
L 107.802004 531.16 
L 109.952069 531.16 
L 112.102133 531.16 
L 114.252198 531.16 
L 116.402263 531.16 
L 118.552327 531.16 
L 120.702392 531.16 
L 122.852457 531.16 
L 125.002521 531.16 
L 127.152586 531.16 
L 129.302651 531.16 
L 131.452715 531.16 
L 133.60278 531.16 
L 135.752845 531.16 
L 137.902909 531.16 
L 140.052974 531.16 
L 142.203038 531.16 
L 144.353103 531.16 
L 146.503168 531.16 
L 148.653232 531.16 
L 150.803297 531.16 
L 152.953362 531.16 
L 155.103426 531.16 
L 157.253491 531.16 
L 159.403556 531.16 
L 161.55362 531.16 
L 163.703685 531.16 
L 165.85375 531.16 
L 168.003814 531.16 
L 170.153879 531.16 
L 172.303944 531.16 
L 174.454008 531.16 
L 176.604073 531.16 
L 178.754137 531.16 
L 180.904202 531.16 
L 183.054267 531.16 
L 185.204331 531.16 
L 187.354396 531.16 
L 189.504461 531.16 
L 191.654525 531.16 
L 193.80459 531.16 
L 195.954655 531.16 
L 198.104719 531.16 
L 200.254784 531.16 
L 202.404849 531.16 
L 204.554913 531.16 
L 206.704978 531.16 
L 208.855043 531.16 
L 211.005107 531.16 
L 213.155172 531.16 
L 215.305237 531.16 
L 217.455301 531.16 
L 219.605366 531.16 
L 221.75543 531.16 
L 223.905495 531.16 
L 226.05556 531.16 
L 228.205624 531.16 
L 230.355689 531.16 
L 232.505754 531.16 
L 234.655818 531.16 
L 236.805883 531.16 
L 238.955948 531.16 
L 241.106012 531.16 
L 243.256077 531.16 
L 245.406142 531.16 
L 247.556206 531.16 
L 249.706271 531.16 
L 251.856336 531.16 
L 254.0064 531.16 
L 256.156465 531.16 
L 258.306529 531.16 
L 260.456594 531.16 
L 262.606659 531.16 
L 264.756723 531.16 
L 266.906788 531.16 
L 269.056853 531.16 
L 271.206917 531.16 
L 273.356982 531.16 
L 275.507047 531.16 
L 277.657111 531.16 
L 279.807176 531.16 
L 281.957241 531.16 
L 284.107305 531.16 
L 286.25737 531.16 
L 288.407435 531.16 
L 290.557499 531.16 
L 292.707564 531.16 
L 294.857629 531.16 
L 297.007693 531.16 
L 299.157758 531.16 
L 301.307822 531.16 
L 303.457887 531.16 
L 305.607952 531.16 
L 307.758016 531.16 
L 309.908081 531.16 
L 312.058146 531.16 
L 314.20821 531.16 
L 316.358275 531.16 
L 318.50834 531.16 
L 320.658404 531.16 
L 322.808469 531.16 
L 324.958534 531.16 
L 327.108598 531.16 
L 329.258663 531.16 
L 331.408728 531.16 
L 333.558792 531.16 
L 335.708857 531.16 
L 337.858921 531.16 
L 340.008986 531.16 
L 342.159051 531.16 
L 344.309115 531.16 
L 346.45918 531.16 
L 348.609245 531.16 
L 350.759309 531.16 
L 352.909374 531.16 
L 355.059439 531.16 
L 357.209503 531.16 
L 359.359568 531.16 
L 361.509633 531.16 
L 363.659697 531.16 
L 365.809762 531.16 
L 367.959827 531.16 
L 370.109891 531.16 
L 372.259956 531.16 
L 374.410021 531.16 
L 376.560085 531.16 
L 378.71015 531.16 
L 380.860214 531.16 
L 383.010279 531.16 
L 385.160344 531.16 
L 387.310408 531.16 
L 389.460473 531.16 
L 391.610538 531.16 
L 393.760602 531.16 
L 395.910667 531.16 
L 398.060732 531.16 
L 400.210796 531.16 
L 402.360861 531.16 
L 404.510926 531.16 
L 406.66099 531.16 
L 408.811055 531.16 
L 410.96112 531.16 
L 413.111184 531.16 
L 415.261249 531.16 
L 417.411313 531.16 
L 419.561378 531.16 
L 421.711443 531.16 
L 423.861507 531.16 
L 426.011572 531.16 
L 428.161637 531.16 
L 430.311701 531.16 
L 432.461766 531.16 
L 434.611831 531.16 
L 436.761895 531.16 
L 438.91196 531.16 
L 441.062025 531.16 
L 443.212089 531.16 
L 445.362154 531.16 
L 447.512219 531.16 
L 449.662283 531.16 
L 451.812348 531.16 
L 453.962412 531.16 
L 456.112477 531.16 
L 458.262542 531.16 
L 460.412606 531.16 
L 462.562671 531.16 
L 464.712736 531.16 
L 466.8628 531.16 
L 469.012865 531.16 
L 471.16293 531.16 
L 473.312994 531.16 
L 475.463059 531.16 
L 477.613124 531.16 
L 479.763188 531.16 
L 481.913253 531.16 
L 484.063318 531.16 
L 486.213382 531.16 
L 488.363447 531.16 
L 490.513512 531.16 
L 492.663576 531.16 
L 494.813641 531.16 
L 496.963705 531.16 
L 499.11377 531.16 
L 501.263835 531.16 
L 503.413899 531.16 
L 505.563964 531.16 
L 507.714029 531.16 
L 509.864093 531.16 
L 512.014158 531.16 
L 514.164223 531.16 
L 516.314287 531.16 
L 518.464352 531.16 
L 520.614417 531.16 
L 522.764481 531.16 
L 524.914546 531.16 
L 527.064611 531.16 
L 529.214675 531.16 
L 531.36474 531.16 
L 533.514804 531.16 
L 535.664869 531.16 
L 537.814934 531.16 
L 539.964998 531.16 
L 542.115063 531.16 
L 544.265128 531.16 
L 546.415192 531.16 
L 548.565257 531.16 
L 550.715322 531.16 
L 552.865386 531.16 
L 555.015451 531.16 
L 557.165516 531.16 
L 559.31558 531.16 
L 561.465645 531.16 
L 563.61571 531.16 
L 565.765774 531.16 
L 567.915839 531.16 
L 570.065904 531.16 
L 572.215968 531.16 
L 574.366033 531.16 
L 576.516097 531.16 
L 578.666162 531.16 
L 580.816227 531.16 
L 582.966291 531.16 
L 585.116356 531.16 
L 587.266421 531.16 
L 589.416485 531.16 
L 591.56655 531.16 
L 593.716615 531.16 
L 595.866679 531.16 
L 598.016744 531.16 
L 600.166809 531.16 
L 602.316873 531.16 
L 604.466938 531.16 
L 606.617003 531.16 
L 608.767067 531.16 
L 610.917132 531.16 
L 613.067196 531.16 
L 615.217261 531.16 
L 617.367326 531.16 
L 619.51739 531.16 
L 621.667455 531.16 
L 623.81752 531.16 
L 625.967584 531.16 
L 628.117649 531.16 
L 630.267714 531.16 
L 632.417778 531.16 
L 634.567843 531.16 
L 636.717908 531.16 
L 638.867972 531.16 
L 641.018037 531.16 
L 643.168102 531.16 
L 645.318166 531.16 
L 647.468231 531.16 
L 649.618295 531.16 
L 651.76836 531.16 
L 653.918425 531.16 
L 656.068489 531.16 
L 658.218554 531.16 
L 660.368619 531.16 
L 662.518683 531.16 
L 664.668748 531.16 
L 666.818813 531.16 
L 668.968877 531.16 
L 671.118942 531.16 
L 671.118942 430.916 
L 671.118942 430.916 
L 668.968877 230.428 
L 666.818813 230.428 
L 664.668748 230.428 
L 662.518683 29.94 
L 660.368619 29.94 
L 658.218554 197.013333 
L 656.068489 29.94 
L 653.918425 197.013333 
L 651.76836 29.94 
L 649.618295 230.428 
L 647.468231 230.428 
L 645.318166 405.855 
L 643.168102 531.16 
L 641.018037 531.16 
L 638.867972 29.94 
L 636.717908 230.428 
L 634.567843 230.428 
L 632.417778 29.94 
L 630.267714 130.184 
L 628.117649 155.245 
L 625.967584 531.16 
L 623.81752 280.55 
L 621.667455 29.94 
L 619.51739 230.428 
L 617.367326 29.94 
L 615.217261 280.55 
L 613.067196 197.013333 
L 610.917132 29.94 
L 608.767067 531.16 
L 606.617003 280.55 
L 604.466938 197.013333 
L 602.316873 280.55 
L 600.166809 280.55 
L 598.016744 280.55 
L 595.866679 531.16 
L 593.716615 230.428 
L 591.56655 430.916 
L 589.416485 330.672 
L 587.266421 29.94 
L 585.116356 405.855 
L 582.966291 130.184 
L 580.816227 155.245 
L 578.666162 531.16 
L 576.516097 330.672 
L 574.366033 330.672 
L 572.215968 364.086667 
L 570.065904 280.55 
L 567.915839 531.16 
L 565.765774 29.94 
L 563.61571 280.55 
L 561.465645 531.16 
L 559.31558 29.94 
L 557.165516 531.16 
L 555.015451 130.184 
L 552.865386 230.428 
L 550.715322 531.16 
L 548.565257 364.086667 
L 546.415192 230.428 
L 544.265128 230.428 
L 542.115063 29.94 
L 539.964998 155.245 
L 537.814934 29.94 
L 535.664869 29.94 
L 533.514804 330.672 
L 531.36474 430.916 
L 529.214675 230.428 
L 527.064611 130.184 
L 524.914546 130.184 
L 522.764481 92.5925 
L 520.614417 29.94 
L 518.464352 130.184 
L 516.314287 130.184 
L 514.164223 364.086667 
L 512.014158 348.898182 
L 509.864093 330.672 
L 507.714029 405.855 
L 505.563964 531.16 
L 503.413899 197.013333 
L 501.263835 531.16 
L 499.11377 29.94 
L 496.963705 29.94 
L 494.813641 280.55 
L 492.663576 197.013333 
L 490.513512 130.184 
L 488.363447 280.55 
L 486.213382 29.94 
L 484.063318 230.428 
L 481.913253 430.916 
L 479.763188 130.184 
L 477.613124 130.184 
L 475.463059 197.013333 
L 473.312994 29.94 
L 471.16293 197.013333 
L 469.012865 130.184 
L 466.8628 230.428 
L 464.712736 230.428 
L 462.562671 230.428 
L 460.412606 230.428 
L 458.262542 197.013333 
L 456.112477 280.55 
L 453.962412 155.245 
L 451.812348 447.623333 
L 449.662283 230.428 
L 447.512219 330.672 
L 445.362154 197.013333 
L 443.212089 531.16 
L 441.062025 531.16 
L 438.91196 197.013333 
L 436.761895 29.94 
L 434.611831 330.672 
L 432.461766 197.013333 
L 430.311701 197.013333 
L 428.161637 155.245 
L 426.011572 29.94 
L 423.861507 531.16 
L 421.711443 531.16 
L 419.561378 531.16 
L 417.411313 280.55 
L 415.261249 280.55 
L 413.111184 330.672 
L 410.96112 29.94 
L 408.811055 197.013333 
L 406.66099 197.013333 
L 404.510926 244.748571 
L 402.360861 29.94 
L 400.210796 155.245 
L 398.060732 29.94 
L 395.910667 180.306 
L 393.760602 531.16 
L 391.610538 197.013333 
L 389.460473 197.013333 
L 387.310408 197.013333 
L 385.160344 364.086667 
L 383.010279 531.16 
L 380.860214 405.855 
L 378.71015 29.94 
L 376.560085 531.16 
L 374.410021 299.827692 
L 372.259956 29.94 
L 370.109891 29.94 
L 367.959827 380.794 
L 365.809762 352.152857 
L 363.659697 197.013333 
L 361.509633 531.16 
L 359.359568 531.16 
L 357.209503 29.94 
L 355.059439 197.013333 
L 352.909374 405.855 
L 350.759309 29.94 
L 348.609245 447.623333 
L 346.45918 531.16 
L 344.309115 280.55 
L 342.159051 280.55 
L 340.008986 280.55 
L 337.858921 280.55 
L 335.708857 29.94 
L 333.558792 405.855 
L 331.408728 380.794 
L 329.258663 222.716923 
L 327.108598 531.16 
L 324.958534 29.94 
L 322.808469 405.855 
L 320.658404 430.916 
L 318.50834 29.94 
L 316.358275 531.16 
L 314.20821 364.086667 
L 312.058146 419.777778 
L 309.908081 280.55 
L 307.758016 29.94 
L 305.607952 280.55 
L 303.457887 197.013333 
L 301.307822 531.16 
L 299.157758 531.16 
L 297.007693 280.55 
L 294.857629 405.855 
L 292.707564 280.55 
L 290.557499 330.672 
L 288.407435 405.855 
L 286.25737 280.55 
L 284.107305 280.55 
L 281.957241 280.55 
L 279.807176 230.428 
L 277.657111 394.463636 
L 275.507047 280.55 
L 273.356982 280.55 
L 271.206917 80.062 
L 269.056853 364.086667 
L 266.906788 29.94 
L 264.756723 364.086667 
L 262.606659 155.245 
L 260.456594 244.748571 
L 258.306529 280.55 
L 256.156465 430.916 
L 254.0064 330.672 
L 251.856336 280.55 
L 249.706271 308.395556 
L 247.556206 364.086667 
L 245.406142 217.8975 
L 243.256077 405.855 
L 241.106012 531.16 
L 238.955948 280.55 
L 236.805883 280.55 
L 234.655818 364.086667 
L 232.505754 531.16 
L 230.355689 280.55 
L 228.205624 531.16 
L 226.05556 29.94 
L 223.905495 29.94 
L 221.75543 430.916 
L 219.605366 280.55 
L 217.455301 364.086667 
L 215.305237 531.16 
L 213.155172 29.94 
L 211.005107 280.55 
L 208.855043 364.086667 
L 206.704978 316.351429 
L 204.554913 308.395556 
L 202.404849 531.16 
L 200.254784 531.16 
L 198.104719 29.94 
L 195.954655 531.16 
L 193.80459 531.16 
L 191.654525 29.94 
L 189.504461 280.55 
L 187.354396 280.55 
L 185.204331 531.16 
L 183.054267 29.94 
L 180.904202 197.013333 
L 178.754137 531.16 
L 176.604073 280.55 
L 174.454008 531.16 
L 172.303944 531.16 
L 170.153879 531.16 
L 168.003814 280.55 
L 165.85375 531.16 
L 163.703685 531.16 
L 161.55362 531.16 
L 159.403556 531.16 
L 157.253491 29.94 
L 155.103426 531.16 
L 152.953362 531.16 
L 150.803297 531.16 
L 148.653232 29.94 
L 146.503168 405.855 
L 144.353103 130.184 
L 142.203038 280.55 
L 140.052974 531.16 
L 137.902909 29.94 
L 135.752845 197.013333 
L 133.60278 531.16 
L 131.452715 280.55 
L 129.302651 29.94 
L 127.152586 29.94 
L 125.002521 531.16 
L 122.852457 531.16 
L 120.702392 405.855 
L 118.552327 405.855 
L 116.402263 29.94 
L 114.252198 531.16 
L 112.102133 531.16 
L 109.952069 280.55 
L 107.802004 280.55 
L 105.651939 280.55 
L 103.501875 189.419091 
L 101.35181 197.013333 
L 99.201746 531.16 
L 97.051681 280.55 
L 94.901616 252.704444 
L 92.751552 364.086667 
L 90.601487 531.16 
L 88.451422 531.16 
L 86.301358 280.55 
L 84.151293 303.332727 
L 82.001228 29.94 
L 79.851164 280.55 
L 77.701099 330.672 
L 75.551034 280.55 
L 73.40097 316.351429 
L 71.250905 280.55 
L 69.10084 197.013333 
L 66.950776 430.916 
L 64.800711 348.898182 
L 62.650646 280.55 
L 60.500582 364.086667 
L 58.350517 280.55 
L 56.200453 405.855 
L 54.050388 531.16 
L 51.900323 173.145714 
L 49.750259 280.55 
L 47.600194 531.16 
L 45.450129 280.55 
L 43.300065 323.106415 
L 41.15 348.898182 
z
" clip-path="url(#p03498acbd2)" style="fill: #5386b6"/>
   </g>
   <g id="FillBetweenPolyCollection_2">
    <path d="M 41.15 29.94 
L 41.15 348.898182 
L 43.300065 323.106415 
L 45.450129 280.55 
L 47.600194 531.16 
L 49.750259 280.55 
L 51.900323 173.145714 
L 54.050388 531.16 
L 56.200453 405.855 
L 58.350517 280.55 
L 60.500582 364.086667 
L 62.650646 280.55 
L 64.800711 348.898182 
L 66.950776 430.916 
L 69.10084 197.013333 
L 71.250905 280.55 
L 73.40097 316.351429 
L 75.551034 280.55 
L 77.701099 330.672 
L 79.851164 280.55 
L 82.001228 29.94 
L 84.151293 303.332727 
L 86.301358 280.55 
L 88.451422 531.16 
L 90.601487 531.16 
L 92.751552 364.086667 
L 94.901616 252.704444 
L 97.051681 280.55 
L 99.201746 531.16 
L 101.35181 197.013333 
L 103.501875 189.419091 
L 105.651939 280.55 
L 107.802004 280.55 
L 109.952069 280.55 
L 112.102133 531.16 
L 114.252198 531.16 
L 116.402263 29.94 
L 118.552327 405.855 
L 120.702392 405.855 
L 122.852457 531.16 
L 125.002521 531.16 
L 127.152586 29.94 
L 129.302651 29.94 
L 131.452715 280.55 
L 133.60278 531.16 
L 135.752845 197.013333 
L 137.902909 29.94 
L 140.052974 531.16 
L 142.203038 280.55 
L 144.353103 130.184 
L 146.503168 405.855 
L 148.653232 29.94 
L 150.803297 531.16 
L 152.953362 531.16 
L 155.103426 531.16 
L 157.253491 29.94 
L 159.403556 531.16 
L 161.55362 531.16 
L 163.703685 531.16 
L 165.85375 531.16 
L 168.003814 280.55 
L 170.153879 531.16 
L 172.303944 531.16 
L 174.454008 531.16 
L 176.604073 280.55 
L 178.754137 531.16 
L 180.904202 197.013333 
L 183.054267 29.94 
L 185.204331 531.16 
L 187.354396 280.55 
L 189.504461 280.55 
L 191.654525 29.94 
L 193.80459 531.16 
L 195.954655 531.16 
L 198.104719 29.94 
L 200.254784 531.16 
L 202.404849 531.16 
L 204.554913 308.395556 
L 206.704978 316.351429 
L 208.855043 364.086667 
L 211.005107 280.55 
L 213.155172 29.94 
L 215.305237 531.16 
L 217.455301 364.086667 
L 219.605366 280.55 
L 221.75543 430.916 
L 223.905495 29.94 
L 226.05556 29.94 
L 228.205624 531.16 
L 230.355689 280.55 
L 232.505754 531.16 
L 234.655818 364.086667 
L 236.805883 280.55 
L 238.955948 280.55 
L 241.106012 531.16 
L 243.256077 405.855 
L 245.406142 217.8975 
L 247.556206 364.086667 
L 249.706271 308.395556 
L 251.856336 280.55 
L 254.0064 330.672 
L 256.156465 430.916 
L 258.306529 280.55 
L 260.456594 244.748571 
L 262.606659 155.245 
L 264.756723 364.086667 
L 266.906788 29.94 
L 269.056853 364.086667 
L 271.206917 80.062 
L 273.356982 280.55 
L 275.507047 280.55 
L 277.657111 394.463636 
L 279.807176 230.428 
L 281.957241 280.55 
L 284.107305 280.55 
L 286.25737 280.55 
L 288.407435 405.855 
L 290.557499 330.672 
L 292.707564 280.55 
L 294.857629 405.855 
L 297.007693 280.55 
L 299.157758 531.16 
L 301.307822 531.16 
L 303.457887 197.013333 
L 305.607952 280.55 
L 307.758016 29.94 
L 309.908081 280.55 
L 312.058146 419.777778 
L 314.20821 364.086667 
L 316.358275 531.16 
L 318.50834 29.94 
L 320.658404 430.916 
L 322.808469 405.855 
L 324.958534 29.94 
L 327.108598 531.16 
L 329.258663 222.716923 
L 331.408728 380.794 
L 333.558792 405.855 
L 335.708857 29.94 
L 337.858921 280.55 
L 340.008986 280.55 
L 342.159051 280.55 
L 344.309115 280.55 
L 346.45918 531.16 
L 348.609245 447.623333 
L 350.759309 29.94 
L 352.909374 405.855 
L 355.059439 197.013333 
L 357.209503 29.94 
L 359.359568 531.16 
L 361.509633 531.16 
L 363.659697 197.013333 
L 365.809762 352.152857 
L 367.959827 380.794 
L 370.109891 29.94 
L 372.259956 29.94 
L 374.410021 299.827692 
L 376.560085 531.16 
L 378.71015 29.94 
L 380.860214 405.855 
L 383.010279 531.16 
L 385.160344 364.086667 
L 387.310408 197.013333 
L 389.460473 197.013333 
L 391.610538 197.013333 
L 393.760602 531.16 
L 395.910667 180.306 
L 398.060732 29.94 
L 400.210796 155.245 
L 402.360861 29.94 
L 404.510926 244.748571 
L 406.66099 197.013333 
L 408.811055 197.013333 
L 410.96112 29.94 
L 413.111184 330.672 
L 415.261249 280.55 
L 417.411313 280.55 
L 419.561378 531.16 
L 421.711443 531.16 
L 423.861507 531.16 
L 426.011572 29.94 
L 428.161637 155.245 
L 430.311701 197.013333 
L 432.461766 197.013333 
L 434.611831 330.672 
L 436.761895 29.94 
L 438.91196 197.013333 
L 441.062025 531.16 
L 443.212089 531.16 
L 445.362154 197.013333 
L 447.512219 330.672 
L 449.662283 230.428 
L 451.812348 447.623333 
L 453.962412 155.245 
L 456.112477 280.55 
L 458.262542 197.013333 
L 460.412606 230.428 
L 462.562671 230.428 
L 464.712736 230.428 
L 466.8628 230.428 
L 469.012865 130.184 
L 471.16293 197.013333 
L 473.312994 29.94 
L 475.463059 197.013333 
L 477.613124 130.184 
L 479.763188 130.184 
L 481.913253 430.916 
L 484.063318 230.428 
L 486.213382 29.94 
L 488.363447 280.55 
L 490.513512 130.184 
L 492.663576 197.013333 
L 494.813641 280.55 
L 496.963705 29.94 
L 499.11377 29.94 
L 501.263835 531.16 
L 503.413899 197.013333 
L 505.563964 531.16 
L 507.714029 405.855 
L 509.864093 330.672 
L 512.014158 348.898182 
L 514.164223 364.086667 
L 516.314287 130.184 
L 518.464352 130.184 
L 520.614417 29.94 
L 522.764481 92.5925 
L 524.914546 130.184 
L 527.064611 130.184 
L 529.214675 230.428 
L 531.36474 430.916 
L 533.514804 330.672 
L 535.664869 29.94 
L 537.814934 29.94 
L 539.964998 155.245 
L 542.115063 29.94 
L 544.265128 230.428 
L 546.415192 230.428 
L 548.565257 364.086667 
L 550.715322 531.16 
L 552.865386 230.428 
L 555.015451 130.184 
L 557.165516 531.16 
L 559.31558 29.94 
L 561.465645 531.16 
L 563.61571 280.55 
L 565.765774 29.94 
L 567.915839 531.16 
L 570.065904 280.55 
L 572.215968 364.086667 
L 574.366033 330.672 
L 576.516097 330.672 
L 578.666162 531.16 
L 580.816227 155.245 
L 582.966291 130.184 
L 585.116356 405.855 
L 587.266421 29.94 
L 589.416485 330.672 
L 591.56655 430.916 
L 593.716615 230.428 
L 595.866679 531.16 
L 598.016744 280.55 
L 600.166809 280.55 
L 602.316873 280.55 
L 604.466938 197.013333 
L 606.617003 280.55 
L 608.767067 531.16 
L 610.917132 29.94 
L 613.067196 197.013333 
L 615.217261 280.55 
L 617.367326 29.94 
L 619.51739 230.428 
L 621.667455 29.94 
L 623.81752 280.55 
L 625.967584 531.16 
L 628.117649 155.245 
L 630.267714 130.184 
L 632.417778 29.94 
L 634.567843 230.428 
L 636.717908 230.428 
L 638.867972 29.94 
L 641.018037 531.16 
L 643.168102 531.16 
L 645.318166 405.855 
L 647.468231 230.428 
L 649.618295 230.428 
L 651.76836 29.94 
L 653.918425 197.013333 
L 656.068489 29.94 
L 658.218554 197.013333 
L 660.368619 29.94 
L 662.518683 29.94 
L 664.668748 230.428 
L 666.818813 230.428 
L 668.968877 230.428 
L 671.118942 430.916 
L 671.118942 29.94 
L 671.118942 29.94 
L 668.968877 29.94 
L 666.818813 29.94 
L 664.668748 29.94 
L 662.518683 29.94 
L 660.368619 29.94 
L 658.218554 29.94 
L 656.068489 29.94 
L 653.918425 29.94 
L 651.76836 29.94 
L 649.618295 29.94 
L 647.468231 130.184 
L 645.318166 405.855 
L 643.168102 29.94 
L 641.018037 29.94 
L 638.867972 29.94 
L 636.717908 29.94 
L 634.567843 130.184 
L 632.417778 29.94 
L 630.267714 29.94 
L 628.117649 29.94 
L 625.967584 29.94 
L 623.81752 280.55 
L 621.667455 29.94 
L 619.51739 29.94 
L 617.367326 29.94 
L 615.217261 29.94 
L 613.067196 29.94 
L 610.917132 29.94 
L 608.767067 29.94 
L 606.617003 29.94 
L 604.466938 197.013333 
L 602.316873 280.55 
L 600.166809 29.94 
L 598.016744 29.94 
L 595.866679 29.94 
L 593.716615 29.94 
L 591.56655 330.672 
L 589.416485 130.184 
L 587.266421 29.94 
L 585.116356 29.94 
L 582.966291 29.94 
L 580.816227 29.94 
L 578.666162 531.16 
L 576.516097 230.428 
L 574.366033 29.94 
L 572.215968 29.94 
L 570.065904 280.55 
L 567.915839 531.16 
L 565.765774 29.94 
L 563.61571 29.94 
L 561.465645 29.94 
L 559.31558 29.94 
L 557.165516 531.16 
L 555.015451 29.94 
L 552.865386 29.94 
L 550.715322 29.94 
L 548.565257 197.013333 
L 546.415192 130.184 
L 544.265128 29.94 
L 542.115063 29.94 
L 539.964998 29.94 
L 537.814934 29.94 
L 535.664869 29.94 
L 533.514804 29.94 
L 531.36474 230.428 
L 529.214675 29.94 
L 527.064611 130.184 
L 524.914546 29.94 
L 522.764481 29.94 
L 520.614417 29.94 
L 518.464352 130.184 
L 516.314287 29.94 
L 514.164223 29.94 
L 512.014158 75.505455 
L 509.864093 180.306 
L 507.714029 280.55 
L 505.563964 29.94 
L 503.413899 29.94 
L 501.263835 280.55 
L 499.11377 29.94 
L 496.963705 29.94 
L 494.813641 29.94 
L 492.663576 29.94 
L 490.513512 29.94 
L 488.363447 155.245 
L 486.213382 29.94 
L 484.063318 130.184 
L 481.913253 230.428 
L 479.763188 29.94 
L 477.613124 29.94 
L 475.463059 197.013333 
L 473.312994 29.94 
L 471.16293 29.94 
L 469.012865 130.184 
L 466.8628 29.94 
L 464.712736 130.184 
L 462.562671 230.428 
L 460.412606 29.94 
L 458.262542 29.94 
L 456.112477 280.55 
L 453.962412 29.94 
L 451.812348 197.013333 
L 449.662283 130.184 
L 447.512219 29.94 
L 445.362154 29.94 
L 443.212089 29.94 
L 441.062025 29.94 
L 438.91196 29.94 
L 436.761895 29.94 
L 434.611831 130.184 
L 432.461766 113.476667 
L 430.311701 29.94 
L 428.161637 92.5925 
L 426.011572 29.94 
L 423.861507 531.16 
L 421.711443 280.55 
L 419.561378 29.94 
L 417.411313 280.55 
L 415.261249 280.55 
L 413.111184 29.94 
L 410.96112 29.94 
L 408.811055 197.013333 
L 406.66099 29.94 
L 404.510926 101.542857 
L 402.360861 29.94 
L 400.210796 29.94 
L 398.060732 29.94 
L 395.910667 80.062 
L 393.760602 29.94 
L 391.610538 29.94 
L 389.460473 113.476667 
L 387.310408 197.013333 
L 385.160344 29.94 
L 383.010279 29.94 
L 380.860214 29.94 
L 378.71015 29.94 
L 376.560085 29.94 
L 374.410021 107.050769 
L 372.259956 29.94 
L 370.109891 29.94 
L 367.959827 280.55 
L 365.809762 101.542857 
L 363.659697 197.013333 
L 361.509633 197.013333 
L 359.359568 29.94 
L 357.209503 29.94 
L 355.059439 29.94 
L 352.909374 29.94 
L 350.759309 29.94 
L 348.609245 113.476667 
L 346.45918 531.16 
L 344.309115 29.94 
L 342.159051 130.184 
L 340.008986 29.94 
L 337.858921 217.8975 
L 335.708857 29.94 
L 333.558792 280.55 
L 331.408728 230.428 
L 329.258663 68.495385 
L 327.108598 531.16 
L 324.958534 29.94 
L 322.808469 29.94 
L 320.658404 80.062 
L 318.50834 29.94 
L 316.358275 29.94 
L 314.20821 364.086667 
L 312.058146 141.322222 
L 309.908081 29.94 
L 307.758016 29.94 
L 305.607952 29.94 
L 303.457887 29.94 
L 301.307822 29.94 
L 299.157758 29.94 
L 297.007693 29.94 
L 294.857629 29.94 
L 292.707564 197.013333 
L 290.557499 230.428 
L 288.407435 29.94 
L 286.25737 280.55 
L 284.107305 29.94 
L 281.957241 113.476667 
L 279.807176 29.94 
L 277.657111 75.505455 
L 275.507047 105.123 
L 273.356982 80.062 
L 271.206917 29.94 
L 269.056853 197.013333 
L 266.906788 29.94 
L 264.756723 29.94 
L 262.606659 29.94 
L 260.456594 101.542857 
L 258.306529 29.94 
L 256.156465 29.94 
L 254.0064 80.062 
L 251.856336 280.55 
L 249.706271 85.631111 
L 247.556206 29.94 
L 245.406142 155.245 
L 243.256077 92.5925 
L 241.106012 29.94 
L 238.955948 92.5925 
L 236.805883 29.94 
L 234.655818 197.013333 
L 232.505754 29.94 
L 230.355689 113.476667 
L 228.205624 29.94 
L 226.05556 29.94 
L 223.905495 29.94 
L 221.75543 29.94 
L 219.605366 29.94 
L 217.455301 197.013333 
L 215.305237 29.94 
L 213.155172 29.94 
L 211.005107 29.94 
L 208.855043 85.631111 
L 206.704978 101.542857 
L 204.554913 29.94 
L 202.404849 531.16 
L 200.254784 364.086667 
L 198.104719 29.94 
L 195.954655 29.94 
L 193.80459 531.16 
L 191.654525 29.94 
L 189.504461 130.184 
L 187.354396 197.013333 
L 185.204331 531.16 
L 183.054267 29.94 
L 180.904202 113.476667 
L 178.754137 29.94 
L 176.604073 29.94 
L 174.454008 29.94 
L 172.303944 29.94 
L 170.153879 29.94 
L 168.003814 29.94 
L 165.85375 29.94 
L 163.703685 29.94 
L 161.55362 29.94 
L 159.403556 280.55 
L 157.253491 29.94 
L 155.103426 29.94 
L 152.953362 280.55 
L 150.803297 29.94 
L 148.653232 29.94 
L 146.503168 155.245 
L 144.353103 29.94 
L 142.203038 29.94 
L 140.052974 29.94 
L 137.902909 29.94 
L 135.752845 29.94 
L 133.60278 531.16 
L 131.452715 29.94 
L 129.302651 29.94 
L 127.152586 29.94 
L 125.002521 29.94 
L 122.852457 29.94 
L 120.702392 280.55 
L 118.552327 155.245 
L 116.402263 29.94 
L 114.252198 29.94 
L 112.102133 280.55 
L 109.952069 29.94 
L 107.802004 29.94 
L 105.651939 280.55 
L 103.501875 121.070909 
L 101.35181 113.476667 
L 99.201746 531.16 
L 97.051681 29.94 
L 94.901616 57.785556 
L 92.751552 29.94 
L 90.601487 364.086667 
L 88.451422 405.855 
L 86.301358 155.245 
L 84.151293 166.636364 
L 82.001228 29.94 
L 79.851164 280.55 
L 77.701099 29.94 
L 75.551034 280.55 
L 73.40097 65.741429 
L 71.250905 80.062 
L 69.10084 29.94 
L 66.950776 130.184 
L 64.800711 121.070909 
L 62.650646 29.94 
L 60.500582 29.94 
L 58.350517 29.94 
L 56.200453 155.245 
L 54.050388 29.94 
L 51.900323 101.542857 
L 49.750259 155.245 
L 47.600194 531.16 
L 45.450129 29.94 
L 43.300065 77.224906 
L 41.15 29.94 
z
" clip-path="url(#p03498acbd2)" style="fill: #d57459"/>
   </g>
   <g id="FillBetweenPolyCollection_3">
    <path d="M 41.15 29.94 
L 41.15 29.94 
L 43.300065 77.224906 
L 45.450129 29.94 
L 47.600194 531.16 
L 49.750259 155.245 
L 51.900323 101.542857 
L 54.050388 29.94 
L 56.200453 155.245 
L 58.350517 29.94 
L 60.500582 29.94 
L 62.650646 29.94 
L 64.800711 121.070909 
L 66.950776 130.184 
L 69.10084 29.94 
L 71.250905 80.062 
L 73.40097 65.741429 
L 75.551034 280.55 
L 77.701099 29.94 
L 79.851164 280.55 
L 82.001228 29.94 
L 84.151293 166.636364 
L 86.301358 155.245 
L 88.451422 405.855 
L 90.601487 364.086667 
L 92.751552 29.94 
L 94.901616 57.785556 
L 97.051681 29.94 
L 99.201746 531.16 
L 101.35181 113.476667 
L 103.501875 121.070909 
L 105.651939 280.55 
L 107.802004 29.94 
L 109.952069 29.94 
L 112.102133 280.55 
L 114.252198 29.94 
L 116.402263 29.94 
L 118.552327 155.245 
L 120.702392 280.55 
L 122.852457 29.94 
L 125.002521 29.94 
L 127.152586 29.94 
L 129.302651 29.94 
L 131.452715 29.94 
L 133.60278 531.16 
L 135.752845 29.94 
L 137.902909 29.94 
L 140.052974 29.94 
L 142.203038 29.94 
L 144.353103 29.94 
L 146.503168 155.245 
L 148.653232 29.94 
L 150.803297 29.94 
L 152.953362 280.55 
L 155.103426 29.94 
L 157.253491 29.94 
L 159.403556 280.55 
L 161.55362 29.94 
L 163.703685 29.94 
L 165.85375 29.94 
L 168.003814 29.94 
L 170.153879 29.94 
L 172.303944 29.94 
L 174.454008 29.94 
L 176.604073 29.94 
L 178.754137 29.94 
L 180.904202 113.476667 
L 183.054267 29.94 
L 185.204331 531.16 
L 187.354396 197.013333 
L 189.504461 130.184 
L 191.654525 29.94 
L 193.80459 531.16 
L 195.954655 29.94 
L 198.104719 29.94 
L 200.254784 364.086667 
L 202.404849 531.16 
L 204.554913 29.94 
L 206.704978 101.542857 
L 208.855043 85.631111 
L 211.005107 29.94 
L 213.155172 29.94 
L 215.305237 29.94 
L 217.455301 197.013333 
L 219.605366 29.94 
L 221.75543 29.94 
L 223.905495 29.94 
L 226.05556 29.94 
L 228.205624 29.94 
L 230.355689 113.476667 
L 232.505754 29.94 
L 234.655818 197.013333 
L 236.805883 29.94 
L 238.955948 92.5925 
L 241.106012 29.94 
L 243.256077 92.5925 
L 245.406142 155.245 
L 247.556206 29.94 
L 249.706271 85.631111 
L 251.856336 280.55 
L 254.0064 80.062 
L 256.156465 29.94 
L 258.306529 29.94 
L 260.456594 101.542857 
L 262.606659 29.94 
L 264.756723 29.94 
L 266.906788 29.94 
L 269.056853 197.013333 
L 271.206917 29.94 
L 273.356982 80.062 
L 275.507047 105.123 
L 277.657111 75.505455 
L 279.807176 29.94 
L 281.957241 113.476667 
L 284.107305 29.94 
L 286.25737 280.55 
L 288.407435 29.94 
L 290.557499 230.428 
L 292.707564 197.013333 
L 294.857629 29.94 
L 297.007693 29.94 
L 299.157758 29.94 
L 301.307822 29.94 
L 303.457887 29.94 
L 305.607952 29.94 
L 307.758016 29.94 
L 309.908081 29.94 
L 312.058146 141.322222 
L 314.20821 364.086667 
L 316.358275 29.94 
L 318.50834 29.94 
L 320.658404 80.062 
L 322.808469 29.94 
L 324.958534 29.94 
L 327.108598 531.16 
L 329.258663 68.495385 
L 331.408728 230.428 
L 333.558792 280.55 
L 335.708857 29.94 
L 337.858921 217.8975 
L 340.008986 29.94 
L 342.159051 130.184 
L 344.309115 29.94 
L 346.45918 531.16 
L 348.609245 113.476667 
L 350.759309 29.94 
L 352.909374 29.94 
L 355.059439 29.94 
L 357.209503 29.94 
L 359.359568 29.94 
L 361.509633 197.013333 
L 363.659697 197.013333 
L 365.809762 101.542857 
L 367.959827 280.55 
L 370.109891 29.94 
L 372.259956 29.94 
L 374.410021 107.050769 
L 376.560085 29.94 
L 378.71015 29.94 
L 380.860214 29.94 
L 383.010279 29.94 
L 385.160344 29.94 
L 387.310408 197.013333 
L 389.460473 113.476667 
L 391.610538 29.94 
L 393.760602 29.94 
L 395.910667 80.062 
L 398.060732 29.94 
L 400.210796 29.94 
L 402.360861 29.94 
L 404.510926 101.542857 
L 406.66099 29.94 
L 408.811055 197.013333 
L 410.96112 29.94 
L 413.111184 29.94 
L 415.261249 280.55 
L 417.411313 280.55 
L 419.561378 29.94 
L 421.711443 280.55 
L 423.861507 531.16 
L 426.011572 29.94 
L 428.161637 92.5925 
L 430.311701 29.94 
L 432.461766 113.476667 
L 434.611831 130.184 
L 436.761895 29.94 
L 438.91196 29.94 
L 441.062025 29.94 
L 443.212089 29.94 
L 445.362154 29.94 
L 447.512219 29.94 
L 449.662283 130.184 
L 451.812348 197.013333 
L 453.962412 29.94 
L 456.112477 280.55 
L 458.262542 29.94 
L 460.412606 29.94 
L 462.562671 230.428 
L 464.712736 130.184 
L 466.8628 29.94 
L 469.012865 130.184 
L 471.16293 29.94 
L 473.312994 29.94 
L 475.463059 197.013333 
L 477.613124 29.94 
L 479.763188 29.94 
L 481.913253 230.428 
L 484.063318 130.184 
L 486.213382 29.94 
L 488.363447 155.245 
L 490.513512 29.94 
L 492.663576 29.94 
L 494.813641 29.94 
L 496.963705 29.94 
L 499.11377 29.94 
L 501.263835 280.55 
L 503.413899 29.94 
L 505.563964 29.94 
L 507.714029 280.55 
L 509.864093 180.306 
L 512.014158 75.505455 
L 514.164223 29.94 
L 516.314287 29.94 
L 518.464352 130.184 
L 520.614417 29.94 
L 522.764481 29.94 
L 524.914546 29.94 
L 527.064611 130.184 
L 529.214675 29.94 
L 531.36474 230.428 
L 533.514804 29.94 
L 535.664869 29.94 
L 537.814934 29.94 
L 539.964998 29.94 
L 542.115063 29.94 
L 544.265128 29.94 
L 546.415192 130.184 
L 548.565257 197.013333 
L 550.715322 29.94 
L 552.865386 29.94 
L 555.015451 29.94 
L 557.165516 531.16 
L 559.31558 29.94 
L 561.465645 29.94 
L 563.61571 29.94 
L 565.765774 29.94 
L 567.915839 531.16 
L 570.065904 280.55 
L 572.215968 29.94 
L 574.366033 29.94 
L 576.516097 230.428 
L 578.666162 531.16 
L 580.816227 29.94 
L 582.966291 29.94 
L 585.116356 29.94 
L 587.266421 29.94 
L 589.416485 130.184 
L 591.56655 330.672 
L 593.716615 29.94 
L 595.866679 29.94 
L 598.016744 29.94 
L 600.166809 29.94 
L 602.316873 280.55 
L 604.466938 197.013333 
L 606.617003 29.94 
L 608.767067 29.94 
L 610.917132 29.94 
L 613.067196 29.94 
L 615.217261 29.94 
L 617.367326 29.94 
L 619.51739 29.94 
L 621.667455 29.94 
L 623.81752 280.55 
L 625.967584 29.94 
L 628.117649 29.94 
L 630.267714 29.94 
L 632.417778 29.94 
L 634.567843 130.184 
L 636.717908 29.94 
L 638.867972 29.94 
L 641.018037 29.94 
L 643.168102 29.94 
L 645.318166 405.855 
L 647.468231 130.184 
L 649.618295 29.94 
L 651.76836 29.94 
L 653.918425 29.94 
L 656.068489 29.94 
L 658.218554 29.94 
L 660.368619 29.94 
L 662.518683 29.94 
L 664.668748 29.94 
L 666.818813 29.94 
L 668.968877 29.94 
L 671.118942 29.94 
L 671.118942 29.94 
L 671.118942 29.94 
L 668.968877 29.94 
L 666.818813 29.94 
L 664.668748 29.94 
L 662.518683 29.94 
L 660.368619 29.94 
L 658.218554 29.94 
L 656.068489 29.94 
L 653.918425 29.94 
L 651.76836 29.94 
L 649.618295 29.94 
L 647.468231 29.94 
L 645.318166 29.94 
L 643.168102 29.94 
L 641.018037 29.94 
L 638.867972 29.94 
L 636.717908 29.94 
L 634.567843 29.94 
L 632.417778 29.94 
L 630.267714 29.94 
L 628.117649 29.94 
L 625.967584 29.94 
L 623.81752 29.94 
L 621.667455 29.94 
L 619.51739 29.94 
L 617.367326 29.94 
L 615.217261 29.94 
L 613.067196 29.94 
L 610.917132 29.94 
L 608.767067 29.94 
L 606.617003 29.94 
L 604.466938 29.94 
L 602.316873 29.94 
L 600.166809 29.94 
L 598.016744 29.94 
L 595.866679 29.94 
L 593.716615 29.94 
L 591.56655 29.94 
L 589.416485 29.94 
L 587.266421 29.94 
L 585.116356 29.94 
L 582.966291 29.94 
L 580.816227 29.94 
L 578.666162 29.94 
L 576.516097 29.94 
L 574.366033 29.94 
L 572.215968 29.94 
L 570.065904 29.94 
L 567.915839 29.94 
L 565.765774 29.94 
L 563.61571 29.94 
L 561.465645 29.94 
L 559.31558 29.94 
L 557.165516 29.94 
L 555.015451 29.94 
L 552.865386 29.94 
L 550.715322 29.94 
L 548.565257 29.94 
L 546.415192 29.94 
L 544.265128 29.94 
L 542.115063 29.94 
L 539.964998 29.94 
L 537.814934 29.94 
L 535.664869 29.94 
L 533.514804 29.94 
L 531.36474 29.94 
L 529.214675 29.94 
L 527.064611 29.94 
L 524.914546 29.94 
L 522.764481 29.94 
L 520.614417 29.94 
L 518.464352 29.94 
L 516.314287 29.94 
L 514.164223 29.94 
L 512.014158 29.94 
L 509.864093 29.94 
L 507.714029 29.94 
L 505.563964 29.94 
L 503.413899 29.94 
L 501.263835 29.94 
L 499.11377 29.94 
L 496.963705 29.94 
L 494.813641 29.94 
L 492.663576 29.94 
L 490.513512 29.94 
L 488.363447 29.94 
L 486.213382 29.94 
L 484.063318 29.94 
L 481.913253 29.94 
L 479.763188 29.94 
L 477.613124 29.94 
L 475.463059 29.94 
L 473.312994 29.94 
L 471.16293 29.94 
L 469.012865 29.94 
L 466.8628 29.94 
L 464.712736 29.94 
L 462.562671 29.94 
L 460.412606 29.94 
L 458.262542 29.94 
L 456.112477 29.94 
L 453.962412 29.94 
L 451.812348 29.94 
L 449.662283 29.94 
L 447.512219 29.94 
L 445.362154 29.94 
L 443.212089 29.94 
L 441.062025 29.94 
L 438.91196 29.94 
L 436.761895 29.94 
L 434.611831 29.94 
L 432.461766 29.94 
L 430.311701 29.94 
L 428.161637 29.94 
L 426.011572 29.94 
L 423.861507 29.94 
L 421.711443 29.94 
L 419.561378 29.94 
L 417.411313 29.94 
L 415.261249 29.94 
L 413.111184 29.94 
L 410.96112 29.94 
L 408.811055 29.94 
L 406.66099 29.94 
L 404.510926 29.94 
L 402.360861 29.94 
L 400.210796 29.94 
L 398.060732 29.94 
L 395.910667 29.94 
L 393.760602 29.94 
L 391.610538 29.94 
L 389.460473 29.94 
L 387.310408 29.94 
L 385.160344 29.94 
L 383.010279 29.94 
L 380.860214 29.94 
L 378.71015 29.94 
L 376.560085 29.94 
L 374.410021 29.94 
L 372.259956 29.94 
L 370.109891 29.94 
L 367.959827 29.94 
L 365.809762 29.94 
L 363.659697 29.94 
L 361.509633 29.94 
L 359.359568 29.94 
L 357.209503 29.94 
L 355.059439 29.94 
L 352.909374 29.94 
L 350.759309 29.94 
L 348.609245 29.94 
L 346.45918 29.94 
L 344.309115 29.94 
L 342.159051 29.94 
L 340.008986 29.94 
L 337.858921 29.94 
L 335.708857 29.94 
L 333.558792 29.94 
L 331.408728 29.94 
L 329.258663 29.94 
L 327.108598 29.94 
L 324.958534 29.94 
L 322.808469 29.94 
L 320.658404 29.94 
L 318.50834 29.94 
L 316.358275 29.94 
L 314.20821 29.94 
L 312.058146 29.94 
L 309.908081 29.94 
L 307.758016 29.94 
L 305.607952 29.94 
L 303.457887 29.94 
L 301.307822 29.94 
L 299.157758 29.94 
L 297.007693 29.94 
L 294.857629 29.94 
L 292.707564 29.94 
L 290.557499 29.94 
L 288.407435 29.94 
L 286.25737 29.94 
L 284.107305 29.94 
L 281.957241 29.94 
L 279.807176 29.94 
L 277.657111 29.94 
L 275.507047 29.94 
L 273.356982 29.94 
L 271.206917 29.94 
L 269.056853 29.94 
L 266.906788 29.94 
L 264.756723 29.94 
L 262.606659 29.94 
L 260.456594 29.94 
L 258.306529 29.94 
L 256.156465 29.94 
L 254.0064 29.94 
L 251.856336 29.94 
L 249.706271 29.94 
L 247.556206 29.94 
L 245.406142 29.94 
L 243.256077 29.94 
L 241.106012 29.94 
L 238.955948 29.94 
L 236.805883 29.94 
L 234.655818 29.94 
L 232.505754 29.94 
L 230.355689 29.94 
L 228.205624 29.94 
L 226.05556 29.94 
L 223.905495 29.94 
L 221.75543 29.94 
L 219.605366 29.94 
L 217.455301 29.94 
L 215.305237 29.94 
L 213.155172 29.94 
L 211.005107 29.94 
L 208.855043 29.94 
L 206.704978 29.94 
L 204.554913 29.94 
L 202.404849 29.94 
L 200.254784 29.94 
L 198.104719 29.94 
L 195.954655 29.94 
L 193.80459 29.94 
L 191.654525 29.94 
L 189.504461 29.94 
L 187.354396 29.94 
L 185.204331 29.94 
L 183.054267 29.94 
L 180.904202 29.94 
L 178.754137 29.94 
L 176.604073 29.94 
L 174.454008 29.94 
L 172.303944 29.94 
L 170.153879 29.94 
L 168.003814 29.94 
L 165.85375 29.94 
L 163.703685 29.94 
L 161.55362 29.94 
L 159.403556 29.94 
L 157.253491 29.94 
L 155.103426 29.94 
L 152.953362 29.94 
L 150.803297 29.94 
L 148.653232 29.94 
L 146.503168 29.94 
L 144.353103 29.94 
L 142.203038 29.94 
L 140.052974 29.94 
L 137.902909 29.94 
L 135.752845 29.94 
L 133.60278 29.94 
L 131.452715 29.94 
L 129.302651 29.94 
L 127.152586 29.94 
L 125.002521 29.94 
L 122.852457 29.94 
L 120.702392 29.94 
L 118.552327 29.94 
L 116.402263 29.94 
L 114.252198 29.94 
L 112.102133 29.94 
L 109.952069 29.94 
L 107.802004 29.94 
L 105.651939 29.94 
L 103.501875 29.94 
L 101.35181 29.94 
L 99.201746 29.94 
L 97.051681 29.94 
L 94.901616 29.94 
L 92.751552 29.94 
L 90.601487 29.94 
L 88.451422 29.94 
L 86.301358 29.94 
L 84.151293 29.94 
L 82.001228 29.94 
L 79.851164 155.245 
L 77.701099 29.94 
L 75.551034 29.94 
L 73.40097 29.94 
L 71.250905 29.94 
L 69.10084 29.94 
L 66.950776 29.94 
L 64.800711 29.94 
L 62.650646 29.94 
L 60.500582 29.94 
L 58.350517 29.94 
L 56.200453 29.94 
L 54.050388 29.94 
L 51.900323 29.94 
L 49.750259 29.94 
L 47.600194 29.94 
L 45.450129 29.94 
L 43.300065 29.94 
L 41.15 29.94 
z
" clip-path="url(#p03498acbd2)" style="fill: #e8bc60"/>
   </g>
   <g id="FillBetweenPolyCollection_4">
    <path d="M 41.15 29.94 
L 41.15 29.94 
L 43.300065 29.94 
L 45.450129 29.94 
L 47.600194 29.94 
L 49.750259 29.94 
L 51.900323 29.94 
L 54.050388 29.94 
L 56.200453 29.94 
L 58.350517 29.94 
L 60.500582 29.94 
L 62.650646 29.94 
L 64.800711 29.94 
L 66.950776 29.94 
L 69.10084 29.94 
L 71.250905 29.94 
L 73.40097 29.94 
L 75.551034 29.94 
L 77.701099 29.94 
L 79.851164 155.245 
L 82.001228 29.94 
L 84.151293 29.94 
L 86.301358 29.94 
L 88.451422 29.94 
L 90.601487 29.94 
L 92.751552 29.94 
L 94.901616 29.94 
L 97.051681 29.94 
L 99.201746 29.94 
L 101.35181 29.94 
L 103.501875 29.94 
L 105.651939 29.94 
L 107.802004 29.94 
L 109.952069 29.94 
L 112.102133 29.94 
L 114.252198 29.94 
L 116.402263 29.94 
L 118.552327 29.94 
L 120.702392 29.94 
L 122.852457 29.94 
L 125.002521 29.94 
L 127.152586 29.94 
L 129.302651 29.94 
L 131.452715 29.94 
L 133.60278 29.94 
L 135.752845 29.94 
L 137.902909 29.94 
L 140.052974 29.94 
L 142.203038 29.94 
L 144.353103 29.94 
L 146.503168 29.94 
L 148.653232 29.94 
L 150.803297 29.94 
L 152.953362 29.94 
L 155.103426 29.94 
L 157.253491 29.94 
L 159.403556 29.94 
L 161.55362 29.94 
L 163.703685 29.94 
L 165.85375 29.94 
L 168.003814 29.94 
L 170.153879 29.94 
L 172.303944 29.94 
L 174.454008 29.94 
L 176.604073 29.94 
L 178.754137 29.94 
L 180.904202 29.94 
L 183.054267 29.94 
L 185.204331 29.94 
L 187.354396 29.94 
L 189.504461 29.94 
L 191.654525 29.94 
L 193.80459 29.94 
L 195.954655 29.94 
L 198.104719 29.94 
L 200.254784 29.94 
L 202.404849 29.94 
L 204.554913 29.94 
L 206.704978 29.94 
L 208.855043 29.94 
L 211.005107 29.94 
L 213.155172 29.94 
L 215.305237 29.94 
L 217.455301 29.94 
L 219.605366 29.94 
L 221.75543 29.94 
L 223.905495 29.94 
L 226.05556 29.94 
L 228.205624 29.94 
L 230.355689 29.94 
L 232.505754 29.94 
L 234.655818 29.94 
L 236.805883 29.94 
L 238.955948 29.94 
L 241.106012 29.94 
L 243.256077 29.94 
L 245.406142 29.94 
L 247.556206 29.94 
L 249.706271 29.94 
L 251.856336 29.94 
L 254.0064 29.94 
L 256.156465 29.94 
L 258.306529 29.94 
L 260.456594 29.94 
L 262.606659 29.94 
L 264.756723 29.94 
L 266.906788 29.94 
L 269.056853 29.94 
L 271.206917 29.94 
L 273.356982 29.94 
L 275.507047 29.94 
L 277.657111 29.94 
L 279.807176 29.94 
L 281.957241 29.94 
L 284.107305 29.94 
L 286.25737 29.94 
L 288.407435 29.94 
L 290.557499 29.94 
L 292.707564 29.94 
L 294.857629 29.94 
L 297.007693 29.94 
L 299.157758 29.94 
L 301.307822 29.94 
L 303.457887 29.94 
L 305.607952 29.94 
L 307.758016 29.94 
L 309.908081 29.94 
L 312.058146 29.94 
L 314.20821 29.94 
L 316.358275 29.94 
L 318.50834 29.94 
L 320.658404 29.94 
L 322.808469 29.94 
L 324.958534 29.94 
L 327.108598 29.94 
L 329.258663 29.94 
L 331.408728 29.94 
L 333.558792 29.94 
L 335.708857 29.94 
L 337.858921 29.94 
L 340.008986 29.94 
L 342.159051 29.94 
L 344.309115 29.94 
L 346.45918 29.94 
L 348.609245 29.94 
L 350.759309 29.94 
L 352.909374 29.94 
L 355.059439 29.94 
L 357.209503 29.94 
L 359.359568 29.94 
L 361.509633 29.94 
L 363.659697 29.94 
L 365.809762 29.94 
L 367.959827 29.94 
L 370.109891 29.94 
L 372.259956 29.94 
L 374.410021 29.94 
L 376.560085 29.94 
L 378.71015 29.94 
L 380.860214 29.94 
L 383.010279 29.94 
L 385.160344 29.94 
L 387.310408 29.94 
L 389.460473 29.94 
L 391.610538 29.94 
L 393.760602 29.94 
L 395.910667 29.94 
L 398.060732 29.94 
L 400.210796 29.94 
L 402.360861 29.94 
L 404.510926 29.94 
L 406.66099 29.94 
L 408.811055 29.94 
L 410.96112 29.94 
L 413.111184 29.94 
L 415.261249 29.94 
L 417.411313 29.94 
L 419.561378 29.94 
L 421.711443 29.94 
L 423.861507 29.94 
L 426.011572 29.94 
L 428.161637 29.94 
L 430.311701 29.94 
L 432.461766 29.94 
L 434.611831 29.94 
L 436.761895 29.94 
L 438.91196 29.94 
L 441.062025 29.94 
L 443.212089 29.94 
L 445.362154 29.94 
L 447.512219 29.94 
L 449.662283 29.94 
L 451.812348 29.94 
L 453.962412 29.94 
L 456.112477 29.94 
L 458.262542 29.94 
L 460.412606 29.94 
L 462.562671 29.94 
L 464.712736 29.94 
L 466.8628 29.94 
L 469.012865 29.94 
L 471.16293 29.94 
L 473.312994 29.94 
L 475.463059 29.94 
L 477.613124 29.94 
L 479.763188 29.94 
L 481.913253 29.94 
L 484.063318 29.94 
L 486.213382 29.94 
L 488.363447 29.94 
L 490.513512 29.94 
L 492.663576 29.94 
L 494.813641 29.94 
L 496.963705 29.94 
L 499.11377 29.94 
L 501.263835 29.94 
L 503.413899 29.94 
L 505.563964 29.94 
L 507.714029 29.94 
L 509.864093 29.94 
L 512.014158 29.94 
L 514.164223 29.94 
L 516.314287 29.94 
L 518.464352 29.94 
L 520.614417 29.94 
L 522.764481 29.94 
L 524.914546 29.94 
L 527.064611 29.94 
L 529.214675 29.94 
L 531.36474 29.94 
L 533.514804 29.94 
L 535.664869 29.94 
L 537.814934 29.94 
L 539.964998 29.94 
L 542.115063 29.94 
L 544.265128 29.94 
L 546.415192 29.94 
L 548.565257 29.94 
L 550.715322 29.94 
L 552.865386 29.94 
L 555.015451 29.94 
L 557.165516 29.94 
L 559.31558 29.94 
L 561.465645 29.94 
L 563.61571 29.94 
L 565.765774 29.94 
L 567.915839 29.94 
L 570.065904 29.94 
L 572.215968 29.94 
L 574.366033 29.94 
L 576.516097 29.94 
L 578.666162 29.94 
L 580.816227 29.94 
L 582.966291 29.94 
L 585.116356 29.94 
L 587.266421 29.94 
L 589.416485 29.94 
L 591.56655 29.94 
L 593.716615 29.94 
L 595.866679 29.94 
L 598.016744 29.94 
L 600.166809 29.94 
L 602.316873 29.94 
L 604.466938 29.94 
L 606.617003 29.94 
L 608.767067 29.94 
L 610.917132 29.94 
L 613.067196 29.94 
L 615.217261 29.94 
L 617.367326 29.94 
L 619.51739 29.94 
L 621.667455 29.94 
L 623.81752 29.94 
L 625.967584 29.94 
L 628.117649 29.94 
L 630.267714 29.94 
L 632.417778 29.94 
L 634.567843 29.94 
L 636.717908 29.94 
L 638.867972 29.94 
L 641.018037 29.94 
L 643.168102 29.94 
L 645.318166 29.94 
L 647.468231 29.94 
L 649.618295 29.94 
L 651.76836 29.94 
L 653.918425 29.94 
L 656.068489 29.94 
L 658.218554 29.94 
L 660.368619 29.94 
L 662.518683 29.94 
L 664.668748 29.94 
L 666.818813 29.94 
L 668.968877 29.94 
L 671.118942 29.94 
L 671.118942 29.94 
L 671.118942 29.94 
L 668.968877 29.94 
L 666.818813 29.94 
L 664.668748 29.94 
L 662.518683 29.94 
L 660.368619 29.94 
L 658.218554 29.94 
L 656.068489 29.94 
L 653.918425 29.94 
L 651.76836 29.94 
L 649.618295 29.94 
L 647.468231 29.94 
L 645.318166 29.94 
L 643.168102 29.94 
L 641.018037 29.94 
L 638.867972 29.94 
L 636.717908 29.94 
L 634.567843 29.94 
L 632.417778 29.94 
L 630.267714 29.94 
L 628.117649 29.94 
L 625.967584 29.94 
L 623.81752 29.94 
L 621.667455 29.94 
L 619.51739 29.94 
L 617.367326 29.94 
L 615.217261 29.94 
L 613.067196 29.94 
L 610.917132 29.94 
L 608.767067 29.94 
L 606.617003 29.94 
L 604.466938 29.94 
L 602.316873 29.94 
L 600.166809 29.94 
L 598.016744 29.94 
L 595.866679 29.94 
L 593.716615 29.94 
L 591.56655 29.94 
L 589.416485 29.94 
L 587.266421 29.94 
L 585.116356 29.94 
L 582.966291 29.94 
L 580.816227 29.94 
L 578.666162 29.94 
L 576.516097 29.94 
L 574.366033 29.94 
L 572.215968 29.94 
L 570.065904 29.94 
L 567.915839 29.94 
L 565.765774 29.94 
L 563.61571 29.94 
L 561.465645 29.94 
L 559.31558 29.94 
L 557.165516 29.94 
L 555.015451 29.94 
L 552.865386 29.94 
L 550.715322 29.94 
L 548.565257 29.94 
L 546.415192 29.94 
L 544.265128 29.94 
L 542.115063 29.94 
L 539.964998 29.94 
L 537.814934 29.94 
L 535.664869 29.94 
L 533.514804 29.94 
L 531.36474 29.94 
L 529.214675 29.94 
L 527.064611 29.94 
L 524.914546 29.94 
L 522.764481 29.94 
L 520.614417 29.94 
L 518.464352 29.94 
L 516.314287 29.94 
L 514.164223 29.94 
L 512.014158 29.94 
L 509.864093 29.94 
L 507.714029 29.94 
L 505.563964 29.94 
L 503.413899 29.94 
L 501.263835 29.94 
L 499.11377 29.94 
L 496.963705 29.94 
L 494.813641 29.94 
L 492.663576 29.94 
L 490.513512 29.94 
L 488.363447 29.94 
L 486.213382 29.94 
L 484.063318 29.94 
L 481.913253 29.94 
L 479.763188 29.94 
L 477.613124 29.94 
L 475.463059 29.94 
L 473.312994 29.94 
L 471.16293 29.94 
L 469.012865 29.94 
L 466.8628 29.94 
L 464.712736 29.94 
L 462.562671 29.94 
L 460.412606 29.94 
L 458.262542 29.94 
L 456.112477 29.94 
L 453.962412 29.94 
L 451.812348 29.94 
L 449.662283 29.94 
L 447.512219 29.94 
L 445.362154 29.94 
L 443.212089 29.94 
L 441.062025 29.94 
L 438.91196 29.94 
L 436.761895 29.94 
L 434.611831 29.94 
L 432.461766 29.94 
L 430.311701 29.94 
L 428.161637 29.94 
L 426.011572 29.94 
L 423.861507 29.94 
L 421.711443 29.94 
L 419.561378 29.94 
L 417.411313 29.94 
L 415.261249 29.94 
L 413.111184 29.94 
L 410.96112 29.94 
L 408.811055 29.94 
L 406.66099 29.94 
L 404.510926 29.94 
L 402.360861 29.94 
L 400.210796 29.94 
L 398.060732 29.94 
L 395.910667 29.94 
L 393.760602 29.94 
L 391.610538 29.94 
L 389.460473 29.94 
L 387.310408 29.94 
L 385.160344 29.94 
L 383.010279 29.94 
L 380.860214 29.94 
L 378.71015 29.94 
L 376.560085 29.94 
L 374.410021 29.94 
L 372.259956 29.94 
L 370.109891 29.94 
L 367.959827 29.94 
L 365.809762 29.94 
L 363.659697 29.94 
L 361.509633 29.94 
L 359.359568 29.94 
L 357.209503 29.94 
L 355.059439 29.94 
L 352.909374 29.94 
L 350.759309 29.94 
L 348.609245 29.94 
L 346.45918 29.94 
L 344.309115 29.94 
L 342.159051 29.94 
L 340.008986 29.94 
L 337.858921 29.94 
L 335.708857 29.94 
L 333.558792 29.94 
L 331.408728 29.94 
L 329.258663 29.94 
L 327.108598 29.94 
L 324.958534 29.94 
L 322.808469 29.94 
L 320.658404 29.94 
L 318.50834 29.94 
L 316.358275 29.94 
L 314.20821 29.94 
L 312.058146 29.94 
L 309.908081 29.94 
L 307.758016 29.94 
L 305.607952 29.94 
L 303.457887 29.94 
L 301.307822 29.94 
L 299.157758 29.94 
L 297.007693 29.94 
L 294.857629 29.94 
L 292.707564 29.94 
L 290.557499 29.94 
L 288.407435 29.94 
L 286.25737 29.94 
L 284.107305 29.94 
L 281.957241 29.94 
L 279.807176 29.94 
L 277.657111 29.94 
L 275.507047 29.94 
L 273.356982 29.94 
L 271.206917 29.94 
L 269.056853 29.94 
L 266.906788 29.94 
L 264.756723 29.94 
L 262.606659 29.94 
L 260.456594 29.94 
L 258.306529 29.94 
L 256.156465 29.94 
L 254.0064 29.94 
L 251.856336 29.94 
L 249.706271 29.94 
L 247.556206 29.94 
L 245.406142 29.94 
L 243.256077 29.94 
L 241.106012 29.94 
L 238.955948 29.94 
L 236.805883 29.94 
L 234.655818 29.94 
L 232.505754 29.94 
L 230.355689 29.94 
L 228.205624 29.94 
L 226.05556 29.94 
L 223.905495 29.94 
L 221.75543 29.94 
L 219.605366 29.94 
L 217.455301 29.94 
L 215.305237 29.94 
L 213.155172 29.94 
L 211.005107 29.94 
L 208.855043 29.94 
L 206.704978 29.94 
L 204.554913 29.94 
L 202.404849 29.94 
L 200.254784 29.94 
L 198.104719 29.94 
L 195.954655 29.94 
L 193.80459 29.94 
L 191.654525 29.94 
L 189.504461 29.94 
L 187.354396 29.94 
L 185.204331 29.94 
L 183.054267 29.94 
L 180.904202 29.94 
L 178.754137 29.94 
L 176.604073 29.94 
L 174.454008 29.94 
L 172.303944 29.94 
L 170.153879 29.94 
L 168.003814 29.94 
L 165.85375 29.94 
L 163.703685 29.94 
L 161.55362 29.94 
L 159.403556 29.94 
L 157.253491 29.94 
L 155.103426 29.94 
L 152.953362 29.94 
L 150.803297 29.94 
L 148.653232 29.94 
L 146.503168 29.94 
L 144.353103 29.94 
L 142.203038 29.94 
L 140.052974 29.94 
L 137.902909 29.94 
L 135.752845 29.94 
L 133.60278 29.94 
L 131.452715 29.94 
L 129.302651 29.94 
L 127.152586 29.94 
L 125.002521 29.94 
L 122.852457 29.94 
L 120.702392 29.94 
L 118.552327 29.94 
L 116.402263 29.94 
L 114.252198 29.94 
L 112.102133 29.94 
L 109.952069 29.94 
L 107.802004 29.94 
L 105.651939 29.94 
L 103.501875 29.94 
L 101.35181 29.94 
L 99.201746 29.94 
L 97.051681 29.94 
L 94.901616 29.94 
L 92.751552 29.94 
L 90.601487 29.94 
L 88.451422 29.94 
L 86.301358 29.94 
L 84.151293 29.94 
L 82.001228 29.94 
L 79.851164 29.94 
L 77.701099 29.94 
L 75.551034 29.94 
L 73.40097 29.94 
L 71.250905 29.94 
L 69.10084 29.94 
L 66.950776 29.94 
L 64.800711 29.94 
L 62.650646 29.94 
L 60.500582 29.94 
L 58.350517 29.94 
L 56.200453 29.94 
L 54.050388 29.94 
L 51.900323 29.94 
L 49.750259 29.94 
L 47.600194 29.94 
L 45.450129 29.94 
L 43.300065 29.94 
L 41.15 29.94 
z
" clip-path="url(#p03498acbd2)" style="fill: #8d5993"/>
   </g>
   <g id="matplotlib.axis_1">
    <g id="xtick_1">
     <g id="line2d_1">
      <path d="M 146.503168 531.16 
L 146.503168 29.94 
" clip-path="url(#p03498acbd2)" style="fill: none; stroke-dasharray: 2.96,1.28; stroke-dashoffset: 0; stroke: #b0b0b0; stroke-opacity: 0.5; stroke-width: 0.8"/>
     </g>
     <g id="line2d_2">
      <defs>
       <path id="md1350b4904" d="M 0 0 
L 0 3.5 
" style="stroke: #000000; stroke-width: 0.8"/>
      </defs>
      <g>
       <use xlink:href="#md1350b4904" x="146.503168" y="531.16" style="stroke: #000000; stroke-width: 0.8"/>
      </g>
     </g>
     <g id="text_1">
      <!-- 50 -->
      <g transform="translate(140.140668 545.758438) scale(0.1 -0.1)">
       <defs>
        <path id="DejaVuSans-35" d="M 691 4666 
L 3169 4666 
L 3169 4134 
L 1269 4134 
L 1269 2991 
Q 1406 3038 1543 3061 
Q 1681 3084 1819 3084 
Q 2600 3084 3056 2656 
Q 3513 2228 3513 1497 
Q 3513 744 3044 326 
Q 2575 -91 1722 -91 
Q 1428 -91 1123 -41 
Q 819 9 494 109 
L 494 744 
Q 775 591 1075 516 
Q 1375 441 1709 441 
Q 2250 441 2565 725 
Q 2881 1009 2881 1497 
Q 2881 1984 2565 2268 
Q 2250 2553 1709 2553 
Q 1456 2553 1204 2497 
Q 953 2441 691 2322 
L 691 4666 
z
" transform="scale(0.015625)"/>
        <path id="DejaVuSans-30" d="M 2034 4250 
Q 1547 4250 1301 3770 
Q 1056 3291 1056 2328 
Q 1056 1369 1301 889 
Q 1547 409 2034 409 
Q 2525 409 2770 889 
Q 3016 1369 3016 2328 
Q 3016 3291 2770 3770 
Q 2525 4250 2034 4250 
z
M 2034 4750 
Q 2819 4750 3233 4129 
Q 3647 3509 3647 2328 
Q 3647 1150 3233 529 
Q 2819 -91 2034 -91 
Q 1250 -91 836 529 
Q 422 1150 422 2328 
Q 422 3509 836 4129 
Q 1250 4750 2034 4750 
z
" transform="scale(0.015625)"/>
       </defs>
       <use xlink:href="#DejaVuSans-35"/>
       <use xlink:href="#DejaVuSans-30" transform="translate(63.623047 0)"/>
      </g>
     </g>
    </g>
    <g id="xtick_2">
     <g id="line2d_3">
      <path d="M 254.0064 531.16 
L 254.0064 29.94 
" clip-path="url(#p03498acbd2)" style="fill: none; stroke-dasharray: 2.96,1.28; stroke-dashoffset: 0; stroke: #b0b0b0; stroke-opacity: 0.5; stroke-width: 0.8"/>
     </g>
     <g id="line2d_4">
      <g>
       <use xlink:href="#md1350b4904" x="254.0064" y="531.16" style="stroke: #000000; stroke-width: 0.8"/>
      </g>
     </g>
     <g id="text_2">
      <!-- 100 -->
      <g transform="translate(244.46265 545.758438) scale(0.1 -0.1)">
       <defs>
        <path id="DejaVuSans-31" d="M 794 531 
L 1825 531 
L 1825 4091 
L 703 3866 
L 703 4441 
L 1819 4666 
L 2450 4666 
L 2450 531 
L 3481 531 
L 3481 0 
L 794 0 
L 794 531 
z
" transform="scale(0.015625)"/>
       </defs>
       <use xlink:href="#DejaVuSans-31"/>
       <use xlink:href="#DejaVuSans-30" transform="translate(63.623047 0)"/>
       <use xlink:href="#DejaVuSans-30" transform="translate(127.246094 0)"/>
      </g>
     </g>
    </g>
    <g id="xtick_3">
     <g id="line2d_5">
      <path d="M 361.509633 531.16 
L 361.509633 29.94 
" clip-path="url(#p03498acbd2)" style="fill: none; stroke-dasharray: 2.96,1.28; stroke-dashoffset: 0; stroke: #b0b0b0; stroke-opacity: 0.5; stroke-width: 0.8"/>
     </g>
     <g id="line2d_6">
      <g>
       <use xlink:href="#md1350b4904" x="361.509633" y="531.16" style="stroke: #000000; stroke-width: 0.8"/>
      </g>
     </g>
     <g id="text_3">
      <!-- 150 -->
      <g transform="translate(351.965883 545.758438) scale(0.1 -0.1)">
       <use xlink:href="#DejaVuSans-31"/>
       <use xlink:href="#DejaVuSans-35" transform="translate(63.623047 0)"/>
       <use xlink:href="#DejaVuSans-30" transform="translate(127.246094 0)"/>
      </g>
     </g>
    </g>
    <g id="xtick_4">
     <g id="line2d_7">
      <path d="M 469.012865 531.16 
L 469.012865 29.94 
" clip-path="url(#p03498acbd2)" style="fill: none; stroke-dasharray: 2.96,1.28; stroke-dashoffset: 0; stroke: #b0b0b0; stroke-opacity: 0.5; stroke-width: 0.8"/>
     </g>
     <g id="line2d_8">
      <g>
       <use xlink:href="#md1350b4904" x="469.012865" y="531.16" style="stroke: #000000; stroke-width: 0.8"/>
      </g>
     </g>
     <g id="text_4">
      <!-- 200 -->
      <g transform="translate(459.469115 545.758438) scale(0.1 -0.1)">
       <defs>
        <path id="DejaVuSans-32" d="M 1228 531 
L 3431 531 
L 3431 0 
L 469 0 
L 469 531 
Q 828 903 1448 1529 
Q 2069 2156 2228 2338 
Q 2531 2678 2651 2914 
Q 2772 3150 2772 3378 
Q 2772 3750 2511 3984 
Q 2250 4219 1831 4219 
Q 1534 4219 1204 4116 
Q 875 4013 500 3803 
L 500 4441 
Q 881 4594 1212 4672 
Q 1544 4750 1819 4750 
Q 2544 4750 2975 4387 
Q 3406 4025 3406 3419 
Q 3406 3131 3298 2873 
Q 3191 2616 2906 2266 
Q 2828 2175 2409 1742 
Q 1991 1309 1228 531 
z
" transform="scale(0.015625)"/>
       </defs>
       <use xlink:href="#DejaVuSans-32"/>
       <use xlink:href="#DejaVuSans-30" transform="translate(63.623047 0)"/>
       <use xlink:href="#DejaVuSans-30" transform="translate(127.246094 0)"/>
      </g>
     </g>
    </g>
    <g id="xtick_5">
     <g id="line2d_9">
      <path d="M 576.516097 531.16 
L 576.516097 29.94 
" clip-path="url(#p03498acbd2)" style="fill: none; stroke-dasharray: 2.96,1.28; stroke-dashoffset: 0; stroke: #b0b0b0; stroke-opacity: 0.5; stroke-width: 0.8"/>
     </g>
     <g id="line2d_10">
      <g>
       <use xlink:href="#md1350b4904" x="576.516097" y="531.16" style="stroke: #000000; stroke-width: 0.8"/>
      </g>
     </g>
     <g id="text_5">
      <!-- 250 -->
      <g transform="translate(566.972347 545.758438) scale(0.1 -0.1)">
       <use xlink:href="#DejaVuSans-32"/>
       <use xlink:href="#DejaVuSans-35" transform="translate(63.623047 0)"/>
       <use xlink:href="#DejaVuSans-30" transform="translate(127.246094 0)"/>
      </g>
     </g>
    </g>
    <g id="text_6">
     <!-- Session Count -->
     <g transform="translate(315.876815 561.559375) scale(0.14 -0.14)">
      <defs>
       <path id="TimesNewRomanPSMT-53" d="M 2934 4334 
L 2934 2869 
L 2819 2869 
Q 2763 3291 2617 3541 
Q 2472 3791 2203 3937 
Q 1934 4084 1647 4084 
Q 1322 4084 1109 3886 
Q 897 3688 897 3434 
Q 897 3241 1031 3081 
Q 1225 2847 1953 2456 
Q 2547 2138 2764 1967 
Q 2981 1797 3098 1565 
Q 3216 1334 3216 1081 
Q 3216 600 2842 251 
Q 2469 -97 1881 -97 
Q 1697 -97 1534 -69 
Q 1438 -53 1133 45 
Q 828 144 747 144 
Q 669 144 623 97 
Q 578 50 556 -97 
L 441 -97 
L 441 1356 
L 556 1356 
Q 638 900 775 673 
Q 913 447 1195 297 
Q 1478 147 1816 147 
Q 2206 147 2432 353 
Q 2659 559 2659 841 
Q 2659 997 2573 1156 
Q 2488 1316 2306 1453 
Q 2184 1547 1640 1851 
Q 1097 2156 867 2337 
Q 638 2519 519 2737 
Q 400 2956 400 3219 
Q 400 3675 750 4004 
Q 1100 4334 1641 4334 
Q 1978 4334 2356 4169 
Q 2531 4091 2603 4091 
Q 2684 4091 2736 4139 
Q 2788 4188 2819 4334 
L 2934 4334 
z
" transform="scale(0.015625)"/>
       <path id="TimesNewRomanPSMT-65" d="M 681 1784 
Q 678 1147 991 784 
Q 1303 422 1725 422 
Q 2006 422 2214 576 
Q 2422 731 2563 1106 
L 2659 1044 
Q 2594 616 2278 264 
Q 1963 -88 1488 -88 
Q 972 -88 605 314 
Q 238 716 238 1394 
Q 238 2128 614 2539 
Q 991 2950 1559 2950 
Q 2041 2950 2350 2633 
Q 2659 2316 2659 1784 
L 681 1784 
z
M 681 1966 
L 2006 1966 
Q 1991 2241 1941 2353 
Q 1863 2528 1708 2628 
Q 1553 2728 1384 2728 
Q 1125 2728 920 2526 
Q 716 2325 681 1966 
z
" transform="scale(0.015625)"/>
       <path id="TimesNewRomanPSMT-73" d="M 2050 2947 
L 2050 1972 
L 1947 1972 
Q 1828 2431 1642 2597 
Q 1456 2763 1169 2763 
Q 950 2763 815 2647 
Q 681 2531 681 2391 
Q 681 2216 781 2091 
Q 878 1963 1175 1819 
L 1631 1597 
Q 2266 1288 2266 781 
Q 2266 391 1970 151 
Q 1675 -88 1309 -88 
Q 1047 -88 709 6 
Q 606 38 541 38 
Q 469 38 428 -44 
L 325 -44 
L 325 978 
L 428 978 
Q 516 541 762 319 
Q 1009 97 1316 97 
Q 1531 97 1667 223 
Q 1803 350 1803 528 
Q 1803 744 1651 891 
Q 1500 1038 1047 1263 
Q 594 1488 453 1669 
Q 313 1847 313 2119 
Q 313 2472 555 2709 
Q 797 2947 1181 2947 
Q 1350 2947 1591 2875 
Q 1750 2828 1803 2828 
Q 1853 2828 1881 2850 
Q 1909 2872 1947 2947 
L 2050 2947 
z
" transform="scale(0.015625)"/>
       <path id="TimesNewRomanPSMT-69" d="M 928 4444 
Q 1059 4444 1151 4351 
Q 1244 4259 1244 4128 
Q 1244 3997 1151 3903 
Q 1059 3809 928 3809 
Q 797 3809 703 3903 
Q 609 3997 609 4128 
Q 609 4259 701 4351 
Q 794 4444 928 4444 
z
M 1188 2947 
L 1188 647 
Q 1188 378 1227 289 
Q 1266 200 1342 156 
Q 1419 113 1622 113 
L 1622 0 
L 231 0 
L 231 113 
Q 441 113 512 153 
Q 584 194 626 287 
Q 669 381 669 647 
L 669 1750 
Q 669 2216 641 2353 
Q 619 2453 572 2492 
Q 525 2531 444 2531 
Q 356 2531 231 2484 
L 188 2597 
L 1050 2947 
L 1188 2947 
z
" transform="scale(0.015625)"/>
       <path id="TimesNewRomanPSMT-6f" d="M 1600 2947 
Q 2250 2947 2644 2453 
Q 2978 2031 2978 1484 
Q 2978 1100 2793 706 
Q 2609 313 2286 112 
Q 1963 -88 1566 -88 
Q 919 -88 538 428 
Q 216 863 216 1403 
Q 216 1797 411 2186 
Q 606 2575 925 2761 
Q 1244 2947 1600 2947 
z
M 1503 2744 
Q 1338 2744 1170 2645 
Q 1003 2547 900 2300 
Q 797 2053 797 1666 
Q 797 1041 1045 587 
Q 1294 134 1700 134 
Q 2003 134 2200 384 
Q 2397 634 2397 1244 
Q 2397 2006 2069 2444 
Q 1847 2744 1503 2744 
z
" transform="scale(0.015625)"/>
       <path id="TimesNewRomanPSMT-6e" d="M 1034 2341 
Q 1538 2947 1994 2947 
Q 2228 2947 2397 2830 
Q 2566 2713 2666 2444 
Q 2734 2256 2734 1869 
L 2734 647 
Q 2734 375 2778 278 
Q 2813 200 2889 156 
Q 2966 113 3172 113 
L 3172 0 
L 1756 0 
L 1756 113 
L 1816 113 
Q 2016 113 2095 173 
Q 2175 234 2206 353 
Q 2219 400 2219 647 
L 2219 1819 
Q 2219 2209 2117 2386 
Q 2016 2563 1775 2563 
Q 1403 2563 1034 2156 
L 1034 647 
Q 1034 356 1069 288 
Q 1113 197 1189 155 
Q 1266 113 1500 113 
L 1500 0 
L 84 0 
L 84 113 
L 147 113 
Q 366 113 442 223 
Q 519 334 519 647 
L 519 1709 
Q 519 2225 495 2337 
Q 472 2450 423 2490 
Q 375 2531 294 2531 
Q 206 2531 84 2484 
L 38 2597 
L 900 2947 
L 1034 2947 
L 1034 2341 
z
" transform="scale(0.015625)"/>
       <path id="TimesNewRomanPSMT-20" transform="scale(0.015625)"/>
       <path id="TimesNewRomanPSMT-43" d="M 3853 4334 
L 3950 2894 
L 3853 2894 
Q 3659 3541 3300 3825 
Q 2941 4109 2438 4109 
Q 2016 4109 1675 3895 
Q 1334 3681 1139 3212 
Q 944 2744 944 2047 
Q 944 1472 1128 1050 
Q 1313 628 1683 403 
Q 2053 178 2528 178 
Q 2941 178 3256 354 
Q 3572 531 3950 1056 
L 4047 994 
Q 3728 428 3303 165 
Q 2878 -97 2294 -97 
Q 1241 -97 663 684 
Q 231 1266 231 2053 
Q 231 2688 515 3219 
Q 800 3750 1298 4042 
Q 1797 4334 2388 4334 
Q 2847 4334 3294 4109 
Q 3425 4041 3481 4041 
Q 3566 4041 3628 4100 
Q 3709 4184 3744 4334 
L 3853 4334 
z
" transform="scale(0.015625)"/>
       <path id="TimesNewRomanPSMT-75" d="M 2709 2863 
L 2709 1128 
Q 2709 631 2732 520 
Q 2756 409 2807 365 
Q 2859 322 2928 322 
Q 3025 322 3147 375 
L 3191 266 
L 2334 -88 
L 2194 -88 
L 2194 519 
Q 1825 119 1631 15 
Q 1438 -88 1222 -88 
Q 981 -88 804 51 
Q 628 191 559 409 
Q 491 628 491 1028 
L 491 2306 
Q 491 2509 447 2587 
Q 403 2666 317 2708 
Q 231 2750 6 2747 
L 6 2863 
L 1009 2863 
L 1009 947 
Q 1009 547 1148 422 
Q 1288 297 1484 297 
Q 1619 297 1789 381 
Q 1959 466 2194 703 
L 2194 2325 
Q 2194 2569 2105 2655 
Q 2016 2741 1734 2747 
L 1734 2863 
L 2709 2863 
z
" transform="scale(0.015625)"/>
       <path id="TimesNewRomanPSMT-74" d="M 1031 3803 
L 1031 2863 
L 1700 2863 
L 1700 2644 
L 1031 2644 
L 1031 788 
Q 1031 509 1111 412 
Q 1191 316 1316 316 
Q 1419 316 1516 380 
Q 1613 444 1666 569 
L 1788 569 
Q 1678 263 1478 108 
Q 1278 -47 1066 -47 
Q 922 -47 784 33 
Q 647 113 581 261 
Q 516 409 516 719 
L 516 2644 
L 63 2644 
L 63 2747 
Q 234 2816 414 2980 
Q 594 3144 734 3369 
Q 806 3488 934 3803 
L 1031 3803 
z
" transform="scale(0.015625)"/>
      </defs>
      <use xlink:href="#TimesNewRomanPSMT-53"/>
      <use xlink:href="#TimesNewRomanPSMT-65" transform="translate(55.615234 0)"/>
      <use xlink:href="#TimesNewRomanPSMT-73" transform="translate(100 0)"/>
      <use xlink:href="#TimesNewRomanPSMT-73" transform="translate(138.916016 0)"/>
      <use xlink:href="#TimesNewRomanPSMT-69" transform="translate(177.832031 0)"/>
      <use xlink:href="#TimesNewRomanPSMT-6f" transform="translate(205.615234 0)"/>
      <use xlink:href="#TimesNewRomanPSMT-6e" transform="translate(255.615234 0)"/>
      <use xlink:href="#TimesNewRomanPSMT-20" transform="translate(305.615234 0)"/>
      <use xlink:href="#TimesNewRomanPSMT-43" transform="translate(330.615234 0)"/>
      <use xlink:href="#TimesNewRomanPSMT-6f" transform="translate(397.314453 0)"/>
      <use xlink:href="#TimesNewRomanPSMT-75" transform="translate(447.314453 0)"/>
      <use xlink:href="#TimesNewRomanPSMT-6e" transform="translate(497.314453 0)"/>
      <use xlink:href="#TimesNewRomanPSMT-74" transform="translate(547.314453 0)"/>
     </g>
    </g>
   </g>
   <g id="matplotlib.axis_2">
    <g id="ytick_1">
     <g id="line2d_11">
      <path d="M 41.15 531.16 
L 671.118942 531.16 
" clip-path="url(#p03498acbd2)" style="fill: none; stroke-dasharray: 2.96,1.28; stroke-dashoffset: 0; stroke: #b0b0b0; stroke-opacity: 0.5; stroke-width: 0.8"/>
     </g>
     <g id="line2d_12">
      <defs>
       <path id="m0665a2a44f" d="M 0 0 
L -3.5 0 
" style="stroke: #000000; stroke-width: 0.8"/>
      </defs>
      <g>
       <use xlink:href="#m0665a2a44f" x="41.15" y="531.16" style="stroke: #000000; stroke-width: 0.8"/>
      </g>
     </g>
     <g id="text_7">
      <!-- 0 -->
      <g transform="translate(27.7875 534.959219) scale(0.1 -0.1)">
       <use xlink:href="#DejaVuSans-30"/>
      </g>
     </g>
    </g>
    <g id="ytick_2">
     <g id="line2d_13">
      <path d="M 41.15 29.94 
L 671.118942 29.94 
" clip-path="url(#p03498acbd2)" style="fill: none; stroke-dasharray: 2.96,1.28; stroke-dashoffset: 0; stroke: #b0b0b0; stroke-opacity: 0.5; stroke-width: 0.8"/>
     </g>
     <g id="line2d_14">
      <g>
       <use xlink:href="#m0665a2a44f" x="41.15" y="29.94" style="stroke: #000000; stroke-width: 0.8"/>
      </g>
     </g>
     <g id="text_8">
      <!-- 1 -->
      <g transform="translate(27.7875 33.739219) scale(0.1 -0.1)">
       <use xlink:href="#DejaVuSans-31"/>
      </g>
     </g>
    </g>
    <g id="text_9">
     <!-- Stacked Proportion -->
     <g transform="translate(20.792813 334.402969) rotate(-90) scale(0.14 -0.14)">
      <defs>
       <path id="TimesNewRomanPSMT-61" d="M 1822 413 
Q 1381 72 1269 19 
Q 1100 -59 909 -59 
Q 613 -59 420 144 
Q 228 347 228 678 
Q 228 888 322 1041 
Q 450 1253 767 1440 
Q 1084 1628 1822 1897 
L 1822 2009 
Q 1822 2438 1686 2597 
Q 1550 2756 1291 2756 
Q 1094 2756 978 2650 
Q 859 2544 859 2406 
L 866 2225 
Q 866 2081 792 2003 
Q 719 1925 600 1925 
Q 484 1925 411 2006 
Q 338 2088 338 2228 
Q 338 2497 613 2722 
Q 888 2947 1384 2947 
Q 1766 2947 2009 2819 
Q 2194 2722 2281 2516 
Q 2338 2381 2338 1966 
L 2338 994 
Q 2338 584 2353 492 
Q 2369 400 2405 369 
Q 2441 338 2488 338 
Q 2538 338 2575 359 
Q 2641 400 2828 588 
L 2828 413 
Q 2478 -56 2159 -56 
Q 2006 -56 1915 50 
Q 1825 156 1822 413 
z
M 1822 616 
L 1822 1706 
Q 1350 1519 1213 1441 
Q 966 1303 859 1153 
Q 753 1003 753 825 
Q 753 600 887 451 
Q 1022 303 1197 303 
Q 1434 303 1822 616 
z
" transform="scale(0.015625)"/>
       <path id="TimesNewRomanPSMT-63" d="M 2631 1088 
Q 2516 522 2178 217 
Q 1841 -88 1431 -88 
Q 944 -88 581 321 
Q 219 731 219 1428 
Q 219 2103 620 2525 
Q 1022 2947 1584 2947 
Q 2006 2947 2278 2723 
Q 2550 2500 2550 2259 
Q 2550 2141 2473 2067 
Q 2397 1994 2259 1994 
Q 2075 1994 1981 2113 
Q 1928 2178 1911 2362 
Q 1894 2547 1784 2644 
Q 1675 2738 1481 2738 
Q 1169 2738 978 2506 
Q 725 2200 725 1697 
Q 725 1184 976 792 
Q 1228 400 1656 400 
Q 1963 400 2206 609 
Q 2378 753 2541 1131 
L 2631 1088 
z
" transform="scale(0.015625)"/>
       <path id="TimesNewRomanPSMT-6b" d="M 1047 4444 
L 1047 1594 
L 1775 2259 
Q 2006 2472 2044 2528 
Q 2069 2566 2069 2603 
Q 2069 2666 2017 2711 
Q 1966 2756 1847 2763 
L 1847 2863 
L 3091 2863 
L 3091 2763 
Q 2834 2756 2664 2684 
Q 2494 2613 2291 2428 
L 1556 1750 
L 2291 822 
Q 2597 438 2703 334 
Q 2853 188 2966 144 
Q 3044 113 3238 113 
L 3238 0 
L 1847 0 
L 1847 113 
Q 1966 116 2008 148 
Q 2050 181 2050 241 
Q 2050 313 1925 472 
L 1047 1594 
L 1047 644 
Q 1047 366 1086 278 
Q 1125 191 1197 153 
Q 1269 116 1509 113 
L 1509 0 
L 53 0 
L 53 113 
Q 272 113 381 166 
Q 447 200 481 272 
Q 528 375 528 628 
L 528 3234 
Q 528 3731 506 3842 
Q 484 3953 434 3995 
Q 384 4038 303 4038 
Q 238 4038 106 3984 
L 53 4094 
L 903 4444 
L 1047 4444 
z
" transform="scale(0.015625)"/>
       <path id="TimesNewRomanPSMT-64" d="M 2222 322 
Q 2013 103 1813 7 
Q 1613 -88 1381 -88 
Q 913 -88 563 304 
Q 213 697 213 1313 
Q 213 1928 600 2439 
Q 988 2950 1597 2950 
Q 1975 2950 2222 2709 
L 2222 3238 
Q 2222 3728 2198 3840 
Q 2175 3953 2125 3993 
Q 2075 4034 2000 4034 
Q 1919 4034 1784 3984 
L 1744 4094 
L 2597 4444 
L 2738 4444 
L 2738 1134 
Q 2738 631 2761 520 
Q 2784 409 2836 365 
Q 2888 322 2956 322 
Q 3041 322 3181 375 
L 3216 266 
L 2366 -88 
L 2222 -88 
L 2222 322 
z
M 2222 541 
L 2222 2016 
Q 2203 2228 2109 2403 
Q 2016 2578 1861 2667 
Q 1706 2756 1559 2756 
Q 1284 2756 1069 2509 
Q 784 2184 784 1559 
Q 784 928 1059 592 
Q 1334 256 1672 256 
Q 1956 256 2222 541 
z
" transform="scale(0.015625)"/>
       <path id="TimesNewRomanPSMT-50" d="M 1313 1984 
L 1313 750 
Q 1313 350 1400 253 
Q 1519 116 1759 116 
L 1922 116 
L 1922 0 
L 106 0 
L 106 116 
L 266 116 
Q 534 116 650 291 
Q 713 388 713 750 
L 713 3488 
Q 713 3888 628 3984 
Q 506 4122 266 4122 
L 106 4122 
L 106 4238 
L 1659 4238 
Q 2228 4238 2556 4120 
Q 2884 4003 3109 3725 
Q 3334 3447 3334 3066 
Q 3334 2547 2992 2222 
Q 2650 1897 2025 1897 
Q 1872 1897 1694 1919 
Q 1516 1941 1313 1984 
z
M 1313 2163 
Q 1478 2131 1606 2115 
Q 1734 2100 1825 2100 
Q 2150 2100 2386 2351 
Q 2622 2603 2622 3003 
Q 2622 3278 2509 3514 
Q 2397 3750 2190 3867 
Q 1984 3984 1722 3984 
Q 1563 3984 1313 3925 
L 1313 2163 
z
" transform="scale(0.015625)"/>
       <path id="TimesNewRomanPSMT-72" d="M 1038 2947 
L 1038 2303 
Q 1397 2947 1775 2947 
Q 1947 2947 2059 2842 
Q 2172 2738 2172 2600 
Q 2172 2478 2090 2393 
Q 2009 2309 1897 2309 
Q 1788 2309 1652 2417 
Q 1516 2525 1450 2525 
Q 1394 2525 1328 2463 
Q 1188 2334 1038 2041 
L 1038 669 
Q 1038 431 1097 309 
Q 1138 225 1241 169 
Q 1344 113 1538 113 
L 1538 0 
L 72 0 
L 72 113 
Q 291 113 397 181 
Q 475 231 506 341 
Q 522 394 522 644 
L 522 1753 
Q 522 2253 501 2348 
Q 481 2444 426 2487 
Q 372 2531 291 2531 
Q 194 2531 72 2484 
L 41 2597 
L 906 2947 
L 1038 2947 
z
" transform="scale(0.015625)"/>
       <path id="TimesNewRomanPSMT-70" d="M -6 2578 
L 875 2934 
L 994 2934 
L 994 2266 
Q 1216 2644 1439 2795 
Q 1663 2947 1909 2947 
Q 2341 2947 2628 2609 
Q 2981 2197 2981 1534 
Q 2981 794 2556 309 
Q 2206 -88 1675 -88 
Q 1444 -88 1275 -22 
Q 1150 25 994 166 
L 994 -706 
Q 994 -1000 1030 -1079 
Q 1066 -1159 1155 -1206 
Q 1244 -1253 1478 -1253 
L 1478 -1369 
L -22 -1369 
L -22 -1253 
L 56 -1253 
Q 228 -1256 350 -1188 
Q 409 -1153 442 -1076 
Q 475 -1000 475 -688 
L 475 2019 
Q 475 2297 450 2372 
Q 425 2447 370 2484 
Q 316 2522 222 2522 
Q 147 2522 31 2478 
L -6 2578 
z
M 994 2081 
L 994 1013 
Q 994 666 1022 556 
Q 1066 375 1236 237 
Q 1406 100 1666 100 
Q 1978 100 2172 344 
Q 2425 663 2425 1241 
Q 2425 1897 2138 2250 
Q 1938 2494 1663 2494 
Q 1513 2494 1366 2419 
Q 1253 2363 994 2081 
z
" transform="scale(0.015625)"/>
      </defs>
      <use xlink:href="#TimesNewRomanPSMT-53"/>
      <use xlink:href="#TimesNewRomanPSMT-74" transform="translate(55.615234 0)"/>
      <use xlink:href="#TimesNewRomanPSMT-61" transform="translate(83.398438 0)"/>
      <use xlink:href="#TimesNewRomanPSMT-63" transform="translate(127.783203 0)"/>
      <use xlink:href="#TimesNewRomanPSMT-6b" transform="translate(172.167969 0)"/>
      <use xlink:href="#TimesNewRomanPSMT-65" transform="translate(222.167969 0)"/>
      <use xlink:href="#TimesNewRomanPSMT-64" transform="translate(266.552734 0)"/>
      <use xlink:href="#TimesNewRomanPSMT-20" transform="translate(316.552734 0)"/>
      <use xlink:href="#TimesNewRomanPSMT-50" transform="translate(341.552734 0)"/>
      <use xlink:href="#TimesNewRomanPSMT-72" transform="translate(397.167969 0)"/>
      <use xlink:href="#TimesNewRomanPSMT-6f" transform="translate(430.46875 0)"/>
      <use xlink:href="#TimesNewRomanPSMT-70" transform="translate(480.46875 0)"/>
      <use xlink:href="#TimesNewRomanPSMT-6f" transform="translate(530.46875 0)"/>
      <use xlink:href="#TimesNewRomanPSMT-72" transform="translate(580.46875 0)"/>
      <use xlink:href="#TimesNewRomanPSMT-74" transform="translate(613.769531 0)"/>
      <use xlink:href="#TimesNewRomanPSMT-69" transform="translate(641.552734 0)"/>
      <use xlink:href="#TimesNewRomanPSMT-6f" transform="translate(669.335938 0)"/>
      <use xlink:href="#TimesNewRomanPSMT-6e" transform="translate(719.335938 0)"/>
     </g>
    </g>
   </g>
   <g id="line2d_15">
    <path d="M 41.15 280.360574 
L 671.118942 280.360574 
" clip-path="url(#p03498acbd2)" style="fill: none; stroke-dasharray: 7.5,15; stroke-dashoffset: 0; stroke: #000000; stroke-width: 1.5"/>
   </g>
   <g id="patch_3">
    <path d="M 41.15 531.16 
L 41.15 29.94 
" style="fill: none; stroke: #000000; stroke-width: 0.8; stroke-linejoin: miter; stroke-linecap: square"/>
   </g>
   <g id="patch_4">
    <path d="M 671.118942 531.16 
L 671.118942 29.94 
" style="fill: none; stroke: #000000; stroke-width: 0.8; stroke-linejoin: miter; stroke-linecap: square"/>
   </g>
   <g id="patch_5">
    <path d="M 41.15 531.16 
L 671.118942 531.16 
" style="fill: none; stroke: #000000; stroke-width: 0.8; stroke-linejoin: miter; stroke-linecap: square"/>
   </g>
   <g id="patch_6">
    <path d="M 41.15 29.94 
L 671.118942 29.94 
" style="fill: none; stroke: #000000; stroke-width: 0.8; stroke-linejoin: miter; stroke-linecap: square"/>
   </g>
   <g id="text_10">
    <!-- 0.50 -->
    <g transform="translate(686.169395 283.723856) scale(0.14 -0.14)">
     <defs>
      <path id="TimesNewRomanPSMT-30" d="M 231 2094 
Q 231 2819 450 3342 
Q 669 3866 1031 4122 
Q 1313 4325 1613 4325 
Q 2100 4325 2488 3828 
Q 2972 3213 2972 2159 
Q 2972 1422 2759 906 
Q 2547 391 2217 158 
Q 1888 -75 1581 -75 
Q 975 -75 572 641 
Q 231 1244 231 2094 
z
M 844 2016 
Q 844 1141 1059 588 
Q 1238 122 1591 122 
Q 1759 122 1940 273 
Q 2122 425 2216 781 
Q 2359 1319 2359 2297 
Q 2359 3022 2209 3506 
Q 2097 3866 1919 4016 
Q 1791 4119 1609 4119 
Q 1397 4119 1231 3928 
Q 1006 3669 925 3112 
Q 844 2556 844 2016 
z
" transform="scale(0.015625)"/>
      <path id="TimesNewRomanPSMT-2e" d="M 800 606 
Q 947 606 1047 504 
Q 1147 403 1147 259 
Q 1147 116 1045 14 
Q 944 -88 800 -88 
Q 656 -88 554 14 
Q 453 116 453 259 
Q 453 406 554 506 
Q 656 606 800 606 
z
" transform="scale(0.015625)"/>
      <path id="TimesNewRomanPSMT-35" d="M 2778 4238 
L 2534 3706 
L 1259 3706 
L 981 3138 
Q 1809 3016 2294 2522 
Q 2709 2097 2709 1522 
Q 2709 1188 2573 903 
Q 2438 619 2231 419 
Q 2025 219 1772 97 
Q 1413 -75 1034 -75 
Q 653 -75 479 54 
Q 306 184 306 341 
Q 306 428 378 495 
Q 450 563 559 563 
Q 641 563 702 538 
Q 763 513 909 409 
Q 1144 247 1384 247 
Q 1750 247 2026 523 
Q 2303 800 2303 1197 
Q 2303 1581 2056 1914 
Q 1809 2247 1375 2428 
Q 1034 2569 447 2591 
L 1259 4238 
L 2778 4238 
z
" transform="scale(0.015625)"/>
     </defs>
     <use xlink:href="#TimesNewRomanPSMT-30"/>
     <use xlink:href="#TimesNewRomanPSMT-2e" transform="translate(50 0)"/>
     <use xlink:href="#TimesNewRomanPSMT-35" transform="translate(75 0)"/>
     <use xlink:href="#TimesNewRomanPSMT-30" transform="translate(125 0)"/>
    </g>
   </g>
   <g id="text_11">
    <!-- Walt (Tonkean) -->
    <g transform="translate(289.537596 23.94) scale(0.2 -0.2)">
     <defs>
      <path id="TimesNewRomanPS-BoldMT-57" d="M 6344 4238 
L 6344 4122 
Q 6225 4113 6144 4056 
Q 6063 4000 6000 3884 
Q 5981 3847 5803 3400 
L 4475 -97 
L 4353 -97 
L 3303 2634 
L 2147 -97 
L 2031 -97 
L 638 3363 
Q 425 3884 340 3993 
Q 256 4103 56 4122 
L 56 4238 
L 1894 4238 
L 1894 4122 
Q 1672 4116 1598 4055 
Q 1525 3994 1525 3903 
Q 1525 3784 1678 3400 
L 2509 1344 
L 3175 2950 
L 3000 3400 
Q 2856 3769 2778 3892 
Q 2700 4016 2598 4069 
Q 2497 4122 2300 4122 
L 2300 4238 
L 4353 4238 
L 4353 4122 
Q 4138 4119 4044 4088 
Q 3978 4066 3940 4014 
Q 3903 3963 3903 3897 
Q 3903 3825 4044 3456 
L 4816 1450 
L 5506 3266 
Q 5616 3547 5641 3650 
Q 5666 3753 5666 3841 
Q 5666 3969 5578 4042 
Q 5491 4116 5244 4122 
L 5244 4238 
L 6344 4238 
z
" transform="scale(0.015625)"/>
      <path id="TimesNewRomanPS-BoldMT-61" d="M 1828 431 
Q 1294 -41 869 -41 
Q 619 -41 453 123 
Q 288 288 288 534 
Q 288 869 575 1136 
Q 863 1403 1828 1847 
L 1828 2141 
Q 1828 2472 1792 2558 
Q 1756 2644 1656 2708 
Q 1556 2772 1431 2772 
Q 1228 2772 1097 2681 
Q 1016 2625 1016 2550 
Q 1016 2484 1103 2388 
Q 1222 2253 1222 2128 
Q 1222 1975 1108 1867 
Q 994 1759 809 1759 
Q 613 1759 480 1878 
Q 347 1997 347 2156 
Q 347 2381 525 2586 
Q 703 2791 1022 2900 
Q 1341 3009 1684 3009 
Q 2100 3009 2342 2832 
Q 2584 2656 2656 2450 
Q 2700 2319 2700 1847 
L 2700 713 
Q 2700 513 2715 461 
Q 2731 409 2762 384 
Q 2794 359 2834 359 
Q 2916 359 3000 475 
L 3094 400 
Q 2938 169 2770 64 
Q 2603 -41 2391 -41 
Q 2141 -41 2000 76 
Q 1859 194 1828 431 
z
M 1828 659 
L 1828 1638 
Q 1450 1416 1266 1163 
Q 1144 994 1144 822 
Q 1144 678 1247 569 
Q 1325 484 1466 484 
Q 1622 484 1828 659 
z
" transform="scale(0.015625)"/>
      <path id="TimesNewRomanPS-BoldMT-6c" d="M 1359 4238 
L 1359 606 
Q 1359 297 1431 211 
Q 1503 125 1713 113 
L 1713 0 
L 134 0 
L 134 113 
Q 328 119 422 225 
Q 484 297 484 606 
L 484 3631 
Q 484 3938 412 4023 
Q 341 4109 134 4122 
L 134 4238 
L 1359 4238 
z
" transform="scale(0.015625)"/>
      <path id="TimesNewRomanPS-BoldMT-74" d="M 1375 3991 
L 1375 2922 
L 2069 2922 
L 2069 2613 
L 1375 2613 
L 1375 809 
Q 1375 556 1398 482 
Q 1422 409 1481 364 
Q 1541 319 1591 319 
Q 1794 319 1975 628 
L 2069 559 
Q 1816 -41 1247 -41 
Q 969 -41 776 114 
Q 584 269 531 459 
Q 500 566 500 1034 
L 500 2613 
L 119 2613 
L 119 2722 
Q 513 3000 789 3306 
Q 1066 3613 1272 3991 
L 1375 3991 
z
" transform="scale(0.015625)"/>
      <path id="TimesNewRomanPS-BoldMT-20" transform="scale(0.015625)"/>
      <path id="TimesNewRomanPS-BoldMT-28" d="M 2056 4334 
L 2056 4191 
Q 1731 3978 1578 3775 
Q 1366 3494 1247 3053 
Q 1097 2506 1097 1525 
Q 1097 600 1233 87 
Q 1369 -425 1603 -741 
Q 1766 -959 2056 -1125 
L 2056 -1281 
Q 1303 -1028 779 -248 
Q 256 531 256 1544 
Q 256 2544 778 3314 
Q 1300 4084 2056 4334 
z
" transform="scale(0.015625)"/>
      <path id="TimesNewRomanPS-BoldMT-54" d="M 4038 4238 
L 4038 3091 
L 3925 3091 
Q 3825 3488 3703 3661 
Q 3581 3834 3369 3938 
Q 3250 3994 2953 3994 
L 2638 3994 
L 2638 725 
Q 2638 400 2673 319 
Q 2709 238 2814 177 
Q 2919 116 3100 116 
L 3241 116 
L 3241 0 
L 1022 0 
L 1022 116 
L 1163 116 
Q 1347 116 1459 181 
Q 1541 225 1588 331 
Q 1622 406 1622 725 
L 1622 3994 
L 1316 3994 
Q 888 3994 694 3813 
Q 422 3559 350 3091 
L 231 3091 
L 231 4238 
L 4038 4238 
z
" transform="scale(0.015625)"/>
      <path id="TimesNewRomanPS-BoldMT-6f" d="M 1594 3009 
Q 1975 3009 2303 2812 
Q 2631 2616 2801 2253 
Q 2972 1891 2972 1459 
Q 2972 838 2656 419 
Q 2275 -88 1603 -88 
Q 944 -88 587 375 
Q 231 838 231 1447 
Q 231 2075 595 2542 
Q 959 3009 1594 3009 
z
M 1606 2788 
Q 1447 2788 1333 2667 
Q 1219 2547 1183 2192 
Q 1147 1838 1147 1206 
Q 1147 872 1191 581 
Q 1225 359 1337 243 
Q 1450 128 1594 128 
Q 1734 128 1828 206 
Q 1950 313 1991 503 
Q 2053 800 2053 1703 
Q 2053 2234 1993 2432 
Q 1934 2631 1819 2722 
Q 1738 2788 1606 2788 
z
" transform="scale(0.015625)"/>
      <path id="TimesNewRomanPS-BoldMT-6e" d="M 1409 2922 
L 1409 2544 
Q 1634 2788 1840 2898 
Q 2047 3009 2284 3009 
Q 2569 3009 2756 2851 
Q 2944 2694 3006 2459 
Q 3056 2281 3056 1775 
L 3056 638 
Q 3056 300 3117 217 
Q 3178 134 3372 113 
L 3372 0 
L 1894 0 
L 1894 113 
Q 2059 134 2131 250 
Q 2181 328 2181 638 
L 2181 1938 
Q 2181 2297 2153 2390 
Q 2125 2484 2058 2536 
Q 1991 2588 1909 2588 
Q 1641 2588 1409 2203 
L 1409 638 
Q 1409 309 1470 221 
Q 1531 134 1697 113 
L 1697 0 
L 219 0 
L 219 113 
Q 403 131 481 231 
Q 534 300 534 638 
L 534 2288 
Q 534 2619 473 2700 
Q 413 2781 219 2806 
L 219 2922 
L 1409 2922 
z
" transform="scale(0.015625)"/>
      <path id="TimesNewRomanPS-BoldMT-6b" d="M 1403 4238 
L 1403 1450 
L 2081 2116 
Q 2291 2319 2342 2409 
Q 2394 2500 2394 2584 
Q 2394 2669 2325 2725 
Q 2256 2781 2056 2806 
L 2056 2922 
L 3366 2922 
L 3366 2806 
Q 3178 2797 3037 2717 
Q 2897 2638 2488 2238 
L 2169 1925 
L 2856 919 
Q 3272 306 3350 231 
Q 3456 125 3619 113 
L 3619 0 
L 2109 0 
L 2109 113 
Q 2209 113 2254 150 
Q 2300 188 2300 231 
Q 2300 303 2169 497 
L 1591 1344 
L 1403 1159 
L 1403 634 
Q 1403 300 1465 217 
Q 1528 134 1722 113 
L 1722 0 
L 213 0 
L 213 113 
Q 397 131 475 231 
Q 528 300 528 634 
L 528 3603 
Q 528 3934 467 4015 
Q 406 4097 213 4122 
L 213 4238 
L 1403 4238 
z
" transform="scale(0.015625)"/>
      <path id="TimesNewRomanPS-BoldMT-65" d="M 2691 1566 
L 1088 1566 
Q 1116 984 1397 647 
Q 1613 388 1916 388 
Q 2103 388 2256 492 
Q 2409 597 2584 869 
L 2691 800 
Q 2453 316 2165 114 
Q 1878 -88 1500 -88 
Q 850 -88 516 413 
Q 247 816 247 1413 
Q 247 2144 642 2576 
Q 1038 3009 1569 3009 
Q 2013 3009 2339 2645 
Q 2666 2281 2691 1566 
z
M 1922 1775 
Q 1922 2278 1867 2465 
Q 1813 2653 1697 2750 
Q 1631 2806 1522 2806 
Q 1359 2806 1256 2647 
Q 1072 2369 1072 1884 
L 1072 1775 
L 1922 1775 
z
" transform="scale(0.015625)"/>
      <path id="TimesNewRomanPS-BoldMT-29" d="M 78 -1281 
L 78 -1138 
Q 403 -922 556 -719 
Q 766 -438 888 0 
Q 1038 550 1038 1531 
Q 1038 2456 902 2967 
Q 766 3478 531 3794 
Q 369 4013 78 4178 
L 78 4334 
Q 831 4081 1354 3301 
Q 1878 2522 1878 1509 
Q 1878 513 1354 -257 
Q 831 -1028 78 -1281 
z
" transform="scale(0.015625)"/>
     </defs>
     <use xlink:href="#TimesNewRomanPS-BoldMT-57"/>
     <use xlink:href="#TimesNewRomanPS-BoldMT-61" transform="translate(94.5 0)"/>
     <use xlink:href="#TimesNewRomanPS-BoldMT-6c" transform="translate(144.5 0)"/>
     <use xlink:href="#TimesNewRomanPS-BoldMT-74" transform="translate(172.283203 0)"/>
     <use xlink:href="#TimesNewRomanPS-BoldMT-20" transform="translate(205.583984 0)"/>
     <use xlink:href="#TimesNewRomanPS-BoldMT-28" transform="translate(230.583984 0)"/>
     <use xlink:href="#TimesNewRomanPS-BoldMT-54" transform="translate(263.884766 0)"/>
     <use xlink:href="#TimesNewRomanPS-BoldMT-6f" transform="translate(321.458984 0)"/>
     <use xlink:href="#TimesNewRomanPS-BoldMT-6e" transform="translate(371.458984 0)"/>
     <use xlink:href="#TimesNewRomanPS-BoldMT-6b" transform="translate(427.074219 0)"/>
     <use xlink:href="#TimesNewRomanPS-BoldMT-65" transform="translate(482.689453 0)"/>
     <use xlink:href="#TimesNewRomanPS-BoldMT-61" transform="translate(527.074219 0)"/>
     <use xlink:href="#TimesNewRomanPS-BoldMT-6e" transform="translate(577.074219 0)"/>
     <use xlink:href="#TimesNewRomanPS-BoldMT-29" transform="translate(632.689453 0)"/>
    </g>
   </g>
   <g id="legend_1">
    <g id="patch_7">
     <path d="M 48.15 94.49625 
L 134.046875 94.49625 
Q 136.046875 94.49625 136.046875 92.49625 
L 136.046875 36.94 
Q 136.046875 34.94 134.046875 34.94 
L 48.15 34.94 
Q 46.15 34.94 46.15 36.94 
L 46.15 92.49625 
Q 46.15 94.49625 48.15 94.49625 
z
" style="fill: #ffffff; opacity: 0.8; stroke: #cccccc; stroke-linejoin: miter"/>
    </g>
    <g id="patch_8">
     <path d="M 50.15 45.94 
L 70.15 45.94 
L 70.15 38.94 
L 50.15 38.94 
z
" style="fill: #5386b6"/>
    </g>
    <g id="text_12">
     <!-- Success -->
     <g transform="translate(78.15 45.94) scale(0.1 -0.1)">
      <use xlink:href="#TimesNewRomanPSMT-53"/>
      <use xlink:href="#TimesNewRomanPSMT-75" transform="translate(55.615234 0)"/>
      <use xlink:href="#TimesNewRomanPSMT-63" transform="translate(105.615234 0)"/>
      <use xlink:href="#TimesNewRomanPSMT-63" transform="translate(150 0)"/>
      <use xlink:href="#TimesNewRomanPSMT-65" transform="translate(194.384766 0)"/>
      <use xlink:href="#TimesNewRomanPSMT-73" transform="translate(238.769531 0)"/>
      <use xlink:href="#TimesNewRomanPSMT-73" transform="translate(277.685547 0)"/>
     </g>
    </g>
    <g id="patch_9">
     <path d="M 50.15 60.079062 
L 70.15 60.079062 
L 70.15 53.079062 
L 50.15 53.079062 
z
" style="fill: #d57459"/>
    </g>
    <g id="text_13">
     <!-- Error -->
     <g transform="translate(78.15 60.079062) scale(0.1 -0.1)">
      <defs>
       <path id="TimesNewRomanPSMT-45" d="M 1338 4006 
L 1338 2331 
L 2269 2331 
Q 2631 2331 2753 2441 
Q 2916 2584 2934 2947 
L 3050 2947 
L 3050 1472 
L 2934 1472 
Q 2891 1781 2847 1869 
Q 2791 1978 2662 2040 
Q 2534 2103 2269 2103 
L 1338 2103 
L 1338 706 
Q 1338 425 1363 364 
Q 1388 303 1450 267 
Q 1513 231 1688 231 
L 2406 231 
Q 2766 231 2928 281 
Q 3091 331 3241 478 
Q 3434 672 3638 1063 
L 3763 1063 
L 3397 0 
L 131 0 
L 131 116 
L 281 116 
Q 431 116 566 188 
Q 666 238 702 338 
Q 738 438 738 747 
L 738 3500 
Q 738 3903 656 3997 
Q 544 4122 281 4122 
L 131 4122 
L 131 4238 
L 3397 4238 
L 3444 3309 
L 3322 3309 
Q 3256 3644 3176 3769 
Q 3097 3894 2941 3959 
Q 2816 4006 2500 4006 
L 1338 4006 
z
" transform="scale(0.015625)"/>
      </defs>
      <use xlink:href="#TimesNewRomanPSMT-45"/>
      <use xlink:href="#TimesNewRomanPSMT-72" transform="translate(61.083984 0)"/>
      <use xlink:href="#TimesNewRomanPSMT-72" transform="translate(94.384766 0)"/>
      <use xlink:href="#TimesNewRomanPSMT-6f" transform="translate(127.685547 0)"/>
      <use xlink:href="#TimesNewRomanPSMT-72" transform="translate(177.685547 0)"/>
     </g>
    </g>
    <g id="patch_10">
     <path d="M 50.15 74.218125 
L 70.15 74.218125 
L 70.15 67.218125 
L 50.15 67.218125 
z
" style="fill: #e8bc60"/>
    </g>
    <g id="text_14">
     <!-- Premature -->
     <g transform="translate(78.15 74.218125) scale(0.1 -0.1)">
      <defs>
       <path id="TimesNewRomanPSMT-6d" d="M 1050 2338 
Q 1363 2650 1419 2697 
Q 1559 2816 1721 2881 
Q 1884 2947 2044 2947 
Q 2313 2947 2506 2790 
Q 2700 2634 2766 2338 
Q 3088 2713 3309 2830 
Q 3531 2947 3766 2947 
Q 3994 2947 4170 2830 
Q 4347 2713 4450 2447 
Q 4519 2266 4519 1878 
L 4519 647 
Q 4519 378 4559 278 
Q 4591 209 4675 161 
Q 4759 113 4950 113 
L 4950 0 
L 3538 0 
L 3538 113 
L 3597 113 
Q 3781 113 3884 184 
Q 3956 234 3988 344 
Q 4000 397 4000 647 
L 4000 1878 
Q 4000 2228 3916 2372 
Q 3794 2572 3525 2572 
Q 3359 2572 3192 2489 
Q 3025 2406 2788 2181 
L 2781 2147 
L 2788 2013 
L 2788 647 
Q 2788 353 2820 281 
Q 2853 209 2943 161 
Q 3034 113 3253 113 
L 3253 0 
L 1806 0 
L 1806 113 
Q 2044 113 2133 169 
Q 2222 225 2256 338 
Q 2272 391 2272 647 
L 2272 1878 
Q 2272 2228 2169 2381 
Q 2031 2581 1784 2581 
Q 1616 2581 1450 2491 
Q 1191 2353 1050 2181 
L 1050 647 
Q 1050 366 1089 281 
Q 1128 197 1204 155 
Q 1281 113 1516 113 
L 1516 0 
L 100 0 
L 100 113 
Q 297 113 375 155 
Q 453 197 493 289 
Q 534 381 534 647 
L 534 1741 
Q 534 2213 506 2350 
Q 484 2453 437 2492 
Q 391 2531 309 2531 
Q 222 2531 100 2484 
L 53 2597 
L 916 2947 
L 1050 2947 
L 1050 2338 
z
" transform="scale(0.015625)"/>
      </defs>
      <use xlink:href="#TimesNewRomanPSMT-50"/>
      <use xlink:href="#TimesNewRomanPSMT-72" transform="translate(55.615234 0)"/>
      <use xlink:href="#TimesNewRomanPSMT-65" transform="translate(88.916016 0)"/>
      <use xlink:href="#TimesNewRomanPSMT-6d" transform="translate(133.300781 0)"/>
      <use xlink:href="#TimesNewRomanPSMT-61" transform="translate(211.083984 0)"/>
      <use xlink:href="#TimesNewRomanPSMT-74" transform="translate(255.46875 0)"/>
      <use xlink:href="#TimesNewRomanPSMT-75" transform="translate(283.251953 0)"/>
      <use xlink:href="#TimesNewRomanPSMT-72" transform="translate(333.251953 0)"/>
      <use xlink:href="#TimesNewRomanPSMT-65" transform="translate(366.552734 0)"/>
     </g>
    </g>
    <g id="patch_11">
     <path d="M 50.15 88.357187 
L 70.15 88.357187 
L 70.15 81.357187 
L 50.15 81.357187 
z
" style="fill: #8d5993"/>
    </g>
    <g id="text_15">
     <!-- Stepomission -->
     <g transform="translate(78.15 88.357187) scale(0.1 -0.1)">
      <use xlink:href="#TimesNewRomanPSMT-53"/>
      <use xlink:href="#TimesNewRomanPSMT-74" transform="translate(55.615234 0)"/>
      <use xlink:href="#TimesNewRomanPSMT-65" transform="translate(83.398438 0)"/>
      <use xlink:href="#TimesNewRomanPSMT-70" transform="translate(127.783203 0)"/>
      <use xlink:href="#TimesNewRomanPSMT-6f" transform="translate(177.783203 0)"/>
      <use xlink:href="#TimesNewRomanPSMT-6d" transform="translate(227.783203 0)"/>
      <use xlink:href="#TimesNewRomanPSMT-69" transform="translate(305.566406 0)"/>
      <use xlink:href="#TimesNewRomanPSMT-73" transform="translate(333.349609 0)"/>
      <use xlink:href="#TimesNewRomanPSMT-73" transform="translate(372.265625 0)"/>
      <use xlink:href="#TimesNewRomanPSMT-69" transform="translate(411.181641 0)"/>
      <use xlink:href="#TimesNewRomanPSMT-6f" transform="translate(438.964844 0)"/>
      <use xlink:href="#TimesNewRomanPSMT-6e" transform="translate(488.964844 0)"/>
     </g>
    </g>
   </g>
  </g>
 </g>
 <defs>
  <clipPath id="p03498acbd2">
   <rect x="41.15" y="29.94" width="629.968942" height="501.22"/>
  </clipPath>
 </defs>
</svg>
