<?xml version="1.0" encoding="utf-8" standalone="no"?>
<!DOCTYPE svg PUBLIC "-//W3C//DTD SVG 1.1//EN"
  "http://www.w3.org/Graphics/SVG/1.1/DTD/svg11.dtd">
<svg xmlns:xlink="http://www.w3.org/1999/xlink" width="720pt" height="720pt" viewBox="0 0 720 720" xmlns="http://www.w3.org/2000/svg" version="1.1">
 <metadata>
  <rdf:RDF xmlns:dc="http://purl.org/dc/elements/1.1/" xmlns:cc="http://creativecommons.org/ns#" xmlns:rdf="http://www.w3.org/1999/02/22-rdf-syntax-ns#">
   <cc:Work>
    <dc:type rdf:resource="http://purl.org/dc/dcmitype/StillImage"/>
    <dc:date>2025-07-03T15:54:22.851988</dc:date>
    <dc:format>image/svg+xml</dc:format>
    <dc:creator>
     <cc:Agent>
      <dc:title>Matplotlib v3.10.3, https://matplotlib.org/</dc:title>
     </cc:Agent>
    </dc:creator>
   </cc:Work>
  </rdf:RDF>
 </metadata>
 <defs>
  <style type="text/css">*{stroke-linejoin: round; stroke-linecap: butt}</style>
 </defs>
 <g id="figure_1">
  <g id="patch_1">
   <path d="M 0 720 
L 720 720 
L 720 0 
L 0 0 
z
" style="fill: #ffffff"/>
  </g>
  <g id="axes_1">
   <g id="patch_2">
    <path d="M 57.08 468.165 
L 666.532569 468.165 
L 666.532569 29.94 
L 57.08 29.94 
z
" style="fill: #ffffff"/>
   </g>
   <g id="matplotlib.axis_1">
    <g id="xtick_1">
     <g id="line2d_1">
      <path d="M 124.175696 468.165 
L 124.175696 29.94 
" clip-path="url(#pa53d191e87)" style="fill: none; stroke-dasharray: 2.96,1.28; stroke-dashoffset: 0; stroke: #cccccc; stroke-opacity: 0.5; stroke-width: 0.8"/>
     </g>
     <g id="text_1">
      <!-- 25 -->
      <g style="fill: #262626" transform="translate(118.614758 482.322812) scale(0.1 -0.1)">
       <defs>
        <path id="ArialMT-32" d="M 3222 541 
L 3222 0 
L 194 0 
Q 188 203 259 391 
Q 375 700 629 1000 
Q 884 1300 1366 1694 
Q 2113 2306 2375 2664 
Q 2638 3022 2638 3341 
Q 2638 3675 2398 3904 
Q 2159 4134 1775 4134 
Q 1369 4134 1125 3890 
Q 881 3647 878 3216 
L 300 3275 
Q 359 3922 746 4261 
Q 1134 4600 1788 4600 
Q 2447 4600 2831 4234 
Q 3216 3869 3216 3328 
Q 3216 3053 3103 2787 
Q 2991 2522 2730 2228 
Q 2469 1934 1863 1422 
Q 1356 997 1212 845 
Q 1069 694 975 541 
L 3222 541 
z
" transform="scale(0.015625)"/>
        <path id="ArialMT-35" d="M 266 1200 
L 856 1250 
Q 922 819 1161 601 
Q 1400 384 1738 384 
Q 2144 384 2425 690 
Q 2706 997 2706 1503 
Q 2706 1984 2436 2262 
Q 2166 2541 1728 2541 
Q 1456 2541 1237 2417 
Q 1019 2294 894 2097 
L 366 2166 
L 809 4519 
L 3088 4519 
L 3088 3981 
L 1259 3981 
L 1013 2750 
Q 1425 3038 1878 3038 
Q 2478 3038 2890 2622 
Q 3303 2206 3303 1553 
Q 3303 931 2941 478 
Q 2500 -78 1738 -78 
Q 1113 -78 717 272 
Q 322 622 266 1200 
z
" transform="scale(0.015625)"/>
       </defs>
       <use xlink:href="#ArialMT-32"/>
       <use xlink:href="#ArialMT-35" transform="translate(55.615234 0)"/>
      </g>
     </g>
    </g>
    <g id="xtick_2">
     <g id="line2d_2">
      <path d="M 194.067045 468.165 
L 194.067045 29.94 
" clip-path="url(#pa53d191e87)" style="fill: none; stroke-dasharray: 2.96,1.28; stroke-dashoffset: 0; stroke: #cccccc; stroke-opacity: 0.5; stroke-width: 0.8"/>
     </g>
     <g id="text_2">
      <!-- 50 -->
      <g style="fill: #262626" transform="translate(188.506108 482.322812) scale(0.1 -0.1)">
       <defs>
        <path id="ArialMT-30" d="M 266 2259 
Q 266 3072 433 3567 
Q 600 4063 929 4331 
Q 1259 4600 1759 4600 
Q 2128 4600 2406 4451 
Q 2684 4303 2865 4023 
Q 3047 3744 3150 3342 
Q 3253 2941 3253 2259 
Q 3253 1453 3087 958 
Q 2922 463 2592 192 
Q 2263 -78 1759 -78 
Q 1097 -78 719 397 
Q 266 969 266 2259 
z
M 844 2259 
Q 844 1131 1108 757 
Q 1372 384 1759 384 
Q 2147 384 2411 759 
Q 2675 1134 2675 2259 
Q 2675 3391 2411 3762 
Q 2147 4134 1753 4134 
Q 1366 4134 1134 3806 
Q 844 3388 844 2259 
z
" transform="scale(0.015625)"/>
       </defs>
       <use xlink:href="#ArialMT-35"/>
       <use xlink:href="#ArialMT-30" transform="translate(55.615234 0)"/>
      </g>
     </g>
    </g>
    <g id="xtick_3">
     <g id="line2d_3">
      <path d="M 263.958395 468.165 
L 263.958395 29.94 
" clip-path="url(#pa53d191e87)" style="fill: none; stroke-dasharray: 2.96,1.28; stroke-dashoffset: 0; stroke: #cccccc; stroke-opacity: 0.5; stroke-width: 0.8"/>
     </g>
     <g id="text_3">
      <!-- 75 -->
      <g style="fill: #262626" transform="translate(258.397457 482.322812) scale(0.1 -0.1)">
       <defs>
        <path id="ArialMT-37" d="M 303 3981 
L 303 4522 
L 3269 4522 
L 3269 4084 
Q 2831 3619 2401 2847 
Q 1972 2075 1738 1259 
Q 1569 684 1522 0 
L 944 0 
Q 953 541 1156 1306 
Q 1359 2072 1739 2783 
Q 2119 3494 2547 3981 
L 303 3981 
z
" transform="scale(0.015625)"/>
       </defs>
       <use xlink:href="#ArialMT-37"/>
       <use xlink:href="#ArialMT-35" transform="translate(55.615234 0)"/>
      </g>
     </g>
    </g>
    <g id="xtick_4">
     <g id="line2d_4">
      <path d="M 333.849745 468.165 
L 333.849745 29.94 
" clip-path="url(#pa53d191e87)" style="fill: none; stroke-dasharray: 2.96,1.28; stroke-dashoffset: 0; stroke: #cccccc; stroke-opacity: 0.5; stroke-width: 0.8"/>
     </g>
     <g id="text_4">
      <!-- 100 -->
      <g style="fill: #262626" transform="translate(325.508338 482.322812) scale(0.1 -0.1)">
       <defs>
        <path id="ArialMT-31" d="M 2384 0 
L 1822 0 
L 1822 3584 
Q 1619 3391 1289 3197 
Q 959 3003 697 2906 
L 697 3450 
Q 1169 3672 1522 3987 
Q 1875 4303 2022 4600 
L 2384 4600 
L 2384 0 
z
" transform="scale(0.015625)"/>
       </defs>
       <use xlink:href="#ArialMT-31"/>
       <use xlink:href="#ArialMT-30" transform="translate(55.615234 0)"/>
       <use xlink:href="#ArialMT-30" transform="translate(111.230469 0)"/>
      </g>
     </g>
    </g>
    <g id="xtick_5">
     <g id="line2d_5">
      <path d="M 403.741094 468.165 
L 403.741094 29.94 
" clip-path="url(#pa53d191e87)" style="fill: none; stroke-dasharray: 2.96,1.28; stroke-dashoffset: 0; stroke: #cccccc; stroke-opacity: 0.5; stroke-width: 0.8"/>
     </g>
     <g id="text_5">
      <!-- 125 -->
      <g style="fill: #262626" transform="translate(395.399688 482.322812) scale(0.1 -0.1)">
       <use xlink:href="#ArialMT-31"/>
       <use xlink:href="#ArialMT-32" transform="translate(55.615234 0)"/>
       <use xlink:href="#ArialMT-35" transform="translate(111.230469 0)"/>
      </g>
     </g>
    </g>
    <g id="xtick_6">
     <g id="line2d_6">
      <path d="M 473.632444 468.165 
L 473.632444 29.94 
" clip-path="url(#pa53d191e87)" style="fill: none; stroke-dasharray: 2.96,1.28; stroke-dashoffset: 0; stroke: #cccccc; stroke-opacity: 0.5; stroke-width: 0.8"/>
     </g>
     <g id="text_6">
      <!-- 150 -->
      <g style="fill: #262626" transform="translate(465.291038 482.322812) scale(0.1 -0.1)">
       <use xlink:href="#ArialMT-31"/>
       <use xlink:href="#ArialMT-35" transform="translate(55.615234 0)"/>
       <use xlink:href="#ArialMT-30" transform="translate(111.230469 0)"/>
      </g>
     </g>
    </g>
    <g id="xtick_7">
     <g id="line2d_7">
      <path d="M 543.523793 468.165 
L 543.523793 29.94 
" clip-path="url(#pa53d191e87)" style="fill: none; stroke-dasharray: 2.96,1.28; stroke-dashoffset: 0; stroke: #cccccc; stroke-opacity: 0.5; stroke-width: 0.8"/>
     </g>
     <g id="text_7">
      <!-- 175 -->
      <g style="fill: #262626" transform="translate(535.182387 482.322812) scale(0.1 -0.1)">
       <use xlink:href="#ArialMT-31"/>
       <use xlink:href="#ArialMT-37" transform="translate(55.615234 0)"/>
       <use xlink:href="#ArialMT-35" transform="translate(111.230469 0)"/>
      </g>
     </g>
    </g>
    <g id="xtick_8">
     <g id="line2d_8">
      <path d="M 613.415143 468.165 
L 613.415143 29.94 
" clip-path="url(#pa53d191e87)" style="fill: none; stroke-dasharray: 2.96,1.28; stroke-dashoffset: 0; stroke: #cccccc; stroke-opacity: 0.5; stroke-width: 0.8"/>
     </g>
     <g id="text_8">
      <!-- 200 -->
      <g style="fill: #262626" transform="translate(605.073737 482.322812) scale(0.1 -0.1)">
       <use xlink:href="#ArialMT-32"/>
       <use xlink:href="#ArialMT-30" transform="translate(55.615234 0)"/>
       <use xlink:href="#ArialMT-30" transform="translate(111.230469 0)"/>
      </g>
     </g>
    </g>
    <g id="text_9">
     <!-- Session Count -->
     <g style="fill: #262626" transform="translate(321.548628 498.031562) scale(0.14 -0.14)">
      <defs>
       <path id="TimesNewRomanPSMT-53" d="M 2934 4334 
L 2934 2869 
L 2819 2869 
Q 2763 3291 2617 3541 
Q 2472 3791 2203 3937 
Q 1934 4084 1647 4084 
Q 1322 4084 1109 3886 
Q 897 3688 897 3434 
Q 897 3241 1031 3081 
Q 1225 2847 1953 2456 
Q 2547 2138 2764 1967 
Q 2981 1797 3098 1565 
Q 3216 1334 3216 1081 
Q 3216 600 2842 251 
Q 2469 -97 1881 -97 
Q 1697 -97 1534 -69 
Q 1438 -53 1133 45 
Q 828 144 747 144 
Q 669 144 623 97 
Q 578 50 556 -97 
L 441 -97 
L 441 1356 
L 556 1356 
Q 638 900 775 673 
Q 913 447 1195 297 
Q 1478 147 1816 147 
Q 2206 147 2432 353 
Q 2659 559 2659 841 
Q 2659 997 2573 1156 
Q 2488 1316 2306 1453 
Q 2184 1547 1640 1851 
Q 1097 2156 867 2337 
Q 638 2519 519 2737 
Q 400 2956 400 3219 
Q 400 3675 750 4004 
Q 1100 4334 1641 4334 
Q 1978 4334 2356 4169 
Q 2531 4091 2603 4091 
Q 2684 4091 2736 4139 
Q 2788 4188 2819 4334 
L 2934 4334 
z
" transform="scale(0.015625)"/>
       <path id="TimesNewRomanPSMT-65" d="M 681 1784 
Q 678 1147 991 784 
Q 1303 422 1725 422 
Q 2006 422 2214 576 
Q 2422 731 2563 1106 
L 2659 1044 
Q 2594 616 2278 264 
Q 1963 -88 1488 -88 
Q 972 -88 605 314 
Q 238 716 238 1394 
Q 238 2128 614 2539 
Q 991 2950 1559 2950 
Q 2041 2950 2350 2633 
Q 2659 2316 2659 1784 
L 681 1784 
z
M 681 1966 
L 2006 1966 
Q 1991 2241 1941 2353 
Q 1863 2528 1708 2628 
Q 1553 2728 1384 2728 
Q 1125 2728 920 2526 
Q 716 2325 681 1966 
z
" transform="scale(0.015625)"/>
       <path id="TimesNewRomanPSMT-73" d="M 2050 2947 
L 2050 1972 
L 1947 1972 
Q 1828 2431 1642 2597 
Q 1456 2763 1169 2763 
Q 950 2763 815 2647 
Q 681 2531 681 2391 
Q 681 2216 781 2091 
Q 878 1963 1175 1819 
L 1631 1597 
Q 2266 1288 2266 781 
Q 2266 391 1970 151 
Q 1675 -88 1309 -88 
Q 1047 -88 709 6 
Q 606 38 541 38 
Q 469 38 428 -44 
L 325 -44 
L 325 978 
L 428 978 
Q 516 541 762 319 
Q 1009 97 1316 97 
Q 1531 97 1667 223 
Q 1803 350 1803 528 
Q 1803 744 1651 891 
Q 1500 1038 1047 1263 
Q 594 1488 453 1669 
Q 313 1847 313 2119 
Q 313 2472 555 2709 
Q 797 2947 1181 2947 
Q 1350 2947 1591 2875 
Q 1750 2828 1803 2828 
Q 1853 2828 1881 2850 
Q 1909 2872 1947 2947 
L 2050 2947 
z
" transform="scale(0.015625)"/>
       <path id="TimesNewRomanPSMT-69" d="M 928 4444 
Q 1059 4444 1151 4351 
Q 1244 4259 1244 4128 
Q 1244 3997 1151 3903 
Q 1059 3809 928 3809 
Q 797 3809 703 3903 
Q 609 3997 609 4128 
Q 609 4259 701 4351 
Q 794 4444 928 4444 
z
M 1188 2947 
L 1188 647 
Q 1188 378 1227 289 
Q 1266 200 1342 156 
Q 1419 113 1622 113 
L 1622 0 
L 231 0 
L 231 113 
Q 441 113 512 153 
Q 584 194 626 287 
Q 669 381 669 647 
L 669 1750 
Q 669 2216 641 2353 
Q 619 2453 572 2492 
Q 525 2531 444 2531 
Q 356 2531 231 2484 
L 188 2597 
L 1050 2947 
L 1188 2947 
z
" transform="scale(0.015625)"/>
       <path id="TimesNewRomanPSMT-6f" d="M 1600 2947 
Q 2250 2947 2644 2453 
Q 2978 2031 2978 1484 
Q 2978 1100 2793 706 
Q 2609 313 2286 112 
Q 1963 -88 1566 -88 
Q 919 -88 538 428 
Q 216 863 216 1403 
Q 216 1797 411 2186 
Q 606 2575 925 2761 
Q 1244 2947 1600 2947 
z
M 1503 2744 
Q 1338 2744 1170 2645 
Q 1003 2547 900 2300 
Q 797 2053 797 1666 
Q 797 1041 1045 587 
Q 1294 134 1700 134 
Q 2003 134 2200 384 
Q 2397 634 2397 1244 
Q 2397 2006 2069 2444 
Q 1847 2744 1503 2744 
z
" transform="scale(0.015625)"/>
       <path id="TimesNewRomanPSMT-6e" d="M 1034 2341 
Q 1538 2947 1994 2947 
Q 2228 2947 2397 2830 
Q 2566 2713 2666 2444 
Q 2734 2256 2734 1869 
L 2734 647 
Q 2734 375 2778 278 
Q 2813 200 2889 156 
Q 2966 113 3172 113 
L 3172 0 
L 1756 0 
L 1756 113 
L 1816 113 
Q 2016 113 2095 173 
Q 2175 234 2206 353 
Q 2219 400 2219 647 
L 2219 1819 
Q 2219 2209 2117 2386 
Q 2016 2563 1775 2563 
Q 1403 2563 1034 2156 
L 1034 647 
Q 1034 356 1069 288 
Q 1113 197 1189 155 
Q 1266 113 1500 113 
L 1500 0 
L 84 0 
L 84 113 
L 147 113 
Q 366 113 442 223 
Q 519 334 519 647 
L 519 1709 
Q 519 2225 495 2337 
Q 472 2450 423 2490 
Q 375 2531 294 2531 
Q 206 2531 84 2484 
L 38 2597 
L 900 2947 
L 1034 2947 
L 1034 2341 
z
" transform="scale(0.015625)"/>
       <path id="TimesNewRomanPSMT-20" transform="scale(0.015625)"/>
       <path id="TimesNewRomanPSMT-43" d="M 3853 4334 
L 3950 2894 
L 3853 2894 
Q 3659 3541 3300 3825 
Q 2941 4109 2438 4109 
Q 2016 4109 1675 3895 
Q 1334 3681 1139 3212 
Q 944 2744 944 2047 
Q 944 1472 1128 1050 
Q 1313 628 1683 403 
Q 2053 178 2528 178 
Q 2941 178 3256 354 
Q 3572 531 3950 1056 
L 4047 994 
Q 3728 428 3303 165 
Q 2878 -97 2294 -97 
Q 1241 -97 663 684 
Q 231 1266 231 2053 
Q 231 2688 515 3219 
Q 800 3750 1298 4042 
Q 1797 4334 2388 4334 
Q 2847 4334 3294 4109 
Q 3425 4041 3481 4041 
Q 3566 4041 3628 4100 
Q 3709 4184 3744 4334 
L 3853 4334 
z
" transform="scale(0.015625)"/>
       <path id="TimesNewRomanPSMT-75" d="M 2709 2863 
L 2709 1128 
Q 2709 631 2732 520 
Q 2756 409 2807 365 
Q 2859 322 2928 322 
Q 3025 322 3147 375 
L 3191 266 
L 2334 -88 
L 2194 -88 
L 2194 519 
Q 1825 119 1631 15 
Q 1438 -88 1222 -88 
Q 981 -88 804 51 
Q 628 191 559 409 
Q 491 628 491 1028 
L 491 2306 
Q 491 2509 447 2587 
Q 403 2666 317 2708 
Q 231 2750 6 2747 
L 6 2863 
L 1009 2863 
L 1009 947 
Q 1009 547 1148 422 
Q 1288 297 1484 297 
Q 1619 297 1789 381 
Q 1959 466 2194 703 
L 2194 2325 
Q 2194 2569 2105 2655 
Q 2016 2741 1734 2747 
L 1734 2863 
L 2709 2863 
z
" transform="scale(0.015625)"/>
       <path id="TimesNewRomanPSMT-74" d="M 1031 3803 
L 1031 2863 
L 1700 2863 
L 1700 2644 
L 1031 2644 
L 1031 788 
Q 1031 509 1111 412 
Q 1191 316 1316 316 
Q 1419 316 1516 380 
Q 1613 444 1666 569 
L 1788 569 
Q 1678 263 1478 108 
Q 1278 -47 1066 -47 
Q 922 -47 784 33 
Q 647 113 581 261 
Q 516 409 516 719 
L 516 2644 
L 63 2644 
L 63 2747 
Q 234 2816 414 2980 
Q 594 3144 734 3369 
Q 806 3488 934 3803 
L 1031 3803 
z
" transform="scale(0.015625)"/>
      </defs>
      <use xlink:href="#TimesNewRomanPSMT-53"/>
      <use xlink:href="#TimesNewRomanPSMT-65" transform="translate(55.615234 0)"/>
      <use xlink:href="#TimesNewRomanPSMT-73" transform="translate(100 0)"/>
      <use xlink:href="#TimesNewRomanPSMT-73" transform="translate(138.916016 0)"/>
      <use xlink:href="#TimesNewRomanPSMT-69" transform="translate(177.832031 0)"/>
      <use xlink:href="#TimesNewRomanPSMT-6f" transform="translate(205.615234 0)"/>
      <use xlink:href="#TimesNewRomanPSMT-6e" transform="translate(255.615234 0)"/>
      <use xlink:href="#TimesNewRomanPSMT-20" transform="translate(305.615234 0)"/>
      <use xlink:href="#TimesNewRomanPSMT-43" transform="translate(330.615234 0)"/>
      <use xlink:href="#TimesNewRomanPSMT-6f" transform="translate(397.314453 0)"/>
      <use xlink:href="#TimesNewRomanPSMT-75" transform="translate(447.314453 0)"/>
      <use xlink:href="#TimesNewRomanPSMT-6e" transform="translate(497.314453 0)"/>
      <use xlink:href="#TimesNewRomanPSMT-74" transform="translate(547.314453 0)"/>
     </g>
    </g>
   </g>
   <g id="matplotlib.axis_2">
    <g id="ytick_1">
     <g id="line2d_9">
      <path d="M 57.08 468.165 
L 666.532569 468.165 
" clip-path="url(#pa53d191e87)" style="fill: none; stroke-dasharray: 2.96,1.28; stroke-dashoffset: 0; stroke: #cccccc; stroke-opacity: 0.5; stroke-width: 0.8"/>
     </g>
     <g id="text_10">
      <!-- 0 -->
      <g style="fill: #262626" transform="translate(44.519063 471.743906) scale(0.1 -0.1)">
       <use xlink:href="#ArialMT-30"/>
      </g>
     </g>
    </g>
    <g id="ytick_2">
     <g id="line2d_10">
      <path d="M 57.08 29.94 
L 666.532569 29.94 
" clip-path="url(#pa53d191e87)" style="fill: none; stroke-dasharray: 2.96,1.28; stroke-dashoffset: 0; stroke: #cccccc; stroke-opacity: 0.5; stroke-width: 0.8"/>
     </g>
     <g id="text_11">
      <!-- 1 -->
      <g style="fill: #262626" transform="translate(44.519063 33.518906) scale(0.1 -0.1)">
       <use xlink:href="#ArialMT-31"/>
      </g>
     </g>
    </g>
    <g id="text_12">
     <!-- Stacked Proportion -->
     <g style="fill: #262626" transform="translate(37.524375 302.905469) rotate(-90) scale(0.14 -0.14)">
      <defs>
       <path id="TimesNewRomanPSMT-61" d="M 1822 413 
Q 1381 72 1269 19 
Q 1100 -59 909 -59 
Q 613 -59 420 144 
Q 228 347 228 678 
Q 228 888 322 1041 
Q 450 1253 767 1440 
Q 1084 1628 1822 1897 
L 1822 2009 
Q 1822 2438 1686 2597 
Q 1550 2756 1291 2756 
Q 1094 2756 978 2650 
Q 859 2544 859 2406 
L 866 2225 
Q 866 2081 792 2003 
Q 719 1925 600 1925 
Q 484 1925 411 2006 
Q 338 2088 338 2228 
Q 338 2497 613 2722 
Q 888 2947 1384 2947 
Q 1766 2947 2009 2819 
Q 2194 2722 2281 2516 
Q 2338 2381 2338 1966 
L 2338 994 
Q 2338 584 2353 492 
Q 2369 400 2405 369 
Q 2441 338 2488 338 
Q 2538 338 2575 359 
Q 2641 400 2828 588 
L 2828 413 
Q 2478 -56 2159 -56 
Q 2006 -56 1915 50 
Q 1825 156 1822 413 
z
M 1822 616 
L 1822 1706 
Q 1350 1519 1213 1441 
Q 966 1303 859 1153 
Q 753 1003 753 825 
Q 753 600 887 451 
Q 1022 303 1197 303 
Q 1434 303 1822 616 
z
" transform="scale(0.015625)"/>
       <path id="TimesNewRomanPSMT-63" d="M 2631 1088 
Q 2516 522 2178 217 
Q 1841 -88 1431 -88 
Q 944 -88 581 321 
Q 219 731 219 1428 
Q 219 2103 620 2525 
Q 1022 2947 1584 2947 
Q 2006 2947 2278 2723 
Q 2550 2500 2550 2259 
Q 2550 2141 2473 2067 
Q 2397 1994 2259 1994 
Q 2075 1994 1981 2113 
Q 1928 2178 1911 2362 
Q 1894 2547 1784 2644 
Q 1675 2738 1481 2738 
Q 1169 2738 978 2506 
Q 725 2200 725 1697 
Q 725 1184 976 792 
Q 1228 400 1656 400 
Q 1963 400 2206 609 
Q 2378 753 2541 1131 
L 2631 1088 
z
" transform="scale(0.015625)"/>
       <path id="TimesNewRomanPSMT-6b" d="M 1047 4444 
L 1047 1594 
L 1775 2259 
Q 2006 2472 2044 2528 
Q 2069 2566 2069 2603 
Q 2069 2666 2017 2711 
Q 1966 2756 1847 2763 
L 1847 2863 
L 3091 2863 
L 3091 2763 
Q 2834 2756 2664 2684 
Q 2494 2613 2291 2428 
L 1556 1750 
L 2291 822 
Q 2597 438 2703 334 
Q 2853 188 2966 144 
Q 3044 113 3238 113 
L 3238 0 
L 1847 0 
L 1847 113 
Q 1966 116 2008 148 
Q 2050 181 2050 241 
Q 2050 313 1925 472 
L 1047 1594 
L 1047 644 
Q 1047 366 1086 278 
Q 1125 191 1197 153 
Q 1269 116 1509 113 
L 1509 0 
L 53 0 
L 53 113 
Q 272 113 381 166 
Q 447 200 481 272 
Q 528 375 528 628 
L 528 3234 
Q 528 3731 506 3842 
Q 484 3953 434 3995 
Q 384 4038 303 4038 
Q 238 4038 106 3984 
L 53 4094 
L 903 4444 
L 1047 4444 
z
" transform="scale(0.015625)"/>
       <path id="TimesNewRomanPSMT-64" d="M 2222 322 
Q 2013 103 1813 7 
Q 1613 -88 1381 -88 
Q 913 -88 563 304 
Q 213 697 213 1313 
Q 213 1928 600 2439 
Q 988 2950 1597 2950 
Q 1975 2950 2222 2709 
L 2222 3238 
Q 2222 3728 2198 3840 
Q 2175 3953 2125 3993 
Q 2075 4034 2000 4034 
Q 1919 4034 1784 3984 
L 1744 4094 
L 2597 4444 
L 2738 4444 
L 2738 1134 
Q 2738 631 2761 520 
Q 2784 409 2836 365 
Q 2888 322 2956 322 
Q 3041 322 3181 375 
L 3216 266 
L 2366 -88 
L 2222 -88 
L 2222 322 
z
M 2222 541 
L 2222 2016 
Q 2203 2228 2109 2403 
Q 2016 2578 1861 2667 
Q 1706 2756 1559 2756 
Q 1284 2756 1069 2509 
Q 784 2184 784 1559 
Q 784 928 1059 592 
Q 1334 256 1672 256 
Q 1956 256 2222 541 
z
" transform="scale(0.015625)"/>
       <path id="TimesNewRomanPSMT-50" d="M 1313 1984 
L 1313 750 
Q 1313 350 1400 253 
Q 1519 116 1759 116 
L 1922 116 
L 1922 0 
L 106 0 
L 106 116 
L 266 116 
Q 534 116 650 291 
Q 713 388 713 750 
L 713 3488 
Q 713 3888 628 3984 
Q 506 4122 266 4122 
L 106 4122 
L 106 4238 
L 1659 4238 
Q 2228 4238 2556 4120 
Q 2884 4003 3109 3725 
Q 3334 3447 3334 3066 
Q 3334 2547 2992 2222 
Q 2650 1897 2025 1897 
Q 1872 1897 1694 1919 
Q 1516 1941 1313 1984 
z
M 1313 2163 
Q 1478 2131 1606 2115 
Q 1734 2100 1825 2100 
Q 2150 2100 2386 2351 
Q 2622 2603 2622 3003 
Q 2622 3278 2509 3514 
Q 2397 3750 2190 3867 
Q 1984 3984 1722 3984 
Q 1563 3984 1313 3925 
L 1313 2163 
z
" transform="scale(0.015625)"/>
       <path id="TimesNewRomanPSMT-72" d="M 1038 2947 
L 1038 2303 
Q 1397 2947 1775 2947 
Q 1947 2947 2059 2842 
Q 2172 2738 2172 2600 
Q 2172 2478 2090 2393 
Q 2009 2309 1897 2309 
Q 1788 2309 1652 2417 
Q 1516 2525 1450 2525 
Q 1394 2525 1328 2463 
Q 1188 2334 1038 2041 
L 1038 669 
Q 1038 431 1097 309 
Q 1138 225 1241 169 
Q 1344 113 1538 113 
L 1538 0 
L 72 0 
L 72 113 
Q 291 113 397 181 
Q 475 231 506 341 
Q 522 394 522 644 
L 522 1753 
Q 522 2253 501 2348 
Q 481 2444 426 2487 
Q 372 2531 291 2531 
Q 194 2531 72 2484 
L 41 2597 
L 906 2947 
L 1038 2947 
z
" transform="scale(0.015625)"/>
       <path id="TimesNewRomanPSMT-70" d="M -6 2578 
L 875 2934 
L 994 2934 
L 994 2266 
Q 1216 2644 1439 2795 
Q 1663 2947 1909 2947 
Q 2341 2947 2628 2609 
Q 2981 2197 2981 1534 
Q 2981 794 2556 309 
Q 2206 -88 1675 -88 
Q 1444 -88 1275 -22 
Q 1150 25 994 166 
L 994 -706 
Q 994 -1000 1030 -1079 
Q 1066 -1159 1155 -1206 
Q 1244 -1253 1478 -1253 
L 1478 -1369 
L -22 -1369 
L -22 -1253 
L 56 -1253 
Q 228 -1256 350 -1188 
Q 409 -1153 442 -1076 
Q 475 -1000 475 -688 
L 475 2019 
Q 475 2297 450 2372 
Q 425 2447 370 2484 
Q 316 2522 222 2522 
Q 147 2522 31 2478 
L -6 2578 
z
M 994 2081 
L 994 1013 
Q 994 666 1022 556 
Q 1066 375 1236 237 
Q 1406 100 1666 100 
Q 1978 100 2172 344 
Q 2425 663 2425 1241 
Q 2425 1897 2138 2250 
Q 1938 2494 1663 2494 
Q 1513 2494 1366 2419 
Q 1253 2363 994 2081 
z
" transform="scale(0.015625)"/>
      </defs>
      <use xlink:href="#TimesNewRomanPSMT-53"/>
      <use xlink:href="#TimesNewRomanPSMT-74" transform="translate(55.615234 0)"/>
      <use xlink:href="#TimesNewRomanPSMT-61" transform="translate(83.398438 0)"/>
      <use xlink:href="#TimesNewRomanPSMT-63" transform="translate(127.783203 0)"/>
      <use xlink:href="#TimesNewRomanPSMT-6b" transform="translate(172.167969 0)"/>
      <use xlink:href="#TimesNewRomanPSMT-65" transform="translate(222.167969 0)"/>
      <use xlink:href="#TimesNewRomanPSMT-64" transform="translate(266.552734 0)"/>
      <use xlink:href="#TimesNewRomanPSMT-20" transform="translate(316.552734 0)"/>
      <use xlink:href="#TimesNewRomanPSMT-50" transform="translate(341.552734 0)"/>
      <use xlink:href="#TimesNewRomanPSMT-72" transform="translate(397.167969 0)"/>
      <use xlink:href="#TimesNewRomanPSMT-6f" transform="translate(430.46875 0)"/>
      <use xlink:href="#TimesNewRomanPSMT-70" transform="translate(480.46875 0)"/>
      <use xlink:href="#TimesNewRomanPSMT-6f" transform="translate(530.46875 0)"/>
      <use xlink:href="#TimesNewRomanPSMT-72" transform="translate(580.46875 0)"/>
      <use xlink:href="#TimesNewRomanPSMT-74" transform="translate(613.769531 0)"/>
      <use xlink:href="#TimesNewRomanPSMT-69" transform="translate(641.552734 0)"/>
      <use xlink:href="#TimesNewRomanPSMT-6f" transform="translate(669.335938 0)"/>
      <use xlink:href="#TimesNewRomanPSMT-6e" transform="translate(719.335938 0)"/>
     </g>
    </g>
   </g>
   <g id="FillBetweenPolyCollection_1">
    <path d="M 57.08 168.326842 
L 57.08 468.165 
L 57.08 168.326842 
L 57.08 168.326842 
z
" clip-path="url(#pa53d191e87)" style="fill: #5386b6; stroke: #ffffff"/>
    <path d="M 62.671308 265.907308 
L 62.671308 468.165 
L 65.466962 468.165 
L 68.262616 468.165 
L 71.05827 468.165 
L 73.853924 468.165 
L 76.649578 468.165 
L 79.445232 468.165 
L 82.240886 468.165 
L 85.03654 468.165 
L 87.832194 468.165 
L 90.627848 468.165 
L 93.423502 468.165 
L 96.219156 468.165 
L 99.01481 468.165 
L 101.810464 468.165 
L 104.606118 468.165 
L 107.401772 468.165 
L 110.197426 468.165 
L 112.99308 468.165 
L 115.788734 468.165 
L 118.584388 468.165 
L 121.380042 468.165 
L 124.175696 468.165 
L 126.97135 468.165 
L 129.767004 468.165 
L 132.562658 468.165 
L 135.358312 468.165 
L 138.153966 468.165 
L 140.94962 468.165 
L 143.745274 468.165 
L 146.540928 468.165 
L 149.336582 468.165 
L 152.132236 468.165 
L 154.927889 468.165 
L 157.723543 468.165 
L 160.519197 468.165 
L 163.314851 468.165 
L 166.110505 468.165 
L 168.906159 468.165 
L 171.701813 468.165 
L 174.497467 468.165 
L 177.293121 468.165 
L 180.088775 468.165 
L 182.884429 468.165 
L 185.680083 468.165 
L 188.475737 468.165 
L 191.271391 468.165 
L 194.067045 468.165 
L 196.862699 468.165 
L 199.658353 468.165 
L 202.454007 468.165 
L 205.249661 468.165 
L 208.045315 468.165 
L 210.840969 468.165 
L 213.636623 468.165 
L 216.432277 468.165 
L 219.227931 468.165 
L 222.023585 468.165 
L 224.819239 468.165 
L 227.614893 468.165 
L 230.410547 468.165 
L 233.206201 468.165 
L 236.001855 468.165 
L 238.797509 468.165 
L 241.593163 468.165 
L 244.388817 468.165 
L 247.184471 468.165 
L 249.980125 468.165 
L 252.775779 468.165 
L 255.571433 468.165 
L 258.367087 468.165 
L 261.162741 468.165 
L 263.958395 468.165 
L 266.754049 468.165 
L 269.549703 468.165 
L 272.345357 468.165 
L 275.141011 468.165 
L 277.936665 468.165 
L 280.732319 468.165 
L 283.527973 468.165 
L 286.323627 468.165 
L 289.119281 468.165 
L 291.914935 468.165 
L 294.710589 468.165 
L 297.506243 468.165 
L 300.301897 468.165 
L 303.097551 468.165 
L 305.893205 468.165 
L 308.688859 468.165 
L 311.484513 468.165 
L 314.280167 468.165 
L 317.075821 468.165 
L 319.871475 468.165 
L 322.667129 468.165 
L 325.462783 468.165 
L 328.258437 468.165 
L 331.054091 468.165 
L 333.849745 468.165 
L 336.645399 468.165 
L 339.441053 468.165 
L 342.236707 468.165 
L 345.03236 468.165 
L 347.828014 468.165 
L 350.623668 468.165 
L 353.419322 468.165 
L 356.214976 468.165 
L 359.01063 468.165 
L 361.806284 468.165 
L 364.601938 468.165 
L 367.397592 468.165 
L 370.193246 468.165 
L 372.9889 468.165 
L 375.784554 468.165 
L 378.580208 468.165 
L 381.375862 468.165 
L 384.171516 468.165 
L 386.96717 468.165 
L 389.762824 468.165 
L 392.558478 468.165 
L 395.354132 468.165 
L 398.149786 468.165 
L 400.94544 468.165 
L 403.741094 468.165 
L 406.536748 468.165 
L 409.332402 468.165 
L 412.128056 468.165 
L 414.92371 468.165 
L 417.719364 468.165 
L 420.515018 468.165 
L 423.310672 468.165 
L 426.106326 468.165 
L 428.90198 468.165 
L 431.697634 468.165 
L 434.493288 468.165 
L 437.288942 468.165 
L 440.084596 468.165 
L 442.88025 468.165 
L 445.675904 468.165 
L 448.471558 468.165 
L 451.267212 468.165 
L 454.062866 468.165 
L 456.85852 468.165 
L 459.654174 468.165 
L 462.449828 468.165 
L 465.245482 468.165 
L 468.041136 468.165 
L 470.83679 468.165 
L 473.632444 468.165 
L 476.428098 468.165 
L 479.223752 468.165 
L 482.019406 468.165 
L 484.81506 468.165 
L 487.610714 468.165 
L 490.406368 468.165 
L 493.202022 468.165 
L 495.997676 468.165 
L 498.79333 468.165 
L 501.588984 468.165 
L 504.384638 468.165 
L 507.180292 468.165 
L 509.975946 468.165 
L 512.7716 468.165 
L 515.567254 468.165 
L 518.362908 468.165 
L 521.158562 468.165 
L 523.954216 468.165 
L 526.74987 468.165 
L 529.545524 468.165 
L 532.341178 468.165 
L 535.136831 468.165 
L 537.932485 468.165 
L 540.728139 468.165 
L 543.523793 468.165 
L 546.319447 468.165 
L 549.115101 468.165 
L 551.910755 468.165 
L 554.706409 468.165 
L 557.502063 468.165 
L 560.297717 468.165 
L 563.093371 468.165 
L 565.889025 468.165 
L 568.684679 468.165 
L 571.480333 468.165 
L 574.275987 468.165 
L 577.071641 468.165 
L 579.867295 468.165 
L 582.662949 468.165 
L 585.458603 468.165 
L 588.254257 468.165 
L 591.049911 468.165 
L 593.845565 468.165 
L 596.641219 468.165 
L 599.436873 468.165 
L 602.232527 468.165 
L 605.028181 468.165 
L 607.823835 468.165 
L 610.619489 468.165 
L 613.415143 468.165 
L 616.210797 468.165 
L 619.006451 468.165 
L 621.802105 468.165 
L 624.597759 468.165 
L 627.393413 468.165 
L 630.189067 468.165 
L 632.984721 468.165 
L 635.780375 468.165 
L 638.576029 468.165 
L 641.371683 468.165 
L 644.167337 468.165 
L 646.962991 468.165 
L 649.758645 468.165 
L 652.554299 468.165 
L 655.349953 468.165 
L 658.145607 468.165 
L 660.941261 468.165 
L 663.736915 468.165 
L 666.532569 468.165 
L 666.532569 29.94 
L 666.532569 29.94 
L 663.736915 249.0525 
L 660.941261 468.165 
L 658.145607 29.94 
L 655.349953 29.94 
L 652.554299 29.94 
L 649.758645 29.94 
L 646.962991 468.165 
L 644.167337 322.09 
L 641.371683 29.94 
L 638.576029 468.165 
L 635.780375 249.0525 
L 632.984721 117.585 
L 630.189067 249.0525 
L 627.393413 29.94 
L 624.597759 117.585 
L 621.802105 468.165 
L 619.006451 249.0525 
L 616.210797 29.94 
L 613.415143 176.015 
L 610.619489 29.94 
L 607.823835 92.543571 
L 605.028181 139.49625 
L 602.232527 322.09 
L 599.436873 29.94 
L 596.641219 176.015 
L 593.845565 249.0525 
L 591.049911 29.94 
L 588.254257 468.165 
L 585.458603 468.165 
L 582.662949 29.94 
L 579.867295 29.94 
L 577.071641 139.49625 
L 574.275987 29.94 
L 571.480333 29.94 
L 568.684679 29.94 
L 565.889025 249.0525 
L 563.093371 29.94 
L 560.297717 468.165 
L 557.502063 29.94 
L 554.706409 29.94 
L 551.910755 29.94 
L 549.115101 139.49625 
L 546.319447 29.94 
L 543.523793 29.94 
L 540.728139 29.94 
L 537.932485 29.94 
L 535.136831 29.94 
L 532.341178 249.0525 
L 529.545524 29.94 
L 526.74987 205.23 
L 523.954216 29.94 
L 521.158562 29.94 
L 518.362908 117.585 
L 515.567254 114.757742 
L 512.7716 139.49625 
L 509.975946 78.631667 
L 507.180292 69.778636 
L 504.384638 29.94 
L 501.588984 99.133421 
L 498.79333 29.94 
L 495.997676 73.7625 
L 493.202022 117.585 
L 490.406368 29.94 
L 487.610714 29.94 
L 484.81506 109.617273 
L 482.019406 73.7625 
L 479.223752 139.49625 
L 476.428098 29.94 
L 473.632444 73.7625 
L 470.83679 29.94 
L 468.041136 69.778636 
L 465.245482 29.94 
L 462.449828 29.94 
L 459.654174 29.94 
L 456.85852 139.49625 
L 454.062866 139.49625 
L 451.267212 84.718125 
L 448.471558 29.94 
L 445.675904 117.585 
L 442.88025 133.051765 
L 440.084596 176.015 
L 437.288942 139.49625 
L 434.493288 69.778636 
L 431.697634 117.585 
L 428.90198 161.4075 
L 426.106326 123.845357 
L 423.310672 249.0525 
L 420.515018 249.0525 
L 417.719364 99.133421 
L 414.92371 468.165 
L 412.128056 29.94 
L 409.332402 117.585 
L 406.536748 189.294545 
L 403.741094 78.631667 
L 400.94544 51.85125 
L 398.149786 92.543571 
L 395.354132 292.875 
L 392.558478 273.398333 
L 389.762824 149.455909 
L 386.96717 117.585 
L 384.171516 468.165 
L 381.375862 29.94 
L 378.580208 29.94 
L 375.784554 133.051765 
L 372.9889 95.67375 
L 370.193246 221.663437 
L 367.397592 358.60875 
L 364.601938 176.015 
L 361.806284 109.617273 
L 359.01063 29.94 
L 356.214976 29.94 
L 353.419322 29.94 
L 350.623668 78.631667 
L 347.828014 84.718125 
L 345.03236 29.94 
L 342.236707 176.015 
L 339.441053 29.94 
L 336.645399 78.631667 
L 333.849745 29.94 
L 331.054091 29.94 
L 328.258437 88.37 
L 325.462783 176.015 
L 322.667129 97.359231 
L 319.871475 92.543571 
L 317.075821 29.94 
L 314.280167 29.94 
L 311.484513 186.448929 
L 308.688859 29.94 
L 305.893205 122.197895 
L 303.097551 139.49625 
L 300.301897 99.133421 
L 297.506243 176.015 
L 294.710589 29.94 
L 291.914935 102.9775 
L 289.119281 29.94 
L 286.323627 139.49625 
L 283.527973 176.015 
L 280.732319 102.9775 
L 277.936665 92.543571 
L 275.141011 205.23 
L 272.345357 84.718125 
L 269.549703 127.323333 
L 266.754049 127.323333 
L 263.958395 117.585 
L 261.162741 205.23 
L 258.367087 84.718125 
L 255.571433 139.49625 
L 252.775779 102.9775 
L 249.980125 29.94 
L 247.184471 468.165 
L 244.388817 29.94 
L 241.593163 194.274375 
L 238.797509 413.386875 
L 236.001855 217.750714 
L 233.206201 29.94 
L 230.410547 102.9775 
L 227.614893 29.94 
L 224.819239 249.0525 
L 222.023585 29.94 
L 219.227931 102.9775 
L 216.432277 139.49625 
L 213.636623 358.60875 
L 210.840969 29.94 
L 208.045315 176.015 
L 205.249661 164.778462 
L 202.454007 176.015 
L 199.658353 84.718125 
L 196.862699 249.0525 
L 194.067045 227.14125 
L 191.271391 99.133421 
L 188.475737 183.31875 
L 185.680083 102.9775 
L 182.884429 123.845357 
L 180.088775 468.165 
L 177.293121 146.8 
L 174.497467 149.455909 
L 171.701813 127.323333 
L 168.906159 29.94 
L 166.110505 217.750714 
L 163.314851 370.781667 
L 160.519197 78.631667 
L 157.723543 113.411429 
L 154.927889 78.631667 
L 152.132236 29.94 
L 149.336582 176.015 
L 146.540928 135.718448 
L 143.745274 194.274375 
L 140.94962 29.94 
L 138.153966 117.585 
L 135.358312 468.165 
L 132.562658 468.165 
L 129.767004 468.165 
L 126.97135 149.455909 
L 124.175696 139.49625 
L 121.380042 249.0525 
L 118.584388 29.94 
L 115.788734 205.23 
L 112.99308 29.94 
L 110.197426 189.294545 
L 107.401772 84.718125 
L 104.606118 249.0525 
L 101.810464 227.14125 
L 99.01481 139.49625 
L 96.219156 194.274375 
L 93.423502 164.778462 
L 90.627848 342.957857 
L 87.832194 92.543571 
L 85.03654 127.323333 
L 82.240886 249.0525 
L 79.445232 191.391316 
L 76.649578 227.14125 
L 73.853924 155.147143 
L 71.05827 212.53375 
L 68.262616 205.23 
L 65.466962 468.165 
L 62.671308 265.907308 
z
" clip-path="url(#pa53d191e87)" style="fill: #5386b6; stroke: #ffffff"/>
   </g>
   <g id="FillBetweenPolyCollection_2">
    <path d="M 57.08 145.262368 
L 57.08 168.326842 
L 57.08 145.262368 
L 57.08 145.262368 
z
" clip-path="url(#pa53d191e87)" style="fill: #d57459; stroke: #ffffff"/>
    <path d="M 62.671308 232.197692 
L 62.671308 265.907308 
L 65.466962 468.165 
L 68.262616 205.23 
L 71.05827 212.53375 
L 73.853924 155.147143 
L 76.649578 227.14125 
L 79.445232 191.391316 
L 82.240886 249.0525 
L 85.03654 127.323333 
L 87.832194 92.543571 
L 90.627848 342.957857 
L 93.423502 164.778462 
L 96.219156 194.274375 
L 99.01481 139.49625 
L 101.810464 227.14125 
L 104.606118 249.0525 
L 107.401772 84.718125 
L 110.197426 189.294545 
L 112.99308 29.94 
L 115.788734 205.23 
L 118.584388 29.94 
L 121.380042 249.0525 
L 124.175696 139.49625 
L 126.97135 149.455909 
L 129.767004 468.165 
L 132.562658 468.165 
L 135.358312 468.165 
L 138.153966 117.585 
L 140.94962 29.94 
L 143.745274 194.274375 
L 146.540928 135.718448 
L 149.336582 176.015 
L 152.132236 29.94 
L 154.927889 78.631667 
L 157.723543 113.411429 
L 160.519197 78.631667 
L 163.314851 370.781667 
L 166.110505 217.750714 
L 168.906159 29.94 
L 171.701813 127.323333 
L 174.497467 149.455909 
L 177.293121 146.8 
L 180.088775 468.165 
L 182.884429 123.845357 
L 185.680083 102.9775 
L 188.475737 183.31875 
L 191.271391 99.133421 
L 194.067045 227.14125 
L 196.862699 249.0525 
L 199.658353 84.718125 
L 202.454007 176.015 
L 205.249661 164.778462 
L 208.045315 176.015 
L 210.840969 29.94 
L 213.636623 358.60875 
L 216.432277 139.49625 
L 219.227931 102.9775 
L 222.023585 29.94 
L 224.819239 249.0525 
L 227.614893 29.94 
L 230.410547 102.9775 
L 233.206201 29.94 
L 236.001855 217.750714 
L 238.797509 413.386875 
L 241.593163 194.274375 
L 244.388817 29.94 
L 247.184471 468.165 
L 249.980125 29.94 
L 252.775779 102.9775 
L 255.571433 139.49625 
L 258.367087 84.718125 
L 261.162741 205.23 
L 263.958395 117.585 
L 266.754049 127.323333 
L 269.549703 127.323333 
L 272.345357 84.718125 
L 275.141011 205.23 
L 277.936665 92.543571 
L 280.732319 102.9775 
L 283.527973 176.015 
L 286.323627 139.49625 
L 289.119281 29.94 
L 291.914935 102.9775 
L 294.710589 29.94 
L 297.506243 176.015 
L 300.301897 99.133421 
L 303.097551 139.49625 
L 305.893205 122.197895 
L 308.688859 29.94 
L 311.484513 186.448929 
L 314.280167 29.94 
L 317.075821 29.94 
L 319.871475 92.543571 
L 322.667129 97.359231 
L 325.462783 176.015 
L 328.258437 88.37 
L 331.054091 29.94 
L 333.849745 29.94 
L 336.645399 78.631667 
L 339.441053 29.94 
L 342.236707 176.015 
L 345.03236 29.94 
L 347.828014 84.718125 
L 350.623668 78.631667 
L 353.419322 29.94 
L 356.214976 29.94 
L 359.01063 29.94 
L 361.806284 109.617273 
L 364.601938 176.015 
L 367.397592 358.60875 
L 370.193246 221.663437 
L 372.9889 95.67375 
L 375.784554 133.051765 
L 378.580208 29.94 
L 381.375862 29.94 
L 384.171516 468.165 
L 386.96717 117.585 
L 389.762824 149.455909 
L 392.558478 273.398333 
L 395.354132 292.875 
L 398.149786 92.543571 
L 400.94544 51.85125 
L 403.741094 78.631667 
L 406.536748 189.294545 
L 409.332402 117.585 
L 412.128056 29.94 
L 414.92371 468.165 
L 417.719364 99.133421 
L 420.515018 249.0525 
L 423.310672 249.0525 
L 426.106326 123.845357 
L 428.90198 161.4075 
L 431.697634 117.585 
L 434.493288 69.778636 
L 437.288942 139.49625 
L 440.084596 176.015 
L 442.88025 133.051765 
L 445.675904 117.585 
L 448.471558 29.94 
L 451.267212 84.718125 
L 454.062866 139.49625 
L 456.85852 139.49625 
L 459.654174 29.94 
L 462.449828 29.94 
L 465.245482 29.94 
L 468.041136 69.778636 
L 470.83679 29.94 
L 473.632444 73.7625 
L 476.428098 29.94 
L 479.223752 139.49625 
L 482.019406 73.7625 
L 484.81506 109.617273 
L 487.610714 29.94 
L 490.406368 29.94 
L 493.202022 117.585 
L 495.997676 73.7625 
L 498.79333 29.94 
L 501.588984 99.133421 
L 504.384638 29.94 
L 507.180292 69.778636 
L 509.975946 78.631667 
L 512.7716 139.49625 
L 515.567254 114.757742 
L 518.362908 117.585 
L 521.158562 29.94 
L 523.954216 29.94 
L 526.74987 205.23 
L 529.545524 29.94 
L 532.341178 249.0525 
L 535.136831 29.94 
L 537.932485 29.94 
L 540.728139 29.94 
L 543.523793 29.94 
L 546.319447 29.94 
L 549.115101 139.49625 
L 551.910755 29.94 
L 554.706409 29.94 
L 557.502063 29.94 
L 560.297717 468.165 
L 563.093371 29.94 
L 565.889025 249.0525 
L 568.684679 29.94 
L 571.480333 29.94 
L 574.275987 29.94 
L 577.071641 139.49625 
L 579.867295 29.94 
L 582.662949 29.94 
L 585.458603 468.165 
L 588.254257 468.165 
L 591.049911 29.94 
L 593.845565 249.0525 
L 596.641219 176.015 
L 599.436873 29.94 
L 602.232527 322.09 
L 605.028181 139.49625 
L 607.823835 92.543571 
L 610.619489 29.94 
L 613.415143 176.015 
L 616.210797 29.94 
L 619.006451 249.0525 
L 621.802105 468.165 
L 624.597759 117.585 
L 627.393413 29.94 
L 630.189067 249.0525 
L 632.984721 117.585 
L 635.780375 249.0525 
L 638.576029 468.165 
L 641.371683 29.94 
L 644.167337 322.09 
L 646.962991 468.165 
L 649.758645 29.94 
L 652.554299 29.94 
L 655.349953 29.94 
L 658.145607 29.94 
L 660.941261 468.165 
L 663.736915 249.0525 
L 666.532569 29.94 
L 666.532569 29.94 
L 666.532569 29.94 
L 663.736915 249.0525 
L 660.941261 468.165 
L 658.145607 29.94 
L 655.349953 29.94 
L 652.554299 29.94 
L 649.758645 29.94 
L 646.962991 468.165 
L 644.167337 322.09 
L 641.371683 29.94 
L 638.576029 468.165 
L 635.780375 249.0525 
L 632.984721 117.585 
L 630.189067 249.0525 
L 627.393413 29.94 
L 624.597759 117.585 
L 621.802105 468.165 
L 619.006451 249.0525 
L 616.210797 29.94 
L 613.415143 29.94 
L 610.619489 29.94 
L 607.823835 92.543571 
L 605.028181 139.49625 
L 602.232527 29.94 
L 599.436873 29.94 
L 596.641219 102.9775 
L 593.845565 249.0525 
L 591.049911 29.94 
L 588.254257 468.165 
L 585.458603 468.165 
L 582.662949 29.94 
L 579.867295 29.94 
L 577.071641 139.49625 
L 574.275987 29.94 
L 571.480333 29.94 
L 568.684679 29.94 
L 565.889025 249.0525 
L 563.093371 29.94 
L 560.297717 468.165 
L 557.502063 29.94 
L 554.706409 29.94 
L 551.910755 29.94 
L 549.115101 29.94 
L 546.319447 29.94 
L 543.523793 29.94 
L 540.728139 29.94 
L 537.932485 29.94 
L 535.136831 29.94 
L 532.341178 249.0525 
L 529.545524 29.94 
L 526.74987 205.23 
L 523.954216 29.94 
L 521.158562 29.94 
L 518.362908 51.85125 
L 515.567254 72.348871 
L 512.7716 29.94 
L 509.975946 29.94 
L 507.180292 69.778636 
L 504.384638 29.94 
L 501.588984 99.133421 
L 498.79333 29.94 
L 495.997676 29.94 
L 493.202022 29.94 
L 490.406368 29.94 
L 487.610714 29.94 
L 484.81506 109.617273 
L 482.019406 51.85125 
L 479.223752 51.85125 
L 476.428098 29.94 
L 473.632444 51.85125 
L 470.83679 29.94 
L 468.041136 69.778636 
L 465.245482 29.94 
L 462.449828 29.94 
L 459.654174 29.94 
L 456.85852 57.329062 
L 454.062866 95.67375 
L 451.267212 84.718125 
L 448.471558 29.94 
L 445.675904 117.585 
L 442.88025 107.273824 
L 440.084596 176.015 
L 437.288942 84.718125 
L 434.493288 69.778636 
L 431.697634 73.7625 
L 428.90198 117.585 
L 426.106326 92.543571 
L 423.310672 249.0525 
L 420.515018 249.0525 
L 417.719364 53.004474 
L 414.92371 468.165 
L 412.128056 29.94 
L 409.332402 88.37 
L 406.536748 109.617273 
L 403.741094 29.94 
L 400.94544 51.85125 
L 398.149786 61.241786 
L 395.354132 292.875 
L 392.558478 176.015 
L 389.762824 69.778636 
L 386.96717 73.7625 
L 384.171516 468.165 
L 381.375862 29.94 
L 378.580208 29.94 
L 375.784554 133.051765 
L 372.9889 29.94 
L 370.193246 166.885312 
L 367.397592 29.94 
L 364.601938 176.015 
L 361.806284 69.778636 
L 359.01063 29.94 
L 356.214976 29.94 
L 353.419322 29.94 
L 350.623668 29.94 
L 347.828014 84.718125 
L 345.03236 29.94 
L 342.236707 176.015 
L 339.441053 29.94 
L 336.645399 29.94 
L 333.849745 29.94 
L 331.054091 29.94 
L 328.258437 29.94 
L 325.462783 29.94 
L 322.667129 97.359231 
L 319.871475 92.543571 
L 317.075821 29.94 
L 314.280167 29.94 
L 311.484513 61.241786 
L 308.688859 29.94 
L 305.893205 99.133421 
L 303.097551 29.94 
L 300.301897 76.068947 
L 297.506243 113.411429 
L 294.710589 29.94 
L 291.914935 102.9775 
L 289.119281 29.94 
L 286.323627 112.107187 
L 283.527973 176.015 
L 280.732319 29.94 
L 277.936665 29.94 
L 275.141011 95.67375 
L 272.345357 29.94 
L 269.549703 78.631667 
L 266.754049 127.323333 
L 263.958395 117.585 
L 261.162741 117.585 
L 258.367087 29.94 
L 255.571433 102.9775 
L 252.775779 66.45875 
L 249.980125 29.94 
L 247.184471 468.165 
L 244.388817 29.94 
L 241.593163 139.49625 
L 238.797509 194.274375 
L 236.001855 186.448929 
L 233.206201 29.94 
L 230.410547 102.9775 
L 227.614893 29.94 
L 224.819239 249.0525 
L 222.023585 29.94 
L 219.227931 102.9775 
L 216.432277 29.94 
L 213.636623 249.0525 
L 210.840969 29.94 
L 208.045315 102.9775 
L 205.249661 131.068846 
L 202.454007 29.94 
L 199.658353 29.94 
L 196.862699 176.015 
L 194.067045 205.23 
L 191.271391 53.004474 
L 188.475737 73.7625 
L 185.680083 102.9775 
L 182.884429 61.241786 
L 180.088775 358.60875 
L 177.293121 88.37 
L 174.497467 69.778636 
L 171.701813 78.631667 
L 168.906159 29.94 
L 166.110505 155.147143 
L 163.314851 273.398333 
L 160.519197 78.631667 
L 157.723543 71.675714 
L 154.927889 78.631667 
L 152.132236 29.94 
L 149.336582 29.94 
L 146.540928 105.496034 
L 143.745274 139.49625 
L 140.94962 29.94 
L 138.153966 88.37 
L 135.358312 468.165 
L 132.562658 468.165 
L 129.767004 468.165 
L 126.97135 109.617273 
L 124.175696 139.49625 
L 121.380042 161.4075 
L 118.584388 29.94 
L 115.788734 117.585 
L 112.99308 29.94 
L 110.197426 109.617273 
L 107.401772 84.718125 
L 104.606118 176.015 
L 101.810464 227.14125 
L 99.01481 29.94 
L 96.219156 112.107187 
L 93.423502 97.359231 
L 90.627848 280.354286 
L 87.832194 92.543571 
L 85.03654 29.94 
L 82.240886 249.0525 
L 79.445232 122.197895 
L 76.649578 205.23 
L 73.853924 155.147143 
L 71.05827 212.53375 
L 68.262616 205.23 
L 65.466962 468.165 
L 62.671308 232.197692 
z
" clip-path="url(#pa53d191e87)" style="fill: #d57459; stroke: #ffffff"/>
   </g>
   <g id="FillBetweenPolyCollection_3">
    <path d="M 57.08 29.94 
L 57.08 145.262368 
L 57.08 29.94 
L 57.08 29.94 
z
" clip-path="url(#pa53d191e87)" style="fill: #e8bc60; stroke: #ffffff"/>
    <path d="M 62.671308 29.94 
L 62.671308 232.197692 
L 65.466962 468.165 
L 68.262616 205.23 
L 71.05827 212.53375 
L 73.853924 155.147143 
L 76.649578 205.23 
L 79.445232 122.197895 
L 82.240886 249.0525 
L 85.03654 29.94 
L 87.832194 92.543571 
L 90.627848 280.354286 
L 93.423502 97.359231 
L 96.219156 112.107187 
L 99.01481 29.94 
L 101.810464 227.14125 
L 104.606118 176.015 
L 107.401772 84.718125 
L 110.197426 109.617273 
L 112.99308 29.94 
L 115.788734 117.585 
L 118.584388 29.94 
L 121.380042 161.4075 
L 124.175696 139.49625 
L 126.97135 109.617273 
L 129.767004 468.165 
L 132.562658 468.165 
L 135.358312 468.165 
L 138.153966 88.37 
L 140.94962 29.94 
L 143.745274 139.49625 
L 146.540928 105.496034 
L 149.336582 29.94 
L 152.132236 29.94 
L 154.927889 78.631667 
L 157.723543 71.675714 
L 160.519197 78.631667 
L 163.314851 273.398333 
L 166.110505 155.147143 
L 168.906159 29.94 
L 171.701813 78.631667 
L 174.497467 69.778636 
L 177.293121 88.37 
L 180.088775 358.60875 
L 182.884429 61.241786 
L 185.680083 102.9775 
L 188.475737 73.7625 
L 191.271391 53.004474 
L 194.067045 205.23 
L 196.862699 176.015 
L 199.658353 29.94 
L 202.454007 29.94 
L 205.249661 131.068846 
L 208.045315 102.9775 
L 210.840969 29.94 
L 213.636623 249.0525 
L 216.432277 29.94 
L 219.227931 102.9775 
L 222.023585 29.94 
L 224.819239 249.0525 
L 227.614893 29.94 
L 230.410547 102.9775 
L 233.206201 29.94 
L 236.001855 186.448929 
L 238.797509 194.274375 
L 241.593163 139.49625 
L 244.388817 29.94 
L 247.184471 468.165 
L 249.980125 29.94 
L 252.775779 66.45875 
L 255.571433 102.9775 
L 258.367087 29.94 
L 261.162741 117.585 
L 263.958395 117.585 
L 266.754049 127.323333 
L 269.549703 78.631667 
L 272.345357 29.94 
L 275.141011 95.67375 
L 277.936665 29.94 
L 280.732319 29.94 
L 283.527973 176.015 
L 286.323627 112.107187 
L 289.119281 29.94 
L 291.914935 102.9775 
L 294.710589 29.94 
L 297.506243 113.411429 
L 300.301897 76.068947 
L 303.097551 29.94 
L 305.893205 99.133421 
L 308.688859 29.94 
L 311.484513 61.241786 
L 314.280167 29.94 
L 317.075821 29.94 
L 319.871475 92.543571 
L 322.667129 97.359231 
L 325.462783 29.94 
L 328.258437 29.94 
L 331.054091 29.94 
L 333.849745 29.94 
L 336.645399 29.94 
L 339.441053 29.94 
L 342.236707 176.015 
L 345.03236 29.94 
L 347.828014 84.718125 
L 350.623668 29.94 
L 353.419322 29.94 
L 356.214976 29.94 
L 359.01063 29.94 
L 361.806284 69.778636 
L 364.601938 176.015 
L 367.397592 29.94 
L 370.193246 166.885312 
L 372.9889 29.94 
L 375.784554 133.051765 
L 378.580208 29.94 
L 381.375862 29.94 
L 384.171516 468.165 
L 386.96717 73.7625 
L 389.762824 69.778636 
L 392.558478 176.015 
L 395.354132 292.875 
L 398.149786 61.241786 
L 400.94544 51.85125 
L 403.741094 29.94 
L 406.536748 109.617273 
L 409.332402 88.37 
L 412.128056 29.94 
L 414.92371 468.165 
L 417.719364 53.004474 
L 420.515018 249.0525 
L 423.310672 249.0525 
L 426.106326 92.543571 
L 428.90198 117.585 
L 431.697634 73.7625 
L 434.493288 69.778636 
L 437.288942 84.718125 
L 440.084596 176.015 
L 442.88025 107.273824 
L 445.675904 117.585 
L 448.471558 29.94 
L 451.267212 84.718125 
L 454.062866 95.67375 
L 456.85852 57.329062 
L 459.654174 29.94 
L 462.449828 29.94 
L 465.245482 29.94 
L 468.041136 69.778636 
L 470.83679 29.94 
L 473.632444 51.85125 
L 476.428098 29.94 
L 479.223752 51.85125 
L 482.019406 51.85125 
L 484.81506 109.617273 
L 487.610714 29.94 
L 490.406368 29.94 
L 493.202022 29.94 
L 495.997676 29.94 
L 498.79333 29.94 
L 501.588984 99.133421 
L 504.384638 29.94 
L 507.180292 69.778636 
L 509.975946 29.94 
L 512.7716 29.94 
L 515.567254 72.348871 
L 518.362908 51.85125 
L 521.158562 29.94 
L 523.954216 29.94 
L 526.74987 205.23 
L 529.545524 29.94 
L 532.341178 249.0525 
L 535.136831 29.94 
L 537.932485 29.94 
L 540.728139 29.94 
L 543.523793 29.94 
L 546.319447 29.94 
L 549.115101 29.94 
L 551.910755 29.94 
L 554.706409 29.94 
L 557.502063 29.94 
L 560.297717 468.165 
L 563.093371 29.94 
L 565.889025 249.0525 
L 568.684679 29.94 
L 571.480333 29.94 
L 574.275987 29.94 
L 577.071641 139.49625 
L 579.867295 29.94 
L 582.662949 29.94 
L 585.458603 468.165 
L 588.254257 468.165 
L 591.049911 29.94 
L 593.845565 249.0525 
L 596.641219 102.9775 
L 599.436873 29.94 
L 602.232527 29.94 
L 605.028181 139.49625 
L 607.823835 92.543571 
L 610.619489 29.94 
L 613.415143 29.94 
L 616.210797 29.94 
L 619.006451 249.0525 
L 621.802105 468.165 
L 624.597759 117.585 
L 627.393413 29.94 
L 630.189067 249.0525 
L 632.984721 117.585 
L 635.780375 249.0525 
L 638.576029 468.165 
L 641.371683 29.94 
L 644.167337 322.09 
L 646.962991 468.165 
L 649.758645 29.94 
L 652.554299 29.94 
L 655.349953 29.94 
L 658.145607 29.94 
L 660.941261 468.165 
L 663.736915 249.0525 
L 666.532569 29.94 
L 666.532569 29.94 
L 666.532569 29.94 
L 663.736915 249.0525 
L 660.941261 29.94 
L 658.145607 29.94 
L 655.349953 29.94 
L 652.554299 29.94 
L 649.758645 29.94 
L 646.962991 468.165 
L 644.167337 322.09 
L 641.371683 29.94 
L 638.576029 468.165 
L 635.780375 249.0525 
L 632.984721 117.585 
L 630.189067 249.0525 
L 627.393413 29.94 
L 624.597759 117.585 
L 621.802105 468.165 
L 619.006451 249.0525 
L 616.210797 29.94 
L 613.415143 29.94 
L 610.619489 29.94 
L 607.823835 92.543571 
L 605.028181 139.49625 
L 602.232527 29.94 
L 599.436873 29.94 
L 596.641219 102.9775 
L 593.845565 249.0525 
L 591.049911 29.94 
L 588.254257 468.165 
L 585.458603 468.165 
L 582.662949 29.94 
L 579.867295 29.94 
L 577.071641 139.49625 
L 574.275987 29.94 
L 571.480333 29.94 
L 568.684679 29.94 
L 565.889025 29.94 
L 563.093371 29.94 
L 560.297717 468.165 
L 557.502063 29.94 
L 554.706409 29.94 
L 551.910755 29.94 
L 549.115101 29.94 
L 546.319447 29.94 
L 543.523793 29.94 
L 540.728139 29.94 
L 537.932485 29.94 
L 535.136831 29.94 
L 532.341178 249.0525 
L 529.545524 29.94 
L 526.74987 117.585 
L 523.954216 29.94 
L 521.158562 29.94 
L 518.362908 51.85125 
L 515.567254 58.212581 
L 512.7716 29.94 
L 509.975946 29.94 
L 507.180292 69.778636 
L 504.384638 29.94 
L 501.588984 99.133421 
L 498.79333 29.94 
L 495.997676 29.94 
L 493.202022 29.94 
L 490.406368 29.94 
L 487.610714 29.94 
L 484.81506 69.778636 
L 482.019406 51.85125 
L 479.223752 51.85125 
L 476.428098 29.94 
L 473.632444 29.94 
L 470.83679 29.94 
L 468.041136 69.778636 
L 465.245482 29.94 
L 462.449828 29.94 
L 459.654174 29.94 
L 456.85852 29.94 
L 454.062866 51.85125 
L 451.267212 29.94 
L 448.471558 29.94 
L 445.675904 29.94 
L 442.88025 29.94 
L 440.084596 176.015 
L 437.288942 29.94 
L 434.493288 29.94 
L 431.697634 29.94 
L 428.90198 29.94 
L 426.106326 29.94 
L 423.310672 29.94 
L 420.515018 249.0525 
L 417.719364 29.94 
L 414.92371 29.94 
L 412.128056 29.94 
L 409.332402 59.155 
L 406.536748 29.94 
L 403.741094 29.94 
L 400.94544 51.85125 
L 398.149786 61.241786 
L 395.354132 117.585 
L 392.558478 29.94 
L 389.762824 29.94 
L 386.96717 73.7625 
L 384.171516 249.0525 
L 381.375862 29.94 
L 378.580208 29.94 
L 375.784554 133.051765 
L 372.9889 29.94 
L 370.193246 166.885312 
L 367.397592 29.94 
L 364.601938 176.015 
L 361.806284 29.94 
L 359.01063 29.94 
L 356.214976 29.94 
L 353.419322 29.94 
L 350.623668 29.94 
L 347.828014 84.718125 
L 345.03236 29.94 
L 342.236707 66.45875 
L 339.441053 29.94 
L 336.645399 29.94 
L 333.849745 29.94 
L 331.054091 29.94 
L 328.258437 29.94 
L 325.462783 29.94 
L 322.667129 29.94 
L 319.871475 92.543571 
L 317.075821 29.94 
L 314.280167 29.94 
L 311.484513 29.94 
L 308.688859 29.94 
L 305.893205 41.472237 
L 303.097551 29.94 
L 300.301897 29.94 
L 297.506243 50.807857 
L 294.710589 29.94 
L 291.914935 29.94 
L 289.119281 29.94 
L 286.323627 57.329062 
L 283.527973 29.94 
L 280.732319 29.94 
L 277.936665 29.94 
L 275.141011 95.67375 
L 272.345357 29.94 
L 269.549703 29.94 
L 266.754049 78.631667 
L 263.958395 117.585 
L 261.162741 29.94 
L 258.367087 29.94 
L 255.571433 29.94 
L 252.775779 29.94 
L 249.980125 29.94 
L 247.184471 29.94 
L 244.388817 29.94 
L 241.593163 84.718125 
L 238.797509 29.94 
L 236.001855 61.241786 
L 233.206201 29.94 
L 230.410547 29.94 
L 227.614893 29.94 
L 224.819239 249.0525 
L 222.023585 29.94 
L 219.227931 29.94 
L 216.432277 29.94 
L 213.636623 29.94 
L 210.840969 29.94 
L 208.045315 29.94 
L 205.249661 29.94 
L 202.454007 29.94 
L 199.658353 29.94 
L 196.862699 29.94 
L 194.067045 29.94 
L 191.271391 29.94 
L 188.475737 29.94 
L 185.680083 29.94 
L 182.884429 29.94 
L 180.088775 29.94 
L 177.293121 29.94 
L 174.497467 69.778636 
L 171.701813 78.631667 
L 168.906159 29.94 
L 166.110505 92.543571 
L 163.314851 127.323333 
L 160.519197 78.631667 
L 157.723543 71.675714 
L 154.927889 78.631667 
L 152.132236 29.94 
L 149.336582 29.94 
L 146.540928 29.94 
L 143.745274 84.718125 
L 140.94962 29.94 
L 138.153966 59.155 
L 135.358312 29.94 
L 132.562658 29.94 
L 129.767004 29.94 
L 126.97135 109.617273 
L 124.175696 139.49625 
L 121.380042 73.7625 
L 118.584388 29.94 
L 115.788734 117.585 
L 112.99308 29.94 
L 110.197426 109.617273 
L 107.401772 29.94 
L 104.606118 102.9775 
L 101.810464 51.85125 
L 99.01481 29.94 
L 96.219156 29.94 
L 93.423502 29.94 
L 90.627848 217.750714 
L 87.832194 29.94 
L 85.03654 29.94 
L 82.240886 29.94 
L 79.445232 29.94 
L 76.649578 51.85125 
L 73.853924 29.94 
L 71.05827 29.94 
L 68.262616 29.94 
L 65.466962 29.94 
L 62.671308 29.94 
z
" clip-path="url(#pa53d191e87)" style="fill: #e8bc60; stroke: #ffffff"/>
   </g>
   <g id="FillBetweenPolyCollection_4">
    <path d="M 57.08 29.94 
L 57.08 29.94 
L 57.08 29.94 
L 57.08 29.94 
z
" clip-path="url(#pa53d191e87)" style="fill: #8d5993; stroke: #ffffff"/>
    <path d="M 62.671308 29.94 
L 62.671308 29.94 
L 65.466962 29.94 
L 68.262616 29.94 
L 71.05827 29.94 
L 73.853924 29.94 
L 76.649578 51.85125 
L 79.445232 29.94 
L 82.240886 29.94 
L 85.03654 29.94 
L 87.832194 29.94 
L 90.627848 217.750714 
L 93.423502 29.94 
L 96.219156 29.94 
L 99.01481 29.94 
L 101.810464 51.85125 
L 104.606118 102.9775 
L 107.401772 29.94 
L 110.197426 109.617273 
L 112.99308 29.94 
L 115.788734 117.585 
L 118.584388 29.94 
L 121.380042 73.7625 
L 124.175696 139.49625 
L 126.97135 109.617273 
L 129.767004 29.94 
L 132.562658 29.94 
L 135.358312 29.94 
L 138.153966 59.155 
L 140.94962 29.94 
L 143.745274 84.718125 
L 146.540928 29.94 
L 149.336582 29.94 
L 152.132236 29.94 
L 154.927889 78.631667 
L 157.723543 71.675714 
L 160.519197 78.631667 
L 163.314851 127.323333 
L 166.110505 92.543571 
L 168.906159 29.94 
L 171.701813 78.631667 
L 174.497467 69.778636 
L 177.293121 29.94 
L 180.088775 29.94 
L 182.884429 29.94 
L 185.680083 29.94 
L 188.475737 29.94 
L 191.271391 29.94 
L 194.067045 29.94 
L 196.862699 29.94 
L 199.658353 29.94 
L 202.454007 29.94 
L 205.249661 29.94 
L 208.045315 29.94 
L 210.840969 29.94 
L 213.636623 29.94 
L 216.432277 29.94 
L 219.227931 29.94 
L 222.023585 29.94 
L 224.819239 249.0525 
L 227.614893 29.94 
L 230.410547 29.94 
L 233.206201 29.94 
L 236.001855 61.241786 
L 238.797509 29.94 
L 241.593163 84.718125 
L 244.388817 29.94 
L 247.184471 29.94 
L 249.980125 29.94 
L 252.775779 29.94 
L 255.571433 29.94 
L 258.367087 29.94 
L 261.162741 29.94 
L 263.958395 117.585 
L 266.754049 78.631667 
L 269.549703 29.94 
L 272.345357 29.94 
L 275.141011 95.67375 
L 277.936665 29.94 
L 280.732319 29.94 
L 283.527973 29.94 
L 286.323627 57.329062 
L 289.119281 29.94 
L 291.914935 29.94 
L 294.710589 29.94 
L 297.506243 50.807857 
L 300.301897 29.94 
L 303.097551 29.94 
L 305.893205 41.472237 
L 308.688859 29.94 
L 311.484513 29.94 
L 314.280167 29.94 
L 317.075821 29.94 
L 319.871475 92.543571 
L 322.667129 29.94 
L 325.462783 29.94 
L 328.258437 29.94 
L 331.054091 29.94 
L 333.849745 29.94 
L 336.645399 29.94 
L 339.441053 29.94 
L 342.236707 66.45875 
L 345.03236 29.94 
L 347.828014 84.718125 
L 350.623668 29.94 
L 353.419322 29.94 
L 356.214976 29.94 
L 359.01063 29.94 
L 361.806284 29.94 
L 364.601938 176.015 
L 367.397592 29.94 
L 370.193246 166.885312 
L 372.9889 29.94 
L 375.784554 133.051765 
L 378.580208 29.94 
L 381.375862 29.94 
L 384.171516 249.0525 
L 386.96717 73.7625 
L 389.762824 29.94 
L 392.558478 29.94 
L 395.354132 117.585 
L 398.149786 61.241786 
L 400.94544 51.85125 
L 403.741094 29.94 
L 406.536748 29.94 
L 409.332402 59.155 
L 412.128056 29.94 
L 414.92371 29.94 
L 417.719364 29.94 
L 420.515018 249.0525 
L 423.310672 29.94 
L 426.106326 29.94 
L 428.90198 29.94 
L 431.697634 29.94 
L 434.493288 29.94 
L 437.288942 29.94 
L 440.084596 176.015 
L 442.88025 29.94 
L 445.675904 29.94 
L 448.471558 29.94 
L 451.267212 29.94 
L 454.062866 51.85125 
L 456.85852 29.94 
L 459.654174 29.94 
L 462.449828 29.94 
L 465.245482 29.94 
L 468.041136 69.778636 
L 470.83679 29.94 
L 473.632444 29.94 
L 476.428098 29.94 
L 479.223752 51.85125 
L 482.019406 51.85125 
L 484.81506 69.778636 
L 487.610714 29.94 
L 490.406368 29.94 
L 493.202022 29.94 
L 495.997676 29.94 
L 498.79333 29.94 
L 501.588984 99.133421 
L 504.384638 29.94 
L 507.180292 69.778636 
L 509.975946 29.94 
L 512.7716 29.94 
L 515.567254 58.212581 
L 518.362908 51.85125 
L 521.158562 29.94 
L 523.954216 29.94 
L 526.74987 117.585 
L 529.545524 29.94 
L 532.341178 249.0525 
L 535.136831 29.94 
L 537.932485 29.94 
L 540.728139 29.94 
L 543.523793 29.94 
L 546.319447 29.94 
L 549.115101 29.94 
L 551.910755 29.94 
L 554.706409 29.94 
L 557.502063 29.94 
L 560.297717 468.165 
L 563.093371 29.94 
L 565.889025 29.94 
L 568.684679 29.94 
L 571.480333 29.94 
L 574.275987 29.94 
L 577.071641 139.49625 
L 579.867295 29.94 
L 582.662949 29.94 
L 585.458603 468.165 
L 588.254257 468.165 
L 591.049911 29.94 
L 593.845565 249.0525 
L 596.641219 102.9775 
L 599.436873 29.94 
L 602.232527 29.94 
L 605.028181 139.49625 
L 607.823835 92.543571 
L 610.619489 29.94 
L 613.415143 29.94 
L 616.210797 29.94 
L 619.006451 249.0525 
L 621.802105 468.165 
L 624.597759 117.585 
L 627.393413 29.94 
L 630.189067 249.0525 
L 632.984721 117.585 
L 635.780375 249.0525 
L 638.576029 468.165 
L 641.371683 29.94 
L 644.167337 322.09 
L 646.962991 468.165 
L 649.758645 29.94 
L 652.554299 29.94 
L 655.349953 29.94 
L 658.145607 29.94 
L 660.941261 29.94 
L 663.736915 249.0525 
L 666.532569 29.94 
L 666.532569 29.94 
L 666.532569 29.94 
L 663.736915 29.94 
L 660.941261 29.94 
L 658.145607 29.94 
L 655.349953 29.94 
L 652.554299 29.94 
L 649.758645 29.94 
L 646.962991 29.94 
L 644.167337 29.94 
L 641.371683 29.94 
L 638.576029 29.94 
L 635.780375 29.94 
L 632.984721 29.94 
L 630.189067 29.94 
L 627.393413 29.94 
L 624.597759 29.94 
L 621.802105 29.94 
L 619.006451 29.94 
L 616.210797 29.94 
L 613.415143 29.94 
L 610.619489 29.94 
L 607.823835 29.94 
L 605.028181 29.94 
L 602.232527 29.94 
L 599.436873 29.94 
L 596.641219 29.94 
L 593.845565 29.94 
L 591.049911 29.94 
L 588.254257 29.94 
L 585.458603 29.94 
L 582.662949 29.94 
L 579.867295 29.94 
L 577.071641 29.94 
L 574.275987 29.94 
L 571.480333 29.94 
L 568.684679 29.94 
L 565.889025 29.94 
L 563.093371 29.94 
L 560.297717 29.94 
L 557.502063 29.94 
L 554.706409 29.94 
L 551.910755 29.94 
L 549.115101 29.94 
L 546.319447 29.94 
L 543.523793 29.94 
L 540.728139 29.94 
L 537.932485 29.94 
L 535.136831 29.94 
L 532.341178 29.94 
L 529.545524 29.94 
L 526.74987 29.94 
L 523.954216 29.94 
L 521.158562 29.94 
L 518.362908 29.94 
L 515.567254 29.94 
L 512.7716 29.94 
L 509.975946 29.94 
L 507.180292 29.94 
L 504.384638 29.94 
L 501.588984 29.94 
L 498.79333 29.94 
L 495.997676 29.94 
L 493.202022 29.94 
L 490.406368 29.94 
L 487.610714 29.94 
L 484.81506 29.94 
L 482.019406 29.94 
L 479.223752 29.94 
L 476.428098 29.94 
L 473.632444 29.94 
L 470.83679 29.94 
L 468.041136 29.94 
L 465.245482 29.94 
L 462.449828 29.94 
L 459.654174 29.94 
L 456.85852 29.94 
L 454.062866 29.94 
L 451.267212 29.94 
L 448.471558 29.94 
L 445.675904 29.94 
L 442.88025 29.94 
L 440.084596 29.94 
L 437.288942 29.94 
L 434.493288 29.94 
L 431.697634 29.94 
L 428.90198 29.94 
L 426.106326 29.94 
L 423.310672 29.94 
L 420.515018 29.94 
L 417.719364 29.94 
L 414.92371 29.94 
L 412.128056 29.94 
L 409.332402 29.94 
L 406.536748 29.94 
L 403.741094 29.94 
L 400.94544 29.94 
L 398.149786 29.94 
L 395.354132 29.94 
L 392.558478 29.94 
L 389.762824 29.94 
L 386.96717 29.94 
L 384.171516 29.94 
L 381.375862 29.94 
L 378.580208 29.94 
L 375.784554 29.94 
L 372.9889 29.94 
L 370.193246 29.94 
L 367.397592 29.94 
L 364.601938 29.94 
L 361.806284 29.94 
L 359.01063 29.94 
L 356.214976 29.94 
L 353.419322 29.94 
L 350.623668 29.94 
L 347.828014 29.94 
L 345.03236 29.94 
L 342.236707 29.94 
L 339.441053 29.94 
L 336.645399 29.94 
L 333.849745 29.94 
L 331.054091 29.94 
L 328.258437 29.94 
L 325.462783 29.94 
L 322.667129 29.94 
L 319.871475 29.94 
L 317.075821 29.94 
L 314.280167 29.94 
L 311.484513 29.94 
L 308.688859 29.94 
L 305.893205 29.94 
L 303.097551 29.94 
L 300.301897 29.94 
L 297.506243 29.94 
L 294.710589 29.94 
L 291.914935 29.94 
L 289.119281 29.94 
L 286.323627 29.94 
L 283.527973 29.94 
L 280.732319 29.94 
L 277.936665 29.94 
L 275.141011 29.94 
L 272.345357 29.94 
L 269.549703 29.94 
L 266.754049 29.94 
L 263.958395 29.94 
L 261.162741 29.94 
L 258.367087 29.94 
L 255.571433 29.94 
L 252.775779 29.94 
L 249.980125 29.94 
L 247.184471 29.94 
L 244.388817 29.94 
L 241.593163 29.94 
L 238.797509 29.94 
L 236.001855 29.94 
L 233.206201 29.94 
L 230.410547 29.94 
L 227.614893 29.94 
L 224.819239 29.94 
L 222.023585 29.94 
L 219.227931 29.94 
L 216.432277 29.94 
L 213.636623 29.94 
L 210.840969 29.94 
L 208.045315 29.94 
L 205.249661 29.94 
L 202.454007 29.94 
L 199.658353 29.94 
L 196.862699 29.94 
L 194.067045 29.94 
L 191.271391 29.94 
L 188.475737 29.94 
L 185.680083 29.94 
L 182.884429 29.94 
L 180.088775 29.94 
L 177.293121 29.94 
L 174.497467 29.94 
L 171.701813 29.94 
L 168.906159 29.94 
L 166.110505 29.94 
L 163.314851 29.94 
L 160.519197 29.94 
L 157.723543 29.94 
L 154.927889 29.94 
L 152.132236 29.94 
L 149.336582 29.94 
L 146.540928 29.94 
L 143.745274 29.94 
L 140.94962 29.94 
L 138.153966 29.94 
L 135.358312 29.94 
L 132.562658 29.94 
L 129.767004 29.94 
L 126.97135 29.94 
L 124.175696 29.94 
L 121.380042 29.94 
L 118.584388 29.94 
L 115.788734 29.94 
L 112.99308 29.94 
L 110.197426 29.94 
L 107.401772 29.94 
L 104.606118 29.94 
L 101.810464 29.94 
L 99.01481 29.94 
L 96.219156 29.94 
L 93.423502 29.94 
L 90.627848 29.94 
L 87.832194 29.94 
L 85.03654 29.94 
L 82.240886 29.94 
L 79.445232 29.94 
L 76.649578 29.94 
L 73.853924 29.94 
L 71.05827 29.94 
L 68.262616 29.94 
L 65.466962 29.94 
L 62.671308 29.94 
z
" clip-path="url(#pa53d191e87)" style="fill: #8d5993; stroke: #ffffff"/>
   </g>
   <g id="line2d_11">
    <path d="M 57.08 134.961242 
L 666.532569 134.961242 
" clip-path="url(#pa53d191e87)" style="fill: none; stroke-dasharray: 7.5,15; stroke-dashoffset: 0; stroke: #000000; stroke-width: 1.5"/>
   </g>
   <g id="patch_3">
    <path d="M 57.08 468.165 
L 57.08 29.94 
" style="fill: none; stroke: #cccccc; stroke-width: 0.8; stroke-linejoin: miter; stroke-linecap: square"/>
   </g>
   <g id="patch_4">
    <path d="M 666.532569 468.165 
L 666.532569 29.94 
" style="fill: none; stroke: #cccccc; stroke-width: 0.8; stroke-linejoin: miter; stroke-linecap: square"/>
   </g>
   <g id="patch_5">
    <path d="M 57.08 468.165 
L 666.532569 468.165 
" style="fill: none; stroke: #cccccc; stroke-width: 0.8; stroke-linejoin: miter; stroke-linecap: square"/>
   </g>
   <g id="patch_6">
    <path d="M 57.08 29.94 
L 666.532569 29.94 
" style="fill: none; stroke: #cccccc; stroke-width: 0.8; stroke-linejoin: miter; stroke-linecap: square"/>
   </g>
   <g id="text_13">
    <!-- 0.76 -->
    <g transform="translate(686.102147 138.324523) scale(0.14 -0.14)">
     <defs>
      <path id="TimesNewRomanPSMT-30" d="M 231 2094 
Q 231 2819 450 3342 
Q 669 3866 1031 4122 
Q 1313 4325 1613 4325 
Q 2100 4325 2488 3828 
Q 2972 3213 2972 2159 
Q 2972 1422 2759 906 
Q 2547 391 2217 158 
Q 1888 -75 1581 -75 
Q 975 -75 572 641 
Q 231 1244 231 2094 
z
M 844 2016 
Q 844 1141 1059 588 
Q 1238 122 1591 122 
Q 1759 122 1940 273 
Q 2122 425 2216 781 
Q 2359 1319 2359 2297 
Q 2359 3022 2209 3506 
Q 2097 3866 1919 4016 
Q 1791 4119 1609 4119 
Q 1397 4119 1231 3928 
Q 1006 3669 925 3112 
Q 844 2556 844 2016 
z
" transform="scale(0.015625)"/>
      <path id="TimesNewRomanPSMT-2e" d="M 800 606 
Q 947 606 1047 504 
Q 1147 403 1147 259 
Q 1147 116 1045 14 
Q 944 -88 800 -88 
Q 656 -88 554 14 
Q 453 116 453 259 
Q 453 406 554 506 
Q 656 606 800 606 
z
" transform="scale(0.015625)"/>
      <path id="TimesNewRomanPSMT-37" d="M 644 4238 
L 2916 4238 
L 2916 4119 
L 1503 -88 
L 1153 -88 
L 2419 3728 
L 1253 3728 
Q 900 3728 750 3644 
Q 488 3500 328 3200 
L 238 3234 
L 644 4238 
z
" transform="scale(0.015625)"/>
      <path id="TimesNewRomanPSMT-36" d="M 2869 4325 
L 2869 4209 
Q 2456 4169 2195 4045 
Q 1934 3922 1679 3669 
Q 1425 3416 1258 3105 
Q 1091 2794 978 2366 
Q 1428 2675 1881 2675 
Q 2316 2675 2634 2325 
Q 2953 1975 2953 1425 
Q 2953 894 2631 456 
Q 2244 -75 1606 -75 
Q 1172 -75 869 213 
Q 275 772 275 1663 
Q 275 2231 503 2743 
Q 731 3256 1154 3653 
Q 1578 4050 1965 4187 
Q 2353 4325 2688 4325 
L 2869 4325 
z
M 925 2138 
Q 869 1716 869 1456 
Q 869 1156 980 804 
Q 1091 453 1309 247 
Q 1469 100 1697 100 
Q 1969 100 2183 356 
Q 2397 613 2397 1088 
Q 2397 1622 2184 2012 
Q 1972 2403 1581 2403 
Q 1463 2403 1327 2353 
Q 1191 2303 925 2138 
z
" transform="scale(0.015625)"/>
     </defs>
     <use xlink:href="#TimesNewRomanPSMT-30"/>
     <use xlink:href="#TimesNewRomanPSMT-2e" transform="translate(50 0)"/>
     <use xlink:href="#TimesNewRomanPSMT-37" transform="translate(75 0)"/>
     <use xlink:href="#TimesNewRomanPSMT-36" transform="translate(125 0)"/>
    </g>
   </g>
   <g id="text_14">
    <!-- Arwen (Rhesus) -->
    <g style="fill: #262626" transform="translate(293.196909 23.94) scale(0.2 -0.2)">
     <defs>
      <path id="TimesNewRomanPS-BoldMT-41" d="M 2663 1206 
L 1166 1206 
L 988 794 
Q 900 588 900 453 
Q 900 275 1044 191 
Q 1128 141 1459 116 
L 1459 0 
L 50 0 
L 50 116 
Q 278 150 425 304 
Q 572 459 788 944 
L 2303 4325 
L 2363 4325 
L 3891 850 
Q 4109 356 4250 228 
Q 4356 131 4550 116 
L 4550 0 
L 2500 0 
L 2500 116 
L 2584 116 
Q 2831 116 2931 184 
Q 3000 234 3000 328 
Q 3000 384 2981 444 
Q 2975 472 2888 678 
L 2663 1206 
z
M 2556 1438 
L 1925 2897 
L 1275 1438 
L 2556 1438 
z
" transform="scale(0.015625)"/>
      <path id="TimesNewRomanPS-BoldMT-72" d="M 1428 2922 
L 1428 2259 
Q 1719 2713 1937 2861 
Q 2156 3009 2359 3009 
Q 2534 3009 2639 2901 
Q 2744 2794 2744 2597 
Q 2744 2388 2642 2272 
Q 2541 2156 2397 2156 
Q 2231 2156 2109 2262 
Q 1988 2369 1966 2381 
Q 1934 2400 1894 2400 
Q 1803 2400 1722 2331 
Q 1594 2225 1528 2028 
Q 1428 1725 1428 1359 
L 1428 688 
L 1431 513 
Q 1431 334 1453 284 
Q 1491 200 1564 161 
Q 1638 122 1813 113 
L 1813 0 
L 234 0 
L 234 113 
Q 425 128 492 217 
Q 559 306 559 688 
L 559 2303 
Q 559 2553 534 2622 
Q 503 2709 443 2750 
Q 384 2791 234 2806 
L 234 2922 
L 1428 2922 
z
" transform="scale(0.015625)"/>
      <path id="TimesNewRomanPS-BoldMT-77" d="M 3113 -88 
L 2313 2056 
L 1528 -88 
L 1366 -88 
L 588 2031 
Q 413 2516 291 2663 
Q 213 2763 53 2806 
L 53 2922 
L 1528 2922 
L 1528 2806 
Q 1378 2806 1322 2762 
Q 1266 2719 1266 2663 
Q 1266 2609 1366 2344 
L 1794 1203 
L 2206 2344 
L 2175 2419 
Q 2081 2653 2011 2717 
Q 1941 2781 1794 2806 
L 1794 2922 
L 3291 2922 
L 3291 2806 
Q 3116 2797 3069 2758 
Q 3022 2719 3022 2647 
Q 3022 2578 3113 2344 
L 3525 1203 
L 3900 2253 
Q 3981 2478 3981 2559 
Q 3981 2681 3922 2737 
Q 3863 2794 3691 2806 
L 3691 2922 
L 4556 2922 
L 4556 2806 
Q 4413 2788 4328 2705 
Q 4244 2622 4109 2234 
L 3291 -88 
L 3113 -88 
z
" transform="scale(0.015625)"/>
      <path id="TimesNewRomanPS-BoldMT-65" d="M 2691 1566 
L 1088 1566 
Q 1116 984 1397 647 
Q 1613 388 1916 388 
Q 2103 388 2256 492 
Q 2409 597 2584 869 
L 2691 800 
Q 2453 316 2165 114 
Q 1878 -88 1500 -88 
Q 850 -88 516 413 
Q 247 816 247 1413 
Q 247 2144 642 2576 
Q 1038 3009 1569 3009 
Q 2013 3009 2339 2645 
Q 2666 2281 2691 1566 
z
M 1922 1775 
Q 1922 2278 1867 2465 
Q 1813 2653 1697 2750 
Q 1631 2806 1522 2806 
Q 1359 2806 1256 2647 
Q 1072 2369 1072 1884 
L 1072 1775 
L 1922 1775 
z
" transform="scale(0.015625)"/>
      <path id="TimesNewRomanPS-BoldMT-6e" d="M 1409 2922 
L 1409 2544 
Q 1634 2788 1840 2898 
Q 2047 3009 2284 3009 
Q 2569 3009 2756 2851 
Q 2944 2694 3006 2459 
Q 3056 2281 3056 1775 
L 3056 638 
Q 3056 300 3117 217 
Q 3178 134 3372 113 
L 3372 0 
L 1894 0 
L 1894 113 
Q 2059 134 2131 250 
Q 2181 328 2181 638 
L 2181 1938 
Q 2181 2297 2153 2390 
Q 2125 2484 2058 2536 
Q 1991 2588 1909 2588 
Q 1641 2588 1409 2203 
L 1409 638 
Q 1409 309 1470 221 
Q 1531 134 1697 113 
L 1697 0 
L 219 0 
L 219 113 
Q 403 131 481 231 
Q 534 300 534 638 
L 534 2288 
Q 534 2619 473 2700 
Q 413 2781 219 2806 
L 219 2922 
L 1409 2922 
z
" transform="scale(0.015625)"/>
      <path id="TimesNewRomanPS-BoldMT-20" transform="scale(0.015625)"/>
      <path id="TimesNewRomanPS-BoldMT-28" d="M 2056 4334 
L 2056 4191 
Q 1731 3978 1578 3775 
Q 1366 3494 1247 3053 
Q 1097 2506 1097 1525 
Q 1097 600 1233 87 
Q 1369 -425 1603 -741 
Q 1766 -959 2056 -1125 
L 2056 -1281 
Q 1303 -1028 779 -248 
Q 256 531 256 1544 
Q 256 2544 778 3314 
Q 1300 4084 2056 4334 
z
" transform="scale(0.015625)"/>
      <path id="TimesNewRomanPS-BoldMT-52" d="M 1700 1931 
L 1700 744 
Q 1700 400 1742 311 
Q 1784 222 1890 169 
Q 1997 116 2288 116 
L 2288 0 
L 119 0 
L 119 116 
Q 413 116 517 170 
Q 622 225 664 312 
Q 706 400 706 744 
L 706 3494 
Q 706 3838 664 3927 
Q 622 4016 515 4069 
Q 409 4122 119 4122 
L 119 4238 
L 2088 4238 
Q 2856 4238 3212 4131 
Q 3569 4025 3794 3739 
Q 4019 3453 4019 3069 
Q 4019 2600 3681 2294 
Q 3466 2100 3078 2003 
L 4097 569 
Q 4297 291 4381 222 
Q 4509 125 4678 116 
L 4678 0 
L 3344 0 
L 1978 1931 
L 1700 1931 
z
M 1700 4009 
L 1700 2153 
L 1878 2153 
Q 2313 2153 2528 2233 
Q 2744 2313 2867 2520 
Q 2991 2728 2991 3063 
Q 2991 3547 2764 3778 
Q 2538 4009 2034 4009 
L 1700 4009 
z
" transform="scale(0.015625)"/>
      <path id="TimesNewRomanPS-BoldMT-68" d="M 1409 4238 
L 1409 2547 
Q 1650 2800 1850 2904 
Q 2050 3009 2266 3009 
Q 2541 3009 2736 2853 
Q 2931 2697 2995 2486 
Q 3059 2275 3059 1775 
L 3059 634 
Q 3059 300 3121 217 
Q 3184 134 3375 113 
L 3375 0 
L 1894 0 
L 1894 113 
Q 2050 134 2128 238 
Q 2184 319 2184 634 
L 2184 1938 
Q 2184 2300 2156 2392 
Q 2128 2484 2061 2536 
Q 1994 2588 1909 2588 
Q 1784 2588 1665 2502 
Q 1547 2416 1409 2200 
L 1409 634 
Q 1409 322 1456 244 
Q 1516 138 1700 113 
L 1700 0 
L 219 0 
L 219 113 
Q 403 131 481 231 
Q 534 300 534 634 
L 534 3603 
Q 534 3934 473 4015 
Q 413 4097 219 4122 
L 219 4238 
L 1409 4238 
z
" transform="scale(0.015625)"/>
      <path id="TimesNewRomanPS-BoldMT-73" d="M 2063 3003 
L 2109 2006 
L 2003 2006 
Q 1813 2450 1608 2612 
Q 1403 2775 1200 2775 
Q 1072 2775 981 2689 
Q 891 2603 891 2491 
Q 891 2406 953 2328 
Q 1053 2200 1512 1889 
Q 1972 1578 2117 1361 
Q 2263 1144 2263 875 
Q 2263 631 2141 397 
Q 2019 163 1797 37 
Q 1575 -88 1306 -88 
Q 1097 -88 747 44 
Q 653 78 619 78 
Q 516 78 447 -78 
L 344 -78 
L 294 972 
L 400 972 
Q 541 559 786 353 
Q 1031 147 1250 147 
Q 1400 147 1495 239 
Q 1591 331 1591 463 
Q 1591 613 1497 722 
Q 1403 831 1078 1053 
Q 600 1384 459 1559 
Q 253 1816 253 2125 
Q 253 2463 486 2736 
Q 719 3009 1159 3009 
Q 1397 3009 1619 2894 
Q 1703 2847 1756 2847 
Q 1813 2847 1847 2870 
Q 1881 2894 1956 3003 
L 2063 3003 
z
" transform="scale(0.015625)"/>
      <path id="TimesNewRomanPS-BoldMT-75" d="M 3038 2922 
L 3038 634 
Q 3038 300 3100 217 
Q 3163 134 3353 113 
L 3353 0 
L 2163 0 
L 2163 391 
Q 1953 141 1743 26 
Q 1534 -88 1275 -88 
Q 1028 -88 836 64 
Q 644 216 578 419 
Q 513 622 513 1128 
L 513 2288 
Q 513 2619 452 2700 
Q 391 2781 197 2806 
L 197 2922 
L 1388 2922 
L 1388 925 
Q 1388 613 1417 522 
Q 1447 431 1511 384 
Q 1575 338 1659 338 
Q 1772 338 1863 397 
Q 1988 478 2163 725 
L 2163 2288 
Q 2163 2619 2102 2700 
Q 2041 2781 1847 2806 
L 1847 2922 
L 3038 2922 
z
" transform="scale(0.015625)"/>
      <path id="TimesNewRomanPS-BoldMT-29" d="M 78 -1281 
L 78 -1138 
Q 403 -922 556 -719 
Q 766 -438 888 0 
Q 1038 550 1038 1531 
Q 1038 2456 902 2967 
Q 766 3478 531 3794 
Q 369 4013 78 4178 
L 78 4334 
Q 831 4081 1354 3301 
Q 1878 2522 1878 1509 
Q 1878 513 1354 -257 
Q 831 -1028 78 -1281 
z
" transform="scale(0.015625)"/>
     </defs>
     <use xlink:href="#TimesNewRomanPS-BoldMT-41"/>
     <use xlink:href="#TimesNewRomanPS-BoldMT-72" transform="translate(72.216797 0)"/>
     <use xlink:href="#TimesNewRomanPS-BoldMT-77" transform="translate(116.601562 0)"/>
     <use xlink:href="#TimesNewRomanPS-BoldMT-65" transform="translate(188.818359 0)"/>
     <use xlink:href="#TimesNewRomanPS-BoldMT-6e" transform="translate(233.203125 0)"/>
     <use xlink:href="#TimesNewRomanPS-BoldMT-20" transform="translate(288.818359 0)"/>
     <use xlink:href="#TimesNewRomanPS-BoldMT-28" transform="translate(313.818359 0)"/>
     <use xlink:href="#TimesNewRomanPS-BoldMT-52" transform="translate(347.119141 0)"/>
     <use xlink:href="#TimesNewRomanPS-BoldMT-68" transform="translate(419.335938 0)"/>
     <use xlink:href="#TimesNewRomanPS-BoldMT-65" transform="translate(474.951172 0)"/>
     <use xlink:href="#TimesNewRomanPS-BoldMT-73" transform="translate(519.335938 0)"/>
     <use xlink:href="#TimesNewRomanPS-BoldMT-75" transform="translate(558.251953 0)"/>
     <use xlink:href="#TimesNewRomanPS-BoldMT-73" transform="translate(613.867188 0)"/>
     <use xlink:href="#TimesNewRomanPS-BoldMT-29" transform="translate(652.783203 0)"/>
    </g>
   </g>
   <g id="legend_1">
    <g id="patch_7">
     <path d="M 64.08 94.49625 
L 149.976875 94.49625 
Q 151.976875 94.49625 151.976875 92.49625 
L 151.976875 36.94 
Q 151.976875 34.94 149.976875 34.94 
L 64.08 34.94 
Q 62.08 34.94 62.08 36.94 
L 62.08 92.49625 
Q 62.08 94.49625 64.08 94.49625 
z
" style="fill: #ffffff; opacity: 0.8; stroke: #cccccc; stroke-linejoin: miter"/>
    </g>
    <g id="patch_8">
     <path d="M 66.08 45.94 
L 86.08 45.94 
L 86.08 38.94 
L 66.08 38.94 
z
" style="fill: #5386b6; stroke: #ffffff; stroke-linejoin: miter"/>
    </g>
    <g id="text_15">
     <!-- Success -->
     <g style="fill: #262626" transform="translate(94.08 45.94) scale(0.1 -0.1)">
      <use xlink:href="#TimesNewRomanPSMT-53"/>
      <use xlink:href="#TimesNewRomanPSMT-75" transform="translate(55.615234 0)"/>
      <use xlink:href="#TimesNewRomanPSMT-63" transform="translate(105.615234 0)"/>
      <use xlink:href="#TimesNewRomanPSMT-63" transform="translate(150 0)"/>
      <use xlink:href="#TimesNewRomanPSMT-65" transform="translate(194.384766 0)"/>
      <use xlink:href="#TimesNewRomanPSMT-73" transform="translate(238.769531 0)"/>
      <use xlink:href="#TimesNewRomanPSMT-73" transform="translate(277.685547 0)"/>
     </g>
    </g>
    <g id="patch_9">
     <path d="M 66.08 60.079062 
L 86.08 60.079062 
L 86.08 53.079062 
L 66.08 53.079062 
z
" style="fill: #d57459; stroke: #ffffff; stroke-linejoin: miter"/>
    </g>
    <g id="text_16">
     <!-- Error -->
     <g style="fill: #262626" transform="translate(94.08 60.079062) scale(0.1 -0.1)">
      <defs>
       <path id="TimesNewRomanPSMT-45" d="M 1338 4006 
L 1338 2331 
L 2269 2331 
Q 2631 2331 2753 2441 
Q 2916 2584 2934 2947 
L 3050 2947 
L 3050 1472 
L 2934 1472 
Q 2891 1781 2847 1869 
Q 2791 1978 2662 2040 
Q 2534 2103 2269 2103 
L 1338 2103 
L 1338 706 
Q 1338 425 1363 364 
Q 1388 303 1450 267 
Q 1513 231 1688 231 
L 2406 231 
Q 2766 231 2928 281 
Q 3091 331 3241 478 
Q 3434 672 3638 1063 
L 3763 1063 
L 3397 0 
L 131 0 
L 131 116 
L 281 116 
Q 431 116 566 188 
Q 666 238 702 338 
Q 738 438 738 747 
L 738 3500 
Q 738 3903 656 3997 
Q 544 4122 281 4122 
L 131 4122 
L 131 4238 
L 3397 4238 
L 3444 3309 
L 3322 3309 
Q 3256 3644 3176 3769 
Q 3097 3894 2941 3959 
Q 2816 4006 2500 4006 
L 1338 4006 
z
" transform="scale(0.015625)"/>
      </defs>
      <use xlink:href="#TimesNewRomanPSMT-45"/>
      <use xlink:href="#TimesNewRomanPSMT-72" transform="translate(61.083984 0)"/>
      <use xlink:href="#TimesNewRomanPSMT-72" transform="translate(94.384766 0)"/>
      <use xlink:href="#TimesNewRomanPSMT-6f" transform="translate(127.685547 0)"/>
      <use xlink:href="#TimesNewRomanPSMT-72" transform="translate(177.685547 0)"/>
     </g>
    </g>
    <g id="patch_10">
     <path d="M 66.08 74.218125 
L 86.08 74.218125 
L 86.08 67.218125 
L 66.08 67.218125 
z
" style="fill: #e8bc60; stroke: #ffffff; stroke-linejoin: miter"/>
    </g>
    <g id="text_17">
     <!-- Premature -->
     <g style="fill: #262626" transform="translate(94.08 74.218125) scale(0.1 -0.1)">
      <defs>
       <path id="TimesNewRomanPSMT-6d" d="M 1050 2338 
Q 1363 2650 1419 2697 
Q 1559 2816 1721 2881 
Q 1884 2947 2044 2947 
Q 2313 2947 2506 2790 
Q 2700 2634 2766 2338 
Q 3088 2713 3309 2830 
Q 3531 2947 3766 2947 
Q 3994 2947 4170 2830 
Q 4347 2713 4450 2447 
Q 4519 2266 4519 1878 
L 4519 647 
Q 4519 378 4559 278 
Q 4591 209 4675 161 
Q 4759 113 4950 113 
L 4950 0 
L 3538 0 
L 3538 113 
L 3597 113 
Q 3781 113 3884 184 
Q 3956 234 3988 344 
Q 4000 397 4000 647 
L 4000 1878 
Q 4000 2228 3916 2372 
Q 3794 2572 3525 2572 
Q 3359 2572 3192 2489 
Q 3025 2406 2788 2181 
L 2781 2147 
L 2788 2013 
L 2788 647 
Q 2788 353 2820 281 
Q 2853 209 2943 161 
Q 3034 113 3253 113 
L 3253 0 
L 1806 0 
L 1806 113 
Q 2044 113 2133 169 
Q 2222 225 2256 338 
Q 2272 391 2272 647 
L 2272 1878 
Q 2272 2228 2169 2381 
Q 2031 2581 1784 2581 
Q 1616 2581 1450 2491 
Q 1191 2353 1050 2181 
L 1050 647 
Q 1050 366 1089 281 
Q 1128 197 1204 155 
Q 1281 113 1516 113 
L 1516 0 
L 100 0 
L 100 113 
Q 297 113 375 155 
Q 453 197 493 289 
Q 534 381 534 647 
L 534 1741 
Q 534 2213 506 2350 
Q 484 2453 437 2492 
Q 391 2531 309 2531 
Q 222 2531 100 2484 
L 53 2597 
L 916 2947 
L 1050 2947 
L 1050 2338 
z
" transform="scale(0.015625)"/>
      </defs>
      <use xlink:href="#TimesNewRomanPSMT-50"/>
      <use xlink:href="#TimesNewRomanPSMT-72" transform="translate(55.615234 0)"/>
      <use xlink:href="#TimesNewRomanPSMT-65" transform="translate(88.916016 0)"/>
      <use xlink:href="#TimesNewRomanPSMT-6d" transform="translate(133.300781 0)"/>
      <use xlink:href="#TimesNewRomanPSMT-61" transform="translate(211.083984 0)"/>
      <use xlink:href="#TimesNewRomanPSMT-74" transform="translate(255.46875 0)"/>
      <use xlink:href="#TimesNewRomanPSMT-75" transform="translate(283.251953 0)"/>
      <use xlink:href="#TimesNewRomanPSMT-72" transform="translate(333.251953 0)"/>
      <use xlink:href="#TimesNewRomanPSMT-65" transform="translate(366.552734 0)"/>
     </g>
    </g>
    <g id="patch_11">
     <path d="M 66.08 88.357187 
L 86.08 88.357187 
L 86.08 81.357187 
L 66.08 81.357187 
z
" style="fill: #8d5993; stroke: #ffffff; stroke-linejoin: miter"/>
    </g>
    <g id="text_18">
     <!-- Stepomission -->
     <g style="fill: #262626" transform="translate(94.08 88.357187) scale(0.1 -0.1)">
      <use xlink:href="#TimesNewRomanPSMT-53"/>
      <use xlink:href="#TimesNewRomanPSMT-74" transform="translate(55.615234 0)"/>
      <use xlink:href="#TimesNewRomanPSMT-65" transform="translate(83.398438 0)"/>
      <use xlink:href="#TimesNewRomanPSMT-70" transform="translate(127.783203 0)"/>
      <use xlink:href="#TimesNewRomanPSMT-6f" transform="translate(177.783203 0)"/>
      <use xlink:href="#TimesNewRomanPSMT-6d" transform="translate(227.783203 0)"/>
      <use xlink:href="#TimesNewRomanPSMT-69" transform="translate(305.566406 0)"/>
      <use xlink:href="#TimesNewRomanPSMT-73" transform="translate(333.349609 0)"/>
      <use xlink:href="#TimesNewRomanPSMT-73" transform="translate(372.265625 0)"/>
      <use xlink:href="#TimesNewRomanPSMT-69" transform="translate(411.181641 0)"/>
      <use xlink:href="#TimesNewRomanPSMT-6f" transform="translate(438.964844 0)"/>
      <use xlink:href="#TimesNewRomanPSMT-6e" transform="translate(488.964844 0)"/>
     </g>
    </g>
   </g>
  </g>
  <g id="axes_2">
   <g id="patch_12">
    <path d="M 57.08 675.16 
L 666.532569 675.16 
L 666.532569 529.085 
L 57.08 529.085 
z
" style="fill: #ffffff"/>
   </g>
   <g id="matplotlib.axis_3">
    <g id="xtick_9">
     <g id="line2d_12">
      <path d="M 169.421487 675.16 
L 169.421487 529.085 
" clip-path="url(#p4694aa9fe3)" style="fill: none; stroke-dasharray: 2.96,1.28; stroke-dashoffset: 0; stroke: #cccccc; stroke-opacity: 0.5; stroke-width: 0.8"/>
     </g>
     <g id="text_19">
      <!-- 2023 -->
      <g style="fill: #262626" transform="translate(158.299612 689.317812) scale(0.1 -0.1)">
       <defs>
        <path id="ArialMT-33" d="M 269 1209 
L 831 1284 
Q 928 806 1161 595 
Q 1394 384 1728 384 
Q 2125 384 2398 659 
Q 2672 934 2672 1341 
Q 2672 1728 2419 1979 
Q 2166 2231 1775 2231 
Q 1616 2231 1378 2169 
L 1441 2663 
Q 1497 2656 1531 2656 
Q 1891 2656 2178 2843 
Q 2466 3031 2466 3422 
Q 2466 3731 2256 3934 
Q 2047 4138 1716 4138 
Q 1388 4138 1169 3931 
Q 950 3725 888 3313 
L 325 3413 
Q 428 3978 793 4289 
Q 1159 4600 1703 4600 
Q 2078 4600 2393 4439 
Q 2709 4278 2876 4000 
Q 3044 3722 3044 3409 
Q 3044 3113 2884 2869 
Q 2725 2625 2413 2481 
Q 2819 2388 3044 2092 
Q 3269 1797 3269 1353 
Q 3269 753 2831 336 
Q 2394 -81 1725 -81 
Q 1122 -81 723 278 
Q 325 638 269 1209 
z
" transform="scale(0.015625)"/>
       </defs>
       <use xlink:href="#ArialMT-32"/>
       <use xlink:href="#ArialMT-30" transform="translate(55.615234 0)"/>
       <use xlink:href="#ArialMT-32" transform="translate(111.230469 0)"/>
       <use xlink:href="#ArialMT-33" transform="translate(166.845703 0)"/>
      </g>
     </g>
    </g>
    <g id="xtick_10">
     <g id="line2d_13">
      <path d="M 340.742256 675.16 
L 340.742256 529.085 
" clip-path="url(#p4694aa9fe3)" style="fill: none; stroke-dasharray: 2.96,1.28; stroke-dashoffset: 0; stroke: #cccccc; stroke-opacity: 0.5; stroke-width: 0.8"/>
     </g>
     <g id="text_20">
      <!-- 2024 -->
      <g style="fill: #262626" transform="translate(329.620381 689.317812) scale(0.1 -0.1)">
       <defs>
        <path id="ArialMT-34" d="M 2069 0 
L 2069 1097 
L 81 1097 
L 81 1613 
L 2172 4581 
L 2631 4581 
L 2631 1613 
L 3250 1613 
L 3250 1097 
L 2631 1097 
L 2631 0 
L 2069 0 
z
M 2069 1613 
L 2069 3678 
L 634 1613 
L 2069 1613 
z
" transform="scale(0.015625)"/>
       </defs>
       <use xlink:href="#ArialMT-32"/>
       <use xlink:href="#ArialMT-30" transform="translate(55.615234 0)"/>
       <use xlink:href="#ArialMT-32" transform="translate(111.230469 0)"/>
       <use xlink:href="#ArialMT-34" transform="translate(166.845703 0)"/>
      </g>
     </g>
    </g>
    <g id="xtick_11">
     <g id="line2d_14">
      <path d="M 510.658755 675.16 
L 510.658755 529.085 
" clip-path="url(#p4694aa9fe3)" style="fill: none; stroke-dasharray: 2.96,1.28; stroke-dashoffset: 0; stroke: #cccccc; stroke-opacity: 0.5; stroke-width: 0.8"/>
     </g>
     <g id="text_21">
      <!-- 2024 -->
      <g style="fill: #262626" transform="translate(499.53688 689.317812) scale(0.1 -0.1)">
       <use xlink:href="#ArialMT-32"/>
       <use xlink:href="#ArialMT-30" transform="translate(55.615234 0)"/>
       <use xlink:href="#ArialMT-32" transform="translate(111.230469 0)"/>
       <use xlink:href="#ArialMT-34" transform="translate(166.845703 0)"/>
      </g>
     </g>
    </g>
    <g id="text_22">
     <!-- Date -->
     <g style="fill: #262626" transform="translate(348.591597 705.026562) scale(0.14 -0.14)">
      <defs>
       <path id="TimesNewRomanPSMT-44" d="M 109 0 
L 109 116 
L 269 116 
Q 538 116 650 288 
Q 719 391 719 750 
L 719 3488 
Q 719 3884 631 3984 
Q 509 4122 269 4122 
L 109 4122 
L 109 4238 
L 1834 4238 
Q 2784 4238 3279 4022 
Q 3775 3806 4076 3303 
Q 4378 2800 4378 2141 
Q 4378 1256 3841 663 
Q 3238 0 2003 0 
L 109 0 
z
M 1319 306 
Q 1716 219 1984 219 
Q 2709 219 3187 728 
Q 3666 1238 3666 2109 
Q 3666 2988 3187 3494 
Q 2709 4000 1959 4000 
Q 1678 4000 1319 3909 
L 1319 306 
z
" transform="scale(0.015625)"/>
      </defs>
      <use xlink:href="#TimesNewRomanPSMT-44"/>
      <use xlink:href="#TimesNewRomanPSMT-61" transform="translate(72.216797 0)"/>
      <use xlink:href="#TimesNewRomanPSMT-74" transform="translate(116.601562 0)"/>
      <use xlink:href="#TimesNewRomanPSMT-65" transform="translate(144.384766 0)"/>
     </g>
    </g>
   </g>
   <g id="matplotlib.axis_4">
    <g id="ytick_3">
     <g id="line2d_15">
      <path d="M 57.08 675.16 
L 666.532569 675.16 
" clip-path="url(#p4694aa9fe3)" style="fill: none; stroke-dasharray: 2.96,1.28; stroke-dashoffset: 0; stroke: #cccccc; stroke-opacity: 0.5; stroke-width: 0.8"/>
     </g>
     <g id="text_23">
      <!-- 700 -->
      <g style="fill: #262626" transform="translate(33.397188 678.738906) scale(0.1 -0.1)">
       <use xlink:href="#ArialMT-37"/>
       <use xlink:href="#ArialMT-30" transform="translate(55.615234 0)"/>
       <use xlink:href="#ArialMT-30" transform="translate(111.230469 0)"/>
      </g>
     </g>
    </g>
    <g id="ytick_4">
     <g id="line2d_16">
      <path d="M 57.08 602.1225 
L 666.532569 602.1225 
" clip-path="url(#p4694aa9fe3)" style="fill: none; stroke-dasharray: 2.96,1.28; stroke-dashoffset: 0; stroke: #cccccc; stroke-opacity: 0.5; stroke-width: 0.8"/>
     </g>
     <g id="text_24">
      <!-- 1000 -->
      <g style="fill: #262626" transform="translate(27.83625 605.701406) scale(0.1 -0.1)">
       <use xlink:href="#ArialMT-31"/>
       <use xlink:href="#ArialMT-30" transform="translate(55.615234 0)"/>
       <use xlink:href="#ArialMT-30" transform="translate(111.230469 0)"/>
       <use xlink:href="#ArialMT-30" transform="translate(166.845703 0)"/>
      </g>
     </g>
    </g>
    <g id="ytick_5">
     <g id="line2d_17">
      <path d="M 57.08 529.085 
L 666.532569 529.085 
" clip-path="url(#p4694aa9fe3)" style="fill: none; stroke-dasharray: 2.96,1.28; stroke-dashoffset: 0; stroke: #cccccc; stroke-opacity: 0.5; stroke-width: 0.8"/>
     </g>
     <g id="text_25">
      <!-- 1300 -->
      <g style="fill: #262626" transform="translate(27.83625 532.663906) scale(0.1 -0.1)">
       <use xlink:href="#ArialMT-31"/>
       <use xlink:href="#ArialMT-33" transform="translate(55.615234 0)"/>
       <use xlink:href="#ArialMT-30" transform="translate(111.230469 0)"/>
       <use xlink:href="#ArialMT-30" transform="translate(166.845703 0)"/>
      </g>
     </g>
    </g>
    <g id="text_26">
     <!-- Elo -->
     <g style="fill: #262626" transform="translate(20.841563 611.842656) rotate(-90) scale(0.14 -0.14)">
      <defs>
       <path id="TimesNewRomanPSMT-6c" d="M 1184 4444 
L 1184 647 
Q 1184 378 1223 290 
Q 1263 203 1344 158 
Q 1425 113 1647 113 
L 1647 0 
L 244 0 
L 244 113 
Q 441 113 512 153 
Q 584 194 625 287 
Q 666 381 666 647 
L 666 3247 
Q 666 3731 644 3842 
Q 622 3953 573 3993 
Q 525 4034 450 4034 
Q 369 4034 244 3984 
L 191 4094 
L 1044 4444 
L 1184 4444 
z
" transform="scale(0.015625)"/>
      </defs>
      <use xlink:href="#TimesNewRomanPSMT-45"/>
      <use xlink:href="#TimesNewRomanPSMT-6c" transform="translate(61.083984 0)"/>
      <use xlink:href="#TimesNewRomanPSMT-6f" transform="translate(88.867188 0)"/>
     </g>
    </g>
   </g>
   <g id="line2d_18">
    <path d="M 57.08 559.517292 
L 61.292806 558.056542 
L 62.697074 557.082708 
L 64.101343 558.056542 
L 65.505612 557.326167 
L 66.90988 559.76075 
L 71.122686 559.76075 
L 72.526955 560.004208 
L 73.931223 558.543458 
L 75.335492 561.464958 
L 76.73976 561.951875 
L 80.952566 561.951875 
L 82.356835 561.708417 
L 83.761103 560.978042 
L 85.165372 563.169167 
L 87.973909 561.708417 
L 89.378178 563.412625 
L 90.782446 562.438792 
L 92.186715 568.038333 
L 93.590983 568.038333 
L 94.995252 568.768708 
L 96.399521 568.52525 
L 97.803789 569.255625 
L 99.208058 569.499083 
L 100.612326 571.690208 
L 102.016595 569.012167 
L 103.420864 567.551417 
L 104.825132 564.386458 
L 106.229401 563.899542 
L 107.633669 564.386458 
L 110.442206 564.386458 
L 111.846475 566.577583 
L 113.250744 567.307958 
L 114.655012 567.794875 
L 116.059281 567.794875 
L 117.463549 566.090667 
L 118.867818 566.334125 
L 120.272087 566.334125 
L 121.676355 566.090667 
L 123.080624 562.925708 
L 124.484892 561.951875 
L 125.889161 563.656083 
L 127.29343 563.412625 
L 128.697698 562.195333 
L 130.101967 563.169167 
L 131.506235 566.090667 
L 132.910504 565.847208 
L 134.314773 564.143 
L 135.719041 566.334125 
L 137.12331 569.986 
L 138.527578 569.986 
L 139.931847 571.203292 
L 141.336116 571.690208 
L 142.740384 570.472917 
L 144.144653 571.690208 
L 146.95319 569.742542 
L 148.357458 568.281792 
L 151.165996 566.334125 
L 152.570264 568.281792 
L 153.974533 568.281792 
L 155.378801 569.255625 
L 156.78307 569.255625 
L 158.187339 571.44675 
L 159.591607 569.012167 
L 160.995876 568.768708 
L 162.400144 570.472917 
L 163.804413 568.038333 
L 165.208682 567.307958 
L 166.61295 567.0645 
L 168.017219 567.551417 
L 169.421487 568.768708 
L 170.825756 568.281792 
L 172.230025 570.959833 
L 173.634293 569.499083 
L 175.038562 569.742542 
L 176.44283 569.012167 
L 177.847099 568.768708 
L 179.251367 568.038333 
L 180.655636 567.0645 
L 182.059905 566.821042 
L 183.464173 568.52525 
L 184.868442 568.281792 
L 186.27271 567.307958 
L 187.676979 567.307958 
L 189.081248 568.281792 
L 190.485516 572.177125 
L 191.889785 572.664042 
L 193.294053 572.9075 
L 201.719665 572.9075 
L 203.123934 572.420583 
L 207.336739 572.420583 
L 208.741008 571.933667 
L 210.145276 571.690208 
L 214.358082 571.690208 
L 215.762351 571.44675 
L 217.166619 572.420583 
L 218.570888 572.9075 
L 219.975157 575.098625 
L 221.379425 575.585542 
L 222.783694 573.637875 
L 224.187962 573.394417 
L 226.9965 573.394417 
L 228.400768 573.150958 
L 229.805037 572.177125 
L 231.209305 572.420583 
L 232.613574 573.637875 
L 234.017843 572.9075 
L 235.422111 573.881333 
L 236.82638 573.881333 
L 238.230648 573.637875 
L 239.634917 575.098625 
L 241.039186 576.315917 
L 257.890409 576.315917 
L 259.294677 575.829 
L 260.698946 577.533208 
L 262.103214 577.533208 
L 263.507483 578.507042 
L 270.528826 578.507042 
L 271.933095 577.776667 
L 273.337363 577.28975 
L 278.954437 577.28975 
L 280.358706 575.098625 
L 281.762975 575.342083 
L 285.97578 575.342083 
L 287.380049 574.855167 
L 288.784318 576.072458 
L 409.551417 576.072458 
L 410.955685 579.237417 
L 412.359954 579.480875 
L 419.381297 579.480875 
L 420.785565 579.967792 
L 422.189834 578.020125 
L 429.211177 578.020125 
L 430.615445 578.507042 
L 437.636788 578.507042 
L 439.041057 578.993958 
L 440.445326 579.237417 
L 441.849594 579.724333 
L 444.658131 577.776667 
L 448.870937 577.776667 
L 451.679474 576.315917 
L 454.488011 576.315917 
L 455.89228 575.829 
L 461.509354 575.829 
L 462.913623 575.342083 
L 464.317892 575.342083 
L 465.72216 574.611708 
L 467.126429 575.829 
L 468.530697 575.342083 
L 469.934966 575.585542 
L 472.743503 575.585542 
L 476.956309 574.124792 
L 482.573383 574.124792 
L 485.38192 573.150958 
L 486.786189 573.394417 
L 488.190458 572.9075 
L 489.594726 573.150958 
L 505.041681 573.150958 
L 506.445949 574.36825 
L 512.063024 574.36825 
L 514.871561 573.881333 
L 516.275829 573.881333 
L 517.680098 572.177125 
L 519.084367 573.637875 
L 520.488635 572.664042 
L 526.10571 572.664042 
L 527.509978 573.150958 
L 528.914247 572.664042 
L 534.531321 572.664042 
L 535.93559 572.420583 
L 537.339858 571.690208 
L 538.744127 571.690208 
L 540.148396 570.716375 
L 556.999619 570.716375 
L 558.403887 570.959833 
L 576.659379 570.959833 
L 578.063648 569.986 
L 590.702065 569.986 
L 593.510602 568.52525 
L 600.531945 568.52525 
L 601.936214 569.012167 
L 603.340482 569.012167 
L 604.744751 571.690208 
L 617.383168 571.690208 
L 618.787437 571.203292 
L 665.1283 571.203292 
L 666.532569 570.229458 
L 666.532569 570.229458 
" clip-path="url(#p4694aa9fe3)" style="fill: none; stroke: #ffd700; stroke-width: 2; stroke-linecap: round"/>
   </g>
   <g id="patch_13">
    <path d="M 57.08 675.16 
L 57.08 529.085 
" style="fill: none; stroke: #cccccc; stroke-width: 0.8; stroke-linejoin: miter; stroke-linecap: square"/>
   </g>
   <g id="patch_14">
    <path d="M 666.532569 675.16 
L 666.532569 529.085 
" style="fill: none; stroke: #cccccc; stroke-width: 0.8; stroke-linejoin: miter; stroke-linecap: square"/>
   </g>
   <g id="patch_15">
    <path d="M 57.08 675.16 
L 666.532569 675.16 
" style="fill: none; stroke: #cccccc; stroke-width: 0.8; stroke-linejoin: miter; stroke-linecap: square"/>
   </g>
   <g id="patch_16">
    <path d="M 57.08 529.085 
L 666.532569 529.085 
" style="fill: none; stroke: #cccccc; stroke-width: 0.8; stroke-linejoin: miter; stroke-linecap: square"/>
   </g>
   <g id="text_27">
    <!-- Hierarchy -->
    <g style="fill: #262626" transform="translate(326.847534 523.085) scale(0.16 -0.16)">
     <defs>
      <path id="TimesNewRomanPS-BoldMT-48" d="M 1750 2038 
L 1750 725 
Q 1750 400 1786 319 
Q 1822 238 1926 177 
Q 2031 116 2209 116 
L 2350 116 
L 2350 0 
L 134 0 
L 134 116 
L 275 116 
Q 459 116 572 181 
Q 653 225 697 331 
Q 731 406 731 725 
L 731 3513 
Q 731 3838 697 3919 
Q 663 4000 558 4061 
Q 453 4122 275 4122 
L 134 4122 
L 134 4238 
L 2350 4238 
L 2350 4122 
L 2209 4122 
Q 2025 4122 1913 4056 
Q 1831 4013 1784 3906 
Q 1750 3831 1750 3513 
L 1750 2313 
L 3247 2313 
L 3247 3513 
Q 3247 3838 3212 3919 
Q 3178 4000 3072 4061 
Q 2966 4122 2788 4122 
L 2650 4122 
L 2650 4238 
L 4863 4238 
L 4863 4122 
L 4725 4122 
Q 4538 4122 4428 4056 
Q 4347 4013 4300 3906 
Q 4266 3831 4266 3513 
L 4266 725 
Q 4266 400 4300 319 
Q 4334 238 4440 177 
Q 4547 116 4725 116 
L 4863 116 
L 4863 0 
L 2650 0 
L 2650 116 
L 2788 116 
Q 2975 116 3084 181 
Q 3166 225 3213 331 
Q 3247 406 3247 725 
L 3247 2038 
L 1750 2038 
z
" transform="scale(0.015625)"/>
      <path id="TimesNewRomanPS-BoldMT-69" d="M 919 4338 
Q 1122 4338 1262 4195 
Q 1403 4053 1403 3853 
Q 1403 3653 1261 3512 
Q 1119 3372 919 3372 
Q 719 3372 578 3512 
Q 438 3653 438 3853 
Q 438 4053 578 4195 
Q 719 4338 919 4338 
z
M 1356 2922 
L 1356 606 
Q 1356 297 1428 211 
Q 1500 125 1709 113 
L 1709 0 
L 131 0 
L 131 113 
Q 325 119 419 225 
Q 481 297 481 606 
L 481 2313 
Q 481 2622 409 2708 
Q 338 2794 131 2806 
L 131 2922 
L 1356 2922 
z
" transform="scale(0.015625)"/>
      <path id="TimesNewRomanPS-BoldMT-61" d="M 1828 431 
Q 1294 -41 869 -41 
Q 619 -41 453 123 
Q 288 288 288 534 
Q 288 869 575 1136 
Q 863 1403 1828 1847 
L 1828 2141 
Q 1828 2472 1792 2558 
Q 1756 2644 1656 2708 
Q 1556 2772 1431 2772 
Q 1228 2772 1097 2681 
Q 1016 2625 1016 2550 
Q 1016 2484 1103 2388 
Q 1222 2253 1222 2128 
Q 1222 1975 1108 1867 
Q 994 1759 809 1759 
Q 613 1759 480 1878 
Q 347 1997 347 2156 
Q 347 2381 525 2586 
Q 703 2791 1022 2900 
Q 1341 3009 1684 3009 
Q 2100 3009 2342 2832 
Q 2584 2656 2656 2450 
Q 2700 2319 2700 1847 
L 2700 713 
Q 2700 513 2715 461 
Q 2731 409 2762 384 
Q 2794 359 2834 359 
Q 2916 359 3000 475 
L 3094 400 
Q 2938 169 2770 64 
Q 2603 -41 2391 -41 
Q 2141 -41 2000 76 
Q 1859 194 1828 431 
z
M 1828 659 
L 1828 1638 
Q 1450 1416 1266 1163 
Q 1144 994 1144 822 
Q 1144 678 1247 569 
Q 1325 484 1466 484 
Q 1622 484 1828 659 
z
" transform="scale(0.015625)"/>
      <path id="TimesNewRomanPS-BoldMT-63" d="M 2600 753 
L 2697 678 
Q 2491 291 2183 101 
Q 1875 -88 1528 -88 
Q 944 -88 594 353 
Q 244 794 244 1413 
Q 244 2009 563 2463 
Q 947 3009 1622 3009 
Q 2075 3009 2342 2781 
Q 2609 2553 2609 2272 
Q 2609 2094 2501 1987 
Q 2394 1881 2219 1881 
Q 2034 1881 1914 2003 
Q 1794 2125 1766 2438 
Q 1747 2634 1675 2713 
Q 1603 2791 1506 2791 
Q 1356 2791 1250 2631 
Q 1088 2391 1088 1894 
Q 1088 1481 1219 1104 
Q 1350 728 1578 544 
Q 1750 409 1984 409 
Q 2138 409 2275 481 
Q 2413 553 2600 753 
z
" transform="scale(0.015625)"/>
      <path id="TimesNewRomanPS-BoldMT-79" d="M 1556 -119 
L 613 2047 
Q 400 2538 298 2650 
Q 197 2763 53 2806 
L 53 2922 
L 1606 2922 
L 1606 2806 
Q 1453 2800 1390 2747 
Q 1328 2694 1328 2619 
Q 1328 2500 1484 2150 
L 1984 1006 
L 2325 1891 
Q 2509 2363 2509 2547 
Q 2509 2663 2432 2731 
Q 2356 2800 2163 2806 
L 2163 2922 
L 3141 2922 
L 3141 2806 
Q 2997 2791 2906 2695 
Q 2816 2600 2603 2047 
L 1769 -119 
Q 1453 -931 1300 -1119 
Q 1084 -1381 759 -1381 
Q 500 -1381 339 -1232 
Q 178 -1084 178 -875 
Q 178 -694 289 -575 
Q 400 -456 563 -456 
Q 719 -456 814 -556 
Q 909 -656 913 -866 
Q 916 -984 941 -1019 
Q 966 -1053 1013 -1053 
Q 1088 -1053 1172 -963 
Q 1297 -831 1466 -363 
L 1556 -119 
z
" transform="scale(0.015625)"/>
     </defs>
     <use xlink:href="#TimesNewRomanPS-BoldMT-48"/>
     <use xlink:href="#TimesNewRomanPS-BoldMT-69" transform="translate(77.783203 0)"/>
     <use xlink:href="#TimesNewRomanPS-BoldMT-65" transform="translate(105.566406 0)"/>
     <use xlink:href="#TimesNewRomanPS-BoldMT-72" transform="translate(149.951172 0)"/>
     <use xlink:href="#TimesNewRomanPS-BoldMT-61" transform="translate(194.335938 0)"/>
     <use xlink:href="#TimesNewRomanPS-BoldMT-72" transform="translate(244.335938 0)"/>
     <use xlink:href="#TimesNewRomanPS-BoldMT-63" transform="translate(286.970703 0)"/>
     <use xlink:href="#TimesNewRomanPS-BoldMT-68" transform="translate(331.355469 0)"/>
     <use xlink:href="#TimesNewRomanPS-BoldMT-79" transform="translate(386.970703 0)"/>
    </g>
   </g>
  </g>
 </g>
 <defs>
  <clipPath id="pa53d191e87">
   <rect x="57.08" y="29.94" width="609.452569" height="438.225"/>
  </clipPath>
  <clipPath id="p4694aa9fe3">
   <rect x="57.08" y="529.085" width="609.452569" height="146.075"/>
  </clipPath>
 </defs>
</svg>
