<?xml version="1.0" encoding="utf-8" standalone="no"?>
<!DOCTYPE svg PUBLIC "-//W3C//DTD SVG 1.1//EN"
  "http://www.w3.org/Graphics/SVG/1.1/DTD/svg11.dtd">
<svg xmlns:xlink="http://www.w3.org/1999/xlink" width="720pt" height="720pt" viewBox="0 0 720 720" xmlns="http://www.w3.org/2000/svg" version="1.1">
 <metadata>
  <rdf:RDF xmlns:dc="http://purl.org/dc/elements/1.1/" xmlns:cc="http://creativecommons.org/ns#" xmlns:rdf="http://www.w3.org/1999/02/22-rdf-syntax-ns#">
   <cc:Work>
    <dc:type rdf:resource="http://purl.org/dc/dcmitype/StillImage"/>
    <dc:date>2025-07-03T15:54:08.199946</dc:date>
    <dc:format>image/svg+xml</dc:format>
    <dc:creator>
     <cc:Agent>
      <dc:title>Matplotlib v3.10.3, https://matplotlib.org/</dc:title>
     </cc:Agent>
    </dc:creator>
   </cc:Work>
  </rdf:RDF>
 </metadata>
 <defs>
  <style type="text/css">*{stroke-linejoin: round; stroke-linecap: butt}</style>
 </defs>
 <g id="figure_1">
  <g id="patch_1">
   <path d="M 0 720 
L 720 720 
L 720 0 
L 0 0 
z
" style="fill: #ffffff"/>
  </g>
  <g id="axes_1">
   <g id="patch_2">
    <path d="M 57.08 468.249375 
L 664.509231 468.249375 
L 664.509231 30.2775 
L 57.08 30.2775 
z
" style="fill: #ffffff"/>
   </g>
   <g id="matplotlib.axis_1">
    <g id="xtick_1">
     <g id="line2d_1">
      <path d="M 131.840521 468.249375 
L 131.840521 30.2775 
" clip-path="url(#p50a2c0675d)" style="fill: none; stroke-dasharray: 2.96,1.28; stroke-dashoffset: 0; stroke: #cccccc; stroke-opacity: 0.5; stroke-width: 0.8"/>
     </g>
     <g id="text_1">
      <!-- 25 -->
      <g style="fill: #262626" transform="translate(126.279583 482.407188) scale(0.1 -0.1)">
       <defs>
        <path id="ArialMT-32" d="M 3222 541 
L 3222 0 
L 194 0 
Q 188 203 259 391 
Q 375 700 629 1000 
Q 884 1300 1366 1694 
Q 2113 2306 2375 2664 
Q 2638 3022 2638 3341 
Q 2638 3675 2398 3904 
Q 2159 4134 1775 4134 
Q 1369 4134 1125 3890 
Q 881 3647 878 3216 
L 300 3275 
Q 359 3922 746 4261 
Q 1134 4600 1788 4600 
Q 2447 4600 2831 4234 
Q 3216 3869 3216 3328 
Q 3216 3053 3103 2787 
Q 2991 2522 2730 2228 
Q 2469 1934 1863 1422 
Q 1356 997 1212 845 
Q 1069 694 975 541 
L 3222 541 
z
" transform="scale(0.015625)"/>
        <path id="ArialMT-35" d="M 266 1200 
L 856 1250 
Q 922 819 1161 601 
Q 1400 384 1738 384 
Q 2144 384 2425 690 
Q 2706 997 2706 1503 
Q 2706 1984 2436 2262 
Q 2166 2541 1728 2541 
Q 1456 2541 1237 2417 
Q 1019 2294 894 2097 
L 366 2166 
L 809 4519 
L 3088 4519 
L 3088 3981 
L 1259 3981 
L 1013 2750 
Q 1425 3038 1878 3038 
Q 2478 3038 2890 2622 
Q 3303 2206 3303 1553 
Q 3303 931 2941 478 
Q 2500 -78 1738 -78 
Q 1113 -78 717 272 
Q 322 622 266 1200 
z
" transform="scale(0.015625)"/>
       </defs>
       <use xlink:href="#ArialMT-32"/>
       <use xlink:href="#ArialMT-35" transform="translate(55.615234 0)"/>
      </g>
     </g>
    </g>
    <g id="xtick_2">
     <g id="line2d_2">
      <path d="M 209.716063 468.249375 
L 209.716063 30.2775 
" clip-path="url(#p50a2c0675d)" style="fill: none; stroke-dasharray: 2.96,1.28; stroke-dashoffset: 0; stroke: #cccccc; stroke-opacity: 0.5; stroke-width: 0.8"/>
     </g>
     <g id="text_2">
      <!-- 50 -->
      <g style="fill: #262626" transform="translate(204.155126 482.407188) scale(0.1 -0.1)">
       <defs>
        <path id="ArialMT-30" d="M 266 2259 
Q 266 3072 433 3567 
Q 600 4063 929 4331 
Q 1259 4600 1759 4600 
Q 2128 4600 2406 4451 
Q 2684 4303 2865 4023 
Q 3047 3744 3150 3342 
Q 3253 2941 3253 2259 
Q 3253 1453 3087 958 
Q 2922 463 2592 192 
Q 2263 -78 1759 -78 
Q 1097 -78 719 397 
Q 266 969 266 2259 
z
M 844 2259 
Q 844 1131 1108 757 
Q 1372 384 1759 384 
Q 2147 384 2411 759 
Q 2675 1134 2675 2259 
Q 2675 3391 2411 3762 
Q 2147 4134 1753 4134 
Q 1366 4134 1134 3806 
Q 844 3388 844 2259 
z
" transform="scale(0.015625)"/>
       </defs>
       <use xlink:href="#ArialMT-35"/>
       <use xlink:href="#ArialMT-30" transform="translate(55.615234 0)"/>
      </g>
     </g>
    </g>
    <g id="xtick_3">
     <g id="line2d_3">
      <path d="M 287.591606 468.249375 
L 287.591606 30.2775 
" clip-path="url(#p50a2c0675d)" style="fill: none; stroke-dasharray: 2.96,1.28; stroke-dashoffset: 0; stroke: #cccccc; stroke-opacity: 0.5; stroke-width: 0.8"/>
     </g>
     <g id="text_3">
      <!-- 75 -->
      <g style="fill: #262626" transform="translate(282.030668 482.407188) scale(0.1 -0.1)">
       <defs>
        <path id="ArialMT-37" d="M 303 3981 
L 303 4522 
L 3269 4522 
L 3269 4084 
Q 2831 3619 2401 2847 
Q 1972 2075 1738 1259 
Q 1569 684 1522 0 
L 944 0 
Q 953 541 1156 1306 
Q 1359 2072 1739 2783 
Q 2119 3494 2547 3981 
L 303 3981 
z
" transform="scale(0.015625)"/>
       </defs>
       <use xlink:href="#ArialMT-37"/>
       <use xlink:href="#ArialMT-35" transform="translate(55.615234 0)"/>
      </g>
     </g>
    </g>
    <g id="xtick_4">
     <g id="line2d_4">
      <path d="M 365.467148 468.249375 
L 365.467148 30.2775 
" clip-path="url(#p50a2c0675d)" style="fill: none; stroke-dasharray: 2.96,1.28; stroke-dashoffset: 0; stroke: #cccccc; stroke-opacity: 0.5; stroke-width: 0.8"/>
     </g>
     <g id="text_4">
      <!-- 100 -->
      <g style="fill: #262626" transform="translate(357.125742 482.407188) scale(0.1 -0.1)">
       <defs>
        <path id="ArialMT-31" d="M 2384 0 
L 1822 0 
L 1822 3584 
Q 1619 3391 1289 3197 
Q 959 3003 697 2906 
L 697 3450 
Q 1169 3672 1522 3987 
Q 1875 4303 2022 4600 
L 2384 4600 
L 2384 0 
z
" transform="scale(0.015625)"/>
       </defs>
       <use xlink:href="#ArialMT-31"/>
       <use xlink:href="#ArialMT-30" transform="translate(55.615234 0)"/>
       <use xlink:href="#ArialMT-30" transform="translate(111.230469 0)"/>
      </g>
     </g>
    </g>
    <g id="xtick_5">
     <g id="line2d_5">
      <path d="M 443.34269 468.249375 
L 443.34269 30.2775 
" clip-path="url(#p50a2c0675d)" style="fill: none; stroke-dasharray: 2.96,1.28; stroke-dashoffset: 0; stroke: #cccccc; stroke-opacity: 0.5; stroke-width: 0.8"/>
     </g>
     <g id="text_5">
      <!-- 125 -->
      <g style="fill: #262626" transform="translate(435.001284 482.407188) scale(0.1 -0.1)">
       <use xlink:href="#ArialMT-31"/>
       <use xlink:href="#ArialMT-32" transform="translate(55.615234 0)"/>
       <use xlink:href="#ArialMT-35" transform="translate(111.230469 0)"/>
      </g>
     </g>
    </g>
    <g id="xtick_6">
     <g id="line2d_6">
      <path d="M 521.218233 468.249375 
L 521.218233 30.2775 
" clip-path="url(#p50a2c0675d)" style="fill: none; stroke-dasharray: 2.96,1.28; stroke-dashoffset: 0; stroke: #cccccc; stroke-opacity: 0.5; stroke-width: 0.8"/>
     </g>
     <g id="text_6">
      <!-- 150 -->
      <g style="fill: #262626" transform="translate(512.876826 482.407188) scale(0.1 -0.1)">
       <use xlink:href="#ArialMT-31"/>
       <use xlink:href="#ArialMT-35" transform="translate(55.615234 0)"/>
       <use xlink:href="#ArialMT-30" transform="translate(111.230469 0)"/>
      </g>
     </g>
    </g>
    <g id="xtick_7">
     <g id="line2d_7">
      <path d="M 599.093775 468.249375 
L 599.093775 30.2775 
" clip-path="url(#p50a2c0675d)" style="fill: none; stroke-dasharray: 2.96,1.28; stroke-dashoffset: 0; stroke: #cccccc; stroke-opacity: 0.5; stroke-width: 0.8"/>
     </g>
     <g id="text_7">
      <!-- 175 -->
      <g style="fill: #262626" transform="translate(590.752369 482.407188) scale(0.1 -0.1)">
       <use xlink:href="#ArialMT-31"/>
       <use xlink:href="#ArialMT-37" transform="translate(55.615234 0)"/>
       <use xlink:href="#ArialMT-35" transform="translate(111.230469 0)"/>
      </g>
     </g>
    </g>
    <g id="text_8">
     <!-- Session Count -->
     <g style="fill: #262626" transform="translate(320.536959 498.115938) scale(0.14 -0.14)">
      <defs>
       <path id="TimesNewRomanPSMT-53" d="M 2934 4334 
L 2934 2869 
L 2819 2869 
Q 2763 3291 2617 3541 
Q 2472 3791 2203 3937 
Q 1934 4084 1647 4084 
Q 1322 4084 1109 3886 
Q 897 3688 897 3434 
Q 897 3241 1031 3081 
Q 1225 2847 1953 2456 
Q 2547 2138 2764 1967 
Q 2981 1797 3098 1565 
Q 3216 1334 3216 1081 
Q 3216 600 2842 251 
Q 2469 -97 1881 -97 
Q 1697 -97 1534 -69 
Q 1438 -53 1133 45 
Q 828 144 747 144 
Q 669 144 623 97 
Q 578 50 556 -97 
L 441 -97 
L 441 1356 
L 556 1356 
Q 638 900 775 673 
Q 913 447 1195 297 
Q 1478 147 1816 147 
Q 2206 147 2432 353 
Q 2659 559 2659 841 
Q 2659 997 2573 1156 
Q 2488 1316 2306 1453 
Q 2184 1547 1640 1851 
Q 1097 2156 867 2337 
Q 638 2519 519 2737 
Q 400 2956 400 3219 
Q 400 3675 750 4004 
Q 1100 4334 1641 4334 
Q 1978 4334 2356 4169 
Q 2531 4091 2603 4091 
Q 2684 4091 2736 4139 
Q 2788 4188 2819 4334 
L 2934 4334 
z
" transform="scale(0.015625)"/>
       <path id="TimesNewRomanPSMT-65" d="M 681 1784 
Q 678 1147 991 784 
Q 1303 422 1725 422 
Q 2006 422 2214 576 
Q 2422 731 2563 1106 
L 2659 1044 
Q 2594 616 2278 264 
Q 1963 -88 1488 -88 
Q 972 -88 605 314 
Q 238 716 238 1394 
Q 238 2128 614 2539 
Q 991 2950 1559 2950 
Q 2041 2950 2350 2633 
Q 2659 2316 2659 1784 
L 681 1784 
z
M 681 1966 
L 2006 1966 
Q 1991 2241 1941 2353 
Q 1863 2528 1708 2628 
Q 1553 2728 1384 2728 
Q 1125 2728 920 2526 
Q 716 2325 681 1966 
z
" transform="scale(0.015625)"/>
       <path id="TimesNewRomanPSMT-73" d="M 2050 2947 
L 2050 1972 
L 1947 1972 
Q 1828 2431 1642 2597 
Q 1456 2763 1169 2763 
Q 950 2763 815 2647 
Q 681 2531 681 2391 
Q 681 2216 781 2091 
Q 878 1963 1175 1819 
L 1631 1597 
Q 2266 1288 2266 781 
Q 2266 391 1970 151 
Q 1675 -88 1309 -88 
Q 1047 -88 709 6 
Q 606 38 541 38 
Q 469 38 428 -44 
L 325 -44 
L 325 978 
L 428 978 
Q 516 541 762 319 
Q 1009 97 1316 97 
Q 1531 97 1667 223 
Q 1803 350 1803 528 
Q 1803 744 1651 891 
Q 1500 1038 1047 1263 
Q 594 1488 453 1669 
Q 313 1847 313 2119 
Q 313 2472 555 2709 
Q 797 2947 1181 2947 
Q 1350 2947 1591 2875 
Q 1750 2828 1803 2828 
Q 1853 2828 1881 2850 
Q 1909 2872 1947 2947 
L 2050 2947 
z
" transform="scale(0.015625)"/>
       <path id="TimesNewRomanPSMT-69" d="M 928 4444 
Q 1059 4444 1151 4351 
Q 1244 4259 1244 4128 
Q 1244 3997 1151 3903 
Q 1059 3809 928 3809 
Q 797 3809 703 3903 
Q 609 3997 609 4128 
Q 609 4259 701 4351 
Q 794 4444 928 4444 
z
M 1188 2947 
L 1188 647 
Q 1188 378 1227 289 
Q 1266 200 1342 156 
Q 1419 113 1622 113 
L 1622 0 
L 231 0 
L 231 113 
Q 441 113 512 153 
Q 584 194 626 287 
Q 669 381 669 647 
L 669 1750 
Q 669 2216 641 2353 
Q 619 2453 572 2492 
Q 525 2531 444 2531 
Q 356 2531 231 2484 
L 188 2597 
L 1050 2947 
L 1188 2947 
z
" transform="scale(0.015625)"/>
       <path id="TimesNewRomanPSMT-6f" d="M 1600 2947 
Q 2250 2947 2644 2453 
Q 2978 2031 2978 1484 
Q 2978 1100 2793 706 
Q 2609 313 2286 112 
Q 1963 -88 1566 -88 
Q 919 -88 538 428 
Q 216 863 216 1403 
Q 216 1797 411 2186 
Q 606 2575 925 2761 
Q 1244 2947 1600 2947 
z
M 1503 2744 
Q 1338 2744 1170 2645 
Q 1003 2547 900 2300 
Q 797 2053 797 1666 
Q 797 1041 1045 587 
Q 1294 134 1700 134 
Q 2003 134 2200 384 
Q 2397 634 2397 1244 
Q 2397 2006 2069 2444 
Q 1847 2744 1503 2744 
z
" transform="scale(0.015625)"/>
       <path id="TimesNewRomanPSMT-6e" d="M 1034 2341 
Q 1538 2947 1994 2947 
Q 2228 2947 2397 2830 
Q 2566 2713 2666 2444 
Q 2734 2256 2734 1869 
L 2734 647 
Q 2734 375 2778 278 
Q 2813 200 2889 156 
Q 2966 113 3172 113 
L 3172 0 
L 1756 0 
L 1756 113 
L 1816 113 
Q 2016 113 2095 173 
Q 2175 234 2206 353 
Q 2219 400 2219 647 
L 2219 1819 
Q 2219 2209 2117 2386 
Q 2016 2563 1775 2563 
Q 1403 2563 1034 2156 
L 1034 647 
Q 1034 356 1069 288 
Q 1113 197 1189 155 
Q 1266 113 1500 113 
L 1500 0 
L 84 0 
L 84 113 
L 147 113 
Q 366 113 442 223 
Q 519 334 519 647 
L 519 1709 
Q 519 2225 495 2337 
Q 472 2450 423 2490 
Q 375 2531 294 2531 
Q 206 2531 84 2484 
L 38 2597 
L 900 2947 
L 1034 2947 
L 1034 2341 
z
" transform="scale(0.015625)"/>
       <path id="TimesNewRomanPSMT-20" transform="scale(0.015625)"/>
       <path id="TimesNewRomanPSMT-43" d="M 3853 4334 
L 3950 2894 
L 3853 2894 
Q 3659 3541 3300 3825 
Q 2941 4109 2438 4109 
Q 2016 4109 1675 3895 
Q 1334 3681 1139 3212 
Q 944 2744 944 2047 
Q 944 1472 1128 1050 
Q 1313 628 1683 403 
Q 2053 178 2528 178 
Q 2941 178 3256 354 
Q 3572 531 3950 1056 
L 4047 994 
Q 3728 428 3303 165 
Q 2878 -97 2294 -97 
Q 1241 -97 663 684 
Q 231 1266 231 2053 
Q 231 2688 515 3219 
Q 800 3750 1298 4042 
Q 1797 4334 2388 4334 
Q 2847 4334 3294 4109 
Q 3425 4041 3481 4041 
Q 3566 4041 3628 4100 
Q 3709 4184 3744 4334 
L 3853 4334 
z
" transform="scale(0.015625)"/>
       <path id="TimesNewRomanPSMT-75" d="M 2709 2863 
L 2709 1128 
Q 2709 631 2732 520 
Q 2756 409 2807 365 
Q 2859 322 2928 322 
Q 3025 322 3147 375 
L 3191 266 
L 2334 -88 
L 2194 -88 
L 2194 519 
Q 1825 119 1631 15 
Q 1438 -88 1222 -88 
Q 981 -88 804 51 
Q 628 191 559 409 
Q 491 628 491 1028 
L 491 2306 
Q 491 2509 447 2587 
Q 403 2666 317 2708 
Q 231 2750 6 2747 
L 6 2863 
L 1009 2863 
L 1009 947 
Q 1009 547 1148 422 
Q 1288 297 1484 297 
Q 1619 297 1789 381 
Q 1959 466 2194 703 
L 2194 2325 
Q 2194 2569 2105 2655 
Q 2016 2741 1734 2747 
L 1734 2863 
L 2709 2863 
z
" transform="scale(0.015625)"/>
       <path id="TimesNewRomanPSMT-74" d="M 1031 3803 
L 1031 2863 
L 1700 2863 
L 1700 2644 
L 1031 2644 
L 1031 788 
Q 1031 509 1111 412 
Q 1191 316 1316 316 
Q 1419 316 1516 380 
Q 1613 444 1666 569 
L 1788 569 
Q 1678 263 1478 108 
Q 1278 -47 1066 -47 
Q 922 -47 784 33 
Q 647 113 581 261 
Q 516 409 516 719 
L 516 2644 
L 63 2644 
L 63 2747 
Q 234 2816 414 2980 
Q 594 3144 734 3369 
Q 806 3488 934 3803 
L 1031 3803 
z
" transform="scale(0.015625)"/>
      </defs>
      <use xlink:href="#TimesNewRomanPSMT-53"/>
      <use xlink:href="#TimesNewRomanPSMT-65" transform="translate(55.615234 0)"/>
      <use xlink:href="#TimesNewRomanPSMT-73" transform="translate(100 0)"/>
      <use xlink:href="#TimesNewRomanPSMT-73" transform="translate(138.916016 0)"/>
      <use xlink:href="#TimesNewRomanPSMT-69" transform="translate(177.832031 0)"/>
      <use xlink:href="#TimesNewRomanPSMT-6f" transform="translate(205.615234 0)"/>
      <use xlink:href="#TimesNewRomanPSMT-6e" transform="translate(255.615234 0)"/>
      <use xlink:href="#TimesNewRomanPSMT-20" transform="translate(305.615234 0)"/>
      <use xlink:href="#TimesNewRomanPSMT-43" transform="translate(330.615234 0)"/>
      <use xlink:href="#TimesNewRomanPSMT-6f" transform="translate(397.314453 0)"/>
      <use xlink:href="#TimesNewRomanPSMT-75" transform="translate(447.314453 0)"/>
      <use xlink:href="#TimesNewRomanPSMT-6e" transform="translate(497.314453 0)"/>
      <use xlink:href="#TimesNewRomanPSMT-74" transform="translate(547.314453 0)"/>
     </g>
    </g>
   </g>
   <g id="matplotlib.axis_2">
    <g id="ytick_1">
     <g id="line2d_8">
      <path d="M 57.08 468.249375 
L 664.509231 468.249375 
" clip-path="url(#p50a2c0675d)" style="fill: none; stroke-dasharray: 2.96,1.28; stroke-dashoffset: 0; stroke: #cccccc; stroke-opacity: 0.5; stroke-width: 0.8"/>
     </g>
     <g id="text_9">
      <!-- 0 -->
      <g style="fill: #262626" transform="translate(44.519063 471.828281) scale(0.1 -0.1)">
       <use xlink:href="#ArialMT-30"/>
      </g>
     </g>
    </g>
    <g id="ytick_2">
     <g id="line2d_9">
      <path d="M 57.08 30.2775 
L 664.509231 30.2775 
" clip-path="url(#p50a2c0675d)" style="fill: none; stroke-dasharray: 2.96,1.28; stroke-dashoffset: 0; stroke: #cccccc; stroke-opacity: 0.5; stroke-width: 0.8"/>
     </g>
     <g id="text_10">
      <!-- 1 -->
      <g style="fill: #262626" transform="translate(44.519063 33.856406) scale(0.1 -0.1)">
       <use xlink:href="#ArialMT-31"/>
      </g>
     </g>
    </g>
    <g id="text_11">
     <!-- Stacked Proportion -->
     <g style="fill: #262626" transform="translate(37.524375 303.116406) rotate(-90) scale(0.14 -0.14)">
      <defs>
       <path id="TimesNewRomanPSMT-61" d="M 1822 413 
Q 1381 72 1269 19 
Q 1100 -59 909 -59 
Q 613 -59 420 144 
Q 228 347 228 678 
Q 228 888 322 1041 
Q 450 1253 767 1440 
Q 1084 1628 1822 1897 
L 1822 2009 
Q 1822 2438 1686 2597 
Q 1550 2756 1291 2756 
Q 1094 2756 978 2650 
Q 859 2544 859 2406 
L 866 2225 
Q 866 2081 792 2003 
Q 719 1925 600 1925 
Q 484 1925 411 2006 
Q 338 2088 338 2228 
Q 338 2497 613 2722 
Q 888 2947 1384 2947 
Q 1766 2947 2009 2819 
Q 2194 2722 2281 2516 
Q 2338 2381 2338 1966 
L 2338 994 
Q 2338 584 2353 492 
Q 2369 400 2405 369 
Q 2441 338 2488 338 
Q 2538 338 2575 359 
Q 2641 400 2828 588 
L 2828 413 
Q 2478 -56 2159 -56 
Q 2006 -56 1915 50 
Q 1825 156 1822 413 
z
M 1822 616 
L 1822 1706 
Q 1350 1519 1213 1441 
Q 966 1303 859 1153 
Q 753 1003 753 825 
Q 753 600 887 451 
Q 1022 303 1197 303 
Q 1434 303 1822 616 
z
" transform="scale(0.015625)"/>
       <path id="TimesNewRomanPSMT-63" d="M 2631 1088 
Q 2516 522 2178 217 
Q 1841 -88 1431 -88 
Q 944 -88 581 321 
Q 219 731 219 1428 
Q 219 2103 620 2525 
Q 1022 2947 1584 2947 
Q 2006 2947 2278 2723 
Q 2550 2500 2550 2259 
Q 2550 2141 2473 2067 
Q 2397 1994 2259 1994 
Q 2075 1994 1981 2113 
Q 1928 2178 1911 2362 
Q 1894 2547 1784 2644 
Q 1675 2738 1481 2738 
Q 1169 2738 978 2506 
Q 725 2200 725 1697 
Q 725 1184 976 792 
Q 1228 400 1656 400 
Q 1963 400 2206 609 
Q 2378 753 2541 1131 
L 2631 1088 
z
" transform="scale(0.015625)"/>
       <path id="TimesNewRomanPSMT-6b" d="M 1047 4444 
L 1047 1594 
L 1775 2259 
Q 2006 2472 2044 2528 
Q 2069 2566 2069 2603 
Q 2069 2666 2017 2711 
Q 1966 2756 1847 2763 
L 1847 2863 
L 3091 2863 
L 3091 2763 
Q 2834 2756 2664 2684 
Q 2494 2613 2291 2428 
L 1556 1750 
L 2291 822 
Q 2597 438 2703 334 
Q 2853 188 2966 144 
Q 3044 113 3238 113 
L 3238 0 
L 1847 0 
L 1847 113 
Q 1966 116 2008 148 
Q 2050 181 2050 241 
Q 2050 313 1925 472 
L 1047 1594 
L 1047 644 
Q 1047 366 1086 278 
Q 1125 191 1197 153 
Q 1269 116 1509 113 
L 1509 0 
L 53 0 
L 53 113 
Q 272 113 381 166 
Q 447 200 481 272 
Q 528 375 528 628 
L 528 3234 
Q 528 3731 506 3842 
Q 484 3953 434 3995 
Q 384 4038 303 4038 
Q 238 4038 106 3984 
L 53 4094 
L 903 4444 
L 1047 4444 
z
" transform="scale(0.015625)"/>
       <path id="TimesNewRomanPSMT-64" d="M 2222 322 
Q 2013 103 1813 7 
Q 1613 -88 1381 -88 
Q 913 -88 563 304 
Q 213 697 213 1313 
Q 213 1928 600 2439 
Q 988 2950 1597 2950 
Q 1975 2950 2222 2709 
L 2222 3238 
Q 2222 3728 2198 3840 
Q 2175 3953 2125 3993 
Q 2075 4034 2000 4034 
Q 1919 4034 1784 3984 
L 1744 4094 
L 2597 4444 
L 2738 4444 
L 2738 1134 
Q 2738 631 2761 520 
Q 2784 409 2836 365 
Q 2888 322 2956 322 
Q 3041 322 3181 375 
L 3216 266 
L 2366 -88 
L 2222 -88 
L 2222 322 
z
M 2222 541 
L 2222 2016 
Q 2203 2228 2109 2403 
Q 2016 2578 1861 2667 
Q 1706 2756 1559 2756 
Q 1284 2756 1069 2509 
Q 784 2184 784 1559 
Q 784 928 1059 592 
Q 1334 256 1672 256 
Q 1956 256 2222 541 
z
" transform="scale(0.015625)"/>
       <path id="TimesNewRomanPSMT-50" d="M 1313 1984 
L 1313 750 
Q 1313 350 1400 253 
Q 1519 116 1759 116 
L 1922 116 
L 1922 0 
L 106 0 
L 106 116 
L 266 116 
Q 534 116 650 291 
Q 713 388 713 750 
L 713 3488 
Q 713 3888 628 3984 
Q 506 4122 266 4122 
L 106 4122 
L 106 4238 
L 1659 4238 
Q 2228 4238 2556 4120 
Q 2884 4003 3109 3725 
Q 3334 3447 3334 3066 
Q 3334 2547 2992 2222 
Q 2650 1897 2025 1897 
Q 1872 1897 1694 1919 
Q 1516 1941 1313 1984 
z
M 1313 2163 
Q 1478 2131 1606 2115 
Q 1734 2100 1825 2100 
Q 2150 2100 2386 2351 
Q 2622 2603 2622 3003 
Q 2622 3278 2509 3514 
Q 2397 3750 2190 3867 
Q 1984 3984 1722 3984 
Q 1563 3984 1313 3925 
L 1313 2163 
z
" transform="scale(0.015625)"/>
       <path id="TimesNewRomanPSMT-72" d="M 1038 2947 
L 1038 2303 
Q 1397 2947 1775 2947 
Q 1947 2947 2059 2842 
Q 2172 2738 2172 2600 
Q 2172 2478 2090 2393 
Q 2009 2309 1897 2309 
Q 1788 2309 1652 2417 
Q 1516 2525 1450 2525 
Q 1394 2525 1328 2463 
Q 1188 2334 1038 2041 
L 1038 669 
Q 1038 431 1097 309 
Q 1138 225 1241 169 
Q 1344 113 1538 113 
L 1538 0 
L 72 0 
L 72 113 
Q 291 113 397 181 
Q 475 231 506 341 
Q 522 394 522 644 
L 522 1753 
Q 522 2253 501 2348 
Q 481 2444 426 2487 
Q 372 2531 291 2531 
Q 194 2531 72 2484 
L 41 2597 
L 906 2947 
L 1038 2947 
z
" transform="scale(0.015625)"/>
       <path id="TimesNewRomanPSMT-70" d="M -6 2578 
L 875 2934 
L 994 2934 
L 994 2266 
Q 1216 2644 1439 2795 
Q 1663 2947 1909 2947 
Q 2341 2947 2628 2609 
Q 2981 2197 2981 1534 
Q 2981 794 2556 309 
Q 2206 -88 1675 -88 
Q 1444 -88 1275 -22 
Q 1150 25 994 166 
L 994 -706 
Q 994 -1000 1030 -1079 
Q 1066 -1159 1155 -1206 
Q 1244 -1253 1478 -1253 
L 1478 -1369 
L -22 -1369 
L -22 -1253 
L 56 -1253 
Q 228 -1256 350 -1188 
Q 409 -1153 442 -1076 
Q 475 -1000 475 -688 
L 475 2019 
Q 475 2297 450 2372 
Q 425 2447 370 2484 
Q 316 2522 222 2522 
Q 147 2522 31 2478 
L -6 2578 
z
M 994 2081 
L 994 1013 
Q 994 666 1022 556 
Q 1066 375 1236 237 
Q 1406 100 1666 100 
Q 1978 100 2172 344 
Q 2425 663 2425 1241 
Q 2425 1897 2138 2250 
Q 1938 2494 1663 2494 
Q 1513 2494 1366 2419 
Q 1253 2363 994 2081 
z
" transform="scale(0.015625)"/>
      </defs>
      <use xlink:href="#TimesNewRomanPSMT-53"/>
      <use xlink:href="#TimesNewRomanPSMT-74" transform="translate(55.615234 0)"/>
      <use xlink:href="#TimesNewRomanPSMT-61" transform="translate(83.398438 0)"/>
      <use xlink:href="#TimesNewRomanPSMT-63" transform="translate(127.783203 0)"/>
      <use xlink:href="#TimesNewRomanPSMT-6b" transform="translate(172.167969 0)"/>
      <use xlink:href="#TimesNewRomanPSMT-65" transform="translate(222.167969 0)"/>
      <use xlink:href="#TimesNewRomanPSMT-64" transform="translate(266.552734 0)"/>
      <use xlink:href="#TimesNewRomanPSMT-20" transform="translate(316.552734 0)"/>
      <use xlink:href="#TimesNewRomanPSMT-50" transform="translate(341.552734 0)"/>
      <use xlink:href="#TimesNewRomanPSMT-72" transform="translate(397.167969 0)"/>
      <use xlink:href="#TimesNewRomanPSMT-6f" transform="translate(430.46875 0)"/>
      <use xlink:href="#TimesNewRomanPSMT-70" transform="translate(480.46875 0)"/>
      <use xlink:href="#TimesNewRomanPSMT-6f" transform="translate(530.46875 0)"/>
      <use xlink:href="#TimesNewRomanPSMT-72" transform="translate(580.46875 0)"/>
      <use xlink:href="#TimesNewRomanPSMT-74" transform="translate(613.769531 0)"/>
      <use xlink:href="#TimesNewRomanPSMT-69" transform="translate(641.552734 0)"/>
      <use xlink:href="#TimesNewRomanPSMT-6f" transform="translate(669.335938 0)"/>
      <use xlink:href="#TimesNewRomanPSMT-6e" transform="translate(719.335938 0)"/>
     </g>
    </g>
   </g>
   <g id="FillBetweenPolyCollection_1">
    <defs>
     <path id="m8ce869dace" d="M 57.08 -580.229531 
L 57.08 -251.750625 
L 60.195022 -251.750625 
L 63.310043 -251.750625 
L 66.425065 -251.750625 
L 69.540087 -251.750625 
L 72.655108 -251.750625 
L 75.77013 -251.750625 
L 78.885152 -251.750625 
L 82.000174 -251.750625 
L 85.115195 -251.750625 
L 88.230217 -251.750625 
L 91.345239 -251.750625 
L 94.46026 -251.750625 
L 97.575282 -251.750625 
L 100.690304 -251.750625 
L 103.805325 -251.750625 
L 106.920347 -251.750625 
L 110.035369 -251.750625 
L 113.150391 -251.750625 
L 116.265412 -251.750625 
L 119.380434 -251.750625 
L 122.495456 -251.750625 
L 125.610477 -251.750625 
L 128.725499 -251.750625 
L 131.840521 -251.750625 
L 134.955542 -251.750625 
L 138.070564 -251.750625 
L 141.185586 -251.750625 
L 144.300607 -251.750625 
L 147.415629 -251.750625 
L 150.530651 -251.750625 
L 153.645673 -251.750625 
L 156.760694 -251.750625 
L 159.875716 -251.750625 
L 162.990738 -251.750625 
L 166.105759 -251.750625 
L 169.220781 -251.750625 
L 172.335803 -251.750625 
L 175.450824 -251.750625 
L 178.565846 -251.750625 
L 181.680868 -251.750625 
L 184.79589 -251.750625 
L 187.910911 -251.750625 
L 191.025933 -251.750625 
L 194.140955 -251.750625 
L 197.255976 -251.750625 
L 200.370998 -251.750625 
L 203.48602 -251.750625 
L 206.601041 -251.750625 
L 209.716063 -251.750625 
L 212.831085 -251.750625 
L 215.946107 -251.750625 
L 219.061128 -251.750625 
L 222.17615 -251.750625 
L 225.291172 -251.750625 
L 228.406193 -251.750625 
L 231.521215 -251.750625 
L 234.636237 -251.750625 
L 237.751258 -251.750625 
L 240.86628 -251.750625 
L 243.981302 -251.750625 
L 247.096323 -251.750625 
L 250.211345 -251.750625 
L 253.326367 -251.750625 
L 256.441389 -251.750625 
L 259.55641 -251.750625 
L 262.671432 -251.750625 
L 265.786454 -251.750625 
L 268.901475 -251.750625 
L 272.016497 -251.750625 
L 275.131519 -251.750625 
L 278.24654 -251.750625 
L 281.361562 -251.750625 
L 284.476584 -251.750625 
L 287.591606 -251.750625 
L 290.706627 -251.750625 
L 293.821649 -251.750625 
L 296.936671 -251.750625 
L 300.051692 -251.750625 
L 303.166714 -251.750625 
L 306.281736 -251.750625 
L 309.396757 -251.750625 
L 312.511779 -251.750625 
L 315.626801 -251.750625 
L 318.741822 -251.750625 
L 321.856844 -251.750625 
L 324.971866 -251.750625 
L 328.086888 -251.750625 
L 331.201909 -251.750625 
L 334.316931 -251.750625 
L 337.431953 -251.750625 
L 340.546974 -251.750625 
L 343.661996 -251.750625 
L 346.777018 -251.750625 
L 349.892039 -251.750625 
L 353.007061 -251.750625 
L 356.122083 -251.750625 
L 359.237105 -251.750625 
L 362.352126 -251.750625 
L 365.467148 -251.750625 
L 368.58217 -251.750625 
L 371.697191 -251.750625 
L 374.812213 -251.750625 
L 377.927235 -251.750625 
L 381.042256 -251.750625 
L 384.157278 -251.750625 
L 387.2723 -251.750625 
L 390.387321 -251.750625 
L 393.502343 -251.750625 
L 396.617365 -251.750625 
L 399.732387 -251.750625 
L 402.847408 -251.750625 
L 405.96243 -251.750625 
L 409.077452 -251.750625 
L 412.192473 -251.750625 
L 415.307495 -251.750625 
L 418.422517 -251.750625 
L 421.537538 -251.750625 
L 424.65256 -251.750625 
L 427.767582 -251.750625 
L 430.882604 -251.750625 
L 433.997625 -251.750625 
L 437.112647 -251.750625 
L 440.227669 -251.750625 
L 443.34269 -251.750625 
L 446.457712 -251.750625 
L 449.572734 -251.750625 
L 452.687755 -251.750625 
L 455.802777 -251.750625 
L 458.917799 -251.750625 
L 462.032821 -251.750625 
L 465.147842 -251.750625 
L 468.262864 -251.750625 
L 471.377886 -251.750625 
L 474.492907 -251.750625 
L 477.607929 -251.750625 
L 480.722951 -251.750625 
L 483.837972 -251.750625 
L 486.952994 -251.750625 
L 490.068016 -251.750625 
L 493.183037 -251.750625 
L 496.298059 -251.750625 
L 499.413081 -251.750625 
L 502.528103 -251.750625 
L 505.643124 -251.750625 
L 508.758146 -251.750625 
L 511.873168 -251.750625 
L 514.988189 -251.750625 
L 518.103211 -251.750625 
L 521.218233 -251.750625 
L 524.333254 -251.750625 
L 527.448276 -251.750625 
L 530.563298 -251.750625 
L 533.67832 -251.750625 
L 536.793341 -251.750625 
L 539.908363 -251.750625 
L 543.023385 -251.750625 
L 546.138406 -251.750625 
L 549.253428 -251.750625 
L 552.36845 -251.750625 
L 555.483471 -251.750625 
L 558.598493 -251.750625 
L 561.713515 -251.750625 
L 564.828536 -251.750625 
L 567.943558 -251.750625 
L 571.05858 -251.750625 
L 574.173602 -251.750625 
L 577.288623 -251.750625 
L 580.403645 -251.750625 
L 583.518667 -251.750625 
L 586.633688 -251.750625 
L 589.74871 -251.750625 
L 592.863732 -251.750625 
L 595.978753 -251.750625 
L 599.093775 -251.750625 
L 602.208797 -251.750625 
L 605.323819 -251.750625 
L 608.43884 -251.750625 
L 611.553862 -251.750625 
L 614.668884 -251.750625 
L 617.783905 -251.750625 
L 620.898927 -251.750625 
L 624.013949 -251.750625 
L 627.12897 -251.750625 
L 630.243992 -251.750625 
L 633.359014 -251.750625 
L 636.474036 -251.750625 
L 639.589057 -251.750625 
L 642.704079 -251.750625 
L 645.819101 -251.750625 
L 648.934122 -251.750625 
L 652.049144 -251.750625 
L 655.164166 -251.750625 
L 658.279187 -251.750625 
L 661.394209 -251.750625 
L 664.509231 -251.750625 
L 664.509231 -667.823906 
L 664.509231 -667.823906 
L 661.394209 -689.7225 
L 658.279187 -689.7225 
L 655.164166 -689.7225 
L 652.049144 -641.058958 
L 648.934122 -667.823906 
L 645.819101 -689.7225 
L 642.704079 -645.925313 
L 639.589057 -624.026719 
L 636.474036 -634.976016 
L 633.359014 -689.7225 
L 630.243992 -627.155089 
L 627.12897 -543.731875 
L 624.013949 -645.925313 
L 620.898927 -689.7225 
L 617.783905 -656.032356 
L 614.668884 -667.823906 
L 611.553862 -689.7225 
L 608.43884 -660.524375 
L 605.323819 -689.7225 
L 602.208797 -689.7225 
L 599.093775 -580.229531 
L 595.978753 -689.7225 
L 592.863732 -580.229531 
L 589.74871 -689.7225 
L 586.633688 -641.058958 
L 583.518667 -649.906875 
L 580.403645 -662.349258 
L 577.288623 -470.736562 
L 574.173602 -643.620197 
L 571.05858 -689.7225 
L 567.943558 -689.7225 
L 564.828536 -645.925313 
L 561.713515 -667.823906 
L 558.598493 -624.026719 
L 555.483471 -645.925313 
L 552.36845 -624.026719 
L 549.253428 -645.925313 
L 546.138406 -689.7225 
L 543.023385 -602.128125 
L 539.908363 -645.925313 
L 536.793341 -592.395417 
L 533.67832 -602.128125 
L 530.563298 -667.823906 
L 527.448276 -645.925313 
L 524.333254 -667.823906 
L 521.218233 -634.976016 
L 518.103211 -645.925313 
L 514.988189 -616.727188 
L 511.873168 -588.652067 
L 508.758146 -645.925313 
L 505.643124 -689.7225 
L 502.528103 -660.524375 
L 499.413081 -602.128125 
L 496.298059 -689.7225 
L 493.183037 -658.438795 
L 490.068016 -620.569046 
L 486.952994 -643.620197 
L 483.837972 -689.7225 
L 480.722951 -470.736562 
L 477.607929 -689.7225 
L 474.492907 -689.7225 
L 471.377886 -602.128125 
L 468.262864 -689.7225 
L 465.147842 -580.229531 
L 462.032821 -689.7225 
L 458.917799 -689.7225 
L 455.802777 -649.906875 
L 452.687755 -397.74125 
L 449.572734 -543.731875 
L 446.457712 -689.7225 
L 443.34269 -602.128125 
L 440.227669 -251.750625 
L 437.112647 -597.517895 
L 433.997625 -572.93 
L 430.882604 -689.7225 
L 427.767582 -667.823906 
L 424.65256 -667.823906 
L 421.537538 -602.128125 
L 418.422517 -689.7225 
L 415.307495 -689.7225 
L 412.192473 -689.7225 
L 409.077452 -689.7225 
L 405.96243 -643.620197 
L 402.847408 -689.7225 
L 399.732387 -580.229531 
L 396.617365 -689.7225 
L 393.502343 -689.7225 
L 390.387321 -470.736562 
L 387.2723 -662.349258 
L 384.157278 -543.731875 
L 381.042256 -602.128125 
L 377.927235 -470.736562 
L 374.812213 -251.750625 
L 371.697191 -689.7225 
L 368.58217 -251.750625 
L 365.467148 -645.925313 
L 362.352126 -602.128125 
L 359.237105 -397.74125 
L 356.122083 -616.727188 
L 353.007061 -689.7225 
L 349.892039 -689.7225 
L 346.777018 -602.128125 
L 343.661996 -689.7225 
L 340.546974 -641.058958 
L 337.431953 -689.7225 
L 334.316931 -689.7225 
L 331.201909 -689.7225 
L 328.086888 -689.7225 
L 324.971866 -689.7225 
L 321.856844 -610.09125 
L 318.741822 -689.7225 
L 315.626801 -689.7225 
L 312.511779 -689.7225 
L 309.396757 -689.7225 
L 306.281736 -689.7225 
L 303.166714 -627.155089 
L 300.051692 -689.7225 
L 296.936671 -689.7225 
L 293.821649 -653.224844 
L 290.706627 -689.7225 
L 287.591606 -620.569046 
L 284.476584 -645.925313 
L 281.361562 -602.128125 
L 278.24654 -660.524375 
L 275.131519 -588.652067 
L 272.016497 -543.731875 
L 268.901475 -689.7225 
L 265.786454 -689.7225 
L 262.671432 -602.128125 
L 259.55641 -689.7225 
L 256.441389 -251.750625 
L 253.326367 -612.433346 
L 250.211345 -624.026719 
L 247.096323 -580.229531 
L 243.981302 -616.727188 
L 240.86628 -658.438795 
L 237.751258 -634.976016 
L 234.636237 -689.7225 
L 231.521215 -580.229531 
L 228.406193 -689.7225 
L 225.291172 -588.652067 
L 222.17615 -602.128125 
L 219.061128 -470.736562 
L 215.946107 -602.128125 
L 212.831085 -645.925313 
L 209.716063 -645.925313 
L 206.601041 -585.992319 
L 203.48602 -645.925313 
L 200.370998 -667.823906 
L 197.255976 -624.026719 
L 194.140955 -645.925313 
L 191.025933 -643.620197 
L 187.910911 -622.342212 
L 184.79589 -689.7225 
L 181.680868 -689.7225 
L 178.565846 -689.7225 
L 175.450824 -689.7225 
L 172.335803 -620.569046 
L 169.220781 -689.7225 
L 166.105759 -627.155089 
L 162.990738 -470.736562 
L 159.875716 -689.7225 
L 156.760694 -580.229531 
L 153.645673 -689.7225 
L 150.530651 -620.569046 
L 147.415629 -689.7225 
L 144.300607 -689.7225 
L 141.185586 -689.7225 
L 138.070564 -689.7225 
L 134.955542 -470.736562 
L 131.840521 -514.53375 
L 128.725499 -543.731875 
L 125.610477 -470.736562 
L 122.495456 -689.7225 
L 119.380434 -689.7225 
L 116.265412 -689.7225 
L 113.150391 -564.587679 
L 110.035369 -470.736562 
L 106.920347 -689.7225 
L 103.805325 -689.7225 
L 100.690304 -689.7225 
L 97.575282 -689.7225 
L 94.46026 -689.7225 
L 91.345239 -689.7225 
L 88.230217 -602.128125 
L 85.115195 -689.7225 
L 82.000174 -689.7225 
L 78.885152 -689.7225 
L 75.77013 -426.939375 
L 72.655108 -689.7225 
L 69.540087 -543.731875 
L 66.425065 -543.731875 
L 63.310043 -397.74125 
L 60.195022 -689.7225 
L 57.08 -580.229531 
z
" style="stroke: #ffffff"/>
    </defs>
    <g clip-path="url(#p50a2c0675d)">
     <use xlink:href="#m8ce869dace" x="0" y="720" style="fill: #5386b6; stroke: #ffffff"/>
    </g>
   </g>
   <g id="FillBetweenPolyCollection_2">
    <defs>
     <path id="m08d4c911af" d="M 57.08 -689.7225 
L 57.08 -580.229531 
L 60.195022 -689.7225 
L 63.310043 -397.74125 
L 66.425065 -543.731875 
L 69.540087 -543.731875 
L 72.655108 -689.7225 
L 75.77013 -426.939375 
L 78.885152 -689.7225 
L 82.000174 -689.7225 
L 85.115195 -689.7225 
L 88.230217 -602.128125 
L 91.345239 -689.7225 
L 94.46026 -689.7225 
L 97.575282 -689.7225 
L 100.690304 -689.7225 
L 103.805325 -689.7225 
L 106.920347 -689.7225 
L 110.035369 -470.736562 
L 113.150391 -564.587679 
L 116.265412 -689.7225 
L 119.380434 -689.7225 
L 122.495456 -689.7225 
L 125.610477 -470.736562 
L 128.725499 -543.731875 
L 131.840521 -514.53375 
L 134.955542 -470.736562 
L 138.070564 -689.7225 
L 141.185586 -689.7225 
L 144.300607 -689.7225 
L 147.415629 -689.7225 
L 150.530651 -620.569046 
L 153.645673 -689.7225 
L 156.760694 -580.229531 
L 159.875716 -689.7225 
L 162.990738 -470.736562 
L 166.105759 -627.155089 
L 169.220781 -689.7225 
L 172.335803 -620.569046 
L 175.450824 -689.7225 
L 178.565846 -689.7225 
L 181.680868 -689.7225 
L 184.79589 -689.7225 
L 187.910911 -622.342212 
L 191.025933 -643.620197 
L 194.140955 -645.925313 
L 197.255976 -624.026719 
L 200.370998 -667.823906 
L 203.48602 -645.925313 
L 206.601041 -585.992319 
L 209.716063 -645.925313 
L 212.831085 -645.925313 
L 215.946107 -602.128125 
L 219.061128 -470.736562 
L 222.17615 -602.128125 
L 225.291172 -588.652067 
L 228.406193 -689.7225 
L 231.521215 -580.229531 
L 234.636237 -689.7225 
L 237.751258 -634.976016 
L 240.86628 -658.438795 
L 243.981302 -616.727188 
L 247.096323 -580.229531 
L 250.211345 -624.026719 
L 253.326367 -612.433346 
L 256.441389 -251.750625 
L 259.55641 -689.7225 
L 262.671432 -602.128125 
L 265.786454 -689.7225 
L 268.901475 -689.7225 
L 272.016497 -543.731875 
L 275.131519 -588.652067 
L 278.24654 -660.524375 
L 281.361562 -602.128125 
L 284.476584 -645.925313 
L 287.591606 -620.569046 
L 290.706627 -689.7225 
L 293.821649 -653.224844 
L 296.936671 -689.7225 
L 300.051692 -689.7225 
L 303.166714 -627.155089 
L 306.281736 -689.7225 
L 309.396757 -689.7225 
L 312.511779 -689.7225 
L 315.626801 -689.7225 
L 318.741822 -689.7225 
L 321.856844 -610.09125 
L 324.971866 -689.7225 
L 328.086888 -689.7225 
L 331.201909 -689.7225 
L 334.316931 -689.7225 
L 337.431953 -689.7225 
L 340.546974 -641.058958 
L 343.661996 -689.7225 
L 346.777018 -602.128125 
L 349.892039 -689.7225 
L 353.007061 -689.7225 
L 356.122083 -616.727188 
L 359.237105 -397.74125 
L 362.352126 -602.128125 
L 365.467148 -645.925313 
L 368.58217 -251.750625 
L 371.697191 -689.7225 
L 374.812213 -251.750625 
L 377.927235 -470.736562 
L 381.042256 -602.128125 
L 384.157278 -543.731875 
L 387.2723 -662.349258 
L 390.387321 -470.736562 
L 393.502343 -689.7225 
L 396.617365 -689.7225 
L 399.732387 -580.229531 
L 402.847408 -689.7225 
L 405.96243 -643.620197 
L 409.077452 -689.7225 
L 412.192473 -689.7225 
L 415.307495 -689.7225 
L 418.422517 -689.7225 
L 421.537538 -602.128125 
L 424.65256 -667.823906 
L 427.767582 -667.823906 
L 430.882604 -689.7225 
L 433.997625 -572.93 
L 437.112647 -597.517895 
L 440.227669 -251.750625 
L 443.34269 -602.128125 
L 446.457712 -689.7225 
L 449.572734 -543.731875 
L 452.687755 -397.74125 
L 455.802777 -649.906875 
L 458.917799 -689.7225 
L 462.032821 -689.7225 
L 465.147842 -580.229531 
L 468.262864 -689.7225 
L 471.377886 -602.128125 
L 474.492907 -689.7225 
L 477.607929 -689.7225 
L 480.722951 -470.736562 
L 483.837972 -689.7225 
L 486.952994 -643.620197 
L 490.068016 -620.569046 
L 493.183037 -658.438795 
L 496.298059 -689.7225 
L 499.413081 -602.128125 
L 502.528103 -660.524375 
L 505.643124 -689.7225 
L 508.758146 -645.925313 
L 511.873168 -588.652067 
L 514.988189 -616.727188 
L 518.103211 -645.925313 
L 521.218233 -634.976016 
L 524.333254 -667.823906 
L 527.448276 -645.925313 
L 530.563298 -667.823906 
L 533.67832 -602.128125 
L 536.793341 -592.395417 
L 539.908363 -645.925313 
L 543.023385 -602.128125 
L 546.138406 -689.7225 
L 549.253428 -645.925313 
L 552.36845 -624.026719 
L 555.483471 -645.925313 
L 558.598493 -624.026719 
L 561.713515 -667.823906 
L 564.828536 -645.925313 
L 567.943558 -689.7225 
L 571.05858 -689.7225 
L 574.173602 -643.620197 
L 577.288623 -470.736562 
L 580.403645 -662.349258 
L 583.518667 -649.906875 
L 586.633688 -641.058958 
L 589.74871 -689.7225 
L 592.863732 -580.229531 
L 595.978753 -689.7225 
L 599.093775 -580.229531 
L 602.208797 -689.7225 
L 605.323819 -689.7225 
L 608.43884 -660.524375 
L 611.553862 -689.7225 
L 614.668884 -667.823906 
L 617.783905 -656.032356 
L 620.898927 -689.7225 
L 624.013949 -645.925313 
L 627.12897 -543.731875 
L 630.243992 -627.155089 
L 633.359014 -689.7225 
L 636.474036 -634.976016 
L 639.589057 -624.026719 
L 642.704079 -645.925313 
L 645.819101 -689.7225 
L 648.934122 -667.823906 
L 652.049144 -641.058958 
L 655.164166 -689.7225 
L 658.279187 -689.7225 
L 661.394209 -689.7225 
L 664.509231 -667.823906 
L 664.509231 -667.823906 
L 664.509231 -667.823906 
L 661.394209 -689.7225 
L 658.279187 -689.7225 
L 655.164166 -689.7225 
L 652.049144 -641.058958 
L 648.934122 -667.823906 
L 645.819101 -689.7225 
L 642.704079 -667.823906 
L 639.589057 -624.026719 
L 636.474036 -634.976016 
L 633.359014 -689.7225 
L 630.243992 -658.438795 
L 627.12897 -543.731875 
L 624.013949 -645.925313 
L 620.898927 -689.7225 
L 617.783905 -656.032356 
L 614.668884 -667.823906 
L 611.553862 -689.7225 
L 608.43884 -660.524375 
L 605.323819 -689.7225 
L 602.208797 -689.7225 
L 599.093775 -624.026719 
L 595.978753 -689.7225 
L 592.863732 -689.7225 
L 589.74871 -689.7225 
L 586.633688 -689.7225 
L 583.518667 -649.906875 
L 580.403645 -662.349258 
L 577.288623 -470.736562 
L 574.173602 -689.7225 
L 571.05858 -689.7225 
L 567.943558 -689.7225 
L 564.828536 -645.925313 
L 561.713515 -667.823906 
L 558.598493 -624.026719 
L 555.483471 -645.925313 
L 552.36845 -624.026719 
L 549.253428 -645.925313 
L 546.138406 -689.7225 
L 543.023385 -602.128125 
L 539.908363 -645.925313 
L 536.793341 -641.058958 
L 533.67832 -602.128125 
L 530.563298 -667.823906 
L 527.448276 -667.823906 
L 524.333254 -689.7225 
L 521.218233 -634.976016 
L 518.103211 -645.925313 
L 514.988189 -689.7225 
L 511.873168 -622.342212 
L 508.758146 -645.925313 
L 505.643124 -689.7225 
L 502.528103 -689.7225 
L 499.413081 -602.128125 
L 496.298059 -689.7225 
L 493.183037 -658.438795 
L 490.068016 -643.620197 
L 486.952994 -666.671349 
L 483.837972 -689.7225 
L 480.722951 -470.736562 
L 477.607929 -689.7225 
L 474.492907 -689.7225 
L 471.377886 -602.128125 
L 468.262864 -689.7225 
L 465.147842 -580.229531 
L 462.032821 -689.7225 
L 458.917799 -689.7225 
L 455.802777 -649.906875 
L 452.687755 -397.74125 
L 449.572734 -543.731875 
L 446.457712 -689.7225 
L 443.34269 -645.925313 
L 440.227669 -251.750625 
L 437.112647 -597.517895 
L 433.997625 -572.93 
L 430.882604 -689.7225 
L 427.767582 -689.7225 
L 424.65256 -689.7225 
L 421.537538 -602.128125 
L 418.422517 -689.7225 
L 415.307495 -689.7225 
L 412.192473 -689.7225 
L 409.077452 -689.7225 
L 405.96243 -643.620197 
L 402.847408 -689.7225 
L 399.732387 -689.7225 
L 396.617365 -689.7225 
L 393.502343 -689.7225 
L 390.387321 -689.7225 
L 387.2723 -689.7225 
L 384.157278 -543.731875 
L 381.042256 -645.925313 
L 377.927235 -470.736562 
L 374.812213 -251.750625 
L 371.697191 -689.7225 
L 368.58217 -251.750625 
L 365.467148 -667.823906 
L 362.352126 -602.128125 
L 359.237105 -592.395417 
L 356.122083 -616.727188 
L 353.007061 -689.7225 
L 349.892039 -689.7225 
L 346.777018 -602.128125 
L 343.661996 -689.7225 
L 340.546974 -641.058958 
L 337.431953 -689.7225 
L 334.316931 -689.7225 
L 331.201909 -689.7225 
L 328.086888 -689.7225 
L 324.971866 -689.7225 
L 321.856844 -689.7225 
L 318.741822 -689.7225 
L 315.626801 -689.7225 
L 312.511779 -689.7225 
L 309.396757 -689.7225 
L 306.281736 -689.7225 
L 303.166714 -627.155089 
L 300.051692 -689.7225 
L 296.936671 -689.7225 
L 293.821649 -689.7225 
L 290.706627 -689.7225 
L 287.591606 -643.620197 
L 284.476584 -689.7225 
L 281.361562 -602.128125 
L 278.24654 -689.7225 
L 275.131519 -689.7225 
L 272.016497 -616.727188 
L 268.901475 -689.7225 
L 265.786454 -689.7225 
L 262.671432 -667.823906 
L 259.55641 -689.7225 
L 256.441389 -251.750625 
L 253.326367 -663.959449 
L 250.211345 -689.7225 
L 247.096323 -624.026719 
L 243.981302 -616.727188 
L 240.86628 -689.7225 
L 237.751258 -634.976016 
L 234.636237 -689.7225 
L 231.521215 -689.7225 
L 228.406193 -689.7225 
L 225.291172 -622.342212 
L 222.17615 -689.7225 
L 219.061128 -580.229531 
L 215.946107 -689.7225 
L 212.831085 -689.7225 
L 209.716063 -667.823906 
L 206.601041 -655.145773 
L 203.48602 -667.823906 
L 200.370998 -689.7225 
L 197.255976 -667.823906 
L 194.140955 -689.7225 
L 191.025933 -666.671349 
L 187.910911 -689.7225 
L 184.79589 -689.7225 
L 181.680868 -689.7225 
L 178.565846 -689.7225 
L 175.450824 -689.7225 
L 172.335803 -666.671349 
L 169.220781 -689.7225 
L 166.105759 -689.7225 
L 162.990738 -470.736562 
L 159.875716 -689.7225 
L 156.760694 -689.7225 
L 153.645673 -689.7225 
L 150.530651 -689.7225 
L 147.415629 -689.7225 
L 144.300607 -689.7225 
L 141.185586 -689.7225 
L 138.070564 -689.7225 
L 134.955542 -470.736562 
L 131.840521 -689.7225 
L 128.725499 -592.395417 
L 125.610477 -470.736562 
L 122.495456 -689.7225 
L 119.380434 -689.7225 
L 116.265412 -689.7225 
L 113.150391 -689.7225 
L 110.035369 -470.736562 
L 106.920347 -689.7225 
L 103.805325 -689.7225 
L 100.690304 -689.7225 
L 97.575282 -689.7225 
L 94.46026 -689.7225 
L 91.345239 -689.7225 
L 88.230217 -689.7225 
L 85.115195 -689.7225 
L 82.000174 -689.7225 
L 78.885152 -689.7225 
L 75.77013 -689.7225 
L 72.655108 -689.7225 
L 69.540087 -616.727188 
L 66.425065 -689.7225 
L 63.310043 -543.731875 
L 60.195022 -689.7225 
L 57.08 -689.7225 
z
" style="stroke: #ffffff"/>
    </defs>
    <g clip-path="url(#p50a2c0675d)">
     <use xlink:href="#m08d4c911af" x="0" y="720" style="fill: #d57459; stroke: #ffffff"/>
    </g>
   </g>
   <g id="FillBetweenPolyCollection_3">
    <defs>
     <path id="mddcf5b699b" d="M 57.08 -689.7225 
L 57.08 -689.7225 
L 60.195022 -689.7225 
L 63.310043 -543.731875 
L 66.425065 -689.7225 
L 69.540087 -616.727188 
L 72.655108 -689.7225 
L 75.77013 -689.7225 
L 78.885152 -689.7225 
L 82.000174 -689.7225 
L 85.115195 -689.7225 
L 88.230217 -689.7225 
L 91.345239 -689.7225 
L 94.46026 -689.7225 
L 97.575282 -689.7225 
L 100.690304 -689.7225 
L 103.805325 -689.7225 
L 106.920347 -689.7225 
L 110.035369 -470.736562 
L 113.150391 -689.7225 
L 116.265412 -689.7225 
L 119.380434 -689.7225 
L 122.495456 -689.7225 
L 125.610477 -470.736562 
L 128.725499 -592.395417 
L 131.840521 -689.7225 
L 134.955542 -470.736562 
L 138.070564 -689.7225 
L 141.185586 -689.7225 
L 144.300607 -689.7225 
L 147.415629 -689.7225 
L 150.530651 -689.7225 
L 153.645673 -689.7225 
L 156.760694 -689.7225 
L 159.875716 -689.7225 
L 162.990738 -470.736562 
L 166.105759 -689.7225 
L 169.220781 -689.7225 
L 172.335803 -666.671349 
L 175.450824 -689.7225 
L 178.565846 -689.7225 
L 181.680868 -689.7225 
L 184.79589 -689.7225 
L 187.910911 -689.7225 
L 191.025933 -666.671349 
L 194.140955 -689.7225 
L 197.255976 -667.823906 
L 200.370998 -689.7225 
L 203.48602 -667.823906 
L 206.601041 -655.145773 
L 209.716063 -667.823906 
L 212.831085 -689.7225 
L 215.946107 -689.7225 
L 219.061128 -580.229531 
L 222.17615 -689.7225 
L 225.291172 -622.342212 
L 228.406193 -689.7225 
L 231.521215 -689.7225 
L 234.636237 -689.7225 
L 237.751258 -634.976016 
L 240.86628 -689.7225 
L 243.981302 -616.727188 
L 247.096323 -624.026719 
L 250.211345 -689.7225 
L 253.326367 -663.959449 
L 256.441389 -251.750625 
L 259.55641 -689.7225 
L 262.671432 -667.823906 
L 265.786454 -689.7225 
L 268.901475 -689.7225 
L 272.016497 -616.727188 
L 275.131519 -689.7225 
L 278.24654 -689.7225 
L 281.361562 -602.128125 
L 284.476584 -689.7225 
L 287.591606 -643.620197 
L 290.706627 -689.7225 
L 293.821649 -689.7225 
L 296.936671 -689.7225 
L 300.051692 -689.7225 
L 303.166714 -627.155089 
L 306.281736 -689.7225 
L 309.396757 -689.7225 
L 312.511779 -689.7225 
L 315.626801 -689.7225 
L 318.741822 -689.7225 
L 321.856844 -689.7225 
L 324.971866 -689.7225 
L 328.086888 -689.7225 
L 331.201909 -689.7225 
L 334.316931 -689.7225 
L 337.431953 -689.7225 
L 340.546974 -641.058958 
L 343.661996 -689.7225 
L 346.777018 -602.128125 
L 349.892039 -689.7225 
L 353.007061 -689.7225 
L 356.122083 -616.727188 
L 359.237105 -592.395417 
L 362.352126 -602.128125 
L 365.467148 -667.823906 
L 368.58217 -251.750625 
L 371.697191 -689.7225 
L 374.812213 -251.750625 
L 377.927235 -470.736562 
L 381.042256 -645.925313 
L 384.157278 -543.731875 
L 387.2723 -689.7225 
L 390.387321 -689.7225 
L 393.502343 -689.7225 
L 396.617365 -689.7225 
L 399.732387 -689.7225 
L 402.847408 -689.7225 
L 405.96243 -643.620197 
L 409.077452 -689.7225 
L 412.192473 -689.7225 
L 415.307495 -689.7225 
L 418.422517 -689.7225 
L 421.537538 -602.128125 
L 424.65256 -689.7225 
L 427.767582 -689.7225 
L 430.882604 -689.7225 
L 433.997625 -572.93 
L 437.112647 -597.517895 
L 440.227669 -251.750625 
L 443.34269 -645.925313 
L 446.457712 -689.7225 
L 449.572734 -543.731875 
L 452.687755 -397.74125 
L 455.802777 -649.906875 
L 458.917799 -689.7225 
L 462.032821 -689.7225 
L 465.147842 -580.229531 
L 468.262864 -689.7225 
L 471.377886 -602.128125 
L 474.492907 -689.7225 
L 477.607929 -689.7225 
L 480.722951 -470.736562 
L 483.837972 -689.7225 
L 486.952994 -666.671349 
L 490.068016 -643.620197 
L 493.183037 -658.438795 
L 496.298059 -689.7225 
L 499.413081 -602.128125 
L 502.528103 -689.7225 
L 505.643124 -689.7225 
L 508.758146 -645.925313 
L 511.873168 -622.342212 
L 514.988189 -689.7225 
L 518.103211 -645.925313 
L 521.218233 -634.976016 
L 524.333254 -689.7225 
L 527.448276 -667.823906 
L 530.563298 -667.823906 
L 533.67832 -602.128125 
L 536.793341 -641.058958 
L 539.908363 -645.925313 
L 543.023385 -602.128125 
L 546.138406 -689.7225 
L 549.253428 -645.925313 
L 552.36845 -624.026719 
L 555.483471 -645.925313 
L 558.598493 -624.026719 
L 561.713515 -667.823906 
L 564.828536 -645.925313 
L 567.943558 -689.7225 
L 571.05858 -689.7225 
L 574.173602 -689.7225 
L 577.288623 -470.736562 
L 580.403645 -662.349258 
L 583.518667 -649.906875 
L 586.633688 -689.7225 
L 589.74871 -689.7225 
L 592.863732 -689.7225 
L 595.978753 -689.7225 
L 599.093775 -624.026719 
L 602.208797 -689.7225 
L 605.323819 -689.7225 
L 608.43884 -660.524375 
L 611.553862 -689.7225 
L 614.668884 -667.823906 
L 617.783905 -656.032356 
L 620.898927 -689.7225 
L 624.013949 -645.925313 
L 627.12897 -543.731875 
L 630.243992 -658.438795 
L 633.359014 -689.7225 
L 636.474036 -634.976016 
L 639.589057 -624.026719 
L 642.704079 -667.823906 
L 645.819101 -689.7225 
L 648.934122 -667.823906 
L 652.049144 -641.058958 
L 655.164166 -689.7225 
L 658.279187 -689.7225 
L 661.394209 -689.7225 
L 664.509231 -667.823906 
L 664.509231 -667.823906 
L 664.509231 -667.823906 
L 661.394209 -689.7225 
L 658.279187 -689.7225 
L 655.164166 -689.7225 
L 652.049144 -641.058958 
L 648.934122 -667.823906 
L 645.819101 -689.7225 
L 642.704079 -667.823906 
L 639.589057 -624.026719 
L 636.474036 -634.976016 
L 633.359014 -689.7225 
L 630.243992 -658.438795 
L 627.12897 -543.731875 
L 624.013949 -645.925313 
L 620.898927 -689.7225 
L 617.783905 -656.032356 
L 614.668884 -667.823906 
L 611.553862 -689.7225 
L 608.43884 -660.524375 
L 605.323819 -689.7225 
L 602.208797 -689.7225 
L 599.093775 -624.026719 
L 595.978753 -689.7225 
L 592.863732 -689.7225 
L 589.74871 -689.7225 
L 586.633688 -689.7225 
L 583.518667 -649.906875 
L 580.403645 -662.349258 
L 577.288623 -470.736562 
L 574.173602 -689.7225 
L 571.05858 -689.7225 
L 567.943558 -689.7225 
L 564.828536 -645.925313 
L 561.713515 -667.823906 
L 558.598493 -624.026719 
L 555.483471 -645.925313 
L 552.36845 -624.026719 
L 549.253428 -645.925313 
L 546.138406 -689.7225 
L 543.023385 -602.128125 
L 539.908363 -645.925313 
L 536.793341 -641.058958 
L 533.67832 -602.128125 
L 530.563298 -667.823906 
L 527.448276 -667.823906 
L 524.333254 -689.7225 
L 521.218233 -634.976016 
L 518.103211 -689.7225 
L 514.988189 -689.7225 
L 511.873168 -622.342212 
L 508.758146 -667.823906 
L 505.643124 -689.7225 
L 502.528103 -689.7225 
L 499.413081 -624.026719 
L 496.298059 -689.7225 
L 493.183037 -658.438795 
L 490.068016 -643.620197 
L 486.952994 -666.671349 
L 483.837972 -689.7225 
L 480.722951 -470.736562 
L 477.607929 -689.7225 
L 474.492907 -689.7225 
L 471.377886 -602.128125 
L 468.262864 -689.7225 
L 465.147842 -580.229531 
L 462.032821 -689.7225 
L 458.917799 -689.7225 
L 455.802777 -649.906875 
L 452.687755 -397.74125 
L 449.572734 -543.731875 
L 446.457712 -689.7225 
L 443.34269 -667.823906 
L 440.227669 -251.750625 
L 437.112647 -620.569046 
L 433.997625 -572.93 
L 430.882604 -689.7225 
L 427.767582 -689.7225 
L 424.65256 -689.7225 
L 421.537538 -667.823906 
L 418.422517 -689.7225 
L 415.307495 -689.7225 
L 412.192473 -689.7225 
L 409.077452 -689.7225 
L 405.96243 -666.671349 
L 402.847408 -689.7225 
L 399.732387 -689.7225 
L 396.617365 -689.7225 
L 393.502343 -689.7225 
L 390.387321 -689.7225 
L 387.2723 -689.7225 
L 384.157278 -689.7225 
L 381.042256 -645.925313 
L 377.927235 -470.736562 
L 374.812213 -251.750625 
L 371.697191 -689.7225 
L 368.58217 -689.7225 
L 365.467148 -689.7225 
L 362.352126 -602.128125 
L 359.237105 -641.058958 
L 356.122083 -616.727188 
L 353.007061 -689.7225 
L 349.892039 -689.7225 
L 346.777018 -602.128125 
L 343.661996 -689.7225 
L 340.546974 -641.058958 
L 337.431953 -689.7225 
L 334.316931 -689.7225 
L 331.201909 -689.7225 
L 328.086888 -689.7225 
L 324.971866 -689.7225 
L 321.856844 -689.7225 
L 318.741822 -689.7225 
L 315.626801 -689.7225 
L 312.511779 -689.7225 
L 309.396757 -689.7225 
L 306.281736 -689.7225 
L 303.166714 -627.155089 
L 300.051692 -689.7225 
L 296.936671 -689.7225 
L 293.821649 -689.7225 
L 290.706627 -689.7225 
L 287.591606 -666.671349 
L 284.476584 -689.7225 
L 281.361562 -602.128125 
L 278.24654 -689.7225 
L 275.131519 -689.7225 
L 272.016497 -689.7225 
L 268.901475 -689.7225 
L 265.786454 -689.7225 
L 262.671432 -689.7225 
L 259.55641 -689.7225 
L 256.441389 -689.7225 
L 253.326367 -663.959449 
L 250.211345 -689.7225 
L 247.096323 -667.823906 
L 243.981302 -616.727188 
L 240.86628 -689.7225 
L 237.751258 -634.976016 
L 234.636237 -689.7225 
L 231.521215 -689.7225 
L 228.406193 -689.7225 
L 225.291172 -622.342212 
L 222.17615 -689.7225 
L 219.061128 -580.229531 
L 215.946107 -689.7225 
L 212.831085 -689.7225 
L 209.716063 -689.7225 
L 206.601041 -689.7225 
L 203.48602 -667.823906 
L 200.370998 -689.7225 
L 197.255976 -667.823906 
L 194.140955 -689.7225 
L 191.025933 -666.671349 
L 187.910911 -689.7225 
L 184.79589 -689.7225 
L 181.680868 -689.7225 
L 178.565846 -689.7225 
L 175.450824 -689.7225 
L 172.335803 -689.7225 
L 169.220781 -689.7225 
L 166.105759 -689.7225 
L 162.990738 -470.736562 
L 159.875716 -689.7225 
L 156.760694 -689.7225 
L 153.645673 -689.7225 
L 150.530651 -689.7225 
L 147.415629 -689.7225 
L 144.300607 -689.7225 
L 141.185586 -689.7225 
L 138.070564 -689.7225 
L 134.955542 -470.736562 
L 131.840521 -689.7225 
L 128.725499 -592.395417 
L 125.610477 -470.736562 
L 122.495456 -689.7225 
L 119.380434 -689.7225 
L 116.265412 -689.7225 
L 113.150391 -689.7225 
L 110.035369 -470.736562 
L 106.920347 -689.7225 
L 103.805325 -689.7225 
L 100.690304 -689.7225 
L 97.575282 -689.7225 
L 94.46026 -689.7225 
L 91.345239 -689.7225 
L 88.230217 -689.7225 
L 85.115195 -689.7225 
L 82.000174 -689.7225 
L 78.885152 -689.7225 
L 75.77013 -689.7225 
L 72.655108 -689.7225 
L 69.540087 -689.7225 
L 66.425065 -689.7225 
L 63.310043 -689.7225 
L 60.195022 -689.7225 
L 57.08 -689.7225 
z
" style="stroke: #ffffff"/>
    </defs>
    <g clip-path="url(#p50a2c0675d)">
     <use xlink:href="#mddcf5b699b" x="0" y="720" style="fill: #e8bc60; stroke: #ffffff"/>
    </g>
   </g>
   <g id="FillBetweenPolyCollection_4">
    <defs>
     <path id="m8e0e65ce74" d="M 57.08 -689.7225 
L 57.08 -689.7225 
L 60.195022 -689.7225 
L 63.310043 -689.7225 
L 66.425065 -689.7225 
L 69.540087 -689.7225 
L 72.655108 -689.7225 
L 75.77013 -689.7225 
L 78.885152 -689.7225 
L 82.000174 -689.7225 
L 85.115195 -689.7225 
L 88.230217 -689.7225 
L 91.345239 -689.7225 
L 94.46026 -689.7225 
L 97.575282 -689.7225 
L 100.690304 -689.7225 
L 103.805325 -689.7225 
L 106.920347 -689.7225 
L 110.035369 -470.736562 
L 113.150391 -689.7225 
L 116.265412 -689.7225 
L 119.380434 -689.7225 
L 122.495456 -689.7225 
L 125.610477 -470.736562 
L 128.725499 -592.395417 
L 131.840521 -689.7225 
L 134.955542 -470.736562 
L 138.070564 -689.7225 
L 141.185586 -689.7225 
L 144.300607 -689.7225 
L 147.415629 -689.7225 
L 150.530651 -689.7225 
L 153.645673 -689.7225 
L 156.760694 -689.7225 
L 159.875716 -689.7225 
L 162.990738 -470.736562 
L 166.105759 -689.7225 
L 169.220781 -689.7225 
L 172.335803 -689.7225 
L 175.450824 -689.7225 
L 178.565846 -689.7225 
L 181.680868 -689.7225 
L 184.79589 -689.7225 
L 187.910911 -689.7225 
L 191.025933 -666.671349 
L 194.140955 -689.7225 
L 197.255976 -667.823906 
L 200.370998 -689.7225 
L 203.48602 -667.823906 
L 206.601041 -689.7225 
L 209.716063 -689.7225 
L 212.831085 -689.7225 
L 215.946107 -689.7225 
L 219.061128 -580.229531 
L 222.17615 -689.7225 
L 225.291172 -622.342212 
L 228.406193 -689.7225 
L 231.521215 -689.7225 
L 234.636237 -689.7225 
L 237.751258 -634.976016 
L 240.86628 -689.7225 
L 243.981302 -616.727188 
L 247.096323 -667.823906 
L 250.211345 -689.7225 
L 253.326367 -663.959449 
L 256.441389 -689.7225 
L 259.55641 -689.7225 
L 262.671432 -689.7225 
L 265.786454 -689.7225 
L 268.901475 -689.7225 
L 272.016497 -689.7225 
L 275.131519 -689.7225 
L 278.24654 -689.7225 
L 281.361562 -602.128125 
L 284.476584 -689.7225 
L 287.591606 -666.671349 
L 290.706627 -689.7225 
L 293.821649 -689.7225 
L 296.936671 -689.7225 
L 300.051692 -689.7225 
L 303.166714 -627.155089 
L 306.281736 -689.7225 
L 309.396757 -689.7225 
L 312.511779 -689.7225 
L 315.626801 -689.7225 
L 318.741822 -689.7225 
L 321.856844 -689.7225 
L 324.971866 -689.7225 
L 328.086888 -689.7225 
L 331.201909 -689.7225 
L 334.316931 -689.7225 
L 337.431953 -689.7225 
L 340.546974 -641.058958 
L 343.661996 -689.7225 
L 346.777018 -602.128125 
L 349.892039 -689.7225 
L 353.007061 -689.7225 
L 356.122083 -616.727188 
L 359.237105 -641.058958 
L 362.352126 -602.128125 
L 365.467148 -689.7225 
L 368.58217 -689.7225 
L 371.697191 -689.7225 
L 374.812213 -251.750625 
L 377.927235 -470.736562 
L 381.042256 -645.925313 
L 384.157278 -689.7225 
L 387.2723 -689.7225 
L 390.387321 -689.7225 
L 393.502343 -689.7225 
L 396.617365 -689.7225 
L 399.732387 -689.7225 
L 402.847408 -689.7225 
L 405.96243 -666.671349 
L 409.077452 -689.7225 
L 412.192473 -689.7225 
L 415.307495 -689.7225 
L 418.422517 -689.7225 
L 421.537538 -667.823906 
L 424.65256 -689.7225 
L 427.767582 -689.7225 
L 430.882604 -689.7225 
L 433.997625 -572.93 
L 437.112647 -620.569046 
L 440.227669 -251.750625 
L 443.34269 -667.823906 
L 446.457712 -689.7225 
L 449.572734 -543.731875 
L 452.687755 -397.74125 
L 455.802777 -649.906875 
L 458.917799 -689.7225 
L 462.032821 -689.7225 
L 465.147842 -580.229531 
L 468.262864 -689.7225 
L 471.377886 -602.128125 
L 474.492907 -689.7225 
L 477.607929 -689.7225 
L 480.722951 -470.736562 
L 483.837972 -689.7225 
L 486.952994 -666.671349 
L 490.068016 -643.620197 
L 493.183037 -658.438795 
L 496.298059 -689.7225 
L 499.413081 -624.026719 
L 502.528103 -689.7225 
L 505.643124 -689.7225 
L 508.758146 -667.823906 
L 511.873168 -622.342212 
L 514.988189 -689.7225 
L 518.103211 -689.7225 
L 521.218233 -634.976016 
L 524.333254 -689.7225 
L 527.448276 -667.823906 
L 530.563298 -667.823906 
L 533.67832 -602.128125 
L 536.793341 -641.058958 
L 539.908363 -645.925313 
L 543.023385 -602.128125 
L 546.138406 -689.7225 
L 549.253428 -645.925313 
L 552.36845 -624.026719 
L 555.483471 -645.925313 
L 558.598493 -624.026719 
L 561.713515 -667.823906 
L 564.828536 -645.925313 
L 567.943558 -689.7225 
L 571.05858 -689.7225 
L 574.173602 -689.7225 
L 577.288623 -470.736562 
L 580.403645 -662.349258 
L 583.518667 -649.906875 
L 586.633688 -689.7225 
L 589.74871 -689.7225 
L 592.863732 -689.7225 
L 595.978753 -689.7225 
L 599.093775 -624.026719 
L 602.208797 -689.7225 
L 605.323819 -689.7225 
L 608.43884 -660.524375 
L 611.553862 -689.7225 
L 614.668884 -667.823906 
L 617.783905 -656.032356 
L 620.898927 -689.7225 
L 624.013949 -645.925313 
L 627.12897 -543.731875 
L 630.243992 -658.438795 
L 633.359014 -689.7225 
L 636.474036 -634.976016 
L 639.589057 -624.026719 
L 642.704079 -667.823906 
L 645.819101 -689.7225 
L 648.934122 -667.823906 
L 652.049144 -641.058958 
L 655.164166 -689.7225 
L 658.279187 -689.7225 
L 661.394209 -689.7225 
L 664.509231 -667.823906 
L 664.509231 -689.7225 
L 664.509231 -689.7225 
L 661.394209 -689.7225 
L 658.279187 -689.7225 
L 655.164166 -689.7225 
L 652.049144 -689.7225 
L 648.934122 -689.7225 
L 645.819101 -689.7225 
L 642.704079 -689.7225 
L 639.589057 -689.7225 
L 636.474036 -689.7225 
L 633.359014 -689.7225 
L 630.243992 -689.7225 
L 627.12897 -689.7225 
L 624.013949 -689.7225 
L 620.898927 -689.7225 
L 617.783905 -689.7225 
L 614.668884 -689.7225 
L 611.553862 -689.7225 
L 608.43884 -689.7225 
L 605.323819 -689.7225 
L 602.208797 -689.7225 
L 599.093775 -689.7225 
L 595.978753 -689.7225 
L 592.863732 -689.7225 
L 589.74871 -689.7225 
L 586.633688 -689.7225 
L 583.518667 -689.7225 
L 580.403645 -689.7225 
L 577.288623 -689.7225 
L 574.173602 -689.7225 
L 571.05858 -689.7225 
L 567.943558 -689.7225 
L 564.828536 -689.7225 
L 561.713515 -689.7225 
L 558.598493 -689.7225 
L 555.483471 -689.7225 
L 552.36845 -689.7225 
L 549.253428 -689.7225 
L 546.138406 -689.7225 
L 543.023385 -689.7225 
L 539.908363 -689.7225 
L 536.793341 -689.7225 
L 533.67832 -689.7225 
L 530.563298 -689.7225 
L 527.448276 -689.7225 
L 524.333254 -689.7225 
L 521.218233 -689.7225 
L 518.103211 -689.7225 
L 514.988189 -689.7225 
L 511.873168 -689.7225 
L 508.758146 -689.7225 
L 505.643124 -689.7225 
L 502.528103 -689.7225 
L 499.413081 -689.7225 
L 496.298059 -689.7225 
L 493.183037 -689.7225 
L 490.068016 -689.7225 
L 486.952994 -689.7225 
L 483.837972 -689.7225 
L 480.722951 -689.7225 
L 477.607929 -689.7225 
L 474.492907 -689.7225 
L 471.377886 -689.7225 
L 468.262864 -689.7225 
L 465.147842 -689.7225 
L 462.032821 -689.7225 
L 458.917799 -689.7225 
L 455.802777 -689.7225 
L 452.687755 -689.7225 
L 449.572734 -689.7225 
L 446.457712 -689.7225 
L 443.34269 -689.7225 
L 440.227669 -689.7225 
L 437.112647 -689.7225 
L 433.997625 -689.7225 
L 430.882604 -689.7225 
L 427.767582 -689.7225 
L 424.65256 -689.7225 
L 421.537538 -689.7225 
L 418.422517 -689.7225 
L 415.307495 -689.7225 
L 412.192473 -689.7225 
L 409.077452 -689.7225 
L 405.96243 -689.7225 
L 402.847408 -689.7225 
L 399.732387 -689.7225 
L 396.617365 -689.7225 
L 393.502343 -689.7225 
L 390.387321 -689.7225 
L 387.2723 -689.7225 
L 384.157278 -689.7225 
L 381.042256 -689.7225 
L 377.927235 -689.7225 
L 374.812213 -689.7225 
L 371.697191 -689.7225 
L 368.58217 -689.7225 
L 365.467148 -689.7225 
L 362.352126 -689.7225 
L 359.237105 -689.7225 
L 356.122083 -689.7225 
L 353.007061 -689.7225 
L 349.892039 -689.7225 
L 346.777018 -689.7225 
L 343.661996 -689.7225 
L 340.546974 -689.7225 
L 337.431953 -689.7225 
L 334.316931 -689.7225 
L 331.201909 -689.7225 
L 328.086888 -689.7225 
L 324.971866 -689.7225 
L 321.856844 -689.7225 
L 318.741822 -689.7225 
L 315.626801 -689.7225 
L 312.511779 -689.7225 
L 309.396757 -689.7225 
L 306.281736 -689.7225 
L 303.166714 -689.7225 
L 300.051692 -689.7225 
L 296.936671 -689.7225 
L 293.821649 -689.7225 
L 290.706627 -689.7225 
L 287.591606 -689.7225 
L 284.476584 -689.7225 
L 281.361562 -689.7225 
L 278.24654 -689.7225 
L 275.131519 -689.7225 
L 272.016497 -689.7225 
L 268.901475 -689.7225 
L 265.786454 -689.7225 
L 262.671432 -689.7225 
L 259.55641 -689.7225 
L 256.441389 -689.7225 
L 253.326367 -689.7225 
L 250.211345 -689.7225 
L 247.096323 -689.7225 
L 243.981302 -689.7225 
L 240.86628 -689.7225 
L 237.751258 -689.7225 
L 234.636237 -689.7225 
L 231.521215 -689.7225 
L 228.406193 -689.7225 
L 225.291172 -689.7225 
L 222.17615 -689.7225 
L 219.061128 -689.7225 
L 215.946107 -689.7225 
L 212.831085 -689.7225 
L 209.716063 -689.7225 
L 206.601041 -689.7225 
L 203.48602 -689.7225 
L 200.370998 -689.7225 
L 197.255976 -689.7225 
L 194.140955 -689.7225 
L 191.025933 -689.7225 
L 187.910911 -689.7225 
L 184.79589 -689.7225 
L 181.680868 -689.7225 
L 178.565846 -689.7225 
L 175.450824 -689.7225 
L 172.335803 -689.7225 
L 169.220781 -689.7225 
L 166.105759 -689.7225 
L 162.990738 -689.7225 
L 159.875716 -689.7225 
L 156.760694 -689.7225 
L 153.645673 -689.7225 
L 150.530651 -689.7225 
L 147.415629 -689.7225 
L 144.300607 -689.7225 
L 141.185586 -689.7225 
L 138.070564 -689.7225 
L 134.955542 -689.7225 
L 131.840521 -689.7225 
L 128.725499 -689.7225 
L 125.610477 -689.7225 
L 122.495456 -689.7225 
L 119.380434 -689.7225 
L 116.265412 -689.7225 
L 113.150391 -689.7225 
L 110.035369 -689.7225 
L 106.920347 -689.7225 
L 103.805325 -689.7225 
L 100.690304 -689.7225 
L 97.575282 -689.7225 
L 94.46026 -689.7225 
L 91.345239 -689.7225 
L 88.230217 -689.7225 
L 85.115195 -689.7225 
L 82.000174 -689.7225 
L 78.885152 -689.7225 
L 75.77013 -689.7225 
L 72.655108 -689.7225 
L 69.540087 -689.7225 
L 66.425065 -689.7225 
L 63.310043 -689.7225 
L 60.195022 -689.7225 
L 57.08 -689.7225 
z
" style="stroke: #ffffff"/>
    </defs>
    <g clip-path="url(#p50a2c0675d)">
     <use xlink:href="#m8e0e65ce74" x="0" y="720" style="fill: #8d5993; stroke: #ffffff"/>
    </g>
   </g>
   <g id="line2d_10">
    <path d="M 57.08 82.735905 
L 664.509231 82.735905 
" clip-path="url(#p50a2c0675d)" style="fill: none; stroke-dasharray: 7.5,15; stroke-dashoffset: 0; stroke: #000000; stroke-width: 1.5"/>
   </g>
   <g id="patch_3">
    <path d="M 57.08 468.249375 
L 57.08 30.2775 
" style="fill: none; stroke: #cccccc; stroke-width: 0.8; stroke-linejoin: miter; stroke-linecap: square"/>
   </g>
   <g id="patch_4">
    <path d="M 664.509231 468.249375 
L 664.509231 30.2775 
" style="fill: none; stroke: #cccccc; stroke-width: 0.8; stroke-linejoin: miter; stroke-linecap: square"/>
   </g>
   <g id="patch_5">
    <path d="M 57.08 468.249375 
L 664.509231 468.249375 
" style="fill: none; stroke: #cccccc; stroke-width: 0.8; stroke-linejoin: miter; stroke-linecap: square"/>
   </g>
   <g id="patch_6">
    <path d="M 57.08 30.2775 
L 664.509231 30.2775 
" style="fill: none; stroke: #cccccc; stroke-width: 0.8; stroke-linejoin: miter; stroke-linecap: square"/>
   </g>
   <g id="text_12">
    <!-- 0.88 -->
    <g transform="translate(686.314383 86.099186) scale(0.14 -0.14)">
     <defs>
      <path id="TimesNewRomanPSMT-30" d="M 231 2094 
Q 231 2819 450 3342 
Q 669 3866 1031 4122 
Q 1313 4325 1613 4325 
Q 2100 4325 2488 3828 
Q 2972 3213 2972 2159 
Q 2972 1422 2759 906 
Q 2547 391 2217 158 
Q 1888 -75 1581 -75 
Q 975 -75 572 641 
Q 231 1244 231 2094 
z
M 844 2016 
Q 844 1141 1059 588 
Q 1238 122 1591 122 
Q 1759 122 1940 273 
Q 2122 425 2216 781 
Q 2359 1319 2359 2297 
Q 2359 3022 2209 3506 
Q 2097 3866 1919 4016 
Q 1791 4119 1609 4119 
Q 1397 4119 1231 3928 
Q 1006 3669 925 3112 
Q 844 2556 844 2016 
z
" transform="scale(0.015625)"/>
      <path id="TimesNewRomanPSMT-2e" d="M 800 606 
Q 947 606 1047 504 
Q 1147 403 1147 259 
Q 1147 116 1045 14 
Q 944 -88 800 -88 
Q 656 -88 554 14 
Q 453 116 453 259 
Q 453 406 554 506 
Q 656 606 800 606 
z
" transform="scale(0.015625)"/>
      <path id="TimesNewRomanPSMT-38" d="M 1228 2134 
Q 725 2547 579 2797 
Q 434 3047 434 3316 
Q 434 3728 753 4026 
Q 1072 4325 1600 4325 
Q 2113 4325 2425 4047 
Q 2738 3769 2738 3413 
Q 2738 3175 2569 2928 
Q 2400 2681 1866 2347 
Q 2416 1922 2594 1678 
Q 2831 1359 2831 1006 
Q 2831 559 2490 242 
Q 2150 -75 1597 -75 
Q 994 -75 656 303 
Q 388 606 388 966 
Q 388 1247 577 1523 
Q 766 1800 1228 2134 
z
M 1719 2469 
Q 2094 2806 2194 3001 
Q 2294 3197 2294 3444 
Q 2294 3772 2109 3958 
Q 1925 4144 1606 4144 
Q 1288 4144 1088 3959 
Q 888 3775 888 3528 
Q 888 3366 970 3203 
Q 1053 3041 1206 2894 
L 1719 2469 
z
M 1375 2016 
Q 1116 1797 991 1539 
Q 866 1281 866 981 
Q 866 578 1086 336 
Q 1306 94 1647 94 
Q 1984 94 2187 284 
Q 2391 475 2391 747 
Q 2391 972 2272 1150 
Q 2050 1481 1375 2016 
z
" transform="scale(0.015625)"/>
     </defs>
     <use xlink:href="#TimesNewRomanPSMT-30"/>
     <use xlink:href="#TimesNewRomanPSMT-2e" transform="translate(50 0)"/>
     <use xlink:href="#TimesNewRomanPSMT-38" transform="translate(75 0)"/>
     <use xlink:href="#TimesNewRomanPSMT-38" transform="translate(125 0)"/>
    </g>
   </g>
   <g id="text_13">
    <!-- Jipsy (Tonkean) -->
    <g style="fill: #262626" transform="translate(292.524303 24.2775) scale(0.2 -0.2)">
     <defs>
      <path id="TimesNewRomanPS-BoldMT-4a" d="M 909 4122 
L 909 4238 
L 3163 4238 
L 3163 4122 
L 3025 4122 
Q 2838 4122 2725 4056 
Q 2647 4013 2600 3906 
Q 2566 3831 2566 3513 
L 2566 1438 
Q 2566 828 2444 551 
Q 2322 275 2011 89 
Q 1700 -97 1263 -97 
Q 728 -97 398 184 
Q 69 466 69 806 
Q 69 1025 203 1161 
Q 338 1297 531 1297 
Q 722 1297 851 1175 
Q 981 1053 981 875 
Q 981 788 959 722 
Q 947 691 861 564 
Q 775 438 775 384 
Q 775 303 856 244 
Q 975 156 1166 156 
Q 1300 156 1387 225 
Q 1475 294 1511 439 
Q 1547 584 1547 1247 
L 1547 3513 
Q 1547 3838 1511 3919 
Q 1475 4000 1370 4061 
Q 1266 4122 1088 4122 
L 909 4122 
z
" transform="scale(0.015625)"/>
      <path id="TimesNewRomanPS-BoldMT-69" d="M 919 4338 
Q 1122 4338 1262 4195 
Q 1403 4053 1403 3853 
Q 1403 3653 1261 3512 
Q 1119 3372 919 3372 
Q 719 3372 578 3512 
Q 438 3653 438 3853 
Q 438 4053 578 4195 
Q 719 4338 919 4338 
z
M 1356 2922 
L 1356 606 
Q 1356 297 1428 211 
Q 1500 125 1709 113 
L 1709 0 
L 131 0 
L 131 113 
Q 325 119 419 225 
Q 481 297 481 606 
L 481 2313 
Q 481 2622 409 2708 
Q 338 2794 131 2806 
L 131 2922 
L 1356 2922 
z
" transform="scale(0.015625)"/>
      <path id="TimesNewRomanPS-BoldMT-70" d="M 1347 297 
L 1347 -791 
Q 1347 -1016 1383 -1097 
Q 1419 -1178 1494 -1215 
Q 1569 -1253 1788 -1253 
L 1788 -1369 
L 122 -1369 
L 122 -1253 
Q 316 -1247 409 -1144 
Q 472 -1072 472 -772 
L 472 2313 
Q 472 2622 400 2708 
Q 328 2794 122 2806 
L 122 2922 
L 1347 2922 
L 1347 2538 
Q 1500 2763 1659 2863 
Q 1888 3009 2156 3009 
Q 2478 3009 2742 2806 
Q 3006 2603 3143 2245 
Q 3281 1888 3281 1475 
Q 3281 1031 3139 664 
Q 2997 297 2726 104 
Q 2456 -88 2125 -88 
Q 1884 -88 1675 19 
Q 1519 100 1347 297 
z
M 1347 613 
Q 1616 231 1922 231 
Q 2091 231 2200 409 
Q 2363 672 2363 1409 
Q 2363 2166 2184 2444 
Q 2066 2628 1866 2628 
Q 1550 2628 1347 2172 
L 1347 613 
z
" transform="scale(0.015625)"/>
      <path id="TimesNewRomanPS-BoldMT-73" d="M 2063 3003 
L 2109 2006 
L 2003 2006 
Q 1813 2450 1608 2612 
Q 1403 2775 1200 2775 
Q 1072 2775 981 2689 
Q 891 2603 891 2491 
Q 891 2406 953 2328 
Q 1053 2200 1512 1889 
Q 1972 1578 2117 1361 
Q 2263 1144 2263 875 
Q 2263 631 2141 397 
Q 2019 163 1797 37 
Q 1575 -88 1306 -88 
Q 1097 -88 747 44 
Q 653 78 619 78 
Q 516 78 447 -78 
L 344 -78 
L 294 972 
L 400 972 
Q 541 559 786 353 
Q 1031 147 1250 147 
Q 1400 147 1495 239 
Q 1591 331 1591 463 
Q 1591 613 1497 722 
Q 1403 831 1078 1053 
Q 600 1384 459 1559 
Q 253 1816 253 2125 
Q 253 2463 486 2736 
Q 719 3009 1159 3009 
Q 1397 3009 1619 2894 
Q 1703 2847 1756 2847 
Q 1813 2847 1847 2870 
Q 1881 2894 1956 3003 
L 2063 3003 
z
" transform="scale(0.015625)"/>
      <path id="TimesNewRomanPS-BoldMT-79" d="M 1556 -119 
L 613 2047 
Q 400 2538 298 2650 
Q 197 2763 53 2806 
L 53 2922 
L 1606 2922 
L 1606 2806 
Q 1453 2800 1390 2747 
Q 1328 2694 1328 2619 
Q 1328 2500 1484 2150 
L 1984 1006 
L 2325 1891 
Q 2509 2363 2509 2547 
Q 2509 2663 2432 2731 
Q 2356 2800 2163 2806 
L 2163 2922 
L 3141 2922 
L 3141 2806 
Q 2997 2791 2906 2695 
Q 2816 2600 2603 2047 
L 1769 -119 
Q 1453 -931 1300 -1119 
Q 1084 -1381 759 -1381 
Q 500 -1381 339 -1232 
Q 178 -1084 178 -875 
Q 178 -694 289 -575 
Q 400 -456 563 -456 
Q 719 -456 814 -556 
Q 909 -656 913 -866 
Q 916 -984 941 -1019 
Q 966 -1053 1013 -1053 
Q 1088 -1053 1172 -963 
Q 1297 -831 1466 -363 
L 1556 -119 
z
" transform="scale(0.015625)"/>
      <path id="TimesNewRomanPS-BoldMT-20" transform="scale(0.015625)"/>
      <path id="TimesNewRomanPS-BoldMT-28" d="M 2056 4334 
L 2056 4191 
Q 1731 3978 1578 3775 
Q 1366 3494 1247 3053 
Q 1097 2506 1097 1525 
Q 1097 600 1233 87 
Q 1369 -425 1603 -741 
Q 1766 -959 2056 -1125 
L 2056 -1281 
Q 1303 -1028 779 -248 
Q 256 531 256 1544 
Q 256 2544 778 3314 
Q 1300 4084 2056 4334 
z
" transform="scale(0.015625)"/>
      <path id="TimesNewRomanPS-BoldMT-54" d="M 4038 4238 
L 4038 3091 
L 3925 3091 
Q 3825 3488 3703 3661 
Q 3581 3834 3369 3938 
Q 3250 3994 2953 3994 
L 2638 3994 
L 2638 725 
Q 2638 400 2673 319 
Q 2709 238 2814 177 
Q 2919 116 3100 116 
L 3241 116 
L 3241 0 
L 1022 0 
L 1022 116 
L 1163 116 
Q 1347 116 1459 181 
Q 1541 225 1588 331 
Q 1622 406 1622 725 
L 1622 3994 
L 1316 3994 
Q 888 3994 694 3813 
Q 422 3559 350 3091 
L 231 3091 
L 231 4238 
L 4038 4238 
z
" transform="scale(0.015625)"/>
      <path id="TimesNewRomanPS-BoldMT-6f" d="M 1594 3009 
Q 1975 3009 2303 2812 
Q 2631 2616 2801 2253 
Q 2972 1891 2972 1459 
Q 2972 838 2656 419 
Q 2275 -88 1603 -88 
Q 944 -88 587 375 
Q 231 838 231 1447 
Q 231 2075 595 2542 
Q 959 3009 1594 3009 
z
M 1606 2788 
Q 1447 2788 1333 2667 
Q 1219 2547 1183 2192 
Q 1147 1838 1147 1206 
Q 1147 872 1191 581 
Q 1225 359 1337 243 
Q 1450 128 1594 128 
Q 1734 128 1828 206 
Q 1950 313 1991 503 
Q 2053 800 2053 1703 
Q 2053 2234 1993 2432 
Q 1934 2631 1819 2722 
Q 1738 2788 1606 2788 
z
" transform="scale(0.015625)"/>
      <path id="TimesNewRomanPS-BoldMT-6e" d="M 1409 2922 
L 1409 2544 
Q 1634 2788 1840 2898 
Q 2047 3009 2284 3009 
Q 2569 3009 2756 2851 
Q 2944 2694 3006 2459 
Q 3056 2281 3056 1775 
L 3056 638 
Q 3056 300 3117 217 
Q 3178 134 3372 113 
L 3372 0 
L 1894 0 
L 1894 113 
Q 2059 134 2131 250 
Q 2181 328 2181 638 
L 2181 1938 
Q 2181 2297 2153 2390 
Q 2125 2484 2058 2536 
Q 1991 2588 1909 2588 
Q 1641 2588 1409 2203 
L 1409 638 
Q 1409 309 1470 221 
Q 1531 134 1697 113 
L 1697 0 
L 219 0 
L 219 113 
Q 403 131 481 231 
Q 534 300 534 638 
L 534 2288 
Q 534 2619 473 2700 
Q 413 2781 219 2806 
L 219 2922 
L 1409 2922 
z
" transform="scale(0.015625)"/>
      <path id="TimesNewRomanPS-BoldMT-6b" d="M 1403 4238 
L 1403 1450 
L 2081 2116 
Q 2291 2319 2342 2409 
Q 2394 2500 2394 2584 
Q 2394 2669 2325 2725 
Q 2256 2781 2056 2806 
L 2056 2922 
L 3366 2922 
L 3366 2806 
Q 3178 2797 3037 2717 
Q 2897 2638 2488 2238 
L 2169 1925 
L 2856 919 
Q 3272 306 3350 231 
Q 3456 125 3619 113 
L 3619 0 
L 2109 0 
L 2109 113 
Q 2209 113 2254 150 
Q 2300 188 2300 231 
Q 2300 303 2169 497 
L 1591 1344 
L 1403 1159 
L 1403 634 
Q 1403 300 1465 217 
Q 1528 134 1722 113 
L 1722 0 
L 213 0 
L 213 113 
Q 397 131 475 231 
Q 528 300 528 634 
L 528 3603 
Q 528 3934 467 4015 
Q 406 4097 213 4122 
L 213 4238 
L 1403 4238 
z
" transform="scale(0.015625)"/>
      <path id="TimesNewRomanPS-BoldMT-65" d="M 2691 1566 
L 1088 1566 
Q 1116 984 1397 647 
Q 1613 388 1916 388 
Q 2103 388 2256 492 
Q 2409 597 2584 869 
L 2691 800 
Q 2453 316 2165 114 
Q 1878 -88 1500 -88 
Q 850 -88 516 413 
Q 247 816 247 1413 
Q 247 2144 642 2576 
Q 1038 3009 1569 3009 
Q 2013 3009 2339 2645 
Q 2666 2281 2691 1566 
z
M 1922 1775 
Q 1922 2278 1867 2465 
Q 1813 2653 1697 2750 
Q 1631 2806 1522 2806 
Q 1359 2806 1256 2647 
Q 1072 2369 1072 1884 
L 1072 1775 
L 1922 1775 
z
" transform="scale(0.015625)"/>
      <path id="TimesNewRomanPS-BoldMT-61" d="M 1828 431 
Q 1294 -41 869 -41 
Q 619 -41 453 123 
Q 288 288 288 534 
Q 288 869 575 1136 
Q 863 1403 1828 1847 
L 1828 2141 
Q 1828 2472 1792 2558 
Q 1756 2644 1656 2708 
Q 1556 2772 1431 2772 
Q 1228 2772 1097 2681 
Q 1016 2625 1016 2550 
Q 1016 2484 1103 2388 
Q 1222 2253 1222 2128 
Q 1222 1975 1108 1867 
Q 994 1759 809 1759 
Q 613 1759 480 1878 
Q 347 1997 347 2156 
Q 347 2381 525 2586 
Q 703 2791 1022 2900 
Q 1341 3009 1684 3009 
Q 2100 3009 2342 2832 
Q 2584 2656 2656 2450 
Q 2700 2319 2700 1847 
L 2700 713 
Q 2700 513 2715 461 
Q 2731 409 2762 384 
Q 2794 359 2834 359 
Q 2916 359 3000 475 
L 3094 400 
Q 2938 169 2770 64 
Q 2603 -41 2391 -41 
Q 2141 -41 2000 76 
Q 1859 194 1828 431 
z
M 1828 659 
L 1828 1638 
Q 1450 1416 1266 1163 
Q 1144 994 1144 822 
Q 1144 678 1247 569 
Q 1325 484 1466 484 
Q 1622 484 1828 659 
z
" transform="scale(0.015625)"/>
      <path id="TimesNewRomanPS-BoldMT-29" d="M 78 -1281 
L 78 -1138 
Q 403 -922 556 -719 
Q 766 -438 888 0 
Q 1038 550 1038 1531 
Q 1038 2456 902 2967 
Q 766 3478 531 3794 
Q 369 4013 78 4178 
L 78 4334 
Q 831 4081 1354 3301 
Q 1878 2522 1878 1509 
Q 1878 513 1354 -257 
Q 831 -1028 78 -1281 
z
" transform="scale(0.015625)"/>
     </defs>
     <use xlink:href="#TimesNewRomanPS-BoldMT-4a"/>
     <use xlink:href="#TimesNewRomanPS-BoldMT-69" transform="translate(50 0)"/>
     <use xlink:href="#TimesNewRomanPS-BoldMT-70" transform="translate(77.783203 0)"/>
     <use xlink:href="#TimesNewRomanPS-BoldMT-73" transform="translate(133.398438 0)"/>
     <use xlink:href="#TimesNewRomanPS-BoldMT-79" transform="translate(172.314453 0)"/>
     <use xlink:href="#TimesNewRomanPS-BoldMT-20" transform="translate(222.314453 0)"/>
     <use xlink:href="#TimesNewRomanPS-BoldMT-28" transform="translate(247.314453 0)"/>
     <use xlink:href="#TimesNewRomanPS-BoldMT-54" transform="translate(280.615234 0)"/>
     <use xlink:href="#TimesNewRomanPS-BoldMT-6f" transform="translate(338.189453 0)"/>
     <use xlink:href="#TimesNewRomanPS-BoldMT-6e" transform="translate(388.189453 0)"/>
     <use xlink:href="#TimesNewRomanPS-BoldMT-6b" transform="translate(443.804688 0)"/>
     <use xlink:href="#TimesNewRomanPS-BoldMT-65" transform="translate(499.419922 0)"/>
     <use xlink:href="#TimesNewRomanPS-BoldMT-61" transform="translate(543.804688 0)"/>
     <use xlink:href="#TimesNewRomanPS-BoldMT-6e" transform="translate(593.804688 0)"/>
     <use xlink:href="#TimesNewRomanPS-BoldMT-29" transform="translate(649.419922 0)"/>
    </g>
   </g>
   <g id="legend_1">
    <g id="patch_7">
     <path d="M 64.08 94.83375 
L 149.976875 94.83375 
Q 151.976875 94.83375 151.976875 92.83375 
L 151.976875 37.2775 
Q 151.976875 35.2775 149.976875 35.2775 
L 64.08 35.2775 
Q 62.08 35.2775 62.08 37.2775 
L 62.08 92.83375 
Q 62.08 94.83375 64.08 94.83375 
z
" style="fill: #ffffff; opacity: 0.8; stroke: #cccccc; stroke-linejoin: miter"/>
    </g>
    <g id="patch_8">
     <path d="M 66.08 46.2775 
L 86.08 46.2775 
L 86.08 39.2775 
L 66.08 39.2775 
z
" style="fill: #5386b6; stroke: #ffffff; stroke-linejoin: miter"/>
    </g>
    <g id="text_14">
     <!-- Success -->
     <g style="fill: #262626" transform="translate(94.08 46.2775) scale(0.1 -0.1)">
      <use xlink:href="#TimesNewRomanPSMT-53"/>
      <use xlink:href="#TimesNewRomanPSMT-75" transform="translate(55.615234 0)"/>
      <use xlink:href="#TimesNewRomanPSMT-63" transform="translate(105.615234 0)"/>
      <use xlink:href="#TimesNewRomanPSMT-63" transform="translate(150 0)"/>
      <use xlink:href="#TimesNewRomanPSMT-65" transform="translate(194.384766 0)"/>
      <use xlink:href="#TimesNewRomanPSMT-73" transform="translate(238.769531 0)"/>
      <use xlink:href="#TimesNewRomanPSMT-73" transform="translate(277.685547 0)"/>
     </g>
    </g>
    <g id="patch_9">
     <path d="M 66.08 60.416563 
L 86.08 60.416563 
L 86.08 53.416563 
L 66.08 53.416563 
z
" style="fill: #d57459; stroke: #ffffff; stroke-linejoin: miter"/>
    </g>
    <g id="text_15">
     <!-- Error -->
     <g style="fill: #262626" transform="translate(94.08 60.416563) scale(0.1 -0.1)">
      <defs>
       <path id="TimesNewRomanPSMT-45" d="M 1338 4006 
L 1338 2331 
L 2269 2331 
Q 2631 2331 2753 2441 
Q 2916 2584 2934 2947 
L 3050 2947 
L 3050 1472 
L 2934 1472 
Q 2891 1781 2847 1869 
Q 2791 1978 2662 2040 
Q 2534 2103 2269 2103 
L 1338 2103 
L 1338 706 
Q 1338 425 1363 364 
Q 1388 303 1450 267 
Q 1513 231 1688 231 
L 2406 231 
Q 2766 231 2928 281 
Q 3091 331 3241 478 
Q 3434 672 3638 1063 
L 3763 1063 
L 3397 0 
L 131 0 
L 131 116 
L 281 116 
Q 431 116 566 188 
Q 666 238 702 338 
Q 738 438 738 747 
L 738 3500 
Q 738 3903 656 3997 
Q 544 4122 281 4122 
L 131 4122 
L 131 4238 
L 3397 4238 
L 3444 3309 
L 3322 3309 
Q 3256 3644 3176 3769 
Q 3097 3894 2941 3959 
Q 2816 4006 2500 4006 
L 1338 4006 
z
" transform="scale(0.015625)"/>
      </defs>
      <use xlink:href="#TimesNewRomanPSMT-45"/>
      <use xlink:href="#TimesNewRomanPSMT-72" transform="translate(61.083984 0)"/>
      <use xlink:href="#TimesNewRomanPSMT-72" transform="translate(94.384766 0)"/>
      <use xlink:href="#TimesNewRomanPSMT-6f" transform="translate(127.685547 0)"/>
      <use xlink:href="#TimesNewRomanPSMT-72" transform="translate(177.685547 0)"/>
     </g>
    </g>
    <g id="patch_10">
     <path d="M 66.08 74.555625 
L 86.08 74.555625 
L 86.08 67.555625 
L 66.08 67.555625 
z
" style="fill: #e8bc60; stroke: #ffffff; stroke-linejoin: miter"/>
    </g>
    <g id="text_16">
     <!-- Premature -->
     <g style="fill: #262626" transform="translate(94.08 74.555625) scale(0.1 -0.1)">
      <defs>
       <path id="TimesNewRomanPSMT-6d" d="M 1050 2338 
Q 1363 2650 1419 2697 
Q 1559 2816 1721 2881 
Q 1884 2947 2044 2947 
Q 2313 2947 2506 2790 
Q 2700 2634 2766 2338 
Q 3088 2713 3309 2830 
Q 3531 2947 3766 2947 
Q 3994 2947 4170 2830 
Q 4347 2713 4450 2447 
Q 4519 2266 4519 1878 
L 4519 647 
Q 4519 378 4559 278 
Q 4591 209 4675 161 
Q 4759 113 4950 113 
L 4950 0 
L 3538 0 
L 3538 113 
L 3597 113 
Q 3781 113 3884 184 
Q 3956 234 3988 344 
Q 4000 397 4000 647 
L 4000 1878 
Q 4000 2228 3916 2372 
Q 3794 2572 3525 2572 
Q 3359 2572 3192 2489 
Q 3025 2406 2788 2181 
L 2781 2147 
L 2788 2013 
L 2788 647 
Q 2788 353 2820 281 
Q 2853 209 2943 161 
Q 3034 113 3253 113 
L 3253 0 
L 1806 0 
L 1806 113 
Q 2044 113 2133 169 
Q 2222 225 2256 338 
Q 2272 391 2272 647 
L 2272 1878 
Q 2272 2228 2169 2381 
Q 2031 2581 1784 2581 
Q 1616 2581 1450 2491 
Q 1191 2353 1050 2181 
L 1050 647 
Q 1050 366 1089 281 
Q 1128 197 1204 155 
Q 1281 113 1516 113 
L 1516 0 
L 100 0 
L 100 113 
Q 297 113 375 155 
Q 453 197 493 289 
Q 534 381 534 647 
L 534 1741 
Q 534 2213 506 2350 
Q 484 2453 437 2492 
Q 391 2531 309 2531 
Q 222 2531 100 2484 
L 53 2597 
L 916 2947 
L 1050 2947 
L 1050 2338 
z
" transform="scale(0.015625)"/>
      </defs>
      <use xlink:href="#TimesNewRomanPSMT-50"/>
      <use xlink:href="#TimesNewRomanPSMT-72" transform="translate(55.615234 0)"/>
      <use xlink:href="#TimesNewRomanPSMT-65" transform="translate(88.916016 0)"/>
      <use xlink:href="#TimesNewRomanPSMT-6d" transform="translate(133.300781 0)"/>
      <use xlink:href="#TimesNewRomanPSMT-61" transform="translate(211.083984 0)"/>
      <use xlink:href="#TimesNewRomanPSMT-74" transform="translate(255.46875 0)"/>
      <use xlink:href="#TimesNewRomanPSMT-75" transform="translate(283.251953 0)"/>
      <use xlink:href="#TimesNewRomanPSMT-72" transform="translate(333.251953 0)"/>
      <use xlink:href="#TimesNewRomanPSMT-65" transform="translate(366.552734 0)"/>
     </g>
    </g>
    <g id="patch_11">
     <path d="M 66.08 88.694687 
L 86.08 88.694687 
L 86.08 81.694687 
L 66.08 81.694687 
z
" style="fill: #8d5993; stroke: #ffffff; stroke-linejoin: miter"/>
    </g>
    <g id="text_17">
     <!-- Stepomission -->
     <g style="fill: #262626" transform="translate(94.08 88.694687) scale(0.1 -0.1)">
      <use xlink:href="#TimesNewRomanPSMT-53"/>
      <use xlink:href="#TimesNewRomanPSMT-74" transform="translate(55.615234 0)"/>
      <use xlink:href="#TimesNewRomanPSMT-65" transform="translate(83.398438 0)"/>
      <use xlink:href="#TimesNewRomanPSMT-70" transform="translate(127.783203 0)"/>
      <use xlink:href="#TimesNewRomanPSMT-6f" transform="translate(177.783203 0)"/>
      <use xlink:href="#TimesNewRomanPSMT-6d" transform="translate(227.783203 0)"/>
      <use xlink:href="#TimesNewRomanPSMT-69" transform="translate(305.566406 0)"/>
      <use xlink:href="#TimesNewRomanPSMT-73" transform="translate(333.349609 0)"/>
      <use xlink:href="#TimesNewRomanPSMT-73" transform="translate(372.265625 0)"/>
      <use xlink:href="#TimesNewRomanPSMT-69" transform="translate(411.181641 0)"/>
      <use xlink:href="#TimesNewRomanPSMT-6f" transform="translate(438.964844 0)"/>
      <use xlink:href="#TimesNewRomanPSMT-6e" transform="translate(488.964844 0)"/>
     </g>
    </g>
   </g>
  </g>
  <g id="axes_2">
   <g id="patch_12">
    <path d="M 57.08 675.16 
L 664.509231 675.16 
L 664.509231 529.169375 
L 57.08 529.169375 
z
" style="fill: #ffffff"/>
   </g>
   <g id="matplotlib.axis_3">
    <g id="xtick_8">
     <g id="line2d_11">
      <path d="M 86.005201 675.16 
L 86.005201 529.169375 
" clip-path="url(#p5f3a91d331)" style="fill: none; stroke-dasharray: 2.96,1.28; stroke-dashoffset: 0; stroke: #cccccc; stroke-opacity: 0.5; stroke-width: 0.8"/>
     </g>
     <g id="text_18">
      <!-- 2023-10 -->
      <g style="fill: #262626" transform="translate(67.657545 689.317813) scale(0.1 -0.1)">
       <defs>
        <path id="ArialMT-33" d="M 269 1209 
L 831 1284 
Q 928 806 1161 595 
Q 1394 384 1728 384 
Q 2125 384 2398 659 
Q 2672 934 2672 1341 
Q 2672 1728 2419 1979 
Q 2166 2231 1775 2231 
Q 1616 2231 1378 2169 
L 1441 2663 
Q 1497 2656 1531 2656 
Q 1891 2656 2178 2843 
Q 2466 3031 2466 3422 
Q 2466 3731 2256 3934 
Q 2047 4138 1716 4138 
Q 1388 4138 1169 3931 
Q 950 3725 888 3313 
L 325 3413 
Q 428 3978 793 4289 
Q 1159 4600 1703 4600 
Q 2078 4600 2393 4439 
Q 2709 4278 2876 4000 
Q 3044 3722 3044 3409 
Q 3044 3113 2884 2869 
Q 2725 2625 2413 2481 
Q 2819 2388 3044 2092 
Q 3269 1797 3269 1353 
Q 3269 753 2831 336 
Q 2394 -81 1725 -81 
Q 1122 -81 723 278 
Q 325 638 269 1209 
z
" transform="scale(0.015625)"/>
        <path id="ArialMT-2d" d="M 203 1375 
L 203 1941 
L 1931 1941 
L 1931 1375 
L 203 1375 
z
" transform="scale(0.015625)"/>
       </defs>
       <use xlink:href="#ArialMT-32"/>
       <use xlink:href="#ArialMT-30" transform="translate(55.615234 0)"/>
       <use xlink:href="#ArialMT-32" transform="translate(111.230469 0)"/>
       <use xlink:href="#ArialMT-33" transform="translate(166.845703 0)"/>
       <use xlink:href="#ArialMT-2d" transform="translate(222.460938 0)"/>
       <use xlink:href="#ArialMT-31" transform="translate(255.761719 0)"/>
       <use xlink:href="#ArialMT-30" transform="translate(311.376953 0)"/>
      </g>
     </g>
    </g>
    <g id="xtick_9">
     <g id="line2d_12">
      <path d="M 331.869414 675.16 
L 331.869414 529.169375 
" clip-path="url(#p5f3a91d331)" style="fill: none; stroke-dasharray: 2.96,1.28; stroke-dashoffset: 0; stroke: #cccccc; stroke-opacity: 0.5; stroke-width: 0.8"/>
     </g>
     <g id="text_19">
      <!-- 2023-11 -->
      <g style="fill: #262626" transform="translate(313.890508 689.317813) scale(0.1 -0.1)">
       <use xlink:href="#ArialMT-32"/>
       <use xlink:href="#ArialMT-30" transform="translate(55.615234 0)"/>
       <use xlink:href="#ArialMT-32" transform="translate(111.230469 0)"/>
       <use xlink:href="#ArialMT-33" transform="translate(166.845703 0)"/>
       <use xlink:href="#ArialMT-2d" transform="translate(222.460938 0)"/>
       <use xlink:href="#ArialMT-31" transform="translate(255.761719 0)"/>
       <use xlink:href="#ArialMT-31" transform="translate(304.001953 0)"/>
      </g>
     </g>
    </g>
    <g id="xtick_10">
     <g id="line2d_13">
      <path d="M 534.345824 675.16 
L 534.345824 529.169375 
" clip-path="url(#p5f3a91d331)" style="fill: none; stroke-dasharray: 2.96,1.28; stroke-dashoffset: 0; stroke: #cccccc; stroke-opacity: 0.5; stroke-width: 0.8"/>
     </g>
     <g id="text_20">
      <!-- 2023-11 -->
      <g style="fill: #262626" transform="translate(516.366918 689.317813) scale(0.1 -0.1)">
       <use xlink:href="#ArialMT-32"/>
       <use xlink:href="#ArialMT-30" transform="translate(55.615234 0)"/>
       <use xlink:href="#ArialMT-32" transform="translate(111.230469 0)"/>
       <use xlink:href="#ArialMT-33" transform="translate(166.845703 0)"/>
       <use xlink:href="#ArialMT-2d" transform="translate(222.460938 0)"/>
       <use xlink:href="#ArialMT-31" transform="translate(255.761719 0)"/>
       <use xlink:href="#ArialMT-31" transform="translate(304.001953 0)"/>
      </g>
     </g>
    </g>
    <g id="text_21">
     <!-- Date -->
     <g style="fill: #262626" transform="translate(347.579928 705.026563) scale(0.14 -0.14)">
      <defs>
       <path id="TimesNewRomanPSMT-44" d="M 109 0 
L 109 116 
L 269 116 
Q 538 116 650 288 
Q 719 391 719 750 
L 719 3488 
Q 719 3884 631 3984 
Q 509 4122 269 4122 
L 109 4122 
L 109 4238 
L 1834 4238 
Q 2784 4238 3279 4022 
Q 3775 3806 4076 3303 
Q 4378 2800 4378 2141 
Q 4378 1256 3841 663 
Q 3238 0 2003 0 
L 109 0 
z
M 1319 306 
Q 1716 219 1984 219 
Q 2709 219 3187 728 
Q 3666 1238 3666 2109 
Q 3666 2988 3187 3494 
Q 2709 4000 1959 4000 
Q 1678 4000 1319 3909 
L 1319 306 
z
" transform="scale(0.015625)"/>
      </defs>
      <use xlink:href="#TimesNewRomanPSMT-44"/>
      <use xlink:href="#TimesNewRomanPSMT-61" transform="translate(72.216797 0)"/>
      <use xlink:href="#TimesNewRomanPSMT-74" transform="translate(116.601562 0)"/>
      <use xlink:href="#TimesNewRomanPSMT-65" transform="translate(144.384766 0)"/>
     </g>
    </g>
   </g>
   <g id="matplotlib.axis_4">
    <g id="ytick_3">
     <g id="line2d_14">
      <path d="M 57.08 675.16 
L 664.509231 675.16 
" clip-path="url(#p5f3a91d331)" style="fill: none; stroke-dasharray: 2.96,1.28; stroke-dashoffset: 0; stroke: #cccccc; stroke-opacity: 0.5; stroke-width: 0.8"/>
     </g>
     <g id="text_22">
      <!-- 700 -->
      <g style="fill: #262626" transform="translate(33.397188 678.738906) scale(0.1 -0.1)">
       <use xlink:href="#ArialMT-37"/>
       <use xlink:href="#ArialMT-30" transform="translate(55.615234 0)"/>
       <use xlink:href="#ArialMT-30" transform="translate(111.230469 0)"/>
      </g>
     </g>
    </g>
    <g id="ytick_4">
     <g id="line2d_15">
      <path d="M 57.08 602.164688 
L 664.509231 602.164688 
" clip-path="url(#p5f3a91d331)" style="fill: none; stroke-dasharray: 2.96,1.28; stroke-dashoffset: 0; stroke: #cccccc; stroke-opacity: 0.5; stroke-width: 0.8"/>
     </g>
     <g id="text_23">
      <!-- 1000 -->
      <g style="fill: #262626" transform="translate(27.83625 605.743594) scale(0.1 -0.1)">
       <use xlink:href="#ArialMT-31"/>
       <use xlink:href="#ArialMT-30" transform="translate(55.615234 0)"/>
       <use xlink:href="#ArialMT-30" transform="translate(111.230469 0)"/>
       <use xlink:href="#ArialMT-30" transform="translate(166.845703 0)"/>
      </g>
     </g>
    </g>
    <g id="ytick_5">
     <g id="line2d_16">
      <path d="M 57.08 529.169375 
L 664.509231 529.169375 
" clip-path="url(#p5f3a91d331)" style="fill: none; stroke-dasharray: 2.96,1.28; stroke-dashoffset: 0; stroke: #cccccc; stroke-opacity: 0.5; stroke-width: 0.8"/>
     </g>
     <g id="text_24">
      <!-- 1300 -->
      <g style="fill: #262626" transform="translate(27.83625 532.748281) scale(0.1 -0.1)">
       <use xlink:href="#ArialMT-31"/>
       <use xlink:href="#ArialMT-33" transform="translate(55.615234 0)"/>
       <use xlink:href="#ArialMT-30" transform="translate(111.230469 0)"/>
       <use xlink:href="#ArialMT-30" transform="translate(166.845703 0)"/>
      </g>
     </g>
    </g>
    <g id="text_25">
     <!-- Elo -->
     <g style="fill: #262626" transform="translate(20.841563 611.884844) rotate(-90) scale(0.14 -0.14)">
      <defs>
       <path id="TimesNewRomanPSMT-6c" d="M 1184 4444 
L 1184 647 
Q 1184 378 1223 290 
Q 1263 203 1344 158 
Q 1425 113 1647 113 
L 1647 0 
L 244 0 
L 244 113 
Q 441 113 512 153 
Q 584 194 625 287 
Q 666 381 666 647 
L 666 3247 
Q 666 3731 644 3842 
Q 622 3953 573 3993 
Q 525 4034 450 4034 
Q 369 4034 244 3984 
L 191 4094 
L 1044 4444 
L 1184 4444 
z
" transform="scale(0.015625)"/>
      </defs>
      <use xlink:href="#TimesNewRomanPSMT-45"/>
      <use xlink:href="#TimesNewRomanPSMT-6c" transform="translate(61.083984 0)"/>
      <use xlink:href="#TimesNewRomanPSMT-6f" transform="translate(88.867188 0)"/>
     </g>
    </g>
   </g>
   <g id="line2d_17">
    <path d="M 57.08 662.994115 
L 71.542601 659.344349 
L 86.005201 658.614396 
L 100.467802 653.991359 
L 114.930403 648.63837 
L 129.393004 640.608885 
L 143.855604 648.63837 
L 158.318205 649.368323 
L 172.780806 651.8015 
L 187.243407 657.641125 
L 201.706007 656.911172 
L 216.168608 657.15449 
L 230.631209 658.614396 
L 245.09381 657.884443 
L 259.55641 657.15449 
L 274.019011 660.560938 
L 288.481612 659.344349 
L 302.944212 659.344349 
L 317.406813 659.344349 
L 331.869414 659.830984 
L 346.332015 659.830984 
L 360.794615 660.804255 
L 375.257216 661.047573 
L 389.719817 661.047573 
L 404.182418 662.507479 
L 418.645018 661.047573 
L 433.107619 661.047573 
L 447.57022 662.020844 
L 462.032821 662.020844 
L 476.495421 662.020844 
L 490.958022 662.020844 
L 505.420623 662.020844 
L 519.883223 662.020844 
L 534.345824 665.427292 
L 548.808425 666.64388 
L 563.271026 666.64388 
L 577.733626 666.64388 
L 592.196227 666.887198 
L 606.658828 668.590422 
L 621.121429 668.590422 
L 635.584029 669.563693 
L 650.04663 669.563693 
L 664.509231 669.563693 
" clip-path="url(#p5f3a91d331)" style="fill: none; stroke: #ffd700; stroke-width: 2; stroke-linecap: round"/>
   </g>
   <g id="patch_13">
    <path d="M 57.08 675.16 
L 57.08 529.169375 
" style="fill: none; stroke: #cccccc; stroke-width: 0.8; stroke-linejoin: miter; stroke-linecap: square"/>
   </g>
   <g id="patch_14">
    <path d="M 664.509231 675.16 
L 664.509231 529.169375 
" style="fill: none; stroke: #cccccc; stroke-width: 0.8; stroke-linejoin: miter; stroke-linecap: square"/>
   </g>
   <g id="patch_15">
    <path d="M 57.08 675.16 
L 664.509231 675.16 
" style="fill: none; stroke: #cccccc; stroke-width: 0.8; stroke-linejoin: miter; stroke-linecap: square"/>
   </g>
   <g id="patch_16">
    <path d="M 57.08 529.169375 
L 664.509231 529.169375 
" style="fill: none; stroke: #cccccc; stroke-width: 0.8; stroke-linejoin: miter; stroke-linecap: square"/>
   </g>
   <g id="text_26">
    <!-- Hierarchy -->
    <g style="fill: #262626" transform="translate(325.835865 523.169375) scale(0.16 -0.16)">
     <defs>
      <path id="TimesNewRomanPS-BoldMT-48" d="M 1750 2038 
L 1750 725 
Q 1750 400 1786 319 
Q 1822 238 1926 177 
Q 2031 116 2209 116 
L 2350 116 
L 2350 0 
L 134 0 
L 134 116 
L 275 116 
Q 459 116 572 181 
Q 653 225 697 331 
Q 731 406 731 725 
L 731 3513 
Q 731 3838 697 3919 
Q 663 4000 558 4061 
Q 453 4122 275 4122 
L 134 4122 
L 134 4238 
L 2350 4238 
L 2350 4122 
L 2209 4122 
Q 2025 4122 1913 4056 
Q 1831 4013 1784 3906 
Q 1750 3831 1750 3513 
L 1750 2313 
L 3247 2313 
L 3247 3513 
Q 3247 3838 3212 3919 
Q 3178 4000 3072 4061 
Q 2966 4122 2788 4122 
L 2650 4122 
L 2650 4238 
L 4863 4238 
L 4863 4122 
L 4725 4122 
Q 4538 4122 4428 4056 
Q 4347 4013 4300 3906 
Q 4266 3831 4266 3513 
L 4266 725 
Q 4266 400 4300 319 
Q 4334 238 4440 177 
Q 4547 116 4725 116 
L 4863 116 
L 4863 0 
L 2650 0 
L 2650 116 
L 2788 116 
Q 2975 116 3084 181 
Q 3166 225 3213 331 
Q 3247 406 3247 725 
L 3247 2038 
L 1750 2038 
z
" transform="scale(0.015625)"/>
      <path id="TimesNewRomanPS-BoldMT-72" d="M 1428 2922 
L 1428 2259 
Q 1719 2713 1937 2861 
Q 2156 3009 2359 3009 
Q 2534 3009 2639 2901 
Q 2744 2794 2744 2597 
Q 2744 2388 2642 2272 
Q 2541 2156 2397 2156 
Q 2231 2156 2109 2262 
Q 1988 2369 1966 2381 
Q 1934 2400 1894 2400 
Q 1803 2400 1722 2331 
Q 1594 2225 1528 2028 
Q 1428 1725 1428 1359 
L 1428 688 
L 1431 513 
Q 1431 334 1453 284 
Q 1491 200 1564 161 
Q 1638 122 1813 113 
L 1813 0 
L 234 0 
L 234 113 
Q 425 128 492 217 
Q 559 306 559 688 
L 559 2303 
Q 559 2553 534 2622 
Q 503 2709 443 2750 
Q 384 2791 234 2806 
L 234 2922 
L 1428 2922 
z
" transform="scale(0.015625)"/>
      <path id="TimesNewRomanPS-BoldMT-63" d="M 2600 753 
L 2697 678 
Q 2491 291 2183 101 
Q 1875 -88 1528 -88 
Q 944 -88 594 353 
Q 244 794 244 1413 
Q 244 2009 563 2463 
Q 947 3009 1622 3009 
Q 2075 3009 2342 2781 
Q 2609 2553 2609 2272 
Q 2609 2094 2501 1987 
Q 2394 1881 2219 1881 
Q 2034 1881 1914 2003 
Q 1794 2125 1766 2438 
Q 1747 2634 1675 2713 
Q 1603 2791 1506 2791 
Q 1356 2791 1250 2631 
Q 1088 2391 1088 1894 
Q 1088 1481 1219 1104 
Q 1350 728 1578 544 
Q 1750 409 1984 409 
Q 2138 409 2275 481 
Q 2413 553 2600 753 
z
" transform="scale(0.015625)"/>
      <path id="TimesNewRomanPS-BoldMT-68" d="M 1409 4238 
L 1409 2547 
Q 1650 2800 1850 2904 
Q 2050 3009 2266 3009 
Q 2541 3009 2736 2853 
Q 2931 2697 2995 2486 
Q 3059 2275 3059 1775 
L 3059 634 
Q 3059 300 3121 217 
Q 3184 134 3375 113 
L 3375 0 
L 1894 0 
L 1894 113 
Q 2050 134 2128 238 
Q 2184 319 2184 634 
L 2184 1938 
Q 2184 2300 2156 2392 
Q 2128 2484 2061 2536 
Q 1994 2588 1909 2588 
Q 1784 2588 1665 2502 
Q 1547 2416 1409 2200 
L 1409 634 
Q 1409 322 1456 244 
Q 1516 138 1700 113 
L 1700 0 
L 219 0 
L 219 113 
Q 403 131 481 231 
Q 534 300 534 634 
L 534 3603 
Q 534 3934 473 4015 
Q 413 4097 219 4122 
L 219 4238 
L 1409 4238 
z
" transform="scale(0.015625)"/>
     </defs>
     <use xlink:href="#TimesNewRomanPS-BoldMT-48"/>
     <use xlink:href="#TimesNewRomanPS-BoldMT-69" transform="translate(77.783203 0)"/>
     <use xlink:href="#TimesNewRomanPS-BoldMT-65" transform="translate(105.566406 0)"/>
     <use xlink:href="#TimesNewRomanPS-BoldMT-72" transform="translate(149.951172 0)"/>
     <use xlink:href="#TimesNewRomanPS-BoldMT-61" transform="translate(194.335938 0)"/>
     <use xlink:href="#TimesNewRomanPS-BoldMT-72" transform="translate(244.335938 0)"/>
     <use xlink:href="#TimesNewRomanPS-BoldMT-63" transform="translate(286.970703 0)"/>
     <use xlink:href="#TimesNewRomanPS-BoldMT-68" transform="translate(331.355469 0)"/>
     <use xlink:href="#TimesNewRomanPS-BoldMT-79" transform="translate(386.970703 0)"/>
    </g>
   </g>
  </g>
 </g>
 <defs>
  <clipPath id="p50a2c0675d">
   <rect x="57.08" y="30.2775" width="607.429231" height="437.971875"/>
  </clipPath>
  <clipPath id="p5f3a91d331">
   <rect x="57.08" y="529.169375" width="607.429231" height="145.990625"/>
  </clipPath>
 </defs>
</svg>
