<?xml version="1.0" encoding="utf-8" standalone="no"?>
<!DOCTYPE svg PUBLIC "-//W3C//DTD SVG 1.1//EN"
  "http://www.w3.org/Graphics/SVG/1.1/DTD/svg11.dtd">
<svg xmlns:xlink="http://www.w3.org/1999/xlink" width="720pt" height="576pt" viewBox="0 0 720 576" xmlns="http://www.w3.org/2000/svg" version="1.1">
 <metadata>
  <rdf:RDF xmlns:dc="http://purl.org/dc/elements/1.1/" xmlns:cc="http://creativecommons.org/ns#" xmlns:rdf="http://www.w3.org/1999/02/22-rdf-syntax-ns#">
   <cc:Work>
    <dc:type rdf:resource="http://purl.org/dc/dcmitype/StillImage"/>
    <dc:date>2025-06-26T15:57:37.335645</dc:date>
    <dc:format>image/svg+xml</dc:format>
    <dc:creator>
     <cc:Agent>
      <dc:title>Matplotlib v3.10.3, https://matplotlib.org/</dc:title>
     </cc:Agent>
    </dc:creator>
   </cc:Work>
  </rdf:RDF>
 </metadata>
 <defs>
  <style type="text/css">*{stroke-linejoin: round; stroke-linecap: butt}</style>
 </defs>
 <g id="figure_1">
  <g id="patch_1">
   <path d="M 0 576 
L 720 576 
L 720 0 
L 0 0 
z
" style="fill: #ffffff"/>
  </g>
  <g id="axes_1">
   <g id="patch_2">
    <path d="M 90 512.64 
L 648 512.64 
L 648 69.12 
L 90 69.12 
z
" style="fill: #ffffff"/>
   </g>
   <g id="matplotlib.axis_1">
    <g id="xtick_1">
     <g id="text_1">
      <!-- $\it{Macaca\ mulatta}$ -->
      <g style="fill: #262626" transform="translate(157.79 532.777812)">
       <text>
        <tspan x="0" y="-0.359375" style="font-style: oblique; font-size: 14px; font-family: 'DejaVu Sans'; fill: #262626">M</tspan>
        <tspan x="12.079102" y="-0.359375" style="font-style: oblique; font-size: 14px; font-family: 'DejaVu Sans'; fill: #262626">a</tspan>
        <tspan x="20.658203" y="-0.359375" style="font-style: oblique; font-size: 14px; font-family: 'DejaVu Sans'; fill: #262626">c</tspan>
        <tspan x="28.355469" y="-0.359375" style="font-style: oblique; font-size: 14px; font-family: 'DejaVu Sans'; fill: #262626">a</tspan>
        <tspan x="36.93457" y="-0.359375" style="font-style: oblique; font-size: 14px; font-family: 'DejaVu Sans'; fill: #262626">c</tspan>
        <tspan x="44.631836" y="-0.359375" style="font-style: oblique; font-size: 14px; font-family: 'DejaVu Sans'; fill: #262626">a</tspan>
        <tspan x="57.75679" y="-0.359375" style="font-style: oblique; font-size: 14px; font-family: 'DejaVu Sans'; fill: #262626">m</tspan>
        <tspan x="71.394486" y="-0.359375" style="font-style: oblique; font-size: 14px; font-family: 'DejaVu Sans'; fill: #262626">u</tspan>
        <tspan x="80.267533" y="-0.359375" style="font-style: oblique; font-size: 14px; font-family: 'DejaVu Sans'; fill: #262626">l</tspan>
        <tspan x="84.157181" y="-0.359375" style="font-style: oblique; font-size: 14px; font-family: 'DejaVu Sans'; fill: #262626">a</tspan>
        <tspan x="92.736283" y="-0.359375" style="font-style: oblique; font-size: 14px; font-family: 'DejaVu Sans'; fill: #262626">t</tspan>
        <tspan x="98.22554" y="-0.359375" style="font-style: oblique; font-size: 14px; font-family: 'DejaVu Sans'; fill: #262626">t</tspan>
        <tspan x="103.714798" y="-0.359375" style="font-style: oblique; font-size: 14px; font-family: 'DejaVu Sans'; fill: #262626">a</tspan>
       </text>
      </g>
      <text style="font-size: 14px; font-family: 'DejaVu Sans'; fill: #262626" transform="translate(189.328281 548.45475)">(n=12)</text>
     </g>
    </g>
    <g id="xtick_2">
     <g id="text_2">
      <!-- $\it{Macaca\ tonkeana}$ -->
      <g style="fill: #262626" transform="translate(462.26 532.777812)">
       <text>
        <tspan x="0" y="-0.359375" style="font-style: oblique; font-size: 14px; font-family: 'DejaVu Sans'; fill: #262626">M</tspan>
        <tspan x="12.079102" y="-0.359375" style="font-style: oblique; font-size: 14px; font-family: 'DejaVu Sans'; fill: #262626">a</tspan>
        <tspan x="20.658203" y="-0.359375" style="font-style: oblique; font-size: 14px; font-family: 'DejaVu Sans'; fill: #262626">c</tspan>
        <tspan x="28.355469" y="-0.359375" style="font-style: oblique; font-size: 14px; font-family: 'DejaVu Sans'; fill: #262626">a</tspan>
        <tspan x="36.93457" y="-0.359375" style="font-style: oblique; font-size: 14px; font-family: 'DejaVu Sans'; fill: #262626">c</tspan>
        <tspan x="44.631836" y="-0.359375" style="font-style: oblique; font-size: 14px; font-family: 'DejaVu Sans'; fill: #262626">a</tspan>
        <tspan x="57.75679" y="-0.359375" style="font-style: oblique; font-size: 14px; font-family: 'DejaVu Sans'; fill: #262626">t</tspan>
        <tspan x="63.246048" y="-0.359375" style="font-style: oblique; font-size: 14px; font-family: 'DejaVu Sans'; fill: #262626">o</tspan>
        <tspan x="71.811478" y="-0.359375" style="font-style: oblique; font-size: 14px; font-family: 'DejaVu Sans'; fill: #262626">n</tspan>
        <tspan x="80.684525" y="-0.359375" style="font-style: oblique; font-size: 14px; font-family: 'DejaVu Sans'; fill: #262626">k</tspan>
        <tspan x="88.791947" y="-0.359375" style="font-style: oblique; font-size: 14px; font-family: 'DejaVu Sans'; fill: #262626">e</tspan>
        <tspan x="97.405228" y="-0.359375" style="font-style: oblique; font-size: 14px; font-family: 'DejaVu Sans'; fill: #262626">a</tspan>
        <tspan x="105.98433" y="-0.359375" style="font-style: oblique; font-size: 14px; font-family: 'DejaVu Sans'; fill: #262626">n</tspan>
        <tspan x="114.857376" y="-0.359375" style="font-style: oblique; font-size: 14px; font-family: 'DejaVu Sans'; fill: #262626">a</tspan>
       </text>
      </g>
      <text style="font-size: 14px; font-family: 'DejaVu Sans'; fill: #262626" transform="translate(499.328281 548.45475)">(n=20)</text>
     </g>
    </g>
   </g>
   <g id="matplotlib.axis_2">
    <g id="ytick_1">
     <g id="line2d_1">
      <path d="M 90 512.64 
L 648 512.64 
" clip-path="url(#pd2975de9db)" style="fill: none; stroke: #cccccc; stroke-linecap: round"/>
     </g>
     <g id="text_3">
      <text style="font-size: 13.2px; font-family: 'DejaVu Sans'; text-anchor: end; fill: #262626" x="80.5" y="517.654969" transform="rotate(-0 80.5 517.654969)">0</text>
     </g>
    </g>
    <g id="ytick_2">
     <g id="line2d_2">
      <path d="M 90 423.936 
L 648 423.936 
" clip-path="url(#pd2975de9db)" style="fill: none; stroke: #cccccc; stroke-linecap: round"/>
     </g>
     <g id="text_4">
      <text style="font-size: 13.2px; font-family: 'DejaVu Sans'; text-anchor: end; fill: #262626" x="80.5" y="428.950969" transform="rotate(-0 80.5 428.950969)">5</text>
     </g>
    </g>
    <g id="ytick_3">
     <g id="line2d_3">
      <path d="M 90 335.232 
L 648 335.232 
" clip-path="url(#pd2975de9db)" style="fill: none; stroke: #cccccc; stroke-linecap: round"/>
     </g>
     <g id="text_5">
      <text style="font-size: 13.2px; font-family: 'DejaVu Sans'; text-anchor: end; fill: #262626" x="80.5" y="340.246969" transform="rotate(-0 80.5 340.246969)">10</text>
     </g>
    </g>
    <g id="ytick_4">
     <g id="line2d_4">
      <path d="M 90 246.528 
L 648 246.528 
" clip-path="url(#pd2975de9db)" style="fill: none; stroke: #cccccc; stroke-linecap: round"/>
     </g>
     <g id="text_6">
      <text style="font-size: 13.2px; font-family: 'DejaVu Sans'; text-anchor: end; fill: #262626" x="80.5" y="251.542969" transform="rotate(-0 80.5 251.542969)">15</text>
     </g>
    </g>
    <g id="ytick_5">
     <g id="line2d_5">
      <path d="M 90 157.824 
L 648 157.824 
" clip-path="url(#pd2975de9db)" style="fill: none; stroke: #cccccc; stroke-linecap: round"/>
     </g>
     <g id="text_7">
      <text style="font-size: 13.2px; font-family: 'DejaVu Sans'; text-anchor: end; fill: #262626" x="80.5" y="162.838969" transform="rotate(-0 80.5 162.838969)">20</text>
     </g>
    </g>
    <g id="ytick_6">
     <g id="line2d_6">
      <path d="M 90 69.12 
L 648 69.12 
" clip-path="url(#pd2975de9db)" style="fill: none; stroke: #cccccc; stroke-linecap: round"/>
     </g>
     <g id="text_8">
      <text style="font-size: 13.2px; font-family: 'DejaVu Sans'; text-anchor: end; fill: #262626" x="80.5" y="74.134969" transform="rotate(-0 80.5 74.134969)">25</text>
     </g>
    </g>
    <g id="text_9">
     <text style="font-size: 14px; font-family: 'DejaVu Sans'; text-anchor: middle; fill: #262626" x="56.791438" y="290.88" transform="rotate(-90 56.791438 290.88)">Age</text>
    </g>
   </g>
   <g id="LineCollection_1">
    <path d="M 214 481.334587 
L 214 438.634728 
" clip-path="url(#pd2975de9db)" style="fill: none; stroke: #4682b4; stroke-width: 2"/>
   </g>
   <g id="line2d_7">
    <defs>
     <path id="me83688f12f" d="M 5 0 
L -5 -0 
" style="stroke: #4682b4"/>
    </defs>
    <g clip-path="url(#pd2975de9db)">
     <use xlink:href="#me83688f12f" x="214" y="481.334587" style="fill: #4682b4; stroke: #4682b4"/>
    </g>
   </g>
   <g id="line2d_8">
    <g clip-path="url(#pd2975de9db)">
     <use xlink:href="#me83688f12f" x="214" y="438.634728" style="fill: #4682b4; stroke: #4682b4"/>
    </g>
   </g>
   <g id="LineCollection_2">
    <path d="M 524 509.393571 
L 524 320.752211 
" clip-path="url(#pd2975de9db)" style="fill: none; stroke: #800080; stroke-width: 2"/>
   </g>
   <g id="line2d_9">
    <defs>
     <path id="me3aa6d3963" d="M 5 0 
L -5 -0 
" style="stroke: #800080"/>
    </defs>
    <g clip-path="url(#pd2975de9db)">
     <use xlink:href="#me3aa6d3963" x="524" y="509.393571" style="fill: #800080; stroke: #800080"/>
    </g>
   </g>
   <g id="line2d_10">
    <g clip-path="url(#pd2975de9db)">
     <use xlink:href="#me3aa6d3963" x="524" y="320.752211" style="fill: #800080; stroke: #800080"/>
    </g>
   </g>
   <g id="patch_3">
    <path d="M 90 512.64 
L 90 69.12 
" style="fill: none; stroke: #cccccc; stroke-width: 1.25; stroke-linejoin: miter; stroke-linecap: square"/>
   </g>
   <g id="patch_4">
    <path d="M 648 512.64 
L 648 69.12 
" style="fill: none; stroke: #cccccc; stroke-width: 1.25; stroke-linejoin: miter; stroke-linecap: square"/>
   </g>
   <g id="patch_5">
    <path d="M 90 512.64 
L 648 512.64 
" style="fill: none; stroke: #cccccc; stroke-width: 1.25; stroke-linejoin: miter; stroke-linecap: square"/>
   </g>
   <g id="patch_6">
    <path d="M 90 69.12 
L 648 69.12 
" style="fill: none; stroke: #cccccc; stroke-width: 1.25; stroke-linejoin: miter; stroke-linecap: square"/>
   </g>
   <g id="PathCollection_1">
    <defs>
     <path id="md0946f6c1e" d="M 0 5 
C 1.326016 5 2.597899 4.473168 3.535534 3.535534 
C 4.473168 2.597899 5 1.326016 5 0 
C 5 -1.326016 4.473168 -2.597899 3.535534 -3.535534 
C 2.597899 -4.473168 1.326016 -5 0 -5 
C -1.326016 -5 -2.597899 -4.473168 -3.535534 -3.535534 
C -4.473168 -2.597899 -5 -1.326016 -5 0 
C -5 1.326016 -4.473168 2.597899 -3.535534 3.535534 
C -2.597899 4.473168 -1.326016 5 0 5 
z
"/>
    </defs>
    <g clip-path="url(#pd2975de9db)">
     <use xlink:href="#md0946f6c1e" x="227.249654" y="429.379752" style="fill: #4682b4; fill-opacity: 0.6"/>
     <use xlink:href="#md0946f6c1e" x="219.943491" y="426.074617" style="fill: #4682b4; fill-opacity: 0.6"/>
     <use xlink:href="#md0946f6c1e" x="196.868433" y="462.090871" style="fill: #4682b4; fill-opacity: 0.6"/>
     <use xlink:href="#md0946f6c1e" x="195.390647" y="477.304215" style="fill: #4682b4; fill-opacity: 0.6"/>
     <use xlink:href="#md0946f6c1e" x="213.669088" y="474.242104" style="fill: #4682b4; fill-opacity: 0.6"/>
    </g>
   </g>
   <g id="PathCollection_2">
    <defs>
     <path id="C0_0_35ccde5e27" d="M 0 5 
C 1.326016 5 2.597899 4.473168 3.535534 3.535534 
C 4.473168 2.597899 5 1.326016 5 -0 
C 5 -1.326016 4.473168 -2.597899 3.535534 -3.535534 
C 2.597899 -4.473168 1.326016 -5 0 -5 
C -1.326016 -5 -2.597899 -4.473168 -3.535534 -3.535534 
C -4.473168 -2.597899 -5 -1.326016 -5 0 
C -5 1.326016 -4.473168 2.597899 -3.535534 3.535534 
C -2.597899 4.473168 -1.326016 5 0 5 
z
"/>
    </defs>
    <g clip-path="url(#pd2975de9db)">
     <use xlink:href="#C0_0_35ccde5e27" x="209.842459" y="442.211454" style="fill: none; stroke: #4682b4; stroke-width: 1.5"/>
    </g>
    <g clip-path="url(#pd2975de9db)">
     <use xlink:href="#C0_0_35ccde5e27" x="212.130837" y="483.428436" style="fill: none; stroke: #4682b4; stroke-width: 1.5"/>
    </g>
    <g clip-path="url(#pd2975de9db)">
     <use xlink:href="#C0_0_35ccde5e27" x="204.17109" y="475.116993" style="fill: none; stroke: #4682b4; stroke-width: 1.5"/>
    </g>
    <g clip-path="url(#pd2975de9db)">
     <use xlink:href="#C0_0_35ccde5e27" x="188.970121" y="458.882946" style="fill: none; stroke: #4682b4; stroke-width: 1.5"/>
    </g>
    <g clip-path="url(#pd2975de9db)">
     <use xlink:href="#C0_0_35ccde5e27" x="244.297491" y="492.468953" style="fill: none; stroke: #4682b4; stroke-width: 1.5"/>
    </g>
    <g clip-path="url(#pd2975de9db)">
     <use xlink:href="#C0_0_35ccde5e27" x="225.777458" y="453.828033" style="fill: none; stroke: #4682b4; stroke-width: 1.5"/>
    </g>
    <g clip-path="url(#pd2975de9db)">
     <use xlink:href="#C0_0_35ccde5e27" x="202.238672" y="444.787516" style="fill: none; stroke: #4682b4; stroke-width: 1.5"/>
    </g>
   </g>
   <g id="PathCollection_3">
    <defs>
     <path id="m79d8abd5e7" d="M 0 5 
C 1.326016 5 2.597899 4.473168 3.535534 3.535534 
C 4.473168 2.597899 5 1.326016 5 0 
C 5 -1.326016 4.473168 -2.597899 3.535534 -3.535534 
C 2.597899 -4.473168 1.326016 -5 0 -5 
C -1.326016 -5 -2.597899 -4.473168 -3.535534 -3.535534 
C -4.473168 -2.597899 -5 -1.326016 -5 0 
C -5 1.326016 -4.473168 2.597899 -3.535534 3.535534 
C -2.597899 4.473168 -1.326016 5 0 5 
z
"/>
    </defs>
    <g clip-path="url(#pd2975de9db)">
     <use xlink:href="#m79d8abd5e7" x="546.412403" y="171.91943" style="fill: #800080; fill-opacity: 0.6"/>
     <use xlink:href="#m79d8abd5e7" x="524.843803" y="474.825363" style="fill: #800080; fill-opacity: 0.6"/>
     <use xlink:href="#m79d8abd5e7" x="538.425275" y="223.149028" style="fill: #800080; fill-opacity: 0.6"/>
     <use xlink:href="#m79d8abd5e7" x="525.029851" y="449.696614" style="fill: #800080; fill-opacity: 0.6"/>
     <use xlink:href="#m79d8abd5e7" x="499.226907" y="455.529205" style="fill: #800080; fill-opacity: 0.6"/>
     <use xlink:href="#m79d8abd5e7" x="529.799806" y="417.374334" style="fill: #800080; fill-opacity: 0.6"/>
     <use xlink:href="#m79d8abd5e7" x="513.039343" y="241.035643" style="fill: #800080; fill-opacity: 0.6"/>
     <use xlink:href="#m79d8abd5e7" x="532.671405" y="458.882946" style="fill: #800080; fill-opacity: 0.6"/>
     <use xlink:href="#m79d8abd5e7" x="514.141065" y="384.322981" style="fill: #800080; fill-opacity: 0.6"/>
     <use xlink:href="#m79d8abd5e7" x="521.4086" y="426.026012" style="fill: #800080; fill-opacity: 0.6"/>
    </g>
   </g>
   <g id="PathCollection_4">
    <defs>
     <path id="C1_0_20263dc079" d="M 0 5 
C 1.326016 5 2.597899 4.473168 3.535534 3.535534 
C 4.473168 2.597899 5 1.326016 5 -0 
C 5 -1.326016 4.473168 -2.597899 3.535534 -3.535534 
C 2.597899 -4.473168 1.326016 -5 0 -5 
C -1.326016 -5 -2.597899 -4.473168 -3.535534 -3.535534 
C -4.473168 -2.597899 -5 -1.326016 -5 0 
C -5 1.326016 -4.473168 2.597899 -3.535534 3.535534 
C -2.597899 4.473168 -1.326016 5 0 5 
z
"/>
    </defs>
    <g clip-path="url(#pd2975de9db)">
     <use xlink:href="#C1_0_20263dc079" x="533.239444" y="443.572392" style="fill: none; stroke: #800080; stroke-width: 1.5"/>
    </g>
    <g clip-path="url(#pd2975de9db)">
     <use xlink:href="#C1_0_20263dc079" x="501.130933" y="458.785736" style="fill: none; stroke: #800080; stroke-width: 1.5"/>
    </g>
    <g clip-path="url(#pd2975de9db)">
     <use xlink:href="#C1_0_20263dc079" x="508.71709" y="475.311413" style="fill: none; stroke: #800080; stroke-width: 1.5"/>
    </g>
    <g clip-path="url(#pd2975de9db)">
     <use xlink:href="#C1_0_20263dc079" x="499.446405" y="481.921683" style="fill: none; stroke: #800080; stroke-width: 1.5"/>
    </g>
    <g clip-path="url(#pd2975de9db)">
     <use xlink:href="#C1_0_20263dc079" x="543.736279" y="357.736083" style="fill: none; stroke: #800080; stroke-width: 1.5"/>
    </g>
    <g clip-path="url(#pd2975de9db)">
     <use xlink:href="#C1_0_20263dc079" x="502.265861" y="481.144004" style="fill: none; stroke: #800080; stroke-width: 1.5"/>
    </g>
    <g clip-path="url(#pd2975de9db)">
     <use xlink:href="#C1_0_20263dc079" x="513.491964" y="481.775868" style="fill: none; stroke: #800080; stroke-width: 1.5"/>
    </g>
    <g clip-path="url(#pd2975de9db)">
     <use xlink:href="#C1_0_20263dc079" x="540.630286" y="456.744329" style="fill: none; stroke: #800080; stroke-width: 1.5"/>
    </g>
    <g clip-path="url(#pd2975de9db)">
     <use xlink:href="#C1_0_20263dc079" x="551.146373" y="474.728153" style="fill: none; stroke: #800080; stroke-width: 1.5"/>
    </g>
    <g clip-path="url(#pd2975de9db)">
     <use xlink:href="#C1_0_20263dc079" x="533.758555" y="486.976596" style="fill: none; stroke: #800080; stroke-width: 1.5"/>
    </g>
   </g>
   <g id="text_10">
    <text style="font-weight: 700; font-size: 25px; font-family: 'DejaVu Sans'; text-anchor: middle; fill: #800080" x="369" y="63.12" transform="rotate(-0 369 63.12)">Demographics</text>
   </g>
  </g>
 </g>
 <defs>
  <clipPath id="pd2975de9db">
   <rect x="90" y="69.12" width="558" height="443.52"/>
  </clipPath>
 </defs>
</svg>
