<?xml version="1.0" encoding="utf-8" standalone="no"?>
<!DOCTYPE svg PUBLIC "-//W3C//DTD SVG 1.1//EN"
  "http://www.w3.org/Graphics/SVG/1.1/DTD/svg11.dtd">
<svg xmlns:xlink="http://www.w3.org/1999/xlink" width="1440pt" height="432pt" viewBox="0 0 1440 432" xmlns="http://www.w3.org/2000/svg" version="1.1">
 <metadata>
  <rdf:RDF xmlns:dc="http://purl.org/dc/elements/1.1/" xmlns:cc="http://creativecommons.org/ns#" xmlns:rdf="http://www.w3.org/1999/02/22-rdf-syntax-ns#">
   <cc:Work>
    <dc:type rdf:resource="http://purl.org/dc/dcmitype/StillImage"/>
    <dc:date>2025-06-26T15:57:36.237752</dc:date>
    <dc:format>image/svg+xml</dc:format>
    <dc:creator>
     <cc:Agent>
      <dc:title>Matplotlib v3.10.3, https://matplotlib.org/</dc:title>
     </cc:Agent>
    </dc:creator>
   </cc:Work>
  </rdf:RDF>
 </metadata>
 <defs>
  <style type="text/css">*{stroke-linejoin: round; stroke-linecap: butt}</style>
 </defs>
 <g id="figure_1">
  <g id="patch_1">
   <path d="M 0 432 
L 1440 432 
L 1440 0 
L 0 0 
z
" style="fill: #ffffff"/>
  </g>
  <g id="axes_1">
   <g id="patch_2">
    <path d="M 52.192 366.668 
L 371.9595 366.668 
L 371.9595 107.664 
L 52.192 107.664 
z
" style="fill: #ffffff"/>
   </g>
   <g id="matplotlib.axis_1">
    <g id="xtick_1">
     <g id="line2d_1">
      <path d="M 52.192 366.668 
L 52.192 107.664 
" clip-path="url(#p18d044e9ff)" style="fill: none; stroke-dasharray: 3.7,1.6; stroke-dashoffset: 0; stroke: #cccccc"/>
     </g>
     <g id="text_1">
      <text style="font-size: 13.2px; font-family: 'DejaVu Sans'; text-anchor: middle; fill: #262626" x="52.192" y="387.197938" transform="rotate(-0 52.192 387.197938)">0</text>
     </g>
    </g>
    <g id="xtick_2">
     <g id="line2d_2">
      <path d="M 116.1455 366.668 
L 116.1455 107.664 
" clip-path="url(#p18d044e9ff)" style="fill: none; stroke-dasharray: 3.7,1.6; stroke-dashoffset: 0; stroke: #cccccc"/>
     </g>
     <g id="text_2">
      <text style="font-size: 13.2px; font-family: 'DejaVu Sans'; text-anchor: middle; fill: #262626" x="116.1455" y="387.197938" transform="rotate(-0 116.1455 387.197938)">5</text>
     </g>
    </g>
    <g id="xtick_3">
     <g id="line2d_3">
      <path d="M 180.099 366.668 
L 180.099 107.664 
" clip-path="url(#p18d044e9ff)" style="fill: none; stroke-dasharray: 3.7,1.6; stroke-dashoffset: 0; stroke: #cccccc"/>
     </g>
     <g id="text_3">
      <text style="font-size: 13.2px; font-family: 'DejaVu Sans'; text-anchor: middle; fill: #262626" x="180.099" y="387.197938" transform="rotate(-0 180.099 387.197938)">10</text>
     </g>
    </g>
    <g id="xtick_4">
     <g id="line2d_4">
      <path d="M 244.0525 366.668 
L 244.0525 107.664 
" clip-path="url(#p18d044e9ff)" style="fill: none; stroke-dasharray: 3.7,1.6; stroke-dashoffset: 0; stroke: #cccccc"/>
     </g>
     <g id="text_4">
      <text style="font-size: 13.2px; font-family: 'DejaVu Sans'; text-anchor: middle; fill: #262626" x="244.0525" y="387.197938" transform="rotate(-0 244.0525 387.197938)">15</text>
     </g>
    </g>
    <g id="xtick_5">
     <g id="line2d_5">
      <path d="M 308.006 366.668 
L 308.006 107.664 
" clip-path="url(#p18d044e9ff)" style="fill: none; stroke-dasharray: 3.7,1.6; stroke-dashoffset: 0; stroke: #cccccc"/>
     </g>
     <g id="text_5">
      <text style="font-size: 13.2px; font-family: 'DejaVu Sans'; text-anchor: middle; fill: #262626" x="308.006" y="387.197938" transform="rotate(-0 308.006 387.197938)">20</text>
     </g>
    </g>
    <g id="xtick_6">
     <g id="line2d_6">
      <path d="M 371.9595 366.668 
L 371.9595 107.664 
" clip-path="url(#p18d044e9ff)" style="fill: none; stroke-dasharray: 3.7,1.6; stroke-dashoffset: 0; stroke: #cccccc"/>
     </g>
     <g id="text_6">
      <text style="font-size: 13.2px; font-family: 'DejaVu Sans'; text-anchor: middle; fill: #262626" x="371.9595" y="387.197938" transform="rotate(-0 371.9595 387.197938)">25</text>
     </g>
    </g>
    <g id="text_7">
     <text style="font-size: 14px; font-family: 'DejaVu Sans'; text-anchor: middle; fill: #262626" x="212.07575" y="404.580938" transform="rotate(-0 212.07575 404.580938)">Age</text>
    </g>
   </g>
   <g id="matplotlib.axis_2">
    <g id="ytick_1">
     <g id="line2d_7">
      <path d="M 52.192 366.668 
L 371.9595 366.668 
" clip-path="url(#p18d044e9ff)" style="fill: none; stroke-dasharray: 3.7,1.6; stroke-dashoffset: 0; stroke: #cccccc"/>
     </g>
     <g id="text_8">
      <text style="font-size: 13.2px; font-family: 'DejaVu Sans'; text-anchor: end; fill: #262626" x="41.692" y="371.682969" transform="rotate(-0 41.692 371.682969)">0</text>
     </g>
    </g>
    <g id="ytick_2">
     <g id="line2d_8">
      <path d="M 52.192 314.8672 
L 371.9595 314.8672 
" clip-path="url(#p18d044e9ff)" style="fill: none; stroke-dasharray: 3.7,1.6; stroke-dashoffset: 0; stroke: #cccccc"/>
     </g>
    </g>
    <g id="ytick_3">
     <g id="line2d_9">
      <path d="M 52.192 263.0664 
L 371.9595 263.0664 
" clip-path="url(#p18d044e9ff)" style="fill: none; stroke-dasharray: 3.7,1.6; stroke-dashoffset: 0; stroke: #cccccc"/>
     </g>
    </g>
    <g id="ytick_4">
     <g id="line2d_10">
      <path d="M 52.192 211.2656 
L 371.9595 211.2656 
" clip-path="url(#p18d044e9ff)" style="fill: none; stroke-dasharray: 3.7,1.6; stroke-dashoffset: 0; stroke: #cccccc"/>
     </g>
    </g>
    <g id="ytick_5">
     <g id="line2d_11">
      <path d="M 52.192 159.4648 
L 371.9595 159.4648 
" clip-path="url(#p18d044e9ff)" style="fill: none; stroke-dasharray: 3.7,1.6; stroke-dashoffset: 0; stroke: #cccccc"/>
     </g>
    </g>
    <g id="ytick_6">
     <g id="line2d_12">
      <path d="M 52.192 107.664 
L 371.9595 107.664 
" clip-path="url(#p18d044e9ff)" style="fill: none; stroke-dasharray: 3.7,1.6; stroke-dashoffset: 0; stroke: #cccccc"/>
     </g>
     <g id="text_9">
      <text style="font-size: 13.2px; font-family: 'DejaVu Sans'; text-anchor: end; fill: #262626" x="41.692" y="112.678969" transform="rotate(-0 41.692 112.678969)">1</text>
     </g>
    </g>
    <g id="text_10">
     <text style="font-size: 14px; font-family: 'DejaVu Sans'; text-anchor: middle; fill: #262626" x="26.381937" y="237.166" transform="rotate(-90 26.381937 237.166)">Proportion</text>
    </g>
   </g>
   <g id="PathCollection_1">
    <defs>
     <path id="C0_0_18150f3a50" d="M 0 4.472136 
C 1.186024 4.472136 2.323632 4.000923 3.162278 3.162278 
C 4.000923 2.323632 4.472136 1.186024 4.472136 -0 
C 4.472136 -1.186024 4.000923 -2.323632 3.162278 -3.162278 
C 2.323632 -4.000923 1.186024 -4.472136 0 -4.472136 
C -1.186024 -4.472136 -2.323632 -4.000923 -3.162278 -3.162278 
C -4.000923 -2.323632 -4.472136 -1.186024 -4.472136 0 
C -4.472136 1.186024 -4.000923 2.323632 -3.162278 3.162278 
C -2.323632 4.000923 -1.186024 4.472136 0 4.472136 
z
"/>
    </defs>
    <g clip-path="url(#p18d044e9ff)">
     <use xlink:href="#C0_0_18150f3a50" x="102.969327" y="242.49969" style="fill: none; stroke: #4682b4"/>
    </g>
    <g clip-path="url(#p18d044e9ff)">
     <use xlink:href="#C0_0_18150f3a50" x="73.252851" y="189.162787" style="fill: none; stroke: #4682b4"/>
    </g>
    <g clip-path="url(#p18d044e9ff)">
     <use xlink:href="#C0_0_18150f3a50" x="79.245207" y="229.272138" style="fill: none; stroke: #4682b4"/>
    </g>
    <g clip-path="url(#p18d044e9ff)">
     <use xlink:href="#C0_0_18150f3a50" x="90.949573" y="199.403473" style="fill: none; stroke: #4682b4"/>
    </g>
    <g clip-path="url(#p18d044e9ff)">
     <use xlink:href="#C0_0_18150f3a50" x="66.734851" y="213.484415" style="fill: none; stroke: #4682b4"/>
    </g>
    <g clip-path="url(#p18d044e9ff)">
     <use xlink:href="#C0_0_18150f3a50" x="94.594047" y="218.604758" style="fill: none; stroke: #4682b4"/>
    </g>
    <g clip-path="url(#p18d044e9ff)">
     <use xlink:href="#C0_0_18150f3a50" x="101.112047" y="214.337806" style="fill: none; stroke: #4682b4"/>
    </g>
   </g>
   <g id="PathCollection_2">
    <defs>
     <path id="m54e72ba302" d="M 0 4.472136 
C 1.186024 4.472136 2.323632 4.000923 3.162278 3.162278 
C 4.000923 2.323632 4.472136 1.186024 4.472136 0 
C 4.472136 -1.186024 4.000923 -2.323632 3.162278 -3.162278 
C 2.323632 -4.000923 1.186024 -4.472136 0 -4.472136 
C -1.186024 -4.472136 -2.323632 -4.000923 -3.162278 -3.162278 
C -4.000923 -2.323632 -4.472136 -1.186024 -4.472136 0 
C -4.472136 1.186024 -4.000923 2.323632 -3.162278 3.162278 
C -2.323632 4.000923 -1.186024 4.472136 0 4.472136 
z
" style="stroke: #4682b4; stroke-opacity: 0.6"/>
    </defs>
    <g clip-path="url(#p18d044e9ff)">
     <use xlink:href="#m54e72ba302" x="112.220682" y="194.28313" style="fill: #4682b4; fill-opacity: 0.6; stroke: #4682b4; stroke-opacity: 0.6"/>
     <use xlink:href="#m54e72ba302" x="114.603607" y="235.245871" style="fill: #4682b4; fill-opacity: 0.6; stroke: #4682b4; stroke-opacity: 0.6"/>
     <use xlink:href="#m54e72ba302" x="88.636734" y="242.072995" style="fill: #4682b4; fill-opacity: 0.6; stroke: #4682b4; stroke-opacity: 0.6"/>
     <use xlink:href="#m54e72ba302" x="77.668271" y="250.6069" style="fill: #4682b4; fill-opacity: 0.6; stroke: #4682b4; stroke-opacity: 0.6"/>
     <use xlink:href="#m54e72ba302" x="79.875981" y="211.777634" style="fill: #4682b4; fill-opacity: 0.6; stroke: #4682b4; stroke-opacity: 0.6"/>
    </g>
   </g>
   <g id="PathCollection_3">
    <defs>
     <path id="C1_0_279f4f66b8" d="M 0 4.472136 
C 1.186024 4.472136 2.323632 4.000923 3.162278 3.162278 
C 4.000923 2.323632 4.472136 1.186024 4.472136 -0 
C 4.472136 -1.186024 4.000923 -2.323632 3.162278 -3.162278 
C 2.323632 -4.000923 1.186024 -4.472136 0 -4.472136 
C -1.186024 -4.472136 -2.323632 -4.000923 -3.162278 -3.162278 
C -4.000923 -2.323632 -4.472136 -1.186024 -4.472136 0 
C -4.472136 1.186024 -4.000923 2.323632 -3.162278 3.162278 
C -2.323632 4.000923 -1.186024 4.472136 0 4.472136 
z
"/>
    </defs>
    <g clip-path="url(#p18d044e9ff)">
     <use xlink:href="#C1_0_279f4f66b8" x="101.988122" y="248.473423" style="fill: none; stroke: #800080"/>
    </g>
    <g clip-path="url(#p18d044e9ff)">
     <use xlink:href="#C1_0_279f4f66b8" x="91.019659" y="251.033595" style="fill: none; stroke: #800080"/>
    </g>
    <g clip-path="url(#p18d044e9ff)">
     <use xlink:href="#C1_0_279f4f66b8" x="79.105035" y="190.016178" style="fill: none; stroke: #800080"/>
    </g>
    <g clip-path="url(#p18d044e9ff)">
     <use xlink:href="#C1_0_279f4f66b8" x="74.339185" y="258.287414" style="fill: none; stroke: #800080"/>
    </g>
    <g clip-path="url(#p18d044e9ff)">
     <use xlink:href="#C1_0_279f4f66b8" x="163.874085" y="262.127671" style="fill: none; stroke: #800080"/>
    </g>
    <g clip-path="url(#p18d044e9ff)">
     <use xlink:href="#C1_0_279f4f66b8" x="74.899873" y="246.766643" style="fill: none; stroke: #800080"/>
    </g>
    <g clip-path="url(#p18d044e9ff)">
     <use xlink:href="#C1_0_279f4f66b8" x="74.444314" y="210.924244" style="fill: none; stroke: #800080"/>
    </g>
    <g clip-path="url(#p18d044e9ff)">
     <use xlink:href="#C1_0_279f4f66b8" x="92.491466" y="272.795051" style="fill: none; stroke: #800080"/>
    </g>
    <g clip-path="url(#p18d044e9ff)">
     <use xlink:href="#C1_0_279f4f66b8" x="79.525551" y="230.552224" style="fill: none; stroke: #800080"/>
    </g>
    <g clip-path="url(#p18d044e9ff)">
     <use xlink:href="#C1_0_279f4f66b8" x="70.694711" y="172.948369" style="fill: none; stroke: #800080"/>
    </g>
   </g>
   <g id="PathCollection_4">
    <defs>
     <path id="mc287e96e42" d="M 0 4.472136 
C 1.186024 4.472136 2.323632 4.000923 3.162278 3.162278 
C 4.000923 2.323632 4.472136 1.186024 4.472136 0 
C 4.472136 -1.186024 4.000923 -2.323632 3.162278 -3.162278 
C 2.323632 -4.000923 1.186024 -4.472136 0 -4.472136 
C -1.186024 -4.472136 -2.323632 -4.000923 -3.162278 -3.162278 
C -4.000923 -2.323632 -4.472136 -1.186024 -4.472136 0 
C -4.472136 1.186024 -4.000923 2.323632 -3.162278 3.162278 
C -2.323632 4.000923 -1.186024 4.472136 0 4.472136 
z
" style="stroke: #800080; stroke-opacity: 0.6"/>
    </defs>
    <g clip-path="url(#p18d044e9ff)">
     <use xlink:href="#mc287e96e42" x="297.843526" y="244.633166" style="fill: #800080; fill-opacity: 0.6; stroke: #800080; stroke-opacity: 0.6"/>
     <use xlink:href="#mc287e96e42" x="79.455465" y="185.32253" style="fill: #800080; fill-opacity: 0.6; stroke: #800080; stroke-opacity: 0.6"/>
     <use xlink:href="#mc287e96e42" x="260.90819" y="265.541232" style="fill: #800080; fill-opacity: 0.6; stroke: #800080; stroke-opacity: 0.6"/>
     <use xlink:href="#mc287e96e42" x="97.572703" y="249.753509" style="fill: #800080; fill-opacity: 0.6; stroke: #800080; stroke-opacity: 0.6"/>
     <use xlink:href="#mc287e96e42" x="93.367541" y="188.736092" style="fill: #800080; fill-opacity: 0.6; stroke: #800080; stroke-opacity: 0.6"/>
     <use xlink:href="#mc287e96e42" x="120.876307" y="266.394623" style="fill: #800080; fill-opacity: 0.6; stroke: #800080; stroke-opacity: 0.6"/>
     <use xlink:href="#mc287e96e42" x="248.012361" y="260.847585" style="fill: #800080; fill-opacity: 0.6; stroke: #800080; stroke-opacity: 0.6"/>
     <use xlink:href="#mc287e96e42" x="90.949573" y="195.136521" style="fill: #800080; fill-opacity: 0.6; stroke: #800080; stroke-opacity: 0.6"/>
     <use xlink:href="#mc287e96e42" x="144.705556" y="238.232738" style="fill: #800080; fill-opacity: 0.6; stroke: #800080; stroke-opacity: 0.6"/>
     <use xlink:href="#mc287e96e42" x="114.63865" y="240.366214" style="fill: #800080; fill-opacity: 0.6; stroke: #800080; stroke-opacity: 0.6"/>
    </g>
   </g>
   <g id="line2d_13">
    <path d="M 66.734851 210.847221 
L 67.218373 211.313549 
L 67.701896 211.771589 
L 68.185419 212.22134 
L 68.668942 212.662803 
L 69.152465 213.095978 
L 69.635987 213.520864 
L 70.11951 213.937462 
L 70.603033 214.345771 
L 71.086556 214.745792 
L 71.570079 215.137524 
L 72.053601 215.520968 
L 72.537124 215.896124 
L 73.020647 216.262991 
L 73.50417 216.62157 
L 73.987693 216.97186 
L 74.471215 217.313862 
L 74.954738 217.647575 
L 75.438261 217.973 
L 75.921784 218.290137 
L 76.405307 218.598985 
L 76.888829 218.899545 
L 77.372352 219.191816 
L 77.855875 219.475799 
L 78.339398 219.751493 
L 78.822921 220.018899 
L 79.306443 220.278017 
L 79.789966 220.528846 
L 80.273489 220.771387 
L 80.757012 221.005639 
L 81.240535 221.231603 
L 81.724057 221.449278 
L 82.20758 221.658665 
L 82.691103 221.859764 
L 83.174626 222.052574 
L 83.658149 222.237096 
L 84.141671 222.413329 
L 84.625194 222.581274 
L 85.108717 222.74093 
L 85.59224 222.892298 
L 86.075762 223.035378 
L 86.559285 223.170169 
L 87.042808 223.296672 
L 87.526331 223.414886 
L 88.009854 223.524812 
L 88.493376 223.626449 
L 88.976899 223.719798 
L 89.460422 223.804859 
L 89.943945 223.881631 
L 90.427468 223.950115 
L 90.91099 224.01031 
L 91.394513 224.062217 
L 91.878036 224.105835 
L 92.361559 224.141165 
L 92.845082 224.168207 
L 93.328604 224.18696 
L 93.812127 224.197425 
L 94.29565 224.199601 
L 94.779173 224.193489 
L 95.262696 224.179089 
L 95.746218 224.1564 
L 96.229741 224.125422 
L 96.713264 224.086156 
L 97.196787 224.038602 
L 97.68031 223.982759 
L 98.163832 223.918628 
L 98.647355 223.846209 
L 99.130878 223.765501 
L 99.614401 223.676504 
L 100.097924 223.579219 
L 100.581446 223.473646 
L 101.064969 223.359784 
L 101.548492 223.237634 
L 102.032015 223.107196 
L 102.515538 222.968469 
L 102.99906 222.821453 
L 103.482583 222.666149 
L 103.966106 222.502557 
L 104.449629 222.330676 
L 104.933151 222.150507 
L 105.416674 221.96205 
L 105.900197 221.765304 
L 106.38372 221.560269 
L 106.867243 221.346947 
L 107.350765 221.125335 
L 107.834288 220.895436 
L 108.317811 220.657247 
L 108.801334 220.410771 
L 109.284857 220.156006 
L 109.768379 219.892953 
L 110.251902 219.621611 
L 110.735425 219.34198 
L 111.218948 219.054062 
L 111.702471 218.757855 
L 112.185993 218.453359 
L 112.669516 218.140575 
L 113.153039 217.819503 
L 113.636562 217.490142 
L 114.120085 217.152493 
L 114.603607 216.806555 
" clip-path="url(#p18d044e9ff)" style="fill: none; stroke-dasharray: 8.325,3.6; stroke-dashoffset: 0; stroke: #4682b4; stroke-width: 2.25"/>
   </g>
   <g id="line2d_14">
    <path d="M 70.694711 211.808034 
L 72.989144 213.756128 
L 75.283576 215.671133 
L 77.578009 217.553047 
L 79.872441 219.401872 
L 82.166874 221.217606 
L 84.461306 223.000251 
L 86.755739 224.749805 
L 89.050171 226.46627 
L 91.344603 228.149645 
L 93.639036 229.79993 
L 95.933468 231.417124 
L 98.227901 233.001229 
L 100.522333 234.552244 
L 102.816766 236.070169 
L 105.111198 237.555004 
L 107.405631 239.006749 
L 109.700063 240.425405 
L 111.994496 241.81097 
L 114.288928 243.163445 
L 116.583361 244.48283 
L 118.877793 245.769126 
L 121.172226 247.022331 
L 123.466658 248.242446 
L 125.761091 249.429472 
L 128.055523 250.583407 
L 130.349956 251.704253 
L 132.644388 252.792008 
L 134.93882 253.846674 
L 137.233253 254.86825 
L 139.527685 255.856736 
L 141.822118 256.812131 
L 144.11655 257.734437 
L 146.410983 258.623653 
L 148.705415 259.479779 
L 150.999848 260.302815 
L 153.29428 261.092761 
L 155.588713 261.849617 
L 157.883145 262.573383 
L 160.177578 263.26406 
L 162.47201 263.921646 
L 164.766443 264.546142 
L 167.060875 265.137549 
L 169.355308 265.695865 
L 171.64974 266.221091 
L 173.944173 266.713228 
L 176.238605 267.172274 
L 178.533037 267.598231 
L 180.82747 267.991098 
L 183.121902 268.350874 
L 185.416335 268.677561 
L 187.710767 268.971158 
L 190.0052 269.231665 
L 192.299632 269.459082 
L 194.594065 269.653408 
L 196.888497 269.814645 
L 199.18293 269.942793 
L 201.477362 270.03785 
L 203.771795 270.099817 
L 206.066227 270.128694 
L 208.36066 270.124481 
L 210.655092 270.087178 
L 212.949525 270.016786 
L 215.243957 269.913303 
L 217.538389 269.77673 
L 219.832822 269.607068 
L 222.127254 269.404315 
L 224.421687 269.168473 
L 226.716119 268.899541 
L 229.010552 268.597518 
L 231.304984 268.262406 
L 233.599417 267.894204 
L 235.893849 267.492912 
L 238.188282 267.058529 
L 240.482714 266.591057 
L 242.777147 266.090495 
L 245.071579 265.556843 
L 247.366012 264.990101 
L 249.660444 264.39027 
L 251.954877 263.757348 
L 254.249309 263.091336 
L 256.543742 262.392234 
L 258.838174 261.660042 
L 261.132606 260.894761 
L 263.427039 260.096389 
L 265.721471 259.264928 
L 268.015904 258.400376 
L 270.310336 257.502735 
L 272.604769 256.572003 
L 274.899201 255.608182 
L 277.193634 254.611271 
L 279.488066 253.581269 
L 281.782499 252.518178 
L 284.076931 251.421997 
L 286.371364 250.292726 
L 288.665796 249.130365 
L 290.960229 247.934914 
L 293.254661 246.706373 
L 295.549094 245.444742 
L 297.843526 244.150021 
" clip-path="url(#p18d044e9ff)" style="fill: none; stroke-dasharray: 8.325,3.6; stroke-dashoffset: 0; stroke: #800080; stroke-width: 2.25"/>
   </g>
   <g id="line2d_15">
    <path d="M 66.734851 209.394041 
L 69.069282 211.036715 
L 71.403713 212.653966 
L 73.738144 214.245793 
L 76.072575 215.812197 
L 78.407006 217.353177 
L 80.741437 218.868734 
L 83.075868 220.358867 
L 85.410299 221.823577 
L 87.74473 223.262863 
L 90.079161 224.676725 
L 92.413592 226.065164 
L 94.748023 227.42818 
L 97.082455 228.765772 
L 99.416886 230.07794 
L 101.751317 231.364685 
L 104.085748 232.626007 
L 106.420179 233.861905 
L 108.75461 235.072379 
L 111.089041 236.25743 
L 113.423472 237.417057 
L 115.757903 238.551261 
L 118.092334 239.660042 
L 120.426765 240.743398 
L 122.761196 241.801332 
L 125.095627 242.833841 
L 127.430058 243.840928 
L 129.764489 244.82259 
L 132.09892 245.778829 
L 134.433352 246.709645 
L 136.767783 247.615037 
L 139.102214 248.495006 
L 141.436645 249.349551 
L 143.771076 250.178672 
L 146.105507 250.982371 
L 148.439938 251.760645 
L 150.774369 252.513496 
L 153.1088 253.240923 
L 155.443231 253.942927 
L 157.777662 254.619508 
L 160.112093 255.270665 
L 162.446524 255.896398 
L 164.780955 256.496708 
L 167.115386 257.071594 
L 169.449818 257.621057 
L 171.784249 258.145096 
L 174.11868 258.643712 
L 176.453111 259.116904 
L 178.787542 259.564673 
L 181.121973 259.987018 
L 183.456404 260.38394 
L 185.790835 260.755438 
L 188.125266 261.101513 
L 190.459697 261.422164 
L 192.794128 261.717392 
L 195.128559 261.987196 
L 197.46299 262.231576 
L 199.797421 262.450533 
L 202.131852 262.644067 
L 204.466283 262.812177 
L 206.800715 262.954863 
L 209.135146 263.072126 
L 211.469577 263.163965 
L 213.804008 263.230381 
L 216.138439 263.271374 
L 218.47287 263.286942 
L 220.807301 263.277088 
L 223.141732 263.24181 
L 225.476163 263.181108 
L 227.810594 263.094983 
L 230.145025 262.983434 
L 232.479456 262.846462 
L 234.813887 262.684066 
L 237.148318 262.496246 
L 239.482749 262.283004 
L 241.81718 262.044337 
L 244.151612 261.780247 
L 246.486043 261.490734 
L 248.820474 261.175797 
L 251.154905 260.835436 
L 253.489336 260.469652 
L 255.823767 260.078445 
L 258.158198 259.661814 
L 260.492629 259.219759 
L 262.82706 258.752281 
L 265.161491 258.25938 
L 267.495922 257.741054 
L 269.830353 257.197306 
L 272.164784 256.628134 
L 274.499215 256.033538 
L 276.833646 255.413519 
L 279.168078 254.768076 
L 281.502509 254.09721 
L 283.83694 253.40092 
L 286.171371 252.679206 
L 288.505802 251.93207 
L 290.840233 251.159509 
L 293.174664 250.361525 
L 295.509095 249.538118 
L 297.843526 248.689287 
" clip-path="url(#p18d044e9ff)" style="fill: none; stroke: #000000; stroke-width: 2.25; stroke-linecap: round"/>
   </g>
   <g id="patch_3">
    <path d="M 52.192 366.668 
L 52.192 107.664 
" style="fill: none; stroke: #cccccc; stroke-linejoin: miter; stroke-linecap: square"/>
   </g>
   <g id="patch_4">
    <path d="M 371.9595 366.668 
L 371.9595 107.664 
" style="fill: none; stroke: #cccccc; stroke-width: 1.25; stroke-linejoin: miter; stroke-linecap: square"/>
   </g>
   <g id="patch_5">
    <path d="M 52.192 366.668 
L 371.9595 366.668 
" style="fill: none; stroke: #cccccc; stroke-linejoin: miter; stroke-linecap: square"/>
   </g>
   <g id="patch_6">
    <path d="M 52.192 107.664 
L 371.9595 107.664 
" style="fill: none; stroke: #cccccc; stroke-width: 1.25; stroke-linejoin: miter; stroke-linecap: square"/>
   </g>
   <g id="text_11">
    <text style="font-weight: 700; font-size: 20px; font-family: 'DejaVu Sans'; text-anchor: middle; fill: #262626" x="212.07575" y="101.664" transform="rotate(-0 212.07575 101.664)">Hits</text>
   </g>
  </g>
  <g id="axes_2">
   <g id="patch_7">
    <path d="M 400.2015 366.668 
L 719.969 366.668 
L 719.969 107.664 
L 400.2015 107.664 
z
" style="fill: #ffffff"/>
   </g>
   <g id="matplotlib.axis_3">
    <g id="xtick_7">
     <g id="line2d_16">
      <path d="M 400.2015 366.668 
L 400.2015 107.664 
" clip-path="url(#ped149a0d46)" style="fill: none; stroke-dasharray: 3.7,1.6; stroke-dashoffset: 0; stroke: #cccccc"/>
     </g>
     <g id="text_12">
      <text style="font-size: 13.2px; font-family: 'DejaVu Sans'; text-anchor: middle; fill: #262626" x="400.2015" y="387.197938" transform="rotate(-0 400.2015 387.197938)">0</text>
     </g>
    </g>
    <g id="xtick_8">
     <g id="line2d_17">
      <path d="M 464.155 366.668 
L 464.155 107.664 
" clip-path="url(#ped149a0d46)" style="fill: none; stroke-dasharray: 3.7,1.6; stroke-dashoffset: 0; stroke: #cccccc"/>
     </g>
     <g id="text_13">
      <text style="font-size: 13.2px; font-family: 'DejaVu Sans'; text-anchor: middle; fill: #262626" x="464.155" y="387.197938" transform="rotate(-0 464.155 387.197938)">5</text>
     </g>
    </g>
    <g id="xtick_9">
     <g id="line2d_18">
      <path d="M 528.1085 366.668 
L 528.1085 107.664 
" clip-path="url(#ped149a0d46)" style="fill: none; stroke-dasharray: 3.7,1.6; stroke-dashoffset: 0; stroke: #cccccc"/>
     </g>
     <g id="text_14">
      <text style="font-size: 13.2px; font-family: 'DejaVu Sans'; text-anchor: middle; fill: #262626" x="528.1085" y="387.197938" transform="rotate(-0 528.1085 387.197938)">10</text>
     </g>
    </g>
    <g id="xtick_10">
     <g id="line2d_19">
      <path d="M 592.062 366.668 
L 592.062 107.664 
" clip-path="url(#ped149a0d46)" style="fill: none; stroke-dasharray: 3.7,1.6; stroke-dashoffset: 0; stroke: #cccccc"/>
     </g>
     <g id="text_15">
      <text style="font-size: 13.2px; font-family: 'DejaVu Sans'; text-anchor: middle; fill: #262626" x="592.062" y="387.197938" transform="rotate(-0 592.062 387.197938)">15</text>
     </g>
    </g>
    <g id="xtick_11">
     <g id="line2d_20">
      <path d="M 656.0155 366.668 
L 656.0155 107.664 
" clip-path="url(#ped149a0d46)" style="fill: none; stroke-dasharray: 3.7,1.6; stroke-dashoffset: 0; stroke: #cccccc"/>
     </g>
     <g id="text_16">
      <text style="font-size: 13.2px; font-family: 'DejaVu Sans'; text-anchor: middle; fill: #262626" x="656.0155" y="387.197938" transform="rotate(-0 656.0155 387.197938)">20</text>
     </g>
    </g>
    <g id="xtick_12">
     <g id="line2d_21">
      <path d="M 719.969 366.668 
L 719.969 107.664 
" clip-path="url(#ped149a0d46)" style="fill: none; stroke-dasharray: 3.7,1.6; stroke-dashoffset: 0; stroke: #cccccc"/>
     </g>
     <g id="text_17">
      <text style="font-size: 13.2px; font-family: 'DejaVu Sans'; text-anchor: middle; fill: #262626" x="719.969" y="387.197938" transform="rotate(-0 719.969 387.197938)">25</text>
     </g>
    </g>
    <g id="text_18">
     <text style="font-size: 14px; font-family: 'DejaVu Sans'; text-anchor: middle; fill: #262626" x="560.08525" y="404.580938" transform="rotate(-0 560.08525 404.580938)">Age</text>
    </g>
   </g>
   <g id="matplotlib.axis_4">
    <g id="ytick_7">
     <g id="line2d_22">
      <path d="M 400.2015 366.668 
L 719.969 366.668 
" clip-path="url(#ped149a0d46)" style="fill: none; stroke-dasharray: 3.7,1.6; stroke-dashoffset: 0; stroke: #cccccc"/>
     </g>
    </g>
    <g id="ytick_8">
     <g id="line2d_23">
      <path d="M 400.2015 314.8672 
L 719.969 314.8672 
" clip-path="url(#ped149a0d46)" style="fill: none; stroke-dasharray: 3.7,1.6; stroke-dashoffset: 0; stroke: #cccccc"/>
     </g>
    </g>
    <g id="ytick_9">
     <g id="line2d_24">
      <path d="M 400.2015 263.0664 
L 719.969 263.0664 
" clip-path="url(#ped149a0d46)" style="fill: none; stroke-dasharray: 3.7,1.6; stroke-dashoffset: 0; stroke: #cccccc"/>
     </g>
    </g>
    <g id="ytick_10">
     <g id="line2d_25">
      <path d="M 400.2015 211.2656 
L 719.969 211.2656 
" clip-path="url(#ped149a0d46)" style="fill: none; stroke-dasharray: 3.7,1.6; stroke-dashoffset: 0; stroke: #cccccc"/>
     </g>
    </g>
    <g id="ytick_11">
     <g id="line2d_26">
      <path d="M 400.2015 159.4648 
L 719.969 159.4648 
" clip-path="url(#ped149a0d46)" style="fill: none; stroke-dasharray: 3.7,1.6; stroke-dashoffset: 0; stroke: #cccccc"/>
     </g>
    </g>
    <g id="ytick_12">
     <g id="line2d_27">
      <path d="M 400.2015 107.664 
L 719.969 107.664 
" clip-path="url(#ped149a0d46)" style="fill: none; stroke-dasharray: 3.7,1.6; stroke-dashoffset: 0; stroke: #cccccc"/>
     </g>
    </g>
   </g>
   <g id="PathCollection_5">
    <defs>
     <path id="C2_0_f4eeaf168f" d="M 0 4.472136 
C 1.186024 4.472136 2.323632 4.000923 3.162278 3.162278 
C 4.000923 2.323632 4.472136 1.186024 4.472136 -0 
C 4.472136 -1.186024 4.000923 -2.323632 3.162278 -3.162278 
C 2.323632 -4.000923 1.186024 -4.472136 0 -4.472136 
C -1.186024 -4.472136 -2.323632 -4.000923 -3.162278 -3.162278 
C -4.000923 -2.323632 -4.472136 -1.186024 -4.472136 0 
C -4.472136 1.186024 -4.000923 2.323632 -3.162278 3.162278 
C -2.323632 4.000923 -1.186024 4.472136 0 4.472136 
z
"/>
    </defs>
    <g clip-path="url(#ped149a0d46)">
     <use xlink:href="#C2_0_f4eeaf168f" x="450.978827" y="251.033595" style="fill: none; stroke: #4682b4"/>
    </g>
    <g clip-path="url(#ped149a0d46)">
     <use xlink:href="#C2_0_f4eeaf168f" x="421.262351" y="289.86286" style="fill: none; stroke: #4682b4"/>
    </g>
    <g clip-path="url(#ped149a0d46)">
     <use xlink:href="#C2_0_f4eeaf168f" x="427.254707" y="249.326814" style="fill: none; stroke: #4682b4"/>
    </g>
    <g clip-path="url(#ped149a0d46)">
     <use xlink:href="#C2_0_f4eeaf168f" x="438.959073" y="277.915394" style="fill: none; stroke: #4682b4"/>
    </g>
    <g clip-path="url(#ped149a0d46)">
     <use xlink:href="#C2_0_f4eeaf168f" x="414.744351" y="298.82346" style="fill: none; stroke: #4682b4"/>
    </g>
    <g clip-path="url(#ped149a0d46)">
     <use xlink:href="#C2_0_f4eeaf168f" x="442.603547" y="260.847585" style="fill: none; stroke: #4682b4"/>
    </g>
    <g clip-path="url(#ped149a0d46)">
     <use xlink:href="#C2_0_f4eeaf168f" x="449.121547" y="265.967928" style="fill: none; stroke: #4682b4"/>
    </g>
   </g>
   <g id="PathCollection_6">
    <g clip-path="url(#ped149a0d46)">
     <use xlink:href="#m54e72ba302" x="460.230182" y="284.315822" style="fill: #4682b4; fill-opacity: 0.6; stroke: #4682b4; stroke-opacity: 0.6"/>
     <use xlink:href="#m54e72ba302" x="462.613107" y="250.6069" style="fill: #4682b4; fill-opacity: 0.6; stroke: #4682b4; stroke-opacity: 0.6"/>
     <use xlink:href="#m54e72ba302" x="436.646234" y="245.486557" style="fill: #4682b4; fill-opacity: 0.6; stroke: #4682b4; stroke-opacity: 0.6"/>
     <use xlink:href="#m54e72ba302" x="425.677771" y="235.672567" style="fill: #4682b4; fill-opacity: 0.6; stroke: #4682b4; stroke-opacity: 0.6"/>
     <use xlink:href="#m54e72ba302" x="427.885481" y="267.674708" style="fill: #4682b4; fill-opacity: 0.6; stroke: #4682b4; stroke-opacity: 0.6"/>
    </g>
   </g>
   <g id="PathCollection_7">
    <defs>
     <path id="C3_0_2b6ba93bb5" d="M 0 4.472136 
C 1.186024 4.472136 2.323632 4.000923 3.162278 3.162278 
C 4.000923 2.323632 4.472136 1.186024 4.472136 -0 
C 4.472136 -1.186024 4.000923 -2.323632 3.162278 -3.162278 
C 2.323632 -4.000923 1.186024 -4.472136 0 -4.472136 
C -1.186024 -4.472136 -2.323632 -4.000923 -3.162278 -3.162278 
C -4.000923 -2.323632 -4.472136 -1.186024 -4.472136 0 
C -4.472136 1.186024 -4.000923 2.323632 -3.162278 3.162278 
C -2.323632 4.000923 -1.186024 4.472136 0 4.472136 
z
"/>
    </defs>
    <g clip-path="url(#ped149a0d46)">
     <use xlink:href="#C3_0_2b6ba93bb5" x="449.997622" y="227.565357" style="fill: none; stroke: #800080"/>
    </g>
    <g clip-path="url(#ped149a0d46)">
     <use xlink:href="#C3_0_2b6ba93bb5" x="439.029159" y="232.259005" style="fill: none; stroke: #800080"/>
    </g>
    <g clip-path="url(#ped149a0d46)">
     <use xlink:href="#C3_0_2b6ba93bb5" x="427.114535" y="292.423031" style="fill: none; stroke: #800080"/>
    </g>
    <g clip-path="url(#ped149a0d46)">
     <use xlink:href="#C3_0_2b6ba93bb5" x="422.348685" y="222.01832" style="fill: none; stroke: #800080"/>
    </g>
    <g clip-path="url(#ped149a0d46)">
     <use xlink:href="#C3_0_2b6ba93bb5" x="511.883585" y="229.272138" style="fill: none; stroke: #800080"/>
    </g>
    <g clip-path="url(#ped149a0d46)">
     <use xlink:href="#C3_0_2b6ba93bb5" x="422.909373" y="244.633166" style="fill: none; stroke: #800080"/>
    </g>
    <g clip-path="url(#ped149a0d46)">
     <use xlink:href="#C3_0_2b6ba93bb5" x="422.453814" y="269.381489" style="fill: none; stroke: #800080"/>
    </g>
    <g clip-path="url(#ped149a0d46)">
     <use xlink:href="#C3_0_2b6ba93bb5" x="440.500966" y="206.657292" style="fill: none; stroke: #800080"/>
    </g>
    <g clip-path="url(#ped149a0d46)">
     <use xlink:href="#C3_0_2b6ba93bb5" x="427.535051" y="252.31368" style="fill: none; stroke: #800080"/>
    </g>
    <g clip-path="url(#ped149a0d46)">
     <use xlink:href="#C3_0_2b6ba93bb5" x="418.704211" y="313.331097" style="fill: none; stroke: #800080"/>
    </g>
   </g>
   <g id="PathCollection_8">
    <g clip-path="url(#ped149a0d46)">
     <use xlink:href="#mc287e96e42" x="645.853026" y="242.49969" style="fill: #800080; fill-opacity: 0.6; stroke: #800080; stroke-opacity: 0.6"/>
     <use xlink:href="#mc287e96e42" x="427.464965" y="293.276422" style="fill: #800080; fill-opacity: 0.6; stroke: #800080; stroke-opacity: 0.6"/>
     <use xlink:href="#mc287e96e42" x="608.91769" y="227.992053" style="fill: #800080; fill-opacity: 0.6; stroke: #800080; stroke-opacity: 0.6"/>
     <use xlink:href="#mc287e96e42" x="445.582203" y="256.153937" style="fill: #800080; fill-opacity: 0.6; stroke: #800080; stroke-opacity: 0.6"/>
     <use xlink:href="#mc287e96e42" x="441.377041" y="290.289555" style="fill: #800080; fill-opacity: 0.6; stroke: #800080; stroke-opacity: 0.6"/>
     <use xlink:href="#mc287e96e42" x="468.885807" y="225.005186" style="fill: #800080; fill-opacity: 0.6; stroke: #800080; stroke-opacity: 0.6"/>
     <use xlink:href="#mc287e96e42" x="596.021861" y="217.751367" style="fill: #800080; fill-opacity: 0.6; stroke: #800080; stroke-opacity: 0.6"/>
     <use xlink:href="#mc287e96e42" x="438.959073" y="281.328956" style="fill: #800080; fill-opacity: 0.6; stroke: #800080; stroke-opacity: 0.6"/>
     <use xlink:href="#mc287e96e42" x="492.715056" y="244.633166" style="fill: #800080; fill-opacity: 0.6; stroke: #800080; stroke-opacity: 0.6"/>
     <use xlink:href="#mc287e96e42" x="462.64815" y="245.913252" style="fill: #800080; fill-opacity: 0.6; stroke: #800080; stroke-opacity: 0.6"/>
    </g>
   </g>
   <g id="line2d_28">
    <path d="M 414.744351 288.463025 
L 415.227873 287.312326 
L 415.711396 286.181504 
L 416.194919 285.070558 
L 416.678442 283.979489 
L 417.161965 282.908296 
L 417.645487 281.85698 
L 418.12901 280.825541 
L 418.612533 279.813978 
L 419.096056 278.822292 
L 419.579579 277.850482 
L 420.063101 276.898549 
L 420.546624 275.966493 
L 421.030147 275.054313 
L 421.51367 274.16201 
L 421.997193 273.289583 
L 422.480715 272.437033 
L 422.964238 271.60436 
L 423.447761 270.791563 
L 423.931284 269.998643 
L 424.414807 269.2256 
L 424.898329 268.472433 
L 425.381852 267.739142 
L 425.865375 267.025728 
L 426.348898 266.332191 
L 426.832421 265.658531 
L 427.315943 265.004747 
L 427.799466 264.370839 
L 428.282989 263.756808 
L 428.766512 263.162654 
L 429.250035 262.588377 
L 429.733557 262.033976 
L 430.21708 261.499451 
L 430.700603 260.984803 
L 431.184126 260.490032 
L 431.667649 260.015138 
L 432.151171 259.56012 
L 432.634694 259.124978 
L 433.118217 258.709713 
L 433.60174 258.314325 
L 434.085262 257.938813 
L 434.568785 257.583178 
L 435.052308 257.24742 
L 435.535831 256.931538 
L 436.019354 256.635533 
L 436.502876 256.359404 
L 436.986399 256.103152 
L 437.469922 255.866777 
L 437.953445 255.650278 
L 438.436968 255.453656 
L 438.92049 255.27691 
L 439.404013 255.120041 
L 439.887536 254.983049 
L 440.371059 254.865933 
L 440.854582 254.768694 
L 441.338104 254.691331 
L 441.821627 254.633845 
L 442.30515 254.596235 
L 442.788673 254.578503 
L 443.272196 254.580646 
L 443.755718 254.602667 
L 444.239241 254.644564 
L 444.722764 254.706337 
L 445.206287 254.787987 
L 445.68981 254.889514 
L 446.173332 255.010917 
L 446.656855 255.152197 
L 447.140378 255.313354 
L 447.623901 255.494387 
L 448.107424 255.695297 
L 448.590946 255.916083 
L 449.074469 256.156746 
L 449.557992 256.417286 
L 450.041515 256.697702 
L 450.525038 256.997994 
L 451.00856 257.318164 
L 451.492083 257.65821 
L 451.975606 258.018132 
L 452.459129 258.397931 
L 452.942651 258.797607 
L 453.426174 259.217159 
L 453.909697 259.656588 
L 454.39322 260.115894 
L 454.876743 260.595076 
L 455.360265 261.094135 
L 455.843788 261.61307 
L 456.327311 262.151882 
L 456.810834 262.71057 
L 457.294357 263.289135 
L 457.777879 263.887577 
L 458.261402 264.505895 
L 458.744925 265.14409 
L 459.228448 265.802162 
L 459.711971 266.48011 
L 460.195493 267.177935 
L 460.679016 267.895636 
L 461.162539 268.633214 
L 461.646062 269.390668 
L 462.129585 270.167999 
L 462.613107 270.965207 
" clip-path="url(#ped149a0d46)" style="fill: none; stroke-dasharray: 8.325,3.6; stroke-dashoffset: 0; stroke: #4682b4; stroke-width: 2.25"/>
   </g>
   <g id="line2d_29">
    <path d="M 418.704211 270.824916 
L 420.998644 269.046671 
L 423.293076 267.298808 
L 425.587509 265.581325 
L 427.881941 263.894224 
L 430.176374 262.237503 
L 432.470806 260.611163 
L 434.765239 259.015204 
L 437.059671 257.449626 
L 439.354103 255.914429 
L 441.648536 254.409613 
L 443.942968 252.935178 
L 446.237401 251.491124 
L 448.531833 250.07745 
L 450.826266 248.694158 
L 453.120698 247.341247 
L 455.415131 246.018716 
L 457.709563 244.726567 
L 460.003996 243.464798 
L 462.298428 242.23341 
L 464.592861 241.032404 
L 466.887293 239.861778 
L 469.181726 238.721533 
L 471.476158 237.611669 
L 473.770591 236.532186 
L 476.065023 235.483084 
L 478.359456 234.464363 
L 480.653888 233.476023 
L 482.94832 232.518064 
L 485.242753 231.590485 
L 487.537185 230.693288 
L 489.831618 229.826472 
L 492.12605 228.990036 
L 494.420483 228.183982 
L 496.714915 227.408308 
L 499.009348 226.663015 
L 501.30378 225.948104 
L 503.598213 225.263573 
L 505.892645 224.609423 
L 508.187078 223.985654 
L 510.48151 223.392266 
L 512.775943 222.829259 
L 515.070375 222.296633 
L 517.364808 221.794388 
L 519.65924 221.322523 
L 521.953673 220.88104 
L 524.248105 220.469938 
L 526.542537 220.089216 
L 528.83697 219.738876 
L 531.131402 219.418916 
L 533.425835 219.129338 
L 535.720267 218.87014 
L 538.0147 218.641323 
L 540.309132 218.442887 
L 542.603565 218.274832 
L 544.897997 218.137159 
L 547.19243 218.029866 
L 549.486862 217.952953 
L 551.781295 217.906422 
L 554.075727 217.890272 
L 556.37016 217.904503 
L 558.664592 217.949115 
L 560.959025 218.024107 
L 563.253457 218.129481 
L 565.547889 218.265235 
L 567.842322 218.431371 
L 570.136754 218.627887 
L 572.431187 218.854784 
L 574.725619 219.112063 
L 577.020052 219.399722 
L 579.314484 219.717762 
L 581.608917 220.066183 
L 583.903349 220.444985 
L 586.197782 220.854168 
L 588.492214 221.293732 
L 590.786647 221.763676 
L 593.081079 222.264002 
L 595.375512 222.794709 
L 597.669944 223.355796 
L 599.964377 223.947265 
L 602.258809 224.569114 
L 604.553242 225.221345 
L 606.847674 225.903956 
L 609.142106 226.616948 
L 611.436539 227.360322 
L 613.730971 228.134076 
L 616.025404 228.938211 
L 618.319836 229.772727 
L 620.614269 230.637624 
L 622.908701 231.532902 
L 625.203134 232.458561 
L 627.497566 233.4146 
L 629.791999 234.401021 
L 632.086431 235.417823 
L 634.380864 236.465005 
L 636.675296 237.542569 
L 638.969729 238.650513 
L 641.264161 239.788839 
L 643.558594 240.957545 
L 645.853026 242.156632 
" clip-path="url(#ped149a0d46)" style="fill: none; stroke-dasharray: 8.325,3.6; stroke-dashoffset: 0; stroke: #800080; stroke-width: 2.25"/>
   </g>
   <g id="line2d_30">
    <path d="M 414.744351 275.39622 
L 417.078782 273.71408 
L 419.413213 272.058915 
L 421.747644 270.430723 
L 424.082075 268.829506 
L 426.416506 267.255262 
L 428.750937 265.707993 
L 431.085368 264.187698 
L 433.419799 262.694377 
L 435.75423 261.22803 
L 438.088661 259.788657 
L 440.423092 258.376258 
L 442.757523 256.990834 
L 445.091955 255.632383 
L 447.426386 254.300907 
L 449.760817 252.996405 
L 452.095248 251.718877 
L 454.429679 250.468323 
L 456.76411 249.244743 
L 459.098541 248.048137 
L 461.432972 246.878506 
L 463.767403 245.735848 
L 466.101834 244.620165 
L 468.436265 243.531456 
L 470.770696 242.469721 
L 473.105127 241.43496 
L 475.439558 240.427173 
L 477.773989 239.44636 
L 480.10842 238.492522 
L 482.442852 237.565657 
L 484.777283 236.665767 
L 487.111714 235.792851 
L 489.446145 234.946909 
L 491.780576 234.127941 
L 494.115007 233.335947 
L 496.449438 232.570927 
L 498.783869 231.832881 
L 501.1183 231.12181 
L 503.452731 230.437713 
L 505.787162 229.780589 
L 508.121593 229.15044 
L 510.456024 228.547265 
L 512.790455 227.971064 
L 515.124886 227.421838 
L 517.459318 226.899585 
L 519.793749 226.404306 
L 522.12818 225.936002 
L 524.462611 225.494672 
L 526.797042 225.080316 
L 529.131473 224.692934 
L 531.465904 224.332526 
L 533.800335 223.999092 
L 536.134766 223.692632 
L 538.469197 223.413147 
L 540.803628 223.160635 
L 543.138059 222.935098 
L 545.47249 222.736535 
L 547.806921 222.564946 
L 550.141352 222.420331 
L 552.475783 222.30269 
L 554.810215 222.212023 
L 557.144646 222.148331 
L 559.479077 222.111612 
L 561.813508 222.101868 
L 564.147939 222.119098 
L 566.48237 222.163302 
L 568.816801 222.23448 
L 571.151232 222.332632 
L 573.485663 222.457758 
L 575.820094 222.609859 
L 578.154525 222.788933 
L 580.488956 222.994982 
L 582.823387 223.228005 
L 585.157818 223.488002 
L 587.492249 223.774973 
L 589.82668 224.088918 
L 592.161112 224.429837 
L 594.495543 224.79773 
L 596.829974 225.192598 
L 599.164405 225.61444 
L 601.498836 226.063255 
L 603.833267 226.539045 
L 606.167698 227.041809 
L 608.502129 227.571547 
L 610.83656 228.12826 
L 613.170991 228.711946 
L 615.505422 229.322607 
L 617.839853 229.960241 
L 620.174284 230.62485 
L 622.508715 231.316433 
L 624.843146 232.03499 
L 627.177578 232.780521 
L 629.512009 233.553026 
L 631.84644 234.352505 
L 634.180871 235.178959 
L 636.515302 236.032386 
L 638.849733 236.912788 
L 641.184164 237.820164 
L 643.518595 238.754514 
L 645.853026 239.715838 
" clip-path="url(#ped149a0d46)" style="fill: none; stroke: #000000; stroke-width: 2.25; stroke-linecap: round"/>
   </g>
   <g id="patch_8">
    <path d="M 400.2015 366.668 
L 400.2015 107.664 
" style="fill: none; stroke: #cccccc; stroke-linejoin: miter; stroke-linecap: square"/>
   </g>
   <g id="patch_9">
    <path d="M 719.969 366.668 
L 719.969 107.664 
" style="fill: none; stroke: #cccccc; stroke-width: 1.25; stroke-linejoin: miter; stroke-linecap: square"/>
   </g>
   <g id="patch_10">
    <path d="M 400.2015 366.668 
L 719.969 366.668 
" style="fill: none; stroke: #cccccc; stroke-linejoin: miter; stroke-linecap: square"/>
   </g>
   <g id="patch_11">
    <path d="M 400.2015 107.664 
L 719.969 107.664 
" style="fill: none; stroke: #cccccc; stroke-width: 1.25; stroke-linejoin: miter; stroke-linecap: square"/>
   </g>
   <g id="text_19">
    <text style="font-weight: 700; font-size: 20px; font-family: 'DejaVu Sans'; text-anchor: middle; fill: #262626" x="560.08525" y="101.664" transform="rotate(-0 560.08525 101.664)">Errors</text>
   </g>
  </g>
  <g id="axes_3">
   <g id="patch_12">
    <path d="M 748.211 366.668 
L 1067.9785 366.668 
L 1067.9785 107.664 
L 748.211 107.664 
z
" style="fill: #ffffff"/>
   </g>
   <g id="matplotlib.axis_5">
    <g id="xtick_13">
     <g id="line2d_31">
      <path d="M 748.211 366.668 
L 748.211 107.664 
" clip-path="url(#p52d652c5c1)" style="fill: none; stroke-dasharray: 3.7,1.6; stroke-dashoffset: 0; stroke: #cccccc"/>
     </g>
     <g id="text_20">
      <text style="font-size: 13.2px; font-family: 'DejaVu Sans'; text-anchor: middle; fill: #262626" x="748.211" y="387.197938" transform="rotate(-0 748.211 387.197938)">0</text>
     </g>
    </g>
    <g id="xtick_14">
     <g id="line2d_32">
      <path d="M 812.1645 366.668 
L 812.1645 107.664 
" clip-path="url(#p52d652c5c1)" style="fill: none; stroke-dasharray: 3.7,1.6; stroke-dashoffset: 0; stroke: #cccccc"/>
     </g>
     <g id="text_21">
      <text style="font-size: 13.2px; font-family: 'DejaVu Sans'; text-anchor: middle; fill: #262626" x="812.1645" y="387.197938" transform="rotate(-0 812.1645 387.197938)">5</text>
     </g>
    </g>
    <g id="xtick_15">
     <g id="line2d_33">
      <path d="M 876.118 366.668 
L 876.118 107.664 
" clip-path="url(#p52d652c5c1)" style="fill: none; stroke-dasharray: 3.7,1.6; stroke-dashoffset: 0; stroke: #cccccc"/>
     </g>
     <g id="text_22">
      <text style="font-size: 13.2px; font-family: 'DejaVu Sans'; text-anchor: middle; fill: #262626" x="876.118" y="387.197938" transform="rotate(-0 876.118 387.197938)">10</text>
     </g>
    </g>
    <g id="xtick_16">
     <g id="line2d_34">
      <path d="M 940.0715 366.668 
L 940.0715 107.664 
" clip-path="url(#p52d652c5c1)" style="fill: none; stroke-dasharray: 3.7,1.6; stroke-dashoffset: 0; stroke: #cccccc"/>
     </g>
     <g id="text_23">
      <text style="font-size: 13.2px; font-family: 'DejaVu Sans'; text-anchor: middle; fill: #262626" x="940.0715" y="387.197938" transform="rotate(-0 940.0715 387.197938)">15</text>
     </g>
    </g>
    <g id="xtick_17">
     <g id="line2d_35">
      <path d="M 1004.025 366.668 
L 1004.025 107.664 
" clip-path="url(#p52d652c5c1)" style="fill: none; stroke-dasharray: 3.7,1.6; stroke-dashoffset: 0; stroke: #cccccc"/>
     </g>
     <g id="text_24">
      <text style="font-size: 13.2px; font-family: 'DejaVu Sans'; text-anchor: middle; fill: #262626" x="1004.025" y="387.197938" transform="rotate(-0 1004.025 387.197938)">20</text>
     </g>
    </g>
    <g id="xtick_18">
     <g id="line2d_36">
      <path d="M 1067.9785 366.668 
L 1067.9785 107.664 
" clip-path="url(#p52d652c5c1)" style="fill: none; stroke-dasharray: 3.7,1.6; stroke-dashoffset: 0; stroke: #cccccc"/>
     </g>
     <g id="text_25">
      <text style="font-size: 13.2px; font-family: 'DejaVu Sans'; text-anchor: middle; fill: #262626" x="1067.9785" y="387.197938" transform="rotate(-0 1067.9785 387.197938)">25</text>
     </g>
    </g>
    <g id="text_26">
     <text style="font-size: 14px; font-family: 'DejaVu Sans'; text-anchor: middle; fill: #262626" x="908.09475" y="404.580938" transform="rotate(-0 908.09475 404.580938)">Age</text>
    </g>
   </g>
   <g id="matplotlib.axis_6">
    <g id="ytick_13">
     <g id="line2d_37">
      <path d="M 748.211 366.668 
L 1067.9785 366.668 
" clip-path="url(#p52d652c5c1)" style="fill: none; stroke-dasharray: 3.7,1.6; stroke-dashoffset: 0; stroke: #cccccc"/>
     </g>
    </g>
    <g id="ytick_14">
     <g id="line2d_38">
      <path d="M 748.211 314.8672 
L 1067.9785 314.8672 
" clip-path="url(#p52d652c5c1)" style="fill: none; stroke-dasharray: 3.7,1.6; stroke-dashoffset: 0; stroke: #cccccc"/>
     </g>
    </g>
    <g id="ytick_15">
     <g id="line2d_39">
      <path d="M 748.211 263.0664 
L 1067.9785 263.0664 
" clip-path="url(#p52d652c5c1)" style="fill: none; stroke-dasharray: 3.7,1.6; stroke-dashoffset: 0; stroke: #cccccc"/>
     </g>
    </g>
    <g id="ytick_16">
     <g id="line2d_40">
      <path d="M 748.211 211.2656 
L 1067.9785 211.2656 
" clip-path="url(#p52d652c5c1)" style="fill: none; stroke-dasharray: 3.7,1.6; stroke-dashoffset: 0; stroke: #cccccc"/>
     </g>
    </g>
    <g id="ytick_17">
     <g id="line2d_41">
      <path d="M 748.211 159.4648 
L 1067.9785 159.4648 
" clip-path="url(#p52d652c5c1)" style="fill: none; stroke-dasharray: 3.7,1.6; stroke-dashoffset: 0; stroke: #cccccc"/>
     </g>
    </g>
    <g id="ytick_18">
     <g id="line2d_42">
      <path d="M 748.211 107.664 
L 1067.9785 107.664 
" clip-path="url(#p52d652c5c1)" style="fill: none; stroke-dasharray: 3.7,1.6; stroke-dashoffset: 0; stroke: #cccccc"/>
     </g>
    </g>
   </g>
   <g id="PathCollection_9">
    <defs>
     <path id="C4_0_8131f4cadd" d="M 0 4.472136 
C 1.186024 4.472136 2.323632 4.000923 3.162278 3.162278 
C 4.000923 2.323632 4.472136 1.186024 4.472136 -0 
C 4.472136 -1.186024 4.000923 -2.323632 3.162278 -3.162278 
C 2.323632 -4.000923 1.186024 -4.472136 0 -4.472136 
C -1.186024 -4.472136 -2.323632 -4.000923 -3.162278 -3.162278 
C -4.000923 -2.323632 -4.472136 -1.186024 -4.472136 0 
C -4.472136 1.186024 -4.000923 2.323632 -3.162278 3.162278 
C -2.323632 4.000923 -1.186024 4.472136 0 4.472136 
z
"/>
    </defs>
    <g clip-path="url(#p52d652c5c1)">
     <use xlink:href="#C4_0_8131f4cadd" x="798.988327" y="350.026886" style="fill: none; stroke: #4682b4"/>
    </g>
    <g clip-path="url(#p52d652c5c1)">
     <use xlink:href="#C4_0_8131f4cadd" x="769.271851" y="364.961219" style="fill: none; stroke: #4682b4"/>
    </g>
    <g clip-path="url(#p52d652c5c1)">
     <use xlink:href="#C4_0_8131f4cadd" x="775.264207" y="363.254438" style="fill: none; stroke: #4682b4"/>
    </g>
    <g clip-path="url(#p52d652c5c1)">
     <use xlink:href="#C4_0_8131f4cadd" x="786.968573" y="366.241305" style="fill: none; stroke: #4682b4"/>
    </g>
    <g clip-path="url(#p52d652c5c1)">
     <use xlink:href="#C4_0_8131f4cadd" x="762.753851" y="363.254438" style="fill: none; stroke: #4682b4"/>
    </g>
    <g clip-path="url(#p52d652c5c1)">
     <use xlink:href="#C4_0_8131f4cadd" x="790.613047" y="363.254438" style="fill: none; stroke: #4682b4"/>
    </g>
    <g clip-path="url(#p52d652c5c1)">
     <use xlink:href="#C4_0_8131f4cadd" x="797.131047" y="363.681133" style="fill: none; stroke: #4682b4"/>
    </g>
   </g>
   <g id="PathCollection_10">
    <g clip-path="url(#p52d652c5c1)">
     <use xlink:href="#m54e72ba302" x="808.239682" y="365.81461" style="fill: #4682b4; fill-opacity: 0.6; stroke: #4682b4; stroke-opacity: 0.6"/>
     <use xlink:href="#m54e72ba302" x="810.622607" y="356.85401" style="fill: #4682b4; fill-opacity: 0.6; stroke: #4682b4; stroke-opacity: 0.6"/>
     <use xlink:href="#m54e72ba302" x="784.655734" y="354.293839" style="fill: #4682b4; fill-opacity: 0.6; stroke: #4682b4; stroke-opacity: 0.6"/>
     <use xlink:href="#m54e72ba302" x="773.687271" y="356.85401" style="fill: #4682b4; fill-opacity: 0.6; stroke: #4682b4; stroke-opacity: 0.6"/>
     <use xlink:href="#m54e72ba302" x="775.894981" y="363.681133" style="fill: #4682b4; fill-opacity: 0.6; stroke: #4682b4; stroke-opacity: 0.6"/>
    </g>
   </g>
   <g id="PathCollection_11">
    <defs>
     <path id="C5_0_70817d6917" d="M 0 4.472136 
C 1.186024 4.472136 2.323632 4.000923 3.162278 3.162278 
C 4.000923 2.323632 4.472136 1.186024 4.472136 -0 
C 4.472136 -1.186024 4.000923 -2.323632 3.162278 -3.162278 
C 2.323632 -4.000923 1.186024 -4.472136 0 -4.472136 
C -1.186024 -4.472136 -2.323632 -4.000923 -3.162278 -3.162278 
C -4.000923 -2.323632 -4.472136 -1.186024 -4.472136 0 
C -4.472136 1.186024 -4.000923 2.323632 -3.162278 3.162278 
C -2.323632 4.000923 -1.186024 4.472136 0 4.472136 
z
"/>
    </defs>
    <g clip-path="url(#p52d652c5c1)">
     <use xlink:href="#C5_0_70817d6917" x="798.007122" y="366.668" style="fill: none; stroke: #800080"/>
    </g>
    <g clip-path="url(#p52d652c5c1)">
     <use xlink:href="#C5_0_70817d6917" x="787.038659" y="360.694267" style="fill: none; stroke: #800080"/>
    </g>
    <g clip-path="url(#p52d652c5c1)">
     <use xlink:href="#C5_0_70817d6917" x="775.124035" y="361.547657" style="fill: none; stroke: #800080"/>
    </g>
    <g clip-path="url(#p52d652c5c1)">
     <use xlink:href="#C5_0_70817d6917" x="770.358185" y="364.961219" style="fill: none; stroke: #800080"/>
    </g>
    <g clip-path="url(#p52d652c5c1)">
     <use xlink:href="#C5_0_70817d6917" x="859.893085" y="350.453582" style="fill: none; stroke: #800080"/>
    </g>
    <g clip-path="url(#p52d652c5c1)">
     <use xlink:href="#C5_0_70817d6917" x="770.918873" y="351.733667" style="fill: none; stroke: #800080"/>
    </g>
    <g clip-path="url(#p52d652c5c1)">
     <use xlink:href="#C5_0_70817d6917" x="770.463314" y="365.387914" style="fill: none; stroke: #800080"/>
    </g>
    <g clip-path="url(#p52d652c5c1)">
     <use xlink:href="#C5_0_70817d6917" x="788.510466" y="364.534524" style="fill: none; stroke: #800080"/>
    </g>
    <g clip-path="url(#p52d652c5c1)">
     <use xlink:href="#C5_0_70817d6917" x="775.544551" y="363.681133" style="fill: none; stroke: #800080"/>
    </g>
    <g clip-path="url(#p52d652c5c1)">
     <use xlink:href="#C5_0_70817d6917" x="766.713711" y="361.974353" style="fill: none; stroke: #800080"/>
    </g>
   </g>
   <g id="PathCollection_12">
    <g clip-path="url(#p52d652c5c1)">
     <use xlink:href="#mc287e96e42" x="993.862526" y="363.681133" style="fill: #800080; fill-opacity: 0.6; stroke: #800080; stroke-opacity: 0.6"/>
     <use xlink:href="#mc287e96e42" x="775.474465" y="366.241305" style="fill: #800080; fill-opacity: 0.6; stroke: #800080; stroke-opacity: 0.6"/>
     <use xlink:href="#mc287e96e42" x="956.92719" y="348.320105" style="fill: #800080; fill-opacity: 0.6; stroke: #800080; stroke-opacity: 0.6"/>
     <use xlink:href="#mc287e96e42" x="793.591703" y="364.107829" style="fill: #800080; fill-opacity: 0.6; stroke: #800080; stroke-opacity: 0.6"/>
     <use xlink:href="#mc287e96e42" x="789.386541" y="362.827743" style="fill: #800080; fill-opacity: 0.6; stroke: #800080; stroke-opacity: 0.6"/>
     <use xlink:href="#mc287e96e42" x="816.895307" y="360.694267" style="fill: #800080; fill-opacity: 0.6; stroke: #800080; stroke-opacity: 0.6"/>
     <use xlink:href="#mc287e96e42" x="944.031361" y="363.254438" style="fill: #800080; fill-opacity: 0.6; stroke: #800080; stroke-opacity: 0.6"/>
     <use xlink:href="#mc287e96e42" x="786.968573" y="364.961219" style="fill: #800080; fill-opacity: 0.6; stroke: #800080; stroke-opacity: 0.6"/>
     <use xlink:href="#mc287e96e42" x="840.724556" y="365.81461" style="fill: #800080; fill-opacity: 0.6; stroke: #800080; stroke-opacity: 0.6"/>
     <use xlink:href="#mc287e96e42" x="810.65765" y="362.401048" style="fill: #800080; fill-opacity: 0.6; stroke: #800080; stroke-opacity: 0.6"/>
    </g>
   </g>
   <g id="line2d_43">
    <path d="M 762.753851 363.793381 
L 763.237373 363.697848 
L 763.720896 363.603461 
L 764.204419 363.510219 
L 764.687942 363.418123 
L 765.171465 363.327173 
L 765.654987 363.237368 
L 766.13851 363.148709 
L 766.622033 363.061196 
L 767.105556 362.974828 
L 767.589079 362.889605 
L 768.072601 362.805528 
L 768.556124 362.722597 
L 769.039647 362.640811 
L 769.52317 362.560171 
L 770.006693 362.480677 
L 770.490215 362.402328 
L 770.973738 362.325125 
L 771.457261 362.249067 
L 771.940784 362.174155 
L 772.424307 362.100388 
L 772.907829 362.027767 
L 773.391352 361.956292 
L 773.874875 361.885962 
L 774.358398 361.816778 
L 774.841921 361.748739 
L 775.325443 361.681846 
L 775.808966 361.616098 
L 776.292489 361.551496 
L 776.776012 361.48804 
L 777.259535 361.425729 
L 777.743057 361.364564 
L 778.22658 361.304544 
L 778.710103 361.24567 
L 779.193626 361.187942 
L 779.677149 361.131359 
L 780.160671 361.075922 
L 780.644194 361.02163 
L 781.127717 360.968484 
L 781.61124 360.916483 
L 782.094762 360.865628 
L 782.578285 360.815919 
L 783.061808 360.767355 
L 783.545331 360.719937 
L 784.028854 360.673664 
L 784.512376 360.628537 
L 784.995899 360.584556 
L 785.479422 360.54172 
L 785.962945 360.50003 
L 786.446468 360.459485 
L 786.92999 360.420086 
L 787.413513 360.381832 
L 787.897036 360.344724 
L 788.380559 360.308762 
L 788.864082 360.273945 
L 789.347604 360.240274 
L 789.831127 360.207748 
L 790.31465 360.176368 
L 790.798173 360.146134 
L 791.281696 360.117045 
L 791.765218 360.089102 
L 792.248741 360.062304 
L 792.732264 360.036652 
L 793.215787 360.012145 
L 793.69931 359.988784 
L 794.182832 359.966569 
L 794.666355 359.945499 
L 795.149878 359.925575 
L 795.633401 359.906796 
L 796.116924 359.889163 
L 796.600446 359.872676 
L 797.083969 359.857334 
L 797.567492 359.843137 
L 798.051015 359.830087 
L 798.534538 359.818182 
L 799.01806 359.807422 
L 799.501583 359.797808 
L 799.985106 359.78934 
L 800.468629 359.782017 
L 800.952151 359.775839 
L 801.435674 359.770808 
L 801.919197 359.766922 
L 802.40272 359.764181 
L 802.886243 359.762586 
L 803.369765 359.762137 
L 803.853288 359.762833 
L 804.336811 359.764675 
L 804.820334 359.767663 
L 805.303857 359.771795 
L 805.787379 359.777074 
L 806.270902 359.783498 
L 806.754425 359.791068 
L 807.237948 359.799783 
L 807.721471 359.809644 
L 808.204993 359.820651 
L 808.688516 359.832803 
L 809.172039 359.8461 
L 809.655562 359.860544 
L 810.139085 359.876132 
L 810.622607 359.892867 
" clip-path="url(#p52d652c5c1)" style="fill: none; stroke-dasharray: 8.325,3.6; stroke-dashoffset: 0; stroke: #4682b4; stroke-width: 2.25"/>
   </g>
   <g id="line2d_44">
    <path d="M 766.713711 363.882077 
L 769.008144 363.711777 
L 771.302576 363.543993 
L 773.597009 363.378723 
L 775.891441 363.215967 
L 778.185874 363.055726 
L 780.480306 362.898 
L 782.774739 362.742789 
L 785.069171 362.590092 
L 787.363603 362.43991 
L 789.658036 362.292243 
L 791.952468 362.14709 
L 794.246901 362.004452 
L 796.541333 361.864328 
L 798.835766 361.726719 
L 801.130198 361.591625 
L 803.424631 361.459046 
L 805.719063 361.328981 
L 808.013496 361.201431 
L 810.307928 361.076395 
L 812.602361 360.953874 
L 814.896793 360.833868 
L 817.191226 360.716376 
L 819.485658 360.601399 
L 821.780091 360.488937 
L 824.074523 360.37899 
L 826.368956 360.271557 
L 828.663388 360.166638 
L 830.95782 360.064235 
L 833.252253 359.964346 
L 835.546685 359.866972 
L 837.841118 359.772112 
L 840.13555 359.679767 
L 842.429983 359.589937 
L 844.724415 359.502621 
L 847.018848 359.41782 
L 849.31328 359.335533 
L 851.607713 359.255762 
L 853.902145 359.178505 
L 856.196578 359.103762 
L 858.49101 359.031535 
L 860.785443 358.961821 
L 863.079875 358.894623 
L 865.374308 358.829939 
L 867.66874 358.76777 
L 869.963173 358.708116 
L 872.257605 358.650976 
L 874.552037 358.596351 
L 876.84647 358.54424 
L 879.140902 358.494645 
L 881.435335 358.447563 
L 883.729767 358.402997 
L 886.0242 358.360945 
L 888.318632 358.321408 
L 890.613065 358.284385 
L 892.907497 358.249877 
L 895.20193 358.217884 
L 897.496362 358.188406 
L 899.790795 358.161442 
L 902.085227 358.136993 
L 904.37966 358.115058 
L 906.674092 358.095638 
L 908.968525 358.078733 
L 911.262957 358.064342 
L 913.557389 358.052466 
L 915.851822 358.043105 
L 918.146254 358.036258 
L 920.440687 358.031926 
L 922.735119 358.030109 
L 925.029552 358.030806 
L 927.323984 358.034018 
L 929.618417 358.039745 
L 931.912849 358.047986 
L 934.207282 358.058742 
L 936.501714 358.072013 
L 938.796147 358.087798 
L 941.090579 358.106098 
L 943.385012 358.126913 
L 945.679444 358.150242 
L 947.973877 358.176086 
L 950.268309 358.204444 
L 952.562742 358.235318 
L 954.857174 358.268705 
L 957.151606 358.304608 
L 959.446039 358.343025 
L 961.740471 358.383957 
L 964.034904 358.427404 
L 966.329336 358.473365 
L 968.623769 358.521841 
L 970.918201 358.572831 
L 973.212634 358.626336 
L 975.507066 358.682356 
L 977.801499 358.74089 
L 980.095931 358.801939 
L 982.390364 358.865503 
L 984.684796 358.931582 
L 986.979229 359.000175 
L 989.273661 359.071283 
L 991.568094 359.144905 
L 993.862526 359.221042 
" clip-path="url(#p52d652c5c1)" style="fill: none; stroke-dasharray: 8.325,3.6; stroke-dashoffset: 0; stroke: #800080; stroke-width: 2.25"/>
   </g>
   <g id="line2d_45">
    <path d="M 762.753851 363.515663 
L 765.088282 363.338171 
L 767.422713 363.163462 
L 769.757144 362.991534 
L 772.091575 362.822387 
L 774.426006 362.656023 
L 776.760437 362.49244 
L 779.094868 362.331639 
L 781.429299 362.173619 
L 783.76373 362.018381 
L 786.098161 361.865925 
L 788.432592 361.716251 
L 790.767023 361.569358 
L 793.101455 361.425248 
L 795.435886 361.283918 
L 797.770317 361.145371 
L 800.104748 361.009605 
L 802.439179 360.876621 
L 804.77361 360.746419 
L 807.108041 360.618998 
L 809.442472 360.494359 
L 811.776903 360.372502 
L 814.111334 360.253427 
L 816.445765 360.137133 
L 818.780196 360.023621 
L 821.114627 359.91289 
L 823.449058 359.804942 
L 825.783489 359.699775 
L 828.11792 359.59739 
L 830.452352 359.497786 
L 832.786783 359.400964 
L 835.121214 359.306924 
L 837.455645 359.215666 
L 839.790076 359.127189 
L 842.124507 359.041494 
L 844.458938 358.958581 
L 846.793369 358.87845 
L 849.1278 358.8011 
L 851.462231 358.726532 
L 853.796662 358.654746 
L 856.131093 358.585741 
L 858.465524 358.519518 
L 860.799955 358.456077 
L 863.134386 358.395417 
L 865.468818 358.337539 
L 867.803249 358.282443 
L 870.13768 358.230129 
L 872.472111 358.180596 
L 874.806542 358.133845 
L 877.140973 358.089876 
L 879.475404 358.048689 
L 881.809835 358.010283 
L 884.144266 357.974659 
L 886.478697 357.941816 
L 888.813128 357.911756 
L 891.147559 357.884477 
L 893.48199 357.85998 
L 895.816421 357.838264 
L 898.150852 357.81933 
L 900.485283 357.803178 
L 902.819715 357.789808 
L 905.154146 357.779219 
L 907.488577 357.771412 
L 909.823008 357.766387 
L 912.157439 357.764143 
L 914.49187 357.764682 
L 916.826301 357.768001 
L 919.160732 357.774103 
L 921.495163 357.782986 
L 923.829594 357.794651 
L 926.164025 357.809098 
L 928.498456 357.826327 
L 930.832887 357.846337 
L 933.167318 357.869129 
L 935.501749 357.894702 
L 937.83618 357.923058 
L 940.170612 357.954195 
L 942.505043 357.988113 
L 944.839474 358.024814 
L 947.173905 358.064296 
L 949.508336 358.10656 
L 951.842767 358.151605 
L 954.177198 358.199433 
L 956.511629 358.250042 
L 958.84606 358.303433 
L 961.180491 358.359605 
L 963.514922 358.418559 
L 965.849353 358.480295 
L 968.183784 358.544813 
L 970.518215 358.612112 
L 972.852646 358.682193 
L 975.187078 358.755056 
L 977.521509 358.8307 
L 979.85594 358.909126 
L 982.190371 358.990334 
L 984.524802 359.074324 
L 986.859233 359.161095 
L 989.193664 359.250648 
L 991.528095 359.342983 
L 993.862526 359.438099 
" clip-path="url(#p52d652c5c1)" style="fill: none; stroke: #000000; stroke-width: 2.25; stroke-linecap: round"/>
   </g>
   <g id="patch_13">
    <path d="M 748.211 366.668 
L 748.211 107.664 
" style="fill: none; stroke: #cccccc; stroke-linejoin: miter; stroke-linecap: square"/>
   </g>
   <g id="patch_14">
    <path d="M 1067.9785 366.668 
L 1067.9785 107.664 
" style="fill: none; stroke: #cccccc; stroke-width: 1.25; stroke-linejoin: miter; stroke-linecap: square"/>
   </g>
   <g id="patch_15">
    <path d="M 748.211 366.668 
L 1067.9785 366.668 
" style="fill: none; stroke: #cccccc; stroke-linejoin: miter; stroke-linecap: square"/>
   </g>
   <g id="patch_16">
    <path d="M 748.211 107.664 
L 1067.9785 107.664 
" style="fill: none; stroke: #cccccc; stroke-width: 1.25; stroke-linejoin: miter; stroke-linecap: square"/>
   </g>
   <g id="text_27">
    <text style="font-weight: 700; font-size: 20px; font-family: 'DejaVu Sans'; text-anchor: middle; fill: #262626" x="908.09475" y="101.664" transform="rotate(-0 908.09475 101.664)">Premature</text>
   </g>
  </g>
  <g id="axes_4">
   <g id="patch_17">
    <path d="M 1096.2205 366.668 
L 1415.988 366.668 
L 1415.988 107.664 
L 1096.2205 107.664 
z
" style="fill: #ffffff"/>
   </g>
   <g id="matplotlib.axis_7">
    <g id="xtick_19">
     <g id="line2d_46">
      <path d="M 1096.2205 366.668 
L 1096.2205 107.664 
" clip-path="url(#pd226f0f484)" style="fill: none; stroke-dasharray: 3.7,1.6; stroke-dashoffset: 0; stroke: #cccccc"/>
     </g>
     <g id="text_28">
      <text style="font-size: 13.2px; font-family: 'DejaVu Sans'; text-anchor: middle; fill: #262626" x="1096.2205" y="387.197938" transform="rotate(-0 1096.2205 387.197938)">0</text>
     </g>
    </g>
    <g id="xtick_20">
     <g id="line2d_47">
      <path d="M 1160.174 366.668 
L 1160.174 107.664 
" clip-path="url(#pd226f0f484)" style="fill: none; stroke-dasharray: 3.7,1.6; stroke-dashoffset: 0; stroke: #cccccc"/>
     </g>
     <g id="text_29">
      <text style="font-size: 13.2px; font-family: 'DejaVu Sans'; text-anchor: middle; fill: #262626" x="1160.174" y="387.197938" transform="rotate(-0 1160.174 387.197938)">5</text>
     </g>
    </g>
    <g id="xtick_21">
     <g id="line2d_48">
      <path d="M 1224.1275 366.668 
L 1224.1275 107.664 
" clip-path="url(#pd226f0f484)" style="fill: none; stroke-dasharray: 3.7,1.6; stroke-dashoffset: 0; stroke: #cccccc"/>
     </g>
     <g id="text_30">
      <text style="font-size: 13.2px; font-family: 'DejaVu Sans'; text-anchor: middle; fill: #262626" x="1224.1275" y="387.197938" transform="rotate(-0 1224.1275 387.197938)">10</text>
     </g>
    </g>
    <g id="xtick_22">
     <g id="line2d_49">
      <path d="M 1288.081 366.668 
L 1288.081 107.664 
" clip-path="url(#pd226f0f484)" style="fill: none; stroke-dasharray: 3.7,1.6; stroke-dashoffset: 0; stroke: #cccccc"/>
     </g>
     <g id="text_31">
      <text style="font-size: 13.2px; font-family: 'DejaVu Sans'; text-anchor: middle; fill: #262626" x="1288.081" y="387.197938" transform="rotate(-0 1288.081 387.197938)">15</text>
     </g>
    </g>
    <g id="xtick_23">
     <g id="line2d_50">
      <path d="M 1352.0345 366.668 
L 1352.0345 107.664 
" clip-path="url(#pd226f0f484)" style="fill: none; stroke-dasharray: 3.7,1.6; stroke-dashoffset: 0; stroke: #cccccc"/>
     </g>
     <g id="text_32">
      <text style="font-size: 13.2px; font-family: 'DejaVu Sans'; text-anchor: middle; fill: #262626" x="1352.0345" y="387.197938" transform="rotate(-0 1352.0345 387.197938)">20</text>
     </g>
    </g>
    <g id="xtick_24">
     <g id="line2d_51">
      <path d="M 1415.988 366.668 
L 1415.988 107.664 
" clip-path="url(#pd226f0f484)" style="fill: none; stroke-dasharray: 3.7,1.6; stroke-dashoffset: 0; stroke: #cccccc"/>
     </g>
     <g id="text_33">
      <text style="font-size: 13.2px; font-family: 'DejaVu Sans'; text-anchor: middle; fill: #262626" x="1415.988" y="387.197938" transform="rotate(-0 1415.988 387.197938)">25</text>
     </g>
    </g>
    <g id="text_34">
     <text style="font-size: 14px; font-family: 'DejaVu Sans'; text-anchor: middle; fill: #262626" x="1256.10425" y="404.580938" transform="rotate(-0 1256.10425 404.580938)">Age</text>
    </g>
   </g>
   <g id="matplotlib.axis_8">
    <g id="ytick_19">
     <g id="line2d_52">
      <path d="M 1096.2205 366.668 
L 1415.988 366.668 
" clip-path="url(#pd226f0f484)" style="fill: none; stroke-dasharray: 3.7,1.6; stroke-dashoffset: 0; stroke: #cccccc"/>
     </g>
    </g>
    <g id="ytick_20">
     <g id="line2d_53">
      <path d="M 1096.2205 314.8672 
L 1415.988 314.8672 
" clip-path="url(#pd226f0f484)" style="fill: none; stroke-dasharray: 3.7,1.6; stroke-dashoffset: 0; stroke: #cccccc"/>
     </g>
    </g>
    <g id="ytick_21">
     <g id="line2d_54">
      <path d="M 1096.2205 263.0664 
L 1415.988 263.0664 
" clip-path="url(#pd226f0f484)" style="fill: none; stroke-dasharray: 3.7,1.6; stroke-dashoffset: 0; stroke: #cccccc"/>
     </g>
    </g>
    <g id="ytick_22">
     <g id="line2d_55">
      <path d="M 1096.2205 211.2656 
L 1415.988 211.2656 
" clip-path="url(#pd226f0f484)" style="fill: none; stroke-dasharray: 3.7,1.6; stroke-dashoffset: 0; stroke: #cccccc"/>
     </g>
    </g>
    <g id="ytick_23">
     <g id="line2d_56">
      <path d="M 1096.2205 159.4648 
L 1415.988 159.4648 
" clip-path="url(#pd226f0f484)" style="fill: none; stroke-dasharray: 3.7,1.6; stroke-dashoffset: 0; stroke: #cccccc"/>
     </g>
    </g>
    <g id="ytick_24">
     <g id="line2d_57">
      <path d="M 1096.2205 107.664 
L 1415.988 107.664 
" clip-path="url(#pd226f0f484)" style="fill: none; stroke-dasharray: 3.7,1.6; stroke-dashoffset: 0; stroke: #cccccc"/>
     </g>
    </g>
   </g>
   <g id="PathCollection_13">
    <defs>
     <path id="C6_0_7575ea08ea" d="M 0 4.472136 
C 1.186024 4.472136 2.323632 4.000923 3.162278 3.162278 
C 4.000923 2.323632 4.472136 1.186024 4.472136 -0 
C 4.472136 -1.186024 4.000923 -2.323632 3.162278 -3.162278 
C 2.323632 -4.000923 1.186024 -4.472136 0 -4.472136 
C -1.186024 -4.472136 -2.323632 -4.000923 -3.162278 -3.162278 
C -4.000923 -2.323632 -4.472136 -1.186024 -4.472136 0 
C -4.472136 1.186024 -4.000923 2.323632 -3.162278 3.162278 
C -2.323632 4.000923 -1.186024 4.472136 0 4.472136 
z
"/>
    </defs>
    <g clip-path="url(#pd226f0f484)">
     <use xlink:href="#C6_0_7575ea08ea" x="1146.997827" y="364.107829" style="fill: none; stroke: #4682b4"/>
    </g>
    <g clip-path="url(#pd226f0f484)">
     <use xlink:href="#C6_0_7575ea08ea" x="1117.281351" y="363.681133" style="fill: none; stroke: #4682b4"/>
    </g>
    <g clip-path="url(#pd226f0f484)">
     <use xlink:href="#C6_0_7575ea08ea" x="1123.273707" y="365.81461" style="fill: none; stroke: #4682b4"/>
    </g>
    <g clip-path="url(#pd226f0f484)">
     <use xlink:href="#C6_0_7575ea08ea" x="1134.978073" y="364.107829" style="fill: none; stroke: #4682b4"/>
    </g>
    <g clip-path="url(#pd226f0f484)">
     <use xlink:href="#C6_0_7575ea08ea" x="1110.763351" y="332.105687" style="fill: none; stroke: #4682b4"/>
    </g>
    <g clip-path="url(#pd226f0f484)">
     <use xlink:href="#C6_0_7575ea08ea" x="1138.622547" y="364.961219" style="fill: none; stroke: #4682b4"/>
    </g>
    <g clip-path="url(#pd226f0f484)">
     <use xlink:href="#C6_0_7575ea08ea" x="1145.140547" y="363.681133" style="fill: none; stroke: #4682b4"/>
    </g>
   </g>
   <g id="PathCollection_14">
    <g clip-path="url(#pd226f0f484)">
     <use xlink:href="#m54e72ba302" x="1156.249182" y="363.254438" style="fill: #4682b4; fill-opacity: 0.6; stroke: #4682b4; stroke-opacity: 0.6"/>
     <use xlink:href="#m54e72ba302" x="1158.632107" y="364.961219" style="fill: #4682b4; fill-opacity: 0.6; stroke: #4682b4; stroke-opacity: 0.6"/>
     <use xlink:href="#m54e72ba302" x="1132.665234" y="365.81461" style="fill: #4682b4; fill-opacity: 0.6; stroke: #4682b4; stroke-opacity: 0.6"/>
     <use xlink:href="#m54e72ba302" x="1121.696771" y="364.534524" style="fill: #4682b4; fill-opacity: 0.6; stroke: #4682b4; stroke-opacity: 0.6"/>
     <use xlink:href="#m54e72ba302" x="1123.904481" y="364.534524" style="fill: #4682b4; fill-opacity: 0.6; stroke: #4682b4; stroke-opacity: 0.6"/>
    </g>
   </g>
   <g id="PathCollection_15">
    <defs>
     <path id="C7_0_bcacccc551" d="M 0 4.472136 
C 1.186024 4.472136 2.323632 4.000923 3.162278 3.162278 
C 4.000923 2.323632 4.472136 1.186024 4.472136 -0 
C 4.472136 -1.186024 4.000923 -2.323632 3.162278 -3.162278 
C 2.323632 -4.000923 1.186024 -4.472136 0 -4.472136 
C -1.186024 -4.472136 -2.323632 -4.000923 -3.162278 -3.162278 
C -4.000923 -2.323632 -4.472136 -1.186024 -4.472136 0 
C -4.472136 1.186024 -4.000923 2.323632 -3.162278 3.162278 
C -2.323632 4.000923 -1.186024 4.472136 0 4.472136 
z
"/>
    </defs>
    <g clip-path="url(#pd226f0f484)">
     <use xlink:href="#C7_0_bcacccc551" x="1146.016622" y="364.961219" style="fill: none; stroke: #800080"/>
    </g>
    <g clip-path="url(#pd226f0f484)">
     <use xlink:href="#C7_0_bcacccc551" x="1135.048159" y="363.681133" style="fill: none; stroke: #800080"/>
    </g>
    <g clip-path="url(#pd226f0f484)">
     <use xlink:href="#C7_0_bcacccc551" x="1123.133535" y="363.681133" style="fill: none; stroke: #800080"/>
    </g>
    <g clip-path="url(#pd226f0f484)">
     <use xlink:href="#C7_0_bcacccc551" x="1118.367685" y="362.401048" style="fill: none; stroke: #800080"/>
    </g>
    <g clip-path="url(#pd226f0f484)">
     <use xlink:href="#C7_0_bcacccc551" x="1207.902585" y="365.81461" style="fill: none; stroke: #800080"/>
    </g>
    <g clip-path="url(#pd226f0f484)">
     <use xlink:href="#C7_0_bcacccc551" x="1118.928373" y="364.534524" style="fill: none; stroke: #800080"/>
    </g>
    <g clip-path="url(#pd226f0f484)">
     <use xlink:href="#C7_0_bcacccc551" x="1118.472814" y="361.974353" style="fill: none; stroke: #800080"/>
    </g>
    <g clip-path="url(#pd226f0f484)">
     <use xlink:href="#C7_0_bcacccc551" x="1136.519966" y="363.681133" style="fill: none; stroke: #800080"/>
    </g>
    <g clip-path="url(#pd226f0f484)">
     <use xlink:href="#C7_0_bcacccc551" x="1123.554051" y="361.120962" style="fill: none; stroke: #800080"/>
    </g>
    <g clip-path="url(#pd226f0f484)">
     <use xlink:href="#C7_0_bcacccc551" x="1114.723211" y="359.414181" style="fill: none; stroke: #800080"/>
    </g>
   </g>
   <g id="PathCollection_16">
    <g clip-path="url(#pd226f0f484)">
     <use xlink:href="#mc287e96e42" x="1341.872026" y="356.85401" style="fill: #800080; fill-opacity: 0.6; stroke: #800080; stroke-opacity: 0.6"/>
     <use xlink:href="#mc287e96e42" x="1123.483965" y="362.827743" style="fill: #800080; fill-opacity: 0.6; stroke: #800080; stroke-opacity: 0.6"/>
     <use xlink:href="#mc287e96e42" x="1304.93669" y="365.81461" style="fill: #800080; fill-opacity: 0.6; stroke: #800080; stroke-opacity: 0.6"/>
     <use xlink:href="#mc287e96e42" x="1141.601203" y="337.652725" style="fill: #800080; fill-opacity: 0.6; stroke: #800080; stroke-opacity: 0.6"/>
     <use xlink:href="#mc287e96e42" x="1137.396041" y="365.81461" style="fill: #800080; fill-opacity: 0.6; stroke: #800080; stroke-opacity: 0.6"/>
     <use xlink:href="#mc287e96e42" x="1164.904807" y="355.573924" style="fill: #800080; fill-opacity: 0.6; stroke: #800080; stroke-opacity: 0.6"/>
     <use xlink:href="#mc287e96e42" x="1292.040861" y="365.81461" style="fill: #800080; fill-opacity: 0.6; stroke: #800080; stroke-opacity: 0.6"/>
     <use xlink:href="#mc287e96e42" x="1134.978073" y="366.241305" style="fill: #800080; fill-opacity: 0.6; stroke: #800080; stroke-opacity: 0.6"/>
     <use xlink:href="#mc287e96e42" x="1188.734056" y="358.987486" style="fill: #800080; fill-opacity: 0.6; stroke: #800080; stroke-opacity: 0.6"/>
     <use xlink:href="#mc287e96e42" x="1158.66715" y="358.987486" style="fill: #800080; fill-opacity: 0.6; stroke: #800080; stroke-opacity: 0.6"/>
    </g>
   </g>
   <g id="line2d_58">
    <path d="M 1110.763351 344.564374 
L 1111.246873 345.344277 
L 1111.730396 346.111447 
L 1112.213919 346.865882 
L 1112.697442 347.607585 
L 1113.180965 348.336553 
L 1113.664487 349.052787 
L 1114.14801 349.756288 
L 1114.631533 350.447055 
L 1115.115056 351.125089 
L 1115.598579 351.790388 
L 1116.082101 352.442954 
L 1116.565624 353.082786 
L 1117.049147 353.709884 
L 1117.53267 354.324249 
L 1118.016193 354.92588 
L 1118.499715 355.514777 
L 1118.983238 356.09094 
L 1119.466761 356.65437 
L 1119.950284 357.205065 
L 1120.433807 357.743027 
L 1120.917329 358.268256 
L 1121.400852 358.78075 
L 1121.884375 359.280511 
L 1122.367898 359.767538 
L 1122.851421 360.241831 
L 1123.334943 360.703391 
L 1123.818466 361.152217 
L 1124.301989 361.588309 
L 1124.785512 362.011667 
L 1125.269035 362.422291 
L 1125.752557 362.820182 
L 1126.23608 363.205339 
L 1126.719603 363.577762 
L 1127.203126 363.937452 
L 1127.686649 364.284408 
L 1128.170171 364.61863 
L 1128.653694 364.940118 
L 1129.137217 365.248872 
L 1129.62074 365.544893 
L 1130.104262 365.82818 
L 1130.587785 366.098733 
L 1131.071308 366.356553 
L 1131.554831 366.601639 
L 1132.038354 366.833991 
L 1132.521876 367.053609 
L 1133.005399 367.260493 
L 1133.488922 367.454644 
L 1133.972445 367.636061 
L 1134.455968 367.804744 
L 1134.93949 367.960694 
L 1135.423013 368.103909 
L 1135.906536 368.234391 
L 1136.390059 368.35214 
L 1136.873582 368.457154 
L 1137.357104 368.549435 
L 1137.840627 368.628982 
L 1138.32415 368.695795 
L 1138.807673 368.749874 
L 1139.291196 368.79122 
L 1139.774718 368.819832 
L 1140.258241 368.83571 
L 1140.741764 368.838855 
L 1141.225287 368.829265 
L 1141.70881 368.806942 
L 1142.192332 368.771885 
L 1142.675855 368.724095 
L 1143.159378 368.663571 
L 1143.642901 368.590313 
L 1144.126424 368.504321 
L 1144.609946 368.405595 
L 1145.093469 368.294136 
L 1145.576992 368.169943 
L 1146.060515 368.033016 
L 1146.544038 367.883355 
L 1147.02756 367.720961 
L 1147.511083 367.545833 
L 1147.994606 367.357971 
L 1148.478129 367.157375 
L 1148.961651 366.944046 
L 1149.445174 366.717983 
L 1149.928697 366.479186 
L 1150.41222 366.227656 
L 1150.895743 365.963391 
L 1151.379265 365.686393 
L 1151.862788 365.396661 
L 1152.346311 365.094196 
L 1152.829834 364.778996 
L 1153.313357 364.451063 
L 1153.796879 364.110396 
L 1154.280402 363.756996 
L 1154.763925 363.390861 
L 1155.247448 363.011993 
L 1155.730971 362.620391 
L 1156.214493 362.216056 
L 1156.698016 361.798986 
L 1157.181539 361.369183 
L 1157.665062 360.926646 
L 1158.148585 360.471376 
L 1158.632107 360.003371 
" clip-path="url(#pd226f0f484)" style="fill: none; stroke-dasharray: 8.325,3.6; stroke-dashoffset: 0; stroke: #4682b4; stroke-width: 2.25"/>
   </g>
   <g id="line2d_59">
    <path d="M 1114.723211 361.152973 
L 1117.017644 361.153423 
L 1119.312076 361.154067 
L 1121.606509 361.154905 
L 1123.900941 361.155938 
L 1126.195374 361.157165 
L 1128.489806 361.158586 
L 1130.784239 361.160202 
L 1133.078671 361.162012 
L 1135.373103 361.164016 
L 1137.667536 361.166215 
L 1139.961968 361.168608 
L 1142.256401 361.171195 
L 1144.550833 361.173977 
L 1146.845266 361.176953 
L 1149.139698 361.180124 
L 1151.434131 361.183489 
L 1153.728563 361.187048 
L 1156.022996 361.190802 
L 1158.317428 361.19475 
L 1160.611861 361.198892 
L 1162.906293 361.203229 
L 1165.200726 361.20776 
L 1167.495158 361.212485 
L 1169.789591 361.217405 
L 1172.084023 361.222519 
L 1174.378456 361.227827 
L 1176.672888 361.23333 
L 1178.96732 361.239027 
L 1181.261753 361.244919 
L 1183.556185 361.251005 
L 1185.850618 361.257285 
L 1188.14505 361.26376 
L 1190.439483 361.270429 
L 1192.733915 361.277292 
L 1195.028348 361.28435 
L 1197.32278 361.291602 
L 1199.617213 361.299048 
L 1201.911645 361.306689 
L 1204.206078 361.314524 
L 1206.50051 361.322554 
L 1208.794943 361.330777 
L 1211.089375 361.339196 
L 1213.383808 361.347808 
L 1215.67824 361.356615 
L 1217.972673 361.365616 
L 1220.267105 361.374812 
L 1222.561537 361.384202 
L 1224.85597 361.393786 
L 1227.150402 361.403565 
L 1229.444835 361.413538 
L 1231.739267 361.423705 
L 1234.0337 361.434067 
L 1236.328132 361.444623 
L 1238.622565 361.455374 
L 1240.916997 361.466319 
L 1243.21143 361.477458 
L 1245.505862 361.488791 
L 1247.800295 361.500319 
L 1250.094727 361.512041 
L 1252.38916 361.523958 
L 1254.683592 361.536069 
L 1256.978025 361.548374 
L 1259.272457 361.560874 
L 1261.566889 361.573568 
L 1263.861322 361.586456 
L 1266.155754 361.599539 
L 1268.450187 361.612816 
L 1270.744619 361.626288 
L 1273.039052 361.639954 
L 1275.333484 361.653814 
L 1277.627917 361.667868 
L 1279.922349 361.682117 
L 1282.216782 361.696561 
L 1284.511214 361.711198 
L 1286.805647 361.72603 
L 1289.100079 361.741057 
L 1291.394512 361.756277 
L 1293.688944 361.771692 
L 1295.983377 361.787302 
L 1298.277809 361.803105 
L 1300.572242 361.819104 
L 1302.866674 361.835296 
L 1305.161106 361.851683 
L 1307.455539 361.868264 
L 1309.749971 361.88504 
L 1312.044404 361.90201 
L 1314.338836 361.919174 
L 1316.633269 361.936532 
L 1318.927701 361.954085 
L 1321.222134 361.971833 
L 1323.516566 361.989774 
L 1325.810999 362.00791 
L 1328.105431 362.026241 
L 1330.399864 362.044766 
L 1332.694296 362.063485 
L 1334.988729 362.082398 
L 1337.283161 362.101506 
L 1339.577594 362.120808 
L 1341.872026 362.140305 
" clip-path="url(#pd226f0f484)" style="fill: none; stroke-dasharray: 8.325,3.6; stroke-dashoffset: 0; stroke: #800080; stroke-width: 2.25"/>
   </g>
   <g id="line2d_60">
    <path d="M 1110.763351 359.362076 
L 1113.097782 359.579033 
L 1115.432213 359.791658 
L 1117.766644 359.99995 
L 1120.101075 360.20391 
L 1122.435506 360.403538 
L 1124.769937 360.598833 
L 1127.104368 360.789797 
L 1129.438799 360.976427 
L 1131.77323 361.158726 
L 1134.107661 361.336692 
L 1136.442092 361.510326 
L 1138.776523 361.679628 
L 1141.110955 361.844597 
L 1143.445386 362.005234 
L 1145.779817 362.161539 
L 1148.114248 362.313511 
L 1150.448679 362.461151 
L 1152.78311 362.604459 
L 1155.117541 362.743434 
L 1157.451972 362.878077 
L 1159.786403 363.008388 
L 1162.120834 363.134367 
L 1164.455265 363.256013 
L 1166.789696 363.373327 
L 1169.124127 363.486308 
L 1171.458558 363.594958 
L 1173.792989 363.699274 
L 1176.12742 363.799259 
L 1178.461852 363.894911 
L 1180.796283 363.986231 
L 1183.130714 364.073219 
L 1185.465145 364.155874 
L 1187.799576 364.234197 
L 1190.134007 364.308188 
L 1192.468438 364.377847 
L 1194.802869 364.443173 
L 1197.1373 364.504167 
L 1199.471731 364.560828 
L 1201.806162 364.613157 
L 1204.140593 364.661154 
L 1206.475024 364.704819 
L 1208.809455 364.744151 
L 1211.143886 364.779151 
L 1213.478318 364.809818 
L 1215.812749 364.836154 
L 1218.14718 364.858157 
L 1220.481611 364.875827 
L 1222.816042 364.889166 
L 1225.150473 364.898172 
L 1227.484904 364.902846 
L 1229.819335 364.903187 
L 1232.153766 364.899196 
L 1234.488197 364.890873 
L 1236.822628 364.878217 
L 1239.157059 364.86123 
L 1241.49149 364.839909 
L 1243.825921 364.814257 
L 1246.160352 364.784272 
L 1248.494783 364.749955 
L 1250.829215 364.711306 
L 1253.163646 364.668324 
L 1255.498077 364.62101 
L 1257.832508 364.569364 
L 1260.166939 364.513385 
L 1262.50137 364.453074 
L 1264.835801 364.388431 
L 1267.170232 364.319455 
L 1269.504663 364.246147 
L 1271.839094 364.168507 
L 1274.173525 364.086535 
L 1276.507956 364.00023 
L 1278.842387 363.909593 
L 1281.176818 363.814623 
L 1283.511249 363.715322 
L 1285.84568 363.611687 
L 1288.180112 363.503721 
L 1290.514543 363.391422 
L 1292.848974 363.274791 
L 1295.183405 363.153828 
L 1297.517836 363.028532 
L 1299.852267 362.898904 
L 1302.186698 362.764944 
L 1304.521129 362.626652 
L 1306.85556 362.484027 
L 1309.189991 362.33707 
L 1311.524422 362.18578 
L 1313.858853 362.030158 
L 1316.193284 361.870204 
L 1318.527715 361.705918 
L 1320.862146 361.537299 
L 1323.196578 361.364348 
L 1325.531009 361.187064 
L 1327.86544 361.005449 
L 1330.199871 360.819501 
L 1332.534302 360.62922 
L 1334.868733 360.434608 
L 1337.203164 360.235663 
L 1339.537595 360.032386 
L 1341.872026 359.824776 
" clip-path="url(#pd226f0f484)" style="fill: none; stroke: #000000; stroke-width: 2.25; stroke-linecap: round"/>
   </g>
   <g id="patch_18">
    <path d="M 1096.2205 366.668 
L 1096.2205 107.664 
" style="fill: none; stroke: #cccccc; stroke-linejoin: miter; stroke-linecap: square"/>
   </g>
   <g id="patch_19">
    <path d="M 1415.988 366.668 
L 1415.988 107.664 
" style="fill: none; stroke: #cccccc; stroke-width: 1.25; stroke-linejoin: miter; stroke-linecap: square"/>
   </g>
   <g id="patch_20">
    <path d="M 1096.2205 366.668 
L 1415.988 366.668 
" style="fill: none; stroke: #cccccc; stroke-linejoin: miter; stroke-linecap: square"/>
   </g>
   <g id="patch_21">
    <path d="M 1096.2205 107.664 
L 1415.988 107.664 
" style="fill: none; stroke: #cccccc; stroke-width: 1.25; stroke-linejoin: miter; stroke-linecap: square"/>
   </g>
   <g id="text_35">
    <text style="font-weight: 700; font-size: 20px; font-family: 'DejaVu Sans'; text-anchor: middle; fill: #262626" x="1256.10425" y="101.664" transform="rotate(-0 1256.10425 101.664)">Omissions</text>
   </g>
  </g>
  <g id="text_36">
   <text style="font-weight: 700; font-size: 25px; font-family: 'DejaVu Sans'; text-anchor: middle; fill: #800080" x="720" y="27.636094" transform="rotate(-0 720 27.636094)">Task Performance Across the Lifespan in Macaque Species</text>
  </g>
  <g id="legend_1">
   <g id="patch_22">
    <path d="M 334.956 468.6 
L 1105.044 468.6 
Q 1107.684 468.6 1107.684 465.96 
L 1107.684 447.904875 
Q 1107.684 445.264875 1105.044 445.264875 
L 334.956 445.264875 
Q 332.316 445.264875 332.316 447.904875 
L 332.316 465.96 
Q 332.316 468.6 334.956 468.6 
z
" style="fill: #ffffff; opacity: 0.8; stroke: #cccccc; stroke-linejoin: miter"/>
   </g>
   <g id="line2d_61">
    <defs>
     <path id="m1b88525a15" d="M 0 4 
C 1.060812 4 2.078319 3.578535 2.828427 2.828427 
C 3.578535 2.078319 4 1.060812 4 0 
C 4 -1.060812 3.578535 -2.078319 2.828427 -2.828427 
C 2.078319 -3.578535 1.060812 -4 0 -4 
C -1.060812 -4 -2.078319 -3.578535 -2.828427 -2.828427 
C -3.578535 -2.078319 -4 -1.060812 -4 0 
C -4 1.060812 -3.578535 2.078319 -2.828427 2.828427 
C -2.078319 3.578535 -1.060812 4 0 4 
z
" style="stroke: #4682b4"/>
    </defs>
    <g>
     <use xlink:href="#m1b88525a15" x="350.796" y="455.954813" style="fill: #4682b4; stroke: #4682b4"/>
    </g>
   </g>
   <g id="text_37">
    <!-- $\it{Macaca\ mulatta}$ (f) -->
    <g style="fill: #262626" transform="translate(374.556 460.574813)">
     <text>
      <tspan x="0" y="-0.125" style="font-style: oblique; font-size: 13.2px; font-family: 'DejaVu Sans'; fill: #262626">M</tspan>
      <tspan x="11.432007" y="-0.125" style="font-style: oblique; font-size: 13.2px; font-family: 'DejaVu Sans'; fill: #262626">a</tspan>
      <tspan x="19.551514" y="-0.125" style="font-style: oblique; font-size: 13.2px; font-family: 'DejaVu Sans'; fill: #262626">c</tspan>
      <tspan x="26.836426" y="-0.125" style="font-style: oblique; font-size: 13.2px; font-family: 'DejaVu Sans'; fill: #262626">a</tspan>
      <tspan x="34.955933" y="-0.125" style="font-style: oblique; font-size: 13.2px; font-family: 'DejaVu Sans'; fill: #262626">c</tspan>
      <tspan x="42.240845" y="-0.125" style="font-style: oblique; font-size: 13.2px; font-family: 'DejaVu Sans'; fill: #262626">a</tspan>
      <tspan x="54.662677" y="-0.125" style="font-style: oblique; font-size: 13.2px; font-family: 'DejaVu Sans'; fill: #262626">m</tspan>
      <tspan x="67.569781" y="-0.125" style="font-style: oblique; font-size: 13.2px; font-family: 'DejaVu Sans'; fill: #262626">u</tspan>
      <tspan x="75.967486" y="-0.125" style="font-style: oblique; font-size: 13.2px; font-family: 'DejaVu Sans'; fill: #262626">l</tspan>
      <tspan x="79.648761" y="-0.125" style="font-style: oblique; font-size: 13.2px; font-family: 'DejaVu Sans'; fill: #262626">a</tspan>
      <tspan x="87.768268" y="-0.125" style="font-style: oblique; font-size: 13.2px; font-family: 'DejaVu Sans'; fill: #262626">t</tspan>
      <tspan x="92.963458" y="-0.125" style="font-style: oblique; font-size: 13.2px; font-family: 'DejaVu Sans'; fill: #262626">t</tspan>
      <tspan x="98.158648" y="-0.125" style="font-style: oblique; font-size: 13.2px; font-family: 'DejaVu Sans'; fill: #262626">a</tspan>
      <tspan x="106.278155" y="-0.125" style="font-size: 13.2px; font-family: 'DejaVu Sans'; fill: #262626"> </tspan>
      <tspan x="110.489947" y="-0.125" style="font-size: 13.2px; font-family: 'DejaVu Sans'; fill: #262626">(</tspan>
      <tspan x="115.659259" y="-0.125" style="font-size: 13.2px; font-family: 'DejaVu Sans'; fill: #262626">f</tspan>
      <tspan x="120.323932" y="-0.125" style="font-size: 13.2px; font-family: 'DejaVu Sans'; fill: #262626">)</tspan>
     </text>
    </g>
   </g>
   <g id="line2d_62">
    <defs>
     <path id="m9440396a46" d="M 0 4 
C 1.060812 4 2.078319 3.578535 2.828427 2.828427 
C 3.578535 2.078319 4 1.060812 4 0 
C 4 -1.060812 3.578535 -2.078319 2.828427 -2.828427 
C 2.078319 -3.578535 1.060812 -4 0 -4 
C -1.060812 -4 -2.078319 -3.578535 -2.828427 -2.828427 
C -3.578535 -2.078319 -4 -1.060812 -4 0 
C -4 1.060812 -3.578535 2.078319 -2.828427 2.828427 
C -2.078319 3.578535 -1.060812 4 0 4 
z
" style="stroke: #4682b4"/>
    </defs>
    <g>
     <use xlink:href="#m9440396a46" x="539.292" y="455.954813" style="fill-opacity: 0; stroke: #4682b4"/>
    </g>
   </g>
   <g id="text_38">
    <!-- $\it{Macaca\ mulatta}$ (m) -->
    <g style="fill: #262626" transform="translate(563.052 460.574813)">
     <text>
      <tspan x="0" y="-0.125" style="font-style: oblique; font-size: 13.2px; font-family: 'DejaVu Sans'; fill: #262626">M</tspan>
      <tspan x="11.432007" y="-0.125" style="font-style: oblique; font-size: 13.2px; font-family: 'DejaVu Sans'; fill: #262626">a</tspan>
      <tspan x="19.551514" y="-0.125" style="font-style: oblique; font-size: 13.2px; font-family: 'DejaVu Sans'; fill: #262626">c</tspan>
      <tspan x="26.836426" y="-0.125" style="font-style: oblique; font-size: 13.2px; font-family: 'DejaVu Sans'; fill: #262626">a</tspan>
      <tspan x="34.955933" y="-0.125" style="font-style: oblique; font-size: 13.2px; font-family: 'DejaVu Sans'; fill: #262626">c</tspan>
      <tspan x="42.240845" y="-0.125" style="font-style: oblique; font-size: 13.2px; font-family: 'DejaVu Sans'; fill: #262626">a</tspan>
      <tspan x="54.662677" y="-0.125" style="font-style: oblique; font-size: 13.2px; font-family: 'DejaVu Sans'; fill: #262626">m</tspan>
      <tspan x="67.569781" y="-0.125" style="font-style: oblique; font-size: 13.2px; font-family: 'DejaVu Sans'; fill: #262626">u</tspan>
      <tspan x="75.967486" y="-0.125" style="font-style: oblique; font-size: 13.2px; font-family: 'DejaVu Sans'; fill: #262626">l</tspan>
      <tspan x="79.648761" y="-0.125" style="font-style: oblique; font-size: 13.2px; font-family: 'DejaVu Sans'; fill: #262626">a</tspan>
      <tspan x="87.768268" y="-0.125" style="font-style: oblique; font-size: 13.2px; font-family: 'DejaVu Sans'; fill: #262626">t</tspan>
      <tspan x="92.963458" y="-0.125" style="font-style: oblique; font-size: 13.2px; font-family: 'DejaVu Sans'; fill: #262626">t</tspan>
      <tspan x="98.158648" y="-0.125" style="font-style: oblique; font-size: 13.2px; font-family: 'DejaVu Sans'; fill: #262626">a</tspan>
      <tspan x="106.278155" y="-0.125" style="font-size: 13.2px; font-family: 'DejaVu Sans'; fill: #262626"> </tspan>
      <tspan x="110.489947" y="-0.125" style="font-size: 13.2px; font-family: 'DejaVu Sans'; fill: #262626">(</tspan>
      <tspan x="115.659259" y="-0.125" style="font-size: 13.2px; font-family: 'DejaVu Sans'; fill: #262626">m</tspan>
      <tspan x="128.566363" y="-0.125" style="font-size: 13.2px; font-family: 'DejaVu Sans'; fill: #262626">)</tspan>
     </text>
    </g>
   </g>
   <g id="line2d_63">
    <defs>
     <path id="m4db44ec290" d="M 0 4 
C 1.060812 4 2.078319 3.578535 2.828427 2.828427 
C 3.578535 2.078319 4 1.060812 4 0 
C 4 -1.060812 3.578535 -2.078319 2.828427 -2.828427 
C 2.078319 -3.578535 1.060812 -4 0 -4 
C -1.060812 -4 -2.078319 -3.578535 -2.828427 -2.828427 
C -3.578535 -2.078319 -4 -1.060812 -4 0 
C -4 1.060812 -3.578535 2.078319 -2.828427 2.828427 
C -2.078319 3.578535 -1.060812 4 0 4 
z
" style="stroke: #800080"/>
    </defs>
    <g>
     <use xlink:href="#m4db44ec290" x="735.972" y="455.954813" style="fill: #800080; stroke: #800080"/>
    </g>
   </g>
   <g id="text_39">
    <!-- $\it{Macaca\ tonkeana}$ (f) -->
    <g style="fill: #262626" transform="translate(759.732 460.574813)">
     <text>
      <tspan x="0" y="-0.125" style="font-style: oblique; font-size: 13.2px; font-family: 'DejaVu Sans'; fill: #262626">M</tspan>
      <tspan x="11.432007" y="-0.125" style="font-style: oblique; font-size: 13.2px; font-family: 'DejaVu Sans'; fill: #262626">a</tspan>
      <tspan x="19.551514" y="-0.125" style="font-style: oblique; font-size: 13.2px; font-family: 'DejaVu Sans'; fill: #262626">c</tspan>
      <tspan x="26.836426" y="-0.125" style="font-style: oblique; font-size: 13.2px; font-family: 'DejaVu Sans'; fill: #262626">a</tspan>
      <tspan x="34.955933" y="-0.125" style="font-style: oblique; font-size: 13.2px; font-family: 'DejaVu Sans'; fill: #262626">c</tspan>
      <tspan x="42.240845" y="-0.125" style="font-style: oblique; font-size: 13.2px; font-family: 'DejaVu Sans'; fill: #262626">a</tspan>
      <tspan x="54.662677" y="-0.125" style="font-style: oblique; font-size: 13.2px; font-family: 'DejaVu Sans'; fill: #262626">t</tspan>
      <tspan x="59.857867" y="-0.125" style="font-style: oblique; font-size: 13.2px; font-family: 'DejaVu Sans'; fill: #262626">o</tspan>
      <tspan x="67.964435" y="-0.125" style="font-style: oblique; font-size: 13.2px; font-family: 'DejaVu Sans'; fill: #262626">n</tspan>
      <tspan x="76.36214" y="-0.125" style="font-style: oblique; font-size: 13.2px; font-family: 'DejaVu Sans'; fill: #262626">k</tspan>
      <tspan x="84.035235" y="-0.125" style="font-style: oblique; font-size: 13.2px; font-family: 'DejaVu Sans'; fill: #262626">e</tspan>
      <tspan x="92.187091" y="-0.125" style="font-style: oblique; font-size: 13.2px; font-family: 'DejaVu Sans'; fill: #262626">a</tspan>
      <tspan x="100.306598" y="-0.125" style="font-style: oblique; font-size: 13.2px; font-family: 'DejaVu Sans'; fill: #262626">n</tspan>
      <tspan x="108.704303" y="-0.125" style="font-style: oblique; font-size: 13.2px; font-family: 'DejaVu Sans'; fill: #262626">a</tspan>
      <tspan x="116.82381" y="-0.125" style="font-size: 13.2px; font-family: 'DejaVu Sans'; fill: #262626"> </tspan>
      <tspan x="121.035602" y="-0.125" style="font-size: 13.2px; font-family: 'DejaVu Sans'; fill: #262626">(</tspan>
      <tspan x="126.204913" y="-0.125" style="font-size: 13.2px; font-family: 'DejaVu Sans'; fill: #262626">f</tspan>
      <tspan x="130.869586" y="-0.125" style="font-size: 13.2px; font-family: 'DejaVu Sans'; fill: #262626">)</tspan>
     </text>
    </g>
   </g>
   <g id="line2d_64">
    <defs>
     <path id="mb4715b35b6" d="M 0 4 
C 1.060812 4 2.078319 3.578535 2.828427 2.828427 
C 3.578535 2.078319 4 1.060812 4 0 
C 4 -1.060812 3.578535 -2.078319 2.828427 -2.828427 
C 2.078319 -3.578535 1.060812 -4 0 -4 
C -1.060812 -4 -2.078319 -3.578535 -2.828427 -2.828427 
C -3.578535 -2.078319 -4 -1.060812 -4 0 
C -4 1.060812 -3.578535 2.078319 -2.828427 2.828427 
C -2.078319 3.578535 -1.060812 4 0 4 
z
" style="stroke: #800080"/>
    </defs>
    <g>
     <use xlink:href="#mb4715b35b6" x="934.896" y="455.954813" style="fill-opacity: 0; stroke: #800080"/>
    </g>
   </g>
   <g id="text_40">
    <!-- $\it{Macaca\ tonkeana}$ (m) -->
    <g style="fill: #262626" transform="translate(958.656 460.574813)">
     <text>
      <tspan x="0" y="-0.125" style="font-style: oblique; font-size: 13.2px; font-family: 'DejaVu Sans'; fill: #262626">M</tspan>
      <tspan x="11.432007" y="-0.125" style="font-style: oblique; font-size: 13.2px; font-family: 'DejaVu Sans'; fill: #262626">a</tspan>
      <tspan x="19.551514" y="-0.125" style="font-style: oblique; font-size: 13.2px; font-family: 'DejaVu Sans'; fill: #262626">c</tspan>
      <tspan x="26.836426" y="-0.125" style="font-style: oblique; font-size: 13.2px; font-family: 'DejaVu Sans'; fill: #262626">a</tspan>
      <tspan x="34.955933" y="-0.125" style="font-style: oblique; font-size: 13.2px; font-family: 'DejaVu Sans'; fill: #262626">c</tspan>
      <tspan x="42.240845" y="-0.125" style="font-style: oblique; font-size: 13.2px; font-family: 'DejaVu Sans'; fill: #262626">a</tspan>
      <tspan x="54.662677" y="-0.125" style="font-style: oblique; font-size: 13.2px; font-family: 'DejaVu Sans'; fill: #262626">t</tspan>
      <tspan x="59.857867" y="-0.125" style="font-style: oblique; font-size: 13.2px; font-family: 'DejaVu Sans'; fill: #262626">o</tspan>
      <tspan x="67.964435" y="-0.125" style="font-style: oblique; font-size: 13.2px; font-family: 'DejaVu Sans'; fill: #262626">n</tspan>
      <tspan x="76.36214" y="-0.125" style="font-style: oblique; font-size: 13.2px; font-family: 'DejaVu Sans'; fill: #262626">k</tspan>
      <tspan x="84.035235" y="-0.125" style="font-style: oblique; font-size: 13.2px; font-family: 'DejaVu Sans'; fill: #262626">e</tspan>
      <tspan x="92.187091" y="-0.125" style="font-style: oblique; font-size: 13.2px; font-family: 'DejaVu Sans'; fill: #262626">a</tspan>
      <tspan x="100.306598" y="-0.125" style="font-style: oblique; font-size: 13.2px; font-family: 'DejaVu Sans'; fill: #262626">n</tspan>
      <tspan x="108.704303" y="-0.125" style="font-style: oblique; font-size: 13.2px; font-family: 'DejaVu Sans'; fill: #262626">a</tspan>
      <tspan x="116.82381" y="-0.125" style="font-size: 13.2px; font-family: 'DejaVu Sans'; fill: #262626"> </tspan>
      <tspan x="121.035602" y="-0.125" style="font-size: 13.2px; font-family: 'DejaVu Sans'; fill: #262626">(</tspan>
      <tspan x="126.204913" y="-0.125" style="font-size: 13.2px; font-family: 'DejaVu Sans'; fill: #262626">m</tspan>
      <tspan x="139.112018" y="-0.125" style="font-size: 13.2px; font-family: 'DejaVu Sans'; fill: #262626">)</tspan>
     </text>
    </g>
   </g>
  </g>
 </g>
 <defs>
  <clipPath id="p18d044e9ff">
   <rect x="52.192" y="107.664" width="319.7675" height="259.004"/>
  </clipPath>
  <clipPath id="ped149a0d46">
   <rect x="400.2015" y="107.664" width="319.7675" height="259.004"/>
  </clipPath>
  <clipPath id="p52d652c5c1">
   <rect x="748.211" y="107.664" width="319.7675" height="259.004"/>
  </clipPath>
  <clipPath id="pd226f0f484">
   <rect x="1096.2205" y="107.664" width="319.7675" height="259.004"/>
  </clipPath>
 </defs>
</svg>
