<?xml version="1.0" encoding="utf-8" standalone="no"?>
<!DOCTYPE svg PUBLIC "-//W3C//DTD SVG 1.1//EN"
  "http://www.w3.org/Graphics/SVG/1.1/DTD/svg11.dtd">
<svg xmlns:xlink="http://www.w3.org/1999/xlink" width="720pt" height="720pt" viewBox="0 0 720 720" xmlns="http://www.w3.org/2000/svg" version="1.1">
 <metadata>
  <rdf:RDF xmlns:dc="http://purl.org/dc/elements/1.1/" xmlns:cc="http://creativecommons.org/ns#" xmlns:rdf="http://www.w3.org/1999/02/22-rdf-syntax-ns#">
   <cc:Work>
    <dc:type rdf:resource="http://purl.org/dc/dcmitype/StillImage"/>
    <dc:date>2025-06-26T16:30:36.932658</dc:date>
    <dc:format>image/svg+xml</dc:format>
    <dc:creator>
     <cc:Agent>
      <dc:title>Matplotlib v3.10.3, https://matplotlib.org/</dc:title>
     </cc:Agent>
    </dc:creator>
   </cc:Work>
  </rdf:RDF>
 </metadata>
 <defs>
  <style type="text/css">*{stroke-linejoin: round; stroke-linecap: butt}</style>
 </defs>
 <g id="figure_1">
  <g id="patch_1">
   <path d="M 0 720 
L 720 720 
L 720 0 
L 0 0 
z
" style="fill: #ffffff"/>
  </g>
  <g id="axes_1">
   <g id="patch_2">
    <path d="M 60.05 468.165 
L 666.546667 468.165 
L 666.546667 29.94 
L 60.05 29.94 
z
" style="fill: #ffffff"/>
   </g>
   <g id="FillBetweenPolyCollection_1">
    <path d="M 60.05 468.165 
L 60.05 468.165 
L 62.857855 468.165 
L 65.66571 468.165 
L 68.473565 468.165 
L 71.28142 468.165 
L 74.089275 468.165 
L 76.89713 468.165 
L 79.704985 468.165 
L 82.51284 468.165 
L 85.320694 468.165 
L 88.128549 468.165 
L 90.936404 468.165 
L 93.744259 468.165 
L 96.552114 468.165 
L 99.359969 468.165 
L 102.167824 468.165 
L 104.975679 468.165 
L 107.783534 468.165 
L 110.591389 468.165 
L 113.399244 468.165 
L 116.207099 468.165 
L 119.014954 468.165 
L 121.822809 468.165 
L 124.630664 468.165 
L 127.438519 468.165 
L 130.246373 468.165 
L 133.054228 468.165 
L 135.862083 468.165 
L 138.669938 468.165 
L 141.477793 468.165 
L 144.285648 468.165 
L 147.093503 468.165 
L 149.901358 468.165 
L 152.709213 468.165 
L 155.517068 468.165 
L 158.324923 468.165 
L 161.132778 468.165 
L 163.940633 468.165 
L 166.748488 468.165 
L 169.556343 468.165 
L 172.364198 468.165 
L 175.172052 468.165 
L 177.979907 468.165 
L 180.787762 468.165 
L 183.595617 468.165 
L 186.403472 468.165 
L 189.211327 468.165 
L 192.019182 468.165 
L 194.827037 468.165 
L 197.634892 468.165 
L 200.442747 468.165 
L 203.250602 468.165 
L 206.058457 468.165 
L 208.866312 468.165 
L 211.674167 468.165 
L 214.482022 468.165 
L 217.289877 468.165 
L 220.097731 468.165 
L 222.905586 468.165 
L 225.713441 468.165 
L 228.521296 468.165 
L 231.329151 468.165 
L 234.137006 468.165 
L 236.944861 468.165 
L 239.752716 468.165 
L 242.560571 468.165 
L 245.368426 468.165 
L 248.176281 468.165 
L 250.984136 468.165 
L 253.791991 468.165 
L 256.599846 468.165 
L 259.407701 468.165 
L 262.215556 468.165 
L 265.02341 468.165 
L 267.831265 468.165 
L 270.63912 468.165 
L 273.446975 468.165 
L 276.25483 468.165 
L 279.062685 468.165 
L 281.87054 468.165 
L 284.678395 468.165 
L 287.48625 468.165 
L 290.294105 468.165 
L 293.10196 468.165 
L 295.909815 468.165 
L 298.71767 468.165 
L 301.525525 468.165 
L 304.33338 468.165 
L 307.141235 468.165 
L 309.94909 468.165 
L 312.756944 468.165 
L 315.564799 468.165 
L 318.372654 468.165 
L 321.180509 468.165 
L 323.988364 468.165 
L 326.796219 468.165 
L 329.604074 468.165 
L 332.411929 468.165 
L 335.219784 468.165 
L 338.027639 468.165 
L 340.835494 468.165 
L 343.643349 468.165 
L 346.451204 468.165 
L 349.259059 468.165 
L 352.066914 468.165 
L 354.874769 468.165 
L 357.682623 468.165 
L 360.490478 468.165 
L 363.298333 468.165 
L 366.106188 468.165 
L 368.914043 468.165 
L 371.721898 468.165 
L 374.529753 468.165 
L 377.337608 468.165 
L 380.145463 468.165 
L 382.953318 468.165 
L 385.761173 468.165 
L 388.569028 468.165 
L 391.376883 468.165 
L 394.184738 468.165 
L 396.992593 468.165 
L 399.800448 468.165 
L 402.608302 468.165 
L 405.416157 468.165 
L 408.224012 468.165 
L 411.031867 468.165 
L 413.839722 468.165 
L 416.647577 468.165 
L 419.455432 468.165 
L 422.263287 468.165 
L 425.071142 468.165 
L 427.878997 468.165 
L 430.686852 468.165 
L 433.494707 468.165 
L 436.302562 468.165 
L 439.110417 468.165 
L 441.918272 468.165 
L 444.726127 468.165 
L 447.533981 468.165 
L 450.341836 468.165 
L 453.149691 468.165 
L 455.957546 468.165 
L 458.765401 468.165 
L 461.573256 468.165 
L 464.381111 468.165 
L 467.188966 468.165 
L 469.996821 468.165 
L 472.804676 468.165 
L 475.612531 468.165 
L 478.420386 468.165 
L 481.228241 468.165 
L 484.036096 468.165 
L 486.843951 468.165 
L 489.651806 468.165 
L 492.45966 468.165 
L 495.267515 468.165 
L 498.07537 468.165 
L 500.883225 468.165 
L 503.69108 468.165 
L 506.498935 468.165 
L 509.30679 468.165 
L 512.114645 468.165 
L 514.9225 468.165 
L 517.730355 468.165 
L 520.53821 468.165 
L 523.346065 468.165 
L 526.15392 468.165 
L 528.961775 468.165 
L 531.76963 468.165 
L 534.577485 468.165 
L 537.38534 468.165 
L 540.193194 468.165 
L 543.001049 468.165 
L 545.808904 468.165 
L 548.616759 468.165 
L 551.424614 468.165 
L 554.232469 468.165 
L 557.040324 468.165 
L 559.848179 468.165 
L 562.656034 468.165 
L 565.463889 468.165 
L 568.271744 468.165 
L 571.079599 468.165 
L 573.887454 468.165 
L 576.695309 468.165 
L 579.503164 468.165 
L 582.311019 468.165 
L 585.118873 468.165 
L 587.926728 468.165 
L 590.734583 468.165 
L 593.542438 468.165 
L 596.350293 468.165 
L 599.158148 468.165 
L 601.966003 468.165 
L 604.773858 468.165 
L 607.581713 468.165 
L 610.389568 468.165 
L 613.197423 468.165 
L 616.005278 468.165 
L 618.813133 468.165 
L 621.620988 468.165 
L 624.428843 468.165 
L 627.236698 468.165 
L 630.044552 468.165 
L 632.852407 468.165 
L 635.660262 468.165 
L 638.468117 468.165 
L 641.275972 468.165 
L 644.083827 468.165 
L 646.891682 468.165 
L 649.699537 468.165 
L 652.507392 468.165 
L 655.315247 468.165 
L 658.123102 468.165 
L 660.930957 468.165 
L 663.738812 468.165 
L 666.546667 468.165 
L 666.546667 176.015 
L 666.546667 176.015 
L 663.738812 29.94 
L 660.930957 29.94 
L 658.123102 205.23 
L 655.315247 29.94 
L 652.507392 29.94 
L 649.699537 117.585 
L 646.891682 29.94 
L 644.083827 29.94 
L 641.275972 29.94 
L 638.468117 29.94 
L 635.660262 176.015 
L 632.852407 29.94 
L 630.044552 29.94 
L 627.236698 29.94 
L 624.428843 29.94 
L 621.620988 29.94 
L 618.813133 29.94 
L 616.005278 29.94 
L 613.197423 29.94 
L 610.389568 29.94 
L 607.581713 139.49625 
L 604.773858 29.94 
L 601.966003 249.0525 
L 599.158148 29.94 
L 596.350293 29.94 
L 593.542438 249.0525 
L 590.734583 29.94 
L 587.926728 468.165 
L 585.118873 29.94 
L 582.311019 249.0525 
L 579.503164 29.94 
L 576.695309 139.49625 
L 573.887454 29.94 
L 571.079599 117.585 
L 568.271744 249.0525 
L 565.463889 29.94 
L 562.656034 205.23 
L 559.848179 29.94 
L 557.040324 29.94 
L 554.232469 29.94 
L 551.424614 29.94 
L 548.616759 468.165 
L 545.808904 29.94 
L 543.001049 29.94 
L 540.193194 249.0525 
L 537.38534 29.94 
L 534.577485 249.0525 
L 531.76963 29.94 
L 528.961775 29.94 
L 526.15392 139.49625 
L 523.346065 29.94 
L 520.53821 358.60875 
L 517.730355 29.94 
L 514.9225 29.94 
L 512.114645 29.94 
L 509.30679 292.875 
L 506.498935 176.015 
L 503.69108 29.94 
L 500.883225 29.94 
L 498.07537 176.015 
L 495.267515 29.94 
L 492.45966 29.94 
L 489.651806 29.94 
L 486.843951 29.94 
L 484.036096 29.94 
L 481.228241 29.94 
L 478.420386 249.0525 
L 475.612531 117.585 
L 472.804676 139.49625 
L 469.996821 468.165 
L 467.188966 29.94 
L 464.381111 29.94 
L 461.573256 29.94 
L 458.765401 29.94 
L 455.957546 29.94 
L 453.149691 249.0525 
L 450.341836 29.94 
L 447.533981 322.09 
L 444.726127 29.94 
L 441.918272 29.94 
L 439.110417 139.49625 
L 436.302562 29.94 
L 433.494707 139.49625 
L 430.686852 29.94 
L 427.878997 29.94 
L 425.071142 322.09 
L 422.263287 29.94 
L 419.455432 468.165 
L 416.647577 29.94 
L 413.839722 29.94 
L 411.031867 249.0525 
L 408.224012 468.165 
L 405.416157 29.94 
L 402.608302 117.585 
L 399.800448 117.585 
L 396.992593 117.585 
L 394.184738 176.015 
L 391.376883 29.94 
L 388.569028 117.585 
L 385.761173 117.585 
L 382.953318 292.875 
L 380.145463 84.718125 
L 377.337608 139.49625 
L 374.529753 176.015 
L 371.721898 69.778636 
L 368.914043 29.94 
L 366.106188 155.147143 
L 363.298333 468.165 
L 360.490478 29.94 
L 357.682623 29.94 
L 354.874769 29.94 
L 352.066914 176.015 
L 349.259059 29.94 
L 346.451204 29.94 
L 343.643349 102.9775 
L 340.835494 29.94 
L 338.027639 29.94 
L 335.219784 29.94 
L 332.411929 194.274375 
L 329.604074 29.94 
L 326.796219 176.015 
L 323.988364 176.015 
L 321.180509 29.94 
L 318.372654 176.015 
L 315.564799 29.94 
L 312.756944 29.94 
L 309.94909 139.49625 
L 307.141235 468.165 
L 304.33338 117.585 
L 301.525525 117.585 
L 298.71767 78.631667 
L 295.909815 69.778636 
L 293.10196 117.585 
L 290.294105 292.875 
L 287.48625 29.94 
L 284.678395 109.617273 
L 281.87054 249.0525 
L 279.062685 322.09 
L 276.25483 29.94 
L 273.446975 29.94 
L 270.63912 29.94 
L 267.831265 205.23 
L 265.02341 29.94 
L 262.215556 155.147143 
L 259.407701 139.49625 
L 256.599846 249.0525 
L 253.791991 249.0525 
L 250.984136 99.133421 
L 248.176281 29.94 
L 245.368426 29.94 
L 242.560571 205.23 
L 239.752716 29.94 
L 236.944861 29.94 
L 234.137006 29.94 
L 231.329151 59.155 
L 228.521296 155.147143 
L 225.713441 468.165 
L 222.905586 29.94 
L 220.097731 66.45875 
L 217.289877 29.94 
L 214.482022 194.274375 
L 211.674167 205.23 
L 208.866312 205.23 
L 206.058457 468.165 
L 203.250602 29.94 
L 200.442747 468.165 
L 197.634892 29.94 
L 194.827037 102.9775 
L 192.019182 249.0525 
L 189.211327 468.165 
L 186.403472 176.015 
L 183.595617 468.165 
L 180.787762 29.94 
L 177.979907 249.0525 
L 175.172052 249.0525 
L 172.364198 176.015 
L 169.556343 205.23 
L 166.748488 322.09 
L 163.940633 194.274375 
L 161.132778 249.0525 
L 158.324923 249.0525 
L 155.517068 249.0525 
L 152.709213 29.94 
L 149.901358 176.015 
L 147.093503 468.165 
L 144.285648 176.015 
L 141.477793 249.0525 
L 138.669938 468.165 
L 135.862083 29.94 
L 133.054228 224.706667 
L 130.246373 468.165 
L 127.438519 29.94 
L 124.630664 273.398333 
L 121.822809 29.94 
L 119.014954 29.94 
L 116.207099 249.0525 
L 113.399244 176.015 
L 110.591389 29.94 
L 107.783534 29.94 
L 104.975679 155.147143 
L 102.167824 249.0525 
L 99.359969 127.323333 
L 96.552114 268.971818 
L 93.744259 468.165 
L 90.936404 249.0525 
L 88.128549 29.94 
L 85.320694 322.09 
L 82.51284 182.366087 
L 79.704985 176.015 
L 76.89713 146.8 
L 74.089275 468.165 
L 71.28142 205.23 
L 68.473565 358.60875 
L 65.66571 117.585 
L 62.857855 209.724615 
L 60.05 468.165 
z
" clip-path="url(#pb8e9b5b067)" style="fill: #5386b6"/>
   </g>
   <g id="FillBetweenPolyCollection_2">
    <path d="M 60.05 29.94 
L 60.05 468.165 
L 62.857855 209.724615 
L 65.66571 117.585 
L 68.473565 358.60875 
L 71.28142 205.23 
L 74.089275 468.165 
L 76.89713 146.8 
L 79.704985 176.015 
L 82.51284 182.366087 
L 85.320694 322.09 
L 88.128549 29.94 
L 90.936404 249.0525 
L 93.744259 468.165 
L 96.552114 268.971818 
L 99.359969 127.323333 
L 102.167824 249.0525 
L 104.975679 155.147143 
L 107.783534 29.94 
L 110.591389 29.94 
L 113.399244 176.015 
L 116.207099 249.0525 
L 119.014954 29.94 
L 121.822809 29.94 
L 124.630664 273.398333 
L 127.438519 29.94 
L 130.246373 468.165 
L 133.054228 224.706667 
L 135.862083 29.94 
L 138.669938 468.165 
L 141.477793 249.0525 
L 144.285648 176.015 
L 147.093503 468.165 
L 149.901358 176.015 
L 152.709213 29.94 
L 155.517068 249.0525 
L 158.324923 249.0525 
L 161.132778 249.0525 
L 163.940633 194.274375 
L 166.748488 322.09 
L 169.556343 205.23 
L 172.364198 176.015 
L 175.172052 249.0525 
L 177.979907 249.0525 
L 180.787762 29.94 
L 183.595617 468.165 
L 186.403472 176.015 
L 189.211327 468.165 
L 192.019182 249.0525 
L 194.827037 102.9775 
L 197.634892 29.94 
L 200.442747 468.165 
L 203.250602 29.94 
L 206.058457 468.165 
L 208.866312 205.23 
L 211.674167 205.23 
L 214.482022 194.274375 
L 217.289877 29.94 
L 220.097731 66.45875 
L 222.905586 29.94 
L 225.713441 468.165 
L 228.521296 155.147143 
L 231.329151 59.155 
L 234.137006 29.94 
L 236.944861 29.94 
L 239.752716 29.94 
L 242.560571 205.23 
L 245.368426 29.94 
L 248.176281 29.94 
L 250.984136 99.133421 
L 253.791991 249.0525 
L 256.599846 249.0525 
L 259.407701 139.49625 
L 262.215556 155.147143 
L 265.02341 29.94 
L 267.831265 205.23 
L 270.63912 29.94 
L 273.446975 29.94 
L 276.25483 29.94 
L 279.062685 322.09 
L 281.87054 249.0525 
L 284.678395 109.617273 
L 287.48625 29.94 
L 290.294105 292.875 
L 293.10196 117.585 
L 295.909815 69.778636 
L 298.71767 78.631667 
L 301.525525 117.585 
L 304.33338 117.585 
L 307.141235 468.165 
L 309.94909 139.49625 
L 312.756944 29.94 
L 315.564799 29.94 
L 318.372654 176.015 
L 321.180509 29.94 
L 323.988364 176.015 
L 326.796219 176.015 
L 329.604074 29.94 
L 332.411929 194.274375 
L 335.219784 29.94 
L 338.027639 29.94 
L 340.835494 29.94 
L 343.643349 102.9775 
L 346.451204 29.94 
L 349.259059 29.94 
L 352.066914 176.015 
L 354.874769 29.94 
L 357.682623 29.94 
L 360.490478 29.94 
L 363.298333 468.165 
L 366.106188 155.147143 
L 368.914043 29.94 
L 371.721898 69.778636 
L 374.529753 176.015 
L 377.337608 139.49625 
L 380.145463 84.718125 
L 382.953318 292.875 
L 385.761173 117.585 
L 388.569028 117.585 
L 391.376883 29.94 
L 394.184738 176.015 
L 396.992593 117.585 
L 399.800448 117.585 
L 402.608302 117.585 
L 405.416157 29.94 
L 408.224012 468.165 
L 411.031867 249.0525 
L 413.839722 29.94 
L 416.647577 29.94 
L 419.455432 468.165 
L 422.263287 29.94 
L 425.071142 322.09 
L 427.878997 29.94 
L 430.686852 29.94 
L 433.494707 139.49625 
L 436.302562 29.94 
L 439.110417 139.49625 
L 441.918272 29.94 
L 444.726127 29.94 
L 447.533981 322.09 
L 450.341836 29.94 
L 453.149691 249.0525 
L 455.957546 29.94 
L 458.765401 29.94 
L 461.573256 29.94 
L 464.381111 29.94 
L 467.188966 29.94 
L 469.996821 468.165 
L 472.804676 139.49625 
L 475.612531 117.585 
L 478.420386 249.0525 
L 481.228241 29.94 
L 484.036096 29.94 
L 486.843951 29.94 
L 489.651806 29.94 
L 492.45966 29.94 
L 495.267515 29.94 
L 498.07537 176.015 
L 500.883225 29.94 
L 503.69108 29.94 
L 506.498935 176.015 
L 509.30679 292.875 
L 512.114645 29.94 
L 514.9225 29.94 
L 517.730355 29.94 
L 520.53821 358.60875 
L 523.346065 29.94 
L 526.15392 139.49625 
L 528.961775 29.94 
L 531.76963 29.94 
L 534.577485 249.0525 
L 537.38534 29.94 
L 540.193194 249.0525 
L 543.001049 29.94 
L 545.808904 29.94 
L 548.616759 468.165 
L 551.424614 29.94 
L 554.232469 29.94 
L 557.040324 29.94 
L 559.848179 29.94 
L 562.656034 205.23 
L 565.463889 29.94 
L 568.271744 249.0525 
L 571.079599 117.585 
L 573.887454 29.94 
L 576.695309 139.49625 
L 579.503164 29.94 
L 582.311019 249.0525 
L 585.118873 29.94 
L 587.926728 468.165 
L 590.734583 29.94 
L 593.542438 249.0525 
L 596.350293 29.94 
L 599.158148 29.94 
L 601.966003 249.0525 
L 604.773858 29.94 
L 607.581713 139.49625 
L 610.389568 29.94 
L 613.197423 29.94 
L 616.005278 29.94 
L 618.813133 29.94 
L 621.620988 29.94 
L 624.428843 29.94 
L 627.236698 29.94 
L 630.044552 29.94 
L 632.852407 29.94 
L 635.660262 176.015 
L 638.468117 29.94 
L 641.275972 29.94 
L 644.083827 29.94 
L 646.891682 29.94 
L 649.699537 117.585 
L 652.507392 29.94 
L 655.315247 29.94 
L 658.123102 205.23 
L 660.930957 29.94 
L 663.738812 29.94 
L 666.546667 176.015 
L 666.546667 29.94 
L 666.546667 29.94 
L 663.738812 29.94 
L 660.930957 29.94 
L 658.123102 29.94 
L 655.315247 29.94 
L 652.507392 29.94 
L 649.699537 29.94 
L 646.891682 29.94 
L 644.083827 29.94 
L 641.275972 29.94 
L 638.468117 29.94 
L 635.660262 29.94 
L 632.852407 29.94 
L 630.044552 29.94 
L 627.236698 29.94 
L 624.428843 29.94 
L 621.620988 29.94 
L 618.813133 29.94 
L 616.005278 29.94 
L 613.197423 29.94 
L 610.389568 29.94 
L 607.581713 29.94 
L 604.773858 29.94 
L 601.966003 29.94 
L 599.158148 29.94 
L 596.350293 29.94 
L 593.542438 29.94 
L 590.734583 29.94 
L 587.926728 29.94 
L 585.118873 29.94 
L 582.311019 29.94 
L 579.503164 29.94 
L 576.695309 29.94 
L 573.887454 29.94 
L 571.079599 29.94 
L 568.271744 139.49625 
L 565.463889 29.94 
L 562.656034 117.585 
L 559.848179 29.94 
L 557.040324 29.94 
L 554.232469 29.94 
L 551.424614 29.94 
L 548.616759 468.165 
L 545.808904 29.94 
L 543.001049 29.94 
L 540.193194 29.94 
L 537.38534 29.94 
L 534.577485 29.94 
L 531.76963 29.94 
L 528.961775 29.94 
L 526.15392 29.94 
L 523.346065 29.94 
L 520.53821 29.94 
L 517.730355 29.94 
L 514.9225 29.94 
L 512.114645 29.94 
L 509.30679 29.94 
L 506.498935 176.015 
L 503.69108 29.94 
L 500.883225 29.94 
L 498.07537 176.015 
L 495.267515 29.94 
L 492.45966 29.94 
L 489.651806 29.94 
L 486.843951 29.94 
L 484.036096 29.94 
L 481.228241 29.94 
L 478.420386 249.0525 
L 475.612531 29.94 
L 472.804676 139.49625 
L 469.996821 468.165 
L 467.188966 29.94 
L 464.381111 29.94 
L 461.573256 29.94 
L 458.765401 29.94 
L 455.957546 29.94 
L 453.149691 29.94 
L 450.341836 29.94 
L 447.533981 322.09 
L 444.726127 29.94 
L 441.918272 29.94 
L 439.110417 29.94 
L 436.302562 29.94 
L 433.494707 29.94 
L 430.686852 29.94 
L 427.878997 29.94 
L 425.071142 29.94 
L 422.263287 29.94 
L 419.455432 29.94 
L 416.647577 29.94 
L 413.839722 29.94 
L 411.031867 29.94 
L 408.224012 29.94 
L 405.416157 29.94 
L 402.608302 29.94 
L 399.800448 29.94 
L 396.992593 29.94 
L 394.184738 176.015 
L 391.376883 29.94 
L 388.569028 29.94 
L 385.761173 29.94 
L 382.953318 117.585 
L 380.145463 29.94 
L 377.337608 29.94 
L 374.529753 29.94 
L 371.721898 29.94 
L 368.914043 29.94 
L 366.106188 29.94 
L 363.298333 29.94 
L 360.490478 29.94 
L 357.682623 29.94 
L 354.874769 29.94 
L 352.066914 29.94 
L 349.259059 29.94 
L 346.451204 29.94 
L 343.643349 29.94 
L 340.835494 29.94 
L 338.027639 29.94 
L 335.219784 29.94 
L 332.411929 29.94 
L 329.604074 29.94 
L 326.796219 29.94 
L 323.988364 29.94 
L 321.180509 29.94 
L 318.372654 29.94 
L 315.564799 29.94 
L 312.756944 29.94 
L 309.94909 29.94 
L 307.141235 29.94 
L 304.33338 29.94 
L 301.525525 29.94 
L 298.71767 29.94 
L 295.909815 29.94 
L 293.10196 29.94 
L 290.294105 117.585 
L 287.48625 29.94 
L 284.678395 29.94 
L 281.87054 29.94 
L 279.062685 29.94 
L 276.25483 29.94 
L 273.446975 29.94 
L 270.63912 29.94 
L 267.831265 29.94 
L 265.02341 29.94 
L 262.215556 29.94 
L 259.407701 139.49625 
L 256.599846 249.0525 
L 253.791991 29.94 
L 250.984136 29.94 
L 248.176281 29.94 
L 245.368426 29.94 
L 242.560571 117.585 
L 239.752716 29.94 
L 236.944861 29.94 
L 234.137006 29.94 
L 231.329151 29.94 
L 228.521296 29.94 
L 225.713441 29.94 
L 222.905586 29.94 
L 220.097731 29.94 
L 217.289877 29.94 
L 214.482022 29.94 
L 211.674167 29.94 
L 208.866312 29.94 
L 206.058457 29.94 
L 203.250602 29.94 
L 200.442747 29.94 
L 197.634892 29.94 
L 194.827037 29.94 
L 192.019182 29.94 
L 189.211327 29.94 
L 186.403472 29.94 
L 183.595617 249.0525 
L 180.787762 29.94 
L 177.979907 29.94 
L 175.172052 29.94 
L 172.364198 176.015 
L 169.556343 205.23 
L 166.748488 102.9775 
L 163.940633 29.94 
L 161.132778 29.94 
L 158.324923 29.94 
L 155.517068 29.94 
L 152.709213 29.94 
L 149.901358 29.94 
L 147.093503 29.94 
L 144.285648 29.94 
L 141.477793 29.94 
L 138.669938 29.94 
L 135.862083 29.94 
L 133.054228 29.94 
L 130.246373 468.165 
L 127.438519 29.94 
L 124.630664 29.94 
L 121.822809 29.94 
L 119.014954 29.94 
L 116.207099 29.94 
L 113.399244 29.94 
L 110.591389 29.94 
L 107.783534 29.94 
L 104.975679 29.94 
L 102.167824 29.94 
L 99.359969 29.94 
L 96.552114 29.94 
L 93.744259 29.94 
L 90.936404 29.94 
L 88.128549 29.94 
L 85.320694 29.94 
L 82.51284 29.94 
L 79.704985 29.94 
L 76.89713 29.94 
L 74.089275 29.94 
L 71.28142 59.155 
L 68.473565 29.94 
L 65.66571 29.94 
L 62.857855 29.94 
L 60.05 29.94 
z
" clip-path="url(#pb8e9b5b067)" style="fill: #d57459"/>
   </g>
   <g id="FillBetweenPolyCollection_3">
    <path d="M 60.05 29.94 
L 60.05 29.94 
L 62.857855 29.94 
L 65.66571 29.94 
L 68.473565 29.94 
L 71.28142 59.155 
L 74.089275 29.94 
L 76.89713 29.94 
L 79.704985 29.94 
L 82.51284 29.94 
L 85.320694 29.94 
L 88.128549 29.94 
L 90.936404 29.94 
L 93.744259 29.94 
L 96.552114 29.94 
L 99.359969 29.94 
L 102.167824 29.94 
L 104.975679 29.94 
L 107.783534 29.94 
L 110.591389 29.94 
L 113.399244 29.94 
L 116.207099 29.94 
L 119.014954 29.94 
L 121.822809 29.94 
L 124.630664 29.94 
L 127.438519 29.94 
L 130.246373 468.165 
L 133.054228 29.94 
L 135.862083 29.94 
L 138.669938 29.94 
L 141.477793 29.94 
L 144.285648 29.94 
L 147.093503 29.94 
L 149.901358 29.94 
L 152.709213 29.94 
L 155.517068 29.94 
L 158.324923 29.94 
L 161.132778 29.94 
L 163.940633 29.94 
L 166.748488 102.9775 
L 169.556343 205.23 
L 172.364198 176.015 
L 175.172052 29.94 
L 177.979907 29.94 
L 180.787762 29.94 
L 183.595617 249.0525 
L 186.403472 29.94 
L 189.211327 29.94 
L 192.019182 29.94 
L 194.827037 29.94 
L 197.634892 29.94 
L 200.442747 29.94 
L 203.250602 29.94 
L 206.058457 29.94 
L 208.866312 29.94 
L 211.674167 29.94 
L 214.482022 29.94 
L 217.289877 29.94 
L 220.097731 29.94 
L 222.905586 29.94 
L 225.713441 29.94 
L 228.521296 29.94 
L 231.329151 29.94 
L 234.137006 29.94 
L 236.944861 29.94 
L 239.752716 29.94 
L 242.560571 117.585 
L 245.368426 29.94 
L 248.176281 29.94 
L 250.984136 29.94 
L 253.791991 29.94 
L 256.599846 249.0525 
L 259.407701 139.49625 
L 262.215556 29.94 
L 265.02341 29.94 
L 267.831265 29.94 
L 270.63912 29.94 
L 273.446975 29.94 
L 276.25483 29.94 
L 279.062685 29.94 
L 281.87054 29.94 
L 284.678395 29.94 
L 287.48625 29.94 
L 290.294105 117.585 
L 293.10196 29.94 
L 295.909815 29.94 
L 298.71767 29.94 
L 301.525525 29.94 
L 304.33338 29.94 
L 307.141235 29.94 
L 309.94909 29.94 
L 312.756944 29.94 
L 315.564799 29.94 
L 318.372654 29.94 
L 321.180509 29.94 
L 323.988364 29.94 
L 326.796219 29.94 
L 329.604074 29.94 
L 332.411929 29.94 
L 335.219784 29.94 
L 338.027639 29.94 
L 340.835494 29.94 
L 343.643349 29.94 
L 346.451204 29.94 
L 349.259059 29.94 
L 352.066914 29.94 
L 354.874769 29.94 
L 357.682623 29.94 
L 360.490478 29.94 
L 363.298333 29.94 
L 366.106188 29.94 
L 368.914043 29.94 
L 371.721898 29.94 
L 374.529753 29.94 
L 377.337608 29.94 
L 380.145463 29.94 
L 382.953318 117.585 
L 385.761173 29.94 
L 388.569028 29.94 
L 391.376883 29.94 
L 394.184738 176.015 
L 396.992593 29.94 
L 399.800448 29.94 
L 402.608302 29.94 
L 405.416157 29.94 
L 408.224012 29.94 
L 411.031867 29.94 
L 413.839722 29.94 
L 416.647577 29.94 
L 419.455432 29.94 
L 422.263287 29.94 
L 425.071142 29.94 
L 427.878997 29.94 
L 430.686852 29.94 
L 433.494707 29.94 
L 436.302562 29.94 
L 439.110417 29.94 
L 441.918272 29.94 
L 444.726127 29.94 
L 447.533981 322.09 
L 450.341836 29.94 
L 453.149691 29.94 
L 455.957546 29.94 
L 458.765401 29.94 
L 461.573256 29.94 
L 464.381111 29.94 
L 467.188966 29.94 
L 469.996821 468.165 
L 472.804676 139.49625 
L 475.612531 29.94 
L 478.420386 249.0525 
L 481.228241 29.94 
L 484.036096 29.94 
L 486.843951 29.94 
L 489.651806 29.94 
L 492.45966 29.94 
L 495.267515 29.94 
L 498.07537 176.015 
L 500.883225 29.94 
L 503.69108 29.94 
L 506.498935 176.015 
L 509.30679 29.94 
L 512.114645 29.94 
L 514.9225 29.94 
L 517.730355 29.94 
L 520.53821 29.94 
L 523.346065 29.94 
L 526.15392 29.94 
L 528.961775 29.94 
L 531.76963 29.94 
L 534.577485 29.94 
L 537.38534 29.94 
L 540.193194 29.94 
L 543.001049 29.94 
L 545.808904 29.94 
L 548.616759 468.165 
L 551.424614 29.94 
L 554.232469 29.94 
L 557.040324 29.94 
L 559.848179 29.94 
L 562.656034 117.585 
L 565.463889 29.94 
L 568.271744 139.49625 
L 571.079599 29.94 
L 573.887454 29.94 
L 576.695309 29.94 
L 579.503164 29.94 
L 582.311019 29.94 
L 585.118873 29.94 
L 587.926728 29.94 
L 590.734583 29.94 
L 593.542438 29.94 
L 596.350293 29.94 
L 599.158148 29.94 
L 601.966003 29.94 
L 604.773858 29.94 
L 607.581713 29.94 
L 610.389568 29.94 
L 613.197423 29.94 
L 616.005278 29.94 
L 618.813133 29.94 
L 621.620988 29.94 
L 624.428843 29.94 
L 627.236698 29.94 
L 630.044552 29.94 
L 632.852407 29.94 
L 635.660262 29.94 
L 638.468117 29.94 
L 641.275972 29.94 
L 644.083827 29.94 
L 646.891682 29.94 
L 649.699537 29.94 
L 652.507392 29.94 
L 655.315247 29.94 
L 658.123102 29.94 
L 660.930957 29.94 
L 663.738812 29.94 
L 666.546667 29.94 
L 666.546667 29.94 
L 666.546667 29.94 
L 663.738812 29.94 
L 660.930957 29.94 
L 658.123102 29.94 
L 655.315247 29.94 
L 652.507392 29.94 
L 649.699537 29.94 
L 646.891682 29.94 
L 644.083827 29.94 
L 641.275972 29.94 
L 638.468117 29.94 
L 635.660262 29.94 
L 632.852407 29.94 
L 630.044552 29.94 
L 627.236698 29.94 
L 624.428843 29.94 
L 621.620988 29.94 
L 618.813133 29.94 
L 616.005278 29.94 
L 613.197423 29.94 
L 610.389568 29.94 
L 607.581713 29.94 
L 604.773858 29.94 
L 601.966003 29.94 
L 599.158148 29.94 
L 596.350293 29.94 
L 593.542438 29.94 
L 590.734583 29.94 
L 587.926728 29.94 
L 585.118873 29.94 
L 582.311019 29.94 
L 579.503164 29.94 
L 576.695309 29.94 
L 573.887454 29.94 
L 571.079599 29.94 
L 568.271744 29.94 
L 565.463889 29.94 
L 562.656034 29.94 
L 559.848179 29.94 
L 557.040324 29.94 
L 554.232469 29.94 
L 551.424614 29.94 
L 548.616759 29.94 
L 545.808904 29.94 
L 543.001049 29.94 
L 540.193194 29.94 
L 537.38534 29.94 
L 534.577485 29.94 
L 531.76963 29.94 
L 528.961775 29.94 
L 526.15392 29.94 
L 523.346065 29.94 
L 520.53821 29.94 
L 517.730355 29.94 
L 514.9225 29.94 
L 512.114645 29.94 
L 509.30679 29.94 
L 506.498935 176.015 
L 503.69108 29.94 
L 500.883225 29.94 
L 498.07537 176.015 
L 495.267515 29.94 
L 492.45966 29.94 
L 489.651806 29.94 
L 486.843951 29.94 
L 484.036096 29.94 
L 481.228241 29.94 
L 478.420386 249.0525 
L 475.612531 29.94 
L 472.804676 29.94 
L 469.996821 468.165 
L 467.188966 29.94 
L 464.381111 29.94 
L 461.573256 29.94 
L 458.765401 29.94 
L 455.957546 29.94 
L 453.149691 29.94 
L 450.341836 29.94 
L 447.533981 322.09 
L 444.726127 29.94 
L 441.918272 29.94 
L 439.110417 29.94 
L 436.302562 29.94 
L 433.494707 29.94 
L 430.686852 29.94 
L 427.878997 29.94 
L 425.071142 29.94 
L 422.263287 29.94 
L 419.455432 29.94 
L 416.647577 29.94 
L 413.839722 29.94 
L 411.031867 29.94 
L 408.224012 29.94 
L 405.416157 29.94 
L 402.608302 29.94 
L 399.800448 29.94 
L 396.992593 29.94 
L 394.184738 176.015 
L 391.376883 29.94 
L 388.569028 29.94 
L 385.761173 29.94 
L 382.953318 29.94 
L 380.145463 29.94 
L 377.337608 29.94 
L 374.529753 29.94 
L 371.721898 29.94 
L 368.914043 29.94 
L 366.106188 29.94 
L 363.298333 29.94 
L 360.490478 29.94 
L 357.682623 29.94 
L 354.874769 29.94 
L 352.066914 29.94 
L 349.259059 29.94 
L 346.451204 29.94 
L 343.643349 29.94 
L 340.835494 29.94 
L 338.027639 29.94 
L 335.219784 29.94 
L 332.411929 29.94 
L 329.604074 29.94 
L 326.796219 29.94 
L 323.988364 29.94 
L 321.180509 29.94 
L 318.372654 29.94 
L 315.564799 29.94 
L 312.756944 29.94 
L 309.94909 29.94 
L 307.141235 29.94 
L 304.33338 29.94 
L 301.525525 29.94 
L 298.71767 29.94 
L 295.909815 29.94 
L 293.10196 29.94 
L 290.294105 29.94 
L 287.48625 29.94 
L 284.678395 29.94 
L 281.87054 29.94 
L 279.062685 29.94 
L 276.25483 29.94 
L 273.446975 29.94 
L 270.63912 29.94 
L 267.831265 29.94 
L 265.02341 29.94 
L 262.215556 29.94 
L 259.407701 29.94 
L 256.599846 249.0525 
L 253.791991 29.94 
L 250.984136 29.94 
L 248.176281 29.94 
L 245.368426 29.94 
L 242.560571 117.585 
L 239.752716 29.94 
L 236.944861 29.94 
L 234.137006 29.94 
L 231.329151 29.94 
L 228.521296 29.94 
L 225.713441 29.94 
L 222.905586 29.94 
L 220.097731 29.94 
L 217.289877 29.94 
L 214.482022 29.94 
L 211.674167 29.94 
L 208.866312 29.94 
L 206.058457 29.94 
L 203.250602 29.94 
L 200.442747 29.94 
L 197.634892 29.94 
L 194.827037 29.94 
L 192.019182 29.94 
L 189.211327 29.94 
L 186.403472 29.94 
L 183.595617 249.0525 
L 180.787762 29.94 
L 177.979907 29.94 
L 175.172052 29.94 
L 172.364198 176.015 
L 169.556343 117.585 
L 166.748488 29.94 
L 163.940633 29.94 
L 161.132778 29.94 
L 158.324923 29.94 
L 155.517068 29.94 
L 152.709213 29.94 
L 149.901358 29.94 
L 147.093503 29.94 
L 144.285648 29.94 
L 141.477793 29.94 
L 138.669938 29.94 
L 135.862083 29.94 
L 133.054228 29.94 
L 130.246373 468.165 
L 127.438519 29.94 
L 124.630664 29.94 
L 121.822809 29.94 
L 119.014954 29.94 
L 116.207099 29.94 
L 113.399244 29.94 
L 110.591389 29.94 
L 107.783534 29.94 
L 104.975679 29.94 
L 102.167824 29.94 
L 99.359969 29.94 
L 96.552114 29.94 
L 93.744259 29.94 
L 90.936404 29.94 
L 88.128549 29.94 
L 85.320694 29.94 
L 82.51284 29.94 
L 79.704985 29.94 
L 76.89713 29.94 
L 74.089275 29.94 
L 71.28142 59.155 
L 68.473565 29.94 
L 65.66571 29.94 
L 62.857855 29.94 
L 60.05 29.94 
z
" clip-path="url(#pb8e9b5b067)" style="fill: #e8bc60"/>
   </g>
   <g id="FillBetweenPolyCollection_4">
    <path d="M 60.05 29.94 
L 60.05 29.94 
L 62.857855 29.94 
L 65.66571 29.94 
L 68.473565 29.94 
L 71.28142 59.155 
L 74.089275 29.94 
L 76.89713 29.94 
L 79.704985 29.94 
L 82.51284 29.94 
L 85.320694 29.94 
L 88.128549 29.94 
L 90.936404 29.94 
L 93.744259 29.94 
L 96.552114 29.94 
L 99.359969 29.94 
L 102.167824 29.94 
L 104.975679 29.94 
L 107.783534 29.94 
L 110.591389 29.94 
L 113.399244 29.94 
L 116.207099 29.94 
L 119.014954 29.94 
L 121.822809 29.94 
L 124.630664 29.94 
L 127.438519 29.94 
L 130.246373 468.165 
L 133.054228 29.94 
L 135.862083 29.94 
L 138.669938 29.94 
L 141.477793 29.94 
L 144.285648 29.94 
L 147.093503 29.94 
L 149.901358 29.94 
L 152.709213 29.94 
L 155.517068 29.94 
L 158.324923 29.94 
L 161.132778 29.94 
L 163.940633 29.94 
L 166.748488 29.94 
L 169.556343 117.585 
L 172.364198 176.015 
L 175.172052 29.94 
L 177.979907 29.94 
L 180.787762 29.94 
L 183.595617 249.0525 
L 186.403472 29.94 
L 189.211327 29.94 
L 192.019182 29.94 
L 194.827037 29.94 
L 197.634892 29.94 
L 200.442747 29.94 
L 203.250602 29.94 
L 206.058457 29.94 
L 208.866312 29.94 
L 211.674167 29.94 
L 214.482022 29.94 
L 217.289877 29.94 
L 220.097731 29.94 
L 222.905586 29.94 
L 225.713441 29.94 
L 228.521296 29.94 
L 231.329151 29.94 
L 234.137006 29.94 
L 236.944861 29.94 
L 239.752716 29.94 
L 242.560571 117.585 
L 245.368426 29.94 
L 248.176281 29.94 
L 250.984136 29.94 
L 253.791991 29.94 
L 256.599846 249.0525 
L 259.407701 29.94 
L 262.215556 29.94 
L 265.02341 29.94 
L 267.831265 29.94 
L 270.63912 29.94 
L 273.446975 29.94 
L 276.25483 29.94 
L 279.062685 29.94 
L 281.87054 29.94 
L 284.678395 29.94 
L 287.48625 29.94 
L 290.294105 29.94 
L 293.10196 29.94 
L 295.909815 29.94 
L 298.71767 29.94 
L 301.525525 29.94 
L 304.33338 29.94 
L 307.141235 29.94 
L 309.94909 29.94 
L 312.756944 29.94 
L 315.564799 29.94 
L 318.372654 29.94 
L 321.180509 29.94 
L 323.988364 29.94 
L 326.796219 29.94 
L 329.604074 29.94 
L 332.411929 29.94 
L 335.219784 29.94 
L 338.027639 29.94 
L 340.835494 29.94 
L 343.643349 29.94 
L 346.451204 29.94 
L 349.259059 29.94 
L 352.066914 29.94 
L 354.874769 29.94 
L 357.682623 29.94 
L 360.490478 29.94 
L 363.298333 29.94 
L 366.106188 29.94 
L 368.914043 29.94 
L 371.721898 29.94 
L 374.529753 29.94 
L 377.337608 29.94 
L 380.145463 29.94 
L 382.953318 29.94 
L 385.761173 29.94 
L 388.569028 29.94 
L 391.376883 29.94 
L 394.184738 176.015 
L 396.992593 29.94 
L 399.800448 29.94 
L 402.608302 29.94 
L 405.416157 29.94 
L 408.224012 29.94 
L 411.031867 29.94 
L 413.839722 29.94 
L 416.647577 29.94 
L 419.455432 29.94 
L 422.263287 29.94 
L 425.071142 29.94 
L 427.878997 29.94 
L 430.686852 29.94 
L 433.494707 29.94 
L 436.302562 29.94 
L 439.110417 29.94 
L 441.918272 29.94 
L 444.726127 29.94 
L 447.533981 322.09 
L 450.341836 29.94 
L 453.149691 29.94 
L 455.957546 29.94 
L 458.765401 29.94 
L 461.573256 29.94 
L 464.381111 29.94 
L 467.188966 29.94 
L 469.996821 468.165 
L 472.804676 29.94 
L 475.612531 29.94 
L 478.420386 249.0525 
L 481.228241 29.94 
L 484.036096 29.94 
L 486.843951 29.94 
L 489.651806 29.94 
L 492.45966 29.94 
L 495.267515 29.94 
L 498.07537 176.015 
L 500.883225 29.94 
L 503.69108 29.94 
L 506.498935 176.015 
L 509.30679 29.94 
L 512.114645 29.94 
L 514.9225 29.94 
L 517.730355 29.94 
L 520.53821 29.94 
L 523.346065 29.94 
L 526.15392 29.94 
L 528.961775 29.94 
L 531.76963 29.94 
L 534.577485 29.94 
L 537.38534 29.94 
L 540.193194 29.94 
L 543.001049 29.94 
L 545.808904 29.94 
L 548.616759 29.94 
L 551.424614 29.94 
L 554.232469 29.94 
L 557.040324 29.94 
L 559.848179 29.94 
L 562.656034 29.94 
L 565.463889 29.94 
L 568.271744 29.94 
L 571.079599 29.94 
L 573.887454 29.94 
L 576.695309 29.94 
L 579.503164 29.94 
L 582.311019 29.94 
L 585.118873 29.94 
L 587.926728 29.94 
L 590.734583 29.94 
L 593.542438 29.94 
L 596.350293 29.94 
L 599.158148 29.94 
L 601.966003 29.94 
L 604.773858 29.94 
L 607.581713 29.94 
L 610.389568 29.94 
L 613.197423 29.94 
L 616.005278 29.94 
L 618.813133 29.94 
L 621.620988 29.94 
L 624.428843 29.94 
L 627.236698 29.94 
L 630.044552 29.94 
L 632.852407 29.94 
L 635.660262 29.94 
L 638.468117 29.94 
L 641.275972 29.94 
L 644.083827 29.94 
L 646.891682 29.94 
L 649.699537 29.94 
L 652.507392 29.94 
L 655.315247 29.94 
L 658.123102 29.94 
L 660.930957 29.94 
L 663.738812 29.94 
L 666.546667 29.94 
L 666.546667 29.94 
L 666.546667 29.94 
L 663.738812 29.94 
L 660.930957 29.94 
L 658.123102 29.94 
L 655.315247 29.94 
L 652.507392 29.94 
L 649.699537 29.94 
L 646.891682 29.94 
L 644.083827 29.94 
L 641.275972 29.94 
L 638.468117 29.94 
L 635.660262 29.94 
L 632.852407 29.94 
L 630.044552 29.94 
L 627.236698 29.94 
L 624.428843 29.94 
L 621.620988 29.94 
L 618.813133 29.94 
L 616.005278 29.94 
L 613.197423 29.94 
L 610.389568 29.94 
L 607.581713 29.94 
L 604.773858 29.94 
L 601.966003 29.94 
L 599.158148 29.94 
L 596.350293 29.94 
L 593.542438 29.94 
L 590.734583 29.94 
L 587.926728 29.94 
L 585.118873 29.94 
L 582.311019 29.94 
L 579.503164 29.94 
L 576.695309 29.94 
L 573.887454 29.94 
L 571.079599 29.94 
L 568.271744 29.94 
L 565.463889 29.94 
L 562.656034 29.94 
L 559.848179 29.94 
L 557.040324 29.94 
L 554.232469 29.94 
L 551.424614 29.94 
L 548.616759 29.94 
L 545.808904 29.94 
L 543.001049 29.94 
L 540.193194 29.94 
L 537.38534 29.94 
L 534.577485 29.94 
L 531.76963 29.94 
L 528.961775 29.94 
L 526.15392 29.94 
L 523.346065 29.94 
L 520.53821 29.94 
L 517.730355 29.94 
L 514.9225 29.94 
L 512.114645 29.94 
L 509.30679 29.94 
L 506.498935 29.94 
L 503.69108 29.94 
L 500.883225 29.94 
L 498.07537 29.94 
L 495.267515 29.94 
L 492.45966 29.94 
L 489.651806 29.94 
L 486.843951 29.94 
L 484.036096 29.94 
L 481.228241 29.94 
L 478.420386 29.94 
L 475.612531 29.94 
L 472.804676 29.94 
L 469.996821 29.94 
L 467.188966 29.94 
L 464.381111 29.94 
L 461.573256 29.94 
L 458.765401 29.94 
L 455.957546 29.94 
L 453.149691 29.94 
L 450.341836 29.94 
L 447.533981 29.94 
L 444.726127 29.94 
L 441.918272 29.94 
L 439.110417 29.94 
L 436.302562 29.94 
L 433.494707 29.94 
L 430.686852 29.94 
L 427.878997 29.94 
L 425.071142 29.94 
L 422.263287 29.94 
L 419.455432 29.94 
L 416.647577 29.94 
L 413.839722 29.94 
L 411.031867 29.94 
L 408.224012 29.94 
L 405.416157 29.94 
L 402.608302 29.94 
L 399.800448 29.94 
L 396.992593 29.94 
L 394.184738 29.94 
L 391.376883 29.94 
L 388.569028 29.94 
L 385.761173 29.94 
L 382.953318 29.94 
L 380.145463 29.94 
L 377.337608 29.94 
L 374.529753 29.94 
L 371.721898 29.94 
L 368.914043 29.94 
L 366.106188 29.94 
L 363.298333 29.94 
L 360.490478 29.94 
L 357.682623 29.94 
L 354.874769 29.94 
L 352.066914 29.94 
L 349.259059 29.94 
L 346.451204 29.94 
L 343.643349 29.94 
L 340.835494 29.94 
L 338.027639 29.94 
L 335.219784 29.94 
L 332.411929 29.94 
L 329.604074 29.94 
L 326.796219 29.94 
L 323.988364 29.94 
L 321.180509 29.94 
L 318.372654 29.94 
L 315.564799 29.94 
L 312.756944 29.94 
L 309.94909 29.94 
L 307.141235 29.94 
L 304.33338 29.94 
L 301.525525 29.94 
L 298.71767 29.94 
L 295.909815 29.94 
L 293.10196 29.94 
L 290.294105 29.94 
L 287.48625 29.94 
L 284.678395 29.94 
L 281.87054 29.94 
L 279.062685 29.94 
L 276.25483 29.94 
L 273.446975 29.94 
L 270.63912 29.94 
L 267.831265 29.94 
L 265.02341 29.94 
L 262.215556 29.94 
L 259.407701 29.94 
L 256.599846 29.94 
L 253.791991 29.94 
L 250.984136 29.94 
L 248.176281 29.94 
L 245.368426 29.94 
L 242.560571 29.94 
L 239.752716 29.94 
L 236.944861 29.94 
L 234.137006 29.94 
L 231.329151 29.94 
L 228.521296 29.94 
L 225.713441 29.94 
L 222.905586 29.94 
L 220.097731 29.94 
L 217.289877 29.94 
L 214.482022 29.94 
L 211.674167 29.94 
L 208.866312 29.94 
L 206.058457 29.94 
L 203.250602 29.94 
L 200.442747 29.94 
L 197.634892 29.94 
L 194.827037 29.94 
L 192.019182 29.94 
L 189.211327 29.94 
L 186.403472 29.94 
L 183.595617 29.94 
L 180.787762 29.94 
L 177.979907 29.94 
L 175.172052 29.94 
L 172.364198 29.94 
L 169.556343 29.94 
L 166.748488 29.94 
L 163.940633 29.94 
L 161.132778 29.94 
L 158.324923 29.94 
L 155.517068 29.94 
L 152.709213 29.94 
L 149.901358 29.94 
L 147.093503 29.94 
L 144.285648 29.94 
L 141.477793 29.94 
L 138.669938 29.94 
L 135.862083 29.94 
L 133.054228 29.94 
L 130.246373 29.94 
L 127.438519 29.94 
L 124.630664 29.94 
L 121.822809 29.94 
L 119.014954 29.94 
L 116.207099 29.94 
L 113.399244 29.94 
L 110.591389 29.94 
L 107.783534 29.94 
L 104.975679 29.94 
L 102.167824 29.94 
L 99.359969 29.94 
L 96.552114 29.94 
L 93.744259 29.94 
L 90.936404 29.94 
L 88.128549 29.94 
L 85.320694 29.94 
L 82.51284 29.94 
L 79.704985 29.94 
L 76.89713 29.94 
L 74.089275 29.94 
L 71.28142 29.94 
L 68.473565 29.94 
L 65.66571 29.94 
L 62.857855 29.94 
L 60.05 29.94 
z
" clip-path="url(#pb8e9b5b067)" style="fill: #8d5993"/>
   </g>
   <g id="matplotlib.axis_1">
    <g id="xtick_1">
     <g id="line2d_1">
      <path d="M 127.438519 468.165 
L 127.438519 29.94 
" clip-path="url(#pb8e9b5b067)" style="fill: none; stroke-dasharray: 2.96,1.28; stroke-dashoffset: 0; stroke: #b0b0b0; stroke-opacity: 0.5; stroke-width: 0.8"/>
     </g>
     <g id="line2d_2">
      <defs>
       <path id="md0dcbf9ffa" d="M 0 0 
L 0 3.5 
" style="stroke: #000000; stroke-width: 0.8"/>
      </defs>
      <g>
       <use xlink:href="#md0dcbf9ffa" x="127.438519" y="468.165" style="stroke: #000000; stroke-width: 0.8"/>
      </g>
     </g>
     <g id="text_1">
      <!-- 25 -->
      <g transform="translate(121.076019 482.763437) scale(0.1 -0.1)">
       <defs>
        <path id="DejaVuSans-32" d="M 1228 531 
L 3431 531 
L 3431 0 
L 469 0 
L 469 531 
Q 828 903 1448 1529 
Q 2069 2156 2228 2338 
Q 2531 2678 2651 2914 
Q 2772 3150 2772 3378 
Q 2772 3750 2511 3984 
Q 2250 4219 1831 4219 
Q 1534 4219 1204 4116 
Q 875 4013 500 3803 
L 500 4441 
Q 881 4594 1212 4672 
Q 1544 4750 1819 4750 
Q 2544 4750 2975 4387 
Q 3406 4025 3406 3419 
Q 3406 3131 3298 2873 
Q 3191 2616 2906 2266 
Q 2828 2175 2409 1742 
Q 1991 1309 1228 531 
z
" transform="scale(0.015625)"/>
        <path id="DejaVuSans-35" d="M 691 4666 
L 3169 4666 
L 3169 4134 
L 1269 4134 
L 1269 2991 
Q 1406 3038 1543 3061 
Q 1681 3084 1819 3084 
Q 2600 3084 3056 2656 
Q 3513 2228 3513 1497 
Q 3513 744 3044 326 
Q 2575 -91 1722 -91 
Q 1428 -91 1123 -41 
Q 819 9 494 109 
L 494 744 
Q 775 591 1075 516 
Q 1375 441 1709 441 
Q 2250 441 2565 725 
Q 2881 1009 2881 1497 
Q 2881 1984 2565 2268 
Q 2250 2553 1709 2553 
Q 1456 2553 1204 2497 
Q 953 2441 691 2322 
L 691 4666 
z
" transform="scale(0.015625)"/>
       </defs>
       <use xlink:href="#DejaVuSans-32"/>
       <use xlink:href="#DejaVuSans-35" transform="translate(63.623047 0)"/>
      </g>
     </g>
    </g>
    <g id="xtick_2">
     <g id="line2d_3">
      <path d="M 197.634892 468.165 
L 197.634892 29.94 
" clip-path="url(#pb8e9b5b067)" style="fill: none; stroke-dasharray: 2.96,1.28; stroke-dashoffset: 0; stroke: #b0b0b0; stroke-opacity: 0.5; stroke-width: 0.8"/>
     </g>
     <g id="line2d_4">
      <g>
       <use xlink:href="#md0dcbf9ffa" x="197.634892" y="468.165" style="stroke: #000000; stroke-width: 0.8"/>
      </g>
     </g>
     <g id="text_2">
      <!-- 50 -->
      <g transform="translate(191.272392 482.763437) scale(0.1 -0.1)">
       <defs>
        <path id="DejaVuSans-30" d="M 2034 4250 
Q 1547 4250 1301 3770 
Q 1056 3291 1056 2328 
Q 1056 1369 1301 889 
Q 1547 409 2034 409 
Q 2525 409 2770 889 
Q 3016 1369 3016 2328 
Q 3016 3291 2770 3770 
Q 2525 4250 2034 4250 
z
M 2034 4750 
Q 2819 4750 3233 4129 
Q 3647 3509 3647 2328 
Q 3647 1150 3233 529 
Q 2819 -91 2034 -91 
Q 1250 -91 836 529 
Q 422 1150 422 2328 
Q 422 3509 836 4129 
Q 1250 4750 2034 4750 
z
" transform="scale(0.015625)"/>
       </defs>
       <use xlink:href="#DejaVuSans-35"/>
       <use xlink:href="#DejaVuSans-30" transform="translate(63.623047 0)"/>
      </g>
     </g>
    </g>
    <g id="xtick_3">
     <g id="line2d_5">
      <path d="M 267.831265 468.165 
L 267.831265 29.94 
" clip-path="url(#pb8e9b5b067)" style="fill: none; stroke-dasharray: 2.96,1.28; stroke-dashoffset: 0; stroke: #b0b0b0; stroke-opacity: 0.5; stroke-width: 0.8"/>
     </g>
     <g id="line2d_6">
      <g>
       <use xlink:href="#md0dcbf9ffa" x="267.831265" y="468.165" style="stroke: #000000; stroke-width: 0.8"/>
      </g>
     </g>
     <g id="text_3">
      <!-- 75 -->
      <g transform="translate(261.468765 482.763437) scale(0.1 -0.1)">
       <defs>
        <path id="DejaVuSans-37" d="M 525 4666 
L 3525 4666 
L 3525 4397 
L 1831 0 
L 1172 0 
L 2766 4134 
L 525 4134 
L 525 4666 
z
" transform="scale(0.015625)"/>
       </defs>
       <use xlink:href="#DejaVuSans-37"/>
       <use xlink:href="#DejaVuSans-35" transform="translate(63.623047 0)"/>
      </g>
     </g>
    </g>
    <g id="xtick_4">
     <g id="line2d_7">
      <path d="M 338.027639 468.165 
L 338.027639 29.94 
" clip-path="url(#pb8e9b5b067)" style="fill: none; stroke-dasharray: 2.96,1.28; stroke-dashoffset: 0; stroke: #b0b0b0; stroke-opacity: 0.5; stroke-width: 0.8"/>
     </g>
     <g id="line2d_8">
      <g>
       <use xlink:href="#md0dcbf9ffa" x="338.027639" y="468.165" style="stroke: #000000; stroke-width: 0.8"/>
      </g>
     </g>
     <g id="text_4">
      <!-- 100 -->
      <g transform="translate(328.483889 482.763437) scale(0.1 -0.1)">
       <defs>
        <path id="DejaVuSans-31" d="M 794 531 
L 1825 531 
L 1825 4091 
L 703 3866 
L 703 4441 
L 1819 4666 
L 2450 4666 
L 2450 531 
L 3481 531 
L 3481 0 
L 794 0 
L 794 531 
z
" transform="scale(0.015625)"/>
       </defs>
       <use xlink:href="#DejaVuSans-31"/>
       <use xlink:href="#DejaVuSans-30" transform="translate(63.623047 0)"/>
       <use xlink:href="#DejaVuSans-30" transform="translate(127.246094 0)"/>
      </g>
     </g>
    </g>
    <g id="xtick_5">
     <g id="line2d_9">
      <path d="M 408.224012 468.165 
L 408.224012 29.94 
" clip-path="url(#pb8e9b5b067)" style="fill: none; stroke-dasharray: 2.96,1.28; stroke-dashoffset: 0; stroke: #b0b0b0; stroke-opacity: 0.5; stroke-width: 0.8"/>
     </g>
     <g id="line2d_10">
      <g>
       <use xlink:href="#md0dcbf9ffa" x="408.224012" y="468.165" style="stroke: #000000; stroke-width: 0.8"/>
      </g>
     </g>
     <g id="text_5">
      <!-- 125 -->
      <g transform="translate(398.680262 482.763437) scale(0.1 -0.1)">
       <use xlink:href="#DejaVuSans-31"/>
       <use xlink:href="#DejaVuSans-32" transform="translate(63.623047 0)"/>
       <use xlink:href="#DejaVuSans-35" transform="translate(127.246094 0)"/>
      </g>
     </g>
    </g>
    <g id="xtick_6">
     <g id="line2d_11">
      <path d="M 478.420386 468.165 
L 478.420386 29.94 
" clip-path="url(#pb8e9b5b067)" style="fill: none; stroke-dasharray: 2.96,1.28; stroke-dashoffset: 0; stroke: #b0b0b0; stroke-opacity: 0.5; stroke-width: 0.8"/>
     </g>
     <g id="line2d_12">
      <g>
       <use xlink:href="#md0dcbf9ffa" x="478.420386" y="468.165" style="stroke: #000000; stroke-width: 0.8"/>
      </g>
     </g>
     <g id="text_6">
      <!-- 150 -->
      <g transform="translate(468.876636 482.763437) scale(0.1 -0.1)">
       <use xlink:href="#DejaVuSans-31"/>
       <use xlink:href="#DejaVuSans-35" transform="translate(63.623047 0)"/>
       <use xlink:href="#DejaVuSans-30" transform="translate(127.246094 0)"/>
      </g>
     </g>
    </g>
    <g id="xtick_7">
     <g id="line2d_13">
      <path d="M 548.616759 468.165 
L 548.616759 29.94 
" clip-path="url(#pb8e9b5b067)" style="fill: none; stroke-dasharray: 2.96,1.28; stroke-dashoffset: 0; stroke: #b0b0b0; stroke-opacity: 0.5; stroke-width: 0.8"/>
     </g>
     <g id="line2d_14">
      <g>
       <use xlink:href="#md0dcbf9ffa" x="548.616759" y="468.165" style="stroke: #000000; stroke-width: 0.8"/>
      </g>
     </g>
     <g id="text_7">
      <!-- 175 -->
      <g transform="translate(539.073009 482.763437) scale(0.1 -0.1)">
       <use xlink:href="#DejaVuSans-31"/>
       <use xlink:href="#DejaVuSans-37" transform="translate(63.623047 0)"/>
       <use xlink:href="#DejaVuSans-35" transform="translate(127.246094 0)"/>
      </g>
     </g>
    </g>
    <g id="xtick_8">
     <g id="line2d_15">
      <path d="M 618.813133 468.165 
L 618.813133 29.94 
" clip-path="url(#pb8e9b5b067)" style="fill: none; stroke-dasharray: 2.96,1.28; stroke-dashoffset: 0; stroke: #b0b0b0; stroke-opacity: 0.5; stroke-width: 0.8"/>
     </g>
     <g id="line2d_16">
      <g>
       <use xlink:href="#md0dcbf9ffa" x="618.813133" y="468.165" style="stroke: #000000; stroke-width: 0.8"/>
      </g>
     </g>
     <g id="text_8">
      <!-- 200 -->
      <g transform="translate(609.269383 482.763437) scale(0.1 -0.1)">
       <use xlink:href="#DejaVuSans-32"/>
       <use xlink:href="#DejaVuSans-30" transform="translate(63.623047 0)"/>
       <use xlink:href="#DejaVuSans-30" transform="translate(127.246094 0)"/>
      </g>
     </g>
    </g>
    <g id="text_9">
     <!-- Session Count -->
     <g transform="translate(323.040677 498.564375) scale(0.14 -0.14)">
      <defs>
       <path id="TimesNewRomanPSMT-53" d="M 2934 4334 
L 2934 2869 
L 2819 2869 
Q 2763 3291 2617 3541 
Q 2472 3791 2203 3937 
Q 1934 4084 1647 4084 
Q 1322 4084 1109 3886 
Q 897 3688 897 3434 
Q 897 3241 1031 3081 
Q 1225 2847 1953 2456 
Q 2547 2138 2764 1967 
Q 2981 1797 3098 1565 
Q 3216 1334 3216 1081 
Q 3216 600 2842 251 
Q 2469 -97 1881 -97 
Q 1697 -97 1534 -69 
Q 1438 -53 1133 45 
Q 828 144 747 144 
Q 669 144 623 97 
Q 578 50 556 -97 
L 441 -97 
L 441 1356 
L 556 1356 
Q 638 900 775 673 
Q 913 447 1195 297 
Q 1478 147 1816 147 
Q 2206 147 2432 353 
Q 2659 559 2659 841 
Q 2659 997 2573 1156 
Q 2488 1316 2306 1453 
Q 2184 1547 1640 1851 
Q 1097 2156 867 2337 
Q 638 2519 519 2737 
Q 400 2956 400 3219 
Q 400 3675 750 4004 
Q 1100 4334 1641 4334 
Q 1978 4334 2356 4169 
Q 2531 4091 2603 4091 
Q 2684 4091 2736 4139 
Q 2788 4188 2819 4334 
L 2934 4334 
z
" transform="scale(0.015625)"/>
       <path id="TimesNewRomanPSMT-65" d="M 681 1784 
Q 678 1147 991 784 
Q 1303 422 1725 422 
Q 2006 422 2214 576 
Q 2422 731 2563 1106 
L 2659 1044 
Q 2594 616 2278 264 
Q 1963 -88 1488 -88 
Q 972 -88 605 314 
Q 238 716 238 1394 
Q 238 2128 614 2539 
Q 991 2950 1559 2950 
Q 2041 2950 2350 2633 
Q 2659 2316 2659 1784 
L 681 1784 
z
M 681 1966 
L 2006 1966 
Q 1991 2241 1941 2353 
Q 1863 2528 1708 2628 
Q 1553 2728 1384 2728 
Q 1125 2728 920 2526 
Q 716 2325 681 1966 
z
" transform="scale(0.015625)"/>
       <path id="TimesNewRomanPSMT-73" d="M 2050 2947 
L 2050 1972 
L 1947 1972 
Q 1828 2431 1642 2597 
Q 1456 2763 1169 2763 
Q 950 2763 815 2647 
Q 681 2531 681 2391 
Q 681 2216 781 2091 
Q 878 1963 1175 1819 
L 1631 1597 
Q 2266 1288 2266 781 
Q 2266 391 1970 151 
Q 1675 -88 1309 -88 
Q 1047 -88 709 6 
Q 606 38 541 38 
Q 469 38 428 -44 
L 325 -44 
L 325 978 
L 428 978 
Q 516 541 762 319 
Q 1009 97 1316 97 
Q 1531 97 1667 223 
Q 1803 350 1803 528 
Q 1803 744 1651 891 
Q 1500 1038 1047 1263 
Q 594 1488 453 1669 
Q 313 1847 313 2119 
Q 313 2472 555 2709 
Q 797 2947 1181 2947 
Q 1350 2947 1591 2875 
Q 1750 2828 1803 2828 
Q 1853 2828 1881 2850 
Q 1909 2872 1947 2947 
L 2050 2947 
z
" transform="scale(0.015625)"/>
       <path id="TimesNewRomanPSMT-69" d="M 928 4444 
Q 1059 4444 1151 4351 
Q 1244 4259 1244 4128 
Q 1244 3997 1151 3903 
Q 1059 3809 928 3809 
Q 797 3809 703 3903 
Q 609 3997 609 4128 
Q 609 4259 701 4351 
Q 794 4444 928 4444 
z
M 1188 2947 
L 1188 647 
Q 1188 378 1227 289 
Q 1266 200 1342 156 
Q 1419 113 1622 113 
L 1622 0 
L 231 0 
L 231 113 
Q 441 113 512 153 
Q 584 194 626 287 
Q 669 381 669 647 
L 669 1750 
Q 669 2216 641 2353 
Q 619 2453 572 2492 
Q 525 2531 444 2531 
Q 356 2531 231 2484 
L 188 2597 
L 1050 2947 
L 1188 2947 
z
" transform="scale(0.015625)"/>
       <path id="TimesNewRomanPSMT-6f" d="M 1600 2947 
Q 2250 2947 2644 2453 
Q 2978 2031 2978 1484 
Q 2978 1100 2793 706 
Q 2609 313 2286 112 
Q 1963 -88 1566 -88 
Q 919 -88 538 428 
Q 216 863 216 1403 
Q 216 1797 411 2186 
Q 606 2575 925 2761 
Q 1244 2947 1600 2947 
z
M 1503 2744 
Q 1338 2744 1170 2645 
Q 1003 2547 900 2300 
Q 797 2053 797 1666 
Q 797 1041 1045 587 
Q 1294 134 1700 134 
Q 2003 134 2200 384 
Q 2397 634 2397 1244 
Q 2397 2006 2069 2444 
Q 1847 2744 1503 2744 
z
" transform="scale(0.015625)"/>
       <path id="TimesNewRomanPSMT-6e" d="M 1034 2341 
Q 1538 2947 1994 2947 
Q 2228 2947 2397 2830 
Q 2566 2713 2666 2444 
Q 2734 2256 2734 1869 
L 2734 647 
Q 2734 375 2778 278 
Q 2813 200 2889 156 
Q 2966 113 3172 113 
L 3172 0 
L 1756 0 
L 1756 113 
L 1816 113 
Q 2016 113 2095 173 
Q 2175 234 2206 353 
Q 2219 400 2219 647 
L 2219 1819 
Q 2219 2209 2117 2386 
Q 2016 2563 1775 2563 
Q 1403 2563 1034 2156 
L 1034 647 
Q 1034 356 1069 288 
Q 1113 197 1189 155 
Q 1266 113 1500 113 
L 1500 0 
L 84 0 
L 84 113 
L 147 113 
Q 366 113 442 223 
Q 519 334 519 647 
L 519 1709 
Q 519 2225 495 2337 
Q 472 2450 423 2490 
Q 375 2531 294 2531 
Q 206 2531 84 2484 
L 38 2597 
L 900 2947 
L 1034 2947 
L 1034 2341 
z
" transform="scale(0.015625)"/>
       <path id="TimesNewRomanPSMT-20" transform="scale(0.015625)"/>
       <path id="TimesNewRomanPSMT-43" d="M 3853 4334 
L 3950 2894 
L 3853 2894 
Q 3659 3541 3300 3825 
Q 2941 4109 2438 4109 
Q 2016 4109 1675 3895 
Q 1334 3681 1139 3212 
Q 944 2744 944 2047 
Q 944 1472 1128 1050 
Q 1313 628 1683 403 
Q 2053 178 2528 178 
Q 2941 178 3256 354 
Q 3572 531 3950 1056 
L 4047 994 
Q 3728 428 3303 165 
Q 2878 -97 2294 -97 
Q 1241 -97 663 684 
Q 231 1266 231 2053 
Q 231 2688 515 3219 
Q 800 3750 1298 4042 
Q 1797 4334 2388 4334 
Q 2847 4334 3294 4109 
Q 3425 4041 3481 4041 
Q 3566 4041 3628 4100 
Q 3709 4184 3744 4334 
L 3853 4334 
z
" transform="scale(0.015625)"/>
       <path id="TimesNewRomanPSMT-75" d="M 2709 2863 
L 2709 1128 
Q 2709 631 2732 520 
Q 2756 409 2807 365 
Q 2859 322 2928 322 
Q 3025 322 3147 375 
L 3191 266 
L 2334 -88 
L 2194 -88 
L 2194 519 
Q 1825 119 1631 15 
Q 1438 -88 1222 -88 
Q 981 -88 804 51 
Q 628 191 559 409 
Q 491 628 491 1028 
L 491 2306 
Q 491 2509 447 2587 
Q 403 2666 317 2708 
Q 231 2750 6 2747 
L 6 2863 
L 1009 2863 
L 1009 947 
Q 1009 547 1148 422 
Q 1288 297 1484 297 
Q 1619 297 1789 381 
Q 1959 466 2194 703 
L 2194 2325 
Q 2194 2569 2105 2655 
Q 2016 2741 1734 2747 
L 1734 2863 
L 2709 2863 
z
" transform="scale(0.015625)"/>
       <path id="TimesNewRomanPSMT-74" d="M 1031 3803 
L 1031 2863 
L 1700 2863 
L 1700 2644 
L 1031 2644 
L 1031 788 
Q 1031 509 1111 412 
Q 1191 316 1316 316 
Q 1419 316 1516 380 
Q 1613 444 1666 569 
L 1788 569 
Q 1678 263 1478 108 
Q 1278 -47 1066 -47 
Q 922 -47 784 33 
Q 647 113 581 261 
Q 516 409 516 719 
L 516 2644 
L 63 2644 
L 63 2747 
Q 234 2816 414 2980 
Q 594 3144 734 3369 
Q 806 3488 934 3803 
L 1031 3803 
z
" transform="scale(0.015625)"/>
      </defs>
      <use xlink:href="#TimesNewRomanPSMT-53"/>
      <use xlink:href="#TimesNewRomanPSMT-65" transform="translate(55.615234 0)"/>
      <use xlink:href="#TimesNewRomanPSMT-73" transform="translate(100 0)"/>
      <use xlink:href="#TimesNewRomanPSMT-73" transform="translate(138.916016 0)"/>
      <use xlink:href="#TimesNewRomanPSMT-69" transform="translate(177.832031 0)"/>
      <use xlink:href="#TimesNewRomanPSMT-6f" transform="translate(205.615234 0)"/>
      <use xlink:href="#TimesNewRomanPSMT-6e" transform="translate(255.615234 0)"/>
      <use xlink:href="#TimesNewRomanPSMT-20" transform="translate(305.615234 0)"/>
      <use xlink:href="#TimesNewRomanPSMT-43" transform="translate(330.615234 0)"/>
      <use xlink:href="#TimesNewRomanPSMT-6f" transform="translate(397.314453 0)"/>
      <use xlink:href="#TimesNewRomanPSMT-75" transform="translate(447.314453 0)"/>
      <use xlink:href="#TimesNewRomanPSMT-6e" transform="translate(497.314453 0)"/>
      <use xlink:href="#TimesNewRomanPSMT-74" transform="translate(547.314453 0)"/>
     </g>
    </g>
   </g>
   <g id="matplotlib.axis_2">
    <g id="ytick_1">
     <g id="line2d_17">
      <path d="M 60.05 468.165 
L 666.546667 468.165 
" clip-path="url(#pb8e9b5b067)" style="fill: none; stroke-dasharray: 2.96,1.28; stroke-dashoffset: 0; stroke: #b0b0b0; stroke-opacity: 0.5; stroke-width: 0.8"/>
     </g>
     <g id="line2d_18">
      <defs>
       <path id="m0e78e01bb1" d="M 0 0 
L -3.5 0 
" style="stroke: #000000; stroke-width: 0.8"/>
      </defs>
      <g>
       <use xlink:href="#m0e78e01bb1" x="60.05" y="468.165" style="stroke: #000000; stroke-width: 0.8"/>
      </g>
     </g>
     <g id="text_10">
      <!-- 0 -->
      <g transform="translate(46.6875 471.964219) scale(0.1 -0.1)">
       <use xlink:href="#DejaVuSans-30"/>
      </g>
     </g>
    </g>
    <g id="ytick_2">
     <g id="line2d_19">
      <path d="M 60.05 29.94 
L 666.546667 29.94 
" clip-path="url(#pb8e9b5b067)" style="fill: none; stroke-dasharray: 2.96,1.28; stroke-dashoffset: 0; stroke: #b0b0b0; stroke-opacity: 0.5; stroke-width: 0.8"/>
     </g>
     <g id="line2d_20">
      <g>
       <use xlink:href="#m0e78e01bb1" x="60.05" y="29.94" style="stroke: #000000; stroke-width: 0.8"/>
      </g>
     </g>
     <g id="text_11">
      <!-- 1 -->
      <g transform="translate(46.6875 33.739219) scale(0.1 -0.1)">
       <use xlink:href="#DejaVuSans-31"/>
      </g>
     </g>
    </g>
    <g id="text_12">
     <!-- Stacked Proportion -->
     <g transform="translate(39.692812 302.905469) rotate(-90) scale(0.14 -0.14)">
      <defs>
       <path id="TimesNewRomanPSMT-61" d="M 1822 413 
Q 1381 72 1269 19 
Q 1100 -59 909 -59 
Q 613 -59 420 144 
Q 228 347 228 678 
Q 228 888 322 1041 
Q 450 1253 767 1440 
Q 1084 1628 1822 1897 
L 1822 2009 
Q 1822 2438 1686 2597 
Q 1550 2756 1291 2756 
Q 1094 2756 978 2650 
Q 859 2544 859 2406 
L 866 2225 
Q 866 2081 792 2003 
Q 719 1925 600 1925 
Q 484 1925 411 2006 
Q 338 2088 338 2228 
Q 338 2497 613 2722 
Q 888 2947 1384 2947 
Q 1766 2947 2009 2819 
Q 2194 2722 2281 2516 
Q 2338 2381 2338 1966 
L 2338 994 
Q 2338 584 2353 492 
Q 2369 400 2405 369 
Q 2441 338 2488 338 
Q 2538 338 2575 359 
Q 2641 400 2828 588 
L 2828 413 
Q 2478 -56 2159 -56 
Q 2006 -56 1915 50 
Q 1825 156 1822 413 
z
M 1822 616 
L 1822 1706 
Q 1350 1519 1213 1441 
Q 966 1303 859 1153 
Q 753 1003 753 825 
Q 753 600 887 451 
Q 1022 303 1197 303 
Q 1434 303 1822 616 
z
" transform="scale(0.015625)"/>
       <path id="TimesNewRomanPSMT-63" d="M 2631 1088 
Q 2516 522 2178 217 
Q 1841 -88 1431 -88 
Q 944 -88 581 321 
Q 219 731 219 1428 
Q 219 2103 620 2525 
Q 1022 2947 1584 2947 
Q 2006 2947 2278 2723 
Q 2550 2500 2550 2259 
Q 2550 2141 2473 2067 
Q 2397 1994 2259 1994 
Q 2075 1994 1981 2113 
Q 1928 2178 1911 2362 
Q 1894 2547 1784 2644 
Q 1675 2738 1481 2738 
Q 1169 2738 978 2506 
Q 725 2200 725 1697 
Q 725 1184 976 792 
Q 1228 400 1656 400 
Q 1963 400 2206 609 
Q 2378 753 2541 1131 
L 2631 1088 
z
" transform="scale(0.015625)"/>
       <path id="TimesNewRomanPSMT-6b" d="M 1047 4444 
L 1047 1594 
L 1775 2259 
Q 2006 2472 2044 2528 
Q 2069 2566 2069 2603 
Q 2069 2666 2017 2711 
Q 1966 2756 1847 2763 
L 1847 2863 
L 3091 2863 
L 3091 2763 
Q 2834 2756 2664 2684 
Q 2494 2613 2291 2428 
L 1556 1750 
L 2291 822 
Q 2597 438 2703 334 
Q 2853 188 2966 144 
Q 3044 113 3238 113 
L 3238 0 
L 1847 0 
L 1847 113 
Q 1966 116 2008 148 
Q 2050 181 2050 241 
Q 2050 313 1925 472 
L 1047 1594 
L 1047 644 
Q 1047 366 1086 278 
Q 1125 191 1197 153 
Q 1269 116 1509 113 
L 1509 0 
L 53 0 
L 53 113 
Q 272 113 381 166 
Q 447 200 481 272 
Q 528 375 528 628 
L 528 3234 
Q 528 3731 506 3842 
Q 484 3953 434 3995 
Q 384 4038 303 4038 
Q 238 4038 106 3984 
L 53 4094 
L 903 4444 
L 1047 4444 
z
" transform="scale(0.015625)"/>
       <path id="TimesNewRomanPSMT-64" d="M 2222 322 
Q 2013 103 1813 7 
Q 1613 -88 1381 -88 
Q 913 -88 563 304 
Q 213 697 213 1313 
Q 213 1928 600 2439 
Q 988 2950 1597 2950 
Q 1975 2950 2222 2709 
L 2222 3238 
Q 2222 3728 2198 3840 
Q 2175 3953 2125 3993 
Q 2075 4034 2000 4034 
Q 1919 4034 1784 3984 
L 1744 4094 
L 2597 4444 
L 2738 4444 
L 2738 1134 
Q 2738 631 2761 520 
Q 2784 409 2836 365 
Q 2888 322 2956 322 
Q 3041 322 3181 375 
L 3216 266 
L 2366 -88 
L 2222 -88 
L 2222 322 
z
M 2222 541 
L 2222 2016 
Q 2203 2228 2109 2403 
Q 2016 2578 1861 2667 
Q 1706 2756 1559 2756 
Q 1284 2756 1069 2509 
Q 784 2184 784 1559 
Q 784 928 1059 592 
Q 1334 256 1672 256 
Q 1956 256 2222 541 
z
" transform="scale(0.015625)"/>
       <path id="TimesNewRomanPSMT-50" d="M 1313 1984 
L 1313 750 
Q 1313 350 1400 253 
Q 1519 116 1759 116 
L 1922 116 
L 1922 0 
L 106 0 
L 106 116 
L 266 116 
Q 534 116 650 291 
Q 713 388 713 750 
L 713 3488 
Q 713 3888 628 3984 
Q 506 4122 266 4122 
L 106 4122 
L 106 4238 
L 1659 4238 
Q 2228 4238 2556 4120 
Q 2884 4003 3109 3725 
Q 3334 3447 3334 3066 
Q 3334 2547 2992 2222 
Q 2650 1897 2025 1897 
Q 1872 1897 1694 1919 
Q 1516 1941 1313 1984 
z
M 1313 2163 
Q 1478 2131 1606 2115 
Q 1734 2100 1825 2100 
Q 2150 2100 2386 2351 
Q 2622 2603 2622 3003 
Q 2622 3278 2509 3514 
Q 2397 3750 2190 3867 
Q 1984 3984 1722 3984 
Q 1563 3984 1313 3925 
L 1313 2163 
z
" transform="scale(0.015625)"/>
       <path id="TimesNewRomanPSMT-72" d="M 1038 2947 
L 1038 2303 
Q 1397 2947 1775 2947 
Q 1947 2947 2059 2842 
Q 2172 2738 2172 2600 
Q 2172 2478 2090 2393 
Q 2009 2309 1897 2309 
Q 1788 2309 1652 2417 
Q 1516 2525 1450 2525 
Q 1394 2525 1328 2463 
Q 1188 2334 1038 2041 
L 1038 669 
Q 1038 431 1097 309 
Q 1138 225 1241 169 
Q 1344 113 1538 113 
L 1538 0 
L 72 0 
L 72 113 
Q 291 113 397 181 
Q 475 231 506 341 
Q 522 394 522 644 
L 522 1753 
Q 522 2253 501 2348 
Q 481 2444 426 2487 
Q 372 2531 291 2531 
Q 194 2531 72 2484 
L 41 2597 
L 906 2947 
L 1038 2947 
z
" transform="scale(0.015625)"/>
       <path id="TimesNewRomanPSMT-70" d="M -6 2578 
L 875 2934 
L 994 2934 
L 994 2266 
Q 1216 2644 1439 2795 
Q 1663 2947 1909 2947 
Q 2341 2947 2628 2609 
Q 2981 2197 2981 1534 
Q 2981 794 2556 309 
Q 2206 -88 1675 -88 
Q 1444 -88 1275 -22 
Q 1150 25 994 166 
L 994 -706 
Q 994 -1000 1030 -1079 
Q 1066 -1159 1155 -1206 
Q 1244 -1253 1478 -1253 
L 1478 -1369 
L -22 -1369 
L -22 -1253 
L 56 -1253 
Q 228 -1256 350 -1188 
Q 409 -1153 442 -1076 
Q 475 -1000 475 -688 
L 475 2019 
Q 475 2297 450 2372 
Q 425 2447 370 2484 
Q 316 2522 222 2522 
Q 147 2522 31 2478 
L -6 2578 
z
M 994 2081 
L 994 1013 
Q 994 666 1022 556 
Q 1066 375 1236 237 
Q 1406 100 1666 100 
Q 1978 100 2172 344 
Q 2425 663 2425 1241 
Q 2425 1897 2138 2250 
Q 1938 2494 1663 2494 
Q 1513 2494 1366 2419 
Q 1253 2363 994 2081 
z
" transform="scale(0.015625)"/>
      </defs>
      <use xlink:href="#TimesNewRomanPSMT-53"/>
      <use xlink:href="#TimesNewRomanPSMT-74" transform="translate(55.615234 0)"/>
      <use xlink:href="#TimesNewRomanPSMT-61" transform="translate(83.398438 0)"/>
      <use xlink:href="#TimesNewRomanPSMT-63" transform="translate(127.783203 0)"/>
      <use xlink:href="#TimesNewRomanPSMT-6b" transform="translate(172.167969 0)"/>
      <use xlink:href="#TimesNewRomanPSMT-65" transform="translate(222.167969 0)"/>
      <use xlink:href="#TimesNewRomanPSMT-64" transform="translate(266.552734 0)"/>
      <use xlink:href="#TimesNewRomanPSMT-20" transform="translate(316.552734 0)"/>
      <use xlink:href="#TimesNewRomanPSMT-50" transform="translate(341.552734 0)"/>
      <use xlink:href="#TimesNewRomanPSMT-72" transform="translate(397.167969 0)"/>
      <use xlink:href="#TimesNewRomanPSMT-6f" transform="translate(430.46875 0)"/>
      <use xlink:href="#TimesNewRomanPSMT-70" transform="translate(480.46875 0)"/>
      <use xlink:href="#TimesNewRomanPSMT-6f" transform="translate(530.46875 0)"/>
      <use xlink:href="#TimesNewRomanPSMT-72" transform="translate(580.46875 0)"/>
      <use xlink:href="#TimesNewRomanPSMT-74" transform="translate(613.769531 0)"/>
      <use xlink:href="#TimesNewRomanPSMT-69" transform="translate(641.552734 0)"/>
      <use xlink:href="#TimesNewRomanPSMT-6f" transform="translate(669.335938 0)"/>
      <use xlink:href="#TimesNewRomanPSMT-6e" transform="translate(719.335938 0)"/>
     </g>
    </g>
   </g>
   <g id="line2d_21">
    <path d="M 60.05 143.88854 
L 666.546667 143.88854 
" clip-path="url(#pb8e9b5b067)" style="fill: none; stroke-dasharray: 7.5,15; stroke-dashoffset: 0; stroke: #000000; stroke-width: 1.5"/>
   </g>
   <g id="patch_3">
    <path d="M 60.05 468.165 
L 60.05 29.94 
" style="fill: none; stroke: #000000; stroke-width: 0.8; stroke-linejoin: miter; stroke-linecap: square"/>
   </g>
   <g id="patch_4">
    <path d="M 666.546667 468.165 
L 666.546667 29.94 
" style="fill: none; stroke: #000000; stroke-width: 0.8; stroke-linejoin: miter; stroke-linecap: square"/>
   </g>
   <g id="patch_5">
    <path d="M 60.05 468.165 
L 666.546667 468.165 
" style="fill: none; stroke: #000000; stroke-width: 0.8; stroke-linejoin: miter; stroke-linecap: square"/>
   </g>
   <g id="patch_6">
    <path d="M 60.05 29.94 
L 666.546667 29.94 
" style="fill: none; stroke: #000000; stroke-width: 0.8; stroke-linejoin: miter; stroke-linecap: square"/>
   </g>
   <g id="text_13">
    <!-- 0.74 -->
    <g transform="translate(686.201651 147.251821) scale(0.14 -0.14)">
     <defs>
      <path id="TimesNewRomanPSMT-30" d="M 231 2094 
Q 231 2819 450 3342 
Q 669 3866 1031 4122 
Q 1313 4325 1613 4325 
Q 2100 4325 2488 3828 
Q 2972 3213 2972 2159 
Q 2972 1422 2759 906 
Q 2547 391 2217 158 
Q 1888 -75 1581 -75 
Q 975 -75 572 641 
Q 231 1244 231 2094 
z
M 844 2016 
Q 844 1141 1059 588 
Q 1238 122 1591 122 
Q 1759 122 1940 273 
Q 2122 425 2216 781 
Q 2359 1319 2359 2297 
Q 2359 3022 2209 3506 
Q 2097 3866 1919 4016 
Q 1791 4119 1609 4119 
Q 1397 4119 1231 3928 
Q 1006 3669 925 3112 
Q 844 2556 844 2016 
z
" transform="scale(0.015625)"/>
      <path id="TimesNewRomanPSMT-2e" d="M 800 606 
Q 947 606 1047 504 
Q 1147 403 1147 259 
Q 1147 116 1045 14 
Q 944 -88 800 -88 
Q 656 -88 554 14 
Q 453 116 453 259 
Q 453 406 554 506 
Q 656 606 800 606 
z
" transform="scale(0.015625)"/>
      <path id="TimesNewRomanPSMT-37" d="M 644 4238 
L 2916 4238 
L 2916 4119 
L 1503 -88 
L 1153 -88 
L 2419 3728 
L 1253 3728 
Q 900 3728 750 3644 
Q 488 3500 328 3200 
L 238 3234 
L 644 4238 
z
" transform="scale(0.015625)"/>
      <path id="TimesNewRomanPSMT-34" d="M 2978 1563 
L 2978 1119 
L 2409 1119 
L 2409 0 
L 1894 0 
L 1894 1119 
L 100 1119 
L 100 1519 
L 2066 4325 
L 2409 4325 
L 2409 1563 
L 2978 1563 
z
M 1894 1563 
L 1894 3666 
L 406 1563 
L 1894 1563 
z
" transform="scale(0.015625)"/>
     </defs>
     <use xlink:href="#TimesNewRomanPSMT-30"/>
     <use xlink:href="#TimesNewRomanPSMT-2e" transform="translate(50 0)"/>
     <use xlink:href="#TimesNewRomanPSMT-37" transform="translate(75 0)"/>
     <use xlink:href="#TimesNewRomanPSMT-34" transform="translate(125 0)"/>
    </g>
   </g>
   <g id="text_14">
    <!-- Havanna (Tonkean) -->
    <g transform="translate(278.359271 23.94) scale(0.2 -0.2)">
     <defs>
      <path id="TimesNewRomanPS-BoldMT-48" d="M 1750 2038 
L 1750 725 
Q 1750 400 1786 319 
Q 1822 238 1926 177 
Q 2031 116 2209 116 
L 2350 116 
L 2350 0 
L 134 0 
L 134 116 
L 275 116 
Q 459 116 572 181 
Q 653 225 697 331 
Q 731 406 731 725 
L 731 3513 
Q 731 3838 697 3919 
Q 663 4000 558 4061 
Q 453 4122 275 4122 
L 134 4122 
L 134 4238 
L 2350 4238 
L 2350 4122 
L 2209 4122 
Q 2025 4122 1913 4056 
Q 1831 4013 1784 3906 
Q 1750 3831 1750 3513 
L 1750 2313 
L 3247 2313 
L 3247 3513 
Q 3247 3838 3212 3919 
Q 3178 4000 3072 4061 
Q 2966 4122 2788 4122 
L 2650 4122 
L 2650 4238 
L 4863 4238 
L 4863 4122 
L 4725 4122 
Q 4538 4122 4428 4056 
Q 4347 4013 4300 3906 
Q 4266 3831 4266 3513 
L 4266 725 
Q 4266 400 4300 319 
Q 4334 238 4440 177 
Q 4547 116 4725 116 
L 4863 116 
L 4863 0 
L 2650 0 
L 2650 116 
L 2788 116 
Q 2975 116 3084 181 
Q 3166 225 3213 331 
Q 3247 406 3247 725 
L 3247 2038 
L 1750 2038 
z
" transform="scale(0.015625)"/>
      <path id="TimesNewRomanPS-BoldMT-61" d="M 1828 431 
Q 1294 -41 869 -41 
Q 619 -41 453 123 
Q 288 288 288 534 
Q 288 869 575 1136 
Q 863 1403 1828 1847 
L 1828 2141 
Q 1828 2472 1792 2558 
Q 1756 2644 1656 2708 
Q 1556 2772 1431 2772 
Q 1228 2772 1097 2681 
Q 1016 2625 1016 2550 
Q 1016 2484 1103 2388 
Q 1222 2253 1222 2128 
Q 1222 1975 1108 1867 
Q 994 1759 809 1759 
Q 613 1759 480 1878 
Q 347 1997 347 2156 
Q 347 2381 525 2586 
Q 703 2791 1022 2900 
Q 1341 3009 1684 3009 
Q 2100 3009 2342 2832 
Q 2584 2656 2656 2450 
Q 2700 2319 2700 1847 
L 2700 713 
Q 2700 513 2715 461 
Q 2731 409 2762 384 
Q 2794 359 2834 359 
Q 2916 359 3000 475 
L 3094 400 
Q 2938 169 2770 64 
Q 2603 -41 2391 -41 
Q 2141 -41 2000 76 
Q 1859 194 1828 431 
z
M 1828 659 
L 1828 1638 
Q 1450 1416 1266 1163 
Q 1144 994 1144 822 
Q 1144 678 1247 569 
Q 1325 484 1466 484 
Q 1622 484 1828 659 
z
" transform="scale(0.015625)"/>
      <path id="TimesNewRomanPS-BoldMT-76" d="M 1534 -88 
L 550 2178 
Q 372 2588 272 2697 
Q 200 2778 59 2806 
L 59 2922 
L 1613 2922 
L 1613 2806 
Q 1466 2806 1413 2753 
Q 1338 2684 1338 2591 
Q 1338 2475 1475 2156 
L 1956 1059 
L 2341 2006 
Q 2506 2413 2506 2581 
Q 2506 2678 2436 2739 
Q 2366 2800 2188 2806 
L 2188 2922 
L 3144 2922 
L 3144 2806 
Q 3006 2788 2918 2703 
Q 2831 2619 2656 2206 
L 1681 -88 
L 1534 -88 
z
" transform="scale(0.015625)"/>
      <path id="TimesNewRomanPS-BoldMT-6e" d="M 1409 2922 
L 1409 2544 
Q 1634 2788 1840 2898 
Q 2047 3009 2284 3009 
Q 2569 3009 2756 2851 
Q 2944 2694 3006 2459 
Q 3056 2281 3056 1775 
L 3056 638 
Q 3056 300 3117 217 
Q 3178 134 3372 113 
L 3372 0 
L 1894 0 
L 1894 113 
Q 2059 134 2131 250 
Q 2181 328 2181 638 
L 2181 1938 
Q 2181 2297 2153 2390 
Q 2125 2484 2058 2536 
Q 1991 2588 1909 2588 
Q 1641 2588 1409 2203 
L 1409 638 
Q 1409 309 1470 221 
Q 1531 134 1697 113 
L 1697 0 
L 219 0 
L 219 113 
Q 403 131 481 231 
Q 534 300 534 638 
L 534 2288 
Q 534 2619 473 2700 
Q 413 2781 219 2806 
L 219 2922 
L 1409 2922 
z
" transform="scale(0.015625)"/>
      <path id="TimesNewRomanPS-BoldMT-20" transform="scale(0.015625)"/>
      <path id="TimesNewRomanPS-BoldMT-28" d="M 2056 4334 
L 2056 4191 
Q 1731 3978 1578 3775 
Q 1366 3494 1247 3053 
Q 1097 2506 1097 1525 
Q 1097 600 1233 87 
Q 1369 -425 1603 -741 
Q 1766 -959 2056 -1125 
L 2056 -1281 
Q 1303 -1028 779 -248 
Q 256 531 256 1544 
Q 256 2544 778 3314 
Q 1300 4084 2056 4334 
z
" transform="scale(0.015625)"/>
      <path id="TimesNewRomanPS-BoldMT-54" d="M 4038 4238 
L 4038 3091 
L 3925 3091 
Q 3825 3488 3703 3661 
Q 3581 3834 3369 3938 
Q 3250 3994 2953 3994 
L 2638 3994 
L 2638 725 
Q 2638 400 2673 319 
Q 2709 238 2814 177 
Q 2919 116 3100 116 
L 3241 116 
L 3241 0 
L 1022 0 
L 1022 116 
L 1163 116 
Q 1347 116 1459 181 
Q 1541 225 1588 331 
Q 1622 406 1622 725 
L 1622 3994 
L 1316 3994 
Q 888 3994 694 3813 
Q 422 3559 350 3091 
L 231 3091 
L 231 4238 
L 4038 4238 
z
" transform="scale(0.015625)"/>
      <path id="TimesNewRomanPS-BoldMT-6f" d="M 1594 3009 
Q 1975 3009 2303 2812 
Q 2631 2616 2801 2253 
Q 2972 1891 2972 1459 
Q 2972 838 2656 419 
Q 2275 -88 1603 -88 
Q 944 -88 587 375 
Q 231 838 231 1447 
Q 231 2075 595 2542 
Q 959 3009 1594 3009 
z
M 1606 2788 
Q 1447 2788 1333 2667 
Q 1219 2547 1183 2192 
Q 1147 1838 1147 1206 
Q 1147 872 1191 581 
Q 1225 359 1337 243 
Q 1450 128 1594 128 
Q 1734 128 1828 206 
Q 1950 313 1991 503 
Q 2053 800 2053 1703 
Q 2053 2234 1993 2432 
Q 1934 2631 1819 2722 
Q 1738 2788 1606 2788 
z
" transform="scale(0.015625)"/>
      <path id="TimesNewRomanPS-BoldMT-6b" d="M 1403 4238 
L 1403 1450 
L 2081 2116 
Q 2291 2319 2342 2409 
Q 2394 2500 2394 2584 
Q 2394 2669 2325 2725 
Q 2256 2781 2056 2806 
L 2056 2922 
L 3366 2922 
L 3366 2806 
Q 3178 2797 3037 2717 
Q 2897 2638 2488 2238 
L 2169 1925 
L 2856 919 
Q 3272 306 3350 231 
Q 3456 125 3619 113 
L 3619 0 
L 2109 0 
L 2109 113 
Q 2209 113 2254 150 
Q 2300 188 2300 231 
Q 2300 303 2169 497 
L 1591 1344 
L 1403 1159 
L 1403 634 
Q 1403 300 1465 217 
Q 1528 134 1722 113 
L 1722 0 
L 213 0 
L 213 113 
Q 397 131 475 231 
Q 528 300 528 634 
L 528 3603 
Q 528 3934 467 4015 
Q 406 4097 213 4122 
L 213 4238 
L 1403 4238 
z
" transform="scale(0.015625)"/>
      <path id="TimesNewRomanPS-BoldMT-65" d="M 2691 1566 
L 1088 1566 
Q 1116 984 1397 647 
Q 1613 388 1916 388 
Q 2103 388 2256 492 
Q 2409 597 2584 869 
L 2691 800 
Q 2453 316 2165 114 
Q 1878 -88 1500 -88 
Q 850 -88 516 413 
Q 247 816 247 1413 
Q 247 2144 642 2576 
Q 1038 3009 1569 3009 
Q 2013 3009 2339 2645 
Q 2666 2281 2691 1566 
z
M 1922 1775 
Q 1922 2278 1867 2465 
Q 1813 2653 1697 2750 
Q 1631 2806 1522 2806 
Q 1359 2806 1256 2647 
Q 1072 2369 1072 1884 
L 1072 1775 
L 1922 1775 
z
" transform="scale(0.015625)"/>
      <path id="TimesNewRomanPS-BoldMT-29" d="M 78 -1281 
L 78 -1138 
Q 403 -922 556 -719 
Q 766 -438 888 0 
Q 1038 550 1038 1531 
Q 1038 2456 902 2967 
Q 766 3478 531 3794 
Q 369 4013 78 4178 
L 78 4334 
Q 831 4081 1354 3301 
Q 1878 2522 1878 1509 
Q 1878 513 1354 -257 
Q 831 -1028 78 -1281 
z
" transform="scale(0.015625)"/>
     </defs>
     <use xlink:href="#TimesNewRomanPS-BoldMT-48"/>
     <use xlink:href="#TimesNewRomanPS-BoldMT-61" transform="translate(77.783203 0)"/>
     <use xlink:href="#TimesNewRomanPS-BoldMT-76" transform="translate(127.783203 0)"/>
     <use xlink:href="#TimesNewRomanPS-BoldMT-61" transform="translate(177.783203 0)"/>
     <use xlink:href="#TimesNewRomanPS-BoldMT-6e" transform="translate(227.783203 0)"/>
     <use xlink:href="#TimesNewRomanPS-BoldMT-6e" transform="translate(283.398438 0)"/>
     <use xlink:href="#TimesNewRomanPS-BoldMT-61" transform="translate(339.013672 0)"/>
     <use xlink:href="#TimesNewRomanPS-BoldMT-20" transform="translate(389.013672 0)"/>
     <use xlink:href="#TimesNewRomanPS-BoldMT-28" transform="translate(414.013672 0)"/>
     <use xlink:href="#TimesNewRomanPS-BoldMT-54" transform="translate(447.314453 0)"/>
     <use xlink:href="#TimesNewRomanPS-BoldMT-6f" transform="translate(504.888672 0)"/>
     <use xlink:href="#TimesNewRomanPS-BoldMT-6e" transform="translate(554.888672 0)"/>
     <use xlink:href="#TimesNewRomanPS-BoldMT-6b" transform="translate(610.503906 0)"/>
     <use xlink:href="#TimesNewRomanPS-BoldMT-65" transform="translate(666.119141 0)"/>
     <use xlink:href="#TimesNewRomanPS-BoldMT-61" transform="translate(710.503906 0)"/>
     <use xlink:href="#TimesNewRomanPS-BoldMT-6e" transform="translate(760.503906 0)"/>
     <use xlink:href="#TimesNewRomanPS-BoldMT-29" transform="translate(816.119141 0)"/>
    </g>
   </g>
   <g id="legend_1">
    <g id="patch_7">
     <path d="M 67.05 94.49625 
L 152.946875 94.49625 
Q 154.946875 94.49625 154.946875 92.49625 
L 154.946875 36.94 
Q 154.946875 34.94 152.946875 34.94 
L 67.05 34.94 
Q 65.05 34.94 65.05 36.94 
L 65.05 92.49625 
Q 65.05 94.49625 67.05 94.49625 
z
" style="fill: #ffffff; opacity: 0.8; stroke: #cccccc; stroke-linejoin: miter"/>
    </g>
    <g id="patch_8">
     <path d="M 69.05 45.94 
L 89.05 45.94 
L 89.05 38.94 
L 69.05 38.94 
z
" style="fill: #5386b6"/>
    </g>
    <g id="text_15">
     <!-- Success -->
     <g transform="translate(97.05 45.94) scale(0.1 -0.1)">
      <use xlink:href="#TimesNewRomanPSMT-53"/>
      <use xlink:href="#TimesNewRomanPSMT-75" transform="translate(55.615234 0)"/>
      <use xlink:href="#TimesNewRomanPSMT-63" transform="translate(105.615234 0)"/>
      <use xlink:href="#TimesNewRomanPSMT-63" transform="translate(150 0)"/>
      <use xlink:href="#TimesNewRomanPSMT-65" transform="translate(194.384766 0)"/>
      <use xlink:href="#TimesNewRomanPSMT-73" transform="translate(238.769531 0)"/>
      <use xlink:href="#TimesNewRomanPSMT-73" transform="translate(277.685547 0)"/>
     </g>
    </g>
    <g id="patch_9">
     <path d="M 69.05 60.079062 
L 89.05 60.079062 
L 89.05 53.079062 
L 69.05 53.079062 
z
" style="fill: #d57459"/>
    </g>
    <g id="text_16">
     <!-- Error -->
     <g transform="translate(97.05 60.079062) scale(0.1 -0.1)">
      <defs>
       <path id="TimesNewRomanPSMT-45" d="M 1338 4006 
L 1338 2331 
L 2269 2331 
Q 2631 2331 2753 2441 
Q 2916 2584 2934 2947 
L 3050 2947 
L 3050 1472 
L 2934 1472 
Q 2891 1781 2847 1869 
Q 2791 1978 2662 2040 
Q 2534 2103 2269 2103 
L 1338 2103 
L 1338 706 
Q 1338 425 1363 364 
Q 1388 303 1450 267 
Q 1513 231 1688 231 
L 2406 231 
Q 2766 231 2928 281 
Q 3091 331 3241 478 
Q 3434 672 3638 1063 
L 3763 1063 
L 3397 0 
L 131 0 
L 131 116 
L 281 116 
Q 431 116 566 188 
Q 666 238 702 338 
Q 738 438 738 747 
L 738 3500 
Q 738 3903 656 3997 
Q 544 4122 281 4122 
L 131 4122 
L 131 4238 
L 3397 4238 
L 3444 3309 
L 3322 3309 
Q 3256 3644 3176 3769 
Q 3097 3894 2941 3959 
Q 2816 4006 2500 4006 
L 1338 4006 
z
" transform="scale(0.015625)"/>
      </defs>
      <use xlink:href="#TimesNewRomanPSMT-45"/>
      <use xlink:href="#TimesNewRomanPSMT-72" transform="translate(61.083984 0)"/>
      <use xlink:href="#TimesNewRomanPSMT-72" transform="translate(94.384766 0)"/>
      <use xlink:href="#TimesNewRomanPSMT-6f" transform="translate(127.685547 0)"/>
      <use xlink:href="#TimesNewRomanPSMT-72" transform="translate(177.685547 0)"/>
     </g>
    </g>
    <g id="patch_10">
     <path d="M 69.05 74.218125 
L 89.05 74.218125 
L 89.05 67.218125 
L 69.05 67.218125 
z
" style="fill: #e8bc60"/>
    </g>
    <g id="text_17">
     <!-- Premature -->
     <g transform="translate(97.05 74.218125) scale(0.1 -0.1)">
      <defs>
       <path id="TimesNewRomanPSMT-6d" d="M 1050 2338 
Q 1363 2650 1419 2697 
Q 1559 2816 1721 2881 
Q 1884 2947 2044 2947 
Q 2313 2947 2506 2790 
Q 2700 2634 2766 2338 
Q 3088 2713 3309 2830 
Q 3531 2947 3766 2947 
Q 3994 2947 4170 2830 
Q 4347 2713 4450 2447 
Q 4519 2266 4519 1878 
L 4519 647 
Q 4519 378 4559 278 
Q 4591 209 4675 161 
Q 4759 113 4950 113 
L 4950 0 
L 3538 0 
L 3538 113 
L 3597 113 
Q 3781 113 3884 184 
Q 3956 234 3988 344 
Q 4000 397 4000 647 
L 4000 1878 
Q 4000 2228 3916 2372 
Q 3794 2572 3525 2572 
Q 3359 2572 3192 2489 
Q 3025 2406 2788 2181 
L 2781 2147 
L 2788 2013 
L 2788 647 
Q 2788 353 2820 281 
Q 2853 209 2943 161 
Q 3034 113 3253 113 
L 3253 0 
L 1806 0 
L 1806 113 
Q 2044 113 2133 169 
Q 2222 225 2256 338 
Q 2272 391 2272 647 
L 2272 1878 
Q 2272 2228 2169 2381 
Q 2031 2581 1784 2581 
Q 1616 2581 1450 2491 
Q 1191 2353 1050 2181 
L 1050 647 
Q 1050 366 1089 281 
Q 1128 197 1204 155 
Q 1281 113 1516 113 
L 1516 0 
L 100 0 
L 100 113 
Q 297 113 375 155 
Q 453 197 493 289 
Q 534 381 534 647 
L 534 1741 
Q 534 2213 506 2350 
Q 484 2453 437 2492 
Q 391 2531 309 2531 
Q 222 2531 100 2484 
L 53 2597 
L 916 2947 
L 1050 2947 
L 1050 2338 
z
" transform="scale(0.015625)"/>
      </defs>
      <use xlink:href="#TimesNewRomanPSMT-50"/>
      <use xlink:href="#TimesNewRomanPSMT-72" transform="translate(55.615234 0)"/>
      <use xlink:href="#TimesNewRomanPSMT-65" transform="translate(88.916016 0)"/>
      <use xlink:href="#TimesNewRomanPSMT-6d" transform="translate(133.300781 0)"/>
      <use xlink:href="#TimesNewRomanPSMT-61" transform="translate(211.083984 0)"/>
      <use xlink:href="#TimesNewRomanPSMT-74" transform="translate(255.46875 0)"/>
      <use xlink:href="#TimesNewRomanPSMT-75" transform="translate(283.251953 0)"/>
      <use xlink:href="#TimesNewRomanPSMT-72" transform="translate(333.251953 0)"/>
      <use xlink:href="#TimesNewRomanPSMT-65" transform="translate(366.552734 0)"/>
     </g>
    </g>
    <g id="patch_11">
     <path d="M 69.05 88.357187 
L 89.05 88.357187 
L 89.05 81.357187 
L 69.05 81.357187 
z
" style="fill: #8d5993"/>
    </g>
    <g id="text_18">
     <!-- Stepomission -->
     <g transform="translate(97.05 88.357187) scale(0.1 -0.1)">
      <use xlink:href="#TimesNewRomanPSMT-53"/>
      <use xlink:href="#TimesNewRomanPSMT-74" transform="translate(55.615234 0)"/>
      <use xlink:href="#TimesNewRomanPSMT-65" transform="translate(83.398438 0)"/>
      <use xlink:href="#TimesNewRomanPSMT-70" transform="translate(127.783203 0)"/>
      <use xlink:href="#TimesNewRomanPSMT-6f" transform="translate(177.783203 0)"/>
      <use xlink:href="#TimesNewRomanPSMT-6d" transform="translate(227.783203 0)"/>
      <use xlink:href="#TimesNewRomanPSMT-69" transform="translate(305.566406 0)"/>
      <use xlink:href="#TimesNewRomanPSMT-73" transform="translate(333.349609 0)"/>
      <use xlink:href="#TimesNewRomanPSMT-73" transform="translate(372.265625 0)"/>
      <use xlink:href="#TimesNewRomanPSMT-69" transform="translate(411.181641 0)"/>
      <use xlink:href="#TimesNewRomanPSMT-6f" transform="translate(438.964844 0)"/>
      <use xlink:href="#TimesNewRomanPSMT-6e" transform="translate(488.964844 0)"/>
     </g>
    </g>
   </g>
  </g>
  <g id="axes_2">
   <g id="patch_12">
    <path d="M 60.05 675.16 
L 666.546667 675.16 
L 666.546667 529.085 
L 60.05 529.085 
z
" style="fill: #ffffff"/>
   </g>
   <g id="matplotlib.axis_3">
    <g id="xtick_9">
     <g id="line2d_22">
      <path d="M 198.67781 675.16 
L 198.67781 529.085 
" clip-path="url(#pdf647825f1)" style="fill: none; stroke-dasharray: 2.96,1.28; stroke-dashoffset: 0; stroke: #b0b0b0; stroke-opacity: 0.5; stroke-width: 0.8"/>
     </g>
     <g id="line2d_23">
      <g>
       <use xlink:href="#md0dcbf9ffa" x="198.67781" y="675.16" style="stroke: #000000; stroke-width: 0.8"/>
      </g>
     </g>
     <g id="text_19">
      <!-- 2023-09 -->
      <g transform="translate(177.786403 689.758437) scale(0.1 -0.1)">
       <defs>
        <path id="DejaVuSans-33" d="M 2597 2516 
Q 3050 2419 3304 2112 
Q 3559 1806 3559 1356 
Q 3559 666 3084 287 
Q 2609 -91 1734 -91 
Q 1441 -91 1130 -33 
Q 819 25 488 141 
L 488 750 
Q 750 597 1062 519 
Q 1375 441 1716 441 
Q 2309 441 2620 675 
Q 2931 909 2931 1356 
Q 2931 1769 2642 2001 
Q 2353 2234 1838 2234 
L 1294 2234 
L 1294 2753 
L 1863 2753 
Q 2328 2753 2575 2939 
Q 2822 3125 2822 3475 
Q 2822 3834 2567 4026 
Q 2313 4219 1838 4219 
Q 1578 4219 1281 4162 
Q 984 4106 628 3988 
L 628 4550 
Q 988 4650 1302 4700 
Q 1616 4750 1894 4750 
Q 2613 4750 3031 4423 
Q 3450 4097 3450 3541 
Q 3450 3153 3228 2886 
Q 3006 2619 2597 2516 
z
" transform="scale(0.015625)"/>
        <path id="DejaVuSans-2d" d="M 313 2009 
L 1997 2009 
L 1997 1497 
L 313 1497 
L 313 2009 
z
" transform="scale(0.015625)"/>
        <path id="DejaVuSans-39" d="M 703 97 
L 703 672 
Q 941 559 1184 500 
Q 1428 441 1663 441 
Q 2288 441 2617 861 
Q 2947 1281 2994 2138 
Q 2813 1869 2534 1725 
Q 2256 1581 1919 1581 
Q 1219 1581 811 2004 
Q 403 2428 403 3163 
Q 403 3881 828 4315 
Q 1253 4750 1959 4750 
Q 2769 4750 3195 4129 
Q 3622 3509 3622 2328 
Q 3622 1225 3098 567 
Q 2575 -91 1691 -91 
Q 1453 -91 1209 -44 
Q 966 3 703 97 
z
M 1959 2075 
Q 2384 2075 2632 2365 
Q 2881 2656 2881 3163 
Q 2881 3666 2632 3958 
Q 2384 4250 1959 4250 
Q 1534 4250 1286 3958 
Q 1038 3666 1038 3163 
Q 1038 2656 1286 2365 
Q 1534 2075 1959 2075 
z
" transform="scale(0.015625)"/>
       </defs>
       <use xlink:href="#DejaVuSans-32"/>
       <use xlink:href="#DejaVuSans-30" transform="translate(63.623047 0)"/>
       <use xlink:href="#DejaVuSans-32" transform="translate(127.246094 0)"/>
       <use xlink:href="#DejaVuSans-33" transform="translate(190.869141 0)"/>
       <use xlink:href="#DejaVuSans-2d" transform="translate(254.492188 0)"/>
       <use xlink:href="#DejaVuSans-30" transform="translate(290.576172 0)"/>
       <use xlink:href="#DejaVuSans-39" transform="translate(354.199219 0)"/>
      </g>
     </g>
    </g>
    <g id="xtick_10">
     <g id="line2d_24">
      <path d="M 319.977143 675.16 
L 319.977143 529.085 
" clip-path="url(#pdf647825f1)" style="fill: none; stroke-dasharray: 2.96,1.28; stroke-dashoffset: 0; stroke: #b0b0b0; stroke-opacity: 0.5; stroke-width: 0.8"/>
     </g>
     <g id="line2d_25">
      <g>
       <use xlink:href="#md0dcbf9ffa" x="319.977143" y="675.16" style="stroke: #000000; stroke-width: 0.8"/>
      </g>
     </g>
     <g id="text_20">
      <!-- 2023-09 -->
      <g transform="translate(299.085737 689.758437) scale(0.1 -0.1)">
       <use xlink:href="#DejaVuSans-32"/>
       <use xlink:href="#DejaVuSans-30" transform="translate(63.623047 0)"/>
       <use xlink:href="#DejaVuSans-32" transform="translate(127.246094 0)"/>
       <use xlink:href="#DejaVuSans-33" transform="translate(190.869141 0)"/>
       <use xlink:href="#DejaVuSans-2d" transform="translate(254.492188 0)"/>
       <use xlink:href="#DejaVuSans-30" transform="translate(290.576172 0)"/>
       <use xlink:href="#DejaVuSans-39" transform="translate(354.199219 0)"/>
      </g>
     </g>
    </g>
    <g id="xtick_11">
     <g id="line2d_26">
      <path d="M 458.604952 675.16 
L 458.604952 529.085 
" clip-path="url(#pdf647825f1)" style="fill: none; stroke-dasharray: 2.96,1.28; stroke-dashoffset: 0; stroke: #b0b0b0; stroke-opacity: 0.5; stroke-width: 0.8"/>
     </g>
     <g id="line2d_27">
      <g>
       <use xlink:href="#md0dcbf9ffa" x="458.604952" y="675.16" style="stroke: #000000; stroke-width: 0.8"/>
      </g>
     </g>
     <g id="text_21">
      <!-- 2023-10 -->
      <g transform="translate(437.713546 689.758437) scale(0.1 -0.1)">
       <use xlink:href="#DejaVuSans-32"/>
       <use xlink:href="#DejaVuSans-30" transform="translate(63.623047 0)"/>
       <use xlink:href="#DejaVuSans-32" transform="translate(127.246094 0)"/>
       <use xlink:href="#DejaVuSans-33" transform="translate(190.869141 0)"/>
       <use xlink:href="#DejaVuSans-2d" transform="translate(254.492188 0)"/>
       <use xlink:href="#DejaVuSans-31" transform="translate(290.576172 0)"/>
       <use xlink:href="#DejaVuSans-30" transform="translate(354.199219 0)"/>
      </g>
     </g>
    </g>
    <g id="xtick_12">
     <g id="line2d_28">
      <path d="M 579.904286 675.16 
L 579.904286 529.085 
" clip-path="url(#pdf647825f1)" style="fill: none; stroke-dasharray: 2.96,1.28; stroke-dashoffset: 0; stroke: #b0b0b0; stroke-opacity: 0.5; stroke-width: 0.8"/>
     </g>
     <g id="line2d_29">
      <g>
       <use xlink:href="#md0dcbf9ffa" x="579.904286" y="675.16" style="stroke: #000000; stroke-width: 0.8"/>
      </g>
     </g>
     <g id="text_22">
      <!-- 2023-10 -->
      <g transform="translate(559.012879 689.758437) scale(0.1 -0.1)">
       <use xlink:href="#DejaVuSans-32"/>
       <use xlink:href="#DejaVuSans-30" transform="translate(63.623047 0)"/>
       <use xlink:href="#DejaVuSans-32" transform="translate(127.246094 0)"/>
       <use xlink:href="#DejaVuSans-33" transform="translate(190.869141 0)"/>
       <use xlink:href="#DejaVuSans-2d" transform="translate(254.492188 0)"/>
       <use xlink:href="#DejaVuSans-31" transform="translate(290.576172 0)"/>
       <use xlink:href="#DejaVuSans-30" transform="translate(354.199219 0)"/>
      </g>
     </g>
    </g>
    <g id="text_23">
     <!-- Date -->
     <g transform="translate(350.083646 705.559375) scale(0.14 -0.14)">
      <defs>
       <path id="TimesNewRomanPSMT-44" d="M 109 0 
L 109 116 
L 269 116 
Q 538 116 650 288 
Q 719 391 719 750 
L 719 3488 
Q 719 3884 631 3984 
Q 509 4122 269 4122 
L 109 4122 
L 109 4238 
L 1834 4238 
Q 2784 4238 3279 4022 
Q 3775 3806 4076 3303 
Q 4378 2800 4378 2141 
Q 4378 1256 3841 663 
Q 3238 0 2003 0 
L 109 0 
z
M 1319 306 
Q 1716 219 1984 219 
Q 2709 219 3187 728 
Q 3666 1238 3666 2109 
Q 3666 2988 3187 3494 
Q 2709 4000 1959 4000 
Q 1678 4000 1319 3909 
L 1319 306 
z
" transform="scale(0.015625)"/>
      </defs>
      <use xlink:href="#TimesNewRomanPSMT-44"/>
      <use xlink:href="#TimesNewRomanPSMT-61" transform="translate(72.216797 0)"/>
      <use xlink:href="#TimesNewRomanPSMT-74" transform="translate(116.601562 0)"/>
      <use xlink:href="#TimesNewRomanPSMT-65" transform="translate(144.384766 0)"/>
     </g>
    </g>
   </g>
   <g id="matplotlib.axis_4">
    <g id="ytick_3">
     <g id="line2d_30">
      <path d="M 60.05 675.16 
L 666.546667 675.16 
" clip-path="url(#pdf647825f1)" style="fill: none; stroke-dasharray: 2.96,1.28; stroke-dashoffset: 0; stroke: #b0b0b0; stroke-opacity: 0.5; stroke-width: 0.8"/>
     </g>
     <g id="line2d_31">
      <g>
       <use xlink:href="#m0e78e01bb1" x="60.05" y="675.16" style="stroke: #000000; stroke-width: 0.8"/>
      </g>
     </g>
     <g id="text_24">
      <!-- 700 -->
      <g transform="translate(33.9625 678.959219) scale(0.1 -0.1)">
       <use xlink:href="#DejaVuSans-37"/>
       <use xlink:href="#DejaVuSans-30" transform="translate(63.623047 0)"/>
       <use xlink:href="#DejaVuSans-30" transform="translate(127.246094 0)"/>
      </g>
     </g>
    </g>
    <g id="ytick_4">
     <g id="line2d_32">
      <path d="M 60.05 602.1225 
L 666.546667 602.1225 
" clip-path="url(#pdf647825f1)" style="fill: none; stroke-dasharray: 2.96,1.28; stroke-dashoffset: 0; stroke: #b0b0b0; stroke-opacity: 0.5; stroke-width: 0.8"/>
     </g>
     <g id="line2d_33">
      <g>
       <use xlink:href="#m0e78e01bb1" x="60.05" y="602.1225" style="stroke: #000000; stroke-width: 0.8"/>
      </g>
     </g>
     <g id="text_25">
      <!-- 1000 -->
      <g transform="translate(27.6 605.921719) scale(0.1 -0.1)">
       <use xlink:href="#DejaVuSans-31"/>
       <use xlink:href="#DejaVuSans-30" transform="translate(63.623047 0)"/>
       <use xlink:href="#DejaVuSans-30" transform="translate(127.246094 0)"/>
       <use xlink:href="#DejaVuSans-30" transform="translate(190.869141 0)"/>
      </g>
     </g>
    </g>
    <g id="ytick_5">
     <g id="line2d_34">
      <path d="M 60.05 529.085 
L 666.546667 529.085 
" clip-path="url(#pdf647825f1)" style="fill: none; stroke-dasharray: 2.96,1.28; stroke-dashoffset: 0; stroke: #b0b0b0; stroke-opacity: 0.5; stroke-width: 0.8"/>
     </g>
     <g id="line2d_35">
      <g>
       <use xlink:href="#m0e78e01bb1" x="60.05" y="529.085" style="stroke: #000000; stroke-width: 0.8"/>
      </g>
     </g>
     <g id="text_26">
      <!-- 1300 -->
      <g transform="translate(27.6 532.884219) scale(0.1 -0.1)">
       <use xlink:href="#DejaVuSans-31"/>
       <use xlink:href="#DejaVuSans-33" transform="translate(63.623047 0)"/>
       <use xlink:href="#DejaVuSans-30" transform="translate(127.246094 0)"/>
       <use xlink:href="#DejaVuSans-30" transform="translate(190.869141 0)"/>
      </g>
     </g>
    </g>
    <g id="text_27">
     <!-- Elo -->
     <g transform="translate(20.605313 611.842656) rotate(-90) scale(0.14 -0.14)">
      <defs>
       <path id="TimesNewRomanPSMT-6c" d="M 1184 4444 
L 1184 647 
Q 1184 378 1223 290 
Q 1263 203 1344 158 
Q 1425 113 1647 113 
L 1647 0 
L 244 0 
L 244 113 
Q 441 113 512 153 
Q 584 194 625 287 
Q 666 381 666 647 
L 666 3247 
Q 666 3731 644 3842 
Q 622 3953 573 3993 
Q 525 4034 450 4034 
Q 369 4034 244 3984 
L 191 4094 
L 1044 4444 
L 1184 4444 
z
" transform="scale(0.015625)"/>
      </defs>
      <use xlink:href="#TimesNewRomanPSMT-45"/>
      <use xlink:href="#TimesNewRomanPSMT-6c" transform="translate(61.083984 0)"/>
      <use xlink:href="#TimesNewRomanPSMT-6f" transform="translate(88.867188 0)"/>
     </g>
    </g>
   </g>
   <g id="line2d_36">
    <path d="M 60.05 647.40575 
L 68.714238 645.458083 
L 77.378476 641.56275 
L 86.042714 642.536583 
L 94.706952 641.56275 
L 103.37119 640.102 
L 112.035429 638.154333 
L 120.699667 638.154333 
L 129.363905 639.128167 
L 138.028143 640.102 
L 146.692381 639.371625 
L 155.356619 640.345458 
L 164.020857 643.0235 
L 172.685095 645.701542 
L 181.349333 647.162292 
L 190.013571 647.162292 
L 198.67781 648.136125 
L 207.342048 648.8665 
L 216.006286 650.083792 
L 224.670524 651.788 
L 233.334762 651.788 
L 241.999 651.788 
L 250.663238 651.788 
L 259.327476 649.596875 
L 267.991714 647.162292 
L 276.655952 645.458083 
L 285.32019 645.458083 
L 293.984429 645.458083 
L 302.648667 645.458083 
L 311.312905 645.458083 
L 319.977143 644.48425 
L 328.641381 645.701542 
L 337.305619 645.458083 
L 345.969857 643.0235 
L 354.634095 643.0235 
L 363.298333 643.0235 
L 371.962571 643.0235 
L 380.62681 643.0235 
L 389.291048 641.075833 
L 397.955286 639.858542 
L 406.619524 639.858542 
L 415.283762 639.858542 
L 423.948 639.858542 
L 432.612238 639.858542 
L 441.276476 638.884708 
L 449.940714 637.423958 
L 458.604952 637.423958 
L 467.26919 641.806208 
L 475.933429 640.345458 
L 484.597667 640.102 
L 493.261905 638.884708 
L 501.926143 636.937042 
L 510.590381 636.937042 
L 519.254619 636.937042 
L 527.918857 641.075833 
L 536.583095 638.154333 
L 545.247333 640.102 
L 553.911571 645.945 
L 562.57581 644.971167 
L 571.240048 648.623042 
L 579.904286 648.136125 
L 588.568524 648.136125 
L 597.232762 648.379583 
L 605.897 647.892667 
L 614.561238 643.753875 
L 623.225476 644.727708 
L 631.889714 646.188458 
L 640.553952 646.188458 
L 649.21819 645.945 
L 657.882429 644.727708 
L 666.546667 644.727708 
" clip-path="url(#pdf647825f1)" style="fill: none; stroke: #ffd700; stroke-width: 2; stroke-linecap: square"/>
   </g>
   <g id="patch_13">
    <path d="M 60.05 675.16 
L 60.05 529.085 
" style="fill: none; stroke: #000000; stroke-width: 0.8; stroke-linejoin: miter; stroke-linecap: square"/>
   </g>
   <g id="patch_14">
    <path d="M 666.546667 675.16 
L 666.546667 529.085 
" style="fill: none; stroke: #000000; stroke-width: 0.8; stroke-linejoin: miter; stroke-linecap: square"/>
   </g>
   <g id="patch_15">
    <path d="M 60.05 675.16 
L 666.546667 675.16 
" style="fill: none; stroke: #000000; stroke-width: 0.8; stroke-linejoin: miter; stroke-linecap: square"/>
   </g>
   <g id="patch_16">
    <path d="M 60.05 529.085 
L 666.546667 529.085 
" style="fill: none; stroke: #000000; stroke-width: 0.8; stroke-linejoin: miter; stroke-linecap: square"/>
   </g>
   <g id="text_28">
    <!-- Hierarchy -->
    <g transform="translate(328.339583 523.085) scale(0.16 -0.16)">
     <defs>
      <path id="TimesNewRomanPS-BoldMT-69" d="M 919 4338 
Q 1122 4338 1262 4195 
Q 1403 4053 1403 3853 
Q 1403 3653 1261 3512 
Q 1119 3372 919 3372 
Q 719 3372 578 3512 
Q 438 3653 438 3853 
Q 438 4053 578 4195 
Q 719 4338 919 4338 
z
M 1356 2922 
L 1356 606 
Q 1356 297 1428 211 
Q 1500 125 1709 113 
L 1709 0 
L 131 0 
L 131 113 
Q 325 119 419 225 
Q 481 297 481 606 
L 481 2313 
Q 481 2622 409 2708 
Q 338 2794 131 2806 
L 131 2922 
L 1356 2922 
z
" transform="scale(0.015625)"/>
      <path id="TimesNewRomanPS-BoldMT-72" d="M 1428 2922 
L 1428 2259 
Q 1719 2713 1937 2861 
Q 2156 3009 2359 3009 
Q 2534 3009 2639 2901 
Q 2744 2794 2744 2597 
Q 2744 2388 2642 2272 
Q 2541 2156 2397 2156 
Q 2231 2156 2109 2262 
Q 1988 2369 1966 2381 
Q 1934 2400 1894 2400 
Q 1803 2400 1722 2331 
Q 1594 2225 1528 2028 
Q 1428 1725 1428 1359 
L 1428 688 
L 1431 513 
Q 1431 334 1453 284 
Q 1491 200 1564 161 
Q 1638 122 1813 113 
L 1813 0 
L 234 0 
L 234 113 
Q 425 128 492 217 
Q 559 306 559 688 
L 559 2303 
Q 559 2553 534 2622 
Q 503 2709 443 2750 
Q 384 2791 234 2806 
L 234 2922 
L 1428 2922 
z
" transform="scale(0.015625)"/>
      <path id="TimesNewRomanPS-BoldMT-63" d="M 2600 753 
L 2697 678 
Q 2491 291 2183 101 
Q 1875 -88 1528 -88 
Q 944 -88 594 353 
Q 244 794 244 1413 
Q 244 2009 563 2463 
Q 947 3009 1622 3009 
Q 2075 3009 2342 2781 
Q 2609 2553 2609 2272 
Q 2609 2094 2501 1987 
Q 2394 1881 2219 1881 
Q 2034 1881 1914 2003 
Q 1794 2125 1766 2438 
Q 1747 2634 1675 2713 
Q 1603 2791 1506 2791 
Q 1356 2791 1250 2631 
Q 1088 2391 1088 1894 
Q 1088 1481 1219 1104 
Q 1350 728 1578 544 
Q 1750 409 1984 409 
Q 2138 409 2275 481 
Q 2413 553 2600 753 
z
" transform="scale(0.015625)"/>
      <path id="TimesNewRomanPS-BoldMT-68" d="M 1409 4238 
L 1409 2547 
Q 1650 2800 1850 2904 
Q 2050 3009 2266 3009 
Q 2541 3009 2736 2853 
Q 2931 2697 2995 2486 
Q 3059 2275 3059 1775 
L 3059 634 
Q 3059 300 3121 217 
Q 3184 134 3375 113 
L 3375 0 
L 1894 0 
L 1894 113 
Q 2050 134 2128 238 
Q 2184 319 2184 634 
L 2184 1938 
Q 2184 2300 2156 2392 
Q 2128 2484 2061 2536 
Q 1994 2588 1909 2588 
Q 1784 2588 1665 2502 
Q 1547 2416 1409 2200 
L 1409 634 
Q 1409 322 1456 244 
Q 1516 138 1700 113 
L 1700 0 
L 219 0 
L 219 113 
Q 403 131 481 231 
Q 534 300 534 634 
L 534 3603 
Q 534 3934 473 4015 
Q 413 4097 219 4122 
L 219 4238 
L 1409 4238 
z
" transform="scale(0.015625)"/>
      <path id="TimesNewRomanPS-BoldMT-79" d="M 1556 -119 
L 613 2047 
Q 400 2538 298 2650 
Q 197 2763 53 2806 
L 53 2922 
L 1606 2922 
L 1606 2806 
Q 1453 2800 1390 2747 
Q 1328 2694 1328 2619 
Q 1328 2500 1484 2150 
L 1984 1006 
L 2325 1891 
Q 2509 2363 2509 2547 
Q 2509 2663 2432 2731 
Q 2356 2800 2163 2806 
L 2163 2922 
L 3141 2922 
L 3141 2806 
Q 2997 2791 2906 2695 
Q 2816 2600 2603 2047 
L 1769 -119 
Q 1453 -931 1300 -1119 
Q 1084 -1381 759 -1381 
Q 500 -1381 339 -1232 
Q 178 -1084 178 -875 
Q 178 -694 289 -575 
Q 400 -456 563 -456 
Q 719 -456 814 -556 
Q 909 -656 913 -866 
Q 916 -984 941 -1019 
Q 966 -1053 1013 -1053 
Q 1088 -1053 1172 -963 
Q 1297 -831 1466 -363 
L 1556 -119 
z
" transform="scale(0.015625)"/>
     </defs>
     <use xlink:href="#TimesNewRomanPS-BoldMT-48"/>
     <use xlink:href="#TimesNewRomanPS-BoldMT-69" transform="translate(77.783203 0)"/>
     <use xlink:href="#TimesNewRomanPS-BoldMT-65" transform="translate(105.566406 0)"/>
     <use xlink:href="#TimesNewRomanPS-BoldMT-72" transform="translate(149.951172 0)"/>
     <use xlink:href="#TimesNewRomanPS-BoldMT-61" transform="translate(194.335938 0)"/>
     <use xlink:href="#TimesNewRomanPS-BoldMT-72" transform="translate(244.335938 0)"/>
     <use xlink:href="#TimesNewRomanPS-BoldMT-63" transform="translate(286.970703 0)"/>
     <use xlink:href="#TimesNewRomanPS-BoldMT-68" transform="translate(331.355469 0)"/>
     <use xlink:href="#TimesNewRomanPS-BoldMT-79" transform="translate(386.970703 0)"/>
    </g>
   </g>
  </g>
 </g>
 <defs>
  <clipPath id="pb8e9b5b067">
   <rect x="60.05" y="29.94" width="606.496667" height="438.225"/>
  </clipPath>
  <clipPath id="pdf647825f1">
   <rect x="60.05" y="529.085" width="606.496667" height="146.075"/>
  </clipPath>
 </defs>
</svg>
